P2
80 60
61
16 23 25 29 36 33 34 35 36 27 21 25 26 23 24 23 25 30 29 35 35 44 38 44 47 46 45 37 41 38 34 39 37 35 40 35 41 39 40 41 36 34 32 32 35 39 41 40 38 44 40 42 41 43 37 40 39 37 37 34 34 29 27 23 23 21 23 21 22 19 16 17 18 13 12 10 13 6 8 8 
18 22 26 25 34 30 32 32 35 29 23 26 25 27 25 22 25 26 29 27 38 43 42 45 41 41 40 41 43 42 33 33 31 33 41 41 43 44 40 43 36 36 28 31 35 35 37 39 38 40 37 42 44 41 34 37 34 37 37 34 31 27 23 26 21 18 24 19 23 19 14 11 11 12 8 8 11 10 12 11 
17 21 24 27 31 31 32 33 32 31 28 27 25 24 30 24 26 29 31 30 37 43 42 46 44 42 42 38 41 37 40 39 34 36 37 41 41 40 40 42 38 45 37 29 32 35 39 38 37 40 39 40 41 40 35 37 39 37 32 33 32 30 27 26 25 20 19 18 22 20 11 11 13 11 6 8 8 9 8 14 
15 19 22 28 33 32 36 35 36 37 35 32 27 29 31 30 27 28 35 34 39 42 39 42 44 40 40 40 39 36 40 41 37 29 35 36 46 39 40 42 41 44 43 35 31 36 32 40 40 40 40 41 42 40 37 40 39 36 36 37 31 25 24 23 23 24 22 21 16 23 17 15 13 13 8 9 14 10 12 14 
15 18 17 20 35 33 36 33 34 31 34 31 34 30 31 29 27 28 31 33 38 37 37 40 38 40 36 38 41 38 41 40 37 31 36 37 44 44 37 42 41 42 41 33 30 32 39 37 38 43 39 40 41 38 38 38 40 37 30 36 28 23 24 21 25 20 25 16 18 15 14 14 11 13 10 6 13 9 12 9 
12 15 19 22 31 31 34 35 31 33 32 34 34 34 29 30 28 28 33 36 37 35 39 40 37 38 37 39 38 38 42 37 35 32 35 35 38 43 38 40 40 41 37 30 30 28 32 36 38 39 39 40 41 35 34 41 39 36 35 31 27 26 21 18 22 21 26 21 18 19 14 13 16 12 14 8 12 6 10 14 
15 16 17 17 28 33 34 37 36 35 34 34 34 32 34 30 32 33 36 34 40 40 39 40 39 39 42 38 37 40 41 41 39 37 33 37 38 40 43 40 39 41 37 29 36 31 31 37 37 39 40 41 40 43 43 40 38 36 33 35 31 25 22 20 26 21 31 21 23 21 14 13 16 15 11 17 17 8 13 8 
18 19 19 19 22 26 33 36 38 39 33 40 37 35 34 29 24 30 34 32 37 37 41 40 39 38 39 38 36 39 44 42 39 40 36 37 39 41 41 41 38 41 34 29 31 34 34 31 37 39 37 40 39 42 35 35 37 38 36 32 29 28 23 24 25 22 27 22 20 22 18 18 15 11 11 14 14 10 10 12 
15 20 22 21 25 26 32 33 39 36 38 38 39 39 32 31 26 32 36 33 41 38 44 41 41 40 42 41 40 41 42 44 39 36 37 43 42 44 40 37 39 39 35 35 34 35 30 33 32 34 36 40 43 37 38 37 39 36 35 32 33 32 29 29 27 26 26 23 21 25 19 21 22 19 21 19 18 12 16 18 
22 27 27 24 29 27 33 33 36 42 40 43 39 43 35 32 28 32 33 35 41 39 43 41 40 46 44 41 42 43 46 46 42 42 40 41 42 42 36 41 35 36 34 34 34 34 33 31 36 32 35 40 41 41 38 39 38 37 31 34 29 30 31 26 28 28 28 26 26 24 20 24 18 16 19 17 18 12 19 12 
28 31 26 26 32 28 31 29 32 39 37 39 40 40 35 33 35 35 37 38 40 40 44 44 43 44 41 45 44 43 44 45 46 43 40 41 45 42 38 38 38 35 36 36 33 38 39 30 36 33 32 37 42 41 41 41 42 36 33 32 32 28 33 23 25 26 27 23 26 25 20 21 22 21 18 21 17 16 18 15 
31 28 31 28 36 30 32 32 31 37 39 41 42 44 40 30 35 35 36 33 41 42 44 44 45 41 44 45 45 47 49 47 48 43 43 47 43 41 41 45 37 37 37 37 35 34 34 33 34 31 34 40 39 43 44 40 45 34 32 33 28 31 28 27 30 24 30 27 28 25 23 22 24 23 17 23 20 12 16 22 
31 29 29 33 33 35 33 35 33 36 43 40 44 43 45 38 37 35 36 40 42 43 45 42 42 43 45 46 47 47 48 50 49 45 42 44 45 42 41 40 39 40 37 38 33 35 34 33 32 34 34 36 41 42 39 38 39 29 30 32 32 34 29 28 28 27 30 29 25 26 25 25 26 20 14 18 21 15 17 17 
26 30 29 33 36 38 37 34 37 38 39 42 42 48 48 42 40 36 39 40 45 44 46 52 48 43 45 48 47 49 49 52 56 53 47 47 46 42 45 44 42 42 37 37 33 37 36 31 31 34 36 34 41 40 38 36 38 29 27 32 25 30 32 28 30 30 30 31 27 25 25 26 22 20 19 21 21 19 19 25 
25 32 29 33 34 35 41 38 39 38 40 42 47 49 48 46 41 40 42 41 45 45 48 50 48 48 46 49 52 52 55 55 54 58 51 52 49 47 44 47 43 46 38 42 45 40 35 35 30 33 34 35 39 40 36 35 31 29 29 27 31 31 31 32 30 28 29 29 28 26 24 26 28 23 23 24 22 21 27 20 
29 30 28 36 36 35 37 38 42 36 44 40 46 49 47 48 43 41 42 39 50 48 48 51 49 46 46 47 47 52 52 57 55 48 50 50 51 52 50 46 46 45 47 51 49 46 42 41 34 33 34 32 36 41 42 29 35 30 24 28 30 29 32 26 31 30 31 27 28 26 25 27 28 23 24 25 22 19 24 23 
29 30 35 34 36 38 38 38 39 41 41 40 43 45 46 44 45 44 44 46 47 49 50 51 48 47 47 49 48 50 56 52 56 49 53 48 49 51 49 47 44 45 51 53 52 47 45 44 40 34 33 37 35 38 37 31 33 30 23 27 27 25 25 27 29 30 30 26 26 29 27 25 30 27 20 22 24 19 23 26 
30 34 32 34 38 37 39 42 41 42 42 39 45 45 48 46 49 47 44 50 47 49 51 55 47 48 49 47 49 51 50 52 54 53 51 50 51 46 49 49 48 48 48 53 54 52 49 47 42 39 37 34 39 35 35 32 29 27 29 26 28 23 22 26 28 29 34 31 28 27 29 29 28 25 27 25 25 19 21 22 
31 32 38 38 39 39 37 42 41 43 45 40 45 47 49 46 46 49 48 53 52 50 50 51 49 50 49 50 49 50 48 53 51 49 48 52 50 51 50 46 44 47 50 50 52 55 53 49 47 44 42 37 43 44 33 33 33 29 25 32 28 25 20 25 30 31 31 30 28 28 26 30 30 28 21 23 24 26 23 26 
32 33 33 34 37 35 35 41 41 43 42 43 44 45 49 44 45 50 49 51 51 49 50 50 49 49 48 46 49 48 51 51 51 48 45 48 51 50 50 47 45 44 50 50 53 51 49 50 51 50 44 41 41 38 31 28 29 29 24 30 29 23 21 25 29 31 32 31 28 26 30 27 26 24 20 25 20 22 24 18 
31 32 36 36 38 41 40 42 39 44 45 42 47 48 47 46 48 50 50 48 51 51 46 48 49 48 46 50 47 49 48 51 51 46 45 49 52 49 51 49 47 48 49 51 52 51 49 51 56 49 52 47 44 39 30 35 28 30 25 29 26 28 31 28 32 37 30 32 32 29 29 26 26 23 23 23 24 24 27 27 
36 35 40 42 39 41 40 39 42 43 45 46 45 46 48 43 48 50 52 49 54 52 52 47 47 50 47 52 47 49 49 49 54 52 51 48 50 50 51 50 47 50 48 48 51 49 47 51 56 53 48 51 49 43 35 33 33 30 29 31 30 26 30 25 27 32 33 31 31 31 30 29 29 28 24 22 24 27 26 26 
35 34 36 40 43 44 43 41 43 44 45 44 44 48 43 44 45 51 51 51 51 51 51 50 49 47 47 50 46 52 49 50 53 49 52 53 50 51 49 50 50 48 44 47 46 48 54 47 51 52 50 47 48 44 33 32 29 30 26 31 28 27 27 27 23 28 29 27 28 29 31 29 28 28 25 28 26 22 27 25 
35 32 36 40 45 46 46 43 43 50 48 49 44 47 45 43 46 51 53 48 54 50 51 52 49 48 49 50 49 49 52 53 50 49 51 49 51 51 52 48 48 49 48 49 51 48 49 50 53 46 49 43 47 46 36 30 30 30 25 26 26 29 27 30 29 28 30 27 30 31 26 30 29 24 24 25 25 24 22 18 
37 40 38 44 47 46 46 47 48 53 52 51 50 50 50 49 48 52 52 50 50 51 54 49 53 50 50 49 53 51 54 57 56 54 54 53 52 52 51 50 50 51 51 51 51 49 51 50 52 53 52 52 49 47 41 35 33 31 29 29 29 27 32 30 33 25 28 27 26 32 26 31 33 28 26 30 26 25 26 25 
40 37 37 41 46 46 47 48 48 49 49 47 47 48 46 47 49 50 50 48 50 51 52 54 50 50 51 47 52 51 50 53 55 54 56 54 55 54 53 55 49 48 51 50 50 53 53 50 51 51 50 47 49 46 44 35 36 33 30 28 30 30 27 31 29 25 25 26 26 25 30 30 31 26 26 30 28 24 27 26 
41 43 39 41 44 46 47 47 45 49 50 46 49 48 44 46 45 48 52 52 46 50 51 46 51 48 44 48 48 48 55 57 54 54 52 53 55 58 55 51 50 49 47 49 51 49 51 47 49 49 51 47 44 46 45 38 37 31 29 28 28 26 27 25 26 26 25 23 21 22 27 30 30 24 24 24 25 25 29 25 
43 42 41 42 46 45 46 44 46 49 46 49 47 45 47 44 44 47 51 46 50 51 48 49 49 43 46 48 48 49 52 55 55 51 55 55 53 56 55 54 51 47 47 48 47 45 45 49 49 50 50 45 46 44 38 37 36 31 30 27 23 27 26 25 26 25 27 20 19 19 21 27 28 26 24 27 25 21 25 27 
40 40 39 42 47 46 46 46 45 47 46 47 46 48 47 44 43 44 45 46 48 47 45 48 48 47 47 47 51 52 51 55 53 56 57 58 57 59 53 55 51 47 46 45 44 45 42 43 46 46 49 44 45 44 42 36 39 34 32 28 27 24 25 25 21 26 25 20 21 23 24 24 27 22 27 28 27 26 26 25 
36 37 41 44 44 45 46 43 48 50 49 49 48 47 48 45 43 46 47 46 47 50 49 50 47 51 50 50 50 52 53 52 50 52 61 56 59 58 54 54 50 48 45 47 45 45 43 40 45 47 42 46 45 45 43 37 41 40 33 30 28 22 20 25 23 26 21 21 22 27 25 27 30 24 25 25 29 27 16 28 
39 43 43 41 48 46 48 47 50 50 49 47 51 48 52 48 48 43 48 49 46 49 48 52 51 50 51 51 52 50 51 53 48 53 56 56 60 57 53 53 52 50 50 45 47 45 43 39 45 50 45 46 44 43 39 37 43 43 35 35 28 28 22 25 27 24 27 23 22 30 21 27 29 26 22 27 24 26 26 22 
41 40 41 43 45 49 47 50 53 50 52 51 48 50 48 46 48 46 48 49 48 52 49 50 49 50 49 49 49 49 52 52 53 53 54 53 59 54 55 55 48 48 50 48 45 46 44 41 44 47 45 43 40 40 38 43 37 37 36 37 31 29 26 32 29 24 24 22 22 19 20 25 29 28 27 25 29 21 25 25 
41 43 40 45 44 44 47 46 49 55 51 52 52 51 49 49 48 43 48 48 45 51 52 54 51 50 52 52 49 50 49 50 52 56 51 54 53 55 54 51 50 48 47 47 48 45 46 44 44 42 44 43 39 40 37 41 41 38 33 38 35 34 30 30 26 25 26 23 22 21 20 24 29 28 26 25 26 23 26 27 
39 40 40 42 42 46 43 44 47 50 52 52 48 49 50 50 51 47 49 48 51 48 49 53 51 51 47 51 50 50 52 52 52 53 51 52 53 51 49 49 48 51 51 50 47 47 50 45 45 44 45 43 41 41 36 34 36 34 37 32 35 38 41 30 30 25 25 25 22 22 17 23 28 28 27 27 28 24 26 23 
37 38 42 38 43 42 43 46 47 52 50 49 51 49 50 48 49 49 47 52 48 52 50 53 51 51 54 48 49 49 52 50 50 52 53 53 51 50 51 43 50 47 52 48 50 43 46 47 50 46 43 46 43 42 35 35 36 31 36 33 32 39 33 31 32 26 24 19 23 23 25 25 24 26 25 29 24 25 24 28 
34 38 40 40 42 40 45 43 44 49 47 52 43 48 46 44 46 51 42 48 50 52 50 50 50 50 50 52 50 48 52 50 51 50 50 51 52 53 51 48 47 50 49 48 51 42 45 48 44 41 43 42 40 43 42 37 38 35 34 32 36 31 29 34 30 24 24 21 20 20 23 23 26 25 23 24 23 25 26 32 
40 42 41 44 41 41 40 41 46 44 48 45 47 48 44 45 43 48 44 48 45 51 49 53 50 51 52 51 51 49 48 50 49 49 51 50 48 53 51 50 49 50 48 44 46 46 46 49 47 47 48 42 43 44 40 40 40 37 36 27 34 32 30 30 30 24 23 22 20 23 26 28 26 25 23 25 24 20 22 25 
37 38 39 43 42 42 39 39 44 45 45 45 42 46 46 43 48 47 47 48 52 50 52 51 53 48 54 50 54 49 49 54 53 51 50 51 52 52 49 50 49 48 44 44 47 49 51 52 46 49 46 43 44 45 42 38 42 39 38 33 27 28 28 27 27 31 28 20 23 23 25 25 25 24 24 24 23 18 26 23 
37 37 40 42 44 42 39 42 44 41 35 39 39 44 45 44 45 46 52 48 49 50 52 50 50 49 51 53 53 47 49 49 46 50 47 53 49 49 51 46 46 51 44 43 46 45 45 50 47 45 45 44 43 43 42 40 44 39 36 37 30 29 20 28 26 26 29 22 22 21 20 21 23 21 21 22 21 18 17 23 
37 34 36 38 43 47 42 41 42 39 37 42 43 46 45 44 45 48 47 43 48 50 48 49 48 48 52 51 53 52 50 53 48 47 47 51 50 50 47 48 51 51 49 41 48 51 50 51 45 48 46 43 43 43 38 37 41 37 36 38 32 28 24 20 21 24 26 21 23 24 18 16 19 18 17 23 22 17 19 19 
37 37 40 41 43 43 43 41 41 41 42 41 40 46 46 46 45 46 49 47 48 50 49 50 50 49 52 50 52 52 52 52 48 48 48 50 53 47 55 52 49 50 47 45 47 46 51 53 50 48 45 40 45 44 40 38 40 38 37 38 30 34 26 25 18 20 26 23 18 22 16 18 17 18 18 20 20 17 17 21 
32 36 35 43 42 42 42 43 42 40 43 42 42 46 44 45 44 50 50 49 45 44 47 50 50 46 51 53 49 51 50 50 50 49 51 46 52 51 49 48 48 46 47 45 44 50 46 51 45 46 43 43 42 43 38 34 36 39 37 35 35 37 31 24 21 19 30 23 27 25 19 17 13 11 12 18 16 14 16 12 
31 34 37 36 44 40 40 41 35 41 40 41 37 43 46 46 45 46 50 45 45 45 46 47 49 46 50 50 46 49 51 54 53 48 50 47 49 49 51 51 46 46 47 43 43 44 44 45 44 50 43 40 43 38 35 32 32 35 33 33 36 32 29 20 19 19 26 22 25 25 21 17 14 14 9 16 16 10 12 12 
30 36 34 37 39 42 40 41 36 37 39 41 39 42 42 44 45 51 48 46 45 48 47 49 48 45 50 52 48 52 49 51 49 50 50 49 52 50 50 48 46 44 43 37 42 40 40 41 42 43 42 42 37 33 29 28 30 30 29 29 34 30 29 23 20 16 23 22 25 26 21 19 19 12 12 13 16 9 13 15 
35 35 33 37 37 41 35 34 35 41 41 42 42 43 44 44 47 48 50 45 47 44 46 46 45 48 50 47 44 48 48 50 50 46 47 46 49 49 48 46 46 43 44 41 39 33 34 36 39 38 38 36 34 29 28 30 31 30 34 34 34 33 29 18 19 18 21 22 21 22 21 21 16 13 12 12 11 4 10 15 
32 35 32 38 38 40 34 30 36 39 42 41 44 38 45 45 46 48 47 45 46 44 48 45 47 46 50 49 46 46 46 48 48 48 43 46 49 47 46 49 42 40 39 39 41 36 39 34 33 38 35 34 30 24 27 28 29 33 35 35 34 31 27 20 23 17 26 22 25 24 21 21 15 12 9 8 10 7 11 13 
33 37 36 42 43 36 39 34 39 38 44 41 40 44 44 44 48 52 47 50 45 48 45 44 49 45 46 47 44 46 48 51 45 47 43 45 50 46 46 49 45 41 39 37 40 38 36 36 36 34 36 36 31 29 29 31 31 31 34 32 32 34 26 14 20 17 23 24 28 27 24 23 22 16 10 12 12 6 14 11 
29 35 35 38 39 40 40 39 37 41 42 40 46 42 43 42 46 49 47 46 44 44 46 50 45 46 46 43 43 46 48 49 48 46 45 44 48 47 47 47 46 42 37 40 42 37 39 37 35 38 36 35 34 33 32 34 31 31 31 34 30 28 22 16 19 16 25 23 28 26 28 24 23 19 13 15 14 7 12 11 
28 34 31 37 40 40 41 37 40 38 44 45 44 47 47 45 42 46 45 46 44 44 46 47 46 42 48 43 46 46 44 47 42 45 43 43 49 47 46 47 44 42 42 39 39 38 40 37 35 39 42 36 37 32 30 37 34 33 33 33 34 29 21 17 19 20 23 27 27 26 24 25 23 18 15 18 12 11 13 15 
30 27 32 36 39 39 38 36 38 44 41 46 45 44 42 46 40 42 46 41 42 42 43 44 44 43 42 43 44 44 46 45 44 45 41 41 50 47 46 41 42 43 42 36 43 40 43 38 38 44 43 41 36 33 31 34 32 37 38 36 33 31 21 17 17 20 26 26 28 27 22 26 23 18 16 13 13 9 9 4 
34 32 30 36 41 41 37 41 40 45 45 40 46 48 46 44 42 45 42 39 41 40 40 41 41 40 44 40 44 41 44 44 46 44 45 47 51 47 44 41 41 41 40 37 34 35 38 36 38 45 41 39 39 36 33 31 32 33 41 33 33 28 20 18 20 21 24 24 25 28 24 25 21 20 14 13 11 7 7 9 
34 32 34 38 37 39 41 43 45 50 46 45 42 44 41 44 42 43 39 40 36 38 42 40 43 39 41 40 42 42 47 46 47 44 47 42 48 44 43 42 41 36 35 37 38 36 39 41 36 39 41 39 39 38 37 35 39 37 39 36 34 28 25 18 20 19 24 24 30 30 21 26 24 18 18 18 17 8 12 7 
36 35 34 40 39 42 41 40 44 45 43 43 40 45 40 41 44 45 41 40 40 33 36 37 42 40 39 41 41 42 46 43 43 42 47 42 48 47 43 39 36 36 36 33 36 36 34 37 35 38 42 40 37 40 37 40 42 37 36 31 30 27 21 20 21 22 26 25 25 28 22 25 25 19 19 20 22 14 12 10 
37 34 36 40 43 45 44 42 41 44 44 42 44 44 42 44 43 45 42 37 34 37 34 39 41 39 39 36 39 41 44 45 42 44 48 48 48 46 39 39 36 35 38 40 38 36 37 37 38 37 38 36 41 40 38 37 43 41 41 33 31 28 24 19 21 23 28 27 26 30 24 24 25 22 21 19 20 14 11 5 
40 40 36 43 43 44 41 38 41 42 41 41 42 44 39 38 43 44 45 40 43 42 41 41 40 39 39 44 43 44 43 45 44 42 43 45 50 48 43 43 39 41 41 38 40 38 34 37 37 38 37 37 39 40 36 40 48 41 39 33 32 25 20 19 23 23 28 27 27 25 22 23 25 17 20 21 19 15 10 0 
42 40 40 43 42 43 44 38 41 42 45 45 43 44 43 40 45 45 47 42 43 43 43 42 41 42 43 41 41 46 46 47 46 44 46 47 48 45 43 39 44 44 43 40 39 41 41 40 39 39 39 38 39 38 44 43 49 43 41 34 28 27 23 17 23 26 31 31 28 26 24 26 28 23 23 22 20 13 7 11 
42 43 37 46 47 46 42 44 40 43 44 45 45 46 43 41 44 43 42 42 41 38 42 42 46 41 39 43 46 46 46 45 46 45 47 47 51 46 44 43 48 47 44 45 42 40 41 41 40 40 41 36 38 43 44 45 45 43 36 35 28 22 23 18 23 28 29 29 27 27 26 26 27 21 23 21 15 14 14 8 
44 45 43 43 47 45 46 45 44 43 42 43 40 46 46 41 45 44 41 45 43 43 42 44 46 44 46 47 47 43 46 48 45 43 47 47 51 47 43 44 45 46 49 46 44 43 42 43 43 41 39 41 39 36 41 44 46 43 43 35 29 25 21 20 25 27 33 25 27 25 26 23 26 25 24 22 18 12 15 9 
45 43 43 43 48 47 47 44 45 38 46 39 42 47 46 41 42 41 41 41 40 42 45 44 48 45 43 43 41 43 43 47 45 46 50 47 54 50 50 47 49 48 49 46 42 44 43 43 44 42 36 39 39 41 42 41 43 42 40 34 33 21 24 24 24 23 32 25 27 24 25 26 27 24 23 22 20 18 12 6 
43 41 43 44 45 44 44 42 41 42 44 42 43 49 42 38 39 38 37 36 40 40 38 36 39 40 38 41 41 41 43 41 47 45 50 46 49 47 44 41 38 43 45 42 40 41 42 36 39 37 38 39 38 38 36 38 38 35 35 30 29 17 24 18 23 26 30 27 26 27 26 24 24 21 21 15 16 6 16 7 


