P2
80 60
889
456 337 289 255 246 214 185 166 156 144 128 112 121 118 113 132 143 187 242 156 131 116 110 101 98 85 68 60 70 88 80 80 80 77 84 83 89 92 90 93 91 93 96 97 98 99 99 98 97 94 90 100 98 98 93 93 100 93 91 98 90 90 81 82 80 83 83 75 73 72 72 73 70 58 62 52 53 53 38 36 
388 296 279 235 224 197 178 166 161 150 136 127 124 118 106 103 147 234 258 134 115 123 118 111 102 91 84 77 77 82 74 75 76 82 84 87 90 89 90 92 87 94 90 94 98 96 100 101 100 97 98 101 102 99 98 95 98 97 92 95 90 88 87 86 87 83 83 80 75 72 71 65 60 56 57 53 52 48 36 41 
326 272 250 226 196 168 169 164 164 146 144 126 132 117 108 102 154 351 266 133 115 123 124 115 112 93 88 90 87 73 72 64 67 72 74 84 85 84 89 86 88 85 89 90 90 98 97 96 98 95 95 97 99 98 93 99 100 99 93 96 95 94 91 82 86 86 77 77 78 72 67 64 64 60 52 49 50 54 45 38 
278 261 237 210 182 166 173 160 160 149 144 134 133 119 114 102 107 132 135 118 108 125 128 120 121 108 93 93 89 88 81 65 64 64 65 69 81 83 87 88 87 85 84 83 85 87 88 96 96 92 102 101 100 99 97 101 102 93 97 95 92 89 87 85 86 84 79 77 75 73 68 70 62 52 53 50 51 53 47 47 
251 238 224 204 179 168 170 156 156 142 140 133 136 133 118 107 105 107 115 107 98 117 131 128 126 111 92 86 91 86 84 76 72 65 66 64 71 78 84 85 88 83 86 86 85 87 87 94 102 95 92 95 102 100 99 98 98 101 98 99 94 95 89 85 88 87 82 76 75 69 68 65 57 56 54 49 60 58 51 42 
230 227 221 199 188 175 167 152 149 139 140 130 138 125 115 104 98 119 121 110 107 108 115 119 122 116 111 101 93 74 79 79 78 70 68 64 70 72 71 83 86 81 84 82 85 82 86 92 91 86 101 98 104 98 98 99 105 102 103 99 95 94 91 88 88 87 87 84 80 78 69 66 62 55 60 59 54 58 47 50 
227 216 219 207 192 173 162 153 148 139 137 131 136 126 113 100 105 121 127 114 112 105 104 90 100 111 127 123 104 82 68 73 73 74 72 70 64 60 65 65 81 81 80 80 79 81 83 85 86 84 87 96 98 99 100 97 99 97 98 98 97 96 87 87 89 87 81 76 72 68 66 63 64 65 60 59 57 62 56 49 
309 270 238 214 208 196 178 160 157 146 134 134 138 127 113 109 107 130 127 117 111 111 105 88 92 92 111 129 126 110 84 79 75 72 71 78 71 65 61 65 71 78 79 76 76 76 82 83 84 82 84 84 94 94 93 97 103 103 97 98 94 92 92 90 89 83 79 73 73 67 64 72 67 58 60 63 61 68 59 64 
385 381 327 275 243 212 214 196 181 160 152 140 140 132 115 111 120 140 128 120 117 113 112 89 98 93 101 128 125 120 112 101 78 78 71 78 73 74 74 70 62 61 70 74 77 77 78 81 85 77 77 84 88 93 93 98 100 98 100 97 95 97 94 89 86 85 75 73 70 70 71 73 68 64 74 71 76 73 61 53 
311 354 394 388 335 277 246 224 219 204 177 152 147 133 110 116 130 143 128 129 122 117 114 98 109 107 111 131 111 103 107 119 103 89 78 74 75 71 80 90 74 68 60 67 74 72 84 81 80 79 82 82 86 86 92 94 99 100 103 102 95 95 93 82 86 83 79 79 79 78 75 72 72 72 74 73 76 74 68 58 
308 315 326 350 394 397 344 282 249 224 211 199 173 145 108 120 139 141 127 124 123 115 110 108 117 113 119 130 115 111 98 117 107 115 93 79 74 71 79 88 91 85 68 59 58 67 75 72 83 71 75 77 81 80 83 86 95 96 95 96 95 93 90 78 80 85 77 76 79 75 77 76 81 80 78 81 82 80 71 65 
404 499 442 359 329 339 395 402 353 295 253 225 217 196 151 127 149 142 128 128 125 122 119 118 123 118 124 135 115 116 109 114 95 87 80 78 73 70 83 103 93 98 92 70 60 59 64 71 74 66 76 74 79 80 79 74 83 84 91 95 90 85 76 79 80 81 80 73 77 81 81 83 81 84 80 80 76 78 71 72 
466 562 656 627 487 348 319 337 389 415 361 294 258 223 206 198 177 139 135 136 130 127 122 124 125 123 131 133 118 120 113 105 96 92 78 77 76 75 84 102 102 94 91 83 80 68 63 66 64 60 69 74 75 80 76 75 80 78 89 91 84 87 77 83 80 84 81 81 85 87 85 88 88 84 82 80 82 80 73 71 
572 587 695 702 652 525 353 277 295 324 381 413 371 295 252 213 187 139 129 134 137 126 123 131 132 130 142 135 122 117 117 114 108 105 91 81 82 80 84 98 103 103 101 90 90 93 79 68 63 60 69 66 71 74 76 75 81 77 76 82 77 83 84 81 80 82 85 86 93 86 89 94 88 80 81 83 79 81 66 73 
646 625 662 676 616 471 362 325 270 257 274 310 373 420 401 280 190 133 126 128 127 128 123 134 129 133 145 133 128 119 118 116 115 110 98 88 93 89 85 97 105 103 101 101 95 88 80 87 66 57 63 58 65 73 71 74 74 76 77 83 82 85 80 80 83 87 88 91 91 84 86 90 86 87 84 84 77 82 70 65 
706 639 579 550 432 355 377 359 397 283 222 233 273 321 403 324 190 135 123 122 125 127 119 131 132 130 149 135 125 120 113 121 114 113 114 103 104 103 98 95 111 106 98 95 95 93 90 83 74 59 57 59 56 64 67 71 77 71 73 85 81 80 81 78 81 92 87 93 94 90 91 92 94 86 90 86 79 77 69 74 
730 673 533 388 316 295 340 418 431 399 339 200 191 216 246 233 169 126 117 113 110 111 112 131 133 141 150 132 130 128 127 124 118 115 118 111 107 103 107 106 113 107 107 99 95 95 90 88 84 71 69 65 62 55 57 67 71 75 80 80 81 84 88 92 92 99 97 98 94 98 99 95 94 92 88 88 86 84 74 67 
731 677 585 435 323 326 440 461 414 346 448 346 179 161 180 186 139 120 126 124 94 70 100 127 133 137 138 135 133 128 121 122 123 118 114 111 106 98 101 102 109 108 115 109 97 94 98 93 91 87 80 70 64 55 55 54 72 72 81 81 84 87 86 89 89 98 99 92 93 97 94 92 96 85 95 86 91 86 80 74 
661 619 558 511 465 450 473 405 309 271 298 234 187 187 178 147 129 125 143 125 97 61 83 100 117 119 129 129 127 125 124 126 119 122 117 110 111 108 101 91 105 107 114 109 96 97 99 97 96 93 85 78 70 74 64 65 69 68 79 90 91 87 86 92 99 98 92 90 99 101 92 96 98 91 88 86 84 88 72 76 
516 507 525 578 601 548 502 359 268 242 221 192 273 399 245 151 133 131 145 126 111 90 96 102 98 97 113 128 125 125 126 132 132 127 120 117 121 117 112 105 110 109 107 105 104 104 102 106 96 95 87 87 87 80 77 77 75 78 88 92 95 90 94 95 101 102 103 100 102 91 99 97 96 95 97 90 91 90 77 73 
357 429 511 556 634 668 683 490 275 240 200 201 378 384 240 191 137 130 125 126 118 114 94 93 89 87 93 118 119 123 123 126 125 123 115 120 122 115 115 111 110 109 113 109 109 103 103 98 95 94 98 94 91 92 96 88 83 80 81 90 87 99 101 106 104 106 106 105 103 99 101 100 98 94 97 97 91 92 80 79 
202 254 367 481 678 692 663 428 264 221 200 221 276 271 296 332 162 130 119 123 122 119 104 87 82 78 88 110 121 123 121 121 127 126 120 120 123 116 115 117 109 104 105 109 108 98 96 97 107 111 98 93 96 101 98 99 92 85 95 100 101 105 107 105 106 112 109 103 106 105 104 103 98 95 98 91 91 98 85 76 
199 223 279 362 667 680 616 389 231 200 218 224 248 269 407 431 215 135 125 120 125 117 112 82 82 84 97 103 115 125 122 118 121 118 120 122 125 117 114 113 111 103 97 106 103 100 103 103 103 131 108 104 106 105 106 103 99 93 101 104 105 108 109 109 104 105 106 103 106 103 109 102 102 98 99 101 95 94 80 80 
165 205 251 336 589 612 535 281 208 222 231 232 254 323 392 461 302 142 122 126 127 119 118 85 86 86 85 99 105 124 116 122 120 122 118 118 119 117 113 110 105 94 85 87 95 106 111 119 123 131 115 110 115 112 107 107 108 102 101 113 108 111 113 106 112 109 107 105 107 105 102 105 100 100 96 99 95 89 78 78 
166 220 351 491 489 483 331 227 249 244 246 262 307 353 472 531 369 155 127 123 122 125 117 87 90 84 86 99 107 121 118 121 114 122 115 118 119 115 107 102 102 99 99 98 105 116 124 125 127 126 119 121 121 121 114 113 111 106 111 111 113 112 117 112 113 113 110 102 107 108 103 103 103 104 103 100 93 88 78 79 
239 382 562 545 411 291 224 323 373 317 302 348 496 597 596 462 246 141 127 123 123 122 120 98 91 91 91 98 104 110 112 117 121 119 119 117 112 109 105 109 109 105 108 101 100 109 123 123 124 122 120 119 119 116 116 115 118 113 110 115 114 116 115 112 111 112 108 105 106 108 108 109 104 104 100 103 98 90 81 81 
287 332 361 352 304 223 225 284 453 478 429 501 613 572 410 254 177 137 126 125 123 119 123 103 99 94 93 94 98 105 107 119 118 117 115 111 113 111 113 110 112 110 109 108 105 105 109 116 123 122 121 122 119 123 115 112 115 112 109 110 110 111 117 111 111 111 111 106 113 104 105 105 107 101 105 105 96 91 81 82 
456 574 426 385 300 246 224 238 356 504 455 564 466 306 235 183 138 123 122 118 117 115 122 106 99 89 90 88 89 100 104 119 110 111 105 106 113 116 112 115 113 111 106 110 106 106 107 99 113 118 117 120 118 114 113 115 112 110 107 109 110 114 110 107 112 104 113 109 107 107 103 106 104 104 106 104 97 89 85 87 
652 619 445 452 514 406 269 219 297 430 532 548 338 234 164 142 130 118 119 118 120 119 119 109 104 89 88 84 81 96 101 114 112 109 116 113 117 117 118 120 117 114 108 111 109 107 111 98 103 105 118 123 120 121 116 120 118 114 110 111 112 113 112 111 111 115 109 106 112 113 110 112 107 108 107 108 103 105 93 91 
676 543 472 587 889 828 457 226 211 254 386 455 299 174 130 144 127 119 114 117 117 118 118 107 99 91 82 76 81 97 101 105 111 116 112 117 120 117 116 116 111 113 108 113 107 106 111 97 102 107 120 123 121 123 116 113 116 112 112 108 113 113 114 107 112 113 112 110 113 117 115 112 113 104 109 107 109 106 93 94 
679 569 394 485 639 746 392 172 171 216 239 213 186 136 150 142 123 112 117 110 116 113 111 115 99 84 74 79 83 94 101 106 109 117 111 115 120 119 117 120 119 116 118 113 109 111 111 101 102 108 123 118 114 121 116 120 128 120 109 109 111 114 112 112 112 117 115 114 118 115 112 115 114 112 112 115 110 112 97 97 
747 573 309 249 280 378 227 171 177 240 248 183 145 158 148 130 124 117 116 117 115 114 120 127 109 81 71 77 76 88 100 109 111 117 120 118 117 119 119 125 117 120 117 113 111 115 114 102 95 104 122 120 127 158 189 314 189 130 110 110 114 115 119 124 124 117 120 118 121 117 116 120 116 115 112 114 115 109 102 97 
533 407 269 215 221 249 251 234 236 241 191 134 150 168 137 124 121 117 116 117 111 118 131 139 126 84 69 64 62 76 92 106 111 113 112 112 117 122 122 121 119 118 116 114 112 118 115 98 88 94 115 126 134 170 288 658 390 137 94 102 112 119 121 124 126 121 119 120 122 123 123 121 116 116 115 113 113 111 104 101 
267 275 236 199 209 236 247 236 231 224 220 197 172 158 127 121 121 116 117 120 118 112 124 117 89 62 45 40 45 66 79 99 95 95 91 112 119 117 116 122 120 122 120 119 116 114 116 104 86 102 112 139 137 166 526 747 351 126 93 98 115 122 125 128 121 126 129 125 125 120 118 118 120 117 115 115 115 118 108 99 
238 253 225 184 216 238 237 217 227 240 231 211 181 139 126 121 120 113 115 122 121 119 112 80 62 39 32 35 43 48 61 81 95 88 79 90 107 116 119 116 117 120 120 123 123 118 117 103 91 101 112 150 132 129 252 293 173 109 90 92 111 125 124 123 129 126 119 119 125 122 122 119 119 115 118 115 114 115 106 104 
247 237 213 177 215 231 223 185 221 305 278 217 159 135 125 117 123 120 113 120 123 119 111 94 83 52 41 69 65 53 45 64 78 85 82 85 92 114 119 118 119 122 122 125 127 119 117 110 90 101 115 132 124 124 127 135 129 107 86 90 115 124 124 125 128 125 123 121 121 125 125 122 127 119 115 119 118 120 113 110 
241 225 200 185 224 227 228 205 349 315 240 176 141 129 117 121 114 114 117 119 109 119 116 112 87 54 44 60 61 54 46 48 62 82 88 86 85 94 116 122 117 123 129 130 131 125 117 108 92 107 119 139 119 113 118 120 119 103 90 85 111 122 128 124 125 125 126 124 124 124 126 126 124 120 117 123 118 113 106 100 
235 225 204 191 236 234 334 446 400 247 197 150 133 127 117 121 118 115 111 118 122 117 125 122 92 59 36 35 80 53 43 45 49 65 82 90 91 83 92 115 119 158 164 150 138 122 120 110 90 110 119 144 118 114 120 116 120 103 86 82 107 124 126 126 126 122 124 122 124 123 124 122 122 117 123 128 126 121 106 108 
256 234 253 263 258 254 499 496 273 194 179 134 132 125 118 119 118 117 115 115 113 116 123 145 124 83 59 34 57 53 46 45 30 52 70 84 81 70 68 88 130 320 265 163 144 124 120 116 102 106 112 152 124 120 124 120 119 100 83 81 102 120 122 128 127 122 131 125 127 125 125 130 148 172 182 184 187 178 148 135 
285 272 449 399 267 272 429 332 215 190 164 133 129 122 115 119 116 113 113 113 115 118 128 146 127 81 53 24 11 36 49 53 52 35 46 65 73 72 67 84 122 295 323 179 138 125 124 119 102 97 111 166 129 118 123 122 119 104 82 80 93 118 121 123 122 122 127 122 133 136 146 189 262 297 310 314 327 325 299 265 
285 311 515 481 271 231 215 214 217 188 142 128 118 119 112 118 109 111 109 114 114 109 129 143 128 79 33 0 20 41 54 61 57 45 30 42 57 70 84 92 110 147 187 149 130 128 125 119 101 94 108 172 129 113 128 123 123 103 84 76 92 114 123 122 121 118 125 144 189 233 258 318 353 373 373 379 384 385 381 369 
282 432 696 472 270 246 233 251 254 177 131 124 121 116 107 112 113 115 112 113 118 110 129 141 120 83 52 35 47 66 58 72 78 61 39 33 54 78 83 98 106 116 121 120 124 122 120 115 103 100 112 175 132 119 114 117 119 105 87 72 88 116 117 118 122 121 153 234 301 336 359 377 391 391 395 399 400 399 391 389 
262 578 876 514 279 388 377 359 293 151 129 114 115 117 112 117 109 110 112 117 112 109 128 140 125 99 68 41 46 42 48 73 84 72 44 42 57 73 82 88 103 103 111 109 113 110 116 112 102 95 105 168 136 124 115 117 146 127 96 80 80 111 115 111 121 140 234 327 359 366 376 392 400 405 404 398 398 400 397 393 
237 465 727 406 256 364 360 357 202 131 120 113 121 115 106 105 107 113 107 116 113 111 130 139 120 73 44 59 57 54 46 51 52 52 46 53 56 52 64 76 83 95 94 98 98 100 108 109 95 93 113 159 154 160 151 260 466 280 121 80 80 102 110 117 129 182 295 366 367 378 387 406 404 399 395 397 394 391 397 396 
216 210 261 254 232 311 366 268 140 116 115 111 119 112 109 111 103 107 109 117 119 112 128 131 122 93 66 52 56 55 48 50 48 41 35 43 49 49 57 59 69 84 87 84 87 88 90 84 80 84 109 141 147 165 191 437 644 382 142 81 77 96 110 109 151 225 329 382 380 398 410 406 394 391 398 397 389 393 399 398 
204 167 195 216 223 249 231 142 106 100 104 104 114 105 103 105 105 105 106 114 110 111 130 136 117 77 54 50 49 47 43 41 42 32 23 39 53 55 59 63 65 67 72 79 77 71 64 65 79 87 104 119 147 130 133 304 483 315 130 84 74 92 107 119 170 241 346 400 407 406 401 394 398 390 396 400 389 395 395 396 
193 160 185 209 207 159 124 96 90 85 89 92 105 105 98 107 102 108 106 111 107 111 122 132 105 56 45 37 50 55 48 47 39 39 20 21 57 68 70 70 73 67 68 68 62 70 84 94 94 92 99 124 136 123 127 162 200 176 129 86 75 89 101 120 170 255 363 407 410 407 400 401 404 400 403 403 400 398 384 389 
182 155 187 208 193 133 107 89 88 77 80 73 88 87 87 101 102 102 104 107 106 111 123 131 103 47 18 21 50 56 52 50 51 46 40 31 61 77 81 79 73 59 62 83 97 95 100 102 99 98 95 116 123 114 101 109 129 167 150 96 77 85 100 122 172 268 376 403 409 393 408 410 411 408 402 403 400 394 380 386 
178 163 194 204 186 115 93 76 81 75 78 71 68 69 71 84 89 94 95 104 105 104 120 126 112 59 36 38 55 55 55 58 50 52 57 37 45 87 102 94 81 91 98 106 105 97 102 115 121 120 97 97 112 104 94 102 103 110 108 88 77 88 103 116 165 268 366 396 403 380 385 388 399 393 399 398 386 383 372 376 
275 275 227 203 172 97 79 63 70 68 67 75 78 73 60 63 68 66 79 83 93 90 108 121 111 74 38 34 48 50 49 55 57 52 61 42 67 100 123 122 120 117 118 120 126 118 122 126 125 129 106 101 111 102 88 88 89 89 83 80 79 90 101 111 146 233 342 384 399 379 370 370 379 385 385 385 379 383 364 327 
392 298 242 207 168 106 76 62 66 61 67 60 73 72 65 67 74 65 67 72 76 74 102 116 109 68 49 52 59 55 48 61 55 53 64 77 96 115 118 126 128 125 122 117 126 126 123 116 117 124 110 100 106 101 82 83 82 84 83 77 82 91 104 108 127 191 297 368 392 396 379 372 378 381 378 370 367 372 342 237 
476 353 243 204 172 115 87 71 73 70 66 59 63 59 56 67 71 78 76 81 75 63 84 105 107 82 73 63 79 84 83 79 74 73 74 85 106 109 114 122 125 128 123 125 122 126 121 113 118 118 107 97 100 90 82 82 88 83 83 87 88 97 104 105 118 147 225 312 364 382 382 380 367 359 346 352 367 369 336 177 
430 309 229 202 192 142 108 89 81 71 62 52 61 60 55 66 76 71 77 77 78 72 95 113 117 104 85 76 88 96 93 92 94 116 123 104 110 114 111 114 121 129 130 125 129 122 122 127 120 115 104 95 103 97 82 92 95 98 97 97 94 102 103 108 108 120 162 210 267 314 345 344 312 290 290 332 359 343 242 111 
295 208 213 201 189 151 108 88 85 80 71 66 71 70 62 66 71 66 71 81 70 60 76 111 122 114 101 65 89 111 100 104 162 215 158 111 114 105 104 109 118 127 134 132 135 128 129 122 119 106 93 86 101 106 101 99 108 102 102 100 101 103 109 106 113 111 124 145 186 223 242 237 227 222 223 234 226 169 115 100 
195 191 209 206 185 156 125 99 89 82 78 78 85 81 68 71 75 71 77 80 84 64 67 105 121 106 90 66 86 124 116 118 155 144 127 113 113 109 107 108 114 123 133 135 137 128 125 124 125 110 105 104 112 119 114 114 112 108 111 104 109 106 111 108 112 113 114 118 136 145 159 158 157 143 132 131 124 110 108 96 
182 191 206 198 183 151 138 116 107 89 87 86 96 93 87 86 85 82 85 91 92 76 75 103 119 106 104 72 86 121 125 118 126 112 124 124 118 110 106 108 106 116 127 132 129 128 129 128 124 116 121 117 119 117 121 119 117 116 109 111 109 107 108 107 109 116 115 115 117 116 118 119 119 115 108 99 99 103 91 79 
176 184 189 188 179 152 136 131 128 121 109 105 107 103 95 98 98 91 88 99 93 84 86 110 120 110 115 87 83 121 127 111 106 107 123 129 123 115 111 105 110 118 124 126 128 128 130 132 130 128 126 128 122 125 124 122 126 120 121 119 108 111 111 112 112 114 112 114 110 113 109 116 109 106 99 99 88 98 82 77 
172 175 180 174 174 171 173 162 154 136 124 118 120 123 114 110 104 98 98 102 100 100 116 118 117 110 123 116 117 157 144 120 108 109 124 124 128 117 112 108 106 101 108 119 132 130 133 131 131 123 125 130 129 124 125 132 145 185 171 132 113 116 111 111 113 115 112 107 112 108 108 104 105 111 96 92 87 83 67 75 
202 196 182 174 167 166 177 171 167 153 136 126 130 130 127 122 124 121 110 116 116 120 130 125 124 118 126 126 130 194 157 127 117 118 130 132 136 126 122 121 113 108 117 120 139 137 137 135 135 133 130 130 136 146 159 190 339 467 345 185 123 115 112 111 111 116 113 109 115 107 109 109 106 103 96 96 91 90 70 70 
231 227 217 212 198 191 188 172 166 156 136 120 132 129 126 133 129 126 124 129 129 135 132 125 124 121 130 132 130 163 147 125 113 122 133 134 134 127 122 125 125 123 124 127 135 140 134 134 135 137 131 130 131 147 161 272 528 579 401 193 121 119 121 115 117 122 114 111 114 117 114 114 112 109 102 104 100 104 99 85 


