P2
80 60
58
3 13 8 13 19 29 33 31 32 30 23 26 28 24 23 26 21 19 25 27 32 35 33 30 35 34 33 28 32 31 35 34 31 29 28 27 30 32 39 43 42 41 44 37 27 25 27 34 34 36 35 36 36 37 35 36 33 32 30 29 28 30 20 22 15 15 15 17 15 11 8 11 12 10 5 6 11 7 7 5 
7 14 13 10 20 25 31 28 31 29 27 31 28 29 22 22 24 23 22 27 35 33 35 34 31 35 32 33 35 35 33 32 33 31 29 30 32 30 38 44 41 42 41 31 28 25 30 29 32 35 31 34 39 35 36 29 29 31 31 28 31 27 19 21 21 15 15 16 13 13 9 9 11 8 2 7 9 9 5 6 
8 17 12 16 18 19 26 26 31 31 34 31 30 29 29 25 23 22 27 28 33 34 36 32 33 35 34 32 36 32 36 36 36 33 32 29 31 30 36 42 42 45 38 28 26 30 31 32 37 40 34 31 38 36 31 36 34 33 32 29 34 31 23 23 25 20 19 16 16 13 11 10 13 9 0 4 12 11 8 5 
13 18 15 16 17 18 24 25 28 27 29 30 34 31 34 26 22 23 26 29 36 37 32 33 34 35 36 37 34 35 36 34 37 35 33 29 32 32 33 40 39 41 35 28 26 28 27 27 33 38 32 32 36 39 37 36 33 34 32 32 31 25 23 22 25 22 19 17 10 16 11 12 8 10 6 4 14 9 10 1 
14 25 20 18 21 22 21 22 27 26 31 28 32 34 32 28 23 23 22 27 34 31 33 34 36 36 35 35 34 34 37 35 40 35 35 31 31 32 34 39 36 33 32 26 30 27 28 25 26 37 31 27 36 38 38 36 34 31 27 29 28 26 24 25 27 27 19 16 14 12 9 12 8 8 6 6 12 9 6 8 
9 23 17 24 24 21 19 21 21 24 30 31 33 33 31 30 28 23 24 29 36 37 36 38 35 36 35 34 37 39 41 36 38 38 35 30 29 30 31 37 35 34 29 26 27 23 25 23 23 26 30 32 34 33 37 37 34 33 32 28 24 27 25 23 27 22 24 19 16 17 14 10 10 6 0 6 16 9 9 6 
11 20 18 24 26 25 25 24 23 25 29 33 34 33 33 31 30 28 31 31 41 39 38 38 37 43 43 40 36 37 39 40 41 40 37 37 35 31 36 34 32 32 35 30 30 27 26 26 23 24 27 31 34 36 40 37 35 32 33 33 31 28 27 24 33 24 26 21 20 17 14 13 14 12 9 15 18 16 10 11 
14 25 20 23 26 26 27 24 25 26 24 36 36 38 37 34 27 29 28 30 39 39 41 37 38 42 42 40 36 40 41 40 42 40 40 40 36 38 36 37 35 38 36 30 29 29 28 27 25 25 22 26 37 38 35 36 31 27 27 31 31 32 28 30 27 26 23 19 15 17 15 15 13 11 10 12 14 12 17 17 
15 27 22 25 27 26 29 26 30 24 24 32 37 41 39 40 31 30 31 34 35 37 44 39 38 42 40 41 38 39 41 42 43 42 40 46 40 44 42 37 34 36 35 35 31 32 28 27 22 21 22 25 38 36 40 33 34 28 29 27 33 35 28 29 32 24 23 21 16 20 17 16 17 15 14 15 19 14 16 11 
20 32 28 28 26 27 31 33 32 28 27 33 37 40 46 44 36 34 30 38 39 44 41 37 42 42 42 42 40 39 43 45 49 48 42 42 42 43 41 40 38 39 38 34 33 32 33 28 27 27 29 32 38 35 40 38 31 28 27 31 31 35 32 25 29 25 28 24 20 20 16 18 16 15 15 14 17 17 21 17 
18 28 28 31 28 27 29 28 29 32 27 28 34 42 42 43 38 33 34 39 40 40 42 39 40 42 41 43 41 41 40 42 43 40 40 45 43 43 44 42 40 42 36 34 31 35 36 27 32 31 29 26 33 33 40 32 30 24 20 24 28 32 32 25 28 29 23 22 21 24 18 16 13 16 15 17 18 20 21 18 
17 28 27 30 28 26 27 26 31 37 30 34 33 39 44 41 39 35 35 37 41 41 40 41 42 40 41 44 42 46 43 43 43 41 42 43 41 42 44 46 41 43 39 35 34 37 35 31 29 33 35 36 35 36 37 27 25 26 24 24 24 31 26 27 35 27 27 24 21 20 20 16 19 18 13 17 16 16 18 18 
22 31 26 32 32 33 30 31 32 36 31 38 35 40 47 43 42 37 40 43 41 43 43 40 39 45 42 42 44 42 44 45 45 44 40 42 42 41 45 43 44 43 41 39 36 41 43 41 37 42 40 41 40 36 36 27 28 27 26 25 25 31 28 29 35 29 28 29 20 23 20 17 19 16 14 16 22 19 14 20 
19 30 32 29 32 35 33 34 30 33 33 32 31 38 44 43 48 42 43 45 45 42 42 41 44 46 44 48 48 46 48 45 46 47 42 44 44 42 46 48 48 48 46 45 44 44 48 42 44 41 44 40 38 33 31 23 26 26 23 24 27 27 26 30 32 30 29 27 24 19 22 25 20 13 15 15 20 17 23 15 
22 33 32 33 35 32 35 32 31 34 31 33 34 41 43 44 46 42 46 47 44 46 43 44 44 44 46 46 49 45 48 49 51 49 43 47 44 46 51 50 51 50 48 49 48 46 45 46 44 43 45 43 45 36 32 31 28 32 25 23 28 28 22 30 37 28 30 27 25 22 22 24 27 17 19 21 19 24 23 12 
29 33 29 27 34 32 36 34 32 31 32 34 36 43 41 44 45 44 46 45 48 47 45 46 45 46 45 50 49 50 48 52 52 47 47 46 45 47 50 51 49 47 48 49 47 48 45 47 42 43 44 40 40 40 36 27 30 30 26 26 26 25 26 24 32 35 28 27 27 27 22 27 29 22 20 20 24 19 19 15 
30 35 31 30 34 37 37 35 29 34 34 35 34 39 40 44 49 45 47 48 47 48 47 48 47 47 47 46 47 49 52 49 55 47 49 45 43 47 50 51 47 42 49 47 50 45 48 45 43 43 45 44 42 37 32 31 28 31 28 26 24 24 25 24 31 30 31 23 23 27 25 21 25 24 18 22 24 21 20 23 
28 39 28 34 37 36 36 34 33 35 37 35 35 38 44 47 45 50 49 46 45 47 49 48 48 49 51 47 47 46 47 51 51 49 47 45 46 45 47 48 50 46 47 45 49 49 48 44 46 43 44 40 42 37 38 31 27 29 33 24 25 23 24 20 26 35 28 25 23 24 24 23 26 22 23 18 28 20 25 17 
31 40 38 36 39 37 37 39 34 37 37 42 39 40 43 43 41 45 50 50 49 49 51 48 50 49 47 49 47 45 48 49 47 47 43 45 44 45 47 47 46 44 50 46 48 49 49 46 47 48 46 43 42 42 41 34 27 27 26 28 30 28 16 20 26 23 21 24 24 26 23 23 29 25 18 20 25 26 22 18 
32 41 36 37 38 37 39 37 35 39 38 45 40 44 47 42 43 44 47 48 49 51 51 45 48 48 49 46 47 43 46 46 50 45 41 45 45 47 47 50 50 43 47 45 49 47 48 45 46 47 46 41 42 42 39 31 26 30 27 30 27 26 21 21 21 20 24 24 24 23 25 23 22 22 18 22 23 24 27 22 
30 39 38 36 38 40 40 42 41 42 44 45 46 45 43 43 42 43 46 47 50 50 48 50 45 48 50 49 43 46 46 48 51 47 44 44 47 45 49 49 48 46 44 47 46 45 45 47 48 47 50 41 43 44 40 37 31 32 25 30 23 30 26 27 22 24 18 21 25 22 25 24 25 22 20 22 26 28 27 29 
37 39 39 36 41 42 42 42 44 44 44 46 47 47 45 41 45 43 44 49 51 49 47 49 48 48 49 47 45 46 45 45 52 48 47 46 45 47 49 50 48 46 40 44 44 44 48 47 48 48 45 43 41 41 44 39 35 31 28 25 28 30 29 25 25 27 20 21 19 23 22 27 25 25 19 21 28 28 25 24 
33 41 37 36 39 41 45 41 44 46 45 45 46 47 46 45 42 45 46 47 47 47 48 48 48 45 47 47 44 49 45 47 52 47 48 48 48 44 47 50 49 44 43 39 39 43 47 43 44 46 47 43 42 42 43 40 33 31 30 27 31 31 28 31 25 20 22 18 12 20 26 29 23 24 18 25 27 26 27 27 
32 37 35 32 40 43 44 43 46 49 47 45 44 44 48 44 41 46 47 45 46 45 48 48 46 47 47 49 43 47 47 49 47 49 46 47 47 48 48 49 48 45 43 42 41 40 44 42 48 43 46 41 42 43 40 39 36 32 28 28 31 31 30 29 31 27 25 19 16 19 18 25 29 22 19 23 26 27 22 22 
40 42 39 41 40 41 40 46 46 50 50 48 47 49 51 48 45 46 47 44 41 47 47 45 48 50 48 49 46 48 47 51 48 52 51 50 48 50 49 48 49 49 46 42 41 39 43 44 43 49 43 47 46 43 42 43 38 37 35 30 30 34 32 29 30 28 25 21 20 19 17 26 29 26 23 25 26 24 25 19 
39 45 37 39 41 40 43 44 48 46 50 43 49 47 46 49 44 42 43 41 44 50 50 50 46 46 48 48 50 48 46 49 52 54 53 51 51 51 53 56 51 48 49 44 42 41 43 40 41 44 45 42 44 42 42 41 44 45 38 30 31 34 29 31 34 25 22 23 18 15 22 23 30 25 24 25 30 27 27 23 
40 46 42 40 37 40 44 42 39 43 46 44 49 47 46 46 43 45 44 49 44 48 46 43 47 43 45 47 49 45 47 50 53 53 52 49 51 54 56 49 49 48 49 47 45 42 39 41 38 40 44 40 42 42 43 39 42 41 37 35 34 32 30 28 30 23 26 23 19 18 18 26 28 22 21 20 29 27 27 15 
36 46 43 39 38 37 37 37 40 44 40 45 42 47 47 46 43 44 46 44 48 48 50 45 48 42 49 45 44 42 47 49 53 51 50 51 49 50 52 53 48 47 44 46 43 40 41 38 40 41 39 34 40 36 38 36 37 42 40 32 33 30 28 26 25 22 20 22 20 17 13 20 21 24 20 21 29 22 32 22 
33 44 37 42 42 43 38 40 34 41 42 40 44 46 45 45 45 44 43 45 44 47 43 46 47 42 47 46 48 44 48 49 53 53 54 55 53 52 50 51 48 46 45 46 44 41 41 38 38 38 39 38 37 35 37 32 33 38 39 36 38 31 29 28 25 24 19 19 17 16 17 14 20 24 21 26 28 27 21 18 
28 41 44 44 46 40 39 35 37 40 41 39 46 41 43 45 45 43 44 45 44 44 47 45 44 51 51 49 49 47 51 48 49 53 58 56 55 54 51 50 46 48 47 48 45 43 44 41 43 41 38 38 37 39 33 32 29 34 37 33 41 35 30 27 26 22 22 18 21 21 19 16 26 24 21 24 26 25 25 21 
32 42 46 42 48 45 40 41 44 42 40 41 45 42 44 45 44 43 44 46 44 48 46 51 47 52 50 46 48 46 47 46 47 54 55 54 54 56 54 53 52 45 49 46 47 45 44 42 41 45 44 41 40 39 34 34 31 32 34 30 36 37 34 31 28 22 22 19 19 23 20 23 24 22 19 27 26 25 20 19 
33 44 40 43 45 44 42 45 44 41 41 42 41 42 43 43 44 45 44 47 47 48 46 46 48 49 48 46 48 45 46 47 50 50 50 56 54 52 53 53 46 48 48 44 43 40 43 44 46 46 45 44 40 42 40 40 32 34 33 32 35 41 33 39 36 28 22 19 17 16 19 22 23 25 19 22 29 22 23 19 
37 42 42 44 46 46 44 44 45 47 43 44 41 48 45 47 45 43 45 47 44 50 53 49 50 48 52 50 49 48 46 46 51 54 49 51 51 53 54 50 52 45 50 44 43 41 44 44 46 45 49 43 41 41 42 40 40 36 36 36 33 37 34 39 39 32 23 20 15 20 18 29 26 24 21 22 25 21 24 21 
37 44 45 48 46 48 45 45 46 46 45 43 38 41 44 49 47 48 46 44 50 47 50 48 50 49 47 48 51 48 47 50 49 53 48 50 50 48 49 52 50 53 51 44 41 40 44 45 43 48 48 44 42 40 45 39 43 40 40 37 34 38 38 38 42 36 27 26 18 18 16 28 29 26 20 21 25 23 25 22 
33 44 38 43 45 46 45 50 48 49 47 43 45 41 49 47 47 50 47 51 47 51 50 52 52 49 53 51 47 46 46 46 47 49 49 48 46 46 48 47 51 49 48 43 40 42 41 45 43 46 46 43 44 43 41 42 43 44 41 39 40 42 36 33 37 36 34 24 21 17 16 22 22 28 16 18 21 20 26 21 
32 42 39 43 43 44 45 44 47 50 47 49 38 42 42 47 46 50 45 50 51 48 53 51 51 53 52 56 49 46 47 46 46 48 48 47 46 48 48 47 48 50 44 42 42 42 42 48 45 43 47 41 41 41 42 43 43 42 43 39 43 39 36 31 33 30 30 27 23 14 18 17 22 21 16 16 22 22 26 18 
35 44 40 38 48 42 40 45 46 48 49 46 45 47 41 46 44 49 50 49 46 50 50 52 49 53 49 53 48 45 48 46 49 48 49 46 44 48 49 50 47 48 47 35 37 41 49 48 45 48 47 37 41 44 45 40 45 43 42 37 43 44 38 30 30 24 25 28 24 19 18 20 18 16 13 20 19 16 20 16 
31 39 39 38 40 38 40 39 44 46 46 44 45 43 44 48 51 49 47 51 51 50 51 49 49 51 53 49 53 45 46 49 48 49 47 45 49 47 49 48 47 48 43 40 38 42 48 47 46 48 45 39 37 40 41 41 42 42 39 40 38 38 32 28 29 25 22 30 28 21 17 20 18 13 14 14 17 17 15 18 
30 41 36 41 42 41 42 41 45 45 39 46 40 45 46 50 52 51 50 47 47 48 52 50 49 49 51 49 50 44 47 47 47 52 47 50 45 47 50 50 49 51 45 40 42 39 42 48 46 46 44 42 36 41 43 41 40 41 41 42 40 36 32 28 29 26 20 28 29 27 19 16 19 17 12 12 19 18 16 14 
32 40 37 35 41 44 40 39 39 43 40 46 44 48 46 50 51 50 45 44 44 47 51 49 48 48 51 49 49 47 48 51 48 46 46 46 47 46 51 52 52 48 48 41 41 41 48 44 42 47 43 38 40 41 43 40 40 39 43 40 39 36 32 22 25 22 21 24 31 32 22 16 18 14 9 14 17 14 18 18 
29 40 40 39 42 39 41 38 37 43 43 44 45 45 47 49 47 52 48 45 45 44 47 45 46 48 49 46 52 48 50 50 52 48 46 48 46 47 56 55 51 49 48 43 41 42 42 42 38 44 42 37 45 41 41 44 39 40 41 37 38 37 26 23 24 23 23 22 24 31 24 17 16 14 12 12 16 13 14 16 
26 41 35 40 42 40 39 41 39 40 43 46 48 51 48 48 46 50 47 46 44 43 44 46 47 46 49 48 46 46 50 50 50 48 44 44 46 50 50 53 51 49 46 43 40 44 39 35 35 37 36 32 34 36 42 39 37 37 37 37 36 38 28 20 24 24 23 24 24 31 28 24 19 17 10 10 10 10 12 10 
31 36 37 37 43 40 40 42 37 39 41 47 46 51 50 50 49 47 46 44 42 38 44 43 47 49 50 50 49 48 50 53 55 46 43 41 48 48 50 50 50 49 44 42 41 41 38 36 32 38 38 31 33 33 36 34 33 38 36 35 37 33 23 19 25 19 22 23 29 32 29 27 18 18 8 13 13 13 12 8 
26 37 35 36 39 40 46 42 41 38 42 42 46 46 47 47 47 46 43 44 45 42 44 43 44 45 50 49 48 45 49 53 52 49 44 44 42 45 47 45 45 44 44 41 44 40 38 33 33 37 39 34 28 26 30 27 30 30 34 34 35 30 26 23 27 20 22 23 26 30 29 27 24 15 12 12 16 13 12 7 
31 39 35 36 37 39 40 39 39 39 43 43 43 46 48 49 47 44 41 37 41 39 44 42 43 49 52 45 45 44 48 48 50 47 44 44 42 48 44 44 43 44 43 44 38 36 35 34 33 39 42 37 30 25 31 29 30 34 38 39 35 32 25 20 26 20 21 23 21 26 27 28 25 21 15 17 18 16 12 13 
29 41 38 34 40 41 40 38 39 40 39 39 46 44 44 47 44 43 40 38 37 38 42 41 43 48 49 45 44 43 44 45 46 46 43 43 46 45 42 43 39 40 37 36 39 41 39 35 38 43 45 36 33 23 30 29 29 35 41 36 32 28 26 23 26 20 28 24 25 26 25 31 24 23 20 15 18 17 19 14 
31 42 38 40 39 39 41 37 38 41 40 40 42 42 45 46 45 45 43 41 37 37 37 39 40 44 43 42 40 41 46 48 44 46 44 43 45 45 44 42 41 37 35 34 38 37 38 41 38 41 43 38 35 28 26 27 30 35 35 33 32 30 22 18 26 21 25 25 28 26 26 27 30 23 19 17 18 17 18 10 
30 36 36 38 38 42 42 41 39 39 41 40 45 41 44 46 43 44 41 41 41 42 41 44 40 41 39 39 38 43 42 44 47 45 41 42 43 43 38 41 41 38 34 37 36 34 40 35 39 42 38 33 37 37 31 34 31 31 31 31 30 30 20 20 21 22 25 27 26 27 27 26 25 26 19 22 18 14 12 10 
31 38 31 40 39 42 41 42 40 38 40 44 38 43 46 47 44 46 46 46 43 43 45 40 43 41 44 40 42 42 43 46 44 45 44 42 44 45 41 44 42 44 39 34 31 35 40 35 34 38 37 34 34 33 28 35 35 33 34 29 33 32 24 20 25 22 24 27 28 24 27 28 25 25 20 22 22 14 12 12 
33 32 33 36 43 40 41 37 39 42 39 44 46 42 43 48 42 43 43 40 43 43 40 41 41 41 39 40 40 42 39 44 45 41 41 41 43 42 43 43 43 45 42 32 36 37 41 36 37 34 34 34 33 36 35 38 36 39 37 35 31 29 21 22 23 25 28 31 25 25 20 27 24 22 20 21 23 15 9 12 
37 37 36 40 41 40 40 39 39 41 41 41 44 45 45 46 43 40 40 40 42 44 42 43 42 39 42 41 42 39 40 42 46 42 43 44 44 41 41 39 41 41 40 37 36 38 39 34 35 38 37 34 32 38 36 39 37 38 37 33 33 25 24 22 30 23 27 29 25 26 27 28 24 26 19 19 20 18 12 7 
36 38 39 37 41 41 42 38 45 47 44 44 42 42 41 44 42 42 40 42 40 43 41 41 40 38 43 39 39 41 41 42 45 45 42 42 46 42 44 45 42 46 43 43 39 37 42 36 37 38 37 33 40 40 43 44 45 38 35 36 32 26 24 28 31 28 28 27 28 26 23 32 30 29 26 22 19 17 16 5 
31 40 39 42 44 43 46 38 42 43 43 44 42 43 37 42 45 42 41 43 44 40 40 38 40 42 41 43 43 41 43 45 47 43 43 41 45 47 44 45 44 46 47 43 43 39 39 38 39 40 37 36 35 44 45 45 43 40 38 28 29 27 27 29 31 27 28 27 28 26 25 29 31 28 28 25 26 21 17 6 
29 34 38 40 41 44 38 36 37 41 43 48 47 43 42 43 39 42 41 39 40 42 39 38 42 41 43 40 44 44 46 47 46 44 47 44 43 42 42 45 46 43 47 46 42 41 42 39 39 40 39 36 34 41 44 47 48 41 37 32 31 28 31 28 31 30 31 30 26 24 25 31 32 30 26 25 26 20 21 16 
17 28 28 32 33 31 37 34 32 35 37 39 42 45 42 42 41 41 43 41 43 45 42 42 43 40 42 44 45 46 47 47 49 48 45 43 45 44 46 47 45 47 47 44 45 43 40 41 42 42 40 35 34 43 42 40 39 41 42 33 33 26 31 26 31 31 28 29 30 26 29 29 34 27 26 26 27 22 20 15 
21 23 22 24 30 33 36 34 33 32 34 38 36 45 44 44 45 44 42 43 45 43 45 41 43 41 45 43 45 47 50 49 52 48 46 44 41 45 48 47 49 48 52 43 41 42 45 39 44 42 42 36 40 39 43 40 38 42 40 35 30 28 25 25 32 32 31 29 26 25 29 31 32 29 24 30 27 21 20 14 
19 26 21 23 29 30 33 34 32 31 32 35 34 39 39 43 44 42 45 42 44 41 39 42 44 40 42 43 48 51 50 47 46 47 44 47 43 42 45 46 47 52 52 44 44 40 43 39 40 42 40 35 38 39 37 41 38 35 36 35 32 28 27 30 34 30 30 29 27 26 27 27 27 25 26 27 27 21 19 15 
24 22 23 19 28 30 36 30 30 30 29 32 29 31 35 32 41 40 44 46 43 44 43 43 43 44 51 49 50 45 51 48 52 47 45 45 45 45 42 45 46 47 48 45 46 43 47 43 41 42 41 37 35 36 38 37 38 37 43 35 27 33 28 30 36 33 31 24 29 23 26 23 27 26 25 27 28 20 18 27 
28 26 17 21 24 27 31 29 28 24 28 28 28 30 31 32 35 33 39 45 43 47 48 46 48 45 49 46 44 48 52 54 48 48 43 44 46 45 48 47 48 50 48 45 42 46 41 37 40 43 39 39 37 36 36 40 39 40 38 34 30 30 30 32 31 30 30 29 27 27 28 31 30 24 21 26 29 26 20 24 
27 21 22 22 24 24 28 24 31 25 28 29 31 34 25 26 27 26 29 36 43 48 44 41 41 44 45 43 46 45 48 45 44 43 43 44 41 41 40 41 41 47 43 42 39 41 41 32 37 36 33 35 36 34 35 37 33 37 35 32 27 27 30 28 30 31 27 27 27 28 27 28 24 24 21 24 26 22 22 18 


