P2
80 60
238
3 4 7 7 11 5 10 8 9 13 9 11 12 17 20 20 22 25 27 28 28 31 33 33 33 32 32 29 32 29 28 30 29 33 27 30 29 27 27 27 31 31 31 28 28 28 29 29 26 28 29 29 33 29 26 26 26 27 26 25 24 22 22 20 22 21 21 21 20 20 21 18 17 15 11 11 12 14 11 9 
5 12 11 7 15 8 14 12 13 8 13 18 14 19 19 21 22 23 27 27 29 30 29 31 32 33 33 31 30 28 31 29 27 31 29 29 29 31 28 30 29 29 30 27 31 27 30 29 28 28 29 29 32 30 24 26 25 29 28 29 25 24 24 26 22 20 20 21 21 17 23 17 17 16 10 9 14 13 12 0 
5 7 10 10 13 9 13 14 12 10 14 17 15 16 20 17 24 25 27 28 29 36 34 30 33 32 32 30 31 31 32 32 31 34 28 29 29 29 29 28 27 29 30 30 30 31 29 30 29 28 31 28 30 28 28 31 30 31 29 26 28 28 27 25 23 20 23 22 22 18 18 15 19 18 13 10 14 14 8 8 
13 11 13 10 10 13 13 11 12 11 13 15 17 16 19 16 20 24 26 27 29 33 30 30 30 31 31 29 28 28 31 33 30 31 28 29 29 27 27 25 28 31 30 29 31 28 29 28 27 29 31 29 31 31 30 31 31 30 30 27 28 28 23 26 21 20 19 20 19 18 21 18 15 17 10 12 12 10 10 9 
10 13 11 9 6 10 8 16 14 9 11 13 16 20 20 16 21 20 29 30 27 32 31 28 29 28 31 27 26 30 31 33 31 33 32 30 30 28 27 26 27 31 31 27 29 29 30 26 27 28 30 29 32 31 32 34 30 30 31 29 29 23 26 24 27 21 20 22 19 20 16 14 15 16 18 10 12 10 10 13 
14 12 18 15 13 13 17 15 12 11 15 17 16 18 23 19 22 24 23 25 27 30 31 30 30 31 34 33 26 28 31 29 31 31 32 29 29 28 28 27 31 31 31 27 28 26 28 29 28 26 27 27 27 34 33 33 33 33 29 30 25 27 25 29 26 25 20 21 21 18 21 21 24 15 13 12 17 13 14 13 
20 21 25 25 18 13 16 14 16 14 16 18 21 19 21 18 23 23 27 25 27 29 33 30 33 28 33 30 31 32 30 28 31 33 31 30 30 27 28 28 28 29 33 30 30 28 27 30 30 25 30 30 31 31 34 33 29 30 30 28 28 29 26 24 26 22 23 23 23 21 20 17 19 18 14 15 18 17 13 12 
21 21 24 25 23 18 17 18 16 18 18 20 22 20 24 21 21 27 28 27 23 28 29 30 31 31 32 31 31 30 29 30 27 34 32 31 33 30 31 27 29 32 28 30 30 33 28 30 26 28 28 30 32 30 34 33 28 31 33 30 31 28 29 27 27 25 23 25 27 21 21 20 20 26 18 14 16 16 16 17 
23 23 28 24 23 30 25 21 18 24 24 24 22 21 23 23 24 28 26 26 26 26 29 27 30 29 33 30 31 29 30 29 30 33 33 36 34 34 31 29 28 32 29 32 30 31 27 30 28 26 31 31 32 30 28 33 33 31 33 31 30 31 31 27 26 26 25 28 23 19 22 20 21 18 20 16 19 19 14 13 
23 26 29 30 31 30 31 29 29 27 24 25 22 23 22 25 29 26 28 25 27 31 30 28 30 26 31 34 32 34 33 34 35 36 35 34 35 34 32 31 31 31 29 34 27 32 30 33 28 26 30 29 33 31 29 35 34 34 31 33 34 32 31 29 27 31 27 25 25 21 26 22 23 19 19 20 19 15 15 13 
17 21 23 26 26 27 32 31 28 31 29 28 26 29 27 28 28 29 30 28 29 28 32 29 28 32 28 31 33 33 33 33 35 37 33 37 34 35 33 31 31 32 29 32 31 30 33 32 32 32 32 32 34 29 32 34 30 33 33 30 30 32 32 32 27 27 24 21 26 20 25 23 26 21 19 21 17 17 17 21 
15 24 21 23 26 29 32 31 30 31 30 33 39 34 35 32 34 31 31 29 31 31 30 30 31 30 31 32 33 33 32 34 37 37 35 36 33 38 36 33 32 30 26 31 29 31 33 29 31 30 31 34 33 32 35 32 35 33 29 32 31 29 30 31 28 27 26 25 23 22 25 20 24 24 20 21 18 16 16 18 
18 24 18 25 25 27 31 33 31 32 31 35 35 39 37 37 39 39 39 38 40 33 35 35 31 30 35 34 35 33 34 36 33 39 38 36 33 38 37 34 35 34 31 28 27 28 32 29 32 30 32 31 34 33 34 35 35 31 35 33 31 32 29 32 27 30 24 29 24 23 26 17 24 23 22 20 20 21 18 18 
17 21 20 18 24 24 29 31 31 37 35 34 35 42 36 40 48 44 46 41 43 40 41 42 37 38 40 37 35 38 37 37 35 37 37 40 36 37 39 36 36 36 34 30 30 29 32 31 31 30 34 32 33 31 35 35 33 37 36 32 34 35 33 29 28 29 29 27 27 24 23 20 25 23 23 20 21 20 20 16 
16 21 22 20 26 25 30 27 30 35 37 36 37 41 40 41 44 49 50 44 48 47 45 51 42 48 46 42 37 35 34 37 39 39 37 34 36 37 39 38 38 35 34 34 32 31 30 30 30 29 34 34 34 33 36 35 33 31 36 35 33 35 34 33 35 32 29 30 28 21 30 24 24 25 27 24 23 27 22 22 
18 18 20 21 24 26 24 26 30 32 37 39 39 43 43 42 47 47 51 44 47 49 52 50 47 51 48 42 40 42 36 41 35 42 40 35 35 39 39 37 42 38 34 34 33 33 32 32 30 30 32 32 33 36 34 33 34 35 32 32 35 32 32 31 31 32 32 30 30 26 27 26 29 28 27 26 23 23 22 24 
20 22 26 27 24 26 28 27 28 32 41 36 41 47 43 41 46 47 50 47 50 53 52 52 53 51 54 50 49 48 46 41 39 39 35 35 32 37 36 34 39 33 37 37 35 35 33 31 32 31 31 31 31 33 35 33 32 33 32 33 37 33 34 33 31 28 32 27 28 27 31 27 29 27 26 28 23 27 29 23 
21 25 25 24 27 26 26 29 34 29 34 40 39 38 44 44 48 50 51 51 47 50 54 54 52 56 55 50 48 49 51 45 43 39 40 38 36 35 36 37 36 33 39 36 36 36 36 31 30 34 29 32 33 32 38 35 34 31 29 30 31 34 31 31 34 29 31 31 32 26 27 28 31 29 28 24 26 25 27 20 
20 25 26 27 27 25 26 29 31 30 34 37 38 40 46 45 47 50 52 50 50 53 53 53 54 56 59 52 51 50 48 51 44 46 43 44 37 35 35 34 36 31 33 36 36 34 34 34 36 32 32 34 34 30 34 33 32 30 29 27 28 29 30 30 29 30 32 31 31 29 28 28 28 32 30 26 29 28 26 27 
23 25 27 29 27 30 23 27 33 34 34 39 40 43 45 49 46 48 53 50 51 53 53 52 54 54 54 53 52 51 50 52 47 46 46 46 42 39 38 36 35 31 36 37 35 36 30 34 34 34 33 35 32 32 33 33 32 30 30 32 27 29 28 28 30 28 29 27 26 26 26 31 28 29 30 26 28 29 27 26 
23 26 29 30 28 29 27 32 34 30 31 38 38 45 44 46 49 48 53 52 55 56 52 52 52 55 54 53 50 51 53 53 53 50 50 50 51 47 44 37 36 33 36 36 34 34 36 36 35 34 35 36 35 32 34 34 34 30 29 33 30 31 30 29 30 32 27 31 27 26 26 26 28 28 28 28 31 29 32 29 
25 30 32 29 29 31 30 28 38 35 37 38 37 43 45 47 50 50 53 51 52 57 57 53 53 54 58 55 52 55 52 53 56 56 56 52 53 49 47 40 39 39 36 33 33 29 34 35 35 36 34 36 37 33 33 34 33 28 28 32 35 34 33 30 31 31 28 28 28 22 29 28 29 28 31 28 30 31 26 29 
25 27 30 32 34 29 28 32 31 35 36 37 35 43 43 46 46 52 54 50 53 55 55 53 55 51 53 52 51 55 55 54 59 58 55 55 55 50 49 46 45 40 40 35 33 33 35 35 33 33 36 36 37 35 36 36 33 31 32 32 34 35 37 33 31 31 29 27 26 21 26 28 27 27 24 27 27 26 29 29 
25 28 31 30 31 35 32 36 33 41 34 39 35 39 44 47 47 50 54 52 54 57 54 54 55 53 56 56 53 56 57 58 59 61 54 57 57 55 55 52 48 47 48 44 38 36 38 34 34 34 39 36 37 35 36 32 33 33 30 28 34 34 35 32 33 30 29 27 27 20 25 23 25 24 23 23 26 28 29 30 
29 28 31 30 33 33 33 38 40 40 42 40 34 38 43 47 48 53 52 53 52 55 54 53 55 55 59 56 58 55 56 59 59 60 62 63 59 58 57 51 54 53 56 46 45 45 41 45 41 40 39 43 39 39 36 36 34 33 32 31 34 32 36 34 32 34 30 32 30 25 28 25 29 30 28 25 25 28 23 29 
29 30 29 33 32 32 35 37 41 42 38 37 37 35 39 43 47 49 53 51 53 54 51 55 55 56 55 58 59 58 56 58 60 63 62 62 62 62 58 55 55 53 53 49 48 50 45 49 45 42 46 42 45 41 40 38 36 34 31 31 34 35 38 34 33 32 29 30 30 27 28 23 28 25 28 22 24 22 25 26 
29 34 36 31 33 33 38 39 37 38 39 39 35 35 37 41 47 52 51 53 50 53 54 54 54 50 52 57 57 58 57 59 62 62 61 64 62 61 61 58 56 56 54 51 49 49 50 50 48 45 45 47 48 43 42 36 36 37 35 34 35 38 39 40 32 34 31 30 31 25 32 28 29 25 24 21 24 24 25 22 
33 34 32 34 33 32 35 38 35 36 35 35 33 34 36 40 45 47 54 53 52 54 54 55 53 50 58 55 57 62 59 60 62 66 62 65 65 65 62 60 58 60 56 55 49 50 50 50 47 46 45 49 50 50 42 40 39 49 38 37 37 39 43 38 37 33 29 33 32 26 28 28 27 30 33 31 33 32 33 30 
29 30 36 33 32 33 33 35 36 40 35 36 31 35 34 41 41 48 51 50 51 54 50 52 52 55 58 55 56 59 58 60 60 63 65 65 67 67 63 61 61 58 60 54 53 50 49 51 49 47 52 53 51 50 44 41 44 44 46 43 41 44 50 45 38 37 34 41 35 33 35 31 34 37 35 36 34 33 33 37 
27 30 33 31 33 34 36 37 34 36 35 38 31 35 34 40 44 42 48 48 52 54 54 51 54 52 58 56 57 59 58 61 62 67 64 66 64 65 60 62 60 62 59 57 53 51 52 54 51 51 50 55 52 49 45 45 42 44 41 43 41 43 45 43 38 42 40 38 38 38 36 36 35 38 38 34 32 33 38 38 
24 30 31 29 30 33 38 37 37 40 36 38 33 34 34 36 42 45 49 50 53 51 51 52 57 55 59 61 57 62 59 61 61 63 67 67 65 67 62 63 60 59 60 56 54 56 54 53 51 49 55 56 51 48 50 41 43 43 45 45 44 44 48 42 42 44 41 40 37 36 39 38 41 43 34 36 37 31 36 34 
32 32 33 32 30 31 38 39 36 42 39 39 40 39 33 36 43 45 47 48 51 55 53 54 55 60 60 57 58 59 59 62 60 63 64 69 65 65 65 63 60 60 58 56 56 55 52 55 54 51 55 54 51 51 50 47 45 49 42 45 47 46 46 45 42 44 41 44 36 37 45 43 44 42 41 41 41 33 40 33 
33 30 34 31 34 32 38 38 40 40 38 38 38 36 35 35 40 45 47 47 51 54 57 55 58 59 64 57 59 59 60 61 62 63 61 62 65 66 63 63 63 57 55 56 57 56 56 56 55 53 56 54 53 50 52 49 48 47 45 47 47 49 48 46 48 45 44 43 44 39 43 40 42 47 44 45 39 37 40 40 
28 31 36 36 32 37 36 38 38 41 39 39 36 36 36 36 40 44 49 48 50 54 54 54 55 59 60 59 58 61 57 57 61 66 64 61 61 62 60 60 60 61 58 57 54 56 56 53 54 53 55 54 51 54 52 48 47 49 43 46 49 47 50 49 45 45 44 46 44 40 41 39 40 46 45 40 39 40 42 38 
32 34 33 30 32 35 41 38 40 40 40 39 39 35 37 35 39 47 48 48 50 52 56 55 57 57 60 59 59 59 57 61 60 63 60 64 59 64 63 58 64 61 59 59 55 56 54 55 53 57 56 54 52 57 52 49 50 50 47 45 45 51 52 45 50 50 44 45 44 42 44 38 41 43 42 41 40 41 44 46 
34 37 34 33 30 39 36 38 37 40 39 39 35 34 34 32 37 45 48 47 52 53 55 56 58 57 61 58 56 57 58 58 59 61 61 62 60 60 60 57 62 60 57 58 55 57 56 54 51 53 55 54 54 57 53 49 50 49 46 45 52 49 47 45 46 48 41 39 44 40 47 44 40 42 37 42 40 41 43 41 
33 36 35 35 35 31 33 35 34 39 39 39 34 34 32 37 39 44 44 41 50 50 53 55 54 57 60 59 57 59 58 60 60 60 60 59 61 60 61 59 61 59 57 57 55 59 57 54 55 55 55 54 52 53 53 50 49 50 50 47 50 48 51 45 46 46 45 42 41 41 47 42 42 48 41 42 44 42 47 48 
36 33 35 35 32 27 34 36 35 39 37 37 34 33 33 33 37 41 42 45 46 53 54 57 57 60 58 58 60 63 62 60 62 62 60 59 59 60 56 58 61 57 58 58 58 59 58 54 57 58 53 50 55 54 55 51 48 48 49 47 43 47 47 42 45 44 39 41 40 41 49 43 45 45 42 41 42 45 43 54 
32 32 38 35 33 33 34 34 32 33 34 34 32 33 35 33 37 39 44 42 49 52 54 58 57 57 61 59 58 60 58 62 59 62 59 62 59 61 60 59 62 62 60 60 57 59 58 56 56 53 53 53 54 55 53 52 50 51 49 44 45 43 47 42 44 45 41 43 47 45 45 47 46 48 40 42 44 49 47 46 
34 34 38 36 35 34 36 34 33 33 36 33 34 33 32 33 39 40 42 41 46 48 53 54 57 60 59 57 60 60 61 61 59 57 63 60 59 62 60 58 63 64 61 57 57 58 58 59 56 53 54 49 50 52 49 48 47 47 47 47 46 44 42 42 42 43 39 46 45 42 46 41 45 46 44 44 42 47 48 49 
34 33 36 34 34 32 36 31 30 33 35 36 32 34 34 33 36 37 40 43 43 46 50 54 55 57 58 57 57 62 60 60 62 60 59 61 61 59 62 61 63 64 60 57 57 56 57 55 54 51 50 49 51 50 47 47 45 45 45 44 45 38 40 37 40 38 40 40 38 37 40 41 43 46 45 44 45 46 49 56 
37 31 31 33 33 35 34 31 30 29 30 32 34 34 36 32 38 36 39 41 43 44 52 49 50 53 59 59 57 62 62 60 59 62 58 58 57 59 61 60 61 59 57 56 54 53 55 53 51 45 47 45 47 48 42 43 43 44 41 41 39 37 40 35 41 42 42 36 38 40 39 40 42 43 41 46 43 46 50 55 
37 28 31 32 29 32 34 32 27 31 29 33 28 32 33 34 37 34 38 34 38 44 47 48 49 55 56 56 57 60 57 58 58 62 61 57 60 61 62 56 61 57 55 55 51 49 49 49 45 44 40 41 42 42 43 40 38 41 37 38 34 35 34 33 35 37 41 35 38 35 37 38 40 45 40 43 43 45 49 51 
31 31 33 32 33 35 35 36 31 26 27 30 29 32 33 34 36 38 36 34 40 44 44 47 47 53 58 58 54 56 55 56 59 60 56 59 58 61 58 54 54 59 56 49 50 47 46 47 46 40 42 39 41 37 34 40 36 38 35 33 36 34 36 37 37 37 40 37 38 34 40 42 40 44 40 42 47 48 51 50 
36 32 33 30 35 34 33 34 31 31 30 28 29 31 34 32 35 38 38 33 38 41 46 45 47 51 54 54 52 54 54 56 56 59 56 57 54 54 57 51 53 53 53 47 45 44 45 45 43 41 41 35 34 31 31 32 26 31 32 30 32 33 31 34 33 35 34 35 38 32 40 38 42 43 45 42 50 52 53 59 
32 32 34 34 31 32 33 31 31 30 33 30 30 27 33 29 36 38 36 32 35 39 42 44 45 47 52 54 57 55 55 53 56 59 56 54 57 58 57 53 52 50 47 47 49 45 43 43 44 43 39 36 33 30 25 23 26 27 28 28 30 30 33 31 35 32 35 37 37 33 40 42 46 50 42 46 48 50 57 65 
29 33 35 31 30 33 31 34 31 30 33 31 30 29 31 30 37 37 31 34 34 40 45 43 46 47 50 52 54 54 55 53 52 59 54 56 55 58 52 53 49 49 49 48 46 44 46 45 39 41 43 35 30 29 24 27 24 27 30 28 34 29 29 33 31 34 34 34 35 34 38 40 43 44 45 47 49 56 58 65 
27 31 34 35 31 31 33 32 32 35 31 31 28 30 29 31 31 33 34 34 36 36 39 41 43 44 49 48 50 52 51 54 56 56 52 52 52 54 55 51 50 52 51 49 48 47 45 43 44 42 39 37 37 35 29 29 28 29 26 29 28 30 33 30 32 30 33 34 38 34 40 38 43 47 45 48 51 55 65 70 
21 28 32 29 31 31 30 30 31 30 31 31 33 31 29 32 31 32 34 34 34 36 36 39 39 42 46 47 47 46 50 55 49 55 52 52 54 55 53 50 49 48 50 46 44 45 45 40 43 42 41 35 36 34 33 33 28 28 26 27 28 28 29 29 32 29 33 34 38 35 38 36 45 46 47 47 51 56 70 71 
25 29 30 31 33 30 32 33 28 32 33 31 27 33 29 28 30 34 32 28 34 34 33 33 36 37 43 45 47 50 46 48 51 54 47 52 56 54 52 51 54 46 48 46 44 43 44 41 39 40 38 36 37 37 36 34 31 31 27 29 29 29 33 28 29 32 33 35 34 31 41 37 40 43 48 50 55 61 71 79 
22 27 33 30 32 30 31 33 29 31 32 30 28 30 28 26 28 33 31 32 33 35 35 32 33 35 37 41 40 43 42 47 47 51 51 51 55 52 54 48 53 50 44 46 43 41 38 38 39 41 41 38 40 36 35 34 31 31 33 31 30 32 31 29 29 31 32 36 39 33 42 40 44 44 49 53 55 63 71 88 
27 29 32 30 29 30 31 31 32 31 35 31 28 30 26 26 28 29 29 30 28 34 31 32 33 35 37 40 40 40 43 50 47 49 50 52 51 51 49 50 50 47 44 46 45 39 37 40 35 36 39 41 39 39 39 36 35 35 35 31 32 30 33 32 30 31 34 35 36 36 41 37 45 46 48 50 64 65 80 90 
26 25 28 29 30 28 30 31 33 30 32 31 28 29 25 24 32 34 31 29 34 34 29 29 28 36 38 39 40 44 42 46 49 51 50 52 51 53 49 46 51 45 45 44 41 34 35 37 38 39 39 39 43 41 38 38 35 34 33 32 32 29 31 29 28 30 31 38 39 37 44 38 46 46 52 54 58 69 89 100 
25 29 28 31 32 30 32 31 32 32 35 36 28 27 25 26 25 34 28 31 36 35 28 27 30 31 36 40 39 41 40 47 46 52 51 49 51 52 48 49 47 49 48 45 41 31 30 35 37 40 41 38 38 42 36 36 40 32 34 32 29 33 29 32 31 36 31 40 40 37 42 41 45 50 56 61 68 73 93 112 
31 27 28 30 32 31 37 33 32 27 31 35 30 28 27 23 27 29 34 35 38 34 30 29 31 33 40 39 39 43 46 49 50 52 48 50 49 49 51 47 51 46 47 45 42 32 30 34 33 42 37 39 39 41 39 36 40 35 36 35 31 31 31 33 33 33 34 34 38 35 45 46 50 58 57 63 74 85 102 134 
25 28 28 29 31 31 32 32 32 29 31 32 33 33 31 30 34 35 33 32 35 35 33 33 35 34 39 39 42 46 46 48 48 50 50 55 54 51 51 46 49 47 47 42 41 32 27 28 34 36 39 40 41 36 36 40 41 36 39 36 30 33 35 30 33 33 30 36 36 36 50 40 52 56 60 71 79 95 114 156 
28 31 31 33 34 35 31 30 31 28 29 35 31 33 32 32 35 32 35 29 32 37 36 35 33 32 37 40 41 44 44 47 50 51 48 54 50 50 50 50 48 45 51 46 43 34 28 31 31 33 36 34 40 39 39 40 38 35 35 35 32 32 34 35 31 34 33 40 39 37 49 42 51 61 62 72 86 105 134 174 
28 31 34 31 32 30 31 29 32 33 31 30 30 35 33 30 32 33 30 33 32 33 35 32 32 36 39 39 43 43 44 48 47 52 49 53 51 52 54 52 49 49 48 44 44 36 30 29 29 31 33 35 38 36 38 37 39 36 37 37 32 29 34 34 32 34 33 35 40 40 49 44 59 62 67 82 98 118 163 195 
33 34 34 31 27 26 32 32 32 26 30 31 27 34 30 31 30 33 31 31 30 32 32 32 36 33 42 38 38 41 41 45 48 57 53 52 55 53 54 53 50 49 51 44 43 36 29 27 27 27 37 34 34 37 37 38 39 35 35 37 34 33 34 33 35 38 37 39 42 41 50 52 57 69 73 89 104 136 182 220 
32 36 32 28 27 27 29 30 33 28 27 29 29 33 32 32 30 30 33 33 35 35 31 34 38 35 37 40 36 40 41 48 53 53 51 55 56 56 58 55 55 55 56 50 43 37 33 28 27 30 37 37 34 36 38 37 39 35 36 34 33 32 37 35 32 34 33 40 41 41 48 55 60 67 77 101 123 160 205 238 


