P2
80 60
56
13 20 22 22 26 32 28 28 29 27 29 29 30 36 34 32 22 24 24 21 21 20 17 21 25 29 26 30 32 35 36 42 46 41 41 40 38 46 44 41 42 42 42 44 46 43 42 40 40 42 41 38 37 37 37 39 41 39 36 37 35 35 27 28 26 27 20 22 20 17 11 12 14 11 8 8 5 2 0 5 
17 18 24 19 29 28 28 27 23 24 31 30 33 35 34 33 27 21 20 18 20 22 20 22 26 35 30 32 34 34 39 41 43 40 43 43 42 39 41 42 39 42 43 42 46 40 41 41 41 41 39 34 38 36 36 33 40 33 37 36 34 33 29 30 24 23 19 22 20 19 12 11 10 8 2 6 5 5 3 2 
19 24 25 25 30 30 28 26 26 32 31 32 34 36 39 38 25 23 20 21 23 15 23 24 26 32 34 32 38 34 38 42 42 40 41 44 41 41 37 42 41 44 45 44 43 44 41 40 41 40 37 35 40 36 33 35 40 36 35 33 32 34 30 28 26 26 20 21 24 17 14 13 9 10 2 5 6 7 3 1 
18 25 29 26 30 29 33 29 29 28 32 34 34 35 42 39 32 30 27 26 23 24 21 21 27 29 35 38 37 39 38 42 45 43 42 41 41 41 38 41 41 46 41 43 42 41 39 41 41 42 38 34 38 37 35 34 36 36 37 38 34 29 29 27 25 25 23 22 19 21 16 17 13 9 7 6 8 4 2 0 
19 25 29 23 29 33 33 30 31 30 37 30 35 38 38 39 34 38 29 21 23 19 19 22 29 28 33 35 39 42 41 40 42 41 43 44 41 41 38 37 45 39 43 40 45 39 40 37 42 39 39 31 36 34 33 33 38 38 32 33 32 29 28 25 27 26 24 19 17 14 16 15 11 12 10 5 9 6 1 3 
19 23 30 29 32 28 33 29 29 30 30 28 35 35 38 38 38 39 33 26 24 25 25 22 28 29 32 35 39 37 44 42 40 41 42 39 40 39 35 40 40 44 41 40 43 38 38 38 36 35 36 33 35 34 34 36 36 35 33 31 26 27 24 24 24 24 24 24 23 20 19 14 12 10 11 8 7 7 6 6 
15 23 29 27 35 31 32 29 31 30 31 33 32 36 40 40 42 39 43 33 34 30 25 25 25 29 35 36 34 36 41 44 42 41 41 43 40 38 39 40 42 41 42 38 46 42 36 37 36 36 37 34 35 36 36 32 37 33 34 34 32 27 27 28 28 26 27 23 24 21 18 15 15 16 12 15 14 10 5 8 
18 26 29 32 32 28 34 27 26 33 31 36 38 41 39 42 36 38 39 38 36 26 27 25 28 30 31 31 34 36 39 40 43 41 45 43 42 45 41 39 44 42 42 41 41 41 37 37 35 36 34 30 35 35 31 29 32 32 33 32 30 30 26 28 23 25 26 23 21 19 18 20 18 15 13 14 14 10 5 2 
27 31 35 32 37 31 35 27 27 31 32 33 40 38 38 42 37 42 42 38 33 32 33 27 32 33 33 31 34 35 37 43 39 39 42 45 41 47 43 40 41 43 41 43 42 42 37 40 36 32 35 33 36 34 35 32 37 33 38 32 31 33 30 28 26 24 21 21 17 21 19 19 21 20 19 16 18 14 10 7 
31 32 38 37 37 35 35 32 24 30 33 33 35 37 39 41 40 41 40 42 41 38 34 30 29 31 31 32 37 37 45 44 43 45 42 44 44 44 44 43 41 47 40 43 39 40 40 41 37 37 37 35 36 35 37 36 36 35 34 38 32 34 33 24 26 26 27 25 21 22 20 23 21 23 23 18 18 13 14 10 
38 41 36 39 35 33 33 29 24 26 31 31 33 38 39 40 43 42 44 41 42 35 35 30 30 32 29 33 36 42 40 42 45 43 44 48 42 43 43 41 44 44 41 42 42 45 45 41 40 39 37 37 35 34 38 37 39 32 32 34 34 32 31 26 23 27 24 21 20 24 22 19 20 25 19 19 18 17 16 12 
30 38 37 33 29 31 31 25 25 29 29 29 32 40 39 40 41 41 44 38 35 33 30 27 34 28 31 30 35 41 42 44 44 43 42 48 42 47 45 48 43 46 43 43 42 44 38 40 38 38 38 39 36 37 39 34 38 33 38 34 33 33 28 25 28 23 26 24 23 21 20 22 25 23 15 19 22 14 15 18 
31 31 31 28 30 31 32 29 24 25 27 29 37 37 43 43 44 42 45 40 36 28 28 25 29 31 32 31 36 35 41 46 41 44 42 42 43 44 43 42 44 45 43 42 42 42 43 41 40 39 38 37 37 36 36 35 36 37 39 36 31 32 33 27 26 27 26 26 24 24 23 22 22 18 15 18 21 17 15 14 
29 31 32 26 34 37 34 31 29 29 31 27 32 38 41 42 49 40 38 34 37 28 33 29 33 34 29 34 36 37 41 44 43 44 45 44 43 43 45 45 46 45 41 41 45 42 42 44 40 39 40 39 36 36 36 35 36 36 36 36 35 32 35 26 28 29 27 30 25 20 24 23 22 17 18 21 19 16 16 16 
26 30 30 31 35 35 32 29 29 31 30 30 34 37 41 40 42 35 35 28 35 30 31 36 32 33 33 32 35 37 41 46 47 47 41 48 44 45 44 47 46 46 45 44 47 45 41 43 41 39 42 38 42 40 38 38 38 38 37 35 37 35 33 28 29 27 30 29 26 22 24 25 24 22 25 22 20 17 17 16 
30 30 30 34 33 37 36 36 35 31 33 33 31 37 33 39 40 37 34 34 37 34 34 36 33 33 33 32 35 36 41 45 48 46 50 51 46 48 44 46 50 46 47 45 49 48 41 46 44 37 41 39 40 40 41 37 40 39 41 38 36 37 31 28 30 29 26 26 28 25 25 24 25 25 23 27 26 21 19 14 
27 28 34 36 34 37 41 38 37 36 34 33 32 35 33 38 44 41 38 36 35 36 37 38 36 38 35 34 33 35 40 42 48 42 49 45 42 43 46 44 43 41 47 45 49 43 44 44 42 39 40 41 40 39 40 39 38 40 36 37 37 34 34 29 29 28 30 26 27 28 26 22 23 23 21 22 25 22 17 18 
24 29 29 31 34 33 35 34 36 38 38 35 33 34 34 35 38 39 38 37 36 33 38 38 37 37 35 36 33 34 35 37 46 43 46 40 38 39 40 43 42 42 42 46 48 47 44 41 45 40 41 38 40 38 41 40 39 36 42 40 36 34 33 31 26 30 28 27 28 24 27 25 27 23 27 21 24 21 20 17 
29 33 35 32 35 34 39 35 40 42 40 40 37 32 37 37 38 40 40 39 39 37 41 36 40 38 35 36 36 34 37 40 39 39 40 39 32 37 37 37 39 44 46 47 47 49 46 46 45 40 41 40 42 43 40 40 37 36 37 40 39 36 30 31 29 29 27 24 30 27 22 26 28 24 23 19 23 27 23 18 
29 35 35 34 33 37 37 35 36 39 37 43 42 37 42 33 40 38 42 40 40 35 41 36 38 38 37 34 35 31 37 35 39 36 37 36 34 37 37 39 43 44 45 43 48 42 46 44 49 44 43 39 41 43 37 39 37 39 39 42 34 39 33 32 30 28 29 26 26 23 29 27 24 22 21 25 21 21 22 24 
31 35 36 34 35 38 38 43 44 47 44 45 45 45 39 37 41 40 41 35 41 40 38 39 39 36 38 39 33 34 35 38 38 38 36 38 36 35 34 35 41 45 47 46 44 44 44 44 46 48 49 38 43 45 41 40 38 40 38 41 38 41 36 37 32 29 28 29 29 25 28 28 28 24 24 23 28 26 24 23 
32 35 43 37 38 36 40 43 47 51 51 47 47 46 42 39 41 39 41 38 41 40 40 37 36 36 35 37 36 33 35 36 39 38 41 38 36 37 36 40 42 40 43 48 46 44 47 46 50 48 44 46 44 39 41 39 40 40 41 39 41 41 40 37 33 33 31 30 28 30 28 26 26 27 25 21 26 24 20 26 
32 36 39 37 33 42 41 42 47 53 50 46 47 46 42 38 39 40 43 41 40 37 37 37 35 38 39 37 35 37 33 36 39 34 39 37 35 38 35 34 39 38 41 47 47 44 45 44 44 47 49 40 44 41 40 37 35 40 40 39 44 40 38 39 35 32 32 26 29 28 32 28 26 28 23 24 26 23 20 23 
35 35 40 35 37 40 45 45 47 56 53 48 46 41 45 39 42 42 45 40 44 37 42 38 41 40 39 39 37 38 40 43 39 40 41 38 38 39 34 37 36 38 41 45 51 43 45 43 47 43 49 37 44 41 38 40 41 36 39 38 42 43 42 40 35 34 29 29 31 25 27 28 30 24 24 24 27 26 24 25 
39 38 37 35 36 43 40 46 49 53 53 52 47 46 49 46 44 46 45 38 42 40 43 39 43 46 44 44 42 42 42 45 40 41 43 42 38 37 38 36 39 39 41 42 48 42 43 46 47 43 46 49 46 44 38 39 41 39 42 41 43 43 45 41 37 35 35 30 30 24 26 29 29 26 26 27 28 23 20 25 
37 34 38 40 43 43 42 46 50 51 52 44 45 44 45 45 46 43 42 41 46 44 44 45 42 44 42 45 48 44 43 44 41 42 47 42 41 38 37 39 41 42 42 40 41 44 47 46 46 47 46 44 43 53 40 40 46 44 41 38 40 42 39 43 41 35 32 31 30 28 32 31 32 30 28 25 27 20 20 19 
34 40 44 39 34 41 40 43 46 48 51 44 44 44 42 44 42 45 44 48 45 43 44 43 44 43 43 45 46 45 46 50 47 45 46 39 43 43 43 39 43 41 39 42 44 42 43 46 44 46 46 42 44 45 40 39 42 38 43 39 41 42 41 41 41 35 34 30 30 26 26 28 30 25 27 27 28 26 26 21 
35 41 40 38 37 39 38 41 41 45 45 45 45 43 43 42 42 43 46 41 46 42 43 42 41 43 45 44 45 42 46 52 49 43 43 40 40 43 41 40 40 37 35 38 40 39 44 44 45 46 44 40 42 42 38 36 39 40 40 37 38 43 35 40 34 36 35 32 33 26 25 29 27 25 23 23 27 23 25 21 
33 41 38 39 38 43 43 41 39 47 45 46 42 43 41 40 41 42 44 40 44 41 41 42 44 42 44 45 44 44 46 53 49 50 46 46 43 45 39 39 41 41 36 39 40 40 42 41 46 43 43 40 41 40 38 37 41 36 41 37 39 41 36 37 34 36 31 30 27 29 30 28 28 24 23 28 29 27 26 26 
31 40 43 41 40 41 40 43 42 45 47 46 44 43 44 42 44 44 42 38 43 41 44 43 40 47 47 45 45 46 49 48 46 47 52 47 44 46 39 39 41 40 36 39 41 37 41 40 43 44 43 41 37 43 38 35 38 41 40 40 44 38 35 36 34 34 32 28 32 30 32 30 29 28 24 23 29 27 22 23 
34 42 42 37 42 41 43 48 52 46 45 46 46 45 47 45 42 40 42 38 40 40 41 44 44 45 45 47 47 44 46 46 46 48 49 44 47 45 43 41 43 40 37 35 41 38 36 41 44 44 45 42 41 41 35 39 39 36 42 38 38 37 37 38 33 33 35 30 29 30 27 29 30 25 23 27 28 25 21 19 
42 39 40 39 38 41 44 48 51 45 48 48 45 43 44 44 42 42 39 39 40 39 42 41 42 43 42 42 45 44 47 46 48 45 49 48 44 44 41 42 36 42 38 36 36 36 36 39 44 44 46 42 39 41 41 42 40 38 42 38 40 41 38 43 40 36 32 30 29 24 26 27 29 27 26 26 29 21 21 22 
38 42 40 41 42 44 45 46 49 53 50 51 44 49 46 48 40 38 39 36 37 38 45 42 44 43 44 43 43 46 44 48 46 50 47 47 41 43 41 36 38 37 38 38 42 39 35 41 41 40 46 41 40 43 40 43 43 38 42 39 39 42 40 42 36 37 31 31 29 30 27 31 29 27 26 23 27 21 22 21 
36 41 42 41 40 44 42 44 47 48 49 47 45 45 47 44 40 40 41 38 42 37 43 41 43 42 41 41 44 41 42 45 46 46 48 47 42 41 37 39 41 43 35 36 39 36 37 41 35 42 45 42 41 42 40 38 41 39 40 39 40 43 42 43 37 34 33 33 31 28 25 29 30 27 26 23 25 27 25 20 
32 41 42 33 40 44 41 46 47 48 47 48 47 44 48 43 42 37 37 42 39 42 41 44 43 44 43 39 41 39 41 42 42 43 45 50 42 40 41 33 40 42 37 37 38 37 33 39 43 41 41 40 41 39 38 40 39 38 42 38 42 44 40 39 40 36 34 30 29 27 29 28 24 29 21 23 26 24 26 21 
33 40 37 37 39 41 45 43 48 50 47 47 43 43 46 42 43 40 36 37 43 41 44 44 43 45 44 41 37 38 43 40 43 42 42 43 42 45 41 37 37 43 37 39 39 37 38 40 42 40 43 41 41 41 39 40 42 40 38 39 40 41 41 39 37 33 32 28 28 28 29 26 30 30 23 22 30 27 27 20 
30 40 36 39 40 38 42 46 44 46 48 47 46 46 42 41 38 37 41 38 39 44 45 46 44 45 44 43 41 39 42 42 40 42 43 43 43 43 46 42 41 40 36 34 38 39 38 39 41 41 44 37 43 43 45 42 43 42 42 35 39 39 42 39 37 31 27 27 28 29 31 31 25 29 25 26 27 23 21 21 
30 37 36 33 35 38 41 40 43 43 46 47 42 42 44 42 41 39 40 39 42 40 44 44 46 41 44 43 42 40 38 43 43 42 41 40 42 43 44 44 46 42 35 34 38 38 42 39 39 43 42 37 38 45 40 40 43 38 40 36 35 36 36 37 32 31 30 28 29 31 26 27 27 25 28 24 24 23 19 23 
28 39 34 33 35 36 44 41 43 42 38 46 39 41 44 40 42 40 45 37 39 41 43 44 44 43 43 44 41 43 43 43 37 42 39 42 38 39 42 40 41 47 38 37 39 41 41 41 40 39 40 41 39 40 40 40 41 37 37 33 32 32 32 35 32 30 29 31 29 29 30 27 28 27 22 25 26 25 23 18 
28 35 33 34 33 44 40 41 39 40 38 42 42 44 43 39 38 34 36 32 38 37 41 46 41 41 43 44 42 39 45 46 42 39 38 39 38 38 38 41 45 45 46 39 41 41 46 42 41 35 41 34 38 39 34 34 39 36 33 36 33 33 31 27 28 30 30 29 30 29 25 26 28 27 24 25 26 25 24 18 
26 31 31 37 36 36 42 41 39 41 41 41 39 41 43 37 35 33 35 36 38 35 40 41 39 44 40 43 44 46 45 45 44 44 44 41 39 37 38 43 43 46 47 45 41 41 41 45 43 39 38 33 36 37 36 31 35 36 35 33 35 31 31 31 33 33 26 26 27 29 23 23 28 29 25 23 24 22 21 17 
26 32 34 41 34 36 35 40 39 36 40 39 43 43 44 39 38 35 36 36 35 32 37 39 40 41 43 44 43 42 43 45 45 44 45 43 46 40 39 45 45 47 43 47 45 44 41 42 42 37 33 33 33 35 34 28 31 29 34 33 32 34 27 32 31 31 28 30 27 30 26 24 25 30 26 21 22 22 20 19 
25 28 34 30 35 33 34 37 34 37 40 39 39 43 46 42 37 32 39 32 28 28 34 33 34 41 42 44 42 42 43 49 48 43 44 45 44 48 42 44 42 45 41 45 44 45 40 43 38 41 37 32 33 29 27 24 25 29 30 34 31 30 29 28 30 27 28 26 26 28 27 26 27 27 23 20 22 20 18 14 
24 29 33 29 31 35 38 39 38 34 36 41 39 37 45 41 39 36 33 32 34 30 35 35 33 36 40 45 45 46 45 50 48 45 47 45 46 45 48 41 39 42 40 39 42 42 39 33 38 39 32 29 26 24 20 14 24 22 28 31 31 33 30 28 29 27 23 28 26 24 26 23 29 25 22 19 22 18 16 11 
27 34 30 30 32 36 36 36 34 35 38 40 39 39 41 41 40 38 36 29 37 31 35 34 35 39 40 41 43 42 43 47 47 45 46 45 45 45 42 39 38 44 38 40 40 39 42 37 35 35 36 30 27 19 21 20 19 23 27 33 32 32 30 30 31 30 23 29 25 23 23 25 28 24 22 21 22 22 17 20 
24 28 31 30 34 35 33 33 36 34 38 34 36 36 40 40 40 37 34 30 30 27 36 33 34 38 41 41 44 41 42 45 43 41 44 45 45 44 45 42 36 37 33 38 39 41 43 38 41 37 32 29 26 19 17 17 22 23 28 30 28 32 32 31 29 27 30 30 26 22 18 26 29 27 21 21 20 20 18 15 
24 30 26 34 31 32 32 29 33 33 37 35 37 36 37 36 36 34 33 30 30 27 27 30 32 33 35 37 39 38 42 46 41 44 42 43 46 42 44 39 39 36 33 34 36 40 42 40 38 35 35 30 23 21 19 18 18 19 24 28 27 27 28 26 28 28 24 28 24 22 23 21 23 23 20 21 23 18 15 10 
24 28 28 30 31 35 38 31 35 33 37 35 34 34 33 35 32 31 29 30 29 30 32 34 35 35 32 34 36 40 40 41 44 44 42 41 46 44 41 36 34 38 28 36 37 38 41 43 39 41 34 29 27 23 17 19 22 23 22 26 28 30 27 28 26 28 26 28 23 24 24 21 21 24 18 20 22 15 15 12 
20 26 25 31 32 36 33 30 33 34 38 38 31 33 35 36 32 31 30 31 32 28 33 30 33 31 33 33 34 38 43 43 44 38 39 44 45 47 43 43 36 36 31 34 35 39 46 44 42 46 36 31 30 19 15 24 24 22 23 25 34 32 30 27 29 30 23 27 26 22 24 22 24 21 19 24 20 17 17 12 
26 25 25 30 31 28 32 28 31 36 33 39 36 34 30 33 32 24 29 28 29 26 28 28 27 30 27 32 33 36 37 39 40 40 38 41 44 47 44 40 35 35 29 31 37 35 46 43 48 46 42 33 28 22 21 21 22 26 26 27 27 29 26 28 27 27 23 27 22 22 21 20 19 16 19 19 17 15 11 9 
19 25 30 26 32 33 34 31 31 35 36 33 35 37 32 31 29 24 26 25 28 28 30 29 28 26 31 28 32 30 35 37 41 36 40 44 44 46 43 35 29 32 27 31 31 36 41 41 40 45 39 35 32 29 22 21 19 24 27 29 31 29 31 27 29 26 25 20 20 22 21 20 18 21 20 16 17 12 10 5 
24 26 28 28 30 31 30 31 37 40 39 38 35 36 30 29 28 26 26 29 24 26 33 29 30 25 29 27 28 33 36 42 36 42 39 41 46 43 39 35 34 33 30 32 34 36 43 42 42 45 45 37 39 31 30 30 29 25 27 30 29 32 33 32 29 27 23 22 23 27 17 18 19 15 19 16 19 13 14 14 
21 27 26 28 27 32 31 28 34 38 35 37 31 33 27 30 34 26 29 25 29 27 30 27 27 27 29 26 29 34 38 40 43 37 40 41 46 48 41 36 33 35 33 32 37 36 42 45 43 47 45 40 40 41 34 32 31 27 30 26 27 35 31 32 28 28 24 27 25 22 22 19 19 18 19 19 19 16 15 14 
23 27 31 34 32 36 32 30 33 35 32 33 33 34 30 28 29 29 27 26 28 27 24 25 27 30 31 30 31 37 37 41 44 39 42 45 42 42 39 33 33 31 30 33 37 37 43 41 42 47 47 39 39 43 35 35 35 30 28 24 24 32 34 31 31 29 26 24 23 20 17 18 20 19 16 14 21 15 11 12 
23 29 28 28 31 29 32 29 31 33 32 33 31 32 31 28 31 26 30 23 26 31 27 27 28 29 28 33 37 40 36 43 41 38 40 43 42 44 39 36 30 37 32 36 38 37 40 41 44 47 42 37 41 46 37 36 37 31 34 27 26 30 33 30 27 27 24 23 18 19 20 13 21 14 17 17 16 15 11 12 
22 28 28 28 31 31 31 29 31 28 35 33 31 33 36 27 29 27 29 25 32 28 27 26 32 29 34 36 35 36 41 42 43 42 45 46 40 41 42 34 35 35 34 36 35 38 42 39 44 45 44 42 43 40 43 38 38 31 28 28 27 31 27 29 28 27 24 20 19 20 21 16 21 17 13 13 12 12 10 17 
23 31 28 31 31 30 32 30 32 32 32 33 31 34 26 27 29 23 28 26 32 25 27 29 32 30 35 40 36 39 42 41 41 44 48 48 44 42 39 32 35 39 36 37 39 40 43 42 44 45 43 45 46 45 40 41 40 29 30 31 27 27 27 23 25 29 22 20 20 17 18 15 17 14 21 15 11 11 12 14 
29 32 32 29 30 33 35 29 31 29 32 31 28 31 31 26 25 24 26 24 32 30 27 31 33 35 37 41 41 36 41 42 43 44 46 46 49 44 37 35 35 36 37 37 42 43 47 49 45 44 46 49 48 42 44 37 42 35 36 31 24 30 27 22 24 26 22 19 23 15 18 14 18 16 19 10 11 10 13 9 
26 33 28 29 31 32 31 28 29 26 34 25 20 30 29 31 28 27 29 26 28 31 31 30 34 32 35 37 34 40 37 41 39 44 44 46 44 46 42 33 37 34 34 36 41 42 41 42 45 47 46 47 44 49 41 39 42 37 32 26 27 26 22 17 10 19 18 18 22 18 15 13 18 16 9 12 11 12 9 8 
28 30 31 29 31 29 27 27 33 27 30 26 23 29 23 28 30 29 32 31 30 32 28 29 30 31 32 34 37 36 36 38 40 42 45 42 42 43 36 27 31 34 37 37 34 39 40 41 39 46 46 45 44 43 41 38 37 32 37 32 22 22 20 16 16 19 14 14 19 18 14 11 5 13 5 8 9 9 8 8 


