P2
80 60
385
145 137 117 112 141 146 145 124 107 109 99 89 82 78 77 68 57 39 17 0 10 56 87 85 94 103 96 95 96 101 97 95 90 86 102 127 99 74 82 90 93 97 104 109 110 116 114 126 135 149 165 168 171 171 172 138 133 122 132 142 143 142 118 99 91 96 98 95 89 70 61 51 52 59 57 55 51 46 47 38 
132 136 137 119 135 147 136 136 100 88 81 85 76 80 76 74 60 32 14 3 13 64 87 85 90 97 95 100 94 101 98 96 93 85 93 115 115 79 73 86 97 96 108 114 118 130 133 158 162 156 156 149 132 135 169 150 146 135 137 145 126 103 95 90 88 92 92 84 78 67 62 52 51 53 52 51 47 50 48 38 
116 135 141 129 127 140 142 143 99 79 74 77 74 75 77 72 68 44 24 9 19 69 85 85 91 92 96 92 91 99 101 93 93 86 92 102 116 106 87 95 97 98 108 128 140 162 158 156 155 139 122 117 124 129 165 151 159 162 134 114 95 100 89 87 89 76 70 71 69 58 56 53 47 53 50 49 46 48 37 33 
113 136 146 127 105 117 139 141 119 83 78 81 74 77 78 73 71 67 58 40 50 80 88 87 88 89 92 92 94 96 102 99 101 96 87 90 109 104 102 107 111 128 154 165 168 160 153 138 120 120 126 123 155 158 161 155 138 120 111 104 101 103 93 81 73 70 65 67 63 62 54 49 48 50 50 48 42 38 31 29 
133 148 142 123 94 99 136 148 140 96 81 82 81 83 83 77 78 77 69 77 82 81 89 84 87 91 91 99 90 97 100 99 101 99 99 99 107 109 116 134 164 183 179 166 151 137 129 125 129 128 149 160 165 165 139 119 117 117 110 107 101 101 84 75 69 72 65 63 67 56 56 56 50 50 48 43 45 40 32 26 
136 153 150 134 107 94 118 150 144 119 79 82 82 78 80 82 78 82 83 98 86 80 90 86 91 93 91 93 92 95 101 98 99 102 110 108 125 154 168 186 186 178 159 137 125 120 128 134 150 161 163 158 141 125 118 115 123 119 113 101 94 88 81 76 70 67 69 62 69 60 57 54 50 52 50 44 40 43 27 29 
133 124 147 142 126 102 108 142 155 140 94 87 86 83 79 84 81 93 86 92 91 84 88 89 95 95 92 92 93 100 101 97 112 111 132 159 182 192 191 174 162 139 127 126 127 139 153 165 157 164 136 122 122 122 119 117 118 110 103 89 84 85 77 76 74 72 70 64 65 60 55 57 50 50 52 43 42 39 34 35 
94 97 139 146 140 106 93 128 154 155 112 90 84 83 87 85 82 89 83 91 89 86 87 84 93 93 87 90 97 107 108 114 130 157 185 196 192 184 159 130 123 130 134 152 172 173 166 159 139 118 115 113 121 118 115 103 102 96 86 85 82 79 78 77 71 71 70 65 69 62 58 57 51 52 49 47 44 44 37 40 
81 91 123 150 154 120 96 119 153 163 137 100 92 92 89 91 88 98 90 98 93 88 89 91 88 93 98 103 106 124 141 170 188 194 196 191 158 143 135 127 134 159 184 184 175 173 142 125 121 120 118 117 117 114 108 99 107 99 94 86 86 84 77 79 75 78 70 68 68 59 61 67 60 58 60 57 54 49 46 45 
92 85 105 139 155 146 105 106 141 164 153 116 98 93 89 93 90 97 94 95 96 92 90 88 96 102 106 117 150 187 203 196 196 189 163 144 130 135 140 162 178 189 172 174 146 126 121 125 123 124 118 115 109 107 105 103 102 100 98 94 91 86 84 79 75 74 75 72 71 63 60 65 63 70 64 59 58 60 52 49 
99 94 103 132 158 159 119 106 122 161 157 135 100 96 88 91 95 99 93 95 96 94 94 89 105 112 139 170 191 205 199 180 156 136 132 137 141 173 183 188 180 170 142 128 126 123 127 124 125 117 108 105 107 106 111 99 105 105 98 90 89 89 88 86 82 80 81 76 80 72 70 70 68 72 70 66 61 64 64 53 
111 104 105 120 156 166 138 111 108 136 136 139 114 99 93 91 92 96 99 94 100 101 104 99 137 174 200 203 192 187 159 136 134 133 143 179 187 191 185 174 144 134 122 125 125 126 121 127 117 112 110 109 111 103 105 105 107 108 102 93 96 95 92 91 89 91 87 80 88 82 76 79 76 73 72 72 68 70 65 60 
116 107 105 113 144 170 156 114 105 120 137 143 124 101 93 95 91 97 96 102 104 117 140 175 203 202 195 179 150 140 135 141 146 177 196 197 186 175 152 135 124 124 132 130 123 127 122 127 116 115 114 110 107 110 118 112 111 107 108 100 104 99 98 92 92 91 90 92 94 85 82 82 80 83 78 75 69 70 69 68 
115 105 91 92 129 148 135 115 103 113 144 170 152 111 98 97 97 99 98 113 147 172 192 201 195 180 152 135 133 140 156 179 199 197 193 185 150 139 133 129 132 133 130 128 123 126 127 125 119 118 117 111 119 114 120 119 118 114 107 103 103 103 101 102 95 100 92 88 97 88 86 85 81 79 83 79 75 73 68 67 
87 85 81 93 109 119 141 125 109 109 125 172 172 125 99 98 101 114 135 175 192 188 180 172 138 120 127 139 148 181 198 201 191 184 157 140 138 134 137 133 132 133 128 127 128 129 125 126 118 119 119 115 119 120 118 117 115 111 111 108 107 105 104 107 97 97 94 91 96 89 86 88 84 84 81 79 72 76 74 73 
79 83 87 91 101 115 155 174 118 110 110 164 176 156 112 112 141 174 182 180 176 160 137 113 108 108 137 185 193 198 192 180 158 135 132 132 135 133 135 128 130 132 127 125 124 125 128 124 119 116 117 118 118 118 119 115 114 114 112 108 109 104 105 100 97 99 95 91 95 87 89 88 83 83 83 78 77 75 78 84 
84 95 97 89 95 113 161 177 150 109 101 142 172 182 173 187 192 181 174 167 144 113 99 106 123 169 206 213 204 181 157 132 130 125 131 130 132 129 134 130 129 128 129 128 126 128 130 123 121 122 121 121 120 120 119 118 117 115 113 109 109 106 104 102 95 99 98 95 95 89 94 90 87 86 83 82 78 77 76 99 
85 85 89 85 96 108 148 179 166 123 102 120 171 184 201 191 180 167 134 119 113 124 116 163 201 214 212 188 161 133 125 117 125 127 126 127 127 127 133 128 131 127 129 127 126 125 131 124 119 122 124 123 125 120 123 119 114 117 117 109 107 108 106 103 96 101 97 96 95 91 92 86 84 84 85 83 78 81 88 128 
85 82 91 82 91 99 119 166 174 146 101 101 146 162 168 153 138 123 110 123 134 163 190 203 201 190 153 119 115 122 115 114 122 121 125 123 124 125 128 124 126 124 126 123 124 121 126 119 123 117 123 124 119 119 117 117 115 115 114 107 108 108 103 105 100 100 99 95 93 91 92 88 85 85 83 83 78 80 91 149 
85 88 89 85 98 96 106 148 174 162 109 106 111 124 119 108 103 117 124 169 189 192 195 182 153 120 106 105 104 113 112 115 119 120 124 118 123 126 125 125 122 121 122 122 123 122 122 123 123 123 119 121 125 124 121 117 117 115 113 107 110 108 103 105 100 100 100 93 94 90 90 91 81 86 82 82 77 81 99 162 
80 84 89 89 93 94 98 127 166 176 136 107 96 99 107 113 121 167 186 194 193 176 147 123 115 111 104 107 106 112 115 115 120 119 118 118 120 116 125 123 123 123 123 123 122 121 124 126 125 123 123 121 124 120 121 119 120 115 114 106 109 110 105 106 103 103 99 95 98 92 93 92 86 87 88 85 82 88 111 185 
84 82 85 85 88 93 95 107 149 177 160 119 100 105 125 152 182 196 187 183 153 125 112 110 111 101 102 103 102 111 115 115 114 118 120 117 116 116 121 120 120 125 116 117 117 118 121 123 123 122 123 120 122 124 118 118 119 115 114 111 113 112 107 105 100 102 101 95 99 94 93 93 90 86 87 84 81 90 131 193 
79 79 86 84 88 94 92 96 127 173 172 135 122 156 182 189 179 182 155 122 108 101 104 102 115 108 106 104 101 108 111 110 110 113 117 116 113 111 113 114 116 117 118 117 115 116 119 119 119 119 118 115 120 116 117 118 119 116 111 110 109 110 106 104 99 104 98 96 97 89 94 93 91 90 86 85 82 90 141 191 
77 79 80 84 84 89 90 97 107 158 169 184 189 196 185 182 158 134 105 97 99 98 103 104 113 104 104 104 98 104 105 110 110 113 114 114 113 113 113 112 121 116 116 115 110 114 114 116 118 118 118 116 118 117 113 115 115 112 110 108 109 107 104 104 100 105 100 97 98 91 90 90 90 88 89 87 81 93 154 198 
81 81 91 85 89 86 95 97 103 139 168 185 180 185 162 137 110 105 98 105 103 103 109 99 106 108 106 104 102 106 104 109 109 115 116 112 114 113 116 117 116 115 119 118 117 116 119 114 122 120 118 117 120 118 116 114 115 112 114 108 108 110 108 106 103 104 103 98 97 95 94 92 91 95 92 89 87 96 158 203 
80 84 89 81 94 92 91 101 103 117 152 167 158 135 117 106 102 110 105 107 110 104 103 108 108 111 109 107 101 106 106 106 111 113 121 116 118 114 122 119 119 122 121 116 115 116 119 117 116 119 117 117 120 119 117 114 120 117 113 108 112 117 116 112 112 109 104 98 105 92 95 95 92 89 90 90 94 100 173 207 
88 87 91 85 91 92 93 97 102 103 112 121 114 108 107 102 98 103 101 105 100 104 103 103 109 110 107 105 100 106 104 107 110 111 115 114 118 114 118 119 117 119 118 118 114 116 115 119 115 114 117 114 116 117 120 106 116 115 117 118 130 149 153 152 143 129 116 106 108 93 92 94 91 88 92 92 92 129 196 209 
91 83 90 82 90 93 94 96 99 101 100 104 103 101 99 101 104 105 103 101 105 101 104 103 109 107 106 108 101 111 105 108 106 109 114 112 116 114 119 114 119 122 119 117 118 120 120 117 112 112 115 114 114 113 114 113 119 122 133 151 177 195 197 188 180 185 168 148 128 113 103 102 90 91 94 91 99 156 213 225 
83 87 90 84 94 96 100 99 100 102 100 105 104 105 104 96 101 106 106 106 105 105 109 105 106 102 106 104 104 109 105 104 107 111 120 115 112 110 115 116 116 116 114 117 114 116 122 114 113 114 115 114 114 114 115 111 130 154 182 203 213 234 235 237 233 257 255 220 196 172 142 115 100 95 96 95 109 176 216 230 
86 88 90 89 93 96 98 95 102 102 105 101 104 103 101 106 105 112 103 108 108 106 111 104 106 108 104 104 102 109 109 105 103 112 118 115 114 107 113 113 114 116 115 116 114 115 118 117 113 116 115 113 116 116 118 125 170 211 227 236 247 267 272 271 292 317 315 273 258 235 197 166 130 111 101 100 121 181 214 217 
87 88 91 88 90 92 96 102 102 103 103 104 101 104 106 102 109 107 106 108 108 105 105 103 106 107 106 106 99 105 106 104 100 110 115 115 111 109 115 115 115 115 119 113 111 113 116 112 111 117 115 115 115 120 126 159 226 263 278 275 277 286 288 288 318 350 336 322 305 263 246 248 209 171 133 126 164 212 231 213 
83 86 89 90 93 94 98 106 109 107 102 104 104 103 103 106 106 109 107 109 111 107 112 105 109 107 107 105 103 107 106 104 103 109 111 116 112 114 118 112 117 115 114 113 117 119 119 119 115 115 120 118 121 138 174 229 303 328 325 307 302 293 285 297 315 347 342 333 324 293 297 308 295 263 224 206 209 222 238 226 
84 87 92 88 93 97 101 105 103 104 104 107 104 103 106 105 110 107 110 107 103 105 111 109 111 108 110 107 104 105 102 102 101 108 111 113 110 111 118 113 112 112 113 115 118 117 121 116 118 117 117 118 130 177 243 295 333 343 344 334 317 294 327 316 301 308 307 311 322 326 331 327 317 308 299 281 248 221 223 218 
83 89 88 90 96 100 101 105 103 105 104 106 103 101 107 104 105 109 108 110 111 106 110 108 113 108 106 104 104 106 105 104 98 103 105 110 109 107 110 114 109 115 116 116 114 115 119 116 115 116 116 117 155 230 297 320 349 357 348 318 288 323 351 349 333 316 326 322 331 346 341 336 333 332 330 324 298 239 212 190 
84 93 92 90 98 99 98 104 105 105 105 105 105 103 106 106 109 109 107 109 111 109 106 105 111 109 106 104 106 107 109 102 103 106 107 111 106 107 116 107 109 115 116 113 112 114 116 115 116 117 116 125 199 275 326 344 367 360 316 265 298 344 346 346 358 368 359 339 347 343 347 342 341 343 335 330 318 286 215 176 
85 90 93 86 91 96 95 101 106 104 105 107 104 106 107 105 106 112 104 108 112 111 109 103 108 110 107 108 103 106 104 103 100 103 101 106 111 107 114 108 108 112 113 113 110 112 114 117 118 114 126 154 242 305 344 355 354 310 255 295 354 353 354 360 362 374 377 369 364 353 351 356 348 352 352 339 331 314 260 195 
85 88 90 93 95 97 97 100 103 105 105 105 105 105 106 105 106 110 107 109 107 105 108 105 109 108 109 104 104 108 108 104 101 101 102 100 104 106 111 109 107 108 115 111 113 114 114 118 119 122 142 200 278 328 352 348 322 241 290 323 368 362 356 361 367 375 377 372 364 355 361 365 358 363 358 353 341 327 303 233 
87 88 92 91 93 98 95 98 100 99 101 106 103 102 103 103 106 106 107 109 111 102 111 106 112 106 107 107 107 107 108 105 104 101 103 102 100 103 108 109 111 110 113 113 113 113 115 117 121 125 161 234 307 342 355 343 289 207 203 309 367 367 353 356 365 372 376 370 367 356 360 371 364 364 360 356 348 340 325 280 
86 87 89 89 94 97 97 102 100 103 102 98 101 104 104 103 106 110 108 107 108 104 107 108 110 110 106 105 105 109 106 103 98 102 102 99 100 101 109 104 113 110 112 110 111 113 113 119 120 137 184 261 323 348 358 341 279 196 186 261 345 361 354 354 359 373 373 369 368 362 363 371 369 368 364 361 355 344 332 302 
87 86 93 86 92 99 96 99 102 100 101 103 103 103 104 105 107 110 104 108 105 106 107 105 108 111 107 106 106 105 106 103 104 101 99 98 96 97 109 108 110 112 113 112 112 115 116 121 122 140 200 275 332 354 364 350 283 210 187 236 344 362 358 352 357 372 379 375 369 368 369 373 366 370 370 365 358 352 334 315 
89 91 93 89 93 91 89 98 96 100 101 102 101 100 102 107 108 107 103 110 108 105 106 103 108 107 105 101 104 107 106 107 102 99 102 99 95 95 103 108 109 114 111 114 110 112 114 117 118 140 206 275 336 357 364 355 297 215 202 236 340 356 359 354 358 377 383 376 375 374 377 376 367 369 365 363 365 354 335 321 
89 88 87 89 95 98 91 96 97 99 96 101 102 103 102 102 104 109 105 106 109 103 106 103 106 106 104 105 104 108 107 100 103 99 102 92 96 96 101 104 111 114 115 114 111 115 115 117 117 138 202 265 325 355 363 354 318 236 213 247 343 365 364 362 363 379 380 376 377 375 375 378 372 369 365 363 357 346 330 315 
86 88 89 87 96 100 94 96 96 99 99 99 96 98 104 105 102 107 105 108 104 99 104 101 105 109 100 107 104 106 104 100 104 102 99 94 96 94 95 101 113 115 115 113 113 113 117 116 115 134 195 242 304 337 359 355 351 278 247 287 345 364 372 365 370 380 385 380 378 369 370 373 371 372 369 363 356 340 322 302 
83 84 90 84 92 97 96 99 96 99 93 98 101 100 100 100 103 110 104 107 104 103 104 102 105 104 104 102 99 104 104 106 110 107 109 100 99 93 98 96 108 114 112 113 115 116 114 113 117 127 167 220 267 325 346 349 356 334 321 345 355 363 371 374 373 373 378 384 378 373 367 365 370 367 368 361 346 336 322 304 
83 88 91 86 91 97 94 97 96 94 95 101 100 98 102 105 101 105 102 103 105 99 104 97 106 102 100 102 103 102 102 106 113 114 113 111 108 105 101 91 105 114 113 114 113 114 111 115 117 121 138 188 234 292 339 345 358 355 350 358 352 360 366 369 361 368 376 371 374 367 365 357 359 364 363 349 332 329 324 299 
88 86 90 88 90 94 95 95 96 93 93 100 101 101 101 100 105 107 104 106 103 100 104 95 106 102 101 101 102 100 111 109 116 113 119 111 112 112 112 101 103 110 108 113 111 114 116 115 116 114 122 146 196 249 310 346 354 325 340 352 357 355 356 356 353 360 361 363 375 367 359 354 346 354 351 339 329 331 321 297 
86 90 95 89 93 94 94 94 99 93 94 100 101 97 99 102 102 108 101 103 100 101 101 100 103 102 100 101 99 107 111 112 111 113 115 115 113 113 113 105 106 107 109 110 112 111 117 116 113 113 114 119 135 177 233 300 326 269 283 330 348 353 346 340 332 336 347 356 367 363 353 343 340 343 343 330 327 332 312 285 
87 88 91 87 93 94 92 99 97 97 96 101 99 98 103 101 100 102 98 102 105 98 105 98 101 103 97 104 102 111 115 108 110 110 114 111 110 111 112 107 106 104 107 111 111 114 110 117 113 114 114 115 117 125 143 185 262 223 213 272 311 332 341 331 319 328 335 348 357 354 347 338 335 340 339 329 325 316 295 279 
87 86 90 86 95 95 88 93 94 93 95 96 98 98 98 102 101 101 101 100 102 98 102 98 101 99 101 105 108 114 112 109 109 112 112 108 111 107 109 111 108 106 109 108 110 109 112 113 113 115 113 112 113 108 121 120 156 174 167 186 262 313 327 326 318 321 325 329 344 348 341 336 332 332 328 315 292 258 209 224 
85 86 93 87 95 91 88 94 91 94 91 98 92 96 97 97 96 97 96 99 98 95 95 96 96 100 105 108 109 113 111 108 111 108 110 110 111 110 111 107 105 107 106 109 108 113 109 112 111 111 110 107 112 111 111 105 116 137 151 154 179 221 248 277 289 298 311 323 328 333 328 325 323 312 293 245 176 121 111 165 
84 83 90 89 94 94 94 97 92 91 94 97 96 94 95 97 100 101 95 97 96 96 100 96 101 106 106 105 107 110 108 110 107 110 112 112 108 111 109 111 107 111 109 108 105 110 108 110 110 112 108 108 108 108 109 103 106 116 135 135 128 128 131 150 165 187 214 252 272 284 276 271 258 228 169 115 90 74 68 94 
85 87 93 88 92 94 89 95 93 91 91 95 93 93 93 91 95 96 88 97 96 93 96 103 109 104 102 103 104 110 108 109 108 107 109 111 110 109 109 109 110 113 113 108 106 108 107 108 108 107 109 107 108 105 108 104 110 107 105 107 102 108 98 103 94 99 108 119 137 135 144 138 130 112 92 73 65 62 50 53 
86 85 91 86 91 89 93 94 92 91 89 93 89 94 91 93 93 89 84 97 93 97 106 104 108 105 103 105 103 109 111 109 104 106 111 110 108 107 112 111 107 112 113 109 106 109 108 109 104 106 109 108 107 109 104 103 105 104 101 100 97 101 96 92 87 82 84 82 88 84 85 92 89 83 77 65 69 56 49 44 
88 85 92 87 93 89 91 91 89 92 93 91 90 91 90 87 88 88 88 96 100 100 102 99 105 109 104 105 104 108 111 107 106 108 113 113 109 108 110 107 108 108 111 112 107 109 107 110 107 110 108 109 107 110 108 101 107 106 100 98 98 103 97 93 90 84 81 75 79 72 73 82 76 80 73 63 58 56 43 39 
89 89 96 87 93 92 89 90 87 89 89 93 86 88 89 89 93 93 87 97 104 106 99 99 106 103 102 103 104 111 114 110 109 106 113 111 111 108 112 108 110 111 113 110 110 108 108 111 111 109 108 108 107 107 104 101 104 101 99 93 96 99 101 91 92 90 87 76 77 71 70 74 73 72 68 59 60 52 41 36 
85 89 95 90 92 96 94 93 90 88 85 91 88 89 92 91 89 96 96 101 101 102 104 102 106 103 103 107 106 111 114 112 106 111 113 114 110 109 113 107 110 112 116 111 109 112 109 110 111 111 110 111 108 106 106 99 102 103 99 93 96 95 93 89 91 90 80 77 74 68 70 75 76 73 70 57 58 54 46 32 
86 89 93 92 96 96 89 90 89 85 85 88 87 89 86 89 92 102 97 108 99 98 108 105 106 104 104 106 107 113 113 110 109 110 113 114 109 109 114 107 110 113 111 111 108 108 111 111 113 112 107 111 111 107 106 98 101 103 96 94 94 95 93 91 89 90 85 80 78 72 66 73 70 71 64 60 52 55 49 47 
89 93 99 92 101 97 92 89 86 83 82 84 84 87 91 95 97 100 99 107 105 101 105 102 105 106 108 110 109 114 115 111 109 113 112 112 110 105 115 107 111 111 115 113 108 110 112 115 111 110 111 110 107 106 108 100 106 103 100 94 94 95 89 86 87 87 86 85 84 72 67 71 68 70 67 61 55 53 52 55 
91 92 93 89 95 90 94 96 84 82 81 90 87 94 95 96 101 107 98 107 105 104 109 105 112 109 110 109 106 115 118 114 112 111 115 111 108 110 113 114 113 114 112 110 108 111 110 113 109 112 112 108 109 110 109 105 106 107 101 96 95 93 89 87 83 81 83 82 90 75 76 77 69 70 68 62 64 56 58 55 
95 93 96 86 95 91 93 92 89 87 87 87 90 94 101 103 102 103 99 105 107 107 109 107 108 111 111 110 109 117 117 116 113 112 112 110 107 112 116 114 118 111 112 108 104 109 110 109 112 108 110 109 110 112 112 104 108 104 102 96 93 95 93 92 84 86 89 93 88 78 82 82 75 70 73 63 65 66 69 55 


