P2
80 60
53
27 22 24 33 23 13 14 11 6 6 6 5 1 9 5 13 10 14 14 11 14 17 15 19 17 15 14 17 16 17 17 13 14 12 12 15 16 9 15 17 13 16 14 16 17 12 15 13 12 15 11 13 14 16 15 16 15 17 17 14 13 16 19 18 16 14 17 20 18 20 19 17 17 21 18 20 20 24 20 14 
24 20 25 36 38 29 16 11 7 5 7 8 8 11 10 15 11 20 12 14 14 19 17 18 17 17 19 16 12 13 17 14 15 13 13 16 16 12 14 14 14 16 12 10 16 14 16 14 15 15 16 12 14 15 15 18 15 18 18 14 15 18 18 19 18 16 16 20 21 19 20 21 19 20 22 17 21 22 23 12 
23 18 30 38 33 43 35 20 7 8 5 7 0 9 15 16 11 15 16 15 20 13 17 19 21 21 13 16 10 13 18 14 16 16 12 13 16 14 15 14 12 13 14 12 18 13 15 14 10 13 13 11 13 13 16 14 15 19 15 16 10 14 16 17 19 14 18 18 19 16 20 18 16 17 18 16 20 19 20 9 
26 22 30 36 41 39 49 38 21 2 3 4 5 6 10 10 15 16 15 18 16 16 14 20 21 16 17 12 17 15 14 14 15 13 14 14 14 14 12 13 11 13 12 15 14 14 15 10 13 12 12 12 13 14 14 14 16 17 13 15 11 17 16 16 16 17 14 18 16 19 19 16 21 17 18 20 20 26 19 15 
17 24 28 39 37 48 52 50 32 15 2 6 3 6 11 13 12 17 17 19 18 14 15 18 18 19 15 17 16 13 13 15 13 14 11 16 12 13 11 13 10 13 12 15 11 13 16 11 12 14 14 13 14 16 14 14 16 15 14 15 16 15 14 16 20 16 14 19 16 19 17 17 17 20 14 20 19 18 16 10 
20 19 27 32 35 42 53 46 33 20 14 11 5 10 7 9 13 16 17 18 20 19 15 17 14 15 14 14 13 13 16 13 12 13 12 12 14 13 14 13 10 11 12 14 16 13 15 10 13 15 13 11 12 13 14 15 14 17 15 16 11 15 15 18 19 17 16 16 16 20 17 15 16 13 17 15 17 18 15 10 
20 22 26 29 34 41 43 36 35 26 21 18 11 10 11 13 18 17 15 19 16 18 16 17 16 16 14 10 13 12 16 12 13 13 12 11 13 12 11 11 10 12 12 13 14 13 10 13 10 15 11 10 13 18 14 14 14 17 15 14 12 16 15 16 16 13 15 18 17 16 18 15 15 16 14 16 15 19 17 9 
26 21 19 35 36 32 35 30 26 21 24 24 13 9 12 12 14 15 15 18 15 13 13 13 13 14 11 12 13 9 13 12 11 11 13 10 9 13 10 12 11 10 11 14 15 11 11 14 12 12 13 10 11 15 12 15 16 16 13 15 16 15 16 12 16 12 18 18 15 17 19 16 18 14 16 16 17 17 18 9 
23 26 30 34 34 32 30 32 33 23 23 24 19 11 12 11 14 19 19 15 15 13 15 14 13 12 15 16 14 11 15 11 13 13 12 10 11 11 9 11 8 12 10 13 12 14 11 14 10 15 12 11 12 13 14 15 17 18 14 12 15 13 12 15 14 12 12 14 16 15 19 18 17 17 16 16 16 19 13 6 
28 22 35 34 35 34 30 25 29 22 22 21 19 14 13 11 14 17 9 16 17 16 10 14 10 12 14 13 13 12 12 10 13 9 11 13 9 10 11 12 11 9 9 10 12 13 13 11 12 11 13 11 14 13 11 15 14 14 14 9 9 16 13 15 15 15 15 13 18 15 17 19 19 15 18 17 24 18 16 9 
26 25 37 33 38 38 32 26 26 25 20 16 16 15 15 13 15 17 13 13 18 15 11 13 9 13 14 13 11 11 12 12 13 11 11 14 11 13 10 11 10 12 10 13 16 13 13 13 12 12 14 14 14 14 12 11 12 12 16 14 12 12 15 14 15 13 15 14 16 18 20 15 17 15 14 14 19 19 18 10 
29 24 36 39 41 31 34 29 21 21 19 18 15 13 13 12 13 18 12 13 15 11 7 6 12 13 10 11 11 11 14 9 10 10 13 10 10 12 8 13 11 9 8 13 14 10 13 12 13 12 10 9 8 13 12 13 15 11 12 13 5 15 17 12 15 14 16 14 14 14 15 12 13 17 15 14 11 15 15 3 
27 32 40 35 36 37 32 28 27 21 19 16 15 13 9 16 13 18 12 14 15 14 11 13 14 12 12 11 7 12 11 11 15 10 8 12 9 12 12 10 11 10 7 14 14 11 12 13 11 13 12 9 13 14 12 14 14 11 13 13 11 12 11 16 13 14 11 13 16 16 15 13 18 17 17 13 15 14 14 8 
30 31 35 35 38 31 35 27 23 24 18 15 12 14 13 15 11 16 17 13 13 10 12 10 12 10 8 11 11 11 13 12 11 9 12 8 11 13 9 11 6 9 9 10 12 9 16 13 11 13 10 13 11 14 12 14 15 12 15 14 9 11 14 13 15 14 11 13 14 16 17 15 12 13 16 12 13 16 9 7 
30 33 32 37 35 32 32 25 24 23 15 16 13 14 11 14 15 18 15 11 15 15 10 12 11 12 10 9 13 12 12 15 11 12 11 14 9 8 9 12 9 9 11 10 9 10 14 12 11 12 12 9 11 12 13 13 14 12 14 12 12 12 14 15 16 10 16 11 12 15 17 19 15 15 13 12 16 15 12 7 
29 33 34 34 32 29 30 28 23 22 20 12 15 13 13 13 14 15 14 11 13 13 11 10 10 12 11 10 10 11 13 9 11 12 10 13 9 10 12 13 10 7 14 12 11 9 15 7 13 13 11 9 9 11 15 11 15 11 10 10 11 12 14 13 15 14 14 14 14 14 16 17 14 14 15 13 16 14 12 8 
25 26 32 33 31 27 30 25 19 22 18 17 14 11 13 14 16 15 11 13 11 10 10 9 10 9 9 12 9 11 11 8 12 8 9 11 10 9 11 13 9 9 10 13 14 10 11 9 11 11 10 12 9 11 14 13 11 10 10 9 7 8 15 12 16 10 12 12 12 12 14 14 12 14 14 13 13 15 14 9 
26 32 32 36 30 27 32 27 25 16 18 17 15 12 11 15 15 15 10 12 12 12 11 11 9 14 11 11 10 9 13 12 13 9 11 10 11 10 8 9 8 10 9 11 14 10 12 11 15 12 10 11 12 12 11 14 12 11 12 11 12 10 13 11 13 13 14 13 13 12 15 13 14 15 14 13 17 17 15 7 
29 32 32 36 28 29 30 26 23 20 16 19 13 17 15 13 10 12 13 13 13 11 12 13 14 13 13 12 12 10 16 11 11 9 9 10 9 9 9 11 12 10 11 10 10 11 13 13 9 12 9 11 9 11 12 12 13 12 11 16 15 14 14 11 15 13 12 15 14 15 17 12 14 13 14 14 19 17 12 4 
29 30 36 30 28 27 28 24 22 18 17 16 14 10 12 9 11 12 10 12 11 9 11 9 10 9 12 9 13 12 12 11 14 8 10 12 10 9 9 8 10 12 10 11 12 11 11 9 10 12 10 9 10 13 12 13 13 13 12 13 10 10 12 11 14 11 13 13 13 16 14 13 13 14 13 15 17 15 6 6 
29 28 29 32 26 30 27 27 23 15 15 14 16 12 16 12 13 13 11 12 13 9 9 11 10 15 12 9 10 8 9 10 13 10 10 11 9 11 10 10 7 9 9 11 12 10 13 12 13 14 11 12 10 11 13 14 13 13 14 12 11 12 15 10 14 11 15 14 12 15 18 16 12 16 17 13 15 15 13 7 
29 24 26 34 24 29 26 20 19 20 14 16 13 11 14 13 9 10 10 12 12 8 12 13 9 10 13 10 8 10 9 14 11 12 12 8 13 9 10 9 10 8 11 11 11 11 13 11 10 12 12 11 10 13 13 11 12 13 15 10 12 12 14 13 15 14 12 13 17 14 14 17 15 16 15 13 14 15 14 9 
28 24 34 32 27 27 25 20 16 18 13 15 10 11 10 6 10 9 9 9 11 10 9 10 12 10 7 10 9 9 10 9 10 9 10 9 5 8 9 8 9 6 7 7 11 10 12 8 12 8 13 7 10 11 12 8 10 11 12 11 10 10 16 13 12 14 15 13 14 13 12 14 12 14 13 14 13 18 12 15 
33 23 35 32 24 21 22 17 18 12 13 13 12 9 8 12 9 12 12 11 10 8 11 9 11 9 9 11 9 8 9 10 9 7 5 9 8 7 7 8 6 9 6 9 11 8 9 10 10 12 11 8 9 9 9 12 9 10 13 11 11 9 12 11 15 12 14 14 13 10 13 11 12 14 10 12 11 17 14 9 
27 29 33 30 21 26 23 21 18 15 18 16 10 13 10 13 11 14 10 11 7 12 13 12 13 13 11 12 10 6 13 12 11 9 9 10 9 11 9 9 7 9 6 11 13 11 11 10 12 11 10 11 13 12 11 10 11 11 12 13 10 10 12 12 13 13 12 14 12 16 14 11 16 12 15 15 12 15 12 9 
27 28 31 25 22 20 21 17 19 16 17 12 9 13 9 10 11 12 11 11 12 10 8 8 13 10 10 11 8 12 12 13 9 9 9 11 10 12 10 9 9 7 9 9 10 12 10 11 12 13 11 7 13 11 11 8 10 12 10 11 14 11 11 16 10 11 12 17 10 14 19 15 14 13 14 13 13 15 14 10 
27 26 27 28 21 21 22 20 15 12 17 13 10 15 9 9 10 14 13 10 10 10 11 12 9 9 9 11 10 11 14 13 11 9 12 11 10 14 11 9 9 11 9 10 11 11 12 14 11 11 11 9 11 12 11 12 12 10 12 11 12 11 13 13 13 13 10 14 14 16 15 15 13 14 16 12 13 13 11 8 
27 25 29 25 24 23 22 15 14 11 13 14 7 10 10 11 10 13 12 13 9 9 12 10 10 8 9 10 9 9 10 11 10 9 7 16 10 12 10 10 7 9 8 9 11 10 9 10 10 12 12 7 13 10 12 12 9 8 10 10 13 10 13 16 14 11 12 10 12 14 16 15 13 13 16 14 15 14 14 8 
26 25 26 22 23 21 15 12 10 14 8 11 11 9 6 6 5 9 9 9 9 8 9 9 8 12 11 11 10 10 10 11 9 8 8 11 10 10 13 8 11 9 11 11 11 10 13 11 11 13 10 8 11 10 9 11 9 13 13 11 7 10 16 13 14 10 10 14 14 13 15 15 14 12 12 15 11 15 12 11 
28 26 26 23 25 21 15 13 11 10 11 10 11 7 7 9 6 11 10 8 9 8 9 8 12 10 11 8 10 10 9 12 11 8 12 9 8 10 10 12 10 8 8 10 12 10 11 12 12 8 8 11 10 9 11 10 13 10 12 11 11 9 10 17 11 10 10 17 13 13 15 14 13 8 11 13 14 16 14 7 
28 23 30 24 26 24 18 16 11 10 12 11 8 12 10 11 9 12 10 10 11 8 8 10 11 10 8 10 10 9 11 12 11 9 8 11 9 12 7 10 10 11 8 13 12 10 10 11 8 14 10 11 15 10 13 12 12 11 13 10 9 10 16 16 13 14 12 16 12 13 15 13 15 14 15 15 14 17 16 8 
27 22 27 22 23 19 16 17 14 11 9 8 7 10 9 12 10 12 12 10 10 10 12 12 10 10 11 12 13 11 10 11 11 7 11 13 10 11 10 12 10 11 10 10 13 11 12 13 11 11 12 12 12 14 13 13 14 13 11 13 13 14 18 14 15 16 15 13 13 17 16 13 16 17 16 13 17 15 14 11 
27 21 26 26 23 19 15 15 12 11 13 9 7 9 9 11 8 12 12 12 11 11 8 11 11 12 12 9 12 13 10 11 8 9 9 12 11 11 8 9 9 8 10 13 12 12 13 11 11 11 9 12 11 11 12 12 11 12 10 10 10 9 13 13 11 15 16 13 16 13 14 14 13 15 13 14 14 19 15 12 
25 23 27 30 24 21 14 15 11 13 13 8 5 11 8 10 8 11 7 12 14 12 10 9 9 10 10 11 10 13 11 11 10 10 12 12 11 15 10 11 9 10 12 10 12 8 12 13 11 13 10 9 13 13 13 13 12 13 12 13 14 11 17 15 14 12 14 18 16 16 15 15 16 16 16 11 15 20 16 13 
19 22 28 24 27 19 14 13 10 14 10 10 8 4 6 10 8 9 9 11 12 13 9 9 8 12 9 14 9 10 9 9 11 9 6 13 10 10 11 9 10 13 13 10 12 10 9 13 13 13 12 12 10 11 10 11 10 12 11 12 13 13 15 13 13 13 13 13 16 17 14 14 15 17 15 17 14 18 14 10 
24 25 30 24 21 19 14 13 9 11 10 10 7 9 8 13 10 12 9 10 9 10 7 10 12 14 10 8 13 13 8 12 11 8 7 11 11 13 9 9 12 9 10 12 15 14 14 15 14 13 11 10 10 12 11 12 10 13 10 13 10 13 13 16 14 17 14 16 15 15 17 15 11 16 17 14 15 17 18 13 
24 25 28 29 19 14 13 11 7 11 4 7 8 6 8 11 8 10 12 7 11 9 9 11 10 12 12 11 10 10 11 13 14 6 9 12 10 9 10 10 9 13 11 15 12 13 13 13 14 13 14 13 12 12 10 12 11 12 10 13 12 14 16 13 13 14 15 14 17 16 18 12 12 13 15 14 18 19 15 6 
32 26 27 28 23 14 10 12 7 12 8 10 5 8 10 10 10 11 12 9 11 12 12 11 11 12 12 10 10 9 10 9 14 11 10 12 6 14 11 9 11 13 9 13 13 11 14 12 12 11 10 13 15 10 11 12 14 14 12 14 11 11 13 13 13 13 13 15 16 17 17 13 15 15 13 17 17 19 16 11 
31 27 28 27 20 14 9 9 9 6 5 6 10 9 7 12 8 11 9 7 13 10 10 11 10 12 12 13 12 7 11 14 10 13 9 12 9 12 6 9 10 12 10 13 13 9 15 14 13 11 11 7 11 12 13 17 14 14 12 13 15 13 12 15 13 12 12 21 14 15 16 15 13 12 12 11 14 19 17 11 
28 26 34 26 26 15 11 9 11 10 7 10 5 13 10 14 12 14 12 9 12 11 11 13 13 15 10 10 13 14 13 12 14 12 11 15 12 13 11 12 12 13 10 14 14 13 16 15 11 12 12 11 12 14 16 13 14 17 14 14 11 13 14 14 13 16 13 19 16 17 18 15 14 17 18 17 18 19 14 5 
33 27 27 23 23 18 16 12 8 6 8 7 8 10 12 9 14 16 13 14 10 12 12 11 9 13 15 10 12 15 11 13 16 11 12 14 11 12 15 13 12 13 14 15 16 14 16 13 13 14 11 13 14 11 10 16 15 17 12 10 15 16 14 18 17 14 14 18 19 18 21 19 16 17 18 15 16 17 17 10 
36 34 34 28 26 16 15 13 11 8 7 8 10 11 12 12 12 14 14 15 11 13 13 13 11 14 13 13 16 16 15 10 14 14 12 14 10 13 12 14 17 16 17 15 16 15 14 16 17 16 12 13 12 12 15 14 16 15 12 13 17 14 15 18 16 16 18 18 19 19 21 18 16 19 16 16 15 22 20 13 
37 27 32 29 23 13 11 12 14 6 9 8 13 11 9 10 11 13 16 11 10 14 13 12 11 14 16 14 12 13 15 12 12 17 12 17 14 16 16 13 13 16 15 17 15 19 16 13 15 13 14 14 13 13 11 15 15 17 14 14 9 14 17 19 17 19 18 17 18 19 21 20 18 16 21 19 17 16 18 9 
32 30 33 27 21 21 12 8 11 5 8 8 9 11 10 10 14 10 13 12 16 13 13 11 9 18 12 15 13 13 15 13 16 10 15 14 11 14 15 15 14 12 11 16 17 15 15 17 13 16 14 14 15 11 13 13 14 16 13 15 11 14 15 16 14 20 17 19 15 17 23 19 17 21 18 15 17 18 19 12 
38 35 35 32 22 21 15 10 8 7 9 12 7 11 10 13 11 13 12 11 15 11 14 12 14 17 13 14 12 8 17 10 18 14 14 14 12 12 14 15 14 13 13 16 15 14 16 16 16 13 14 15 14 12 10 13 15 15 13 15 12 15 17 18 16 18 17 20 17 20 23 18 20 14 21 17 18 21 19 17 
37 34 35 30 21 18 12 11 9 7 7 9 9 7 9 13 11 12 15 13 16 14 15 10 11 18 15 13 13 11 14 15 14 13 14 17 11 18 13 13 16 15 14 16 13 12 15 17 15 15 15 15 13 17 14 13 14 13 14 15 12 14 19 18 16 15 20 19 19 19 20 19 17 19 19 21 19 22 17 12 
27 30 35 22 28 19 11 8 8 7 5 9 10 10 11 13 8 14 14 13 10 13 12 14 13 15 15 12 13 10 12 13 14 11 11 13 14 13 12 14 14 13 16 15 16 17 16 15 16 14 15 18 12 16 12 12 11 15 15 17 12 14 19 16 17 13 16 20 17 18 21 17 15 18 22 18 19 21 18 15 
30 27 31 24 22 16 9 9 5 8 11 11 10 10 13 8 10 11 14 14 13 13 13 13 13 14 18 15 17 14 15 13 15 13 15 14 14 15 10 13 15 14 15 17 16 17 16 16 14 15 13 15 15 16 16 16 14 15 16 16 17 17 16 16 19 17 19 21 18 20 21 20 17 17 20 19 22 22 20 11 
28 24 26 23 20 13 7 6 8 6 6 7 11 10 10 10 10 14 12 15 12 13 13 14 12 15 16 13 15 15 16 13 16 13 15 13 15 14 12 16 13 15 13 15 16 15 16 18 13 14 16 13 16 14 16 16 13 14 16 13 14 18 17 16 18 21 18 18 20 18 21 18 20 19 22 21 22 22 22 13 
25 22 26 26 21 18 8 9 6 8 7 5 10 11 9 13 11 13 14 11 15 12 13 15 14 18 16 12 16 14 17 14 17 13 15 16 15 12 12 15 15 15 14 14 16 16 19 14 18 15 14 15 16 19 14 15 18 15 14 15 15 16 21 19 20 20 19 21 20 22 22 21 17 20 20 19 22 17 17 15 
17 19 20 19 12 9 9 5 9 4 3 11 9 12 11 12 13 11 9 11 12 11 17 12 14 16 17 15 14 19 17 14 17 10 18 18 13 14 15 17 15 13 13 13 19 17 16 13 14 16 17 17 15 15 14 17 16 15 13 19 13 19 22 21 18 19 18 19 16 23 22 19 19 16 24 20 16 22 18 12 
22 18 18 20 10 8 7 7 8 8 6 8 9 12 11 12 11 13 7 13 15 13 13 14 12 18 15 15 19 13 16 16 18 13 17 17 15 14 15 19 16 14 13 16 16 18 18 14 13 18 15 15 17 15 16 14 18 17 12 15 17 16 16 18 17 19 20 21 19 21 22 21 18 21 21 22 20 17 18 18 
25 20 20 18 11 1 6 6 8 7 10 6 11 13 11 12 12 14 14 16 15 13 18 14 14 21 21 18 20 19 18 18 20 12 17 18 16 18 15 18 19 20 18 17 18 14 19 16 17 19 18 14 14 20 19 20 16 20 18 19 16 16 19 21 19 15 18 26 23 20 29 18 20 22 23 22 24 21 18 14 
28 22 20 15 2 4 9 7 4 7 4 10 10 9 12 10 13 13 17 18 16 15 18 19 18 23 23 20 20 18 20 17 22 18 17 20 17 17 17 18 18 18 18 18 18 18 16 16 19 17 17 16 17 18 19 21 21 20 16 19 13 14 19 20 20 17 17 22 23 26 22 19 19 19 21 21 21 26 20 17 
26 28 16 15 2 5 10 8 7 6 7 13 5 11 12 11 14 16 16 17 15 16 19 20 18 25 26 28 28 23 28 20 21 20 18 20 18 19 16 21 15 18 15 20 19 19 19 19 18 20 18 17 18 19 20 18 18 24 18 18 18 14 17 20 20 21 18 23 24 23 24 19 17 21 22 21 23 24 17 18 
28 29 14 20 8 6 8 11 5 8 6 10 9 13 11 16 17 19 15 18 15 18 18 21 22 26 28 25 27 25 27 26 24 20 23 22 22 25 20 23 18 20 17 20 19 18 19 21 20 20 18 20 20 23 18 21 22 20 21 20 19 20 18 21 19 20 21 26 22 23 26 18 20 22 22 22 23 26 21 16 
32 26 24 16 3 4 6 7 4 12 8 11 6 9 12 12 12 18 16 14 15 16 19 21 24 28 28 24 31 25 32 25 31 22 26 25 25 24 22 25 21 18 20 22 24 22 19 16 22 23 17 21 20 18 20 22 23 22 21 20 18 20 20 20 22 20 20 22 24 23 26 23 23 22 27 21 22 24 24 14 
31 13 21 10 11 6 5 9 8 9 5 8 7 15 9 16 12 13 12 14 16 15 19 21 26 25 26 27 37 35 29 27 31 25 28 31 26 27 26 26 21 23 23 25 24 22 25 25 22 21 21 20 19 24 22 24 24 25 25 25 19 21 22 21 24 22 27 23 24 27 26 27 22 27 23 21 24 24 20 18 
17 13 17 10 7 5 7 10 8 6 5 10 10 10 9 18 9 13 15 16 15 20 19 21 20 23 28 29 32 29 33 30 32 29 29 29 31 31 28 29 24 26 25 28 26 25 25 23 24 25 25 20 24 24 26 22 24 25 27 23 19 21 24 25 24 20 26 25 22 26 26 24 25 25 28 22 25 24 28 19 
15 13 11 17 9 13 13 4 11 8 3 8 10 12 10 19 11 17 15 18 15 16 17 25 22 25 24 27 28 29 31 33 33 24 26 30 29 30 27 27 26 27 26 26 24 26 24 28 25 23 24 21 25 25 24 25 26 25 24 25 20 21 23 24 22 25 25 24 26 25 25 24 19 27 26 21 24 25 23 25 


