P2
80 60
56
13 20 18 27 32 32 31 31 32 24 18 19 21 23 26 24 25 23 25 30 33 34 31 32 36 34 32 31 33 32 32 31 31 32 37 39 39 38 42 34 32 30 32 27 36 38 33 31 38 39 39 36 34 35 32 34 33 34 30 30 29 26 30 22 20 17 17 15 18 15 11 12 14 4 4 6 7 3 0 7 
8 15 14 18 33 30 30 31 26 24 23 23 24 26 26 25 22 24 27 30 33 33 35 34 33 35 32 36 35 32 33 32 30 29 34 41 40 36 37 37 36 32 34 32 34 32 32 28 33 37 32 36 35 33 33 31 31 30 32 27 30 26 25 22 20 15 15 14 17 13 9 4 8 7 3 5 6 4 4 8 
12 16 13 21 28 29 32 31 31 28 28 29 29 30 28 26 24 24 27 32 37 34 34 33 34 36 32 33 34 31 33 32 32 28 33 37 38 35 39 41 38 36 35 29 28 34 34 32 34 32 35 33 35 32 30 29 36 30 30 29 28 27 26 22 19 18 16 13 16 16 9 10 10 8 1 3 5 3 4 6 
9 17 15 17 24 24 32 30 30 28 27 30 32 29 30 25 27 27 31 32 39 36 33 33 34 36 34 37 32 33 33 31 33 31 30 33 39 35 38 40 40 37 33 30 28 32 29 34 33 36 32 35 35 36 35 35 35 33 32 32 26 25 25 19 18 18 17 16 12 18 13 14 9 12 6 5 8 4 3 5 
10 21 15 15 25 26 28 27 29 26 30 30 34 29 24 26 26 27 28 31 36 33 30 32 32 36 33 34 31 34 33 30 33 30 31 31 37 37 38 39 37 32 32 30 26 32 35 34 35 36 31 34 33 33 33 36 33 30 28 29 27 24 22 21 21 18 16 12 10 10 16 13 7 8 8 4 8 2 5 4 
13 19 18 16 22 22 29 27 25 29 30 27 33 29 28 27 27 29 29 31 35 36 31 35 32 34 35 33 33 36 38 32 31 33 32 30 34 33 32 36 31 33 31 27 25 27 30 34 36 29 34 32 34 31 30 35 34 33 29 26 22 25 24 20 22 21 20 18 14 17 12 10 8 4 10 6 9 2 5 4 
20 28 18 19 20 19 25 28 28 26 31 31 32 29 24 30 27 29 31 32 37 37 36 34 34 39 39 38 31 37 39 37 36 36 33 31 32 32 36 33 28 30 34 29 32 28 26 38 38 33 34 36 32 34 35 35 34 32 30 29 28 25 22 19 27 23 25 21 21 19 16 14 10 10 9 13 11 6 5 5 
19 28 25 21 23 20 29 30 31 30 32 33 36 37 28 31 26 31 30 32 37 35 40 36 34 38 39 38 35 38 42 37 36 39 36 33 34 34 32 31 32 35 33 29 28 29 28 29 30 33 37 31 35 35 31 34 31 30 30 28 28 30 25 26 25 20 23 20 16 19 18 13 8 9 8 14 10 3 9 7 
16 27 26 29 24 20 25 23 26 26 33 38 39 37 31 31 26 31 34 38 38 36 41 37 38 42 39 40 38 38 40 40 37 37 37 38 35 36 33 28 29 32 34 31 32 33 24 24 22 27 35 35 38 35 34 34 34 27 30 29 30 30 27 26 24 20 23 18 16 21 19 14 14 15 16 16 13 9 10 9 
22 34 32 29 28 25 30 31 28 29 31 34 40 42 33 36 31 34 33 38 37 42 40 39 42 44 41 39 39 41 44 41 41 43 41 41 38 36 33 34 33 36 35 33 32 32 28 27 27 29 38 40 38 35 37 37 31 31 31 32 32 33 31 22 25 23 26 22 20 23 21 19 15 16 16 15 11 9 12 11 
24 32 25 28 26 27 29 30 30 26 28 34 36 45 34 36 35 31 35 38 41 39 42 39 42 42 39 41 41 42 41 42 42 38 41 46 39 36 34 34 36 35 36 33 32 35 33 24 28 28 36 36 36 37 38 32 33 25 25 30 33 28 31 25 24 23 24 21 21 24 19 16 18 15 15 17 13 12 14 18 
27 32 29 26 27 26 31 30 30 33 31 36 40 45 41 35 37 35 36 38 41 41 41 40 43 40 40 45 43 46 41 44 42 44 43 43 41 38 35 39 37 39 39 35 33 35 29 27 29 30 37 39 33 36 34 31 29 25 26 30 30 33 29 25 29 21 25 22 21 22 21 16 20 19 13 18 17 11 14 15 
24 30 28 31 28 30 32 33 30 34 34 34 40 43 45 40 40 40 41 41 44 40 40 38 40 44 44 41 42 40 42 43 43 44 40 43 43 38 39 37 38 36 38 36 31 35 32 29 29 31 33 35 35 33 31 25 27 26 27 32 38 32 31 26 29 27 27 25 25 25 23 17 20 16 15 17 19 14 15 20 
25 31 30 29 29 32 34 33 34 39 37 34 42 44 45 38 42 37 44 42 44 43 41 40 44 43 43 47 46 45 46 44 47 46 44 44 43 39 41 38 42 40 39 37 34 36 34 32 29 28 29 35 39 31 29 26 25 22 22 30 36 35 32 27 29 28 27 26 24 24 22 22 21 14 18 18 18 12 17 14 
23 33 30 31 35 36 34 34 35 36 32 37 37 41 44 44 46 42 46 44 45 41 44 44 43 43 47 46 47 46 47 47 48 48 45 46 44 42 41 43 43 43 40 39 42 40 36 36 31 33 33 33 38 32 28 27 27 28 24 27 33 33 34 30 32 24 28 28 27 22 22 24 22 21 22 23 16 17 16 20 
26 32 31 34 32 36 34 32 34 36 36 38 41 44 44 46 46 45 46 44 48 47 46 45 44 46 43 48 49 51 49 50 50 45 45 47 46 48 45 43 46 48 47 46 44 45 40 39 37 32 33 29 32 29 31 26 29 29 25 27 28 29 34 28 33 28 29 27 24 25 22 23 24 21 25 21 21 18 17 18 
31 33 34 34 32 33 36 33 31 38 33 35 39 45 42 45 49 47 48 47 47 45 47 44 46 48 47 48 47 50 51 50 51 45 49 47 45 48 46 44 44 44 52 51 50 47 46 45 43 38 33 33 30 29 28 29 27 30 23 26 27 24 31 29 27 27 30 25 24 27 25 20 24 24 21 20 20 15 15 17 
28 37 30 33 34 31 32 31 32 33 36 34 42 40 45 45 47 48 48 46 46 45 50 46 49 46 48 46 47 49 47 50 52 48 47 43 45 43 42 42 45 47 53 51 53 49 49 45 45 39 36 36 31 29 31 30 24 28 27 24 25 24 26 26 23 25 32 28 24 24 27 24 26 22 25 18 19 16 15 16 
30 39 36 36 39 37 35 35 34 35 38 38 44 43 46 44 47 49 52 49 49 48 49 47 50 49 45 47 47 46 47 49 47 46 44 45 45 43 46 43 41 46 51 51 51 50 48 43 47 45 40 37 37 33 29 29 26 25 24 31 29 28 26 26 25 24 26 28 27 26 23 25 30 23 20 19 22 20 18 13 
27 38 36 38 40 36 36 34 33 40 38 43 45 44 49 43 46 49 51 49 47 49 50 44 49 47 48 42 45 45 47 46 50 45 43 45 47 44 44 44 45 46 51 51 53 48 46 44 47 44 41 39 34 31 26 24 27 28 24 29 27 24 26 23 23 25 27 27 24 25 28 25 24 19 19 23 22 17 19 15 
30 38 34 35 40 39 37 38 37 43 43 46 46 45 45 46 46 49 48 48 51 51 47 47 47 49 48 47 43 46 45 49 50 44 43 46 45 43 44 45 42 49 51 52 48 48 46 45 47 44 47 42 39 33 28 28 28 29 25 27 24 25 26 27 23 26 23 26 28 25 27 25 24 21 20 21 25 21 20 21 
33 38 38 40 41 42 40 41 41 44 46 49 49 48 46 42 44 48 47 47 51 50 50 47 49 49 48 48 45 45 47 44 51 46 46 46 43 44 45 46 43 44 49 48 47 46 46 48 49 47 42 42 40 32 34 28 31 28 26 25 28 30 27 25 24 26 28 27 28 30 28 25 24 25 22 21 22 21 25 15 
34 42 37 37 38 44 41 41 42 46 45 48 47 48 43 42 44 50 53 47 50 48 49 47 49 46 47 46 45 50 45 46 51 42 47 47 44 45 43 44 44 44 46 47 45 44 46 43 46 44 45 42 39 37 34 29 27 27 27 26 29 29 28 27 21 21 22 24 25 24 28 27 20 23 21 24 21 18 18 17 
35 39 38 36 39 42 42 42 46 48 51 50 48 45 43 43 42 48 49 46 52 47 49 49 47 48 46 48 44 47 48 48 47 47 50 47 47 44 43 44 45 43 45 49 45 46 44 44 49 40 43 40 39 41 34 31 27 25 24 25 27 29 29 28 28 23 23 22 23 24 25 25 24 20 20 24 21 19 18 19 
36 40 35 38 39 43 41 45 47 48 53 49 48 48 50 45 47 52 51 45 48 46 49 45 49 49 46 47 47 47 47 52 49 51 51 51 49 47 44 43 44 47 47 47 46 46 44 42 46 46 42 46 44 40 36 34 29 27 30 29 30 30 32 27 30 24 25 21 23 27 22 27 24 25 24 27 22 20 17 16 
39 41 39 36 44 42 44 44 51 48 53 47 48 47 45 45 48 47 45 42 46 49 47 50 44 47 46 46 49 47 44 50 52 53 52 51 51 48 48 48 48 46 45 45 45 46 47 43 43 44 41 42 43 42 40 35 33 32 31 25 28 29 29 33 29 27 21 20 23 24 27 25 30 26 26 25 25 19 17 20 
40 44 40 36 39 44 41 41 42 45 48 45 48 45 45 45 42 47 46 47 43 44 48 44 48 46 44 47 46 45 49 51 52 52 51 49 50 49 49 44 47 47 46 46 46 41 39 42 42 44 47 41 42 40 42 38 36 30 29 30 28 27 29 27 29 23 25 20 19 23 29 26 26 22 22 23 24 21 22 21 
42 47 42 39 38 38 38 41 41 45 44 47 47 47 46 45 42 45 47 42 47 46 47 44 46 42 45 46 46 45 47 49 53 50 52 50 48 48 46 47 47 46 43 47 40 39 39 39 41 39 39 39 40 39 39 36 35 31 30 27 28 29 27 27 23 20 20 19 20 23 25 24 24 23 22 23 24 20 25 18 
39 44 40 41 40 41 36 36 35 42 44 46 45 46 45 43 42 43 45 42 44 45 42 44 46 46 46 43 49 47 47 49 53 50 53 52 51 48 46 44 49 48 46 45 42 38 37 36 38 37 38 38 36 37 38 34 38 35 35 26 24 25 27 25 24 20 20 21 18 25 27 23 22 24 21 26 27 23 21 24 
34 41 39 41 40 37 36 35 38 40 42 44 46 43 47 47 46 45 45 46 45 45 46 46 44 48 48 49 49 47 51 49 49 49 56 53 51 48 48 44 46 47 48 49 44 41 40 36 38 37 37 37 33 37 36 31 34 38 39 36 30 27 24 25 21 22 20 20 20 27 32 31 27 24 25 28 25 19 20 24 
35 43 43 40 42 40 38 37 43 41 42 43 46 45 46 47 47 43 47 44 44 46 45 49 49 49 48 48 48 45 46 47 47 53 52 54 53 52 48 47 49 48 49 45 50 42 42 38 41 41 38 37 33 32 30 31 32 33 35 35 32 29 23 27 24 18 21 18 20 23 30 28 26 22 22 26 24 21 20 20 
36 42 40 39 43 41 39 38 43 42 43 42 41 43 46 43 47 43 47 49 47 49 44 49 50 49 47 46 45 44 45 45 51 51 50 54 51 48 48 47 43 48 51 45 44 45 41 42 42 42 39 42 36 36 37 32 32 33 33 33 36 32 29 29 27 22 21 17 18 17 22 21 24 25 23 24 22 16 21 24 
37 42 39 41 44 43 42 42 43 46 43 44 43 47 48 48 48 45 45 44 45 47 52 49 49 50 49 48 46 46 45 47 52 52 49 52 50 50 50 47 45 44 49 44 47 44 42 42 42 40 45 40 37 38 32 36 34 31 29 35 34 36 35 35 25 24 20 20 19 26 24 26 27 24 26 26 24 16 21 17 
37 43 42 44 45 45 42 41 45 42 41 42 41 45 47 48 48 47 46 45 51 47 49 47 51 51 47 46 47 46 45 49 50 49 49 49 47 44 46 46 46 48 52 43 43 42 44 44 41 45 45 41 41 40 38 34 35 31 32 31 35 38 38 38 28 22 18 21 21 23 23 24 22 24 22 20 22 21 24 22 
34 44 43 38 46 45 43 49 46 43 42 39 44 42 49 46 46 48 45 46 47 50 49 51 51 50 50 48 46 46 46 47 48 49 49 51 44 43 47 40 45 45 49 42 42 43 40 43 43 43 40 42 39 42 39 39 38 34 36 32 33 38 35 32 37 25 20 19 21 23 24 24 20 24 16 19 19 18 22 22 
31 42 39 39 41 42 41 42 44 44 43 44 40 41 46 44 46 50 42 48 51 48 48 50 47 51 50 49 45 46 48 45 46 47 48 48 44 46 44 44 44 44 48 43 39 39 39 43 46 38 41 40 38 40 39 41 43 38 38 33 30 30 32 31 33 26 20 18 19 22 25 21 23 21 18 18 18 17 24 16 
35 45 40 40 42 39 38 44 42 44 45 41 45 43 45 45 47 47 45 45 46 48 49 50 50 51 48 50 47 46 47 44 48 48 49 45 42 43 42 42 43 44 43 37 42 45 45 44 45 44 41 39 39 41 39 39 43 41 39 34 32 29 31 30 30 25 23 21 19 17 22 20 18 20 17 17 17 12 17 17 
33 39 38 36 36 39 40 41 43 44 43 44 40 42 47 47 52 47 46 48 51 47 53 48 51 49 50 49 50 46 43 49 50 49 46 45 45 43 42 39 44 43 40 40 44 46 46 46 46 47 40 38 39 44 39 37 40 42 38 38 33 32 29 23 26 24 29 20 21 21 17 15 18 16 18 18 17 11 17 17 
30 41 40 37 38 37 39 41 41 46 39 41 42 46 49 47 51 49 50 47 47 47 51 48 50 50 51 50 48 43 45 47 46 47 46 49 44 40 41 41 39 46 42 42 41 44 44 48 46 40 40 41 35 42 40 40 40 37 38 40 33 28 25 24 24 23 27 25 22 17 17 13 19 17 15 14 14 15 12 11 
30 39 39 36 35 38 39 38 38 43 42 44 45 48 46 49 50 49 46 44 45 46 47 48 48 50 52 50 49 45 46 49 46 46 46 46 45 43 43 41 45 45 46 39 40 45 46 45 45 42 39 40 37 38 39 36 39 41 38 36 35 29 24 19 20 20 25 26 19 20 16 11 17 11 11 14 15 10 15 9 
32 38 37 38 38 36 38 39 37 41 44 43 46 47 49 51 50 49 45 46 45 45 50 46 46 48 47 47 51 50 48 48 49 47 46 50 45 43 47 44 45 46 46 41 42 42 43 43 47 45 40 40 40 38 38 38 40 38 41 39 33 30 23 23 21 21 24 27 22 18 15 14 14 13 12 12 12 9 10 16 
29 42 36 41 42 40 38 38 38 40 43 42 48 50 49 50 48 50 48 46 44 43 45 45 48 45 48 48 47 48 48 49 48 47 45 46 46 47 45 44 44 45 44 41 41 44 38 38 40 40 37 40 37 40 37 34 36 38 35 37 37 31 22 19 20 21 25 28 25 21 20 15 12 10 6 12 6 7 9 7 
32 37 36 35 43 37 37 43 34 40 42 43 41 48 51 52 48 46 46 42 40 42 46 42 46 46 47 46 47 46 49 50 51 47 45 45 45 46 46 44 44 46 45 41 40 39 34 36 37 41 35 35 36 36 36 33 32 35 33 38 33 30 22 18 19 20 23 24 28 26 22 17 14 12 9 10 9 6 7 12 
27 40 35 34 39 41 42 43 40 39 42 49 45 47 48 48 48 50 43 44 44 44 46 46 46 45 49 48 47 46 48 48 49 46 47 46 44 44 45 43 40 41 42 39 41 37 32 31 36 38 35 31 29 29 29 25 27 27 29 31 30 30 23 20 19 18 24 26 25 28 25 20 17 16 11 10 10 6 9 10 
31 39 35 35 37 38 37 38 39 41 42 45 44 45 48 48 47 45 45 41 43 41 44 44 45 48 48 43 43 45 48 48 48 45 42 43 43 40 39 39 38 42 40 41 38 33 31 29 34 37 34 31 25 25 28 28 28 29 29 31 27 24 21 20 23 17 24 28 25 25 28 22 15 13 10 9 8 6 8 13 
32 38 34 35 34 38 36 38 38 38 39 42 45 42 47 44 46 41 39 40 39 40 42 43 45 46 49 46 44 44 44 44 44 44 43 43 43 36 33 39 37 39 40 40 41 39 32 29 34 38 36 30 27 24 25 25 32 35 34 29 25 24 22 19 22 19 27 24 28 26 24 24 13 10 10 10 8 5 8 7 
28 39 33 31 37 35 35 35 36 36 41 40 43 45 45 42 42 38 35 35 37 37 37 39 44 44 42 43 41 41 42 46 43 44 41 41 40 34 35 34 37 35 37 35 37 37 34 35 37 36 36 35 29 24 26 26 30 37 35 25 21 19 19 15 19 21 27 26 26 25 25 20 20 13 9 13 12 3 5 5 
33 38 34 34 33 38 41 40 39 36 40 41 45 41 42 44 42 37 35 39 34 35 40 43 43 42 40 42 39 41 43 43 45 46 41 41 39 35 30 35 35 37 35 36 39 39 41 38 43 41 39 38 32 31 28 31 32 33 29 28 21 22 18 18 18 23 27 27 26 25 28 25 21 22 15 14 13 3 8 9 
30 39 32 37 41 41 39 37 36 36 41 42 39 44 46 46 45 44 40 42 39 36 40 40 40 38 42 41 43 43 42 43 42 45 44 46 41 38 32 36 35 40 38 34 36 37 43 42 44 42 38 34 32 30 27 36 34 30 32 26 26 23 22 19 21 23 26 27 25 26 27 25 25 23 17 18 11 4 8 7 
34 34 34 35 39 35 38 39 37 42 37 42 43 40 43 48 44 41 41 40 40 37 41 37 38 37 35 38 41 42 40 43 44 43 42 43 39 38 34 34 35 37 38 33 35 34 37 36 41 37 35 35 32 34 28 34 32 32 28 27 23 22 22 21 21 20 28 28 24 24 22 23 23 17 21 11 9 3 5 3 
31 34 35 35 40 38 38 39 34 41 39 39 39 43 44 44 45 40 39 40 40 39 41 40 38 38 38 37 42 38 40 42 44 44 44 45 43 36 35 36 36 35 36 34 37 37 35 31 32 36 37 34 33 37 33 32 33 34 33 28 26 24 24 23 25 24 27 27 24 23 26 24 17 17 20 14 7 5 3 1 
32 36 37 36 39 40 38 36 41 45 44 43 40 37 40 44 40 40 38 40 40 40 42 38 35 36 38 39 37 39 41 42 41 44 42 43 41 31 33 39 39 43 38 38 39 34 38 30 32 33 38 32 34 38 39 40 39 34 33 28 25 24 31 23 26 23 27 26 27 28 23 23 19 14 17 17 12 3 5 5 
34 34 38 37 40 39 40 37 42 42 42 43 40 41 42 39 46 41 40 39 43 39 38 35 40 39 39 39 40 38 43 42 43 42 41 41 40 39 33 34 37 41 43 38 39 34 33 34 37 34 33 35 34 43 42 42 41 36 35 23 21 27 27 26 26 24 26 25 26 27 26 28 24 22 18 18 17 5 4 3 
37 40 40 42 43 43 44 38 38 43 42 45 46 40 42 41 41 41 39 38 38 38 40 37 38 40 42 39 42 42 44 46 44 40 43 43 40 36 36 38 40 42 47 41 37 35 37 35 38 34 37 36 34 43 40 41 40 37 28 24 24 30 30 29 29 28 26 27 26 28 28 34 28 24 21 18 18 9 4 7 
37 41 41 40 39 36 35 37 36 39 41 41 44 40 40 38 46 41 41 39 42 44 42 39 40 40 41 41 42 46 43 43 44 45 42 41 43 41 41 41 40 43 48 44 43 41 39 38 39 38 37 37 36 45 39 40 40 33 36 24 27 26 29 31 27 26 28 29 28 28 30 27 27 26 26 22 17 12 9 2 
31 36 34 31 32 33 33 34 34 35 41 40 44 44 45 42 48 43 39 40 42 40 41 36 40 43 43 44 43 43 47 47 47 45 43 43 42 39 42 40 44 46 50 42 42 45 43 38 40 38 37 36 37 37 42 37 42 37 37 27 25 29 31 26 28 27 29 27 27 26 30 31 30 26 23 21 18 12 10 12 
20 29 28 27 28 27 31 30 32 35 34 38 41 42 45 43 44 40 37 40 41 38 41 40 41 42 41 44 44 46 45 47 43 41 42 46 42 42 42 41 43 51 50 45 44 42 42 38 42 37 38 35 36 38 37 36 36 35 34 32 31 26 27 28 28 27 28 26 25 30 27 25 25 25 25 24 16 10 11 3 
21 27 25 24 28 32 34 31 33 32 32 32 31 38 42 40 46 45 41 42 42 39 40 40 41 44 45 48 46 43 49 50 45 43 43 44 44 42 42 41 44 50 51 47 47 41 42 41 43 39 35 40 36 35 35 34 39 34 40 32 26 28 26 28 28 26 27 22 30 25 26 26 24 27 23 21 18 12 10 7 
23 28 20 21 29 33 34 29 28 23 33 30 26 34 36 39 42 42 41 40 38 41 45 44 45 45 48 46 42 49 48 50 43 44 42 44 44 44 43 43 46 48 48 47 44 44 43 36 40 40 34 38 34 35 35 35 39 35 34 30 31 24 27 30 24 24 27 23 29 26 26 27 23 23 23 21 20 16 8 12 
26 27 20 22 29 27 28 27 32 22 24 27 28 32 27 28 35 34 35 38 43 44 40 39 39 41 40 43 43 46 47 44 44 40 42 44 38 40 39 37 38 46 45 42 39 42 38 33 34 31 33 33 35 32 35 35 34 33 31 28 25 20 27 26 23 25 26 26 28 28 28 24 21 24 22 19 20 9 11 10 


