P2
80 60
492
489 492 489 485 463 430 419 431 386 330 262 220 213 192 206 209 210 213 205 204 213 235 259 280 290 288 291 311 337 376 411 406 394 359 334 301 294 313 293 283 272 263 262 260 248 225 210 194 172 155 135 129 121 116 100 91 79 74 71 68 64 65 63 61 60 60 55 61 61 61 73 68 67 68 72 61 65 58 60 56 
439 466 473 454 442 427 391 398 399 369 315 267 227 202 194 198 202 204 195 183 204 206 205 228 235 246 251 263 274 273 299 329 346 334 311 293 276 291 275 266 262 241 234 245 248 236 222 211 192 178 157 143 125 117 110 100 86 81 76 73 73 64 66 69 66 61 60 61 62 65 71 67 65 63 61 57 66 57 61 63 
342 399 427 424 424 414 397 381 373 379 350 310 272 241 214 198 192 197 190 188 189 193 191 201 201 202 216 229 242 237 246 248 273 283 285 276 265 265 259 249 247 233 220 218 224 232 222 215 206 198 182 162 141 125 117 113 95 87 81 77 72 71 70 67 69 65 53 58 61 62 68 66 63 63 55 61 65 60 54 51 
278 332 377 386 390 391 393 382 373 362 351 335 305 271 239 224 206 194 189 184 182 188 184 196 192 184 187 203 219 215 222 221 233 233 247 250 252 241 245 248 238 227 214 209 208 215 219 225 218 222 210 189 158 138 125 119 105 89 85 75 76 75 79 75 71 75 62 56 62 68 66 69 62 57 59 58 64 57 54 48 
247 266 310 333 340 358 371 379 374 367 345 326 302 292 275 246 226 212 193 178 183 182 180 189 188 182 176 187 198 200 201 202 212 214 210 218 233 232 223 235 241 226 218 220 218 215 224 224 234 239 231 202 177 151 136 133 117 104 87 84 78 79 76 72 73 78 65 63 64 67 69 63 64 59 52 49 56 49 47 39 
273 245 265 281 286 308 330 344 349 353 341 319 294 279 272 266 245 231 210 190 189 187 180 193 182 177 179 185 187 185 192 192 208 207 203 200 215 225 223 230 237 236 228 234 234 228 223 220 224 231 240 210 189 167 152 145 132 117 101 94 87 79 82 74 76 78 75 67 65 73 63 64 68 65 59 54 55 53 43 29 
316 268 263 251 243 252 280 295 309 322 307 302 282 261 250 245 248 242 223 204 196 191 183 189 185 173 179 186 190 183 185 189 208 207 209 209 219 227 232 233 241 234 227 230 237 231 229 226 217 223 231 224 196 175 166 152 144 131 115 103 97 86 85 84 81 80 74 71 68 68 69 65 71 67 63 51 55 48 33 16 
318 294 292 262 234 226 239 250 263 278 277 277 267 261 243 236 232 233 227 208 204 199 192 195 188 184 181 192 196 189 200 205 220 219 221 217 224 222 227 230 236 231 220 223 221 229 232 225 212 207 210 220 205 189 170 167 149 132 123 117 107 96 93 90 82 79 72 74 74 68 68 65 70 68 62 54 50 49 33 15 
273 284 297 295 258 231 220 215 222 241 244 254 248 246 237 234 234 230 222 210 214 205 207 207 197 193 195 211 218 195 201 217 221 221 222 222 221 224 222 222 231 233 224 222 221 222 220 217 212 208 201 211 207 199 186 179 162 145 133 122 116 114 97 94 86 84 78 67 64 74 70 70 73 80 71 54 59 49 27 10 
237 246 271 285 275 265 245 224 211 216 214 224 233 233 234 231 226 227 221 213 218 220 223 228 222 215 211 217 232 210 218 204 223 222 227 221 220 221 218 227 229 234 220 222 223 225 222 208 203 208 203 211 195 193 194 196 172 159 146 140 129 122 110 98 91 94 87 79 75 74 72 68 68 76 70 59 63 52 25 6 
210 206 225 253 254 260 260 245 222 210 203 211 212 219 224 226 229 237 235 229 230 232 230 240 228 217 210 218 223 202 212 206 216 214 217 213 215 221 219 230 226 227 221 214 216 220 221 211 207 197 192 197 187 188 187 185 183 183 159 144 134 129 118 106 101 94 82 79 78 77 76 63 67 74 72 65 63 49 25 0 
190 191 201 211 222 237 249 249 241 237 216 215 215 218 231 235 247 250 251 235 234 228 224 232 230 216 214 221 220 204 205 201 205 207 199 205 212 210 218 222 217 221 217 213 215 210 220 214 202 188 185 190 182 177 175 176 175 162 162 152 145 131 122 108 112 95 92 82 81 82 77 71 64 73 70 67 62 44 26 1 
180 180 201 202 202 212 227 241 241 250 250 246 244 234 237 239 248 251 245 233 236 230 216 226 229 213 208 211 217 203 203 192 200 198 200 198 204 200 204 216 209 212 214 212 207 208 218 216 206 195 183 182 171 170 173 167 160 155 151 150 148 136 127 112 113 102 94 89 83 80 82 72 70 74 70 72 68 47 29 7 
172 175 194 195 202 212 226 234 249 250 268 270 258 246 237 230 236 241 241 230 231 224 221 224 219 209 208 210 214 202 193 193 199 195 197 193 194 197 194 201 210 212 213 215 207 207 214 206 204 192 180 181 171 168 162 168 159 148 141 137 132 128 131 122 117 109 95 90 86 86 84 80 70 69 73 67 66 55 37 13 
177 183 207 204 207 241 244 241 240 250 252 260 259 250 237 227 225 229 232 224 223 224 220 219 209 208 201 205 203 193 191 195 190 189 189 183 190 190 190 189 193 203 200 211 204 201 208 205 196 189 184 182 169 164 161 160 148 142 137 124 113 114 126 127 116 110 102 97 96 85 85 82 77 79 73 66 64 59 45 29 
198 217 224 206 200 236 231 229 227 231 228 236 239 240 230 224 215 221 221 211 219 220 210 222 202 195 194 202 201 184 184 179 187 181 182 176 183 178 173 176 175 179 190 210 201 202 196 201 201 187 176 177 168 164 161 155 145 136 125 117 101 96 110 115 114 114 101 98 94 86 89 83 82 77 69 70 62 47 50 39 
199 217 224 206 192 209 226 221 217 223 216 218 223 227 219 220 206 206 209 209 214 215 206 214 202 200 187 194 204 181 185 171 182 175 173 166 166 168 165 164 163 165 175 191 201 202 191 196 195 192 177 173 164 160 150 151 139 137 118 113 99 86 90 103 103 116 108 101 91 91 93 87 84 76 77 74 68 42 46 52 
190 199 215 214 196 197 208 214 222 217 211 216 217 211 212 204 205 205 203 199 207 208 206 210 197 193 181 191 193 173 165 164 177 169 162 158 159 160 155 155 158 153 170 178 189 186 187 189 193 189 176 171 163 151 154 147 137 130 117 110 93 83 85 90 90 103 100 102 94 92 95 87 85 75 73 72 79 48 46 48 
185 190 209 214 209 206 198 197 204 214 208 205 211 204 194 187 187 194 199 191 196 196 193 204 192 182 180 183 182 167 160 158 164 154 154 150 156 157 151 154 165 169 166 169 174 174 174 172 191 189 176 166 162 156 147 144 137 128 114 100 95 81 90 88 91 97 94 90 91 94 93 90 85 75 71 80 84 66 51 44 
189 195 205 208 209 219 215 195 189 199 196 213 209 207 197 189 183 191 192 187 183 188 191 193 184 175 171 177 174 164 160 153 159 155 156 150 160 171 166 174 176 168 154 161 172 172 163 172 182 192 177 173 158 149 145 140 129 124 115 101 95 86 88 88 88 88 90 84 77 85 94 83 84 82 74 78 85 78 61 56 
194 193 213 211 199 211 219 202 198 198 185 197 205 203 194 179 173 178 178 170 180 181 175 187 179 169 166 174 171 157 161 160 168 163 165 165 169 177 172 173 175 161 148 161 168 168 158 159 178 186 179 164 155 146 146 145 129 121 111 103 94 86 93 91 88 86 82 80 78 84 87 85 86 86 81 74 81 78 67 63 
221 207 219 215 195 203 210 195 204 202 187 183 184 187 187 175 175 171 168 164 163 174 165 174 169 159 160 171 184 179 178 181 191 179 173 165 167 179 172 177 165 159 145 161 167 169 154 148 166 179 179 165 151 149 142 135 131 119 112 109 102 88 90 83 82 87 77 76 76 83 84 82 85 83 80 75 82 79 71 65 
260 257 251 232 211 205 210 203 191 199 190 185 187 176 170 173 167 172 166 152 156 163 160 170 167 168 191 208 220 194 193 195 191 181 178 173 167 171 173 172 165 152 142 152 169 173 156 149 149 170 177 168 151 146 139 139 129 117 112 113 108 101 94 83 77 85 74 71 77 76 83 76 78 81 78 79 78 74 70 76 
273 309 295 274 223 209 213 207 192 192 183 187 182 180 171 163 160 165 163 157 159 170 172 184 182 200 208 209 210 194 189 191 190 179 175 173 177 166 166 180 169 154 148 152 166 181 178 152 155 168 175 168 153 143 141 137 131 116 112 111 110 101 98 94 84 85 76 78 75 82 81 72 78 81 78 78 81 81 80 78 
220 265 344 330 259 227 223 215 202 193 184 185 183 178 177 173 164 161 166 166 195 225 230 213 186 196 203 202 208 192 189 189 190 183 176 178 181 171 165 170 177 169 149 149 168 179 181 166 162 177 179 174 155 147 139 141 130 121 120 110 110 112 102 97 97 93 81 78 74 80 79 74 82 85 83 86 88 81 81 80 
172 204 253 333 334 278 239 230 219 208 189 184 180 178 177 176 171 171 187 218 265 280 255 216 183 179 189 201 203 186 189 185 187 182 182 181 182 171 161 171 171 167 160 157 162 180 184 165 156 171 174 173 160 147 139 139 129 122 117 109 113 112 106 101 101 95 87 82 80 80 85 78 89 89 92 92 100 84 87 85 
156 161 187 231 290 324 314 262 237 217 204 192 195 197 201 199 201 210 218 238 272 266 257 222 187 179 181 190 197 179 174 179 188 177 174 178 185 181 167 164 172 169 151 157 165 184 187 166 158 163 168 177 169 149 143 135 127 123 120 114 112 111 99 103 101 98 92 88 90 94 92 91 89 88 94 101 100 85 85 89 
140 149 168 175 186 231 299 316 289 252 210 203 198 211 231 243 221 218 224 228 262 253 236 251 205 179 164 178 174 171 172 176 176 173 172 169 172 180 172 171 172 158 145 151 155 168 178 167 153 154 160 178 167 151 141 138 127 118 111 107 109 105 105 99 98 103 96 95 94 102 103 94 94 93 96 99 101 94 87 85 
121 134 153 158 160 171 200 241 294 319 272 229 217 212 239 241 225 219 219 220 232 241 229 243 236 192 171 169 170 159 156 164 176 170 168 168 169 169 163 167 168 160 142 150 150 164 173 167 157 153 154 176 166 152 140 137 129 120 119 112 112 109 109 104 105 107 103 95 103 111 107 98 99 100 101 101 103 102 89 92 
126 123 136 145 148 155 161 190 195 253 304 311 248 224 230 240 229 220 211 212 209 218 229 230 223 217 206 187 176 156 155 153 164 165 162 154 164 156 149 152 160 158 144 153 146 150 170 174 157 155 157 171 171 155 143 139 132 125 118 114 118 121 117 113 113 120 115 107 109 109 109 107 101 106 104 112 111 102 100 99 
126 127 139 130 125 136 149 159 167 189 211 243 289 275 234 227 231 220 209 193 201 203 201 218 221 209 209 216 204 171 159 143 149 149 148 148 153 150 145 144 148 147 143 143 146 146 159 171 159 158 152 171 174 161 136 134 131 128 122 122 126 123 124 124 117 125 117 110 107 113 114 113 116 113 113 118 116 110 104 102 
127 125 136 141 129 130 137 149 159 168 163 175 199 233 261 242 220 216 213 198 195 194 199 200 197 196 202 209 210 193 176 164 157 147 143 141 144 148 143 142 143 142 131 130 147 144 153 170 165 154 150 172 178 170 151 148 141 131 135 136 133 131 129 128 122 127 115 114 112 113 118 122 118 124 125 119 116 105 107 98 
119 122 133 133 132 135 135 129 137 158 152 157 157 168 188 219 236 214 207 199 193 194 192 192 189 178 179 190 193 175 169 169 168 153 141 132 131 140 139 139 136 134 122 130 133 134 156 166 173 148 139 158 171 173 164 160 148 141 134 135 134 132 135 129 125 131 129 125 124 125 122 120 125 121 127 118 117 108 105 108 
121 125 130 133 129 135 135 136 127 134 135 148 148 154 163 171 186 209 202 180 185 189 187 189 177 166 164 170 171 166 163 161 161 154 143 133 132 131 123 131 131 134 125 128 127 131 143 161 169 158 139 150 159 168 167 162 154 143 142 135 132 134 136 134 132 142 134 135 124 126 125 123 121 120 120 118 118 111 104 104 
116 116 126 127 123 126 129 130 132 139 133 138 145 144 148 152 161 167 173 173 177 174 170 179 173 158 154 159 165 153 152 145 156 148 142 140 134 130 121 123 126 127 119 127 127 125 136 154 169 163 143 143 151 161 167 158 151 146 145 140 139 142 140 136 139 144 135 130 127 124 127 121 118 117 119 115 116 110 107 99 
111 111 125 122 118 119 127 129 132 141 140 138 136 133 138 140 142 150 149 148 161 161 157 162 158 154 147 154 151 142 136 137 143 142 141 132 137 131 125 123 126 118 120 121 122 120 130 147 158 158 148 144 142 152 156 158 154 155 147 148 147 145 147 141 134 135 134 127 121 123 123 123 124 116 119 114 110 107 100 99 
111 110 118 126 124 122 124 127 128 138 133 140 134 128 132 127 133 138 138 134 140 149 146 155 149 137 140 147 148 133 136 131 137 131 132 129 134 134 124 120 121 116 111 111 119 115 120 136 157 162 145 135 140 145 151 161 156 160 150 151 159 153 147 137 133 131 123 128 118 118 124 117 116 117 110 112 115 101 101 94 
114 115 119 122 117 121 127 121 123 130 128 137 130 128 126 134 132 133 134 136 139 141 140 147 144 136 129 141 146 129 131 131 132 128 131 123 132 129 125 127 127 119 114 116 120 120 120 131 153 163 151 151 144 145 150 157 154 156 154 149 153 155 150 137 133 130 123 121 116 114 113 114 113 113 115 112 106 103 104 96 
103 106 114 115 112 114 123 118 125 130 119 120 125 127 126 122 122 128 134 121 125 132 137 145 138 134 124 134 131 130 129 127 124 125 125 115 123 119 124 117 125 115 107 112 120 118 118 123 144 156 155 156 154 153 150 148 140 140 140 143 145 143 137 136 127 130 116 113 111 111 109 105 106 107 106 100 106 95 94 94 
98 98 108 108 105 118 116 112 116 123 120 128 135 128 123 126 125 129 126 117 126 131 127 136 127 126 120 132 133 121 123 124 129 120 119 115 122 122 120 118 121 114 108 114 115 117 115 119 136 149 159 156 149 147 145 146 137 135 137 134 137 134 135 128 122 120 114 109 107 107 111 97 101 101 104 99 99 89 85 85 
106 105 113 108 108 104 105 115 122 128 129 140 141 129 126 128 129 126 122 120 124 127 128 130 127 124 119 124 130 122 125 120 123 115 119 113 115 116 119 117 126 121 108 114 117 117 120 118 130 145 153 158 152 147 146 145 135 125 127 131 124 126 129 121 118 124 111 106 103 107 107 101 94 95 98 88 90 84 80 75 
100 97 103 103 101 103 103 118 131 139 134 142 143 136 127 122 120 130 124 117 122 121 125 134 126 119 117 129 127 115 116 111 121 113 113 103 112 118 115 117 119 115 110 116 117 116 119 115 119 131 139 147 145 146 140 139 128 131 120 117 118 118 113 115 112 114 107 101 96 101 100 95 93 89 87 85 85 81 74 75 
96 99 106 112 102 103 114 123 124 141 133 140 151 137 135 130 127 121 122 119 119 118 117 130 121 122 107 127 128 114 119 115 120 113 120 111 120 116 116 118 122 120 109 115 118 112 120 118 117 124 129 137 139 136 139 137 129 123 117 116 115 112 112 107 108 109 102 98 99 93 96 93 84 85 82 81 86 75 75 72 
92 94 106 104 100 99 113 126 139 157 133 143 158 147 135 131 129 130 124 117 119 122 122 126 116 113 113 122 121 110 116 113 126 113 114 110 116 113 114 115 118 117 107 113 117 116 117 117 117 115 117 122 120 124 122 125 125 119 115 115 114 111 109 106 104 105 92 91 86 90 91 84 82 77 84 71 77 71 70 72 
92 89 100 101 102 102 109 119 135 154 147 146 161 153 140 134 132 129 126 114 120 117 113 120 119 117 111 121 125 109 113 114 120 116 112 107 117 112 113 111 113 113 103 110 114 115 111 115 112 115 110 113 108 109 110 116 118 117 116 111 111 109 109 102 100 96 92 85 80 88 84 80 79 74 77 72 75 67 60 69 
89 83 95 103 101 106 105 115 128 152 153 147 164 161 154 139 135 134 131 118 115 120 120 119 120 116 112 122 125 107 112 110 121 114 115 107 115 113 112 113 114 111 101 108 116 114 112 114 110 111 110 110 111 104 106 110 105 110 106 107 108 107 103 100 95 98 88 83 79 84 85 82 75 74 76 65 65 70 60 69 
86 93 99 100 94 95 108 107 126 150 155 153 158 165 161 142 140 139 136 123 121 121 121 129 124 119 110 120 124 111 115 119 115 116 111 111 116 112 111 115 115 109 100 107 112 108 118 117 116 113 110 109 107 106 106 108 103 98 106 102 99 103 104 91 93 92 88 79 79 82 76 74 73 74 71 69 68 65 62 64 
89 86 96 100 91 101 101 108 113 150 157 154 159 167 164 151 140 140 138 128 125 127 122 132 120 118 113 117 122 113 119 109 122 111 112 108 113 114 113 112 117 113 103 109 117 112 115 116 115 120 111 116 106 104 104 105 98 95 93 101 98 101 101 90 93 89 85 78 70 76 78 72 71 70 73 66 69 60 62 58 
83 88 95 93 96 94 97 104 107 131 153 153 151 164 163 157 146 148 141 132 131 129 129 133 121 114 113 121 127 113 114 112 116 116 112 104 110 112 110 116 116 110 109 105 109 110 111 113 110 113 109 114 108 105 100 104 97 88 96 89 93 93 97 93 90 89 75 75 74 72 74 71 71 68 72 69 65 55 60 63 
85 84 94 99 95 92 97 96 105 133 146 160 148 159 163 148 144 139 150 131 129 132 124 129 122 120 113 122 124 116 114 111 122 113 111 107 111 116 109 111 113 110 104 111 109 106 114 110 109 114 114 113 109 110 102 103 94 96 91 90 89 92 94 85 84 93 79 73 71 71 72 68 67 64 63 62 72 55 54 59 
87 80 91 101 94 96 98 103 102 121 138 155 154 155 154 152 151 147 142 134 130 128 128 133 125 111 113 121 127 111 113 109 117 111 113 111 111 119 107 112 109 113 109 107 106 114 110 113 111 112 111 110 104 107 100 103 96 89 96 89 90 92 91 85 81 82 74 73 68 66 67 72 60 66 70 61 60 54 53 58 
81 82 91 89 83 90 94 96 104 114 128 151 154 145 153 146 143 144 139 136 131 131 128 135 126 119 113 121 122 109 111 108 118 111 109 106 112 115 108 111 112 110 101 107 111 109 110 108 108 111 110 115 105 102 101 104 104 91 89 91 88 88 91 87 80 80 74 72 58 61 62 68 66 64 64 63 55 51 47 46 
83 82 97 96 85 90 99 101 106 110 120 144 154 147 149 153 152 144 145 135 137 138 136 139 133 122 114 127 122 116 113 113 114 113 114 109 115 117 113 114 115 112 104 108 112 113 110 108 109 113 114 115 111 111 107 110 99 93 96 92 92 94 91 86 81 80 80 69 66 69 69 69 63 60 68 60 57 57 47 52 
78 78 96 95 94 91 97 97 95 111 116 139 151 147 146 144 150 140 138 133 133 134 131 139 129 124 114 123 132 112 117 116 118 114 113 111 114 105 110 108 113 111 107 112 113 113 112 112 113 117 110 113 108 107 107 106 104 96 92 92 90 90 92 80 84 79 74 67 66 65 67 60 60 63 62 56 52 52 45 47 
73 75 93 96 84 92 99 97 92 103 108 133 147 151 146 154 148 143 140 129 133 137 130 137 133 123 116 126 127 115 118 116 117 114 113 110 115 114 113 112 113 111 110 111 114 113 111 113 111 113 113 114 108 110 104 105 101 90 91 90 91 86 90 76 80 76 75 66 60 64 60 60 65 57 59 54 52 54 40 42 
76 77 93 90 83 88 97 97 94 109 110 129 146 156 145 151 146 148 139 133 135 133 133 144 132 126 125 129 132 121 118 114 123 120 111 113 111 118 110 114 116 116 112 113 114 112 114 115 113 112 114 116 113 106 112 110 100 100 97 90 86 90 90 77 83 82 70 68 62 65 63 63 60 58 59 52 55 54 50 36 
69 78 86 93 82 86 89 98 101 108 106 124 143 154 146 151 146 147 145 135 132 130 132 139 137 123 125 130 133 120 118 119 122 118 112 114 114 118 110 113 117 119 110 113 114 111 116 112 114 111 111 115 111 109 110 111 101 94 92 92 88 87 85 79 77 79 68 69 61 62 61 58 62 56 53 50 54 47 41 39 
68 77 91 97 88 85 91 97 93 103 105 117 132 152 151 145 145 148 139 134 136 126 134 139 132 125 122 134 135 120 121 116 123 118 115 111 117 116 114 113 119 116 109 110 111 117 113 113 111 110 111 112 109 104 109 106 101 96 92 90 85 83 86 75 75 80 62 66 61 59 60 53 60 54 52 55 59 47 42 43 
69 80 87 91 89 84 93 100 101 104 105 109 131 148 156 141 151 150 142 137 138 136 139 144 139 129 131 132 130 122 122 120 125 120 116 117 116 119 116 120 124 114 114 109 114 116 117 114 114 113 113 114 108 106 107 107 100 98 94 89 86 83 82 79 75 70 65 68 65 61 62 57 56 55 57 52 60 51 42 48 
78 78 85 94 90 91 100 102 105 111 107 117 129 148 152 146 155 152 148 137 144 146 142 152 144 137 131 139 138 123 127 127 128 123 118 115 112 123 121 125 129 112 110 110 110 112 114 110 116 116 111 114 110 105 107 105 100 97 92 92 90 91 87 84 83 82 78 71 66 66 68 67 61 60 60 52 64 56 52 47 


