P2
80 60
16335
16335 0 16335 16335 16335 3933 16335 6467 16335 16335 16335 5695 16335 8138 6741 4571 16335 16335 16335 16335 16335 16335 16335 6569 16335 8120 16335 16335 16335 7928 4873 7920 16335 7790 16335 16335 16335 16335 16335 16335 16335 16335 16335 16335 16335 16335 16335 6461 16335 4048 16335 16335 16335 16335 16335 16335 6739 4024 16335 16335 16335 16335 16335 4864 16335 16335 16335 16335 16335 16335 81 16335 16335 5391 272 4983 16335 5985 16335 16335 
5009 5931 16335 16335 16335 16335 16335 2445 16335 6828 16335 5064 16335 7399 16335 1741 3376 3270 16335 44 16335 7578 16335 2704 16335 2746 16335 16335 16335 6121 16335 5994 16335 7569 16335 16335 16335 6992 16335 16335 721 16335 16335 16335 16335 16335 16335 8105 16335 16335 16335 2746 16335 5945 7745 16335 16335 16335 16335 16335 16335 3978 569 16335 1083 16335 25 16335 16335 3763 16335 137 16335 5258 16335 4783 16335 16335 16335 16335 
16335 0 16335 16335 16335 3933 16335 6467 16335 16335 16335 5695 16335 8138 6741 4571 16335 16335 16335 16335 16335 16335 16335 6569 16335 8120 16335 16335 16335 7928 4873 7920 16335 7790 16335 16335 16335 16335 16335 16335 16335 16335 16335 16335 16335 16335 16335 6461 16335 4048 16335 16335 16335 16335 16335 16335 6739 4024 16335 16335 16335 16335 16335 4864 16335 16335 16335 16335 16335 16335 81 16335 16335 5391 272 4983 16335 5985 16335 16335 
5009 5931 16335 16335 16335 16335 16335 2445 16335 6828 16335 5064 16335 7399 16335 1741 3376 3270 16335 44 16335 7578 16335 2704 16335 2746 16335 16335 16335 6121 16335 5994 16335 7569 16335 16335 16335 6992 16335 16335 721 16335 16335 16335 16335 16335 16335 8105 16335 16335 16335 2746 16335 5945 7745 16335 16335 16335 16335 16335 16335 3978 569 16335 1083 16335 25 16335 16335 3763 16335 137 16335 5258 16335 4783 16335 16335 16335 16335 
16335 0 16335 16335 16335 3933 16335 6467 16335 16335 16335 5695 16335 8138 6741 4571 16335 16335 16335 16335 16335 16335 16335 6569 16335 8120 16335 16335 16335 7928 4873 7920 16335 7790 16335 16335 16335 16335 16335 16335 16335 16335 16335 16335 16335 16335 16335 6461 16335 4048 16335 16335 16335 16335 16335 16335 6739 4024 16335 16335 16335 16335 16335 4864 16335 16335 16335 16335 16335 16335 81 16335 16335 5391 272 4983 16335 5985 16335 16335 
5009 5931 16335 16335 16335 16335 16335 2445 16335 6828 16335 5064 16335 7399 16335 1741 3376 3270 16335 44 16335 7578 16335 2704 16335 2746 16335 16335 16335 6121 16335 5994 16335 7569 16335 16335 16335 6992 16335 16335 721 16335 16335 16335 16335 16335 16335 8105 16335 16335 16335 2746 16335 5945 7745 16335 16335 16335 16335 16335 16335 3978 569 16335 1083 16335 25 16335 16335 3763 16335 137 16335 5258 16335 4783 16335 16335 16335 16335 
16335 0 16335 16335 16335 3933 16335 6467 16335 16335 16335 5695 16335 8138 6741 4571 16335 16335 16335 16335 16335 16335 16335 6569 16335 8120 16335 16335 16335 7928 4873 7920 16335 7790 16335 16335 16335 16335 16335 16335 16335 16335 16335 16335 16335 16335 16335 6461 16335 4048 16335 16335 16335 16335 16335 16335 6739 4024 16335 16335 16335 16335 16335 4864 16335 16335 16335 16335 16335 16335 81 16335 16335 5391 272 4983 16335 5985 16335 16335 
5009 5931 16335 16335 16335 16335 16335 2445 16335 6828 16335 5064 16335 7399 16335 1741 3376 3270 16335 44 16335 7578 16335 2704 16335 2746 16335 16335 16335 6121 16335 5994 16335 7569 16335 16335 16335 6992 16335 16335 721 16335 16335 16335 16335 16335 16335 8105 16335 16335 16335 2746 16335 5945 7745 16335 16335 16335 16335 16335 16335 3978 569 16335 1083 16335 25 16335 16335 3763 16335 137 16335 5258 16335 4783 16335 16335 16335 16335 
16335 0 16335 16335 16335 3933 16335 6467 16335 16335 16335 5695 16335 8138 6741 4571 16335 16335 16335 16335 16335 16335 16335 6569 16335 8120 16335 16335 16335 7928 4873 7920 16335 7790 16335 16335 16335 16335 16335 16335 16335 16335 16335 16335 16335 16335 16335 6461 16335 4048 16335 16335 16335 16335 16335 16335 6739 4024 16335 16335 16335 16335 16335 4864 16335 16335 16335 16335 16335 16335 81 16335 16335 5391 272 4983 16335 5985 16335 16335 
5009 5931 16335 16335 16335 16335 16335 2445 16335 6828 16335 5064 16335 7399 16335 1741 3376 3270 16335 44 16335 7578 16335 2704 16335 2746 16335 16335 16335 6121 16335 5994 16335 7569 16335 16335 16335 6992 16335 16335 721 16335 16335 16335 16335 16335 16335 8105 16335 16335 16335 2746 16335 5945 7745 16335 16335 16335 16335 16335 16335 3978 569 16335 1083 16335 25 16335 16335 3763 16335 137 16335 5258 16335 4783 16335 16335 16335 16335 
16335 0 16335 16335 16335 3933 16335 6467 16335 16335 16335 5695 16335 8138 6741 4571 16335 16335 16335 16335 16335 16335 16335 6569 16335 8120 16335 16335 16335 7928 4873 7920 16335 7790 16335 16335 16335 16335 16335 16335 16335 16335 16335 16335 16335 16335 16335 6461 16335 4048 16335 16335 16335 16335 16335 16335 6739 4024 16335 16335 16335 16335 16335 4864 16335 16335 16335 16335 16335 16335 81 16335 16335 5391 272 4983 16335 5985 16335 16335 
5009 5931 16335 16335 16335 16335 16335 2445 16335 6828 16335 5064 16335 7399 16335 1741 3376 3270 16335 44 16335 7578 16335 2704 16335 2746 16335 16335 16335 6121 16335 5994 16335 7569 16335 16335 16335 6992 16335 16335 721 16335 16335 16335 16335 16335 16335 8105 16335 16335 16335 2746 16335 5945 7745 16335 16335 16335 16335 16335 16335 3978 569 16335 1083 16335 25 16335 16335 3763 16335 137 16335 5258 16335 4783 16335 16335 16335 16335 
16335 0 16335 16335 16335 3933 16335 6467 16335 16335 16335 5695 16335 8138 6741 4571 16335 16335 16335 16335 16335 16335 16335 6569 16335 8120 16335 16335 16335 7928 4873 7920 16335 7790 16335 16335 16335 16335 16335 16335 16335 16335 16335 16335 16335 16335 16335 6461 16335 4048 16335 16335 16335 16335 16335 16335 6739 4024 16335 16335 16335 16335 16335 4864 16335 16335 16335 16335 16335 16335 81 16335 16335 5391 272 4983 16335 5985 16335 16335 
5009 5931 16335 16335 16335 16335 16335 2445 16335 6828 16335 5064 16335 7399 16335 1741 3376 3270 16335 44 16335 7578 16335 2704 16335 2746 16335 16335 16335 6121 16335 5994 16335 7569 16335 16335 16335 6992 16335 16335 721 16335 16335 16335 16335 16335 16335 8105 16335 16335 16335 2746 16335 5945 7745 16335 16335 16335 16335 16335 16335 3978 569 16335 1083 16335 25 16335 16335 3763 16335 137 16335 5258 16335 4783 16335 16335 16335 16335 
16335 0 16335 16335 16335 3933 16335 6467 16335 16335 16335 5695 16335 8138 6741 4571 16335 16335 16335 16335 16335 16335 16335 6569 16335 8120 16335 16335 16335 7928 4873 7920 16335 7790 16335 16335 16335 16335 16335 16335 16335 16335 16335 16335 16335 16335 16335 6461 16335 4048 16335 16335 16335 16335 16335 16335 6739 4024 16335 16335 16335 16335 16335 4864 16335 16335 16335 16335 16335 16335 81 16335 16335 5391 272 4983 16335 5985 16335 16335 
5009 5931 16335 16335 16335 16335 16335 2445 16335 6828 16335 5064 16335 7399 16335 1741 3376 3270 16335 44 16335 7578 16335 2704 16335 2746 16335 16335 16335 6121 16335 5994 16335 7569 16335 16335 16335 6992 16335 16335 721 16335 16335 16335 16335 16335 16335 8105 16335 16335 16335 2746 16335 5945 7745 16335 16335 16335 16335 16335 16335 3978 569 16335 1083 16335 25 16335 16335 3763 16335 137 16335 5258 16335 4783 16335 16335 16335 16335 
16335 0 16335 16335 16335 3933 16335 6467 16335 16335 16335 5695 16335 8138 6741 4571 16335 16335 16335 16335 16335 16335 16335 6569 16335 8120 16335 16335 16335 7928 4873 7920 16335 7790 16335 16335 16335 16335 16335 16335 16335 16335 16335 16335 16335 16335 16335 6461 16335 4048 16335 16335 16335 16335 16335 16335 6739 4024 16335 16335 16335 16335 16335 4864 16335 16335 16335 16335 16335 16335 81 16335 16335 5391 272 4983 16335 5985 16335 16335 
5009 5931 16335 16335 16335 16335 16335 2445 16335 6828 16335 5064 16335 7399 16335 1741 3376 3270 16335 44 16335 7578 16335 2704 16335 2746 16335 16335 16335 6121 16335 5994 16335 7569 16335 16335 16335 6992 16335 16335 721 16335 16335 16335 16335 16335 16335 8105 16335 16335 16335 2746 16335 5945 7745 16335 16335 16335 16335 16335 16335 3978 569 16335 1083 16335 25 16335 16335 3763 16335 137 16335 5258 16335 4783 16335 16335 16335 16335 
16335 0 16335 16335 16335 3933 16335 6467 16335 16335 16335 5695 16335 8138 6741 4571 16335 16335 16335 16335 16335 16335 16335 6569 16335 8120 16335 16335 16335 7928 4873 7920 16335 7790 16335 16335 16335 16335 16335 16335 16335 16335 16335 16335 16335 16335 16335 6461 16335 4048 16335 16335 16335 16335 16335 16335 6739 4024 16335 16335 16335 16335 16335 4864 16335 16335 16335 16335 16335 16335 81 16335 16335 5391 272 4983 16335 5985 16335 16335 
5009 5931 16335 16335 16335 16335 16335 2445 16335 6828 16335 5064 16335 7399 16335 1741 3376 3270 16335 44 16335 7578 16335 2704 16335 2746 16335 16335 16335 6121 16335 5994 16335 7569 16335 16335 16335 6992 16335 16335 721 16335 16335 16335 16335 16335 16335 8105 16335 16335 16335 2746 16335 5945 7745 16335 16335 16335 16335 16335 16335 3978 569 16335 1083 16335 25 16335 16335 3763 16335 137 16335 5258 16335 4783 16335 16335 16335 16335 
16335 0 16335 16335 16335 3933 16335 6467 16335 16335 16335 5695 16335 8138 6741 4571 16335 16335 16335 16335 16335 16335 16335 6569 16335 8120 16335 16335 16335 7928 4873 7920 16335 7790 16335 16335 16335 16335 16335 16335 16335 16335 16335 16335 16335 16335 16335 6461 16335 4048 16335 16335 16335 16335 16335 16335 6739 4024 16335 16335 16335 16335 16335 4864 16335 16335 16335 16335 16335 16335 81 16335 16335 5391 272 4983 16335 5985 16335 16335 
5009 5931 16335 16335 16335 16335 16335 2445 16335 6828 16335 5064 16335 7399 16335 1741 3376 3270 16335 44 16335 7578 16335 2704 16335 2746 16335 16335 16335 6121 16335 5994 16335 7569 16335 16335 16335 6992 16335 16335 721 16335 16335 16335 16335 16335 16335 8105 16335 16335 16335 2746 16335 5945 7745 16335 16335 16335 16335 16335 16335 3978 569 16335 1083 16335 25 16335 16335 3763 16335 137 16335 5258 16335 4783 16335 16335 16335 16335 
16335 0 16335 16335 16335 3933 16335 6467 16335 16335 16335 5695 16335 8138 6741 4571 16335 16335 16335 16335 16335 16335 16335 6569 16335 8120 16335 16335 16335 7928 4873 7920 16335 7790 16335 16335 16335 16335 16335 16335 16335 16335 16335 16335 16335 16335 16335 6461 16335 4048 16335 16335 16335 16335 16335 16335 6739 4024 16335 16335 16335 16335 16335 4864 16335 16335 16335 16335 16335 16335 81 16335 16335 5391 272 4983 16335 5985 16335 16335 
5009 5931 16335 16335 16335 16335 16335 2445 16335 6828 16335 5064 16335 7399 16335 1741 3376 3270 16335 44 16335 7578 16335 2704 16335 2746 16335 16335 16335 6121 16335 5994 16335 7569 16335 16335 16335 6992 16335 16335 721 16335 16335 16335 16335 16335 16335 8105 16335 16335 16335 2746 16335 5945 7745 16335 16335 16335 16335 16335 16335 3978 569 16335 1083 16335 25 16335 16335 3763 16335 137 16335 5258 16335 4783 16335 16335 16335 16335 
16335 0 16335 16335 16335 3933 16335 6467 16335 16335 16335 5695 16335 8138 6741 4571 16335 16335 16335 16335 16335 16335 16335 6569 16335 8120 16335 16335 16335 7928 4873 7920 16335 7790 16335 16335 16335 16335 16335 16335 16335 16335 16335 16335 16335 16335 16335 6461 16335 4048 16335 16335 16335 16335 16335 16335 6739 4024 16335 16335 16335 16335 16335 4864 16335 16335 16335 16335 16335 16335 81 16335 16335 5391 272 4983 16335 5985 16335 16335 
5009 5931 16335 16335 16335 16335 16335 2445 16335 6828 16335 5064 16335 7399 16335 1741 3376 3270 16335 44 16335 7578 16335 2704 16335 2746 16335 16335 16335 6121 16335 5994 16335 7569 16335 16335 16335 6992 16335 16335 721 16335 16335 16335 16335 16335 16335 8105 16335 16335 16335 2746 16335 5945 7745 16335 16335 16335 16335 16335 16335 3978 569 16335 1083 16335 25 16335 16335 3763 16335 137 16335 5258 16335 4783 16335 16335 16335 16335 
16335 0 16335 16335 16335 3933 16335 6467 16335 16335 16335 5695 16335 8138 6741 4571 16335 16335 16335 16335 16335 16335 16335 6569 16335 8120 16335 16335 16335 7928 4873 7920 16335 7790 16335 16335 16335 16335 16335 16335 16335 16335 16335 16335 16335 16335 16335 6461 16335 4048 16335 16335 16335 16335 16335 16335 6739 4024 16335 16335 16335 16335 16335 4864 16335 16335 16335 16335 16335 16335 81 16335 16335 5391 272 4983 16335 5985 16335 16335 
5009 5931 16335 16335 16335 16335 16335 2445 16335 6828 16335 5064 16335 7399 16335 1741 3376 3270 16335 44 16335 7578 16335 2704 16335 2746 16335 16335 16335 6121 16335 5994 16335 7569 16335 16335 16335 6992 16335 16335 721 16335 16335 16335 16335 16335 16335 8105 16335 16335 16335 2746 16335 5945 7745 16335 16335 16335 16335 16335 16335 3978 569 16335 1083 16335 25 16335 16335 3763 16335 137 16335 5258 16335 4783 16335 16335 16335 16335 
16335 0 16335 16335 16335 3933 16335 6467 16335 16335 16335 5695 16335 8138 6741 4571 16335 16335 16335 16335 16335 16335 16335 6569 16335 8120 16335 16335 16335 7928 4873 7920 16335 7790 16335 16335 16335 16335 16335 16335 16335 16335 16335 16335 16335 16335 16335 6461 16335 4048 16335 16335 16335 16335 16335 16335 6739 4024 16335 16335 16335 16335 16335 4864 16335 16335 16335 16335 16335 16335 81 16335 16335 5391 272 4983 16335 5985 16335 16335 
5009 5931 16335 16335 16335 16335 16335 2445 16335 6828 16335 5064 16335 7399 16335 1741 3376 3270 16335 44 16335 7578 16335 2704 16335 2746 16335 16335 16335 6121 16335 5994 16335 7569 16335 16335 16335 6992 16335 16335 721 16335 16335 16335 16335 16335 16335 8105 16335 16335 16335 2746 16335 5945 7745 16335 16335 16335 16335 16335 16335 3978 569 16335 1083 16335 25 16335 16335 3763 16335 137 16335 5258 16335 4783 16335 16335 16335 16335 
16335 0 16335 16335 16335 3933 16335 6467 16335 16335 16335 5695 16335 8138 6741 4571 16335 16335 16335 16335 16335 16335 16335 6569 16335 8120 16335 16335 16335 7928 4873 7920 16335 7790 16335 16335 16335 16335 16335 16335 16335 16335 16335 16335 16335 16335 16335 6461 16335 4048 16335 16335 16335 16335 16335 16335 6739 4024 16335 16335 16335 16335 16335 4864 16335 16335 16335 16335 16335 16335 81 16335 16335 5391 272 4983 16335 5985 16335 16335 
5009 5931 16335 16335 16335 16335 16335 2445 16335 6828 16335 5064 16335 7399 16335 1741 3376 3270 16335 44 16335 7578 16335 2704 16335 2746 16335 16335 16335 6121 16335 5994 16335 7569 16335 16335 16335 6992 16335 16335 721 16335 16335 16335 16335 16335 16335 8105 16335 16335 16335 2746 16335 5945 7745 16335 16335 16335 16335 16335 16335 3978 569 16335 1083 16335 25 16335 16335 3763 16335 137 16335 5258 16335 4783 16335 16335 16335 16335 
16335 0 16335 16335 16335 3933 16335 6467 16335 16335 16335 5695 16335 8138 6741 4571 16335 16335 16335 16335 16335 16335 16335 6569 16335 8120 16335 16335 16335 7928 4873 7920 16335 7790 16335 16335 16335 16335 16335 16335 16335 16335 16335 16335 16335 16335 16335 6461 16335 4048 16335 16335 16335 16335 16335 16335 6739 4024 16335 16335 16335 16335 16335 4864 16335 16335 16335 16335 16335 16335 81 16335 16335 5391 272 4983 16335 5985 16335 16335 
5009 5931 16335 16335 16335 16335 16335 2445 16335 6828 16335 5064 16335 7399 16335 1741 3376 3270 16335 44 16335 7578 16335 2704 16335 2746 16335 16335 16335 6121 16335 5994 16335 7569 16335 16335 16335 6992 16335 16335 721 16335 16335 16335 16335 16335 16335 8105 16335 16335 16335 2746 16335 5945 7745 16335 16335 16335 16335 16335 16335 3978 569 16335 1083 16335 25 16335 16335 3763 16335 137 16335 5258 16335 4783 16335 16335 16335 16335 
16335 0 16335 16335 16335 3933 16335 6467 16335 16335 16335 5695 16335 8138 6741 4571 16335 16335 16335 16335 16335 16335 16335 6569 16335 8120 16335 16335 16335 7928 4873 7920 16335 7790 16335 16335 16335 16335 16335 16335 16335 16335 16335 16335 16335 16335 16335 6461 16335 4048 16335 16335 16335 16335 16335 16335 6739 4024 16335 16335 16335 16335 16335 4864 16335 16335 16335 16335 16335 16335 81 16335 16335 5391 272 4983 16335 5985 16335 16335 
5009 5931 16335 16335 16335 16335 16335 2445 16335 6828 16335 5064 16335 7399 16335 1741 3376 3270 16335 44 16335 7578 16335 2704 16335 2746 16335 16335 16335 6121 16335 5994 16335 7569 16335 16335 16335 6992 16335 16335 721 16335 16335 16335 16335 16335 16335 8105 16335 16335 16335 2746 16335 5945 7745 16335 16335 16335 16335 16335 16335 3978 569 16335 1083 16335 25 16335 16335 3763 16335 137 16335 5258 16335 4783 16335 16335 16335 16335 
16335 0 16335 16335 16335 3933 16335 6467 16335 16335 16335 5695 16335 8138 6741 4571 16335 16335 16335 16335 16335 16335 16335 6569 16335 8120 16335 16335 16335 7928 4873 7920 16335 7790 16335 16335 16335 16335 16335 16335 16335 16335 16335 16335 16335 16335 16335 6461 16335 4048 16335 16335 16335 16335 16335 16335 6739 4024 16335 16335 16335 16335 16335 4864 16335 16335 16335 16335 16335 16335 81 16335 16335 5391 272 4983 16335 5985 16335 16335 
5009 5931 16335 16335 16335 16335 16335 2445 16335 6828 16335 5064 16335 7399 16335 1741 3376 3270 16335 44 16335 7578 16335 2704 16335 2746 16335 16335 16335 6121 16335 5994 16335 7569 16335 16335 16335 6992 16335 16335 721 16335 16335 16335 16335 16335 16335 8105 16335 16335 16335 2746 16335 5945 7745 16335 16335 16335 16335 16335 16335 3978 569 16335 1083 16335 25 16335 16335 3763 16335 137 16335 5258 16335 4783 16335 16335 16335 16335 
16335 0 16335 16335 16335 3933 16335 6467 16335 16335 16335 5695 16335 8138 6741 4571 16335 16335 16335 16335 16335 16335 16335 6569 16335 8120 16335 16335 16335 7928 4873 7920 16335 7790 16335 16335 16335 16335 16335 16335 16335 16335 16335 16335 16335 16335 16335 6461 16335 4048 16335 16335 16335 16335 16335 16335 6739 4024 16335 16335 16335 16335 16335 4864 16335 16335 16335 16335 16335 16335 81 16335 16335 5391 272 4983 16335 5985 16335 16335 
5009 5931 16335 16335 16335 16335 16335 2445 16335 6828 16335 5064 16335 7399 16335 1741 3376 3270 16335 44 16335 7578 16335 2704 16335 2746 16335 16335 16335 6121 16335 5994 16335 7569 16335 16335 16335 6992 16335 16335 721 16335 16335 16335 16335 16335 16335 8105 16335 16335 16335 2746 16335 5945 7745 16335 16335 16335 16335 16335 16335 3978 569 16335 1083 16335 25 16335 16335 3763 16335 137 16335 5258 16335 4783 16335 16335 16335 16335 
16335 0 16335 16335 16335 3933 16335 6467 16335 16335 16335 5695 16335 8138 6741 4571 16335 16335 16335 16335 16335 16335 16335 6569 16335 8120 16335 16335 16335 7928 4873 7920 16335 7790 16335 16335 16335 16335 16335 16335 16335 16335 16335 16335 16335 16335 16335 6461 16335 4048 16335 16335 16335 16335 16335 16335 6739 4024 16335 16335 16335 16335 16335 4864 16335 16335 16335 16335 16335 16335 81 16335 16335 5391 272 4983 16335 5985 16335 16335 
5009 5931 16335 16335 16335 16335 16335 2445 16335 6828 16335 5064 16335 7399 16335 1741 3376 3270 16335 44 16335 7578 16335 2704 16335 2746 16335 16335 16335 6121 16335 5994 16335 7569 16335 16335 16335 6992 16335 16335 721 16335 16335 16335 16335 16335 16335 8105 16335 16335 16335 2746 16335 5945 7745 16335 16335 16335 16335 16335 16335 3978 569 16335 1083 16335 25 16335 16335 3763 16335 137 16335 5258 16335 4783 16335 16335 16335 16335 
16335 0 16335 16335 16335 3933 16335 6467 16335 16335 16335 5695 16335 8138 6741 4571 16335 16335 16335 16335 16335 16335 16335 6569 16335 8120 16335 16335 16335 7928 4873 7920 16335 7790 16335 16335 16335 16335 16335 16335 16335 16335 16335 16335 16335 16335 16335 6461 16335 4048 16335 16335 16335 16335 16335 16335 6739 4024 16335 16335 16335 16335 16335 4864 16335 16335 16335 16335 16335 16335 81 16335 16335 5391 272 4983 16335 5985 16335 16335 
5009 5931 16335 16335 16335 16335 16335 2445 16335 6828 16335 5064 16335 7399 16335 1741 3376 3270 16335 44 16335 7578 16335 2704 16335 2746 16335 16335 16335 6121 16335 5994 16335 7569 16335 16335 16335 6992 16335 16335 721 16335 16335 16335 16335 16335 16335 8105 16335 16335 16335 2746 16335 5945 7745 16335 16335 16335 16335 16335 16335 3978 569 16335 1083 16335 25 16335 16335 3763 16335 137 16335 5258 16335 4783 16335 16335 16335 16335 
16335 0 16335 16335 16335 3933 16335 6467 16335 16335 16335 5695 16335 8138 6741 4571 16335 16335 16335 16335 16335 16335 16335 6569 16335 8120 16335 16335 16335 7928 4873 7920 16335 7790 16335 16335 16335 16335 16335 16335 16335 16335 16335 16335 16335 16335 16335 6461 16335 4048 16335 16335 16335 16335 16335 16335 6739 4024 16335 16335 16335 16335 16335 4864 16335 16335 16335 16335 16335 16335 81 16335 16335 5391 272 4983 16335 5985 16335 16335 
5009 5931 16335 16335 16335 16335 16335 2445 16335 6828 16335 5064 16335 7399 16335 1741 3376 3270 16335 44 16335 7578 16335 2704 16335 2746 16335 16335 16335 6121 16335 5994 16335 7569 16335 16335 16335 6992 16335 16335 721 16335 16335 16335 16335 16335 16335 8105 16335 16335 16335 2746 16335 5945 7745 16335 16335 16335 16335 16335 16335 3978 569 16335 1083 16335 25 16335 16335 3763 16335 137 16335 5258 16335 4783 16335 16335 16335 16335 
16335 0 16335 16335 16335 3933 16335 6467 16335 16335 16335 5695 16335 8138 6741 4571 16335 16335 16335 16335 16335 16335 16335 6569 16335 8120 16335 16335 16335 7928 4873 7920 16335 7790 16335 16335 16335 16335 16335 16335 16335 16335 16335 16335 16335 16335 16335 6461 16335 4048 16335 16335 16335 16335 16335 16335 6739 4024 16335 16335 16335 16335 16335 4864 16335 16335 16335 16335 16335 16335 81 16335 16335 5391 272 4983 16335 5985 16335 16335 
5009 5931 16335 16335 16335 16335 16335 2445 16335 6828 16335 5064 16335 7399 16335 1741 3376 3270 16335 44 16335 7578 16335 2704 16335 2746 16335 16335 16335 6121 16335 5994 16335 7569 16335 16335 16335 6992 16335 16335 721 16335 16335 16335 16335 16335 16335 8105 16335 16335 16335 2746 16335 5945 7745 16335 16335 16335 16335 16335 16335 3978 569 16335 1083 16335 25 16335 16335 3763 16335 137 16335 5258 16335 4783 16335 16335 16335 16335 
16335 0 16335 16335 16335 3933 16335 6467 16335 16335 16335 5695 16335 8138 6741 4571 16335 16335 16335 16335 16335 16335 16335 6569 16335 8120 16335 16335 16335 7928 4873 7920 16335 7790 16335 16335 16335 16335 16335 16335 16335 16335 16335 16335 16335 16335 16335 6461 16335 4048 16335 16335 16335 16335 16335 16335 6739 4024 16335 16335 16335 16335 16335 4864 16335 16335 16335 16335 16335 16335 81 16335 16335 5391 272 4983 16335 5985 16335 16335 
5009 5931 16335 16335 16335 16335 16335 2445 16335 6828 16335 5064 16335 7399 16335 1741 3376 3270 16335 44 16335 7578 16335 2704 16335 2746 16335 16335 16335 6121 16335 5994 16335 7569 16335 16335 16335 6992 16335 16335 721 16335 16335 16335 16335 16335 16335 8105 16335 16335 16335 2746 16335 5945 7745 16335 16335 16335 16335 16335 16335 3978 569 16335 1083 16335 25 16335 16335 3763 16335 137 16335 5258 16335 4783 16335 16335 16335 16335 
16335 0 16335 16335 16335 3933 16335 6467 16335 16335 16335 5695 16335 8138 6741 4571 16335 16335 16335 16335 16335 16335 16335 6569 16335 8120 16335 16335 16335 7928 4873 7920 16335 7790 16335 16335 16335 16335 16335 16335 16335 16335 16335 16335 16335 16335 16335 6461 16335 4048 16335 16335 16335 16335 16335 16335 6739 4024 16335 16335 16335 16335 16335 4864 16335 16335 16335 16335 16335 16335 81 16335 16335 5391 272 4983 16335 5985 16335 16335 
5009 5931 16335 16335 16335 16335 16335 2445 16335 6828 16335 5064 16335 7399 16335 1741 3376 3270 16335 44 16335 7578 16335 2704 16335 2746 16335 16335 16335 6121 16335 5994 16335 7569 16335 16335 16335 6992 16335 16335 721 16335 16335 16335 16335 16335 16335 8105 16335 16335 16335 2746 16335 5945 7745 16335 16335 16335 16335 16335 16335 3978 569 16335 1083 16335 25 16335 16335 14172 14139 16335 16335 5547 16335 16335 16335 16335 16335 8994 
2821 16335 16335 10884 16335 15664 16335 8396 16335 16335 16335 13897 16335 8152 7489 5506 16335 14237 10475 16335 16335 16335 16335 9695 16335 8192 16335 16335 16335 8589 16335 8121 16335 8338 5405 16335 4966 3299 14180 16335 16335 16335 8709 4798 16335 16335 16335 10314 16335 6258 16335 7454 16335 16335 16335 16335 11341 11878 16335 16335 16335 10231 16335 12275 16335 16335 16335 16335 16335 16335 16335 16335 8863 14378 16335 9226 16335 6326 16335 475 
7322 8430 15104 10334 16335 1945 12376 16335 16335 7397 16335 5145 317 8712 16335 8799 12627 16335 16335 173 16335 7791 14482 2857 16335 4258 16335 16335 16335 7028 16335 6046 16335 8352 16335 3990 5024 7034 2390 16335 16335 12968 16335 16335 16335 6423 16335 8216 16335 16335 16335 4208 16335 6965 9120 14986 16335 8399 16335 7184 16335 4023 9326 16335 16335 16335 16335 14629 6989 8062 16335 10538 16335 14167 16335 10394 16335 1016 10807 16335 
413 9262 16335 16335 16335 14724 16335 10033 16335 16335 16335 14426 16335 8141 10699 16039 16335 16335 16335 16335 16335 16335 16335 7454 16335 8176 16335 16335 2110 7932 5854 8443 8619 8543 16335 15352 1176 16335 1805 16335 16335 16335 16335 16335 5633 16335 5635 9008 16335 16335 16335 7620 14674 2904 16335 16335 11481 9701 10902 16335 16335 5023 16335 8714 2324 16335 16335 16335 16335 16335 16335 16335 16335 9010 9818 10892 16335 9376 16335 16335 
16335 6837 979 16335 16335 16335 6368 16335 16335 9913 16335 5551 16335 8635 16335 2431 10598 3574 16335 16335 4929 9054 16335 6015 16335 12851 16335 16335 7274 10176 16335 13673 16335 8754 16335 16335 372 8187 16335 16335 5924 1439 16335 13789 16335 9316 5546 8236 16335 16335 8501 6227 16335 10028 8510 16335 16335 16335 16335 16335 16335 8283 16335 15260 16335 16335 16335 4222 16335 4396 13152 6543 16335 11054 16335 14946 16335 16335 16335 16335 
16335 7215 7566 16335 16335 4196 16335 9778 3720 16335 5776 7722 16335 8144 9184 4578 16335 16335 16335 16335 16335 16335 16335 8980 7189 8147 16335 16335 16335 8704 16301 8249 16335 8497 16335 16335 16335 16335 16335 16335 16335 13702 16335 9130 7960 16335 16335 9769 16335 12611 16335 1907 10747 16335 12852 16335 11211 6293 4356 1014 16335 16335 16335 5326 16335 16335 16335 16335 16335 16335 16335 16335 827 9802 16335 12292 11936 9609 5832 16335 
16335 7228 16335 16335 16335 16335 16335 16335 16335 9564 16335 5503 16335 7443 16335 16335 14826 10672 4122 108 16335 8714 16335 5939 16335 13617 16335 16335 4105 13343 16335 14060 10180 8087 257 16335 16335 10684 7930 16335 14632 8550 16335 16335 16335 16335 16335 8181 16335 16335 16335 14309 634 6858 8795 2222 11374 2745 16335 16335 16335 15748 16335 16335 16335 16335 16335 13927 9694 4048 16335 8235 16335 13905 16335 14229 16335 8555 5361 16335 
2685 14546 16335 4920 7631 10835 16335 12763 16335 16335 16335 8172 16335 8148 10767 5745 16335 16335 16335 16335 16335 16335 16335 11396 16335 8136 16335 16335 16335 8144 16335 8202 16335 8906 11000 16335 16335 16335 16335 16335 16335 16335 16335 16335 16335 16335 7629 8146 16335 5264 16335 1804 16335 16335 16335 16335 11358 16335 16335 5620 16335 16335 1037 16215 16335 16335 16335 1854 16335 16335 16335 16335 9784 8875 16335 5090 16335 13180 16335 16335 
9735 11208 16335 13870 16335 16335 16335 15185 12443 7262 16260 11531 16335 8833 16335 16335 16335 13786 4254 2440 16335 8044 16335 11046 16335 16335 16335 16335 16335 7156 16335 7171 16335 8217 16335 16335 16335 11393 16335 16335 15558 16335 16335 16335 16335 16335 14741 8204 16335 16335 7653 16335 2645 7375 9233 16335 2229 16335 16335 16335 6475 10807 6010 16335 7256 16335 16335 16335 3586 12122 16335 1747 16335 11752 16335 16335 4386 16335 16335 7912 


