P2
80 60
65535
0 0 0 0 0 0 0 0 0 12288 32497 7692 7695 7696 7696 7697 7694 7696 7697 7695 7695 7701 7700 7701 7708 7710 7705 7705 7709 7711 7713 7714 7716 7715 7719 7719 7722 7725 7725 7722 7722 7722 7725 7732 7744 7756 7763 7768 7775 7783 7792 7796 7804 7805 7806 7800 7805 7802 7794 7792 7799 7799 7795 7798 7807 7809 7815 7819 7823 7818 7818 7809 7807 7801 7791 7790 7789 7783 7783 7784 
0 0 0 0 0 0 0 0 0 0 0 0 0 0 0 0 0 0 0 0 0 0 0 0 0 0 0 0 0 0 0 0 0 0 0 0 0 0 0 0 0 0 0 0 0 0 0 0 0 0 0 0 0 0 0 0 0 0 0 0 0 0 0 0 0 0 0 0 0 0 0 0 0 0 0 0 0 0 0 0 
0 0 0 0 0 0 0 0 0 0 0 0 0 0 0 0 0 0 0 0 0 0 0 0 0 0 0 0 0 0 0 0 0 0 0 0 0 0 0 0 0 0 0 0 0 0 0 0 0 0 0 0 0 0 0 0 0 0 0 0 0 0 0 0 0 0 0 0 0 0 0 0 0 0 0 0 0 0 0 0 
0 0 0 0 0 0 0 0 0 0 0 0 0 0 0 0 0 0 0 0 0 0 0 0 0 0 0 0 0 0 0 0 0 0 0 0 0 0 0 0 0 0 0 0 0 0 0 0 0 0 0 0 0 0 0 0 0 0 0 0 0 0 0 0 0 0 0 0 0 0 0 0 0 0 0 0 0 0 0 0 
7203 7217 7235 7251 7265 7297 7309 7327 7356 4101 33110 7078 7087 7081 7084 7090 7090 7097 7095 7094 7098 7095 7094 7099 7100 7104 7101 7103 7101 7103 7101 7100 7099 7101 7097 7100 7105 7102 7110 7114 7112 7119 7120 7116 7117 7112 7111 7113 7111 7105 7108 7109 7111 7109 7117 7113 7110 7118 7113 7112 7109 7107 7109 7109 7108 7107 7111 7107 7108 7104 7105 7101 7107 7106 7111 7119 7128 7139 7146 7158 
7696 7691 7697 7697 7706 7709 7705 7712 7717 7 53809 7489 7497 7487 7482 7488 7487 7487 7483 7471 7466 7468 7468 7462 7466 7464 7471 7474 7469 7472 7481 7497 7501 7507 7514 7520 7521 7527 7529 7539 7544 7545 7552 7556 7554 7557 7552 7555 7550 7550 7561 7563 7562 7563 7571 7572 7582 7577 7580 7580 7587 7593 7596 7597 7605 7617 7623 7626 7630 7634 7641 7646 7648 7660 7660 7660 7672 7674 7678 7676 
0 0 0 0 0 0 0 0 0 0 0 0 0 0 0 0 0 0 0 0 0 0 0 0 0 0 0 0 0 0 0 0 0 0 0 0 0 0 0 0 0 0 0 0 0 0 0 0 0 0 0 0 0 0 0 0 0 0 0 0 0 0 0 0 0 0 0 0 0 0 0 0 0 0 0 0 0 0 0 0 
0 0 0 0 0 0 0 0 0 0 0 0 0 0 0 0 0 0 0 0 0 0 0 0 0 0 0 0 0 0 0 0 0 0 0 0 0 0 0 0 0 0 0 0 0 0 0 0 0 0 0 0 0 0 0 0 0 0 0 0 0 0 0 0 0 0 0 0 0 0 0 0 0 0 0 0 0 0 0 0 
0 0 0 0 0 0 0 0 0 0 0 0 0 0 0 0 0 0 0 0 0 0 0 0 0 0 0 0 0 0 0 0 0 0 0 0 0 0 0 0 0 0 0 0 0 0 0 0 0 0 0 0 0 0 0 0 0 0 0 0 0 0 0 0 0 0 0 0 0 0 0 0 0 0 0 0 0 0 0 0 
7703 7701 7712 7710 7716 7712 7712 7718 7719 4101 52473 7515 7522 7508 7506 7513 7508 7511 7507 7500 7496 7496 7491 7495 7494 7499 7498 7501 7502 7499 7504 7508 7521 7531 7533 7541 7546 7548 7550 7554 7557 7562 7566 7570 7570 7562 7564 7562 7558 7563 7560 7558 7563 7564 7567 7577 7579 7584 7588 7589 7593 7596 7594 7602 7614 7618 7630 7632 7642 7648 7655 7657 7654 7661 7668 7668 7681 7686 7684 7691 
7698 7700 7710 7703 7707 7711 7707 7708 7717 6 37673 7501 7510 7499 7490 7499 7494 7502 7500 7488 7484 7478 7480 7481 7482 7485 7479 7486 7487 7488 7492 7505 7516 7517 7526 7531 7535 7542 7543 7543 7550 7554 7561 7564 7565 7560 7557 7557 7553 7555 7561 7561 7560 7567 7563 7575 7582 7580 7584 7583 7585 7591 7593 7596 7607 7619 7626 7628 7638 7639 7648 7655 7651 7657 7663 7667 7677 7682 7683 7679 
0 0 0 0 0 0 0 0 0 0 0 0 0 0 0 0 0 0 0 0 0 0 0 0 0 0 0 0 0 0 0 0 0 0 0 0 0 0 0 0 0 0 0 0 0 0 0 0 0 0 0 0 0 0 0 0 0 0 0 0 0 0 0 0 0 0 0 0 0 0 0 0 0 0 0 0 0 0 0 0 
0 0 0 0 0 0 0 0 0 0 0 0 0 0 0 0 0 0 0 0 0 0 0 0 0 0 0 0 0 0 0 0 0 0 0 0 0 0 0 0 0 0 0 0 0 0 0 0 0 0 0 0 0 0 0 0 0 0 0 0 0 0 0 0 0 0 0 0 0 0 0 0 0 0 0 0 0 0 0 0 
0 0 0 0 0 0 0 0 0 0 0 0 0 0 0 0 0 0 0 0 0 0 0 0 0 0 0 0 0 0 0 0 0 0 0 0 0 0 0 0 0 0 0 0 0 0 0 0 0 0 0 0 0 0 0 0 0 0 0 0 0 0 0 0 0 0 0 0 0 0 0 0 0 0 0 0 0 0 0 0 
0 0 0 0 0 0 0 0 0 0 0 0 0 0 0 0 0 0 0 0 0 0 0 0 0 0 0 0 0 0 0 0 0 0 0 0 0 0 0 0 0 0 0 0 0 0 0 0 0 0 0 0 0 0 0 0 0 0 0 0 0 0 0 0 0 0 0 0 0 0 0 0 0 0 0 0 0 0 0 0 
0 0 0 0 0 0 0 0 0 0 0 0 0 0 0 0 0 0 0 0 0 0 0 0 0 0 0 0 0 0 0 0 0 0 0 0 0 0 0 0 0 0 0 0 0 0 0 0 0 0 0 0 0 0 0 0 0 0 0 0 0 0 0 0 0 0 0 0 0 0 0 0 0 0 0 0 0 0 0 0 
0 0 0 0 0 0 0 0 0 0 0 0 0 0 0 0 0 0 0 0 0 0 0 0 0 0 0 0 0 0 0 0 0 0 0 0 0 0 0 0 0 0 0 0 0 0 0 0 0 0 0 0 0 0 0 0 0 0 0 0 0 0 0 0 0 0 0 0 0 0 0 0 0 0 0 0 0 0 0 0 
0 0 0 0 0 0 0 0 0 0 0 0 0 0 0 0 0 0 0 0 0 0 0 0 0 0 0 0 0 0 0 0 0 0 0 0 0 0 0 0 0 0 0 0 0 0 0 0 0 0 0 0 0 0 0 0 0 0 0 0 0 0 0 0 0 0 0 0 0 0 0 0 0 0 0 0 0 0 0 0 
7708 7705 7712 7710 7713 7713 7709 7717 7724 4100 30878 7521 7528 7521 7518 7515 7520 7521 7523 7509 7512 7511 7505 7507 7511 7513 7513 7509 7514 7512 7515 7523 7521 7537 7540 7548 7549 7558 7559 7562 7565 7570 7570 7574 7574 7571 7570 7573 7566 7563 7563 7564 7564 7561 7563 7571 7583 7586 7591 7594 7599 7602 7603 7607 7617 7628 7633 7644 7645 7652 7657 7664 7660 7670 7674 7674 7682 7689 7685 7689 
0 0 0 0 0 0 0 0 0 0 0 0 0 0 0 0 0 0 0 0 0 0 0 0 0 0 0 0 0 0 0 0 0 0 0 0 0 0 0 0 0 0 0 0 0 0 0 0 0 0 0 0 0 0 0 0 0 0 0 0 0 0 0 0 0 0 0 0 0 0 0 0 0 0 0 0 0 0 0 0 
7716 7713 7714 7714 7718 7716 7718 7722 7727 3 14167 7530 7538 7533 7522 7526 7530 7531 7529 7520 7525 7525 7517 7517 7520 7524 7523 7520 7524 7521 7520 7526 7535 7540 7543 7558 7553 7562 7566 7568 7574 7575 7575 7582 7574 7573 7571 7574 7566 7566 7566 7565 7567 7568 7568 7572 7583 7585 7590 7601 7602 7605 7607 7609 7619 7631 7634 7640 7651 7653 7665 7669 7665 7672 7672 7679 7690 7692 7693 7690 
0 0 0 0 0 0 0 0 0 0 0 0 0 0 0 0 0 0 0 0 0 0 0 0 0 0 0 0 0 0 0 0 0 0 0 0 0 0 0 0 0 0 0 0 0 0 0 0 0 0 0 0 0 0 0 0 0 0 0 0 0 0 0 0 0 0 0 0 0 0 0 0 0 0 0 0 0 0 0 0 
7217 7228 7248 7265 7282 7302 7320 7342 7364 28676 50137 7077 7088 7081 7077 7089 7090 7097 7092 7091 7094 7092 7095 7100 7100 7098 7099 7099 7098 7098 7097 7100 7095 7098 7097 7103 7104 7107 7108 7113 7116 7117 7119 7113 7115 7112 7112 7112 7108 7104 7106 7109 7109 7111 7114 7110 7111 7116 7111 7118 7115 7108 7110 7108 7104 7112 7109 7108 7107 7100 7111 7109 7111 7113 7121 7128 7137 7145 7155 7160 
0 0 0 0 0 0 0 0 0 0 0 0 0 0 0 0 0 0 0 0 0 0 0 0 0 0 0 0 0 0 0 0 0 0 0 0 0 0 0 0 0 0 0 0 0 0 0 0 0 0 0 0 0 0 0 0 0 0 0 0 0 0 0 0 0 0 0 0 0 0 0 0 0 0 0 0 0 0 0 0 
0 0 0 0 0 0 0 0 0 0 0 0 0 0 0 0 0 0 0 0 0 0 0 0 0 0 0 0 0 0 0 0 0 0 0 0 0 0 0 0 0 0 0 0 0 0 0 0 0 0 0 0 0 0 0 0 0 0 0 0 0 0 0 0 0 0 0 0 0 0 0 0 0 0 0 0 0 0 0 0 
7714 7714 7721 7720 7729 7722 7724 7722 7730 2 41142 7533 7542 7537 7535 7544 7537 7543 7536 7528 7533 7535 7525 7528 7525 7538 7533 7532 7531 7527 7531 7538 7539 7540 7549 7558 7558 7568 7575 7577 7574 7582 7581 7580 7582 7575 7577 7577 7569 7569 7576 7572 7572 7569 7572 7577 7583 7588 7593 7602 7605 7615 7614 7618 7626 7635 7640 7652 7654 7657 7663 7672 7671 7680 7685 7682 7692 7697 7701 7697 
0 0 0 0 0 0 0 0 0 0 0 0 0 0 0 0 0 0 0 0 0 0 0 0 0 0 0 0 0 0 0 0 0 0 0 0 0 0 0 0 0 0 0 0 0 0 0 0 0 0 0 0 0 0 0 0 0 0 0 0 0 0 0 0 0 0 0 0 0 0 0 0 0 0 0 0 0 0 0 0 
0 0 0 0 0 0 0 0 0 0 0 0 0 0 0 0 0 0 0 0 0 0 0 0 0 0 0 0 0 0 0 0 0 0 0 0 0 0 0 0 0 0 0 0 0 0 0 0 0 0 0 0 0 0 0 0 0 0 0 0 0 0 0 0 0 0 0 0 0 0 0 0 0 0 0 0 0 0 0 0 
0 0 0 0 0 0 0 0 0 0 0 0 0 0 0 0 0 0 0 0 0 0 0 0 0 0 0 0 0 0 0 0 0 0 0 0 0 0 0 0 0 0 0 0 0 0 0 0 0 0 0 0 0 0 0 0 0 0 0 0 0 0 0 0 0 0 0 0 0 0 0 0 0 0 0 0 0 0 0 0 
0 0 0 0 0 0 0 0 0 0 0 0 0 0 0 0 0 0 0 0 0 0 0 0 0 0 0 0 0 0 0 0 0 0 0 0 0 0 0 0 0 0 0 0 0 0 0 0 0 0 0 0 0 0 0 0 0 0 0 0 0 0 0 0 0 0 0 0 0 0 0 0 0 0 0 0 0 0 0 0 
7721 7716 7720 7723 7725 7723 7725 7731 7728 1 24560 7541 7554 7544 7541 7548 7547 7545 7552 7542 7542 7538 7541 7539 7536 7545 7541 7542 7542 7538 7542 7545 7545 7548 7553 7567 7566 7573 7578 7578 7580 7586 7583 7589 7584 7583 7582 7578 7578 7574 7578 7579 7578 7579 7578 7585 7589 7590 7595 7603 7613 7618 7621 7626 7636 7642 7650 7651 7657 7666 7671 7681 7676 7686 7687 7688 7699 7704 7699 7703 
0 0 0 0 0 0 0 0 0 0 0 0 0 0 0 0 0 0 0 0 0 0 0 0 0 0 0 0 0 0 0 0 0 0 0 0 0 0 0 0 0 0 0 0 0 0 0 0 0 0 0 0 0 0 0 0 0 0 0 0 0 0 0 0 0 0 0 0 0 0 0 0 0 0 0 0 0 0 0 0 
0 0 0 0 0 0 0 0 0 0 0 0 0 0 0 0 0 0 0 0 0 0 0 0 0 0 0 0 0 0 0 0 0 0 0 0 0 0 0 0 0 0 0 0 0 0 0 0 0 0 0 0 0 0 0 0 0 0 0 0 0 0 0 0 0 0 0 0 0 0 0 0 0 0 0 0 0 0 0 0 
0 0 0 0 0 0 0 0 0 0 0 0 0 0 0 0 0 0 0 0 0 0 0 0 0 0 0 0 0 0 0 0 0 0 0 0 0 0 0 0 0 0 0 0 0 0 0 0 0 0 0 0 0 0 0 0 0 0 0 0 0 0 0 0 0 0 0 0 0 0 0 0 0 0 0 0 0 0 0 0 
0 0 0 0 0 0 0 0 0 0 0 0 0 0 0 0 0 0 0 0 0 0 0 0 0 0 0 0 0 0 0 0 0 0 0 0 0 0 0 0 0 0 0 0 0 0 0 0 0 0 0 0 0 0 0 0 0 0 0 0 0 0 0 0 0 0 0 0 0 0 0 0 0 0 0 0 0 0 0 0 
0 0 0 0 0 0 0 0 0 0 0 0 0 0 0 0 0 0 0 0 0 0 0 0 0 0 0 0 0 0 0 0 0 0 0 0 0 0 0 0 0 0 0 0 0 0 0 0 0 0 0 0 0 0 0 0 0 0 0 0 0 0 0 0 0 0 0 0 0 0 0 0 0 0 0 0 0 0 0 0 
0 0 0 0 0 0 0 0 0 0 0 0 0 0 0 0 0 0 0 0 0 0 0 0 0 0 0 0 0 0 0 0 0 0 0 0 0 0 0 0 0 0 0 0 0 0 0 0 0 0 0 0 0 0 0 0 0 0 0 0 0 0 0 0 0 0 0 0 0 0 0 0 0 0 0 0 0 0 0 0 
0 0 0 0 0 0 0 0 0 0 0 0 0 0 0 0 0 0 0 0 0 0 0 0 0 0 0 0 0 0 0 0 0 0 0 0 0 0 0 0 0 0 0 0 0 0 0 0 0 0 0 0 0 0 0 0 0 0 0 0 0 0 0 0 0 0 0 0 0 0 0 0 0 0 0 0 0 0 0 0 
0 0 0 0 0 0 0 0 0 0 0 0 0 0 0 0 0 0 0 0 0 0 0 0 0 0 0 0 0 0 0 0 0 0 0 0 0 0 0 0 0 0 0 0 0 0 0 0 0 0 0 0 0 0 0 0 0 0 0 0 0 0 0 0 0 0 0 0 0 0 0 0 0 0 0 0 0 0 0 0 
7227 7241 7265 7273 7299 7323 7337 7359 7386 3 1617 7079 7085 7080 7078 7087 7090 7096 7091 7091 7091 7093 7098 7100 7100 7103 7097 7095 7097 7099 7095 7097 7098 7097 7098 7100 7099 7101 7112 7115 7113 7116 7119 7117 7114 7111 7111 7112 7108 7106 7107 7107 7111 7111 7116 7110 7115 7113 7112 7115 7115 7113 7110 7108 7110 7111 7113 7109 7108 7110 7120 7111 7114 7122 7128 7136 7146 7152 7163 7174 
0 0 0 0 0 0 0 0 0 0 0 0 0 0 0 0 0 0 0 0 0 0 0 0 0 0 0 0 0 0 0 0 0 0 0 0 0 0 0 0 0 0 0 0 0 0 0 0 0 0 0 0 0 0 0 0 0 0 0 0 0 0 0 0 0 0 0 0 0 0 0 0 0 0 0 0 0 0 0 0 
0 0 0 0 0 0 0 0 0 0 0 0 0 0 0 0 0 0 0 0 0 0 0 0 0 0 0 0 0 0 0 0 0 0 0 0 0 0 0 0 0 0 0 0 0 0 0 0 0 0 0 0 0 0 0 0 0 0 0 0 0 0 0 0 0 0 0 0 0 0 0 0 0 0 0 0 0 0 0 0 
0 0 0 0 0 0 0 0 0 0 0 0 0 0 0 0 0 0 0 0 0 0 0 0 0 0 0 0 0 0 0 0 0 0 0 0 0 0 0 0 0 0 0 0 0 0 0 0 0 0 0 0 0 0 0 0 0 0 0 0 0 0 0 0 0 0 0 0 0 0 0 0 0 0 0 0 0 0 0 0 
0 0 0 0 0 0 0 0 0 0 0 0 0 0 0 0 0 0 0 0 0 0 0 0 0 0 0 0 0 0 0 0 0 0 0 0 0 0 0 0 0 0 0 0 0 0 0 0 0 0 0 0 0 0 0 0 0 0 0 0 0 0 0 0 0 0 0 0 0 0 0 0 0 0 0 0 0 0 0 0 
0 0 0 0 0 0 0 0 0 0 0 0 0 0 0 0 0 0 0 0 0 0 0 0 0 0 0 0 0 0 0 0 0 0 0 0 0 0 0 0 0 0 0 0 0 0 0 0 0 0 0 0 0 0 0 0 0 0 0 0 0 0 0 0 0 0 0 0 0 0 0 0 0 0 0 0 0 0 0 0 
7728 7726 7732 7723 7723 7722 7716 7722 7718 16383 65535 56528 56493 56530 56493 56532 56493 56534 56493 0 0 0 0 0 915 32001 4132 57767 1 0 0 0 0 0 0 0 0 0 0 0 0 0 0 0 0 0 0 0 0 0 0 0 0 0 0 0 0 0 0 0 0 0 0 0 0 0 0 0 0 0 0 0 0 0 0 0 0 0 0 0 
0 0 0 0 0 0 0 0 0 0 0 0 0 0 0 0 0 0 0 0 0 0 0 0 0 0 0 0 0 0 0 0 0 0 0 0 0 0 0 0 0 0 0 0 0 0 0 0 0 0 0 0 0 0 0 0 0 0 0 0 0 0 0 0 0 0 0 0 0 0 0 0 0 0 0 0 0 0 0 0 
0 0 0 0 0 0 0 0 0 0 0 0 0 0 0 0 0 0 0 0 0 0 0 0 0 0 0 0 0 0 0 0 0 0 0 0 0 0 0 0 0 0 0 0 0 0 0 0 0 0 0 0 0 0 0 0 0 0 0 0 0 0 0 0 0 0 0 0 0 0 0 0 0 0 0 0 0 0 0 0 
0 0 0 0 0 0 0 0 0 0 0 0 0 0 0 0 0 0 0 0 0 0 0 0 0 0 0 0 0 0 0 0 0 0 0 0 0 0 0 0 0 0 0 0 0 0 0 0 0 0 0 0 0 0 0 0 0 0 0 0 0 0 0 0 0 0 0 0 0 0 0 0 0 0 0 0 0 0 0 0 
7730 7726 7729 7725 7724 7724 7719 7719 7715 59 19953 7163 7167 7162 7154 7157 7151 7142 7136 7134 7132 7140 7147 7154 7156 7158 7165 7164 7169 7173 7181 7191 7197 7215 7225 7245 7256 7273 7292 7305 7321 7339 7363 7387 7413 7438 7467 7489 7516 7535 7555 7586 7610 7626 7635 7645 7659 7664 7680 7696 7694 7703 7709 7711 7717 7722 7733 7730 7737 7742 7737 7738 7730 7741 7733 7731 7727 7734 7731 7727 
7732 7732 7736 7728 7729 7729 7723 7727 7720 55 25732 7228 7237 7225 7223 7227 7219 7216 7209 7203 7211 7220 7221 7227 7234 7240 7241 7248 7253 7260 7268 7285 7288 7300 7313 7327 7342 7357 7371 7392 7412 7429 7451 7470 7501 7514 7539 7557 7575 7592 7606 7617 7633 7657 7664 7677 7685 7691 7701 7710 7717 7720 7724 7726 7733 7733 7735 7739 7747 7747 7746 7742 7740 7745 7735 7734 7735 7738 7733 7732 
7732 7729 7734 7730 7722 7729 7722 7723 7722 57 55672 7190 7199 7187 7184 7186 7185 7173 7167 7165 7166 7173 7181 7185 7192 7201 7195 7201 7209 7215 7223 7236 7241 7259 7274 7291 7299 7318 7335 7348 7362 7385 7408 7433 7453 7474 7505 7529 7548 7556 7579 7604 7620 7642 7652 7663 7673 7680 7691 7701 7708 7719 7720 7718 7729 7729 7737 7735 7737 7740 7744 7739 7740 7738 7734 7735 7734 7732 7730 7733 
7740 7729 7736 7731 7732 7730 7722 7730 7719 50 7638 7328 7335 7330 7326 7327 7316 7314 7312 7308 7317 7322 7324 7334 7335 7348 7346 7349 7360 7366 7377 7381 7385 7399 7413 7428 7441 7459 7478 7501 7517 7535 7551 7565 7581 7600 7609 7623 7626 7641 7656 7662 7668 7677 7690 7701 7710 7720 7721 7730 7730 7731 7738 7733 7741 7742 7746 7743 7747 7748 7751 7747 7747 7751 7746 7740 7742 7744 7737 7733 
0 0 0 0 0 0 0 0 0 0 0 0 0 0 0 0 0 0 0 0 0 0 0 0 0 0 0 0 0 0 0 0 0 0 0 0 0 0 0 0 0 0 0 0 0 0 0 0 0 0 0 0 0 0 0 0 0 0 0 0 0 0 0 0 0 0 0 0 0 0 0 0 0 0 0 0 0 0 0 0 
7740 7732 7735 7728 7724 7727 7728 7728 7719 51 53524 7311 7312 7306 7306 7300 7293 7287 7288 7289 7300 7299 7303 7305 7313 7325 7324 7326 7342 7342 7352 7360 7365 7380 7388 7406 7421 7437 7455 7477 7502 7510 7530 7547 7567 7584 7598 7611 7623 7630 7643 7651 7659 7675 7687 7697 7707 7710 7715 7721 7727 7733 7731 7735 7738 7738 7743 7745 7749 7744 7745 7742 7742 7746 7741 7734 7734 7740 7738 7731 
7733 7728 7740 7733 7730 7729 7726 7723 7719 54 60481 7250 7256 7247 7247 7248 7236 7235 7224 7225 7231 7237 7242 7247 7254 7260 7260 7264 7276 7288 7295 7301 7311 7319 7332 7349 7364 7378 7387 7414 7435 7446 7469 7497 7516 7532 7555 7572 7587 7599 7611 7627 7648 7660 7669 7683 7692 7691 7706 7710 7718 7726 7726 7724 7734 7733 7743 7737 7745 7745 7747 7742 7743 7739 7741 7735 7737 7737 7730 7730 
0 0 0 0 0 0 0 0 0 0 0 0 0 0 0 0 0 0 0 0 0 0 0 0 0 0 0 0 0 0 0 0 0 0 0 0 0 0 0 0 0 0 0 0 0 0 0 0 0 0 0 0 0 0 0 0 0 0 0 0 0 0 0 0 0 0 0 0 0 0 0 0 0 0 0 0 0 0 0 0 
7742 7737 7741 7736 7733 7736 7732 7732 7735 47 54070 7390 7401 7386 7388 7382 7381 7375 7367 7368 7371 7385 7384 7391 7396 7408 7411 7413 7424 7433 7442 7451 7458 7470 7482 7492 7510 7529 7544 7557 7577 7591 7602 7615 7621 7635 7644 7650 7659 7661 7680 7686 7689 7692 7700 7714 7720 7725 7734 7740 7740 7744 7740 7741 7745 7742 7747 7750 7748 7744 7750 7748 7747 7746 7746 7750 7745 7744 7741 7739 
7736 7731 7737 7735 7731 7737 7732 7727 7729 48 1674 7368 7379 7360 7367 7365 7362 7352 7352 7350 7358 7361 7362 7370 7375 7387 7392 7388 7398 7409 7420 7428 7436 7441 7454 7475 7487 7511 7524 7545 7562 7570 7582 7602 7612 7620 7637 7641 7651 7658 7671 7681 7685 7688 7700 7712 7715 7724 7731 7729 7732 7741 7737 7738 7745 7743 7743 7746 7747 7748 7751 7751 7745 7747 7741 7746 7744 7743 7738 7736 
7737 7734 7732 7725 7728 7726 7724 7726 7718 56 53731 7588 7598 7593 7593 7598 7591 7591 7585 7574 7579 7595 7619 7639 7656 7668 7670 7700 7729 7747 7752 7755 7751 7760 7758 7759 7753 7759 7758 7760 7759 7756 7756 7756 7751 7754 7750 7748 7748 7749 7747 7748 7750 7752 7753 7747 7752 7749 7746 7748 7745 7752 7746 7747 7748 7747 7749 7745 7751 7749 7752 7750 7746 7750 7744 7746 7748 7746 7739 7734 


