P2
80 60
314
6 8 2 0 4 1 8 3 7 5 5 4 10 8 10 11 9 6 10 11 8 18 16 40 66 92 99 105 105 109 105 108 113 119 119 119 133 151 161 165 151 132 122 116 109 116 122 139 159 167 177 172 148 123 121 108 98 97 98 90 81 76 79 80 76 73 68 63 59 54 60 53 52 52 52 48 48 51 43 42 
7 5 3 0 4 5 5 3 6 8 8 8 7 10 12 8 10 8 12 16 31 59 83 99 101 96 99 104 108 116 109 116 125 134 142 144 165 184 184 167 151 140 127 121 113 114 114 129 158 178 185 175 135 127 120 112 100 101 100 95 90 80 76 84 83 78 69 68 55 61 65 56 48 53 51 48 50 49 44 43 
5 7 7 3 1 5 6 5 8 6 6 8 6 9 12 10 14 16 38 71 104 113 102 93 92 91 100 109 117 116 116 124 136 146 153 151 170 194 191 173 153 141 137 127 121 122 116 116 129 164 181 158 130 130 120 112 110 109 108 104 94 90 80 84 88 81 73 71 67 64 63 54 48 53 52 49 50 51 43 39 
9 6 6 6 4 5 7 6 9 8 4 9 8 8 17 24 46 84 125 126 124 118 107 101 96 101 108 118 124 129 119 124 137 149 160 159 171 197 202 182 157 145 144 138 131 128 121 126 131 145 157 145 134 129 131 120 110 110 101 108 103 91 85 86 91 85 75 75 72 61 64 59 53 50 53 49 50 50 42 42 
9 12 10 5 6 6 6 3 8 8 3 8 15 22 45 95 131 140 142 136 123 116 107 110 107 108 113 122 132 135 127 128 138 153 164 167 174 189 203 186 160 154 157 150 138 129 128 130 145 165 164 147 136 138 139 128 112 110 105 104 105 95 94 86 92 91 84 73 74 68 64 54 49 52 54 53 51 53 41 42 
11 9 10 5 6 8 9 6 6 7 12 14 34 81 127 140 142 140 138 120 115 115 108 115 112 111 116 128 139 144 139 132 133 154 170 174 183 181 198 188 163 162 172 169 147 137 133 137 162 182 169 149 141 141 144 138 116 113 108 102 104 103 97 85 89 90 84 79 73 74 71 58 52 52 54 55 56 53 42 44 
12 10 5 3 10 4 9 3 13 24 28 64 103 121 137 138 136 133 130 119 119 120 117 119 117 114 117 132 143 153 142 141 141 153 169 184 188 183 193 195 162 163 182 188 158 140 138 146 180 191 159 147 142 143 149 143 126 115 109 102 100 104 102 91 88 94 90 75 70 78 78 66 57 55 51 51 51 49 44 42 
9 7 8 8 6 7 20 42 80 106 106 117 123 123 127 126 122 126 125 122 124 128 121 125 120 121 127 142 151 158 149 141 141 151 170 183 197 186 187 192 169 171 188 204 168 146 146 154 190 192 155 144 143 146 147 142 133 116 109 102 99 102 101 96 90 93 92 82 70 74 77 67 54 52 52 54 52 53 44 50 
13 12 11 6 12 31 95 128 148 154 151 146 132 128 125 124 125 128 128 120 120 126 127 128 126 121 135 151 162 164 156 147 140 148 168 183 199 198 185 192 175 184 194 223 183 163 148 163 198 195 157 150 145 145 153 151 141 128 117 105 101 103 105 95 90 92 91 84 74 70 74 69 65 51 56 56 57 55 42 44 
14 13 9 14 46 116 156 161 173 181 179 176 175 163 153 139 132 122 125 125 125 126 121 126 124 130 143 158 169 171 162 148 141 146 166 180 205 214 181 186 180 185 200 233 212 168 156 171 206 202 158 148 145 149 152 152 141 134 121 105 103 104 104 100 97 94 89 85 79 73 65 67 67 56 53 53 56 51 43 40 
14 10 16 57 125 153 171 170 177 183 186 189 187 189 188 176 170 147 128 125 124 124 119 125 127 134 150 164 173 171 158 145 137 146 158 178 206 215 196 176 177 183 206 231 226 186 153 169 203 191 151 144 147 151 154 151 145 142 129 112 105 101 109 99 102 88 83 84 71 64 63 56 64 56 47 52 52 49 37 45 
13 21 73 129 154 163 170 167 176 183 187 195 197 195 198 189 184 180 167 139 126 128 125 127 129 141 159 170 174 172 157 147 140 148 154 176 202 216 206 178 171 177 200 231 239 202 161 169 194 190 158 147 144 146 152 151 147 146 135 122 106 102 97 84 82 73 72 74 69 54 58 54 50 51 49 44 48 46 36 40 
28 90 140 156 152 157 170 164 170 166 170 183 193 200 199 200 197 196 194 183 154 137 127 129 129 147 161 176 177 169 154 150 142 143 150 167 190 213 221 207 191 186 191 218 236 223 183 177 188 198 176 149 145 146 153 153 153 149 141 125 111 92 71 61 71 68 63 61 58 49 55 54 53 49 46 45 47 46 40 40 
85 138 171 183 179 160 159 163 164 164 156 159 169 182 190 193 194 194 198 200 187 173 139 131 129 139 158 175 183 169 158 153 144 144 147 161 178 204 226 227 206 216 217 210 232 234 203 196 187 198 198 159 147 148 152 151 147 136 120 125 111 83 58 57 63 55 51 51 49 45 48 49 49 44 50 44 48 46 37 43 
135 161 175 191 194 198 190 164 162 161 151 149 149 162 162 172 183 183 187 189 195 195 172 146 131 136 151 172 190 182 158 156 150 147 144 160 174 190 213 228 220 220 237 223 222 233 206 211 196 189 208 167 149 147 146 136 102 83 76 90 109 81 50 47 48 44 42 42 41 42 41 43 42 42 45 43 43 43 33 43 
154 158 162 174 183 201 204 198 188 165 153 149 147 146 149 156 159 163 177 183 186 191 186 173 143 135 147 167 185 206 176 160 154 155 153 154 167 179 197 222 229 224 238 250 230 231 213 208 221 204 203 191 153 151 133 103 101 99 88 58 88 85 46 42 44 43 41 40 39 38 39 43 39 38 42 33 37 39 32 38 
178 167 162 168 172 174 194 204 206 193 179 167 160 151 150 150 151 151 158 161 172 175 174 181 176 148 140 158 177 204 205 170 155 156 167 162 165 175 182 203 219 222 225 246 242 233 220 203 220 232 211 209 167 151 115 109 99 82 68 50 70 87 51 44 50 44 39 42 37 36 40 38 40 38 37 29 29 33 27 30 
186 183 181 180 173 175 179 179 189 201 191 191 185 174 168 162 151 151 147 153 152 159 160 168 163 164 146 152 168 191 204 201 162 157 174 187 186 172 177 182 196 213 226 238 235 235 226 208 206 230 241 222 187 150 111 80 60 51 47 42 61 93 59 44 45 44 41 41 36 33 36 32 34 38 36 30 28 29 23 30 
190 184 174 187 196 197 190 176 173 173 179 190 190 186 188 185 177 172 158 153 149 156 146 153 155 149 145 140 159 181 198 210 185 155 162 181 208 208 188 185 182 190 208 218 223 230 226 220 211 204 226 235 222 160 104 69 48 40 41 43 57 87 72 47 46 45 40 40 36 36 36 33 35 35 38 31 26 27 18 23 
197 185 173 166 187 207 223 209 196 180 170 169 170 173 179 175 176 180 179 174 160 153 150 150 147 137 138 137 145 166 188 201 196 155 155 165 185 205 217 207 188 174 181 194 208 217 216 219 213 204 195 199 195 148 93 54 41 40 43 44 49 75 93 61 52 47 42 45 40 38 37 37 35 35 37 29 29 29 21 26 
200 201 176 170 174 180 208 215 230 214 184 167 170 166 164 160 164 164 169 173 171 177 164 154 146 139 132 137 135 151 170 190 182 161 149 157 172 184 194 203 207 189 171 170 175 192 189 181 182 174 177 172 165 120 81 50 37 37 40 42 45 68 96 77 59 53 51 48 43 43 36 39 36 34 39 32 30 32 26 27 
187 183 191 172 174 169 182 191 212 224 225 217 189 170 176 158 156 154 159 168 174 175 177 177 167 146 137 136 133 141 150 162 172 156 145 145 157 166 168 172 167 164 158 156 155 166 161 164 167 165 167 165 157 102 72 50 39 36 35 41 47 57 88 89 66 59 50 49 45 41 42 38 34 37 37 30 27 32 24 26 
193 188 173 161 158 164 160 158 169 178 187 195 198 199 192 183 177 178 175 171 167 174 174 173 178 175 159 146 137 136 137 150 159 157 144 150 163 165 169 165 163 154 149 144 151 152 152 150 154 160 163 159 142 93 68 47 38 31 34 37 47 54 69 82 69 58 52 52 49 46 47 38 38 36 39 33 33 31 21 26 
157 148 145 137 133 131 142 136 143 147 138 140 145 153 163 176 185 196 197 200 187 181 175 172 174 174 169 167 172 168 157 155 159 157 155 151 162 162 158 158 152 141 142 139 139 141 143 137 143 142 149 143 119 84 62 44 34 28 33 34 38 53 56 64 67 61 58 50 47 43 42 40 39 37 34 31 25 27 24 25 
172 157 147 134 133 123 126 126 135 138 134 138 141 139 146 153 162 154 163 162 162 178 172 170 171 169 169 173 185 186 180 183 175 170 172 174 162 157 153 152 144 139 133 133 134 137 133 131 134 136 136 131 101 74 57 39 32 29 33 34 41 49 61 56 63 60 59 53 51 47 45 43 39 37 36 29 27 33 24 28 
187 180 167 162 151 135 136 129 137 142 136 138 140 141 148 152 154 159 169 170 171 178 174 171 175 174 165 163 166 167 163 163 164 161 157 156 151 155 147 151 141 141 136 134 132 135 135 136 134 131 131 124 92 68 53 41 31 30 32 35 39 51 58 64 64 62 56 57 54 51 49 47 42 37 35 34 32 35 27 29 
208 203 204 199 194 180 177 159 158 157 146 144 138 151 161 173 166 166 169 173 175 175 165 163 158 156 147 148 149 152 154 151 155 155 154 157 154 157 150 150 150 142 139 137 136 135 135 135 134 132 133 115 79 62 47 38 31 28 29 31 36 44 61 64 64 61 59 57 56 50 52 48 49 41 40 35 33 41 28 28 
205 191 189 189 194 194 198 191 201 206 199 197 191 187 194 193 183 164 167 157 156 151 144 146 146 141 139 136 140 143 147 149 149 153 156 155 155 151 149 149 152 150 141 142 143 143 141 139 135 134 134 101 75 57 43 33 27 25 31 30 37 44 57 64 61 63 59 60 55 51 51 47 44 42 42 35 32 34 27 26 
196 188 190 179 182 181 187 187 201 205 210 208 203 196 196 182 149 135 134 137 139 140 135 135 136 130 135 134 135 143 142 145 146 148 153 152 154 150 147 150 151 150 148 147 148 144 146 145 144 140 141 95 62 49 42 33 26 26 30 32 32 38 55 62 63 68 63 61 61 57 54 49 48 42 40 37 30 36 30 23 
177 177 171 175 173 163 176 155 165 166 155 155 154 155 153 151 124 117 119 123 126 133 131 133 134 130 133 133 133 138 138 141 143 145 145 145 146 141 141 147 147 150 146 148 147 149 151 148 148 144 138 84 58 49 39 31 28 29 30 29 32 40 53 60 69 86 77 67 63 62 57 51 48 44 38 36 33 36 28 27 
177 176 170 173 173 167 170 169 165 168 168 170 174 176 179 173 141 118 122 128 127 133 132 136 142 139 139 139 137 139 143 140 140 144 141 144 147 151 145 144 145 149 147 148 147 146 146 144 143 142 126 73 50 41 37 31 26 27 28 28 31 39 49 59 70 88 92 68 62 58 56 52 51 45 44 39 35 36 27 30 
181 181 166 168 174 177 181 179 176 172 163 164 163 171 175 175 167 130 125 128 130 136 136 138 143 143 141 146 146 148 149 146 143 142 142 148 146 153 146 150 149 148 147 143 144 147 147 139 139 138 106 58 45 36 35 33 26 28 28 34 32 36 52 58 68 79 91 69 63 60 60 55 49 50 43 38 38 34 32 30 
192 196 197 186 183 185 196 199 201 194 182 179 184 179 177 168 156 146 136 139 138 142 141 152 149 147 150 153 155 160 153 156 150 155 159 158 160 166 156 163 155 153 148 144 147 142 144 140 138 130 85 56 42 35 34 33 28 25 28 30 33 36 48 55 66 78 92 76 66 61 67 56 54 51 48 40 36 37 32 35 
154 175 188 200 191 179 196 193 201 198 190 191 196 197 197 186 174 153 150 142 137 138 136 141 140 143 143 150 160 157 148 156 156 160 156 148 146 142 142 140 143 145 147 143 146 147 148 145 140 121 72 60 43 34 33 28 27 27 28 31 30 32 44 56 58 69 87 87 68 65 64 58 56 50 49 37 36 39 28 38 
140 157 159 174 195 196 188 189 197 200 194 186 194 193 192 197 190 178 165 151 141 144 128 123 127 134 129 134 137 142 149 144 149 142 141 141 145 138 141 140 141 144 143 144 147 148 149 145 144 117 75 63 40 34 33 30 24 26 30 30 35 33 45 56 56 67 78 92 71 64 67 60 55 50 49 41 38 40 31 39 
125 157 160 154 171 194 195 188 190 197 201 205 193 188 190 187 190 189 186 179 150 141 127 126 132 132 133 134 135 133 132 127 134 131 130 127 131 132 131 138 140 140 141 140 142 145 141 141 144 119 80 56 37 33 33 28 24 28 28 30 29 35 44 54 56 63 70 88 76 67 68 65 59 55 48 38 39 40 34 39 
114 123 122 125 150 165 184 188 189 189 205 210 211 206 200 189 181 177 177 185 172 159 138 134 140 139 144 144 142 139 138 132 132 135 136 132 134 136 136 136 137 144 137 134 137 139 134 138 133 113 82 51 34 28 32 27 27 27 28 30 33 33 44 55 54 56 65 87 83 71 70 61 58 55 49 36 36 39 31 37 
110 121 105 112 133 147 169 165 177 176 179 185 195 200 210 212 204 198 192 195 190 191 178 171 174 170 168 164 162 160 154 149 149 143 142 142 145 138 137 138 137 135 130 130 125 131 131 123 127 102 76 50 31 30 34 27 26 27 28 31 31 32 39 50 49 51 65 81 87 72 67 63 56 52 52 47 40 41 33 37 
108 112 106 101 110 117 131 138 164 168 172 183 176 171 176 182 184 181 186 182 181 188 183 176 176 179 177 176 169 177 184 189 176 171 173 169 165 155 147 144 141 138 133 131 132 141 137 133 123 82 70 45 31 31 35 28 26 25 31 31 31 31 34 51 54 49 59 75 86 78 71 65 61 60 57 48 43 44 33 37 
104 112 102 94 101 109 120 125 170 192 203 207 185 186 175 165 162 156 157 149 149 160 158 166 169 176 176 187 189 195 193 201 194 183 181 176 172 170 163 157 152 143 136 132 136 144 145 143 128 78 67 39 27 31 33 28 27 26 33 30 28 29 38 47 53 52 56 70 84 82 72 64 66 59 55 49 42 45 35 36 
120 114 105 99 105 97 142 188 197 211 213 217 212 204 184 176 166 155 149 141 132 134 135 142 149 150 156 160 164 165 176 175 173 167 168 163 162 158 158 159 159 150 143 134 134 134 126 120 118 87 62 33 32 28 32 31 28 28 33 30 30 28 35 45 50 48 53 69 85 87 76 69 63 61 54 49 44 47 35 40 
208 175 147 116 105 109 175 231 235 208 217 205 199 204 209 193 183 173 166 148 140 138 136 138 138 134 133 136 138 145 151 151 149 139 138 135 144 140 141 139 133 132 128 128 125 122 119 116 104 88 59 35 30 32 32 28 28 28 30 30 31 30 34 42 50 50 48 66 78 91 80 69 65 63 57 54 46 39 35 38 
243 245 227 187 150 125 165 211 234 216 214 212 203 204 205 191 180 175 172 165 151 154 157 148 143 138 135 133 139 139 144 142 139 136 139 139 143 145 138 137 134 123 120 124 126 121 115 111 103 76 52 34 32 32 33 29 27 31 33 33 29 30 35 43 48 51 51 58 76 88 86 69 65 63 61 53 47 45 33 38 
255 254 253 249 227 181 167 159 178 211 221 222 214 203 203 190 184 174 173 164 157 167 169 171 159 147 143 141 139 141 143 143 142 139 136 142 138 134 133 131 129 128 124 124 124 125 121 115 106 73 49 33 28 28 29 28 31 32 34 34 34 32 33 41 45 49 51 53 71 87 90 74 71 66 58 51 48 43 37 35 
264 257 261 255 256 243 185 152 168 161 176 208 216 220 220 211 203 183 176 165 162 167 166 162 160 154 143 145 144 144 140 136 141 139 137 135 134 129 138 130 130 131 124 120 124 126 131 126 116 71 43 33 26 30 29 32 32 33 35 33 35 34 32 38 45 48 51 52 66 80 87 72 71 66 60 58 50 48 36 40 
273 271 274 261 258 254 241 165 161 135 134 154 169 196 199 197 198 189 181 168 161 166 154 147 146 140 131 136 139 136 143 144 141 132 131 130 135 134 133 135 135 131 130 135 139 135 138 134 113 63 43 31 31 32 36 33 33 36 36 34 30 37 34 36 41 45 50 53 61 75 80 76 67 65 60 52 50 50 37 38 
287 286 280 270 267 261 260 227 184 154 137 146 154 149 164 173 164 171 179 170 157 157 143 134 132 130 121 122 120 132 135 135 134 134 131 133 135 140 142 151 152 147 141 136 131 130 128 127 96 50 40 35 37 38 38 35 34 37 36 36 36 38 35 33 42 44 48 47 55 67 77 77 72 66 60 59 53 53 39 39 
299 296 292 277 274 267 269 254 247 245 236 233 219 181 155 156 151 160 156 154 154 150 146 130 122 122 116 116 118 128 133 134 133 135 132 135 147 156 155 155 149 140 139 141 133 132 127 129 83 48 45 43 37 40 40 38 36 38 35 37 36 37 36 38 39 40 46 50 53 64 74 67 67 64 64 59 53 50 34 38 
305 305 295 286 278 268 265 258 258 263 267 268 255 247 240 178 160 136 139 136 132 133 125 123 125 122 122 116 119 128 134 136 139 149 146 148 147 151 147 153 150 146 141 144 138 131 128 121 70 51 47 41 39 42 42 41 40 42 41 39 40 43 42 40 42 41 47 48 58 63 64 61 70 70 67 61 56 54 41 46 
310 310 303 295 279 267 267 260 257 268 269 271 265 260 253 248 182 137 136 131 124 128 125 130 122 123 131 137 137 137 141 143 150 154 155 146 150 152 148 159 158 155 151 149 144 140 135 115 61 51 49 42 42 44 44 44 42 46 45 46 46 46 44 44 41 42 43 50 53 57 67 58 68 65 66 60 54 54 39 43 
308 308 302 296 286 269 273 260 265 265 269 266 264 259 264 257 206 170 184 141 130 131 129 137 134 136 142 141 140 140 141 140 140 142 151 149 146 148 149 158 165 161 161 158 152 143 137 101 52 47 46 43 42 47 49 48 46 48 51 50 49 49 48 44 46 46 39 44 48 54 67 68 62 68 70 59 53 53 40 42 
310 314 304 300 291 280 281 266 260 265 270 265 260 264 268 268 202 188 196 155 146 152 142 139 141 132 133 136 132 137 140 144 142 141 145 149 153 152 153 154 159 167 163 159 160 152 142 95 52 46 49 43 44 49 54 53 54 53 55 56 54 51 52 49 43 44 41 42 49 50 63 69 65 68 65 61 55 55 44 45 
313 311 307 297 289 279 291 278 262 264 268 264 260 265 276 264 200 172 167 149 148 153 146 153 158 159 154 145 140 139 140 142 141 139 146 147 159 161 153 156 159 164 164 160 159 155 144 87 52 47 50 46 48 54 56 56 55 59 60 59 59 55 53 52 46 41 37 42 44 49 56 66 71 69 67 62 55 52 43 42 
312 309 307 293 290 280 298 287 269 267 264 258 249 248 243 211 151 157 158 153 151 175 174 182 182 168 169 159 152 154 150 152 147 140 140 142 146 147 151 158 156 152 153 153 150 150 137 82 55 51 53 50 52 54 63 58 62 66 64 61 60 58 58 46 53 40 38 33 30 29 39 44 53 56 54 54 49 53 40 39 
303 300 295 286 286 280 294 287 276 265 243 226 213 199 180 145 132 148 158 152 164 183 189 185 175 157 148 145 139 140 146 146 151 142 131 134 140 146 148 151 151 144 140 142 146 144 133 72 54 51 55 52 53 58 62 58 59 62 65 63 59 58 56 51 46 40 25 28 24 20 22 18 22 21 25 25 26 28 23 26 
294 285 292 288 288 280 287 281 267 231 190 177 175 155 140 123 114 133 148 144 153 165 163 155 150 146 140 135 134 143 149 158 152 143 126 119 129 135 137 139 142 142 137 135 128 139 127 72 54 50 57 52 52 53 62 61 59 63 61 62 61 57 59 51 47 36 29 20 23 22 20 17 14 18 18 18 18 21 12 19 
294 285 289 287 288 280 281 270 228 122 96 134 141 131 116 105 101 100 107 115 153 168 163 157 153 143 144 136 140 139 143 145 146 144 135 122 128 123 126 133 134 131 134 129 128 127 123 82 57 55 59 53 54 57 63 61 61 63 61 63 59 59 57 56 52 40 29 26 22 22 25 17 13 14 16 21 17 20 13 17 
287 282 285 286 290 284 285 246 156 57 35 56 87 98 94 90 89 88 89 101 150 174 163 159 157 150 142 139 140 135 143 148 148 150 145 131 128 123 122 132 133 129 128 124 122 120 122 96 62 54 58 50 51 58 64 61 58 61 61 58 60 57 56 52 52 47 36 28 30 24 22 15 17 15 13 13 18 17 16 22 
292 290 285 286 289 278 269 203 89 29 27 24 36 53 58 61 68 67 58 57 87 147 170 169 162 152 148 139 135 141 141 157 156 155 165 161 137 129 124 131 129 124 128 126 124 129 136 128 66 58 59 51 56 58 60 60 57 61 60 55 53 56 57 55 53 46 34 31 26 25 25 22 22 18 18 17 22 23 14 21 
297 292 288 282 285 268 234 112 46 25 25 23 26 24 32 36 45 37 33 32 54 96 164 171 173 161 149 152 141 140 149 151 153 152 156 168 136 118 118 119 119 118 121 124 140 170 164 152 78 63 60 55 53 57 60 61 56 57 58 53 52 56 52 58 58 47 37 30 22 25 25 24 24 22 21 18 24 23 16 22 


