P2
80 60
885
444 327 279 251 239 212 188 169 153 144 121 104 112 117 111 126 142 184 235 148 123 115 103 95 90 81 63 57 66 81 82 80 75 76 80 80 84 89 90 91 88 89 89 91 92 93 94 97 93 92 91 100 92 94 93 90 96 90 92 89 89 88 79 75 77 75 77 71 70 69 68 66 62 52 54 49 47 48 32 35 
382 286 274 233 217 194 176 162 158 150 131 121 117 114 100 97 138 214 259 127 108 122 114 106 97 88 80 70 71 80 75 75 75 78 83 84 88 89 88 91 85 89 85 90 92 92 95 98 99 97 95 101 95 95 97 93 98 93 90 90 89 86 83 83 79 77 78 78 70 71 69 60 56 51 48 48 47 40 34 34 
321 268 249 227 192 170 168 161 161 143 137 121 124 116 105 103 140 356 270 128 110 121 121 111 106 91 85 83 87 72 71 63 66 68 73 78 83 84 86 85 84 83 84 83 82 94 94 92 98 96 95 97 92 94 92 97 97 97 90 90 92 94 85 82 80 82 76 74 76 72 61 59 58 55 47 42 44 43 42 41 
277 255 230 211 177 162 171 158 157 147 137 127 126 117 110 100 99 126 130 112 108 122 121 115 116 105 88 90 89 86 81 65 61 61 62 66 80 80 84 85 83 82 83 79 79 84 85 92 94 93 102 101 95 92 94 99 98 91 93 91 87 85 85 83 82 79 77 73 71 73 65 63 56 48 52 42 45 41 45 44 
249 233 216 200 171 164 166 151 152 142 138 128 126 127 113 106 99 102 110 104 99 112 126 120 120 110 90 79 93 83 84 77 71 61 62 61 68 78 85 81 85 81 83 83 77 84 86 90 95 92 91 96 96 95 98 97 93 98 95 94 90 90 86 82 84 80 77 72 71 67 63 58 52 48 51 41 57 50 47 51 
229 219 216 201 184 168 168 151 146 138 133 124 132 124 115 99 96 112 118 107 106 110 112 115 116 111 107 95 97 73 79 80 77 66 66 59 67 72 69 81 81 77 78 78 83 80 85 88 85 86 99 96 100 93 98 95 102 100 98 95 91 93 88 85 83 80 82 81 74 75 67 61 59 49 53 52 47 50 49 52 
223 210 211 211 189 174 160 148 148 136 133 124 129 123 112 98 97 117 124 111 109 104 103 88 95 106 124 121 109 79 70 71 73 73 73 67 62 63 69 62 76 79 77 76 77 75 80 84 81 83 89 94 94 96 99 97 98 96 94 93 95 91 84 84 83 82 81 76 68 64 61 57 58 59 55 55 53 53 52 61 
300 261 232 212 201 189 176 158 158 147 130 128 129 124 113 109 100 122 122 109 109 109 101 84 83 89 109 124 127 111 83 80 76 69 72 75 71 64 62 61 65 74 75 73 71 73 80 80 79 79 84 84 88 94 91 95 96 98 94 93 90 88 87 89 84 75 80 71 69 66 65 64 65 52 55 59 58 58 55 56 
387 370 312 270 232 204 214 192 177 158 147 131 131 130 113 107 115 136 126 115 115 114 110 85 93 91 98 120 130 122 113 99 75 75 71 75 74 75 75 65 61 60 68 73 67 76 74 79 81 74 77 83 85 91 91 97 97 94 97 91 94 93 89 89 85 81 74 68 65 66 69 69 65 59 67 69 73 69 59 72 
306 355 395 381 321 270 243 219 214 200 171 147 140 131 110 113 129 140 125 122 122 118 111 93 102 104 106 128 115 105 110 119 108 86 75 73 75 72 79 86 71 63 57 62 66 70 79 78 78 80 81 83 81 83 88 92 94 96 100 100 93 91 88 82 83 78 76 75 75 76 71 67 68 67 70 69 69 68 66 99 
305 312 321 360 397 385 332 276 244 220 207 191 164 142 108 109 132 138 121 121 123 117 110 102 111 110 116 128 115 109 97 116 110 113 89 77 74 69 77 85 87 83 68 60 52 65 71 69 79 71 74 77 76 77 82 87 91 93 92 90 92 88 89 77 77 74 76 75 74 73 73 68 77 71 73 76 76 78 79 157 
412 494 432 355 326 341 396 398 347 287 248 220 211 189 147 120 146 137 128 123 125 122 115 112 118 112 119 132 117 116 112 116 95 87 81 78 71 68 78 101 90 95 85 69 55 57 59 70 69 67 75 74 73 76 79 75 79 81 87 91 89 83 75 75 77 73 80 69 71 80 78 77 78 78 76 78 76 80 110 192 
472 557 647 619 476 341 318 339 392 409 348 282 249 220 206 193 171 135 129 132 130 129 119 120 120 119 127 133 120 119 116 103 96 88 78 75 75 75 83 98 98 92 89 84 74 65 64 64 63 59 66 75 71 74 76 76 80 78 85 85 78 86 72 77 76 81 78 79 77 85 84 85 86 81 77 77 82 85 158 225 
573 582 687 704 648 511 350 279 296 331 387 407 355 290 244 212 187 137 124 131 133 126 120 125 129 126 138 137 123 121 119 112 107 104 90 82 80 81 84 96 103 101 95 91 86 89 79 66 64 59 70 66 68 71 76 75 78 76 74 77 75 76 80 81 78 78 83 84 86 82 86 88 88 75 78 78 81 119 205 261 
647 620 660 678 608 465 362 327 276 261 277 314 373 418 390 271 186 132 123 123 127 127 121 130 129 129 139 135 130 120 121 116 114 111 100 87 94 92 87 90 103 99 99 99 91 86 77 85 66 60 66 59 59 70 72 74 73 73 72 77 79 84 79 76 80 80 86 84 87 86 87 88 85 82 83 82 90 169 232 263 
701 635 569 543 421 348 382 353 400 286 225 230 267 324 408 321 183 133 121 116 123 123 117 127 131 127 144 137 125 124 118 122 115 112 112 104 103 104 95 90 106 104 94 90 89 92 89 84 71 60 59 59 53 59 63 70 77 69 72 79 79 75 74 74 80 85 88 89 90 89 87 89 90 83 88 96 128 199 234 262 
725 666 523 384 310 293 338 388 436 401 345 201 186 216 246 234 166 125 115 112 107 111 110 126 130 136 151 130 127 126 129 123 119 115 118 110 106 104 110 103 108 108 107 95 90 91 90 86 79 73 68 64 60 54 56 65 70 73 74 76 77 80 86 88 90 93 96 96 89 96 96 91 90 90 87 125 195 251 257 251 
731 674 578 435 317 322 437 464 423 352 440 346 172 160 178 192 138 119 118 121 94 72 91 121 131 133 138 134 136 130 123 125 124 116 115 113 102 102 101 103 109 104 112 106 97 88 98 91 86 84 81 71 63 50 56 53 67 71 78 75 81 84 87 86 86 92 97 91 90 97 93 89 91 82 103 177 261 255 241 230 
655 614 552 512 436 446 477 410 309 276 298 257 183 179 175 150 123 117 138 125 97 60 79 95 114 117 126 127 129 125 126 125 120 121 118 111 108 109 104 91 99 102 111 106 91 93 97 94 93 92 89 75 66 71 65 60 66 66 74 84 85 85 80 88 93 94 93 88 93 97 92 91 96 90 114 212 232 230 218 236 
517 505 509 579 596 545 502 355 269 244 217 185 244 395 245 150 130 128 149 126 112 93 89 100 98 94 111 125 129 124 129 131 128 126 120 117 118 121 113 104 105 108 106 101 100 102 97 102 96 93 85 87 83 79 76 73 73 75 88 88 90 91 92 93 97 97 103 97 99 93 99 96 95 103 155 222 229 232 229 253 
359 426 503 558 632 655 685 482 276 241 202 200 362 415 243 193 138 128 125 124 120 113 93 89 87 84 91 117 122 125 125 128 127 122 113 119 119 119 117 110 104 106 111 108 103 101 101 98 92 92 101 94 89 89 95 93 83 77 79 85 82 96 99 104 101 102 104 102 99 100 100 100 100 107 174 223 234 243 250 259 
206 247 359 485 676 693 663 416 256 223 199 214 266 278 302 336 162 126 123 120 120 122 101 83 78 73 86 108 123 124 122 123 126 126 120 121 121 118 114 116 107 106 101 105 105 101 92 93 102 110 97 94 90 100 99 100 92 86 90 98 94 104 106 106 105 108 106 101 105 107 104 101 102 123 206 246 265 263 254 252 
193 215 276 369 675 681 609 375 224 202 212 218 244 261 386 436 214 128 123 118 125 118 109 82 78 77 93 102 119 127 122 119 121 118 122 121 120 120 116 111 110 100 96 106 101 100 100 99 103 128 113 104 101 103 104 105 98 94 97 99 103 108 107 110 105 103 105 103 106 103 110 100 106 148 255 288 272 262 253 269 
161 203 247 349 583 605 521 275 205 218 225 228 257 325 392 454 296 141 122 124 126 122 119 85 80 84 84 95 104 124 123 123 120 120 118 116 116 121 112 110 102 95 84 81 91 104 106 112 120 125 122 111 109 109 107 108 108 100 99 108 107 111 112 107 114 108 109 103 104 104 105 105 101 141 263 277 275 270 266 283 
168 219 356 491 491 474 314 227 240 241 240 257 304 356 465 530 358 150 128 119 122 123 116 84 85 83 84 95 108 121 122 121 113 121 116 121 117 118 109 102 98 96 97 95 96 111 124 124 124 125 123 121 118 119 115 112 112 105 110 110 110 112 113 110 112 112 110 102 106 111 101 104 104 145 246 271 279 282 288 292 
239 378 559 560 394 278 223 320 370 314 299 345 501 585 597 450 238 135 125 120 121 119 119 96 86 88 89 91 105 109 115 117 116 119 121 117 112 111 107 105 105 101 105 103 95 106 122 124 120 120 120 121 119 115 120 114 118 113 110 108 110 115 117 111 115 110 108 104 105 105 108 107 104 120 211 277 289 284 279 277 
290 328 356 352 298 216 219 279 454 479 426 496 621 567 398 248 172 133 122 123 121 119 119 100 94 90 91 90 100 103 109 119 117 117 114 111 113 115 113 109 109 109 104 106 99 105 106 114 115 122 124 123 119 120 117 112 116 114 107 112 111 112 119 112 113 111 111 111 108 108 106 106 106 111 170 266 275 279 263 264 
474 572 421 390 297 246 221 234 360 506 448 562 455 297 229 181 132 122 119 114 115 116 117 104 95 91 90 84 89 99 108 118 112 113 107 106 112 117 113 113 111 108 100 111 98 105 104 99 108 121 117 119 119 117 113 114 114 112 109 108 112 116 113 111 112 108 113 112 108 111 108 107 105 107 137 233 256 257 254 256 
622 673 437 458 508 401 267 213 290 432 510 539 324 238 165 137 127 117 118 116 120 120 118 105 98 86 87 84 85 95 100 112 116 109 116 111 118 119 120 116 113 111 103 113 105 105 107 101 100 106 118 125 120 119 117 121 119 115 112 110 110 114 115 117 114 117 113 111 111 118 115 108 109 111 130 210 245 260 259 267 
676 534 458 597 885 817 440 221 211 250 381 449 291 176 129 143 124 117 111 118 116 118 117 103 94 91 83 75 82 95 105 105 110 115 112 116 118 118 120 115 108 109 106 111 105 107 110 101 95 111 121 126 119 124 117 116 119 117 115 112 116 121 123 117 119 117 115 118 120 120 122 115 116 112 118 168 243 260 271 273 
679 556 389 482 643 735 364 173 169 216 239 207 179 131 149 139 120 109 114 108 115 114 110 116 100 83 71 75 85 94 102 103 107 115 111 113 120 121 119 119 116 114 114 112 107 108 112 103 98 112 125 125 114 120 115 121 125 127 119 131 155 158 165 158 145 135 141 131 128 122 121 121 115 121 123 181 259 276 274 276 
758 548 300 255 272 368 225 174 173 233 248 190 141 154 154 128 121 114 112 114 114 113 113 125 105 80 72 75 79 86 102 107 111 115 120 117 116 120 122 121 116 116 115 109 109 114 113 107 93 106 122 130 125 158 176 197 187 172 197 285 312 319 323 310 273 272 253 202 159 139 134 144 143 159 176 251 292 281 275 277 
528 390 257 220 215 249 252 234 227 253 191 130 139 169 136 120 119 115 113 113 110 118 127 135 124 83 67 64 63 76 93 106 108 113 114 111 115 122 122 118 119 116 111 111 112 118 113 107 85 98 116 136 156 234 279 303 322 350 371 391 402 399 399 393 390 394 385 356 268 245 252 272 294 306 321 322 307 286 275 282 
268 268 229 203 201 234 247 237 231 229 215 189 163 157 125 119 120 112 113 112 115 113 123 115 84 59 46 40 46 63 79 98 95 98 95 111 117 117 119 119 119 118 117 115 112 115 114 108 83 105 132 190 270 340 362 387 400 405 406 410 420 420 418 420 412 420 420 410 391 385 386 387 382 376 373 355 313 290 277 279 
234 244 222 188 206 237 235 217 221 232 227 208 178 137 122 119 116 107 109 116 118 120 110 76 61 40 33 30 44 49 61 79 93 90 76 86 107 115 119 116 116 115 116 120 122 117 116 111 92 123 191 283 369 378 372 408 405 416 420 422 425 427 418 420 419 422 419 414 411 409 412 405 396 393 390 375 322 289 277 288 
240 232 209 178 210 226 227 185 223 302 276 220 157 134 121 119 121 114 109 116 122 119 111 91 81 49 34 56 65 51 43 59 77 83 80 83 91 115 119 118 117 117 120 121 127 117 118 115 96 179 261 368 402 384 389 430 424 423 421 424 429 424 414 411 409 419 423 415 409 413 411 404 403 400 397 393 348 298 289 290 
231 221 199 181 218 225 222 210 325 322 242 179 139 129 116 119 113 108 111 114 109 117 113 110 84 52 42 62 62 57 48 47 60 77 87 85 82 96 114 120 115 120 128 130 133 121 120 117 123 227 317 403 409 394 414 435 428 429 423 422 431 421 407 406 408 418 427 418 412 415 411 407 402 401 400 402 354 301 287 300 
235 224 199 191 229 235 343 441 404 247 193 151 131 125 117 120 115 109 110 116 118 114 117 121 85 57 34 32 80 53 44 45 46 62 79 90 90 86 89 114 116 146 162 148 141 122 123 124 168 247 360 415 423 419 430 433 438 432 423 422 427 421 408 401 405 415 426 420 413 417 412 416 407 404 400 396 357 310 296 301 
252 232 249 264 247 258 495 495 265 198 175 134 125 124 120 118 114 112 112 111 112 117 118 145 121 84 52 30 59 56 49 45 30 48 69 84 82 72 69 90 128 310 294 164 144 126 122 134 201 272 389 426 423 426 427 421 418 423 420 421 425 420 417 409 411 416 427 425 418 418 416 417 416 410 395 393 363 315 294 295 
281 265 441 413 268 262 437 321 213 195 160 126 123 122 113 117 113 108 109 108 113 118 120 144 123 83 53 24 15 40 50 54 48 34 43 64 74 73 69 80 122 277 353 172 139 126 125 147 215 311 401 426 421 421 419 427 426 423 425 423 426 427 424 413 413 418 415 417 417 420 419 418 415 404 390 390 371 322 296 280 
281 318 510 472 261 223 213 209 214 184 139 122 117 115 114 116 108 109 109 112 110 109 119 143 122 83 35 0 10 40 52 61 54 43 30 42 57 63 85 88 110 143 189 147 132 125 126 148 217 325 405 421 421 410 411 433 435 433 432 427 431 423 424 414 414 411 413 420 413 419 419 417 401 394 388 391 375 330 291 271 
276 449 691 461 256 238 233 250 257 171 127 115 115 116 109 108 107 107 110 109 114 111 120 141 118 85 49 36 42 63 56 70 71 62 39 30 52 77 82 97 102 111 121 120 122 123 121 133 213 323 404 419 418 405 386 419 431 424 430 426 429 425 418 410 413 412 408 414 415 418 418 407 398 391 389 393 379 337 283 267 
264 601 880 480 264 347 384 357 290 147 123 107 109 112 112 115 104 105 107 112 111 107 122 136 121 99 69 41 43 42 47 75 83 75 48 43 54 74 81 87 103 101 108 107 112 112 119 132 188 283 385 415 420 404 379 393 411 416 424 422 421 423 421 409 410 405 411 408 406 407 413 400 392 387 384 384 383 344 286 273 
236 468 715 371 249 355 366 348 190 130 112 107 112 112 104 104 104 107 102 109 112 112 123 138 115 70 42 53 59 53 46 47 48 55 42 50 56 54 63 74 79 91 90 95 94 99 106 117 150 245 360 405 410 405 390 385 399 407 410 413 416 411 410 409 407 407 402 393 390 403 397 372 347 322 307 339 362 344 292 274 
215 208 255 248 226 293 360 259 137 115 110 104 113 111 106 106 98 102 105 110 113 110 121 128 117 90 61 48 56 54 50 51 51 42 34 40 47 48 54 59 66 78 89 82 81 87 91 91 100 181 304 388 404 411 409 397 384 401 410 405 407 408 406 397 402 401 386 367 353 316 264 218 184 171 179 223 300 309 286 267 
200 162 177 219 216 245 228 135 106 102 101 102 108 105 100 102 101 101 104 108 109 111 123 133 112 78 51 48 50 45 48 44 40 32 25 35 53 54 57 62 60 61 70 78 77 72 67 65 79 125 223 300 374 401 409 409 388 389 402 397 392 396 393 403 396 381 340 256 193 165 152 133 128 129 128 159 230 266 267 267 
188 158 170 212 202 157 123 90 89 84 88 85 98 102 98 100 99 102 100 103 107 113 117 127 104 53 41 37 51 55 52 47 40 36 20 16 56 70 68 68 68 66 69 69 64 62 79 95 94 105 157 219 274 345 392 403 400 389 386 353 363 387 394 397 396 329 211 152 136 131 120 115 115 110 109 123 151 210 239 255 
183 150 177 208 190 133 111 87 87 80 76 68 81 84 88 96 98 98 104 104 105 111 116 125 100 49 18 12 49 56 54 49 47 43 41 31 55 78 79 75 72 57 56 73 91 95 98 102 98 103 112 149 216 268 305 323 307 299 302 310 345 395 414 411 388 274 157 129 119 115 118 112 114 112 106 108 107 137 204 255 
174 156 188 204 184 116 96 74 79 76 75 65 60 66 72 81 87 94 95 98 105 102 113 122 106 57 32 36 56 53 59 55 50 51 56 41 42 82 101 92 74 82 94 102 101 98 99 109 114 121 105 104 146 188 214 241 249 255 266 285 315 377 399 353 270 176 127 114 113 111 110 111 111 102 107 111 107 109 181 252 
269 263 220 203 173 99 78 63 68 70 66 65 69 70 60 62 64 61 73 79 88 93 101 116 103 73 36 33 49 49 50 53 56 50 60 44 59 100 121 117 117 112 113 120 122 113 119 126 125 130 110 99 118 120 131 159 171 178 166 160 191 242 229 175 146 122 113 112 108 110 110 107 105 98 103 103 115 124 177 250 
387 298 242 209 166 102 79 62 68 61 66 57 67 71 62 63 71 61 59 66 71 79 93 113 102 69 45 48 52 53 44 57 56 50 61 74 93 117 118 125 130 125 121 114 119 126 122 119 111 128 115 102 107 105 93 97 94 103 97 92 98 117 129 115 115 112 111 108 104 110 107 104 103 105 102 100 112 133 175 257 
470 347 233 205 167 111 87 69 72 73 63 53 58 59 53 64 68 74 71 75 71 65 75 99 102 75 72 59 74 82 81 76 73 69 68 82 105 110 115 120 124 125 120 124 119 126 119 114 113 121 110 100 100 92 88 88 89 91 84 84 90 99 107 104 106 106 104 100 104 103 102 105 101 96 99 98 103 122 171 251 
419 297 222 205 187 136 106 86 80 71 56 47 53 57 55 62 68 67 74 72 76 73 79 107 111 101 85 72 84 98 96 93 92 107 121 102 110 115 110 115 117 127 126 121 122 122 119 124 116 116 111 93 100 96 84 91 96 99 97 92 92 96 102 105 103 103 103 103 103 104 101 103 104 96 97 93 91 105 167 240 
288 195 203 200 181 145 108 89 82 77 67 56 63 66 60 61 65 59 65 77 71 61 69 105 116 112 99 66 83 114 105 101 140 226 156 112 110 104 105 107 111 121 129 126 128 131 122 121 117 109 95 87 96 104 100 100 105 101 101 96 98 101 103 102 109 102 102 102 102 102 102 97 99 95 93 89 88 95 159 217 
194 179 203 202 179 149 125 98 92 82 75 72 79 77 66 64 73 66 72 76 78 61 58 98 112 104 89 66 82 121 120 114 148 163 127 114 111 110 107 106 108 118 129 131 131 126 121 124 121 111 107 101 106 117 110 116 110 106 109 99 104 104 107 104 108 106 104 107 106 103 103 95 101 96 94 85 89 99 150 216 
178 180 203 202 172 147 136 113 103 88 81 75 88 90 83 80 80 74 77 84 87 73 67 96 111 105 104 75 78 116 129 117 123 112 120 119 114 113 105 105 103 108 122 127 123 127 125 125 122 117 120 119 114 115 121 119 114 115 108 106 103 102 102 105 104 109 105 110 102 103 104 99 101 98 91 88 84 92 133 212 
175 175 182 188 173 150 138 129 129 120 102 96 99 99 94 92 95 85 85 93 92 85 78 104 114 107 107 95 78 118 132 113 106 100 120 127 123 118 109 101 104 109 118 123 123 128 125 127 127 128 127 125 119 121 124 120 122 117 115 113 107 106 108 109 105 110 104 110 100 102 98 99 97 96 88 85 75 91 103 172 
165 165 175 173 170 166 175 156 155 129 120 111 111 114 109 103 102 90 92 97 99 99 103 112 110 107 117 115 107 151 141 119 107 104 118 125 125 121 113 107 101 95 104 114 124 128 128 130 127 124 126 127 124 118 126 133 148 182 169 126 111 110 106 106 105 110 109 100 104 102 103 97 94 97 90 85 78 74 72 124 
197 185 174 167 160 159 177 170 169 152 132 117 123 126 123 117 118 115 105 111 111 119 124 123 118 113 119 125 121 203 159 125 114 115 128 133 132 127 120 117 109 100 110 116 129 135 133 132 133 133 129 130 128 141 153 196 347 462 332 167 119 110 108 105 104 107 109 106 108 102 103 102 98 92 88 85 86 77 70 84 
225 212 204 203 188 181 183 165 164 151 131 114 124 122 121 129 127 118 119 125 125 135 127 121 119 120 126 129 125 166 149 127 112 115 129 132 132 130 122 120 120 117 119 118 127 138 129 131 132 136 131 127 124 144 160 284 544 588 389 182 115 114 117 110 109 113 112 105 107 111 107 103 101 98 98 97 96 88 89 94 


