P2
80 60
69
25 35 30 22 22 28 24 21 23 24 21 24 28 28 29 31 32 34 38 41 41 42 37 38 44 41 42 40 43 40 39 37 38 41 40 45 43 39 37 38 35 34 41 36 37 38 40 38 38 39 36 35 30 28 27 28 30 30 30 30 29 25 24 23 23 22 29 26 24 21 17 17 18 16 17 11 11 10 4 3 
43 40 32 23 26 28 26 23 23 24 24 28 29 30 32 30 35 35 39 38 44 42 39 43 40 43 44 42 45 43 38 37 41 37 41 42 43 42 39 40 37 35 35 36 37 33 36 36 41 40 37 36 30 25 27 27 30 30 29 31 30 23 23 25 30 23 24 27 26 22 18 20 18 17 15 14 10 11 7 7 
42 39 30 30 31 28 26 25 27 26 26 28 30 28 32 31 36 33 37 33 42 40 41 39 41 44 45 42 47 45 44 39 41 45 39 43 41 40 42 39 40 36 38 35 31 36 37 37 38 37 36 34 31 26 26 22 31 31 32 31 32 30 30 26 25 24 25 26 27 25 18 18 16 17 15 12 13 11 6 10 
40 42 31 29 33 34 33 26 25 28 26 29 29 29 31 29 29 35 36 34 34 40 39 40 42 44 44 41 43 40 44 40 41 42 44 38 43 42 40 42 38 41 38 40 37 36 35 37 36 36 37 37 30 28 24 22 27 30 22 28 26 26 26 27 25 24 24 24 26 26 18 16 16 17 12 14 14 12 9 0 
29 38 35 35 33 37 38 32 34 32 31 29 31 30 28 34 31 33 35 34 35 37 39 40 46 47 45 42 41 44 44 40 42 41 44 42 45 44 41 44 42 40 40 39 39 39 39 38 37 39 35 34 30 27 30 29 29 28 25 21 25 25 26 27 28 27 26 25 25 22 20 17 15 17 16 13 11 11 10 9 
28 26 30 38 36 38 39 31 35 35 39 33 31 33 31 29 32 33 36 34 33 37 39 42 43 46 44 44 41 41 47 43 46 44 44 39 44 46 42 41 42 43 40 41 37 42 38 36 38 36 37 32 31 26 30 25 30 29 25 25 22 22 23 26 25 27 26 27 25 23 22 20 18 17 16 15 15 14 14 7 
31 33 25 35 33 37 37 37 42 47 45 39 38 40 37 33 39 37 38 35 30 36 38 44 44 46 51 43 45 45 45 47 46 46 46 42 42 43 46 43 42 42 44 47 41 43 40 43 41 39 37 37 37 33 32 26 26 28 27 28 22 22 18 23 25 27 28 27 27 25 24 23 22 18 21 20 18 16 13 13 
31 32 27 36 34 32 31 37 37 42 42 46 44 40 43 40 37 34 38 37 36 36 41 42 47 50 48 43 44 43 48 50 49 45 44 46 45 44 46 46 44 46 43 46 43 47 46 43 43 40 40 38 41 34 31 28 26 28 27 25 24 21 23 26 22 23 27 27 31 26 27 24 25 21 20 23 18 17 17 18 
27 30 30 33 33 31 33 35 40 39 43 45 44 45 42 46 39 38 39 39 36 39 44 42 44 48 48 44 44 47 46 50 50 49 47 50 50 46 44 44 43 45 45 44 45 47 43 44 42 38 38 40 39 36 32 28 30 27 30 27 24 25 25 23 20 25 24 30 26 25 27 25 21 24 23 21 22 20 22 18 
32 31 33 37 36 35 31 35 39 38 40 43 49 47 46 47 43 42 43 42 35 38 43 44 45 45 49 44 47 51 47 49 54 53 50 49 47 45 46 46 47 45 45 44 46 46 47 48 41 41 42 40 39 40 42 32 31 27 27 31 27 27 25 24 25 23 26 26 28 26 27 24 25 23 24 24 23 18 17 21 
37 39 27 37 38 32 33 33 32 37 36 37 40 43 43 48 49 47 49 50 45 40 44 44 48 49 49 47 49 50 49 51 53 53 50 50 47 47 47 47 47 46 45 45 47 45 48 49 46 46 45 41 42 41 42 38 33 32 25 29 25 27 22 24 23 27 26 25 26 25 28 26 29 26 22 23 21 19 22 21 
47 48 39 34 38 35 32 33 34 36 34 37 37 45 45 50 45 47 46 53 47 46 45 45 49 48 48 48 51 52 52 50 53 53 51 51 50 48 52 49 46 43 43 46 46 46 46 48 47 47 46 43 45 43 44 38 40 34 29 31 27 28 21 21 22 20 26 26 28 25 27 27 26 28 23 24 16 18 16 20 
49 50 39 42 43 40 37 34 35 36 35 36 37 41 44 45 46 49 50 49 49 53 48 46 47 48 51 50 49 51 52 52 54 55 53 51 49 50 53 48 48 42 48 44 46 46 47 49 48 46 45 45 41 44 42 45 40 44 38 35 30 28 23 26 23 27 28 26 27 26 27 25 27 24 22 23 17 20 13 18 
46 52 46 40 44 43 40 37 35 35 34 38 35 38 41 49 52 47 48 47 56 52 51 50 50 53 53 53 53 54 54 54 55 55 56 54 52 52 53 50 48 49 48 43 50 46 49 47 47 46 47 43 45 43 45 40 40 43 38 35 34 33 26 23 28 25 23 24 28 30 27 28 29 25 24 24 20 19 15 18 
52 54 47 43 45 38 41 36 39 37 39 38 39 41 44 46 47 49 51 47 48 54 50 51 50 54 55 51 57 58 54 53 56 58 52 54 55 54 53 54 49 49 49 48 45 49 48 50 48 48 51 46 47 46 42 43 39 42 37 39 36 40 34 30 28 24 29 25 26 24 29 29 30 31 27 23 19 21 17 14 
53 50 48 44 46 41 47 38 39 38 38 42 39 41 44 45 47 47 45 45 45 51 52 53 52 53 55 53 55 56 53 56 57 59 56 53 53 53 54 53 50 50 48 45 50 49 46 48 45 44 49 45 43 46 45 43 39 46 37 40 39 34 31 31 28 30 29 27 28 25 25 27 27 26 27 27 23 19 12 15 
48 51 47 46 49 47 47 43 43 44 41 38 42 42 40 41 46 47 49 48 48 53 54 60 52 55 55 54 56 57 57 58 57 58 54 56 53 54 55 50 48 47 50 49 47 47 47 46 43 46 44 42 41 42 43 42 41 42 39 36 41 37 35 34 29 29 33 33 27 23 29 22 23 25 24 22 18 19 13 15 
46 50 50 52 53 51 53 51 50 48 51 47 40 44 45 46 49 46 50 48 45 50 54 57 55 53 55 55 54 54 56 59 58 58 55 56 53 54 54 53 50 47 49 47 46 46 47 47 44 42 42 43 43 41 45 42 42 43 41 40 36 36 31 34 32 29 31 34 36 30 28 29 26 27 26 21 21 19 14 15 
48 50 52 51 56 51 55 54 50 51 54 55 48 47 46 45 50 50 49 49 50 51 53 55 54 53 57 57 57 58 54 59 55 58 55 56 54 55 54 52 51 48 50 48 48 44 47 46 48 44 44 44 45 43 45 45 42 44 39 44 45 36 32 33 31 31 28 31 30 31 29 29 29 25 25 24 19 22 9 16 
46 48 49 49 52 50 47 52 53 54 52 57 52 49 48 48 48 49 51 50 49 53 56 57 55 51 55 55 53 55 53 54 54 58 53 56 56 55 56 55 52 47 51 50 46 46 48 48 48 48 47 45 45 45 44 46 42 45 43 46 40 38 35 37 33 29 28 30 33 28 30 28 27 23 27 23 16 20 15 9 
48 51 51 52 51 52 49 53 55 56 53 54 51 54 53 48 50 48 52 52 54 54 48 57 52 56 53 57 55 59 53 57 55 59 54 56 53 55 56 55 52 49 52 52 49 45 47 47 48 45 47 45 47 43 45 41 44 40 40 43 46 44 42 43 42 35 31 31 30 30 32 33 33 27 27 25 23 22 18 16 
50 50 52 52 53 50 48 50 54 58 58 57 56 50 53 52 53 50 53 52 54 52 53 55 54 56 54 54 55 56 53 56 57 56 56 57 54 53 56 55 52 52 51 46 47 47 43 45 49 49 46 45 45 44 44 42 43 45 43 43 45 45 42 43 40 37 36 34 30 30 30 36 35 34 34 26 23 24 22 24 
45 50 49 51 52 51 51 52 54 59 59 56 57 55 52 49 44 48 51 48 52 49 53 57 54 53 53 52 54 55 55 56 55 57 57 58 54 55 54 51 51 52 52 47 46 45 42 45 46 47 45 44 46 43 45 46 42 39 42 44 46 45 45 47 38 37 35 34 33 27 26 30 34 33 31 32 26 22 21 19 
50 49 47 48 55 51 51 55 57 62 60 57 54 55 55 53 47 49 50 52 53 48 51 53 54 55 56 54 54 57 56 60 55 57 56 57 59 59 55 54 55 54 51 51 48 47 44 44 44 46 46 44 47 45 43 44 44 45 46 44 50 47 45 48 42 38 36 28 30 26 31 30 33 32 33 36 31 28 28 22 
50 54 48 49 57 54 52 55 58 62 62 58 53 52 55 55 49 49 50 50 49 50 53 53 53 55 55 55 58 56 55 57 56 60 61 61 59 54 56 52 55 52 54 53 49 49 44 47 41 45 41 45 44 46 45 45 44 43 45 45 45 47 46 49 44 38 38 31 33 30 29 33 33 38 35 36 33 33 34 26 
49 53 50 48 55 54 53 58 58 61 58 55 57 55 52 55 53 52 54 48 51 50 48 52 50 54 53 52 55 57 55 57 59 60 57 62 60 60 57 58 53 53 52 51 48 47 44 45 41 42 40 43 37 43 42 43 46 45 43 45 42 48 45 49 45 42 40 35 31 26 28 31 30 36 36 34 33 30 30 29 
53 56 53 56 58 56 58 56 56 55 59 55 53 54 50 54 57 52 53 52 52 48 48 49 52 51 51 53 56 56 55 55 59 59 59 60 60 59 62 57 55 58 54 57 49 49 42 45 39 42 39 40 37 37 41 37 40 44 41 42 44 46 44 44 48 43 41 39 31 27 27 29 30 35 33 35 34 34 31 30 
52 55 53 56 58 55 54 56 57 57 58 55 53 55 55 54 52 53 53 54 49 51 50 50 50 50 52 53 53 57 56 59 59 61 59 61 60 63 61 58 55 54 52 52 54 46 44 39 40 39 37 38 34 37 38 34 38 42 41 42 44 45 48 45 47 44 42 36 31 26 26 29 30 32 37 34 34 35 33 34 
54 54 53 57 57 57 54 53 55 55 56 53 53 53 53 54 51 53 52 51 52 54 49 51 53 53 55 59 55 59 54 57 58 63 59 64 61 60 58 58 57 54 53 50 51 47 46 44 40 37 37 35 35 37 36 34 35 41 41 45 44 46 51 47 45 45 42 38 33 27 28 28 28 36 36 39 33 37 34 33 
54 54 53 56 56 58 52 55 57 56 57 57 55 56 52 57 55 52 52 50 53 54 54 52 55 57 57 57 57 57 57 59 58 61 61 63 62 60 59 56 55 55 51 52 50 47 47 45 43 41 36 38 37 37 35 35 36 37 39 42 43 45 46 47 45 48 39 42 36 32 29 32 28 33 35 34 36 36 37 34 
55 53 50 57 58 57 57 58 59 55 58 58 53 55 54 55 56 53 53 50 51 53 54 50 55 57 57 58 59 59 57 59 56 61 62 62 62 59 57 57 55 52 53 52 49 48 47 45 42 41 40 37 37 35 38 35 39 39 41 45 43 43 46 44 44 47 43 41 32 30 29 28 32 33 33 39 39 35 36 30 
57 56 46 55 55 58 56 61 58 59 59 59 53 57 55 56 52 52 52 55 52 54 54 55 52 60 59 54 58 56 58 58 56 60 58 61 56 59 59 58 54 53 54 52 51 48 43 46 43 41 40 41 36 36 37 35 38 40 41 44 45 42 43 47 48 46 43 40 37 31 29 30 30 35 36 38 37 34 33 35 
64 59 52 58 58 58 58 61 62 64 59 59 55 59 56 56 52 54 54 55 54 55 59 57 58 60 60 55 56 57 59 57 57 63 57 59 59 57 58 57 55 53 55 52 54 51 47 47 42 41 38 36 37 35 35 38 40 41 39 46 47 46 46 48 52 44 41 42 37 30 29 33 32 34 38 39 37 36 35 34 
65 59 54 56 61 62 56 58 58 58 61 59 54 56 53 56 52 55 53 56 58 56 56 58 57 61 60 59 59 58 55 58 58 57 56 55 51 53 54 56 55 57 52 52 52 52 48 48 44 41 37 41 39 38 32 37 36 42 41 43 42 44 50 49 49 47 48 43 38 30 27 28 27 32 33 35 37 37 34 31 
68 64 56 56 60 60 59 62 59 63 61 60 58 55 57 54 53 56 54 57 55 56 58 57 56 60 59 59 60 60 56 59 56 56 54 53 46 52 54 53 54 51 55 51 51 49 46 48 43 40 35 40 37 37 38 35 38 43 40 41 45 46 45 48 50 46 40 41 35 33 28 28 26 31 32 31 38 37 35 39 
62 69 59 54 59 61 58 58 57 61 60 59 55 54 55 54 52 55 54 55 57 56 58 56 57 59 57 57 54 59 61 56 56 55 55 54 49 49 52 54 52 54 54 55 50 50 47 46 42 39 39 40 38 38 36 37 40 42 41 44 45 44 41 44 44 42 44 40 33 31 28 31 29 32 30 33 39 38 36 36 
66 66 60 62 57 54 53 58 57 62 63 61 56 55 53 56 49 54 55 54 56 55 60 58 56 60 57 58 60 60 58 60 58 58 53 54 52 53 53 55 53 53 51 51 50 48 45 44 43 43 40 40 40 41 38 38 41 41 44 43 44 43 45 47 44 44 40 40 36 31 30 28 29 32 31 32 35 36 33 38 
56 62 62 64 65 57 54 59 59 62 62 60 57 57 55 57 56 55 54 55 56 60 58 59 60 60 61 59 58 62 58 59 59 59 58 54 52 53 49 53 54 54 54 53 54 48 48 48 47 42 42 41 38 43 41 38 40 40 41 40 40 44 43 45 44 43 45 40 37 37 32 32 31 32 33 35 39 37 36 38 
51 53 51 55 59 63 60 59 59 57 60 55 56 55 56 56 55 55 56 54 60 55 58 59 60 60 61 61 60 60 57 61 56 58 55 57 51 55 55 53 54 56 54 55 54 53 52 48 45 42 41 39 40 44 41 40 40 41 40 40 39 41 41 42 40 43 44 38 38 37 30 32 32 35 34 34 38 36 35 40 
49 54 51 52 55 57 63 58 52 57 55 54 53 59 53 57 54 57 55 54 56 55 59 57 56 57 60 59 55 61 58 59 55 54 55 57 53 60 57 55 54 53 57 54 54 51 50 50 47 38 39 38 38 41 37 36 40 38 41 39 41 41 41 40 41 42 39 40 39 38 34 26 29 31 31 35 35 36 39 38 
45 48 48 51 52 51 57 59 57 54 57 56 56 56 58 57 54 53 54 57 58 54 59 58 55 58 60 57 58 60 58 59 54 55 55 56 52 54 57 57 56 58 56 56 52 45 44 48 46 41 43 41 42 42 40 37 38 40 40 40 39 33 37 37 39 37 39 37 40 33 32 31 28 30 31 32 35 38 30 32 
43 48 49 46 49 45 53 52 53 51 57 54 55 57 56 55 55 55 55 55 54 52 56 56 57 58 60 60 59 61 59 58 55 57 52 58 54 59 57 59 59 56 56 56 51 47 46 50 45 48 45 44 40 42 40 36 36 41 39 36 40 36 36 38 40 43 38 38 37 34 31 30 28 28 27 32 33 34 37 37 
48 46 44 40 42 38 43 52 49 50 56 56 55 54 58 57 53 51 57 53 53 56 57 56 55 60 59 58 56 60 57 58 59 58 54 52 55 56 59 59 60 57 57 56 54 50 49 46 45 45 43 45 42 38 40 34 37 39 38 37 36 35 38 38 37 40 40 37 40 33 26 30 27 30 27 29 32 33 35 39 
42 45 47 42 39 35 39 43 44 43 47 53 54 54 56 56 55 58 57 52 53 55 55 57 50 55 55 57 57 56 56 54 55 56 52 54 52 54 55 54 56 54 53 52 52 48 49 47 47 47 45 41 37 35 34 31 35 38 36 36 36 37 38 40 38 38 37 39 35 33 32 30 28 26 31 35 32 34 34 36 
43 45 43 41 36 33 33 33 33 39 44 44 46 51 54 54 56 55 56 53 53 51 55 50 52 53 55 52 52 53 51 53 50 50 51 52 47 51 52 53 51 53 54 48 51 47 49 45 45 44 46 39 35 33 33 32 27 33 33 33 35 36 36 37 38 39 37 36 34 31 29 29 27 26 30 35 35 35 33 29 
40 40 40 41 32 29 31 33 29 33 36 37 38 44 47 52 56 55 57 50 46 51 50 49 49 51 55 50 53 53 53 49 49 50 45 47 45 48 49 48 46 44 46 50 49 49 44 41 44 45 44 39 38 34 34 29 32 36 34 37 36 31 35 35 36 40 35 36 33 32 29 28 24 26 27 30 30 31 28 26 
34 34 36 40 38 30 26 32 28 34 32 30 30 36 37 41 49 50 49 46 48 45 44 45 48 51 53 50 48 51 50 49 48 51 45 44 45 46 46 47 44 43 44 47 46 49 43 47 43 40 45 37 34 32 32 29 31 34 34 34 33 35 35 38 35 34 37 31 35 32 26 28 24 23 26 27 28 30 27 28 
31 35 36 40 38 36 34 34 32 31 34 34 36 39 38 40 37 41 43 42 45 45 47 48 47 49 53 47 50 52 50 48 46 46 41 41 41 44 44 45 44 44 45 48 48 48 45 44 46 43 43 39 37 37 35 36 34 37 35 35 33 34 36 37 36 41 37 31 34 31 29 25 25 26 25 27 29 33 27 34 
32 36 32 36 41 38 32 34 36 30 32 33 32 35 37 37 39 37 40 41 39 41 46 46 44 45 50 49 49 46 46 46 44 44 41 40 42 47 45 46 45 48 49 49 46 44 46 44 47 44 39 38 36 36 35 35 35 35 34 34 38 35 40 36 35 36 36 31 34 32 32 28 24 18 22 25 25 28 27 34 
30 31 30 37 43 34 34 37 35 30 37 36 36 33 35 37 35 36 38 36 38 40 44 43 43 44 45 45 47 48 44 45 47 43 38 42 46 44 43 44 45 46 47 47 44 44 45 46 44 43 38 39 37 36 34 35 37 35 33 38 37 34 38 34 34 33 34 33 31 28 30 25 21 23 23 22 25 25 22 27 
31 33 34 39 40 39 36 42 37 38 38 38 33 33 32 32 31 33 37 37 38 39 39 39 40 41 40 43 46 47 45 45 44 46 42 44 46 43 42 44 43 43 42 45 45 45 45 43 42 42 40 40 37 38 39 37 37 37 38 39 38 36 35 38 33 32 36 31 34 28 30 28 23 23 21 20 23 21 22 27 
34 36 34 43 41 37 39 42 42 42 41 39 36 33 31 35 33 33 33 36 32 36 40 37 38 42 42 44 44 42 46 43 42 44 42 43 45 44 47 44 40 38 38 41 43 42 41 42 40 40 40 39 41 42 42 38 38 38 38 40 39 37 36 36 34 34 34 32 34 31 25 28 23 17 22 18 15 22 21 22 
36 38 36 42 42 40 40 39 39 43 41 43 36 40 33 34 36 37 34 35 37 36 38 36 37 37 39 39 42 43 43 45 41 44 44 41 42 43 41 41 37 34 37 39 39 38 40 42 44 41 42 40 42 43 44 38 41 43 36 39 35 37 35 36 34 34 35 33 34 31 26 25 22 21 19 19 18 16 24 24 
36 36 37 43 44 43 42 43 40 42 44 38 43 38 39 35 33 38 38 39 38 39 34 42 38 38 39 37 43 45 43 45 43 43 41 42 41 44 40 40 38 37 39 39 39 41 41 38 44 42 43 43 41 42 43 37 41 39 37 39 39 37 36 37 34 36 31 33 35 27 27 27 25 17 18 20 19 17 17 20 
39 38 37 44 43 43 45 37 39 40 39 44 41 42 39 40 37 38 37 39 39 42 40 45 38 38 40 37 40 43 45 46 40 39 36 36 40 42 40 40 41 41 40 37 44 42 40 43 41 44 39 38 42 42 42 44 40 39 39 39 41 38 38 36 37 40 36 32 32 28 26 26 25 20 19 18 19 26 20 21 
37 37 36 41 43 45 38 40 40 36 39 37 39 43 41 37 39 36 39 38 44 40 44 46 41 46 43 43 44 45 43 46 44 43 44 49 44 42 42 40 40 35 38 39 42 42 41 46 42 44 45 41 45 36 42 41 44 44 40 39 41 35 37 36 35 35 33 32 29 29 27 23 19 21 20 19 20 19 23 24 
37 40 42 45 48 46 38 43 39 42 37 42 39 41 39 40 41 37 38 39 42 41 48 44 44 44 43 45 44 44 44 44 42 46 45 50 44 43 42 43 38 35 39 42 46 44 45 41 45 42 42 38 39 38 40 42 41 41 40 38 40 37 38 38 35 37 28 32 29 29 28 23 22 19 19 20 20 22 21 22 
39 41 42 42 46 42 42 42 40 36 38 36 33 42 38 40 37 36 37 40 41 45 45 49 47 50 51 49 51 43 43 48 46 48 53 52 49 49 43 41 38 41 39 41 45 48 47 46 47 40 41 40 40 37 39 38 42 46 42 41 37 38 36 37 31 35 32 32 31 29 27 24 20 18 17 18 21 22 20 21 
41 42 44 43 42 41 42 40 36 35 39 38 37 42 39 40 39 38 36 39 38 41 45 45 47 49 50 51 49 45 43 44 48 52 53 53 52 48 43 42 38 40 43 45 47 45 44 45 43 40 44 40 40 41 41 38 40 42 39 39 37 37 38 35 31 33 33 34 31 29 26 21 18 20 20 18 21 19 23 18 
45 43 46 46 41 41 38 38 38 38 37 36 37 40 43 44 37 36 41 42 37 43 47 47 48 51 52 48 47 49 50 47 46 51 51 57 53 56 42 45 37 39 50 48 44 47 46 43 45 41 45 42 42 41 40 41 43 41 38 39 35 36 39 34 30 31 30 28 28 26 19 16 13 11 16 12 17 15 23 16 


