P2
80 60
1160
124 120 178 182 216 627 935 995 968 587 209 147 152 155 239 666 1006 1011 811 551 493 438 269 133 113 102 93 90 89 87 91 86 82 83 92 100 110 90 78 80 80 79 84 88 82 85 80 81 79 77 79 78 81 81 86 77 76 72 67 70 72 70 60 61 60 60 58 59 60 54 52 52 50 52 54 48 44 47 41 38 
124 133 199 204 345 716 879 921 889 495 207 146 149 157 271 790 1076 1096 916 585 509 436 219 138 127 113 101 95 90 100 119 124 113 121 177 361 342 158 86 79 72 72 70 75 78 83 82 76 74 77 76 72 78 77 83 80 72 72 65 66 68 62 59 64 61 57 55 57 52 50 49 44 45 48 43 44 45 43 36 38 
147 161 207 272 506 732 868 885 812 524 248 171 173 200 324 840 1039 1054 904 443 272 242 156 140 137 121 99 94 93 109 138 129 128 142 276 648 564 309 119 94 87 79 72 75 68 81 72 60 62 64 63 61 65 68 72 79 72 70 67 68 69 67 61 59 60 59 48 56 52 48 42 38 38 42 39 36 35 39 31 35 
157 172 223 247 407 621 675 672 619 474 327 268 264 298 489 796 921 946 725 352 232 229 142 146 148 136 104 93 99 127 139 119 133 158 247 457 527 273 118 113 104 98 91 92 83 85 75 69 66 65 66 58 63 59 59 66 63 67 65 65 61 61 60 58 57 55 49 50 46 45 42 41 34 35 36 33 32 30 30 31 
160 183 221 242 565 911 965 940 794 518 370 335 339 408 599 730 739 715 573 379 292 229 191 177 162 153 113 110 140 290 203 117 117 186 218 181 176 151 125 117 111 102 96 98 88 95 90 87 83 77 63 57 66 60 59 60 55 56 51 54 53 59 54 50 56 52 44 40 44 40 39 38 31 34 34 25 30 32 30 32 
163 206 232 276 701 975 1026 1004 736 425 375 366 379 448 726 1018 1057 1029 886 636 356 274 235 215 200 187 177 171 217 430 281 126 153 296 254 194 122 129 120 127 124 118 108 93 85 93 89 81 77 75 74 64 67 64 61 66 62 55 47 45 43 46 40 38 43 48 47 44 43 40 39 30 32 31 32 29 25 31 30 31 
171 219 247 335 811 1004 1042 999 683 423 384 383 399 425 641 1058 1109 1088 891 448 316 299 250 210 195 177 178 166 162 164 159 148 161 245 217 170 131 120 131 130 129 128 117 109 90 89 96 76 70 77 75 71 68 69 69 64 71 71 71 67 63 49 44 41 41 41 37 38 39 33 27 33 30 36 33 28 28 31 28 30 
181 235 278 438 899 1020 1051 986 640 432 390 397 418 473 772 1076 1104 1088 863 410 311 303 266 219 198 186 179 164 150 144 143 137 129 230 267 245 134 128 130 139 133 136 125 125 117 119 118 95 82 80 79 66 66 64 63 63 62 71 71 78 76 67 63 65 58 50 43 38 35 28 26 26 21 25 22 23 30 31 27 27 
192 251 267 552 941 1028 1054 964 597 445 408 404 434 570 879 1091 1118 1078 846 414 313 307 279 228 201 192 183 175 164 151 147 143 127 128 121 127 125 129 120 126 118 112 106 121 121 128 132 130 114 103 89 78 77 74 69 63 61 69 86 79 81 79 78 76 75 66 55 49 37 33 30 29 21 23 26 20 33 31 28 30 
212 266 284 666 971 1044 1048 933 571 443 403 402 440 609 909 1104 1121 1079 841 421 319 309 281 245 212 200 189 184 175 162 157 147 135 136 122 120 131 135 116 118 113 112 89 96 104 109 125 131 110 113 117 117 110 100 80 70 64 65 79 89 89 86 88 78 77 72 70 56 47 46 39 39 26 25 25 24 32 27 34 33 
228 267 334 783 1000 1054 1046 900 560 412 385 400 430 520 885 1119 1130 1080 810 409 316 301 276 247 217 204 195 184 179 165 158 147 138 139 122 117 131 138 122 125 119 112 93 92 100 107 116 128 114 103 115 97 88 88 76 72 69 67 67 82 88 88 85 78 75 77 66 58 58 55 57 43 37 39 38 37 39 36 36 37 
243 261 406 866 1015 1056 1026 853 531 405 383 395 422 493 897 1116 1129 1071 779 371 309 298 263 226 208 197 192 188 179 170 157 150 143 140 123 114 127 143 131 134 123 118 102 97 109 114 117 135 122 115 110 98 91 85 76 72 74 69 69 75 88 91 82 76 80 70 69 63 65 65 58 50 50 52 50 54 53 44 40 42 
252 261 496 924 1018 1046 1011 753 462 390 375 386 412 498 919 1117 1122 1067 773 362 306 290 253 223 203 199 189 179 174 161 158 150 145 144 129 114 122 142 133 135 128 122 111 105 112 119 121 139 128 118 109 106 106 101 95 81 82 81 81 77 88 99 91 93 86 76 70 71 69 64 66 63 59 60 56 63 61 55 47 56 
248 252 575 910 995 1013 959 619 420 374 368 381 409 554 970 1102 1115 1063 751 340 304 284 250 224 207 197 191 181 173 159 162 152 150 151 137 126 122 143 138 139 132 127 118 113 114 120 124 134 137 120 116 107 109 107 108 104 96 86 79 84 83 89 94 94 86 76 75 74 73 60 64 71 66 59 66 61 61 63 60 58 
227 247 423 564 651 705 679 461 377 350 350 371 446 683 993 1066 1082 1033 717 334 290 280 248 241 218 208 192 188 181 165 164 160 151 151 136 124 128 150 145 139 139 140 124 124 121 126 122 134 143 122 121 111 113 115 113 117 105 98 84 79 76 87 96 91 83 81 85 77 67 66 72 95 89 78 81 76 67 80 71 66 
207 211 235 255 277 293 292 284 272 272 279 292 333 428 570 662 719 742 556 301 273 266 246 239 220 204 188 189 183 177 170 165 158 156 144 121 130 151 149 143 140 141 131 128 122 129 127 128 149 127 119 114 114 115 117 115 108 99 88 86 86 84 91 86 85 88 84 77 75 70 81 105 121 88 86 84 77 81 72 73 
288 259 256 275 287 292 293 284 272 267 264 264 275 291 307 315 308 299 286 266 269 265 264 262 253 243 230 220 217 201 198 184 177 169 159 133 122 151 159 151 144 145 139 134 125 134 130 133 151 143 125 120 120 117 120 117 110 105 96 100 97 92 90 88 89 91 87 81 80 82 90 95 103 94 90 87 84 84 77 73 
484 335 308 436 426 405 402 385 378 359 351 343 348 351 355 345 325 315 299 290 288 278 275 270 257 252 246 248 251 244 241 239 236 232 219 200 187 186 181 155 143 138 139 138 119 129 132 134 149 152 137 127 124 119 120 120 117 111 105 103 99 97 98 90 86 86 84 79 86 93 95 97 96 94 94 90 85 88 77 77 
317 300 328 353 359 373 373 380 379 389 404 418 442 463 476 470 453 442 419 403 389 370 360 353 335 324 313 306 294 283 273 268 255 252 239 225 223 216 206 175 143 133 132 139 115 118 127 132 145 150 130 128 123 123 124 129 115 108 104 104 107 100 92 94 88 81 68 80 96 101 97 96 95 99 87 91 84 86 76 79 
416 524 568 536 500 458 412 360 320 314 321 331 359 381 397 397 387 384 382 379 386 394 411 427 431 435 441 439 430 418 408 391 368 350 325 304 290 277 243 198 143 131 121 125 107 107 119 128 136 130 129 125 127 125 125 119 117 112 107 108 105 100 94 91 84 73 76 77 84 91 98 97 93 95 89 89 89 87 84 80 
567 849 965 971 961 920 759 568 366 299 300 333 480 578 689 649 591 541 430 356 333 321 330 347 345 344 343 348 349 351 364 374 387 403 410 416 429 473 414 227 146 133 121 102 69 78 98 105 108 112 123 119 122 122 119 121 113 110 102 105 101 98 93 93 81 82 82 86 85 83 86 85 88 93 91 92 86 89 80 76 
464 873 1015 1040 1037 976 658 459 352 299 287 355 626 822 1077 1078 1064 1004 718 473 324 287 362 542 574 567 535 461 374 327 303 288 279 284 284 279 289 296 286 224 145 138 141 114 77 80 87 95 89 89 96 106 117 116 117 121 117 108 104 101 99 95 95 86 86 89 87 88 82 83 84 78 74 79 87 87 84 87 76 82 
394 852 1016 1046 1043 960 539 361 331 294 288 355 631 875 1110 1125 1120 1057 777 528 341 299 430 605 724 754 725 597 490 369 344 379 320 269 225 196 190 203 209 195 142 138 152 128 113 100 91 87 80 82 86 100 117 117 117 119 112 105 103 100 97 94 90 89 85 91 86 88 88 87 88 79 68 75 81 89 86 83 87 96 
353 780 1006 1047 1047 1015 805 535 366 288 287 361 629 895 1125 1123 1121 1060 785 544 337 381 615 631 635 709 648 436 372 348 363 456 394 461 452 301 177 168 174 155 139 134 143 131 121 114 100 87 82 78 87 86 102 114 115 111 115 102 96 97 92 92 93 93 92 93 92 94 90 88 85 85 75 68 77 88 90 86 104 145 
319 621 971 1036 1053 1050 1018 901 616 336 299 418 693 924 1125 1120 1121 1067 796 511 338 540 690 698 670 594 452 339 316 381 478 478 368 325 434 303 182 196 244 177 148 139 131 133 126 122 115 94 82 82 82 83 98 106 108 115 110 100 101 100 99 93 97 95 99 97 93 92 93 91 88 88 80 69 74 77 89 95 105 148 
311 502 900 1022 1052 1062 1058 997 825 503 339 400 656 928 1125 1128 1120 1076 777 426 366 640 740 767 743 649 456 343 325 450 546 439 315 266 263 207 200 303 312 256 207 152 135 136 128 126 120 111 79 84 81 84 96 97 97 106 107 102 97 93 90 94 96 98 100 101 97 95 95 88 91 91 87 74 68 76 83 101 104 126 
335 547 756 964 1038 1061 1064 954 909 888 604 412 483 877 1136 1124 1126 1072 741 369 406 670 765 785 764 722 603 405 392 491 521 382 282 263 241 195 219 287 317 299 445 220 144 139 131 130 125 120 98 82 90 88 91 90 95 92 97 98 94 91 93 94 98 100 100 99 97 98 95 90 89 93 83 75 63 77 79 110 124 188 
312 491 592 743 957 1023 974 874 966 1019 939 740 536 918 1134 1119 1118 1066 701 330 424 655 749 787 773 726 618 563 617 592 537 393 449 291 236 218 223 250 255 338 508 409 177 145 134 127 125 120 112 95 90 86 85 87 91 94 89 95 90 94 92 92 95 97 100 97 99 97 98 92 93 96 90 83 67 77 80 113 178 241 
282 308 356 408 703 832 790 865 1008 1026 1011 977 940 1072 1128 1109 1105 1052 643 302 353 485 687 726 683 588 541 538 612 649 638 666 652 305 218 209 229 246 258 373 423 513 303 155 136 127 121 120 117 105 99 88 86 83 79 89 91 90 92 103 97 94 96 97 96 101 97 96 96 96 94 96 91 90 78 76 120 175 242 293 
235 184 190 218 331 540 630 850 986 1028 1011 996 1035 1121 1131 1110 1099 1034 606 275 309 380 566 592 526 464 466 504 546 642 729 695 546 255 209 217 236 248 286 352 503 565 303 160 132 126 120 121 118 113 98 89 88 76 79 85 84 87 88 92 97 97 95 93 96 99 97 96 97 96 101 104 95 92 109 142 188 219 255 284 
173 145 155 168 210 249 300 543 846 986 1017 993 1011 1109 1111 1081 1080 1016 583 236 260 301 372 421 369 273 229 306 358 480 745 724 492 241 217 229 252 268 365 534 646 437 233 154 134 126 121 120 116 117 103 92 82 71 76 80 81 85 90 90 95 93 91 91 96 97 94 96 97 99 104 109 107 126 174 201 210 233 268 289 
172 147 153 163 185 169 184 248 401 746 962 972 900 977 988 1004 1006 965 606 241 210 217 247 281 279 246 214 262 293 326 548 615 355 238 265 262 276 418 612 659 488 281 191 143 128 125 120 119 117 115 110 91 78 77 72 66 65 73 86 87 83 72 73 82 94 94 91 95 96 95 111 121 127 176 204 211 228 251 280 318 
178 154 161 163 183 163 174 186 212 323 669 829 811 951 1061 1101 1084 1019 859 466 228 198 200 201 195 188 195 219 251 340 582 517 269 276 413 419 356 539 654 494 295 217 145 141 124 124 117 116 112 110 111 104 97 77 56 53 50 58 62 75 74 72 68 71 76 85 91 94 92 113 139 142 162 202 216 222 239 275 332 369 
182 153 158 163 181 169 171 176 179 212 357 688 887 1066 1146 1151 1140 1114 979 707 278 196 193 194 190 185 183 202 358 674 679 494 239 250 293 436 406 591 635 382 262 165 150 145 125 123 124 119 113 114 120 124 90 58 48 33 30 33 40 54 67 69 73 73 72 68 73 84 97 167 252 191 201 220 227 240 274 340 386 388 
185 152 160 160 185 170 169 172 175 193 238 472 855 1072 1150 1151 1142 1111 843 440 235 198 203 203 196 194 195 274 450 598 490 373 261 257 228 313 399 600 643 496 231 142 165 145 125 120 121 123 118 118 116 96 67 51 33 39 44 42 30 33 46 60 69 75 75 60 50 56 81 162 280 215 213 223 235 277 336 390 400 385 
188 163 165 167 178 167 177 173 174 187 228 474 893 1073 1149 1156 1148 1096 621 283 232 205 224 222 202 198 199 314 488 506 339 383 350 300 245 218 245 315 344 322 187 171 174 138 120 119 120 124 118 117 115 77 64 49 32 51 72 50 36 26 28 34 45 61 65 58 47 53 70 95 137 187 213 229 269 336 385 409 397 364 
194 171 174 176 188 178 186 174 179 192 241 562 934 1079 1155 1156 1147 1112 871 724 436 275 294 369 519 386 229 365 779 557 375 530 752 774 324 192 194 255 265 224 182 177 174 132 122 120 120 122 122 121 116 93 84 62 45 44 43 60 37 27 29 24 32 36 42 48 47 62 70 88 104 172 212 246 299 377 399 407 392 358 
207 189 187 188 194 192 199 176 173 195 266 625 927 1091 1153 1160 1155 1132 1045 978 898 867 848 821 924 756 388 544 684 552 429 617 738 813 270 161 167 252 231 165 155 172 168 137 121 122 122 124 118 123 115 105 101 76 57 36 26 51 42 31 30 33 27 19 22 31 46 62 68 77 99 180 219 254 330 386 403 407 389 357 
267 244 235 221 231 226 221 190 181 205 347 767 957 1097 1150 1153 1151 1137 1078 1020 1030 1065 1057 1065 982 976 991 892 639 688 878 623 504 421 214 189 204 240 217 186 197 211 161 134 125 121 121 123 121 115 114 109 119 100 88 56 41 16 12 28 41 40 42 28 17 26 43 57 54 63 108 186 224 271 351 370 399 403 385 357 
707 657 581 399 501 498 320 212 183 209 381 822 975 1099 1144 1152 1144 1119 1055 1033 1082 1090 1086 1103 1025 1017 1057 923 773 863 898 402 282 237 210 253 254 247 231 222 224 216 156 134 126 122 121 121 120 118 116 112 117 120 106 65 35 1 0 30 41 49 59 49 30 26 35 37 38 48 99 184 223 260 289 328 388 400 383 365 
954 949 865 630 869 770 378 227 186 208 322 654 938 1089 1137 1139 1132 1090 1017 1048 1074 1094 1088 1082 1022 945 811 714 751 762 721 375 261 229 215 252 251 240 231 248 263 230 151 137 126 122 122 121 118 118 113 110 109 118 116 81 37 12 15 45 37 53 63 57 32 29 31 29 31 38 81 176 211 237 252 297 377 395 383 373 
988 989 858 647 934 822 381 223 189 213 285 474 825 1048 1124 1129 1098 997 812 940 1084 1083 1071 911 863 558 304 301 419 443 283 303 258 230 201 250 250 222 233 314 282 213 143 136 127 126 121 117 116 117 113 112 110 121 116 93 64 49 27 22 28 28 28 32 29 19 25 31 37 39 74 169 210 231 234 290 360 384 385 374 
903 906 838 678 914 792 380 228 184 210 284 450 815 937 990 1013 945 721 426 678 1011 1042 937 454 315 263 244 245 276 288 228 278 255 222 202 251 250 220 321 383 245 195 140 135 128 121 123 117 118 117 113 113 110 107 115 105 76 38 35 39 34 29 32 28 18 8 20 34 45 44 70 146 201 226 234 271 338 377 380 380 
440 455 458 429 558 537 338 231 184 208 280 450 849 863 795 842 824 450 302 459 686 616 420 261 230 227 228 224 251 270 227 266 257 227 214 254 250 300 472 300 218 182 137 132 128 124 118 117 119 119 119 110 106 102 108 98 58 45 38 33 30 27 28 28 19 8 3 28 48 56 65 122 181 221 221 251 310 358 380 383 
276 270 294 283 293 338 250 190 181 199 246 395 822 910 911 918 777 353 289 343 364 325 286 233 217 239 222 222 254 253 223 250 257 236 239 259 256 310 431 234 214 171 134 132 123 118 114 118 120 119 118 108 106 96 105 107 90 54 33 31 32 27 30 27 26 24 23 20 33 68 85 109 162 207 219 242 277 328 374 384 
240 205 215 245 242 291 222 176 180 189 234 440 894 938 955 936 685 297 285 300 292 292 268 230 246 253 228 216 216 199 209 237 261 244 267 309 260 277 308 227 214 160 130 131 123 122 117 117 114 115 114 105 105 99 103 105 80 45 29 25 30 34 30 35 36 32 35 22 36 72 87 101 140 195 207 224 237 286 362 382 
239 203 212 245 236 268 217 168 178 192 265 585 932 972 1016 981 584 290 337 637 624 344 286 286 439 572 411 266 226 215 231 251 268 258 423 519 292 245 237 247 262 159 131 132 123 119 115 115 114 115 114 107 107 104 101 106 83 43 16 5 28 38 36 40 35 38 45 37 57 78 83 92 113 160 183 201 210 273 356 374 
234 207 212 226 228 266 217 171 177 197 317 727 960 1011 1024 970 619 512 652 941 942 819 854 811 896 931 756 388 349 387 529 435 307 274 515 642 333 241 246 335 307 159 127 129 122 120 117 113 111 111 111 108 110 102 102 107 88 42 9 17 31 37 30 34 36 37 40 52 67 75 82 84 95 122 155 182 208 293 355 370 
294 259 249 243 261 285 228 173 174 191 319 736 965 1006 1012 946 809 996 1050 1040 1046 1087 1113 1112 1104 1040 962 721 828 947 966 867 402 279 500 652 385 250 263 393 309 155 128 126 118 117 114 111 108 111 109 108 109 102 97 105 98 78 44 21 25 33 31 36 45 45 59 64 72 74 76 75 80 94 124 161 210 303 341 354 
759 679 511 564 557 363 276 180 169 185 264 521 871 988 996 868 835 1057 1074 1038 1037 1102 1134 1141 1127 1047 1020 1028 1058 1074 1073 982 471 284 559 923 502 263 284 369 257 141 119 124 119 113 111 109 108 108 107 105 113 104 88 95 100 93 48 32 34 44 56 59 64 67 90 106 88 80 78 73 75 79 99 136 190 249 292 327 
1019 917 658 839 794 397 282 183 166 173 233 323 487 629 640 547 687 800 895 999 1042 1110 1130 1133 1122 1051 991 899 872 869 862 792 440 284 466 748 471 264 285 368 210 126 115 116 107 108 102 102 100 104 105 98 102 100 93 84 93 93 68 53 53 63 79 77 75 97 175 131 88 80 73 74 67 74 85 110 143 188 216 255 
1014 910 585 867 732 370 269 177 164 169 213 265 308 342 353 345 309 337 517 875 994 1089 1120 1094 956 933 704 362 321 321 307 293 280 259 266 259 260 247 245 226 144 108 94 96 86 86 84 80 86 82 80 74 76 74 73 75 87 91 88 86 63 60 86 88 82 102 140 101 92 82 77 73 68 69 73 84 99 124 149 172 
908 821 540 834 712 340 253 173 158 163 198 242 264 280 280 254 241 253 334 498 883 1061 1072 922 499 429 315 241 223 217 214 205 232 245 228 191 208 240 224 160 123 105 97 96 86 78 71 74 67 71 73 65 79 79 71 73 79 99 107 95 68 55 77 98 91 91 97 87 91 91 81 80 76 72 69 75 78 90 103 112 
515 506 401 552 526 280 234 163 153 161 200 232 239 239 229 219 215 229 289 349 515 673 636 445 276 239 216 204 200 194 189 191 214 245 230 184 191 228 222 175 126 102 94 97 84 85 82 78 74 77 78 77 85 83 76 68 75 99 99 94 78 59 65 93 106 89 84 72 88 93 83 83 77 72 70 74 77 86 92 96 
252 246 270 259 252 231 210 155 154 160 188 210 213 214 215 206 211 218 248 266 284 323 308 274 221 200 198 195 192 187 186 186 205 237 224 190 181 224 226 182 119 91 83 89 80 82 74 76 71 74 71 75 80 82 75 66 55 69 94 97 97 79 66 79 104 96 84 81 93 91 93 84 77 79 85 83 80 81 86 87 
214 203 212 209 197 206 195 152 150 159 177 196 205 204 207 206 204 210 215 235 257 266 253 221 200 194 192 191 186 185 184 180 197 240 229 194 180 221 226 193 116 89 85 87 78 73 67 66 66 68 73 73 83 79 82 79 56 65 89 102 101 104 80 88 128 116 94 85 90 90 95 91 86 84 86 84 82 84 83 91 
207 194 201 209 193 192 180 145 146 154 173 193 202 200 200 200 199 206 201 207 210 207 208 203 194 186 188 189 188 182 178 177 192 237 233 247 300 288 231 208 134 107 89 92 82 71 66 73 76 76 72 76 79 84 87 90 72 65 86 103 101 113 105 106 137 119 97 82 84 92 92 92 86 87 80 78 77 85 83 85 
197 194 200 198 192 185 173 142 141 146 168 190 199 194 199 199 198 201 198 201 202 196 199 200 187 184 185 188 185 182 180 176 189 238 245 286 334 319 244 223 169 128 108 101 89 84 80 85 86 85 83 85 87 89 94 95 89 85 96 104 103 116 111 95 113 118 104 85 86 88 89 93 88 90 88 79 79 84 83 83 
196 190 190 192 186 182 168 141 138 143 165 188 199 197 199 200 202 202 196 199 198 195 196 199 191 186 186 185 181 181 182 179 190 249 252 320 427 334 250 234 204 145 120 108 99 96 95 97 101 101 96 95 98 98 103 107 103 100 103 101 106 109 108 91 101 110 109 89 83 87 90 94 91 91 86 79 82 82 78 86 
201 189 193 191 187 181 172 140 145 146 167 193 198 198 203 200 204 202 198 199 199 198 199 201 193 194 190 189 185 182 186 184 192 265 254 271 314 237 239 238 225 162 129 122 105 100 97 103 111 112 107 106 113 107 109 117 121 120 113 110 109 113 115 107 107 116 112 89 88 89 98 103 93 89 90 83 85 91 82 87 


