P2
80 60
331
38 46 40 56 73 95 125 164 159 156 134 115 102 115 117 99 67 73 110 127 111 66 61 46 53 49 51 49 44 46 47 35 34 56 54 58 52 53 61 62 61 58 63 59 57 46 48 63 65 61 44 50 60 60 72 79 81 85 89 93 97 104 98 108 101 111 96 78 72 62 83 72 65 65 61 66 64 54 55 49 
62 84 98 118 138 151 160 209 183 129 110 77 71 105 123 111 73 77 96 126 125 76 57 49 53 54 54 54 44 53 59 52 42 54 55 57 51 57 55 56 64 63 65 62 63 63 56 59 67 71 62 63 72 78 92 98 105 110 106 109 103 90 89 80 84 95 107 96 88 81 73 56 55 61 51 48 45 47 44 42 
150 187 185 168 151 149 134 151 150 112 75 58 63 87 114 118 85 72 88 130 129 88 65 53 54 56 56 53 46 55 53 50 48 48 59 59 52 57 59 58 62 59 68 65 64 64 67 68 72 76 90 90 104 109 119 115 116 106 100 95 86 77 74 68 82 100 106 99 86 71 73 60 51 44 42 38 42 36 31 27 
224 227 191 148 137 129 105 95 105 90 70 52 55 74 113 127 93 71 80 120 131 105 65 52 56 51 57 59 49 54 55 55 55 50 49 55 54 58 60 62 61 59 64 66 66 66 78 90 100 115 121 123 128 125 115 106 102 88 83 77 76 81 88 84 81 78 95 91 83 70 56 48 40 35 29 29 31 21 20 14 
168 149 121 104 107 128 104 79 91 83 85 70 59 72 108 133 116 83 70 116 137 120 85 58 58 60 56 61 50 56 55 56 57 57 56 52 59 59 58 62 66 68 76 89 92 110 121 129 145 137 137 122 120 117 103 99 87 86 91 95 90 101 97 92 87 79 72 72 69 62 52 43 40 31 28 25 19 13 8 8 
97 80 72 63 69 102 103 74 71 78 82 74 63 75 108 131 122 92 73 98 125 117 98 64 60 54 60 64 53 58 62 55 55 54 54 58 57 61 64 79 86 91 108 124 132 142 140 142 135 118 123 98 101 100 99 104 105 93 100 108 105 103 74 85 74 66 64 60 57 51 48 40 41 28 26 16 15 8 1 6 
64 54 44 48 63 69 83 64 62 64 80 72 74 68 89 126 129 104 71 79 106 112 96 64 60 55 58 61 55 59 58 55 60 57 58 64 67 75 96 115 126 134 140 146 142 135 123 124 107 102 93 96 103 120 113 118 125 110 103 88 86 79 71 65 67 61 60 55 56 47 37 34 29 23 21 12 15 6 0 3 
46 49 45 45 46 58 60 59 60 58 69 70 64 60 86 99 115 103 78 75 100 119 120 63 63 54 57 59 56 61 60 68 63 60 75 93 105 116 130 137 145 144 136 126 125 109 104 101 95 107 115 106 128 129 129 120 108 102 88 78 76 69 65 67 59 56 49 48 47 36 33 27 25 22 15 15 11 8 1 1 
42 46 51 47 50 54 59 61 61 51 62 62 57 66 66 89 112 111 76 79 104 130 132 90 57 56 56 60 59 64 66 87 90 109 124 142 145 150 150 142 129 124 118 107 102 104 107 121 120 135 132 132 130 107 114 106 97 87 81 68 71 72 62 57 55 51 44 44 40 32 30 28 22 24 20 21 20 10 3 6 
49 48 48 48 51 55 55 54 53 53 62 60 61 62 65 89 115 133 89 74 93 126 141 103 63 64 61 66 73 85 101 122 130 147 161 157 143 133 130 115 105 103 102 114 129 128 137 145 142 137 124 116 107 96 92 88 85 79 76 67 69 65 55 49 49 45 45 44 40 33 30 26 28 25 24 29 20 19 7 8 
47 44 47 52 49 50 51 54 53 50 57 58 59 58 56 82 121 147 107 72 72 118 142 130 91 68 84 94 111 122 135 136 139 141 136 134 113 107 99 105 112 119 127 137 143 147 140 129 125 114 106 93 87 86 89 83 86 80 75 67 61 55 54 49 45 42 43 38 42 37 34 31 25 26 25 23 17 21 8 13 
44 42 43 44 46 46 47 53 52 54 53 56 61 63 63 73 110 147 143 80 71 105 146 141 126 113 126 134 138 142 137 118 114 109 91 93 96 111 121 119 137 143 146 149 141 129 117 110 102 100 93 91 88 92 87 86 83 79 75 66 69 63 59 57 57 51 45 47 47 42 33 33 30 32 27 34 26 20 10 14 
48 45 43 45 45 49 48 49 54 51 57 58 60 57 65 70 100 136 137 98 67 93 134 144 150 147 139 131 125 120 106 85 82 84 81 104 116 140 147 147 147 137 130 122 112 107 102 97 91 93 94 89 86 86 85 81 76 76 81 73 70 61 59 57 57 55 50 58 54 43 40 38 41 39 33 35 34 28 24 22 
47 43 42 45 45 53 48 50 53 51 53 53 56 58 62 66 82 135 136 110 69 66 114 133 137 133 122 109 100 85 84 82 90 108 125 148 151 156 151 127 117 109 105 100 96 94 95 97 89 91 92 88 90 87 83 86 85 82 81 75 70 62 63 60 63 62 56 57 56 53 44 44 43 42 42 43 43 32 29 27 
43 40 43 43 44 49 45 48 55 54 56 55 60 60 62 64 71 122 134 128 76 68 72 97 100 96 92 91 89 95 107 125 130 147 156 156 140 128 117 105 97 92 88 87 86 90 84 93 89 87 91 87 90 91 85 88 83 80 79 77 74 66 67 70 62 62 62 56 62 55 49 46 45 50 45 46 38 38 30 30 
39 39 42 44 47 51 48 55 55 52 52 56 57 58 59 65 64 108 135 137 94 69 71 76 74 81 93 111 122 131 142 154 150 139 127 118 103 88 87 83 82 85 83 84 87 86 85 88 89 85 89 84 87 86 89 85 82 83 79 79 76 71 71 66 60 64 57 57 62 51 48 46 46 48 49 48 45 40 34 32 
42 45 41 43 47 51 50 53 53 56 57 56 63 60 63 64 64 87 130 142 115 82 71 77 96 114 129 142 148 147 143 126 114 104 91 86 74 72 77 77 76 80 80 88 86 86 85 87 83 83 82 86 86 83 82 86 81 82 80 77 76 71 70 69 62 60 60 57 59 52 54 49 49 51 45 51 41 39 40 34 
43 44 44 49 50 50 54 54 59 59 57 58 60 57 61 59 61 79 123 148 143 105 116 120 131 137 145 144 128 114 102 97 83 83 75 76 65 61 72 71 77 75 81 86 85 83 88 85 83 82 87 80 86 83 85 80 78 81 80 76 74 73 71 70 63 63 60 59 58 54 54 47 49 49 46 47 41 40 37 36 
44 43 45 44 48 49 51 54 57 56 56 57 63 58 60 58 63 72 105 148 154 145 150 145 142 134 126 112 97 80 78 79 71 75 74 72 63 65 63 69 73 75 79 80 79 81 86 84 83 85 84 83 82 83 82 81 76 79 80 72 76 75 69 73 67 64 60 61 60 54 54 51 49 49 48 51 44 41 40 35 
46 44 42 46 53 50 53 54 58 57 56 65 63 60 62 62 60 67 88 132 143 141 146 125 114 98 90 79 71 66 71 72 70 71 72 70 64 66 64 70 70 77 79 81 82 82 79 83 83 87 82 81 84 81 83 79 76 77 76 71 76 73 70 71 66 64 65 57 59 54 54 53 46 51 46 49 45 44 40 37 
42 47 44 48 50 54 53 54 60 57 59 63 58 60 61 60 62 67 71 100 129 120 112 94 89 76 74 74 67 66 74 73 71 70 70 70 64 61 64 65 69 72 74 77 78 79 81 82 87 82 84 79 80 80 79 75 74 77 75 70 71 74 69 72 69 68 64 61 62 57 55 55 51 52 50 49 46 44 39 35 
50 42 49 48 54 52 59 53 59 66 64 64 60 60 64 61 65 65 68 81 88 88 85 77 73 68 67 74 69 67 66 70 70 74 75 68 65 63 62 64 67 73 73 76 73 78 77 78 82 81 80 75 75 78 81 76 75 75 75 73 75 71 73 73 65 65 65 63 64 56 57 55 54 54 48 49 45 45 42 43 
43 44 48 49 51 52 56 59 62 67 63 65 64 60 62 64 62 70 69 70 74 73 75 65 72 69 72 72 66 67 72 71 66 71 72 72 65 61 60 59 65 66 72 74 73 76 74 78 78 78 77 73 75 75 78 78 75 76 76 74 72 73 71 71 65 67 61 60 61 56 56 54 54 54 50 50 46 43 36 38 
43 41 43 47 47 53 57 62 62 63 62 64 62 61 63 61 66 70 70 70 75 66 72 66 74 70 69 73 66 69 71 73 69 72 65 70 66 68 62 61 69 67 74 75 70 75 73 78 80 80 82 75 79 76 73 73 74 71 71 71 73 70 71 71 66 66 62 60 62 56 54 48 53 53 52 51 46 43 38 38 
45 46 52 50 54 50 64 63 68 66 68 69 65 63 69 72 68 73 72 74 76 71 73 65 67 70 71 72 71 73 70 70 70 75 70 72 66 68 65 64 69 71 74 74 75 76 77 77 79 81 80 76 82 77 73 74 72 74 74 72 70 70 71 73 71 70 64 60 63 58 55 50 54 58 56 51 50 41 36 40 
46 46 50 52 57 61 58 63 69 67 69 64 67 65 71 72 69 70 73 69 75 72 71 73 71 75 74 73 71 73 72 73 73 73 76 74 68 70 68 68 66 70 73 71 73 76 76 75 75 80 79 77 79 74 75 73 73 69 70 71 72 71 70 69 70 66 62 60 62 55 56 53 52 55 51 53 50 41 37 40 
45 47 53 54 58 58 61 66 68 64 70 65 66 66 70 68 65 70 68 74 73 71 72 69 74 73 74 74 64 75 72 73 72 75 72 72 69 74 66 69 68 71 70 76 73 73 76 74 72 75 80 75 77 75 77 66 69 75 72 70 71 70 68 70 66 65 61 58 65 58 60 61 59 61 54 59 52 42 37 38 
48 50 53 53 55 58 61 63 66 64 68 67 70 65 67 67 66 72 71 71 72 69 69 68 75 73 75 78 69 76 72 79 74 74 70 72 69 73 70 66 69 68 68 72 74 74 73 71 73 74 79 77 78 72 74 76 72 72 69 66 66 68 70 68 65 65 64 63 76 84 89 90 86 80 77 65 57 47 41 39 
51 51 54 53 57 61 67 66 67 64 68 69 69 65 66 69 69 67 68 70 71 69 71 71 74 71 74 73 71 74 71 74 71 73 76 73 69 68 66 65 68 69 65 77 72 70 72 70 72 74 77 76 75 74 76 73 72 70 71 69 66 67 65 65 63 74 78 88 113 121 126 133 118 117 111 93 79 59 44 42 
53 51 56 55 56 65 67 63 69 66 69 65 69 71 66 73 70 75 68 73 74 72 73 72 73 74 76 73 68 74 76 72 75 76 76 74 74 65 65 64 62 65 66 75 73 72 70 70 71 74 75 76 78 74 74 72 69 70 69 65 69 66 64 68 76 94 119 137 151 156 169 170 172 164 159 155 127 90 64 53 
52 52 58 58 58 58 64 63 70 69 68 74 72 71 71 69 72 69 70 75 76 69 67 70 73 71 76 76 67 73 72 72 70 77 71 74 70 67 69 65 66 64 72 68 71 68 69 68 69 74 76 77 75 73 69 69 69 66 66 64 63 63 68 74 95 136 162 179 191 196 200 210 208 208 221 221 182 140 114 87 
51 51 53 60 57 57 63 72 79 76 71 73 71 66 68 73 69 73 75 77 79 73 73 72 77 74 74 73 72 72 74 73 69 75 73 73 72 70 71 67 67 63 69 67 70 74 74 71 71 75 78 81 75 72 71 68 70 70 69 65 66 74 91 113 154 203 227 239 234 226 225 228 232 255 272 271 235 201 172 135 
53 52 55 59 56 58 64 69 72 73 72 72 69 67 71 73 71 68 76 72 72 73 75 75 76 73 76 77 70 71 70 70 70 75 74 72 69 69 72 69 63 64 67 69 70 72 73 69 73 73 74 74 71 72 73 71 69 68 64 68 75 98 128 172 216 254 278 276 268 252 233 235 240 271 287 290 277 245 206 181 
51 54 51 61 60 63 64 72 69 69 75 72 69 70 73 72 69 72 76 77 81 73 73 72 80 75 76 73 71 73 73 73 71 74 68 73 67 66 65 67 62 63 64 67 69 70 73 72 70 74 72 69 72 71 75 71 71 68 70 69 84 131 178 224 261 287 298 294 284 256 247 258 247 256 275 289 287 271 232 219 
56 55 56 58 62 63 64 69 69 70 72 71 73 69 73 71 71 73 72 76 79 76 73 71 76 77 77 74 72 74 76 72 73 75 74 70 67 66 65 62 63 67 67 66 69 70 69 70 71 71 72 70 71 71 74 69 67 70 72 79 112 170 220 261 288 301 304 287 275 263 267 282 278 269 261 287 288 278 260 254 
51 55 57 56 54 58 64 69 74 69 74 72 71 72 72 73 70 74 73 76 78 77 76 75 75 75 78 75 69 72 74 72 71 72 68 70 69 66 70 64 63 62 64 65 65 68 68 71 71 69 74 71 70 71 69 70 70 70 79 100 154 218 262 286 299 300 285 256 254 275 276 296 296 300 290 279 284 281 277 276 
56 57 55 62 59 59 65 66 73 71 74 72 71 68 70 74 72 76 72 74 73 72 73 74 76 76 77 74 70 75 75 72 72 71 70 69 65 66 66 65 63 62 64 64 63 68 71 71 72 72 71 71 69 69 69 73 70 74 90 132 198 254 284 296 294 266 240 253 284 287 291 303 308 317 319 303 295 294 291 292 
58 55 56 58 56 64 65 67 71 69 70 75 71 70 72 73 72 73 70 77 78 73 74 74 80 76 79 75 74 75 76 75 74 71 69 68 67 60 63 65 65 63 65 62 67 66 72 74 74 75 74 69 72 70 71 70 73 80 111 168 230 272 296 299 280 225 199 252 296 302 300 307 308 320 326 323 315 305 299 303 
54 56 56 57 62 63 65 70 72 68 72 67 69 72 74 71 72 75 76 75 75 71 73 74 76 77 77 75 71 75 71 71 69 72 71 70 65 64 63 61 66 63 60 59 62 63 70 77 76 74 72 74 73 72 71 66 71 86 133 192 254 284 295 299 264 190 159 193 287 304 305 305 314 322 326 329 319 305 303 310 
57 55 58 59 58 67 65 66 72 69 71 70 71 71 70 75 73 73 72 77 74 74 74 74 76 77 76 79 72 71 72 71 70 69 68 68 66 63 69 64 64 64 64 63 62 64 69 76 74 75 73 71 69 72 71 73 76 100 154 216 273 293 307 296 257 181 148 164 266 302 304 306 313 324 326 326 317 312 304 311 
61 59 61 61 59 60 65 69 69 68 77 71 72 69 71 76 72 70 69 78 74 75 74 72 76 74 73 71 70 75 72 71 68 67 69 68 61 68 68 69 72 68 58 63 59 63 69 74 72 74 75 68 70 72 73 73 78 94 155 222 276 303 310 304 252 184 146 167 262 301 305 301 307 317 321 322 318 314 297 313 
60 58 56 62 58 65 61 67 69 68 71 73 70 72 72 73 69 74 72 75 76 72 74 72 76 73 74 75 72 71 69 65 70 66 66 63 63 69 79 77 80 81 78 63 57 65 72 74 69 74 71 71 73 70 71 74 75 99 158 215 272 302 312 309 263 188 153 186 272 302 308 307 313 320 323 324 318 317 306 314 
55 55 58 60 62 66 62 68 66 67 70 68 68 67 74 74 70 73 73 75 73 69 71 69 73 72 72 73 67 71 65 65 63 67 68 70 70 70 75 83 81 77 80 74 68 65 73 75 70 74 74 68 70 69 71 67 72 93 143 196 261 293 308 307 275 206 181 208 281 303 309 311 315 330 331 327 325 323 320 316 
57 58 57 58 58 59 64 67 69 66 65 69 71 69 70 67 68 75 71 74 72 71 71 68 71 69 72 72 65 66 66 67 64 66 73 76 70 69 71 75 76 78 75 77 73 71 70 71 69 75 76 71 68 67 63 60 64 80 127 176 233 287 304 304 296 260 225 250 291 307 313 313 315 328 329 330 324 323 320 309 
58 60 60 59 63 61 63 66 68 64 66 69 69 67 70 71 68 71 70 73 74 68 69 65 72 67 69 70 67 67 64 68 66 70 71 74 70 68 73 67 71 73 75 76 73 68 66 70 72 71 75 66 66 62 62 58 64 70 104 148 206 268 301 306 311 292 285 288 301 309 320 323 316 324 328 329 325 318 314 319 
64 60 60 63 60 64 64 63 67 62 67 71 70 69 71 69 72 72 72 77 72 68 72 65 70 69 67 70 66 62 71 71 70 70 73 72 70 67 74 69 70 69 72 77 72 74 71 71 69 66 75 68 66 66 63 63 59 61 74 116 166 226 280 298 301 304 298 301 304 307 315 318 311 319 324 327 321 317 312 316 
60 63 63 62 63 67 66 64 68 63 69 69 71 68 71 70 70 70 68 73 68 67 72 65 68 66 67 68 65 70 72 74 67 73 72 73 71 72 72 71 70 67 72 77 75 72 72 70 68 76 72 70 65 66 66 65 62 60 65 79 117 164 246 283 263 267 293 303 304 304 308 307 306 315 320 325 321 316 313 306 
66 59 61 66 62 68 64 65 67 68 70 67 68 64 70 71 67 67 68 71 67 60 67 62 67 68 68 73 71 71 76 70 72 73 75 72 72 73 73 69 72 66 70 74 74 74 69 72 72 76 72 72 71 67 63 66 60 61 63 66 71 102 160 228 214 208 261 289 303 294 296 287 287 294 304 318 322 309 296 306 
68 62 63 67 68 65 60 64 66 64 71 65 64 63 67 69 65 69 65 67 63 64 68 66 66 64 73 76 71 70 72 73 71 75 76 69 72 72 68 71 70 72 74 71 73 73 74 72 69 72 72 71 73 67 63 64 60 62 59 60 59 74 96 147 163 154 192 258 283 285 281 274 275 285 297 315 317 302 292 294 
71 65 62 68 65 60 62 65 67 66 66 65 56 61 58 60 59 60 61 62 63 63 62 64 67 71 71 75 74 74 72 72 72 72 73 69 71 73 70 68 68 67 70 73 73 74 69 69 69 70 69 70 69 63 62 61 59 60 60 58 60 64 68 84 118 121 136 208 255 269 274 266 271 274 287 307 312 295 289 286 
72 67 65 66 64 65 65 67 65 65 67 58 56 55 58 58 57 57 58 64 65 59 64 66 71 68 71 74 70 70 69 76 73 73 73 73 67 73 72 71 68 70 72 74 71 73 69 71 65 69 66 66 67 66 67 58 59 61 64 55 58 58 61 64 87 97 100 129 177 219 241 252 258 269 282 296 295 297 281 280 
76 70 70 66 62 66 62 65 66 65 68 62 55 48 55 56 58 63 61 63 64 61 63 70 70 67 69 72 67 73 70 74 71 71 72 74 70 72 69 69 72 73 73 73 73 72 69 69 69 68 68 67 65 69 64 63 64 58 61 58 60 58 62 61 69 77 75 75 87 121 159 187 212 243 264 279 287 281 269 264 
76 74 72 68 67 61 66 65 66 63 62 61 51 50 51 58 59 59 60 66 65 65 69 68 69 69 71 74 68 70 76 73 68 71 72 72 68 73 70 70 71 70 75 74 69 71 69 74 67 68 73 70 69 69 61 62 61 64 61 58 60 57 54 59 57 60 60 52 55 57 73 91 115 159 194 225 247 243 235 231 
80 69 69 65 63 57 61 59 61 54 64 54 52 46 53 48 54 56 56 65 62 60 62 64 69 75 70 72 67 74 71 71 69 72 72 72 72 74 69 68 71 69 71 77 72 73 68 70 70 75 73 73 69 70 66 59 63 65 61 55 57 55 55 54 55 56 49 47 43 40 37 45 53 70 96 120 145 151 142 149 
71 76 65 60 56 51 55 53 57 51 58 51 50 55 50 58 58 59 60 62 64 68 67 66 72 69 71 72 66 74 74 75 70 70 70 72 74 72 75 71 70 71 75 75 75 73 71 71 71 73 72 73 68 70 65 65 62 61 61 56 58 55 58 52 52 52 53 51 48 33 34 30 35 31 43 55 73 65 58 55 
67 65 64 58 58 60 57 59 59 53 52 53 56 53 61 59 59 62 63 64 70 68 67 66 71 69 76 74 69 74 76 73 72 73 74 72 73 74 72 70 72 69 77 75 71 72 73 71 68 74 72 74 70 68 68 65 64 64 59 55 54 52 53 50 51 52 49 48 49 41 38 36 30 33 28 35 45 38 32 21 
59 61 51 59 55 54 51 59 59 54 52 57 57 57 57 58 60 60 60 65 66 66 70 67 74 68 74 76 72 75 73 71 71 72 72 76 71 76 74 71 74 73 75 75 71 72 72 70 70 74 72 71 71 68 69 66 68 62 57 57 52 54 52 54 47 50 45 46 48 41 36 33 28 25 25 32 37 29 16 17 
58 55 59 56 56 52 57 57 57 49 54 56 54 56 56 61 61 64 64 68 70 66 66 68 70 68 73 76 72 74 73 73 72 75 71 73 71 68 72 72 74 73 77 78 71 74 70 74 69 72 73 71 67 65 68 67 66 62 61 56 56 54 48 46 46 48 41 45 46 36 37 31 27 34 24 27 30 27 23 11 
58 56 53 53 54 55 57 56 56 51 61 62 61 62 61 64 67 67 66 69 68 67 71 69 75 71 73 74 70 72 75 74 75 78 74 74 69 74 73 73 76 73 76 74 69 71 71 72 68 72 73 70 69 69 67 67 67 63 61 60 58 58 54 49 47 45 42 41 52 41 38 36 27 29 23 28 31 28 20 19 
56 52 54 55 55 51 57 56 62 59 64 63 65 66 65 63 65 66 65 67 69 70 71 70 75 72 73 75 71 76 79 78 75 75 75 70 68 75 76 74 80 68 76 73 66 73 68 69 70 69 70 70 69 67 69 69 68 63 59 59 58 66 58 57 50 51 48 46 48 41 40 42 34 34 32 32 38 28 23 14 


