P2
80 60
101
38 40 52 52 50 52 48 43 39 37 38 30 36 36 35 38 41 41 47 49 49 50 49 47 49 48 39 44 46 45 44 41 39 40 39 42 44 39 44 42 43 44 44 44 44 45 44 43 39 37 42 40 40 41 38 39 38 37 36 35 34 31 31 30 32 25 30 28 22 12 11 8 15 10 8 9 12 15 12 10 
41 42 50 52 53 53 50 45 40 37 41 35 35 39 37 36 37 39 44 44 48 52 51 53 48 51 45 48 46 45 46 42 38 38 43 41 43 43 43 41 42 42 44 46 45 45 45 42 41 37 43 41 41 40 39 40 38 39 36 36 34 30 34 32 32 25 27 26 28 16 15 9 7 6 6 6 12 11 11 4 
44 40 47 47 50 53 49 52 46 38 39 37 35 38 38 35 37 37 40 43 48 51 52 52 53 51 47 51 48 47 47 42 39 44 39 40 41 43 46 42 43 41 45 47 45 47 43 42 43 41 41 43 40 40 39 42 41 40 41 39 36 36 35 32 33 29 29 29 29 17 13 9 8 10 6 4 6 9 5 8 
44 40 46 46 46 52 52 52 53 42 42 38 38 37 38 36 36 39 38 42 39 45 46 50 51 51 49 52 49 48 50 45 45 45 41 40 38 42 46 43 43 46 47 46 46 47 48 46 43 41 41 45 42 45 43 45 45 44 42 41 37 36 35 36 33 34 29 32 27 21 15 10 8 8 5 2 5 8 8 5 
40 37 46 42 41 51 44 54 54 53 48 40 44 42 39 37 35 37 38 40 41 41 39 45 51 51 52 54 50 51 55 50 46 45 46 45 39 40 46 44 46 44 47 45 48 48 49 47 43 46 44 43 46 43 42 44 43 45 43 40 38 37 36 34 38 33 32 32 30 21 15 9 9 7 7 3 2 6 6 4 
41 35 45 43 44 47 50 51 50 49 53 49 53 47 38 36 38 38 37 37 39 40 44 43 45 47 49 55 49 53 53 50 51 52 50 44 41 43 45 44 49 47 46 44 47 47 46 50 43 45 45 43 42 43 43 43 44 42 38 39 37 38 35 34 35 31 32 32 30 25 23 14 14 8 9 4 7 9 10 0 
43 41 46 47 47 47 47 48 53 51 53 56 53 54 48 40 41 37 40 37 38 42 43 42 45 46 47 48 51 52 56 54 55 58 57 51 46 47 49 47 48 48 50 48 49 49 46 50 45 44 47 47 44 45 45 45 44 46 41 41 43 39 36 38 36 33 36 34 35 31 26 19 15 12 11 9 8 14 7 7 
44 43 49 48 47 52 48 48 52 54 55 59 62 61 51 45 41 41 43 40 38 40 42 42 42 44 49 49 48 49 51 57 54 55 58 58 51 49 50 49 55 50 48 50 49 51 50 48 49 45 47 46 46 46 44 46 46 44 43 38 41 42 41 40 37 36 35 34 39 31 31 25 23 15 11 12 11 11 14 10 
45 41 52 47 47 48 47 48 50 56 59 59 63 62 51 52 43 41 40 40 41 42 43 41 42 45 47 50 48 52 49 53 53 56 55 60 56 52 52 50 50 52 51 49 48 50 48 51 46 44 47 49 46 44 43 47 49 46 45 40 42 45 41 41 37 41 35 38 36 31 34 30 26 17 15 14 15 13 12 11 
51 44 53 48 48 52 47 50 53 52 58 63 67 66 59 51 45 43 43 41 39 43 42 42 41 44 47 49 48 52 48 50 50 54 55 58 54 52 53 51 51 51 52 51 50 51 52 53 46 47 46 48 49 49 45 49 49 46 42 43 41 42 40 41 42 39 38 37 36 35 33 32 31 25 17 14 14 14 12 15 
54 43 50 49 46 46 50 53 52 58 60 63 64 67 58 54 47 41 44 46 42 43 43 43 45 43 45 51 50 48 47 48 49 53 55 57 54 54 53 52 54 55 55 51 52 51 52 52 52 50 50 49 48 47 45 48 46 47 47 42 40 42 42 43 41 40 37 36 39 36 36 33 35 29 25 20 15 15 15 12 
59 49 51 49 47 53 51 51 56 60 61 62 65 64 59 62 56 47 47 50 48 46 44 44 48 46 47 50 50 50 48 47 50 53 57 59 54 56 55 55 55 57 54 52 53 54 53 51 51 51 49 50 51 49 49 46 50 46 43 39 43 43 41 43 40 39 37 37 38 36 37 32 33 35 26 30 23 17 19 18 
55 51 56 54 52 54 52 53 56 58 58 58 61 61 60 59 61 58 57 55 56 54 46 48 45 47 50 53 51 49 51 49 51 57 57 58 54 55 57 55 58 59 57 53 51 54 51 51 54 54 52 54 50 49 50 49 49 43 46 44 43 44 38 43 42 40 36 40 39 36 37 32 35 31 31 29 25 30 27 15 
51 51 56 53 54 54 55 57 58 56 58 55 57 61 59 62 61 57 59 60 60 60 53 56 52 54 56 58 55 54 51 52 52 56 59 59 55 54 57 56 53 57 56 54 53 53 55 51 53 53 54 54 49 48 47 49 46 46 44 40 43 38 42 41 42 40 39 37 41 42 33 31 36 32 31 31 32 29 28 22 
53 50 60 54 58 57 60 59 59 56 56 57 57 61 58 59 62 60 61 60 59 58 53 57 53 58 57 57 58 54 53 55 56 61 59 56 54 57 58 54 54 54 56 54 55 52 50 51 52 51 55 56 54 52 50 50 48 46 47 44 39 40 38 39 40 36 37 38 39 34 35 33 33 32 29 29 30 33 26 20 
52 49 57 59 57 55 58 56 61 57 60 57 58 63 59 61 64 63 58 60 59 60 58 58 58 60 56 57 58 58 58 59 58 61 60 59 59 57 57 58 58 56 57 55 55 56 53 53 52 50 55 54 51 52 52 52 49 51 49 51 44 43 36 38 38 38 35 37 37 29 32 31 33 29 31 31 29 27 25 25 
59 54 57 58 56 55 58 60 61 61 65 58 58 60 56 57 65 60 62 59 58 61 59 57 60 60 58 58 59 60 61 60 60 62 57 60 55 59 57 57 57 59 56 57 56 57 56 52 51 52 51 56 52 51 51 50 52 50 52 50 48 46 41 41 38 36 35 38 38 35 39 37 34 35 32 33 28 26 21 24 
70 58 59 58 58 59 57 58 62 59 65 61 59 58 57 58 63 61 59 57 58 60 61 62 61 64 60 56 58 57 59 60 61 62 58 60 58 56 57 55 57 53 59 57 56 54 57 53 51 53 52 51 55 52 54 51 51 48 50 52 48 46 41 40 42 37 38 40 41 37 38 37 37 39 35 35 34 30 33 28 
75 65 65 63 59 60 55 60 60 62 68 63 58 56 58 54 62 59 59 59 59 60 63 62 62 63 64 62 60 57 58 63 56 56 60 58 57 55 55 53 55 54 58 58 55 57 56 55 56 53 52 53 52 50 48 49 49 50 49 50 50 44 41 42 39 39 37 42 41 39 38 35 38 38 36 36 37 36 36 30 
76 68 67 64 61 65 61 59 64 65 69 68 65 63 61 62 60 61 60 60 61 59 65 60 64 61 61 63 59 57 55 56 56 56 58 57 56 57 55 56 56 56 60 59 56 56 55 57 56 58 57 56 54 53 51 50 49 51 49 52 49 44 42 43 41 37 38 40 41 37 38 38 38 36 36 36 36 35 40 31 
78 73 74 66 70 69 63 68 67 64 66 68 66 65 62 59 63 58 61 62 64 62 58 62 64 65 65 62 62 60 58 59 56 56 54 57 56 56 57 56 57 55 57 60 57 55 55 57 57 57 59 55 52 54 51 52 51 50 51 53 50 46 48 48 43 39 39 42 42 40 39 36 36 37 37 37 37 36 36 31 
81 72 77 79 71 69 72 68 69 69 69 66 68 67 65 59 63 62 63 62 60 63 60 62 60 63 60 62 64 61 58 60 56 59 58 54 52 55 56 55 55 55 56 56 53 52 55 55 57 56 56 53 55 52 52 50 53 51 51 52 56 51 49 51 44 42 40 43 41 40 40 37 36 35 35 36 36 38 36 37 
80 75 79 75 76 78 77 74 72 69 70 67 66 66 60 63 62 61 62 61 64 59 62 62 64 61 63 61 62 63 64 61 61 59 58 55 51 54 55 53 56 55 55 55 52 55 54 54 55 56 59 52 55 54 51 57 55 52 50 50 53 52 53 57 44 43 43 42 41 39 39 35 40 32 34 36 38 37 41 36 
95 79 84 81 82 84 81 84 78 78 75 68 68 67 65 60 61 62 64 63 63 62 59 62 62 62 62 64 61 61 62 63 59 60 60 58 56 54 54 55 57 57 57 56 53 56 56 55 53 54 59 54 56 53 51 50 53 51 50 52 54 54 53 55 51 45 41 38 41 37 40 37 39 34 37 40 35 38 38 34 
97 94 88 83 87 84 85 87 86 82 80 68 66 68 66 68 66 67 62 63 61 63 63 62 61 60 61 64 65 63 62 63 62 65 64 63 60 55 55 53 59 55 59 58 56 57 56 58 54 57 56 58 56 54 51 54 54 50 51 49 51 54 55 53 50 44 40 40 44 40 39 35 41 38 42 37 39 37 40 34 
101 95 100 93 91 90 90 91 88 84 80 71 67 68 66 66 65 67 65 61 64 63 61 62 59 59 61 62 64 67 62 64 64 65 64 62 64 58 56 58 57 58 60 58 58 57 58 55 55 55 58 58 54 55 54 56 54 52 50 52 51 55 55 52 47 44 36 39 36 34 39 37 41 37 41 37 40 39 43 37 
96 97 100 93 92 94 94 93 87 86 82 72 66 66 61 63 64 65 62 63 64 63 62 59 62 59 55 61 63 63 60 63 64 63 63 66 62 58 60 57 58 58 60 61 56 55 56 57 53 56 56 56 56 53 51 49 53 53 48 50 50 50 51 51 46 44 36 41 37 32 36 35 38 34 37 37 37 38 35 32 
82 89 98 96 95 91 95 97 94 90 82 72 67 65 63 61 61 62 64 63 62 63 59 58 57 55 57 59 60 61 62 61 63 65 62 62 65 63 63 62 58 58 57 56 58 55 58 55 55 54 53 54 56 54 51 51 52 53 50 48 49 49 50 50 47 42 36 36 33 33 33 34 39 35 37 36 38 37 35 38 
72 63 80 89 93 95 95 98 97 94 86 75 70 66 62 64 60 63 64 61 62 62 57 59 58 57 58 59 61 61 57 62 59 61 62 67 66 64 68 61 63 61 59 58 56 59 56 54 53 54 56 55 55 54 48 51 52 52 50 49 48 52 49 50 48 40 34 35 33 33 29 33 41 37 35 41 37 38 42 39 
65 58 63 71 85 98 95 99 101 100 92 79 71 71 65 65 64 63 63 61 64 64 61 58 60 62 59 64 62 59 63 59 60 65 65 65 66 62 65 62 61 64 61 63 59 58 58 56 55 57 55 58 55 53 50 49 53 52 50 51 48 51 46 50 46 42 36 37 37 34 30 29 35 37 40 36 37 38 36 40 
68 57 62 64 73 84 87 94 99 101 95 87 77 70 66 66 65 62 63 62 60 65 62 58 60 61 60 59 63 61 62 63 60 64 65 65 64 63 62 61 60 62 63 63 58 59 58 54 53 56 56 57 54 53 52 51 50 50 49 49 51 45 49 49 45 44 40 38 41 37 34 34 37 37 37 39 38 37 38 42 
67 62 66 63 67 72 85 87 92 101 99 91 80 72 69 67 64 62 65 65 65 67 61 63 62 66 59 61 65 60 60 64 63 66 65 67 64 63 65 65 61 62 62 63 58 59 58 57 56 58 55 57 53 55 51 53 50 53 53 55 57 50 49 52 50 43 39 39 42 40 37 38 40 37 40 39 40 40 37 40 
61 63 65 68 65 66 72 80 84 95 96 93 84 75 66 68 65 66 65 65 64 66 66 66 67 67 64 63 65 66 65 60 64 66 64 65 67 62 62 63 63 62 66 62 61 60 57 57 52 54 54 53 53 53 51 53 52 55 53 52 54 57 51 55 50 46 39 40 42 41 39 39 40 39 38 39 39 38 37 30 
59 58 71 66 60 63 64 68 71 77 91 88 86 76 69 66 66 66 65 71 64 64 64 65 64 65 64 64 65 64 63 63 61 63 61 62 62 60 61 64 62 63 63 64 61 60 58 55 51 51 51 52 51 51 49 52 50 56 52 53 51 54 53 56 50 47 39 37 38 34 35 38 38 38 37 36 41 40 37 37 
57 57 63 59 61 64 65 65 68 68 80 90 86 80 73 70 66 66 65 66 65 63 65 64 64 65 63 65 67 65 64 65 62 63 62 62 58 62 60 60 63 62 64 62 60 57 57 57 50 50 52 51 47 49 46 51 52 53 51 55 51 54 50 51 47 49 42 35 37 36 35 35 38 35 38 35 38 37 34 37 
57 54 66 57 54 64 68 65 63 69 72 81 81 81 75 73 69 66 65 65 67 66 66 64 68 64 65 66 63 63 65 63 61 63 61 61 60 58 59 59 60 65 64 62 58 56 56 58 51 47 52 51 47 50 49 50 53 52 52 53 52 53 52 47 48 45 42 38 37 35 37 36 39 35 35 35 37 36 36 39 
55 49 59 59 56 58 63 72 67 68 75 75 79 80 75 78 69 68 67 64 68 64 68 66 67 71 67 67 65 65 66 65 63 63 62 60 62 61 60 62 60 60 60 58 57 58 58 54 52 53 51 49 47 51 51 52 52 53 52 53 51 51 54 53 49 42 40 39 40 42 38 35 38 37 37 36 36 36 37 34 
57 53 62 57 56 58 62 69 68 69 69 71 69 72 76 71 74 68 67 66 68 70 68 69 70 71 68 69 65 66 63 64 67 65 65 64 61 59 59 59 62 62 61 61 61 63 61 58 57 57 54 51 50 55 52 52 51 52 50 50 46 52 49 50 45 44 44 44 41 40 38 33 39 38 36 40 37 35 39 33 
53 51 56 57 57 59 63 67 69 66 66 65 64 65 70 69 73 71 66 67 70 68 68 70 70 68 70 71 68 66 64 68 63 67 64 66 59 60 62 61 61 65 63 64 63 64 63 59 56 57 54 54 51 55 54 49 50 52 49 47 49 48 52 51 44 41 39 40 44 42 35 41 39 39 38 35 37 40 38 35 
55 51 59 55 55 58 60 64 64 66 61 66 59 62 62 68 70 69 65 65 69 68 65 66 65 65 66 70 68 66 69 68 64 64 63 64 62 63 62 61 64 65 66 62 61 64 66 61 59 56 53 52 51 52 49 47 49 47 47 50 51 46 49 47 43 42 38 41 41 42 39 36 41 37 36 39 35 35 36 35 
55 53 55 57 55 59 62 60 57 65 64 65 65 60 58 59 65 68 70 72 72 69 68 67 68 66 66 68 69 69 72 69 64 65 66 65 61 60 63 63 64 68 64 66 64 65 62 60 58 56 55 54 52 51 47 49 46 49 47 48 48 42 44 44 44 39 40 42 39 38 36 37 38 38 41 35 36 37 36 30 
54 49 56 53 55 54 60 61 56 54 60 62 62 59 52 52 58 61 64 68 70 66 67 63 65 69 68 69 69 69 69 66 65 66 63 65 63 62 63 63 66 65 62 62 59 61 60 58 60 58 54 55 53 54 50 49 47 49 50 46 48 46 47 42 41 42 42 41 43 39 38 37 39 36 34 33 36 36 36 37 
57 48 52 52 51 54 59 60 57 57 58 60 59 54 50 49 51 48 56 63 66 67 67 66 65 68 67 70 68 70 64 67 67 67 64 61 61 61 62 62 63 62 63 64 62 60 58 58 57 58 55 55 53 51 48 47 48 49 43 45 47 47 46 43 41 43 45 40 42 39 34 36 36 36 34 32 35 33 32 37 
50 51 53 52 52 56 54 60 55 48 50 55 52 48 49 48 47 53 53 55 60 63 66 67 64 68 68 72 71 69 69 66 64 63 63 62 59 59 57 57 58 62 60 60 60 60 58 58 57 58 56 55 51 47 43 45 47 48 42 46 50 46 42 43 40 38 40 42 39 38 38 39 39 38 34 34 35 36 33 31 
57 51 56 52 53 54 53 54 50 47 49 52 55 52 47 47 46 48 49 47 52 55 61 60 66 68 68 69 66 68 66 67 64 68 63 62 56 56 58 56 52 59 59 57 56 54 56 56 56 56 56 52 46 45 43 45 42 45 43 47 49 47 41 40 41 39 42 41 40 36 34 35 39 36 33 33 37 34 32 30 
55 49 56 52 49 53 53 51 45 45 46 48 58 54 53 45 48 47 52 44 49 49 54 55 57 63 65 68 72 70 67 61 61 68 63 61 56 58 56 56 53 52 52 57 56 52 54 48 53 53 51 52 46 45 44 41 45 48 42 46 41 39 42 42 43 37 38 41 38 37 34 36 38 33 34 33 38 35 30 32 
55 50 56 54 52 52 51 51 43 43 48 49 56 55 53 46 44 46 44 44 45 46 52 46 52 56 60 63 65 66 70 63 61 64 62 62 57 58 55 52 48 51 52 52 53 50 52 47 48 49 50 47 45 46 41 41 41 44 42 43 42 41 42 41 40 40 38 42 40 34 32 34 34 32 32 34 35 33 33 30 
60 50 52 54 49 52 48 52 45 43 43 46 53 53 53 49 42 45 45 45 43 45 47 46 49 51 54 55 60 62 62 60 59 61 57 57 52 52 51 50 50 56 53 54 54 52 51 46 44 48 45 49 47 44 40 42 43 44 40 41 38 39 41 35 38 37 38 37 36 36 35 33 37 32 30 31 33 32 32 28 
63 51 49 51 51 51 48 49 48 41 45 46 52 54 52 49 45 45 47 44 45 46 46 46 45 45 49 50 53 52 52 52 52 57 51 51 56 52 51 52 50 51 51 51 50 48 47 46 47 47 43 45 43 41 41 42 44 43 39 40 43 39 39 38 36 32 34 34 35 34 35 32 34 30 28 33 31 31 29 24 
69 52 53 50 49 49 47 46 45 47 48 49 50 55 52 52 48 49 48 45 43 45 47 41 43 43 42 49 50 48 46 48 50 53 47 47 51 50 51 51 53 49 49 50 46 44 46 43 41 41 43 43 43 45 43 44 44 44 39 43 43 42 43 40 34 35 36 37 35 31 36 35 32 29 30 30 32 32 30 23 
72 53 50 48 47 52 51 46 47 48 47 48 52 55 54 53 52 49 51 51 48 46 43 41 45 44 39 49 44 47 43 48 44 50 47 49 48 49 50 51 48 50 46 48 48 46 42 43 42 41 41 42 43 44 45 45 47 44 44 45 42 40 42 40 40 39 39 34 40 33 33 34 33 26 28 28 28 28 28 25 
72 57 56 53 48 49 50 46 51 51 57 57 57 56 49 52 49 50 53 53 45 45 44 40 43 43 39 47 40 47 46 48 47 50 49 47 47 46 49 48 47 50 46 50 49 48 45 44 41 42 40 45 44 45 48 47 48 45 43 43 42 40 43 40 40 38 38 37 38 38 31 34 30 31 30 26 27 26 27 26 
69 63 55 52 50 50 46 47 50 52 55 57 54 53 51 50 54 50 48 50 51 48 42 40 39 41 42 47 44 49 46 51 48 50 45 47 46 48 43 47 47 50 51 53 48 45 48 46 45 45 44 51 46 47 45 44 46 45 39 38 38 40 42 43 40 36 37 39 36 35 34 31 30 32 31 27 30 24 26 22 
73 65 62 54 48 49 47 47 51 55 55 57 57 51 54 55 50 48 50 52 49 53 47 44 43 43 41 46 46 43 46 49 51 50 48 44 44 43 46 45 45 49 52 52 47 46 45 39 41 42 43 46 47 50 45 41 44 43 39 39 42 41 43 42 41 37 37 38 38 32 31 29 30 29 30 31 26 25 31 27 
68 68 67 65 47 49 48 49 54 51 51 56 53 54 51 52 54 51 51 56 51 50 47 47 43 45 45 44 47 45 50 53 47 49 49 44 41 42 42 46 45 47 49 51 46 45 41 37 43 42 39 38 42 42 40 43 42 46 44 43 45 42 42 41 39 37 35 36 39 33 32 28 31 27 27 28 28 29 28 28 
54 63 68 67 58 51 47 49 49 51 50 52 52 56 51 52 53 50 50 51 55 50 51 47 46 47 49 49 54 51 52 52 52 52 47 47 49 44 45 40 44 46 48 45 41 40 39 39 39 37 40 41 41 40 44 41 47 48 44 42 43 39 43 40 40 34 38 37 33 30 31 27 27 26 29 27 26 28 27 23 
49 53 76 70 63 52 46 52 48 51 47 55 52 54 50 52 54 49 48 50 49 47 47 49 50 47 49 54 52 54 56 57 53 52 49 49 49 49 45 42 39 44 46 48 40 40 41 37 41 39 40 42 42 41 39 42 43 44 45 44 44 40 43 42 38 39 37 35 35 33 29 28 29 28 26 32 26 23 26 24 
42 45 68 68 67 57 52 49 50 46 49 52 50 56 49 49 51 50 48 50 47 49 50 53 51 51 53 55 55 54 56 56 53 53 53 54 52 53 50 48 46 46 46 47 45 40 39 39 40 40 42 49 44 41 37 40 43 43 47 43 42 40 40 45 38 34 37 34 34 36 30 28 28 24 26 26 25 24 26 19 
40 41 56 67 69 58 52 48 46 46 47 48 49 54 51 49 51 49 47 49 45 49 51 53 55 52 50 52 53 55 58 54 55 59 54 56 57 55 51 48 53 48 48 46 49 45 45 44 42 40 42 44 41 38 38 44 46 48 45 45 45 39 39 39 37 37 36 34 34 30 33 28 30 26 27 22 25 25 22 25 
38 38 54 63 66 58 51 46 44 47 44 49 48 56 55 51 47 48 47 52 46 51 54 52 53 55 52 51 49 52 61 56 56 59 56 61 58 58 56 51 51 50 52 48 47 51 50 47 46 43 43 42 40 40 41 43 45 44 43 47 41 38 39 35 35 36 31 31 31 28 28 25 23 20 24 24 21 18 20 21 


