P2
80 60
876
320 302 263 246 223 196 181 175 152 142 128 119 116 110 112 151 236 292 130 120 117 103 95 91 83 69 58 58 82 74 68 71 72 72 77 71 76 76 75 79 84 88 91 94 91 89 93 92 90 92 90 95 95 94 91 91 92 86 89 91 88 82 86 87 86 86 83 82 83 80 79 81 83 85 109 165 222 258 270 285 
310 279 250 223 201 188 178 177 156 152 138 129 119 113 108 182 323 224 118 110 120 114 105 95 90 81 74 73 74 60 62 73 73 73 73 76 79 79 78 78 80 86 86 91 92 91 93 91 94 96 94 97 98 94 94 93 91 93 88 91 89 87 92 91 90 89 82 85 85 83 82 88 112 152 192 237 257 276 280 290 
291 255 229 207 186 176 172 169 161 147 140 131 123 114 100 128 237 186 123 120 122 115 114 103 97 80 80 76 73 59 58 56 61 65 67 72 76 75 78 72 77 79 81 84 86 90 93 87 91 94 92 93 95 91 93 94 91 95 89 91 91 88 90 90 88 86 82 86 90 87 95 133 210 246 246 252 263 277 279 289 
263 242 212 194 185 173 168 165 154 150 140 132 126 112 103 102 113 119 107 101 120 121 115 115 105 81 79 85 85 72 62 58 54 55 56 59 74 71 73 72 75 74 78 82 82 81 88 87 88 91 92 95 94 92 94 94 91 91 93 90 88 85 90 88 90 88 83 91 102 118 168 221 254 271 276 270 270 276 273 284 
245 241 219 202 186 168 160 158 149 142 137 132 126 119 103 100 111 121 104 101 113 117 115 114 105 89 79 80 80 67 72 67 57 54 53 52 63 71 72 72 74 74 77 79 79 78 83 85 90 93 86 93 95 93 92 93 89 92 92 88 89 88 92 92 93 91 86 107 168 227 248 253 249 260 275 277 273 278 272 282 
242 237 221 209 188 169 158 155 144 145 139 129 131 116 101 100 116 124 110 103 98 99 94 110 113 102 100 80 73 60 71 70 61 60 52 47 57 61 64 69 75 72 77 74 79 76 78 80 81 89 90 91 97 88 94 94 95 94 91 92 94 89 95 93 95 95 119 207 269 282 293 297 285 270 265 282 286 287 277 286 
248 229 227 219 190 167 161 160 147 143 136 132 125 109 104 102 125 124 113 109 102 93 74 78 100 110 121 102 86 63 64 65 68 66 61 51 48 50 57 62 71 70 72 72 76 71 73 75 76 81 86 91 93 91 93 94 91 89 90 92 94 89 91 93 103 129 212 272 282 279 297 307 304 305 288 280 286 299 287 287 
330 288 252 233 222 202 179 169 156 146 136 133 125 111 107 115 132 123 118 114 107 93 72 84 88 95 124 117 113 79 71 70 61 60 62 56 55 52 50 52 65 69 72 71 73 68 73 75 72 78 81 80 89 90 90 93 91 92 93 93 91 90 99 108 170 222 246 259 260 251 263 290 291 281 270 261 246 256 258 264 
408 400 339 291 252 222 217 207 179 158 147 135 124 108 110 125 136 126 122 116 108 93 78 88 94 94 115 105 109 102 92 79 61 63 61 59 61 68 59 48 52 52 68 70 69 67 71 69 68 70 75 80 84 86 87 92 88 93 94 93 93 95 103 183 264 293 294 295 276 236 228 230 226 224 228 237 245 259 267 277 
336 372 413 407 346 284 250 231 220 204 170 146 122 108 108 135 136 123 121 118 111 95 89 97 103 104 117 99 99 87 105 103 81 67 59 57 60 68 73 64 53 53 55 62 64 64 70 64 66 71 71 75 81 76 86 89 86 92 93 93 91 96 155 251 275 273 253 240 226 219 216 219 220 228 238 257 269 280 278 264 
413 364 343 366 412 406 345 291 249 228 210 191 150 120 115 143 132 125 118 117 113 100 98 107 109 115 120 102 105 96 113 89 94 74 66 57 59 70 79 81 81 65 51 52 54 64 65 60 65 66 71 72 72 71 78 80 85 90 90 89 92 112 241 260 246 234 228 233 235 234 239 248 255 262 277 285 281 266 245 239 
603 603 495 375 333 351 403 415 352 290 245 217 203 178 155 148 135 129 126 122 115 107 106 113 112 117 116 108 108 100 95 80 74 72 62 57 62 71 92 82 81 82 66 62 51 52 58 57 60 64 68 68 73 71 70 72 77 86 87 85 89 154 235 248 255 260 264 269 275 276 277 281 285 281 269 258 243 238 229 230 
601 714 704 603 426 306 305 346 396 409 347 280 242 214 196 176 132 124 128 126 115 109 109 116 112 123 117 105 110 97 96 89 77 71 62 58 69 72 88 90 87 80 80 78 64 52 51 53 53 60 61 67 68 68 71 69 70 73 82 78 100 209 270 296 308 314 304 307 303 302 299 292 272 253 242 238 238 240 238 257 
649 712 697 601 478 347 286 270 288 330 389 407 352 285 221 166 125 122 124 125 118 109 114 117 118 133 119 108 114 104 103 101 92 81 72 67 69 70 85 93 90 92 90 86 83 68 61 56 53 54 60 61 67 64 68 66 68 71 76 76 112 247 318 333 340 333 318 307 297 280 271 263 249 244 246 250 258 266 266 279 
627 637 614 485 387 368 360 321 236 248 273 317 398 463 273 158 123 116 114 121 114 108 118 123 122 135 116 113 118 103 104 106 100 92 80 81 80 77 81 96 89 88 91 91 81 75 69 59 51 50 53 55 62 64 64 67 66 65 75 81 110 252 321 334 339 321 297 288 273 268 264 267 262 264 272 283 291 302 298 295 
638 499 394 333 331 348 388 426 339 232 201 225 273 300 236 147 118 116 110 113 111 103 114 122 128 135 116 116 116 105 107 108 104 101 95 89 91 88 85 96 95 87 86 85 88 80 70 64 56 47 46 48 48 56 62 65 66 72 77 75 105 252 319 333 324 307 290 291 286 282 284 289 293 297 307 316 315 314 298 289 
662 534 376 313 328 412 456 426 395 401 235 149 182 202 194 128 112 113 100 89 83 95 113 125 131 135 121 114 119 109 113 111 108 103 97 88 87 90 94 99 101 92 92 88 85 76 73 71 66 63 54 53 51 48 53 65 69 68 69 76 116 257 322 338 328 319 312 317 311 307 309 304 306 312 314 308 301 282 267 258 
637 555 433 387 419 480 415 336 322 398 266 165 155 163 142 118 114 128 108 73 54 74 98 119 122 120 115 116 119 109 109 112 110 102 95 88 85 82 84 88 94 104 101 89 84 83 87 82 81 71 58 52 51 43 47 63 62 69 79 82 113 254 315 331 336 343 335 321 310 303 303 308 305 292 285 271 260 253 243 246 
553 553 584 552 511 461 325 265 248 232 189 208 257 182 133 118 127 138 116 90 62 72 85 95 104 111 116 113 120 109 112 115 113 104 101 95 97 90 83 90 96 101 97 93 87 85 87 89 82 73 67 72 63 57 61 59 62 74 77 82 109 236 302 325 351 338 319 311 305 303 298 295 282 273 258 256 251 253 244 243 
482 539 600 640 620 563 362 256 229 195 204 413 388 205 145 122 125 126 119 109 82 81 78 77 81 96 111 112 120 113 121 117 112 107 106 100 102 100 93 92 100 97 99 95 93 93 87 83 84 84 81 78 75 69 71 65 68 75 81 88 102 211 300 323 339 315 312 317 308 293 286 273 259 256 254 254 256 260 252 257 
356 469 569 708 688 646 366 246 228 201 239 342 279 280 216 129 119 116 113 113 101 79 68 73 75 83 104 112 115 107 111 115 114 107 105 104 106 101 100 93 98 102 103 104 96 87 86 83 91 93 90 85 83 90 84 71 72 81 82 89 99 196 301 320 322 323 331 331 310 283 268 263 258 265 265 271 270 275 268 268 
252 329 501 752 666 570 310 218 194 208 225 246 259 382 330 138 120 114 114 113 108 82 69 66 71 81 96 114 112 106 109 110 116 113 108 103 105 104 101 95 92 92 106 99 89 84 86 93 111 92 83 91 91 94 86 81 82 91 93 99 109 194 299 319 322 321 329 325 301 281 272 274 272 277 280 287 284 288 277 280 
240 284 433 671 639 509 259 202 208 224 232 246 330 424 406 185 123 119 115 115 115 87 65 65 78 78 89 106 116 107 110 110 112 107 108 105 105 100 98 93 91 87 97 94 95 96 98 103 132 97 97 104 101 98 95 91 92 97 101 103 111 194 292 310 313 318 324 321 311 298 296 298 300 299 302 306 302 299 283 268 
227 330 487 551 527 323 213 220 226 236 251 293 346 441 485 233 124 118 114 116 113 91 68 74 74 73 84 98 111 109 106 112 109 108 104 100 102 99 94 90 84 78 83 98 103 106 111 117 129 106 106 107 107 103 103 100 97 99 105 108 111 203 298 316 323 319 318 327 329 322 311 311 302 301 298 295 287 285 269 269 
439 611 541 403 339 228 306 283 259 269 317 402 488 562 482 216 124 122 118 112 107 100 70 71 75 78 86 94 110 106 107 109 105 105 100 102 100 95 90 89 94 94 99 102 115 118 119 114 123 118 111 112 112 111 106 107 104 104 111 111 115 223 321 326 336 343 368 381 371 346 312 297 292 293 285 276 271 273 262 261 
354 443 397 299 215 230 362 453 395 369 505 617 605 453 262 156 126 118 115 112 113 102 80 80 82 79 83 86 99 99 103 107 104 103 102 97 98 93 96 99 99 99 100 102 106 115 119 119 124 117 116 118 116 112 113 109 108 111 112 112 123 240 339 357 392 422 418 424 415 404 366 298 281 279 267 269 268 264 257 265 
468 373 352 273 227 227 293 452 486 448 577 514 347 241 181 134 121 117 114 114 111 101 89 84 83 81 77 83 99 96 105 107 102 101 98 95 103 105 105 100 104 103 114 126 140 147 160 143 130 122 125 123 119 115 114 114 112 112 120 129 150 291 369 399 409 415 419 422 421 410 394 321 285 274 266 268 267 272 260 268 
602 442 419 361 270 224 233 403 468 538 492 302 227 167 134 118 112 112 110 109 109 104 89 89 81 76 77 80 90 91 102 105 98 97 99 99 104 108 105 105 114 132 197 242 272 282 274 243 157 146 158 151 142 126 122 132 141 175 215 267 311 362 388 394 403 401 403 407 408 408 407 352 285 272 270 272 273 275 271 276 
484 477 683 798 553 281 218 263 352 539 456 260 165 127 132 117 111 112 114 108 106 103 88 88 82 74 66 73 87 89 96 103 99 103 109 103 112 114 119 123 146 264 296 309 345 356 361 354 325 350 364 353 309 238 258 307 353 381 392 393 397 397 405 404 403 405 395 399 405 407 413 389 297 279 277 281 282 292 285 283 
511 460 723 876 756 308 180 193 226 281 271 180 121 140 123 112 109 109 103 108 106 100 90 87 75 61 58 75 92 89 94 108 103 104 106 116 146 181 214 245 278 336 369 373 383 398 405 403 401 406 413 416 409 390 389 400 410 419 416 411 409 410 413 412 410 411 401 406 411 413 415 400 311 282 280 286 293 297 290 283 
422 307 321 446 437 191 151 172 249 237 176 127 146 145 119 112 107 106 106 105 101 100 94 82 60 62 68 78 87 87 99 108 106 108 131 190 245 273 299 325 360 393 405 407 407 408 408 409 406 410 419 427 419 413 406 407 414 423 420 420 413 410 412 409 410 408 405 413 421 423 417 408 323 284 284 295 299 304 286 274 
352 256 220 270 259 228 197 205 246 188 128 145 161 128 112 111 112 110 105 106 104 114 114 94 70 57 57 64 79 90 99 106 109 143 229 269 313 353 377 393 400 402 408 412 412 415 414 414 409 420 425 428 425 416 417 414 416 425 420 415 413 404 411 411 416 412 411 420 417 413 412 406 328 291 294 307 307 298 270 266 
275 233 208 234 247 240 233 235 227 178 147 157 146 119 110 111 110 109 108 108 106 118 116 83 56 46 46 50 69 85 97 107 129 226 297 363 382 380 394 406 405 406 410 416 417 417 413 419 420 425 425 425 423 417 419 416 414 420 424 418 413 406 409 416 414 412 414 415 411 410 409 403 327 303 302 310 294 280 266 266 
245 215 194 230 240 235 229 224 215 211 194 164 126 115 110 110 110 107 110 107 107 93 65 51 38 25 15 27 55 69 88 115 199 296 374 397 362 393 388 403 412 417 414 416 414 415 419 412 405 419 420 423 426 422 415 411 411 417 424 416 414 410 419 418 417 413 415 411 407 400 405 389 321 312 305 296 279 273 263 261 
239 210 189 234 238 213 190 235 261 236 196 139 119 112 113 111 106 108 110 108 105 82 59 49 22 17 33 36 40 48 86 171 271 366 414 383 355 384 383 396 418 421 421 418 417 418 413 386 348 406 411 413 425 423 420 413 409 414 418 420 418 426 427 426 424 417 405 402 401 403 401 369 322 311 300 285 275 278 266 264 
223 202 198 236 238 206 192 300 288 245 175 131 119 115 114 110 110 109 108 112 111 98 79 59 37 41 64 55 45 39 129 235 306 405 414 369 353 386 389 402 422 423 427 423 423 417 409 388 331 380 405 416 429 431 422 416 412 418 421 428 430 432 433 427 424 415 405 404 406 408 406 352 326 314 296 291 286 281 271 267 
225 195 204 241 244 265 366 378 241 191 150 122 118 114 110 111 109 108 107 107 100 105 84 59 40 28 41 51 49 57 188 257 346 416 406 363 346 399 399 414 422 426 408 392 416 414 411 396 324 358 402 412 428 430 426 422 417 421 425 433 431 429 432 426 417 410 403 407 407 412 393 336 327 317 306 304 288 279 272 275 
232 219 246 250 302 511 442 261 194 171 135 120 115 111 113 110 108 108 108 110 110 119 112 84 50 24 31 79 50 71 203 272 376 412 405 355 370 418 430 434 423 421 412 367 411 409 416 405 351 328 386 405 417 429 426 424 421 423 428 434 430 425 423 419 413 411 408 410 410 405 357 330 330 328 319 302 289 282 282 284 
304 383 317 264 331 550 326 205 187 151 127 118 117 112 108 109 109 109 106 109 107 121 127 103 58 39 17 36 51 95 225 274 384 411 412 383 385 418 433 430 419 416 417 394 404 410 415 408 384 322 376 407 419 426 427 428 427 423 425 432 430 421 419 416 412 411 413 414 409 372 328 327 338 337 313 293 286 294 288 285 
390 526 383 259 275 276 218 207 177 136 121 119 113 111 106 109 109 107 105 109 108 122 126 101 58 20 1 1 54 114 221 294 396 409 417 412 416 417 412 392 409 414 422 387 372 409 417 411 399 357 377 410 422 428 425 424 423 423 427 430 429 422 419 410 415 415 412 409 379 335 316 325 336 324 310 304 300 294 284 285 
500 572 349 253 219 216 225 215 153 128 118 111 111 107 105 106 105 105 105 110 106 120 126 104 47 13 0 27 81 125 224 309 397 415 417 416 419 415 413 392 401 414 412 403 385 411 420 416 414 401 398 414 423 421 421 424 422 415 426 427 423 414 419 410 417 416 404 386 343 315 307 321 324 315 301 296 281 278 271 275 
783 757 337 274 348 293 339 224 140 121 115 111 110 107 104 104 104 109 106 107 106 119 122 102 74 54 34 36 82 144 225 327 402 420 418 410 419 420 420 413 422 419 420 417 414 424 429 422 419 418 414 415 415 418 417 418 415 410 425 416 408 395 383 382 386 378 355 339 317 306 302 312 324 303 291 288 280 276 271 267 
813 743 319 284 451 349 352 179 127 116 115 108 107 107 105 105 102 106 107 109 103 116 120 100 63 37 34 36 60 137 229 330 406 414 414 415 418 413 417 428 439 427 427 422 422 422 425 422 422 419 417 414 412 413 417 418 401 394 387 344 291 236 228 285 320 323 320 314 303 298 303 321 324 307 300 294 288 286 274 265 
362 418 259 275 376 350 224 145 120 115 112 109 109 106 101 102 106 106 104 111 104 122 120 99 58 51 46 50 64 113 225 324 399 410 415 412 415 388 407 422 426 425 424 426 424 423 423 425 423 419 416 412 411 408 405 397 353 261 179 145 142 133 136 174 270 315 325 313 305 302 311 332 329 313 305 305 298 287 265 254 
191 232 230 253 323 274 143 118 109 112 109 105 106 103 100 98 101 110 108 108 107 121 119 95 68 43 42 40 54 98 208 298 379 403 411 410 411 367 372 402 400 409 415 424 419 417 421 425 420 417 409 408 407 402 401 383 242 123 92 89 107 113 121 127 184 294 321 313 303 303 314 325 319 310 306 302 283 270 244 243 
177 213 226 221 187 128 100 99 96 101 100 104 103 99 98 99 101 105 106 105 104 121 112 79 50 38 43 44 52 78 173 256 333 392 405 409 409 378 354 380 390 396 406 417 418 413 414 417 409 405 407 405 400 359 362 323 166 97 79 79 96 109 111 114 139 224 296 303 298 300 304 310 312 306 300 284 263 252 235 249 
169 218 220 190 130 104 90 90 83 85 88 92 95 96 96 98 99 103 103 106 99 123 105 75 40 15 19 44 53 63 134 197 274 359 395 404 410 394 373 364 387 392 404 415 407 405 404 408 404 399 398 401 397 328 190 171 166 108 81 71 87 102 110 110 117 159 247 294 297 295 297 304 307 300 284 265 247 246 251 273 
177 216 216 177 127 99 90 91 87 76 73 71 79 83 89 99 96 102 102 103 98 118 106 72 19 13 31 49 60 52 84 147 204 298 371 397 405 414 401 379 374 383 396 406 403 400 397 392 389 396 395 407 405 336 151 136 152 119 79 74 86 101 108 113 118 126 193 267 292 291 302 313 313 287 261 251 251 268 279 292 
207 230 211 160 107 79 73 80 79 78 73 67 66 67 73 82 85 91 93 98 97 112 110 93 54 26 32 46 59 47 60 83 123 226 309 364 395 405 407 401 393 379 376 382 376 363 338 336 380 414 418 408 375 245 120 105 106 91 77 74 88 99 113 113 116 118 142 230 280 291 302 312 290 261 258 260 272 287 290 285 
319 234 210 146 99 70 67 73 74 75 70 73 66 64 61 65 61 67 77 82 85 101 108 90 46 28 30 40 46 42 51 56 67 128 218 269 314 356 384 388 392 392 380 346 313 286 300 345 374 403 382 299 195 125 90 81 76 76 75 73 89 102 110 108 112 113 119 179 256 284 298 294 267 258 259 267 276 295 279 282 
290 238 208 152 106 83 70 76 71 66 66 67 69 69 70 73 71 73 65 69 70 87 104 89 51 48 49 59 70 52 57 54 54 78 113 161 207 253 294 323 330 317 288 259 253 263 269 259 268 262 193 147 106 89 82 79 74 71 76 75 94 99 105 107 108 112 114 146 226 274 283 271 265 271 272 271 284 280 269 256 
294 236 213 182 126 97 81 79 76 66 60 58 54 58 62 70 73 78 73 71 66 81 102 98 87 58 60 85 86 78 75 77 83 84 95 109 122 146 182 215 226 223 215 206 170 160 151 141 146 125 109 109 91 80 78 77 80 80 81 82 92 101 105 106 110 109 108 122 193 258 266 271 273 275 262 279 274 269 254 219 
239 224 213 196 140 103 93 89 75 67 61 66 62 61 65 68 72 77 75 70 66 95 106 107 105 73 67 97 100 89 88 119 153 126 104 103 111 114 120 136 147 145 145 149 132 126 123 124 110 98 96 103 90 88 90 94 91 93 96 93 97 102 108 108 110 108 109 120 157 226 252 280 288 268 272 286 278 271 226 224 
218 225 210 187 147 108 94 91 84 80 75 73 74 67 68 69 69 74 74 66 53 72 103 110 98 74 65 90 114 99 106 211 173 114 104 99 102 97 102 114 128 128 136 136 124 126 119 114 101 95 94 100 99 99 101 95 97 98 96 95 100 100 108 106 112 110 105 113 133 190 245 283 272 269 283 287 279 245 220 241 
219 230 212 191 155 124 107 102 92 93 86 89 87 79 79 77 77 80 84 74 61 65 102 110 100 73 66 86 127 107 109 141 119 110 104 99 102 100 102 105 124 126 135 133 124 120 119 113 110 104 106 111 115 112 109 109 103 102 105 99 103 103 113 111 114 112 109 114 124 160 230 271 265 278 293 281 255 235 235 273 
210 214 208 188 152 138 129 122 104 98 97 98 97 91 88 85 87 90 91 84 70 73 104 110 105 87 71 79 129 113 108 109 106 112 114 105 99 96 97 94 115 121 121 127 123 123 120 119 116 116 116 116 118 113 112 111 105 106 106 101 100 103 111 110 112 118 109 114 119 131 185 240 252 288 287 263 244 245 264 283 
198 201 200 196 177 157 143 142 131 126 118 116 109 103 100 96 99 94 97 96 88 92 107 113 114 105 88 86 134 113 99 91 107 116 117 110 106 104 100 94 106 116 125 127 126 120 123 123 122 124 120 121 121 119 119 119 121 114 108 108 105 109 114 112 118 118 110 118 115 117 141 199 245 280 268 254 247 264 280 277 
191 192 192 192 191 183 180 174 148 133 130 131 124 121 117 109 105 100 102 106 107 113 109 112 112 113 110 132 172 129 108 106 114 119 118 114 114 101 97 92 99 102 119 132 126 124 127 127 125 125 121 125 130 125 147 209 242 173 123 111 107 108 114 115 116 117 112 115 117 114 122 151 203 252 252 261 260 274 278 276 
225 213 200 193 188 176 177 177 149 130 132 130 132 129 130 123 122 123 117 126 125 121 115 115 116 117 118 140 170 122 109 109 115 128 119 115 114 107 104 100 104 107 124 137 128 124 130 128 128 127 124 133 156 179 318 526 449 251 139 115 115 113 115 113 116 117 114 117 120 113 115 129 147 187 217 248 266 279 274 271 
252 239 227 225 214 199 184 178 146 126 129 128 127 125 130 130 126 127 131 133 130 122 110 112 115 121 115 126 159 119 111 104 115 123 123 116 115 113 115 111 114 112 122 138 128 124 129 126 132 126 126 131 142 176 372 604 466 250 132 116 114 110 120 115 120 117 114 114 118 120 119 127 130 137 146 190 226 245 237 234 


