P2
80 60
876
320 302 273 249 224 202 184 171 157 145 134 124 117 122 124 166 271 257 130 128 119 109 101 99 87 70 65 69 87 78 73 76 78 77 84 83 84 84 86 94 94 94 96 98 99 95 99 98 96 97 97 99 100 97 95 101 100 100 94 97 96 92 89 94 95 91 89 92 87 85 88 86 91 84 109 155 217 259 277 293 
313 282 258 223 204 196 182 173 163 154 143 133 121 123 119 219 358 198 123 117 124 119 111 103 91 86 81 79 72 66 67 80 79 79 82 85 86 85 89 89 90 91 91 98 101 97 99 100 101 101 98 104 104 100 95 99 103 101 95 97 95 97 95 100 97 94 92 97 91 88 92 96 110 139 185 238 266 284 299 294 
292 263 235 208 194 185 176 170 166 152 148 134 124 120 107 143 233 153 130 127 127 122 119 111 100 83 91 81 81 63 65 60 66 69 73 81 80 81 86 84 88 86 86 90 94 95 99 93 101 100 98 96 100 94 95 101 100 102 95 95 97 97 95 96 102 95 88 95 94 94 101 135 203 243 243 259 274 287 299 297 
259 250 221 199 189 182 173 165 161 154 145 134 129 119 106 110 116 125 113 108 123 126 118 122 105 83 86 89 87 78 68 62 62 60 62 69 80 75 82 83 84 80 81 86 88 89 90 95 98 97 100 100 100 96 95 100 98 98 98 98 96 94 94 97 99 93 90 97 99 115 162 229 266 280 277 273 278 283 288 296 
251 247 227 210 190 182 169 155 154 146 143 135 128 124 108 108 116 125 110 108 118 121 121 121 107 86 88 84 81 73 79 68 60 60 60 60 70 73 81 81 83 82 81 85 86 84 90 90 100 97 93 96 100 95 95 99 99 99 97 96 96 93 96 97 101 96 96 110 155 214 241 253 256 267 286 278 277 281 284 283 
246 244 230 214 190 178 166 154 152 150 147 134 133 121 111 108 123 126 114 110 106 103 97 118 120 108 107 83 73 66 75 72 68 64 60 55 59 66 73 81 81 80 80 80 84 81 85 89 92 96 97 96 102 92 97 101 103 103 98 99 99 97 99 100 102 97 125 199 261 277 292 291 276 266 277 291 288 292 291 287 
256 240 235 226 196 178 167 158 152 146 142 137 129 118 110 109 132 124 118 115 108 95 80 89 104 115 125 104 86 69 68 68 69 68 66 55 55 54 65 74 77 76 75 77 81 78 79 80 86 88 91 94 96 95 93 96 98 98 97 99 98 98 94 96 106 129 214 280 282 288 306 306 308 306 285 287 296 306 297 297 
338 297 261 240 225 212 185 168 157 149 141 137 125 114 111 122 135 126 121 119 108 95 78 91 90 99 131 121 113 83 74 72 66 62 66 62 60 56 58 61 71 72 73 74 79 71 80 81 79 83 85 86 93 91 90 99 99 101 96 97 96 95 100 108 154 208 248 269 263 264 280 303 305 302 291 275 257 263 272 278 
413 411 347 298 256 232 223 206 183 160 152 138 122 112 117 132 135 128 124 119 110 97 85 98 98 100 122 106 111 107 97 81 67 64 64 65 66 72 68 60 58 62 74 75 75 73 74 75 78 80 80 88 89 89 90 98 96 96 97 99 96 97 107 174 258 299 295 297 271 244 242 254 253 242 240 243 251 277 274 274 
340 378 417 413 349 293 253 230 224 205 175 148 124 112 118 143 133 125 126 122 114 99 96 107 105 111 121 100 99 92 113 109 83 71 64 63 63 72 82 76 58 58 58 68 71 68 74 74 78 80 78 78 83 79 90 97 96 97 98 97 99 99 154 262 282 284 269 253 233 222 216 218 221 229 234 252 264 283 290 292 
428 375 351 377 418 414 351 294 256 234 215 193 150 122 126 149 133 131 127 122 116 104 105 116 112 121 122 105 108 101 115 92 95 74 67 62 61 77 85 94 85 66 52 57 61 66 71 66 78 77 74 76 79 75 83 88 96 95 95 95 99 128 246 260 254 241 234 235 236 233 231 235 244 255 283 288 281 283 278 254 
619 625 503 380 338 358 407 414 354 296 250 222 206 184 164 152 135 133 134 131 119 111 114 118 117 125 121 109 111 101 95 81 77 71 66 65 67 76 97 95 90 81 68 64 58 59 66 64 71 69 76 75 76 75 78 81 84 90 91 91 100 178 249 251 254 252 252 257 258 263 263 278 291 283 273 277 259 251 239 230 
637 730 705 592 415 306 307 343 397 413 353 281 245 217 200 165 131 129 135 130 119 115 117 122 121 129 120 110 115 100 102 92 80 74 68 67 73 75 97 100 93 84 82 82 70 58 59 56 63 70 66 74 75 69 74 76 76 80 87 82 111 219 259 280 289 300 300 303 301 300 299 294 285 266 256 246 244 245 242 243 
665 718 698 580 450 341 285 266 292 335 393 408 355 286 216 154 129 126 127 129 119 114 120 125 124 133 123 113 114 106 107 103 96 80 77 74 74 73 94 101 98 96 89 88 90 70 64 56 61 60 64 69 71 67 69 72 74 77 77 81 148 260 314 327 338 329 319 309 300 291 278 272 258 245 246 245 245 259 256 262 
623 636 590 449 389 375 370 301 237 252 277 324 415 444 253 147 126 119 122 127 118 112 122 130 130 137 119 112 120 106 106 108 103 95 87 86 83 82 95 102 98 92 94 94 86 78 73 65 58 57 56 62 68 67 66 72 72 72 78 89 150 282 328 342 338 324 305 296 278 271 268 261 256 253 256 268 273 293 292 291 
618 480 380 325 335 353 414 412 339 226 203 226 275 286 217 138 120 118 113 119 111 108 120 130 135 137 119 116 119 110 112 115 110 102 99 92 96 91 95 106 102 91 89 90 95 85 75 68 64 55 50 54 53 59 67 69 76 78 78 82 138 284 329 338 321 307 291 289 280 276 275 279 281 285 296 309 318 316 311 300 
653 520 360 316 352 450 460 400 411 395 217 156 184 209 182 124 113 117 102 92 83 102 121 130 135 135 126 118 122 111 118 112 109 105 103 95 89 92 102 110 108 97 95 92 92 81 79 76 74 68 58 56 55 50 58 72 76 73 71 85 158 281 336 341 325 312 305 311 304 305 304 303 306 312 315 317 311 302 295 278 
620 544 432 411 446 484 383 315 333 375 229 165 161 167 138 120 117 134 108 67 58 85 107 126 125 121 119 119 123 115 114 113 111 104 100 92 89 84 94 101 105 109 103 93 91 88 91 89 86 77 60 58 57 47 55 71 71 76 86 90 160 287 335 340 340 349 337 323 313 311 309 313 314 308 307 295 276 267 259 251 
543 574 594 564 511 448 308 257 247 223 193 248 272 176 134 121 130 139 117 90 64 77 93 100 110 115 122 118 125 116 121 121 117 109 106 101 98 93 91 102 105 101 98 98 94 92 94 96 88 74 73 77 69 61 66 65 74 78 82 90 158 287 322 354 357 333 319 316 307 309 306 306 302 282 267 262 259 261 249 246 
490 567 621 646 638 565 338 245 223 195 236 458 329 198 144 126 129 127 124 114 84 87 82 84 87 102 116 114 125 119 122 121 117 111 112 106 108 101 99 102 110 103 102 103 99 97 90 87 92 90 86 83 81 74 77 70 80 81 86 94 142 269 318 338 330 321 320 318 307 298 293 283 266 264 261 259 258 263 252 256 
370 486 605 733 695 615 332 236 225 205 254 342 267 321 189 131 123 118 117 119 100 82 73 78 79 89 109 116 119 114 116 117 118 113 109 108 109 105 108 103 107 106 108 106 103 93 90 92 102 98 93 90 92 92 85 79 83 91 90 98 129 262 315 334 333 330 332 328 304 285 272 267 263 264 263 268 266 271 270 262 
273 342 557 753 664 540 289 206 199 219 235 251 271 442 284 136 121 118 122 119 112 83 75 76 77 86 105 116 116 110 113 114 118 117 115 109 113 107 106 106 101 102 111 106 95 92 96 105 119 100 96 99 98 101 92 90 92 98 100 105 133 257 318 332 327 334 336 326 300 280 273 270 272 275 279 281 277 287 277 273 
246 298 503 665 639 467 240 199 215 231 242 262 355 441 384 168 124 120 123 118 117 84 69 74 82 78 99 110 119 112 113 112 114 112 112 110 110 105 103 104 99 92 103 100 101 104 107 115 139 110 110 127 123 106 102 99 100 107 108 109 134 260 314 324 327 328 330 326 312 297 297 298 299 299 305 309 306 306 289 284 
245 365 524 541 495 289 216 221 233 243 267 308 360 478 478 204 128 122 122 118 115 89 74 81 76 79 93 106 117 113 111 113 112 113 109 108 107 102 102 99 87 86 91 107 113 114 123 126 146 132 191 272 258 157 118 107 104 107 109 111 136 262 310 321 327 321 321 329 327 320 317 314 309 308 302 300 294 289 286 278 
491 635 520 383 300 244 328 287 267 288 351 437 542 570 437 185 122 125 121 114 112 96 77 80 80 84 93 102 112 112 112 113 109 108 105 107 105 100 99 104 102 104 102 115 131 135 150 163 198 269 370 391 385 308 147 120 112 113 117 115 147 277 326 330 331 332 348 353 345 333 312 303 299 299 293 286 281 285 276 263 
373 430 378 277 211 260 395 457 411 392 561 633 584 413 239 153 123 123 117 115 114 104 85 89 85 84 89 90 104 105 109 110 107 107 107 105 101 107 118 137 131 119 115 124 177 278 339 363 393 411 409 409 406 381 216 135 116 119 120 122 153 295 341 352 375 408 420 420 406 388 338 298 292 285 274 273 272 270 265 262 
473 384 344 273 229 242 315 466 479 490 583 466 318 237 180 129 121 121 118 117 117 105 92 92 86 81 85 87 103 103 109 109 106 108 107 103 108 117 207 343 307 185 207 301 362 381 391 403 419 425 418 412 414 400 286 143 119 119 122 131 176 325 369 390 409 418 421 424 421 415 382 304 287 280 274 272 269 270 268 266 
531 466 433 373 266 226 252 438 460 577 450 286 219 164 134 119 116 116 116 113 112 106 94 94 84 78 85 85 96 97 107 106 102 101 105 108 116 143 337 404 404 380 384 408 397 388 400 407 426 430 423 417 422 412 351 167 132 140 188 263 337 379 398 399 407 405 408 415 413 417 405 332 290 278 276 275 273 273 274 277 
456 505 771 810 527 267 222 266 379 543 419 244 157 137 132 116 114 112 116 113 111 106 93 91 86 75 70 80 94 96 100 106 109 108 114 117 148 232 397 418 413 410 405 408 405 405 405 414 423 431 429 427 426 419 391 233 233 322 379 395 406 406 412 414 412 409 406 410 415 419 419 364 298 285 282 282 276 285 290 287 
489 475 764 876 692 263 174 201 233 277 255 160 130 150 126 112 110 110 111 110 108 102 95 89 75 64 69 86 98 95 104 111 109 113 128 193 313 373 408 421 411 409 416 418 408 403 408 412 426 428 430 428 430 424 414 399 398 408 407 408 411 409 415 416 420 413 411 414 420 423 431 397 306 289 283 283 290 296 292 287 
376 304 317 468 371 186 156 185 259 231 169 133 160 141 121 112 111 107 111 109 107 106 97 81 62 65 75 81 92 93 107 111 111 126 223 335 383 388 411 426 426 419 431 426 420 415 406 416 427 425 432 429 430 427 418 421 422 423 414 414 410 411 416 416 417 418 419 424 426 428 429 411 317 292 290 298 300 308 296 282 
316 247 232 277 256 232 203 218 239 166 131 155 155 125 118 113 112 113 112 112 106 122 112 94 71 59 62 71 86 99 105 110 120 184 376 405 403 401 409 423 427 432 432 428 422 417 415 417 423 428 435 432 430 430 428 429 430 432 423 417 420 416 419 421 424 419 422 424 415 415 421 414 326 298 295 308 314 300 284 275 
268 238 218 249 251 247 237 234 223 178 155 167 139 119 116 113 111 113 116 113 109 126 112 78 58 48 49 59 78 93 101 112 134 301 404 412 413 412 411 425 428 432 427 431 429 421 423 419 425 425 433 434 430 431 428 432 436 437 430 427 436 432 427 427 428 421 417 418 410 414 419 411 328 306 306 313 300 289 273 266 
245 222 202 247 247 241 226 226 219 215 195 158 126 121 115 111 113 111 116 111 109 88 60 55 41 27 26 39 64 80 102 151 252 384 400 411 417 429 428 426 425 432 430 432 428 428 427 423 423 427 434 432 435 430 432 433 435 440 439 431 437 433 434 432 424 418 416 413 410 412 417 401 324 314 315 299 286 283 273 264 
233 210 202 248 239 213 193 257 269 235 191 137 124 118 118 113 111 112 115 115 109 78 66 51 26 24 47 45 50 65 156 275 373 413 387 396 420 426 433 426 428 429 427 429 430 427 425 424 428 429 430 432 435 430 431 437 433 440 439 435 433 435 429 428 425 412 406 408 407 415 413 381 327 319 306 291 285 284 275 268 
224 207 215 244 237 203 212 317 276 236 162 130 122 123 118 114 117 115 114 116 109 103 77 59 39 48 73 57 53 98 237 344 408 417 379 382 417 397 419 432 430 427 431 431 429 422 419 420 425 425 431 431 433 432 433 442 438 443 438 436 431 428 424 421 419 410 408 413 413 424 421 366 334 318 300 290 288 289 276 266 
225 198 226 244 253 303 414 334 222 181 144 126 126 123 115 115 110 113 113 112 106 110 82 60 41 29 49 56 86 174 298 379 416 422 391 374 403 419 410 430 428 422 421 424 421 418 416 417 427 421 425 421 424 425 426 441 435 440 443 432 428 422 421 419 417 413 415 418 416 426 408 352 335 320 307 303 291 286 279 273 
240 236 259 255 355 532 394 228 194 163 132 121 119 118 116 113 112 114 114 112 112 125 115 86 47 26 49 71 119 228 324 397 417 423 408 375 410 416 420 419 434 419 419 424 421 419 424 425 426 427 427 425 422 421 418 433 440 443 441 435 425 423 422 422 421 422 419 423 424 422 384 339 334 329 321 308 290 283 284 276 
349 398 304 264 389 521 276 198 193 145 129 120 118 118 114 112 111 111 112 114 110 127 126 99 57 34 25 56 162 241 338 398 417 422 421 411 392 405 425 415 428 419 420 423 425 418 422 424 429 425 427 422 417 416 419 434 437 439 437 439 428 430 421 429 428 424 425 427 422 404 343 336 346 339 317 299 291 297 293 286 
435 545 329 261 281 253 217 200 170 137 129 123 116 116 112 110 112 111 113 114 112 133 129 100 50 16 0 45 180 238 334 404 419 420 424 428 405 394 414 425 428 421 419 421 426 427 425 422 428 428 425 419 411 406 415 429 438 446 435 440 435 430 425 423 430 426 427 425 401 353 326 332 346 337 320 312 308 304 295 289 
571 560 322 252 220 227 234 199 150 131 122 115 113 113 112 108 106 111 112 114 108 130 123 99 42 19 7 66 174 222 313 399 418 421 425 431 422 408 406 422 418 415 412 417 417 416 423 420 424 424 421 418 413 407 423 438 441 435 426 425 423 419 431 426 432 428 424 407 363 330 318 330 336 327 312 302 292 288 283 283 
850 699 319 290 379 307 343 196 141 125 119 112 114 114 109 110 109 113 112 110 112 130 123 108 80 51 35 50 124 206 307 394 418 420 425 428 425 423 408 419 417 413 407 405 403 406 415 413 420 425 423 421 418 419 426 436 432 426 419 408 410 401 401 412 423 411 392 373 334 317 310 323 330 314 300 293 292 284 280 275 
851 661 304 319 443 368 312 160 126 121 121 113 113 112 110 108 107 113 115 115 107 129 122 97 55 38 44 45 68 146 274 376 408 420 423 429 430 425 417 412 421 415 412 409 401 394 402 410 420 425 428 426 422 428 424 426 415 408 399 372 338 302 342 374 374 358 343 327 311 305 306 325 324 312 301 294 289 290 286 275 
371 374 259 297 379 341 196 128 119 118 117 114 111 113 107 106 108 112 112 113 110 131 117 97 61 54 51 54 62 89 224 322 385 419 430 424 431 427 420 417 416 419 406 414 403 395 402 410 418 421 420 419 425 427 420 410 391 348 269 200 166 152 191 269 313 334 326 318 307 305 313 334 328 315 309 306 305 294 288 273 
198 242 239 276 326 243 129 115 114 116 112 108 111 108 103 103 106 113 116 114 112 129 115 95 63 44 48 43 53 58 147 264 301 352 408 433 423 421 421 419 416 408 379 374 384 405 408 409 417 420 418 417 419 415 398 369 276 166 112 107 119 123 131 163 250 324 331 317 304 309 319 331 323 318 314 312 293 286 270 255 
181 230 231 220 170 120 97 97 100 105 109 108 105 105 104 103 105 109 111 112 109 126 110 73 48 40 47 46 52 45 109 233 261 287 348 404 397 375 353 347 341 329 320 324 361 415 424 403 416 421 416 408 413 384 335 269 165 105 85 92 104 116 117 129 180 281 319 316 305 306 311 319 322 318 310 299 283 269 245 245 
179 233 227 177 129 108 92 86 86 86 93 98 101 102 102 103 103 108 112 109 105 128 106 68 38 13 31 51 53 52 79 195 238 268 296 322 340 327 299 286 295 309 319 341 375 419 419 425 441 431 422 403 384 306 254 211 178 106 86 80 100 110 114 124 137 212 288 307 300 299 298 310 318 311 303 290 258 254 243 251 
193 228 222 162 129 99 90 89 87 81 76 73 84 90 95 101 101 105 108 106 104 125 109 63 17 17 44 54 61 52 67 127 215 249 272 275 264 258 262 273 288 327 331 351 388 418 428 434 443 430 407 387 319 238 177 155 157 106 80 80 96 110 113 120 126 151 240 292 296 292 298 310 319 308 285 264 252 258 272 288 
223 236 217 144 108 82 77 81 84 80 81 72 69 73 81 86 86 96 102 102 100 120 112 93 55 28 43 52 61 53 64 83 158 225 253 245 240 236 248 281 297 319 337 362 368 396 423 431 422 401 350 304 236 168 114 113 111 94 83 81 99 108 113 122 125 132 175 266 289 291 304 317 319 291 271 260 257 280 294 296 
299 239 213 137 97 78 73 74 76 78 76 78 71 70 68 70 64 74 84 89 91 110 109 90 43 33 39 46 48 48 58 60 83 166 234 238 231 232 260 287 294 307 327 325 333 376 414 422 381 312 264 215 161 108 89 89 84 81 77 84 99 107 112 115 121 120 138 224 274 292 312 302 294 269 263 265 276 303 295 296 
284 239 208 147 109 89 75 78 75 69 72 69 73 75 77 74 78 78 75 71 75 97 108 93 57 52 58 73 71 55 65 52 64 98 180 215 233 239 246 264 272 286 271 293 316 337 357 324 268 240 193 144 104 88 84 83 79 79 79 83 103 106 110 115 118 120 123 173 242 283 293 287 275 275 272 275 285 290 283 281 
276 237 219 182 126 102 84 79 79 67 68 61 63 67 70 73 78 83 80 75 70 96 106 105 88 58 75 92 91 84 84 81 89 94 121 168 215 227 232 237 252 250 236 259 263 254 238 236 222 181 136 111 95 82 83 85 88 89 90 93 101 108 108 115 118 115 117 139 211 272 275 275 277 278 270 280 285 287 278 258 
240 229 220 196 136 107 94 87 80 70 71 71 66 71 68 71 78 84 78 75 70 107 111 115 106 72 71 109 101 91 98 144 157 122 111 124 157 192 206 225 229 218 205 213 205 194 197 180 153 125 104 106 96 91 93 100 98 103 101 100 105 108 113 114 116 113 116 128 181 248 262 274 287 277 272 291 288 282 262 223 
225 234 214 188 144 110 97 89 90 85 83 77 75 73 73 73 75 81 80 71 53 89 113 117 99 73 68 110 115 101 128 234 151 111 109 111 116 122 154 186 200 186 181 186 171 160 151 129 120 103 103 107 107 105 103 101 103 104 101 100 107 107 116 116 121 115 114 122 153 219 253 283 287 267 284 290 288 269 235 230 
230 237 217 193 155 127 108 99 97 97 94 90 89 85 85 81 82 88 92 80 59 80 110 116 102 75 69 102 129 109 122 134 112 114 112 107 107 105 114 132 146 145 147 147 140 135 130 123 121 114 112 118 119 114 112 115 107 109 110 103 111 113 117 121 121 116 119 125 138 182 245 280 275 279 298 295 285 247 239 256 
216 223 213 184 154 146 134 119 107 104 105 100 102 100 93 88 90 96 96 90 69 86 112 117 107 86 74 97 136 110 111 107 114 119 120 111 105 103 104 111 129 131 130 135 129 129 129 124 124 123 121 122 123 115 112 114 110 112 109 107 106 111 113 119 120 119 116 124 124 152 224 257 262 289 287 283 253 245 250 278 
204 210 206 201 182 167 146 141 136 130 126 118 116 110 107 101 100 102 105 101 93 106 112 120 116 106 82 110 144 111 102 94 118 124 123 113 107 107 108 106 116 126 130 134 131 129 131 126 131 131 125 128 127 120 124 126 131 116 111 114 113 118 119 122 124 121 118 127 122 135 174 226 269 292 277 264 242 253 280 300 
195 201 198 199 195 189 182 170 147 138 134 131 128 130 125 111 106 107 111 113 114 119 116 121 115 116 112 166 163 118 113 106 121 124 125 117 115 102 102 102 111 111 127 137 132 129 131 128 133 131 126 130 137 129 162 246 243 162 121 114 117 118 114 122 123 122 122 123 122 122 138 177 237 272 266 266 247 268 283 290 
231 222 212 202 192 184 180 175 148 134 136 132 139 136 135 127 125 127 127 132 129 128 119 122 122 123 120 170 160 120 110 111 124 126 125 121 117 109 112 111 114 116 131 141 131 132 135 132 138 134 130 141 166 195 366 559 427 225 135 120 122 119 120 123 122 122 122 124 126 121 128 144 188 231 243 270 277 297 290 289 
260 249 237 231 221 209 189 171 140 133 134 134 132 135 134 131 130 133 140 139 134 127 116 119 119 123 116 144 154 117 111 110 124 127 128 122 120 114 125 124 121 121 131 143 132 134 134 130 140 131 131 141 154 197 426 617 447 223 138 121 119 118 123 125 123 121 121 120 120 125 129 133 145 165 189 226 249 258 267 275 


