P2
80 60
303
303 277 259 225 180 144 103 75 64 59 49 39 44 48 39 42 38 32 39 42 39 40 40 35 42 37 31 33 32 33 31 33 35 38 35 36 37 38 40 42 46 46 46 48 46 48 45 46 42 43 42 41 39 42 40 42 42 37 37 33 33 28 31 24 27 22 25 22 24 17 16 15 17 12 11 9 9 9 6 0 
274 247 216 170 133 102 72 62 54 46 40 37 42 44 44 40 40 39 40 42 42 41 41 41 39 36 37 36 35 28 30 34 35 38 38 39 37 40 38 40 49 44 49 48 46 46 48 44 44 44 41 43 42 39 41 41 42 40 38 37 31 28 32 24 26 24 24 22 22 21 21 17 14 12 12 13 11 10 7 3 
241 197 155 119 94 73 53 47 43 37 41 34 39 45 42 39 42 38 41 44 42 44 45 39 40 40 41 38 39 32 34 37 38 36 36 42 41 40 38 41 49 46 48 45 47 50 49 45 44 43 40 43 45 43 41 42 42 41 37 36 36 33 34 27 27 24 23 24 24 22 17 13 13 13 12 12 13 12 8 3 
188 144 108 79 58 54 43 34 33 35 38 37 37 40 43 42 40 41 44 45 46 42 42 40 42 39 40 44 40 34 35 34 35 38 37 39 41 38 42 44 44 47 48 47 48 47 48 43 45 40 43 43 45 45 41 44 44 42 37 37 31 29 33 29 24 29 23 19 21 22 16 16 16 12 11 12 14 11 8 7 
132 93 74 54 46 36 32 28 30 30 33 33 37 39 41 42 42 42 46 43 49 43 48 44 48 46 40 45 41 40 38 39 34 33 33 41 39 41 39 42 49 48 49 47 45 50 50 45 47 42 42 44 45 48 45 42 40 41 38 33 29 26 29 28 30 27 24 23 18 19 15 14 11 13 12 9 14 12 11 7 
101 79 70 50 38 32 27 27 27 25 32 30 36 43 40 38 44 42 44 43 45 46 47 49 46 45 40 45 42 43 44 43 39 35 34 37 39 44 42 44 44 47 48 48 47 48 45 44 42 41 42 39 39 44 39 40 43 39 34 33 29 28 27 26 26 26 23 23 22 22 20 14 13 13 12 10 15 16 12 12 
77 65 51 50 40 36 29 22 28 28 25 29 34 37 41 40 46 44 47 44 46 45 48 46 50 48 46 43 44 47 43 47 42 42 35 39 40 40 44 42 44 47 49 47 48 47 45 44 44 40 43 40 39 44 40 40 38 39 32 32 29 26 28 25 26 27 23 24 23 24 21 19 15 13 16 17 17 18 14 11 
61 50 49 39 36 39 32 24 26 25 26 29 33 36 41 41 41 45 46 47 46 47 52 47 49 51 47 45 45 46 48 45 45 46 37 40 39 42 46 47 45 47 53 50 49 51 46 45 43 41 42 42 40 42 40 38 35 36 31 32 34 30 28 29 28 28 26 24 25 21 21 21 19 17 15 21 19 17 18 13 
61 49 46 45 41 39 35 28 29 27 29 27 30 39 36 42 44 46 48 44 46 49 51 49 48 52 48 52 46 44 42 47 48 47 49 44 44 44 44 46 46 50 50 49 48 50 46 45 42 39 43 43 39 39 37 36 38 35 33 33 35 29 32 29 25 30 25 25 23 22 23 25 22 21 18 23 21 17 16 12 
55 54 48 43 40 37 37 31 31 27 28 30 29 34 34 36 44 41 47 46 47 49 51 48 52 51 51 50 46 49 45 47 49 50 49 47 42 42 43 41 48 46 49 48 49 51 47 46 44 43 38 43 41 39 40 36 36 34 33 35 33 30 32 29 30 29 30 26 24 25 21 24 20 19 17 21 20 18 19 16 
58 57 49 44 40 39 40 32 26 29 29 31 29 35 33 35 42 41 46 46 47 48 51 52 53 52 51 50 50 46 47 47 50 50 45 49 48 45 44 41 44 48 48 47 48 49 49 46 46 42 43 38 39 42 37 36 35 36 32 33 32 31 33 30 29 29 28 24 27 26 26 21 23 20 18 25 19 16 18 13 
53 53 45 43 41 43 42 35 33 31 28 33 30 36 34 35 37 38 42 45 45 49 51 51 54 52 48 53 53 53 48 49 51 50 49 52 51 44 47 43 41 47 46 48 47 49 47 46 47 42 45 40 39 37 38 34 36 33 33 34 34 29 31 30 32 31 31 29 27 26 25 23 23 26 23 22 21 20 16 17 
55 48 50 47 47 46 45 41 42 33 32 34 30 34 33 34 36 38 44 46 50 46 52 51 52 51 54 55 55 50 55 49 51 54 48 51 52 51 50 42 42 43 47 47 47 48 47 43 46 43 42 40 41 38 37 34 37 36 34 35 34 31 32 33 29 33 29 32 28 29 29 24 23 23 22 24 23 20 22 15 
51 49 48 44 45 49 45 47 51 40 32 34 32 35 33 38 39 37 40 40 51 51 52 51 55 55 56 54 55 52 52 55 55 50 50 51 51 49 50 45 42 42 44 44 48 47 45 43 45 42 42 38 37 37 37 35 38 38 36 35 33 31 32 32 32 32 30 29 27 28 25 28 24 25 24 25 23 20 22 16 
51 45 39 44 43 45 48 46 48 45 39 30 32 35 39 40 38 38 40 40 48 52 53 55 54 59 55 54 56 55 53 54 55 51 47 50 51 51 52 50 45 43 41 44 48 49 45 41 42 38 41 40 40 37 37 36 39 37 38 38 37 34 35 34 33 31 31 30 30 26 28 27 26 30 25 29 23 27 22 16 
52 43 40 39 42 46 50 48 49 46 47 42 35 38 39 38 42 40 37 40 47 51 57 58 56 58 55 57 57 53 54 60 53 53 49 51 54 52 52 51 50 47 41 40 49 47 46 44 42 41 42 39 36 39 40 38 37 42 35 38 36 34 35 36 33 33 32 33 32 27 30 31 29 28 27 32 30 25 24 23 
52 52 40 38 37 39 41 48 48 50 51 40 40 41 37 37 44 38 38 43 47 50 55 59 57 57 57 55 56 59 58 57 57 53 48 49 50 52 52 50 48 44 48 47 49 46 45 45 44 45 43 39 36 38 39 37 39 38 36 37 37 35 38 35 32 33 32 29 31 30 32 32 30 30 27 33 27 27 23 20 
53 54 44 39 36 37 38 42 48 48 50 45 44 42 41 40 47 40 40 39 44 47 56 59 55 53 55 54 54 55 55 55 58 52 48 46 49 50 51 51 52 47 44 42 44 41 41 39 43 44 44 42 38 34 39 37 39 39 36 37 37 35 35 36 36 34 33 31 31 27 31 31 26 29 27 28 27 26 25 23 
54 53 50 42 38 37 34 34 42 47 49 42 45 46 43 41 43 42 42 43 48 49 52 57 51 48 50 52 56 53 50 53 51 51 48 45 48 49 52 50 52 49 43 41 40 40 42 42 50 41 40 41 37 32 34 37 35 40 35 36 39 34 37 36 34 37 31 33 32 30 31 31 30 32 27 29 26 27 27 20 
46 51 53 43 35 35 33 34 39 40 46 43 46 47 47 47 48 44 45 44 43 47 51 53 49 42 47 53 50 47 48 50 49 50 49 49 46 50 48 51 51 44 46 45 43 41 40 45 46 44 43 42 35 34 31 31 34 36 36 41 39 35 39 38 33 36 35 31 31 29 30 29 32 32 29 30 27 30 25 24 
39 50 49 47 44 36 34 36 39 37 44 38 43 51 48 48 50 49 45 45 46 51 50 54 48 43 43 49 51 47 50 53 53 54 47 51 50 47 43 46 47 47 49 48 47 46 45 47 47 47 44 39 34 32 31 31 30 33 36 40 37 37 40 39 39 36 34 33 32 32 30 28 31 29 30 31 28 26 25 23 
44 45 51 47 46 36 37 36 41 43 43 43 44 46 47 46 53 53 53 52 51 51 49 52 46 41 42 47 51 46 47 51 53 52 53 51 50 50 51 49 45 47 50 51 49 46 46 48 49 44 44 39 33 32 28 31 32 32 31 37 39 38 41 40 38 36 35 35 32 33 33 32 29 31 32 28 27 31 26 24 
41 42 44 45 50 47 44 35 38 41 43 40 40 41 41 42 46 51 53 51 51 48 50 48 47 42 42 46 49 51 51 50 55 56 56 55 53 48 50 48 45 48 49 49 49 49 48 46 47 45 44 41 37 34 33 29 33 31 28 29 34 33 41 43 36 36 33 33 31 29 33 33 30 27 29 30 28 28 29 23 
38 41 43 45 51 50 49 45 42 47 44 41 41 41 38 44 44 48 51 53 51 49 49 49 47 42 42 44 47 50 51 53 52 54 56 58 55 52 52 52 53 48 50 46 50 51 48 47 49 43 46 41 42 37 30 29 30 31 25 30 30 35 39 40 37 36 35 32 35 31 34 32 31 28 28 32 29 28 27 20 
38 45 44 40 47 51 54 50 49 48 48 41 41 40 40 45 43 45 46 52 51 52 54 53 49 44 42 44 50 49 51 57 53 57 58 60 57 54 53 50 52 51 53 51 48 50 47 48 43 46 45 46 42 41 30 29 32 27 29 29 32 30 33 37 37 34 34 31 36 34 31 32 32 34 32 31 30 31 30 22 
40 40 42 43 48 47 53 52 51 47 46 42 41 38 33 38 41 39 43 45 48 51 50 54 49 45 44 43 45 50 52 52 57 56 56 60 58 55 52 52 51 51 51 50 50 49 47 45 45 44 44 42 44 46 35 34 33 32 29 28 28 31 33 34 34 31 33 34 32 30 33 32 30 32 33 29 29 28 28 25 
43 43 47 45 47 48 51 52 56 55 52 42 42 41 38 40 42 42 39 44 44 46 47 48 52 47 47 43 46 50 47 55 56 57 56 60 67 56 57 55 52 52 51 53 49 52 46 47 45 46 44 40 47 45 40 31 29 28 27 28 29 29 32 31 32 29 35 33 35 32 31 29 31 28 31 30 29 29 29 23 
46 44 48 47 44 47 47 50 53 55 53 47 38 41 37 40 39 41 42 45 43 44 45 46 49 50 49 47 45 49 52 53 55 55 56 58 62 59 58 57 52 50 48 45 47 48 47 47 45 46 45 42 43 47 44 36 34 35 28 30 28 28 33 32 33 30 33 32 32 33 33 30 29 29 29 33 33 27 28 26 
47 43 46 46 44 46 48 47 49 52 54 52 44 44 35 41 39 37 37 40 39 42 44 41 47 49 50 53 49 55 48 54 51 58 55 62 61 58 59 55 56 50 50 48 45 46 46 46 46 44 45 43 42 45 38 40 40 35 28 30 28 28 32 29 28 30 32 33 31 35 31 29 28 29 32 35 29 30 30 29 
44 50 48 42 45 49 47 46 50 52 53 56 50 47 39 38 41 38 36 40 40 42 43 43 46 49 50 55 53 51 48 53 51 56 57 58 63 58 59 54 53 52 48 47 44 47 46 41 46 41 41 43 39 45 41 37 37 37 38 32 28 26 33 31 27 32 32 31 32 32 29 28 27 25 26 32 30 30 33 24 
44 48 50 45 46 47 50 49 57 56 57 52 56 52 45 42 43 40 38 38 41 44 44 45 45 44 47 52 52 52 52 54 53 56 55 58 61 59 59 56 53 50 52 49 42 47 42 42 44 42 43 46 42 38 40 38 39 37 33 38 34 29 34 32 28 31 32 31 30 29 28 25 25 23 23 33 29 30 31 27 
43 44 49 45 50 50 49 51 58 54 53 56 54 53 52 47 42 40 41 46 41 46 42 43 41 50 44 48 51 48 52 57 53 56 56 57 56 58 59 56 52 49 50 45 46 45 39 39 42 42 43 43 40 39 37 37 38 37 32 34 37 33 36 38 37 34 29 29 31 27 29 27 24 27 22 29 29 29 26 27 
46 48 49 52 49 48 53 55 56 56 55 53 54 55 53 52 47 46 44 45 46 47 49 48 49 53 47 49 49 49 52 52 53 56 52 55 57 55 56 55 54 50 51 48 48 48 46 42 43 40 41 39 41 40 39 38 39 35 37 34 36 34 39 39 37 34 28 26 27 28 26 29 22 23 21 27 34 26 28 24 
53 52 51 46 49 52 53 54 55 54 54 53 53 51 49 53 49 50 46 48 49 49 46 50 50 50 48 50 53 48 47 52 54 55 52 53 56 55 57 54 56 54 51 48 48 46 42 45 42 42 41 42 40 41 39 39 40 39 42 41 35 36 37 39 36 36 37 30 27 23 22 25 21 21 25 23 26 29 27 28 
53 59 51 51 50 49 51 55 56 59 54 50 50 49 49 50 50 50 50 53 50 51 47 48 49 51 51 50 52 51 47 51 49 53 48 53 52 51 52 50 55 51 52 50 49 46 45 44 44 40 39 40 40 43 42 37 42 38 39 40 39 34 36 36 34 35 35 30 27 28 24 24 21 19 17 22 26 25 27 25 
56 55 55 50 50 52 53 52 53 57 57 52 49 50 49 48 49 51 47 51 52 51 49 48 50 51 48 50 49 48 52 49 49 52 48 54 51 53 52 52 54 56 56 49 50 49 43 43 41 38 42 43 39 43 40 40 41 43 38 40 42 36 37 34 29 31 33 33 33 29 27 28 23 22 19 23 21 24 23 19 
55 59 53 50 55 50 47 51 50 54 54 54 48 52 47 49 43 48 51 50 51 53 52 49 49 52 50 51 51 49 50 52 51 52 51 50 52 53 49 52 51 52 54 48 52 50 44 42 39 42 40 43 42 44 39 40 44 41 43 41 42 39 40 35 32 29 28 32 35 32 34 28 25 24 24 23 22 20 25 17 
58 61 59 50 50 54 50 50 53 54 55 53 48 52 50 49 48 49 47 49 52 55 55 55 53 49 49 50 48 51 47 52 50 50 53 52 52 53 51 54 50 51 52 47 51 49 48 44 42 38 35 38 42 40 43 41 42 43 40 41 38 36 36 31 30 26 29 32 37 36 33 33 28 28 24 25 22 17 20 17 
60 60 57 50 50 52 50 52 52 50 46 49 46 51 51 48 51 52 48 49 52 54 52 55 54 51 49 48 45 47 47 55 48 54 52 52 53 51 53 53 52 51 52 52 53 52 50 45 42 34 37 37 39 42 41 38 45 41 36 41 37 36 36 30 26 29 29 30 34 34 33 34 33 34 28 25 21 20 22 17 
64 65 59 58 55 53 55 55 52 50 48 49 47 52 51 53 53 52 45 48 50 52 53 53 55 54 49 51 48 45 45 51 49 50 53 53 57 53 55 54 56 54 56 51 56 53 57 49 41 37 33 36 36 41 37 35 40 39 37 36 43 38 33 30 28 26 28 28 34 35 35 33 34 31 27 30 24 21 17 17 
49 56 57 61 57 57 59 54 51 53 50 45 47 51 50 50 47 49 46 51 50 49 50 54 53 54 49 52 52 49 45 52 48 50 49 49 52 52 51 51 56 54 54 54 52 53 53 49 41 34 30 31 33 32 37 35 39 38 35 36 43 33 34 28 26 27 25 27 31 33 35 36 30 31 32 30 31 27 18 13 
39 47 55 58 55 58 57 59 61 51 54 46 46 49 46 50 48 49 46 50 48 50 49 50 51 51 49 52 50 51 49 51 48 50 48 50 52 53 52 56 54 49 56 49 50 50 50 47 41 35 31 30 31 30 32 29 35 35 33 38 39 34 38 28 23 27 27 25 31 34 36 37 33 33 33 32 30 25 23 18 
38 39 42 50 53 57 60 58 56 54 58 49 46 46 50 50 46 45 44 47 46 49 47 50 48 51 52 54 52 52 51 52 53 52 48 46 52 53 51 58 56 51 54 51 54 48 48 44 40 35 32 29 30 28 31 27 30 34 29 32 38 37 39 32 25 26 27 23 30 31 33 38 33 36 33 34 35 28 29 11 
36 38 44 42 45 51 56 60 60 53 55 50 48 47 49 50 50 50 49 48 46 46 49 48 44 46 48 48 51 48 52 50 54 55 50 52 53 52 50 49 50 50 51 47 55 46 46 41 37 35 32 33 30 23 28 24 28 30 29 33 37 35 33 34 28 22 24 23 27 29 34 38 36 35 33 34 28 31 32 21 
41 39 41 37 40 47 53 53 62 56 57 51 48 50 49 52 46 50 47 50 47 45 46 48 48 49 51 51 50 48 52 52 52 51 50 51 52 48 48 50 51 51 55 50 52 48 45 42 37 34 32 25 25 26 27 25 27 29 30 33 35 34 35 30 24 26 25 24 28 31 36 38 35 35 35 37 35 32 29 22 
34 42 39 42 38 39 40 42 53 52 53 50 50 48 47 48 50 48 49 46 46 47 50 50 48 51 49 51 52 48 52 53 51 50 51 51 53 51 47 50 48 46 46 51 51 47 45 40 35 33 30 23 24 26 28 25 27 31 28 31 36 35 35 31 27 25 24 23 26 33 33 38 38 35 34 34 32 35 30 28 
32 33 33 34 40 34 37 36 39 48 49 52 51 48 49 47 48 48 43 44 46 49 49 44 45 50 50 50 49 48 48 49 53 53 49 52 51 49 46 45 45 45 47 48 49 49 47 43 36 33 27 25 24 24 27 23 29 29 30 30 35 31 30 31 25 26 24 23 25 30 28 31 35 38 36 35 35 34 34 24 
31 34 35 34 37 38 36 38 38 40 45 49 55 55 48 49 45 47 45 46 49 47 45 49 47 50 51 49 52 47 48 50 50 50 52 49 49 48 46 47 45 48 46 47 49 47 48 43 39 38 32 28 26 26 24 31 30 31 28 29 31 29 36 28 28 25 24 26 27 27 30 33 34 35 39 37 34 34 30 28 
31 31 33 34 35 41 38 39 39 34 38 37 50 54 49 47 45 46 47 50 47 47 47 49 49 46 46 51 48 45 49 50 47 52 47 48 54 50 46 48 44 47 47 44 46 47 46 39 39 33 37 33 29 28 29 32 33 30 28 32 34 31 34 32 27 29 24 24 24 27 34 33 31 31 35 41 34 34 32 30 
30 29 32 32 38 34 40 41 41 41 36 34 44 45 48 49 46 44 47 46 47 46 48 47 46 46 45 49 49 47 46 48 48 48 45 46 52 49 46 44 46 44 46 43 47 44 46 42 38 35 34 33 31 31 31 31 34 36 29 36 38 29 34 34 28 24 25 29 25 24 35 34 30 29 37 37 37 36 36 25 
29 31 31 31 34 33 37 35 38 43 38 36 34 41 42 46 48 43 43 46 49 49 47 46 47 45 45 51 46 46 44 48 48 46 45 47 51 47 46 45 43 46 43 43 48 48 44 41 40 32 35 35 32 31 31 30 33 33 32 33 38 30 36 34 29 30 22 26 26 28 30 31 30 36 33 37 32 32 30 25 
31 31 32 34 35 35 35 35 41 43 42 37 32 35 35 40 45 43 41 45 44 47 50 45 42 43 44 47 47 45 47 48 46 46 46 45 49 47 46 48 45 46 44 46 44 43 42 40 38 37 36 36 35 36 36 32 36 36 33 36 36 30 31 32 32 32 25 25 24 29 29 32 32 27 32 38 34 32 31 30 
30 30 29 32 36 34 36 33 35 38 38 37 28 28 28 30 47 42 44 47 47 42 44 45 43 44 42 45 44 46 45 50 44 46 47 48 51 50 47 50 48 46 48 47 44 42 41 40 40 35 38 35 35 36 37 33 38 38 33 38 37 34 37 33 29 29 24 24 23 27 34 32 32 35 35 38 36 33 33 29 
28 30 32 32 34 36 36 33 37 35 37 33 31 30 27 29 34 33 40 47 49 44 49 46 44 43 46 45 44 45 45 49 45 45 46 46 47 47 48 49 45 45 46 46 45 46 43 39 41 35 38 36 35 37 36 35 36 38 33 38 37 34 33 35 33 32 20 25 19 22 27 31 31 35 34 38 36 32 32 30 
32 29 31 32 32 35 39 31 33 29 31 32 31 26 23 24 28 27 31 35 42 43 48 46 46 44 48 45 45 46 43 47 40 45 42 43 45 45 46 48 48 49 48 45 45 42 37 37 41 37 36 34 34 36 37 37 36 41 35 36 35 32 35 31 29 27 22 24 23 24 31 27 33 34 30 36 35 33 32 28 
33 29 33 32 31 39 36 30 29 28 31 27 33 31 25 24 32 28 30 31 34 35 39 41 48 49 45 48 48 48 45 45 42 44 41 44 45 44 40 43 46 47 49 44 42 42 38 36 38 37 37 35 36 35 37 33 39 45 36 36 39 31 36 33 32 27 25 27 20 19 32 32 30 30 33 34 29 33 30 29 
34 30 33 32 34 34 36 31 29 28 30 30 33 31 31 26 28 27 26 29 31 28 33 35 39 43 39 43 44 45 45 44 42 43 40 41 42 40 41 45 43 45 49 49 42 43 41 38 38 33 32 35 36 36 36 38 39 38 35 34 34 31 37 34 32 27 22 22 22 22 27 32 31 32 31 34 31 31 27 26 
38 33 36 34 32 30 31 33 28 28 32 29 29 31 27 25 26 25 23 28 27 30 29 31 30 37 38 40 41 39 41 45 46 43 40 44 42 38 38 43 43 45 44 45 43 42 42 39 38 35 31 31 32 32 34 36 37 38 39 36 35 30 36 32 28 27 23 23 22 22 28 29 25 29 30 30 34 27 26 18 
40 33 36 28 31 28 31 30 32 27 29 30 30 36 32 29 27 25 25 26 27 29 31 32 33 36 37 36 36 34 40 47 43 46 42 43 46 41 41 42 45 47 45 44 44 38 40 39 38 37 37 35 34 35 36 33 39 40 35 35 32 29 33 31 27 26 23 20 21 20 26 29 25 30 28 25 30 26 28 17 
40 39 38 34 29 29 30 31 31 26 29 32 32 34 33 32 28 29 27 31 28 27 32 32 34 36 34 36 33 34 38 41 42 46 44 48 47 47 45 47 45 47 50 47 42 44 44 38 40 35 40 35 36 36 34 35 40 38 34 33 30 28 33 27 27 27 20 16 11 17 22 25 22 24 25 25 26 20 21 11 


