P2
80 60
617
260 242 228 221 216 210 196 185 182 182 176 177 179 201 211 214 254 220 218 240 245 220 215 225 246 241 222 203 196 198 203 198 187 185 183 174 200 158 172 198 188 179 177 186 176 167 170 175 174 169 162 162 160 158 155 139 105 54 23 12 7 5 0 11 30 108 152 169 194 174 168 171 158 151 145 147 140 140 141 134 
210 212 206 194 194 193 182 178 173 171 174 172 176 179 190 187 193 189 197 234 247 228 213 231 249 245 230 206 199 206 213 210 192 194 200 193 203 191 152 131 159 169 173 182 181 175 177 178 179 177 167 159 165 164 142 115 116 90 48 28 16 10 8 19 56 124 154 167 184 184 174 170 162 153 150 146 145 145 150 141 
182 186 188 183 181 182 169 169 168 171 170 171 169 176 179 173 177 175 187 228 245 239 219 223 246 253 238 218 202 211 215 221 213 206 214 200 187 151 102 85 133 164 173 179 184 176 180 179 177 178 180 164 177 189 151 89 117 133 94 55 35 25 22 41 95 152 164 168 187 189 178 174 172 155 157 150 148 151 154 147 
183 181 178 178 182 177 170 169 170 169 164 170 168 172 175 171 170 174 185 217 246 245 232 239 241 247 250 221 210 217 219 208 191 181 186 175 159 126 88 74 108 162 173 183 188 176 178 180 184 181 184 176 169 182 179 94 116 147 145 108 75 64 67 101 143 171 170 171 181 195 184 181 182 165 153 160 157 153 160 158 
183 175 174 174 175 174 168 164 169 173 174 172 172 174 176 175 177 175 182 208 248 247 246 234 233 249 251 224 195 195 191 183 182 166 167 162 131 120 95 90 114 164 177 185 190 188 181 183 183 178 180 173 164 177 196 135 125 150 161 159 144 137 139 156 166 177 172 169 178 197 197 181 189 171 160 160 164 179 184 184 
181 174 175 170 174 177 171 172 170 170 173 171 174 172 175 174 178 179 177 195 247 245 250 239 221 240 256 231 190 173 184 178 175 170 168 156 127 117 99 95 127 167 174 187 185 185 180 180 183 180 184 174 174 176 198 176 147 156 168 168 171 175 169 177 175 176 171 171 180 200 206 186 205 199 190 194 192 192 193 175 
179 168 173 175 176 178 176 170 169 173 171 170 176 175 176 174 186 187 190 207 245 250 247 216 208 226 259 243 196 179 179 172 177 171 170 167 143 119 116 92 147 174 178 180 181 183 179 182 181 184 179 182 170 165 196 186 162 157 162 171 169 174 173 181 176 183 175 176 180 203 220 225 218 220 209 199 191 185 168 151 
176 171 173 169 172 171 177 173 172 174 175 180 173 179 189 192 200 214 250 285 289 251 250 211 196 211 253 249 217 186 181 178 176 170 172 170 161 144 128 110 156 176 176 177 177 178 179 182 179 181 182 179 173 168 181 189 166 158 161 168 171 174 178 184 178 182 181 185 206 211 226 223 218 224 199 175 169 170 165 159 
176 174 177 173 178 180 180 178 179 176 186 187 190 207 218 252 281 292 326 306 252 250 258 230 199 197 249 258 234 189 181 183 172 176 174 178 172 170 165 157 178 174 178 177 176 177 177 182 184 182 180 181 180 169 184 180 178 167 173 165 175 182 181 192 192 205 218 211 218 216 219 207 198 218 204 182 175 186 188 187 
178 176 173 173 184 181 175 181 184 182 205 213 237 276 296 350 350 297 258 213 204 232 254 247 204 193 237 258 249 199 187 182 181 183 182 178 180 175 180 175 170 175 174 179 178 181 184 185 184 188 190 188 182 177 179 181 182 177 178 181 186 194 205 225 218 224 226 222 212 191 179 184 188 220 224 214 206 202 196 172 
179 168 178 178 184 188 193 203 220 258 302 310 315 324 292 296 314 269 207 191 195 217 251 256 215 196 213 254 259 212 192 180 181 177 178 182 181 178 175 179 174 170 177 179 179 185 182 183 190 187 191 182 186 181 186 176 186 189 199 209 221 230 234 236 227 216 202 186 187 183 183 190 206 218 223 214 206 188 170 146 
183 175 182 193 215 251 314 346 355 420 404 345 278 268 253 240 239 231 199 189 192 205 250 259 230 192 211 255 269 239 200 184 184 180 177 181 180 181 178 181 171 173 176 181 180 179 182 185 185 183 190 190 188 193 195 198 215 232 248 244 253 247 231 221 203 190 186 186 190 199 211 209 214 213 201 185 170 166 157 146 
188 192 213 300 370 425 471 418 364 329 279 250 240 258 246 212 216 224 214 208 199 205 241 262 251 205 205 245 260 253 205 193 184 179 175 180 181 178 180 182 169 170 179 181 179 182 186 191 186 188 191 197 200 220 237 250 254 261 262 248 233 213 195 196 190 186 200 213 217 215 219 206 194 184 171 164 161 160 158 145 
241 257 292 410 451 373 288 236 232 217 204 204 206 245 255 208 209 217 215 216 208 205 234 265 267 215 205 230 271 261 220 195 190 182 180 184 178 181 182 184 174 171 179 181 184 185 191 197 195 199 220 239 260 270 273 264 260 247 229 209 204 197 195 209 213 222 217 227 224 210 194 182 171 172 169 163 162 158 153 133 
432 361 306 299 251 226 207 198 204 196 192 186 189 214 230 202 197 200 214 212 208 203 220 258 273 234 204 215 238 240 229 194 188 185 181 181 185 178 182 186 175 171 178 183 183 195 206 228 237 252 269 274 277 268 253 231 213 206 205 211 213 224 240 242 232 225 218 205 189 179 174 174 168 174 174 161 152 149 143 131 
617 355 243 220 213 219 203 196 186 184 179 184 185 202 195 194 188 193 207 216 203 194 204 243 267 235 201 200 224 240 249 194 185 181 182 182 186 181 181 186 182 174 185 193 208 230 253 272 272 273 267 260 245 223 220 203 206 209 219 242 243 250 243 237 209 203 184 180 177 168 175 170 163 162 156 150 145 140 135 129 
405 307 228 224 226 226 194 182 181 184 180 189 184 189 193 192 187 185 188 195 196 194 193 214 246 246 204 189 227 263 272 207 189 181 183 185 179 187 187 193 197 195 217 250 268 269 283 280 267 252 228 216 217 211 212 223 240 256 254 260 251 235 212 200 185 185 182 177 176 166 168 158 155 156 152 147 146 142 140 128 
275 237 220 221 209 194 183 181 185 185 182 183 181 191 191 186 183 185 194 199 196 192 195 206 232 254 223 191 207 261 265 230 191 189 183 185 187 192 203 223 243 257 280 281 285 275 260 239 220 216 217 220 232 245 260 255 259 258 250 236 212 198 185 190 183 181 179 172 170 160 161 158 154 154 155 149 147 147 141 136 
230 208 188 178 175 185 181 176 178 183 181 184 182 179 180 178 178 180 186 191 193 184 186 200 248 271 246 193 187 251 269 252 195 189 188 196 215 228 250 264 272 270 280 263 248 225 225 217 218 225 238 257 270 273 265 253 242 232 212 195 198 195 188 190 184 185 178 173 168 164 163 156 156 157 154 153 151 146 145 134 
191 169 169 174 181 184 182 175 178 179 176 181 178 179 181 176 180 180 184 190 186 182 194 200 246 267 266 198 188 236 264 269 230 214 230 251 262 271 267 261 256 234 218 200 212 213 219 244 255 270 272 279 270 260 240 217 207 205 200 199 201 197 189 190 187 185 182 174 169 165 170 165 159 163 160 158 157 153 149 144 
173 173 172 175 177 179 178 176 175 175 177 177 176 177 180 174 175 178 183 184 190 188 186 191 234 266 268 220 188 218 258 272 282 268 271 266 260 250 238 219 191 191 186 193 221 247 269 272 279 274 269 251 234 219 211 205 200 200 201 200 194 194 192 191 187 184 181 178 174 171 172 170 165 168 166 160 158 157 151 145 
175 171 176 172 173 174 175 169 172 178 174 176 174 174 177 172 176 177 179 184 188 186 183 186 204 252 266 233 189 193 244 262 272 271 261 245 225 201 195 178 177 195 215 248 284 289 288 272 259 239 223 215 207 210 204 200 201 200 197 199 191 190 187 190 183 183 182 179 177 172 175 175 169 171 168 163 161 159 158 150 
176 169 168 163 169 170 171 173 176 179 176 173 176 175 170 174 177 180 182 183 182 184 183 184 196 233 264 250 196 189 215 233 237 223 210 204 191 191 196 210 230 253 269 292 283 271 256 231 212 200 203 201 201 198 196 197 195 197 197 198 188 188 184 185 180 183 179 178 175 170 172 171 170 172 166 163 161 157 154 150 
167 162 160 164 163 169 170 176 174 174 173 174 172 176 177 173 177 178 180 185 183 182 182 183 189 221 259 257 210 182 191 193 194 189 192 201 215 233 251 259 278 272 266 250 227 202 198 200 194 198 198 194 199 195 191 191 194 191 189 193 190 186 185 185 182 181 179 176 172 170 171 169 169 170 169 162 160 158 155 152 
165 162 167 163 166 168 173 173 176 173 177 176 174 174 178 176 179 181 181 185 187 185 182 183 185 206 249 256 236 190 192 189 198 214 231 252 268 274 270 268 252 231 214 193 188 184 192 192 194 193 196 194 197 196 192 190 190 189 193 191 187 188 184 187 185 183 179 175 176 172 174 172 171 174 168 163 165 157 156 150 
164 159 164 165 171 172 171 173 175 176 178 175 176 176 179 179 182 183 184 186 188 184 186 187 189 198 244 265 256 210 205 218 248 270 274 282 267 260 242 223 201 192 187 182 180 182 184 190 191 192 191 190 195 191 191 190 189 189 189 190 184 187 183 186 187 180 179 173 174 170 174 172 170 172 167 166 164 156 154 148 
161 162 167 164 165 169 174 172 175 174 179 176 174 176 180 178 179 180 180 188 185 184 184 184 191 193 236 266 267 262 264 265 276 270 257 246 230 207 195 191 189 185 182 184 180 181 184 189 189 188 193 189 192 192 191 181 189 189 189 186 185 184 181 185 181 181 179 174 177 170 170 171 170 171 166 164 163 155 153 147 
164 160 165 164 166 170 169 170 173 175 173 175 175 179 178 178 180 182 183 184 185 182 183 183 191 188 209 258 266 274 281 267 252 238 212 200 186 183 186 188 189 186 181 179 183 180 179 185 186 188 189 188 188 186 187 187 185 187 186 181 181 183 182 180 178 180 177 175 173 170 172 170 166 170 168 163 161 154 152 148 
162 163 167 159 168 169 175 171 172 178 177 178 178 179 182 180 179 181 182 185 187 186 186 185 189 186 195 230 253 255 247 227 212 192 185 189 189 182 185 190 188 181 182 185 179 179 182 182 188 189 188 187 188 187 187 184 186 187 187 186 180 179 176 179 176 180 174 175 171 171 171 170 166 168 169 164 163 158 153 145 
165 162 165 164 167 171 173 167 171 178 178 174 178 181 182 185 183 187 183 187 188 187 187 186 185 188 191 195 210 213 206 192 190 190 191 192 197 184 187 186 185 182 181 185 179 179 179 182 187 190 187 189 188 186 187 183 184 183 181 181 182 177 175 179 176 175 177 174 173 169 171 168 167 165 164 161 162 158 153 143 
164 163 164 165 168 166 169 172 173 181 178 180 182 183 186 181 186 182 184 186 188 187 185 185 190 187 192 191 191 191 190 187 186 190 188 193 191 186 192 187 185 183 188 184 180 178 178 178 185 189 189 187 188 190 184 182 182 182 182 183 178 178 175 178 174 174 171 170 172 169 169 168 166 166 166 161 158 155 156 143 
165 161 166 166 168 170 171 175 178 183 178 177 179 184 183 183 184 186 187 190 192 187 191 188 193 189 195 189 188 191 189 190 188 192 189 191 193 189 191 188 184 183 185 183 184 183 181 183 185 190 190 192 186 189 188 182 184 183 183 182 183 180 180 186 175 176 175 172 171 167 171 169 166 168 165 161 162 155 155 143 
166 164 164 166 166 170 175 175 177 184 179 184 182 185 186 186 186 184 188 186 187 188 190 189 194 187 191 192 187 189 188 186 188 193 190 189 190 189 191 189 184 185 183 183 183 181 183 183 187 188 188 186 184 186 184 184 184 185 181 188 184 187 183 182 177 177 178 171 172 168 167 163 165 169 167 157 161 160 153 144 
163 162 163 166 170 173 175 177 174 177 183 185 180 185 186 185 184 187 189 193 195 188 192 188 193 190 193 189 189 190 190 188 188 189 185 192 188 186 186 189 183 184 182 185 180 180 182 182 182 187 185 184 184 186 184 180 183 182 183 185 185 183 184 183 175 177 173 169 167 165 166 167 165 164 166 168 167 163 164 162 
168 166 170 168 172 174 175 175 176 181 184 184 184 184 185 184 187 189 187 189 195 191 190 190 192 192 193 192 191 192 193 188 188 191 190 188 187 186 187 184 184 183 184 186 181 180 179 180 181 186 183 184 185 184 182 179 180 184 183 186 183 183 177 179 175 172 168 169 169 166 171 166 164 168 166 171 167 178 190 195 
166 167 170 166 170 173 175 175 180 180 184 184 181 187 186 188 186 187 187 191 194 195 194 190 190 193 194 192 190 192 191 190 190 188 185 188 186 186 189 186 184 182 182 185 181 178 180 182 180 183 185 184 180 182 183 180 182 184 183 183 181 183 177 178 172 172 173 167 168 165 166 168 167 166 174 191 208 226 234 233 
172 166 167 171 175 174 173 174 181 184 184 183 183 185 187 188 186 187 187 190 190 191 191 192 192 193 194 191 188 194 193 191 189 188 186 185 188 186 186 187 183 180 183 180 180 178 180 180 183 183 187 182 180 181 181 180 180 181 179 182 180 183 178 175 168 172 170 169 167 165 169 166 166 181 201 232 257 267 277 273 
173 167 166 170 169 172 172 175 178 183 182 183 182 185 186 188 186 188 187 192 194 191 191 192 196 193 200 194 192 192 193 191 189 188 186 185 187 183 185 186 184 182 186 180 181 179 179 182 182 182 185 183 183 181 183 177 181 180 179 179 178 180 176 176 169 168 173 168 169 166 172 175 185 215 260 293 316 317 321 314 
172 167 166 167 173 175 176 179 183 181 184 182 179 185 187 184 188 187 188 191 192 188 191 192 196 194 198 194 189 192 190 187 186 188 187 185 184 184 184 181 188 182 182 177 183 179 177 183 178 179 182 186 184 183 180 175 178 177 179 178 175 175 172 173 167 172 173 167 171 163 178 205 236 289 333 359 366 360 350 342 
173 168 168 162 175 181 175 173 177 180 179 179 180 185 185 185 188 185 188 192 192 193 191 191 193 194 196 195 190 190 191 188 190 185 183 186 183 181 186 184 183 181 182 182 181 181 182 182 178 176 178 183 181 184 181 179 177 180 181 178 176 172 171 170 168 169 171 166 165 169 211 254 299 345 370 386 393 384 369 343 
179 173 168 166 176 172 173 175 177 176 182 180 180 184 184 187 190 185 185 194 192 192 194 190 193 193 193 189 188 193 193 189 189 186 186 186 181 183 184 184 183 182 177 184 179 180 178 182 175 173 177 181 183 181 178 179 178 174 173 179 175 171 170 170 168 170 165 164 167 190 253 305 351 376 391 394 394 381 333 337 
175 174 168 170 174 176 170 172 174 179 180 183 181 185 187 185 186 191 187 190 195 190 192 190 194 191 195 194 192 189 192 187 188 186 184 180 183 181 185 182 184 183 182 182 179 182 176 179 174 172 171 176 183 182 178 173 174 177 173 177 174 174 169 172 165 169 166 170 183 231 295 346 377 403 399 392 369 342 329 352 
174 168 170 172 177 178 172 171 171 177 182 178 178 183 189 187 187 187 186 191 189 187 190 190 192 191 191 192 190 190 189 189 184 187 183 184 184 178 181 183 182 183 181 182 181 179 180 177 174 171 173 173 180 178 176 168 170 175 172 174 170 171 167 171 166 166 168 181 217 274 338 377 390 403 387 350 356 332 372 377 
176 169 170 169 172 174 176 174 173 177 177 180 183 186 184 184 185 192 187 191 191 189 191 189 191 188 192 190 186 190 189 188 186 186 184 183 185 180 180 179 177 180 176 179 178 179 176 174 175 171 167 167 172 176 172 166 166 173 168 172 168 171 169 171 162 165 168 207 259 320 366 384 392 387 346 298 324 383 400 390 
180 173 174 173 176 177 176 174 174 178 178 180 180 184 188 188 185 187 188 190 193 189 190 184 191 187 194 188 189 186 184 185 187 185 181 184 182 179 179 176 175 176 179 176 179 177 175 174 172 169 169 167 171 170 174 168 170 172 171 171 171 170 169 176 165 168 184 232 297 348 381 393 391 368 300 253 307 388 401 388 
179 171 175 175 176 180 175 175 175 178 178 181 184 186 189 186 190 190 188 192 192 188 191 186 189 192 192 190 190 185 191 185 187 184 182 182 185 179 181 181 175 173 171 180 180 174 178 177 174 170 166 163 169 174 173 168 167 174 173 172 172 172 166 169 170 177 196 255 321 368 390 401 398 362 270 236 260 359 397 386 
179 177 177 176 177 177 179 176 178 177 181 182 183 187 187 189 188 189 187 190 187 188 189 190 191 188 189 188 186 189 190 188 185 185 179 182 184 178 179 179 172 169 171 180 175 174 178 177 173 171 168 165 172 173 175 172 170 169 172 169 169 166 168 168 166 171 210 268 331 381 397 406 394 351 266 237 250 355 400 392 
180 175 174 174 178 179 176 178 177 180 180 183 183 184 189 186 187 187 188 192 192 189 192 189 191 189 186 188 186 188 188 183 186 183 183 182 182 174 179 176 176 173 172 177 179 175 177 182 178 172 171 166 167 171 171 170 169 175 172 174 170 170 168 166 164 177 215 271 327 373 401 408 396 344 265 241 264 362 396 394 
180 176 177 178 183 182 172 173 177 178 183 181 184 186 187 187 189 187 187 191 191 189 190 190 189 187 190 189 187 186 188 184 182 185 184 179 177 174 172 180 175 174 177 176 175 177 182 186 183 175 170 170 166 167 172 170 173 172 170 169 168 171 171 167 162 170 207 266 318 365 395 407 399 343 281 256 288 375 398 397 
177 175 180 174 176 179 174 174 176 180 179 181 180 186 184 185 186 183 187 187 189 189 185 187 187 186 187 186 184 188 183 178 183 177 177 180 179 175 176 173 172 169 172 173 173 184 186 186 185 184 174 169 165 167 171 168 170 173 171 171 169 169 166 165 162 173 194 251 302 351 381 401 401 371 303 287 321 389 401 400 
183 178 177 184 181 183 181 178 176 175 180 181 183 186 183 187 186 187 187 187 191 185 188 188 186 184 187 184 184 184 184 180 180 182 179 181 176 176 173 176 170 170 173 178 178 185 185 187 185 186 184 176 169 167 171 165 171 175 174 171 169 169 169 165 162 163 178 224 276 328 374 400 402 394 356 341 372 397 405 412 
186 180 178 182 179 181 179 178 179 180 183 185 182 182 182 181 187 186 186 186 187 185 187 190 189 183 183 184 179 183 181 178 181 176 171 174 178 176 172 179 172 172 181 179 183 186 185 184 186 182 182 183 182 176 177 171 177 173 171 175 170 169 171 170 162 161 167 197 236 294 365 395 404 397 394 393 391 389 394 401 
185 178 182 183 185 176 179 177 178 180 182 183 177 185 178 185 190 184 187 189 188 187 187 188 188 185 187 187 180 185 182 180 178 176 174 177 176 173 176 177 179 178 181 182 182 184 183 188 184 186 185 185 183 184 175 174 175 175 174 173 168 170 168 169 161 159 163 167 200 247 322 377 389 383 379 393 392 382 383 392 
191 183 188 189 193 180 180 179 180 175 183 181 182 182 183 179 184 182 183 188 189 182 181 185 184 188 187 183 178 183 177 176 175 178 177 174 172 170 177 180 184 177 183 184 182 184 184 184 184 185 183 183 181 181 177 169 177 177 175 173 170 170 167 168 165 162 159 158 165 189 250 327 353 328 336 381 382 376 377 382 
198 195 193 192 189 188 184 185 183 179 186 183 181 186 183 181 185 178 180 184 185 187 186 183 183 183 185 180 179 178 181 180 177 175 172 175 180 177 183 186 182 180 185 185 186 185 185 187 185 182 186 185 183 183 174 171 174 173 176 174 172 167 169 164 163 164 162 161 158 162 184 243 295 269 280 339 368 374 378 360 
224 192 197 196 192 190 195 191 191 187 185 183 181 185 186 184 187 177 181 182 183 184 183 183 184 178 186 178 177 182 184 173 177 174 176 183 185 181 185 184 185 181 190 187 185 185 185 188 183 187 186 188 184 180 179 171 173 176 173 175 168 168 167 163 162 165 158 157 158 153 159 186 217 222 232 285 345 365 376 354 
233 208 194 201 198 198 196 195 192 189 182 184 182 185 188 183 188 189 185 179 179 180 184 182 182 175 182 180 180 177 175 179 181 183 183 188 185 187 185 185 185 185 186 185 187 186 187 188 189 187 184 187 186 183 181 175 176 174 172 176 167 169 168 167 163 162 159 158 157 153 154 160 174 194 202 237 312 348 365 349 
238 231 206 196 208 206 198 195 195 191 187 185 185 187 189 188 187 186 185 181 182 177 178 178 178 179 185 182 180 179 181 186 186 188 184 186 186 183 184 185 186 186 189 189 186 187 186 193 187 186 188 185 182 180 182 174 178 177 174 176 167 168 162 163 158 163 157 156 156 152 151 158 159 186 193 201 233 275 314 324 
243 243 220 203 205 209 208 200 197 197 190 192 187 191 187 187 193 184 184 185 175 177 182 183 186 183 183 180 181 186 191 191 189 189 186 189 189 186 189 190 189 187 188 187 188 188 187 191 187 185 188 185 184 186 181 176 176 176 175 176 173 167 163 163 158 155 156 153 159 149 153 157 151 160 168 162 164 169 210 245 
301 284 279 251 230 217 213 205 205 201 193 191 187 189 190 188 188 184 184 181 181 181 185 184 188 184 187 184 186 190 197 193 191 191 185 186 185 191 191 192 195 181 187 186 183 188 184 187 190 185 187 191 185 184 183 175 177 176 176 177 172 170 171 172 158 162 163 164 161 151 158 157 154 155 154 142 147 144 154 156 


