P2
80 60
872
335 307 270 250 228 201 186 173 156 140 126 117 120 114 113 147 213 298 153 117 118 104 99 91 86 69 59 59 77 75 66 72 72 70 75 76 79 79 80 78 86 86 90 94 92 91 89 91 88 91 90 90 94 92 90 90 98 90 89 89 85 84 86 86 88 87 79 86 81 78 77 79 84 81 97 133 206 245 266 272 
317 288 256 226 203 190 182 170 157 148 134 125 121 113 105 162 317 234 128 106 121 116 105 97 92 80 74 75 70 63 57 71 70 77 76 77 80 80 80 77 81 82 85 89 91 90 92 92 91 94 92 96 96 92 92 92 95 89 88 91 90 86 86 93 91 86 80 89 81 79 82 82 96 137 171 218 258 272 278 282 
293 263 236 209 187 174 174 164 160 143 139 129 125 111 101 125 243 208 125 116 121 118 117 105 97 82 79 80 71 57 55 54 58 65 68 73 74 75 79 70 80 77 80 83 83 89 88 86 93 94 92 90 90 90 88 91 93 91 93 88 89 85 89 89 90 87 76 88 83 84 86 112 180 236 240 244 263 274 275 275 
268 248 224 199 181 176 173 161 152 147 140 130 126 110 100 100 109 117 111 99 116 124 115 113 106 84 79 86 82 74 58 55 54 52 59 60 71 69 76 67 75 75 75 78 82 79 83 89 87 92 95 93 91 91 90 92 94 85 92 88 86 83 86 90 91 84 80 88 93 102 141 205 249 263 273 260 266 269 268 278 
246 241 223 201 185 169 165 157 147 140 137 130 126 119 103 101 111 121 105 100 112 120 116 118 105 91 75 83 77 70 70 65 58 52 56 52 63 71 74 70 76 75 77 79 80 79 82 84 89 90 88 88 91 90 90 96 93 89 90 90 85 85 90 94 93 89 84 98 135 203 238 249 242 255 270 267 272 269 270 277 
242 239 225 212 190 171 163 151 144 144 136 129 131 114 103 98 113 125 110 104 103 104 98 110 116 106 102 87 71 64 70 67 61 58 57 49 58 61 67 69 75 74 78 74 78 75 76 81 82 89 94 90 95 89 92 92 96 94 95 91 88 89 93 94 95 93 99 166 244 275 292 293 281 267 259 277 282 283 273 275 
251 231 227 218 190 168 164 155 146 139 135 130 128 113 106 98 120 126 111 109 104 94 79 82 100 110 120 104 82 64 63 64 65 65 61 54 49 51 59 63 72 72 71 73 74 73 72 75 79 82 86 88 92 90 88 88 91 90 91 90 90 87 89 92 98 109 171 262 276 275 293 304 303 300 287 278 284 299 285 278 
332 289 255 232 220 202 184 166 154 145 134 131 128 110 106 111 127 126 117 114 106 95 75 84 87 95 122 118 113 83 70 69 63 61 64 59 56 51 50 52 66 68 73 69 71 69 72 73 72 79 82 78 86 89 88 89 93 90 92 93 88 89 92 101 139 196 229 256 255 253 259 286 294 287 278 263 255 256 255 257 
406 400 339 288 251 222 219 203 178 156 148 134 128 104 109 120 135 126 120 116 109 97 80 92 95 92 116 109 107 104 93 78 63 62 62 60 60 66 62 49 51 53 66 72 68 68 66 69 69 74 74 77 84 84 87 89 88 90 93 89 88 95 95 141 241 283 294 297 276 247 225 229 226 221 225 228 243 250 259 267 
333 371 410 402 344 286 250 229 217 202 172 146 129 101 109 132 136 123 121 118 115 99 91 102 104 104 117 100 95 85 103 104 82 66 62 58 58 66 75 67 52 51 51 60 63 62 67 67 67 75 74 69 78 76 85 87 90 91 90 91 90 90 120 221 275 276 255 244 229 218 214 213 212 225 233 250 268 276 278 272 
405 362 343 370 411 406 344 291 248 224 211 192 154 115 110 139 131 123 119 117 115 101 99 108 109 112 122 102 103 97 112 88 96 75 68 58 58 71 80 80 79 62 48 51 51 59 63 60 68 69 67 68 71 70 76 82 90 86 89 87 89 95 195 262 251 234 225 229 230 231 229 235 247 255 268 279 280 269 250 235 
593 598 490 375 331 351 404 408 345 290 248 215 206 179 152 149 132 126 125 122 118 108 109 115 114 117 119 108 106 101 95 78 73 69 66 58 59 68 92 85 82 79 65 58 48 52 58 62 62 64 71 65 70 72 71 72 80 82 86 86 82 110 221 243 257 253 258 263 265 271 269 277 282 279 271 260 246 236 229 224 
578 704 710 617 441 317 306 343 390 406 346 281 244 213 198 177 130 124 129 127 118 111 115 118 114 124 120 107 106 99 96 88 77 73 63 62 68 70 90 89 88 78 78 79 64 54 53 54 53 64 63 63 65 67 70 69 72 70 79 76 84 160 249 286 301 308 301 304 299 301 291 292 275 257 244 238 240 240 237 244 
644 710 708 631 511 364 299 269 287 329 385 405 353 282 226 175 127 123 122 126 121 110 117 121 121 131 120 110 109 102 99 97 95 80 72 67 71 72 87 91 92 91 87 85 82 70 57 54 53 55 61 60 65 64 65 65 71 67 69 73 86 197 302 328 341 333 319 309 299 287 273 264 249 241 241 246 255 263 263 269 
637 639 636 532 400 372 358 324 241 249 272 318 398 465 304 176 126 116 116 120 117 108 118 124 123 138 116 112 113 102 100 101 100 93 82 81 79 77 81 93 92 87 89 87 81 73 69 62 47 52 51 51 57 64 61 65 66 62 70 80 91 194 303 333 341 324 302 294 274 263 262 261 254 260 267 273 287 300 293 288 
662 528 428 348 323 350 379 424 352 234 201 224 273 303 261 161 121 115 110 112 112 100 115 122 127 136 117 115 115 107 103 109 105 100 97 89 93 88 85 96 94 87 84 84 85 80 69 64 58 51 47 43 46 54 62 64 66 63 70 71 80 196 301 333 327 308 288 285 281 280 285 286 287 291 298 310 315 313 305 286 
686 560 402 310 316 397 459 432 387 405 258 149 184 204 198 139 115 111 104 92 83 97 116 125 129 139 119 116 116 109 111 107 107 102 100 91 89 91 94 96 102 91 89 85 85 74 71 72 68 63 56 48 49 48 53 66 72 64 66 74 90 205 310 340 332 318 312 313 308 303 302 300 304 311 310 308 301 286 275 257 
668 573 450 375 403 482 437 353 318 405 309 171 158 161 148 118 112 128 109 80 52 73 101 119 124 121 114 116 117 110 106 112 105 102 98 90 86 83 88 89 94 102 101 88 80 80 83 81 79 73 60 47 49 43 44 61 65 63 77 80 91 204 300 335 334 339 334 324 312 305 298 303 304 296 289 274 266 257 245 244 
563 549 579 548 508 474 362 268 248 230 191 188 253 193 136 118 119 140 116 98 59 72 86 97 105 110 113 113 119 111 110 116 113 106 104 97 96 92 82 89 95 98 97 94 86 85 85 85 84 74 65 66 62 57 58 57 63 69 73 85 95 187 289 328 352 339 321 312 308 303 295 297 286 272 258 247 250 248 244 239 
481 530 597 635 609 572 400 260 232 194 195 378 414 221 149 123 121 128 117 110 87 80 82 81 82 96 112 111 118 114 118 114 111 107 106 99 102 100 92 90 100 96 94 94 93 91 83 81 84 84 82 74 73 68 69 61 68 73 78 83 93 160 284 319 337 317 308 314 306 294 286 273 258 252 254 250 254 255 250 250 
352 462 557 683 693 681 430 256 227 199 225 334 306 272 218 134 119 117 111 115 106 87 73 77 74 82 101 109 113 107 112 112 112 107 106 103 105 101 101 91 96 100 102 104 97 85 83 83 92 95 92 78 80 89 81 70 73 78 81 88 93 150 277 318 322 323 325 334 310 285 268 258 254 261 261 263 265 267 266 261 
247 318 454 734 682 619 364 227 194 204 223 245 255 382 348 152 119 114 114 113 111 86 74 70 69 81 94 114 112 106 109 110 114 112 109 106 105 104 101 93 91 92 103 101 90 83 84 93 112 96 89 86 89 92 87 81 80 85 92 98 102 149 284 318 320 320 326 329 307 284 272 269 269 275 279 277 281 288 278 275 
235 280 384 662 653 575 311 201 203 222 231 242 307 419 420 216 127 119 116 115 117 89 68 67 78 78 90 104 116 107 109 108 110 106 108 106 107 101 97 95 92 87 95 93 95 95 96 100 130 102 98 102 100 96 99 91 92 92 98 102 108 147 277 308 313 314 320 324 313 299 296 296 297 298 301 301 303 300 286 278 
214 291 442 550 560 391 229 211 224 236 244 273 341 423 486 291 129 116 114 117 114 95 69 75 77 74 83 98 107 109 105 110 108 107 106 104 103 100 96 89 85 78 82 95 101 103 108 114 130 107 110 101 107 102 102 102 98 96 100 105 106 154 282 310 318 314 314 325 327 323 314 308 302 301 301 298 293 284 277 272 
380 577 564 434 378 232 297 276 255 261 302 373 463 555 524 279 135 122 119 115 110 101 74 74 77 78 86 93 105 109 104 109 102 104 101 103 100 96 87 86 92 91 93 100 114 112 116 114 123 118 114 113 116 115 108 107 106 103 112 110 111 168 306 323 329 334 351 377 365 348 318 297 293 293 287 276 277 271 264 261 
346 449 421 329 224 228 341 441 390 364 465 606 618 512 305 178 130 118 112 112 110 105 82 82 82 82 84 85 95 99 102 103 104 101 105 98 98 96 98 96 99 96 99 99 104 112 115 116 126 124 129 126 133 123 123 119 119 111 115 114 112 185 322 347 374 406 415 422 409 406 379 307 283 278 269 268 268 266 257 261 
462 379 358 283 226 228 276 434 490 427 571 549 398 268 200 140 115 118 111 110 111 103 89 85 86 78 79 82 94 96 102 106 103 102 100 97 102 103 105 98 105 103 108 118 115 126 121 139 160 186 235 263 280 262 224 176 146 120 119 125 139 239 351 385 405 410 418 418 416 413 400 343 288 272 269 265 271 268 261 262 
657 440 425 361 272 227 228 368 480 528 531 332 245 183 138 120 111 112 110 108 107 106 91 90 81 76 76 80 89 92 97 105 97 96 100 98 103 109 107 107 111 116 157 247 288 296 291 323 348 362 383 385 397 398 384 370 315 206 212 271 311 358 382 393 399 397 400 401 404 412 406 380 298 278 270 271 275 271 272 274 
553 478 601 790 595 309 220 256 331 534 494 287 195 128 133 117 112 110 113 109 108 104 90 91 82 74 67 73 86 91 96 105 100 104 110 104 115 116 123 131 156 251 348 385 393 400 402 396 403 404 418 412 416 418 414 409 402 385 393 392 394 397 406 404 403 404 392 396 399 405 412 406 326 282 278 279 284 288 287 283 
544 456 676 872 832 398 191 193 220 279 295 205 130 137 129 112 108 108 106 108 103 101 95 90 78 64 59 75 89 91 94 105 102 103 109 125 161 201 259 296 337 380 392 406 405 410 414 411 411 410 412 418 419 420 413 408 406 409 415 408 409 410 412 411 414 409 401 405 408 412 417 415 346 289 281 279 291 296 294 285 
503 324 329 433 519 229 158 164 239 239 185 131 141 148 120 110 107 104 105 102 102 103 98 85 64 60 65 75 83 86 100 104 104 111 154 230 304 319 363 392 361 397 409 414 410 412 413 411 409 415 406 413 424 420 415 412 409 409 414 416 411 406 411 412 412 410 406 414 419 421 420 418 358 289 284 291 307 304 295 280 
426 275 228 261 266 229 200 194 249 197 134 141 162 129 113 111 110 110 106 106 106 113 120 97 78 60 57 63 76 89 101 110 124 171 278 351 363 342 384 404 381 401 409 410 410 414 416 417 408 404 407 410 427 428 427 421 414 411 415 412 409 402 410 413 417 409 411 419 417 416 417 413 364 295 295 302 311 297 279 266 
307 248 212 232 243 242 234 230 228 178 144 153 150 117 109 109 110 109 109 108 104 117 120 93 59 48 46 50 65 83 97 115 188 271 365 399 374 339 397 421 402 407 412 416 415 415 416 409 402 405 405 408 424 428 424 426 422 419 416 414 411 408 413 419 419 412 409 417 411 410 411 410 351 306 303 306 304 284 270 261 
261 226 195 226 237 235 227 220 215 210 198 170 134 115 108 108 108 106 109 107 108 99 75 54 42 27 17 27 51 69 102 177 244 337 406 405 374 351 408 431 422 412 418 416 412 414 413 413 404 402 404 411 425 428 427 424 429 420 421 418 420 421 428 428 419 417 412 410 404 401 405 404 341 312 309 301 284 275 267 263 
244 215 189 231 237 219 191 228 259 240 210 154 125 115 111 108 103 105 109 109 106 90 62 53 28 20 32 38 38 57 136 229 281 380 413 414 408 392 416 423 414 411 419 417 412 411 413 414 415 416 403 408 420 430 430 433 428 425 422 425 429 431 433 429 426 418 404 405 399 405 406 395 334 318 306 289 279 278 271 261 
232 208 197 231 233 207 189 277 296 255 195 136 122 115 113 109 110 106 106 111 108 98 85 64 41 35 63 58 49 50 166 238 315 398 413 418 426 417 416 432 408 394 420 413 423 412 419 426 424 417 413 412 422 430 428 428 434 428 423 428 433 431 431 429 425 413 400 404 402 410 411 374 330 317 301 289 288 281 272 266 
226 199 201 240 241 256 349 391 269 196 161 125 121 116 109 109 106 107 110 107 103 104 88 65 44 27 40 57 52 84 211 247 362 409 421 418 425 420 420 416 404 399 412 418 426 427 427 429 428 421 421 409 421 429 426 428 432 429 426 431 431 422 426 424 415 408 405 408 407 412 404 351 330 320 306 300 291 278 274 265 
235 220 242 249 276 501 466 294 197 176 140 121 119 113 113 109 108 107 106 107 111 111 115 88 55 23 25 82 69 113 221 284 393 419 424 421 426 421 420 418 431 435 428 425 425 428 427 430 426 426 424 417 418 423 420 428 432 430 426 431 429 424 422 418 413 410 407 412 412 412 381 336 333 330 323 301 287 277 280 276 
276 379 322 262 304 555 394 212 190 157 130 118 117 112 108 107 108 106 106 108 109 118 129 104 66 37 19 37 67 134 224 307 399 421 423 427 423 417 407 420 435 441 429 425 422 426 425 430 427 424 422 416 417 419 423 427 429 425 427 431 429 419 419 416 414 413 413 418 409 389 332 328 336 340 316 290 292 293 286 281 
332 517 426 261 271 293 229 203 180 137 122 116 116 108 106 107 107 105 104 107 109 121 131 107 64 26 1 0 64 143 223 322 415 416 419 422 419 403 378 407 435 431 425 423 422 427 429 427 425 426 424 412 414 415 418 425 429 421 427 430 423 421 418 416 417 417 411 409 386 341 309 320 334 330 314 301 301 297 290 280 
433 580 403 257 219 210 224 217 159 125 115 112 111 107 106 104 103 107 105 107 105 117 130 105 56 13 1 23 75 137 226 323 405 413 421 423 419 403 361 381 421 429 399 414 422 424 424 424 425 420 423 413 419 414 418 422 418 413 422 428 423 412 420 414 420 418 403 390 355 314 305 316 322 317 306 294 289 281 274 271 
677 807 402 268 336 289 329 260 145 121 115 110 112 106 103 105 105 108 106 107 107 119 125 109 78 56 36 37 71 129 219 313 402 410 416 417 420 410 362 364 404 420 400 410 416 420 418 421 424 419 418 414 413 413 413 410 412 402 420 413 399 381 377 386 395 383 359 351 322 304 298 307 320 307 294 284 284 275 270 267 
743 810 370 273 440 349 388 201 130 117 115 106 109 105 107 103 102 104 108 107 104 119 124 106 70 36 33 36 47 105 206 291 381 410 413 420 420 411 397 361 395 412 406 406 416 412 408 415 416 413 412 410 414 413 412 403 395 394 382 340 277 214 217 281 322 326 318 315 301 295 296 312 316 310 298 288 293 285 277 265 
356 458 280 263 372 359 276 150 116 114 110 106 108 105 101 100 101 105 105 108 103 122 123 105 64 49 47 51 52 92 175 257 347 407 412 415 420 410 415 399 382 402 410 406 412 410 409 413 412 412 411 408 412 410 398 396 377 281 187 140 138 128 131 164 252 310 318 313 298 296 300 322 321 314 305 298 300 282 271 254 
190 232 234 247 317 304 175 121 109 111 106 103 109 102 99 98 98 106 106 109 104 121 121 100 76 43 39 42 48 61 123 226 316 397 412 414 416 417 419 418 397 392 403 407 406 408 403 408 407 411 407 405 402 397 393 396 290 134 95 85 104 109 119 125 164 272 318 317 298 293 302 309 310 309 307 306 291 273 254 242 
169 212 224 221 200 143 112 94 92 100 99 103 101 97 99 100 99 104 107 107 104 117 118 90 56 36 39 42 49 43 64 171 269 352 417 419 417 416 422 426 415 392 386 406 411 402 398 399 397 397 400 399 400 369 346 352 204 103 82 75 92 102 110 118 127 198 288 306 297 295 287 299 304 304 296 287 270 251 234 237 
163 214 218 198 130 110 95 85 82 83 84 92 96 95 95 99 94 103 101 103 100 119 109 87 49 18 15 41 48 44 49 104 217 285 353 392 414 419 416 423 419 408 394 391 394 396 385 382 383 397 399 401 400 340 192 169 172 116 83 69 85 97 105 114 118 143 227 288 293 288 283 291 298 298 287 269 252 243 243 263 
173 217 215 184 126 105 91 86 84 76 73 69 79 82 87 97 96 100 101 101 98 118 112 83 28 5 26 47 53 50 50 66 145 226 268 303 349 396 419 415 418 411 400 386 363 334 339 347 403 418 412 407 406 295 137 130 158 122 77 73 81 101 106 114 117 122 168 257 287 286 291 300 305 297 267 249 249 263 274 289 
198 228 217 168 111 84 74 78 74 77 75 67 64 67 73 82 83 89 96 95 95 111 113 93 61 28 33 47 54 46 53 59 78 172 228 237 268 311 360 377 362 345 310 299 280 293 301 362 410 428 429 409 361 200 112 104 108 91 77 73 83 98 109 114 116 118 125 207 270 288 296 300 299 266 252 255 267 278 287 275 
337 238 214 158 103 74 66 70 70 71 70 73 71 61 60 64 59 65 76 80 84 99 110 93 50 27 30 39 40 40 46 49 57 89 139 204 247 262 282 290 287 272 254 268 276 283 335 359 395 417 385 298 189 122 90 77 78 72 71 75 87 98 105 108 112 111 107 165 241 278 290 287 266 256 258 260 275 293 283 274 
308 243 211 160 111 84 72 72 68 65 64 62 68 68 68 71 70 71 67 67 70 87 103 97 52 46 46 59 64 48 56 49 51 66 96 148 199 218 228 233 232 236 246 257 268 276 282 289 333 320 211 151 109 90 81 79 76 69 74 75 89 95 102 108 111 111 106 132 200 269 281 267 262 268 268 262 285 277 268 260 
314 238 216 187 132 100 82 75 75 60 60 54 60 60 60 68 70 78 74 74 65 78 100 99 88 58 56 81 80 76 74 74 77 82 91 109 129 148 180 196 202 211 217 219 201 172 155 152 167 140 115 106 91 79 78 75 82 79 80 85 91 97 102 106 112 107 102 117 166 251 260 263 272 273 254 276 276 266 261 224 
246 228 218 196 151 110 96 89 73 64 58 60 61 58 62 65 70 75 72 69 65 92 105 104 107 71 60 96 94 87 85 110 152 121 103 102 109 114 119 133 146 149 147 151 132 125 119 119 112 99 95 100 89 82 85 94 93 91 95 92 91 96 105 107 111 107 104 113 136 208 245 270 288 264 263 276 277 275 243 222 
219 225 215 190 154 112 100 88 78 79 74 71 73 67 66 67 66 72 73 70 52 69 101 112 104 78 59 88 110 97 103 198 192 116 107 101 101 96 100 109 129 124 136 138 123 119 116 111 99 95 92 98 96 99 97 94 97 94 97 91 94 101 107 105 111 106 103 113 120 170 232 270 276 255 279 280 281 256 220 226 
218 226 218 191 157 129 110 99 84 93 86 86 88 79 76 77 73 80 83 75 63 63 102 111 106 76 68 84 122 110 107 138 121 106 106 101 102 99 104 102 124 124 131 132 125 119 116 111 110 107 106 108 111 111 109 107 107 100 103 95 100 102 109 113 115 110 107 115 118 145 209 261 259 271 293 280 273 237 233 263 
209 216 213 190 150 142 133 119 98 98 95 93 101 93 89 86 82 89 87 85 70 70 102 111 107 89 72 75 120 112 103 107 100 110 115 107 102 96 98 90 113 118 123 127 120 119 118 119 115 115 119 112 114 109 110 108 107 104 104 99 98 102 109 112 114 112 106 116 112 119 166 224 244 277 282 266 251 237 255 276 
195 201 199 194 175 161 147 140 129 126 116 112 110 104 98 97 94 96 94 93 87 91 106 114 113 103 88 78 126 117 96 89 101 117 119 111 107 104 98 92 105 113 124 126 124 120 122 121 120 124 122 119 117 117 119 115 122 112 109 109 105 108 111 116 114 114 107 117 111 113 130 176 232 272 271 255 245 255 276 281 
191 193 194 190 186 180 182 170 146 132 131 127 127 122 115 108 101 101 101 107 104 112 112 111 114 112 114 121 177 127 106 104 110 116 117 113 111 102 98 85 98 100 113 130 126 123 123 120 122 124 125 122 126 126 139 189 243 179 130 108 107 107 109 113 117 115 111 116 113 112 118 134 187 240 253 253 258 269 278 280 
224 214 202 189 186 177 178 172 154 128 129 127 133 128 129 122 120 122 117 121 123 121 116 115 117 115 114 137 178 130 106 108 113 124 122 116 114 108 106 100 106 103 118 137 129 125 128 125 127 126 125 128 148 170 261 494 477 296 153 113 112 107 113 115 115 115 111 112 115 112 111 116 139 173 205 232 260 274 273 273 
250 239 228 223 208 199 188 173 145 128 125 127 129 126 126 126 120 126 130 129 128 125 113 115 113 116 113 122 159 126 109 104 114 123 124 118 115 110 114 109 114 113 119 136 126 123 126 122 126 124 120 127 140 166 321 592 500 302 150 114 112 107 116 119 119 118 110 111 113 115 116 118 123 129 137 178 217 236 244 242 


