P2
80 60
1529
482 484 488 487 487 495 492 492 499 499 496 497 506 507 509 511 513 514 514 515 520 522 522 524 526 530 532 536 538 545 551 552 557 548 543 538 577 602 614 644 775 1288 1490 1517 1509 1290 829 747 722 724 733 740 935 1373 1447 1440 1372 1022 745 673 650 637 627 610 609 600 593 582 568 563 555 542 535 522 520 528 523 505 507 511 
484 480 487 487 489 492 489 492 498 500 497 502 503 508 511 513 509 513 513 516 520 524 523 524 526 528 530 537 538 544 550 553 554 545 541 549 582 605 619 648 829 1347 1498 1524 1496 1213 803 738 722 722 726 741 981 1389 1456 1445 1375 992 732 668 651 641 633 613 606 601 590 583 572 565 555 536 528 522 523 525 519 512 510 510 
480 483 488 487 487 493 487 493 498 498 493 502 504 509 510 513 508 511 513 518 521 526 525 521 529 531 535 536 540 542 548 553 553 541 538 552 583 607 616 655 905 1396 1507 1529 1485 1128 784 730 714 718 726 745 1029 1409 1457 1445 1366 945 722 668 648 637 628 607 605 602 590 578 571 561 550 529 525 520 522 520 516 512 508 517 
483 482 488 486 487 491 487 492 495 497 498 503 503 505 509 513 509 516 513 517 523 523 519 523 528 529 534 535 537 544 547 551 552 541 540 559 590 606 623 662 991 1423 1512 1526 1474 1048 761 729 717 720 728 751 1098 1418 1455 1443 1341 911 713 664 647 634 626 610 602 602 586 576 568 558 552 532 519 520 516 521 517 509 507 510 
482 486 490 491 491 492 491 493 497 499 498 502 507 508 512 513 512 513 514 517 520 524 524 523 529 536 533 537 541 544 550 552 554 539 541 566 590 607 621 675 1083 1449 1529 1512 1440 970 755 722 716 717 731 764 1152 1428 1454 1440 1315 866 709 662 645 632 627 607 603 600 585 578 568 558 549 533 528 523 521 517 508 509 507 508 
484 484 488 491 486 490 488 492 494 498 497 504 506 508 513 513 515 516 512 517 520 521 521 522 526 532 534 537 543 542 549 549 554 541 542 567 594 610 626 693 1176 1473 1520 1506 1409 904 744 718 712 717 730 782 1201 1436 1449 1436 1283 836 704 663 642 629 623 605 601 597 590 580 567 563 556 539 532 526 521 515 513 510 504 512 
477 482 486 489 488 489 489 494 495 498 500 500 508 509 510 514 513 514 519 519 520 525 524 525 530 532 537 535 544 544 551 552 551 537 543 576 595 610 630 725 1256 1479 1521 1498 1360 846 737 716 713 717 733 795 1246 1430 1444 1419 1248 805 700 659 645 633 618 608 602 599 588 577 567 561 552 539 530 525 523 513 512 508 504 507 
484 482 489 489 490 494 493 495 495 499 500 500 508 507 510 514 513 515 516 518 520 524 521 525 530 532 537 537 541 546 551 550 549 538 546 582 596 609 635 763 1318 1491 1514 1477 1298 814 728 711 707 711 728 825 1294 1442 1433 1407 1201 784 690 657 642 630 621 602 600 593 586 576 568 558 550 538 535 523 523 514 511 507 504 502 
485 485 491 490 493 493 495 496 500 499 500 504 507 507 513 514 512 514 517 522 522 523 526 527 530 534 536 540 541 545 546 549 545 536 549 582 598 614 637 828 1364 1498 1511 1477 1216 785 723 711 710 708 727 858 1320 1444 1433 1392 1146 768 684 653 643 627 621 603 600 596 582 573 562 557 549 540 534 527 524 516 514 507 507 509 
486 489 490 495 491 495 496 499 500 499 500 502 505 508 512 513 516 517 517 521 523 525 526 526 531 537 540 540 543 546 548 549 541 534 552 582 597 615 644 907 1392 1505 1502 1465 1126 762 721 710 705 715 730 902 1344 1439 1421 1376 1090 749 678 650 638 628 614 605 601 598 585 574 567 557 547 541 532 526 522 518 513 507 507 510 
485 486 492 493 491 493 493 495 500 500 499 503 506 511 513 514 515 516 515 519 523 523 524 525 528 537 537 538 544 545 549 549 535 534 558 586 599 619 657 1003 1427 1512 1493 1456 1033 750 716 710 707 711 737 958 1360 1438 1430 1381 1040 735 676 648 636 622 612 604 599 597 582 575 565 557 549 540 531 527 523 518 511 509 509 514 
485 488 492 494 492 493 494 499 501 503 504 504 508 510 513 516 513 517 516 518 525 523 526 528 530 530 536 541 543 547 550 548 535 533 565 591 601 618 669 1106 1439 1500 1481 1442 952 738 713 709 707 711 738 1013 1387 1451 1440 1378 987 718 674 645 631 620 610 599 597 592 582 572 569 562 551 539 535 528 523 515 512 510 510 513 
486 491 492 494 494 495 494 495 499 504 507 506 510 506 516 516 515 518 519 522 519 525 524 527 531 537 538 540 544 547 549 549 531 538 568 592 602 621 686 1190 1462 1495 1484 1410 880 728 703 706 706 712 748 1074 1404 1454 1433 1365 937 711 670 645 634 618 607 601 597 593 585 574 570 561 549 544 532 527 522 515 515 513 519 530 
486 489 495 495 494 498 497 499 505 504 505 508 511 510 518 516 515 515 518 521 524 526 526 527 532 538 540 541 545 547 550 546 534 541 573 591 604 626 721 1280 1485 1488 1480 1366 826 723 708 704 705 711 754 1139 1405 1445 1425 1347 889 705 665 643 629 618 607 601 597 592 583 572 570 557 554 540 536 531 528 531 528 532 554 561 
489 490 493 494 495 499 496 500 502 505 509 507 512 512 518 519 518 521 518 520 524 525 528 529 533 537 541 542 547 548 549 545 532 547 578 590 605 629 772 1342 1501 1483 1462 1299 787 713 702 703 704 708 760 1197 1406 1424 1406 1309 846 694 664 638 630 619 607 600 593 588 580 572 566 555 553 544 535 542 543 549 562 571 573 570 
486 489 493 493 494 494 496 496 502 504 507 508 512 515 516 517 516 520 517 518 526 526 528 530 534 539 542 544 547 546 548 542 533 552 576 596 608 636 852 1390 1503 1467 1455 1212 766 712 697 700 697 707 787 1253 1390 1421 1396 1278 807 685 660 636 626 621 607 599 595 589 583 576 564 557 552 546 556 566 569 573 578 577 578 568 
486 488 494 491 495 496 498 500 504 503 506 508 512 513 515 517 517 520 520 524 523 529 530 530 536 537 540 548 548 549 547 536 533 553 581 595 607 641 938 1425 1502 1457 1463 1119 749 704 700 698 699 710 821 1299 1412 1423 1403 1225 779 683 657 638 625 616 606 598 597 589 579 571 564 567 572 574 577 576 577 580 583 578 576 572 
486 491 495 497 497 496 498 503 503 505 506 510 511 514 513 517 518 517 520 525 528 528 531 529 534 539 542 541 546 546 545 532 532 553 581 594 605 648 1037 1443 1494 1467 1460 1023 732 699 694 700 701 713 869 1333 1423 1434 1386 1176 757 675 654 635 622 609 606 598 591 585 579 571 574 578 580 577 580 578 580 582 579 579 577 575 
487 489 495 495 498 495 496 500 504 504 507 506 509 511 513 514 517 520 522 525 526 529 528 531 535 539 543 546 550 545 540 528 533 560 582 594 607 660 1135 1466 1473 1446 1448 940 726 696 696 695 697 710 920 1367 1422 1420 1374 1112 736 665 651 633 621 606 603 599 590 588 578 576 578 580 584 583 581 579 577 581 579 578 577 572 
486 490 495 495 491 496 498 496 503 501 507 511 513 510 516 514 519 522 520 526 529 530 527 528 536 540 542 546 548 543 538 529 535 563 583 592 606 681 1228 1472 1461 1457 1419 864 717 692 694 698 699 717 989 1385 1418 1422 1368 1053 719 666 647 631 618 607 601 596 594 586 581 580 576 581 583 580 582 585 581 580 579 580 576 577 
486 489 493 494 494 496 499 500 505 505 507 510 512 510 514 514 517 521 522 524 526 530 528 530 534 539 541 543 546 544 535 525 539 566 580 592 609 713 1288 1468 1454 1433 1356 810 705 686 696 695 695 719 1056 1391 1413 1409 1352 974 703 659 642 627 613 606 599 598 592 587 583 580 579 582 578 580 581 580 582 576 578 581 580 578 
485 489 497 493 493 499 498 501 500 506 507 509 513 511 515 515 517 518 516 527 526 527 529 532 535 539 543 543 546 540 531 526 548 564 574 584 602 723 1202 1342 1348 1353 1244 753 692 686 684 689 686 722 1122 1379 1299 1267 1190 885 688 647 634 623 614 603 602 596 590 586 583 580 581 582 581 579 581 581 579 577 582 578 579 579 
486 489 491 490 493 495 497 499 504 506 508 508 511 508 515 514 515 519 520 524 525 529 529 529 537 537 542 545 544 541 531 524 540 542 553 555 560 582 630 673 727 781 785 662 653 659 667 677 679 719 1151 1287 1184 1042 999 770 668 643 631 618 611 597 600 589 583 585 581 579 579 579 585 580 579 581 580 580 580 580 576 578 
483 488 492 491 492 494 497 497 502 508 506 507 510 511 516 515 515 519 518 524 526 533 530 529 538 538 544 544 544 541 530 521 533 529 532 533 535 540 544 549 563 561 568 566 564 574 590 602 613 655 893 923 1023 1063 925 686 643 631 626 615 607 600 598 586 584 584 583 577 577 582 583 580 581 581 582 581 583 578 579 582 
483 487 493 492 493 496 496 502 503 502 507 508 511 510 516 518 517 519 522 522 525 528 528 531 539 539 539 543 543 536 526 519 522 524 534 534 537 534 535 541 543 542 545 540 540 541 547 550 549 562 583 596 607 631 631 613 612 607 611 609 603 592 593 582 584 582 582 580 580 586 583 582 579 586 580 583 582 582 579 583 
483 487 492 490 493 492 496 499 501 504 510 508 507 511 513 518 516 518 520 523 523 527 529 531 535 539 543 541 544 536 523 515 523 526 532 531 532 535 535 536 538 539 539 536 533 535 537 538 531 535 546 544 550 561 553 555 552 560 567 571 568 570 581 585 584 582 580 580 584 585 587 581 584 582 581 583 584 580 582 583 
482 489 493 490 495 496 496 498 501 501 505 502 510 507 512 515 516 516 520 523 526 524 530 530 540 538 537 542 541 536 522 515 520 523 526 531 527 534 535 531 538 535 531 534 529 530 532 537 532 532 541 533 536 541 536 540 535 536 544 539 544 543 563 583 583 583 581 583 585 584 586 584 585 586 582 583 582 585 585 581 
485 484 492 490 493 495 493 497 502 500 501 505 509 506 512 512 513 518 517 521 523 526 526 529 533 539 542 542 539 535 518 515 522 525 526 528 525 526 533 531 536 533 531 532 526 530 532 529 529 529 532 532 531 545 528 538 530 530 533 529 530 533 573 585 581 582 583 583 583 587 587 581 582 586 583 584 581 586 583 587 
488 490 494 500 501 500 498 499 499 501 504 506 505 510 512 511 513 514 514 519 524 527 527 527 531 540 544 540 539 532 515 512 521 525 528 530 525 532 532 529 532 530 528 531 529 531 530 528 526 528 533 531 531 538 529 531 529 530 533 532 528 551 582 582 583 585 586 584 587 590 587 584 583 584 582 582 584 586 586 588 
487 496 502 503 500 504 504 503 504 502 506 506 506 510 512 516 514 517 517 523 525 525 530 530 538 539 542 542 540 530 512 516 517 524 528 529 528 528 530 528 527 529 525 528 522 525 524 527 522 527 531 529 529 537 528 529 527 529 526 525 535 574 582 582 584 588 589 584 586 593 589 588 585 584 580 582 584 587 587 587 
494 501 511 515 512 516 514 512 510 509 508 510 511 512 511 517 518 516 517 521 526 527 531 532 542 543 543 543 541 525 511 514 517 524 527 520 520 526 521 525 526 528 527 526 522 525 525 527 523 525 531 529 526 537 527 530 525 530 531 528 559 584 582 586 587 590 590 587 586 593 588 588 583 585 583 581 590 589 588 583 
512 507 521 522 519 519 513 510 512 513 509 508 509 510 514 515 515 517 519 522 524 528 530 531 537 539 542 541 535 518 510 516 519 523 525 487 485 491 491 497 499 489 481 496 505 511 518 520 519 523 529 527 526 532 522 530 525 525 531 543 580 583 587 588 588 590 590 589 592 591 585 581 586 583 586 584 589 586 587 589 
600 550 535 529 524 524 513 515 516 514 512 510 513 515 516 510 518 516 518 523 524 527 529 532 535 538 543 543 534 516 511 518 522 521 523 481 482 492 466 469 455 413 412 407 428 439 457 465 469 504 525 528 525 536 523 529 526 524 533 567 586 584 589 592 591 593 591 588 588 591 582 584 581 585 587 589 592 589 590 589 
692 667 627 573 533 533 520 518 516 514 510 509 514 513 517 515 516 516 518 521 523 527 528 533 536 538 543 539 529 511 513 518 522 523 522 479 465 477 464 440 415 391 394 391 398 410 396 412 421 499 525 526 524 532 524 529 525 530 553 586 588 591 596 596 592 595 594 591 591 587 581 582 584 588 588 590 595 594 591 592 
699 701 697 663 610 567 541 533 525 517 515 511 513 513 514 514 515 512 515 520 525 526 529 528 534 539 541 539 523 509 512 517 523 520 520 485 422 419 429 418 399 368 374 385 390 378 386 395 430 511 527 526 525 532 525 527 525 533 579 589 590 590 594 597 595 595 597 590 592 587 585 585 585 590 588 594 597 592 593 593 
711 708 706 702 695 677 660 636 613 565 532 516 513 512 512 514 515 516 517 518 522 527 530 529 533 537 539 536 521 508 513 515 522 517 515 467 362 354 340 332 337 336 350 350 339 323 324 340 447 508 523 523 522 532 525 527 527 558 592 587 594 590 595 595 596 598 595 594 593 585 586 587 589 593 594 595 598 598 595 593 
720 717 712 712 707 709 699 695 692 672 636 584 538 519 515 515 509 514 515 519 525 528 531 530 533 540 539 533 513 511 514 518 518 515 513 427 211 181 190 182 205 240 246 219 222 201 191 240 463 509 521 524 523 531 523 523 537 589 592 590 593 593 600 598 599 600 597 596 591 591 586 593 592 597 595 599 597 597 597 600 
725 727 728 718 716 717 708 704 705 693 680 664 640 570 521 512 512 512 516 519 527 538 540 537 541 541 540 527 511 509 511 515 516 514 512 386 83 46 44 39 53 69 63 44 66 89 96 245 471 509 519 518 519 530 521 527 568 593 593 595 596 596 600 602 599 601 599 597 593 592 594 593 598 596 598 599 600 598 600 601 
735 737 739 731 728 727 720 709 709 705 691 674 656 621 541 520 516 517 519 523 524 537 551 572 564 547 537 526 510 511 513 516 516 513 506 368 64 21 18 12 17 23 21 18 22 31 54 308 481 511 518 520 518 528 519 545 591 589 595 597 597 595 599 601 602 601 599 595 595 596 604 599 601 603 600 598 600 600 599 599 
728 735 744 736 732 726 709 701 700 697 691 677 663 630 560 525 524 523 522 524 527 521 525 533 555 558 539 518 510 510 510 512 515 509 506 346 55 14 12 4 9 9 9 5 15 23 82 380 489 511 519 517 515 525 526 577 595 594 593 589 595 600 604 602 601 604 602 601 601 604 606 600 601 604 599 599 607 602 600 602 
713 713 710 709 705 698 691 684 681 674 672 664 649 631 580 532 525 527 527 528 532 530 521 513 518 524 531 516 508 512 509 513 510 509 501 342 43 6 5 3 6 9 12 13 10 24 132 435 495 511 517 519 517 530 554 599 591 594 587 585 586 590 602 603 605 604 607 602 604 604 607 602 602 601 603 603 604 602 601 600 
693 694 693 690 691 690 685 681 676 664 660 646 642 630 602 541 532 532 532 531 539 536 542 528 514 517 524 509 509 509 507 512 508 508 496 323 40 2 2 1 12 6 8 8 11 31 202 468 501 511 517 515 518 539 583 598 591 586 581 578 585 588 601 607 607 610 606 606 605 610 606 606 604 604 604 603 605 605 603 608 
686 683 682 678 682 685 681 674 670 664 650 637 632 623 605 549 533 532 530 533 536 540 537 540 528 512 512 513 507 508 509 510 509 505 487 285 33 4 0 0 9 5 7 2 5 33 291 481 499 510 513 514 520 573 594 591 565 545 554 570 579 582 591 600 608 613 609 609 609 608 613 607 605 607 606 603 607 604 604 605 
681 681 684 681 676 678 676 675 674 664 655 640 628 616 599 549 537 536 535 534 535 533 541 542 542 526 509 508 512 511 508 509 506 504 486 281 40 11 3 4 9 4 4 2 2 68 381 488 501 509 521 512 535 602 587 550 514 509 531 552 576 582 590 599 605 611 615 609 612 611 618 610 610 607 607 606 609 606 604 603 
697 707 711 699 683 674 666 668 674 667 654 640 632 614 605 550 541 539 538 535 539 537 540 543 558 553 516 507 509 507 510 507 504 499 485 289 38 6 6 2 10 7 5 4 10 127 433 497 504 509 514 519 577 592 541 508 503 508 521 539 571 582 590 595 606 613 615 613 612 613 615 612 607 606 608 606 607 609 605 608 
707 720 732 707 678 652 636 641 646 648 645 635 630 614 592 552 548 546 543 545 547 544 547 549 557 554 538 520 516 513 512 510 507 504 486 284 41 9 5 8 9 8 11 16 24 219 461 497 505 509 520 553 579 543 507 507 505 513 523 535 563 582 592 597 599 611 614 613 612 614 612 613 610 609 609 606 608 609 607 605 
689 696 700 664 641 616 602 606 613 610 612 615 614 604 586 568 567 567 563 561 557 554 561 553 555 555 549 535 524 521 521 519 517 515 499 299 43 17 10 9 10 9 10 16 53 312 478 504 505 509 534 570 526 510 507 514 515 515 523 527 551 578 596 598 601 606 612 615 616 615 619 615 616 616 611 612 610 612 606 610 
675 666 661 647 636 633 618 611 612 608 603 602 607 593 580 580 579 580 581 582 580 580 582 577 578 573 569 551 544 536 532 533 531 522 500 299 52 19 24 18 19 10 9 18 105 401 494 508 508 522 552 523 508 518 517 525 522 519 526 524 535 567 594 597 603 609 616 621 620 620 618 615 618 621 615 616 615 612 608 614 
661 654 648 635 623 617 603 600 597 601 603 592 589 579 579 589 584 589 586 586 591 589 592 592 590 593 590 582 576 574 573 567 562 554 519 332 135 88 64 43 36 24 22 37 190 456 515 522 518 541 531 515 513 535 526 534 529 526 530 528 539 569 593 605 608 616 614 620 621 622 624 618 619 621 619 616 614 611 612 616 
651 639 635 624 613 613 600 591 592 588 591 588 581 571 587 590 589 591 592 594 593 596 598 596 600 598 593 592 589 594 590 586 590 580 526 422 378 345 317 282 248 211 186 234 377 502 529 533 534 550 533 524 525 541 530 536 533 534 537 533 543 559 588 602 616 621 619 621 625 623 625 620 622 620 622 618 623 615 614 614 
643 633 633 620 616 609 598 592 589 587 586 582 580 580 586 592 592 594 596 598 602 605 601 603 607 601 603 598 601 598 598 591 592 583 515 442 448 408 401 424 408 391 398 402 452 547 565 574 550 550 563 540 541 553 544 547 541 543 551 542 546 557 581 605 621 623 623 626 628 628 628 627 623 624 625 617 621 616 616 615 
636 633 627 623 613 608 598 592 586 583 585 583 577 579 578 584 585 588 592 597 605 604 609 605 608 604 608 609 615 615 613 609 603 575 508 474 486 467 453 462 469 447 455 457 486 546 595 607 596 573 605 580 565 571 559 559 557 553 558 550 553 559 595 619 632 632 628 629 631 628 629 626 627 627 629 622 619 622 617 618 
634 629 627 617 608 604 590 588 583 581 583 580 572 573 580 584 585 586 588 603 609 610 613 611 609 615 615 618 630 629 630 630 624 577 518 492 506 496 478 477 502 468 472 495 521 542 584 623 624 601 607 632 611 598 574 574 570 566 571 561 569 585 621 634 637 637 635 632 634 633 635 630 632 632 630 624 627 621 620 617 
620 595 585 580 574 578 571 565 560 561 569 568 568 568 583 586 585 591 595 609 612 611 612 610 606 611 613 618 642 634 637 634 635 590 527 508 520 517 496 490 511 495 483 505 562 575 581 612 635 642 618 637 649 631 595 591 580 581 586 588 616 639 646 646 642 643 637 637 636 634 636 631 632 632 630 631 628 622 619 620 
606 600 597 582 575 575 572 564 543 538 545 546 562 575 586 588 589 597 603 614 615 615 617 615 612 609 615 625 643 642 636 639 635 596 543 529 535 548 510 501 524 528 503 509 557 601 591 602 625 658 648 601 631 654 637 621 606 606 627 646 658 660 662 653 650 647 641 639 642 640 644 636 635 638 633 632 631 624 626 619 
614 605 615 600 583 579 574 574 567 532 536 544 570 583 586 588 589 601 609 614 616 615 621 616 612 617 619 632 647 643 641 639 637 609 558 546 546 557 528 515 532 551 531 517 544 610 616 607 617 647 663 622 619 673 689 668 656 674 686 681 677 676 675 662 656 654 647 645 647 647 645 640 638 637 638 635 632 631 621 623 
616 613 614 609 600 589 586 586 583 570 557 572 584 584 590 590 596 611 610 615 619 625 625 615 615 621 624 640 651 645 640 642 638 610 567 559 559 567 549 537 545 558 555 540 551 597 628 625 623 639 676 670 633 662 702 719 722 715 706 694 691 681 679 669 663 660 653 650 650 653 651 646 642 640 637 636 633 628 626 623 
615 612 615 610 600 594 589 593 593 593 592 596 594 592 598 601 606 612 613 616 631 643 628 618 615 621 627 641 652 644 648 643 643 615 583 580 579 582 573 561 562 566 587 588 593 613 637 640 636 639 692 701 693 679 684 718 742 738 728 706 697 690 682 671 670 664 662 657 659 656 653 648 644 642 639 634 637 629 626 624 
612 611 614 605 596 598 595 597 595 596 600 602 606 606 607 608 611 613 611 621 635 645 623 617 622 623 625 641 651 640 644 641 641 632 604 597 592 595 596 569 566 571 599 635 650 659 652 650 648 657 677 715 722 711 677 689 722 752 749 725 714 699 691 682 677 675 668 666 663 664 660 654 650 649 642 639 638 633 626 625 
612 606 609 598 597 596 593 597 600 599 600 601 606 606 607 608 608 612 610 623 646 634 622 621 619 620 628 637 638 635 639 638 633 631 602 584 580 588 598 560 556 561 582 638 661 665 657 663 649 653 673 705 728 724 692 698 709 753 760 739 724 702 691 681 674 679 671 670 667 667 668 655 659 647 649 641 640 633 627 629 


