P2
80 60
891
351 316 282 261 237 210 192 175 167 148 135 125 125 121 123 146 198 312 177 125 129 109 106 106 93 79 72 64 86 88 76 82 77 80 85 85 87 89 90 92 92 93 95 100 100 97 99 104 96 98 103 102 101 102 103 101 99 98 99 98 96 94 94 93 89 94 93 93 85 89 94 87 105 120 178 221 235 256 264 270 
329 296 267 240 213 195 186 176 170 156 143 133 128 124 115 143 293 260 158 110 128 122 114 111 98 89 87 79 79 76 68 81 76 79 85 87 87 89 93 91 89 90 90 95 101 98 100 105 100 102 103 106 105 103 101 102 101 100 100 99 99 95 96 97 97 93 87 98 89 88 94 108 156 215 245 265 265 268 270 271 
300 272 248 219 191 182 180 172 171 151 145 137 134 123 112 117 248 258 141 128 132 120 124 116 107 89 90 90 83 67 65 66 63 71 75 81 83 84 89 85 86 81 83 88 93 97 100 100 101 101 102 104 102 100 99 102 103 100 101 97 100 98 100 94 94 93 87 94 95 102 135 204 254 269 248 261 280 277 270 274 
275 252 240 207 190 182 180 167 164 150 145 135 134 126 113 104 118 124 122 108 122 124 121 121 114 95 87 93 91 86 73 67 59 62 66 70 80 80 85 87 83 81 82 84 89 89 92 100 98 97 104 104 102 102 99 106 102 99 105 100 100 94 96 92 96 92 88 96 96 148 239 275 297 302 281 260 274 280 277 274 
253 246 230 212 191 182 172 160 161 147 140 138 136 129 113 107 117 124 116 105 117 122 126 128 117 101 83 93 86 79 78 79 63 60 64 58 67 75 85 81 83 81 81 85 86 86 87 95 99 97 95 100 99 102 102 104 101 103 102 101 98 93 100 96 97 95 91 115 157 226 272 273 290 312 309 293 284 290 294 283 
244 243 231 221 198 179 170 155 153 147 143 138 135 126 111 105 117 132 117 112 112 104 107 117 119 113 106 102 79 70 78 80 66 66 65 57 65 68 73 80 82 74 80 78 87 81 85 92 89 94 101 102 105 103 104 111 113 107 100 103 100 95 101 95 99 97 106 184 249 284 269 250 266 300 307 302 289 275 277 284 
252 235 231 230 200 177 169 161 156 143 141 135 137 123 115 100 122 133 121 116 111 99 93 90 103 115 128 116 93 76 69 73 70 70 70 62 56 56 68 72 77 75 75 76 80 81 81 91 84 90 93 101 99 109 140 161 119 104 105 104 101 97 98 97 97 99 148 245 271 277 273 244 233 239 238 238 241 246 248 250 
334 290 259 239 226 208 187 170 166 148 141 139 132 121 117 112 130 137 124 120 116 100 87 91 89 99 124 130 125 95 81 80 72 66 73 69 64 60 62 63 70 72 75 73 76 77 81 90 80 87 100 102 103 131 238 225 135 114 127 123 104 96 99 97 102 116 207 251 242 239 237 232 229 228 230 232 236 251 274 273 
408 402 345 297 255 227 227 205 188 160 154 139 133 120 117 121 142 137 129 123 118 103 91 98 99 97 123 121 116 115 102 90 69 71 70 68 69 74 72 63 58 58 70 76 75 79 76 86 78 105 158 142 114 198 317 244 135 163 211 153 104 98 100 95 106 164 227 250 247 251 252 248 247 254 256 262 277 282 273 262 
332 370 416 412 349 290 257 233 227 207 178 153 141 116 113 132 147 132 129 124 124 105 97 106 106 109 126 112 105 97 112 115 91 75 72 68 67 75 83 83 65 58 57 68 73 74 79 84 79 117 258 263 167 287 342 216 188 287 264 146 108 95 96 89 111 218 281 311 302 307 298 296 288 288 281 274 268 258 246 238 
395 361 352 378 418 411 353 295 257 231 215 200 164 129 117 141 146 134 126 126 126 106 106 115 113 116 134 115 115 104 116 104 103 89 79 69 66 74 90 92 91 74 58 58 63 73 77 78 81 100 273 347 293 352 329 217 297 319 207 114 101 95 97 87 107 234 314 334 321 316 306 297 292 285 274 258 249 245 240 237 
580 587 497 386 342 357 409 414 358 299 252 227 211 187 156 153 147 137 132 132 129 112 116 124 120 120 133 119 115 112 106 95 81 79 78 69 69 76 98 99 92 88 75 68 62 61 68 78 75 91 257 362 366 370 317 313 326 257 135 106 95 89 87 88 111 231 318 323 314 301 284 281 272 271 259 253 250 260 262 268 
551 687 715 645 466 331 313 344 402 417 355 286 250 221 205 188 147 131 135 135 128 114 119 130 122 127 136 115 116 109 104 98 85 81 74 70 75 78 97 105 98 86 85 87 78 63 66 71 66 81 224 359 368 369 355 349 315 175 118 95 88 87 93 95 103 217 314 319 304 304 296 293 288 281 271 274 284 296 296 292 
628 703 720 670 550 399 305 275 296 331 389 412 359 292 241 191 138 132 127 134 132 112 123 130 126 138 139 120 118 112 112 106 97 87 81 75 79 79 92 107 102 98 95 92 96 82 73 72 66 74 204 350 367 368 356 348 291 195 123 97 90 91 94 91 106 210 313 336 334 327 321 313 305 304 304 307 314 313 308 304 
649 640 665 598 441 380 363 329 258 258 277 320 395 470 355 199 139 125 123 127 131 111 125 138 126 141 134 120 125 115 111 114 106 102 91 88 89 87 94 109 105 97 100 100 96 85 91 81 65 76 167 341 368 366 360 353 332 241 143 114 99 95 94 94 108 196 301 346 327 328 321 312 309 316 313 306 304 305 289 282 
682 561 478 388 330 363 367 429 367 248 211 230 275 323 301 190 131 126 119 122 126 105 122 131 131 143 133 123 125 115 114 120 112 109 108 98 100 100 100 109 114 97 96 91 105 100 92 88 76 81 168 340 360 359 358 360 360 295 223 183 132 108 105 101 110 189 299 333 321 318 315 307 309 303 294 277 266 265 258 247 
703 586 435 327 311 355 447 450 398 414 283 166 191 216 219 161 126 116 114 103 103 95 121 137 133 147 135 128 128 121 123 121 115 112 114 103 101 103 114 117 121 110 107 102 110 113 107 107 103 107 174 341 366 359 359 364 358 348 328 298 250 189 147 126 124 212 301 328 332 335 323 297 287 278 265 263 258 262 252 250 
691 594 484 376 375 464 465 381 327 419 358 185 166 168 169 133 123 129 124 95 65 71 108 128 134 130 128 127 128 122 119 123 116 113 112 99 101 95 108 120 134 151 166 159 174 230 239 218 234 263 295 356 361 359 359 365 357 351 354 345 323 286 246 196 162 233 306 315 324 335 307 277 274 266 266 259 256 262 262 264 
581 552 583 545 513 488 404 290 264 253 212 189 234 208 155 127 124 146 130 108 72 71 90 108 111 117 127 125 126 123 121 128 120 119 116 111 117 126 160 207 273 319 356 350 320 338 355 377 389 401 403 379 363 361 360 362 369 349 352 353 351 343 323 303 266 293 305 318 319 311 280 266 272 279 277 278 278 284 274 270 
485 515 587 639 609 577 443 282 250 215 191 300 461 257 164 133 130 141 128 120 102 79 94 93 88 99 121 119 126 124 129 134 122 119 121 123 164 210 256 319 390 406 411 396 351 373 384 403 400 416 417 392 366 366 366 365 356 357 367 363 362 354 351 344 341 341 329 323 298 243 229 253 276 297 297 299 295 293 278 273 
350 451 542 653 706 705 509 282 243 214 210 315 359 268 252 149 131 127 120 123 117 93 83 89 82 85 110 119 124 121 122 128 123 118 123 157 230 245 284 372 416 419 422 414 391 403 415 408 413 426 422 386 364 374 381 377 373 363 360 361 364 361 361 357 357 359 343 331 248 211 220 234 255 278 292 294 290 290 280 274 
231 310 427 687 712 652 435 250 215 204 221 247 265 332 405 187 134 123 121 123 121 97 84 82 73 82 103 118 123 120 118 122 126 126 149 210 250 259 338 415 423 424 426 415 418 424 425 409 405 423 423 390 374 376 379 383 378 376 372 374 367 369 371 369 369 366 359 324 234 225 238 247 258 278 282 293 296 296 289 284 
228 270 345 627 668 620 385 219 208 223 233 242 284 405 445 270 144 127 124 123 126 103 82 74 82 84 99 109 124 118 119 122 122 126 170 231 258 304 398 426 430 427 426 418 424 423 428 411 393 428 423 398 376 377 377 381 379 377 382 375 374 373 376 369 365 363 354 289 240 247 258 261 277 295 316 324 332 330 319 311 
205 267 378 562 576 474 260 213 230 238 245 266 333 392 482 367 149 127 123 123 124 104 84 84 84 80 93 102 116 123 119 123 120 140 196 231 274 362 424 429 430 426 422 420 415 422 431 418 403 423 424 416 387 382 382 383 381 374 373 374 370 371 371 365 368 361 338 279 253 268 279 286 304 328 341 345 348 355 341 340 
304 500 592 474 413 279 263 284 265 262 283 343 419 537 556 370 150 132 126 120 122 113 87 83 86 85 95 101 115 121 118 124 116 153 217 235 311 401 425 427 432 424 427 419 401 417 436 434 422 430 429 430 406 403 397 395 394 384 381 377 369 368 370 367 368 364 329 283 275 284 297 310 327 347 351 349 354 355 350 346 
338 452 470 377 257 223 314 430 399 363 401 577 633 580 381 218 143 132 123 122 121 113 96 93 87 88 94 95 106 111 114 120 121 163 226 236 339 415 427 428 432 426 420 409 379 412 435 433 427 428 433 440 431 422 420 403 401 404 396 393 377 375 371 366 363 363 323 297 286 289 312 320 329 342 347 351 354 357 354 361 
438 396 366 313 236 229 263 410 497 441 544 588 476 322 229 162 131 128 121 123 121 110 104 97 93 87 93 93 105 104 114 121 122 177 224 239 355 420 431 427 432 427 428 410 382 397 421 431 426 433 439 439 439 437 427 410 417 424 427 423 413 405 393 365 357 356 324 304 293 300 310 310 322 334 337 339 339 344 345 354 
674 452 446 368 286 236 224 315 501 480 570 394 276 212 158 130 123 122 120 119 118 111 106 101 89 86 89 89 99 103 109 117 118 183 226 244 350 423 432 430 432 427 420 410 373 392 414 423 427 428 435 434 438 432 428 423 424 430 436 431 432 429 421 399 377 360 322 299 294 296 302 304 311 320 325 320 318 323 336 341 
639 458 522 752 623 349 232 252 340 510 544 341 231 154 141 130 123 121 118 119 119 112 103 103 94 86 82 80 93 100 107 116 120 183 249 266 358 425 440 433 429 426 425 418 389 390 415 426 428 428 431 433 431 435 431 432 430 433 434 438 439 434 433 427 419 397 345 309 293 301 299 295 309 318 311 308 299 304 315 330 
582 481 591 879 881 527 216 195 228 283 334 256 154 139 148 123 119 119 113 120 117 110 105 103 86 77 70 83 98 102 105 116 120 167 265 294 337 415 438 430 426 425 428 425 403 382 412 424 419 423 426 432 426 430 428 424 428 433 434 432 430 433 433 425 428 418 388 346 321 303 299 296 296 308 305 291 285 289 302 313 
601 348 355 432 591 307 172 161 226 249 203 159 139 163 136 120 115 112 114 112 113 105 108 104 75 69 77 85 93 94 107 114 120 167 246 292 298 379 424 428 432 428 432 432 415 392 408 423 417 424 427 426 420 424 419 428 425 428 427 435 432 428 427 421 417 419 404 396 382 349 313 294 295 304 296 290 284 300 304 307 
551 301 243 255 301 244 205 188 254 222 159 138 164 150 124 120 119 116 115 116 114 112 130 110 85 69 66 71 84 95 107 116 113 152 236 261 276 304 376 416 432 430 429 426 419 403 411 417 411 419 420 420 419 423 424 425 422 426 425 431 432 425 425 420 418 412 410 418 405 378 330 313 296 296 295 287 292 298 291 294 
339 268 229 232 255 251 246 235 249 196 147 155 168 134 124 119 121 117 115 117 113 118 136 115 74 60 60 58 74 89 101 111 108 133 207 243 265 268 296 366 424 425 431 429 421 409 412 416 410 414 418 419 417 421 421 425 421 413 422 422 430 428 424 429 430 422 415 427 405 356 342 323 309 295 292 274 273 271 263 275 
276 239 213 222 245 246 238 227 226 218 208 181 146 129 122 118 120 113 118 118 119 106 97 71 55 40 30 34 57 72 88 97 87 94 168 223 244 251 273 307 381 411 408 416 417 410 409 418 402 407 408 416 413 418 417 414 412 404 412 415 413 409 413 421 424 426 422 409 354 331 338 333 311 303 281 259 253 237 232 257 
255 228 201 224 246 236 210 217 263 249 221 174 136 125 123 118 118 116 116 119 118 103 74 72 42 26 37 45 45 52 73 89 84 81 125 192 232 247 270 283 322 358 360 357 369 385 386 398 400 404 401 414 414 411 410 401 385 376 362 344 338 345 381 403 409 409 387 363 322 327 339 329 308 312 301 290 259 245 256 282 
242 223 202 230 244 225 192 240 316 275 214 151 133 128 124 120 120 117 117 120 118 105 98 78 54 40 65 73 54 40 52 76 82 83 89 133 208 233 252 254 264 278 293 290 297 311 333 354 383 413 408 415 411 394 354 309 236 183 149 158 169 177 246 333 370 376 355 328 312 326 321 321 309 309 305 301 289 279 278 276 
234 214 199 239 244 246 294 399 314 215 174 135 129 127 122 118 118 112 117 116 112 110 106 84 54 38 49 59 53 46 41 59 72 83 93 93 153 207 229 236 233 238 249 273 294 309 329 364 402 430 429 413 401 293 175 152 121 109 98 118 133 134 154 211 310 327 314 313 307 327 314 301 293 295 288 286 277 265 245 237 
237 223 228 258 260 428 494 361 222 189 152 130 126 123 123 118 117 117 115 117 123 114 130 103 70 32 29 77 56 40 36 45 55 77 93 82 92 139 198 217 221 223 248 267 288 296 334 381 420 436 428 415 343 195 136 124 110 90 84 110 128 129 137 147 230 315 311 316 313 330 319 307 298 295 282 261 249 244 246 247 
258 353 332 284 275 532 484 251 207 177 136 127 124 123 121 116 118 115 116 116 117 114 141 126 85 53 33 39 52 43 40 40 36 58 81 80 69 69 113 162 217 224 219 233 250 262 306 374 405 391 370 306 194 146 132 122 105 83 82 104 122 126 129 138 178 293 312 319 319 320 326 312 302 276 255 245 249 248 243 244 
292 487 478 291 259 335 253 211 203 157 133 126 123 122 115 114 115 114 112 115 121 115 142 125 80 44 18 0 35 51 48 54 35 31 53 62 69 66 92 113 204 284 171 155 154 153 180 221 205 179 215 165 125 135 123 120 105 83 78 94 119 123 127 124 147 247 301 310 309 318 315 288 272 260 267 261 247 248 252 259 
352 565 488 289 238 211 227 223 188 141 127 122 117 119 115 112 113 112 113 116 115 110 142 127 79 29 11 12 58 50 57 64 41 25 36 53 61 76 92 107 126 147 133 135 129 122 128 122 112 121 181 138 118 121 123 124 105 78 75 90 116 118 125 124 130 199 282 300 301 300 286 260 275 274 277 245 243 253 258 256 
519 837 523 293 295 301 304 290 175 135 121 117 121 118 114 110 112 115 116 116 117 111 140 124 91 66 42 39 61 51 74 80 58 39 34 43 68 82 94 103 109 111 115 122 122 117 115 104 99 116 169 139 116 114 114 120 105 84 75 82 111 121 119 118 126 159 257 292 290 270 271 276 291 275 252 239 247 265 260 244 
603 891 508 287 406 380 388 262 150 124 121 116 115 115 118 111 110 111 114 118 114 110 137 122 87 51 38 43 41 38 55 78 63 45 40 50 65 71 84 91 99 100 103 105 114 110 111 101 94 111 161 145 126 120 132 177 136 94 75 82 105 114 117 111 123 135 221 275 265 270 286 291 289 259 244 246 264 274 262 245 
339 511 355 258 354 368 326 177 131 123 117 116 115 114 110 105 113 116 112 118 113 115 137 122 75 51 58 54 55 48 45 52 42 39 48 45 46 53 67 79 85 88 89 96 98 97 102 97 89 111 159 158 170 169 322 556 313 126 76 77 101 109 112 123 124 131 212 257 261 278 286 284 262 249 248 259 285 274 252 243 
204 230 250 249 316 341 230 130 121 116 116 113 117 111 111 106 108 112 113 116 115 117 135 116 92 57 49 48 51 47 44 44 36 29 33 40 45 48 59 63 68 81 78 83 88 81 70 71 84 106 137 147 158 186 428 632 379 136 80 74 96 107 112 112 121 139 209 262 261 283 276 252 245 256 257 277 284 274 248 248 
176 199 235 235 224 173 125 102 107 106 107 109 111 106 106 105 110 111 113 116 113 116 134 114 68 46 49 49 51 45 41 42 29 15 33 48 54 52 60 61 64 68 70 69 66 60 66 79 91 101 127 153 132 129 266 428 272 121 82 74 88 105 110 113 122 138 228 272 275 285 263 251 255 273 268 284 281 265 241 246 
172 204 231 220 155 122 106 91 93 87 92 99 101 106 107 106 105 110 109 113 108 113 126 106 58 32 25 44 53 48 43 45 30 24 15 47 68 65 68 67 67 61 62 59 76 85 92 95 92 98 117 141 120 119 143 172 168 134 88 73 83 100 111 112 116 139 228 264 279 279 245 252 276 280 281 292 278 252 238 243 
170 201 228 210 142 119 97 92 93 83 79 75 88 91 95 101 107 105 106 110 106 115 126 101 40 13 24 49 58 52 51 50 42 40 33 50 74 82 76 67 58 62 77 96 100 93 99 101 102 94 104 129 106 107 100 118 153 139 83 76 81 101 110 113 117 126 197 258 273 259 256 275 291 290 284 291 267 248 244 245 
195 226 227 196 125 100 80 84 91 82 79 73 71 74 82 88 95 97 100 105 105 105 125 111 72 37 35 52 60 52 56 56 42 53 41 32 80 107 97 85 89 101 105 108 101 98 108 122 120 99 97 116 99 97 91 102 106 100 84 74 86 99 111 112 115 124 154 239 261 251 266 289 291 284 284 277 253 248 245 249 
353 251 226 185 114 85 74 74 78 78 73 79 78 70 67 72 70 70 82 89 92 95 119 109 72 34 33 43 47 46 50 52 48 57 50 63 96 113 121 120 116 112 111 120 121 119 118 125 126 106 98 110 99 90 85 81 80 78 78 74 84 100 108 110 112 115 131 202 237 254 275 285 285 274 270 259 250 250 246 249 
323 259 226 188 126 93 77 76 81 73 71 67 75 75 75 78 78 75 75 74 75 82 111 112 69 48 54 62 71 54 56 56 47 58 74 92 103 118 122 124 122 114 114 121 123 118 111 118 121 109 99 107 93 82 80 81 76 74 75 75 91 96 106 108 111 113 116 151 183 237 268 283 284 283 275 264 256 264 253 249 
347 250 224 202 144 110 89 79 85 72 64 64 65 67 67 74 78 85 80 81 76 72 106 109 92 74 63 80 88 83 82 78 74 78 84 97 103 106 116 120 122 121 117 122 119 118 112 112 122 104 95 101 90 81 80 78 81 81 85 88 94 100 108 109 111 112 110 123 131 169 221 252 266 270 268 254 254 259 246 240 
268 234 228 214 166 119 104 91 88 72 63 65 67 66 71 71 77 80 82 77 76 84 114 115 111 88 71 96 105 95 89 103 136 128 112 100 104 110 111 117 129 126 120 128 127 116 117 119 115 99 94 100 92 87 87 96 93 94 97 97 99 103 110 110 108 113 110 117 115 124 146 171 200 218 210 208 216 218 206 211 
219 228 225 206 168 123 104 91 92 86 80 78 80 77 74 74 76 78 82 82 66 64 107 122 112 98 70 85 118 105 103 159 237 135 112 105 104 98 102 111 124 123 126 137 125 124 118 118 104 96 91 99 102 100 105 103 99 101 104 99 103 105 112 110 114 112 109 119 115 114 122 123 129 138 132 127 129 139 142 138 
208 230 228 208 171 143 118 104 98 96 91 88 93 88 82 81 84 85 90 87 75 55 102 122 113 91 71 78 127 119 111 141 136 114 112 107 105 103 104 106 123 122 128 135 127 124 121 121 116 107 110 113 117 116 114 116 106 107 112 102 108 107 115 116 118 114 113 121 114 115 117 115 121 114 112 111 111 130 116 94 
213 223 226 209 162 151 142 125 116 103 102 100 105 104 97 94 95 96 98 95 82 67 106 120 112 103 86 75 122 129 115 122 108 112 124 113 107 104 104 101 113 122 122 128 125 125 123 127 120 116 122 120 122 120 119 117 111 111 108 106 108 107 115 115 114 120 113 124 112 117 117 118 114 113 107 102 110 110 93 83 
201 206 209 207 184 168 151 144 142 129 123 114 115 112 108 106 103 101 100 105 94 86 115 123 116 111 104 81 126 133 106 103 98 119 124 119 110 110 107 102 107 116 124 128 130 125 124 130 128 128 126 126 122 124 124 124 123 119 119 116 115 113 115 115 118 120 113 126 111 116 116 116 114 112 103 103 103 97 88 76 
197 196 199 201 192 187 188 173 164 136 132 130 131 130 125 114 111 106 105 113 113 109 120 123 115 116 123 117 185 141 116 112 111 120 126 119 118 109 104 100 103 103 111 130 135 127 129 129 125 125 128 125 130 130 135 167 240 200 142 115 115 116 112 118 119 120 114 124 112 115 114 110 110 113 103 100 91 92 78 82 
230 222 207 199 191 183 187 183 171 140 137 133 140 140 137 129 130 128 123 129 129 126 126 124 121 123 126 129 196 147 122 116 116 128 129 124 121 114 115 111 109 105 117 136 135 131 136 135 134 131 132 134 150 169 220 417 507 360 179 124 123 116 119 120 117 122 117 124 120 115 120 120 119 113 104 98 98 103 83 81 
257 245 237 234 217 207 197 182 166 138 129 134 135 135 135 134 133 131 137 138 139 131 123 125 117 125 129 119 168 141 123 113 115 129 132 125 123 118 120 125 119 116 118 138 136 132 135 133 133 131 128 133 143 160 261 541 558 378 183 128 125 114 124 120 123 124 117 125 117 121 124 124 123 119 104 114 116 123 126 97 


