P2
80 60
306
255 249 239 239 243 248 250 256 251 248 243 226 216 227 243 251 253 258 249 248 243 239 231 231 229 211 222 238 244 241 231 225 214 206 205 205 198 201 221 216 214 203 206 193 196 204 205 201 200 216 190 140 84 41 24 11 9 6 3 5 2 4 2 5 5 9 8 14 16 12 12 14 15 20 15 19 17 11 11 11 
257 245 239 243 242 250 258 261 253 246 238 226 210 229 244 251 257 254 247 244 246 233 235 236 221 214 225 243 245 236 229 217 215 209 209 201 198 202 220 216 216 208 209 195 206 210 212 217 220 229 224 213 197 155 83 33 15 8 7 3 0 5 4 6 12 13 12 19 17 15 20 21 16 15 18 16 11 11 12 4 
257 253 245 243 244 254 259 265 257 249 249 223 207 227 251 257 256 257 249 249 245 241 237 234 223 228 239 247 240 236 220 219 216 213 210 203 201 203 215 219 209 207 205 209 213 209 214 218 227 233 233 231 228 217 195 134 54 23 8 8 8 11 18 19 25 24 25 18 17 22 23 18 14 13 10 16 12 16 12 5 
259 258 249 248 249 251 257 260 256 250 247 219 211 232 253 256 257 259 254 253 248 241 235 235 231 230 243 243 236 225 222 226 221 216 207 200 201 215 220 222 203 215 210 213 216 226 235 232 230 235 236 237 231 230 223 206 166 73 28 25 23 29 26 25 24 26 21 24 25 25 19 20 19 14 16 17 20 22 13 10 
261 259 253 253 247 249 258 264 260 253 245 223 216 234 254 256 258 259 253 254 251 245 240 235 230 238 237 247 233 229 226 227 219 205 196 201 217 235 219 217 211 217 214 220 225 238 242 237 229 236 243 238 239 237 234 223 218 170 80 45 33 32 29 28 26 29 23 24 23 19 21 20 16 16 19 17 20 18 13 14 
264 262 256 258 251 254 258 264 260 254 242 227 224 233 252 256 256 259 254 255 252 244 242 237 230 241 242 241 236 234 231 223 209 203 204 224 236 236 228 227 228 229 227 236 242 242 242 239 230 240 246 243 242 239 234 231 225 213 164 68 38 38 35 35 33 30 23 23 27 23 18 19 17 11 18 20 22 15 12 9 
264 263 262 262 256 254 252 265 260 249 240 237 227 240 249 254 257 258 257 253 249 248 244 237 240 245 247 242 239 232 226 217 211 209 223 246 241 236 232 232 229 231 238 241 241 248 238 232 227 242 244 241 245 243 238 238 233 226 206 124 50 41 36 28 28 25 18 23 22 18 20 22 19 11 13 17 20 14 14 4 
265 266 263 266 259 259 251 262 262 250 242 251 232 252 254 258 256 260 260 256 251 247 244 240 247 248 242 243 241 234 225 223 218 231 239 246 246 241 240 237 231 240 242 244 243 244 237 241 231 248 248 245 244 245 242 241 241 234 229 192 88 52 33 29 26 23 21 22 24 18 27 28 22 16 17 19 22 15 17 11 
269 264 262 263 260 261 251 254 254 249 250 258 242 247 252 253 258 263 257 256 250 249 246 241 248 247 245 241 236 230 226 222 229 237 244 249 245 240 235 235 233 245 246 240 246 242 237 237 236 253 252 248 248 247 246 243 241 240 235 220 152 66 40 29 27 25 25 22 25 24 26 25 24 23 20 19 20 18 10 8 
265 260 264 261 256 263 256 254 254 253 253 260 252 249 252 256 258 260 258 256 249 249 244 247 252 247 247 240 237 233 230 229 231 239 243 245 242 240 239 236 237 243 243 240 241 241 235 237 244 254 251 247 250 241 245 242 241 242 240 233 203 109 50 36 30 28 25 23 24 26 22 24 22 22 23 17 24 12 15 4 
267 260 260 259 265 264 258 252 255 246 262 262 258 256 256 257 257 260 257 256 252 251 246 250 252 250 243 241 238 239 236 234 243 248 248 245 243 242 237 243 243 246 242 240 239 243 241 249 251 256 256 252 252 248 245 244 246 245 243 242 227 166 64 45 36 30 30 28 28 27 28 26 22 21 19 20 22 18 14 9 
267 266 261 260 267 267 261 259 255 255 263 264 259 260 254 259 257 262 256 257 254 252 250 252 255 252 243 243 244 240 239 236 246 249 252 244 247 243 243 249 247 245 241 244 244 244 245 254 256 257 255 253 250 251 248 249 246 244 244 242 231 203 88 48 38 32 31 30 28 27 26 24 20 21 20 19 20 22 15 9 
268 262 260 262 263 266 265 260 252 261 263 261 262 259 257 261 257 257 254 258 257 253 254 253 253 248 244 249 246 242 242 245 248 246 245 246 249 246 247 250 250 247 247 247 249 251 257 260 260 259 259 252 254 252 251 251 254 247 246 246 232 218 103 52 39 34 30 28 29 25 24 23 24 23 21 19 24 22 15 16 
265 265 259 265 266 269 268 269 259 263 270 267 263 259 262 259 259 259 259 260 257 256 256 257 256 247 245 248 247 245 245 247 247 251 249 254 251 255 250 251 246 250 253 248 247 256 259 266 258 264 260 258 254 253 249 253 251 248 250 246 234 220 120 52 41 35 32 27 24 26 26 24 21 20 20 23 20 20 18 14 
265 265 262 264 264 265 267 267 262 261 265 267 261 259 260 259 258 261 258 260 260 258 256 253 255 249 249 248 248 246 246 250 250 249 252 250 252 250 251 251 254 254 254 251 254 261 257 263 262 265 260 260 258 252 249 251 252 250 249 248 237 226 130 56 44 33 34 24 23 24 22 25 25 22 19 19 22 20 14 12 
270 264 262 265 268 267 264 264 264 262 270 268 268 259 263 264 259 259 256 262 261 258 258 255 256 257 252 255 252 250 251 248 251 254 250 250 252 251 259 253 254 252 256 253 260 261 264 263 265 265 261 259 261 257 254 253 254 249 247 249 238 226 145 58 44 35 32 31 27 25 22 23 21 20 20 20 20 21 15 13 
269 266 265 270 263 267 268 264 264 262 264 264 262 260 265 260 259 260 262 264 258 260 256 257 255 256 255 255 257 255 252 252 252 252 255 254 254 256 256 256 254 255 259 260 260 263 265 263 265 268 262 262 256 256 255 252 252 249 247 245 244 232 164 60 48 35 34 29 31 23 23 24 21 21 20 21 21 24 17 10 
268 268 266 266 264 264 267 266 267 265 266 264 263 263 263 258 263 261 263 263 262 259 255 258 256 256 257 259 256 255 257 253 252 256 260 256 257 259 260 256 259 261 260 257 265 265 263 265 266 266 264 264 261 257 256 255 250 253 249 251 246 241 184 73 52 43 42 36 32 25 23 23 21 19 21 22 21 23 20 9 
266 267 270 267 266 265 269 267 266 267 267 266 265 262 263 260 264 262 265 263 262 262 260 258 261 260 257 263 258 258 257 257 259 258 259 262 263 255 261 263 263 263 263 258 263 265 266 267 264 269 267 265 263 261 258 259 253 257 249 255 251 243 205 86 60 47 39 36 34 29 27 24 22 21 21 24 27 24 15 15 
269 271 270 270 267 267 267 269 268 266 270 271 270 263 265 266 266 268 265 261 264 262 264 262 261 259 259 264 258 259 261 257 257 258 263 263 263 263 265 264 263 267 265 264 265 267 266 265 269 269 265 266 262 266 261 260 255 258 255 250 254 248 213 102 59 47 41 38 31 27 30 25 23 23 23 27 26 24 17 16 
269 268 268 267 267 266 268 269 269 266 268 270 268 265 263 265 268 266 268 266 266 267 267 265 263 262 259 260 258 258 259 259 261 258 267 263 263 266 266 265 260 265 265 261 263 266 265 267 269 268 267 267 262 262 263 261 260 259 258 253 253 249 221 112 63 47 42 35 37 29 28 29 25 22 24 26 25 22 21 16 
273 271 269 272 271 270 266 268 271 269 269 268 271 266 268 266 266 267 265 265 266 263 263 264 262 261 261 262 264 260 263 261 262 258 265 262 264 263 266 265 264 263 264 263 262 267 269 269 265 264 267 267 265 264 261 260 261 261 259 254 255 250 219 108 66 49 39 35 35 31 27 27 23 23 25 27 25 25 19 15 
272 275 273 274 273 270 270 272 272 268 269 272 268 266 268 268 269 266 265 267 267 265 266 265 266 266 262 264 263 262 264 263 263 264 264 266 264 268 267 266 263 264 264 263 265 266 269 268 267 269 267 265 269 268 265 260 263 265 259 257 254 244 214 100 65 54 43 40 36 33 30 27 26 25 24 24 26 26 20 15 
270 275 271 278 273 271 269 271 271 270 272 270 267 271 269 270 271 273 270 266 268 266 265 264 267 266 265 268 264 264 264 263 264 264 266 267 263 267 265 267 265 265 263 265 265 268 268 268 269 269 269 268 267 269 266 260 264 266 262 260 254 248 197 88 62 52 44 40 38 33 31 26 26 27 24 25 26 26 21 15 
274 275 276 273 274 270 269 269 273 270 272 273 269 268 269 269 272 273 268 271 268 268 270 267 269 268 268 267 265 265 265 265 266 266 267 267 266 265 267 266 265 269 264 265 266 268 269 271 271 270 267 267 265 266 264 262 263 263 260 257 256 239 164 79 59 51 42 38 35 36 31 28 21 25 25 26 22 25 15 19 
270 272 271 272 274 270 270 272 271 269 268 273 272 266 268 268 271 271 269 271 269 269 269 264 267 263 264 267 264 265 265 267 263 266 267 266 267 266 266 266 265 267 267 266 268 270 268 270 271 267 270 266 269 265 258 261 262 264 256 255 253 223 129 69 55 45 41 37 32 37 30 25 17 22 25 26 24 22 18 15 
273 274 273 277 276 274 272 272 272 271 272 271 272 271 274 271 271 275 269 269 269 270 272 271 269 269 268 265 266 265 268 266 266 264 270 268 265 268 269 266 267 269 267 268 266 270 270 272 272 270 269 268 270 268 265 262 263 260 261 254 245 197 95 57 51 46 38 34 32 34 32 31 19 18 27 30 24 23 23 14 
274 276 275 276 275 276 275 277 275 271 275 274 271 271 273 272 277 272 273 273 272 270 273 271 272 270 270 270 270 270 269 270 267 269 270 272 272 270 273 270 267 271 270 268 269 272 270 273 271 275 272 272 274 270 267 264 267 263 259 252 226 148 77 57 49 45 40 36 38 36 32 34 27 29 30 31 28 31 25 17 
273 277 277 278 274 277 273 275 276 274 275 276 274 275 274 270 277 274 273 274 272 271 273 273 271 268 272 271 270 270 270 273 273 271 271 269 269 272 272 271 273 270 271 269 272 273 271 276 273 273 274 271 277 271 272 269 264 264 254 233 175 95 62 51 49 45 43 38 38 35 35 34 33 30 26 29 28 32 24 16 
277 279 278 277 280 276 277 277 277 276 275 278 275 276 278 278 277 277 276 275 278 273 276 277 277 270 272 275 273 274 272 276 274 270 272 270 273 273 273 274 273 274 277 272 272 278 274 281 274 277 273 274 279 278 274 274 266 261 237 179 101 72 57 49 52 45 42 40 37 37 35 31 32 29 26 25 27 26 25 20 
279 281 280 281 279 281 281 281 281 275 278 281 278 279 278 278 279 279 279 281 277 277 278 278 276 275 277 280 276 278 275 276 276 276 274 277 277 276 274 275 276 276 275 273 277 277 278 282 276 277 275 276 279 276 276 275 268 250 170 106 71 64 53 51 50 44 45 38 41 36 32 32 32 30 24 26 28 28 24 23 
284 284 284 284 281 283 283 282 284 280 280 281 280 280 281 280 283 284 282 278 282 281 280 278 281 278 278 280 283 279 276 279 277 276 278 279 277 278 276 279 276 278 277 280 278 277 279 280 276 281 277 278 280 279 283 278 264 227 136 89 69 62 51 50 46 43 41 35 32 24 22 22 19 19 15 14 21 23 17 13 
289 289 287 286 284 284 286 285 282 282 287 283 283 282 284 283 288 284 284 283 283 281 281 280 280 281 279 281 283 282 283 281 280 281 283 285 286 287 281 284 279 281 284 280 283 284 285 287 281 284 281 280 283 283 275 270 255 243 194 106 70 63 54 51 43 45 43 37 32 23 26 25 25 26 21 20 19 17 17 14 
296 297 293 292 293 291 292 292 290 284 287 288 289 286 286 284 282 283 275 274 271 269 267 264 262 258 258 263 273 278 287 287 285 285 288 292 288 289 287 286 285 285 288 284 288 289 289 290 285 287 287 284 284 282 280 273 262 253 234 178 86 68 58 51 45 47 40 39 31 31 30 31 29 30 25 20 22 20 18 17 
298 299 299 298 299 298 297 295 293 291 294 288 276 272 269 264 247 232 212 198 190 195 189 185 185 198 200 215 250 273 281 288 285 285 290 290 291 292 289 290 289 291 291 290 291 293 292 292 287 291 287 285 285 279 275 266 265 258 242 222 141 85 64 56 49 49 47 35 37 31 37 34 31 33 27 26 21 24 25 17 
303 304 304 306 306 302 301 300 302 296 295 277 212 204 212 214 210 200 197 207 219 231 239 238 246 254 262 270 282 288 289 291 293 290 295 293 300 294 292 294 294 292 293 292 290 294 295 293 292 291 288 287 283 279 273 269 262 258 245 238 205 132 82 67 54 53 51 38 36 37 35 34 32 35 29 28 26 28 25 16 
299 298 301 303 299 300 300 297 296 297 297 287 264 258 268 266 274 273 276 279 281 281 285 285 285 289 286 291 289 295 296 297 294 294 297 292 295 296 294 296 292 294 295 291 291 291 292 296 292 289 291 288 286 277 273 261 254 251 242 229 224 195 108 76 59 55 48 43 42 35 33 34 30 29 31 27 30 29 26 26 
295 299 295 296 291 294 295 298 293 292 293 293 293 285 290 287 293 291 293 294 293 293 296 293 292 298 293 297 294 294 297 294 299 297 300 293 296 294 294 295 297 298 293 297 299 293 297 296 292 295 291 288 287 280 279 265 254 248 234 227 226 221 170 92 67 57 51 44 40 39 35 35 34 31 29 30 32 28 27 24 
293 292 289 291 290 292 291 294 291 292 296 292 292 290 294 293 294 291 291 293 294 293 292 296 293 290 289 292 292 295 288 294 293 292 293 290 291 292 293 294 290 293 292 289 291 291 291 290 289 288 286 285 285 279 278 268 262 254 240 236 230 229 212 157 85 63 56 46 43 39 37 40 34 28 28 30 30 33 28 19 
288 287 286 293 290 290 289 289 289 289 292 292 291 292 292 291 290 289 290 290 289 290 292 292 291 290 288 290 289 289 286 291 286 291 290 290 286 287 290 289 288 288 288 288 288 289 288 287 287 286 285 282 280 279 278 266 261 256 249 238 232 229 221 208 164 91 67 53 46 46 41 39 33 32 30 30 30 30 28 17 
283 284 284 285 289 283 283 289 287 288 288 287 286 286 288 283 289 288 287 288 286 285 286 285 287 284 283 283 281 287 284 285 283 282 283 284 284 283 286 286 283 282 281 280 284 286 288 285 287 283 280 279 281 276 274 264 260 256 245 238 236 235 225 218 210 168 99 71 62 53 48 46 35 37 35 32 32 29 25 21 
278 281 282 282 283 280 284 284 281 280 284 284 285 283 284 284 284 285 283 284 280 280 283 281 282 282 279 281 276 278 276 278 276 277 278 280 281 275 279 276 278 280 278 275 282 280 280 283 276 279 279 275 271 273 270 266 261 250 242 235 233 232 226 220 208 206 167 97 72 63 57 46 41 39 39 33 35 31 28 23 
274 278 276 279 280 279 280 281 283 281 282 283 284 281 280 279 278 279 281 282 278 278 279 278 277 275 273 277 272 273 278 274 271 271 273 274 273 274 276 274 273 273 276 275 276 278 278 277 278 276 277 275 272 270 270 265 261 256 246 238 235 234 230 226 224 221 211 169 103 69 56 46 43 40 39 37 36 33 26 23 
271 274 274 274 278 276 276 278 279 277 280 277 282 277 280 277 279 276 274 274 276 273 277 275 273 273 271 275 272 272 270 271 270 267 270 271 270 270 271 268 268 272 273 272 269 273 272 280 274 275 271 271 269 268 270 266 262 263 255 243 238 236 235 231 233 230 231 219 170 98 67 63 54 46 39 38 39 37 30 26 
268 271 270 273 274 274 274 274 274 272 273 274 277 276 273 272 274 274 275 276 273 269 269 271 269 272 264 271 266 266 263 262 262 261 267 266 265 264 269 263 266 267 264 267 271 273 275 274 274 273 271 268 266 264 266 259 262 255 257 251 242 244 240 235 237 234 234 227 216 161 87 64 53 52 43 39 36 32 27 23 
265 270 267 268 270 269 269 272 270 272 271 272 272 271 270 267 268 271 272 271 273 266 268 268 266 264 263 263 262 263 260 259 261 261 261 262 260 265 261 259 263 266 264 263 264 269 269 269 267 271 267 267 266 267 262 261 260 258 254 253 248 246 246 241 242 241 239 236 231 216 158 84 58 55 46 41 36 34 27 24 
264 265 264 264 268 267 266 266 269 270 269 265 271 266 271 266 268 267 268 268 264 264 265 263 261 262 259 261 260 256 258 255 257 255 256 257 255 260 256 257 260 262 259 257 262 265 263 266 264 266 263 265 264 263 260 257 258 257 258 256 252 250 249 245 249 247 251 245 241 236 215 144 72 55 46 43 39 35 32 25 
261 264 264 263 265 263 266 269 268 264 268 264 268 268 266 264 266 267 266 266 262 261 262 261 260 258 257 261 257 256 257 256 252 254 257 254 257 256 258 256 258 257 260 259 262 263 261 262 266 264 265 260 264 262 262 259 261 258 256 256 255 256 252 249 254 256 252 250 251 248 238 211 124 65 51 52 42 39 33 27 
261 259 260 262 262 261 263 267 263 263 264 262 268 266 262 263 266 266 264 266 261 259 260 259 258 256 254 255 254 252 253 252 251 251 255 251 253 252 254 254 254 256 254 256 257 259 261 260 262 262 261 262 263 260 263 258 258 258 257 257 254 258 254 255 253 257 259 255 256 251 250 240 188 96 59 49 45 42 36 22 
262 259 261 259 259 260 264 264 265 262 265 262 263 261 263 260 261 261 259 263 259 256 258 259 258 255 252 252 253 252 252 252 249 251 252 252 252 252 249 252 253 255 254 257 258 258 258 257 260 264 262 262 262 262 260 259 262 259 257 259 257 256 257 257 255 257 256 255 258 257 260 251 228 150 68 53 44 40 31 29 
257 259 257 261 262 262 263 262 265 262 259 263 260 257 263 261 262 256 259 257 257 256 256 255 254 251 251 252 252 249 253 250 248 251 251 252 250 247 245 251 251 249 251 253 256 254 259 257 259 259 260 262 263 260 260 261 262 260 257 257 257 260 257 256 255 257 259 255 259 259 262 258 238 204 94 60 44 44 29 28 
258 259 257 257 261 260 262 265 263 259 261 260 258 259 260 260 257 258 256 257 254 255 254 256 252 253 253 252 251 249 252 252 250 247 249 251 247 243 240 247 253 251 251 256 252 255 259 258 260 261 260 260 263 262 260 257 260 260 258 259 259 255 255 257 258 259 260 260 259 257 261 261 249 228 145 75 54 45 37 23 
255 256 257 258 261 258 257 261 262 263 262 261 258 261 257 254 255 260 257 259 254 253 257 254 253 250 253 252 250 247 249 247 249 246 250 247 248 235 233 248 247 251 252 251 256 252 254 256 257 261 258 261 262 262 260 260 262 259 262 261 258 257 257 255 260 260 259 261 256 259 262 262 256 246 189 93 60 49 39 32 
256 258 260 259 256 254 260 265 261 260 260 259 262 258 259 256 258 260 259 258 253 252 252 255 254 251 250 250 249 250 247 251 248 251 251 247 248 236 234 243 250 253 251 252 253 255 257 256 260 259 261 262 264 260 261 262 260 261 257 259 255 257 256 255 256 260 261 262 262 259 263 260 251 253 218 118 67 60 42 37 
255 253 255 256 257 255 258 264 261 257 259 255 263 258 260 256 258 259 254 254 253 250 252 251 252 251 250 252 251 250 248 246 248 245 251 247 246 229 231 243 251 251 250 252 252 256 256 257 258 262 261 263 260 259 263 258 256 263 258 255 263 258 256 254 257 262 263 262 261 264 264 259 255 256 235 143 77 57 42 33 
253 255 256 258 258 256 257 259 259 255 254 254 257 256 257 256 255 256 257 254 251 252 253 250 251 250 247 250 248 248 248 249 246 247 246 248 244 223 232 243 247 251 251 248 246 253 254 254 258 260 261 260 262 263 260 259 249 254 256 254 258 257 254 257 259 262 261 258 262 261 267 259 252 255 243 170 79 55 41 38 
252 255 254 256 258 256 260 258 256 250 249 250 258 256 255 257 255 258 253 257 251 253 250 252 251 248 246 250 248 247 248 247 248 246 249 247 247 219 231 242 251 250 251 248 247 249 252 254 258 258 260 263 259 259 261 261 259 242 249 253 256 258 256 257 257 262 262 260 262 261 263 263 250 259 248 185 86 58 43 34 
252 255 255 256 254 255 258 255 255 246 250 250 256 255 256 254 255 258 255 254 251 251 250 253 253 248 251 251 250 248 250 248 248 248 249 247 246 225 230 237 249 250 249 240 247 250 253 257 260 262 262 261 260 263 261 261 259 256 233 242 252 258 258 258 257 260 266 261 263 261 263 260 251 258 249 205 102 60 43 34 
253 254 257 259 256 255 255 256 249 243 247 249 254 253 258 256 258 254 255 254 252 250 253 251 253 250 251 252 250 248 248 249 249 248 249 247 249 228 225 236 245 248 248 239 245 252 252 259 258 263 264 262 262 258 257 259 260 261 247 221 243 256 255 258 259 261 266 263 265 264 261 262 253 254 253 211 117 69 45 37 
258 257 254 260 251 259 252 249 246 237 248 247 255 255 260 262 255 258 255 257 250 251 249 254 251 249 248 252 249 250 249 247 249 248 254 248 255 231 230 234 236 249 242 244 246 251 255 259 258 260 262 261 257 252 258 252 250 255 256 233 222 244 251 257 258 262 265 261 266 261 261 261 257 262 249 211 118 70 46 32 


