P2
80 60
158
43 44 40 39 34 36 38 40 41 43 42 38 39 39 40 39 40 38 39 42 36 41 37 42 42 42 47 48 45 50 53 55 52 53 49 47 45 44 48 44 46 46 45 45 40 40 41 43 40 42 40 39 42 43 38 40 39 41 40 40 41 38 39 41 41 36 40 44 41 43 42 39 43 43 38 45 46 42 40 40 
42 40 40 37 34 38 40 39 41 39 44 39 36 41 39 38 42 41 42 40 39 36 42 41 39 38 47 45 42 49 51 56 51 52 50 48 47 41 43 42 42 44 43 39 40 38 41 40 41 37 41 40 42 41 41 41 39 41 42 38 41 38 36 39 39 39 38 44 44 41 42 41 44 40 43 42 44 41 39 42 
41 42 37 39 35 32 38 37 41 38 39 41 38 40 41 42 40 38 40 40 36 37 38 38 42 40 45 44 42 50 50 51 52 50 50 44 47 41 45 42 41 40 40 41 40 43 42 41 40 40 38 42 39 40 36 37 37 40 39 41 39 35 37 37 38 38 41 39 42 42 40 40 41 41 42 40 42 39 39 44 
38 38 36 35 37 31 38 37 38 39 38 39 38 41 38 37 41 38 39 36 41 37 38 40 40 41 45 44 43 48 48 50 50 49 50 44 43 42 44 42 39 42 41 41 39 41 38 39 39 38 39 40 38 39 38 38 39 40 37 39 36 38 36 39 35 37 37 37 38 42 40 41 41 41 41 42 41 42 42 40 
31 37 37 35 33 33 35 38 38 37 36 37 37 37 35 37 38 38 40 39 38 39 37 37 41 40 41 44 41 49 44 49 49 47 46 42 43 41 41 40 41 42 39 43 38 40 41 37 38 38 40 37 40 41 38 38 39 41 39 38 40 35 37 39 38 39 38 37 37 38 39 41 42 40 44 44 42 41 39 36 
28 40 37 31 33 31 37 34 40 38 35 36 38 39 37 33 35 36 39 36 39 38 37 40 38 39 41 41 42 49 45 47 46 49 46 42 45 42 41 46 40 44 40 41 41 39 38 39 39 40 38 38 39 40 36 39 37 39 40 39 37 38 35 37 40 39 39 40 41 40 37 38 39 38 40 42 40 38 38 38 
27 39 36 31 36 29 34 39 39 37 36 37 37 36 37 34 40 39 38 39 36 37 34 37 43 37 43 43 39 44 46 47 49 45 45 41 43 39 41 40 42 41 43 41 40 40 38 32 39 39 37 37 38 40 38 36 37 39 41 35 35 35 35 37 38 37 37 39 39 38 36 39 37 42 39 41 40 41 35 38 
23 47 45 35 33 36 37 37 38 39 36 38 36 36 38 36 37 36 36 38 36 36 34 39 40 40 42 42 40 43 45 47 46 45 45 42 44 38 40 40 40 39 38 42 39 39 38 38 36 35 39 38 38 36 34 36 41 36 37 37 37 37 36 37 36 35 37 37 37 38 40 40 42 39 42 41 41 41 34 41 
21 42 51 34 36 32 36 36 40 36 37 38 38 37 34 34 40 37 36 37 36 37 36 38 38 38 41 42 39 44 46 45 43 44 44 39 42 41 38 39 39 42 39 40 40 41 38 41 39 39 37 40 40 38 39 37 39 42 38 35 38 38 37 39 39 38 38 36 40 37 39 40 41 44 41 43 41 42 35 40 
21 34 52 47 34 34 33 37 39 39 35 36 34 34 36 32 38 35 34 38 36 36 35 39 38 37 42 36 39 43 44 41 43 43 42 38 38 39 38 38 41 38 39 37 37 40 38 38 37 35 38 35 40 37 35 37 34 36 38 33 35 38 35 37 38 38 37 36 37 37 37 40 40 38 39 38 43 39 36 40 
20 30 43 67 38 37 33 37 39 38 36 38 38 37 34 35 36 36 35 36 36 37 36 35 35 37 41 39 38 43 41 43 47 38 41 42 38 39 35 38 39 40 35 38 36 39 38 38 37 37 40 37 40 37 38 37 38 36 36 41 38 36 36 40 37 36 39 35 39 39 41 38 40 39 40 42 44 43 35 39 
22 27 34 72 57 40 39 36 37 38 40 39 38 36 36 33 38 38 37 37 34 34 34 34 40 39 39 38 37 42 43 43 42 41 43 40 41 38 37 40 41 40 34 38 41 40 39 38 39 37 42 37 38 36 36 39 40 36 37 34 35 38 35 35 39 37 37 42 39 37 40 38 41 39 43 43 39 40 37 39 
22 27 33 41 65 40 36 30 35 35 37 35 36 34 32 35 34 36 36 38 34 35 35 38 37 37 40 39 36 39 39 38 43 40 40 36 38 38 39 36 38 35 38 41 37 39 38 36 37 37 38 34 40 37 38 36 36 36 41 39 35 35 34 38 36 35 36 36 41 36 39 38 40 40 42 37 39 40 39 36 
20 29 28 33 45 56 35 34 35 35 38 35 34 34 36 35 39 39 40 35 36 33 34 36 38 35 36 35 36 40 39 40 38 39 41 36 38 39 34 36 36 36 36 38 36 37 39 38 37 41 36 39 37 38 37 37 39 37 38 38 33 34 34 37 36 33 36 38 40 40 40 41 38 42 41 44 40 41 39 40 
23 30 28 28 29 36 39 34 39 35 36 38 37 36 35 30 37 36 35 34 35 39 34 38 38 35 38 39 46 40 38 39 37 39 39 36 37 35 39 36 36 36 38 37 35 39 38 39 38 37 39 37 39 38 38 38 37 37 39 34 35 38 37 37 37 37 40 38 40 36 35 40 40 42 39 42 44 45 37 35 
21 25 31 28 28 30 36 38 34 36 36 36 34 33 37 33 35 36 34 36 32 33 34 33 36 37 36 39 40 38 36 34 38 40 37 34 35 37 38 35 36 34 38 36 37 37 39 34 39 37 35 32 35 37 36 37 36 36 34 36 36 35 36 37 36 36 36 35 39 35 36 39 42 38 40 39 43 40 35 35 
25 26 31 30 27 29 34 36 34 36 38 35 34 31 35 33 38 35 35 37 34 33 32 33 33 34 35 34 33 36 35 38 36 35 38 37 37 35 35 37 36 40 36 42 37 36 37 36 40 35 34 37 37 38 37 39 33 35 36 34 36 33 37 36 37 34 34 37 38 37 36 40 40 40 39 42 41 42 39 40 
21 31 35 32 32 35 35 33 36 35 37 35 33 34 34 34 37 35 35 36 33 35 37 35 33 37 38 41 42 40 36 39 42 34 37 34 37 35 32 36 35 38 36 36 38 38 37 37 37 38 36 38 36 35 38 38 34 36 38 37 40 40 35 38 37 37 37 39 38 38 39 39 40 37 40 40 44 42 36 41 
27 28 35 36 33 34 31 25 38 36 35 35 35 34 34 32 36 37 35 36 31 34 34 37 36 35 41 49 56 41 37 34 36 37 35 35 35 33 35 35 36 37 38 35 37 38 38 39 36 39 39 40 37 36 35 35 34 37 37 42 37 37 35 37 36 38 37 40 38 40 40 38 39 39 40 43 45 40 36 40 
33 26 33 34 35 31 33 29 28 39 37 35 33 33 33 33 32 34 35 33 34 34 32 37 38 35 38 47 59 44 38 39 36 33 35 35 32 35 36 35 33 36 38 36 35 37 34 35 38 36 37 36 34 37 35 37 37 36 36 37 38 38 37 36 37 35 36 39 38 39 40 35 40 41 42 42 43 42 39 36 
32 26 37 35 32 32 33 30 27 34 35 37 32 32 34 34 35 35 35 36 31 39 33 37 34 38 36 46 51 43 35 35 36 33 35 34 37 33 32 35 33 37 37 39 35 37 34 36 38 37 37 38 36 36 37 38 37 35 39 36 38 35 37 35 39 40 36 43 38 38 39 39 37 39 41 39 42 38 39 38 
33 22 31 31 30 30 30 28 24 35 38 38 34 36 36 32 32 37 32 34 32 35 33 37 33 37 35 45 51 43 34 34 34 32 33 33 35 33 36 33 36 34 37 35 35 36 36 39 38 38 40 38 37 39 37 34 36 38 36 37 38 39 38 35 39 39 40 38 41 41 41 39 37 37 40 41 41 44 38 40 
34 25 33 33 31 33 33 32 21 27 39 36 36 33 35 31 33 34 32 33 31 33 32 32 34 36 33 46 51 43 35 35 34 33 33 33 33 34 33 33 33 34 32 34 34 35 34 34 37 34 36 35 36 36 35 34 36 38 37 35 34 33 37 35 33 38 36 40 39 38 39 38 37 39 38 39 40 41 36 36 
36 25 34 35 40 36 37 35 24 24 32 36 33 32 33 35 35 33 36 34 31 30 31 32 33 36 32 46 49 47 36 38 32 32 30 33 33 33 33 36 32 36 32 36 36 31 33 37 39 37 35 37 37 35 34 35 38 36 39 36 36 36 39 37 36 38 40 41 41 36 37 39 41 41 39 40 42 41 36 41 
40 28 33 38 39 37 39 36 26 23 36 38 38 34 32 33 35 34 33 34 29 31 32 34 34 40 36 43 52 45 41 36 37 32 35 31 31 35 34 37 37 38 32 37 36 36 35 39 38 36 37 39 40 38 37 34 37 37 39 36 38 37 40 40 39 36 36 41 40 40 38 41 40 38 40 43 40 42 34 39 
41 34 28 37 36 37 33 33 23 17 33 34 37 33 36 31 35 32 34 34 31 33 32 32 34 35 36 45 51 51 48 37 35 31 33 34 33 32 32 33 36 35 33 35 38 38 36 37 36 37 39 38 38 39 34 34 36 37 35 35 39 37 38 40 37 37 35 40 38 38 39 39 40 37 43 39 42 41 36 36 
37 31 24 30 31 29 32 29 22 15 31 34 32 33 33 32 33 32 35 33 30 31 33 31 33 34 35 42 53 53 53 42 34 29 35 33 29 32 34 34 35 35 33 37 35 35 35 38 37 39 35 36 36 38 38 35 33 35 39 34 39 34 36 37 38 38 36 37 35 38 38 39 38 38 42 40 37 39 33 38 
36 29 16 28 29 27 26 26 24 13 27 29 27 30 30 30 34 32 33 31 31 30 31 32 30 32 32 41 54 48 50 41 32 28 29 32 32 31 34 33 34 36 33 36 37 35 34 37 36 36 37 38 38 37 37 37 37 37 36 38 38 35 37 41 36 37 36 37 39 40 38 40 40 38 43 39 41 40 38 42 
35 31 18 26 22 25 27 24 25 13 25 31 30 27 28 30 33 31 31 33 30 29 30 31 27 34 33 42 49 42 45 40 30 30 31 29 31 32 35 31 36 36 37 36 38 36 32 35 37 36 34 37 37 37 38 39 38 40 37 35 36 36 38 38 37 38 39 38 42 38 39 40 41 41 42 44 43 43 38 39 
34 31 18 23 23 26 25 25 22 13 21 27 24 23 25 29 31 34 35 32 31 29 33 32 32 34 35 36 47 43 41 36 29 27 31 31 32 33 31 32 34 36 35 36 35 38 36 35 36 36 35 38 36 38 39 36 39 41 36 36 37 35 37 38 36 37 39 37 41 38 39 39 39 39 41 43 44 42 39 39 
33 29 16 21 21 26 24 26 22 13 20 26 26 20 23 24 30 30 33 33 33 29 28 32 30 30 32 36 44 38 35 35 31 31 30 28 28 30 30 33 34 34 34 35 37 35 38 35 33 36 39 39 37 38 37 39 41 39 37 38 39 37 39 41 36 40 39 41 39 39 40 38 42 39 41 43 44 42 37 40 
30 30 17 18 21 23 22 22 22 15 16 24 24 22 19 15 26 33 32 34 29 30 30 32 28 32 31 37 41 38 35 32 30 30 31 28 30 32 31 34 32 33 34 35 34 38 33 38 36 37 37 40 37 41 39 42 44 40 43 40 40 37 38 40 39 41 40 37 41 40 39 37 44 42 45 43 43 41 37 42 
31 34 19 15 21 19 23 23 24 15 18 23 21 27 24 17 16 30 32 30 30 29 30 31 27 32 33 31 37 36 30 29 27 27 29 27 31 30 31 31 32 34 34 35 35 35 35 37 37 37 39 42 40 38 38 40 41 40 41 38 36 39 39 40 37 42 42 41 40 42 40 42 41 44 42 43 43 40 37 41 
30 30 20 15 18 20 24 20 23 16 17 21 21 25 30 16 13 21 31 34 32 33 31 28 29 30 28 28 33 32 23 24 21 25 30 27 29 30 32 32 33 32 35 36 33 32 36 35 35 37 39 39 43 41 43 39 43 44 44 42 41 40 42 43 39 43 41 43 42 41 39 42 42 47 41 42 47 44 40 38 
28 25 17 13 17 19 22 20 19 20 14 19 20 19 25 22 11 13 29 31 29 31 30 27 26 28 29 33 43 36 19 10 17 22 26 29 30 30 31 29 35 32 33 35 34 36 32 34 35 39 37 39 46 44 45 45 45 46 45 47 44 46 48 47 45 47 48 45 45 45 45 45 42 42 44 45 46 46 40 42 
26 27 18 13 18 18 23 20 19 18 17 20 20 17 19 25 21 10 17 29 29 32 29 28 27 27 25 36 63 46 18 11 15 20 27 26 28 30 31 31 35 32 34 37 37 38 37 39 37 35 41 39 41 45 45 49 49 54 49 50 50 52 50 49 47 44 42 46 41 42 42 45 40 46 43 48 43 46 42 42 
29 28 23 16 15 19 23 21 20 14 13 17 16 16 18 18 26 16 14 24 28 27 26 28 22 27 24 38 62 47 25 10 12 16 26 28 27 28 30 32 34 33 33 36 34 35 34 39 36 36 39 40 43 42 43 42 46 51 50 52 52 54 51 53 48 48 46 47 49 47 45 48 45 48 46 44 48 48 41 43 
28 29 19 14 18 26 39 28 15 15 13 13 18 14 16 15 24 26 22 18 24 25 27 27 23 29 24 36 67 49 26 9 13 18 27 28 27 30 32 33 32 33 31 36 35 34 35 36 35 36 38 40 43 41 44 43 43 52 53 51 49 51 47 51 49 48 48 49 49 49 44 49 46 47 45 46 47 45 42 44 
30 26 24 27 44 68 71 45 22 16 11 12 16 14 17 13 16 27 21 19 19 25 25 26 25 25 24 30 62 45 22 11 13 20 28 30 29 31 28 32 32 32 31 34 36 34 34 35 36 31 40 39 41 42 44 44 48 52 48 53 51 49 48 52 47 48 47 47 47 45 45 47 49 44 46 48 47 46 44 41 
34 36 53 74 86 84 92 64 28 16 12 13 15 16 18 14 13 22 28 21 18 20 24 27 24 24 24 22 35 27 17 10 16 22 25 29 29 31 28 31 30 31 31 33 32 34 35 34 37 32 37 38 38 44 45 39 45 51 48 49 51 48 46 45 48 48 51 49 44 49 44 45 43 44 47 49 47 45 41 42 
53 82 103 106 99 94 106 74 35 17 13 13 16 15 17 13 14 16 27 22 17 19 22 27 25 22 26 22 26 17 19 21 22 18 24 33 29 29 31 32 33 31 31 35 34 36 34 33 37 38 38 40 40 41 41 40 43 47 48 49 49 49 46 51 50 51 49 49 50 50 47 47 44 47 47 46 49 44 45 42 
108 135 145 109 97 108 108 71 32 16 11 8 15 16 19 15 11 10 20 28 12 18 19 23 24 18 20 18 21 14 15 17 18 17 22 27 26 26 27 29 31 30 32 34 34 30 33 35 34 35 35 38 36 38 38 40 41 45 48 49 49 50 47 47 44 48 47 50 50 51 49 48 47 45 44 47 50 48 44 41 
150 158 135 112 103 119 103 64 29 19 14 10 13 20 15 14 13 12 11 23 22 17 19 24 19 16 17 17 16 12 14 14 16 18 18 29 28 27 27 29 30 34 30 30 32 34 33 30 33 32 39 38 37 37 37 38 39 42 43 46 47 49 47 49 46 51 54 52 50 48 48 48 49 47 51 52 51 46 43 43 
144 138 121 107 112 125 104 52 27 22 15 12 12 19 19 15 19 11 8 17 26 18 19 23 20 20 16 15 8 13 15 17 12 18 20 22 26 27 28 25 30 27 29 31 33 34 33 35 36 36 36 33 39 35 36 38 37 41 43 44 46 48 47 50 49 52 52 53 50 47 48 51 52 51 50 49 51 49 46 46 
136 130 114 103 120 116 94 37 27 21 17 14 13 19 17 16 15 15 9 16 21 23 17 17 19 11 8 4 5 6 10 16 13 12 21 27 27 24 30 28 29 31 26 32 33 35 35 34 36 34 37 35 37 34 38 36 38 39 40 42 42 48 48 47 47 52 52 53 52 49 52 51 50 50 53 51 50 48 46 46 
137 119 108 108 114 108 70 30 23 20 16 13 12 16 18 17 16 15 15 16 17 26 24 14 13 13 5 1 6 9 8 16 14 14 17 25 25 24 28 27 29 33 32 36 31 33 35 33 36 36 39 38 36 36 35 36 35 40 42 41 42 39 45 47 46 47 49 49 51 53 51 54 50 49 49 50 51 52 46 47 
138 114 100 106 114 102 53 28 22 23 18 15 12 17 20 18 15 17 18 9 11 20 25 19 13 17 6 0 4 7 6 14 16 12 18 23 27 25 29 25 31 32 32 33 31 32 34 36 36 37 36 40 38 41 34 34 37 39 39 42 43 44 45 46 44 46 52 51 50 51 53 51 51 51 54 51 53 51 54 49 
124 106 98 107 111 89 37 25 24 25 19 15 10 19 22 21 17 16 15 11 18 20 21 21 14 12 12 1 4 8 9 14 16 15 18 23 29 30 29 27 30 34 33 34 34 36 36 37 39 38 38 37 36 39 42 41 42 38 38 43 44 44 49 44 47 47 48 46 49 49 51 51 55 51 55 54 56 54 52 53 
116 103 102 110 107 70 30 25 25 26 22 18 13 18 19 20 19 20 14 12 14 22 26 17 14 12 13 8 6 9 5 13 17 16 19 25 32 29 27 28 28 30 30 33 32 33 35 34 34 36 37 37 37 38 40 39 41 39 41 40 40 45 47 50 47 51 53 49 49 49 50 53 51 52 54 57 58 57 51 47 
109 102 109 113 98 49 28 21 24 24 21 17 19 15 19 18 19 17 18 11 15 22 26 19 10 12 10 11 10 6 4 13 19 18 22 27 30 31 25 24 29 28 28 33 32 33 35 32 36 36 39 36 40 39 40 40 43 40 41 39 39 43 47 47 51 48 51 52 50 52 50 51 48 48 50 51 53 55 54 50 
106 105 114 114 88 33 26 25 27 21 19 19 15 13 21 20 22 19 18 11 14 24 25 15 12 12 5 10 12 11 16 16 17 18 26 27 31 34 28 26 29 31 30 31 33 34 32 31 35 36 37 36 41 39 40 43 43 43 40 40 40 40 43 45 44 47 54 50 51 55 54 54 50 49 52 49 50 55 50 51 
94 105 114 113 75 28 27 25 22 25 25 21 16 13 20 23 21 19 18 17 14 26 24 17 14 11 4 6 11 9 17 21 20 21 26 25 30 31 30 30 30 29 32 33 34 33 33 31 34 36 36 37 37 40 38 39 43 41 37 45 43 44 39 42 44 43 48 50 48 53 53 51 50 54 51 54 53 51 49 48 
93 111 120 107 64 24 23 26 25 27 26 24 15 13 20 20 24 20 18 18 18 28 28 17 18 13 7 4 7 10 18 27 19 26 30 29 31 32 32 30 30 31 30 34 34 33 34 32 36 36 39 38 38 40 39 41 45 44 45 44 42 45 41 45 46 45 49 52 49 54 55 52 52 56 55 57 60 52 44 49 
97 111 116 95 41 27 25 22 23 26 25 26 21 15 20 20 23 19 22 20 22 27 22 20 17 14 9 1 5 7 11 28 28 31 30 33 31 31 32 32 30 32 34 30 33 39 36 37 37 34 38 41 38 37 40 40 43 44 44 42 43 42 42 45 43 44 45 48 51 57 53 51 54 54 58 61 58 57 45 46 
101 110 109 79 33 26 22 24 29 27 29 28 20 15 18 22 28 22 25 24 26 31 23 24 22 17 11 4 6 8 9 23 27 31 33 33 33 34 33 31 33 33 37 35 37 41 39 36 36 39 41 44 40 41 44 42 44 47 41 44 45 42 45 44 46 47 47 49 49 51 50 50 52 58 60 57 57 58 50 57 
103 108 100 62 29 28 24 23 28 27 26 25 25 20 20 26 28 28 25 25 29 29 24 22 22 17 13 4 3 5 11 22 30 30 32 31 35 34 35 37 36 35 36 36 35 39 39 37 38 41 39 42 43 42 44 42 49 46 44 45 46 46 44 46 47 44 49 49 50 51 54 50 53 52 54 55 60 60 53 50 
109 111 95 49 28 26 25 21 27 28 29 25 25 20 15 21 27 29 27 27 31 31 24 22 21 20 14 4 7 8 13 24 28 28 35 32 33 35 33 35 36 35 36 37 37 38 36 37 40 39 41 40 42 42 43 42 44 44 44 42 42 46 48 47 49 44 48 48 48 49 51 50 54 55 56 52 58 57 53 53 
112 109 80 39 30 23 23 23 27 30 27 29 25 24 19 21 24 25 27 27 32 28 24 21 24 22 16 9 7 10 20 30 31 29 31 32 33 35 35 34 35 38 36 37 37 38 38 42 42 42 42 39 41 43 42 42 44 46 45 45 43 42 44 45 47 46 51 45 53 51 50 51 54 51 56 56 53 56 53 50 
112 109 67 36 29 27 26 23 28 29 27 27 25 22 22 28 26 28 28 29 32 31 29 23 25 22 23 12 9 13 20 30 30 31 32 31 36 32 34 38 37 40 41 39 38 41 38 40 41 42 41 42 45 44 45 44 47 49 46 45 41 44 42 47 47 46 49 50 52 49 50 53 55 52 56 56 57 60 55 57 
118 99 60 33 29 23 25 20 29 28 25 26 26 24 23 24 26 28 31 33 30 33 25 24 25 22 17 10 7 12 19 30 34 29 35 31 36 35 39 33 35 38 37 39 36 40 39 37 42 39 41 43 44 43 42 44 42 44 45 46 45 43 42 46 43 46 46 47 52 51 51 51 53 54 53 56 55 52 52 57 


