P2
80 60
102
34 33 28 33 28 29 29 25 28 31 42 82 99 62 54 53 45 47 47 42 41 39 36 39 36 33 28 30 30 32 29 26 31 27 25 23 28 22 26 27 28 28 29 24 25 26 27 28 23 26 24 26 29 28 24 26 28 29 27 29 28 31 30 29 30 27 30 29 33 32 30 30 29 29 31 32 32 32 32 29 
34 27 30 31 30 31 30 30 27 31 47 84 102 60 55 50 50 50 46 43 41 34 36 35 28 32 32 27 27 28 30 23 26 25 24 26 23 20 25 26 27 26 26 23 24 23 24 25 23 24 24 27 26 27 26 29 26 26 29 25 29 30 25 28 28 26 27 30 32 28 28 30 28 31 34 29 30 27 29 30 
30 30 26 32 29 31 32 27 25 32 50 84 95 56 53 49 48 51 43 43 39 32 34 34 32 33 28 27 24 32 27 25 28 27 22 23 26 24 26 24 26 23 26 22 26 24 25 26 22 25 24 27 26 27 27 24 25 29 25 27 24 27 25 25 27 27 28 28 29 28 27 28 27 30 28 31 29 27 28 31 
31 28 26 30 30 28 34 27 26 35 51 91 88 52 47 45 47 44 41 41 37 34 33 32 31 30 30 29 26 26 26 25 24 23 23 22 24 24 25 22 21 22 23 22 25 23 24 23 23 23 24 28 23 24 26 27 25 27 27 27 26 27 26 27 24 26 26 27 28 27 31 30 32 28 32 29 32 32 30 30 
28 28 26 30 28 26 28 22 25 30 54 101 80 50 50 47 44 45 39 41 34 35 33 31 30 33 25 27 25 25 23 22 24 25 20 21 23 24 24 22 24 25 24 26 23 24 24 23 22 23 25 26 23 24 26 24 25 26 26 25 29 26 26 26 26 30 26 27 26 24 25 30 29 32 29 29 29 27 27 28 
33 28 25 26 25 22 23 17 22 20 36 95 71 48 45 42 45 42 38 37 36 35 33 30 28 26 27 23 25 27 25 24 22 24 23 21 23 23 24 25 23 24 22 23 25 22 21 22 20 25 22 27 25 23 23 25 24 25 26 26 23 27 25 29 28 29 25 28 26 28 25 28 29 25 30 29 28 27 26 26 
31 28 25 28 29 25 21 20 18 22 21 31 43 44 46 42 44 43 37 34 33 32 32 29 29 28 25 25 26 24 25 21 23 23 20 22 22 20 21 22 23 23 24 22 21 26 23 22 20 23 24 22 23 26 24 23 24 27 25 24 24 25 25 23 27 25 25 25 25 25 24 29 28 27 26 25 27 27 26 29 
32 29 24 25 24 22 20 16 20 20 19 24 19 25 40 41 40 39 36 35 34 30 30 27 27 28 24 23 25 24 24 20 22 22 22 20 20 19 22 25 23 22 24 22 22 21 22 26 19 21 22 23 21 22 22 25 25 23 25 26 27 26 23 26 26 22 28 27 23 24 28 29 29 26 29 27 26 26 26 26 
31 27 26 30 24 23 22 17 21 16 17 18 18 20 23 28 37 38 35 33 31 30 30 29 27 26 25 25 27 23 26 23 22 22 22 19 22 20 22 22 21 24 21 21 23 25 23 25 24 25 22 27 22 24 25 24 25 26 24 22 26 26 21 25 26 24 26 24 28 26 26 30 28 29 29 31 27 27 25 27 
29 26 24 27 24 22 18 15 15 15 13 17 20 16 18 17 21 31 32 32 32 32 30 29 26 24 26 25 27 25 25 20 25 19 22 21 22 20 26 25 24 22 24 19 19 24 24 22 23 19 21 25 22 23 21 24 22 25 25 19 21 26 23 25 27 25 24 22 25 23 25 28 28 24 29 25 32 27 26 25 
27 25 26 24 22 23 19 18 17 17 14 14 15 19 16 14 18 20 23 29 31 28 28 27 21 22 26 24 23 22 21 21 26 21 19 22 23 21 22 24 23 21 19 22 24 23 26 23 22 20 22 25 22 24 22 22 22 22 24 24 24 25 24 25 25 24 27 24 26 26 25 25 28 23 31 28 28 29 26 24 
29 27 23 25 25 22 23 18 17 12 13 13 16 17 17 16 19 20 18 21 25 27 25 24 27 26 24 23 23 25 25 21 22 21 21 21 20 20 20 22 25 20 19 22 25 22 23 20 21 22 26 24 22 24 24 25 24 23 24 25 22 27 25 23 24 26 26 27 27 25 28 25 25 26 30 28 25 27 26 21 
26 28 24 24 22 25 19 12 15 13 13 12 13 15 13 14 17 19 16 19 18 20 25 27 27 25 26 24 23 21 23 21 24 21 19 21 22 20 23 20 22 23 19 23 23 22 20 21 21 21 22 22 23 26 24 24 24 24 24 24 23 25 23 25 25 24 25 24 28 24 23 23 26 24 31 24 29 26 20 21 
28 23 23 24 21 21 20 13 13 11 13 12 11 14 11 15 15 20 17 19 17 16 18 19 26 20 20 20 21 24 22 21 19 20 23 19 20 21 19 20 20 17 22 19 19 20 21 21 20 25 21 28 20 23 21 24 25 21 22 24 23 23 20 23 23 24 25 25 25 24 28 25 24 25 28 24 25 25 24 22 
28 24 22 23 20 21 18 12 17 13 11 10 13 17 12 14 17 19 18 15 19 17 19 18 21 20 21 20 23 25 21 22 22 21 21 21 18 17 20 18 22 20 19 21 19 21 22 23 22 22 21 24 23 24 22 25 23 21 23 22 23 24 21 27 24 23 27 23 22 24 23 28 26 25 24 25 28 26 20 18 
25 23 24 25 25 19 18 16 14 9 13 13 15 11 13 13 13 15 13 19 19 18 17 18 18 20 18 21 19 23 22 17 23 22 19 20 17 20 23 21 20 18 22 21 20 20 24 22 22 21 21 21 15 22 25 21 22 21 20 24 23 22 21 22 24 25 26 24 23 22 22 27 24 22 24 23 25 25 20 21 
23 21 19 24 21 18 15 15 13 14 11 15 15 12 16 16 16 16 15 16 18 17 17 16 19 18 19 20 22 21 23 20 20 20 19 21 19 18 20 24 19 21 22 24 22 20 23 20 20 19 20 21 21 23 24 24 22 20 22 22 23 21 23 23 23 22 24 24 27 22 23 25 23 24 26 27 24 27 25 23 
23 27 20 25 21 19 19 14 15 11 14 12 13 14 9 16 18 17 16 20 18 20 21 19 18 20 19 21 20 22 24 20 23 20 21 17 20 19 19 22 19 20 22 19 20 20 22 23 21 22 20 23 21 22 21 23 19 19 22 23 25 22 23 23 21 22 25 25 23 24 23 27 25 24 26 26 26 29 28 22 
23 23 20 26 21 18 13 11 14 12 13 12 13 15 19 12 13 15 17 22 20 20 22 24 22 18 22 21 21 22 24 18 22 21 14 18 19 18 17 21 22 21 23 18 21 21 22 27 19 22 22 23 20 22 21 21 21 21 20 24 25 24 23 24 24 24 24 27 24 24 24 24 26 24 25 27 29 28 22 24 
25 23 23 22 24 18 16 15 17 15 12 11 14 14 13 12 15 18 16 14 20 22 23 21 21 19 22 19 23 24 23 22 19 17 17 18 16 18 19 20 18 21 22 20 20 20 20 20 24 19 21 20 17 23 21 21 21 21 22 21 23 22 20 21 22 23 26 23 26 21 25 24 25 26 24 27 27 26 25 20 
24 27 22 25 21 22 18 20 30 21 13 10 13 12 14 15 15 16 19 22 22 22 22 24 23 26 27 20 21 22 18 20 21 19 19 17 18 18 21 21 20 20 21 21 19 22 23 22 23 23 23 23 18 21 21 23 20 22 22 23 22 23 22 22 24 24 24 23 24 24 24 24 23 26 24 24 24 23 22 23 
25 21 20 28 21 17 13 22 31 29 25 20 15 12 14 16 14 17 16 19 21 19 23 24 19 21 23 19 20 20 20 19 20 19 21 19 20 15 21 21 21 20 20 19 21 21 20 21 19 20 23 24 22 22 22 18 20 21 23 22 23 25 22 24 23 24 23 22 25 25 22 28 23 27 27 25 23 25 24 21 
25 20 25 23 21 21 16 22 28 24 32 39 23 15 15 16 14 18 15 18 20 22 20 22 23 23 22 20 20 20 19 17 22 20 20 19 15 21 20 19 19 15 20 18 19 18 22 17 18 17 20 17 19 19 22 18 19 21 23 19 23 23 22 23 21 26 25 24 24 21 21 24 24 24 22 23 25 25 22 21 
25 20 22 25 22 19 14 20 26 22 32 39 37 28 18 17 16 18 18 19 22 18 20 21 21 21 19 20 19 23 21 21 20 18 18 18 16 18 19 19 19 19 18 17 20 17 22 19 21 19 19 22 18 18 17 22 21 19 23 24 22 25 25 22 24 24 26 25 24 23 25 22 25 23 24 23 22 23 23 23 
25 22 24 24 22 25 18 22 29 26 33 38 36 34 30 25 16 19 19 22 18 23 25 26 22 22 22 20 22 19 21 21 21 19 22 18 17 21 20 20 18 19 18 19 20 20 22 23 21 19 18 24 22 21 21 20 18 26 23 25 24 24 26 24 22 23 24 25 23 26 23 25 24 22 26 27 27 27 20 22 
31 26 21 29 25 18 15 23 27 25 33 37 36 33 31 29 25 17 18 22 21 23 20 20 22 19 21 19 19 22 23 19 18 18 18 21 18 19 21 22 20 20 21 18 20 19 20 23 20 19 20 20 19 21 20 19 19 23 22 23 26 26 20 26 22 24 26 25 23 24 24 26 24 22 27 25 26 23 24 21 
24 26 22 24 24 21 18 26 26 23 33 38 36 35 33 29 28 25 22 20 22 20 25 23 20 19 19 20 23 21 22 21 21 17 22 19 18 20 18 20 19 19 20 20 21 19 19 26 22 20 20 20 19 22 24 20 22 22 25 22 23 25 25 24 24 24 24 24 23 23 22 27 23 23 28 24 27 24 24 24 
26 24 23 27 24 27 25 23 25 23 33 37 34 31 34 28 28 25 23 21 21 17 22 21 20 17 20 18 23 23 19 20 21 18 20 22 17 20 21 20 18 20 21 19 19 17 19 21 17 20 23 21 20 18 23 20 20 20 21 21 25 25 21 27 24 20 23 21 24 25 24 27 26 24 26 26 26 22 22 21 
26 23 23 24 22 28 27 26 24 24 28 32 35 34 28 27 25 25 25 22 22 21 20 19 15 20 21 19 21 20 22 21 20 16 17 17 19 21 20 20 22 18 22 20 19 18 20 20 18 21 19 22 21 21 23 20 20 24 23 21 21 23 25 20 23 23 21 26 25 23 22 25 26 24 25 28 23 26 21 18 
25 24 21 24 22 30 30 26 25 21 31 32 31 33 29 28 26 27 24 23 22 22 22 17 20 19 19 17 21 18 20 22 19 18 21 20 18 20 19 20 19 19 21 17 18 20 19 22 20 21 19 23 21 18 24 20 20 22 24 20 24 24 21 23 21 24 23 25 22 23 24 24 24 24 25 22 24 25 18 21 
26 24 25 27 27 31 27 30 23 24 31 32 33 30 31 30 28 25 26 22 23 21 21 21 20 19 17 22 20 20 20 22 19 19 19 21 19 18 17 19 22 20 19 20 20 21 21 20 15 21 24 20 20 18 23 22 21 23 22 23 22 25 23 24 24 28 21 24 24 24 25 22 25 24 25 25 23 26 23 21 
27 24 27 24 26 31 28 29 20 26 29 33 29 28 29 29 26 28 26 21 24 22 20 20 22 21 20 22 19 20 20 21 23 20 19 20 19 21 21 19 20 19 19 18 20 21 21 21 21 20 19 21 21 21 20 24 25 24 24 24 24 30 22 25 24 25 24 24 22 25 25 22 28 25 27 28 27 26 22 21 
25 21 23 26 25 26 28 27 25 25 30 29 28 29 26 25 24 27 24 22 22 21 21 19 21 19 19 18 22 21 19 19 20 18 21 19 18 16 17 19 17 19 18 18 21 19 20 21 21 20 19 22 22 21 21 20 20 24 22 21 23 28 20 21 22 25 28 23 25 23 18 25 23 26 28 27 24 26 22 27 
28 29 26 27 22 28 26 25 22 25 30 32 29 26 27 26 25 29 22 22 26 22 23 18 24 23 18 19 20 21 19 21 21 22 20 19 18 22 19 20 18 21 20 20 19 20 21 21 19 20 20 22 20 21 22 21 21 25 23 21 25 25 23 26 22 26 24 26 23 23 22 24 27 26 27 24 24 28 27 23 
25 26 22 25 25 27 25 24 20 28 30 29 30 27 28 26 25 25 23 23 23 22 21 17 18 23 20 21 18 21 20 18 21 19 19 20 18 17 19 19 18 17 20 20 19 18 20 21 20 18 21 22 19 21 20 21 20 23 23 23 26 28 22 22 23 26 24 24 22 26 23 26 25 26 28 28 23 27 24 18 
28 28 23 28 25 26 27 24 20 27 28 28 28 27 25 25 26 30 23 20 18 20 22 20 23 22 20 18 22 21 20 20 19 18 17 20 20 20 18 18 20 17 20 19 20 22 20 23 22 22 23 22 18 19 21 22 21 24 22 24 25 26 22 25 26 27 24 25 22 24 23 23 22 28 30 26 25 26 26 19 
33 22 22 29 21 25 27 24 18 24 28 27 27 25 27 25 28 31 25 22 20 20 20 19 20 22 21 20 19 18 21 21 21 18 19 20 21 17 18 20 20 21 20 19 20 22 22 21 23 22 22 23 22 20 20 23 22 23 23 22 25 26 23 24 24 22 25 24 26 23 25 25 24 29 27 25 25 27 21 23 
27 24 26 26 22 24 24 25 18 25 27 29 27 20 26 24 25 27 23 23 22 19 23 22 21 20 21 20 17 21 20 18 21 19 19 20 19 21 20 21 19 22 18 22 21 19 22 23 23 20 18 23 25 21 21 23 23 23 24 23 23 23 23 21 22 24 27 27 26 24 22 23 26 25 26 27 28 26 24 26 
24 25 25 27 23 25 23 23 23 23 26 25 25 25 24 25 21 24 22 19 21 19 18 21 21 19 20 19 21 19 19 23 20 21 20 17 19 18 20 19 20 23 21 21 23 18 23 22 22 22 22 23 20 23 23 24 23 24 23 23 25 25 23 25 25 21 26 29 25 25 24 27 23 22 25 26 25 27 24 23 
23 24 26 27 23 28 24 23 27 27 26 24 24 22 26 26 25 27 22 23 23 20 21 19 22 22 18 17 20 21 20 20 20 18 20 23 21 20 22 22 20 22 20 21 22 21 25 24 22 23 20 24 21 22 23 23 21 23 22 23 25 25 24 24 22 28 24 25 24 26 23 25 22 24 29 24 28 26 25 26 
23 24 23 25 26 28 26 24 22 23 24 23 23 24 21 23 25 27 22 19 21 21 20 20 20 22 20 22 19 23 22 21 23 19 21 23 20 19 22 22 23 22 21 21 23 19 23 22 22 22 18 22 24 20 21 24 24 26 25 24 27 26 22 26 25 23 25 25 25 24 25 27 24 26 29 26 25 28 25 29 
26 24 26 27 26 24 27 30 34 25 27 23 23 26 23 23 24 24 21 24 20 21 25 20 23 21 23 20 22 23 23 21 21 24 22 24 20 20 22 20 25 24 24 22 24 22 24 27 19 23 21 25 23 20 25 25 25 24 23 25 28 24 25 26 23 25 26 26 27 28 26 28 24 26 26 25 24 27 24 25 
25 24 23 29 24 26 27 32 36 28 25 23 26 24 21 19 24 22 26 20 21 22 20 21 21 23 22 23 20 20 22 19 21 24 21 23 21 21 23 21 25 23 25 22 21 25 24 24 19 20 26 25 22 21 21 20 23 23 23 21 23 28 23 26 23 24 29 28 26 25 23 29 27 26 30 30 25 27 25 25 
24 24 24 28 23 27 26 29 36 29 22 24 24 24 23 22 27 21 22 20 24 20 23 21 21 23 21 26 22 22 21 20 22 21 25 21 18 24 24 24 23 23 21 22 24 23 22 23 23 22 23 23 22 19 21 23 19 25 26 24 25 26 22 23 23 26 28 28 25 24 24 27 24 32 29 25 26 27 24 23 
26 26 24 28 27 26 29 29 34 30 25 27 21 25 22 22 24 26 19 21 25 21 22 22 20 25 23 24 21 21 24 18 23 21 21 23 21 20 23 21 23 23 22 24 26 25 24 22 24 21 23 22 21 20 22 18 24 23 19 24 24 28 23 24 23 25 28 30 28 25 28 27 29 29 34 29 29 27 25 23 
27 24 26 31 25 28 30 27 34 32 23 23 22 23 20 22 24 26 23 22 23 22 25 20 21 22 20 24 23 22 24 21 22 21 22 25 21 23 23 22 22 26 23 24 21 22 23 24 23 25 26 24 21 24 23 23 22 25 21 24 23 27 25 27 23 23 26 27 27 29 28 28 28 30 28 31 30 29 26 28 
26 23 23 28 26 26 32 29 33 35 24 25 21 22 20 23 21 25 24 21 20 21 22 21 21 23 19 22 22 21 21 22 22 21 21 22 24 24 23 23 23 22 26 21 25 24 23 23 22 22 23 26 17 21 22 20 21 28 23 26 25 25 25 23 27 25 28 27 28 27 25 26 26 31 29 28 27 26 26 27 
29 25 24 27 25 29 29 32 36 37 28 23 21 22 22 22 22 21 25 22 23 23 22 20 22 23 21 23 23 25 23 22 21 25 23 21 24 26 24 22 26 21 25 23 24 24 26 23 22 26 24 26 23 23 25 26 26 26 26 27 28 27 23 25 26 33 26 27 30 27 30 27 26 26 29 29 26 31 25 28 
30 23 24 25 25 27 31 33 39 38 26 23 24 21 22 20 23 25 20 22 22 22 22 21 21 22 23 22 23 22 22 22 22 22 20 22 23 24 22 22 23 21 20 22 22 23 22 25 23 22 23 24 23 21 24 24 25 26 26 23 25 27 23 25 23 29 30 27 28 26 25 27 26 28 30 30 29 29 29 28 
30 25 23 28 25 28 32 34 37 42 34 22 24 22 21 20 24 20 23 23 23 22 21 21 22 23 22 22 21 23 23 23 22 25 22 23 25 22 21 22 24 23 22 21 21 22 26 23 25 23 26 23 24 22 21 22 26 25 23 24 25 28 27 28 27 31 27 30 26 30 28 29 27 28 31 28 29 29 25 31 
27 26 22 27 26 23 31 31 42 38 31 25 25 24 20 22 22 19 22 23 23 22 23 20 21 21 22 23 19 25 23 20 23 19 24 24 21 26 24 22 24 21 23 22 25 25 23 22 24 25 25 26 26 25 22 24 24 26 25 27 25 29 28 30 27 29 30 28 25 32 25 28 27 26 35 27 27 33 27 27 
29 23 20 27 22 24 29 32 34 35 32 23 19 19 19 19 21 21 19 21 23 20 21 24 20 24 19 20 24 19 22 19 21 20 21 20 23 24 22 23 24 21 22 22 25 25 26 23 23 23 23 21 24 23 23 21 23 25 23 27 27 28 25 26 27 27 25 28 27 30 30 28 26 28 30 28 30 26 27 27 
26 23 24 24 27 27 26 30 34 33 28 25 19 22 20 21 24 25 23 22 23 21 25 21 24 22 25 23 24 23 24 23 21 22 24 23 23 22 24 25 27 27 24 23 24 21 22 25 26 24 26 25 26 28 28 28 25 25 28 27 27 28 23 30 29 29 28 32 26 32 30 30 29 29 34 30 34 30 28 28 
25 24 24 25 26 25 31 30 30 29 25 21 22 20 16 20 22 23 23 23 22 23 24 25 24 21 25 21 24 22 24 26 24 25 23 24 27 25 26 24 25 25 24 24 25 24 29 27 29 23 25 28 27 25 28 30 28 27 26 27 25 28 28 28 28 28 30 29 29 31 32 29 31 29 28 32 30 35 30 34 
24 25 23 24 27 25 26 27 33 26 24 22 19 21 20 23 23 23 19 24 24 24 20 24 25 24 25 24 26 22 25 26 27 26 23 22 21 24 24 26 27 26 26 26 26 27 28 29 27 28 26 28 24 25 27 30 31 32 27 27 28 28 28 31 31 29 28 30 31 31 31 33 32 32 32 32 33 31 31 28 
26 23 22 23 26 27 25 26 25 21 19 19 22 19 19 22 23 24 22 22 24 24 25 21 25 24 23 23 24 26 25 25 29 27 25 25 25 26 27 26 26 30 26 28 26 28 26 28 28 27 27 27 28 30 28 30 33 31 30 30 29 32 28 33 32 31 31 31 32 31 31 30 32 30 37 32 35 34 29 26 
25 25 22 22 21 23 21 23 21 20 15 11 16 22 18 18 22 22 21 24 25 24 24 24 24 25 26 23 24 24 30 26 33 25 30 30 30 26 25 31 30 27 32 33 32 30 27 28 32 28 29 28 26 25 28 30 30 30 27 27 28 29 30 33 33 29 30 34 35 34 30 35 34 33 39 34 33 36 29 31 
25 22 19 21 25 22 22 32 34 24 4 3 10 20 21 21 21 26 24 25 24 26 25 22 26 26 24 24 29 29 31 32 31 32 29 30 32 34 32 31 31 33 32 31 33 32 33 36 35 29 30 31 28 29 27 28 28 34 31 32 34 31 30 32 34 32 34 35 34 34 32 36 32 32 33 30 33 32 31 33 
25 20 19 22 19 24 29 45 44 26 2 5 9 19 19 25 20 28 27 23 25 26 25 21 24 25 28 30 28 31 35 32 31 32 35 38 40 39 39 37 33 35 34 32 33 29 31 32 30 30 34 28 30 29 31 31 29 34 33 32 38 34 34 35 33 33 36 36 34 32 33 37 36 32 36 29 34 35 35 34 
29 23 19 16 19 21 31 45 48 28 0 4 8 19 18 24 24 27 21 28 25 25 24 29 24 23 28 28 26 34 32 35 33 30 34 37 41 39 42 34 33 37 34 37 33 33 31 37 37 28 33 34 31 31 31 35 32 32 35 32 35 33 34 34 35 35 34 34 37 34 33 36 32 37 37 30 36 34 31 31 


