P2
80 60
887
342 319 287 264 236 211 194 175 164 148 141 129 129 125 128 148 206 313 168 125 132 111 106 107 92 80 73 64 89 89 78 83 80 79 86 85 83 88 90 94 95 94 97 99 100 103 99 101 99 100 102 101 101 102 103 101 103 98 102 98 99 95 97 98 94 93 91 98 86 88 85 92 94 103 126 161 222 258 263 286 
320 302 268 241 208 197 187 172 171 161 150 135 132 127 116 150 304 252 141 110 129 124 113 110 99 89 85 79 81 77 68 81 81 81 88 88 88 87 92 90 90 90 94 98 103 102 98 101 101 105 100 105 103 104 103 103 103 100 99 100 99 95 99 101 96 94 89 100 89 88 89 98 126 189 217 235 261 275 278 288 
300 273 252 220 191 187 181 173 173 156 151 139 136 125 113 124 255 241 141 126 131 124 124 117 107 89 90 88 85 71 69 66 68 71 75 84 82 84 90 85 89 85 89 92 91 100 99 98 100 106 101 101 100 102 100 103 102 101 100 97 99 97 100 96 99 94 88 98 99 103 112 163 223 264 265 258 274 280 275 286 
275 255 240 211 191 184 183 168 166 158 153 142 137 125 115 105 120 126 123 109 127 131 121 126 119 92 91 93 94 90 75 69 64 65 68 73 82 81 84 86 86 84 86 87 90 92 92 98 100 101 105 104 100 102 103 105 102 97 103 100 101 94 100 101 98 94 93 101 110 157 218 245 247 271 283 276 278 277 276 281 
255 249 238 215 194 182 175 164 162 152 150 141 139 133 113 106 118 126 117 106 122 125 123 129 119 100 87 93 88 84 81 79 66 61 67 66 72 78 85 83 86 82 86 88 88 88 89 96 98 101 97 98 101 102 103 105 100 101 102 101 99 97 102 102 101 98 98 126 197 262 286 295 275 263 277 282 290 281 278 287 
246 249 239 225 202 185 173 157 153 152 149 140 141 126 113 104 120 133 117 111 113 108 106 119 122 114 109 98 81 75 80 81 71 69 68 61 65 67 75 83 86 78 84 82 88 85 85 92 92 99 102 99 105 99 103 102 106 104 102 101 103 96 102 105 101 107 134 221 277 290 298 313 307 297 273 283 294 296 282 290 
253 238 238 232 201 180 172 164 161 148 147 138 140 125 116 102 126 133 120 115 116 102 87 91 106 117 130 114 94 75 73 74 73 73 71 64 58 56 68 75 78 78 80 79 85 82 80 84 87 91 94 96 101 100 105 102 101 97 104 99 102 97 101 102 115 170 227 253 265 275 273 295 302 314 299 285 282 290 274 282 
336 294 264 242 229 213 189 172 168 153 146 141 136 123 118 114 135 135 125 120 115 101 84 94 93 101 128 128 123 96 81 81 73 67 76 69 63 59 60 64 73 74 79 77 79 80 80 83 83 85 91 87 94 100 99 100 101 99 101 101 100 97 102 111 180 259 282 298 294 263 237 249 252 244 240 245 252 257 253 272 
405 407 349 300 259 232 228 205 191 166 157 141 136 120 119 122 143 135 127 123 118 103 91 99 102 98 123 119 117 117 104 91 72 70 73 73 68 76 68 64 59 62 74 78 79 79 77 76 80 81 85 87 90 94 99 99 98 95 104 99 100 102 107 149 253 280 271 264 251 242 228 228 222 223 232 240 252 260 276 273 
331 378 422 416 352 295 255 237 228 212 179 155 142 118 116 134 147 133 128 126 125 107 96 110 110 110 129 111 105 101 112 117 93 75 75 71 67 76 82 80 64 60 60 70 72 73 76 76 79 84 83 84 85 88 97 98 98 100 101 100 101 97 126 221 270 247 237 244 237 233 234 238 236 250 259 270 282 283 252 244 
398 366 355 379 419 415 354 297 259 234 221 200 166 129 116 143 145 134 128 126 127 108 103 117 116 119 133 113 114 107 120 103 105 88 81 70 64 73 88 93 91 74 61 59 61 72 72 70 78 74 81 81 79 82 90 91 95 96 101 97 99 100 168 246 258 256 255 265 275 277 280 280 280 276 277 279 265 245 230 239 
592 597 502 390 343 360 407 415 358 300 258 228 219 191 159 155 145 136 132 131 131 114 114 123 122 122 128 115 116 113 107 91 85 78 77 70 68 74 97 99 90 89 78 66 58 61 65 69 73 72 82 79 82 80 83 81 86 88 94 92 94 105 217 286 309 316 313 310 308 303 293 292 288 277 259 253 248 241 233 249 
561 704 718 639 451 330 312 345 402 416 360 291 256 227 206 189 144 135 135 136 131 116 118 127 121 128 134 114 117 109 106 100 89 80 76 73 75 79 95 101 97 88 89 86 75 64 62 63 60 70 72 77 77 75 81 78 79 82 90 86 85 123 259 324 341 342 326 321 308 298 289 283 269 258 251 244 256 260 256 269 
637 713 721 651 533 381 300 275 296 336 395 417 364 295 238 189 141 132 130 134 133 113 120 130 126 138 135 118 118 115 113 111 106 90 84 81 79 78 90 107 102 100 97 92 92 83 67 65 62 64 68 71 74 74 80 75 78 78 80 83 85 120 266 335 344 334 313 306 295 288 276 275 264 259 267 280 295 298 285 298 
642 648 660 564 416 380 365 327 253 259 281 324 400 477 325 182 136 125 124 128 130 111 119 135 129 141 131 120 123 117 113 116 110 103 93 93 86 87 89 106 103 96 100 98 93 85 81 75 61 63 63 63 68 76 76 77 73 74 80 88 90 112 260 327 342 326 304 304 287 281 287 293 290 299 306 311 316 317 300 294 
671 547 455 367 336 363 371 427 360 248 212 232 275 320 278 172 133 127 119 120 128 107 119 136 131 146 132 125 124 122 115 122 116 110 110 99 100 97 94 108 108 97 97 94 97 94 82 77 70 63 58 58 52 64 75 73 74 79 85 82 84 116 264 331 335 324 323 325 319 314 309 316 316 308 314 316 313 300 272 264 
691 569 418 323 315 379 454 447 396 415 282 164 195 217 215 154 126 120 113 103 98 98 116 136 136 150 134 124 126 121 124 120 117 112 111 104 97 102 105 110 113 103 101 96 97 91 84 83 78 74 69 60 60 59 64 74 81 77 79 82 92 120 261 333 338 342 341 336 321 317 315 315 314 310 290 282 271 262 243 249 
675 588 470 379 385 482 460 371 325 418 353 186 168 172 164 130 122 133 122 90 63 74 105 126 134 130 128 127 128 124 120 121 117 113 109 102 98 93 97 105 106 110 115 100 96 97 98 91 94 86 76 62 60 55 58 70 74 77 88 90 94 111 242 322 340 347 336 332 319 313 305 295 283 267 259 257 259 253 242 252 
575 554 589 549 515 485 386 282 262 250 212 194 257 203 151 124 126 150 127 105 72 73 90 108 114 120 125 125 129 125 125 128 125 119 114 109 107 106 97 105 111 112 113 106 104 102 99 102 101 87 82 80 77 72 71 74 72 85 88 93 97 115 234 317 340 329 329 321 313 307 286 274 267 264 256 257 259 258 249 258 
488 527 597 646 613 573 414 272 249 211 200 329 450 247 162 132 132 142 128 116 100 83 91 93 90 102 122 121 130 127 130 131 125 119 121 115 115 114 109 114 124 118 118 121 123 120 117 113 111 105 109 98 96 86 87 81 80 88 92 95 101 116 244 315 327 328 325 333 316 296 280 273 267 264 265 271 279 275 261 268 
362 472 564 681 705 697 464 268 243 212 226 336 345 276 241 146 133 126 123 125 117 94 82 88 84 92 107 116 123 124 122 126 125 121 121 119 119 120 129 156 199 200 174 215 215 237 258 217 173 173 181 163 136 124 116 102 99 107 96 100 105 122 253 320 326 331 339 343 314 293 286 285 287 289 290 292 294 291 275 276 
242 328 460 727 700 638 387 239 215 209 229 253 267 348 387 169 134 124 124 122 122 98 84 83 76 86 103 121 121 122 121 126 127 124 133 130 131 148 211 296 365 358 346 388 383 389 398 383 361 368 377 363 324 273 225 213 204 161 128 116 116 133 259 314 325 328 331 337 325 318 313 314 312 306 304 307 303 300 277 280 
234 282 381 667 664 594 337 213 212 224 240 248 301 420 436 236 140 129 125 124 128 102 80 77 82 86 100 111 124 123 122 124 129 129 150 165 183 303 345 387 413 401 415 416 413 411 416 412 408 393 408 406 407 410 397 390 384 334 179 132 128 152 290 336 335 335 345 356 355 336 321 314 315 313 305 303 299 296 273 276 
214 288 428 572 578 426 246 214 234 240 251 277 347 408 489 314 143 129 124 124 128 105 83 85 87 84 92 103 119 125 122 133 135 179 249 310 357 409 415 420 410 405 424 427 413 418 414 421 413 392 402 405 421 431 426 417 405 400 257 151 146 184 325 358 376 398 418 420 403 358 320 311 300 294 285 287 284 278 264 272 
348 552 591 462 403 264 281 283 266 263 297 363 439 550 544 305 143 131 128 123 124 114 86 88 86 86 96 101 119 126 128 150 185 283 371 413 414 423 426 420 407 414 421 430 416 418 423 422 419 397 409 415 427 436 435 430 417 414 340 267 290 329 382 400 399 416 422 428 427 406 334 295 290 283 279 278 278 276 265 275 
348 468 467 357 246 227 335 439 398 369 443 596 636 554 336 196 140 130 126 123 121 116 97 96 89 92 96 94 108 119 146 199 276 369 420 431 421 423 424 427 415 417 430 433 427 429 433 428 431 402 419 420 433 432 435 429 424 425 417 414 412 414 416 414 407 410 404 419 421 418 388 305 282 281 274 275 277 275 270 281 
457 389 370 305 236 233 284 436 502 440 561 587 435 297 219 155 129 126 125 124 125 113 102 99 97 91 90 92 110 122 180 259 355 409 428 433 420 399 428 439 446 425 433 436 438 443 438 433 432 417 427 425 435 435 436 431 428 427 432 426 427 423 427 424 414 415 405 414 414 418 403 320 288 281 276 281 289 286 278 286 
666 445 447 370 283 238 231 357 501 489 571 360 260 201 152 128 123 121 120 118 118 114 104 102 91 87 90 89 108 139 217 308 393 415 429 426 406 379 422 435 444 427 432 440 431 441 432 432 426 420 428 421 431 432 433 437 430 428 425 422 420 418 426 422 418 410 410 416 414 415 411 337 288 285 284 291 297 294 285 284 
579 471 558 763 592 320 232 260 348 525 536 312 212 148 142 126 122 118 121 120 122 115 101 102 96 88 84 83 107 162 237 337 411 416 432 426 402 379 425 438 430 434 433 435 435 443 435 435 433 426 428 434 433 439 440 439 437 428 430 423 421 416 422 422 421 422 421 426 424 424 420 346 296 291 290 300 307 305 291 281 
550 481 661 887 854 438 208 196 234 288 334 233 146 145 144 121 118 119 115 119 119 111 104 104 90 81 73 83 112 174 245 344 413 417 429 427 392 383 417 429 412 424 431 431 431 434 433 432 432 431 430 433 432 439 439 438 438 433 435 429 431 428 427 424 420 422 421 424 425 422 419 355 300 295 299 309 310 305 273 267 
523 339 355 440 567 252 170 163 237 253 209 153 145 164 133 122 119 114 116 113 118 108 107 104 76 71 81 88 107 162 244 346 412 423 432 429 420 389 411 428 414 422 431 426 432 434 432 433 432 432 430 429 428 438 436 439 438 436 441 435 436 432 433 427 420 422 422 421 419 421 412 346 305 302 308 313 305 290 263 270 
459 291 245 266 292 242 205 188 256 219 153 148 172 148 125 120 121 118 115 114 117 117 128 113 87 73 73 74 94 139 244 353 420 424 436 433 427 399 410 427 412 421 426 425 426 431 427 429 430 435 434 429 436 438 442 438 436 442 441 438 440 435 438 434 427 419 415 420 409 410 409 341 313 307 306 292 286 278 263 273 
317 261 227 238 254 255 243 235 246 196 154 161 166 135 123 119 121 121 118 116 117 123 133 113 73 64 63 62 84 116 217 352 417 427 431 431 432 410 415 425 420 424 425 421 427 427 419 424 427 428 435 432 434 440 436 441 437 443 442 440 440 435 433 431 424 414 413 419 411 415 393 337 318 315 296 286 284 280 266 271 
265 239 213 228 246 250 239 227 226 220 211 183 145 129 122 119 119 115 118 118 120 112 91 74 58 42 34 36 67 93 201 304 379 426 433 434 436 420 404 417 426 428 424 420 423 427 421 423 423 426 431 429 430 429 434 437 439 439 442 431 429 424 426 426 418 412 412 418 417 417 370 332 317 308 291 285 284 282 269 276 
253 231 202 234 247 241 210 221 265 251 221 170 138 127 121 120 118 117 118 118 121 103 72 69 39 27 40 45 54 73 189 275 321 397 443 433 436 433 417 412 423 420 420 422 421 430 421 424 432 433 430 424 421 427 428 436 440 444 439 426 426 426 426 424 417 421 418 423 419 413 349 337 315 303 295 289 285 283 270 277 
241 224 203 241 246 226 194 255 312 272 214 150 134 129 125 122 122 120 117 120 120 108 98 77 55 43 71 73 60 58 158 256 268 330 419 437 438 436 425 418 419 419 420 410 416 419 424 426 431 430 433 425 422 423 431 434 443 446 436 431 432 425 427 426 428 424 418 427 427 383 343 338 331 317 302 296 294 289 280 293 
235 215 205 248 248 253 313 396 302 215 174 135 134 128 120 118 118 117 118 118 113 110 103 83 58 37 52 62 55 59 119 233 254 293 370 415 417 424 430 422 423 419 417 406 408 413 415 425 429 428 432 417 415 418 423 433 446 445 438 430 433 423 430 431 427 429 425 427 390 341 339 339 339 321 300 302 295 293 295 309 
239 229 243 258 269 458 480 324 215 190 155 131 128 125 120 116 116 117 116 117 124 116 127 101 69 33 31 80 62 52 72 190 249 274 308 351 371 365 366 391 402 403 409 411 404 410 416 423 423 429 427 419 414 416 425 433 429 429 424 415 422 422 431 434 432 434 412 385 341 330 334 340 335 313 303 302 302 301 298 298 
268 365 334 279 285 555 451 227 202 171 142 128 128 124 118 115 118 117 115 117 120 120 141 121 82 54 33 43 55 52 53 115 219 255 275 288 296 299 297 316 333 346 349 397 403 407 408 416 425 425 427 421 423 421 416 408 399 388 377 369 372 404 421 429 419 397 379 355 329 323 325 338 329 320 308 303 306 305 284 274 
325 506 463 282 269 327 247 208 199 153 136 128 125 124 117 116 117 116 112 113 119 118 141 125 77 43 16 0 43 57 58 88 180 231 247 247 248 262 288 308 326 337 345 396 427 421 414 424 427 414 428 421 395 363 314 279 239 205 177 182 211 302 362 380 377 367 345 321 318 320 319 329 314 300 293 294 291 285 268 269 
407 577 441 273 238 214 232 223 183 141 132 122 120 120 113 111 113 115 114 115 116 113 138 123 74 28 12 16 64 55 64 83 104 198 234 238 236 261 281 303 326 346 377 411 422 434 427 425 416 404 392 342 276 205 171 155 133 109 97 111 140 169 253 323 332 318 310 315 307 311 315 325 307 297 291 289 288 283 270 268 
624 830 439 280 315 299 314 281 167 134 127 121 124 119 116 112 115 115 113 116 119 117 138 125 87 70 42 39 65 60 78 95 75 129 210 229 234 259 276 300 320 334 362 406 427 439 439 424 402 359 292 218 159 136 128 131 113 92 80 90 124 133 160 259 322 319 306 311 307 325 327 326 320 307 297 294 295 286 261 249 
707 881 414 279 425 378 395 234 147 126 126 118 118 116 116 113 112 114 116 118 115 115 134 121 83 51 39 45 43 46 60 87 69 69 131 190 212 230 255 263 278 297 358 402 428 421 408 377 318 247 212 158 146 130 145 188 135 100 78 87 116 125 134 185 299 325 314 313 305 321 324 329 320 313 304 298 284 264 235 227 
359 508 312 262 366 367 300 164 130 127 123 119 119 115 110 109 113 114 113 116 115 122 134 118 72 56 58 55 56 54 47 55 42 44 71 101 154 195 208 222 236 249 290 344 363 331 284 219 176 153 182 167 180 192 385 552 275 116 79 81 108 113 120 144 241 306 309 311 304 309 321 322 316 305 287 275 265 245 232 252 
200 232 250 253 323 335 202 127 124 120 120 115 119 113 110 105 106 115 114 116 117 120 134 115 87 55 49 46 51 50 46 49 39 30 46 51 66 102 130 151 164 174 185 193 189 158 119 99 112 124 152 150 166 208 491 619 324 124 82 77 103 109 118 127 173 273 298 308 301 306 309 313 303 288 269 261 254 253 273 309 
174 208 233 236 222 167 120 101 109 107 111 112 114 108 109 105 110 113 113 116 115 120 131 108 66 49 51 50 53 47 43 46 33 17 40 59 61 68 76 85 92 98 101 97 87 77 80 88 107 108 138 158 138 141 313 407 227 111 87 74 94 108 118 122 140 216 289 307 299 304 301 310 287 265 254 255 276 301 308 313 
170 214 229 214 148 122 103 93 98 91 99 100 107 109 106 108 109 111 111 113 112 120 123 102 56 33 26 47 54 55 48 45 36 25 23 59 65 72 68 75 78 63 72 71 85 97 96 101 102 102 131 141 125 129 151 175 169 133 93 74 89 103 115 119 121 169 261 299 302 304 302 296 268 261 260 288 303 304 292 296 
171 214 230 205 140 119 98 92 96 88 85 77 87 92 97 104 108 110 110 110 110 117 124 98 36 16 26 52 61 55 51 52 49 44 34 60 79 86 82 70 66 69 88 100 105 101 104 106 107 101 114 130 108 110 108 121 161 135 85 80 87 104 114 121 119 136 218 283 297 299 295 280 270 276 286 289 305 301 291 288 
202 233 228 194 124 100 81 85 91 83 82 75 74 76 83 89 96 99 100 102 108 108 119 110 71 40 38 53 60 56 57 57 50 53 45 44 88 109 97 90 98 109 114 116 106 106 116 127 127 103 102 117 104 98 100 104 110 102 87 78 89 101 117 120 121 130 173 266 290 287 280 275 290 289 278 297 301 299 280 280 
345 247 231 179 112 85 75 75 81 82 78 82 80 75 68 69 68 73 84 89 93 96 114 112 64 39 36 42 47 47 53 56 54 59 52 72 99 121 124 124 123 118 120 124 125 124 122 127 130 108 103 112 102 94 88 84 85 81 80 76 92 105 114 116 115 118 147 240 271 281 279 284 287 269 277 285 294 283 273 246 
311 257 231 181 119 95 76 78 80 77 76 74 77 77 77 75 77 78 74 75 80 88 109 112 62 54 55 60 70 56 60 56 52 61 76 99 105 121 123 127 124 118 120 128 124 123 114 118 127 112 103 107 94 86 82 81 78 76 79 76 92 100 110 115 111 116 127 201 249 268 285 284 275 283 284 281 281 273 227 226 
333 251 227 204 143 110 90 80 84 73 68 65 69 71 69 74 82 85 82 80 77 77 106 113 96 73 63 81 89 85 82 80 78 79 88 104 105 105 119 125 123 125 126 125 121 121 113 114 127 107 98 104 93 86 83 81 85 85 86 90 96 104 112 114 113 114 115 161 230 277 295 278 279 282 281 282 268 237 214 242 
260 236 231 214 164 118 106 90 88 79 68 76 73 71 71 69 78 83 82 78 78 86 112 116 115 87 72 93 105 98 94 104 146 130 112 107 106 111 111 120 131 128 127 133 129 121 118 120 116 103 97 103 93 88 94 98 98 98 100 98 98 103 114 118 114 116 115 139 202 261 276 271 289 285 283 274 241 233 235 275 
221 231 227 204 164 123 105 93 94 89 84 82 82 79 74 72 75 77 80 78 65 67 106 125 112 93 72 84 120 109 109 177 226 127 111 109 105 100 106 113 128 124 130 139 126 127 122 116 108 100 95 100 100 102 107 101 104 100 105 100 107 108 118 114 116 113 114 125 156 223 253 268 284 285 272 245 243 252 267 284 
213 234 232 206 167 140 119 106 101 99 95 94 96 90 84 82 85 84 90 84 75 62 102 120 116 86 73 82 131 121 114 147 132 116 115 109 106 104 105 109 126 125 132 136 131 127 121 118 116 111 110 113 119 118 116 113 112 109 111 104 109 108 120 120 119 115 117 127 133 170 222 263 277 274 247 250 260 289 287 284 
211 223 225 205 163 152 139 125 115 104 106 102 109 105 97 93 95 97 96 94 84 72 105 119 114 103 88 76 126 129 112 123 111 116 125 118 106 105 106 102 118 123 128 130 127 127 128 126 123 122 126 121 123 119 120 119 116 113 111 109 109 109 121 119 117 119 116 126 122 132 181 235 256 256 255 263 292 295 282 268 
201 209 211 207 184 169 153 141 142 134 127 119 120 116 108 105 105 101 103 103 98 91 111 121 118 116 101 78 132 133 107 99 105 121 128 124 112 110 106 102 110 119 130 131 130 128 126 132 130 132 129 127 125 124 126 123 128 120 116 116 114 116 121 122 121 120 116 129 120 121 129 169 206 236 253 269 281 288 274 265 
194 201 202 197 193 191 188 173 164 139 138 135 134 131 124 113 112 105 104 111 113 115 115 121 115 121 124 116 186 143 116 112 117 123 129 125 118 110 107 100 104 105 116 133 132 130 129 131 131 131 127 131 131 131 143 181 243 196 136 119 116 118 119 121 121 121 117 122 117 119 117 129 138 169 195 230 245 249 237 247 
229 223 213 198 188 183 188 181 169 140 138 139 143 142 138 129 131 128 123 127 132 129 126 126 120 125 127 131 196 148 119 117 121 129 130 126 119 116 111 113 110 109 127 140 138 133 135 134 137 137 133 138 152 173 246 466 496 326 165 122 122 117 121 126 119 121 121 124 123 119 117 127 128 125 127 141 158 162 154 163 
256 249 240 234 220 209 199 180 162 140 134 137 140 138 138 135 136 134 136 136 140 134 121 124 120 130 127 119 170 142 123 114 121 131 131 129 122 117 120 122 121 118 125 142 137 135 134 131 137 136 132 135 143 168 300 579 537 334 163 126 123 117 129 126 124 122 122 125 122 127 122 126 126 128 107 124 142 146 135 120 


