P2
80 60
223
26 16 26 51 48 42 38 38 37 41 42 42 43 43 46 43 40 42 46 43 40 40 38 40 38 40 40 42 43 52 45 51 53 55 58 55 53 50 49 49 47 45 48 43 45 43 42 43 40 42 44 42 45 43 40 43 42 44 40 43 46 40 40 41 38 40 40 42 41 40 42 40 42 42 40 44 43 40 44 45 
28 21 24 49 53 49 39 40 37 38 45 42 44 41 43 41 44 40 41 40 41 38 41 39 36 39 42 41 42 50 47 51 55 54 55 54 54 47 46 45 47 45 47 43 44 41 45 39 44 41 43 43 43 44 44 44 40 41 44 42 46 43 38 42 39 42 37 44 45 43 43 42 40 40 42 41 42 42 41 41 
29 16 23 62 94 51 40 38 39 40 42 41 43 42 47 47 41 41 44 40 39 38 38 38 40 40 42 40 46 47 47 47 53 52 54 53 53 50 47 44 43 44 46 43 40 42 43 43 45 43 42 43 41 41 42 41 40 41 41 40 43 38 38 41 41 40 37 38 39 39 40 41 41 45 39 40 44 40 39 43 
28 19 30 108 167 79 43 40 38 39 42 41 44 42 41 40 42 41 41 40 43 39 38 37 37 36 40 40 45 47 42 46 51 51 53 53 50 48 49 46 43 46 43 42 39 45 43 39 40 36 39 41 41 41 40 42 42 42 44 42 43 43 37 41 40 38 38 39 39 41 41 41 41 42 40 41 43 44 41 41 
26 21 32 125 207 147 52 43 36 39 39 40 44 39 42 42 43 42 41 42 38 41 39 35 37 41 39 42 43 48 43 46 50 50 50 51 49 49 46 44 42 45 42 45 40 42 42 39 42 41 45 40 41 40 40 42 43 40 40 42 46 41 40 42 40 43 37 39 38 41 38 42 42 43 42 43 43 43 40 38 
30 21 27 104 196 217 85 42 41 40 42 40 43 40 41 40 38 38 39 39 40 39 38 36 37 36 40 38 41 44 44 44 49 50 48 50 45 47 46 43 42 46 42 43 42 41 41 37 42 42 42 40 39 39 38 42 40 42 41 41 41 41 40 44 41 42 41 39 38 43 40 38 38 37 41 43 40 39 38 36 
32 21 17 63 153 223 149 47 42 38 41 39 41 39 39 38 41 38 38 40 41 39 37 34 40 35 41 41 40 43 43 41 48 47 47 51 45 44 43 43 42 45 44 42 43 42 41 38 39 41 38 40 39 43 42 40 37 40 41 40 40 38 38 40 42 41 39 39 37 38 40 41 37 41 39 44 42 40 37 40 
32 22 19 47 93 182 210 81 45 43 42 42 41 38 42 40 40 38 38 40 39 39 36 35 38 40 38 42 44 45 41 43 46 47 47 47 46 47 47 41 42 42 43 41 41 44 39 43 39 40 41 39 39 42 40 44 41 38 40 42 43 42 37 40 37 38 39 39 40 38 42 44 41 41 42 42 42 40 42 40 
29 21 15 38 58 137 210 146 53 41 41 40 44 41 40 40 41 39 40 38 38 39 39 36 35 38 40 41 42 44 41 44 46 47 49 45 46 45 42 42 40 41 43 39 43 43 41 42 39 42 40 42 40 38 44 41 41 41 41 41 41 42 39 42 37 40 38 40 38 36 38 41 42 43 41 44 47 41 39 42 
33 24 18 32 41 87 164 192 75 45 39 42 40 42 42 39 40 38 37 41 39 39 37 35 39 38 39 40 39 46 36 41 45 45 46 46 46 43 43 42 41 41 41 41 38 41 38 39 40 39 39 39 39 39 39 43 42 42 42 42 41 41 37 40 39 40 38 38 37 40 38 41 42 42 42 39 45 39 38 38 
36 21 19 31 29 54 112 178 141 52 40 39 41 40 40 40 40 38 38 37 38 38 37 34 35 37 41 38 40 43 34 41 45 42 45 47 44 41 39 41 41 41 40 39 39 42 41 39 41 40 39 38 39 40 40 39 39 38 38 42 42 40 39 40 38 38 39 38 38 40 40 40 44 42 43 44 46 44 38 39 
31 23 17 31 29 38 69 141 183 74 45 44 39 39 41 36 41 41 39 39 37 36 37 33 38 36 38 39 40 43 39 41 43 42 47 45 45 42 40 42 44 39 39 39 42 39 41 38 41 40 41 39 38 38 38 41 43 40 34 38 40 42 40 38 39 41 39 41 40 40 41 41 41 41 44 41 42 42 39 37 
33 24 15 28 29 36 39 74 145 124 47 43 42 40 40 39 40 36 37 41 38 39 38 34 36 36 38 38 39 39 35 40 45 43 41 41 44 42 41 38 38 38 38 41 39 38 39 38 40 40 40 37 41 41 41 41 40 38 37 42 39 40 37 39 39 40 37 38 41 39 40 37 41 42 44 40 44 41 41 40 
33 27 19 26 29 35 29 32 68 106 56 43 43 40 41 38 41 40 39 37 39 37 36 36 37 33 36 40 39 41 34 38 42 44 46 45 44 43 37 41 41 37 38 37 38 41 38 40 39 43 38 39 38 41 37 41 45 40 41 40 39 39 38 37 41 37 41 39 38 39 40 40 39 40 41 44 43 37 39 45 
37 29 17 30 30 30 33 23 33 37 45 44 44 40 38 37 38 38 37 38 40 39 38 34 35 34 36 39 42 41 36 42 42 42 43 43 42 41 40 37 39 38 41 40 34 40 36 41 39 42 40 40 39 40 40 41 39 37 41 39 41 42 37 39 41 39 41 39 38 38 38 40 41 40 41 44 45 43 38 38 
38 30 21 25 27 29 30 25 28 24 21 40 41 39 42 39 37 36 35 39 35 37 35 30 34 36 37 36 35 38 43 37 37 42 42 41 38 39 41 38 38 34 38 38 38 41 40 36 38 38 39 35 37 40 41 41 40 37 38 38 38 38 39 36 39 39 37 38 38 37 35 40 39 38 38 40 42 40 38 41 
39 30 24 28 25 33 34 30 31 26 20 35 41 38 40 39 40 39 38 39 35 36 37 33 33 34 35 39 39 40 38 35 38 37 44 42 42 40 39 38 39 41 37 42 40 40 39 38 42 38 40 40 40 40 41 41 39 37 39 36 40 38 42 38 40 38 38 41 41 39 41 40 39 42 40 44 44 42 38 44 
37 35 25 26 32 35 33 31 29 26 15 29 41 36 39 37 42 39 37 36 36 38 39 36 32 37 37 38 39 39 32 37 37 38 40 39 42 38 38 38 41 37 38 38 40 42 41 39 41 41 38 40 39 41 42 40 36 38 39 40 40 39 36 35 36 40 39 41 42 40 41 41 41 38 41 40 42 42 37 34 
39 36 29 27 33 35 37 35 35 29 18 30 41 39 39 38 36 37 38 39 36 35 37 34 35 34 37 35 38 40 42 38 38 40 41 41 40 38 38 36 38 37 41 36 37 38 40 40 38 39 42 41 37 38 40 40 38 38 40 41 42 40 38 38 41 40 40 42 39 41 39 38 44 40 40 42 47 43 35 39 
42 42 37 29 31 38 38 36 36 32 21 27 40 42 39 40 37 38 35 36 36 36 36 36 35 33 36 36 41 41 56 48 37 38 40 38 39 39 39 35 33 40 38 40 39 39 38 34 38 38 39 37 36 42 41 40 37 39 42 40 41 39 37 39 37 37 39 38 38 38 37 40 40 41 42 45 45 40 39 39 
45 42 38 33 30 41 41 38 38 35 24 27 41 42 42 37 38 40 38 37 36 38 37 34 31 33 36 37 40 40 53 50 40 38 38 37 40 38 36 36 34 37 37 41 38 39 39 38 40 40 41 40 36 38 43 43 40 39 41 38 42 39 40 39 40 41 38 41 39 40 41 40 39 41 41 41 43 39 41 41 
48 39 39 33 28 38 38 36 35 36 26 29 40 38 45 39 36 40 36 35 36 35 36 33 32 35 33 37 40 41 53 50 40 39 40 38 38 34 39 36 36 34 37 39 38 39 40 39 39 42 41 38 38 39 43 38 38 39 42 39 40 44 41 38 40 42 38 40 40 43 40 40 40 42 41 41 43 43 42 42 
44 42 35 34 29 37 33 33 32 33 26 26 40 39 44 38 37 35 34 33 35 35 34 32 33 35 34 35 39 36 48 48 41 35 37 34 35 37 33 34 36 35 36 36 33 37 39 35 42 38 39 38 38 39 40 38 37 39 39 39 39 37 37 42 39 44 41 41 40 39 39 40 40 43 39 42 43 42 40 37 
45 40 43 35 30 37 34 34 32 34 30 24 36 38 39 41 38 37 36 34 35 34 32 30 31 33 32 36 35 37 49 50 43 36 39 33 36 33 34 36 36 34 34 35 35 35 39 36 39 40 37 37 38 38 40 40 38 38 42 41 36 40 41 40 38 40 39 40 40 36 40 43 41 40 40 40 41 43 37 39 
45 43 40 38 26 34 36 36 38 39 35 19 34 41 37 40 40 38 34 36 33 33 35 32 32 34 34 33 39 35 49 47 45 38 38 34 36 34 35 36 36 36 36 39 37 38 39 40 41 41 39 39 42 40 41 38 39 42 43 41 41 39 42 41 41 40 38 41 41 41 38 40 40 42 41 42 42 42 39 37 
46 43 40 39 26 38 39 42 39 40 35 22 32 39 37 36 37 36 37 36 34 34 35 31 33 33 33 34 36 37 50 50 49 37 38 38 38 36 35 33 37 35 36 35 38 38 37 37 39 41 42 38 38 40 40 37 39 40 40 40 43 37 39 42 40 39 39 42 39 39 41 40 39 40 42 40 42 41 37 41 
47 43 38 44 26 35 41 43 39 38 33 21 31 38 39 35 33 35 36 34 33 33 36 35 33 31 35 34 37 37 51 51 53 42 42 37 36 37 36 34 35 36 36 38 37 37 37 39 41 41 37 38 38 42 42 40 39 39 42 39 45 39 39 40 41 41 38 38 40 37 38 41 39 40 44 45 44 39 38 39 
47 42 39 45 26 34 35 35 32 33 30 22 22 33 33 30 30 32 34 34 34 33 36 34 31 31 32 32 38 37 47 47 54 50 38 34 36 36 32 34 35 36 35 35 36 37 36 37 38 40 42 38 41 38 42 40 39 39 39 38 44 41 40 41 38 38 38 37 40 40 39 41 40 40 44 42 42 43 41 42 
44 44 37 42 25 28 29 30 30 27 27 18 22 30 30 27 27 28 33 34 33 33 34 31 29 31 31 31 35 34 45 47 50 51 38 32 33 34 33 33 36 35 35 37 37 38 36 38 40 38 40 36 38 39 39 40 40 42 42 41 38 39 37 39 39 39 39 40 42 37 40 41 40 42 41 44 43 45 41 39 
41 42 38 40 24 27 29 28 31 29 27 21 19 29 32 28 26 25 27 32 33 34 36 29 31 30 33 32 36 37 47 47 45 42 37 36 33 34 30 35 38 36 36 36 36 39 37 38 39 38 36 38 40 38 41 39 42 40 41 39 37 39 37 40 39 41 40 40 41 39 40 39 40 38 39 40 44 43 40 42 
44 38 36 41 25 21 29 32 28 26 28 24 19 26 30 28 23 18 18 28 33 32 32 33 31 29 32 33 37 36 43 46 40 40 38 34 33 32 30 34 36 37 34 36 36 38 42 38 37 38 40 38 41 38 38 40 38 40 42 41 38 42 42 41 38 42 39 39 42 41 41 40 45 44 43 47 47 44 43 50 
40 35 31 35 25 20 27 27 29 26 25 23 17 23 28 27 21 22 15 20 31 34 33 33 32 32 31 32 35 34 40 42 38 33 36 31 31 32 29 37 31 34 35 36 36 38 37 36 37 36 36 39 37 42 42 43 42 40 39 40 40 41 40 39 40 41 41 38 41 42 45 41 48 45 44 46 46 44 43 43 
40 35 31 34 25 17 26 23 26 24 26 19 17 23 26 32 30 20 12 11 27 32 33 33 30 31 32 30 33 32 35 35 36 33 34 34 33 30 29 34 33 32 36 37 36 33 39 39 35 36 38 38 39 41 42 43 39 42 42 39 39 40 42 40 42 43 43 39 41 39 43 42 40 44 41 44 44 42 41 44 
39 31 31 33 25 20 22 27 25 24 26 20 18 20 24 25 31 29 13 15 21 32 34 30 32 31 30 26 32 34 33 32 32 30 35 31 34 32 31 32 33 33 35 36 33 34 37 37 36 38 40 38 41 42 45 43 44 41 45 41 41 41 43 42 45 47 42 44 40 39 40 42 41 46 43 43 45 44 43 42 
35 31 28 35 24 18 18 20 21 25 25 22 15 17 24 24 25 33 23 9 14 28 33 28 31 30 29 29 31 33 33 31 32 25 20 24 32 30 30 29 33 33 34 35 36 39 37 39 38 38 39 38 37 41 45 42 44 48 48 50 49 49 50 49 46 50 49 43 47 45 44 42 42 44 41 46 44 44 42 43 
32 32 29 34 26 19 20 23 24 24 25 21 18 15 24 23 23 24 28 16 12 23 30 28 31 30 28 27 33 33 41 43 39 15 14 18 29 29 29 31 36 35 36 38 37 41 39 39 39 41 37 37 39 40 46 49 47 52 51 52 57 57 52 53 46 51 46 51 48 45 46 46 41 45 42 46 45 46 46 45 
34 29 29 39 26 18 19 21 22 24 26 23 16 17 24 22 17 21 24 28 14 15 25 31 28 32 31 29 27 29 50 57 45 14 14 19 26 31 30 30 34 37 33 36 35 35 39 39 40 36 39 36 39 40 45 44 45 49 48 53 55 56 57 56 51 46 48 51 53 48 43 45 43 46 44 45 50 48 43 42 
36 29 27 36 26 18 18 24 22 22 25 20 16 12 20 21 20 18 18 25 27 18 22 25 26 31 28 29 29 29 47 56 50 18 14 17 25 32 30 32 33 36 34 37 37 37 38 37 38 36 35 40 41 42 43 44 47 50 49 52 52 53 53 56 53 50 50 50 50 48 45 51 47 48 43 49 49 46 44 46 
32 27 31 31 27 22 18 24 35 36 27 21 16 10 20 23 19 18 15 18 29 24 17 20 29 29 29 25 29 27 39 62 46 21 14 18 26 33 31 33 31 33 33 35 36 35 39 36 37 34 38 38 41 41 43 42 41 42 49 49 54 55 51 57 50 49 51 53 52 50 49 53 49 46 44 44 46 47 45 46 
30 27 26 31 25 25 34 56 74 69 37 27 18 10 20 24 20 20 15 14 23 27 22 16 22 26 26 25 29 28 31 48 38 16 10 17 26 32 33 33 33 33 34 35 34 35 35 37 37 33 35 35 37 38 42 41 40 41 46 50 52 50 53 51 52 52 52 53 51 55 53 54 49 49 50 49 51 48 45 49 
29 24 29 35 40 57 83 92 92 94 58 28 19 13 17 22 21 20 18 13 15 33 20 22 20 26 28 25 29 31 29 30 29 17 17 25 26 32 37 36 33 33 33 35 35 35 34 34 38 36 37 34 38 41 40 42 42 44 46 45 50 53 49 54 53 53 54 52 53 52 54 50 54 54 53 52 53 53 49 50 
28 30 42 65 92 113 108 98 104 103 66 31 21 17 17 22 24 19 20 16 9 23 26 19 20 25 28 27 24 28 27 26 19 21 28 28 24 29 31 32 33 36 36 35 35 35 35 37 37 35 35 39 39 40 40 41 42 43 43 42 46 53 52 52 51 51 53 54 54 54 54 55 53 52 50 49 53 55 50 48 
43 62 89 124 144 140 114 103 116 104 63 27 21 16 12 18 19 17 16 12 10 15 29 24 19 22 26 23 21 20 22 16 19 19 19 23 23 27 32 32 33 35 31 35 33 36 37 31 35 34 39 35 37 39 40 42 40 43 44 41 45 48 49 53 54 53 56 56 53 53 56 55 52 50 47 47 47 48 49 50 
88 115 137 154 155 133 110 108 123 103 53 26 20 17 15 19 24 17 17 14 11 10 25 24 18 19 27 25 23 20 19 12 17 19 17 16 21 25 29 28 32 32 31 34 35 33 34 33 35 36 38 38 39 37 37 39 39 43 42 43 45 42 45 50 50 54 55 56 54 53 54 55 52 54 51 49 48 48 47 53 
132 150 149 148 141 118 112 118 121 96 38 25 23 19 14 18 21 21 16 14 13 7 19 26 24 21 24 24 20 17 11 4 10 17 21 17 16 21 31 32 31 30 28 32 35 37 34 35 35 35 39 39 36 36 41 38 39 40 41 46 46 45 44 45 46 48 52 54 53 50 56 53 53 54 54 52 51 50 50 49 
141 137 136 146 126 116 108 120 114 79 34 24 22 17 13 19 22 19 21 18 15 11 22 18 27 25 16 20 14 8 6 3 12 15 18 19 17 24 32 29 29 31 31 34 34 34 35 33 38 38 39 39 36 39 42 40 41 42 40 41 43 42 47 46 43 47 51 51 51 52 52 53 56 55 52 52 52 54 51 48 
130 133 139 145 119 108 111 117 107 64 30 25 25 21 15 18 21 23 20 17 13 14 14 15 23 28 17 15 19 4 4 1 11 12 14 18 18 21 29 30 32 30 30 32 35 33 35 33 35 38 37 39 38 37 38 38 43 43 47 42 43 42 46 45 47 47 50 50 51 51 55 49 51 55 55 59 55 55 53 56 
136 140 145 134 112 102 113 116 95 45 30 25 23 19 15 16 21 21 18 20 20 14 9 17 23 26 19 16 20 9 5 0 9 13 17 22 17 24 29 33 30 32 33 33 36 35 36 35 39 37 37 37 38 40 40 40 43 41 43 42 50 41 44 43 45 49 46 49 47 51 52 50 53 53 52 54 58 55 54 57 
141 148 146 125 105 103 111 116 82 36 24 25 27 21 16 14 22 23 21 21 19 15 10 13 24 26 17 15 16 15 5 1 12 12 17 22 21 24 28 32 30 28 31 32 33 30 35 34 34 36 39 37 36 37 38 37 39 40 44 44 48 43 41 46 43 49 49 48 49 47 51 51 52 52 50 56 56 55 53 53 
149 152 138 116 101 106 117 104 63 26 26 27 26 22 17 16 19 23 20 21 19 16 13 18 26 25 16 11 13 15 10 3 8 8 14 19 24 25 26 28 31 30 28 31 35 33 36 33 36 33 37 35 38 37 37 39 39 40 38 41 42 44 45 48 45 46 45 51 50 50 51 52 49 51 49 49 57 51 56 49 
153 153 128 117 103 113 115 95 42 25 26 25 25 22 22 16 20 22 20 21 20 16 12 18 26 25 15 16 12 11 11 3 10 15 18 27 25 30 29 31 32 29 29 32 33 36 34 33 34 37 39 36 37 36 38 42 39 40 41 42 42 42 44 48 46 45 48 49 51 52 52 51 51 49 52 47 51 57 52 49 
155 144 115 107 101 116 116 81 34 25 26 31 26 25 24 17 16 22 21 21 18 16 11 19 27 25 15 16 13 6 10 10 12 18 21 22 26 29 28 33 33 27 28 30 32 34 36 32 34 37 34 33 37 40 37 35 39 38 39 43 43 40 36 45 46 44 45 47 49 47 51 51 50 49 49 54 55 52 54 50 
159 133 110 106 108 121 112 66 29 26 27 31 27 23 23 18 20 24 24 27 24 17 16 23 28 22 18 18 17 9 8 8 14 22 28 25 30 32 31 33 35 35 33 32 35 31 35 35 40 39 39 38 39 42 44 42 42 41 45 42 44 44 42 42 45 46 48 52 51 53 52 54 53 53 52 54 60 54 59 56 
156 120 101 99 106 117 104 50 28 21 27 33 30 28 24 20 16 23 26 27 20 21 19 30 28 18 19 19 16 8 5 8 12 20 28 30 32 34 33 35 36 35 32 33 32 39 36 34 40 39 38 36 39 38 44 44 42 46 44 46 44 44 43 44 43 45 44 47 51 53 50 54 51 53 54 58 57 58 56 58 
140 109 94 107 110 113 88 41 28 25 29 31 29 26 28 21 19 24 24 27 25 21 23 30 30 22 21 20 18 11 2 3 7 15 32 33 32 34 34 36 37 36 36 39 35 40 39 36 38 39 39 40 36 42 41 45 45 47 42 43 49 47 46 45 44 48 48 50 50 53 50 52 54 56 54 57 57 57 57 56 
127 103 93 111 111 107 69 32 27 25 25 32 32 32 28 28 19 26 27 24 26 24 28 27 30 24 21 23 19 12 6 3 8 12 29 33 34 33 38 36 37 42 36 41 36 36 35 38 38 39 44 42 43 40 45 45 46 44 44 46 53 49 46 50 48 46 46 51 47 52 52 50 53 55 56 57 60 57 57 60 
119 98 100 115 109 97 55 29 27 24 27 30 31 29 27 26 22 24 27 28 26 25 26 30 29 23 23 22 22 14 7 5 8 14 28 33 35 38 35 34 38 37 36 40 41 39 37 37 39 39 44 42 41 42 43 45 46 47 46 45 49 50 49 50 47 45 48 48 49 50 48 47 50 54 56 50 65 55 60 56 
115 98 100 117 113 86 41 28 28 23 28 34 31 34 29 26 21 23 27 27 28 26 28 30 33 24 23 22 23 16 12 5 8 17 27 34 35 36 33 37 36 39 37 41 38 41 40 41 41 39 40 36 41 43 46 44 43 46 45 46 53 47 44 49 48 45 48 46 49 49 48 52 50 53 55 56 54 56 54 64 
107 102 107 117 105 70 37 30 27 25 23 30 31 28 31 29 23 22 26 30 28 25 30 29 31 27 27 24 23 18 14 7 12 26 30 37 34 37 35 39 36 37 38 38 37 40 40 38 39 40 45 41 42 44 44 45 47 45 47 43 45 46 46 48 46 46 48 47 49 51 47 50 51 51 56 52 56 58 56 57 
112 103 114 116 100 55 31 28 30 29 27 32 33 31 30 32 24 22 26 33 26 30 27 30 32 30 25 24 26 20 13 5 12 26 36 32 36 38 41 34 35 38 38 39 35 41 40 39 40 39 41 43 41 41 45 47 47 45 42 45 50 45 47 46 47 48 46 47 49 48 46 50 46 54 53 54 52 55 56 57 


