P2
80 60
1108
122 120 117 118 125 143 175 212 234 313 688 927 978 998 910 505 317 293 283 279 283 323 633 989 1047 1077 991 570 255 208 190 169 155 120 106 123 130 130 132 130 120 116 111 106 102 99 102 93 92 95 93 91 85 86 86 91 91 91 86 86 85 81 83 81 85 84 84 85 87 87 88 106 150 227 286 308 327 337 349 355 
139 146 150 157 167 187 203 214 233 288 608 911 983 999 931 564 327 288 281 278 282 310 570 983 1048 1073 999 620 266 213 192 173 155 121 108 119 131 132 126 125 118 117 111 109 105 101 99 96 92 90 90 91 84 83 84 87 90 86 86 84 82 82 83 83 81 79 83 82 85 84 81 89 93 123 189 255 283 301 324 319 
159 164 168 173 178 195 208 214 229 271 523 894 975 984 943 637 342 291 286 279 282 305 517 973 1053 1070 1009 672 279 219 193 173 157 125 104 120 128 132 128 126 121 119 111 106 105 101 101 97 94 89 90 88 85 82 86 88 89 87 86 85 83 78 83 79 81 81 82 85 86 82 79 79 83 88 99 136 202 259 273 275 
158 166 172 180 183 197 208 213 228 257 453 857 951 978 963 708 360 296 287 283 284 298 462 941 1052 1075 1012 728 284 221 198 176 158 131 108 120 130 134 130 129 120 122 114 104 109 103 103 96 91 90 91 90 86 83 88 87 90 85 84 86 84 80 83 83 83 83 85 84 84 83 83 80 80 79 87 91 103 140 206 227 
158 168 171 182 184 195 205 215 222 247 393 816 953 984 981 776 386 301 290 284 285 294 423 912 1038 1075 1027 784 300 223 200 179 162 132 107 119 130 136 131 129 124 122 116 108 106 102 104 97 93 93 89 90 87 87 85 89 86 84 84 86 81 81 84 80 80 82 84 82 83 84 80 81 80 79 79 80 89 92 103 141 
158 166 166 179 187 192 202 212 221 239 347 751 952 999 1000 841 421 306 292 286 286 297 393 871 1030 1084 1041 839 323 228 201 180 166 133 108 119 130 133 130 128 124 121 115 110 107 102 103 95 93 93 95 91 88 83 85 91 88 83 84 84 82 81 84 82 82 84 84 84 81 82 80 81 82 77 75 81 75 73 80 79 
153 169 174 179 183 191 202 212 219 238 318 681 948 999 1006 883 468 313 298 287 290 293 368 813 1033 1084 1047 877 354 230 203 183 167 136 108 119 133 134 133 130 123 123 116 108 109 102 105 98 98 94 91 90 85 87 89 89 89 86 82 86 87 83 85 80 82 85 82 83 80 80 81 81 78 79 74 80 76 79 76 75 
155 161 170 177 181 189 204 209 221 234 288 586 922 991 999 923 537 323 297 288 288 292 346 754 1026 1080 1055 921 391 237 206 183 168 142 108 115 133 133 130 136 126 122 116 109 110 103 103 95 93 92 95 89 87 86 86 86 88 83 84 83 84 81 84 83 83 84 86 82 81 80 81 81 79 77 73 81 76 74 75 71 
154 162 168 177 180 188 199 206 217 230 272 500 886 971 992 940 616 330 296 288 286 292 335 679 1026 1078 1065 952 439 243 212 190 169 147 112 116 133 134 136 132 125 127 116 114 109 102 105 96 93 93 95 91 87 90 87 86 89 82 83 87 84 83 84 82 83 84 84 82 82 82 82 80 81 77 74 79 77 74 73 72 
147 162 166 174 178 188 201 210 217 230 264 418 832 964 993 961 696 348 298 291 291 294 331 611 1022 1078 1073 978 492 251 213 190 177 151 109 116 131 137 134 133 129 127 118 116 110 105 108 99 95 95 95 91 88 86 89 87 90 85 88 84 85 81 85 80 83 83 85 82 81 81 81 79 82 80 78 81 80 72 74 75 
151 159 163 175 182 187 193 207 214 226 254 367 778 954 996 975 779 368 303 295 292 296 318 548 1000 1073 1076 1000 554 260 218 193 177 156 112 115 129 133 133 134 131 124 122 115 111 108 108 98 98 92 95 92 87 86 87 85 88 85 85 83 82 81 83 78 83 81 82 82 80 79 82 76 79 80 78 77 76 75 71 78 
150 158 161 176 179 186 195 205 214 226 249 324 713 949 1000 987 851 407 308 299 293 295 314 483 988 1077 1081 1016 621 268 223 196 181 158 112 111 131 137 132 135 128 127 121 114 116 106 109 99 99 96 95 93 85 85 86 87 86 84 86 82 83 83 79 77 81 81 82 81 79 80 78 79 76 77 73 77 72 75 73 74 
146 153 161 176 180 187 190 204 214 220 244 300 622 935 1000 987 901 459 315 299 294 295 311 431 957 1073 1072 1024 682 275 225 199 183 160 118 110 132 135 136 135 129 126 120 118 111 106 108 102 97 94 93 94 86 84 88 86 85 84 85 84 83 79 81 78 80 81 78 84 83 78 78 76 78 79 76 76 77 71 72 70 
145 154 157 169 182 190 190 199 212 218 238 283 529 916 1005 1004 939 531 324 300 296 300 310 395 905 1070 1079 1032 746 294 228 204 185 167 121 114 133 139 140 138 134 129 120 114 112 107 108 100 99 95 94 91 87 84 88 88 86 85 82 83 86 78 82 80 81 78 81 82 82 78 82 80 81 74 78 75 76 71 73 73 
147 151 158 170 182 189 191 197 208 217 236 269 442 871 990 1006 964 617 331 302 300 299 310 373 846 1057 1073 1037 801 305 230 205 189 169 126 111 131 141 136 139 131 129 122 116 117 108 109 100 98 94 93 92 87 85 85 87 86 82 81 81 80 80 79 80 77 78 79 79 79 80 79 77 80 77 75 74 74 75 70 69 
140 150 159 164 181 188 190 196 208 214 235 257 380 819 982 1006 980 705 349 305 302 301 306 353 768 1060 1069 1049 854 331 238 208 193 172 130 114 133 137 140 143 134 130 123 116 116 109 112 100 99 98 91 92 90 89 90 87 89 80 84 80 79 78 80 79 79 78 79 79 78 78 80 75 80 75 73 77 76 70 70 73 
141 147 158 165 176 185 192 192 206 216 234 252 331 740 969 1002 988 794 376 309 307 300 308 345 686 1040 1071 1046 891 356 243 215 196 173 136 112 133 135 141 140 132 132 125 118 116 107 111 101 99 99 91 91 91 85 85 88 86 81 79 79 80 77 79 76 76 79 79 78 80 76 76 77 77 74 72 71 75 70 70 70 
136 146 156 163 175 188 193 192 202 214 231 251 303 643 942 993 996 872 413 317 313 305 308 332 610 1040 1071 1050 924 402 247 218 200 179 137 110 135 138 142 140 132 130 124 117 114 112 113 100 99 93 92 95 87 83 87 85 82 82 82 79 82 77 78 75 77 78 78 77 76 75 78 74 74 72 73 76 74 66 66 64 
134 142 149 162 176 185 190 191 199 213 228 244 281 532 906 990 998 924 480 325 318 311 308 327 533 1012 1072 1065 953 456 250 218 197 183 140 108 131 139 142 136 139 130 126 120 117 108 114 102 98 94 94 91 85 85 85 87 82 79 77 76 79 76 76 73 74 78 77 76 73 76 72 74 72 70 67 68 69 64 66 60 
132 144 148 160 172 181 186 189 198 210 227 242 268 442 873 985 999 958 560 332 318 310 313 322 474 977 1070 1073 974 515 258 222 203 185 145 107 129 136 142 141 137 132 124 120 116 110 109 102 99 98 96 94 85 87 87 87 82 81 77 78 81 73 79 75 75 77 78 78 75 74 71 72 72 67 65 66 64 60 58 54 
125 145 150 159 170 177 188 189 197 206 227 239 259 379 817 973 998 976 648 346 321 315 317 325 426 930 1064 1070 992 585 270 228 204 187 148 110 126 137 140 144 137 133 129 127 116 112 111 103 100 100 96 93 85 86 84 85 80 79 75 75 75 74 77 73 73 73 73 73 70 71 66 63 65 60 59 58 58 53 55 51 
134 146 145 153 165 180 192 191 193 204 223 239 251 331 729 956 995 991 740 364 323 318 318 322 392 869 1055 1073 1011 655 277 228 208 191 154 107 121 132 139 141 137 133 124 123 117 111 109 102 100 98 92 91 86 83 82 80 79 74 71 72 70 72 68 70 67 69 69 61 61 67 59 61 58 56 54 56 50 50 47 44 
136 145 146 153 168 177 187 190 192 202 221 237 242 300 618 935 995 1004 832 395 331 320 322 322 374 807 1059 1084 1035 731 289 231 211 192 157 112 119 133 137 140 137 133 125 122 119 109 108 102 91 94 89 83 76 72 76 71 71 63 64 64 63 65 68 68 59 63 63 58 58 59 56 58 55 51 50 52 45 45 42 42 
129 146 142 154 164 173 182 188 192 200 216 228 235 276 512 896 987 1002 897 441 335 325 325 325 357 725 1052 1079 1044 803 308 235 213 195 162 109 123 134 136 137 130 129 118 115 105 99 101 88 82 80 77 72 65 65 61 62 58 57 56 56 61 59 62 62 56 58 57 56 56 55 55 54 52 47 44 46 43 39 37 38 
128 149 137 151 163 172 184 184 191 195 209 220 231 259 419 850 960 1003 940 514 340 329 325 323 344 631 1031 1071 1051 858 327 239 217 196 165 113 120 131 130 123 123 118 113 104 101 92 92 80 73 72 71 70 62 63 61 62 59 58 59 55 61 58 59 57 57 55 58 55 53 49 50 48 51 47 43 42 41 36 33 31 
128 144 144 150 159 169 184 186 191 188 204 219 225 244 350 781 946 1002 966 609 343 326 324 317 335 545 1012 1075 1049 907 361 239 219 196 168 111 118 123 120 120 113 112 104 99 95 84 88 76 76 73 68 66 63 61 62 60 59 55 56 55 57 58 55 52 52 53 52 53 51 49 50 48 47 41 38 39 36 29 27 29 
125 138 153 148 157 170 175 185 187 186 198 213 219 235 306 683 930 999 983 705 351 324 318 316 324 476 976 1072 1055 946 398 239 219 196 172 116 117 122 122 120 115 110 105 98 96 85 87 78 74 71 67 66 61 58 57 51 57 52 51 48 52 49 49 47 50 53 53 49 46 45 43 35 33 30 26 24 27 24 29 27 
123 131 154 149 156 165 176 181 184 182 192 206 214 225 276 566 911 993 995 795 369 312 310 304 319 415 938 1076 1064 970 452 239 214 191 166 120 115 127 125 124 121 113 102 99 94 84 84 75 68 69 64 63 56 56 55 50 52 49 48 46 51 43 34 34 35 37 36 34 30 29 25 24 25 25 23 28 30 30 35 34 
124 130 150 149 152 168 175 181 179 179 187 199 202 216 252 452 883 986 1002 865 407 307 307 300 301 375 877 1070 1075 988 514 241 206 187 170 123 117 129 127 125 117 110 100 96 89 78 81 71 66 65 63 65 54 54 51 55 58 53 44 40 36 31 31 30 27 27 28 28 25 29 30 37 43 44 45 49 49 49 50 40 
122 127 138 160 154 161 173 176 176 176 180 194 198 208 233 360 825 965 1011 924 474 307 309 297 300 346 798 1068 1080 1004 588 249 207 186 171 137 121 129 129 122 113 101 92 89 83 76 74 66 62 57 52 53 43 45 41 46 58 51 36 29 31 29 29 29 32 31 30 34 41 47 51 57 58 52 50 54 56 51 53 50 
123 124 131 170 150 156 166 173 176 170 178 185 187 198 217 298 734 955 1014 962 571 309 305 298 298 334 711 1066 1080 1019 667 255 202 181 174 148 124 127 113 100 82 78 71 72 67 59 63 48 41 40 39 37 33 35 36 40 53 45 43 44 45 43 41 38 43 45 38 32 35 40 49 59 60 58 60 63 61 57 57 53 
122 121 129 154 153 156 162 168 173 170 174 177 184 191 206 263 611 934 1008 978 668 316 302 295 296 320 614 1052 1081 1036 759 288 223 204 193 190 166 120 69 57 50 51 48 48 48 54 118 85 56 49 43 46 45 54 56 56 67 60 55 56 51 51 41 41 41 43 42 42 35 33 45 58 63 66 65 63 60 52 59 52 
129 125 125 139 155 148 155 165 167 167 166 177 180 187 195 234 488 896 987 990 781 340 301 303 298 319 553 1030 1079 1050 846 388 244 190 147 116 95 73 57 54 48 49 48 48 61 230 491 395 185 82 67 69 64 67 63 65 65 65 54 49 45 45 42 42 43 42 47 44 36 36 39 45 56 64 65 63 59 59 68 59 
128 125 123 133 152 147 152 159 158 162 169 170 173 178 194 222 396 848 978 1005 891 506 372 314 288 294 453 999 1072 1051 863 275 119 94 78 69 70 65 59 55 49 65 77 91 103 324 723 657 294 102 83 79 76 77 79 84 68 62 66 48 49 47 49 50 51 55 53 50 41 36 39 43 49 56 63 69 74 71 70 65 
121 125 123 126 146 149 150 153 160 159 165 169 174 180 199 229 342 771 971 1009 946 505 263 188 163 203 505 927 1016 932 657 438 289 131 91 87 89 84 72 60 50 71 97 109 103 196 405 376 206 120 104 99 92 90 92 93 82 79 86 81 85 82 76 78 83 79 62 50 44 41 44 48 52 60 65 76 72 68 70 70 
111 123 117 124 135 151 145 164 173 155 159 159 157 149 148 193 290 713 931 986 941 748 478 186 163 231 687 912 857 752 525 457 428 267 100 90 96 102 89 69 56 68 96 106 103 186 188 197 178 102 90 101 91 93 97 98 94 95 96 99 99 87 74 70 91 82 58 54 50 45 51 65 71 73 68 73 68 65 69 72 
108 117 116 124 130 149 148 163 161 154 159 160 145 128 118 185 413 701 682 788 847 756 367 169 150 171 315 757 970 903 618 515 480 255 76 67 89 117 116 86 58 66 132 176 123 162 160 344 401 154 92 99 94 99 96 89 83 83 79 88 94 76 72 70 74 75 69 67 67 60 61 65 67 64 55 56 59 62 72 69 
104 113 115 120 128 145 146 147 152 154 157 155 145 127 120 178 246 497 779 851 890 732 238 157 146 137 175 614 1057 1050 887 489 258 192 91 69 87 121 127 106 72 100 395 422 172 120 136 169 295 226 100 76 73 90 75 63 57 60 64 74 90 81 79 73 75 73 70 73 73 71 72 68 68 57 60 65 64 60 68 71 
105 110 117 123 127 141 143 143 146 148 152 156 149 130 126 174 162 286 819 976 995 821 259 147 141 131 157 513 1024 1031 916 569 200 220 151 114 111 142 150 149 138 143 158 145 120 90 89 125 238 150 98 82 73 74 75 68 55 64 68 77 86 93 83 82 77 75 79 80 79 77 77 74 71 70 68 70 72 70 73 66 
107 112 115 122 123 134 138 144 145 145 154 153 146 134 133 186 163 237 754 942 950 846 320 160 151 134 164 451 894 933 768 461 285 238 213 191 175 173 160 145 128 115 109 104 102 91 93 80 91 96 98 92 82 82 80 77 68 62 76 81 83 94 90 82 77 83 80 83 84 84 82 76 77 77 72 79 78 73 69 70 
107 114 111 122 124 129 132 141 142 147 150 152 143 136 141 194 176 283 735 903 914 816 524 263 219 234 281 442 629 699 726 682 591 337 273 214 185 162 152 143 131 120 112 109 110 99 98 88 80 85 98 103 91 89 87 89 83 73 76 82 85 92 99 89 81 83 83 81 84 86 86 88 82 77 78 79 71 73 71 68 
112 110 103 120 124 129 133 134 142 141 148 149 145 139 145 200 221 462 656 709 680 617 482 344 299 304 375 685 945 1035 1039 926 548 304 281 249 216 183 161 155 144 135 125 118 120 109 106 94 81 80 91 109 101 99 96 96 91 84 83 83 89 91 104 98 89 86 86 88 88 92 91 90 84 80 80 83 78 75 71 62 
114 103 96 114 118 126 131 136 142 140 147 155 153 159 175 199 232 315 589 784 864 859 637 392 343 344 369 463 881 1076 1078 965 566 312 277 271 239 203 172 169 156 148 137 128 126 112 115 101 92 87 84 106 110 101 95 96 98 93 87 90 91 91 99 108 101 95 97 90 91 90 95 88 85 85 79 80 77 72 69 67 
113 98 92 99 117 125 136 146 147 149 146 153 153 157 161 198 218 290 739 967 1005 943 601 384 362 364 379 439 814 1063 1086 1000 676 348 282 283 253 224 198 177 164 156 141 133 127 113 117 103 95 91 92 100 116 103 98 100 101 98 90 91 95 96 97 108 111 99 93 93 89 90 92 87 85 84 85 82 76 73 72 71 
115 95 92 93 107 121 134 136 144 143 137 142 145 147 164 203 223 293 752 986 1020 968 660 407 375 375 390 464 818 1069 1093 1028 815 446 301 286 265 236 196 175 163 159 145 135 125 114 118 110 104 94 90 99 112 107 102 106 110 105 96 88 92 93 93 101 102 94 94 94 89 89 88 82 85 82 77 78 76 71 70 68 
110 98 93 98 106 119 128 128 129 139 152 150 150 151 166 219 233 305 764 995 1032 989 696 435 404 387 394 474 794 1075 1103 1055 876 484 307 274 261 230 190 173 166 161 147 132 126 121 121 114 104 97 86 85 104 125 107 108 107 104 98 96 87 83 92 95 91 86 88 90 89 88 84 85 86 84 84 77 70 70 69 69 
108 102 95 103 110 114 121 121 125 126 133 140 147 152 170 220 257 315 771 993 1036 999 733 458 449 389 388 437 669 1047 1108 1067 918 493 307 274 258 234 196 177 168 163 148 138 134 126 124 119 114 112 94 87 105 137 123 107 107 100 98 93 76 65 67 66 65 62 66 77 83 86 84 84 86 81 80 80 76 68 70 69 
112 109 109 112 110 115 127 121 121 121 131 138 144 143 163 214 255 320 774 994 1042 1008 790 494 419 371 378 409 549 1011 1103 1084 970 568 316 274 263 233 204 179 175 167 154 148 142 134 136 134 135 145 151 165 169 176 149 115 103 96 89 73 46 34 43 54 50 50 53 62 69 77 79 83 85 81 78 77 74 67 76 70 
116 116 112 116 115 121 130 125 124 126 133 133 132 141 164 219 253 324 784 996 1040 1014 843 542 392 361 368 392 497 954 1093 1088 1009 666 325 269 258 230 217 202 190 170 160 157 166 173 186 184 186 190 194 207 210 218 191 134 109 95 95 80 53 34 41 50 47 42 47 58 57 61 70 72 74 73 76 79 75 69 76 70 
117 115 114 118 115 122 133 125 126 124 127 130 132 140 160 214 254 330 788 997 1041 1015 854 581 395 354 359 377 454 891 1076 1088 1025 756 346 265 249 225 214 204 200 199 193 189 193 196 206 215 222 242 260 293 341 422 290 173 114 96 102 105 83 74 63 60 50 42 41 53 52 57 62 65 64 69 69 76 76 74 75 75 
120 119 113 118 116 128 135 124 128 122 124 128 131 138 161 220 254 333 796 999 1036 1011 847 569 388 350 349 366 425 787 995 959 839 607 305 241 225 212 201 202 201 210 216 225 239 257 294 326 363 396 403 388 366 350 269 196 125 102 106 117 99 89 84 77 64 50 44 50 49 55 60 62 61 63 62 70 71 76 76 70 
121 119 117 117 119 131 132 127 129 123 127 126 130 138 159 217 252 334 796 985 1019 987 825 544 375 338 316 311 319 407 433 382 334 285 231 214 222 227 235 249 265 296 333 365 395 403 395 361 329 307 286 265 239 221 193 169 124 107 104 110 102 89 89 90 82 64 50 51 52 58 57 54 58 52 54 70 70 70 70 68 
122 121 120 117 116 135 134 133 131 126 128 129 131 138 156 204 244 317 685 782 721 620 479 339 266 233 217 215 216 237 265 273 275 274 265 282 315 346 378 401 404 389 361 332 315 296 286 258 244 230 205 183 157 142 139 155 143 114 110 105 97 91 91 92 89 86 67 60 58 62 57 53 56 48 56 66 68 65 69 64 
125 122 123 116 121 143 132 133 131 124 133 140 142 148 164 184 205 226 278 285 273 261 246 234 227 224 226 240 253 285 326 364 399 419 415 404 386 359 329 311 301 307 324 359 399 401 341 316 332 338 334 338 306 184 169 281 217 165 146 121 105 97 98 97 93 91 84 75 64 60 59 56 52 39 51 59 59 62 65 56 
132 131 127 126 129 149 148 142 150 143 150 156 156 154 162 165 180 191 202 215 231 246 271 289 310 331 356 381 394 398 394 381 363 352 329 311 303 295 277 311 426 534 607 656 629 535 390 364 341 404 368 349 302 187 240 412 290 288 295 202 142 111 102 100 96 92 92 86 78 67 66 57 49 44 47 46 47 42 53 49 
151 150 145 150 143 151 153 152 156 155 171 176 178 189 205 221 257 237 245 349 368 378 389 387 373 344 320 305 298 307 353 405 477 551 564 381 353 306 251 321 418 481 609 690 678 547 366 324 356 431 356 265 225 176 214 304 266 296 382 385 273 154 113 98 98 96 93 92 84 73 69 60 49 44 41 29 28 27 30 30 
165 165 166 172 179 188 199 209 221 236 267 295 311 340 361 384 432 296 263 314 313 303 309 312 303 283 282 278 272 343 683 900 975 984 881 526 457 372 261 328 452 537 604 651 623 451 321 293 393 441 324 246 218 180 187 220 236 284 354 456 435 214 127 103 98 97 94 93 89 83 79 74 66 50 37 16 7 8 22 24 
230 246 257 280 300 323 343 354 352 345 331 311 285 265 257 251 262 277 331 409 495 570 607 583 461 343 303 266 248 344 753 1026 1074 1074 978 700 541 430 297 456 587 632 641 605 530 431 347 332 419 449 361 273 219 194 183 203 225 270 356 512 431 225 134 104 100 101 102 98 94 83 92 94 84 49 24 3 11 22 25 23 
328 322 310 298 281 269 253 235 227 218 217 221 224 215 221 235 308 515 757 876 929 946 909 719 495 372 324 284 251 331 690 1030 1090 1089 1028 843 601 462 323 515 640 685 709 679 624 549 470 464 523 562 562 367 236 188 188 205 230 293 458 565 378 213 138 112 102 103 97 93 92 86 94 101 79 37 17 0 18 31 24 28 
226 221 211 208 211 214 214 207 191 180 205 214 250 220 220 243 301 507 823 959 1015 1008 937 601 388 328 309 286 250 303 597 1012 1089 1107 1056 910 633 467 326 503 644 723 736 726 681 585 561 589 624 674 666 512 304 193 188 217 248 354 543 511 302 196 144 104 104 101 103 98 94 94 93 89 63 40 23 21 19 9 24 29 


