P2
80 60
152
4 17 19 21 15 8 13 13 7 3 5 6 13 18 15 17 13 16 22 22 17 17 20 24 22 18 19 17 16 17 17 16 16 16 19 18 20 16 16 13 12 18 20 15 13 12 14 15 17 16 14 14 20 27 23 31 36 38 36 36 31 25 22 26 20 26 21 18 23 22 30 28 41 51 52 81 91 92 101 102 
12 19 17 19 12 14 14 11 7 8 9 10 13 16 17 17 14 20 20 22 18 19 18 24 17 17 20 16 21 18 15 14 17 20 13 20 16 15 18 13 12 16 18 12 13 10 14 14 18 16 18 10 14 24 26 32 36 38 37 29 29 31 21 29 29 29 26 30 30 28 29 36 44 63 74 103 118 111 103 112 
10 12 13 14 13 12 13 9 5 10 9 10 11 14 14 14 22 18 22 21 19 21 13 19 18 18 18 15 17 18 16 12 14 15 13 15 16 15 11 10 11 13 10 10 11 9 10 11 14 15 16 15 18 22 24 29 35 34 29 24 35 40 42 40 43 44 34 33 36 34 34 42 53 71 87 120 138 127 107 114 
12 10 12 16 10 14 15 10 12 11 9 11 12 12 15 14 16 15 17 20 17 18 18 21 21 21 21 17 16 18 14 14 14 12 14 17 15 13 16 7 8 13 11 8 10 8 11 12 12 8 11 10 17 24 28 30 32 33 42 42 58 61 64 61 61 65 56 57 55 48 47 51 67 83 100 128 144 125 103 110 
11 11 13 15 14 17 15 10 8 8 13 13 11 12 15 19 15 20 20 20 22 20 23 20 20 20 18 17 16 16 18 13 14 12 14 16 17 12 15 14 12 15 11 10 13 12 11 9 14 13 13 11 18 26 24 29 34 41 52 63 74 80 84 84 81 80 76 68 67 59 47 57 68 95 105 141 152 126 103 105 
14 13 9 12 9 15 13 12 11 10 13 9 10 12 13 13 18 18 19 20 21 20 20 18 22 20 16 15 13 16 18 15 16 13 12 14 15 10 12 9 9 12 11 12 11 11 14 11 15 13 13 12 16 21 24 31 44 57 67 74 91 98 93 90 88 91 87 83 85 61 60 65 76 94 101 132 146 128 118 110 
11 13 11 15 16 16 12 10 16 10 11 13 12 9 13 16 18 19 16 19 25 24 27 22 16 16 17 16 17 19 15 13 14 12 10 16 12 8 12 8 10 13 12 14 10 10 11 13 15 15 12 12 16 22 30 36 51 66 75 86 98 102 98 96 93 98 91 90 91 69 57 61 80 91 100 125 141 130 112 108 
13 14 14 19 14 16 16 14 11 12 11 12 9 11 14 13 12 12 12 16 18 16 20 20 18 16 14 16 16 14 15 13 11 10 6 9 11 7 8 9 9 9 12 14 12 10 14 12 12 12 13 12 15 17 28 45 62 74 85 91 100 94 98 92 89 89 84 80 82 64 55 66 70 84 96 109 125 124 119 111 
15 12 14 20 16 19 15 16 15 11 13 13 15 13 13 13 12 11 14 12 15 14 17 23 17 17 19 15 15 15 10 11 10 10 9 12 7 6 9 6 10 10 9 15 11 11 11 14 18 17 12 16 14 19 36 49 76 82 86 89 92 95 98 89 87 87 84 73 76 66 51 65 75 82 89 102 115 121 119 119 
14 18 16 18 18 18 16 17 15 11 13 18 15 12 13 14 13 11 14 11 13 11 17 17 15 12 13 15 9 14 11 9 6 6 7 8 13 9 11 8 9 12 10 15 12 11 16 12 15 17 15 11 14 17 31 56 70 78 86 87 88 91 94 91 87 79 78 75 74 62 54 55 64 82 83 93 99 107 109 123 
18 17 20 23 24 24 19 15 13 13 15 13 16 13 14 12 16 14 14 11 12 12 15 17 15 9 10 12 9 10 11 8 9 3 7 9 8 9 11 10 11 11 12 12 9 11 13 12 14 16 15 18 18 21 36 59 75 85 89 90 97 97 97 98 90 81 81 75 73 67 60 56 60 78 80 82 83 95 103 114 
17 20 21 27 25 22 20 18 21 14 13 14 16 15 14 14 15 11 13 12 11 13 9 11 11 11 9 11 9 11 10 8 7 10 8 12 10 10 11 11 10 14 11 13 11 14 16 13 14 18 16 15 16 19 32 54 70 84 91 90 93 98 96 90 80 70 70 68 63 62 57 49 52 67 65 75 76 78 81 94 
11 19 19 24 27 23 23 18 18 15 17 15 16 17 14 14 14 12 13 13 11 10 9 12 11 8 7 9 10 10 8 9 9 12 12 10 12 8 11 10 12 11 9 10 14 10 14 12 14 17 14 16 15 17 22 40 54 69 75 80 79 79 78 72 61 54 52 56 53 48 40 39 41 51 50 55 56 58 57 73 
18 21 23 24 25 24 23 26 20 15 17 18 14 16 12 15 15 10 11 11 11 10 9 11 10 6 9 12 6 11 7 8 5 11 7 8 11 10 13 9 14 16 11 11 11 12 13 14 13 16 11 12 19 16 20 28 39 47 58 57 63 61 58 48 46 34 40 39 32 33 31 28 28 36 31 38 33 39 40 42 
21 26 27 29 33 28 26 26 22 20 16 17 20 17 16 19 17 12 10 13 11 12 9 10 9 8 9 9 12 10 6 9 7 4 5 9 12 10 12 11 13 10 11 8 9 15 16 14 15 15 16 13 17 17 21 16 27 37 43 40 35 38 37 36 31 26 24 23 25 20 20 21 23 23 21 24 24 29 26 28 
21 25 30 31 36 38 29 25 28 23 21 21 21 16 16 20 16 15 14 14 12 11 8 11 9 8 10 7 9 8 9 9 6 6 4 8 11 13 12 11 11 10 8 12 9 12 14 15 12 14 13 13 21 17 19 16 20 20 24 24 25 23 25 20 18 18 20 20 20 20 17 18 19 22 21 18 19 21 16 19 
32 36 35 39 37 40 35 34 28 31 25 21 23 18 15 19 16 13 14 16 12 12 10 10 11 12 12 10 9 9 12 6 6 12 10 13 11 13 15 11 10 11 12 14 12 10 15 12 16 15 13 13 18 19 21 19 15 17 21 21 20 21 21 18 16 17 21 19 20 19 21 21 21 20 17 18 23 22 14 20 
35 37 37 42 37 40 38 34 27 28 24 23 23 16 14 14 16 12 14 12 12 12 14 13 11 12 11 11 11 8 7 7 6 13 12 12 13 12 14 14 14 13 15 12 11 10 13 13 13 15 15 11 16 20 21 16 19 16 19 17 17 17 19 17 18 17 17 19 21 23 23 26 22 20 22 21 19 20 19 19 
36 34 36 38 38 42 42 37 31 32 30 28 26 18 14 22 20 13 14 11 10 12 13 15 13 13 11 12 9 10 10 7 10 11 13 15 12 14 14 11 15 12 14 11 13 12 13 13 16 17 15 14 14 20 23 16 19 19 20 16 15 19 19 15 19 18 16 17 20 20 23 24 23 17 17 19 21 17 16 21 
37 38 42 45 41 45 42 37 37 34 31 29 27 23 17 22 21 16 14 13 9 12 11 12 11 11 12 11 12 14 10 11 11 14 13 10 9 14 16 12 12 14 14 12 14 15 14 11 17 14 16 17 18 17 18 20 19 19 19 19 18 21 20 19 20 19 19 18 18 18 24 25 23 22 22 21 23 17 17 24 
41 45 45 46 41 44 41 36 39 30 33 26 27 22 22 22 17 16 15 13 12 12 11 13 14 13 15 11 12 12 10 11 14 11 12 12 14 15 15 11 15 13 17 15 14 14 12 13 15 17 17 15 19 19 18 20 19 20 21 18 20 22 23 23 21 19 18 21 19 21 23 20 20 24 20 21 20 24 16 20 
36 40 41 35 39 43 36 31 32 32 28 24 29 18 18 20 17 12 14 16 11 10 12 14 13 11 15 12 13 10 9 13 13 14 16 11 17 12 16 10 11 14 11 12 14 16 13 12 16 16 14 16 16 20 17 19 16 25 23 20 19 19 20 23 19 20 19 19 22 23 24 23 22 25 21 21 16 26 18 24 
34 39 38 39 31 35 29 29 22 27 19 21 26 23 18 24 17 16 13 11 12 12 12 9 12 11 14 12 13 12 12 15 13 10 12 14 15 14 15 14 12 14 12 11 10 10 16 10 14 15 11 14 15 19 17 19 16 18 18 18 20 21 16 20 18 17 18 20 21 21 15 21 24 20 18 21 15 25 17 22 
32 32 30 35 30 29 29 24 23 19 21 21 24 20 16 20 22 9 11 8 10 15 12 14 14 11 11 10 13 15 15 12 13 13 13 13 13 12 12 16 11 12 13 11 12 11 12 12 11 14 12 12 15 16 18 15 19 20 19 17 20 19 18 15 17 18 19 16 19 20 21 24 20 24 16 21 17 24 18 29 
28 28 23 31 26 27 22 21 21 14 22 18 22 17 15 15 14 14 14 13 10 16 13 13 14 12 15 14 14 15 15 14 12 12 10 14 14 16 14 13 13 17 12 13 12 12 12 12 14 13 17 13 17 16 18 17 15 16 18 15 18 21 20 18 16 18 19 18 18 18 23 21 23 22 9 21 15 27 28 38 
32 29 26 30 24 26 22 15 16 19 16 19 21 20 15 18 12 11 12 12 12 12 11 14 14 13 13 14 17 16 15 13 14 15 13 14 13 14 16 13 14 15 13 13 12 14 14 11 14 16 16 14 11 17 16 15 18 17 18 18 17 23 20 18 19 19 19 19 19 21 24 22 21 22 20 25 30 38 43 48 
28 25 27 29 26 27 23 20 17 17 18 15 19 15 12 16 12 12 12 16 10 15 13 14 14 14 15 16 17 17 16 15 15 16 14 16 16 14 16 15 15 16 14 13 13 13 16 13 14 16 15 14 13 18 18 14 18 17 18 16 13 19 20 16 20 19 17 20 20 19 18 23 22 27 22 28 34 51 65 63 
26 24 24 27 26 28 21 20 17 17 15 15 13 14 12 14 13 13 15 11 10 14 15 14 17 14 15 15 16 18 15 14 13 14 12 16 15 16 15 15 14 16 14 11 14 12 11 15 13 14 13 13 15 17 18 14 17 17 16 18 15 18 18 15 16 18 18 16 19 23 21 24 23 20 18 29 46 70 91 79 
23 23 22 26 24 26 21 15 17 16 13 13 14 14 11 15 15 9 12 12 14 15 14 16 15 15 14 13 14 14 15 15 14 14 14 15 16 14 19 16 12 13 15 13 11 14 14 13 13 13 12 13 14 18 17 14 13 13 16 14 15 16 18 17 16 16 19 17 23 23 25 24 26 26 27 43 57 96 93 92 
23 24 21 25 25 21 17 18 16 12 10 11 11 9 11 15 12 10 12 16 12 15 13 12 16 13 12 12 16 15 17 15 15 15 15 16 17 13 15 15 12 15 14 12 11 12 17 14 14 17 15 16 15 16 19 14 13 10 17 12 14 14 16 13 16 16 19 15 20 23 23 24 30 33 32 62 81 100 119 102 
22 21 18 28 19 21 15 17 13 13 11 12 11 12 12 14 12 8 14 13 12 14 13 13 15 11 18 14 15 14 15 13 13 14 13 17 17 16 12 14 13 16 16 11 13 14 16 15 14 17 14 13 14 13 18 14 15 15 16 12 12 15 14 14 16 22 19 13 21 21 25 28 31 39 50 73 97 117 109 94 
21 15 17 20 20 20 16 13 16 13 13 14 13 10 11 12 13 13 16 11 14 14 14 17 17 14 19 14 18 16 13 18 13 14 16 19 19 17 15 16 14 15 12 11 14 16 13 15 16 14 17 14 14 15 16 16 14 14 16 15 15 14 16 16 19 17 19 18 22 19 27 30 39 62 66 88 101 113 105 91 
18 18 13 17 21 19 22 14 12 12 12 13 12 11 14 10 15 14 17 16 13 18 15 15 15 14 16 15 18 16 13 17 14 16 14 17 16 15 16 16 14 15 16 15 10 15 16 13 16 14 16 13 16 18 17 15 16 17 15 13 15 20 18 16 19 19 15 20 20 20 33 42 58 78 88 98 102 105 96 90 
16 13 13 17 16 18 11 14 14 11 12 14 12 11 13 13 13 12 14 16 12 18 15 18 17 15 16 17 17 18 14 15 16 15 15 16 14 14 18 17 16 16 16 13 13 12 16 18 16 17 15 11 12 18 14 15 16 14 17 14 17 20 14 18 14 16 16 18 21 25 36 60 78 97 96 101 102 109 94 92 
13 13 11 13 12 15 12 15 14 11 16 15 15 15 13 16 14 12 12 15 14 18 16 22 17 13 15 16 16 19 18 19 16 15 14 20 17 14 20 14 14 17 13 14 12 12 16 17 18 19 17 14 12 17 17 13 18 17 21 17 15 19 17 14 17 19 17 18 20 26 48 78 97 109 106 103 99 100 91 101 
10 11 10 14 10 16 13 16 14 18 17 21 16 16 16 13 16 13 10 13 19 15 16 21 18 16 17 21 17 18 16 15 15 15 12 20 16 16 18 16 15 17 16 15 13 15 17 16 18 18 18 14 14 18 17 13 16 17 21 17 16 20 17 16 17 17 18 17 22 36 64 91 102 110 103 99 98 97 94 102 
11 10 12 16 13 17 12 14 11 16 19 18 18 12 18 16 19 14 7 10 17 17 19 20 17 17 19 15 17 19 17 15 14 17 15 14 15 16 17 13 12 11 17 13 14 14 13 16 21 18 19 16 13 20 21 15 18 16 20 18 17 15 13 13 14 15 17 17 22 36 71 98 100 104 97 91 94 102 98 102 
10 11 10 12 14 17 15 16 13 19 23 18 20 18 22 20 18 14 14 12 13 15 24 28 23 19 14 19 17 18 16 15 18 17 13 15 19 15 20 16 13 15 14 14 14 12 10 14 21 21 20 10 15 16 17 16 17 19 19 15 15 17 15 14 11 18 19 17 16 36 80 93 92 99 89 82 97 100 98 86 
8 13 14 12 14 17 15 15 16 16 20 17 20 16 17 19 20 17 14 10 18 21 36 43 36 30 25 22 16 20 15 16 17 17 13 15 18 14 21 19 16 14 15 9 13 12 15 17 20 19 21 15 15 18 17 14 16 19 16 16 15 14 16 16 16 17 19 20 23 39 69 78 82 86 80 88 90 87 79 70 
14 13 13 17 16 17 12 15 14 13 16 16 20 16 19 19 18 18 12 9 19 33 53 63 54 40 35 24 18 20 15 15 18 15 11 19 17 18 21 17 16 17 12 13 15 14 15 15 18 25 21 17 21 19 15 18 17 16 18 18 17 17 19 16 17 15 16 19 22 32 52 63 72 72 71 78 81 78 61 45 
11 15 18 17 16 19 13 14 16 15 15 21 21 18 20 22 22 17 12 12 27 49 74 78 66 54 48 31 20 21 16 15 15 17 17 20 17 17 19 19 13 17 17 11 14 10 16 15 18 19 16 18 20 20 18 14 19 17 17 17 21 22 18 14 14 17 14 18 18 32 45 55 58 63 58 66 59 55 33 34 
20 15 15 19 17 21 17 16 17 13 18 18 22 17 18 18 18 18 19 19 39 69 90 84 74 60 55 38 23 21 19 18 17 19 16 20 17 16 24 17 15 17 17 14 16 12 18 16 14 12 15 13 17 18 18 16 17 19 19 17 18 16 21 14 15 18 18 16 24 28 39 48 47 48 45 47 43 34 24 29 
15 20 20 22 16 19 17 16 15 14 19 22 21 20 19 25 18 18 25 28 59 90 95 86 77 72 64 40 18 19 18 17 15 17 12 17 17 15 20 16 16 20 19 15 16 14 13 12 15 9 3 11 15 17 17 14 16 18 23 18 16 17 18 16 16 18 16 16 22 17 26 34 37 35 30 31 28 27 19 11 
21 22 16 22 20 24 18 16 16 20 17 20 22 20 22 24 25 14 19 45 83 93 93 92 78 72 62 46 21 20 20 20 20 19 15 16 18 15 15 14 14 17 15 14 17 13 18 12 15 6 7 10 15 15 14 14 14 16 15 15 15 18 17 17 17 19 13 13 16 19 23 28 22 27 20 23 19 20 18 18 
30 31 20 26 23 22 20 19 17 15 18 20 27 22 22 24 19 20 22 62 95 95 91 88 80 75 74 39 22 18 17 19 17 18 12 17 17 14 17 15 14 14 18 14 16 11 16 14 12 2 0 7 15 15 13 12 15 14 14 15 15 16 13 18 16 17 11 15 15 17 21 17 19 19 16 14 18 17 16 18 
59 51 40 34 19 27 20 20 18 17 22 23 21 20 21 27 23 25 46 86 98 101 102 94 84 82 78 32 20 19 19 17 17 19 17 16 17 16 18 14 11 14 13 10 16 12 15 16 11 6 2 9 14 14 15 12 14 15 14 15 16 17 19 17 12 13 14 16 18 18 16 22 17 23 14 14 14 17 14 14 
75 78 60 43 30 24 22 21 20 21 17 23 22 21 19 30 22 28 52 96 109 101 95 90 89 96 72 36 24 19 16 17 15 19 13 20 17 17 20 15 15 12 17 15 17 10 14 13 11 11 12 13 13 15 14 14 16 19 15 18 13 17 18 17 13 16 15 16 18 14 22 18 15 15 11 10 16 18 11 14 
79 82 76 60 34 29 23 23 19 19 16 21 20 19 20 30 27 32 74 97 105 115 108 100 106 96 71 26 19 17 14 14 15 15 13 16 16 15 15 14 15 16 14 14 16 10 17 14 14 10 11 9 14 14 15 15 15 16 15 14 16 16 15 17 8 16 13 16 15 15 15 14 18 11 11 13 15 16 10 12 
82 85 86 75 44 29 24 23 19 22 21 19 22 21 22 32 26 52 90 109 107 111 101 98 105 101 57 24 16 21 18 17 15 19 16 18 18 13 14 14 13 14 14 15 12 11 16 16 17 15 16 10 14 15 15 17 15 15 16 16 15 18 16 11 11 15 14 17 13 16 16 16 16 10 10 12 12 15 12 11 
79 92 87 96 60 32 26 22 24 20 20 23 27 21 26 26 39 67 103 114 112 96 98 100 108 91 42 21 18 19 18 17 16 15 11 15 16 13 15 11 13 18 14 14 13 14 17 16 18 17 12 14 13 16 13 15 15 17 18 17 15 20 15 15 15 17 14 15 14 18 17 15 14 11 9 12 16 18 14 16 
79 93 110 119 77 39 24 26 26 22 20 19 26 21 25 39 54 83 98 110 103 90 103 100 105 64 33 22 17 18 15 18 14 17 11 12 12 17 15 16 14 14 13 16 15 13 18 16 17 16 16 12 13 15 16 17 16 17 15 19 18 19 14 17 15 14 12 14 15 18 17 18 17 14 9 16 18 18 12 15 
71 85 109 128 77 38 29 27 26 21 21 24 26 22 24 39 68 84 106 101 98 88 90 104 84 43 29 19 19 17 16 14 16 13 12 15 18 16 18 13 12 13 14 13 15 15 16 11 15 17 16 14 15 16 19 18 16 15 18 17 16 19 16 18 13 15 13 12 16 20 19 19 20 15 15 16 15 19 12 17 
71 72 101 127 81 40 30 27 22 24 26 26 22 28 34 62 85 95 108 110 96 92 96 98 57 24 21 18 15 20 18 19 14 18 11 13 17 17 15 14 14 17 16 11 17 14 18 14 9 18 14 14 12 16 20 15 18 18 22 13 15 18 17 15 13 17 13 15 16 18 20 20 19 17 15 17 20 16 9 14 
61 84 115 125 79 45 29 26 22 23 21 21 24 30 49 73 87 98 93 108 104 98 95 69 34 19 19 18 19 18 19 20 15 18 14 16 15 14 15 12 16 15 15 13 16 16 15 11 15 15 14 13 15 22 18 17 18 17 17 14 17 16 17 15 14 16 14 20 16 16 16 18 18 17 16 19 15 20 13 17 
62 107 123 135 86 44 35 31 24 27 23 26 38 49 62 84 85 93 93 98 104 94 75 44 26 21 19 19 20 19 19 21 19 18 15 15 19 17 16 15 16 19 16 17 17 18 21 16 14 19 15 16 21 17 20 18 18 18 18 17 14 18 16 19 18 15 14 19 20 19 19 20 21 20 16 21 18 20 15 17 
75 110 131 136 90 53 39 31 27 22 30 40 56 70 82 85 96 95 91 89 97 75 45 31 20 21 21 18 17 20 20 22 18 16 16 18 17 17 15 16 19 17 16 18 20 17 19 16 21 19 18 17 17 19 20 18 20 21 18 17 13 15 16 18 17 19 18 18 23 21 22 20 20 21 21 23 23 19 13 14 
93 123 133 136 104 56 36 31 23 24 38 55 76 86 89 100 110 109 93 87 85 50 29 23 23 18 19 21 16 23 18 22 18 18 16 16 16 17 17 15 17 17 18 16 17 20 19 18 16 19 19 18 19 19 20 20 15 16 18 19 14 14 16 15 16 18 17 19 18 19 19 19 21 20 18 23 18 20 15 18 
106 121 128 134 110 71 46 34 26 29 49 81 89 97 98 114 119 116 102 87 72 43 23 23 21 23 20 20 19 20 18 21 17 18 16 15 17 15 16 16 17 17 20 19 18 19 19 17 20 20 20 18 19 19 20 18 17 22 19 20 17 19 16 17 15 19 17 16 19 18 19 23 23 21 18 22 17 20 15 23 
101 114 114 121 107 83 55 35 30 39 76 100 107 110 114 114 121 118 108 89 67 34 27 24 22 21 21 21 18 22 20 20 18 22 17 18 18 14 18 18 18 23 21 17 17 14 20 17 23 21 22 20 22 20 20 23 18 19 19 19 22 23 18 15 19 17 20 18 19 20 23 26 26 31 21 21 19 17 15 13 
102 94 95 100 93 79 59 39 39 57 96 105 120 117 123 116 119 115 112 87 59 31 23 24 21 19 23 18 16 22 13 14 17 18 17 16 20 18 22 19 17 21 21 19 15 11 22 18 23 20 22 23 21 23 21 24 18 20 17 20 19 23 20 20 21 18 17 17 14 19 22 24 27 27 13 21 16 11 12 15 


