P2
80 60
68
14 16 28 26 26 25 17 16 21 22 25 21 26 28 23 21 23 28 24 27 27 30 29 29 30 32 31 35 31 32 34 36 36 32 34 34 33 34 34 28 27 28 32 34 31 33 30 33 31 34 33 34 30 31 31 29 30 28 24 26 20 23 22 23 23 20 21 24 27 22 20 21 27 24 24 18 26 21 19 21 
21 27 21 20 21 21 20 15 18 19 27 23 21 28 24 24 28 27 25 27 27 31 29 30 33 31 29 38 34 34 38 38 36 34 33 34 33 34 35 30 28 31 33 32 32 34 31 32 36 35 32 38 33 31 30 29 28 25 20 21 21 20 26 25 23 20 22 29 22 23 22 23 23 29 24 21 21 22 25 18 
26 24 26 19 21 21 18 18 20 23 22 22 27 28 29 25 28 29 30 30 31 32 33 28 32 33 33 36 38 35 41 35 40 36 35 36 31 35 36 26 26 33 35 31 33 37 37 35 35 35 35 36 34 34 29 32 30 26 18 22 20 22 28 22 24 25 25 27 24 30 28 25 25 31 27 22 24 24 20 25 
25 24 24 17 20 19 21 17 18 22 19 25 28 29 30 23 25 29 32 29 33 34 32 33 34 34 34 31 34 37 41 37 36 37 36 36 36 39 35 32 28 33 37 34 34 36 33 37 35 38 37 37 33 33 33 32 32 22 23 25 23 19 24 25 27 25 27 28 27 26 32 25 28 31 27 25 26 26 23 25 
20 22 18 22 19 22 22 20 21 21 21 26 25 31 28 26 28 30 30 32 34 33 32 34 36 34 33 39 35 36 36 36 38 34 38 39 36 39 34 29 31 35 37 38 34 39 37 38 36 38 36 38 34 34 30 34 31 25 24 26 21 24 22 24 26 27 28 25 25 26 30 27 27 30 31 28 30 28 29 27 
20 19 25 21 18 24 21 19 22 21 22 25 27 29 29 29 31 35 32 31 31 33 35 37 33 36 32 36 38 39 36 36 39 38 38 37 37 36 34 32 30 37 38 37 35 40 38 38 36 36 34 38 37 35 34 32 32 23 27 28 22 23 21 24 27 25 29 32 30 29 25 28 33 32 28 29 27 30 25 18 
21 22 23 24 23 26 23 21 25 24 25 25 27 32 27 29 29 33 33 35 36 37 39 37 39 37 37 39 41 40 36 42 41 39 38 40 36 36 37 31 36 40 40 39 39 40 41 42 37 38 36 38 36 40 34 28 29 24 26 25 25 24 25 29 27 27 31 32 32 31 30 33 34 34 26 31 29 29 24 21 
20 22 22 20 20 19 21 23 29 26 23 28 32 35 32 33 33 39 37 38 35 34 38 38 39 40 39 37 39 39 37 42 39 36 40 42 40 35 35 37 38 42 42 42 40 40 39 40 41 41 35 33 36 40 36 26 26 24 23 26 27 30 30 30 29 27 28 38 34 33 35 35 36 37 31 28 32 24 22 21 
22 22 25 24 22 21 27 26 30 26 29 33 35 35 32 33 34 39 39 37 36 35 40 39 38 39 37 38 38 40 42 41 38 38 45 46 41 39 40 33 38 39 42 40 41 43 39 43 37 36 34 35 35 42 34 30 28 25 27 26 31 26 29 31 27 30 28 34 33 36 35 36 37 40 37 32 35 30 24 29 
21 29 26 29 27 30 29 24 30 29 27 32 32 34 33 35 36 40 43 39 38 39 39 39 40 42 41 44 39 44 46 42 45 49 47 47 40 42 40 38 39 42 41 43 43 44 43 41 42 40 40 41 37 40 35 31 28 25 26 27 28 30 28 28 31 30 34 35 34 36 36 37 34 34 34 35 37 32 26 28 
28 28 26 28 29 32 30 29 28 26 29 32 35 37 33 35 38 36 42 40 38 39 41 41 41 44 41 44 41 45 42 42 45 45 45 45 44 41 40 43 41 42 47 45 42 47 42 43 42 44 39 43 41 42 34 33 29 29 27 25 30 30 27 27 28 29 36 34 35 38 39 35 37 38 40 40 35 31 26 24 
26 26 25 29 25 30 26 29 26 31 31 34 37 32 35 30 37 39 41 39 38 41 43 40 42 44 41 44 43 43 42 41 43 44 45 45 41 40 43 44 42 44 44 42 43 43 45 46 46 44 44 42 40 44 36 29 30 27 30 27 27 29 25 27 27 30 34 37 36 35 37 39 34 45 39 35 32 35 29 23 
28 28 27 29 31 30 34 34 30 30 33 34 36 37 35 37 36 41 43 42 41 41 41 41 44 43 41 43 46 48 45 45 46 51 48 44 43 41 47 43 46 46 47 45 44 47 46 46 42 44 42 44 43 41 39 33 29 27 30 25 27 30 28 33 29 30 37 41 35 38 38 39 41 40 36 38 36 32 28 23 
27 31 31 33 34 36 34 32 34 38 34 36 37 37 41 37 39 44 45 43 43 39 45 44 47 48 45 47 47 48 48 46 52 50 52 47 44 47 49 47 46 49 46 45 45 49 45 48 50 46 46 45 45 41 44 37 30 28 27 30 28 28 32 32 37 30 38 42 41 39 42 41 42 42 36 37 37 34 30 27 
27 30 33 33 34 36 35 38 35 39 36 36 39 40 40 36 42 44 44 46 43 44 43 45 44 47 47 47 49 47 46 52 53 51 52 51 50 50 51 51 50 53 49 47 49 44 49 51 49 48 46 44 45 41 41 35 29 31 30 29 33 33 30 33 33 34 39 40 41 36 41 40 39 43 41 40 34 37 29 27 
31 29 33 36 33 38 34 36 37 40 40 38 42 44 46 41 46 46 48 46 44 46 45 49 47 44 48 47 47 49 51 54 52 52 54 51 47 51 49 50 52 50 48 44 47 45 48 51 51 45 46 45 43 42 41 37 33 27 30 33 36 34 35 33 38 38 39 40 40 40 45 42 47 45 42 40 43 37 31 31 
31 30 33 34 35 38 37 36 40 39 38 41 45 43 41 43 45 43 44 44 47 51 48 48 48 49 46 50 48 53 56 55 58 53 53 53 50 51 48 50 50 48 47 47 48 45 47 48 51 47 47 44 39 43 36 37 33 31 32 37 35 35 35 37 39 39 41 44 38 41 47 44 44 44 40 41 42 37 32 30 
35 32 34 35 37 43 41 40 39 42 40 41 47 46 46 44 44 47 43 49 49 50 50 49 50 49 48 51 53 53 52 53 56 53 54 50 47 48 49 49 48 45 47 52 48 50 51 50 50 47 47 46 43 43 38 36 35 35 34 34 38 37 37 40 39 39 43 44 43 41 44 42 44 46 45 37 38 35 33 33 
33 29 35 33 31 37 34 39 39 40 41 45 47 48 50 47 45 47 48 48 47 48 49 49 51 53 52 50 48 52 52 51 53 51 52 48 47 49 51 48 48 46 44 44 43 48 45 48 49 52 48 43 38 42 39 37 31 36 35 42 42 39 35 36 38 41 43 42 43 45 44 40 43 43 37 36 37 39 30 26 
27 32 32 33 31 34 35 36 39 40 39 43 50 52 47 43 42 46 46 48 45 45 50 50 50 52 51 50 50 50 49 50 56 52 50 49 47 49 48 49 46 45 44 37 38 40 41 44 45 47 42 43 41 43 39 33 36 37 35 43 42 43 41 43 42 41 50 45 43 41 45 43 41 42 41 36 36 36 29 32 
28 29 30 36 36 39 37 35 47 46 42 43 48 49 48 42 41 45 44 49 50 51 45 48 50 52 49 55 55 54 53 55 53 51 46 47 46 49 48 49 50 49 46 39 40 39 41 41 42 45 41 40 38 40 41 34 39 38 35 42 43 46 47 46 43 44 46 46 43 46 47 44 45 41 42 39 36 39 34 24 
31 27 32 40 41 43 42 40 49 44 45 39 43 42 42 36 37 45 42 48 47 49 48 49 47 50 50 55 52 53 51 49 51 52 49 49 51 52 48 52 50 51 51 43 40 39 41 42 44 41 40 39 40 42 37 42 45 42 42 48 51 47 50 50 46 49 48 48 45 45 46 47 42 46 44 39 37 39 31 25 
31 34 41 46 42 44 41 43 51 46 50 44 45 40 40 39 38 44 41 44 47 53 56 52 54 51 52 53 54 55 52 52 54 49 50 49 49 49 50 50 51 48 50 48 44 45 45 44 45 44 44 47 41 40 43 38 41 44 43 49 51 49 49 48 47 46 47 47 44 43 46 45 43 42 41 36 34 38 29 24 
37 42 47 46 45 50 46 49 54 56 55 51 51 48 49 46 46 49 49 54 52 56 55 53 55 53 53 54 52 55 54 55 56 51 53 50 50 54 52 49 49 50 49 49 46 48 49 49 51 46 49 46 49 48 45 44 47 47 45 51 50 52 52 54 52 51 51 51 46 45 41 46 41 46 41 41 37 34 26 24 
43 46 49 53 47 50 52 58 60 63 62 56 59 54 56 52 54 56 57 55 54 58 56 53 58 56 56 53 57 58 54 55 55 55 54 56 56 54 56 51 54 57 50 51 49 48 50 51 54 55 51 52 50 48 48 48 48 47 53 52 51 55 54 56 54 54 52 54 49 46 45 44 44 46 39 41 38 34 28 23 
45 47 53 50 51 52 51 56 60 61 60 56 59 57 55 56 56 58 54 54 58 60 56 56 59 60 56 56 58 53 55 57 57 59 60 63 58 56 56 53 52 56 51 51 50 53 50 51 56 55 53 54 50 50 50 48 53 54 55 55 56 56 55 55 53 52 49 51 45 44 46 47 41 41 39 38 33 29 26 28 
50 53 54 53 53 54 57 53 61 59 61 61 59 59 57 53 53 59 58 57 56 54 59 57 56 55 56 57 57 55 57 53 57 55 59 58 56 59 57 53 55 54 50 48 51 49 47 53 52 55 54 56 53 55 50 47 55 53 55 55 53 50 54 51 51 49 49 49 42 43 42 43 39 40 33 35 34 29 20 22 
50 56 52 56 52 53 51 55 57 61 60 62 55 55 55 54 52 57 59 55 57 59 58 55 57 56 56 55 55 55 57 56 56 58 63 57 60 59 59 58 56 58 52 51 50 51 50 49 54 55 50 51 55 53 49 52 51 57 55 49 54 52 51 50 50 45 46 47 44 38 40 37 36 40 33 32 30 29 18 19 
53 53 54 57 51 55 55 55 57 58 59 59 59 58 54 53 58 57 58 55 57 62 59 54 55 57 58 53 54 53 55 59 62 61 63 60 59 57 57 57 57 56 55 54 51 49 49 48 51 50 56 57 55 51 51 51 54 53 54 52 55 52 54 47 43 49 44 44 40 41 42 39 37 39 32 33 30 28 20 18 
53 54 54 57 55 59 57 57 57 63 62 58 59 58 59 56 58 62 55 57 59 60 57 55 56 55 53 54 53 51 59 54 58 56 58 58 55 56 58 58 56 56 55 54 50 51 50 49 53 52 56 59 52 56 48 52 52 53 52 51 51 52 46 44 44 46 41 44 40 38 44 39 33 38 30 29 32 26 18 19 
51 57 57 55 57 58 56 60 62 65 61 62 58 57 58 57 59 57 58 57 60 57 55 58 58 60 55 54 54 53 54 55 59 55 56 57 54 57 57 58 60 57 54 48 53 51 52 48 54 55 60 60 56 54 50 51 53 53 52 54 54 50 46 48 45 45 42 41 42 39 38 39 35 35 32 29 29 25 19 22 
52 54 54 56 57 59 57 63 65 64 64 61 58 55 59 59 57 56 57 57 60 59 60 59 61 57 55 55 52 52 51 53 56 52 56 54 52 55 58 56 61 57 53 49 53 53 48 53 55 57 56 57 56 57 52 48 55 52 50 54 52 48 51 52 50 46 42 43 44 41 38 39 32 35 33 30 30 25 19 19 
53 60 55 56 58 59 58 63 66 64 61 62 63 62 63 58 57 60 57 59 56 62 60 59 59 54 57 55 50 50 48 51 56 52 53 50 53 56 57 56 59 57 52 50 49 52 50 52 53 55 59 53 54 56 52 54 56 51 50 51 52 51 53 54 48 45 39 46 38 39 35 33 31 32 35 28 30 27 21 21 
52 54 52 59 56 60 54 63 61 66 68 62 61 60 60 58 58 60 59 55 59 54 59 56 55 52 54 50 51 51 46 49 51 51 51 50 53 51 51 53 54 55 53 50 50 51 54 53 50 54 54 55 56 59 51 52 50 51 50 50 49 52 54 53 48 47 44 45 39 34 29 24 26 32 28 24 28 25 19 20 
53 55 58 60 57 56 54 61 61 65 63 63 63 58 59 58 58 59 59 58 59 61 57 57 54 53 54 50 48 49 53 45 52 51 51 49 48 51 51 50 57 56 54 53 50 51 49 56 55 55 53 55 54 56 50 51 51 50 50 50 49 51 50 50 49 44 39 41 36 30 27 21 20 23 24 21 23 25 20 17 
51 54 55 55 54 56 59 60 61 65 61 62 60 60 60 56 56 58 56 57 57 57 55 51 51 49 48 52 49 47 49 49 50 47 48 48 50 50 51 52 53 55 52 51 49 49 53 55 53 52 55 54 54 51 51 48 53 53 48 49 48 50 47 49 44 42 39 40 32 29 25 23 22 26 24 22 26 24 24 15 
49 52 54 54 54 54 57 56 62 60 60 62 59 58 58 56 53 56 57 57 54 54 58 53 53 51 47 48 47 49 50 50 50 52 48 46 47 51 49 50 55 55 53 50 47 47 50 57 59 56 57 55 53 53 52 49 55 55 52 48 50 51 49 48 43 41 39 40 34 32 27 24 23 25 23 22 21 21 21 14 
53 50 54 55 53 54 51 51 57 60 62 57 56 56 58 57 54 56 55 56 56 53 54 50 52 48 50 49 47 48 49 48 50 49 48 47 46 47 50 52 53 52 51 48 50 49 55 58 54 55 57 53 53 54 53 52 57 54 50 49 45 46 49 46 46 37 38 37 35 30 28 19 18 23 21 23 23 21 21 15 
53 50 50 55 54 58 53 53 58 56 59 54 55 53 58 53 54 54 56 50 47 50 44 45 47 47 46 47 47 49 51 49 44 52 46 46 47 45 48 47 54 55 50 47 50 50 55 57 54 54 53 56 52 50 50 48 55 53 49 49 42 43 41 42 42 34 34 34 31 27 27 19 14 18 16 20 20 22 16 13 
47 51 49 50 52 57 52 51 52 54 54 56 54 53 53 49 49 54 52 50 48 49 46 44 49 48 48 49 48 47 50 48 46 48 47 46 45 47 45 43 51 53 51 51 51 52 55 57 58 52 53 55 49 49 48 47 52 50 49 48 42 42 42 43 37 35 36 35 32 30 22 21 14 19 15 22 18 13 16 13 
45 49 49 47 52 51 50 48 53 53 54 52 56 53 53 52 49 51 51 49 47 47 47 46 47 49 46 45 47 48 47 48 53 46 48 49 42 44 45 45 47 50 49 51 49 52 53 53 53 52 52 54 53 47 52 52 49 48 48 47 43 43 41 41 39 35 39 36 34 33 29 20 16 20 13 14 16 19 15 14 
47 48 46 49 45 54 50 49 50 46 50 49 54 53 50 48 52 54 52 46 43 45 45 47 47 48 45 46 46 46 47 46 47 45 47 41 41 41 46 46 45 45 47 44 46 48 49 50 53 52 48 53 49 50 46 42 45 46 46 43 43 39 39 40 39 37 38 36 33 34 34 29 22 21 13 17 12 16 11 13 
44 44 45 46 42 48 42 47 43 48 49 47 48 49 51 49 48 46 47 44 42 43 47 44 46 45 47 45 50 47 47 44 45 44 43 42 41 43 43 45 46 45 44 41 46 43 42 46 47 49 45 46 47 44 42 36 39 44 41 43 41 42 38 37 38 37 36 35 35 30 34 34 27 22 22 15 12 12 3 1 
43 45 45 45 43 48 47 45 46 47 47 47 47 44 46 41 42 46 40 42 45 46 45 45 48 46 44 49 46 49 46 48 51 46 47 44 45 44 46 43 43 44 47 43 41 42 41 43 46 48 44 49 43 38 36 34 34 36 37 43 41 39 37 41 37 36 38 38 33 31 35 36 27 29 22 18 15 13 6 12 
40 41 42 44 41 48 40 35 40 41 40 41 41 41 39 38 40 44 43 42 45 48 42 43 48 48 46 46 49 47 48 46 47 43 43 42 45 44 47 41 40 45 45 40 39 39 40 37 43 43 42 44 36 33 30 34 37 37 38 39 43 37 38 37 36 36 36 40 32 33 33 30 28 26 19 23 19 18 8 9 
36 38 41 36 35 35 36 31 33 35 35 35 36 35 40 38 41 44 42 39 42 45 45 42 48 45 46 45 48 44 46 40 44 43 46 43 40 42 41 41 37 43 40 42 40 45 38 36 38 39 39 39 35 35 31 30 34 39 40 39 37 41 37 38 38 35 35 36 34 29 29 33 33 29 22 19 23 16 12 8 
35 34 40 37 32 33 33 31 35 33 35 37 37 37 41 40 38 42 41 38 42 45 40 38 47 43 44 45 43 47 47 43 45 44 40 42 43 43 42 41 40 38 42 39 41 41 40 39 38 33 36 39 39 38 35 34 35 40 41 40 39 37 34 36 37 33 34 34 30 31 29 27 26 23 19 18 16 19 11 11 
33 28 30 35 30 33 35 33 35 34 35 34 37 37 36 35 34 41 37 39 41 41 43 42 41 41 45 43 41 44 45 42 44 41 43 40 39 41 40 41 43 40 37 42 39 42 37 38 35 34 36 37 39 38 32 34 35 38 35 40 39 36 33 35 34 28 38 35 31 29 29 29 26 23 21 22 19 14 9 8 
28 22 26 31 33 33 29 35 32 30 33 35 33 36 38 38 41 39 39 41 39 41 40 42 40 42 40 42 42 43 41 44 38 43 40 42 42 38 39 39 40 39 40 38 39 40 42 39 38 33 37 37 40 35 31 39 40 39 40 38 40 36 35 37 35 34 33 37 31 27 31 27 25 24 21 25 19 17 8 9 
24 24 26 34 28 26 29 29 32 34 32 33 35 33 36 33 33 33 36 34 38 39 38 41 38 39 40 42 41 41 42 43 42 37 39 42 41 40 41 43 39 36 38 38 41 40 39 37 38 33 32 32 38 36 34 37 35 39 40 42 41 43 35 36 36 31 32 34 29 27 29 29 25 27 21 20 22 14 11 10 
24 28 27 31 29 33 32 27 30 32 31 32 33 36 37 33 34 36 35 38 36 39 38 37 38 35 40 39 42 38 42 40 42 40 42 41 39 40 42 42 40 39 37 35 38 38 35 34 32 33 25 31 36 39 36 35 41 45 43 45 44 39 36 37 35 31 29 30 32 29 29 29 23 24 21 19 18 12 9 12 
28 26 28 28 29 32 25 26 34 34 35 34 33 33 33 36 31 36 33 36 33 37 37 38 41 39 40 41 37 40 44 40 41 40 40 40 39 38 41 43 42 36 37 36 38 37 37 33 35 31 25 34 36 37 38 38 45 42 43 43 43 43 39 39 32 31 32 32 27 29 28 28 23 22 19 16 17 13 8 0 
28 28 28 31 29 27 27 26 27 30 30 29 30 31 32 35 34 35 38 33 36 38 36 31 42 39 38 39 36 36 42 38 41 38 40 40 39 37 40 38 41 37 39 36 35 35 36 36 34 36 32 29 34 39 38 40 42 45 47 43 42 41 37 40 31 32 27 28 25 25 26 27 21 23 20 18 20 18 10 6 
29 26 27 29 23 31 26 22 29 31 31 29 31 31 29 32 32 33 35 33 33 35 34 36 39 38 36 38 35 38 42 39 40 38 40 38 40 36 37 37 40 36 39 36 34 34 38 34 34 33 32 29 31 39 38 38 45 46 46 41 41 42 40 40 33 30 26 28 23 22 24 23 22 23 19 15 18 15 10 9 
29 26 32 28 26 30 31 26 26 27 30 28 34 35 31 32 33 33 35 35 39 36 37 37 38 35 34 35 38 40 41 41 39 38 38 37 37 36 38 39 37 38 39 38 40 37 33 34 34 31 31 33 36 40 39 38 45 43 44 39 42 40 40 40 35 29 28 30 24 22 19 20 19 17 12 12 15 9 8 8 
28 30 26 32 26 31 29 27 28 28 30 32 32 34 31 34 33 35 36 36 39 36 38 37 37 37 36 37 38 42 43 42 45 40 38 41 38 39 39 37 40 41 40 40 36 39 39 35 34 32 30 32 38 41 43 42 47 47 41 46 39 40 36 32 31 30 27 29 24 20 22 25 21 20 18 15 14 9 8 3 
26 28 30 32 30 31 28 27 27 28 28 31 33 35 33 32 33 36 36 38 34 34 35 38 36 34 37 37 36 42 42 42 42 39 39 41 37 41 43 40 42 44 42 41 38 41 37 38 33 32 33 34 36 41 43 47 49 43 43 45 45 39 33 37 32 27 26 26 24 19 24 20 16 20 16 9 14 12 11 6 
32 29 31 29 30 32 29 30 27 26 30 31 30 35 34 33 33 32 37 39 37 37 35 40 36 36 36 35 40 39 42 43 43 40 43 39 40 40 41 40 43 46 45 44 43 39 39 36 33 37 34 32 34 39 40 40 44 47 46 42 45 40 36 34 32 27 25 25 25 19 21 19 16 18 13 11 18 15 14 12 
37 32 26 32 35 36 31 31 30 25 27 32 34 35 36 32 33 37 34 40 35 37 37 40 42 41 36 32 33 39 45 41 43 44 42 43 40 40 44 41 44 46 42 42 43 42 39 32 31 37 34 36 38 43 45 44 49 47 47 45 44 35 32 32 28 26 27 29 23 25 20 24 16 17 11 13 18 19 11 11 
32 37 35 30 31 40 37 36 31 31 28 28 33 34 33 32 32 29 31 34 34 36 36 38 39 36 40 34 37 32 38 38 40 41 40 40 44 39 41 39 41 42 44 44 43 41 38 38 32 37 31 32 34 37 44 43 45 47 48 41 42 38 33 30 27 26 30 31 23 20 22 21 19 21 16 19 23 16 7 11 


