P2
80 60
882
458 340 280 251 239 210 181 162 153 142 119 105 112 113 108 126 140 186 236 153 123 114 103 93 89 80 64 53 62 82 83 77 76 76 81 81 83 90 86 90 91 88 87 92 90 93 93 95 91 93 94 95 90 94 93 90 96 93 95 91 87 85 80 79 77 73 76 70 68 64 65 64 62 55 52 45 45 52 37 41 
391 298 271 234 219 196 173 161 157 148 132 119 118 113 99 97 145 215 261 130 107 121 112 105 98 87 80 69 70 80 76 73 73 77 83 86 86 87 87 88 83 88 82 89 91 93 93 96 96 100 95 101 95 95 96 93 96 94 92 92 88 81 82 85 80 75 73 73 68 66 66 59 57 55 48 44 46 45 38 39 
321 270 241 221 190 165 166 159 160 142 138 121 123 115 103 99 149 361 273 127 109 120 119 110 105 91 84 81 85 69 69 61 63 69 74 79 81 84 84 84 85 82 79 83 82 92 94 90 95 97 95 94 91 93 91 96 97 97 90 93 91 90 85 83 81 78 72 71 74 68 60 55 59 60 43 38 42 48 43 47 
277 258 227 207 176 162 168 153 155 145 140 126 128 117 108 99 95 127 135 113 108 121 118 116 117 105 87 87 86 84 79 63 62 60 69 64 80 79 85 83 81 82 77 79 82 81 84 95 92 95 101 101 93 94 94 98 98 91 94 90 86 82 82 85 79 78 74 73 71 68 64 59 57 50 48 41 43 46 47 54 
249 237 214 199 170 163 162 147 153 139 139 125 128 126 112 104 95 103 107 106 97 111 122 121 120 111 88 77 90 84 83 75 72 64 67 62 68 79 83 80 85 79 79 82 79 84 84 89 94 96 93 93 95 95 99 96 96 100 93 93 89 90 85 84 83 79 76 70 70 64 65 56 51 51 46 39 54 58 50 70 
226 219 215 200 181 167 161 149 145 135 137 122 133 122 113 96 92 110 115 109 105 109 110 116 120 111 103 92 92 73 78 77 78 67 72 61 66 73 68 79 80 75 77 74 84 79 81 87 85 91 99 93 95 95 98 96 104 102 96 94 89 90 86 85 82 76 82 80 73 70 64 58 56 50 51 51 47 64 57 110 
224 207 212 208 189 170 157 146 144 134 133 121 130 121 109 97 94 115 123 110 108 103 98 87 94 107 121 120 105 79 67 69 73 71 77 73 60 61 65 61 77 77 73 75 74 75 75 85 80 86 90 92 90 97 99 95 97 97 96 95 94 87 84 84 85 80 76 73 66 61 60 53 56 58 51 50 52 65 80 157 
303 260 230 211 199 186 170 155 156 143 130 129 130 122 113 106 97 123 124 112 109 107 99 83 83 86 106 122 124 109 79 77 74 67 74 76 70 64 59 58 66 74 75 73 70 71 77 80 78 82 84 79 87 94 90 91 98 98 97 91 90 85 87 88 84 74 75 68 67 62 62 61 65 56 50 51 54 84 125 192 
387 370 315 268 231 204 211 191 177 157 146 130 132 129 114 105 112 134 126 116 116 113 108 86 92 92 98 117 128 119 112 97 76 75 73 77 72 74 74 62 60 58 63 72 70 74 71 76 80 81 78 82 83 89 94 94 98 95 97 92 91 90 89 90 85 81 72 67 62 66 68 69 66 65 64 62 78 112 189 218 
306 354 395 383 322 272 242 218 214 200 174 147 139 131 107 112 126 137 127 123 121 115 108 93 103 105 106 127 115 104 109 119 108 84 78 74 73 71 79 85 71 63 52 62 69 69 77 74 77 84 82 79 79 80 90 93 96 98 102 101 93 88 89 80 85 80 75 73 72 74 70 67 67 68 70 67 85 153 222 235 
301 311 321 353 394 387 331 277 244 220 207 188 165 140 105 111 130 140 121 122 121 115 108 100 111 110 115 127 113 108 97 114 108 112 93 79 72 70 75 84 87 83 62 57 52 65 69 66 79 77 73 74 74 74 84 88 93 93 96 92 91 87 88 76 78 74 74 73 73 74 72 69 77 74 73 81 115 199 232 236 
395 495 429 350 324 339 393 394 341 288 249 218 212 190 143 118 143 139 127 125 124 120 114 113 122 114 119 131 115 116 110 113 95 86 84 80 71 68 76 97 91 95 84 67 54 54 57 65 68 68 74 72 72 76 77 75 81 83 91 91 87 80 75 77 77 72 77 69 69 78 76 78 80 87 83 90 165 238 246 261 
456 558 647 620 485 343 315 335 391 407 353 283 247 219 202 190 169 136 129 132 126 128 116 120 122 120 123 129 118 117 115 102 97 88 81 76 72 75 80 96 99 93 86 83 73 65 61 62 61 62 67 72 69 75 76 75 80 78 87 87 80 80 74 78 75 78 76 75 78 81 81 82 88 86 84 122 216 262 264 279 
566 586 686 701 653 520 356 273 293 327 384 406 357 289 248 211 187 136 124 131 133 125 118 127 127 127 134 134 120 120 117 111 107 102 92 79 78 82 82 94 103 101 94 89 84 89 76 64 60 61 70 64 68 71 77 75 79 76 75 82 74 75 81 82 78 77 81 85 86 79 87 88 89 84 102 165 218 249 254 263 
641 620 656 674 613 472 365 322 271 259 273 307 375 414 398 279 192 130 122 126 124 126 119 132 129 127 136 134 128 118 118 115 114 109 104 89 91 92 87 89 101 97 97 101 92 85 76 84 64 63 64 58 62 72 73 73 75 75 74 77 78 83 79 76 80 80 85 84 85 83 86 89 89 109 164 214 235 250 238 239 
699 642 576 550 440 352 384 350 396 278 223 230 268 322 408 329 187 134 120 115 123 124 115 127 131 127 145 135 125 122 116 121 114 114 114 106 102 103 97 89 106 103 91 88 89 92 86 83 72 64 59 57 51 59 64 69 77 72 72 81 77 74 77 76 80 85 86 87 88 86 89 91 101 139 228 263 253 252 230 237 
726 673 528 390 314 295 336 389 434 399 342 208 186 212 246 238 171 128 119 113 108 114 109 125 130 136 151 131 127 125 128 121 120 116 120 112 104 104 109 101 108 106 104 94 92 94 90 83 83 76 71 64 60 54 56 66 71 75 79 79 77 79 87 92 90 93 95 94 90 96 98 95 107 182 245 240 250 245 242 258 
729 682 579 439 317 319 436 464 423 352 446 355 178 160 177 191 145 124 119 121 92 72 92 122 133 134 137 133 134 129 123 124 122 116 118 114 103 101 101 99 107 104 110 108 96 89 96 92 87 91 83 69 63 54 60 56 71 72 80 80 81 83 86 92 89 90 97 88 90 96 96 101 126 207 227 218 252 244 252 256 
659 625 555 508 435 444 473 411 314 275 304 253 182 177 175 149 123 118 138 124 93 62 79 96 116 119 127 126 129 123 125 123 120 120 122 110 108 109 100 88 100 101 108 106 94 92 97 95 94 98 91 75 68 69 65 65 69 69 78 88 87 86 83 95 96 93 93 90 94 97 94 102 153 216 238 243 250 260 258 263 
518 509 509 585 595 542 505 362 268 245 224 187 247 393 249 148 130 126 150 126 111 93 90 99 99 97 111 124 127 126 128 128 129 127 123 117 115 121 111 104 106 108 104 101 103 104 99 104 96 97 87 86 84 78 77 78 80 79 90 91 92 88 98 98 100 98 104 98 99 93 103 115 198 255 272 268 263 272 262 279 
364 431 501 557 631 656 680 495 276 242 204 200 364 412 241 185 136 128 123 124 121 113 94 93 88 85 91 118 121 124 125 127 128 123 116 120 119 118 114 109 107 106 110 106 107 104 99 98 95 97 101 95 93 94 97 95 98 89 91 92 88 99 105 109 104 106 105 106 101 102 106 128 241 288 283 266 265 282 286 289 
205 250 360 479 663 693 668 435 260 221 199 215 270 274 296 332 162 127 122 121 123 121 102 86 79 74 86 107 120 122 121 122 125 127 122 121 120 118 116 116 107 106 100 105 106 101 92 92 102 116 103 95 97 106 110 115 137 160 134 119 107 113 115 113 114 115 111 108 106 109 109 128 252 281 275 272 281 303 291 273 
192 218 274 356 658 676 619 394 230 200 212 217 245 263 394 435 221 136 124 118 125 118 109 82 79 79 91 101 116 126 119 119 121 118 122 123 120 119 116 111 108 100 95 104 101 99 98 101 104 132 118 108 116 136 171 200 307 342 257 173 160 156 157 149 133 121 122 120 117 115 111 124 236 279 283 284 288 288 274 260 
161 205 243 326 582 607 548 297 210 217 227 229 255 323 394 456 313 146 124 123 125 122 118 84 80 84 82 94 100 125 119 123 119 122 121 116 116 119 111 109 104 97 84 82 93 103 107 115 127 138 137 132 199 279 329 361 404 400 380 347 323 313 316 296 257 202 190 181 144 124 118 121 207 286 294 284 287 289 256 249 
165 221 333 487 491 485 341 224 240 241 243 258 302 354 470 526 386 157 126 120 121 123 117 86 86 83 80 94 104 121 120 120 114 126 121 124 117 119 110 100 100 98 93 93 99 117 126 130 144 171 207 254 357 400 395 398 421 416 421 415 396 384 394 391 390 373 358 339 247 147 119 119 162 272 289 285 269 268 259 263 
229 375 561 562 413 294 224 315 368 311 298 348 500 575 599 473 256 138 130 121 120 122 117 98 88 86 87 92 103 110 114 117 117 121 125 119 110 111 106 106 105 103 106 101 98 110 131 151 197 279 341 371 394 410 415 418 430 426 434 426 411 407 414 410 420 415 406 392 327 164 131 119 136 228 257 277 264 271 264 265 
283 325 354 353 305 221 218 280 451 472 423 491 623 577 425 257 177 133 123 125 121 120 119 102 98 91 92 91 98 104 109 119 119 117 117 112 112 113 113 107 111 110 102 106 101 112 126 195 281 363 404 381 393 426 431 422 432 435 434 428 419 409 419 421 420 424 416 410 336 184 137 128 137 175 256 278 278 283 275 269 
451 571 424 381 296 247 226 235 364 504 448 568 472 319 241 184 137 124 119 116 117 117 118 108 100 92 89 87 89 97 105 117 114 113 109 109 111 116 113 114 111 107 99 109 104 123 169 250 351 403 411 370 392 414 421 427 432 432 432 428 424 418 420 421 422 419 422 408 344 239 220 230 223 229 279 295 289 281 275 266 
617 679 434 455 505 402 275 214 292 431 503 559 334 242 175 137 128 117 116 117 121 121 117 110 100 88 86 86 81 95 101 112 114 112 120 112 116 119 120 116 113 112 103 113 110 128 194 288 381 413 417 377 386 413 422 430 430 433 436 429 422 421 420 422 419 425 422 414 405 392 379 372 360 348 319 306 286 289 270 268 
673 555 457 581 882 824 461 224 210 256 384 463 305 182 130 142 125 118 109 117 116 118 117 107 100 92 80 75 80 95 105 104 108 117 117 118 117 115 117 113 108 109 104 112 109 132 206 320 403 417 417 399 385 403 417 423 426 432 431 429 423 422 419 421 422 420 421 417 414 411 404 400 398 375 335 305 291 283 270 273 
684 575 401 486 656 756 409 175 167 216 237 216 188 132 151 137 118 108 113 112 114 115 111 115 100 83 71 73 85 95 102 102 108 117 114 114 117 119 117 119 116 114 113 112 108 120 211 339 413 423 423 405 395 414 415 424 426 426 423 425 426 421 422 419 421 423 423 421 421 415 404 404 399 393 348 302 281 292 279 280 
750 593 308 254 278 383 228 170 172 232 248 191 144 152 155 128 120 116 114 115 114 114 113 126 106 80 69 74 78 86 102 109 109 116 124 119 116 120 120 120 116 117 113 111 109 127 200 328 406 422 431 414 404 420 419 426 427 431 425 423 424 420 428 425 427 423 427 425 425 418 413 410 403 399 364 301 292 294 283 285 
540 421 265 215 218 248 247 231 225 248 193 129 142 168 136 120 117 116 114 114 110 120 125 136 126 83 68 64 61 75 91 106 106 112 117 115 115 122 120 118 118 115 110 110 113 129 185 292 383 420 427 423 408 414 417 419 422 423 426 422 424 423 424 426 426 423 427 426 427 428 423 409 402 398 378 311 297 298 300 294 
276 278 231 201 199 233 244 235 229 226 214 188 164 155 124 120 118 111 114 116 117 115 120 119 88 60 45 39 42 61 78 96 94 97 98 112 117 118 117 119 119 118 117 114 115 124 181 256 327 413 427 425 418 403 423 420 425 421 426 419 422 421 423 427 422 427 432 428 429 422 416 413 402 401 374 317 298 304 298 285 
232 251 219 191 201 237 236 217 219 230 225 206 179 136 122 121 116 107 112 119 123 120 107 76 61 41 33 28 42 48 59 78 92 90 81 88 107 115 118 114 115 116 116 120 125 123 186 251 296 380 396 410 417 419 423 415 420 424 427 422 421 423 418 416 418 425 423 427 427 419 419 404 394 393 382 325 303 304 277 272 
241 235 209 176 208 227 224 184 217 301 273 220 160 134 120 120 119 116 111 118 122 120 108 90 83 50 31 56 66 52 42 58 75 83 84 85 88 114 120 116 117 117 118 119 126 128 171 241 268 310 340 339 369 398 401 413 414 417 423 421 423 420 415 410 414 419 428 426 423 417 412 403 399 396 382 335 305 295 273 266 
236 221 197 177 218 222 221 207 322 320 250 184 142 129 116 117 112 109 113 114 108 117 112 109 83 50 41 60 63 57 46 45 61 79 91 89 82 96 115 120 115 120 122 125 131 126 153 229 258 262 285 291 310 337 358 396 416 420 422 422 421 419 416 407 416 421 430 425 419 409 411 404 402 402 390 342 297 279 263 266 
238 223 196 187 229 232 336 437 411 259 198 154 133 121 118 118 114 111 110 116 118 114 116 122 86 57 32 29 78 53 41 42 47 62 84 91 90 85 89 113 119 144 159 147 139 124 132 205 236 245 259 287 309 334 348 387 434 425 422 420 419 420 420 415 415 417 424 418 415 412 412 411 406 403 392 347 295 279 265 269 
253 229 243 258 248 262 492 502 284 200 179 140 124 123 118 115 115 113 112 112 114 118 117 144 125 85 52 30 57 55 45 44 30 50 73 87 80 73 68 89 125 312 284 161 142 126 128 166 226 237 247 275 301 326 358 408 430 430 432 417 418 419 418 414 407 402 405 401 398 400 407 403 409 410 394 350 293 282 263 265 
275 265 442 399 269 262 439 339 218 193 165 132 128 121 111 116 112 110 109 109 114 119 118 141 124 84 48 24 14 38 48 53 49 34 45 64 71 72 65 80 118 279 350 179 136 125 125 138 196 233 243 260 281 314 339 408 434 434 431 416 408 403 393 382 366 351 334 324 338 350 367 386 401 412 403 357 303 288 269 276 
288 303 506 486 270 227 214 206 210 184 146 125 117 114 110 114 107 107 107 112 112 109 117 144 126 85 29 0 8 40 54 61 53 44 30 43 55 63 82 87 110 141 190 143 130 125 122 127 143 197 230 242 254 284 346 404 428 418 410 398 381 340 318 292 254 211 184 179 180 200 228 280 338 380 393 338 297 284 274 288 
276 417 686 478 259 234 227 245 254 170 127 118 116 113 108 107 105 106 108 110 115 111 120 141 120 83 46 34 40 64 55 70 71 63 42 32 52 76 81 94 102 111 120 118 122 122 117 118 113 131 194 207 221 248 282 324 351 341 326 312 286 246 212 180 157 135 131 128 132 134 142 152 191 292 349 302 280 281 274 271 
256 557 880 528 271 351 382 352 294 145 124 109 111 109 108 112 104 102 106 110 110 109 120 139 123 100 70 40 41 40 48 72 83 73 50 42 54 75 80 86 101 101 105 105 111 110 114 114 104 101 132 168 196 206 217 235 259 252 227 198 168 157 139 128 124 117 118 120 118 113 123 120 150 236 291 273 272 267 261 269 
235 455 728 410 251 358 363 353 202 128 113 108 113 110 103 103 103 105 103 109 109 111 121 138 115 69 42 52 56 53 47 45 48 54 47 51 56 54 62 74 79 90 88 94 93 97 103 105 98 94 117 149 163 178 199 237 323 267 164 110 95 109 117 117 113 112 112 112 114 116 121 117 129 184 237 252 258 262 260 260 
216 216 259 250 225 290 363 273 139 114 112 104 112 107 108 107 96 101 105 109 114 108 121 129 119 92 63 48 52 53 49 50 50 43 38 41 45 49 53 59 67 75 86 84 82 84 91 86 79 84 112 134 147 165 188 399 614 376 154 84 75 96 106 107 109 112 117 110 112 113 118 111 114 132 172 227 248 264 263 262 
200 166 176 219 218 245 239 147 106 101 99 101 108 104 103 101 99 101 105 108 107 110 122 134 117 78 51 47 49 45 46 42 40 32 28 37 49 53 56 61 60 63 70 77 77 72 61 59 72 88 108 117 147 129 135 298 504 320 139 83 72 91 105 110 113 112 113 112 118 111 117 112 115 115 131 178 238 274 264 270 
192 161 172 212 199 161 121 93 93 82 86 87 99 102 102 101 98 102 100 107 106 110 113 129 107 54 42 36 49 56 50 46 39 38 23 17 55 71 69 66 67 64 67 68 63 63 75 90 91 95 98 111 144 118 124 161 210 182 133 86 74 83 98 106 105 109 112 108 111 112 109 109 110 109 109 162 235 270 263 260 
182 152 175 206 191 134 113 88 87 77 78 66 80 82 89 94 95 95 102 105 105 109 114 127 104 49 17 12 45 54 53 44 48 44 45 31 53 76 80 73 71 55 51 73 89 93 95 99 96 102 98 106 128 110 105 109 121 172 150 91 77 80 93 103 107 109 112 107 107 104 113 111 110 109 110 149 233 269 248 243 
172 155 186 200 184 117 93 73 79 73 75 66 62 65 71 80 86 92 95 100 104 103 110 124 111 60 31 34 53 52 57 55 50 52 59 40 40 80 102 90 74 82 90 103 102 96 94 104 111 125 101 90 109 98 94 100 103 107 111 84 75 80 100 104 109 110 104 105 106 103 108 109 109 104 108 147 240 258 238 233 
259 264 217 202 169 95 74 61 69 69 66 68 70 69 59 60 62 63 75 81 89 93 99 116 108 75 35 31 49 48 48 51 53 49 60 42 56 97 122 118 115 108 110 117 122 113 117 122 123 130 109 92 110 97 89 88 83 88 80 79 77 84 99 102 101 101 104 104 104 102 108 105 103 99 108 143 226 244 232 251 
385 305 240 205 164 99 74 60 67 62 66 57 67 71 60 61 67 59 61 68 71 76 93 113 102 68 42 46 50 54 42 55 52 51 61 75 89 112 115 122 127 121 116 112 118 122 117 116 110 130 112 93 100 97 81 76 80 79 81 75 73 80 92 98 99 100 104 102 100 103 103 103 103 103 109 144 220 248 253 284 
469 358 237 203 165 111 83 66 71 69 64 53 62 58 54 62 64 72 67 76 70 64 75 98 105 75 69 58 71 81 78 75 71 68 70 82 100 106 111 120 124 122 116 122 118 125 116 110 113 122 108 93 94 87 83 81 86 81 79 81 83 88 97 101 101 100 101 96 99 99 100 102 100 96 106 144 215 260 277 268 
425 314 222 203 184 139 103 86 77 68 56 49 52 54 54 62 68 65 73 74 74 72 80 108 111 102 83 69 82 98 94 91 88 105 124 104 106 115 109 112 117 126 123 121 122 118 115 121 113 120 107 88 97 94 79 89 93 97 96 91 88 90 96 100 99 99 98 96 98 99 97 101 103 101 99 120 200 265 250 236 
299 203 203 200 179 146 102 88 81 75 66 54 62 65 57 60 64 57 65 78 71 61 68 108 116 111 98 64 78 112 101 98 139 228 157 115 110 103 104 105 112 120 127 127 127 128 122 121 117 111 95 82 94 99 98 97 104 98 99 95 95 96 101 100 104 97 98 97 96 97 97 96 97 95 92 100 173 236 218 229 
195 185 201 201 178 145 118 92 90 79 72 72 78 76 64 63 71 67 71 76 80 60 58 98 115 104 85 64 81 121 117 112 148 163 129 116 109 109 107 106 109 116 127 130 131 125 118 121 119 113 107 96 105 112 111 114 111 105 106 98 101 99 106 104 106 102 101 103 102 99 100 91 98 95 90 85 132 202 210 228 
179 183 201 199 171 142 133 111 103 86 79 76 90 87 80 79 79 75 78 85 85 72 66 96 113 105 101 72 76 115 127 112 121 113 125 124 111 109 105 106 103 108 121 126 123 125 124 123 120 118 119 112 113 111 118 117 113 115 106 106 102 98 102 103 102 107 103 106 98 97 102 98 98 98 90 84 97 152 194 230 
173 178 181 186 175 145 133 127 127 117 100 95 101 97 94 90 91 84 85 95 90 82 77 104 114 106 106 92 76 115 132 109 103 101 123 128 122 115 107 100 105 109 113 122 122 125 123 127 125 128 124 121 118 118 119 119 120 116 115 114 103 99 105 108 105 107 103 105 95 100 98 98 95 94 84 81 78 110 128 174 
165 169 175 171 170 166 169 153 150 126 119 111 113 115 107 100 99 89 90 96 99 97 101 113 112 105 116 114 103 146 140 114 105 103 123 124 121 117 111 106 102 94 101 112 125 128 123 129 127 125 124 125 122 120 122 126 145 181 164 124 107 105 104 105 109 109 105 96 99 97 102 93 94 99 87 79 79 84 80 107 
198 191 172 164 164 159 174 169 168 150 131 121 124 123 122 115 115 113 103 109 110 117 124 122 117 113 118 123 118 201 156 123 113 118 129 133 131 128 118 117 109 98 107 118 132 135 131 130 133 135 128 128 126 138 152 185 324 461 343 174 119 106 105 108 105 104 105 102 105 98 102 98 99 94 87 82 84 87 70 75 
224 215 203 201 189 179 179 163 163 148 130 115 124 122 121 125 124 116 118 123 126 134 127 119 117 117 122 127 121 163 148 122 110 118 132 134 129 129 118 119 122 115 115 119 128 137 129 125 131 139 132 124 121 142 155 256 522 587 398 187 116 111 116 111 112 110 107 104 103 104 107 98 101 102 95 93 94 95 92 91 


