P2
80 60
155
80 78 79 71 77 80 80 81 79 77 78 79 77 80 76 80 82 79 80 80 77 76 74 70 75 77 76 75 83 78 79 78 75 67 71 71 69 68 66 70 66 68 60 64 62 67 62 62 60 63 62 58 63 60 57 60 62 70 69 71 70 62 55 59 67 70 72 73 71 72 70 75 72 70 68 70 67 62 63 69 
81 82 87 74 79 82 74 80 78 83 83 82 81 84 80 82 84 83 79 79 81 76 75 72 76 77 79 80 87 79 79 76 69 65 69 74 71 71 68 67 65 65 61 57 59 66 63 62 61 55 55 56 59 60 61 60 60 68 70 71 69 67 58 64 68 67 78 70 73 75 75 73 73 71 69 70 65 66 62 70 
82 77 80 84 94 95 89 96 93 86 86 81 85 83 81 84 85 77 83 83 83 82 79 70 78 78 80 82 84 80 78 73 67 65 72 71 73 72 69 65 64 63 60 56 58 65 61 53 52 49 49 54 53 62 63 61 62 65 63 67 65 65 65 65 69 69 64 74 74 76 74 74 67 73 68 68 68 66 64 71 
93 99 94 95 111 113 114 118 110 106 96 84 83 83 84 83 83 84 84 85 83 81 81 70 76 78 80 83 83 81 75 65 68 71 73 72 72 73 67 66 62 62 62 56 58 59 50 43 25 28 28 38 49 57 60 63 58 63 64 61 65 61 63 62 71 71 69 69 73 74 71 72 72 66 66 69 66 65 67 75 
115 113 113 117 127 133 131 138 131 119 106 88 85 86 84 84 87 81 84 84 84 81 77 74 80 83 78 83 79 75 64 63 69 65 74 75 71 68 68 61 61 62 58 59 60 55 36 20 18 16 14 17 29 51 59 63 63 65 61 61 63 64 61 59 68 69 68 65 70 67 67 68 67 63 62 66 66 64 65 76 
135 134 133 139 138 135 137 138 126 120 110 84 84 86 85 81 84 84 85 80 83 80 74 79 78 80 79 78 72 64 63 66 72 70 75 69 69 69 61 62 62 57 58 56 59 44 19 10 10 3 14 18 22 37 55 60 65 67 64 61 58 61 63 62 66 65 69 69 67 71 73 68 65 57 57 63 64 67 70 75 
144 141 147 152 150 138 140 132 125 117 105 86 85 87 84 79 86 83 85 84 79 80 84 77 80 81 83 79 68 68 65 71 70 71 71 68 69 66 64 62 58 61 58 57 54 38 11 9 9 3 4 17 17 32 49 61 63 62 61 61 61 59 59 62 70 68 64 65 67 66 71 67 65 62 60 66 63 64 67 75 
142 145 144 155 155 130 131 134 119 112 101 89 85 81 85 82 84 82 80 79 75 79 79 77 79 81 80 76 68 67 70 68 70 68 65 70 69 68 61 59 60 59 58 61 55 37 8 2 2 0 5 9 16 32 52 56 64 64 60 58 59 57 58 61 64 65 70 65 64 66 61 63 68 63 63 66 64 64 67 72 
141 143 150 151 151 135 136 130 118 105 102 87 85 87 86 83 81 84 83 82 77 78 77 82 82 79 80 73 68 71 70 71 70 68 67 73 68 69 62 59 58 55 59 58 56 45 13 8 10 7 11 16 18 29 51 58 60 60 63 59 61 59 57 56 58 64 67 65 64 68 55 54 66 65 67 66 69 64 68 84 
131 140 140 139 149 140 128 120 107 94 91 87 82 85 84 81 84 84 81 80 77 83 81 80 84 78 77 67 71 72 71 70 70 70 72 71 66 69 62 60 57 59 53 56 58 49 21 13 13 11 11 19 25 41 53 61 61 64 62 61 56 56 56 54 54 57 57 63 67 68 62 49 62 64 65 69 68 65 70 108 
128 122 121 123 129 124 112 107 91 84 82 81 87 83 82 81 84 84 78 81 78 77 78 76 76 75 71 67 66 70 70 64 63 67 65 65 69 64 63 58 57 56 51 55 56 58 42 33 28 16 17 25 38 47 52 61 61 60 60 53 53 51 52 51 48 47 52 60 65 71 62 51 55 62 61 63 60 66 82 112 
111 109 108 108 109 101 96 92 82 81 84 85 78 81 80 75 77 85 79 78 79 77 79 68 79 73 66 68 67 70 67 62 61 66 65 68 64 65 63 60 58 56 55 59 62 54 51 48 44 38 40 45 54 54 47 54 57 61 61 56 51 53 49 48 46 42 51 56 58 67 65 65 54 60 57 58 55 64 83 121 
100 94 95 91 92 91 82 81 75 80 85 79 81 77 83 77 80 79 79 83 76 80 79 73 74 72 70 69 68 67 66 68 64 66 60 62 62 60 60 58 56 51 53 54 54 52 54 54 50 52 54 54 57 55 48 52 54 58 60 58 52 53 46 49 43 47 46 50 50 56 63 62 61 62 51 55 50 54 76 106 
84 83 85 79 89 89 78 81 71 76 77 81 81 81 82 80 77 79 76 77 78 76 78 70 73 72 70 70 69 65 60 64 68 63 63 62 60 61 59 58 55 51 52 52 55 56 53 54 54 52 58 53 53 53 51 60 54 57 57 53 52 54 49 47 46 42 46 48 50 49 59 63 64 57 53 45 39 51 68 99 
85 86 82 82 83 82 78 80 78 80 82 85 83 80 83 80 84 81 81 81 79 79 80 75 73 73 71 75 70 66 67 61 65 66 64 58 57 62 61 59 56 59 58 57 58 56 55 55 52 56 58 52 57 57 53 57 56 60 60 58 55 52 52 52 50 50 45 49 43 43 54 55 60 62 59 54 37 45 52 84 
80 79 78 78 80 78 82 78 79 80 83 84 82 83 84 85 82 85 81 81 82 78 78 72 69 69 69 70 66 63 62 68 60 55 48 45 39 54 47 59 56 59 55 57 56 57 53 55 58 54 50 60 53 58 53 59 60 59 58 56 52 51 50 47 50 49 50 46 40 42 51 69 63 57 61 57 37 35 47 67 
82 84 80 81 82 82 79 80 80 82 85 85 86 84 85 82 84 83 81 83 84 77 79 70 72 72 70 66 69 67 66 62 59 42 30 24 25 33 43 49 53 59 60 58 58 60 57 57 59 57 56 57 60 53 55 58 56 59 56 57 57 51 51 54 53 49 51 49 45 46 51 57 64 63 60 58 49 40 47 55 
84 83 83 79 84 83 78 80 83 82 84 84 87 82 85 79 83 80 85 86 84 77 75 73 73 73 73 72 69 67 68 63 55 30 19 20 20 21 29 38 52 59 58 59 59 59 57 55 60 56 57 57 56 55 55 56 54 57 59 57 52 51 54 51 52 48 53 48 46 48 52 62 64 61 64 59 56 49 43 52 
83 82 86 78 87 85 83 84 82 83 84 83 84 85 83 82 81 82 85 82 80 76 75 67 73 70 74 71 70 68 64 60 47 22 18 15 10 22 28 28 50 61 58 59 58 58 61 58 57 57 54 55 58 57 55 56 55 57 59 58 56 55 49 52 50 48 51 49 48 51 53 57 64 62 65 61 61 57 48 42 
83 83 76 80 86 80 81 85 80 82 86 87 85 88 87 84 80 81 79 79 80 79 79 72 74 69 70 68 67 65 64 61 49 25 11 10 14 25 25 31 50 58 58 56 59 59 54 59 55 61 60 64 55 54 52 54 53 59 57 58 54 52 49 50 53 46 54 52 53 46 53 58 60 56 60 62 63 66 52 37 
80 82 81 80 84 85 80 87 87 84 88 84 91 91 85 81 81 79 75 78 82 82 80 68 69 73 70 70 68 65 65 62 58 35 13 21 20 22 24 32 43 59 58 57 58 58 60 57 59 61 61 55 54 57 53 55 52 59 56 57 50 55 53 52 58 51 53 53 52 49 55 56 60 61 62 63 66 58 58 52 
84 85 83 76 84 83 80 82 82 84 88 85 84 83 83 81 78 80 79 80 81 79 76 68 68 69 69 69 65 65 60 59 59 43 24 22 21 29 29 35 47 58 55 58 54 58 56 61 59 59 59 56 56 54 53 53 55 56 56 58 58 52 54 51 53 51 55 51 50 50 53 57 58 57 58 59 61 65 60 59 
85 84 83 78 84 78 78 80 85 83 89 85 85 85 82 83 79 80 79 78 81 81 80 68 71 68 69 66 66 65 66 59 62 50 45 35 34 38 38 50 54 55 60 57 54 57 56 58 57 62 59 57 56 54 52 50 51 53 53 54 52 54 54 53 51 53 52 50 52 49 51 54 58 58 57 59 58 57 56 58 
79 77 81 77 83 78 78 82 83 87 87 82 85 83 84 82 80 81 79 80 79 76 81 69 69 64 65 68 65 65 63 62 60 60 47 48 45 55 51 51 52 53 57 58 54 58 56 57 61 59 59 55 55 51 49 50 54 55 52 51 51 56 55 53 53 52 53 51 50 49 48 54 55 55 54 57 54 52 52 61 
83 84 83 82 77 78 83 87 88 83 89 87 86 84 85 84 81 81 80 79 80 78 84 73 70 70 66 67 66 65 64 61 59 62 60 64 56 55 57 55 60 54 62 57 59 57 56 60 61 60 56 56 52 52 53 52 53 54 57 54 57 55 54 57 55 54 53 50 50 55 52 52 51 55 55 53 51 53 52 57 
78 80 85 78 79 79 81 85 83 81 87 82 81 82 77 81 80 78 79 79 79 77 82 79 78 73 67 66 69 62 65 61 63 61 61 62 62 62 60 59 57 52 61 57 56 59 56 57 59 57 55 56 54 54 50 51 52 58 55 55 50 55 50 52 54 52 47 47 47 51 52 51 51 50 49 53 50 48 53 57 
78 81 85 78 85 79 82 85 81 80 83 82 84 85 82 78 80 82 83 83 78 78 82 74 76 71 73 64 68 65 66 66 65 63 60 64 59 66 63 57 58 56 61 57 56 58 56 59 60 58 60 57 53 55 53 52 53 54 59 52 51 47 52 47 51 51 50 53 49 49 52 53 51 49 51 55 55 47 52 63 
84 85 83 81 84 81 80 83 84 81 84 85 83 82 82 84 79 84 84 83 79 80 83 74 81 76 77 70 67 66 67 67 64 64 64 60 61 60 57 59 60 56 60 57 57 55 57 61 57 59 57 53 56 50 51 53 52 56 55 51 51 53 48 46 45 48 50 50 49 52 52 54 50 57 54 55 52 44 52 56 
76 82 86 79 82 79 80 82 81 83 85 80 82 83 78 81 78 79 81 81 81 78 83 77 77 73 76 73 70 65 63 65 65 66 61 64 61 62 60 60 60 52 58 58 54 53 56 55 58 57 57 58 54 49 51 55 56 54 57 53 49 50 48 46 40 49 47 49 51 56 51 55 51 49 49 53 54 50 47 52 
78 82 87 77 82 77 83 82 84 81 80 80 83 82 81 78 79 81 81 81 77 82 85 78 74 74 73 79 76 66 64 62 65 64 65 63 61 60 59 58 49 57 53 55 55 56 54 55 55 58 55 54 53 53 48 49 52 54 56 53 51 47 46 41 42 49 44 51 49 52 50 55 52 52 49 49 47 46 48 54 
78 77 82 77 80 80 77 82 81 81 87 81 82 82 80 82 81 80 82 80 81 82 81 81 78 78 78 79 81 76 67 64 65 64 67 62 65 61 59 58 60 59 52 53 54 57 51 56 57 57 58 57 52 51 48 51 53 56 52 52 50 47 42 45 43 49 48 48 54 52 51 51 52 48 45 49 45 43 43 49 
79 82 83 81 84 80 83 86 85 84 88 85 84 86 78 83 85 84 80 83 83 85 83 83 78 78 77 79 78 76 74 68 65 67 70 69 65 65 57 60 57 58 54 56 55 57 57 55 57 57 58 56 53 53 53 51 55 56 55 55 51 51 51 53 47 50 48 55 54 52 51 54 50 50 52 50 46 42 48 54 
77 75 82 83 85 83 82 86 87 87 87 88 87 86 81 80 84 84 86 82 84 87 88 83 85 81 83 81 79 77 78 77 67 70 65 69 66 63 66 59 61 57 53 53 56 55 55 57 56 57 57 55 53 54 51 57 58 58 55 54 50 53 49 50 52 50 49 53 51 51 49 54 52 50 49 48 46 43 41 50 
80 80 81 79 82 79 81 89 84 86 88 84 85 85 83 84 80 83 82 80 83 83 88 80 81 81 83 81 81 79 74 74 71 70 65 66 67 65 63 57 56 59 55 53 53 56 55 58 56 58 55 55 56 53 53 51 54 52 53 47 48 50 51 50 48 45 48 48 49 46 44 46 50 48 47 48 44 44 41 47 
82 79 80 78 83 77 82 85 85 85 91 88 84 84 81 82 84 82 84 82 81 85 85 85 82 79 82 84 75 77 76 73 72 72 67 64 65 62 62 57 58 58 54 52 53 56 56 57 57 58 56 57 53 54 51 53 52 53 54 52 51 53 50 51 52 44 39 42 42 44 49 43 44 48 44 42 42 41 39 45 
79 77 81 75 80 75 83 85 82 86 86 86 84 88 80 83 84 83 81 83 85 83 85 83 85 81 83 82 81 83 73 75 75 74 72 64 69 66 63 63 60 58 57 56 52 53 52 57 56 59 58 53 50 50 49 53 54 56 53 48 49 51 48 50 46 37 34 34 39 42 44 44 49 43 41 44 43 37 39 39 
77 79 81 79 81 78 82 82 83 84 87 83 83 86 83 81 82 78 80 82 79 86 86 81 83 85 83 83 80 84 80 76 77 76 76 68 69 63 64 62 60 59 57 54 58 53 54 57 59 59 56 53 50 50 49 54 53 54 49 48 51 47 49 47 42 33 13 17 23 35 43 42 46 43 44 44 40 38 42 45 
80 79 79 74 75 76 76 78 80 82 84 78 79 80 82 81 83 84 81 83 79 82 83 79 83 80 80 80 80 85 75 78 77 73 77 71 66 65 63 60 64 58 59 57 55 55 54 58 56 58 54 55 50 52 50 52 55 54 47 40 48 45 42 48 41 25 10 3 13 29 39 42 44 46 45 43 38 38 40 43 
77 79 78 74 81 76 79 82 81 79 80 82 80 81 81 81 82 83 87 79 76 79 81 81 83 83 83 83 84 82 79 76 77 74 79 78 73 68 62 59 60 62 60 55 58 58 58 58 56 57 50 54 53 52 49 52 54 53 48 45 38 40 38 41 34 24 14 3 3 21 28 35 41 44 41 45 43 40 36 42 
78 78 76 72 77 76 78 80 78 78 83 84 82 80 80 81 79 86 82 81 80 82 86 76 77 80 83 83 86 82 79 80 81 84 76 75 74 72 68 59 62 59 61 62 59 60 59 58 55 56 55 53 53 48 48 53 54 51 50 43 38 34 38 37 32 28 23 11 11 27 33 37 39 41 41 43 41 35 40 44 
79 81 72 75 75 77 75 83 75 78 81 86 83 83 82 80 81 82 83 81 82 81 85 78 82 82 82 82 85 84 78 80 83 81 81 80 71 72 69 69 62 60 59 62 59 60 60 57 57 57 52 55 53 49 50 55 52 52 50 46 38 33 33 37 35 34 33 26 24 33 37 42 39 45 46 44 40 38 37 41 
80 77 79 76 77 77 75 80 78 75 81 83 83 87 83 81 84 81 84 85 84 81 84 78 79 80 82 85 85 83 82 82 80 83 81 83 81 77 71 72 70 63 58 59 59 60 59 60 58 56 55 56 51 53 53 52 49 50 53 45 40 35 30 32 36 38 37 36 37 38 43 42 41 41 44 43 42 39 38 41 
77 75 78 73 78 76 72 75 72 78 82 79 79 81 86 81 84 83 84 84 81 84 85 74 81 81 78 84 84 82 77 83 80 82 81 78 77 76 75 71 71 65 63 59 61 59 62 61 59 56 54 55 52 51 46 46 45 50 50 45 40 33 30 33 36 36 36 36 39 40 42 44 42 38 39 41 42 38 39 42 
72 67 73 69 74 71 72 76 76 73 79 80 82 79 80 80 83 80 82 84 81 82 82 75 79 79 79 79 81 79 77 80 79 80 79 79 81 82 76 74 73 68 63 64 58 61 61 58 60 56 57 54 51 47 43 43 45 47 46 45 44 41 32 37 33 37 36 37 37 34 44 43 44 38 40 43 39 37 40 39 
77 70 72 70 73 73 69 76 73 72 79 81 79 81 79 79 77 78 81 81 80 78 80 72 76 75 76 75 77 76 76 75 79 79 80 80 80 80 80 70 71 73 67 65 60 52 56 60 58 57 53 52 48 44 44 47 45 46 48 45 46 38 40 36 34 34 40 39 35 38 39 43 39 39 37 38 42 40 37 38 
74 73 72 74 78 74 71 73 75 72 78 81 83 81 78 78 83 80 80 80 80 81 84 72 74 74 73 73 75 74 75 75 75 78 80 78 77 76 75 76 73 73 70 69 63 61 55 60 58 61 55 54 52 48 48 48 45 47 48 47 44 47 41 41 40 39 45 41 43 44 48 44 46 39 39 38 37 43 36 38 
73 73 75 73 75 72 71 73 74 74 77 79 77 80 82 82 80 79 80 79 81 83 83 71 72 59 56 66 69 75 69 74 77 81 77 82 84 82 81 76 74 72 72 70 71 63 60 61 60 60 56 58 52 51 45 48 47 50 51 48 45 45 43 43 42 39 38 41 41 44 47 46 48 42 40 41 42 42 39 44 
74 77 74 73 75 75 70 74 70 74 78 79 81 77 77 81 79 81 81 81 79 80 81 69 69 51 38 47 60 68 71 72 77 77 79 80 79 80 79 76 78 74 68 74 73 73 62 62 59 60 58 57 51 57 47 49 46 53 49 49 43 44 43 41 43 45 45 46 44 45 45 47 49 48 46 44 40 34 32 34 
70 77 75 69 76 73 72 72 74 74 74 75 76 75 79 80 81 82 83 80 81 78 79 71 67 52 28 33 50 65 70 72 75 76 78 82 78 79 78 78 72 76 78 74 71 70 67 64 63 63 59 56 55 50 48 51 51 51 52 47 47 45 45 46 42 45 42 43 43 45 42 42 43 42 41 43 41 35 34 38 
73 71 71 66 73 70 67 72 72 75 75 77 75 79 77 77 77 75 76 80 78 78 81 69 70 61 43 40 46 60 66 70 75 76 76 79 79 81 78 74 76 75 71 75 76 75 70 69 63 61 59 56 56 53 49 49 48 52 48 50 47 47 44 47 43 38 41 41 42 42 43 43 44 38 43 40 38 36 33 35 
72 71 74 75 78 75 75 75 77 72 78 76 80 82 81 81 80 80 81 81 79 77 80 74 74 70 63 54 56 61 67 72 78 78 77 78 80 82 80 78 75 76 76 71 76 77 75 75 69 63 58 60 58 61 53 54 50 54 56 54 52 48 46 44 48 43 45 43 41 44 45 41 43 43 42 40 34 36 32 37 
73 70 72 71 72 76 70 73 73 77 80 78 79 80 79 79 77 82 76 83 77 77 78 72 74 70 70 70 63 71 69 71 73 76 79 80 81 79 80 79 75 78 74 74 75 79 77 74 79 73 64 61 57 54 54 59 53 53 53 50 47 51 44 46 47 42 47 40 45 42 47 47 46 38 40 40 34 28 35 34 
73 71 73 70 76 74 73 74 71 72 75 78 77 78 78 80 82 78 79 80 82 79 81 68 73 73 73 76 72 69 72 71 76 77 80 80 79 84 78 77 80 79 77 76 77 79 80 82 79 77 75 66 61 60 56 58 54 58 57 52 48 47 44 47 48 47 48 45 46 48 45 45 48 45 41 41 38 35 33 41 
70 68 75 70 72 72 73 74 72 77 78 78 77 79 78 75 79 77 77 75 76 78 78 72 74 76 77 73 73 82 75 72 72 76 78 77 81 78 76 77 78 78 78 76 79 78 78 80 78 79 77 72 65 62 59 57 59 58 56 49 50 51 50 49 51 47 46 46 44 46 44 46 48 44 41 44 38 34 34 43 
70 76 74 70 76 75 72 77 74 72 74 77 78 78 79 77 82 81 77 75 81 79 83 75 81 78 79 79 78 79 75 79 74 77 79 84 80 84 78 79 80 79 80 84 84 82 80 83 84 81 81 81 74 65 56 60 60 60 59 55 55 53 55 51 53 47 46 48 51 48 48 47 48 46 47 41 40 34 35 39 
75 76 80 72 77 73 73 78 73 73 78 76 78 81 79 76 81 79 80 77 80 83 86 82 84 84 82 80 83 81 79 78 76 80 82 80 78 81 82 83 81 86 85 81 79 86 81 82 81 80 78 81 81 71 66 66 64 63 62 60 54 56 52 50 51 49 50 48 48 50 50 48 48 46 46 42 42 41 38 39 
74 77 78 75 78 74 74 75 74 74 77 81 86 83 79 78 83 82 79 85 82 80 85 78 82 83 85 84 76 81 79 81 82 77 82 83 82 86 84 83 88 85 85 83 81 78 81 86 87 87 75 81 83 82 71 67 65 66 63 62 55 61 56 55 55 51 50 51 50 52 49 49 50 45 47 48 39 39 39 35 
79 73 78 74 78 76 76 76 74 75 75 78 78 81 80 81 80 83 82 81 84 79 81 79 82 81 84 84 79 80 76 82 82 78 82 80 82 84 82 85 85 85 83 81 81 85 83 85 82 83 83 84 80 78 74 73 68 63 62 60 58 59 55 53 54 53 52 50 49 53 50 48 53 52 47 45 42 37 40 38 
77 78 75 73 79 75 77 78 73 75 82 81 79 83 81 79 81 84 80 84 83 83 84 85 85 84 82 82 81 81 76 80 85 86 86 89 87 86 88 87 86 82 83 85 83 83 81 84 84 83 81 82 79 85 80 79 77 75 65 66 63 58 58 53 54 50 55 49 51 53 51 50 47 50 46 48 44 37 33 43 
74 77 73 75 77 75 75 76 75 78 80 82 84 83 86 81 83 79 80 81 83 83 85 81 82 85 84 89 84 85 81 87 90 84 89 89 88 88 86 85 86 83 87 86 82 86 77 81 84 81 78 80 80 81 81 77 79 72 72 70 61 64 61 56 55 54 54 51 47 51 51 49 52 53 48 46 44 37 38 38 


