P2
80 60
140
16 18 16 18 18 18 19 15 15 22 27 24 21 26 26 22 28 23 26 24 23 22 19 22 18 21 17 23 21 20 20 23 15 19 14 16 14 13 17 12 13 7 13 14 14 10 12 9 11 11 13 11 11 11 15 17 17 16 20 19 26 24 30 35 44 52 55 56 54 58 64 70 71 77 84 88 91 106 109 113 
22 15 14 16 12 16 17 17 16 21 24 26 22 28 24 18 22 20 22 23 15 18 22 18 22 22 20 20 26 22 22 18 13 15 14 15 12 17 13 13 10 4 9 7 8 10 11 9 10 9 12 7 13 15 20 21 22 29 27 35 41 40 46 41 51 59 64 73 73 79 90 91 93 88 95 99 103 107 114 122 
20 18 17 17 11 17 15 17 13 21 25 19 21 20 21 25 21 23 23 17 18 12 27 21 15 22 20 19 18 21 15 19 12 12 10 15 10 10 12 12 13 6 9 10 9 8 13 10 6 14 13 13 12 11 22 22 28 33 43 40 47 46 54 63 65 77 71 68 70 82 90 96 100 97 91 95 103 112 114 121 
20 14 16 17 14 17 14 18 15 20 21 24 24 23 21 19 22 21 21 14 16 19 23 19 18 23 19 19 22 22 15 15 14 14 14 16 9 10 17 8 10 6 11 8 8 11 10 6 9 8 12 9 10 19 25 28 35 42 48 55 62 66 70 74 79 86 82 86 85 82 81 92 94 92 90 97 105 112 124 125 
16 13 15 17 15 13 13 14 13 15 18 17 21 22 21 20 25 21 17 15 17 15 22 22 16 16 17 19 20 19 16 18 13 12 13 13 18 11 12 12 10 8 12 8 10 8 7 6 6 6 9 9 13 18 20 30 35 42 40 54 64 71 84 87 93 100 89 89 85 86 87 86 93 90 91 103 102 111 117 123 
18 16 13 14 11 15 14 13 11 14 14 13 15 19 19 21 24 20 14 15 12 14 23 23 16 17 16 16 22 19 13 17 12 11 11 11 15 10 10 13 12 9 10 8 7 6 9 5 7 6 8 8 11 17 24 29 30 38 42 56 62 72 80 90 95 100 98 95 87 82 88 87 91 92 97 96 106 110 119 129 
18 17 15 14 12 14 14 12 13 14 10 15 13 14 18 20 18 20 12 15 14 15 17 17 17 15 14 15 19 16 12 11 11 9 9 9 9 10 12 10 11 9 13 10 8 9 11 5 8 8 10 9 11 13 23 23 29 38 44 54 65 76 77 86 92 97 94 90 84 79 85 83 92 92 100 100 105 112 121 128 
16 16 16 13 16 13 12 17 15 12 14 16 12 14 18 21 26 16 12 14 12 17 20 25 12 17 21 16 17 14 14 13 14 10 6 13 4 4 13 12 12 9 11 10 9 11 12 7 10 7 8 7 11 10 19 25 31 36 43 59 74 72 87 86 87 92 86 82 82 82 88 90 90 82 100 102 102 113 125 133 
20 20 14 18 15 17 13 15 14 15 12 13 15 15 21 22 20 12 13 17 16 16 26 14 16 22 22 20 18 14 15 13 12 6 13 14 8 7 12 11 15 11 12 13 9 9 13 11 13 11 9 9 9 12 18 22 29 34 36 48 61 66 80 76 84 87 81 81 72 71 73 72 83 75 94 95 99 108 128 136 
29 23 20 15 15 17 13 12 11 15 16 14 13 13 18 21 18 13 18 19 18 19 21 19 19 21 19 17 15 16 12 14 11 9 8 14 10 8 12 9 13 10 13 10 8 9 12 9 9 11 7 10 10 11 14 17 17 22 23 35 47 49 58 58 66 66 76 78 71 59 62 50 58 61 65 77 83 100 123 134 
45 35 22 19 13 16 16 12 10 14 11 22 15 12 19 19 15 19 23 20 18 16 19 18 18 17 13 16 17 13 11 9 11 6 8 10 8 11 11 12 15 12 9 10 9 10 11 10 9 10 10 10 10 12 11 16 14 15 14 14 20 24 40 37 48 54 52 57 50 44 40 32 39 44 51 64 66 83 100 117 
43 36 36 25 15 14 13 10 9 11 14 14 15 16 20 21 20 21 22 22 16 17 22 18 18 15 12 15 13 12 13 13 9 9 7 9 11 11 10 11 15 9 8 7 4 10 10 12 12 9 12 9 10 12 9 14 11 11 12 11 12 12 19 18 17 27 31 30 29 19 26 21 29 33 44 44 53 65 82 99 
48 46 38 24 21 12 14 9 9 11 10 11 17 20 17 25 23 21 22 24 17 19 23 19 15 16 12 16 17 14 9 10 8 13 8 13 11 7 11 9 9 7 8 8 11 8 10 9 8 9 7 7 10 11 8 13 12 9 8 9 12 11 13 11 18 19 16 22 19 16 16 15 21 31 41 46 49 59 74 88 
53 45 35 25 12 16 14 14 10 12 14 13 14 19 16 23 27 26 28 24 21 20 25 19 16 16 13 18 14 16 9 7 9 9 4 9 9 10 13 9 11 8 7 7 7 10 7 9 7 11 10 9 11 10 12 10 10 9 9 10 10 11 11 13 16 14 19 14 14 9 19 10 23 27 36 46 50 57 71 76 
52 48 34 20 18 18 13 16 19 14 12 15 14 19 20 27 25 26 27 27 28 29 29 26 20 20 14 17 15 13 9 8 4 3 6 5 9 11 9 12 14 10 9 5 7 8 9 5 6 13 9 9 10 10 10 9 8 11 9 9 10 10 12 13 11 16 12 14 14 13 11 14 21 23 28 39 46 58 65 76 
55 42 30 18 11 14 12 14 16 19 18 19 19 17 22 22 24 30 25 28 33 33 35 36 31 28 25 18 15 14 11 12 8 6 9 7 10 9 11 9 11 7 7 7 6 10 9 7 10 10 8 10 12 12 8 8 11 9 7 10 11 12 10 10 12 11 11 14 12 8 9 9 12 9 25 34 42 51 63 69 
57 40 30 21 16 16 16 20 12 17 23 21 20 22 24 28 27 24 25 29 30 31 33 41 38 39 38 32 25 17 12 8 7 9 7 8 8 10 11 9 7 7 7 10 8 5 9 9 8 6 8 12 13 9 9 9 9 10 9 11 12 13 7 14 15 12 11 12 12 15 11 13 11 12 16 20 30 46 56 62 
54 39 23 22 19 24 21 23 16 21 27 25 22 20 25 27 28 28 28 29 29 32 40 41 44 43 40 42 38 31 22 17 7 10 7 9 8 8 9 6 10 4 8 8 9 8 9 7 8 7 7 11 9 12 11 9 10 10 11 14 10 13 7 11 11 11 9 12 11 12 13 16 8 7 13 17 19 33 43 50 
52 33 28 23 18 23 21 21 14 24 27 25 26 26 33 29 33 33 25 26 31 39 46 42 46 50 51 53 52 41 36 31 23 10 7 9 7 5 10 7 8 5 6 6 8 6 10 10 10 8 7 9 9 12 10 8 10 10 11 9 9 11 10 7 10 11 11 11 9 9 12 13 11 13 17 13 20 23 37 44 
36 29 19 17 17 22 20 19 21 23 28 27 26 23 28 32 31 25 27 27 30 33 44 45 48 52 59 61 57 60 44 40 30 24 19 14 8 7 6 7 8 8 7 8 8 8 10 9 9 7 7 9 10 9 8 8 9 11 11 12 9 11 8 10 8 9 9 11 11 9 13 10 16 12 17 14 14 17 32 32 
41 33 20 15 20 23 21 18 26 29 30 29 27 31 27 32 22 24 20 19 24 31 46 52 48 55 59 65 66 67 59 56 44 37 28 18 14 14 15 8 8 6 6 9 8 8 7 9 8 9 8 11 8 12 8 9 10 8 13 12 13 13 10 9 12 11 11 14 9 8 12 7 12 14 16 15 14 26 30 36 
37 25 25 19 15 25 23 20 24 32 32 30 25 24 26 27 25 22 27 26 17 28 34 42 43 48 55 60 69 67 73 61 51 48 40 33 19 12 15 10 7 7 5 7 8 7 7 9 8 8 7 8 7 9 10 9 8 10 12 9 11 8 11 9 12 9 12 11 11 9 10 10 12 12 13 15 12 15 20 27 
31 26 21 22 22 26 23 21 27 26 27 25 28 24 23 21 24 25 19 25 21 25 27 35 40 46 54 60 70 73 70 70 62 53 44 40 29 16 16 12 12 2 12 6 9 6 6 9 5 9 8 12 10 11 11 12 10 7 6 12 12 9 13 9 11 11 10 12 10 6 10 11 14 11 12 13 11 14 20 23 
33 27 29 27 29 29 27 26 26 30 26 25 28 29 28 28 24 17 17 18 19 19 25 31 40 43 56 59 65 78 77 70 65 54 52 45 38 22 14 13 12 7 8 11 8 7 9 5 4 11 10 11 10 9 12 6 7 6 7 9 10 6 7 9 9 6 7 12 13 9 8 12 10 8 14 14 12 10 22 19 
24 19 24 31 26 30 26 26 32 30 31 24 26 26 24 21 19 18 16 11 13 13 23 26 32 40 49 53 63 75 76 77 68 62 55 49 41 27 15 11 11 11 12 11 9 8 7 8 8 11 9 8 9 8 9 8 10 8 9 9 9 11 10 7 9 11 11 15 13 8 9 10 9 10 9 14 10 12 11 17 
23 26 25 31 26 25 27 31 32 37 29 24 25 25 23 22 17 17 15 19 12 12 21 21 26 32 39 47 58 72 73 77 74 63 53 49 47 34 20 10 12 8 10 11 13 7 11 6 9 6 9 10 8 8 7 8 11 9 10 8 11 10 9 8 10 10 11 10 11 12 9 12 9 9 10 15 12 16 12 15 
25 25 28 29 28 34 34 33 39 43 41 33 33 28 30 28 22 16 14 16 13 17 21 22 28 34 40 52 54 65 69 76 74 66 57 48 45 37 24 17 12 14 9 10 8 8 11 9 6 8 10 12 8 5 6 11 7 10 9 11 9 11 11 8 12 9 8 10 10 9 12 10 12 10 12 18 14 16 13 15 
28 26 24 32 21 32 31 24 40 33 37 36 31 32 31 28 23 21 14 16 11 11 22 17 25 37 43 48 54 59 64 71 71 62 50 48 44 36 26 15 10 6 9 7 14 8 9 8 10 8 10 11 9 6 7 9 10 10 8 9 12 9 11 7 13 12 11 11 8 11 11 11 10 9 10 10 15 15 11 8 
26 22 25 25 20 30 36 31 31 33 30 33 35 32 33 29 21 17 13 14 13 8 22 13 22 36 41 50 56 56 58 69 74 60 55 47 42 36 28 13 9 8 7 5 9 8 5 7 7 8 8 7 8 8 9 5 7 8 8 6 6 10 8 6 6 6 5 9 10 7 12 8 10 10 14 15 10 9 15 9 
24 24 23 24 19 33 28 30 34 34 32 34 34 32 29 28 26 23 18 15 12 13 16 15 24 30 36 47 55 63 65 75 71 64 58 47 46 35 24 17 9 11 7 11 7 6 7 7 9 7 9 10 9 9 10 6 6 3 5 7 8 7 6 8 4 8 8 9 9 10 11 7 13 11 12 14 8 13 10 13 
32 24 20 24 21 30 25 27 28 32 33 28 29 27 25 25 21 18 18 11 10 12 14 14 18 23 27 39 45 55 62 65 75 72 56 49 43 35 28 15 12 7 6 8 7 7 2 7 8 9 9 9 9 5 9 8 9 4 7 7 8 7 7 7 11 11 8 9 10 7 10 9 13 10 13 12 13 15 13 9 
28 25 22 25 21 29 31 25 25 31 32 29 27 27 25 26 26 24 24 17 23 16 17 16 23 29 30 38 39 46 48 61 69 71 65 57 47 35 28 21 10 11 8 10 14 8 9 9 7 5 7 10 8 8 9 7 10 6 9 9 6 6 7 8 11 11 11 8 9 9 7 9 10 10 13 13 13 12 12 12 
25 27 22 29 27 34 25 23 23 27 29 26 26 25 23 26 23 28 28 25 27 24 27 24 27 33 37 38 45 45 45 51 58 57 53 51 51 39 35 26 14 9 10 13 8 11 10 7 11 6 3 12 8 8 4 8 7 6 8 9 8 8 6 8 10 12 12 11 10 7 10 8 11 10 15 14 12 13 13 10 
27 26 27 30 25 32 30 30 23 23 22 22 26 24 19 21 25 27 28 30 37 38 40 44 45 50 50 50 54 57 54 50 52 60 52 40 40 36 34 26 16 10 9 12 10 9 9 11 10 10 8 11 4 12 7 8 11 8 9 9 9 10 7 7 10 12 14 8 11 7 11 8 9 9 15 18 14 16 13 13 
31 23 26 32 33 34 31 28 26 23 24 20 23 20 17 26 19 26 26 39 42 39 57 61 64 62 66 66 61 64 64 68 65 63 57 49 36 32 30 30 16 11 10 14 9 14 5 10 10 12 9 8 6 8 8 8 12 9 9 9 9 13 8 9 13 17 13 11 12 10 12 10 14 11 13 14 15 15 15 12 
30 29 30 33 29 38 31 29 27 31 23 25 25 16 19 14 21 20 25 30 37 45 62 64 68 80 81 84 76 73 64 69 70 69 61 61 45 33 28 22 14 17 13 12 9 13 9 12 12 8 9 7 10 5 8 8 10 10 10 11 11 8 10 10 10 13 14 12 14 10 9 13 10 11 14 13 14 14 12 11 
32 32 33 35 35 35 26 27 26 25 27 25 20 27 18 16 17 16 26 33 32 46 61 65 76 86 89 97 93 85 79 78 73 73 64 60 49 42 28 20 11 11 13 9 14 14 11 8 8 9 8 11 10 8 11 8 9 8 9 10 9 9 8 9 10 10 12 9 8 7 14 13 9 11 11 11 12 12 15 13 
29 32 25 27 28 31 27 31 23 26 27 23 17 20 13 14 20 12 17 27 32 38 52 62 75 84 91 100 98 101 91 85 74 73 67 62 48 41 32 24 15 10 12 7 12 8 10 11 11 10 8 9 9 7 9 10 9 9 9 9 10 10 8 7 5 9 9 9 7 8 11 11 9 12 12 11 12 12 11 12 
27 31 25 29 28 21 22 22 18 29 28 20 15 14 9 9 15 11 19 24 27 35 51 57 63 78 84 89 98 102 98 93 85 75 64 59 52 41 38 29 15 12 8 9 11 11 10 10 9 10 10 10 10 9 12 7 11 9 9 8 10 11 7 8 9 9 10 9 10 7 9 8 12 11 12 16 14 16 11 9 
30 33 24 36 23 23 18 18 21 24 21 21 20 15 11 13 14 12 12 23 27 32 48 54 65 77 88 93 99 105 98 98 91 84 70 65 53 48 35 30 15 11 10 10 16 16 8 17 12 10 10 10 10 10 10 11 9 9 9 11 11 10 11 10 9 11 12 12 9 13 7 10 12 11 14 15 12 17 12 15 
27 28 24 30 19 19 18 18 19 16 16 17 14 10 11 11 14 9 14 18 25 31 46 49 62 75 85 91 94 102 103 95 96 84 71 65 56 48 41 29 19 13 12 12 10 14 10 10 13 10 10 11 9 12 12 11 14 10 10 10 14 11 9 9 11 10 12 10 11 10 14 12 14 10 15 14 13 11 11 13 
29 25 34 30 23 23 18 21 24 17 20 15 10 11 13 11 15 11 21 24 28 33 42 45 52 72 83 96 98 100 103 100 96 90 75 67 55 50 42 31 19 9 14 12 15 13 13 13 12 11 10 15 10 11 9 13 10 10 11 9 11 12 13 9 9 13 11 12 11 12 18 16 13 16 13 14 13 16 14 14 
22 24 36 31 25 26 16 24 19 14 18 10 7 12 15 14 18 18 20 29 33 38 49 53 60 62 72 85 93 101 101 101 93 84 70 65 58 49 36 29 17 13 13 13 8 12 11 11 10 8 9 12 10 11 8 12 11 9 13 12 13 11 13 11 14 14 14 13 12 14 13 14 13 15 16 16 14 15 14 17 
26 28 28 28 25 18 20 20 20 17 16 18 12 11 13 19 24 28 33 42 46 47 57 60 63 77 83 99 97 94 87 93 97 89 82 71 65 49 41 33 18 11 17 11 12 11 11 13 10 10 12 10 10 13 7 11 8 10 11 11 15 12 13 13 11 15 13 10 10 14 14 15 12 15 16 14 17 15 19 15 
24 34 27 25 17 19 23 22 18 18 18 15 18 10 19 27 27 36 39 49 55 61 69 75 86 88 88 97 102 110 101 100 88 81 74 72 59 47 36 27 18 13 15 14 10 12 11 14 10 7 10 10 12 11 10 11 13 12 13 12 13 11 10 11 10 15 11 14 11 12 16 12 15 15 15 18 18 15 18 17 
32 32 28 24 19 20 24 20 18 17 17 15 16 18 22 35 35 42 49 59 66 72 90 93 102 105 108 107 106 105 102 95 88 84 71 62 55 43 34 26 13 17 17 14 17 14 12 12 8 13 10 13 9 10 13 12 11 13 10 12 14 13 14 11 11 13 16 15 15 17 13 16 13 19 17 19 19 19 15 13 
28 26 26 28 19 17 22 23 14 20 16 13 15 27 29 38 45 53 57 68 74 74 94 97 108 123 132 132 130 121 106 96 87 78 72 71 58 41 35 21 17 12 11 13 11 13 15 14 10 11 9 12 12 10 10 13 15 13 12 14 10 13 14 13 12 13 14 16 13 13 14 19 16 15 17 16 18 19 16 18 
39 23 22 24 18 27 24 17 17 19 15 16 17 31 36 46 49 63 68 80 88 98 111 112 109 114 126 137 140 138 127 119 100 86 70 64 58 50 34 24 15 15 15 11 12 12 16 11 11 9 11 9 11 8 10 11 10 12 13 13 15 13 8 12 12 14 12 18 16 14 13 13 17 15 14 16 16 17 21 18 
35 28 22 23 18 24 25 21 19 19 18 18 27 35 36 51 60 66 73 88 97 108 119 126 122 124 124 129 127 127 125 121 112 100 82 66 53 41 34 22 16 11 11 13 13 16 11 12 11 9 11 10 12 11 12 12 13 12 12 12 14 13 10 11 11 12 15 17 16 16 18 11 16 17 15 18 21 18 21 15 
33 29 26 22 26 22 20 21 20 23 22 24 29 39 42 48 63 69 77 88 102 112 129 132 131 138 130 129 124 125 113 106 99 99 88 78 65 42 31 23 11 16 16 16 16 13 11 18 13 11 12 9 15 11 12 9 13 11 13 16 17 14 11 12 19 15 16 14 16 14 18 15 16 16 22 22 21 19 19 21 
32 24 23 24 23 26 17 21 19 17 20 27 31 40 43 56 63 70 80 90 103 115 126 127 128 132 128 130 122 116 103 99 92 87 80 76 62 44 27 25 18 16 13 14 17 12 12 12 12 13 14 11 14 12 11 14 13 14 13 14 17 13 13 15 16 18 17 18 17 17 16 18 18 18 19 19 23 20 15 24 
31 26 20 25 19 15 23 20 19 22 25 28 37 43 46 59 67 74 88 98 103 113 125 121 121 125 123 123 115 103 97 86 85 71 69 62 61 41 33 24 16 12 13 16 13 12 9 9 10 11 10 11 12 13 14 14 14 14 15 15 13 17 12 12 16 13 17 13 15 16 18 17 18 13 20 20 21 21 16 18 
32 23 22 25 21 21 24 25 22 25 34 34 38 45 51 62 71 84 88 101 108 112 120 119 117 117 111 116 109 103 88 84 73 60 53 50 48 41 30 19 24 18 19 15 12 10 7 10 12 10 13 11 12 12 12 14 16 13 15 15 14 14 16 13 15 17 17 18 16 17 18 19 20 18 17 20 23 18 18 22 
29 27 28 24 25 30 38 28 37 35 36 40 44 57 56 72 77 87 96 109 111 117 125 117 112 108 112 103 100 92 80 71 66 53 44 36 33 30 23 22 18 18 13 16 18 12 9 10 10 12 10 10 16 16 15 16 12 14 15 12 15 15 13 14 17 17 14 17 16 15 17 18 19 18 18 23 20 24 20 21 
28 27 27 26 29 36 43 45 38 48 49 58 58 63 66 75 85 96 105 118 121 115 121 119 108 112 108 103 94 84 73 69 56 45 34 32 25 20 18 14 17 16 15 18 16 15 14 13 12 11 11 13 13 15 14 18 16 16 16 14 16 17 15 13 16 13 18 18 17 18 17 20 21 17 17 25 23 26 20 22 
32 30 31 29 35 50 47 49 54 57 66 71 79 82 90 98 98 107 108 125 122 123 124 121 118 111 109 99 92 84 75 66 55 51 42 34 23 21 15 18 18 16 21 17 18 15 15 18 17 10 13 17 12 16 16 16 17 18 14 13 16 14 15 16 18 18 19 21 20 16 19 22 21 18 21 23 21 25 23 23 
33 29 32 40 41 48 54 57 58 62 78 83 83 95 105 107 116 114 116 125 121 119 122 120 120 120 113 102 84 81 68 59 50 44 33 25 26 12 17 18 17 15 18 14 17 15 21 15 13 15 12 15 11 15 16 15 15 16 15 14 17 13 14 15 13 20 20 21 21 17 18 21 19 20 18 22 24 24 24 22 
37 35 36 46 48 54 64 62 72 77 84 93 103 106 107 118 115 123 124 128 126 122 126 122 118 121 113 103 91 77 68 59 50 43 38 31 23 18 11 18 23 17 14 13 17 19 21 15 16 16 16 19 13 14 14 16 15 19 16 16 16 16 13 14 17 20 22 22 20 14 18 19 21 21 22 25 25 26 21 26 
43 40 40 49 52 66 70 77 80 89 99 105 106 117 119 123 128 128 128 125 125 122 131 120 118 123 113 105 90 81 65 57 52 42 42 26 23 12 12 15 17 15 16 16 11 12 12 12 13 14 12 14 18 16 14 16 13 15 13 16 17 16 14 15 17 22 18 18 19 17 17 21 21 18 25 25 22 23 23 22 
48 44 52 60 60 66 72 73 84 99 107 115 114 124 130 127 130 132 127 133 126 130 126 125 121 122 108 100 92 75 64 59 49 41 35 23 18 9 13 16 24 14 16 6 4 9 7 0 10 7 9 10 17 17 18 16 13 15 12 15 14 16 14 11 13 16 11 15 14 10 18 14 16 21 20 21 23 21 23 27 


