P2
80 60
166
21 20 20 24 23 27 31 19 21 25 26 27 28 31 30 26 24 27 29 38 32 33 34 34 31 36 31 31 36 36 36 36 30 35 35 36 38 31 32 31 34 29 31 32 32 36 31 34 46 52 65 69 74 80 72 68 67 58 62 59 59 54 55 64 72 75 95 118 150 166 166 160 134 112 89 83 91 99 89 99 
26 22 21 24 25 32 30 22 23 24 26 27 29 29 27 28 25 28 28 32 32 32 33 31 31 33 33 33 35 33 36 35 33 32 36 38 32 33 32 30 30 33 31 29 33 33 30 33 30 38 41 48 52 54 50 49 50 44 49 46 49 45 49 59 58 71 88 110 134 155 165 163 136 118 96 81 93 105 95 101 
27 25 22 24 24 27 26 22 25 24 26 29 28 29 30 26 29 29 30 33 29 31 33 33 32 34 34 34 35 35 33 34 34 35 33 33 29 30 34 30 32 31 32 31 34 33 35 32 32 28 38 35 40 44 42 41 38 40 39 40 36 38 39 46 52 58 76 92 113 132 152 148 140 118 89 87 97 97 95 99 
27 30 20 26 19 23 25 26 24 24 27 26 31 30 31 28 29 28 31 34 31 33 34 34 29 33 36 35 36 36 34 35 32 34 35 34 32 33 35 31 31 30 33 33 32 34 32 35 32 32 36 40 35 42 37 39 40 43 42 42 36 34 33 42 43 49 58 72 85 106 118 133 136 117 101 95 98 93 93 97 
29 25 20 23 27 24 26 26 25 24 27 26 28 25 31 27 27 29 30 33 31 33 32 32 31 34 30 33 33 31 35 35 37 33 32 34 33 32 34 30 33 30 33 32 36 34 36 35 32 32 35 30 33 32 35 38 38 37 36 32 37 32 25 30 31 41 47 57 60 67 85 98 109 118 91 95 97 87 81 101 
24 25 21 21 26 27 26 26 25 24 29 26 28 31 30 29 31 32 32 35 33 32 33 34 33 34 34 33 34 33 37 35 34 37 37 35 35 34 32 30 31 34 32 33 35 33 38 34 39 31 36 34 33 36 39 36 38 35 34 39 33 33 31 30 35 31 38 43 52 48 56 71 84 98 96 92 92 93 79 88 
24 26 22 26 24 28 26 23 28 30 29 27 24 30 31 32 30 32 31 35 35 38 34 36 33 36 34 37 34 37 34 34 33 35 35 35 37 32 34 30 33 34 33 35 31 37 36 36 36 34 37 31 34 36 38 37 36 38 36 34 36 34 31 32 32 27 30 32 34 38 41 46 54 72 77 71 87 85 69 79 
27 26 22 25 26 28 25 28 28 25 28 30 28 31 30 31 29 36 33 35 31 35 36 35 34 37 40 36 36 34 37 35 34 36 34 37 34 34 34 32 34 33 33 35 33 34 36 38 35 35 37 35 34 40 36 34 38 31 33 33 33 33 35 26 27 29 31 30 29 37 31 36 36 42 56 63 69 72 58 66 
26 27 24 30 27 27 28 28 29 24 28 30 32 29 33 31 31 34 37 39 37 35 35 39 35 40 38 35 37 35 41 37 37 37 36 37 37 34 34 32 32 34 36 35 34 38 34 36 34 35 40 34 35 34 40 35 38 36 37 34 36 35 28 29 27 27 32 37 31 33 31 32 30 40 37 44 52 54 48 51 
29 27 28 30 27 28 31 29 27 29 30 32 37 33 34 34 31 35 36 36 39 33 34 38 36 39 35 36 35 38 38 34 36 38 37 35 34 34 37 34 35 37 37 35 39 38 36 38 36 38 36 37 36 38 36 38 40 34 40 36 30 37 32 30 28 31 34 34 36 30 29 27 35 31 34 33 34 49 43 41 
28 28 28 27 29 29 32 29 32 28 30 34 34 32 35 38 33 37 37 37 33 35 34 39 35 41 37 35 35 40 38 36 36 39 34 35 38 36 35 37 37 35 37 36 37 38 36 38 37 37 37 37 38 38 37 38 38 37 35 34 34 38 32 34 33 34 29 33 37 30 31 26 29 32 31 29 29 36 29 33 
32 26 25 27 26 28 31 28 29 30 30 35 35 33 36 37 35 37 39 39 36 35 36 35 34 39 35 36 35 37 36 36 36 37 38 38 36 35 37 36 36 36 38 37 40 38 36 37 38 37 38 37 37 37 38 36 37 37 38 40 34 36 35 32 31 33 29 32 33 34 31 30 31 31 33 31 33 29 24 32 
30 31 26 28 30 31 32 29 31 28 35 36 33 31 36 38 34 38 39 40 36 37 36 38 36 40 37 34 37 37 37 36 36 38 38 38 36 34 37 37 39 36 40 36 37 36 36 40 38 39 41 38 36 34 35 36 35 34 35 38 31 35 31 31 34 33 30 30 31 30 29 27 28 33 30 28 27 31 23 28 
31 30 26 30 32 28 32 30 30 31 33 35 35 32 32 38 36 37 36 41 36 36 36 41 39 40 37 38 39 39 39 39 37 38 36 39 37 38 38 37 40 39 41 37 36 38 38 37 39 38 39 39 37 34 37 39 36 37 38 33 35 33 36 33 36 32 32 33 30 32 31 28 33 34 24 26 29 33 22 29 
28 30 28 29 32 31 31 32 33 29 33 34 34 34 36 39 37 36 37 39 38 40 39 36 36 38 39 39 35 36 41 36 40 42 38 38 38 39 39 37 39 39 42 37 39 38 38 39 39 35 41 38 35 37 38 37 33 35 35 35 35 34 33 30 29 34 31 31 32 32 29 31 30 29 27 26 30 33 25 36 
33 30 30 30 33 34 32 33 35 34 34 36 36 32 35 39 37 37 37 40 39 40 38 38 37 39 38 40 41 38 39 40 41 44 38 41 39 39 38 39 38 38 39 40 39 39 39 39 38 40 38 38 36 36 36 38 38 37 32 33 34 32 31 29 34 31 35 34 32 31 31 28 27 28 31 29 32 31 24 30 
33 35 33 30 32 36 35 35 34 35 34 36 32 34 37 38 36 35 38 42 42 36 40 37 39 39 39 40 39 38 42 39 40 40 40 39 39 40 39 40 37 37 41 39 40 40 41 40 40 40 40 36 37 38 38 38 38 37 34 35 36 33 35 33 34 33 33 35 37 32 32 28 29 30 29 28 29 30 28 29 
32 36 32 35 32 36 36 35 32 35 35 35 39 34 36 36 37 38 40 41 40 43 40 38 40 41 43 39 43 38 43 40 39 42 43 43 40 39 39 42 38 39 41 40 40 38 42 40 38 34 38 40 38 40 40 38 38 37 36 35 36 33 33 35 37 35 36 36 35 35 33 32 32 33 33 27 31 31 22 29 
32 34 27 31 30 37 37 34 34 37 34 37 38 39 38 38 37 37 40 44 41 41 42 40 42 41 45 38 39 43 45 38 39 39 41 40 37 40 37 36 40 39 40 41 41 39 41 39 39 37 37 36 37 42 36 36 39 37 32 37 34 36 35 32 35 34 33 33 34 30 33 31 34 30 29 28 32 31 25 34 
30 32 31 33 33 37 36 34 35 35 37 39 38 39 37 36 33 40 42 43 41 38 42 40 40 45 42 37 43 41 44 39 42 41 38 40 39 40 42 43 40 38 41 40 43 38 39 40 39 39 41 37 37 41 39 36 38 40 37 38 38 34 32 37 34 32 32 33 34 31 32 33 29 29 28 30 31 33 26 30 
32 36 28 33 30 37 35 35 35 35 35 37 38 40 40 38 39 35 41 43 39 41 42 42 42 43 41 40 40 41 41 41 41 45 40 40 39 40 44 39 41 37 39 40 40 39 38 41 41 40 40 36 40 40 40 38 36 36 34 34 34 37 36 34 33 32 33 37 34 32 31 30 33 29 24 26 32 33 28 29 
33 34 29 33 34 38 36 37 37 37 39 37 37 39 40 36 36 39 40 43 41 39 43 41 40 42 42 40 40 43 43 43 43 42 42 43 40 37 38 39 40 39 43 36 37 39 41 44 41 41 40 37 37 40 41 42 36 36 37 36 35 34 37 33 35 32 34 34 36 33 31 30 30 29 28 28 32 31 22 35 
33 31 28 31 34 37 39 37 37 38 39 36 36 39 38 40 37 36 40 44 43 42 43 38 39 39 42 41 44 42 39 39 40 41 41 41 40 37 41 39 40 40 42 40 38 42 40 41 41 40 39 39 38 38 40 35 34 33 34 33 34 31 35 32 33 33 34 34 31 32 31 27 29 31 26 30 32 32 24 32 
36 34 32 35 32 37 38 37 37 40 38 37 35 36 39 38 36 39 37 44 41 40 42 40 39 37 38 40 40 41 44 38 42 44 41 40 39 39 38 43 39 38 37 37 39 39 40 42 41 39 38 39 36 35 33 35 38 37 34 34 33 34 34 36 33 32 32 32 29 26 31 28 28 29 30 29 26 32 27 30 
34 31 36 35 34 38 37 36 39 41 42 41 36 38 37 36 38 38 41 44 40 42 43 42 41 40 40 43 40 40 42 43 40 42 40 41 41 41 40 39 38 40 37 40 40 40 40 42 38 39 38 40 38 35 36 36 37 36 34 33 35 35 35 35 36 32 33 31 30 29 28 30 28 32 31 32 23 32 28 29 
38 36 33 36 33 39 36 37 37 38 41 42 40 39 39 41 36 42 44 45 41 40 41 41 41 42 42 41 42 44 44 43 40 42 41 42 42 43 39 41 43 38 39 41 42 41 40 40 41 39 41 39 40 39 38 37 34 36 33 32 32 35 33 35 34 36 34 34 36 30 32 29 32 31 30 30 25 27 24 29 
34 33 32 34 33 37 37 38 37 35 39 37 38 40 37 38 36 38 39 45 41 40 41 41 39 43 40 42 42 42 46 40 43 42 42 42 40 41 45 41 42 40 39 43 39 41 40 41 39 42 42 40 37 40 40 36 33 34 33 33 32 31 36 34 36 32 31 31 33 29 29 28 31 30 31 28 30 27 23 32 
35 33 34 37 34 36 37 36 38 37 38 41 41 35 37 36 35 41 40 41 40 42 39 42 39 43 42 41 40 40 42 40 42 43 41 44 43 43 42 44 43 39 38 38 39 40 40 44 42 38 40 37 37 37 35 37 35 37 37 34 35 37 37 34 32 31 31 34 34 28 28 28 29 31 28 26 29 31 25 31 
37 35 34 36 39 36 38 38 37 34 38 39 41 38 39 37 37 38 41 42 39 40 39 40 40 43 41 39 41 42 41 41 43 44 42 41 43 41 41 38 41 38 39 42 40 41 40 39 39 36 35 37 36 38 37 35 36 34 33 35 31 33 36 34 33 31 32 33 31 28 28 30 27 29 28 26 23 32 26 31 
36 32 34 35 36 39 38 37 34 37 38 40 42 41 40 38 38 38 39 44 40 40 38 39 42 40 43 42 40 44 42 41 44 43 41 45 43 42 39 41 40 38 37 39 38 40 39 38 40 38 40 36 38 38 38 36 36 33 36 31 32 34 35 34 34 31 32 29 30 28 25 26 29 24 26 26 30 32 31 30 
34 34 35 36 34 37 38 39 39 35 39 41 37 38 38 42 39 39 39 41 40 42 42 42 41 44 39 39 45 42 43 42 42 42 43 42 44 42 41 40 43 43 39 38 40 38 39 39 38 36 38 34 38 37 36 37 40 37 33 34 37 37 32 33 35 34 32 32 31 30 26 28 27 26 29 25 25 27 26 33 
32 35 34 33 33 35 36 39 39 36 39 40 40 37 40 41 36 40 39 40 40 42 41 42 41 42 43 41 40 46 43 39 40 43 41 44 41 43 41 39 43 42 40 40 41 38 41 42 40 38 43 38 38 40 35 40 38 38 36 37 36 34 35 33 34 34 32 30 28 29 31 29 30 26 26 28 25 32 25 29 
37 33 32 36 33 36 38 36 39 38 39 41 37 35 38 39 38 39 44 41 39 41 41 42 41 43 43 44 42 39 45 44 44 45 42 42 43 40 41 44 42 39 40 41 42 42 40 41 39 37 38 35 38 41 36 39 36 38 34 36 34 34 33 34 33 33 28 33 29 30 29 29 28 27 30 26 26 27 26 30 
41 33 34 36 38 38 39 38 37 38 40 40 39 43 39 39 38 40 39 44 45 41 41 42 43 43 41 41 41 43 40 41 41 40 40 40 42 40 41 40 41 40 42 40 41 40 41 40 41 39 40 37 37 38 41 37 35 38 37 37 35 37 38 34 35 31 34 33 28 30 27 26 26 30 32 27 25 30 23 31 
37 32 33 34 32 36 44 38 40 40 40 42 39 40 41 38 37 39 41 44 43 43 41 42 40 42 40 45 42 40 41 39 42 45 40 41 42 41 40 39 41 39 38 40 39 40 40 42 41 41 36 37 40 37 38 39 36 36 37 35 33 37 33 35 39 35 30 29 32 27 28 26 25 29 26 27 24 29 25 33 
36 35 32 35 32 36 40 38 39 35 41 39 43 39 42 38 38 39 42 44 43 41 43 40 41 41 40 44 41 42 39 38 41 41 41 41 38 41 42 43 39 39 40 40 39 41 39 44 40 38 39 37 37 37 36 37 39 38 33 33 34 34 35 37 35 33 33 31 29 29 29 26 25 26 27 23 26 29 25 28 
37 34 31 37 36 34 44 38 38 37 39 43 41 41 39 38 37 41 40 44 40 41 41 43 44 40 42 41 43 41 41 41 41 41 42 39 41 40 40 40 40 40 38 37 41 42 40 40 37 40 41 38 39 39 38 37 37 35 33 35 34 34 33 32 36 32 35 33 28 28 30 28 28 29 31 24 25 24 24 26 
34 33 35 36 34 36 39 36 39 36 38 43 38 40 38 39 39 40 39 41 40 40 40 41 41 41 40 39 40 41 37 39 43 40 43 44 40 36 42 40 40 41 41 40 44 42 40 43 40 41 41 36 37 35 37 37 37 36 33 35 34 35 31 33 32 30 30 32 28 25 30 27 26 29 34 24 26 28 21 30 
33 32 30 33 36 41 42 38 35 34 35 40 41 39 42 38 40 38 41 41 43 39 43 40 41 42 43 41 40 42 42 41 39 42 40 40 40 36 40 41 41 42 43 40 40 40 40 38 40 38 38 36 36 39 39 38 35 36 34 32 31 30 30 29 31 28 30 32 25 27 25 23 24 25 30 24 26 25 20 28 
34 31 29 33 33 37 39 35 37 34 38 36 37 39 40 41 37 39 39 42 39 41 40 43 38 41 41 41 41 45 44 39 42 44 44 41 42 38 39 39 42 40 43 44 39 41 40 42 40 39 38 36 35 38 33 38 36 34 35 30 29 28 30 28 29 27 26 26 25 31 27 25 24 26 26 25 24 29 23 31 
32 33 31 33 34 35 35 34 33 35 35 37 37 36 40 39 36 36 40 39 41 42 40 45 39 43 40 42 40 42 42 42 42 42 38 40 41 39 37 39 44 39 41 42 41 41 44 39 38 38 39 36 34 36 37 36 36 36 32 32 31 29 32 30 28 28 26 27 23 27 21 24 26 26 26 25 21 26 21 26 
32 32 31 34 29 31 32 31 33 33 34 36 39 36 37 37 38 38 39 41 42 39 40 41 36 41 40 42 44 44 41 41 44 39 40 40 40 39 38 39 41 37 43 40 39 43 41 39 40 39 40 34 32 40 35 36 34 34 30 31 31 28 28 29 27 26 24 23 22 15 10 19 26 24 28 25 24 23 21 30 
29 28 29 30 31 34 33 29 30 31 33 34 36 33 37 36 36 39 38 39 40 41 39 42 39 40 40 41 41 43 39 41 39 39 41 38 45 40 41 40 39 40 41 41 39 40 40 40 38 36 37 36 36 36 32 33 30 28 27 28 29 28 28 24 23 27 22 17 8 0 7 12 23 23 27 25 24 25 21 29 
27 27 30 32 31 30 30 30 32 32 33 36 37 35 35 38 38 36 40 40 38 41 40 38 39 41 40 41 42 44 41 39 39 39 40 38 41 41 40 39 41 39 38 38 40 39 38 38 36 37 37 33 33 32 30 30 27 28 25 24 24 27 23 22 26 21 18 18 6 9 11 20 24 22 29 24 23 22 16 26 
30 32 29 32 31 30 31 29 30 30 34 32 33 33 39 37 34 37 38 41 38 39 38 39 40 39 38 38 39 42 39 41 39 42 39 40 38 40 37 36 33 36 36 35 39 38 35 36 36 38 36 34 32 29 28 25 25 26 23 23 18 20 22 22 25 24 19 24 20 20 20 26 20 24 25 21 23 20 18 20 
32 32 28 31 29 31 30 32 28 29 34 33 36 35 35 38 40 35 37 40 37 36 39 41 36 42 39 40 40 37 39 37 37 39 39 42 37 37 34 36 36 36 38 40 37 36 36 37 35 35 36 35 30 27 29 26 27 24 23 21 20 21 23 22 28 29 25 22 24 20 25 26 24 22 23 20 21 25 15 25 
28 31 33 31 31 32 27 26 29 25 28 32 35 33 35 38 31 38 41 40 40 37 36 41 39 43 38 39 41 43 40 37 38 40 40 39 38 37 36 35 36 34 34 40 36 37 37 39 35 37 36 33 29 30 29 27 26 25 26 23 27 26 23 26 27 25 29 28 22 23 24 21 22 26 21 20 20 19 16 25 
27 31 30 33 29 33 32 31 22 22 32 33 34 31 37 38 32 33 40 40 38 36 37 38 39 40 37 37 40 41 39 38 38 40 36 40 38 36 38 41 36 36 37 37 38 37 37 40 36 35 37 32 34 34 33 29 27 27 28 28 27 27 28 29 26 26 31 26 25 22 25 26 23 26 25 25 22 19 19 24 
27 31 27 30 31 28 36 28 26 26 29 31 33 31 33 34 32 33 38 37 40 36 36 39 38 35 36 38 37 40 42 37 36 39 37 37 37 35 36 36 37 38 38 38 37 36 36 36 36 33 34 33 31 34 31 28 30 30 33 28 27 28 24 29 29 25 25 25 22 21 24 21 23 22 25 25 20 24 17 24 
32 29 27 28 29 32 30 32 27 29 30 33 33 28 33 30 33 37 38 33 31 36 35 37 35 38 37 39 37 43 38 37 38 39 38 39 37 36 37 33 34 32 35 35 35 35 35 39 39 34 35 35 28 32 27 31 27 31 28 29 27 27 24 27 24 23 25 25 23 21 24 23 21 19 25 18 20 20 15 22 
30 30 28 27 26 32 27 28 29 30 31 31 30 30 32 33 27 34 36 37 35 34 36 36 37 36 35 39 36 38 35 39 37 38 35 37 38 35 35 34 34 33 37 35 35 37 34 34 31 36 35 33 32 31 29 29 26 29 27 29 30 29 25 28 26 23 24 25 23 22 21 17 22 19 23 19 19 16 15 20 
26 29 24 31 28 33 31 30 31 28 32 29 34 32 32 31 29 33 35 36 34 34 33 36 35 36 37 40 39 40 39 37 36 36 35 37 38 38 39 38 37 38 40 35 37 35 37 38 34 34 36 35 36 33 35 31 32 28 28 27 26 28 27 27 26 23 21 27 28 21 23 22 22 18 22 20 20 18 14 27 
30 25 31 26 27 28 32 30 32 30 31 30 32 27 32 33 29 31 33 36 35 32 33 33 35 35 35 35 37 37 37 35 35 38 37 34 34 33 37 34 37 38 37 34 33 31 35 34 34 34 34 32 32 37 30 31 31 32 27 28 27 28 27 27 26 22 26 25 25 23 20 20 22 21 18 22 18 19 19 20 
27 29 26 24 27 25 29 26 26 29 26 30 30 28 33 30 28 31 35 36 35 34 34 33 33 33 35 37 38 41 37 36 38 37 34 37 39 34 36 35 38 36 36 36 35 34 36 33 34 34 32 30 32 35 35 28 32 32 26 29 24 29 25 28 28 24 25 24 24 19 20 20 23 20 24 23 22 24 15 21 
30 32 30 31 28 28 31 28 29 28 27 30 31 28 33 30 32 34 37 35 33 33 38 35 36 34 35 35 36 40 37 38 37 37 37 34 35 37 37 33 34 33 37 37 37 35 33 37 34 32 33 31 33 35 32 30 32 31 28 28 27 27 30 30 28 26 24 26 26 26 20 20 23 25 22 19 25 20 19 27 
31 28 28 28 26 29 30 28 30 30 32 28 30 33 32 33 31 31 34 32 35 35 36 38 35 38 36 36 38 39 39 40 37 38 39 38 36 37 36 34 37 39 40 36 38 39 35 35 32 33 38 36 31 34 34 33 31 34 27 28 28 29 28 29 25 27 26 26 26 26 23 23 25 26 25 21 28 23 20 31 
31 27 28 29 29 29 30 29 29 30 32 34 34 32 36 34 30 32 35 36 36 36 36 42 34 40 35 37 37 35 39 41 37 42 38 37 38 38 37 34 37 41 40 36 38 35 36 37 38 39 34 36 33 38 35 34 38 35 29 30 29 31 27 29 27 27 26 23 26 26 24 23 21 22 25 22 21 21 18 29 
28 25 25 28 31 29 31 33 31 30 29 32 32 31 33 31 29 35 37 38 38 34 37 35 34 40 35 39 37 37 39 42 42 42 39 40 40 38 37 38 39 38 38 36 36 38 37 37 37 39 39 35 31 36 33 31 37 35 29 29 28 31 32 29 26 26 26 24 27 27 28 24 23 22 22 21 25 24 19 30 
32 29 27 30 29 28 34 31 31 31 31 32 35 35 36 36 34 33 34 36 34 38 40 38 38 42 39 40 37 35 37 38 40 39 42 38 39 40 37 41 36 37 37 36 40 37 38 38 40 36 38 36 34 37 39 34 35 33 29 32 27 28 30 28 28 27 27 24 24 24 23 25 25 25 26 23 25 25 19 26 
31 29 25 30 30 27 31 35 30 30 34 29 33 33 39 35 32 34 35 35 31 35 38 37 36 37 39 36 34 38 36 41 35 42 41 41 41 40 42 43 36 37 36 41 39 38 38 41 39 36 35 36 36 39 35 35 32 31 28 31 27 30 30 28 29 24 29 23 26 25 23 24 28 23 27 21 23 25 18 24 


