P2
80 60
699
0 0 3 5 8 17 13 10 15 16 19 29 34 38 38 35 58 68 47 44 43 45 42 57 96 124 155 216 279 350 411 420 440 421 381 316 270 214 122 70 65 59 76 93 102 138 189 221 363 456 479 482 485 499 503 507 496 493 469 424 320 166 75 56 57 162 347 433 457 458 450 455 442 401 190 51 11 8 41 143 
7 4 4 7 10 11 11 10 11 13 18 24 25 25 28 40 118 115 49 38 37 45 40 38 46 49 58 69 91 171 308 358 364 358 346 330 297 224 138 137 136 86 105 176 257 309 350 377 447 476 483 488 498 501 508 506 492 484 473 468 442 305 121 72 132 325 437 457 463 472 468 465 445 394 173 34 10 7 39 141 
10 6 6 4 9 10 10 12 9 11 19 19 23 25 27 82 215 215 76 42 34 34 41 37 42 47 48 67 117 243 367 393 399 386 379 362 346 290 245 232 218 127 204 320 377 408 422 431 473 488 495 504 507 504 508 502 488 485 474 473 475 432 261 151 296 432 467 467 472 475 472 472 449 381 144 29 12 5 39 136 
20 9 9 7 8 11 12 9 10 9 22 17 22 22 32 114 249 255 121 47 35 33 39 40 41 47 63 153 304 393 410 410 414 409 398 383 365 326 286 274 282 262 359 395 426 445 454 460 480 498 511 511 511 504 502 494 490 487 476 479 476 466 415 350 431 462 479 478 478 482 474 471 445 353 116 27 13 9 35 128 
28 20 13 7 11 15 13 12 15 10 14 16 25 30 33 105 250 271 140 49 40 31 41 39 47 59 118 286 379 397 406 412 425 418 408 396 367 321 290 312 367 402 433 444 456 462 463 469 485 503 509 512 509 499 499 494 484 478 475 484 477 468 468 459 476 475 482 481 481 482 473 462 427 284 75 20 17 8 34 120 
32 18 15 11 12 16 15 14 16 16 16 16 23 25 24 66 200 282 144 51 36 34 40 39 48 75 213 358 391 406 417 433 435 430 413 390 352 286 314 398 440 450 461 465 468 467 466 464 483 502 510 501 498 491 494 494 482 478 470 474 477 464 472 474 477 479 485 486 484 475 469 455 378 177 51 22 19 10 23 106 
30 13 17 16 20 16 15 14 19 20 19 16 26 29 24 34 97 177 174 92 37 36 43 42 66 123 294 387 399 427 437 432 436 421 402 365 284 259 389 452 469 477 472 476 474 470 473 469 483 498 500 493 494 497 498 492 487 487 473 474 474 463 473 479 480 484 491 489 484 474 454 411 246 83 32 22 19 5 18 95 
29 26 45 58 33 22 25 22 25 22 23 22 27 32 27 33 41 59 72 55 38 37 40 53 135 275 372 411 423 424 433 426 423 405 371 293 167 264 430 465 472 479 483 483 480 474 471 473 482 490 490 491 491 497 498 496 495 493 476 472 464 467 485 483 488 487 487 488 472 464 421 311 135 55 26 22 22 7 11 87 
31 35 95 91 88 49 56 37 27 20 26 25 31 30 29 31 33 36 39 42 39 36 41 60 201 331 375 407 405 405 406 398 387 352 294 192 157 350 455 473 483 489 494 492 484 472 465 457 475 481 485 489 498 497 502 502 484 482 464 457 460 475 481 483 487 491 488 480 463 443 362 233 118 47 34 20 23 7 20 98 
33 60 91 102 135 126 122 67 31 24 26 24 29 29 29 30 35 34 34 38 38 43 45 51 131 300 345 350 341 350 341 317 273 196 145 116 166 404 474 482 480 482 490 486 481 465 461 439 468 482 489 491 504 503 503 497 475 468 433 441 475 476 477 483 486 488 477 468 446 388 305 209 118 50 36 22 22 11 18 91 
32 70 107 137 136 135 131 78 35 25 27 24 29 32 30 29 36 37 34 38 38 42 44 47 69 179 236 156 133 159 150 139 107 65 76 117 234 432 478 481 482 480 482 477 476 462 451 469 487 490 494 502 509 509 506 489 467 434 420 468 482 481 483 484 486 475 469 447 391 299 257 200 120 62 41 26 26 9 21 82 
36 74 122 136 139 134 110 69 45 31 26 24 25 28 29 31 32 34 32 34 37 44 44 47 55 58 73 61 53 61 59 59 62 57 66 139 345 455 474 476 470 468 472 471 461 454 477 485 488 496 505 510 509 505 498 481 440 415 452 472 482 480 487 487 473 466 440 346 226 234 231 193 127 72 43 26 22 11 18 82 
34 58 103 119 126 116 104 81 41 31 27 24 33 29 30 29 37 33 35 42 39 41 44 46 52 45 55 51 52 55 51 52 56 59 70 243 407 447 466 453 452 454 443 412 403 464 493 488 491 500 509 512 506 497 485 461 404 418 453 472 483 482 488 478 465 436 337 150 134 200 213 188 135 75 42 25 20 12 14 64 
31 45 83 97 109 114 109 72 36 29 27 27 35 33 30 30 40 32 35 41 40 42 44 47 53 51 51 51 54 53 56 59 58 58 66 205 381 417 420 371 353 321 240 209 383 473 494 489 495 503 511 508 494 479 444 389 376 435 461 480 484 481 480 465 447 373 171 78 115 191 202 188 134 75 46 27 21 15 20 44 
28 36 50 76 96 100 75 47 36 35 32 34 37 32 33 29 35 36 38 44 42 40 44 46 50 52 50 50 54 53 56 52 56 58 60 81 241 356 247 141 127 120 95 168 400 478 501 497 501 502 502 497 476 436 321 254 360 439 463 474 482 475 474 452 400 243 97 60 95 177 188 178 129 81 51 31 24 16 18 44 
26 29 34 41 55 54 47 37 40 31 35 36 39 35 31 34 36 37 39 41 44 46 48 48 49 50 49 51 55 55 59 61 60 64 68 74 103 160 102 81 75 85 86 199 429 483 503 504 504 500 495 484 434 347 174 192 351 436 463 471 479 469 454 419 285 124 69 53 72 147 149 146 116 70 44 29 25 14 22 43 
28 27 32 29 37 35 34 32 33 32 36 38 42 37 32 37 41 36 41 47 45 49 50 51 50 52 51 49 58 65 71 66 72 70 81 107 151 118 91 77 89 88 111 284 448 486 497 502 503 490 486 455 380 209 104 132 269 406 451 468 468 456 432 309 131 71 55 50 52 105 119 125 98 65 36 24 25 17 19 37 
30 28 30 25 34 36 34 35 36 35 38 35 42 38 44 40 50 41 45 52 48 51 51 51 50 53 55 55 74 89 143 120 105 106 165 250 278 226 124 83 89 127 190 363 460 476 489 487 491 482 459 386 240 111 82 84 130 294 409 455 459 445 363 167 69 61 54 44 46 79 98 99 74 43 36 23 24 14 15 37 
33 27 33 28 33 37 35 34 39 35 40 37 42 44 66 66 55 52 56 57 51 55 53 53 50 51 53 51 72 140 272 278 271 278 292 330 340 334 277 131 95 188 332 421 463 474 486 479 470 429 337 217 114 83 75 82 94 154 307 413 446 413 305 151 88 63 52 42 41 49 47 46 38 34 33 25 19 19 23 57 
29 26 27 31 35 39 36 35 38 36 37 40 45 53 100 123 110 109 110 101 73 66 66 63 66 54 58 62 64 129 293 320 337 337 338 349 363 362 351 262 162 219 361 425 450 414 404 387 272 250 212 156 132 119 120 130 158 267 342 417 464 454 437 317 132 66 52 48 38 42 36 35 35 31 35 27 27 29 41 97 
33 29 29 27 37 40 40 38 42 40 41 38 44 66 118 136 154 150 144 145 134 126 122 100 90 72 73 77 66 128 257 293 317 333 331 348 367 370 361 334 297 293 311 380 427 333 287 384 327 360 380 384 360 336 348 376 403 446 467 483 489 489 483 443 224 86 61 45 39 42 36 39 42 36 36 42 49 61 73 133 
34 28 33 29 37 38 41 40 45 45 40 40 44 54 99 124 153 154 151 169 167 167 156 153 149 136 119 110 95 111 137 179 270 304 315 320 337 345 349 329 311 298 313 381 451 467 473 471 480 478 485 490 483 480 477 486 487 491 490 498 497 489 487 473 303 105 61 50 41 40 35 37 43 37 45 58 84 110 120 157 
33 29 34 31 35 40 42 46 46 44 43 47 47 51 58 87 113 129 141 167 176 183 191 187 189 176 174 169 155 138 127 139 157 243 297 314 327 328 333 245 264 320 404 459 479 490 498 489 493 495 498 498 498 492 497 503 497 504 499 502 501 495 492 482 391 133 62 50 40 41 37 39 41 39 44 63 101 146 162 189 
32 29 32 29 35 41 44 47 50 58 62 100 73 50 44 50 67 84 105 134 152 171 186 198 201 202 204 198 172 152 148 139 89 121 177 236 269 270 284 165 222 413 471 487 494 492 501 497 499 502 502 500 508 506 509 511 507 505 501 503 501 498 492 484 417 161 67 48 39 41 34 36 39 36 42 50 74 128 173 218 
33 32 37 33 36 43 42 51 50 73 114 112 90 59 45 48 62 60 63 77 93 122 148 165 189 195 203 202 189 169 179 99 66 70 78 103 147 225 316 310 381 470 495 504 506 503 510 509 507 507 501 510 511 509 511 510 506 505 500 497 492 487 486 472 418 162 74 54 45 45 40 36 44 38 44 45 63 116 186 229 
34 38 41 43 43 39 43 49 69 109 109 73 53 48 43 43 51 49 50 62 63 76 86 109 143 156 173 177 171 172 160 73 65 67 66 69 98 181 364 444 466 481 499 501 502 502 510 510 513 507 508 506 504 501 504 502 497 498 492 493 484 479 481 475 383 138 74 60 55 54 51 57 65 69 79 91 111 157 211 247 
34 46 75 91 45 41 46 49 82 125 66 47 46 45 41 48 48 45 44 50 56 56 56 59 89 105 124 139 138 143 111 64 65 63 66 67 79 119 313 438 464 476 492 499 508 502 511 500 501 493 483 491 494 498 498 490 487 494 488 492 488 482 483 458 293 132 108 112 112 122 121 138 149 156 171 178 193 217 245 267 
46 67 131 129 57 44 46 50 93 126 64 51 43 44 40 45 46 44 47 49 51 48 54 55 62 70 82 95 102 109 82 61 62 60 65 67 77 85 218 348 327 417 468 478 489 488 493 490 495 487 464 482 492 488 462 441 417 437 458 465 463 460 447 397 286 214 215 212 218 216 212 216 224 220 226 226 231 253 269 275 
55 87 172 127 49 47 48 52 67 122 63 52 46 48 45 43 46 43 48 51 46 50 50 49 56 55 63 68 70 76 76 66 65 64 66 72 75 75 93 112 109 175 330 422 460 470 481 482 483 479 475 474 473 439 396 385 375 407 423 434 429 420 418 400 341 279 263 261 254 252 246 244 250 245 247 256 264 269 273 283 
67 101 165 89 48 45 45 49 53 89 73 51 48 50 53 46 45 46 45 52 50 57 53 53 57 56 58 59 63 68 72 63 64 66 66 75 79 76 86 85 89 115 137 177 235 362 443 447 449 444 440 438 432 420 417 407 404 410 412 419 416 408 405 398 378 309 286 280 275 274 267 272 274 265 266 267 266 273 269 281 
58 83 146 99 54 48 49 47 53 72 95 75 71 77 71 55 51 46 45 54 54 57 57 61 64 54 59 69 67 81 83 78 84 92 104 124 143 150 167 192 204 220 258 176 118 247 394 406 409 410 408 408 411 416 414 413 411 413 413 414 415 410 409 407 396 343 307 295 295 293 282 283 281 277 279 274 276 275 279 291 
51 63 98 106 67 46 50 52 56 60 76 81 76 82 63 55 56 54 52 59 56 59 63 66 73 68 79 102 126 152 161 176 194 204 217 234 245 253 268 266 277 295 344 292 218 272 373 389 400 402 401 402 405 410 412 410 412 411 409 410 411 404 409 406 396 351 314 309 298 305 293 297 298 295 299 301 312 303 317 328 
47 52 68 85 78 56 52 54 62 64 60 63 65 69 72 66 83 84 82 70 81 113 132 146 164 163 191 217 226 240 246 248 259 259 268 269 281 282 289 320 331 357 387 364 302 309 363 391 398 396 402 402 404 410 410 413 411 410 404 406 403 401 406 402 399 360 330 325 322 330 332 344 342 344 342 342 337 335 337 348 
45 51 69 73 84 77 78 83 95 112 121 134 139 149 162 173 190 198 156 97 172 213 224 228 236 239 247 258 266 273 273 275 284 284 287 288 292 296 301 343 369 377 390 387 359 360 363 395 400 399 403 403 404 402 404 404 401 402 397 392 390 392 399 396 394 384 383 371 361 362 357 362 358 355 356 354 352 343 352 360 
92 112 132 142 166 171 172 189 197 211 219 223 222 230 241 241 250 257 215 199 237 247 254 254 264 266 273 275 286 293 294 290 293 290 295 295 303 306 329 357 378 381 390 392 391 392 376 386 397 396 397 399 397 395 391 390 386 392 388 387 378 378 389 396 399 396 389 375 369 373 368 371 368 365 366 366 363 357 363 379 
185 196 209 209 232 226 221 228 236 238 240 247 255 256 263 271 287 292 257 259 257 264 268 275 283 282 290 294 300 310 309 303 301 297 295 309 314 326 342 358 363 366 379 384 389 394 389 380 385 393 391 388 391 384 379 378 376 380 380 375 375 375 388 396 396 395 393 387 383 388 383 389 385 384 387 385 386 385 395 405 
218 223 231 242 262 244 247 253 253 259 263 276 273 270 276 295 317 299 274 277 274 276 282 291 301 301 313 320 326 329 328 323 328 315 319 327 341 351 359 362 364 360 367 370 382 392 396 381 380 380 381 379 386 377 378 376 377 382 380 383 385 383 395 393 398 399 405 402 396 405 400 412 410 415 423 431 430 423 424 443 
238 233 249 262 284 264 266 260 270 271 279 281 276 279 295 321 322 302 282 288 285 289 300 305 316 321 327 327 334 340 340 335 343 341 358 375 385 383 378 372 366 366 373 375 376 382 393 377 377 378 377 382 382 380 387 391 390 392 395 398 397 398 409 408 412 410 420 427 431 436 437 442 449 457 459 461 457 440 442 460 
249 254 259 269 291 278 277 274 278 275 280 286 285 295 327 324 316 303 298 306 301 315 320 338 344 347 352 357 357 355 358 356 360 357 369 385 389 392 382 370 372 372 374 374 384 391 404 395 392 384 378 388 394 397 398 402 404 406 407 417 421 421 430 437 439 439 440 448 463 465 463 471 470 474 477 480 477 470 474 479 
264 265 275 275 294 294 293 289 290 298 300 312 321 337 336 316 342 351 347 345 346 349 347 349 358 354 358 369 365 364 362 364 369 366 372 386 391 393 397 384 385 388 392 386 391 407 422 417 413 405 409 409 420 421 428 432 429 426 423 435 436 437 457 456 453 443 446 463 475 490 490 490 491 499 503 508 506 496 491 496 
308 317 317 308 322 323 334 333 331 331 328 336 341 346 340 335 359 361 357 361 355 357 357 362 370 369 374 377 374 377 378 378 388 385 392 397 404 408 409 410 409 409 418 410 415 422 436 436 437 437 435 444 453 456 458 447 432 430 431 433 439 445 470 476 479 473 485 499 512 522 515 517 508 527 529 531 526 518 519 530 
348 348 346 333 336 338 350 350 341 345 343 344 345 354 339 336 357 368 366 371 368 371 376 373 382 381 382 389 383 383 395 391 401 400 402 416 435 444 445 453 456 455 461 455 442 442 458 442 457 462 453 459 469 478 471 458 449 456 458 469 479 485 503 511 521 523 529 536 542 552 544 549 543 552 550 549 552 545 544 550 
356 352 354 344 348 351 355 349 350 351 351 349 354 359 346 326 347 374 377 386 378 384 392 390 401 399 405 414 416 422 433 436 450 437 438 455 474 483 492 484 489 490 492 474 456 456 474 457 469 476 468 484 494 500 502 501 497 502 496 499 508 521 537 543 553 556 563 564 563 566 562 564 559 562 557 554 555 545 547 549 
355 358 358 351 357 360 359 353 348 346 350 356 366 382 369 374 394 410 427 436 443 448 453 453 453 446 452 471 473 486 489 484 473 454 453 463 494 505 513 511 512 512 509 500 484 475 494 499 506 517 512 521 524 529 533 526 510 526 522 526 541 555 571 573 572 577 579 576 573 570 566 565 555 556 563 557 555 545 543 548 
366 365 369 375 379 387 388 386 384 383 392 409 420 437 443 452 465 478 480 495 494 493 496 487 474 454 478 504 503 512 509 504 494 470 472 496 516 523 531 529 536 534 543 531 522 491 516 525 537 539 537 547 553 560 557 565 559 566 573 575 579 575 579 581 579 582 582 578 571 573 571 567 556 560 557 555 556 549 543 544 
411 413 417 410 430 429 426 413 405 420 431 448 461 473 478 487 495 502 508 516 516 519 520 516 506 495 515 529 530 534 535 529 529 519 508 527 530 529 532 552 563 574 580 580 576 555 561 568 580 579 580 579 579 581 582 577 574 579 581 584 582 580 583 579 577 581 579 578 575 576 569 570 559 563 559 562 557 543 536 530 
425 444 444 430 446 444 447 427 430 437 457 477 489 497 498 509 517 518 528 533 537 543 543 547 553 545 549 557 556 565 563 564 570 563 562 564 581 597 622 635 641 637 646 644 642 623 594 588 593 586 586 585 583 583 586 585 584 587 583 583 585 579 579 579 576 580 579 582 576 575 570 569 565 563 564 558 554 542 532 524 
462 470 472 477 481 489 482 475 471 480 491 498 509 521 529 536 533 523 521 530 549 562 563 573 577 569 577 584 583 590 585 591 593 588 590 592 642 663 678 677 671 668 667 661 656 641 609 591 594 592 589 590 585 583 588 587 583 586 582 586 584 577 578 578 574 574 576 575 571 575 567 569 566 565 566 557 555 541 535 528 
510 520 522 517 529 529 528 518 511 529 544 553 562 580 577 567 565 567 560 576 582 584 586 586 590 588 589 593 594 597 592 593 597 595 598 604 662 682 688 680 672 669 670 668 661 657 616 596 596 592 591 589 587 584 587 587 585 587 585 585 583 576 577 573 571 573 574 575 568 574 570 569 569 565 563 559 557 543 537 541 
540 555 548 554 565 564 565 559 574 599 609 619 620 632 621 599 586 584 580 584 584 588 589 589 592 591 594 596 594 599 594 591 600 595 600 612 673 686 687 674 667 663 665 665 667 662 620 598 593 593 587 588 586 587 586 586 584 587 586 585 585 574 576 569 570 572 576 570 569 574 568 572 567 563 564 556 554 545 543 543 
553 558 567 562 568 572 573 576 594 614 622 629 640 643 646 632 607 593 587 589 584 590 591 588 594 594 596 598 598 599 594 590 597 597 598 612 683 693 680 660 658 656 659 666 664 665 621 598 593 588 585 586 586 589 587 589 583 589 586 587 579 567 570 568 572 571 575 574 569 573 572 567 567 563 560 554 553 543 542 540 
558 563 569 561 569 573 574 583 603 621 627 640 650 654 655 653 641 606 596 595 589 593 590 589 594 596 595 596 597 597 596 595 597 597 598 616 686 691 679 680 681 680 671 666 677 675 622 592 586 582 581 581 582 586 587 588 581 587 582 580 568 557 564 569 573 574 575 574 569 570 566 570 564 558 555 552 552 540 540 544 
563 566 564 568 573 577 575 579 602 625 631 634 651 660 658 657 660 646 607 599 589 592 591 592 592 594 595 596 596 597 599 593 601 596 599 617 683 686 682 684 684 686 684 684 686 678 618 585 565 567 566 577 580 586 587 586 583 588 580 572 551 538 557 567 568 572 577 572 569 571 566 566 562 560 553 551 552 542 540 549 
569 568 568 569 571 577 578 580 596 625 633 639 642 654 660 663 682 681 640 605 595 592 591 589 592 595 595 596 595 599 599 594 596 596 598 613 676 683 682 687 689 682 684 677 684 669 613 577 557 552 560 578 578 582 585 587 583 583 578 572 559 546 556 569 569 572 575 573 568 570 564 567 560 555 556 553 552 543 542 542 
570 568 568 572 570 577 576 578 595 623 633 639 645 648 650 663 692 694 675 624 596 595 591 591 591 593 595 595 596 598 598 590 596 597 600 614 684 686 685 689 688 685 687 668 682 663 604 580 562 560 564 578 579 582 581 582 579 582 576 574 559 543 564 569 572 573 575 571 572 569 565 566 562 555 556 554 553 546 544 554 
571 569 571 570 574 577 579 578 586 614 633 638 640 641 646 658 680 691 693 646 601 592 594 593 599 595 596 599 596 597 594 588 592 591 606 641 691 688 687 687 677 676 676 654 671 647 599 580 576 571 578 579 580 575 572 571 575 576 570 570 553 542 560 569 572 573 576 574 569 573 566 566 564 562 554 554 555 547 542 546 
573 572 573 568 572 577 576 581 580 596 627 633 635 642 644 647 659 681 692 670 609 595 594 594 597 594 594 597 599 594 594 590 593 587 598 630 670 679 668 687 673 671 665 642 669 625 599 586 584 581 576 578 571 567 562 568 564 569 558 563 554 548 559 565 571 578 573 573 571 572 567 565 563 561 559 555 561 547 548 549 
569 566 570 569 569 576 581 577 577 586 613 633 636 641 643 639 634 669 692 687 630 602 593 594 598 596 597 597 597 592 592 588 590 591 591 611 625 636 647 640 666 657 640 652 666 612 596 589 586 583 575 560 559 556 560 564 555 554 547 550 550 548 561 567 567 574 574 573 570 573 569 569 566 564 559 556 558 540 544 547 
569 569 573 568 572 576 577 576 576 579 589 631 639 635 643 632 640 664 689 699 669 617 598 597 598 596 597 592 599 596 592 588 594 597 606 621 636 657 668 644 639 627 654 662 645 601 592 590 586 571 553 546 545 554 566 566 559 555 543 544 543 546 558 566 567 573 576 573 571 576 571 572 570 565 563 561 556 548 551 552 
565 570 572 569 574 576 575 580 579 577 581 607 635 629 636 637 637 653 680 699 696 659 602 600 600 602 603 591 602 598 590 597 597 595 606 640 648 647 657 651 659 641 654 667 622 598 592 590 586 568 551 537 536 551 570 569 561 555 545 542 544 543 549 562 566 573 574 577 570 575 568 570 568 562 562 560 556 553 552 556 


