P2
80 60
144
22 20 21 22 18 19 17 16 12 14 21 25 26 28 37 33 35 37 36 35 38 41 45 42 45 54 68 83 101 112 119 123 127 133 131 132 135 138 139 135 136 139 138 141 143 140 136 128 127 126 128 129 134 138 138 139 137 138 139 137 136 144 141 140 139 137 138 130 119 120 111 101 88 75 62 51 46 38 36 23 
21 19 23 20 17 21 18 16 12 19 19 25 29 34 32 36 33 34 35 39 39 43 44 39 41 51 67 75 90 106 109 120 123 128 130 129 132 134 135 132 133 138 138 136 135 136 136 128 125 127 127 128 128 137 137 135 135 138 135 138 138 140 141 140 136 132 134 130 121 108 102 93 79 72 62 47 40 35 33 21 
19 21 22 24 20 18 22 20 22 26 30 32 32 33 34 33 35 34 35 38 41 42 45 39 39 46 66 78 91 102 113 120 121 121 126 126 127 132 134 129 133 136 132 134 133 132 127 127 124 130 127 131 132 139 136 138 134 136 137 137 136 142 140 139 134 132 131 126 112 110 102 91 78 66 51 40 37 32 31 21 
24 24 26 25 23 22 22 26 36 35 36 33 38 37 35 33 35 40 42 40 41 46 43 41 41 50 63 71 88 99 108 117 119 122 126 127 127 129 134 130 132 133 131 135 134 132 130 127 127 125 132 130 134 137 135 139 137 141 136 136 142 143 140 137 136 134 132 129 116 109 99 90 76 70 54 44 41 31 30 20 
23 27 22 26 23 32 32 41 42 43 38 39 44 39 39 38 38 37 44 41 47 45 44 41 41 43 58 64 82 95 103 107 115 124 124 124 126 127 132 129 134 131 131 133 136 136 132 129 127 131 137 136 136 137 139 137 133 139 136 136 140 144 141 139 134 135 129 124 112 108 96 90 72 64 53 47 40 27 25 16 
18 19 24 28 33 40 39 46 41 42 40 45 43 40 43 41 42 41 42 43 45 46 45 39 40 35 49 61 77 89 95 108 110 118 121 123 123 128 129 129 129 131 131 134 130 130 128 128 132 131 138 138 139 136 136 136 134 135 135 140 140 141 141 139 137 132 127 120 108 102 93 84 71 66 56 39 32 29 24 18 
5 11 24 32 42 44 45 44 45 48 42 44 48 51 47 49 44 43 43 45 47 44 49 41 37 37 47 55 71 78 90 105 109 122 121 120 127 129 131 129 133 133 131 137 131 132 129 132 133 130 140 139 140 139 136 136 135 136 134 139 138 141 138 139 134 126 127 116 109 101 90 80 69 63 52 42 31 28 20 17 
10 27 42 45 44 45 45 44 47 50 50 51 48 53 55 56 50 44 47 42 47 44 47 41 36 37 44 49 55 72 85 98 111 118 123 120 124 126 130 130 129 130 130 133 129 132 126 131 134 134 138 138 140 138 141 139 136 138 135 136 139 138 132 133 131 125 116 108 100 102 86 81 69 60 50 40 31 23 21 20 
39 47 50 46 46 42 42 51 52 56 55 49 53 57 54 60 53 49 49 46 46 48 53 43 38 34 38 44 53 67 77 93 106 115 119 120 118 125 126 123 125 129 128 132 129 128 128 131 136 136 140 139 138 137 139 139 137 135 132 134 133 137 128 126 122 118 112 110 102 96 79 76 67 54 51 41 25 23 24 22 
48 50 50 44 44 43 44 50 54 52 49 56 54 62 59 63 56 51 50 50 49 51 54 46 40 33 35 41 44 62 72 87 101 112 116 122 119 123 124 124 123 128 129 129 128 130 126 132 139 135 136 139 137 139 138 140 137 136 135 136 129 129 121 119 113 109 104 103 94 88 79 76 68 57 46 27 27 24 28 26 
51 52 48 46 48 47 47 56 54 56 55 60 60 60 62 60 59 61 58 52 50 53 56 50 47 39 38 36 47 55 67 82 97 109 112 115 115 121 123 123 125 127 126 128 129 130 130 131 138 136 138 140 138 136 136 136 131 135 134 135 134 128 121 114 111 107 104 100 92 92 82 73 63 53 43 31 26 24 24 23 
49 47 48 50 50 50 50 53 56 61 57 63 63 65 66 66 68 72 66 55 52 52 58 55 47 33 36 37 41 51 60 73 85 96 103 109 113 115 120 122 122 124 126 126 127 129 129 134 135 136 138 138 138 135 133 136 134 131 132 129 124 126 119 117 105 103 99 97 84 86 76 69 58 47 34 27 25 23 25 24 
47 51 51 48 48 53 52 53 54 66 58 65 65 69 66 71 66 73 72 63 60 54 58 54 51 39 34 32 38 44 53 60 75 85 97 104 106 113 122 117 119 120 121 122 126 124 128 131 131 135 134 134 134 137 135 133 134 135 127 127 125 120 116 109 102 99 98 89 84 82 67 62 52 43 31 23 25 26 24 23 
48 49 50 49 53 52 53 57 60 65 62 64 64 67 71 69 71 74 80 75 69 62 53 53 47 39 33 29 33 42 50 57 62 75 86 93 100 107 116 110 120 118 122 122 123 128 127 130 131 132 133 131 136 134 132 135 133 134 126 125 118 117 110 107 102 99 90 86 78 74 65 57 42 35 31 27 28 25 22 24 
49 52 53 53 59 58 58 62 62 68 67 69 71 76 76 75 77 85 87 82 86 78 69 53 50 34 34 36 39 37 46 54 56 71 77 81 95 98 108 109 112 114 117 121 125 127 125 127 132 132 135 134 136 135 133 134 129 131 124 121 117 113 108 107 98 92 92 85 75 72 58 55 40 38 33 31 28 29 27 19 
54 57 56 58 55 56 63 63 68 73 70 71 73 78 80 81 85 91 92 94 93 91 85 66 56 48 41 42 43 40 37 44 50 58 65 68 81 92 98 104 106 109 110 117 121 123 120 127 129 132 133 133 136 132 134 132 130 129 119 117 114 114 106 105 94 89 89 80 71 66 49 45 33 35 29 26 28 29 33 20 
58 55 62 55 58 56 63 68 70 74 72 75 77 82 84 91 91 96 96 95 102 106 99 82 72 60 59 58 53 49 47 44 48 49 56 61 67 77 87 93 92 103 103 108 117 119 119 123 128 131 134 135 135 129 130 132 129 126 118 115 108 109 101 102 95 92 83 76 65 56 46 41 34 38 31 32 29 31 29 28 
61 64 64 58 65 59 66 67 69 74 77 79 82 85 89 91 98 98 101 104 110 106 105 98 83 73 64 62 60 58 51 49 44 49 52 53 61 68 77 79 86 92 93 103 109 114 115 118 128 129 131 130 132 126 130 131 127 124 116 114 110 109 102 98 87 88 78 68 56 54 40 40 38 37 31 32 27 27 38 32 
59 59 65 60 64 62 67 69 73 79 79 82 82 90 95 99 105 112 108 112 114 113 113 106 96 77 66 60 66 65 61 54 50 50 46 45 54 57 69 69 74 79 86 93 100 111 111 117 120 124 127 128 124 123 126 128 123 120 115 111 107 101 101 96 89 84 70 66 49 43 35 40 42 37 37 31 31 33 43 44 
65 66 68 67 68 67 67 72 76 81 81 87 87 94 99 97 107 108 114 113 115 117 120 114 110 95 84 64 63 64 66 64 56 48 48 41 49 55 62 63 63 73 77 84 94 101 104 112 114 118 117 119 117 120 122 121 118 117 108 106 99 100 92 92 80 76 68 51 40 39 37 42 39 38 36 32 36 42 53 62 
68 69 75 67 72 72 71 75 79 83 87 89 94 97 99 104 108 110 117 119 121 120 127 122 116 107 96 79 66 73 64 65 63 62 53 44 44 48 56 58 60 63 68 75 83 88 94 99 103 107 106 109 117 108 121 112 113 110 108 103 104 98 89 87 72 70 57 46 39 41 41 43 44 41 39 39 51 69 68 54 
71 73 71 70 74 73 76 76 81 85 92 96 94 99 102 107 111 114 117 116 121 127 124 125 122 116 109 91 77 65 67 63 65 66 61 54 44 49 52 49 51 59 59 68 74 74 81 83 89 95 96 98 106 100 107 105 100 106 99 96 89 91 84 76 67 59 47 39 39 44 43 41 41 41 41 58 73 73 57 43 
75 74 76 70 76 73 76 80 80 90 92 96 98 102 105 108 112 116 121 122 121 127 131 126 127 124 113 104 91 79 68 66 65 67 63 57 62 51 49 45 45 57 51 63 63 67 71 72 75 84 83 88 88 88 93 96 87 93 86 86 81 77 73 68 53 44 44 42 43 40 42 43 42 41 49 70 70 54 52 47 
79 78 79 74 75 77 77 82 85 91 92 99 96 103 106 111 112 118 119 124 125 126 132 132 129 128 125 120 106 97 82 71 68 70 64 60 61 65 58 44 46 48 45 58 59 59 63 65 67 76 71 73 78 76 77 81 78 80 75 75 72 73 60 55 43 42 48 45 45 44 43 43 44 43 63 70 62 50 47 44 
77 78 80 74 75 76 78 82 88 95 92 97 95 101 103 109 108 115 119 121 125 128 131 130 132 127 130 122 116 104 89 79 69 69 71 68 63 62 65 57 47 46 41 46 53 51 55 58 61 65 64 67 66 70 71 66 65 71 69 67 58 60 51 49 39 42 48 47 46 44 44 45 43 51 59 56 50 52 48 40 
79 79 82 79 80 81 78 86 88 96 94 99 99 98 103 102 104 110 117 119 127 130 132 135 136 129 130 132 121 109 99 89 81 78 70 69 65 68 67 65 56 54 46 50 43 46 45 50 53 56 58 57 58 57 59 62 60 62 57 55 51 49 44 45 46 48 45 49 43 44 44 44 46 49 50 52 49 49 46 46 
79 83 83 79 81 77 82 86 88 92 93 97 95 99 97 106 97 109 114 113 124 129 130 132 136 136 134 123 126 119 114 103 96 92 75 66 63 68 67 67 65 66 57 51 44 45 38 43 42 46 51 49 52 50 53 51 53 57 49 42 40 42 44 53 45 46 47 50 44 46 46 45 49 54 55 57 48 46 44 43 
83 81 82 80 81 81 82 84 91 91 90 93 96 96 96 98 94 106 111 110 119 124 130 127 132 137 136 130 129 122 121 109 105 99 92 76 74 75 70 71 63 61 61 62 55 46 44 42 37 40 44 46 44 43 48 42 45 46 39 41 39 50 46 49 46 48 49 49 46 47 44 54 52 55 54 48 45 45 45 40 
81 80 83 79 84 79 83 88 87 95 90 91 91 93 96 101 94 98 110 108 115 118 128 128 132 130 138 130 133 125 123 116 114 109 101 96 92 87 78 72 72 67 64 65 62 54 50 37 37 38 38 39 40 38 40 40 39 41 46 46 45 53 49 56 49 49 50 48 48 45 51 56 52 55 50 43 46 46 44 38 
81 83 83 79 81 82 80 87 86 94 93 89 91 92 95 97 88 98 105 104 114 112 118 121 127 129 137 133 136 132 130 129 127 117 115 109 101 98 94 81 74 72 69 65 65 59 55 42 38 39 50 45 44 47 44 44 46 50 50 51 52 55 56 56 54 50 51 47 48 57 54 58 56 55 49 47 42 39 38 34 
81 80 82 82 83 83 85 87 88 93 89 94 93 95 96 98 98 97 96 100 104 107 116 120 126 127 135 135 137 136 133 133 130 129 124 115 113 110 108 100 92 84 76 74 67 66 62 56 46 48 58 57 56 51 48 51 51 50 49 53 54 57 53 56 53 50 50 50 53 62 53 57 54 51 49 45 40 38 35 34 
80 82 87 79 84 80 85 86 87 87 88 87 86 95 96 95 90 93 94 100 102 105 112 111 119 122 132 131 133 133 134 131 127 125 126 122 120 120 119 108 101 102 90 88 80 78 70 66 65 59 66 66 65 62 57 57 55 55 58 58 57 59 57 56 55 52 54 55 57 61 55 57 49 50 46 41 40 36 36 31 
79 84 82 82 83 80 82 83 82 83 90 89 87 91 95 93 90 92 95 96 99 106 111 109 114 118 121 126 127 134 136 133 133 131 131 127 123 126 125 114 108 110 101 100 93 88 80 81 75 72 68 66 64 59 60 61 57 61 59 58 57 58 54 56 50 51 54 59 58 59 57 55 49 51 44 40 35 34 34 33 
80 78 84 77 79 78 81 80 79 87 91 90 91 91 94 91 91 90 94 97 101 103 108 106 109 109 118 119 127 128 130 130 128 133 134 128 124 127 128 121 117 114 110 104 98 93 87 85 83 85 78 78 73 67 64 63 63 59 60 58 58 58 54 56 51 52 55 56 55 58 52 52 48 50 43 36 33 30 30 32 
79 79 81 77 77 78 81 80 80 87 90 90 89 90 93 93 87 90 95 92 99 102 106 104 101 106 114 114 120 124 126 129 133 131 132 127 126 128 125 122 117 116 107 105 98 97 91 91 88 88 84 86 78 74 73 70 66 64 58 55 59 60 57 52 51 50 55 54 49 49 50 49 47 46 38 33 30 32 26 27 
77 79 80 74 76 76 77 77 82 82 85 86 85 85 86 87 88 91 92 90 96 100 104 101 103 107 109 108 113 110 117 125 130 128 131 129 128 127 123 119 116 110 103 102 97 95 94 92 89 84 87 83 82 73 72 71 69 72 64 55 58 59 56 56 53 54 48 47 42 43 43 43 40 40 36 28 26 25 30 27 
77 78 77 73 73 74 76 74 77 79 81 79 87 85 84 84 86 91 89 86 92 96 97 99 98 102 104 104 106 110 111 115 124 125 123 123 123 127 122 121 118 113 107 107 98 93 91 92 87 88 85 83 81 75 74 78 67 67 61 53 54 55 55 54 48 43 39 38 40 43 38 35 38 37 31 23 24 27 26 26 
75 74 71 70 72 70 70 70 75 77 77 78 82 84 84 86 80 85 89 86 86 91 96 94 97 100 99 100 106 105 110 113 116 117 122 119 121 123 119 117 113 111 105 100 98 97 91 90 92 86 89 83 81 79 78 80 72 71 63 53 49 46 48 48 40 39 37 35 37 40 38 33 30 32 28 23 28 28 27 24 
73 73 74 64 68 67 70 71 75 78 78 74 80 82 82 84 81 84 86 79 85 89 94 94 99 97 99 97 100 105 105 112 110 111 113 115 111 118 118 113 111 104 98 99 94 91 87 89 89 88 86 84 80 78 74 76 69 69 59 49 40 40 40 42 36 35 36 33 33 38 32 32 31 34 31 28 28 23 26 25 
70 70 71 64 64 64 65 69 70 73 74 77 74 79 81 81 81 79 84 79 83 88 92 93 96 95 97 99 101 102 107 105 104 109 109 110 110 115 116 104 104 99 98 94 96 94 89 89 85 84 84 79 76 76 72 73 70 69 53 43 37 43 37 38 35 39 31 30 30 34 30 30 35 35 31 31 22 27 28 26 
68 67 70 66 64 67 64 70 68 72 74 70 76 78 80 80 70 82 80 74 81 86 89 91 92 90 97 100 101 102 101 103 108 109 110 110 107 112 110 106 103 103 96 94 91 88 89 83 82 82 83 80 77 73 71 73 70 66 53 48 46 43 38 33 30 30 39 29 29 36 32 36 35 30 28 26 23 24 24 25 
68 65 69 64 65 64 64 70 64 70 70 72 75 78 80 75 77 78 78 78 79 82 89 91 91 92 96 96 100 102 99 105 107 107 106 102 104 106 109 105 98 97 93 92 90 84 84 81 80 78 76 79 77 72 71 72 69 59 50 45 48 48 42 47 39 36 40 35 33 35 34 35 36 29 32 24 24 23 23 26 
64 68 68 67 65 67 63 64 64 62 67 69 69 72 73 72 71 74 77 74 79 84 85 85 92 93 95 97 98 97 99 99 104 103 102 100 99 99 105 100 98 92 90 89 89 86 79 79 81 79 74 73 73 71 71 71 61 55 51 46 43 45 43 43 41 41 39 35 33 31 34 34 32 32 29 26 23 23 23 22 
59 64 69 61 63 62 61 61 63 60 59 64 68 71 70 71 68 71 74 73 82 82 85 87 89 91 95 93 94 95 97 99 101 100 97 93 98 98 104 95 92 91 86 87 86 80 79 78 77 74 73 70 72 66 69 66 59 51 49 45 48 47 42 42 37 42 39 36 31 31 32 34 29 32 25 25 17 22 21 22 
57 61 56 59 64 61 64 64 61 65 62 60 68 63 69 70 68 73 75 72 78 83 85 85 87 86 92 87 91 93 94 97 101 100 95 90 92 94 96 94 90 91 87 86 83 77 77 79 75 71 68 66 67 66 67 60 51 49 46 46 48 46 47 44 41 38 40 39 32 35 33 33 29 31 25 25 18 21 20 18 
52 59 58 57 61 62 62 65 61 66 64 65 61 67 68 70 70 70 75 74 82 80 82 81 87 83 84 89 91 94 91 94 98 97 99 91 90 93 95 91 90 87 84 83 83 81 77 75 74 68 68 70 68 67 63 54 48 49 49 46 47 49 46 44 40 35 41 35 34 34 32 32 30 27 26 24 17 15 18 23 
49 51 60 55 61 59 58 61 62 67 65 67 65 69 68 72 70 74 75 71 76 80 85 82 83 82 86 85 86 89 91 96 94 98 95 90 92 90 91 88 86 87 83 83 78 79 78 76 73 71 72 71 70 71 63 54 52 49 48 45 49 49 47 44 43 38 42 34 33 32 31 30 29 28 25 18 19 19 17 14 
42 47 53 52 54 54 54 57 62 63 65 63 66 66 70 67 68 69 69 69 77 78 82 82 82 73 81 81 87 88 87 91 93 92 91 87 86 88 90 87 83 82 79 82 79 76 77 74 69 69 69 67 68 62 55 49 52 44 40 45 49 46 42 43 41 39 37 35 29 30 29 26 28 26 23 16 16 17 14 13 
39 40 52 48 55 48 52 53 59 64 62 66 66 65 70 66 65 66 66 68 73 75 82 78 81 78 80 82 84 84 87 89 89 89 89 83 85 89 89 82 85 81 79 79 79 74 75 72 71 70 70 70 66 59 48 47 47 47 46 44 45 45 44 41 40 35 38 32 27 26 24 24 26 26 23 13 12 15 13 10 
38 40 47 46 50 49 45 48 59 58 63 62 60 64 70 63 65 68 68 66 72 74 80 79 77 77 83 84 83 86 84 89 91 91 84 86 84 87 89 83 78 80 77 77 73 75 76 71 75 69 67 69 61 51 48 51 44 48 46 45 44 46 40 38 38 36 35 31 29 27 24 24 23 24 26 15 13 13 10 9 
26 33 41 39 48 49 46 52 53 57 58 60 62 63 65 67 62 68 68 68 70 69 75 75 75 76 80 82 82 82 82 87 86 88 86 80 81 85 88 87 82 82 75 76 73 74 74 72 71 69 71 70 54 53 48 48 46 45 46 42 44 43 39 36 37 36 34 28 23 24 22 22 23 23 26 16 11 13 10 5 
28 30 41 30 42 45 46 53 54 55 58 60 61 61 62 65 64 65 66 67 70 68 72 74 75 78 83 80 81 81 79 81 84 85 80 80 79 83 83 83 79 77 74 76 75 74 72 73 73 74 68 62 53 50 45 48 46 45 45 42 42 44 39 34 34 33 31 28 25 24 23 23 23 21 18 12 10 10 11 5 
29 26 33 26 37 42 41 47 48 53 55 56 58 59 69 66 64 72 65 68 66 66 73 74 76 74 77 79 78 82 81 82 82 80 79 77 75 83 82 74 78 78 72 72 70 70 71 74 72 68 62 54 52 46 46 45 46 42 42 39 44 43 42 38 35 33 29 26 22 20 21 20 23 19 16 12 10 11 9 1 
24 28 34 31 32 31 38 43 46 52 50 53 58 59 62 64 57 68 66 65 66 69 71 73 74 75 79 77 76 80 80 81 81 80 80 80 77 83 79 80 76 78 73 75 71 70 77 75 70 70 60 56 50 48 48 43 46 43 41 40 38 41 40 35 34 28 26 24 19 19 18 21 20 15 13 10 4 9 4 3 
24 27 27 23 27 27 34 37 44 46 50 51 55 54 58 59 55 64 64 66 66 72 73 76 75 74 76 77 73 78 76 79 78 77 80 77 74 79 77 76 74 75 69 74 70 73 74 71 72 63 54 47 48 48 42 44 43 39 41 39 36 37 38 36 34 29 28 23 21 22 19 17 20 14 10 5 4 4 5 5 
27 28 31 24 31 28 34 31 40 46 54 50 55 58 54 58 61 69 65 67 67 70 74 70 73 76 78 78 78 79 78 78 80 77 80 75 77 79 81 78 74 72 71 73 73 73 74 75 68 57 53 52 51 48 46 43 43 43 40 37 39 38 36 34 30 26 25 24 19 21 18 19 17 14 11 2 3 5 7 6 
26 27 29 28 27 27 30 31 36 44 51 52 57 56 59 55 59 64 64 64 67 71 70 71 74 73 77 78 78 78 79 76 81 82 78 76 75 80 80 75 75 74 72 71 73 72 75 69 58 57 54 50 51 47 47 47 45 42 39 37 38 40 36 31 32 27 25 24 20 21 19 16 17 13 7 8 0 6 7 2 
23 27 30 23 28 26 29 32 33 38 40 45 49 57 58 57 57 61 60 60 65 70 71 71 73 75 75 79 77 81 80 79 77 82 79 75 76 75 77 76 74 74 70 72 74 75 70 64 56 53 54 48 49 47 47 41 44 41 41 38 36 36 32 31 31 25 27 23 20 22 21 20 19 16 13 7 4 6 7 3 
27 26 30 30 27 26 28 37 32 34 39 38 44 54 55 59 56 59 63 58 61 67 69 68 78 75 79 78 77 77 79 82 78 78 79 77 75 79 82 79 74 74 74 71 77 69 70 64 58 59 57 52 53 48 46 41 42 41 39 38 39 38 36 32 32 27 26 25 18 22 19 22 18 14 9 7 1 7 8 5 
20 31 30 28 28 27 26 30 31 31 30 35 43 49 52 55 57 61 58 57 66 68 66 74 77 78 74 79 75 80 81 79 82 82 79 80 78 77 82 78 73 77 72 70 75 67 62 58 51 50 53 54 51 49 47 43 45 40 40 36 37 36 33 32 29 27 29 25 23 21 19 22 16 14 11 4 4 8 9 3 


