P2
80 60
1925
928 971 1036 1099 1168 1224 1312 1386 1454 1545 1638 1708 1770 1826 1827 1847 1854 1840 1823 1817 1801 1777 1763 1741 1717 1715 1713 1711 1705 1704 1693 1675 1669 1666 1668 1692 1694 1700 1703 1721 1738 1742 1733 1705 1729 1780 1805 1815 1805 1801 1777 1765 1758 1758 1742 1738 1737 1747 1750 1753 1759 1780 1808 1806 1798 1824 1855 1869 1884 1879 1870 1850 1808 1776 1705 1627 1530 1447 1360 1301 
946 1003 1056 1120 1198 1261 1343 1425 1498 1598 1683 1753 1788 1824 1829 1846 1856 1847 1828 1815 1795 1772 1742 1724 1703 1688 1695 1695 1691 1693 1675 1662 1664 1654 1650 1670 1695 1700 1698 1703 1722 1722 1718 1691 1705 1771 1799 1806 1795 1785 1786 1768 1770 1774 1760 1733 1738 1740 1732 1739 1752 1779 1808 1810 1803 1822 1851 1876 1888 1881 1876 1878 1834 1821 1758 1687 1587 1494 1397 1326 
962 1022 1091 1159 1236 1295 1389 1466 1549 1653 1744 1805 1817 1826 1836 1851 1852 1837 1810 1802 1780 1755 1732 1707 1686 1670 1673 1681 1675 1671 1660 1658 1660 1646 1639 1652 1682 1691 1689 1697 1703 1703 1700 1673 1694 1750 1789 1800 1793 1785 1784 1783 1777 1787 1773 1749 1746 1750 1752 1731 1749 1766 1805 1817 1820 1829 1855 1885 1888 1879 1892 1902 1867 1850 1816 1743 1639 1539 1448 1363 
985 1046 1114 1183 1264 1335 1419 1500 1592 1704 1790 1839 1841 1829 1822 1850 1836 1816 1790 1781 1759 1729 1714 1693 1669 1650 1644 1657 1655 1658 1657 1651 1652 1648 1630 1632 1659 1676 1671 1678 1685 1685 1681 1668 1698 1743 1766 1778 1784 1777 1780 1769 1779 1780 1765 1752 1757 1766 1756 1749 1749 1762 1797 1825 1826 1830 1856 1884 1889 1887 1904 1914 1880 1866 1841 1788 1683 1587 1471 1392 
1002 1062 1141 1213 1301 1369 1451 1541 1624 1748 1830 1856 1849 1835 1809 1823 1808 1793 1772 1761 1735 1712 1691 1675 1648 1627 1636 1634 1630 1642 1641 1639 1638 1636 1624 1600 1635 1658 1656 1659 1658 1661 1660 1647 1689 1730 1754 1785 1760 1757 1770 1773 1772 1785 1775 1751 1766 1770 1765 1749 1736 1760 1797 1823 1824 1830 1860 1884 1890 1891 1914 1918 1900 1876 1857 1834 1719 1629 1507 1423 
1027 1092 1163 1245 1331 1404 1485 1574 1664 1779 1835 1860 1855 1840 1797 1793 1789 1770 1752 1738 1714 1693 1679 1659 1639 1616 1612 1609 1608 1615 1617 1626 1631 1632 1620 1583 1603 1637 1638 1644 1643 1651 1651 1644 1675 1750 1786 1791 1757 1746 1740 1762 1766 1781 1772 1759 1763 1773 1763 1739 1727 1761 1798 1810 1806 1829 1849 1878 1883 1902 1917 1917 1897 1890 1879 1859 1758 1663 1550 1444 
1047 1110 1194 1260 1350 1422 1514 1615 1691 1790 1830 1847 1839 1847 1795 1761 1752 1743 1724 1720 1694 1666 1657 1636 1609 1596 1589 1583 1585 1590 1599 1601 1608 1610 1601 1561 1572 1609 1610 1624 1639 1651 1651 1645 1657 1722 1787 1795 1781 1736 1718 1722 1753 1772 1767 1760 1767 1773 1755 1735 1744 1762 1802 1790 1796 1824 1850 1868 1886 1900 1910 1908 1909 1908 1894 1853 1783 1686 1579 1469 
1065 1145 1216 1295 1384 1456 1544 1640 1714 1800 1821 1830 1828 1832 1808 1757 1713 1717 1704 1702 1677 1656 1642 1621 1600 1582 1580 1576 1576 1578 1578 1587 1592 1593 1588 1560 1557 1587 1601 1624 1641 1651 1650 1620 1643 1709 1764 1798 1789 1763 1724 1707 1727 1758 1764 1759 1767 1768 1748 1761 1754 1766 1801 1772 1795 1833 1856 1871 1883 1884 1906 1911 1914 1922 1906 1872 1799 1714 1613 1507 
1087 1151 1233 1306 1403 1475 1568 1662 1732 1802 1806 1804 1806 1807 1802 1759 1696 1667 1677 1676 1648 1625 1613 1597 1584 1570 1570 1579 1565 1564 1563 1563 1570 1579 1581 1557 1560 1583 1598 1624 1639 1644 1655 1631 1653 1699 1750 1776 1790 1780 1770 1718 1720 1743 1749 1748 1755 1751 1741 1769 1748 1773 1781 1775 1803 1835 1859 1868 1871 1884 1899 1917 1917 1925 1890 1866 1805 1720 1633 1525 
1107 1168 1254 1331 1421 1503 1594 1689 1758 1806 1810 1802 1793 1791 1778 1761 1697 1635 1639 1644 1619 1600 1595 1592 1587 1585 1581 1569 1555 1548 1553 1570 1572 1580 1584 1591 1590 1591 1595 1609 1618 1609 1627 1646 1678 1708 1740 1772 1783 1791 1796 1768 1721 1728 1725 1724 1743 1739 1742 1765 1745 1743 1760 1767 1792 1834 1854 1851 1861 1873 1906 1921 1924 1916 1898 1861 1798 1744 1650 1555 
1115 1194 1280 1354 1447 1526 1625 1719 1786 1814 1812 1810 1793 1770 1743 1734 1696 1633 1612 1619 1598 1588 1595 1601 1599 1587 1583 1557 1556 1556 1571 1590 1604 1616 1625 1630 1631 1623 1615 1611 1615 1614 1630 1662 1708 1744 1757 1779 1770 1777 1782 1776 1742 1723 1717 1721 1734 1739 1750 1764 1743 1735 1745 1762 1791 1824 1842 1846 1862 1882 1913 1925 1921 1920 1896 1859 1803 1753 1679 1580 
1132 1209 1288 1375 1462 1541 1641 1741 1797 1805 1809 1798 1770 1743 1708 1704 1668 1623 1594 1601 1584 1567 1583 1589 1580 1570 1557 1556 1562 1596 1598 1623 1643 1664 1667 1667 1668 1655 1639 1628 1627 1621 1639 1663 1708 1748 1778 1793 1789 1780 1767 1743 1727 1705 1707 1732 1729 1737 1753 1756 1750 1741 1736 1759 1783 1815 1824 1845 1862 1890 1906 1912 1907 1907 1883 1853 1803 1762 1695 1603 
1142 1222 1300 1386 1467 1562 1661 1755 1793 1813 1793 1775 1735 1703 1679 1672 1648 1626 1601 1597 1566 1546 1564 1559 1557 1545 1561 1572 1607 1645 1620 1630 1646 1654 1661 1668 1672 1668 1662 1658 1647 1632 1650 1670 1710 1746 1772 1792 1801 1804 1790 1747 1714 1715 1704 1714 1726 1736 1737 1741 1753 1751 1745 1756 1767 1799 1815 1846 1862 1876 1880 1890 1879 1883 1858 1833 1796 1774 1708 1626 
1151 1229 1315 1393 1479 1565 1669 1756 1788 1790 1777 1744 1708 1684 1675 1670 1653 1647 1619 1601 1576 1560 1556 1541 1537 1551 1577 1597 1628 1660 1631 1617 1612 1602 1611 1626 1637 1647 1656 1661 1666 1646 1649 1688 1709 1742 1760 1782 1790 1791 1781 1759 1727 1727 1722 1719 1721 1735 1734 1738 1755 1761 1738 1747 1771 1805 1830 1844 1855 1866 1869 1870 1862 1856 1837 1819 1794 1783 1730 1641 
1156 1235 1318 1401 1493 1578 1673 1756 1785 1780 1766 1737 1697 1684 1676 1676 1662 1658 1634 1620 1590 1596 1593 1566 1563 1577 1607 1624 1630 1655 1636 1618 1597 1595 1609 1615 1618 1620 1626 1657 1682 1669 1658 1700 1706 1735 1734 1764 1775 1784 1775 1744 1721 1725 1735 1737 1730 1723 1729 1741 1761 1764 1754 1766 1794 1816 1834 1847 1851 1872 1886 1884 1865 1859 1836 1815 1793 1786 1738 1660 
1161 1243 1332 1417 1508 1599 1682 1763 1780 1780 1762 1730 1699 1694 1674 1667 1653 1645 1624 1609 1603 1616 1618 1600 1592 1609 1636 1641 1627 1625 1614 1602 1595 1636 1650 1627 1617 1619 1630 1644 1668 1677 1655 1695 1713 1707 1699 1741 1769 1777 1764 1735 1716 1725 1738 1750 1741 1735 1724 1739 1772 1767 1770 1799 1822 1836 1838 1850 1871 1898 1913 1914 1886 1872 1840 1816 1796 1799 1751 1670 
1168 1249 1330 1424 1514 1595 1687 1757 1783 1781 1761 1742 1716 1705 1696 1674 1642 1630 1591 1565 1585 1607 1616 1614 1592 1605 1636 1635 1618 1611 1599 1607 1616 1667 1681 1625 1601 1606 1622 1640 1668 1675 1651 1679 1709 1699 1687 1719 1757 1771 1765 1727 1704 1722 1740 1738 1740 1747 1733 1739 1774 1761 1776 1818 1834 1844 1842 1858 1887 1902 1912 1915 1889 1876 1845 1815 1809 1807 1760 1674 
1165 1252 1342 1419 1515 1605 1700 1760 1778 1783 1769 1767 1739 1738 1714 1690 1648 1637 1572 1544 1557 1586 1606 1609 1594 1596 1628 1630 1613 1607 1607 1612 1637 1695 1704 1632 1600 1612 1625 1651 1671 1670 1666 1678 1704 1693 1687 1707 1744 1760 1756 1733 1709 1724 1731 1737 1734 1748 1750 1744 1762 1759 1786 1823 1842 1856 1849 1864 1881 1895 1902 1896 1877 1864 1831 1827 1817 1818 1766 1675 
1165 1260 1339 1428 1520 1606 1703 1769 1783 1798 1798 1795 1771 1768 1734 1716 1655 1627 1578 1561 1557 1565 1580 1596 1587 1563 1618 1620 1608 1603 1628 1644 1653 1692 1726 1678 1628 1627 1642 1670 1686 1692 1709 1714 1722 1728 1717 1729 1740 1742 1743 1737 1722 1724 1729 1728 1729 1755 1770 1741 1760 1756 1796 1824 1837 1846 1856 1864 1880 1885 1892 1881 1859 1851 1832 1839 1827 1822 1768 1681 
1165 1254 1338 1425 1511 1608 1696 1771 1783 1804 1807 1801 1785 1774 1745 1703 1635 1610 1581 1566 1549 1564 1559 1570 1577 1551 1615 1663 1622 1606 1648 1693 1691 1691 1720 1729 1693 1674 1673 1692 1715 1733 1745 1749 1745 1743 1740 1740 1740 1737 1740 1732 1724 1723 1717 1722 1720 1747 1760 1744 1746 1750 1785 1809 1830 1847 1853 1860 1873 1878 1870 1865 1843 1833 1838 1847 1846 1822 1768 1687 
1169 1242 1336 1418 1509 1598 1692 1769 1776 1800 1807 1812 1788 1778 1734 1677 1612 1602 1596 1583 1579 1570 1573 1557 1573 1579 1671 1706 1652 1612 1661 1707 1732 1712 1701 1717 1735 1732 1733 1742 1747 1744 1740 1737 1741 1743 1737 1739 1731 1736 1734 1718 1700 1704 1710 1711 1717 1741 1764 1758 1746 1742 1764 1787 1812 1830 1846 1850 1859 1870 1864 1862 1835 1828 1834 1858 1845 1830 1777 1696 
1163 1242 1324 1413 1506 1596 1683 1777 1776 1791 1796 1806 1787 1766 1706 1642 1593 1610 1607 1596 1559 1552 1581 1556 1565 1611 1698 1712 1666 1618 1668 1720 1745 1741 1708 1710 1729 1716 1717 1736 1720 1709 1700 1700 1708 1714 1718 1729 1732 1739 1735 1707 1680 1676 1691 1710 1750 1784 1776 1765 1726 1725 1753 1774 1796 1819 1836 1848 1860 1861 1867 1863 1839 1837 1851 1854 1850 1834 1798 1701 
1156 1241 1319 1403 1497 1579 1683 1775 1776 1774 1781 1781 1757 1728 1680 1638 1607 1620 1630 1606 1558 1551 1574 1557 1576 1646 1709 1708 1625 1617 1673 1719 1750 1759 1731 1712 1700 1698 1699 1699 1679 1661 1672 1678 1696 1703 1717 1725 1736 1741 1742 1705 1671 1677 1686 1699 1778 1800 1796 1739 1714 1717 1738 1765 1790 1821 1832 1844 1851 1868 1869 1870 1838 1833 1853 1847 1841 1842 1806 1701 
1146 1229 1313 1400 1488 1564 1675 1765 1780 1768 1755 1753 1728 1715 1684 1657 1639 1660 1633 1585 1563 1564 1570 1561 1600 1659 1702 1658 1609 1612 1655 1706 1738 1756 1752 1733 1700 1695 1697 1685 1656 1650 1660 1665 1699 1711 1717 1713 1730 1748 1740 1698 1682 1677 1688 1728 1775 1796 1770 1733 1712 1710 1726 1754 1779 1805 1830 1842 1854 1869 1880 1868 1837 1828 1835 1833 1834 1856 1802 1690 
1136 1216 1306 1380 1472 1554 1656 1741 1763 1764 1737 1728 1720 1722 1691 1682 1672 1676 1639 1567 1532 1549 1555 1584 1628 1661 1682 1629 1582 1596 1641 1684 1725 1742 1747 1733 1718 1697 1689 1680 1655 1646 1651 1661 1696 1713 1712 1701 1704 1725 1736 1687 1679 1691 1710 1737 1770 1782 1743 1734 1726 1707 1715 1744 1771 1798 1827 1839 1850 1862 1865 1855 1834 1826 1829 1834 1834 1850 1794 1670 
1124 1204 1293 1366 1456 1539 1636 1716 1763 1773 1760 1748 1746 1744 1727 1723 1701 1689 1641 1593 1546 1545 1585 1608 1633 1654 1653 1597 1561 1594 1626 1666 1699 1728 1735 1728 1725 1709 1696 1683 1670 1658 1655 1664 1702 1716 1723 1709 1703 1700 1721 1697 1685 1705 1718 1732 1746 1762 1744 1757 1743 1711 1706 1733 1757 1791 1808 1820 1837 1851 1855 1845 1833 1854 1855 1848 1844 1847 1770 1653 
1115 1188 1269 1357 1443 1523 1618 1698 1764 1790 1793 1795 1777 1779 1760 1744 1701 1695 1641 1623 1613 1590 1607 1618 1625 1630 1616 1570 1545 1571 1609 1641 1680 1702 1717 1725 1722 1713 1705 1701 1703 1697 1680 1685 1691 1716 1726 1720 1712 1704 1709 1725 1711 1720 1728 1733 1743 1753 1752 1754 1735 1715 1708 1732 1756 1785 1803 1811 1822 1838 1855 1857 1862 1876 1873 1868 1850 1844 1748 1623 
1097 1174 1258 1339 1424 1501 1602 1683 1747 1805 1826 1822 1800 1778 1746 1716 1690 1677 1639 1633 1640 1612 1607 1609 1616 1603 1579 1559 1562 1588 1605 1631 1658 1687 1704 1719 1717 1713 1716 1727 1731 1740 1719 1712 1715 1716 1728 1740 1741 1728 1718 1736 1739 1758 1755 1741 1745 1742 1753 1757 1736 1718 1716 1733 1752 1780 1801 1832 1851 1872 1877 1881 1883 1887 1867 1859 1852 1822 1710 1593 
1085 1156 1245 1324 1405 1475 1574 1661 1734 1794 1827 1821 1781 1755 1722 1678 1648 1647 1631 1620 1620 1625 1614 1612 1606 1588 1577 1578 1586 1608 1634 1640 1658 1670 1686 1703 1715 1720 1720 1738 1764 1775 1756 1729 1747 1726 1729 1745 1753 1756 1737 1738 1746 1775 1774 1760 1758 1737 1733 1741 1739 1732 1744 1750 1775 1805 1839 1865 1878 1877 1887 1885 1873 1867 1852 1846 1847 1784 1665 1557 
1066 1141 1216 1301 1383 1458 1551 1637 1702 1789 1816 1815 1766 1736 1714 1703 1671 1666 1655 1621 1597 1578 1596 1603 1594 1577 1597 1608 1618 1635 1648 1661 1674 1683 1688 1697 1711 1718 1726 1753 1776 1802 1796 1752 1762 1761 1740 1739 1748 1760 1761 1746 1743 1768 1784 1782 1775 1760 1744 1753 1755 1751 1760 1774 1805 1829 1856 1876 1870 1876 1876 1865 1853 1859 1843 1849 1816 1747 1633 1520 
1045 1126 1199 1281 1361 1423 1518 1607 1677 1770 1806 1801 1758 1727 1710 1714 1718 1725 1699 1662 1610 1572 1589 1592 1579 1584 1606 1628 1635 1655 1670 1679 1693 1701 1705 1715 1717 1729 1740 1766 1791 1812 1817 1772 1761 1777 1768 1737 1745 1759 1777 1768 1747 1763 1786 1796 1791 1790 1774 1774 1766 1760 1773 1791 1815 1841 1857 1862 1869 1861 1860 1858 1855 1858 1840 1831 1792 1704 1593 1483 
1017 1101 1185 1257 1330 1399 1479 1570 1639 1741 1784 1791 1760 1732 1720 1724 1737 1745 1713 1681 1624 1577 1578 1588 1585 1582 1611 1637 1650 1663 1681 1687 1700 1710 1716 1727 1737 1737 1750 1768 1797 1817 1814 1788 1755 1783 1785 1752 1736 1753 1772 1779 1772 1765 1770 1786 1794 1790 1794 1797 1782 1772 1784 1790 1807 1838 1846 1853 1852 1852 1861 1864 1870 1859 1835 1816 1755 1668 1548 1438 
991 1075 1166 1231 1305 1368 1450 1530 1614 1709 1770 1795 1779 1747 1715 1725 1738 1760 1731 1704 1657 1609 1604 1621 1623 1601 1599 1626 1643 1661 1686 1691 1715 1722 1730 1742 1752 1758 1755 1770 1787 1808 1813 1776 1767 1776 1788 1782 1739 1748 1771 1784 1793 1787 1774 1779 1786 1789 1785 1790 1796 1794 1790 1796 1808 1829 1842 1855 1854 1860 1867 1874 1875 1871 1835 1805 1734 1629 1504 1399 
973 1045 1139 1201 1276 1345 1421 1494 1582 1677 1750 1800 1787 1754 1718 1712 1721 1748 1739 1730 1686 1675 1665 1669 1654 1628 1595 1616 1640 1653 1665 1677 1700 1721 1730 1737 1753 1758 1756 1756 1772 1795 1793 1769 1770 1775 1787 1787 1751 1733 1755 1777 1791 1808 1795 1790 1794 1802 1800 1802 1796 1789 1787 1795 1813 1838 1845 1851 1851 1866 1871 1879 1879 1879 1845 1799 1693 1575 1458 1357 
949 1031 1111 1176 1245 1315 1389 1458 1537 1634 1722 1777 1790 1764 1727 1710 1708 1732 1743 1740 1734 1714 1700 1694 1678 1662 1634 1624 1642 1663 1674 1684 1687 1712 1698 1710 1726 1733 1721 1740 1752 1776 1766 1755 1755 1763 1775 1784 1760 1728 1741 1754 1775 1806 1806 1803 1809 1813 1817 1812 1810 1793 1787 1798 1805 1825 1838 1843 1844 1839 1857 1880 1880 1875 1840 1761 1646 1528 1414 1315 
929 1002 1081 1148 1215 1282 1354 1424 1492 1589 1676 1757 1796 1787 1737 1713 1701 1720 1751 1762 1761 1742 1722 1713 1712 1687 1674 1649 1632 1664 1692 1707 1707 1685 1679 1681 1685 1691 1694 1703 1725 1737 1729 1730 1741 1747 1757 1767 1755 1747 1728 1740 1759 1795 1809 1815 1823 1836 1840 1848 1832 1811 1797 1794 1802 1821 1836 1839 1840 1840 1855 1870 1877 1865 1805 1704 1586 1473 1362 1269 
912 967 1041 1124 1196 1253 1323 1388 1451 1544 1633 1718 1776 1802 1775 1728 1703 1729 1756 1784 1779 1746 1731 1722 1729 1717 1702 1682 1637 1644 1682 1700 1715 1713 1693 1682 1676 1655 1663 1684 1704 1716 1705 1710 1726 1736 1742 1745 1743 1747 1750 1750 1750 1783 1803 1816 1828 1845 1851 1860 1836 1831 1816 1815 1822 1834 1839 1866 1860 1849 1847 1863 1862 1833 1745 1641 1533 1434 1317 1238 
884 945 1011 1093 1161 1220 1288 1356 1416 1497 1582 1675 1749 1810 1801 1765 1723 1740 1767 1786 1766 1738 1706 1725 1723 1720 1715 1688 1663 1652 1684 1701 1719 1721 1712 1695 1679 1655 1651 1668 1681 1692 1702 1706 1722 1738 1742 1744 1737 1748 1769 1771 1756 1765 1797 1812 1833 1853 1863 1874 1843 1832 1836 1841 1837 1838 1845 1875 1874 1867 1856 1863 1838 1784 1687 1588 1477 1394 1285 1204 
858 927 995 1057 1129 1189 1246 1320 1373 1461 1544 1634 1703 1790 1813 1796 1760 1741 1743 1764 1749 1716 1717 1737 1745 1724 1716 1700 1667 1650 1685 1706 1730 1725 1722 1704 1696 1684 1662 1667 1687 1698 1709 1709 1715 1728 1743 1750 1752 1744 1772 1774 1773 1766 1783 1813 1843 1859 1870 1883 1858 1836 1836 1833 1837 1833 1853 1872 1876 1863 1863 1849 1797 1724 1632 1531 1436 1345 1260 1182 
843 896 961 1031 1094 1158 1220 1286 1346 1417 1487 1574 1650 1738 1794 1814 1795 1759 1729 1732 1720 1708 1720 1760 1769 1762 1731 1705 1675 1651 1675 1714 1742 1746 1739 1728 1715 1711 1694 1698 1697 1708 1715 1726 1728 1731 1741 1761 1761 1754 1757 1774 1781 1784 1784 1811 1844 1865 1886 1887 1868 1847 1847 1846 1836 1832 1835 1852 1856 1853 1849 1826 1751 1670 1576 1479 1393 1311 1224 1147 
806 861 932 992 1064 1123 1182 1243 1301 1370 1435 1512 1592 1687 1753 1805 1816 1786 1736 1712 1708 1716 1735 1767 1779 1767 1757 1744 1712 1683 1670 1703 1739 1762 1758 1748 1737 1731 1721 1721 1725 1721 1737 1741 1749 1737 1746 1755 1767 1764 1758 1763 1780 1797 1807 1811 1841 1877 1886 1888 1875 1862 1858 1853 1835 1836 1835 1837 1846 1837 1818 1774 1695 1612 1518 1443 1351 1271 1182 1114 
760 849 904 956 1025 1083 1141 1199 1252 1330 1381 1457 1522 1615 1694 1764 1805 1823 1765 1727 1706 1731 1758 1772 1772 1770 1767 1755 1738 1721 1700 1696 1739 1765 1767 1767 1758 1747 1733 1734 1732 1739 1749 1760 1764 1753 1735 1745 1756 1768 1791 1761 1774 1795 1817 1838 1845 1874 1894 1895 1880 1873 1872 1866 1847 1838 1841 1844 1843 1824 1782 1723 1626 1562 1479 1386 1306 1238 1150 1093 
709 807 876 936 995 1051 1106 1156 1214 1275 1331 1401 1467 1545 1627 1693 1773 1827 1807 1763 1725 1733 1759 1772 1769 1761 1762 1755 1749 1737 1727 1711 1716 1754 1777 1782 1774 1765 1754 1747 1747 1750 1751 1761 1771 1773 1741 1731 1749 1783 1809 1789 1766 1799 1827 1861 1877 1881 1892 1895 1893 1886 1886 1872 1857 1850 1851 1853 1833 1803 1735 1664 1570 1509 1415 1334 1257 1196 1116 1053 
673 747 846 896 967 1011 1064 1121 1166 1235 1285 1351 1400 1475 1549 1629 1697 1781 1820 1788 1750 1725 1746 1764 1767 1761 1757 1757 1751 1745 1744 1734 1730 1726 1757 1779 1783 1784 1768 1766 1764 1767 1764 1767 1785 1780 1749 1742 1750 1780 1807 1802 1788 1797 1831 1867 1895 1900 1905 1911 1918 1909 1890 1870 1865 1850 1846 1823 1780 1736 1669 1592 1510 1446 1365 1293 1219 1161 1082 1016 
650 693 793 863 924 965 1028 1084 1122 1194 1241 1292 1343 1403 1471 1550 1626 1696 1766 1797 1774 1750 1746 1767 1760 1756 1763 1764 1762 1755 1750 1752 1751 1739 1735 1752 1770 1771 1770 1774 1775 1773 1770 1770 1781 1774 1767 1761 1767 1788 1795 1807 1808 1816 1814 1837 1873 1895 1891 1900 1904 1893 1882 1865 1852 1856 1836 1777 1719 1663 1600 1529 1444 1389 1316 1245 1172 1117 1043 989 
609 668 733 828 889 930 998 1052 1086 1143 1192 1244 1282 1347 1391 1470 1536 1625 1686 1750 1776 1787 1757 1763 1761 1764 1769 1776 1769 1770 1771 1776 1777 1752 1728 1721 1737 1749 1748 1754 1765 1767 1777 1759 1754 1753 1768 1782 1782 1800 1808 1808 1823 1826 1822 1844 1865 1873 1866 1874 1877 1872 1859 1854 1855 1851 1798 1727 1655 1590 1530 1460 1386 1328 1268 1207 1130 1076 1015 952 
536 631 686 775 855 897 951 1004 1044 1096 1138 1189 1236 1284 1338 1396 1450 1533 1603 1674 1731 1775 1784 1770 1766 1770 1778 1781 1777 1773 1783 1782 1788 1772 1758 1732 1724 1735 1738 1744 1753 1758 1761 1748 1753 1763 1768 1783 1788 1800 1816 1802 1821 1835 1836 1866 1879 1876 1865 1864 1866 1865 1856 1846 1813 1786 1728 1665 1588 1520 1456 1397 1324 1273 1213 1154 1090 1039 975 925 
340 579 659 703 802 860 916 950 1006 1053 1089 1140 1177 1235 1277 1328 1379 1449 1514 1593 1651 1707 1767 1775 1766 1766 1774 1788 1787 1786 1794 1796 1792 1788 1773 1770 1760 1745 1742 1750 1758 1766 1770 1753 1766 1778 1778 1784 1791 1797 1815 1809 1807 1831 1837 1858 1887 1881 1866 1864 1865 1861 1860 1822 1760 1705 1650 1590 1520 1450 1392 1334 1269 1212 1165 1109 1051 1008 945 898 
125 455 612 668 724 812 882 917 959 1015 1041 1086 1123 1178 1215 1262 1312 1369 1423 1496 1562 1622 1691 1742 1757 1759 1770 1778 1777 1793 1794 1797 1805 1795 1793 1791 1786 1783 1761 1761 1774 1784 1786 1784 1794 1789 1790 1788 1788 1795 1809 1808 1810 1832 1843 1846 1870 1864 1851 1856 1849 1836 1802 1746 1684 1619 1570 1516 1446 1385 1322 1279 1204 1163 1108 1055 1003 964 912 864 
53 196 525 628 678 742 838 872 919 977 1007 1042 1072 1126 1170 1210 1254 1311 1349 1416 1471 1538 1605 1663 1709 1738 1755 1772 1773 1788 1796 1802 1805 1802 1810 1811 1801 1797 1788 1788 1792 1803 1804 1800 1806 1811 1807 1809 1795 1797 1816 1819 1821 1844 1842 1845 1856 1850 1840 1826 1802 1764 1716 1657 1591 1537 1493 1446 1386 1329 1271 1216 1168 1117 1070 1027 969 936 882 835 
30 66 281 556 636 677 747 836 879 924 970 996 1026 1071 1115 1161 1192 1243 1286 1337 1385 1439 1502 1567 1617 1660 1709 1737 1772 1771 1798 1799 1799 1806 1809 1815 1811 1805 1803 1807 1811 1812 1819 1816 1824 1822 1821 1825 1819 1810 1813 1815 1823 1838 1843 1838 1845 1831 1799 1765 1721 1676 1625 1563 1501 1450 1404 1378 1324 1260 1211 1160 1116 1068 1022 981 935 900 843 772 
21 41 85 344 582 643 690 759 829 877 922 965 977 1030 1068 1105 1138 1183 1221 1271 1311 1352 1410 1464 1514 1570 1625 1666 1707 1752 1781 1801 1802 1798 1803 1808 1815 1820 1815 1815 1825 1825 1829 1829 1833 1835 1835 1829 1821 1819 1819 1817 1822 1839 1840 1820 1796 1767 1717 1685 1639 1579 1527 1474 1425 1386 1351 1311 1250 1200 1157 1113 1062 1027 983 947 904 864 790 713 
23 27 36 102 393 587 649 683 740 818 871 917 949 980 1013 1054 1081 1123 1162 1213 1236 1270 1327 1376 1415 1460 1524 1576 1621 1663 1700 1746 1766 1771 1767 1796 1808 1816 1815 1817 1821 1825 1823 1828 1827 1829 1839 1835 1832 1822 1818 1805 1803 1796 1773 1744 1711 1673 1624 1585 1537 1479 1438 1392 1359 1322 1285 1237 1183 1142 1096 1056 1010 981 948 899 853 806 724 659 
14 21 30 45 124 421 594 650 680 737 816 867 907 953 967 1007 1034 1076 1106 1146 1179 1213 1256 1292 1328 1365 1414 1470 1509 1552 1596 1642 1672 1697 1708 1727 1764 1784 1783 1796 1803 1811 1809 1803 1814 1807 1813 1806 1796 1773 1765 1741 1720 1700 1676 1645 1604 1571 1520 1491 1446 1397 1358 1325 1282 1244 1218 1172 1126 1087 1048 1009 967 934 905 860 788 731 668 616 
11 13 21 29 50 139 435 589 639 674 721 804 849 911 934 964 979 1024 1048 1089 1117 1146 1182 1214 1246 1283 1321 1369 1400 1440 1479 1519 1556 1591 1605 1632 1660 1678 1680 1699 1711 1730 1735 1724 1727 1729 1722 1717 1696 1679 1663 1643 1609 1597 1563 1533 1500 1460 1419 1395 1356 1324 1292 1253 1210 1179 1151 1106 1061 1026 995 957 920 893 852 795 718 667 614 518 
8 8 16 24 38 46 147 436 579 635 655 711 785 846 890 923 930 966 997 1033 1057 1089 1119 1153 1175 1205 1239 1276 1301 1340 1371 1401 1433 1475 1492 1524 1548 1567 1571 1595 1605 1616 1616 1617 1621 1616 1604 1604 1583 1572 1557 1527 1491 1486 1453 1421 1398 1368 1337 1309 1292 1260 1220 1185 1146 1114 1082 1046 1006 974 937 908 870 834 781 721 656 617 508 295 
9 5 13 18 27 33 60 145 405 565 624 655 686 763 831 881 901 929 948 982 1003 1028 1067 1094 1112 1144 1173 1205 1225 1247 1278 1309 1345 1368 1385 1408 1429 1447 1463 1478 1488 1501 1502 1503 1505 1502 1492 1483 1472 1453 1444 1419 1395 1380 1360 1333 1312 1284 1255 1238 1218 1191 1154 1114 1078 1052 1024 993 956 921 894 868 821 770 709 660 613 507 284 122 
6 5 13 12 22 23 41 56 116 369 552 615 644 675 739 814 844 891 915 933 954 976 1009 1031 1055 1077 1099 1134 1151 1180 1202 1226 1249 1277 1290 1309 1328 1346 1353 1370 1386 1393 1398 1392 1397 1399 1392 1381 1372 1355 1348 1330 1308 1303 1282 1263 1242 1217 1191 1168 1150 1116 1089 1054 1027 995 971 947 904 884 848 814 748 698 655 612 485 278 125 74 
1 4 10 11 17 16 25 31 54 104 306 528 588 629 659 705 759 811 859 891 909 920 944 970 988 1013 1041 1068 1090 1107 1130 1146 1173 1193 1204 1215 1235 1248 1256 1274 1280 1296 1295 1295 1297 1303 1293 1288 1276 1260 1258 1237 1225 1217 1202 1185 1165 1150 1126 1104 1076 1054 1024 999 975 953 918 893 861 825 772 716 680 644 593 444 228 125 76 53 
0 5 5 10 12 16 22 36 37 57 96 250 477 589 623 658 663 734 786 832 880 901 921 916 960 945 989 1010 1015 1052 1060 1070 1107 1115 1134 1141 1154 1160 1170 1182 1194 1204 1203 1205 1209 1210 1205 1205 1199 1186 1180 1163 1162 1152 1130 1121 1111 1096 1050 1046 1003 1005 960 951 914 917 888 853 808 746 711 675 640 568 394 209 116 96 60 56 


