P2
80 60
147
112 118 110 116 120 117 120 127 123 135 130 134 142 142 144 143 147 141 141 145 142 141 139 139 142 141 142 141 141 139 142 140 141 138 139 140 135 139 143 139 137 141 142 144 138 139 137 137 135 136 134 134 137 134 135 135 137 133 131 131 132 131 129 126 126 127 128 131 127 124 127 131 125 122 127 129 124 121 123 122 
110 116 117 116 117 113 117 115 120 123 128 130 138 133 139 135 141 140 139 144 141 140 141 141 138 135 141 137 138 138 137 142 138 138 137 137 135 138 143 138 137 139 139 139 138 140 142 135 134 134 134 135 137 132 131 134 134 133 126 126 128 126 125 128 121 123 127 123 124 124 124 126 122 126 121 129 126 124 123 115 
115 112 112 116 114 117 112 120 121 121 122 128 136 132 134 132 138 137 136 139 139 136 138 137 136 135 139 135 136 132 131 139 136 137 136 138 139 138 141 136 139 135 136 132 133 133 134 135 129 128 129 134 130 127 129 127 129 128 126 121 123 122 124 124 117 116 124 122 119 122 118 127 125 120 125 125 119 124 120 121 
112 118 114 114 113 112 110 116 114 118 120 122 130 128 132 129 134 133 136 135 134 136 134 135 134 133 137 131 132 132 130 136 134 135 135 132 136 134 137 133 134 133 134 133 129 129 131 126 124 129 128 127 130 122 126 125 128 125 125 120 119 122 122 119 117 120 121 118 120 119 121 121 121 124 118 122 120 123 122 119 
107 111 110 112 111 112 115 109 114 115 112 118 122 129 127 133 131 129 129 131 132 127 131 131 128 133 133 126 130 126 128 130 128 129 134 128 132 133 132 133 132 126 128 129 127 129 128 124 125 121 125 123 122 122 120 122 124 122 123 120 120 117 118 117 116 119 119 119 121 118 119 123 121 115 119 120 119 117 118 119 
108 110 110 110 111 114 107 107 110 111 114 116 121 125 123 121 123 125 122 129 126 127 124 129 127 125 127 122 125 124 127 127 124 128 128 126 124 125 126 127 123 122 121 120 121 121 120 120 120 118 117 120 117 118 117 118 121 117 118 114 116 115 116 116 116 115 115 118 115 115 113 117 115 112 114 118 117 116 117 114 
109 108 109 107 108 109 110 103 109 109 108 112 115 121 123 118 122 121 121 128 123 123 123 124 123 123 129 122 124 125 121 125 121 124 120 116 115 110 113 111 111 117 113 116 117 121 121 117 122 116 118 119 116 115 115 120 114 113 117 113 114 114 112 114 114 114 115 113 113 109 109 111 113 113 114 113 114 116 113 112 
104 105 107 104 108 105 106 100 102 109 108 110 112 117 121 118 124 121 120 124 124 118 120 122 123 123 121 117 118 119 118 122 120 121 111 107 89 64 62 83 100 109 109 112 113 114 116 117 116 114 112 119 116 115 115 116 116 112 113 116 112 115 117 113 112 112 112 111 113 112 111 112 110 109 109 115 111 113 117 112 
99 100 100 104 102 107 98 99 101 106 107 108 112 114 115 116 119 120 118 120 118 118 118 120 118 120 116 115 115 115 113 115 112 109 103 90 63 24 29 69 90 107 104 110 116 111 115 113 113 115 113 116 112 112 112 118 114 112 112 113 115 111 113 112 111 110 111 108 111 112 108 109 113 111 110 112 112 109 112 110 
92 94 98 97 98 102 101 101 99 102 102 105 109 110 111 113 113 116 113 117 116 115 114 115 113 115 113 112 115 111 106 100 100 94 82 64 29 11 29 71 87 98 111 107 112 113 113 115 113 114 111 112 115 113 112 114 112 111 112 110 111 110 111 110 109 110 108 111 106 109 107 110 107 111 111 111 109 110 105 104 
86 86 95 91 93 98 97 99 98 99 103 104 108 106 111 106 109 111 111 111 116 109 112 110 109 111 112 106 102 97 93 87 76 65 45 24 6 13 39 79 91 102 106 107 111 110 115 111 110 112 112 113 114 111 112 111 111 110 110 109 111 108 111 109 107 107 106 108 108 107 109 111 110 108 109 112 107 107 107 102 
76 81 83 86 90 91 92 96 92 98 100 99 104 104 106 104 109 107 110 109 112 110 107 108 106 105 100 99 92 81 63 49 37 24 7 1 10 23 64 88 95 104 110 113 113 111 115 112 110 112 109 111 112 108 110 110 109 107 111 108 108 108 109 109 109 106 107 110 109 108 108 110 109 110 110 108 107 110 106 105 
63 69 75 87 88 89 90 95 96 95 100 98 99 102 103 102 104 106 105 108 111 104 103 106 102 100 100 97 79 50 17 5 6 1 4 14 37 66 83 100 104 104 107 112 114 113 110 110 108 108 110 110 112 108 111 112 109 107 105 104 109 106 103 108 107 105 108 107 108 107 111 110 109 105 110 108 108 106 107 103 
57 73 75 87 88 93 93 90 94 99 95 100 99 99 103 102 104 107 103 105 106 101 101 103 101 98 92 86 65 35 3 0 0 15 36 54 71 88 99 106 109 109 111 115 111 111 112 110 108 110 109 107 105 109 112 106 107 106 104 105 107 102 106 103 106 107 105 106 107 107 112 109 107 107 110 109 107 110 107 102 
62 71 86 89 86 92 91 90 94 93 96 93 99 99 101 100 103 102 100 103 104 102 99 102 98 96 90 81 67 40 13 13 33 53 71 80 95 101 107 108 112 109 110 114 109 113 110 110 109 110 110 110 109 109 109 107 107 104 103 104 104 101 103 101 105 103 107 103 104 105 107 106 109 105 107 109 105 107 102 103 
69 73 84 86 89 86 91 95 96 95 92 95 96 98 100 100 100 101 98 98 99 99 101 101 96 96 89 82 73 63 56 62 72 83 89 102 100 106 108 108 114 111 114 114 115 115 115 111 112 106 108 111 106 105 109 106 104 104 106 105 104 102 103 103 102 105 106 103 105 105 106 109 109 107 109 106 107 107 105 105 
72 81 86 87 93 93 92 90 91 95 95 94 99 100 99 102 101 103 95 97 100 94 97 102 98 95 93 86 87 78 85 84 96 98 97 105 105 110 111 107 112 114 114 116 115 116 117 115 113 108 111 106 106 106 107 106 105 104 103 102 107 99 104 102 105 103 104 107 104 105 107 108 107 109 109 108 106 104 106 102 
75 78 84 85 89 91 88 94 92 101 94 94 93 99 97 99 98 99 97 99 97 99 99 98 99 97 95 94 94 93 89 93 98 98 99 105 106 108 114 112 109 109 115 114 122 115 117 115 112 109 107 108 105 107 104 106 103 102 102 103 106 99 103 104 103 103 103 106 102 104 107 106 108 106 106 106 106 105 105 103 
78 81 79 91 87 88 94 94 94 99 94 94 97 94 95 99 99 97 97 100 101 99 98 100 98 95 97 94 95 94 95 93 93 101 101 111 104 110 111 109 108 109 115 118 118 116 120 119 115 108 109 108 106 107 106 106 105 100 103 101 102 99 101 103 105 104 105 105 107 101 104 104 105 105 106 106 105 104 105 103 
72 78 78 84 85 90 90 89 93 93 94 93 96 96 99 99 96 97 97 99 98 96 95 95 95 98 94 94 91 89 94 92 92 91 95 102 104 108 111 111 112 112 112 115 117 116 113 117 114 111 107 105 104 105 103 103 106 102 102 101 100 99 99 100 102 104 103 103 103 104 105 107 105 108 105 106 107 106 102 102 
72 75 82 85 88 87 85 92 94 93 94 92 94 94 96 98 99 95 96 97 99 95 93 97 93 92 92 94 88 87 91 92 91 86 85 87 97 105 110 113 113 110 118 115 112 113 118 114 113 111 110 108 100 106 102 105 101 101 99 98 97 95 96 97 97 101 97 98 101 101 104 103 104 104 104 107 103 105 104 102 
76 75 82 87 89 88 88 88 90 93 94 91 96 94 99 95 97 93 95 94 95 95 94 98 94 94 94 94 95 94 98 97 97 97 94 91 89 94 109 109 111 109 111 109 113 113 115 115 111 107 112 113 106 104 100 98 101 99 93 88 84 75 73 80 90 92 99 102 100 98 104 106 103 104 106 106 102 105 104 103 
78 75 83 89 86 87 86 89 91 97 97 95 97 96 94 96 97 93 95 93 97 92 95 97 97 97 95 97 95 93 97 99 101 106 101 100 92 94 98 108 108 111 116 114 113 110 113 113 112 110 111 111 108 103 104 98 99 96 93 84 55 26 36 66 83 92 96 98 101 100 102 104 104 104 107 106 105 102 102 100 
78 81 81 83 83 84 90 91 91 96 94 94 96 94 96 96 95 92 95 92 97 94 96 98 98 97 96 94 94 97 98 100 100 99 95 102 96 87 98 101 110 108 112 113 112 111 111 112 113 110 109 111 104 106 100 99 97 95 89 87 72 49 50 74 92 92 92 99 97 97 102 103 103 106 108 108 105 108 101 99 
76 80 83 86 84 87 91 90 96 101 98 93 99 95 95 94 95 95 93 94 95 93 95 95 93 98 95 94 97 95 97 99 100 100 99 101 100 89 93 94 106 104 113 112 112 108 112 111 111 111 109 109 105 106 105 103 99 98 91 89 88 83 86 83 88 90 95 98 98 100 98 98 102 105 103 106 103 106 103 101 
80 83 87 90 89 89 93 91 95 96 96 92 97 95 98 93 97 95 94 98 97 95 92 97 93 96 95 97 97 95 98 98 100 101 102 103 105 100 90 93 101 106 110 115 113 109 115 112 113 110 111 110 106 107 105 102 99 99 95 94 93 95 95 98 96 94 98 95 101 99 105 104 102 103 106 107 106 104 105 103 
84 85 88 90 95 89 89 90 93 99 98 95 96 99 96 94 98 98 97 97 95 94 94 95 95 97 94 97 93 95 94 97 101 106 106 106 104 104 92 90 96 110 113 115 115 113 110 112 110 111 111 106 106 105 102 100 103 99 93 95 97 103 100 99 98 95 101 99 101 101 104 105 108 103 109 107 107 106 105 108 
89 89 91 91 93 91 93 92 97 93 93 94 96 100 95 95 96 96 97 95 100 94 97 93 97 95 95 96 96 98 96 97 99 101 101 104 102 106 98 94 92 105 115 111 114 111 115 117 111 110 109 109 106 107 104 105 103 102 97 99 99 96 98 99 100 97 101 99 100 102 102 106 106 106 110 108 109 106 108 107 
95 88 89 90 90 93 93 95 90 95 95 94 95 96 96 96 96 96 95 96 98 93 97 98 95 94 94 97 95 96 93 96 95 97 97 101 102 103 105 90 90 103 116 113 118 113 111 114 111 107 109 108 108 106 105 103 104 101 100 97 99 99 100 100 98 100 102 98 102 101 105 106 105 105 107 108 108 105 109 103 
87 90 90 93 95 92 96 91 92 97 99 94 90 97 95 95 98 98 95 99 98 98 97 98 96 97 95 100 97 96 96 97 98 97 95 99 98 106 107 91 91 102 117 111 117 109 111 112 113 110 107 109 107 109 107 103 106 103 102 100 101 99 100 100 104 102 106 102 107 103 106 106 108 109 108 107 111 104 108 104 
88 90 90 91 91 94 92 92 94 95 95 90 96 99 100 97 99 100 97 96 97 96 96 97 101 97 98 101 99 96 95 100 100 100 98 101 98 101 108 93 94 99 112 110 112 110 112 110 111 110 108 111 107 108 105 105 103 100 100 102 99 101 103 102 101 103 105 104 106 106 109 107 106 105 106 107 109 104 107 102 
91 92 88 93 96 91 93 94 93 94 99 98 97 98 101 96 100 99 99 100 98 98 100 97 98 101 97 101 100 98 98 100 100 99 98 100 101 100 106 98 94 93 112 109 112 105 111 108 110 110 113 111 107 108 105 106 105 104 100 102 101 102 102 101 100 100 102 98 103 104 105 103 106 103 109 110 111 103 112 105 
96 95 92 95 101 96 91 92 94 96 97 97 98 101 101 97 100 101 102 99 98 99 95 99 100 100 100 100 98 97 95 99 99 100 97 100 103 102 105 97 92 90 108 108 114 111 111 113 107 112 109 111 114 109 107 105 107 108 104 102 101 104 103 104 106 105 103 103 103 102 104 104 107 105 109 109 109 107 106 105 
98 91 92 95 100 98 94 92 97 100 97 98 99 102 104 101 102 100 97 99 99 98 100 99 98 97 98 98 95 98 100 99 101 98 99 98 100 99 102 96 89 88 108 112 112 111 116 113 108 111 109 111 112 108 106 107 104 106 103 103 106 100 102 102 104 104 102 103 104 102 106 105 107 106 107 114 107 106 110 101 
96 91 93 91 94 97 95 96 100 103 97 98 99 101 101 101 100 100 97 98 98 102 98 101 100 100 98 98 100 98 98 98 97 94 99 102 100 101 105 95 92 89 107 110 114 110 112 113 109 106 110 109 108 108 107 107 106 103 107 104 103 103 105 106 105 106 104 101 101 103 105 106 105 104 106 111 110 106 106 101 
93 96 94 95 94 95 97 95 95 97 100 100 96 101 102 103 101 101 98 99 101 98 100 98 100 101 98 97 99 95 96 97 97 95 98 101 101 100 104 100 95 87 106 110 109 109 113 112 108 109 109 107 108 108 106 106 107 107 108 106 105 104 108 106 106 104 106 103 107 105 106 105 103 103 107 106 110 106 107 104 
96 98 93 94 93 91 95 95 96 97 100 97 100 101 102 101 101 99 97 101 100 100 100 101 105 100 100 96 95 95 97 98 101 97 99 104 99 104 105 101 95 90 106 110 108 111 109 110 107 110 106 110 108 106 106 107 108 107 107 106 107 106 107 105 109 105 108 105 103 105 105 107 104 105 109 111 109 105 108 99 
97 100 90 90 91 93 93 95 98 97 99 98 98 100 102 100 102 99 100 99 101 103 101 102 103 100 98 99 95 97 98 98 101 100 100 102 100 104 107 99 96 87 106 110 111 109 109 109 107 111 109 109 108 107 108 108 106 104 101 107 108 103 108 104 107 105 110 108 105 106 107 109 109 107 107 106 109 106 109 101 
94 98 96 96 97 92 94 96 94 98 105 98 100 101 106 101 102 100 98 98 103 100 101 105 100 97 99 99 99 101 101 101 98 101 101 99 100 99 105 100 98 87 106 106 110 112 112 109 107 110 108 108 106 106 106 105 106 104 108 106 108 102 108 107 106 105 107 106 104 105 107 106 108 108 108 109 108 106 111 106 
99 100 96 92 94 92 98 95 95 96 102 100 98 102 102 97 103 104 103 102 102 103 99 101 100 99 100 102 102 101 99 102 104 103 99 100 99 100 107 98 95 89 104 108 108 107 105 110 106 109 107 107 106 106 105 109 105 104 107 107 106 101 104 104 104 107 106 108 107 106 109 107 110 107 111 111 111 106 111 108 
105 101 96 92 95 93 93 97 96 98 101 97 103 105 101 99 102 103 103 100 103 103 99 102 101 103 102 103 104 102 105 104 103 104 105 103 104 101 102 97 94 89 101 106 109 109 111 110 105 105 106 107 104 107 107 104 107 106 103 103 107 103 106 105 105 106 107 106 106 101 106 105 110 106 112 111 112 106 109 108 
100 99 96 92 96 99 96 94 98 96 99 100 101 103 102 102 103 103 101 103 103 101 100 103 102 103 104 103 101 105 105 102 104 102 102 102 104 102 102 98 90 87 100 104 107 105 108 106 107 104 108 105 108 103 105 104 104 100 104 108 104 104 106 105 107 108 110 108 108 103 107 108 111 106 111 113 111 108 111 109 
102 101 98 95 98 101 97 92 98 94 100 98 103 105 104 102 106 104 102 107 104 102 102 104 102 106 108 104 100 106 103 105 102 105 103 102 106 106 104 94 94 90 100 103 106 104 108 103 107 104 107 104 105 104 104 103 104 100 104 107 104 104 102 106 110 107 108 108 108 107 110 110 111 109 113 113 111 108 111 105 
99 95 99 99 98 97 98 94 99 95 100 98 104 102 103 105 108 107 102 103 106 103 102 107 107 107 102 102 103 109 105 104 103 104 106 103 104 102 99 94 88 90 104 101 106 106 106 104 103 104 104 105 104 103 104 102 106 103 103 103 106 103 105 106 105 109 106 107 109 110 107 109 108 108 111 111 112 107 110 112 
102 95 98 99 96 99 97 99 100 98 100 100 106 104 106 106 109 106 103 106 106 104 102 104 107 104 109 103 106 105 105 104 103 101 103 102 106 102 102 92 95 92 104 104 109 109 107 105 107 103 104 106 105 104 106 102 107 103 105 106 105 103 106 110 105 110 107 108 107 106 110 109 107 108 114 110 115 114 111 109 
106 102 100 104 103 99 101 100 102 102 102 101 106 106 105 104 105 107 104 104 104 103 104 106 105 106 103 107 105 108 106 104 102 103 103 106 105 102 105 100 97 91 104 102 108 107 110 110 104 104 108 108 105 106 105 106 106 105 107 104 104 104 106 111 105 108 109 107 108 104 108 108 109 113 113 113 117 113 117 106 
100 100 104 102 101 101 100 97 102 106 99 101 106 107 107 103 107 106 105 105 104 105 105 107 104 106 106 107 104 106 105 104 104 106 104 104 101 101 105 100 93 95 100 107 106 106 108 107 105 107 108 109 107 106 105 106 105 103 106 106 107 104 108 108 107 107 112 109 111 103 112 109 110 115 115 113 113 110 115 107 
104 105 104 100 103 106 100 100 101 102 103 104 102 106 105 108 109 109 104 104 107 105 104 107 106 106 106 104 105 106 104 105 105 104 106 105 102 103 104 99 91 97 103 107 103 109 107 104 105 104 108 109 112 107 104 106 105 102 104 104 105 104 105 106 107 108 111 107 108 107 113 114 110 117 116 121 116 113 121 108 
107 106 103 103 102 105 101 103 101 102 103 106 103 103 109 111 111 108 107 106 105 103 106 105 104 105 105 104 105 105 105 105 106 106 104 104 104 105 104 101 88 101 108 106 106 109 109 107 105 106 106 110 110 107 107 108 105 107 106 105 109 104 107 107 110 104 112 109 109 108 111 115 114 112 118 117 119 113 116 115 
106 106 107 104 103 103 104 97 107 101 101 105 103 106 106 108 110 110 105 105 106 104 105 106 109 105 106 105 105 106 106 108 107 107 104 104 103 106 103 101 97 104 108 105 108 108 108 104 105 106 105 108 104 106 105 108 108 108 106 105 109 104 107 104 112 107 110 106 110 107 111 116 113 111 116 115 114 110 118 114 
107 104 105 104 105 106 104 99 103 104 100 106 104 104 111 108 108 106 108 105 106 104 107 106 106 108 105 107 105 105 105 105 107 107 105 108 105 106 106 97 96 104 109 104 107 104 105 105 105 107 106 105 106 106 105 105 105 106 109 105 110 107 108 108 112 106 112 109 110 107 113 116 116 112 117 115 112 112 111 110 
101 107 106 107 104 105 102 106 106 104 102 106 106 107 109 107 108 113 108 108 107 107 107 110 105 108 107 106 104 104 106 106 105 105 107 105 104 102 100 93 98 104 109 103 103 107 108 104 104 107 103 109 108 107 107 107 105 103 107 104 108 108 109 109 110 105 112 109 111 111 116 116 115 112 116 115 116 113 118 112 
104 107 105 105 104 105 106 106 107 104 101 106 108 109 109 111 110 108 109 111 110 106 107 108 111 107 107 108 105 105 107 109 108 107 106 109 106 103 101 97 100 107 110 108 109 108 108 109 104 103 107 107 105 106 106 108 108 106 107 105 108 111 111 111 111 110 110 111 114 112 117 118 115 118 117 118 117 114 121 114 
106 108 106 109 107 108 105 106 107 105 103 104 111 110 110 112 115 112 110 109 109 107 107 111 114 109 114 109 107 109 108 107 108 107 106 107 106 102 101 97 100 107 114 111 111 116 114 108 106 108 104 110 108 107 107 109 110 111 110 106 110 113 111 109 110 108 112 113 118 113 117 116 116 118 117 119 120 115 123 112 
104 107 109 114 111 112 107 105 108 104 103 110 108 110 113 116 113 114 111 109 111 109 106 112 112 115 110 111 106 109 109 108 109 108 108 109 108 108 104 102 107 107 111 113 112 110 112 110 106 107 108 111 108 108 110 111 109 113 113 112 112 108 113 110 110 109 114 119 118 116 115 115 116 114 119 117 119 115 123 112 
103 112 109 113 111 111 110 110 106 106 107 108 109 113 113 111 116 116 109 111 111 109 107 111 115 113 113 111 109 108 112 109 113 109 109 110 110 106 108 99 106 109 113 111 112 108 112 110 109 110 106 112 112 111 113 111 114 115 108 112 112 110 112 111 112 113 117 121 113 116 118 115 116 117 119 119 121 114 120 114 
108 106 107 109 108 113 106 106 108 108 106 109 108 111 111 110 112 114 112 109 111 109 110 111 110 114 113 109 110 107 112 112 111 112 112 112 110 103 103 100 112 109 111 112 111 111 109 111 110 111 111 110 110 111 113 113 114 111 109 110 110 112 109 111 113 119 119 119 113 116 117 116 118 115 117 110 114 112 110 110 
109 111 112 112 109 111 108 107 108 107 107 109 110 111 111 112 117 115 113 112 110 108 112 113 112 113 113 110 107 107 110 112 114 113 111 112 109 102 101 110 109 112 110 108 111 114 111 110 109 111 112 112 111 109 110 112 112 112 112 114 113 111 111 112 114 116 116 117 117 114 116 114 111 113 110 109 110 108 106 102 
111 113 112 112 112 111 106 106 111 111 108 107 108 110 110 112 114 110 113 111 113 112 113 112 114 115 115 112 112 112 109 112 113 111 110 110 108 107 109 110 110 114 115 114 114 110 114 116 113 113 115 111 112 110 113 115 116 114 114 113 111 110 113 114 113 117 113 118 114 105 110 111 106 108 107 105 106 105 113 103 
114 114 112 116 110 110 109 112 111 108 105 107 108 112 111 113 108 113 109 114 112 111 112 114 113 114 113 113 108 110 112 111 111 113 112 113 105 103 108 111 113 116 119 113 116 115 118 115 112 113 109 111 112 115 117 116 118 114 116 115 114 111 116 118 116 120 112 115 109 105 106 104 106 105 108 108 110 105 113 105 


