P2
80 60
41
17 18 16 21 19 19 16 15 21 21 22 27 25 22 21 18 18 15 11 4 14 5 7 12 10 14 13 20 20 21 18 16 22 21 19 18 21 17 17 13 15 18 15 14 12 9 14 13 15 9 15 19 18 19 21 19 19 19 19 20 21 23 17 21 18 22 17 19 23 20 19 20 19 26 22 22 26 21 23 27 
18 19 23 22 16 13 18 15 23 25 23 20 22 19 17 18 19 16 9 5 5 5 8 12 16 18 14 20 20 19 17 19 18 19 18 15 18 18 17 17 14 17 17 13 11 11 14 11 15 11 12 16 19 15 25 20 18 19 18 18 21 19 17 18 20 20 19 20 21 21 20 19 20 25 22 20 29 21 25 20 
18 21 20 22 19 18 16 19 23 22 21 19 21 22 17 18 14 10 8 8 12 1 4 11 16 16 15 20 17 18 21 20 17 19 18 17 20 20 20 17 16 16 14 11 7 12 7 14 11 11 13 22 18 21 21 21 16 17 18 21 19 18 16 22 16 20 16 19 22 22 21 19 23 20 17 22 23 18 24 17 
19 20 16 18 17 17 20 17 19 20 21 20 23 23 18 18 18 16 9 4 9 9 7 10 14 16 16 20 18 16 19 22 19 23 16 16 18 18 20 14 20 14 12 7 10 11 8 7 11 17 16 20 15 17 20 20 18 17 20 20 23 15 20 20 18 18 17 21 23 21 19 19 20 20 16 17 20 21 22 17 
22 19 18 17 22 21 22 20 19 18 20 20 21 20 18 16 19 18 9 4 8 7 9 16 16 17 16 20 17 19 18 17 20 19 17 15 19 12 18 13 17 9 12 12 9 8 7 10 17 18 15 17 16 16 18 21 18 17 16 18 21 17 18 19 19 16 19 18 21 21 18 17 17 18 21 19 23 23 20 18 
23 22 18 23 23 26 22 20 24 26 24 19 21 21 21 18 15 15 14 9 9 14 14 18 17 19 18 19 19 19 20 19 18 24 14 16 20 18 17 18 16 9 13 11 9 10 7 14 14 17 18 20 17 19 20 20 20 18 21 21 21 17 15 21 19 20 16 18 23 20 19 18 17 18 20 22 23 21 22 23 
25 22 24 22 22 22 22 21 22 23 24 24 20 20 19 18 15 13 11 10 5 14 12 16 17 19 19 23 17 20 17 18 22 21 18 18 21 19 20 15 11 11 8 7 11 7 5 15 15 16 21 22 19 19 22 20 20 20 19 19 22 17 20 20 18 18 20 20 22 19 19 19 17 18 22 20 22 20 23 13 
23 22 24 22 18 21 22 17 21 24 19 20 23 20 18 20 15 18 13 9 7 9 13 15 19 19 22 18 18 18 20 20 19 21 20 18 19 17 19 15 16 16 10 9 7 5 13 8 17 14 19 19 17 22 22 20 19 18 14 20 20 18 16 19 18 21 18 19 21 20 20 20 23 20 20 23 24 22 21 22 
27 21 21 24 22 23 25 21 22 21 21 23 24 20 17 14 16 15 11 7 11 13 15 21 20 19 23 17 18 20 19 22 20 19 20 15 17 18 16 11 14 8 11 8 5 4 9 15 12 16 18 25 18 20 20 24 20 16 21 19 20 16 18 18 20 18 18 18 21 21 19 23 22 22 20 19 25 21 20 18 
26 26 24 22 21 22 21 23 24 23 24 22 26 21 18 12 13 11 13 2 12 16 12 20 16 19 18 19 19 15 18 21 22 19 18 20 19 15 18 13 8 9 9 8 1 5 7 9 9 16 16 21 20 19 21 22 20 18 18 16 19 20 19 19 17 20 22 20 20 20 16 19 20 25 22 21 27 18 21 19 
20 23 22 23 22 22 18 25 22 24 25 22 26 21 20 12 15 11 12 9 11 13 13 16 20 18 20 17 17 18 19 20 21 21 20 19 17 17 15 12 12 7 10 6 4 3 6 12 15 15 17 20 17 16 20 21 20 19 21 17 21 18 17 18 19 20 18 20 21 24 20 18 19 22 22 23 25 21 23 19 
23 23 20 22 20 25 20 22 20 25 24 23 22 23 19 16 14 12 12 8 11 17 19 24 19 18 21 20 22 21 20 23 19 21 21 23 17 21 15 14 12 10 9 7 4 5 8 14 19 17 18 18 21 20 23 22 22 22 21 18 21 20 20 21 19 20 20 18 23 21 16 22 22 23 22 23 23 23 24 20 
24 20 21 25 20 22 22 18 23 20 20 20 25 23 24 16 13 14 13 8 12 20 19 20 17 21 19 19 21 18 18 21 21 21 19 19 20 20 12 10 7 12 9 8 5 5 12 15 13 16 19 17 20 19 22 23 17 20 19 17 19 17 16 20 20 20 19 21 23 18 18 21 16 21 23 24 24 19 23 20 
24 19 22 18 23 20 19 19 22 21 22 20 24 19 18 14 13 11 11 10 13 13 15 21 19 20 18 16 20 15 18 19 19 19 19 20 23 20 11 13 8 5 8 5 1 7 11 16 17 15 16 19 19 17 25 20 17 17 16 19 17 16 19 19 20 17 15 19 20 19 19 18 21 24 19 23 25 20 24 20 
25 21 20 20 22 21 23 23 24 24 20 17 25 22 18 12 12 15 7 8 12 14 16 19 17 19 19 19 22 17 22 18 21 19 19 20 19 20 17 10 11 8 9 4 2 11 15 14 15 16 20 19 21 21 19 18 17 18 18 17 20 16 19 23 20 18 17 22 23 21 19 15 21 21 21 21 28 23 20 19 
26 19 22 21 20 22 23 22 24 23 24 17 19 18 18 9 12 11 11 5 12 13 17 18 19 17 20 18 24 18 19 19 17 21 17 23 18 19 17 10 8 9 6 2 1 8 13 15 16 16 17 15 20 18 16 20 20 18 19 14 16 18 16 18 19 20 19 18 22 19 19 20 20 22 21 21 21 21 24 21 
24 20 22 23 21 24 22 21 22 21 19 19 23 19 17 10 14 16 11 9 11 17 16 18 18 20 18 23 21 21 24 20 21 23 17 22 23 18 11 11 8 8 9 0 5 5 16 13 17 17 18 17 18 19 18 18 19 16 15 20 17 21 17 20 17 20 18 20 24 19 18 20 21 20 19 19 23 20 21 24 
28 19 20 24 24 21 21 23 24 23 20 19 23 18 17 12 16 13 12 10 18 17 18 18 19 20 20 20 20 19 23 22 18 22 19 20 21 15 13 7 9 6 3 4 2 9 12 14 15 18 18 17 21 22 18 16 18 19 21 21 16 18 18 22 22 20 21 20 23 24 21 24 21 22 21 20 22 25 23 22 
27 24 24 27 25 25 23 21 23 23 24 23 23 18 19 14 15 13 12 15 19 16 20 20 19 20 20 24 23 19 20 20 21 21 21 19 20 19 18 10 8 9 7 1 3 7 13 15 18 18 20 19 21 22 20 21 19 16 24 22 20 19 19 18 19 23 19 22 24 22 22 23 20 25 23 25 25 24 22 16 
27 19 22 22 22 21 22 22 21 22 24 22 25 18 14 12 13 14 14 10 19 17 19 20 19 19 18 21 21 19 19 19 20 22 21 23 19 15 13 11 10 8 8 4 7 8 15 15 17 17 24 19 20 19 20 18 18 15 23 18 20 17 16 17 17 21 18 18 21 19 19 24 21 18 22 22 27 25 19 24 
30 23 24 24 24 25 23 23 25 22 24 22 20 22 11 14 11 12 11 11 18 20 17 21 19 20 20 19 19 18 21 21 19 23 20 19 22 18 13 10 11 10 6 6 7 4 14 13 17 18 16 17 20 18 20 18 18 17 23 19 21 19 17 21 18 21 21 21 25 19 22 22 20 25 20 23 29 24 27 22 
27 23 22 24 24 22 25 23 22 23 18 18 23 20 14 17 12 12 16 11 16 20 18 19 17 18 19 19 20 17 17 19 22 22 19 21 18 20 15 10 11 9 8 5 5 4 13 15 16 15 17 18 21 18 17 17 19 15 22 21 19 18 17 18 18 22 21 20 24 21 22 22 20 18 21 20 24 23 28 24 
29 23 27 25 26 25 22 25 25 25 25 18 22 18 19 17 12 15 14 10 14 18 20 20 17 19 16 21 22 18 22 21 21 20 18 19 23 17 14 10 11 7 5 4 3 8 12 14 16 18 16 19 20 18 21 16 17 19 21 20 20 19 18 21 19 24 22 22 20 20 22 24 21 22 22 20 26 23 26 19 
28 24 22 20 17 22 20 22 23 23 21 22 25 21 15 15 13 13 14 11 13 15 19 18 16 18 16 17 16 16 20 19 20 20 15 15 18 17 14 9 9 6 7 7 0 6 10 10 15 17 18 18 17 17 20 17 19 19 20 18 19 18 12 19 18 20 19 19 21 20 19 19 19 21 21 20 21 20 26 22 
30 26 27 27 22 23 25 23 24 23 24 25 24 19 17 17 11 15 11 14 17 16 17 19 18 18 22 18 17 16 20 21 20 19 18 19 18 13 15 13 7 8 9 2 2 4 9 12 14 15 17 16 18 16 18 18 19 19 19 18 19 17 18 18 19 20 20 19 20 18 17 22 20 23 20 23 21 23 23 22 
27 23 25 26 23 23 22 25 26 25 26 21 24 24 16 16 14 14 12 13 15 17 19 20 21 20 18 19 20 20 22 18 23 21 20 20 19 14 18 12 10 7 8 3 3 7 8 13 12 15 14 18 16 18 17 19 18 18 22 20 21 19 16 23 22 21 17 20 22 17 19 19 21 21 21 22 23 24 27 25 
25 21 23 26 24 22 23 25 28 24 25 21 22 22 16 21 12 16 15 9 15 17 18 20 20 19 18 19 20 17 22 24 20 22 20 18 19 20 17 11 7 7 7 5 2 6 6 12 12 15 17 15 15 15 20 18 17 19 23 21 20 18 19 21 19 20 19 21 24 18 22 22 21 22 21 22 24 21 26 22 
28 26 25 26 22 24 25 27 23 23 26 26 25 19 15 17 12 16 13 11 18 18 18 22 21 17 20 19 20 18 21 23 26 21 20 20 20 17 20 9 7 11 6 4 6 4 7 12 11 17 16 13 17 17 19 19 17 18 21 21 19 18 20 21 20 21 19 23 22 19 20 23 23 22 21 22 23 22 24 21 
25 22 24 25 24 22 21 21 20 25 29 21 22 19 17 14 12 14 11 9 15 16 14 20 16 15 17 20 20 18 19 21 21 22 19 17 18 19 14 9 8 7 4 4 3 6 8 13 14 19 19 18 17 16 20 18 16 19 24 17 17 17 18 21 20 22 20 20 18 19 21 23 20 22 20 22 25 25 25 23 
26 20 26 26 21 24 22 21 21 24 23 24 24 23 15 13 14 16 9 11 16 16 17 18 18 19 18 24 22 20 20 18 19 19 20 22 20 16 17 8 7 7 3 2 2 6 8 13 9 18 17 16 20 19 17 19 18 17 18 17 17 19 15 15 19 23 20 20 23 21 21 21 21 20 21 21 22 22 24 20 
25 22 26 24 22 25 23 24 26 26 24 22 26 19 18 17 14 15 11 12 15 17 17 19 17 17 18 19 20 20 20 17 20 23 19 18 19 20 11 8 7 6 4 3 4 5 10 10 12 20 17 16 19 24 20 19 17 17 21 19 17 18 17 20 17 18 19 23 25 21 21 21 17 21 18 19 22 22 24 18 
28 21 23 27 21 24 21 25 25 25 26 28 27 22 16 13 14 14 10 13 16 17 18 19 20 23 16 18 22 19 19 20 22 24 17 20 16 14 11 10 11 5 5 3 5 5 9 10 12 17 18 14 20 22 20 20 19 20 18 16 19 19 19 23 16 20 20 19 20 20 20 21 19 19 20 23 24 21 27 19 
29 23 25 26 26 26 22 26 27 26 27 24 26 24 17 17 12 13 12 13 17 17 21 20 22 22 21 20 22 19 20 20 21 21 17 19 18 14 15 8 8 6 8 5 6 6 7 12 14 19 16 16 20 19 24 19 18 21 20 18 18 18 20 21 20 22 20 22 23 22 21 22 20 20 18 20 24 23 21 25 
30 23 26 27 28 29 23 25 28 27 27 26 27 22 21 18 15 17 13 11 17 16 19 20 20 20 21 17 21 19 20 21 23 20 18 21 22 15 13 10 12 10 6 4 8 4 7 12 14 18 16 18 21 20 23 21 19 20 20 20 20 20 19 22 21 19 20 19 21 24 23 21 20 19 21 25 24 23 24 24 
29 26 26 28 24 24 25 27 28 30 26 23 28 31 23 17 18 17 11 12 16 19 20 21 22 23 21 19 18 18 22 23 26 21 20 20 21 21 19 11 4 10 7 5 5 4 9 13 13 17 18 20 19 17 23 19 18 19 21 17 19 23 20 24 22 22 22 19 23 24 22 22 19 25 26 24 29 27 23 27 
31 27 25 29 22 23 25 28 25 26 30 25 27 26 24 18 18 17 15 9 15 16 20 23 22 20 20 22 21 19 22 22 21 21 19 17 22 19 14 8 9 9 9 4 3 1 10 12 12 16 13 18 20 20 19 19 20 20 21 17 21 20 19 22 22 23 22 22 22 19 20 21 23 26 23 23 24 26 25 21 
30 28 26 27 24 25 25 26 25 27 29 27 25 29 23 20 19 17 16 10 15 18 18 21 21 21 24 22 22 20 21 22 25 21 20 23 23 19 17 7 14 10 9 3 4 5 8 11 17 18 16 16 17 18 24 22 21 20 21 20 22 18 20 21 22 24 20 21 23 25 24 22 23 23 22 29 26 25 24 23 
31 22 26 27 23 27 27 25 26 26 28 25 29 26 23 22 20 16 13 14 16 17 18 21 21 22 24 22 21 18 20 19 24 21 17 23 21 22 18 12 9 12 8 2 2 5 8 12 14 16 16 16 17 18 22 22 23 21 21 20 21 19 19 21 25 20 21 21 25 23 21 21 25 25 25 26 26 25 22 19 
31 26 27 30 27 27 28 26 28 25 27 29 27 26 22 21 17 18 15 13 14 16 18 20 17 21 21 20 21 19 22 21 25 22 22 22 18 18 16 10 7 11 9 4 3 5 9 13 15 16 17 16 19 21 21 21 24 23 21 21 21 21 17 27 22 24 24 25 28 26 25 19 23 28 29 23 18 25 16 12 
30 27 29 29 31 31 27 25 26 26 23 24 28 28 24 20 19 16 18 11 9 13 18 21 20 23 20 22 22 21 21 22 23 21 21 21 24 21 15 11 8 10 12 7 4 5 8 12 16 15 17 15 20 19 19 19 22 22 21 21 24 19 21 23 20 22 24 22 25 21 22 27 26 23 22 21 20 17 18 12 
32 25 27 29 27 23 23 25 24 25 26 25 26 25 25 20 16 18 15 11 12 14 18 17 19 20 20 21 23 22 24 26 25 21 22 21 22 20 17 13 8 12 10 7 7 6 10 11 13 19 18 17 21 20 21 25 25 20 23 22 20 17 20 21 25 24 24 24 27 27 25 22 22 25 22 20 17 16 12 10 
32 28 28 30 27 32 27 25 26 30 27 25 29 28 26 25 22 17 16 15 17 14 18 19 23 23 21 23 25 20 22 25 26 25 23 22 20 20 21 16 13 14 14 10 9 6 10 13 15 20 17 21 19 22 24 23 20 20 22 22 21 20 20 28 26 27 25 26 27 27 24 29 26 22 24 21 18 18 14 12 
36 29 26 30 28 28 27 27 26 32 28 26 28 28 24 29 21 20 21 18 13 12 16 20 22 22 24 23 25 22 24 24 24 23 22 23 21 20 21 18 15 11 13 7 7 5 10 8 13 19 22 18 22 19 24 22 21 22 19 27 23 24 23 26 26 25 30 22 31 26 24 23 22 23 15 15 18 11 10 13 
36 26 30 30 30 29 27 27 26 29 30 27 27 24 27 27 24 22 17 19 13 14 17 19 18 21 25 22 24 26 25 27 28 24 24 25 24 22 22 16 19 12 11 5 6 4 9 8 13 18 16 18 20 19 25 22 24 19 24 25 26 21 23 25 29 26 26 25 25 25 19 22 18 14 16 16 14 13 15 14 
32 27 29 27 25 32 27 27 28 27 28 25 29 25 26 25 24 29 20 19 17 11 14 17 16 20 18 23 20 22 28 24 24 23 22 25 23 25 23 14 18 12 14 7 8 8 6 13 14 16 21 16 21 20 23 25 23 25 19 24 23 25 25 28 24 22 25 24 24 18 16 16 14 14 15 15 14 14 17 8 
36 29 28 30 33 31 29 28 32 29 28 31 30 29 29 27 30 29 23 16 20 14 16 19 21 22 22 23 24 24 23 25 25 24 23 24 23 25 23 21 16 12 13 8 10 9 8 13 15 17 17 18 23 21 24 22 21 26 21 21 25 23 25 29 23 22 25 23 17 18 15 14 13 11 15 13 11 18 14 14 
29 26 27 29 30 31 32 27 30 30 31 25 32 28 29 27 28 31 26 17 21 18 16 16 17 20 25 17 25 22 26 23 25 24 24 23 23 22 22 21 18 14 13 9 9 10 10 11 11 17 17 16 19 20 23 19 23 19 22 21 26 25 22 27 18 21 20 15 18 16 12 12 13 8 10 14 17 20 17 11 
33 28 29 30 27 31 25 25 29 28 26 25 32 28 25 28 23 23 25 16 19 17 17 14 14 18 21 20 21 20 23 25 24 26 22 23 22 23 22 21 21 14 11 9 6 7 7 10 11 13 17 16 18 17 24 18 18 20 19 22 23 19 22 21 19 19 15 18 14 13 13 12 13 11 16 12 13 14 16 15 
33 26 30 24 27 27 27 25 27 27 29 28 29 30 26 23 23 23 24 17 18 15 14 14 15 16 20 22 22 21 23 22 25 24 21 19 23 22 21 19 20 15 9 6 7 5 7 12 13 13 16 16 22 21 24 20 23 22 14 15 15 18 17 18 15 14 13 8 6 10 9 11 11 11 9 17 13 17 20 12 
36 25 27 27 27 27 28 26 28 27 28 29 30 28 26 27 24 27 27 23 17 20 15 11 16 15 18 17 22 19 23 23 24 24 22 22 24 23 22 23 22 16 11 9 7 6 6 8 8 12 11 18 24 21 23 21 21 18 20 16 18 17 17 16 15 16 13 12 11 17 11 13 11 16 8 18 22 22 20 19 
35 29 27 31 31 29 29 28 30 29 32 30 32 31 32 28 27 26 26 19 19 19 16 18 15 16 20 19 16 21 22 22 25 24 22 23 23 22 24 23 22 20 13 4 11 6 8 8 4 12 15 20 24 20 27 22 19 21 17 17 18 10 9 15 11 12 8 10 13 14 13 13 16 20 17 19 17 25 28 21 
32 32 28 28 29 29 30 28 29 30 30 31 31 30 31 26 26 28 27 24 23 20 18 18 16 16 18 17 15 19 25 24 26 27 22 26 24 24 22 22 24 20 12 8 11 8 6 7 7 12 13 20 21 20 27 23 24 20 14 16 16 16 11 16 14 12 13 10 13 15 15 17 19 22 25 28 27 27 28 31 
31 29 33 32 27 28 29 30 30 28 30 29 32 28 28 25 23 26 27 22 25 22 16 17 18 16 17 18 16 19 23 24 23 25 22 22 23 25 23 23 27 20 14 9 7 3 5 10 7 11 11 19 23 21 24 23 16 14 16 14 14 11 4 14 11 10 14 12 14 18 14 22 21 23 28 29 30 29 27 27 
33 29 30 32 31 32 29 28 29 31 31 28 33 30 33 29 26 30 27 25 26 24 18 20 19 17 17 17 16 17 23 21 22 25 23 25 24 25 23 22 26 21 16 10 9 7 11 5 9 9 13 19 20 23 23 18 16 15 14 12 15 4 10 16 11 12 18 17 22 21 19 28 26 28 32 30 31 26 26 23 
36 30 31 29 28 33 30 30 31 29 32 32 33 32 29 31 29 29 29 25 26 25 22 17 21 19 16 15 15 17 19 23 25 23 24 29 24 26 27 27 24 23 17 13 9 8 5 7 10 8 11 18 20 21 18 17 21 14 9 13 11 13 10 21 16 19 20 22 28 30 29 29 28 34 31 28 33 32 31 32 
37 29 29 31 28 31 28 31 34 31 32 27 32 31 29 33 29 29 30 28 28 28 22 23 20 17 17 15 19 16 23 22 26 24 22 26 24 24 24 26 23 25 16 14 16 8 6 8 9 13 11 18 15 14 16 20 15 12 7 14 15 14 14 17 14 20 21 27 30 23 27 28 26 28 28 31 30 30 30 31 
35 33 29 33 34 35 25 31 31 32 36 32 32 34 31 30 32 31 31 29 31 28 24 25 23 17 21 21 16 15 21 22 23 28 25 26 29 26 28 25 27 28 20 16 13 8 11 9 13 15 12 15 15 12 18 15 13 11 10 12 16 13 16 21 19 25 28 25 30 32 33 31 30 31 28 33 34 33 36 31 
38 34 32 32 31 28 30 33 30 34 33 32 34 31 32 28 31 30 29 26 27 29 25 26 23 22 16 24 19 17 20 18 23 24 23 27 29 26 26 27 29 27 24 17 14 11 14 9 11 15 12 16 15 12 17 10 13 13 5 15 18 14 20 26 25 30 32 31 30 32 31 34 31 32 32 28 32 33 34 33 
36 34 34 33 32 33 30 32 34 34 36 31 34 31 32 30 30 33 28 27 29 28 27 25 25 23 19 16 15 15 19 17 19 22 23 25 24 26 26 27 28 30 27 17 13 11 15 9 12 15 9 14 15 10 15 15 11 16 13 15 13 18 20 29 27 31 31 32 30 29 33 29 32 29 29 31 32 29 31 37 
41 37 37 34 35 34 31 34 32 35 37 34 36 31 32 30 32 31 32 28 28 26 28 27 26 24 19 21 17 17 20 18 18 23 24 25 24 24 26 23 28 24 25 18 16 14 18 11 11 11 13 14 13 17 13 17 14 11 14 20 20 20 21 28 28 32 31 30 29 31 33 30 35 33 30 31 29 32 31 31 


