P2
80 60
137
16 18 24 27 20 17 21 20 17 18 26 27 29 29 32 37 39 37 40 42 41 41 40 44 44 43 47 44 49 45 49 46 45 48 47 48 47 50 45 48 45 45 44 47 48 53 54 51 53 50 54 49 54 53 51 55 52 52 52 49 46 40 40 42 43 39 44 39 42 44 42 33 34 42 32 37 38 41 42 41 
18 18 24 28 21 21 23 24 18 21 26 26 31 34 31 37 43 42 42 44 41 43 42 46 42 49 46 47 47 47 51 49 45 50 47 47 49 48 47 46 45 48 45 46 45 54 50 50 49 52 54 51 53 54 49 57 53 52 52 51 50 45 37 36 43 40 41 36 43 41 36 32 36 34 35 35 41 37 40 42 
16 23 31 24 24 23 24 24 22 15 22 28 34 33 35 40 37 40 41 45 41 44 43 45 44 48 47 48 48 45 53 50 44 51 51 50 46 49 48 48 47 50 46 49 50 48 52 52 51 53 55 50 53 53 51 53 54 51 56 53 47 47 35 39 44 39 44 39 39 40 41 36 40 42 40 36 34 43 39 41 
21 22 30 27 23 23 24 21 24 25 28 28 30 34 37 42 43 41 46 43 46 45 42 49 45 44 46 49 51 47 50 49 47 51 48 47 45 49 44 48 49 47 46 51 52 52 55 53 53 55 51 50 53 53 54 55 53 59 53 52 51 47 39 40 42 40 44 41 38 45 47 36 37 43 40 39 43 45 43 43 
21 26 25 24 26 23 24 25 20 21 29 30 32 36 36 38 38 42 48 48 44 44 42 45 44 47 45 50 48 46 50 49 44 45 46 45 48 51 49 49 45 47 44 45 50 51 53 53 56 53 54 53 54 51 56 56 54 58 54 53 50 50 37 43 42 43 47 44 39 41 39 38 36 39 36 38 46 44 47 49 
20 25 22 28 26 25 26 27 23 27 29 31 34 37 34 42 41 45 48 47 43 45 42 45 45 46 46 47 46 45 45 43 42 47 46 49 47 47 45 49 52 48 47 45 45 52 55 55 58 52 54 53 53 56 54 54 51 57 51 52 48 47 40 41 43 41 42 41 42 42 39 45 43 42 44 46 51 59 53 55 
20 23 27 27 24 25 28 28 27 29 31 30 31 36 34 42 45 43 49 51 46 46 45 47 44 44 45 42 45 38 44 45 42 48 51 51 51 54 50 49 47 50 47 49 47 47 51 54 54 54 55 53 53 58 55 55 52 56 52 51 51 50 44 46 44 46 50 44 46 48 50 45 48 52 50 57 57 65 58 56 
23 25 27 31 27 23 29 29 29 32 34 33 33 36 40 43 45 42 46 48 49 48 42 51 45 42 44 44 42 41 48 48 49 51 53 53 56 56 54 50 53 53 48 46 50 46 47 49 50 52 53 57 55 55 56 55 53 54 54 53 53 55 46 46 48 46 56 45 50 53 53 49 50 56 53 57 56 53 46 45 
21 27 26 28 30 27 30 30 26 35 32 31 36 37 38 47 46 49 52 47 50 50 46 47 42 46 45 45 51 51 52 51 52 50 52 57 59 58 58 54 58 54 48 52 49 48 47 49 50 51 54 53 57 57 61 60 51 58 54 56 55 52 49 52 48 50 56 51 49 58 57 55 57 65 55 54 45 44 49 70 
25 27 29 28 32 24 31 30 30 29 34 33 38 39 40 47 46 46 49 47 50 45 42 45 44 43 45 48 49 47 54 51 53 60 57 59 61 58 56 57 58 55 51 50 49 48 51 49 50 48 50 48 54 56 56 57 58 59 53 53 53 50 46 50 47 48 58 54 54 58 57 60 58 60 48 40 49 69 74 89 
29 26 30 31 34 31 28 31 32 31 35 34 38 38 42 44 46 42 47 52 50 49 45 41 47 45 50 51 51 50 55 57 55 61 61 60 60 59 63 57 55 54 54 54 52 55 48 49 49 47 51 53 52 52 49 57 55 61 59 56 51 48 47 50 51 58 62 54 60 62 57 57 56 59 46 63 78 87 91 101 
29 28 34 38 38 31 34 37 31 31 35 39 39 37 41 42 43 44 49 49 46 45 48 44 48 50 48 52 50 50 58 56 55 59 62 59 60 60 62 62 56 57 54 53 52 54 57 55 52 54 52 51 51 50 50 49 49 53 59 53 53 47 46 47 51 65 68 62 65 62 53 46 45 60 73 83 87 100 106 110 
31 32 33 36 38 32 41 37 31 37 38 36 36 37 42 44 46 45 50 46 45 43 42 46 50 49 44 49 55 57 60 58 57 61 61 59 64 60 65 64 57 60 56 58 54 54 57 54 56 55 50 52 51 54 49 51 49 53 51 50 47 40 41 49 55 67 68 64 50 48 46 58 73 81 92 98 103 109 110 116 
31 28 32 36 39 35 38 34 32 37 35 36 35 40 43 46 46 45 45 49 45 43 42 45 45 49 49 51 54 60 62 60 58 59 62 67 62 61 62 59 58 59 57 55 54 56 56 48 51 52 54 53 52 54 52 58 52 50 46 51 50 41 47 52 59 58 58 43 45 56 77 80 90 95 98 103 106 117 117 126 
34 34 39 40 40 36 37 36 38 38 39 40 38 46 50 43 45 45 46 49 47 42 44 41 46 47 53 53 58 59 64 60 60 62 65 66 60 60 59 59 62 64 60 58 57 56 59 54 55 55 54 54 55 55 55 53 54 56 53 53 50 52 57 59 50 46 48 54 77 83 89 92 96 101 108 108 115 124 117 128 
31 36 38 40 38 34 31 41 40 38 35 41 41 48 49 43 51 51 47 46 41 45 47 48 49 52 58 55 61 57 62 58 59 63 65 63 65 63 62 59 60 65 62 61 57 56 58 59 56 55 56 59 56 53 55 55 54 57 58 58 58 54 51 47 49 59 79 82 86 97 97 96 102 109 114 116 115 128 131 132 
34 39 37 41 37 30 38 42 40 40 44 44 44 51 50 49 49 42 44 47 49 54 48 49 53 54 58 55 62 58 61 61 63 65 64 63 62 65 62 64 64 62 63 59 60 58 59 54 57 57 54 56 57 59 60 61 55 50 55 55 50 46 50 63 69 80 87 90 96 97 103 103 107 114 120 123 122 134 132 132 
40 37 41 43 35 31 40 44 42 44 46 45 47 52 54 45 46 46 45 51 48 47 53 51 54 57 55 57 57 59 61 64 60 62 64 65 65 66 63 66 64 60 59 63 58 58 60 61 54 56 60 58 58 59 55 52 54 55 54 51 53 66 71 73 80 82 91 92 98 101 109 110 112 115 117 122 122 137 134 132 
36 40 35 41 40 37 43 44 42 47 48 46 44 51 52 51 49 45 48 51 54 54 52 49 56 60 59 59 57 59 62 60 62 62 65 64 68 67 63 63 61 59 60 60 56 60 61 62 68 60 56 56 56 59 57 56 57 56 55 57 66 69 71 75 82 88 98 96 99 105 111 113 114 116 122 124 126 130 133 130 
36 43 41 41 43 37 41 48 44 48 46 47 52 50 55 52 50 50 46 49 56 61 51 49 59 62 63 57 59 57 63 61 62 64 66 65 68 63 62 64 58 60 56 57 53 58 67 65 64 66 60 59 63 59 61 62 60 61 61 63 68 73 74 78 81 82 99 95 100 110 110 117 119 123 123 124 130 131 131 134 
39 40 41 45 41 42 43 44 48 45 49 49 52 53 55 48 51 45 48 55 55 56 52 54 61 62 63 59 61 59 59 63 63 65 68 64 65 63 62 58 60 59 54 55 57 58 66 65 65 67 60 59 58 58 64 67 62 62 60 63 71 74 80 80 83 91 95 96 100 108 111 113 119 120 124 124 132 130 128 128 
38 40 40 44 47 46 44 46 50 47 52 49 51 51 53 49 52 47 50 53 55 55 53 55 59 58 60 58 59 63 61 61 63 63 66 61 68 64 63 53 57 61 60 61 55 57 60 62 62 63 64 60 62 61 63 62 62 58 57 63 66 69 72 77 79 84 94 92 100 103 109 111 113 121 122 126 128 130 127 126 
36 38 47 45 46 48 46 47 48 52 51 49 52 50 50 48 49 49 50 55 55 57 53 51 58 59 55 58 60 61 64 61 60 60 61 59 60 61 59 62 64 58 58 54 59 64 59 64 64 66 64 59 60 60 62 63 60 61 58 61 63 69 75 78 81 86 91 91 99 104 109 111 118 116 119 124 122 128 121 124 
37 39 43 48 45 43 47 49 50 55 48 50 50 50 49 50 49 50 53 59 56 54 56 51 59 58 59 58 62 61 62 64 65 65 63 59 62 61 65 68 66 60 57 61 62 61 59 63 69 69 65 61 60 60 58 61 62 56 63 65 68 71 74 80 80 83 90 92 95 104 111 112 114 114 117 124 118 125 120 117 
37 42 44 48 42 44 48 49 47 51 49 49 48 49 52 51 51 52 57 65 56 55 54 52 56 56 64 59 62 62 64 61 59 62 60 61 66 64 68 67 68 63 63 62 65 61 59 61 62 64 63 59 62 62 59 58 53 60 70 68 72 74 79 76 80 84 84 88 95 98 107 103 114 110 112 118 123 123 116 114 
40 49 46 49 44 46 48 47 47 47 49 48 49 51 49 49 51 50 53 60 54 55 53 52 55 59 58 59 61 64 66 63 59 62 66 65 65 64 66 65 64 62 61 60 63 63 62 62 64 61 63 63 60 63 61 60 60 66 64 65 67 68 70 76 74 81 81 80 89 98 100 105 108 114 114 114 115 117 108 107 
39 47 49 50 44 45 45 48 49 49 50 49 47 50 51 48 51 52 54 56 54 55 51 49 54 58 58 57 60 60 63 62 61 63 66 63 67 65 69 67 63 64 64 62 62 61 65 68 64 65 62 64 63 65 62 66 66 70 64 64 66 66 69 72 74 73 80 80 86 90 95 97 101 107 108 105 107 104 102 101 
41 44 50 50 44 40 44 48 50 51 53 55 48 53 49 51 49 54 52 55 50 55 51 50 55 56 57 55 57 56 60 59 64 63 68 65 62 70 68 66 66 64 64 62 61 62 64 65 64 62 63 63 64 60 59 60 66 66 69 65 64 68 68 71 72 73 76 76 83 88 95 96 99 101 104 104 101 101 93 92 
44 42 49 50 48 44 47 50 51 50 53 53 51 52 51 51 50 50 53 53 53 55 50 52 54 56 56 54 60 58 62 63 66 65 68 63 66 67 70 65 69 60 63 63 67 60 64 61 61 64 63 63 62 62 58 61 61 60 64 64 66 65 65 67 67 69 75 68 74 81 86 88 89 97 94 93 92 92 86 90 
41 43 45 48 48 45 46 50 55 57 53 51 50 53 52 52 49 50 54 57 55 56 53 55 56 56 54 59 60 57 64 61 66 65 64 65 68 68 68 65 68 61 65 63 62 62 66 62 65 63 68 64 65 61 62 63 62 63 60 62 64 63 65 63 68 67 70 69 70 80 83 84 88 89 82 85 82 84 77 82 
45 46 44 46 50 47 50 50 50 51 53 47 47 53 51 49 46 49 48 55 58 59 55 52 54 55 58 57 59 58 61 63 61 64 60 69 68 68 69 63 63 63 60 63 62 65 66 65 66 67 69 66 66 64 65 63 62 59 61 63 64 63 64 62 68 63 66 68 63 76 74 73 73 75 76 74 75 76 68 73 
39 46 45 45 45 46 48 55 56 51 52 49 48 52 52 51 50 51 53 53 56 57 55 53 57 57 57 55 59 54 62 62 60 58 63 63 63 63 63 62 62 61 61 63 71 76 70 68 73 68 67 66 66 64 64 59 61 63 65 62 65 60 66 67 65 64 65 62 67 71 71 72 69 70 73 68 65 68 65 62 
35 44 45 49 48 46 49 51 53 54 52 55 50 49 54 53 50 49 47 51 50 55 54 53 56 56 54 51 57 54 59 54 54 59 62 61 63 63 61 63 63 62 60 71 81 71 67 67 64 67 68 65 63 64 61 63 62 61 59 63 60 64 67 63 63 60 59 56 59 63 65 62 64 65 61 61 59 60 57 60 
34 42 41 47 50 46 48 52 52 52 54 55 56 53 49 53 50 53 50 49 52 51 55 53 55 57 54 57 61 58 61 59 60 64 69 62 64 64 67 67 61 65 64 69 69 66 63 65 69 66 64 67 66 61 63 61 62 61 64 60 61 61 62 64 61 59 58 58 57 60 62 63 62 59 55 56 53 58 51 54 
41 42 48 47 49 45 47 51 46 49 53 55 54 55 50 48 48 49 47 48 51 53 52 55 58 55 57 59 62 64 65 64 62 63 64 64 63 65 65 67 63 68 66 69 68 66 63 66 65 63 65 63 64 62 61 62 61 64 62 64 62 59 59 57 58 58 59 55 56 58 58 50 53 51 54 51 50 52 49 52 
40 47 46 46 48 47 52 53 52 47 55 53 53 49 50 48 47 50 51 52 51 54 53 57 60 64 61 61 60 62 65 64 61 64 63 65 64 66 68 69 65 68 62 66 63 61 63 63 64 63 62 65 63 60 59 63 61 62 62 62 63 57 58 58 58 54 56 50 54 53 55 51 48 51 50 45 46 53 51 50 
41 43 45 48 47 47 47 52 54 47 50 49 49 48 50 50 46 50 50 54 57 57 58 53 60 65 60 63 64 63 65 63 64 65 65 65 69 69 64 67 61 68 60 59 62 60 59 64 66 61 61 63 61 61 60 61 61 62 61 60 61 60 61 60 56 55 53 52 52 51 51 51 47 45 48 45 46 49 47 43 
42 44 42 47 45 47 49 55 52 47 50 48 50 50 52 53 50 48 52 55 58 60 58 55 60 62 61 62 67 62 63 65 64 61 64 66 66 67 65 65 60 60 59 61 59 59 61 63 65 62 61 59 61 61 60 60 58 60 59 58 61 57 57 57 54 53 53 54 51 52 51 46 49 49 44 43 46 49 42 43 
42 43 46 44 44 43 45 47 46 43 48 48 46 52 51 49 51 48 52 57 56 60 55 56 61 63 62 59 65 61 64 62 59 61 65 63 65 61 62 58 58 63 64 63 62 61 62 62 63 62 62 60 62 59 61 59 57 59 58 58 59 54 56 54 53 53 53 50 49 50 48 48 48 45 45 45 50 42 45 40 
42 42 45 48 41 39 46 49 45 48 53 53 48 54 54 52 48 51 49 54 56 56 55 55 63 64 64 60 62 62 63 61 62 64 67 63 60 62 57 60 59 59 62 61 62 61 62 63 62 66 62 62 61 61 62 58 57 57 56 58 57 54 54 55 53 54 50 50 50 46 48 46 47 48 45 42 40 37 39 42 
43 43 43 42 39 33 37 46 49 51 51 51 50 56 56 53 49 52 53 56 52 59 58 57 59 60 61 61 60 62 62 59 60 63 64 58 60 57 58 60 62 56 64 69 64 63 61 61 63 61 59 64 63 62 60 59 60 58 57 59 58 53 54 53 51 51 50 49 48 49 46 46 48 47 41 37 42 34 38 37 
34 40 42 40 40 36 41 44 47 48 50 50 48 50 54 53 50 53 46 56 54 55 57 57 57 59 57 57 59 58 62 61 57 62 61 61 59 51 59 61 60 59 63 62 66 61 61 60 62 60 60 61 60 60 58 56 56 56 55 52 56 52 51 51 50 52 52 47 44 47 46 41 42 44 39 37 40 36 33 38 
25 38 38 43 42 40 42 42 46 46 47 49 44 43 50 56 50 48 47 55 54 56 52 54 59 58 59 58 61 58 59 57 56 59 60 64 56 56 61 58 59 62 61 59 59 58 59 60 59 57 58 58 58 56 57 54 56 55 52 53 51 52 47 51 48 48 48 45 40 44 42 38 41 38 37 34 36 33 31 26 
32 32 37 42 43 41 54 44 45 47 47 48 44 44 45 49 49 47 50 54 55 52 52 52 54 57 55 55 60 61 57 59 57 63 61 57 58 58 56 63 64 61 59 62 57 57 60 58 58 59 58 57 54 55 55 52 56 51 50 53 52 49 48 48 48 47 45 44 39 41 45 39 37 38 39 37 34 33 31 30 
34 33 37 38 38 41 47 46 42 44 47 46 45 46 46 52 50 45 51 58 58 61 53 53 57 59 57 60 62 62 62 58 60 64 59 55 56 51 61 67 63 64 57 56 57 58 60 58 59 58 56 55 53 53 54 54 52 51 55 52 53 49 48 50 46 45 42 45 43 44 45 44 36 37 35 32 33 32 31 34 
37 38 41 36 43 39 44 42 48 39 45 43 42 45 49 48 47 49 49 57 59 65 56 55 55 57 58 60 63 58 59 59 62 63 54 57 52 54 60 59 63 57 56 58 57 56 60 60 59 55 54 52 53 51 53 55 49 50 54 53 51 50 48 48 46 44 43 44 41 39 43 36 41 34 30 30 33 29 31 31 
36 33 39 33 36 37 35 35 39 41 37 40 46 45 48 51 48 43 47 57 61 60 57 55 59 61 56 57 62 59 61 59 58 55 51 54 51 57 61 63 60 56 56 57 57 55 55 58 59 58 54 56 57 52 52 54 51 54 55 52 50 48 45 48 46 43 42 42 40 39 40 33 32 35 33 27 30 27 27 29 
34 39 36 37 31 28 34 32 34 32 36 40 45 44 46 49 42 41 45 55 52 63 54 53 59 60 54 56 58 61 61 57 47 54 52 49 58 56 58 59 58 58 58 56 57 55 53 55 57 55 56 55 53 52 52 54 52 53 53 50 50 45 43 46 44 43 42 37 38 37 34 33 30 30 32 30 29 25 28 24 
30 36 36 34 31 26 28 32 29 37 36 42 44 44 43 44 45 42 47 53 54 57 51 51 60 61 57 59 60 56 61 54 47 53 46 55 55 56 57 55 61 54 58 55 57 56 54 55 56 57 57 55 56 53 55 52 54 52 51 52 52 46 42 42 41 40 41 35 35 38 33 28 30 30 30 25 27 29 28 24 
30 31 34 32 30 25 30 34 31 33 40 44 45 48 49 44 44 50 49 58 51 57 54 51 59 62 56 58 59 56 56 51 49 47 56 53 56 56 59 60 61 54 52 54 55 55 56 54 56 53 54 52 53 54 51 48 51 52 50 47 49 44 40 43 42 40 42 33 33 34 33 26 27 30 26 23 25 25 22 22 
25 27 30 31 31 26 28 32 34 35 35 39 47 43 49 52 49 51 58 54 52 59 51 49 55 61 60 59 56 53 53 49 46 59 58 59 58 61 60 62 63 56 55 54 53 55 55 56 56 54 56 54 53 53 54 54 52 53 52 48 48 42 40 41 39 38 38 33 32 34 32 27 23 31 27 28 23 21 22 21 
27 25 28 28 30 28 30 33 35 35 34 39 43 42 43 53 53 49 51 57 55 53 46 49 56 56 56 51 51 43 43 53 59 61 59 60 61 61 63 57 63 61 57 56 57 55 56 54 59 57 55 54 52 52 54 54 54 52 49 50 48 42 41 40 37 36 37 33 32 31 28 24 27 28 31 26 27 23 24 20 
25 27 31 30 32 28 30 30 34 33 36 30 35 38 42 42 46 48 50 56 55 55 51 45 53 53 44 45 39 42 50 56 57 60 60 60 60 61 60 61 58 56 57 60 59 57 56 57 55 56 55 52 54 55 54 54 53 49 49 51 46 43 38 40 38 37 34 32 32 29 22 26 23 30 30 27 20 24 22 20 
24 29 28 27 31 27 28 30 34 36 34 35 35 36 37 40 39 40 44 50 52 52 46 39 42 36 35 37 40 43 51 56 59 60 61 61 64 60 61 60 56 58 62 59 56 58 62 58 62 58 56 57 58 53 54 54 55 56 50 50 48 44 42 45 37 36 34 31 28 24 25 23 26 24 25 21 19 20 17 16 
26 25 26 26 28 25 28 30 32 36 33 30 37 33 31 34 37 36 33 35 34 37 37 37 39 39 40 39 48 51 57 61 57 61 60 61 60 61 62 57 64 61 62 60 59 57 63 61 60 57 61 57 56 58 54 53 54 54 49 50 48 45 37 40 37 36 33 30 27 28 22 22 28 24 16 17 15 19 21 15 
28 27 27 26 27 28 31 31 31 31 36 37 41 35 38 41 38 40 36 40 43 44 38 37 45 46 49 53 58 54 61 57 58 62 63 62 64 64 61 62 65 71 63 68 65 60 66 66 66 63 64 63 54 60 55 58 56 55 54 47 43 44 41 43 39 35 35 34 28 29 25 22 21 21 17 14 18 16 17 17 
25 24 26 27 29 24 31 29 30 28 32 39 43 38 42 39 40 39 41 42 41 42 49 43 49 51 50 52 58 54 59 57 58 61 62 61 63 68 63 64 69 70 74 73 75 68 73 70 67 68 63 63 57 59 56 60 54 54 50 47 47 42 37 38 34 33 32 28 25 28 23 20 19 20 16 16 15 15 19 18 
19 23 28 27 28 24 29 29 23 29 33 43 40 42 44 41 41 43 48 45 45 48 51 50 48 52 50 56 54 57 57 60 57 63 64 60 69 71 67 73 78 82 79 80 78 77 76 74 71 70 74 66 64 66 56 66 55 55 52 54 48 38 40 37 34 32 29 28 26 27 22 17 16 20 13 12 16 17 10 15 
21 23 27 27 34 26 31 31 26 24 36 38 40 41 45 47 45 45 47 47 42 49 50 48 57 53 55 55 56 55 58 60 56 60 67 66 66 74 79 87 85 96 97 88 90 86 84 80 78 77 79 81 80 71 71 74 68 65 60 50 52 47 40 38 37 34 33 27 28 27 26 14 16 18 13 12 16 15 15 7 
20 28 30 25 32 28 33 28 29 29 37 38 36 41 45 43 45 45 47 45 43 44 47 49 49 54 53 55 55 53 54 60 59 66 64 64 64 71 84 92 99 106 105 105 100 100 96 83 91 91 88 93 83 91 81 85 79 73 62 56 52 41 41 34 32 35 28 24 20 25 28 18 14 17 14 7 6 0 8 5 


