P2
80 60
169
63 69 71 75 70 73 75 73 77 74 77 75 74 76 76 76 75 77 76 75 77 77 81 79 79 83 78 79 80 81 80 78 82 78 82 80 82 79 83 81 82 82 82 79 82 80 80 80 82 81 84 83 83 82 79 84 83 81 81 83 81 79 82 83 84 79 82 80 79 81 85 84 85 81 88 86 86 88 83 80 
66 71 72 68 71 74 76 74 76 72 76 75 74 77 78 77 78 77 78 75 77 78 76 77 77 83 78 79 78 80 85 80 78 78 79 83 80 81 84 79 81 81 83 85 85 82 80 81 84 83 80 81 82 83 82 81 82 80 82 80 78 80 82 81 85 81 80 79 80 80 83 81 84 82 86 85 85 90 81 81 
66 69 69 69 73 71 78 71 77 73 75 77 73 76 74 75 77 70 74 76 77 77 78 75 74 79 80 77 77 75 75 80 82 75 74 76 78 85 81 83 82 77 81 82 80 79 81 81 82 78 77 78 79 77 78 76 78 78 76 79 76 79 83 77 78 84 77 81 79 81 84 80 78 80 84 82 80 83 79 81 
71 68 70 71 70 72 74 75 75 77 74 72 74 77 75 80 75 77 74 79 80 79 78 80 75 79 75 77 75 82 79 78 75 77 76 79 78 77 80 81 82 81 78 79 79 80 77 80 80 77 79 77 74 80 74 74 73 74 76 79 77 77 77 77 78 83 79 84 83 83 80 78 84 82 87 82 82 81 79 76 
71 70 70 73 70 76 73 74 76 76 76 76 78 73 75 79 73 76 75 79 78 80 79 77 78 80 77 77 76 78 80 78 79 77 78 80 82 80 81 80 81 81 79 81 81 79 79 77 76 80 77 80 78 74 68 62 70 74 75 78 78 76 76 77 77 83 82 85 85 81 88 83 81 81 85 84 82 82 77 74 
70 70 70 71 73 78 77 76 75 76 80 76 74 77 77 79 76 73 76 78 77 77 77 80 75 78 75 76 76 78 77 80 80 79 81 79 79 81 80 79 81 80 79 79 80 77 80 78 77 79 80 78 77 71 51 42 58 70 72 76 74 77 73 78 76 81 82 81 86 80 87 85 83 84 90 87 77 83 75 72 
71 72 73 73 72 75 76 73 74 74 76 79 77 75 76 77 79 72 77 75 77 79 77 78 77 79 80 76 78 74 79 77 79 76 79 79 79 79 84 78 78 83 81 82 80 75 79 78 80 80 78 75 76 62 40 31 47 61 70 74 73 74 76 77 76 76 76 80 83 85 84 82 84 83 88 85 82 80 69 70 
70 71 72 72 73 76 71 72 78 74 79 74 75 77 75 76 76 75 78 78 77 81 78 78 77 79 78 77 76 76 77 76 78 75 76 79 84 79 77 78 79 81 81 80 80 76 80 75 78 77 76 77 78 67 48 35 52 64 71 73 73 74 75 72 76 72 75 79 85 79 80 85 84 80 87 82 76 78 62 58 
73 72 74 77 77 74 73 72 78 77 78 76 77 78 74 77 79 72 78 78 76 78 76 79 77 78 78 82 75 74 78 76 76 73 77 81 79 79 78 77 78 80 79 80 81 81 80 76 77 76 77 79 78 73 65 61 63 66 69 69 73 73 75 70 71 73 78 77 82 82 79 84 86 81 87 82 69 60 48 39 
71 72 73 74 74 76 73 72 74 74 77 77 77 79 76 80 80 76 77 75 75 77 78 79 75 79 78 77 76 77 74 71 74 74 77 80 79 78 79 77 78 79 80 81 78 77 78 75 76 79 77 80 78 74 71 72 65 59 63 68 74 72 79 72 73 71 79 84 84 90 89 82 82 86 86 83 71 57 46 34 
70 70 71 74 76 76 76 76 75 78 75 74 77 76 76 73 77 75 76 78 76 76 80 78 78 76 77 77 75 77 75 69 72 74 76 78 80 76 79 79 76 77 79 78 79 80 77 74 74 77 75 76 73 74 70 71 61 46 49 62 72 72 78 75 73 73 79 84 89 92 93 87 94 82 88 82 66 53 47 42 
73 73 72 75 77 77 74 76 78 75 75 73 75 78 76 77 79 77 77 78 75 80 77 77 79 78 78 77 73 76 77 76 76 73 75 79 81 76 79 79 79 78 77 76 80 76 77 74 79 78 76 77 78 74 70 69 64 48 46 54 71 77 75 77 76 76 83 88 99 107 110 109 110 101 101 85 73 62 52 54 
74 72 73 74 74 77 72 76 75 73 73 73 76 77 77 75 76 73 76 77 76 76 78 74 74 76 78 78 76 76 75 77 78 75 76 79 78 80 76 77 75 78 78 77 80 77 77 78 75 76 76 75 79 75 69 68 65 53 41 54 72 77 74 80 76 79 85 99 110 124 136 132 136 125 125 117 95 94 84 84 
72 70 70 70 76 74 75 76 76 71 76 75 73 75 75 74 75 74 78 76 75 77 74 74 73 73 74 77 74 79 76 73 78 75 81 80 77 78 76 76 76 76 76 75 77 76 78 77 76 78 73 77 77 77 72 70 68 63 58 62 74 74 77 75 81 82 96 102 116 131 142 149 153 150 150 140 134 129 117 131 
70 71 71 72 76 76 79 78 74 72 74 75 74 75 75 76 74 76 78 77 75 73 75 77 75 76 75 77 76 76 77 75 77 78 78 79 80 78 79 77 79 75 78 77 78 78 78 75 78 79 77 78 76 80 69 72 75 68 67 68 74 75 75 78 76 81 92 111 125 134 140 144 151 157 158 155 150 152 143 148 
71 72 72 77 76 81 74 73 73 76 73 75 76 77 77 77 75 73 73 74 74 74 73 75 75 76 76 76 76 75 76 75 81 76 76 81 79 78 81 78 77 80 75 77 78 75 77 72 74 79 81 78 76 78 72 74 75 69 72 70 74 76 75 75 76 81 94 111 120 129 141 140 143 147 162 161 153 150 153 146 
72 71 77 76 80 78 77 73 77 75 75 76 73 78 75 74 76 75 74 78 74 76 78 82 77 78 77 76 75 78 80 75 77 76 76 77 80 80 81 77 75 76 78 77 80 78 76 78 78 78 78 78 76 73 72 75 77 74 74 70 73 72 71 72 73 80 89 103 132 132 135 148 146 143 156 163 154 153 147 149 
73 75 73 76 76 78 77 72 75 75 75 76 76 76 75 75 73 73 76 78 71 77 77 80 76 76 75 75 74 76 77 79 77 76 77 78 82 76 77 76 75 73 78 76 77 75 75 75 77 77 74 72 75 77 76 73 72 70 74 72 73 71 69 76 73 73 76 96 121 129 140 157 165 157 161 157 156 154 140 143 
74 71 74 74 75 74 77 77 76 74 79 74 74 77 76 76 76 73 76 79 72 75 78 80 76 73 75 71 74 75 79 78 73 76 79 79 78 79 76 79 75 75 75 74 75 74 75 73 75 77 78 76 76 74 73 75 74 72 76 74 72 77 73 72 73 71 73 87 108 127 139 153 167 159 168 163 158 160 142 144 
73 71 74 74 72 78 74 73 76 74 77 74 76 76 75 73 74 76 75 76 71 77 77 81 79 79 74 73 77 74 78 77 76 77 77 77 77 80 77 75 78 73 73 72 75 70 76 75 73 77 78 75 77 76 71 72 75 75 76 75 73 74 78 76 75 74 73 76 82 105 125 143 161 168 169 166 162 161 141 140 
72 74 75 73 72 73 76 77 73 74 76 74 76 75 73 77 73 77 73 75 74 77 77 78 80 78 78 77 74 75 76 80 75 74 73 77 78 81 81 80 77 73 73 77 79 75 75 71 72 77 75 76 77 75 72 76 73 73 73 72 76 75 76 75 72 75 72 78 75 78 99 115 136 144 155 157 141 147 127 124 
74 74 74 77 69 77 75 76 78 76 78 75 75 75 76 77 77 73 76 76 78 80 81 77 76 78 76 74 77 77 74 80 74 76 76 78 79 79 79 78 73 71 73 75 76 73 75 69 72 77 75 76 77 74 75 73 77 73 75 72 73 75 76 73 74 78 74 77 75 77 84 87 102 106 121 122 116 114 101 100 
74 73 76 72 76 76 75 74 76 73 76 77 79 77 76 77 74 75 74 77 80 78 77 75 78 76 75 73 75 77 75 74 74 75 75 77 75 76 76 74 72 70 73 72 73 72 75 70 73 75 78 80 75 77 75 77 75 75 70 67 70 70 73 71 75 75 74 75 76 73 74 80 84 83 91 85 86 94 78 72 
75 71 75 74 74 75 74 73 80 78 78 75 79 78 78 76 75 75 77 76 76 79 77 76 80 81 75 72 76 75 74 75 76 76 74 76 76 73 75 72 75 70 70 73 73 72 74 70 73 77 76 75 76 77 73 79 77 72 65 56 60 69 72 72 74 73 74 78 77 75 75 76 73 77 76 77 80 81 70 61 
75 74 71 76 75 74 76 76 77 78 80 77 79 84 78 79 76 77 77 74 79 80 81 79 79 78 76 74 73 74 77 73 74 76 72 74 73 75 75 72 71 72 70 74 74 72 72 72 74 77 75 75 76 77 75 76 76 66 52 41 51 65 73 72 74 76 73 75 76 75 76 73 74 72 74 75 74 77 75 71 
74 74 76 75 76 74 76 76 79 79 79 76 78 78 77 79 76 76 74 76 79 80 80 82 83 79 78 75 76 78 73 76 76 75 75 75 75 74 78 73 72 71 70 73 74 70 70 68 74 75 74 75 73 75 75 74 76 64 54 44 46 70 75 72 72 74 75 75 72 74 73 74 70 71 73 78 74 76 73 75 
72 76 76 77 79 78 76 76 79 79 80 80 80 80 76 82 78 79 80 79 78 79 80 82 82 79 78 79 79 78 77 77 77 77 72 74 74 73 72 71 73 73 71 71 71 66 65 66 69 74 71 72 74 72 75 79 72 72 65 52 61 67 73 74 70 70 70 72 71 74 74 76 74 70 79 78 76 75 74 74 
71 75 75 74 75 75 74 78 80 76 78 81 81 79 81 80 75 81 77 79 80 77 80 79 80 82 80 80 78 79 79 77 77 76 73 73 73 74 75 74 74 71 69 75 70 64 64 68 68 70 70 75 73 72 75 76 75 72 69 66 67 66 73 74 71 68 71 70 70 71 72 74 73 72 75 77 72 73 71 75 
75 78 78 77 74 76 75 77 76 75 79 82 80 81 83 79 81 78 80 77 79 81 81 80 80 78 81 80 80 80 81 77 76 76 74 75 75 73 74 78 74 72 73 73 72 64 62 63 67 68 70 70 73 72 70 72 73 69 70 65 66 66 74 72 71 67 72 70 71 71 72 71 71 68 77 72 72 75 75 70 
80 77 74 78 76 77 78 76 75 79 79 80 81 82 78 80 78 83 80 77 80 81 81 79 82 80 79 79 82 81 81 77 78 78 75 74 78 74 69 74 70 72 69 69 69 69 68 62 67 71 68 72 71 72 70 71 71 61 63 63 65 67 71 71 69 71 67 71 71 71 70 70 71 75 72 72 72 72 71 71 
81 78 78 77 77 78 78 80 77 79 82 83 85 86 76 80 78 82 82 80 76 78 80 83 82 82 79 79 76 85 82 79 78 73 72 76 75 72 72 73 66 69 72 69 70 70 71 67 67 70 66 68 69 70 69 69 69 59 48 54 62 67 66 69 70 70 69 70 75 71 70 71 70 69 69 71 70 73 67 75 
77 77 77 79 79 79 77 77 77 82 80 81 87 88 81 77 78 79 77 77 80 81 80 82 84 82 78 80 79 82 80 76 77 73 74 74 73 71 69 66 69 70 68 72 70 69 70 67 65 69 63 70 70 69 67 67 69 63 48 54 61 62 67 67 67 67 68 69 69 70 75 75 67 69 71 68 66 72 68 71 
72 74 76 76 78 77 80 80 80 79 79 80 81 83 79 80 79 77 75 78 76 82 81 86 86 84 80 83 81 82 78 75 74 75 72 73 68 68 70 69 69 72 72 67 71 66 70 66 66 63 60 62 69 70 66 61 64 65 57 52 58 61 63 66 67 68 67 66 68 67 73 70 67 62 63 65 63 65 70 70 
77 75 76 76 78 78 80 85 79 83 78 83 81 78 77 79 76 78 75 77 76 79 84 84 85 86 82 80 83 82 77 74 76 73 69 72 69 66 68 68 70 70 71 71 71 66 67 65 56 48 58 65 61 68 67 64 57 53 61 63 60 59 65 64 66 66 67 64 67 68 73 68 69 64 58 60 60 69 64 68 
75 77 76 78 79 81 81 86 81 78 81 80 79 80 83 81 80 78 75 77 79 80 83 85 83 83 80 83 82 81 74 72 79 73 69 69 50 54 67 68 68 74 66 68 70 63 64 61 54 52 50 59 62 65 66 70 66 53 60 62 62 60 62 64 62 63 63 65 66 63 69 69 66 66 63 63 60 68 61 61 
76 75 75 79 78 82 83 82 81 79 80 80 78 81 80 81 79 79 79 81 79 81 81 82 84 81 84 80 76 74 74 69 79 74 69 66 48 40 56 68 69 72 69 66 55 56 64 61 63 63 60 60 63 65 65 68 68 63 60 58 63 60 55 58 60 60 63 64 66 61 66 67 63 62 65 61 62 65 66 62 
76 76 74 78 81 82 87 81 84 84 80 82 81 80 81 76 77 80 78 80 81 82 85 85 83 85 81 82 76 69 71 69 75 78 71 70 59 44 55 67 70 67 65 54 48 55 60 62 59 62 64 65 66 71 66 70 70 62 57 59 66 60 53 55 54 55 57 61 64 60 65 64 61 61 65 65 62 65 58 57 
78 78 77 80 80 82 80 85 84 82 83 83 82 79 80 80 81 83 83 81 84 83 85 85 86 86 83 83 77 76 72 76 77 79 75 75 69 64 67 72 72 71 68 60 49 49 60 67 62 65 65 69 71 72 70 70 67 63 62 56 54 48 51 52 51 49 56 60 60 57 61 62 60 58 65 61 64 61 60 57 
80 79 78 82 80 83 84 79 81 85 83 83 79 78 78 77 79 80 81 80 83 83 85 86 82 87 84 79 79 78 78 77 80 78 75 74 75 72 74 73 72 70 69 68 63 60 65 58 64 65 70 73 80 82 75 75 68 63 66 62 59 54 51 53 47 46 41 47 52 51 53 56 58 57 60 62 58 61 54 54 
79 75 80 80 81 83 83 80 80 79 83 82 75 68 72 78 80 80 85 82 85 81 85 86 83 85 83 79 81 82 81 80 84 77 79 75 74 75 72 74 70 71 68 71 69 68 67 63 67 71 84 91 94 95 80 78 69 67 66 65 64 57 52 51 47 47 45 42 38 43 49 53 57 55 62 56 58 60 43 49 
77 80 77 83 84 83 80 77 81 83 80 82 79 68 75 77 79 80 81 82 84 83 85 86 83 82 79 81 80 82 83 82 83 81 78 78 78 76 76 73 71 74 70 71 69 67 63 63 67 81 95 105 106 100 90 78 74 68 69 67 65 60 57 54 49 46 42 39 41 39 40 42 49 55 60 55 50 48 43 30 
79 81 79 83 84 83 84 78 80 84 81 81 78 77 75 80 79 80 82 84 79 81 82 83 83 82 82 84 84 82 82 83 81 80 78 81 83 77 76 75 70 74 69 73 67 63 64 66 73 88 98 101 101 97 83 78 73 71 70 66 65 62 65 60 56 54 47 44 43 37 35 35 35 42 50 52 51 57 44 37 
80 82 80 80 82 84 82 80 82 84 82 78 79 81 78 78 81 83 85 85 83 83 84 82 84 83 83 83 87 82 84 82 80 76 78 78 79 78 75 74 72 72 71 71 66 64 65 69 75 78 88 86 88 81 82 75 70 69 70 69 66 64 65 65 61 55 53 50 50 45 44 40 34 32 41 44 47 55 49 51 
78 81 81 83 83 82 83 82 84 85 81 79 80 82 80 80 80 84 83 84 82 84 82 82 81 82 82 85 84 83 78 79 80 76 78 80 77 75 76 72 72 73 71 69 67 61 65 68 67 73 66 71 72 72 70 74 70 67 70 66 67 66 65 66 62 59 55 54 54 50 49 42 40 33 35 39 41 47 50 51 
78 81 77 80 82 80 83 79 80 82 82 80 82 83 82 80 83 81 81 82 83 83 85 82 80 86 84 81 82 81 79 76 79 76 77 77 75 76 76 76 70 72 70 66 66 63 61 64 61 63 59 58 59 61 60 72 71 66 69 68 67 66 64 65 63 62 58 56 58 50 50 48 45 41 36 38 37 40 42 51 
78 82 81 79 80 81 82 81 85 82 84 82 81 83 87 84 87 86 85 84 86 86 84 83 85 88 84 79 73 74 77 76 79 79 77 77 76 74 77 74 74 72 67 64 66 63 64 64 65 70 66 64 55 53 54 64 62 64 66 66 67 68 65 66 63 61 62 60 61 59 56 53 51 46 42 41 39 44 40 45 
79 83 80 81 82 79 84 83 88 85 83 79 80 80 86 87 85 83 86 86 87 87 87 87 88 90 90 84 83 81 71 75 78 74 75 76 77 76 77 78 74 75 63 63 64 61 61 68 67 70 71 73 69 63 57 59 54 54 57 58 61 64 64 62 65 62 63 61 63 62 60 59 53 48 48 45 43 50 37 40 
82 83 82 79 83 84 85 85 90 84 82 80 81 87 87 93 89 84 87 88 90 88 86 85 85 89 90 85 81 78 75 74 74 74 77 76 77 75 78 78 78 74 67 61 63 63 68 66 71 76 71 73 74 78 73 73 67 55 49 45 35 39 49 56 62 64 64 64 65 64 64 62 59 55 58 50 48 51 40 38 
77 80 81 79 81 82 82 82 83 81 80 83 85 89 90 87 86 79 81 86 87 90 84 83 86 82 85 79 77 78 74 72 79 76 75 75 73 75 75 74 70 67 63 55 58 61 68 69 71 73 72 78 80 83 76 80 79 74 65 49 34 23 34 49 59 58 59 64 64 63 59 61 59 57 59 54 50 50 48 43 
77 78 82 76 78 79 78 83 82 86 83 83 83 84 86 87 87 82 84 85 89 88 85 87 84 84 80 78 77 76 74 74 79 75 77 75 76 77 73 73 67 65 61 54 60 64 65 69 70 71 75 74 75 79 78 77 79 79 77 66 51 29 25 33 49 54 61 60 63 60 63 61 61 58 66 61 52 54 45 46 
79 82 78 75 77 80 79 81 84 83 82 83 84 87 88 87 88 82 85 87 86 87 87 84 84 82 80 77 72 77 75 76 76 76 76 75 75 76 73 73 66 61 57 59 63 66 71 70 70 77 75 74 75 80 77 74 72 74 76 76 74 61 45 38 38 45 52 58 57 62 62 59 61 60 67 61 56 58 49 47 
78 78 82 78 77 79 82 81 82 86 82 83 84 86 86 85 89 84 85 86 84 87 89 85 83 80 79 78 75 75 78 75 75 76 77 77 78 77 74 70 63 60 59 59 65 67 71 73 71 76 72 70 71 73 73 77 76 76 75 75 77 78 64 57 46 34 48 44 54 57 58 57 61 59 62 60 59 60 53 55 
77 80 82 77 79 79 85 80 85 85 89 90 88 89 88 90 90 88 84 87 86 87 90 88 86 83 81 80 77 80 79 77 79 79 77 76 81 77 72 71 67 62 59 64 70 70 74 78 74 73 64 63 67 68 70 74 73 74 75 76 78 78 77 69 65 54 52 48 44 45 44 38 43 51 60 63 59 66 59 52 
76 77 77 77 81 85 86 83 86 89 91 89 86 88 88 86 83 84 86 86 87 90 90 88 86 80 82 80 80 80 76 81 80 79 80 79 78 75 72 71 57 60 65 68 72 76 80 73 73 65 62 64 66 68 65 69 75 74 73 74 78 73 81 79 71 68 65 57 54 44 31 20 30 45 54 59 62 62 61 58 
75 72 80 81 82 82 86 86 83 92 89 91 90 87 85 86 85 86 89 91 91 92 90 88 83 84 80 79 79 79 78 79 79 78 78 80 77 73 72 67 60 66 69 72 73 78 82 76 65 64 63 62 65 67 61 68 67 69 71 72 75 75 77 81 76 71 70 68 65 58 43 21 23 28 42 51 57 62 60 57 
77 78 78 80 82 80 83 87 86 88 90 91 92 89 85 85 82 84 90 88 91 94 87 87 78 79 80 80 79 81 77 72 73 78 76 80 77 70 63 59 59 65 68 72 78 81 80 65 62 62 63 63 67 61 60 65 65 66 64 68 72 69 73 82 74 73 68 69 70 62 55 44 35 33 33 35 37 40 48 59 
79 82 80 84 82 86 81 87 87 89 89 90 89 84 89 88 85 86 88 89 94 94 88 81 84 82 78 80 81 84 79 78 73 77 75 83 80 66 58 61 63 67 72 78 82 80 77 68 65 63 59 60 60 63 55 62 62 64 64 65 65 66 70 77 75 75 68 70 68 66 68 56 54 43 40 35 18 30 41 55 
85 83 85 80 85 82 86 90 89 89 89 85 86 85 85 85 89 86 87 90 94 94 88 84 81 83 78 79 80 82 82 77 77 73 79 79 78 63 57 65 66 72 74 85 86 75 71 68 67 63 56 41 29 28 33 52 62 65 65 63 64 63 66 66 78 69 66 65 65 66 67 68 68 61 58 47 25 24 28 27 
88 83 86 87 87 88 86 86 90 89 85 81 81 83 85 86 87 90 88 89 88 87 86 82 80 82 77 82 77 81 80 77 78 79 80 80 76 63 61 70 71 72 71 80 79 73 64 64 67 58 27 12 4 8 12 31 52 63 62 66 65 62 58 63 70 70 59 60 62 59 62 64 69 68 67 62 47 48 40 28 
94 88 88 87 83 87 85 85 88 86 81 81 80 80 86 89 88 89 85 86 86 83 82 78 77 81 76 79 76 80 77 74 81 81 73 76 74 61 66 76 71 71 75 82 75 65 57 61 66 56 27 8 0 10 16 30 51 55 58 59 62 64 57 61 66 67 57 52 55 57 59 56 66 67 68 68 62 60 49 33 


