P2
80 60
48
19 17 21 18 18 15 20 19 14 13 16 22 17 22 23 19 19 18 21 20 19 17 11 13 14 16 17 17 19 14 19 18 14 17 26 18 20 27 23 24 21 22 19 22 25 26 20 19 21 22 26 27 24 22 20 23 22 22 19 17 21 18 17 15 15 12 14 11 17 10 10 9 3 6 8 4 12 5 2 1 
17 22 19 15 18 21 14 15 14 18 20 21 12 20 25 24 20 20 16 20 16 18 14 15 11 12 21 20 22 20 16 19 19 19 25 25 20 20 28 21 23 21 19 22 19 23 20 22 21 22 25 21 20 23 23 21 21 21 21 21 18 23 18 19 17 14 15 17 12 13 15 9 9 12 2 14 10 11 6 0 
16 22 18 21 22 23 10 17 20 19 22 19 18 21 26 22 23 26 21 23 25 21 17 14 16 18 16 20 19 18 19 21 20 20 20 23 22 25 26 27 22 21 21 23 21 23 25 21 24 25 23 21 21 20 22 29 30 25 26 23 22 23 27 26 22 17 20 13 17 15 13 7 11 10 10 12 13 9 2 8 
18 29 20 16 24 21 22 22 20 20 26 24 23 23 27 22 27 28 23 25 24 22 16 19 14 16 20 20 20 18 23 23 20 23 23 22 23 24 34 26 24 31 25 23 20 27 24 26 25 26 25 24 25 27 27 26 27 23 27 22 25 24 28 20 20 17 20 20 18 16 13 11 10 13 12 13 12 9 4 5 
19 26 24 21 18 22 21 15 16 20 22 21 24 25 30 27 27 26 28 29 29 23 22 16 20 19 19 23 22 20 21 18 21 22 23 26 27 23 25 27 25 26 26 23 24 29 24 23 29 26 26 24 19 24 26 28 26 25 27 19 26 23 30 24 19 22 20 16 19 14 16 17 10 17 18 11 17 15 5 6 
24 23 20 19 21 21 18 20 18 20 25 24 24 27 28 25 22 25 24 28 26 21 21 19 18 17 23 21 21 19 17 17 21 24 25 20 24 26 27 28 24 27 26 24 25 24 24 20 29 26 28 23 24 26 26 26 25 23 28 22 22 25 23 21 22 18 19 17 20 21 13 14 10 12 10 15 16 15 6 8 
19 24 19 25 24 23 20 20 21 19 27 28 28 22 26 22 26 30 29 29 28 29 23 25 19 20 22 29 23 18 23 21 18 27 26 25 24 20 24 27 30 28 28 29 25 27 28 27 28 27 28 27 27 29 26 29 30 28 26 22 24 23 26 23 22 17 20 20 23 16 18 17 13 20 20 16 16 13 10 16 
20 25 21 23 22 22 24 25 17 19 25 25 23 26 30 30 31 33 28 32 32 27 27 29 26 24 24 23 24 26 26 20 26 31 28 31 27 24 27 27 24 23 26 26 24 28 27 30 33 31 29 27 26 27 31 32 30 27 29 25 26 27 23 22 25 21 21 20 21 17 16 17 12 13 15 17 19 17 10 11 
19 24 24 24 24 22 24 26 23 19 24 23 22 26 30 24 27 32 32 36 37 27 27 24 27 24 28 28 26 27 20 21 26 32 29 31 29 25 27 28 28 26 27 26 24 24 28 28 36 31 34 32 31 29 34 31 32 29 31 25 21 25 27 22 26 20 21 18 20 23 15 17 14 14 14 17 17 19 11 13 
24 25 26 27 21 23 23 25 29 21 22 23 27 26 32 31 31 28 35 31 33 28 30 25 22 28 27 29 26 23 22 25 24 27 32 28 28 30 30 30 31 31 27 27 27 30 28 26 31 26 27 30 25 27 31 29 30 27 32 28 28 26 30 30 26 22 21 18 25 21 17 17 19 15 13 18 21 18 14 17 
20 29 28 27 29 23 29 28 26 25 32 25 22 27 28 28 30 31 34 35 30 30 29 30 22 28 28 25 27 26 25 22 25 26 31 35 29 27 30 30 30 32 35 28 27 31 29 27 29 36 30 30 29 32 33 30 27 31 31 27 33 26 29 26 23 21 26 23 18 22 19 19 16 15 21 21 18 15 12 12 
24 24 29 25 31 29 28 31 29 27 25 26 21 28 29 27 28 36 31 34 31 29 27 31 28 31 28 27 31 26 24 22 24 30 33 28 27 28 31 24 35 30 34 32 29 25 32 32 31 35 35 30 30 35 32 31 33 30 33 31 30 27 29 28 28 25 23 23 21 20 19 17 15 18 19 17 18 12 11 9 
22 28 25 27 27 28 30 29 27 33 28 30 29 26 30 28 32 34 33 32 36 29 33 31 30 32 32 30 32 27 27 19 20 37 29 28 30 26 32 33 32 33 30 30 25 31 31 32 30 36 33 30 27 32 31 33 29 26 28 27 35 29 31 25 30 26 26 25 26 22 17 17 19 19 19 12 18 21 15 16 
27 29 27 24 23 27 24 27 28 32 34 28 26 26 27 26 31 32 34 34 37 30 37 33 30 35 30 30 33 29 29 23 27 27 28 30 34 29 29 27 28 28 29 29 25 34 30 29 27 30 29 29 31 34 31 32 30 29 31 32 29 25 32 23 29 24 21 22 19 17 14 14 13 18 15 15 18 14 15 6 
26 26 24 26 27 26 24 25 27 24 25 27 25 24 26 24 26 23 29 36 35 29 32 32 28 28 27 28 34 28 25 25 21 23 26 23 21 25 29 27 31 29 31 31 25 34 29 29 32 30 36 24 28 29 30 28 26 31 30 28 31 26 25 19 24 18 24 19 22 17 21 15 12 16 19 13 12 21 16 11 
25 23 26 27 29 31 26 30 30 35 29 27 23 30 28 25 24 24 26 28 29 32 31 33 31 31 32 32 33 29 28 27 26 26 31 23 22 21 25 23 26 29 27 29 28 32 28 28 35 29 35 28 28 29 32 30 29 28 26 26 30 22 23 20 23 19 22 19 18 20 20 17 15 17 16 12 20 19 14 19 
28 36 32 29 26 30 31 30 36 33 35 30 26 27 30 26 29 24 30 29 28 30 28 32 33 33 30 33 33 33 31 31 28 32 30 27 23 22 24 22 22 26 25 27 26 30 32 30 30 28 34 28 27 29 30 33 31 29 28 24 25 23 24 22 27 21 21 21 19 19 18 16 19 15 15 20 26 19 14 14 
33 34 33 30 32 33 32 34 36 33 31 29 30 30 34 29 24 32 31 30 26 27 29 30 27 32 30 33 33 36 31 29 33 33 31 30 26 27 25 27 27 21 27 20 29 31 31 32 31 32 30 32 27 31 35 32 31 30 29 26 25 28 23 27 28 22 22 20 23 24 19 17 18 19 15 15 18 16 12 16 
26 27 25 28 29 27 28 32 34 32 36 30 28 30 32 31 32 30 31 31 25 28 27 29 29 26 32 28 31 31 35 31 30 34 32 27 26 30 27 28 29 28 28 31 29 32 32 27 29 28 27 29 31 33 31 30 28 31 28 28 23 31 29 29 32 27 22 20 25 20 21 21 18 14 18 20 23 19 15 8 
17 29 22 26 25 34 30 28 34 30 34 33 30 28 27 30 26 37 32 30 31 31 29 29 26 25 26 33 32 32 29 27 31 29 34 26 30 28 30 31 30 27 29 26 25 27 28 33 32 35 30 28 28 32 29 29 25 27 27 28 26 34 29 24 27 25 23 24 22 21 25 24 20 14 17 19 22 14 14 15 
25 31 28 28 25 31 29 33 33 34 36 35 31 35 35 35 30 33 33 36 31 32 27 26 30 26 28 29 30 26 34 31 31 34 33 33 31 33 36 32 31 29 31 29 29 30 29 30 35 33 34 32 34 34 33 33 34 32 35 32 26 28 27 27 27 24 26 28 23 20 20 22 22 18 19 23 20 16 9 11 
24 30 21 26 25 31 30 28 29 28 37 34 34 31 36 35 32 35 33 35 32 34 32 31 30 26 25 25 29 30 33 29 29 33 34 30 28 29 30 33 33 31 33 32 29 27 31 32 36 33 33 32 31 28 32 33 34 31 31 29 26 30 28 29 27 20 20 24 23 25 20 16 17 19 16 21 12 11 9 13 
20 28 27 25 26 33 30 30 31 28 37 31 33 38 35 36 36 33 35 35 34 33 34 29 30 29 26 28 22 24 27 29 30 33 34 31 31 37 35 33 34 28 29 29 29 33 34 30 32 33 29 32 29 33 30 33 31 27 27 28 29 29 30 27 29 30 23 20 20 19 18 17 15 20 16 16 17 13 9 15 
23 28 24 27 24 29 30 30 31 29 42 35 34 36 36 37 38 35 38 38 35 35 29 31 29 30 30 28 25 24 27 23 28 31 35 28 29 31 32 30 33 32 29 33 29 31 30 30 29 32 31 30 27 28 27 32 28 28 25 30 27 29 27 30 25 26 27 23 21 22 17 20 13 20 17 17 16 12 9 10 
25 33 26 28 27 31 31 31 31 30 37 38 35 40 40 40 42 39 42 40 37 33 31 30 25 30 29 28 26 25 25 23 24 30 31 34 29 33 34 33 33 37 35 32 35 33 34 35 34 39 33 35 31 34 31 33 30 27 33 28 27 29 31 27 29 30 24 24 24 24 17 18 14 18 21 15 17 11 9 8 
26 34 26 30 28 30 33 35 29 31 39 36 35 40 36 41 39 46 42 43 36 40 35 30 31 31 30 32 32 31 28 22 25 29 34 33 30 33 32 36 35 35 37 33 34 33 39 35 34 34 35 31 36 30 32 33 32 33 27 28 31 36 32 30 31 28 24 21 22 21 17 18 18 18 16 18 21 9 13 13 
25 32 28 26 31 35 32 35 33 35 41 35 37 38 39 41 38 43 44 48 36 39 36 31 31 32 33 38 33 28 24 21 26 25 23 28 26 33 34 32 34 31 37 36 36 35 33 33 39 37 37 35 36 34 33 33 33 33 33 26 31 29 31 32 27 27 28 19 22 24 16 16 15 15 17 20 20 13 17 10 
28 31 29 36 30 33 34 40 37 37 41 38 37 36 39 41 37 43 46 40 42 41 41 40 35 32 35 34 27 32 30 24 27 27 27 26 30 29 36 30 35 35 34 33 34 34 35 38 36 37 40 36 33 34 34 35 32 29 33 24 31 32 33 24 29 24 26 26 22 22 16 21 17 15 15 17 18 15 14 22 
24 32 29 30 28 37 35 36 33 32 36 33 34 36 41 43 36 42 43 42 36 42 39 36 37 36 36 33 30 33 32 26 27 26 32 26 26 29 30 29 31 34 33 33 30 36 35 37 32 36 37 31 28 33 34 31 29 30 31 27 30 22 29 27 33 21 26 17 19 18 20 19 21 16 17 19 18 23 13 15 
18 29 26 30 31 33 33 34 30 35 39 34 35 41 41 41 40 41 37 41 37 38 37 36 40 36 36 35 32 31 30 28 25 30 30 29 24 27 31 30 30 30 29 29 29 33 35 34 33 41 37 33 32 38 33 30 30 30 31 26 29 28 28 29 32 25 26 23 27 18 18 22 18 19 18 19 24 22 15 14 
26 29 26 25 32 27 29 31 32 31 33 37 27 37 40 39 40 36 36 36 34 39 36 36 35 38 33 34 29 34 27 25 24 32 30 24 25 26 30 25 29 27 25 25 26 31 27 25 28 29 34 29 29 32 31 33 31 28 31 29 27 26 31 24 23 18 28 24 22 14 17 15 15 13 21 19 24 21 17 13 
19 26 24 27 28 26 23 28 32 30 33 29 32 34 36 35 39 39 32 35 37 34 33 33 38 35 35 31 35 33 33 26 22 32 31 30 30 31 27 29 25 27 29 25 21 32 28 27 27 32 31 29 32 32 26 33 32 28 34 25 28 27 28 24 28 22 26 25 22 21 21 22 22 15 20 16 19 21 14 19 
20 26 27 29 27 24 24 26 32 34 32 32 27 36 35 34 34 38 35 33 37 36 37 34 38 37 35 39 34 37 31 29 30 34 30 32 26 30 28 28 26 23 24 28 24 29 21 29 31 29 29 28 27 31 27 36 29 29 31 27 30 29 27 27 29 25 26 23 25 22 20 24 16 17 20 22 27 16 21 18 
22 27 25 21 25 24 27 25 27 27 30 28 28 25 33 31 31 35 30 32 35 34 33 33 29 29 32 34 34 30 32 27 32 31 33 30 31 27 29 27 27 22 25 22 24 28 28 25 24 29 29 26 27 27 27 27 27 30 31 22 30 29 29 28 25 22 23 20 25 24 19 22 17 22 23 18 24 16 17 21 
19 23 25 19 21 24 25 26 26 26 27 27 25 30 33 34 29 29 32 32 30 32 32 36 33 34 28 31 33 31 28 30 32 35 36 33 27 30 33 28 31 24 20 25 19 28 26 23 26 30 20 25 24 30 26 30 31 27 27 23 29 27 34 25 30 17 23 22 26 23 19 21 17 19 21 21 19 23 18 17 
20 31 22 19 22 20 24 27 28 24 29 26 27 24 29 35 30 29 33 30 33 33 31 29 32 32 36 34 34 33 29 30 31 31 29 30 28 29 29 25 27 26 29 27 25 27 25 26 26 26 23 25 25 30 27 30 29 30 31 26 27 29 31 23 23 21 19 20 25 22 21 19 19 16 22 23 22 20 15 19 
18 22 20 18 20 18 20 20 23 23 25 26 27 26 33 29 27 31 30 31 30 27 27 34 30 29 28 32 31 28 30 23 27 29 34 32 27 28 30 23 27 22 32 26 25 29 25 22 25 24 26 20 20 27 27 30 26 24 26 25 25 24 27 25 27 23 25 22 21 20 19 16 16 20 17 23 24 18 13 16 
21 22 18 18 26 22 21 25 23 22 27 26 22 24 25 26 27 30 27 27 26 23 28 30 27 29 31 29 32 33 29 26 28 29 32 31 27 25 32 28 27 25 27 27 26 31 24 27 22 26 23 23 26 29 29 26 28 26 27 24 26 26 28 23 25 18 26 20 21 20 18 19 20 19 22 23 22 13 17 19 
19 20 19 20 23 21 22 27 24 19 20 25 20 19 28 26 27 27 28 30 28 26 30 28 27 27 27 31 27 27 22 26 29 36 32 27 28 29 29 28 29 26 26 27 27 24 29 21 27 21 21 22 24 26 23 27 27 31 26 22 27 25 23 26 24 21 21 21 25 16 19 14 21 17 19 20 20 17 14 23 
17 21 21 20 25 21 24 23 22 18 21 23 26 20 24 27 27 24 26 25 25 23 28 29 27 29 23 26 31 30 25 24 26 28 34 30 27 28 31 25 26 26 29 29 23 29 26 24 25 26 25 23 22 25 24 24 21 24 25 20 25 23 26 27 24 24 21 15 23 17 19 15 12 15 14 20 20 19 15 14 
14 21 22 16 17 15 20 23 21 21 27 19 16 19 27 24 29 26 27 23 26 24 26 27 30 24 28 29 30 31 25 25 28 27 27 32 29 26 31 27 30 25 24 31 27 31 24 29 24 28 26 25 26 22 25 20 26 23 24 22 22 24 27 24 26 21 22 17 24 21 20 18 17 14 15 15 21 16 16 15 
10 18 14 18 17 16 22 17 18 18 22 16 20 22 24 25 26 22 24 26 30 24 25 24 29 26 27 27 25 24 24 23 24 24 25 28 26 27 29 28 28 23 27 27 21 30 25 28 28 29 24 23 20 27 22 23 24 24 19 16 25 21 26 28 22 23 18 17 23 19 19 19 11 13 15 14 14 10 7 16 
12 19 14 14 16 13 13 18 15 18 20 22 16 23 23 25 24 23 26 27 29 25 23 26 28 24 26 28 26 29 27 22 26 31 28 26 26 23 24 25 29 28 29 26 24 26 22 26 25 27 22 19 26 27 21 23 20 20 19 21 21 23 22 20 24 17 19 20 21 15 20 18 16 15 15 12 15 12 6 10 
15 18 18 12 15 18 19 23 17 16 20 21 17 18 30 27 28 27 28 27 30 25 31 27 28 28 30 27 28 29 30 23 24 26 32 30 31 27 27 28 30 26 31 29 29 31 28 24 23 26 28 24 22 28 22 29 24 20 26 18 30 24 29 24 24 18 19 22 22 19 19 14 19 15 17 22 24 14 10 15 
16 23 17 16 19 18 14 20 21 17 23 21 19 28 26 22 23 29 24 28 28 23 29 27 30 25 28 24 31 33 28 26 27 29 29 25 27 30 31 32 24 27 30 31 26 34 26 25 25 28 32 29 22 26 22 28 19 23 24 21 26 21 26 25 18 22 21 19 18 18 17 20 17 17 18 22 27 18 17 16 
13 20 12 16 15 15 12 14 18 17 20 22 18 20 27 26 25 24 31 28 30 26 29 28 27 33 26 31 26 30 29 26 26 28 30 29 23 29 30 26 26 27 33 31 25 31 29 29 22 25 30 22 21 22 24 24 23 22 25 22 26 17 25 25 22 19 20 19 23 22 15 20 18 17 21 21 25 21 16 16 
15 18 14 16 14 15 18 17 19 20 22 20 18 23 26 24 28 27 28 28 26 23 31 27 28 27 28 30 29 33 28 27 27 33 30 29 28 27 29 32 28 24 31 29 27 32 28 27 28 27 26 27 23 29 24 23 24 22 27 26 27 23 26 23 20 22 25 25 23 22 23 17 21 17 21 23 29 22 15 22 
12 15 15 15 15 18 11 16 15 19 20 22 18 20 25 26 25 24 31 26 24 30 25 26 29 30 29 29 27 31 29 27 29 30 31 28 29 28 32 30 33 28 28 31 26 33 29 25 28 30 24 22 26 25 19 29 21 22 29 25 23 22 24 19 23 24 24 23 24 17 17 20 18 23 18 22 24 21 18 18 
14 22 11 15 19 16 13 19 19 19 26 21 21 22 28 25 26 30 29 26 26 23 28 25 25 27 30 30 32 35 26 28 27 29 31 26 36 31 29 31 29 30 29 29 23 25 28 24 26 27 31 25 19 27 25 25 23 26 23 22 25 28 28 20 22 21 23 22 23 17 16 20 22 17 15 26 24 22 16 20 
9 21 17 21 14 16 12 18 14 18 19 19 19 20 22 25 22 27 27 28 28 28 27 30 24 25 27 31 28 29 27 31 29 32 32 35 28 34 35 32 33 30 31 32 28 32 26 24 27 29 27 21 27 26 28 25 24 26 23 21 27 24 29 27 23 21 31 18 25 21 20 18 22 23 23 18 27 19 17 24 
12 14 11 16 18 21 13 17 18 21 17 24 17 15 21 27 20 20 25 28 26 25 29 29 30 27 31 29 25 29 26 27 22 33 31 28 30 30 31 30 26 24 30 30 23 30 28 26 27 29 30 24 19 26 25 27 26 26 27 22 25 21 25 24 20 20 23 22 25 18 14 19 13 19 21 22 24 19 20 27 
11 15 15 12 15 21 15 20 14 19 17 21 19 22 25 22 24 28 26 27 28 25 29 29 28 29 28 31 28 33 35 28 23 29 34 33 30 32 31 31 31 30 29 31 23 28 27 29 29 29 24 26 26 25 25 25 26 22 27 24 23 23 30 23 24 22 21 18 24 16 19 19 21 20 23 17 27 22 20 19 
12 22 17 10 15 14 16 16 19 18 16 18 21 19 30 26 26 30 27 30 28 28 28 27 25 27 31 31 31 31 28 29 28 32 38 30 33 31 33 31 36 31 32 32 25 30 26 25 29 27 35 25 27 28 29 26 27 24 29 23 26 28 22 25 23 23 28 24 22 20 16 19 21 20 18 26 25 23 21 20 
14 21 16 16 18 17 17 17 22 21 16 20 23 24 29 27 25 29 29 30 26 26 27 28 27 31 30 35 32 35 31 30 31 34 37 38 33 36 38 36 36 33 35 34 30 35 31 30 33 30 32 28 27 28 27 25 28 31 29 26 28 26 26 24 25 22 22 19 26 21 21 25 23 19 20 27 27 27 26 26 
11 17 17 18 19 20 14 19 18 19 19 18 22 19 26 24 27 24 28 30 27 25 26 28 28 29 30 27 32 32 28 31 32 36 37 34 34 34 36 38 39 33 32 34 33 36 31 30 35 32 30 23 25 33 27 24 28 29 26 25 28 26 27 27 28 28 22 23 21 30 20 24 18 24 25 26 23 24 17 28 
18 20 17 17 18 21 18 19 25 18 19 20 20 22 29 25 28 25 24 28 27 28 26 31 24 31 32 31 31 32 32 34 33 39 37 37 32 35 35 35 32 39 36 39 31 35 30 36 32 30 33 29 25 32 24 31 30 32 27 25 31 32 25 27 29 17 22 22 24 27 21 25 24 17 21 26 26 25 25 23 
17 18 18 14 16 17 16 20 26 18 21 18 21 21 29 23 28 24 29 30 29 29 27 32 33 29 35 33 32 34 31 26 32 40 37 39 35 45 33 38 36 34 36 36 27 33 29 31 32 32 35 31 30 33 31 27 28 27 30 22 27 26 27 24 20 22 20 23 21 21 20 20 19 21 18 31 28 25 20 25 
12 23 14 21 16 16 23 25 22 21 26 22 22 21 27 27 28 28 27 32 30 33 27 30 33 33 35 32 32 34 33 32 40 38 36 38 40 42 37 36 38 33 40 35 34 41 34 33 36 31 32 33 30 30 31 29 29 34 30 22 29 33 31 23 25 25 27 26 27 21 18 21 19 20 22 27 25 25 26 26 
17 18 17 20 18 23 19 21 18 16 26 21 19 21 28 29 27 28 25 29 27 23 31 33 33 32 31 29 34 40 31 32 36 40 41 39 43 40 48 41 43 38 39 36 33 38 33 37 34 37 35 33 27 35 33 28 30 29 26 26 29 23 29 30 24 23 23 21 18 27 23 20 23 23 20 24 27 26 20 26 
19 23 20 17 17 21 15 19 31 23 27 25 25 27 28 28 26 28 27 29 30 27 28 38 34 37 34 36 36 37 38 38 37 42 46 46 41 43 39 44 42 46 41 41 35 37 33 38 40 34 31 38 31 34 28 36 31 30 26 26 30 22 27 24 31 26 24 23 21 22 25 23 19 18 23 29 28 28 21 27 


