P2
80 60
707
162 104 84 75 52 40 34 28 25 22 14 15 6 9 17 16 1 5 6 9 32 42 105 127 47 21 23 21 25 24 25 36 48 81 39 32 26 24 30 24 24 19 16 18 18 29 28 40 66 105 126 150 157 163 151 129 118 94 70 38 29 27 45 100 182 244 240 217 156 106 105 103 77 42 18 29 30 56 56 80 
199 158 136 123 100 88 76 71 54 46 41 35 29 26 23 19 15 14 18 15 34 44 91 105 44 23 22 16 25 23 19 36 61 64 30 24 24 21 26 21 16 20 13 15 13 18 21 22 35 70 95 124 157 163 165 154 136 122 107 75 56 36 50 114 195 247 272 271 249 221 184 191 169 119 43 19 8 9 5 18 
257 223 207 193 166 146 133 123 108 97 89 75 67 68 52 45 28 30 29 27 41 41 72 87 51 24 23 20 23 18 25 37 64 68 31 26 24 17 23 21 16 20 17 15 14 17 15 17 17 42 63 92 128 156 162 167 164 145 125 105 85 58 50 96 185 243 270 285 280 270 262 256 239 219 126 42 4 13 0 0 
314 294 277 256 243 216 201 196 181 160 144 131 120 122 97 83 69 59 56 60 61 57 56 75 53 29 27 24 22 21 29 36 59 64 44 26 30 27 23 23 16 22 19 16 17 20 14 12 14 28 36 58 91 124 145 171 169 164 155 129 112 85 70 76 145 221 253 275 279 286 288 291 275 264 200 88 22 17 10 21 
349 334 326 311 296 275 270 269 251 231 208 196 179 181 159 146 125 113 105 101 107 90 79 81 65 47 36 31 30 27 28 28 52 80 60 50 39 41 37 27 19 17 17 19 22 23 17 14 15 23 23 37 54 92 121 149 164 168 165 140 123 106 95 83 99 170 239 269 271 279 301 307 291 282 247 149 52 45 57 77 
359 351 344 338 333 316 320 318 312 293 277 258 240 232 217 205 183 166 159 145 149 136 132 113 93 73 70 50 47 39 37 35 36 58 58 65 60 54 40 31 22 22 14 19 20 17 15 16 10 17 25 19 39 56 91 116 140 151 162 148 137 117 97 80 73 115 205 257 268 270 288 311 305 300 275 208 100 81 118 150 
378 368 359 349 350 335 341 346 342 340 327 315 298 294 284 271 246 233 217 205 195 188 182 159 142 124 114 103 88 76 69 62 46 51 76 63 71 57 51 35 27 26 18 25 28 20 20 17 16 21 22 27 29 43 66 94 111 126 141 137 141 123 99 79 63 74 150 235 264 274 281 300 301 303 283 253 174 153 164 231 
399 386 377 378 366 359 363 357 357 359 354 339 332 337 329 320 306 291 274 249 248 236 236 214 189 169 159 141 138 122 121 107 85 70 61 61 68 56 52 42 28 32 22 23 27 25 19 16 16 18 20 22 19 29 41 60 86 101 117 114 120 112 99 69 49 39 78 178 239 262 274 279 287 293 280 264 228 204 194 277 
420 408 395 400 387 379 382 371 374 369 366 356 346 351 356 354 340 336 328 303 300 290 279 258 241 222 213 194 187 173 165 161 137 126 103 97 88 74 67 52 39 38 26 32 24 25 27 22 18 24 20 20 18 21 31 42 57 78 93 91 98 91 73 53 32 22 31 84 173 234 258 264 259 266 269 262 246 235 235 286 
442 428 425 416 416 409 406 403 397 389 378 372 366 368 372 373 362 362 353 334 334 326 318 306 301 280 264 252 229 223 212 205 190 182 164 153 139 129 114 101 80 55 36 37 38 34 34 32 26 31 27 29 27 23 26 34 45 57 75 73 77 68 54 39 31 27 23 43 95 180 231 246 227 232 247 265 262 267 269 300 
458 446 440 437 434 435 431 422 421 406 395 385 384 386 386 384 374 369 364 351 345 337 340 338 334 322 313 296 284 270 259 255 237 232 211 205 197 190 172 155 130 91 52 52 54 48 48 35 27 37 30 31 27 25 24 25 35 42 49 54 60 48 33 26 26 18 14 24 43 96 186 237 217 207 226 270 285 303 312 331 
480 467 451 450 454 444 448 445 438 420 406 403 399 409 404 405 392 386 377 364 364 355 352 356 354 347 339 331 320 311 301 303 286 277 259 248 243 240 231 208 183 150 93 85 87 87 83 66 48 49 34 36 31 31 26 29 26 28 40 38 45 34 32 25 27 16 16 20 29 75 167 250 276 239 237 288 324 351 357 374 
506 490 480 478 476 473 470 463 455 445 430 418 422 429 424 421 406 405 397 390 391 374 372 368 368 364 358 345 346 338 331 330 324 316 298 286 279 277 279 268 231 199 141 130 133 133 125 114 92 80 68 58 55 43 42 37 31 33 39 33 37 26 25 27 26 18 21 21 34 73 170 276 333 345 305 332 371 398 407 416 
528 516 510 509 502 494 492 483 475 457 443 440 447 448 449 442 426 421 422 416 408 401 390 387 383 378 369 365 359 350 350 348 342 338 333 314 304 303 307 310 277 250 209 195 192 182 182 161 146 135 118 98 94 78 71 59 53 41 47 35 37 30 29 26 26 19 20 24 34 79 176 291 369 400 395 399 414 431 434 442 
553 534 529 534 531 526 517 508 497 487 471 466 464 472 465 461 440 435 445 437 435 423 412 403 399 391 391 382 379 371 370 367 357 355 343 334 320 320 322 333 315 304 272 257 247 231 229 209 199 181 172 160 140 132 117 105 95 78 70 57 49 39 34 28 27 25 21 24 29 67 165 284 368 416 426 437 442 453 453 455 
569 559 553 556 552 543 536 531 523 512 501 497 485 488 488 482 460 458 463 453 448 437 429 415 410 405 407 407 403 394 391 392 378 381 366 350 331 334 339 353 355 345 322 308 297 285 272 258 243 237 219 210 191 180 168 152 145 126 110 92 83 64 49 37 32 35 25 28 22 32 107 222 330 406 430 444 448 459 457 462 
581 568 563 567 571 560 555 552 542 536 530 525 517 513 511 506 487 478 483 477 468 453 446 430 422 417 431 427 431 418 422 419 410 410 395 384 362 360 366 374 371 369 354 341 337 323 315 308 289 279 266 256 246 231 217 202 190 178 161 142 130 112 91 74 62 52 37 36 25 27 52 128 221 355 416 439 449 465 463 443 
575 570 565 576 572 564 564 563 560 556 550 544 536 537 530 525 512 503 500 491 487 468 458 444 438 439 447 447 455 448 450 451 440 437 424 413 404 386 396 399 393 384 373 363 361 356 346 333 327 318 309 295 296 275 265 254 238 219 207 184 172 163 146 123 110 90 74 65 46 37 41 55 155 225 355 425 439 453 453 456 
584 577 572 576 572 572 572 573 572 571 565 560 547 553 550 550 537 530 528 517 512 487 473 465 458 461 466 473 472 469 471 472 466 463 459 452 439 423 424 435 421 416 400 394 390 387 375 364 350 347 340 327 325 317 309 298 289 270 255 232 218 202 186 173 156 139 126 113 97 79 69 66 72 98 248 368 416 444 447 447 
585 573 574 575 570 575 572 572 577 576 571 569 558 564 564 565 552 550 545 541 534 507 490 477 481 477 481 481 486 485 489 492 487 484 485 479 472 467 459 460 451 443 433 422 416 416 412 401 382 373 361 352 350 347 340 339 326 312 295 281 269 249 236 220 203 183 174 166 152 133 120 106 86 86 117 277 383 425 438 444 
587 573 573 579 569 570 570 579 573 576 575 576 562 571 569 578 567 565 562 554 553 533 513 503 503 502 500 495 498 502 502 503 505 506 498 499 495 493 483 486 476 473 460 453 446 443 451 438 422 412 396 378 370 365 359 355 352 342 334 314 305 292 283 265 255 238 223 222 212 201 194 184 162 153 133 159 299 397 422 437 
584 579 577 578 575 572 579 579 583 584 580 579 576 579 582 582 574 577 576 565 574 552 538 528 528 529 527 512 514 514 519 524 519 518 511 510 511 509 510 505 500 498 489 484 487 475 476 475 458 449 430 417 409 394 383 376 369 360 359 345 340 330 326 313 299 290 273 270 270 261 255 251 243 243 233 202 213 338 398 423 
588 578 575 583 580 572 574 577 581 589 583 582 581 580 584 586 581 580 583 580 576 570 556 551 547 549 548 535 529 528 539 539 533 527 526 517 516 521 517 520 512 513 507 500 500 495 493 488 489 481 463 447 436 431 423 405 390 378 372 361 358 353 344 341 335 329 319 317 316 316 303 304 303 306 306 301 259 280 345 392 
586 578 581 584 582 574 573 578 579 586 584 586 579 580 586 589 579 587 583 579 583 574 572 568 566 561 559 547 544 545 549 551 550 544 537 529 522 518 521 525 524 530 514 515 513 508 505 502 489 489 477 467 466 459 453 439 422 404 393 372 376 365 362 357 352 347 346 348 346 346 348 339 330 347 344 356 336 314 316 355 
587 573 578 580 578 577 572 576 578 588 585 578 583 583 581 590 581 582 584 582 587 582 579 581 572 573 568 562 556 561 567 560 566 561 549 543 532 527 524 526 527 530 534 523 529 520 523 510 502 497 481 479 480 474 477 471 453 440 421 401 397 392 382 377 374 365 360 363 362 358 362 357 349 357 357 364 364 366 340 330 
588 578 579 580 580 574 572 577 579 587 586 585 580 584 587 590 580 584 589 586 589 582 583 580 578 574 568 561 570 572 575 577 572 576 565 561 551 540 535 537 535 538 540 537 537 533 532 523 516 507 496 479 480 483 484 495 487 470 454 433 426 418 411 400 392 386 379 379 377 372 373 366 354 355 349 359 354 365 357 319 
585 577 578 583 580 572 571 579 583 585 585 587 582 584 585 584 583 581 584 579 591 579 584 583 577 573 568 560 571 577 578 581 583 585 576 570 563 557 545 545 544 552 553 546 549 545 545 536 532 521 507 492 487 489 496 499 497 491 485 462 453 444 432 425 413 406 400 402 397 395 385 381 364 359 348 353 362 360 344 351 
591 581 581 583 577 574 581 582 584 583 587 587 584 588 586 587 583 581 582 584 591 586 585 582 582 574 564 563 579 581 587 585 586 587 583 584 583 574 563 560 559 557 557 563 559 555 556 547 538 538 530 512 505 503 504 507 507 503 502 493 480 468 452 435 435 428 421 425 421 418 422 420 397 388 371 361 357 354 350 348 
587 583 582 584 580 579 583 587 587 589 588 591 586 586 585 585 586 585 583 582 586 588 585 584 579 584 576 565 579 584 590 590 592 595 590 587 585 587 582 578 568 567 564 568 566 565 563 559 550 552 543 541 526 522 518 524 520 515 512 506 496 486 470 458 449 443 440 442 441 442 449 453 443 433 418 400 377 369 347 352 
591 581 579 580 589 587 584 589 590 590 588 587 584 587 590 592 584 587 585 582 590 587 588 589 587 586 584 581 586 588 595 592 589 596 592 596 596 593 593 588 582 580 578 578 577 578 572 568 564 565 559 549 546 540 539 533 533 526 522 513 516 504 486 468 463 454 453 458 462 462 470 476 475 475 465 449 430 411 389 373 
590 580 578 581 590 584 588 588 588 589 589 585 583 587 589 591 583 590 590 590 590 586 594 586 588 591 589 590 586 593 594 595 595 592 597 594 603 597 599 594 590 586 582 585 583 579 584 578 570 572 567 565 562 557 553 546 546 539 537 526 521 512 500 486 470 469 463 475 471 476 477 487 484 503 494 493 471 459 429 421 
590 581 580 587 589 587 585 589 589 593 587 589 586 587 593 588 587 592 593 593 596 590 595 598 590 595 595 595 591 593 598 595 591 593 594 594 597 596 598 597 595 592 585 586 590 587 591 584 581 583 583 577 572 572 565 563 560 552 550 534 538 532 517 502 482 480 472 479 483 483 490 497 489 504 512 512 496 491 468 470 
592 579 582 586 589 585 586 590 587 589 587 587 585 589 588 595 590 595 597 596 607 600 603 604 598 599 596 595 600 591 596 599 596 593 592 598 596 599 602 600 594 597 591 592 589 588 592 587 581 588 583 580 578 578 571 568 571 566 560 551 553 543 535 520 501 488 485 491 491 488 499 505 497 508 507 513 507 502 494 492 
588 579 581 588 590 584 584 586 588 589 588 586 586 591 588 592 588 591 600 602 609 612 616 610 609 601 598 591 595 588 596 596 595 592 593 593 593 593 597 594 598 596 590 589 589 593 590 590 585 589 587 579 585 584 582 575 575 573 568 560 558 556 548 538 520 502 497 496 496 498 510 504 500 503 501 510 496 498 489 488 
587 577 581 586 588 581 581 584 589 587 589 586 587 587 592 590 586 594 606 610 624 621 626 628 626 615 600 593 589 590 593 596 597 591 588 595 593 592 590 599 594 589 590 593 595 591 594 588 582 588 591 586 586 587 581 578 580 573 575 571 573 566 562 555 541 529 508 507 505 506 515 518 506 507 507 503 496 493 479 476 
591 577 581 585 587 583 579 585 586 586 585 586 583 586 590 597 586 598 615 624 635 629 638 645 642 628 612 596 592 593 598 597 594 595 593 596 596 595 591 597 592 594 592 593 591 593 594 591 585 593 587 589 588 589 583 587 583 577 583 572 578 571 572 565 558 545 524 518 512 511 520 523 517 522 514 512 498 499 478 468 
585 577 579 581 580 580 582 582 583 583 584 583 583 585 585 592 594 609 625 630 643 636 639 649 648 641 616 603 596 593 592 595 593 590 590 593 594 597 593 596 592 594 591 593 590 590 594 590 590 598 597 593 595 588 585 584 586 582 586 576 585 579 577 575 563 563 546 535 523 520 533 535 527 537 524 522 504 499 479 476 
585 577 578 583 583 583 579 581 582 590 584 584 582 582 588 592 598 621 635 639 642 643 651 658 655 652 630 600 599 594 596 595 593 587 589 593 594 596 592 596 590 597 588 595 592 596 593 590 589 597 592 594 591 585 587 586 593 586 585 576 583 574 581 579 576 569 558 553 543 532 534 544 538 540 534 535 516 504 482 484 
586 577 577 579 579 578 584 577 582 585 587 584 583 584 588 598 613 632 641 642 647 650 657 662 660 659 642 607 597 597 594 592 593 588 591 593 593 596 595 599 594 595 594 595 593 595 598 591 594 600 597 593 593 592 586 590 588 580 583 576 585 585 576 576 576 570 569 563 551 547 551 552 541 549 545 548 534 516 506 491 
584 575 581 582 579 578 579 582 585 586 585 584 582 583 589 604 625 638 649 651 655 649 665 665 667 666 645 612 598 595 594 594 591 591 591 595 595 594 593 593 594 599 589 593 595 595 600 598 591 603 600 596 600 595 590 590 588 588 582 577 584 579 581 576 577 577 573 572 566 560 559 562 551 558 554 551 540 541 511 507 
581 574 574 581 579 575 574 575 582 583 583 581 582 581 591 611 631 641 648 649 655 653 663 669 665 668 651 607 595 590 594 593 592 591 588 594 593 596 593 595 590 594 589 590 592 601 602 596 594 600 602 596 595 598 592 593 589 585 584 577 582 579 576 576 577 575 573 570 564 563 562 562 555 560 555 552 546 543 538 522 
579 573 574 578 582 576 574 580 577 583 579 580 579 585 592 625 643 647 647 653 658 654 672 672 671 667 654 607 599 593 594 596 595 593 594 593 592 592 599 597 591 593 591 591 598 602 602 595 596 602 601 595 595 595 594 592 589 589 590 577 580 577 581 578 578 572 568 572 567 571 565 568 557 566 563 560 553 554 546 542 
579 574 572 574 575 572 573 578 582 578 578 579 580 580 592 636 646 648 649 646 655 654 658 670 675 678 658 611 591 591 596 594 593 591 589 590 588 594 595 594 594 593 587 596 595 603 602 599 596 595 597 590 593 598 597 594 587 587 585 577 579 575 581 576 576 568 569 567 564 562 563 570 556 562 558 558 548 553 547 550 
581 571 574 577 574 573 575 577 579 580 577 580 575 581 598 649 655 646 650 653 661 652 665 678 686 690 651 612 591 590 591 590 590 589 587 590 589 593 594 595 598 599 589 595 597 600 599 596 593 597 591 592 592 595 596 590 588 586 581 574 578 576 576 577 577 572 568 571 565 561 569 567 559 562 563 559 555 557 551 546 
580 570 573 575 578 577 576 575 574 578 576 580 578 584 600 658 655 648 653 652 658 654 665 685 695 695 659 606 597 590 593 591 590 586 587 590 593 594 593 595 594 594 589 592 595 598 602 600 592 597 599 592 592 592 594 588 586 583 586 579 580 582 581 578 573 571 570 568 566 560 566 566 557 562 557 562 557 556 548 547 
577 569 571 574 575 575 578 573 568 574 575 577 578 581 603 656 651 647 655 659 660 656 661 686 707 690 650 603 594 592 589 590 587 588 581 588 587 589 592 592 591 594 589 591 590 601 602 597 593 598 593 593 593 594 588 592 589 585 582 578 583 584 579 577 572 576 577 570 563 562 567 563 558 562 554 558 546 555 548 538 
578 568 576 572 573 576 574 575 570 566 571 578 577 584 607 654 648 646 664 662 655 653 659 690 706 685 632 600 593 590 590 591 588 594 589 588 586 586 584 591 587 594 590 591 599 601 603 596 593 594 596 593 590 593 591 588 588 584 583 579 577 577 576 570 570 573 575 569 567 561 565 562 552 560 554 553 546 555 545 555 
572 567 569 571 575 569 570 572 567 557 564 576 577 585 610 647 653 648 669 668 657 659 662 692 697 667 620 603 598 589 589 591 590 591 589 588 586 589 588 592 587 591 588 589 593 599 599 594 592 594 596 594 588 593 590 587 583 583 578 574 575 577 575 572 577 570 572 571 562 565 565 562 555 559 558 552 552 551 548 560 
570 567 564 571 575 571 569 572 559 564 569 573 576 583 606 649 651 650 668 664 654 653 660 692 688 650 609 602 593 584 590 591 587 588 584 587 588 592 593 590 587 587 585 589 590 594 597 595 590 591 593 592 589 590 589 585 584 582 580 574 575 575 575 570 574 570 567 568 559 561 562 558 554 556 555 555 554 552 544 551 
571 565 565 570 572 571 571 572 566 571 567 570 573 581 604 645 645 655 667 660 652 659 673 698 682 631 608 595 596 589 589 589 589 589 585 589 590 590 592 598 588 588 586 585 592 593 590 590 588 593 593 585 585 589 586 583 584 582 579 575 573 571 573 569 572 570 566 563 560 558 562 562 556 557 551 559 547 552 543 549 
570 564 566 569 570 573 571 575 574 571 574 576 573 578 604 637 646 671 671 661 665 672 691 697 670 619 603 595 592 585 586 588 588 589 584 588 591 592 595 594 588 589 586 590 593 594 589 593 589 593 589 587 588 590 586 584 586 582 583 578 575 570 569 567 568 569 564 563 562 560 562 560 555 557 556 560 548 549 540 549 
573 566 568 572 570 573 575 575 577 573 580 574 578 579 601 639 650 665 671 662 675 682 698 693 664 614 603 601 593 583 586 591 587 587 584 588 590 593 592 589 586 593 584 587 592 590 593 590 592 591 588 584 589 592 588 587 589 580 581 569 562 557 557 565 570 564 565 564 559 554 563 563 561 559 551 555 544 545 546 538 
574 571 569 571 574 574 570 569 579 578 577 578 576 580 595 635 644 666 664 666 688 692 704 700 646 611 601 602 591 589 589 584 590 586 585 587 590 588 593 590 585 592 589 590 592 592 593 595 594 597 589 586 584 586 582 582 584 581 579 559 557 549 554 562 568 565 562 565 558 558 558 565 554 556 551 552 548 549 546 548 
567 566 565 566 571 569 574 572 574 572 572 574 571 583 604 640 645 666 669 681 693 703 707 693 638 602 604 597 595 587 586 591 588 586 581 588 586 591 594 593 588 590 589 590 598 603 613 630 615 615 604 592 583 583 583 582 578 574 572 558 551 545 550 552 564 564 567 561 555 554 557 557 548 551 549 550 546 547 541 543 
570 570 567 571 573 569 568 569 575 578 580 575 570 585 617 648 650 667 678 691 698 703 704 689 627 600 597 599 589 585 586 585 588 585 583 586 587 594 595 591 587 597 594 605 624 640 650 653 642 636 620 607 587 581 579 577 580 576 569 556 548 544 553 550 564 562 561 563 557 553 562 556 550 555 553 551 543 547 543 542 
570 565 567 574 575 575 572 576 580 583 587 583 580 597 628 650 653 669 690 696 695 702 704 681 622 603 598 595 590 583 582 582 584 581 583 588 590 595 597 599 598 606 615 633 655 664 663 663 657 647 631 620 602 588 580 581 578 573 573 562 554 549 552 560 563 560 557 562 558 556 559 552 549 555 543 547 544 541 536 537 
573 565 567 570 574 576 577 582 586 593 593 590 593 606 628 655 647 665 684 694 698 690 693 670 606 591 595 592 590 585 584 581 584 584 585 588 590 592 597 599 606 624 636 657 663 669 667 665 653 652 636 625 608 590 577 580 578 574 570 561 559 560 557 553 561 559 556 561 555 552 552 554 547 546 538 534 541 541 537 538 
571 565 567 576 584 577 588 592 602 605 606 604 607 617 637 645 654 662 676 685 695 694 685 658 602 597 591 593 590 584 584 583 583 583 583 585 592 593 599 606 624 651 657 666 669 670 667 667 653 653 643 627 609 591 582 578 577 568 569 559 562 553 559 555 552 557 555 560 557 552 559 556 542 536 521 530 539 540 536 538 
570 570 570 581 586 589 590 605 613 613 616 615 611 622 636 648 645 654 675 677 682 678 669 639 596 587 588 586 588 582 581 579 580 578 579 584 593 595 606 623 647 671 669 667 674 667 677 665 648 649 641 624 613 594 581 578 572 564 561 546 553 550 553 552 558 555 547 555 551 549 553 548 538 530 521 520 531 538 537 538 
576 575 574 589 597 598 608 614 623 619 621 621 620 628 632 634 639 646 662 665 664 659 652 617 590 578 586 582 586 580 580 578 575 577 576 578 586 590 603 609 614 621 633 633 644 662 666 653 647 645 638 620 604 586 576 570 566 557 554 544 540 537 548 545 549 539 538 542 545 541 545 538 527 534 515 520 523 534 532 531 


