P2
80 60
159
40 44 49 46 44 43 41 40 35 38 43 44 44 45 51 52 54 54 54 53 54 55 48 54 55 54 59 60 60 58 63 62 64 64 63 64 63 64 63 67 63 63 66 67 67 67 62 65 65 65 66 67 65 67 65 62 65 64 63 62 59 57 57 53 52 48 51 48 45 39 43 45 37 33 34 32 35 27 18 0 
38 42 43 45 44 43 43 40 33 41 39 38 49 51 46 51 53 52 51 58 55 52 48 54 55 57 60 57 62 61 64 65 62 63 61 64 63 65 62 67 62 63 65 64 65 66 62 64 63 63 62 63 59 63 64 61 59 62 61 61 56 53 58 54 52 53 49 47 43 41 42 42 37 33 36 31 34 31 15 11 
39 44 44 43 47 44 42 40 41 43 45 39 47 46 47 51 51 52 55 59 55 58 54 55 57 58 62 58 60 60 63 66 64 61 63 63 63 64 63 67 67 65 64 63 64 64 61 64 61 63 56 48 45 50 60 62 58 58 61 55 53 52 46 52 46 50 47 46 44 37 42 43 37 35 39 34 33 34 23 16 
41 47 47 44 47 44 44 44 43 43 48 50 51 51 54 54 50 52 57 58 59 58 59 60 60 60 56 59 62 61 66 67 65 65 64 64 69 68 63 68 65 64 64 62 62 65 62 65 62 54 49 40 37 42 52 64 57 57 57 56 51 39 32 37 43 47 46 52 46 38 42 43 36 36 32 34 30 35 23 25 
46 52 52 50 47 45 46 47 47 48 49 51 51 53 52 56 54 55 56 56 61 56 53 58 60 66 63 61 64 60 63 64 69 67 67 67 66 69 68 64 63 64 67 66 68 67 65 65 64 57 51 37 38 40 52 58 54 60 58 58 48 35 25 28 30 40 46 47 44 44 39 39 34 34 33 35 34 36 19 22 
48 50 53 52 49 50 50 47 48 53 54 54 54 56 54 58 57 56 59 55 57 58 50 62 64 65 67 65 66 64 67 68 66 67 67 65 69 66 66 69 65 69 67 65 64 67 64 65 67 61 62 56 55 45 56 58 56 54 55 53 49 42 37 35 33 41 43 47 48 40 45 39 33 35 36 35 30 33 21 23 
48 51 53 52 53 47 53 47 47 50 52 52 57 60 58 61 59 55 55 54 58 58 59 61 66 65 68 64 66 66 68 69 69 70 69 69 69 68 67 67 63 67 68 68 69 69 67 65 66 63 66 67 58 63 59 55 49 53 49 46 46 37 35 36 34 45 51 50 45 42 45 40 36 36 36 29 29 33 20 23 
50 52 51 53 52 52 55 53 49 55 59 58 57 64 61 64 63 60 58 50 58 56 60 65 66 64 67 64 69 70 71 70 71 66 70 70 70 71 71 68 67 68 69 68 71 67 71 70 70 67 66 65 53 53 48 41 41 45 41 40 35 35 36 33 38 43 48 48 46 42 45 39 38 33 34 26 26 35 20 21 
53 55 55 55 53 54 55 51 52 54 58 61 61 58 60 64 60 63 61 61 62 58 59 68 66 64 75 71 70 72 73 74 69 71 70 72 71 76 72 72 72 73 72 73 69 72 68 70 72 69 71 57 49 38 37 37 28 35 34 33 26 34 25 35 38 48 46 54 51 45 44 42 39 39 38 34 36 36 24 28 
56 53 56 54 58 58 55 58 55 57 61 61 61 61 63 64 64 64 68 63 64 66 65 66 68 71 75 73 66 71 74 74 75 74 74 77 73 76 72 74 71 70 73 71 75 73 72 73 71 70 70 52 42 39 34 32 47 44 32 28 21 27 38 43 43 46 49 57 57 47 49 46 41 41 37 34 36 38 31 28 
56 58 61 58 59 57 56 59 59 61 64 63 65 64 66 63 66 66 66 64 66 65 65 68 71 74 74 72 70 74 78 78 77 76 73 75 75 78 76 76 73 75 74 75 76 77 72 78 76 71 73 65 49 32 32 34 44 50 46 32 21 20 21 35 43 48 52 53 57 47 52 48 42 45 45 40 41 40 27 31 
54 56 60 57 57 59 59 60 60 63 64 66 64 64 66 70 68 68 69 61 66 66 63 71 73 72 77 75 75 78 78 78 79 79 78 75 76 78 74 75 73 74 77 75 77 76 78 77 75 73 73 71 59 53 49 48 53 49 49 34 25 27 25 30 37 48 51 59 54 47 54 50 44 48 45 42 45 45 32 30 
57 62 61 61 60 62 61 61 62 62 64 67 66 64 65 67 69 68 69 71 72 74 67 73 72 76 80 74 73 76 78 78 77 79 77 77 76 75 77 74 73 74 76 79 78 77 77 77 73 74 73 70 65 60 59 57 56 53 46 32 30 32 26 33 37 44 48 57 54 48 55 51 46 50 47 46 45 44 34 35 
60 59 59 63 61 67 62 61 61 65 66 65 65 65 66 65 70 65 65 66 70 72 72 77 77 79 79 78 75 79 79 84 81 79 78 74 77 76 76 75 75 77 76 79 76 80 77 78 75 77 74 74 70 65 66 62 63 59 55 43 33 34 35 32 43 50 50 55 56 54 56 51 44 46 44 44 47 46 36 36 
62 66 62 65 67 65 63 67 66 65 63 66 64 66 61 58 61 61 70 73 71 73 71 79 73 78 79 80 78 81 82 80 79 79 78 78 78 79 81 78 76 78 80 78 77 78 78 81 78 77 78 74 75 74 74 68 66 65 63 53 42 34 40 36 47 51 55 53 58 51 56 57 51 54 46 45 46 50 39 39 
62 66 67 69 69 66 64 70 67 66 67 67 68 70 59 49 55 63 72 73 76 74 77 77 79 80 78 79 77 80 81 85 82 81 80 78 77 80 77 77 78 79 79 81 79 79 77 77 78 77 78 79 79 76 77 73 67 71 60 56 39 33 36 41 45 51 59 60 58 55 62 53 50 49 48 49 49 50 43 43 
61 67 66 71 68 69 64 69 66 69 70 72 69 74 67 63 59 59 67 74 81 80 77 81 81 82 80 80 78 80 83 83 79 79 80 79 82 80 78 79 80 80 81 82 81 83 78 81 78 81 76 75 81 80 76 75 72 70 65 61 46 42 46 42 59 61 63 64 60 58 64 56 51 54 53 48 49 51 42 48 
63 67 66 70 67 67 67 70 66 70 71 70 71 73 72 70 70 65 69 69 79 79 74 81 79 85 79 81 80 81 87 83 87 80 80 80 80 81 81 81 80 82 80 81 82 83 79 78 78 81 80 78 80 79 80 77 75 66 57 55 51 51 51 54 55 66 58 58 60 60 65 62 53 52 51 51 53 53 44 43 
67 69 67 66 69 68 67 70 71 73 72 72 70 72 73 75 73 74 76 76 77 78 82 81 78 83 80 80 83 82 83 82 81 81 81 81 80 81 79 79 81 78 81 81 83 81 83 80 77 80 80 77 80 79 78 75 74 70 62 56 50 54 53 58 68 68 62 63 62 61 64 60 56 53 54 53 52 56 44 44 
66 71 67 71 71 69 72 72 68 73 74 71 74 76 74 76 74 77 74 76 75 80 80 81 83 82 82 83 84 83 83 83 85 82 81 80 78 78 77 80 81 81 84 86 83 85 81 83 78 78 78 75 79 78 79 78 72 71 66 66 58 58 60 66 65 67 66 66 68 62 64 60 58 56 58 55 53 54 46 44 
70 73 70 71 70 71 70 71 74 73 75 73 71 76 78 76 75 77 76 78 80 78 81 79 83 81 82 79 82 83 85 84 83 81 82 81 79 81 81 81 84 84 81 83 85 86 85 85 80 82 79 80 78 77 80 76 73 74 70 70 63 67 63 66 69 70 70 67 72 67 63 62 58 59 59 55 51 57 49 45 
72 73 72 72 70 73 69 72 75 77 79 77 75 76 80 78 76 77 80 79 81 82 82 82 83 82 81 78 84 83 85 84 81 81 85 81 82 84 83 79 83 85 86 83 86 87 84 82 83 83 82 82 80 80 81 79 71 69 70 66 66 73 72 74 70 78 67 68 73 62 65 62 59 58 58 54 56 56 46 43 
68 73 74 74 73 74 75 75 73 78 77 79 79 77 77 79 77 81 79 83 81 80 80 79 82 83 83 82 82 81 79 77 82 84 83 84 82 83 84 81 82 86 84 85 86 87 82 84 82 83 84 86 86 85 83 75 65 59 63 64 68 72 78 73 70 70 70 69 69 62 65 64 61 60 59 57 57 58 52 44 
69 74 75 73 74 76 77 79 76 80 80 79 80 81 79 79 79 82 80 79 78 80 73 75 85 81 85 81 80 79 76 71 81 86 89 83 82 85 85 78 81 79 81 88 85 83 83 83 83 87 88 82 87 84 81 78 66 54 50 60 66 73 74 78 72 71 68 72 67 68 67 63 60 61 61 58 59 58 49 48 
70 74 71 72 74 76 73 77 78 78 80 79 81 80 80 80 80 81 81 78 83 80 78 81 82 83 82 81 82 79 73 71 74 84 89 87 84 90 83 80 83 84 83 85 82 82 80 85 85 85 86 85 88 83 82 76 64 51 49 56 62 69 77 76 74 71 70 72 70 67 68 63 61 63 62 60 62 61 53 47 
69 71 74 75 73 74 77 81 78 79 78 79 81 79 81 81 79 80 83 79 82 82 80 81 83 81 86 82 82 81 78 77 75 85 85 85 86 87 85 81 82 80 80 78 78 77 76 80 77 87 85 91 86 85 85 77 76 64 43 48 56 66 75 79 74 72 71 69 71 67 67 63 60 61 63 62 59 61 51 51 
72 75 78 75 76 76 77 74 79 77 81 79 81 80 82 80 78 82 81 81 83 81 79 81 85 85 83 83 82 84 84 78 78 84 87 85 88 86 83 80 80 83 81 78 75 76 77 75 77 83 86 82 82 85 85 81 78 71 60 48 57 65 78 79 76 74 68 72 72 69 68 65 64 61 64 63 62 62 53 55 
70 76 78 77 79 79 76 75 77 78 81 79 78 81 82 83 78 83 81 80 82 79 80 82 85 81 84 82 86 81 84 80 83 85 82 83 84 85 85 79 82 81 81 77 74 72 78 72 74 84 83 80 81 85 83 81 78 74 60 47 52 58 67 73 75 73 73 73 72 70 65 65 62 63 63 60 64 67 55 52 
72 76 78 73 75 76 74 78 78 81 78 79 80 81 81 81 79 79 82 83 82 83 82 81 84 83 87 84 84 85 87 83 83 84 84 84 85 86 82 79 80 83 81 84 82 78 74 77 78 86 84 84 85 82 86 79 77 75 70 60 63 58 71 73 76 73 71 69 70 66 64 64 60 63 67 63 63 62 45 50 
73 79 75 75 75 77 77 77 76 79 81 82 81 78 82 82 79 82 80 80 83 82 82 81 84 84 82 85 84 83 89 83 85 85 83 87 85 86 86 81 81 84 81 83 86 85 83 83 85 84 86 86 85 84 84 79 74 74 75 65 64 70 73 75 73 69 73 65 68 66 63 64 63 61 62 56 58 58 50 47 
74 78 76 73 76 77 78 80 80 78 83 81 77 79 84 82 82 82 80 80 81 82 83 83 83 84 80 84 87 83 87 86 85 86 84 85 89 87 84 85 85 84 85 88 85 88 85 84 84 85 86 86 82 81 80 71 66 70 73 67 69 74 79 76 73 75 74 69 69 66 61 64 61 58 59 57 57 60 49 50 
74 76 75 71 75 79 78 81 82 81 82 84 81 81 82 82 82 81 81 81 84 83 85 83 85 85 82 85 84 85 87 89 87 87 86 91 88 86 87 84 87 84 84 89 90 89 87 87 86 86 84 83 83 75 76 76 75 73 69 72 74 76 78 77 75 71 70 72 74 65 62 66 58 61 60 60 63 61 53 51 
73 77 75 74 78 78 76 78 79 82 83 84 81 80 82 81 81 82 84 81 83 85 85 84 84 84 84 85 88 85 87 87 87 86 88 88 91 88 87 88 85 90 86 88 87 90 88 88 86 86 88 81 81 76 76 75 71 76 71 75 77 79 76 75 71 72 70 72 68 66 63 66 62 63 60 58 59 58 51 56 
72 76 75 73 77 76 76 78 79 82 79 83 81 80 85 80 83 80 84 83 83 81 85 84 85 86 83 81 85 86 85 90 88 84 88 88 88 89 89 86 89 91 86 86 87 88 91 88 87 87 86 82 85 82 82 78 76 76 76 76 73 76 77 75 71 72 74 71 72 69 69 64 64 62 62 60 59 58 50 52 
72 75 74 70 73 74 75 77 77 79 85 84 78 79 82 81 83 83 85 80 82 84 87 85 84 85 85 81 87 85 85 87 87 85 87 88 88 87 87 88 89 87 87 92 88 88 86 90 86 89 84 84 85 85 83 82 79 76 80 82 78 78 73 73 73 72 73 68 69 69 66 60 63 60 62 61 58 57 52 52 
72 72 72 71 75 73 75 78 77 77 81 84 79 81 80 82 78 81 81 80 85 82 84 87 86 84 82 82 84 85 83 86 85 85 87 89 88 87 85 86 84 88 88 93 85 87 87 88 86 87 84 83 87 84 82 81 78 78 80 77 75 77 80 74 76 75 70 71 72 68 64 62 58 61 61 58 59 61 57 53 
69 73 71 72 74 76 76 77 76 76 75 81 79 78 80 79 80 82 81 82 84 84 84 83 85 81 81 82 84 81 86 84 83 84 86 86 88 90 84 87 89 87 87 90 85 87 85 88 87 88 88 86 85 86 83 83 79 79 79 77 77 77 79 75 76 73 71 73 68 68 63 66 59 61 63 60 60 58 50 46 
69 74 66 71 76 72 72 74 73 78 78 79 77 78 79 77 81 78 78 83 83 80 82 83 81 81 83 77 77 84 83 84 85 83 85 86 88 89 85 89 88 87 87 89 87 87 85 85 86 89 88 86 85 87 80 83 79 81 79 77 73 77 77 74 75 72 75 73 70 63 64 64 59 61 63 57 62 57 55 53 
68 74 69 72 75 71 72 72 71 75 75 74 75 79 78 81 79 82 80 80 79 81 81 80 79 79 78 76 79 85 83 87 84 84 85 86 87 88 88 91 92 88 85 88 89 88 86 87 88 86 84 87 85 87 83 81 79 79 81 77 74 77 73 74 71 72 70 66 64 62 62 62 59 57 58 58 60 57 51 50 
68 69 69 71 66 72 70 71 68 72 76 74 74 76 74 78 79 77 80 80 79 81 79 75 73 72 77 70 80 80 86 85 87 84 85 87 85 86 87 84 90 85 87 88 85 86 83 87 87 84 87 86 84 86 84 84 79 79 76 75 72 67 70 68 70 71 70 68 68 66 63 62 57 59 62 60 58 58 52 51 
66 72 67 68 72 69 67 67 70 72 74 75 74 73 76 77 76 80 79 80 79 79 79 75 69 66 71 68 79 80 83 82 85 86 85 85 80 85 83 85 83 85 84 85 85 87 84 84 85 81 86 84 86 85 81 82 78 77 68 70 68 67 72 72 66 69 68 67 63 67 63 59 57 57 55 55 56 52 50 54 
66 66 67 69 69 66 66 67 69 71 72 71 73 73 74 71 72 75 77 79 77 78 77 73 70 65 71 70 80 80 90 84 86 84 86 82 86 85 85 85 85 82 84 84 84 87 84 84 83 84 85 87 83 83 81 80 73 69 55 59 62 64 69 69 68 66 64 63 64 65 62 57 56 58 53 54 55 53 47 50 
66 65 68 69 66 64 66 67 67 70 70 70 73 73 73 72 76 73 78 79 78 77 75 78 78 77 79 83 87 92 91 84 90 86 83 83 79 83 83 82 82 84 86 84 86 83 84 84 81 81 81 80 83 83 79 79 72 70 59 53 59 59 63 65 66 63 66 67 66 62 60 57 52 53 54 54 57 54 45 47 
63 68 68 66 68 68 65 67 68 68 72 73 71 72 74 69 73 70 73 75 77 75 77 76 76 83 102 111 118 117 112 99 92 88 87 83 84 85 86 80 81 81 84 84 82 83 83 81 81 81 81 83 79 81 79 76 70 73 70 66 59 63 66 65 66 71 74 66 65 61 59 57 50 50 55 54 57 58 51 52 
57 67 63 62 64 65 65 64 65 67 68 67 71 72 67 58 69 64 76 73 74 75 78 74 76 86 112 121 126 123 123 113 100 93 87 86 87 85 87 81 82 84 85 81 80 83 79 83 78 81 79 80 80 77 74 70 67 72 62 62 68 62 71 66 68 66 63 64 64 58 59 57 53 50 53 55 54 57 50 47 
53 57 64 57 61 63 65 60 62 66 65 66 66 68 58 51 56 61 73 70 72 71 73 71 73 90 121 128 132 131 139 124 112 97 86 90 88 85 85 83 84 86 81 80 79 77 75 82 77 78 78 78 76 74 68 62 62 68 62 72 68 70 73 71 64 65 64 65 63 57 55 56 54 56 57 55 54 56 53 45 
56 54 60 57 57 60 60 62 64 63 65 66 64 68 64 57 59 57 70 72 68 70 71 73 74 85 116 138 140 141 144 132 130 106 90 91 86 86 85 80 83 79 77 70 70 77 72 81 79 77 81 76 77 75 73 68 65 68 60 68 66 70 74 67 61 61 63 63 59 57 59 55 55 56 59 56 54 54 50 48 
58 61 59 56 60 61 65 62 62 61 64 65 66 66 62 64 68 65 70 69 74 72 71 71 74 83 117 130 144 139 146 141 143 122 100 85 87 85 83 79 82 81 75 62 52 67 70 75 78 78 78 80 76 79 72 75 69 68 67 68 63 67 68 66 64 58 62 61 60 59 56 53 52 52 57 53 51 52 46 47 
57 63 57 61 60 60 65 58 62 62 68 61 61 64 65 67 68 67 70 68 74 72 71 74 73 84 105 128 141 137 145 142 144 131 103 87 84 81 76 79 80 79 77 73 66 63 68 76 78 74 81 84 74 72 74 70 72 69 69 69 67 66 67 66 62 58 61 62 63 57 52 52 50 50 55 50 53 52 53 44 
55 63 60 60 61 62 60 59 62 65 66 64 63 65 62 61 67 71 76 72 73 76 72 81 75 83 107 132 149 154 150 151 141 143 107 90 81 84 82 82 81 83 79 77 75 78 71 74 74 79 83 78 78 76 72 70 71 71 69 66 67 67 69 64 61 61 59 58 61 59 52 52 49 53 53 50 54 54 41 43 
57 59 58 58 60 63 58 60 64 65 65 65 65 64 67 64 66 68 69 70 70 72 71 76 74 81 94 122 147 149 154 152 153 146 113 94 82 80 77 79 82 81 81 77 76 80 76 77 73 74 74 75 73 75 70 72 71 68 72 72 68 65 68 63 62 61 61 59 59 56 56 53 51 50 54 46 47 49 41 41 
54 59 61 61 59 61 61 60 59 63 68 67 64 66 70 68 67 70 64 67 71 71 69 75 72 81 93 121 143 149 145 155 155 150 118 97 85 82 78 82 78 81 80 82 80 81 78 81 75 74 74 70 73 74 75 70 72 71 72 72 70 65 66 64 65 61 62 59 58 55 55 52 51 49 54 45 46 52 43 38 
55 63 61 58 60 61 59 61 61 62 64 67 64 68 68 67 71 70 70 72 67 70 69 71 72 80 94 121 145 144 141 143 152 142 113 97 86 82 79 82 81 82 84 85 82 82 79 81 75 74 76 74 72 72 69 69 70 69 72 68 67 66 67 62 64 62 62 57 61 59 57 51 50 51 53 45 45 52 46 40 
54 61 58 59 59 57 60 60 58 61 64 63 63 65 69 69 70 70 71 69 72 68 69 70 71 78 88 120 145 142 141 149 147 133 112 98 86 82 83 84 82 86 86 87 85 88 84 82 78 78 78 76 74 73 72 72 71 68 72 68 66 66 67 65 60 59 61 54 58 58 59 53 49 47 47 44 48 48 41 38 
53 61 57 57 58 58 58 60 58 59 62 63 65 64 66 68 67 68 70 73 68 72 68 74 70 79 85 106 133 143 146 146 142 140 106 94 88 86 84 81 83 86 88 84 86 84 82 85 82 85 83 78 76 75 70 74 72 70 71 66 68 65 65 64 62 56 57 53 53 54 55 53 51 47 49 49 47 48 39 38 
54 59 55 59 61 58 59 55 57 58 61 70 68 65 65 67 68 69 70 71 70 71 72 73 72 77 80 105 131 146 159 146 146 135 107 96 85 79 87 85 84 82 83 85 84 83 77 81 81 79 83 78 76 77 73 69 69 68 68 70 66 64 66 66 59 49 47 51 57 53 48 50 45 46 48 49 46 52 41 41 
55 59 61 60 59 59 55 59 60 61 62 65 65 67 65 67 69 70 68 70 70 72 71 74 74 75 81 107 133 144 156 146 144 129 103 90 88 87 83 84 85 81 82 82 80 79 79 76 78 80 82 82 77 76 71 70 74 69 70 67 67 65 64 61 60 58 52 52 49 53 51 50 48 47 44 44 52 50 38 40 
50 57 59 56 58 55 61 59 57 58 61 63 63 66 73 66 69 67 70 70 72 73 74 73 76 77 81 99 122 124 138 148 134 125 99 94 87 85 83 84 82 81 84 84 82 82 74 75 77 79 80 79 77 77 74 71 73 71 71 68 65 61 65 61 57 60 58 56 53 52 54 51 49 46 42 48 46 52 36 44 
53 61 61 57 61 55 61 61 62 61 61 66 65 63 67 66 68 69 66 72 72 73 75 78 77 77 78 101 111 119 126 127 121 112 97 95 87 89 84 82 81 83 81 82 81 81 78 77 77 74 80 77 79 77 75 79 73 70 74 67 67 65 62 61 61 61 61 58 57 58 58 52 50 47 42 50 46 45 40 35 
51 62 62 59 61 61 59 62 62 62 62 62 63 64 67 67 66 68 70 68 73 74 73 78 78 79 84 100 115 124 131 112 126 120 99 99 89 86 84 82 85 83 86 82 80 83 80 79 77 78 84 75 79 79 73 72 72 69 73 67 63 66 66 63 60 61 60 56 55 57 57 52 49 45 44 45 48 50 38 38 


