P2
80 60
2395
1381 1437 1514 1598 1686 1788 1916 2020 2103 2202 2250 2283 2279 2283 2285 2272 2254 2254 2212 2218 2222 2204 2199 2170 2133 2140 2160 2189 2189 2180 2178 2197 2238 2264 2288 2289 2292 2287 2273 2276 2276 2258 2242 2230 2227 2214 2217 2238 2270 2295 2302 2308 2327 2340 2315 2286 2263 2259 2256 2262 2252 2236 2263 2281 2305 2326 2342 2330 2296 2339 2351 2300 2175 2103 1978 1867 1758 1660 1570 1502 
1399 1467 1539 1643 1734 1850 1971 2082 2168 2231 2237 2254 2271 2283 2280 2274 2255 2251 2226 2208 2191 2185 2197 2164 2133 2133 2134 2130 2148 2159 2171 2208 2248 2271 2286 2295 2290 2283 2265 2274 2287 2275 2260 2246 2233 2234 2215 2216 2228 2242 2262 2261 2281 2321 2298 2276 2245 2233 2213 2226 2235 2244 2278 2291 2319 2343 2341 2332 2295 2336 2368 2353 2241 2150 2049 1922 1808 1706 1606 1522 
1432 1511 1591 1695 1800 1919 2047 2154 2218 2252 2264 2244 2264 2269 2259 2235 2215 2217 2180 2171 2179 2180 2219 2208 2134 2108 2110 2119 2141 2155 2172 2209 2249 2260 2274 2275 2278 2265 2253 2276 2285 2275 2261 2256 2251 2249 2251 2210 2196 2207 2231 2223 2225 2254 2247 2236 2221 2211 2202 2218 2240 2274 2305 2315 2315 2338 2334 2319 2288 2330 2376 2382 2309 2201 2104 1994 1870 1754 1657 1559 
1475 1553 1635 1744 1863 1975 2103 2193 2217 2242 2261 2251 2244 2254 2229 2199 2178 2167 2141 2148 2179 2201 2225 2215 2153 2110 2091 2115 2145 2152 2166 2196 2239 2248 2267 2264 2248 2234 2240 2261 2270 2267 2254 2245 2242 2243 2252 2220 2197 2208 2224 2209 2201 2197 2195 2192 2189 2207 2232 2263 2292 2311 2332 2341 2326 2313 2313 2288 2278 2326 2364 2395 2339 2260 2146 2046 1912 1806 1692 1601 
1507 1588 1676 1793 1917 2035 2142 2222 2225 2243 2235 2228 2232 2224 2208 2170 2154 2169 2148 2150 2183 2211 2222 2199 2139 2106 2093 2115 2141 2139 2147 2182 2213 2234 2243 2236 2214 2215 2221 2241 2235 2231 2217 2203 2206 2210 2211 2213 2179 2191 2254 2250 2204 2202 2209 2199 2202 2229 2265 2291 2308 2319 2337 2322 2311 2302 2296 2272 2280 2326 2366 2391 2371 2307 2187 2102 1962 1848 1730 1639 
1543 1630 1721 1838 1973 2081 2177 2241 2230 2236 2215 2209 2189 2188 2177 2171 2162 2170 2160 2149 2148 2165 2174 2152 2138 2111 2099 2122 2128 2105 2100 2135 2182 2209 2214 2199 2192 2207 2203 2192 2180 2179 2174 2169 2163 2173 2184 2183 2171 2177 2223 2236 2207 2217 2210 2205 2210 2238 2260 2280 2301 2312 2324 2325 2301 2284 2269 2256 2281 2327 2361 2385 2367 2338 2230 2132 2025 1889 1771 1667 
1577 1665 1769 1896 2019 2134 2220 2242 2218 2232 2210 2200 2182 2181 2174 2176 2177 2179 2152 2141 2120 2123 2144 2152 2142 2109 2134 2153 2131 2102 2096 2092 2125 2153 2165 2164 2193 2197 2190 2176 2160 2152 2152 2150 2166 2194 2213 2190 2172 2169 2186 2205 2208 2207 2212 2204 2226 2233 2241 2272 2287 2300 2311 2311 2290 2269 2263 2252 2289 2329 2364 2380 2364 2342 2270 2161 2066 1939 1818 1708 
1613 1714 1815 1952 2074 2183 2234 2236 2186 2209 2228 2199 2183 2180 2177 2168 2162 2150 2126 2129 2130 2134 2147 2163 2143 2111 2155 2180 2156 2139 2140 2119 2110 2120 2146 2157 2182 2199 2175 2183 2179 2166 2173 2190 2213 2237 2224 2185 2152 2154 2161 2192 2207 2209 2205 2210 2218 2224 2233 2270 2278 2281 2293 2280 2271 2257 2249 2248 2291 2327 2354 2374 2347 2350 2296 2199 2104 1988 1853 1736 
1644 1740 1853 1989 2111 2211 2250 2235 2179 2197 2209 2223 2198 2178 2170 2142 2125 2111 2105 2128 2168 2182 2183 2165 2143 2112 2158 2188 2158 2163 2168 2153 2132 2121 2131 2147 2185 2192 2189 2217 2194 2189 2185 2203 2234 2241 2224 2185 2156 2165 2196 2213 2199 2217 2204 2197 2214 2231 2244 2260 2264 2260 2262 2258 2258 2250 2240 2246 2280 2320 2338 2346 2331 2332 2285 2229 2129 2023 1889 1759 
1671 1766 1890 2028 2143 2227 2259 2243 2179 2184 2184 2190 2178 2160 2143 2104 2080 2084 2111 2138 2181 2187 2172 2160 2134 2113 2161 2180 2167 2173 2174 2180 2170 2137 2144 2143 2167 2173 2206 2220 2202 2185 2161 2163 2201 2222 2223 2211 2197 2200 2207 2203 2193 2192 2172 2182 2222 2240 2241 2249 2253 2254 2241 2237 2237 2245 2235 2232 2273 2299 2325 2323 2303 2298 2287 2249 2153 2065 1920 1784 
1696 1812 1930 2064 2186 2238 2268 2257 2204 2187 2169 2155 2150 2131 2129 2096 2072 2084 2118 2148 2157 2166 2159 2149 2133 2113 2164 2181 2196 2188 2189 2195 2187 2159 2174 2181 2151 2164 2197 2215 2217 2172 2148 2145 2172 2184 2214 2214 2185 2192 2200 2187 2177 2173 2165 2185 2209 2231 2227 2233 2241 2240 2230 2226 2233 2249 2243 2239 2259 2296 2311 2311 2272 2280 2291 2262 2178 2092 1962 1817 
1728 1837 1966 2091 2204 2244 2253 2257 2209 2185 2157 2136 2133 2138 2147 2131 2100 2105 2116 2128 2129 2129 2128 2124 2114 2119 2153 2195 2204 2196 2204 2196 2186 2164 2183 2191 2146 2131 2162 2202 2216 2183 2167 2170 2167 2168 2173 2202 2191 2168 2166 2149 2142 2147 2142 2159 2174 2192 2184 2189 2208 2214 2219 2230 2245 2255 2235 2251 2265 2292 2304 2294 2250 2256 2281 2275 2210 2119 1982 1839 
1753 1867 1989 2111 2210 2255 2260 2260 2219 2193 2157 2136 2145 2171 2178 2161 2128 2134 2123 2126 2124 2113 2116 2100 2110 2112 2155 2199 2199 2201 2204 2189 2176 2145 2174 2178 2139 2116 2136 2176 2198 2193 2165 2174 2188 2169 2150 2167 2185 2173 2160 2127 2123 2135 2138 2151 2158 2183 2165 2161 2163 2186 2222 2245 2252 2239 2238 2264 2282 2294 2300 2290 2257 2251 2271 2290 2242 2155 2015 1858 
1775 1891 2004 2132 2229 2270 2262 2247 2215 2192 2169 2168 2168 2190 2193 2172 2140 2142 2132 2130 2121 2116 2116 2102 2092 2105 2150 2204 2197 2198 2205 2191 2156 2128 2152 2166 2137 2125 2152 2179 2181 2167 2152 2159 2173 2188 2185 2157 2139 2151 2140 2124 2124 2144 2153 2183 2200 2205 2182 2169 2143 2173 2227 2253 2241 2231 2243 2270 2271 2292 2282 2282 2255 2234 2252 2278 2266 2178 2040 1883 
1790 1910 2032 2155 2257 2290 2273 2237 2210 2196 2190 2204 2198 2202 2196 2176 2141 2133 2115 2120 2119 2118 2109 2087 2084 2095 2159 2184 2189 2209 2199 2167 2131 2130 2171 2172 2149 2162 2189 2214 2229 2200 2163 2137 2128 2145 2146 2162 2128 2110 2134 2121 2137 2169 2197 2222 2209 2159 2133 2153 2138 2179 2231 2236 2221 2209 2232 2257 2256 2262 2262 2257 2229 2220 2239 2282 2282 2181 2057 1898 
1815 1931 2055 2192 2295 2328 2290 2247 2210 2203 2193 2218 2202 2198 2176 2148 2127 2143 2128 2136 2126 2118 2092 2053 2066 2107 2138 2166 2196 2209 2191 2140 2118 2140 2190 2193 2171 2196 2212 2255 2256 2236 2199 2140 2107 2097 2102 2116 2123 2122 2132 2135 2161 2197 2214 2227 2169 2130 2109 2129 2144 2189 2217 2206 2183 2193 2228 2232 2228 2237 2242 2243 2218 2223 2244 2293 2284 2208 2072 1913 
1827 1945 2069 2226 2316 2333 2304 2256 2219 2199 2187 2211 2183 2166 2146 2130 2130 2162 2169 2172 2175 2164 2143 2102 2057 2098 2120 2147 2194 2205 2173 2120 2116 2162 2205 2200 2182 2205 2215 2260 2277 2262 2215 2172 2110 2092 2091 2097 2129 2139 2132 2126 2147 2195 2221 2227 2165 2129 2124 2128 2145 2173 2172 2161 2167 2193 2221 2214 2214 2225 2243 2254 2233 2235 2255 2302 2295 2211 2085 1922 
1834 1960 2093 2248 2333 2340 2313 2253 2217 2193 2161 2164 2144 2138 2136 2129 2152 2176 2174 2185 2184 2179 2162 2126 2071 2073 2101 2128 2160 2192 2159 2116 2132 2184 2210 2195 2179 2202 2209 2254 2272 2260 2227 2182 2137 2098 2109 2130 2150 2156 2152 2140 2139 2182 2210 2226 2172 2132 2113 2134 2144 2157 2151 2157 2178 2206 2207 2203 2201 2225 2243 2248 2226 2235 2254 2297 2291 2215 2089 1921 
1845 1972 2097 2255 2332 2341 2300 2256 2219 2205 2159 2144 2121 2146 2142 2157 2162 2179 2179 2189 2184 2174 2147 2112 2074 2065 2082 2116 2149 2178 2143 2116 2153 2200 2215 2188 2161 2178 2194 2239 2265 2260 2240 2209 2157 2109 2097 2152 2201 2220 2211 2191 2167 2148 2181 2190 2197 2163 2146 2147 2152 2166 2181 2191 2191 2203 2205 2195 2195 2228 2255 2240 2210 2225 2242 2269 2270 2214 2086 1931 
1839 1972 2106 2252 2310 2309 2276 2236 2206 2199 2165 2145 2108 2129 2145 2151 2162 2180 2168 2182 2178 2158 2130 2100 2069 2065 2076 2107 2114 2133 2117 2118 2171 2211 2221 2178 2133 2150 2167 2202 2243 2260 2247 2213 2169 2122 2104 2129 2154 2198 2217 2189 2170 2163 2149 2188 2202 2175 2162 2158 2172 2164 2171 2157 2155 2171 2172 2180 2195 2225 2229 2218 2210 2248 2262 2276 2270 2213 2076 1921 
1840 1957 2091 2221 2286 2267 2241 2211 2185 2190 2168 2157 2112 2111 2141 2151 2157 2158 2151 2157 2145 2127 2105 2075 2067 2057 2059 2087 2092 2093 2093 2120 2188 2211 2199 2172 2136 2118 2145 2188 2220 2240 2247 2211 2181 2146 2093 2112 2111 2128 2162 2168 2142 2144 2159 2156 2183 2174 2158 2154 2147 2144 2156 2152 2151 2140 2156 2171 2172 2191 2193 2228 2245 2274 2288 2301 2270 2199 2060 1907 
1835 1959 2070 2181 2256 2271 2254 2219 2193 2204 2203 2177 2134 2115 2139 2156 2147 2172 2176 2169 2155 2133 2117 2089 2076 2067 2057 2069 2073 2081 2100 2137 2197 2208 2194 2181 2160 2128 2120 2175 2216 2233 2239 2226 2206 2172 2121 2115 2121 2111 2111 2118 2121 2137 2170 2186 2178 2169 2150 2141 2146 2147 2160 2160 2169 2170 2172 2176 2176 2204 2234 2262 2280 2304 2323 2326 2278 2195 2063 1906 
1830 1950 2060 2161 2251 2297 2293 2238 2196 2237 2229 2203 2144 2149 2184 2188 2193 2199 2194 2191 2172 2151 2126 2100 2068 2049 2040 2063 2061 2066 2093 2136 2179 2190 2186 2195 2186 2180 2143 2163 2210 2231 2240 2229 2207 2189 2153 2134 2135 2125 2113 2107 2095 2121 2153 2184 2208 2206 2188 2184 2180 2151 2160 2161 2173 2193 2206 2209 2210 2245 2257 2291 2298 2324 2332 2317 2285 2197 2053 1892 
1820 1936 2039 2161 2264 2307 2310 2264 2216 2243 2244 2231 2159 2180 2209 2213 2208 2214 2191 2185 2163 2138 2119 2091 2059 2039 2037 2054 2060 2045 2066 2115 2155 2155 2163 2185 2198 2204 2172 2150 2172 2210 2229 2221 2222 2200 2171 2152 2150 2138 2118 2113 2122 2135 2142 2166 2183 2202 2201 2195 2170 2150 2150 2158 2164 2173 2199 2217 2216 2243 2274 2292 2298 2330 2324 2314 2273 2173 2036 1876 
1809 1922 2034 2151 2258 2306 2312 2277 2228 2251 2255 2241 2185 2196 2217 2214 2205 2204 2181 2175 2159 2132 2110 2091 2052 2011 2027 2053 2045 2019 2047 2094 2121 2113 2140 2164 2190 2192 2191 2172 2136 2136 2166 2173 2173 2170 2173 2159 2162 2146 2137 2108 2099 2140 2157 2152 2153 2156 2156 2164 2148 2140 2155 2170 2176 2185 2186 2193 2194 2228 2256 2282 2285 2311 2315 2299 2244 2147 2009 1844 
1797 1910 2022 2132 2237 2300 2309 2274 2237 2259 2271 2262 2214 2184 2219 2221 2200 2199 2178 2169 2155 2133 2117 2082 2040 2011 2027 2064 2025 1991 2012 2051 2080 2087 2126 2152 2177 2180 2176 2182 2159 2123 2150 2167 2152 2132 2151 2140 2168 2172 2154 2131 2112 2112 2152 2181 2158 2134 2125 2141 2149 2161 2177 2184 2194 2215 2217 2198 2180 2212 2234 2251 2263 2288 2296 2276 2219 2112 1973 1809 
1783 1887 2004 2122 2229 2301 2318 2293 2253 2257 2277 2285 2236 2202 2214 2215 2201 2192 2182 2168 2162 2142 2118 2084 2041 2023 2061 2081 2043 2005 1993 2004 2036 2072 2116 2166 2182 2172 2158 2180 2180 2142 2159 2191 2179 2146 2142 2143 2155 2179 2180 2145 2141 2128 2119 2169 2177 2152 2122 2138 2164 2182 2203 2217 2219 2230 2242 2231 2200 2204 2214 2234 2248 2280 2283 2264 2200 2087 1936 1775 
1763 1876 1991 2112 2227 2312 2346 2324 2278 2270 2298 2294 2266 2224 2196 2204 2196 2186 2168 2166 2149 2136 2119 2081 2053 2053 2095 2111 2069 2037 2012 2001 2021 2065 2138 2178 2186 2167 2146 2154 2170 2154 2142 2198 2225 2198 2177 2185 2170 2163 2185 2166 2155 2162 2129 2126 2157 2143 2108 2119 2158 2191 2225 2246 2235 2249 2260 2253 2226 2217 2218 2221 2228 2266 2267 2252 2173 2059 1905 1742 
1755 1860 1978 2103 2226 2312 2346 2351 2319 2278 2294 2310 2277 2240 2198 2187 2180 2167 2149 2140 2131 2118 2108 2077 2050 2057 2107 2133 2071 2051 2049 2065 2058 2059 2121 2177 2182 2169 2138 2130 2151 2156 2127 2154 2198 2197 2189 2190 2186 2166 2171 2170 2148 2169 2150 2128 2117 2101 2070 2081 2130 2187 2229 2252 2248 2249 2264 2254 2238 2222 2227 2229 2216 2245 2252 2227 2146 2022 1863 1694 
1733 1838 1952 2076 2215 2312 2352 2356 2332 2307 2281 2310 2292 2263 2207 2181 2161 2150 2122 2113 2100 2084 2075 2049 2036 2050 2110 2127 2094 2068 2044 2072 2079 2069 2108 2156 2174 2173 2131 2125 2147 2159 2135 2108 2144 2177 2172 2179 2191 2162 2121 2131 2139 2166 2162 2146 2121 2088 2054 2060 2110 2173 2216 2238 2242 2241 2243 2232 2212 2227 2230 2237 2223 2230 2222 2211 2117 1985 1818 1656 
1718 1811 1926 2061 2187 2295 2349 2345 2334 2326 2270 2269 2276 2264 2207 2170 2166 2163 2134 2122 2103 2081 2050 2019 1999 2036 2091 2123 2109 2076 2014 2026 2085 2080 2092 2139 2158 2148 2121 2113 2136 2158 2146 2106 2100 2117 2141 2142 2151 2141 2119 2102 2119 2146 2151 2148 2136 2096 2046 2048 2098 2150 2182 2204 2212 2207 2201 2202 2205 2228 2239 2241 2224 2218 2213 2187 2085 1943 1766 1613 
1676 1780 1897 2029 2147 2273 2335 2337 2324 2334 2288 2252 2236 2230 2198 2159 2156 2167 2139 2129 2114 2089 2059 2009 1980 2000 2054 2088 2069 2021 1986 1990 2025 2048 2076 2105 2131 2127 2102 2103 2137 2152 2143 2126 2095 2077 2101 2121 2129 2135 2138 2125 2117 2106 2107 2122 2125 2092 2028 2028 2082 2121 2137 2157 2153 2163 2171 2185 2194 2223 2237 2245 2228 2221 2211 2166 2033 1895 1712 1568 
1649 1756 1861 1980 2108 2240 2325 2331 2314 2320 2297 2274 2243 2236 2215 2181 2165 2153 2136 2133 2120 2086 2051 2003 1966 1961 1980 2010 2005 1975 1972 1980 1981 2002 2042 2081 2102 2103 2085 2109 2137 2155 2156 2140 2112 2084 2114 2144 2143 2145 2159 2155 2139 2109 2077 2068 2060 2066 2039 2031 2057 2089 2117 2117 2122 2137 2152 2169 2182 2216 2234 2245 2223 2225 2209 2135 1995 1829 1664 1525 
1618 1720 1823 1938 2065 2188 2306 2316 2297 2314 2300 2292 2271 2278 2268 2225 2195 2164 2136 2125 2099 2080 2047 2003 1973 1969 1976 1986 1985 1971 1982 1979 1980 1975 2015 2048 2056 2070 2070 2101 2137 2147 2154 2144 2133 2108 2124 2138 2134 2143 2155 2143 2122 2109 2089 2074 2054 2070 2072 2081 2070 2079 2094 2098 2103 2118 2147 2169 2185 2217 2229 2238 2216 2219 2198 2095 1932 1762 1613 1482 
1581 1678 1777 1894 2008 2138 2258 2313 2296 2314 2318 2301 2295 2315 2302 2269 2235 2218 2186 2142 2125 2083 2048 2017 1999 1992 1995 2011 1999 1989 1986 1983 1976 1961 2007 2035 2020 2039 2049 2100 2131 2159 2166 2156 2147 2122 2117 2114 2107 2118 2125 2099 2093 2119 2103 2085 2065 2068 2096 2132 2119 2091 2085 2085 2085 2117 2152 2170 2182 2199 2205 2217 2204 2233 2179 2035 1870 1709 1562 1443 
1543 1636 1729 1850 1955 2080 2194 2293 2295 2312 2331 2316 2303 2333 2328 2300 2267 2251 2226 2190 2153 2099 2056 2024 2010 2009 2012 2039 2028 2005 1995 1978 1969 1961 1993 2021 1990 2011 2035 2083 2125 2151 2165 2161 2145 2109 2087 2072 2068 2078 2063 2042 2067 2101 2110 2098 2058 2055 2067 2122 2134 2125 2112 2099 2108 2144 2164 2179 2175 2175 2186 2207 2222 2233 2118 1962 1796 1639 1502 1389 
1509 1593 1685 1801 1900 2023 2146 2240 2286 2323 2340 2337 2299 2320 2346 2319 2294 2277 2232 2201 2148 2090 2060 2031 2029 2029 2057 2071 2052 2022 1997 1981 1961 1959 1989 1997 1987 2006 2028 2073 2117 2152 2167 2158 2117 2078 2068 2063 2071 2075 2074 2049 2032 2086 2096 2089 2063 2058 2044 2098 2122 2120 2092 2108 2141 2173 2195 2204 2191 2190 2199 2249 2258 2198 2050 1886 1723 1585 1450 1348 
1473 1559 1645 1749 1854 1966 2085 2184 2260 2324 2356 2358 2308 2306 2334 2325 2281 2264 2219 2171 2123 2104 2085 2074 2061 2060 2083 2090 2064 2034 2011 1971 1948 1944 1975 1998 1988 2012 2034 2065 2103 2135 2140 2114 2087 2088 2093 2096 2110 2092 2080 2056 2037 2044 2068 2077 2074 2084 2057 2069 2099 2118 2090 2116 2166 2201 2218 2219 2200 2220 2265 2305 2251 2125 1965 1802 1653 1533 1403 1312 
1441 1516 1610 1699 1795 1905 2017 2127 2200 2310 2372 2365 2317 2300 2305 2298 2255 2233 2185 2170 2156 2157 2152 2118 2088 2077 2103 2112 2072 2043 2012 1973 1943 1928 1971 1986 1991 1999 1997 2017 2051 2080 2083 2082 2091 2140 2152 2149 2128 2104 2089 2061 2059 2058 2059 2073 2083 2106 2093 2059 2087 2093 2103 2151 2184 2216 2228 2232 2211 2245 2298 2283 2166 2030 1877 1725 1588 1470 1356 1264 
1402 1473 1559 1656 1753 1843 1959 2074 2160 2270 2340 2350 2315 2319 2317 2307 2282 2266 2224 2221 2212 2204 2180 2150 2110 2103 2129 2123 2074 2045 2024 1979 1947 1934 1966 1965 1972 1986 1967 1977 1991 2024 2065 2086 2144 2162 2159 2148 2130 2111 2091 2063 2070 2089 2084 2084 2072 2086 2109 2081 2062 2071 2111 2170 2198 2223 2240 2241 2217 2248 2263 2201 2071 1944 1792 1651 1517 1412 1306 1224 
1353 1428 1509 1606 1693 1791 1895 1996 2096 2206 2281 2326 2316 2325 2344 2335 2322 2310 2277 2253 2241 2224 2188 2142 2124 2130 2159 2139 2082 2052 2030 1985 1952 1944 1959 1957 1990 2019 2023 2030 2020 2028 2083 2113 2147 2146 2145 2146 2135 2110 2098 2066 2062 2098 2104 2111 2097 2093 2069 2071 2058 2055 2118 2170 2205 2229 2253 2261 2234 2230 2205 2118 2000 1861 1705 1583 1470 1377 1265 1190 
1308 1382 1461 1549 1647 1740 1842 1932 2028 2144 2220 2305 2311 2320 2349 2349 2328 2319 2282 2266 2254 2227 2192 2147 2139 2164 2176 2138 2090 2068 2043 1989 1963 1955 1973 1992 2028 2052 2064 2077 2078 2072 2060 2077 2099 2117 2127 2136 2136 2122 2115 2076 2054 2082 2093 2117 2128 2125 2084 2065 2071 2074 2133 2183 2198 2235 2260 2278 2239 2205 2141 2044 1896 1772 1639 1533 1460 1369 1243 1165 
1262 1337 1407 1506 1584 1678 1780 1860 1957 2067 2157 2260 2311 2310 2326 2322 2319 2312 2279 2266 2254 2228 2181 2157 2159 2184 2181 2140 2100 2083 2046 1985 1958 1965 2003 2023 2057 2074 2086 2107 2126 2121 2082 2048 2032 2076 2105 2126 2134 2121 2118 2089 2061 2068 2080 2100 2110 2105 2095 2092 2104 2093 2142 2180 2204 2244 2277 2291 2229 2162 2064 1953 1804 1686 1569 1501 1416 1324 1232 1153 
1215 1289 1361 1447 1534 1614 1706 1790 1881 1989 2096 2186 2259 2299 2313 2308 2308 2294 2267 2258 2236 2201 2173 2157 2175 2199 2172 2138 2114 2083 2039 1988 1971 1977 2017 2045 2062 2090 2093 2122 2144 2152 2119 2066 2011 2017 2078 2117 2127 2121 2115 2096 2069 2091 2098 2108 2104 2097 2089 2102 2131 2119 2150 2174 2221 2259 2292 2265 2175 2088 1974 1848 1712 1616 1532 1461 1361 1277 1184 1112 
1157 1232 1303 1387 1468 1547 1643 1726 1807 1919 2009 2107 2182 2249 2299 2299 2299 2297 2272 2250 2222 2192 2168 2168 2179 2180 2156 2132 2119 2096 2052 2001 1984 2002 2037 2056 2055 2066 2092 2138 2161 2150 2113 2069 2017 1994 2048 2092 2108 2118 2113 2090 2093 2116 2109 2096 2099 2107 2085 2094 2123 2132 2155 2194 2241 2272 2265 2196 2093 1992 1881 1752 1637 1583 1499 1407 1297 1217 1133 1071 
1097 1183 1265 1329 1405 1489 1573 1661 1740 1841 1926 2026 2104 2187 2256 2295 2287 2303 2277 2253 2219 2190 2160 2166 2157 2151 2138 2143 2133 2112 2067 2032 2010 2021 2049 2060 2023 2008 2055 2118 2147 2143 2126 2071 2020 1987 2022 2067 2099 2090 2096 2098 2109 2123 2110 2097 2093 2094 2093 2098 2142 2159 2180 2215 2239 2258 2198 2098 1992 1884 1770 1658 1573 1528 1446 1350 1244 1165 1099 1037 
1052 1143 1219 1279 1346 1425 1505 1592 1664 1757 1834 1932 2011 2103 2190 2251 2285 2290 2270 2258 2224 2184 2170 2159 2144 2138 2137 2154 2139 2110 2082 2043 2029 2024 2064 2072 2024 1991 2002 2072 2125 2131 2112 2055 2006 1999 2011 2055 2078 2077 2097 2100 2108 2126 2124 2094 2079 2082 2085 2117 2158 2182 2214 2224 2226 2186 2096 2000 1880 1775 1667 1587 1497 1460 1390 1287 1195 1126 1061 995 
1009 1070 1152 1232 1292 1356 1439 1515 1588 1681 1758 1846 1920 2013 2103 2165 2232 2274 2270 2260 2221 2201 2186 2173 2153 2138 2138 2164 2146 2116 2091 2061 2050 2037 2058 2080 2068 2020 2011 2056 2091 2109 2092 2015 1986 2004 2018 2044 2054 2078 2104 2106 2109 2126 2137 2127 2097 2103 2122 2161 2180 2200 2222 2210 2144 2074 1994 1887 1762 1670 1596 1551 1476 1404 1323 1228 1149 1091 1021 966 
943 1022 1091 1159 1242 1293 1370 1446 1514 1609 1679 1758 1826 1916 1991 2064 2132 2205 2249 2268 2247 2214 2210 2197 2167 2152 2138 2158 2152 2132 2112 2092 2100 2086 2082 2079 2088 2079 2040 2083 2111 2091 2064 2015 1991 2002 2007 2025 2053 2092 2137 2128 2127 2148 2159 2158 2157 2167 2161 2179 2181 2197 2169 2107 2041 1970 1872 1771 1657 1587 1554 1501 1411 1338 1245 1175 1101 1048 986 925 
865 969 1046 1110 1178 1239 1302 1370 1440 1519 1599 1677 1742 1815 1897 1965 2041 2124 2175 2246 2278 2265 2245 2213 2185 2164 2155 2181 2180 2174 2167 2155 2150 2145 2139 2130 2097 2077 2044 2091 2139 2121 2049 2022 2002 2020 2017 2029 2080 2132 2173 2187 2176 2176 2169 2180 2188 2196 2181 2188 2171 2133 2076 2019 1941 1857 1762 1654 1568 1527 1490 1435 1344 1275 1196 1128 1055 1003 958 902 
770 894 983 1046 1107 1178 1234 1301 1358 1441 1507 1591 1656 1724 1799 1859 1923 2008 2077 2149 2220 2252 2252 2232 2199 2185 2187 2208 2216 2210 2219 2192 2181 2164 2147 2115 2075 2053 2054 2052 2083 2103 2052 2036 2065 2076 2085 2082 2099 2135 2173 2206 2222 2213 2196 2194 2193 2193 2178 2153 2103 2053 1997 1910 1812 1728 1652 1569 1486 1464 1442 1365 1281 1209 1144 1081 1009 969 917 852 
729 798 908 974 1052 1121 1174 1225 1279 1350 1421 1497 1559 1636 1705 1760 1821 1895 1963 2039 2105 2155 2213 2247 2230 2211 2209 2219 2229 2229 2228 2204 2183 2155 2126 2100 2072 2058 2063 2042 2081 2070 2056 2060 2115 2143 2156 2143 2115 2125 2157 2196 2240 2255 2238 2217 2192 2183 2121 2078 2025 1957 1876 1783 1703 1630 1560 1491 1421 1422 1376 1295 1211 1158 1101 1049 976 939 874 790 
680 732 795 921 991 1057 1116 1156 1205 1277 1339 1413 1474 1543 1606 1664 1716 1789 1846 1922 1981 2048 2130 2206 2241 2247 2240 2228 2222 2225 2224 2200 2165 2149 2135 2125 2124 2110 2075 2102 2108 2099 2104 2117 2150 2191 2195 2177 2151 2151 2156 2170 2209 2263 2260 2232 2193 2127 2050 1996 1918 1835 1757 1669 1601 1539 1482 1416 1371 1359 1304 1224 1152 1100 1046 1004 946 885 802 731 
601 695 732 810 894 987 1052 1109 1142 1203 1256 1326 1387 1449 1515 1570 1626 1701 1744 1801 1866 1932 2010 2075 2132 2177 2216 2242 2222 2212 2204 2189 2174 2172 2181 2180 2185 2175 2130 2141 2163 2128 2134 2154 2187 2203 2218 2206 2186 2167 2185 2163 2165 2182 2167 2137 2079 2023 1943 1880 1800 1717 1648 1582 1517 1471 1418 1371 1341 1304 1241 1175 1102 1052 1002 963 889 822 742 703 
441 617 698 732 780 894 969 1023 1086 1131 1183 1242 1299 1364 1422 1480 1526 1594 1638 1695 1746 1801 1866 1929 1987 2042 2090 2140 2151 2168 2182 2172 2164 2162 2177 2190 2204 2193 2155 2162 2200 2166 2139 2152 2185 2208 2212 2211 2208 2187 2167 2107 2070 2070 2045 2007 1948 1879 1801 1752 1681 1624 1563 1498 1450 1410 1388 1344 1276 1224 1167 1119 1061 1006 956 911 814 743 703 661 
171 471 619 699 727 779 878 951 1020 1073 1099 1163 1210 1270 1331 1384 1428 1495 1544 1597 1640 1702 1745 1799 1839 1893 1943 1997 2028 2050 2072 2075 2076 2101 2091 2118 2162 2173 2136 2162 2198 2190 2129 2119 2155 2165 2163 2157 2132 2100 2071 2021 1975 1958 1906 1861 1801 1753 1691 1637 1591 1545 1494 1440 1384 1357 1332 1269 1198 1162 1104 1051 1013 967 903 825 741 718 668 562 
46 189 478 624 690 721 770 859 934 1009 1049 1087 1123 1179 1239 1288 1339 1398 1448 1497 1548 1593 1649 1687 1721 1765 1809 1855 1879 1904 1943 1962 1987 2000 2006 2012 2047 2057 2056 2063 2105 2113 2065 2024 2026 2036 2030 2019 1993 1959 1934 1885 1842 1820 1780 1735 1690 1647 1587 1547 1506 1478 1441 1384 1333 1293 1244 1189 1128 1083 1040 997 951 902 813 752 712 682 573 270 
15 49 186 484 620 692 719 749 831 916 991 1038 1064 1105 1155 1202 1246 1305 1353 1398 1450 1497 1547 1581 1613 1647 1687 1724 1747 1775 1801 1814 1840 1870 1893 1906 1920 1936 1937 1949 1959 1955 1940 1914 1902 1900 1885 1861 1843 1811 1786 1747 1717 1699 1660 1626 1593 1547 1502 1467 1452 1409 1367 1304 1258 1208 1163 1119 1062 1026 980 947 889 806 751 726 676 574 280 90 
4 19 43 181 458 610 670 703 720 810 904 970 1007 1050 1085 1120 1161 1207 1253 1304 1346 1392 1432 1472 1506 1541 1579 1611 1640 1657 1681 1688 1718 1732 1755 1761 1778 1785 1789 1795 1795 1793 1782 1764 1752 1747 1734 1717 1698 1667 1652 1619 1600 1584 1547 1524 1495 1468 1436 1413 1367 1320 1271 1219 1179 1136 1099 1050 991 962 921 852 785 734 716 673 546 271 85 38 
0 9 21 52 153 437 606 673 694 720 796 863 927 993 1033 1062 1082 1138 1175 1209 1254 1305 1338 1376 1413 1440 1485 1523 1524 1565 1580 1579 1623 1620 1647 1650 1652 1660 1660 1664 1663 1664 1651 1629 1623 1615 1604 1596 1586 1543 1546 1506 1486 1488 1450 1439 1415 1399 1339 1329 1269 1241 1189 1156 1112 1071 1041 996 947 913 846 782 747 722 677 534 244 96 40 37 


