P2
80 60
479
2 1 0 6 4 7 12 7 10 6 3 4 6 3 7 13 12 14 16 10 10 12 14 12 13 19 20 22 25 26 19 22 21 29 26 30 28 30 29 31 25 25 27 30 28 26 24 20 21 17 20 26 23 21 21 20 23 21 23 22 21 16 11 11 10 7 8 8 15 13 24 23 60 90 133 182 245 282 333 384 
1 0 2 8 6 5 8 8 3 7 4 7 12 10 10 15 18 20 17 18 15 16 18 15 15 16 19 20 21 26 23 22 26 32 26 27 29 29 31 27 22 23 28 25 26 23 28 21 23 17 17 26 30 25 25 19 17 21 22 20 22 16 12 19 14 6 11 7 12 15 27 46 82 122 179 225 277 330 360 401 
1 2 4 10 4 2 7 8 5 7 12 9 11 12 13 19 18 26 33 30 29 29 20 18 20 23 22 21 24 24 26 30 27 27 29 30 30 28 33 26 28 24 26 23 26 23 27 20 20 23 22 24 30 27 28 28 23 26 21 20 21 16 14 19 20 12 11 9 21 27 49 85 134 186 227 275 319 359 390 417 
3 2 2 5 3 5 10 9 9 4 11 11 14 14 13 17 26 31 41 56 60 51 39 29 21 22 20 23 25 25 26 28 28 31 27 25 34 30 32 30 24 28 32 25 25 28 27 22 22 20 25 26 29 28 29 26 25 23 20 19 17 15 16 13 19 12 12 13 23 36 72 118 179 229 283 325 358 378 397 425 
2 2 5 12 7 4 9 10 12 12 10 10 18 12 12 20 27 39 60 70 86 80 65 41 30 26 28 26 26 25 23 25 29 28 28 30 27 30 33 24 25 27 30 28 28 24 29 24 21 20 21 27 30 26 25 24 22 28 20 18 13 16 14 19 22 8 13 11 22 33 74 126 186 248 312 353 381 391 408 420 
3 6 4 14 11 10 18 12 14 14 16 13 15 14 16 23 38 57 76 90 99 109 102 88 49 38 36 32 35 29 25 32 31 31 29 27 30 31 32 31 30 29 28 26 30 30 24 22 22 25 29 28 36 25 27 28 31 26 25 20 21 18 14 20 21 13 16 16 24 38 69 114 192 258 326 368 391 399 408 423 
4 6 6 8 13 6 17 13 14 16 13 13 15 17 28 34 51 70 87 98 114 118 121 119 109 91 83 67 58 40 31 31 33 35 32 31 32 29 33 32 27 29 33 30 34 27 29 27 24 26 32 34 37 37 34 30 29 31 27 26 26 20 15 24 23 14 18 23 24 32 54 97 170 243 319 370 392 399 405 412 
7 8 7 13 18 10 19 11 15 23 18 22 19 28 31 38 57 67 89 104 117 129 133 132 124 122 114 109 106 83 48 37 34 32 34 34 38 35 38 33 32 30 36 32 36 33 30 24 30 31 32 36 39 38 33 30 30 36 31 25 24 21 22 26 24 17 21 23 27 33 48 75 141 214 290 355 383 389 393 400 
12 6 8 20 17 12 22 16 22 23 19 26 23 24 32 40 53 74 93 107 122 126 137 141 142 129 123 125 134 128 104 62 39 39 37 37 38 35 41 33 31 32 31 32 29 31 30 30 26 27 33 38 40 35 35 34 33 32 30 34 28 30 23 28 25 24 19 23 26 28 42 62 105 169 261 322 362 369 366 369 
17 11 10 22 17 17 24 22 22 23 22 23 25 27 26 40 49 69 91 106 124 132 137 149 147 143 134 129 131 130 134 125 85 62 46 43 41 41 41 35 36 35 33 33 36 30 32 34 34 34 35 39 45 44 46 39 38 37 36 34 29 28 26 28 26 27 21 27 29 31 38 45 76 121 197 269 321 322 300 295 
17 11 17 25 18 17 27 25 22 27 19 29 26 26 26 35 43 58 80 93 115 128 140 147 153 150 151 139 138 133 131 137 139 127 84 69 57 54 55 44 35 33 35 36 36 36 39 32 33 39 41 48 56 62 68 68 63 57 47 42 35 32 30 29 29 29 23 28 32 27 38 40 56 69 115 161 218 230 213 202 
24 15 12 26 24 19 25 25 28 32 30 30 33 25 31 27 34 48 57 73 95 114 133 139 140 142 155 153 155 145 135 131 133 131 131 119 99 77 63 49 42 37 43 39 38 35 37 31 33 36 40 49 71 84 110 127 132 126 98 73 51 40 31 34 34 28 32 30 36 38 44 37 41 44 50 61 85 110 119 112 
17 16 15 23 23 26 35 42 50 62 72 71 54 35 30 34 31 41 51 67 80 98 114 123 129 134 143 149 160 160 151 149 140 146 141 135 122 107 94 72 51 45 44 43 44 42 45 39 38 38 45 53 82 100 138 171 194 202 188 151 105 68 46 42 46 41 53 55 58 62 61 45 52 44 40 40 40 34 42 34 
25 18 19 32 34 42 64 82 103 120 137 151 137 99 55 41 40 40 42 47 64 78 95 114 120 128 135 145 157 166 170 165 155 153 147 140 137 132 124 101 73 59 51 46 48 41 46 43 45 44 50 59 82 110 159 191 229 251 261 245 208 164 115 85 77 83 104 116 124 123 117 100 85 61 52 46 31 24 25 27 
19 20 13 37 49 75 101 106 117 119 114 117 117 109 86 53 42 39 51 45 54 62 82 99 110 126 134 146 155 160 174 173 173 174 161 154 148 144 143 126 107 89 80 58 53 47 45 46 49 44 56 62 84 118 166 216 245 286 294 294 287 267 238 204 171 157 168 182 199 202 192 163 135 98 71 41 37 24 23 24 
19 18 23 51 68 74 86 95 96 94 85 78 77 75 66 54 44 41 43 41 50 56 63 78 93 109 124 137 156 165 165 179 179 182 177 171 161 156 152 143 137 128 112 90 75 62 57 49 51 47 55 63 89 124 169 215 266 302 313 312 309 309 300 287 279 263 248 242 252 268 270 234 198 145 97 55 38 22 29 31 
29 26 36 60 76 63 81 70 64 62 51 50 39 40 47 53 44 43 44 46 47 55 59 63 75 92 109 125 143 153 170 171 182 189 186 183 178 170 167 151 138 133 137 122 110 88 68 60 53 46 58 70 103 139 181 223 265 305 319 331 327 319 315 311 306 303 301 291 292 300 300 283 258 210 144 85 44 35 29 34 
26 33 46 74 79 79 75 62 49 49 38 33 36 31 37 42 44 43 38 41 47 55 57 60 63 75 84 104 127 138 157 168 182 185 190 193 195 189 183 168 156 154 148 136 132 113 100 79 65 57 71 83 115 148 195 233 263 307 319 327 323 328 328 324 321 317 318 310 311 313 316 302 288 254 207 132 72 34 28 41 
30 40 51 80 87 83 78 59 49 38 33 34 34 29 39 37 41 40 42 44 40 45 48 53 50 64 68 85 105 125 140 156 167 184 190 197 193 196 194 186 172 164 167 154 145 138 131 110 92 75 80 79 106 135 182 222 261 296 310 321 327 330 333 336 332 337 330 329 328 322 326 319 310 282 246 177 112 56 35 41 
29 38 50 79 79 80 72 53 35 37 31 32 42 35 34 41 38 42 46 41 44 47 43 47 46 49 55 62 83 96 114 133 143 167 177 185 199 197 200 192 183 178 175 164 166 154 149 140 126 105 93 87 86 97 124 176 225 271 285 304 316 322 334 341 340 338 345 341 338 334 335 330 318 297 270 211 146 86 58 50 
32 44 53 78 72 80 66 52 39 41 38 36 38 33 35 41 40 44 39 46 45 43 42 41 47 46 50 51 70 77 95 116 131 149 160 175 189 191 202 202 203 197 190 183 176 162 165 155 149 136 129 106 101 93 101 126 163 219 261 287 296 313 314 327 336 344 345 351 356 347 353 342 335 318 292 238 176 117 83 70 
40 39 52 69 74 68 64 51 47 45 38 35 34 35 40 41 39 44 44 40 46 46 38 45 43 45 42 45 54 64 71 92 110 137 140 160 170 182 199 195 202 204 208 199 194 180 169 159 155 145 125 127 118 107 100 109 134 170 221 262 287 301 303 308 314 332 339 343 353 358 360 355 347 332 307 257 203 145 100 94 
37 34 39 55 58 65 53 50 51 66 61 43 42 34 38 39 34 45 45 42 44 42 42 34 44 45 45 47 56 57 64 69 82 102 125 138 151 165 182 188 191 205 206 203 201 195 184 169 157 143 138 132 125 113 112 109 121 146 187 234 271 293 297 305 308 307 315 337 350 356 360 357 354 336 321 285 243 180 128 109 
29 30 34 41 55 53 54 48 43 55 52 51 44 34 34 39 36 44 39 42 43 44 42 47 44 40 42 42 50 52 56 63 65 82 96 113 133 146 162 172 178 190 201 207 206 196 193 179 160 152 153 138 129 122 119 114 116 131 157 200 251 284 300 306 307 313 310 317 340 349 363 353 352 337 329 309 283 243 200 163 
29 34 38 51 57 52 49 49 46 50 47 43 45 34 38 39 39 42 43 35 38 42 41 40 41 44 48 39 47 49 51 56 55 67 78 92 109 132 146 154 163 178 196 201 207 203 200 189 177 161 148 143 140 130 126 114 106 118 134 168 209 258 284 301 310 303 305 312 324 329 345 346 349 344 329 311 298 281 260 239 
26 31 33 55 56 71 66 54 52 48 45 40 39 35 34 39 39 44 45 39 39 39 38 43 42 46 44 46 54 46 44 45 50 54 66 79 94 115 130 140 154 162 176 180 196 199 202 190 180 168 162 152 149 138 133 120 104 102 108 132 174 229 266 295 300 311 307 308 314 320 329 336 333 327 328 310 296 283 271 256 
26 26 36 48 57 71 80 71 70 69 52 44 46 37 38 39 39 45 44 40 41 40 43 38 41 42 43 42 48 46 45 43 45 51 54 61 80 92 109 119 136 147 160 170 177 181 189 187 183 175 166 162 157 147 131 105 91 87 82 95 129 177 228 274 292 299 303 305 313 317 324 325 328 319 314 307 293 282 270 266 
26 30 30 45 47 68 72 81 70 66 70 53 49 46 41 40 38 41 40 37 43 42 38 40 43 41 39 44 48 48 44 45 43 50 46 54 67 76 90 104 121 133 141 145 158 155 170 173 176 174 165 159 150 133 121 103 86 75 65 69 87 124 171 227 268 283 296 300 309 310 316 320 311 313 305 298 278 275 267 260 
32 32 36 39 40 44 64 76 76 90 79 77 71 61 53 48 43 43 41 38 42 43 38 41 44 43 46 44 50 49 43 49 50 55 53 52 56 65 79 87 95 112 120 132 145 147 147 164 164 161 168 158 147 127 110 85 73 66 55 51 61 81 108 156 208 248 271 286 296 300 303 297 299 291 284 270 273 270 267 264 
41 40 39 50 46 43 48 61 73 93 90 85 73 68 59 63 47 48 44 42 42 46 46 43 47 48 48 47 44 46 49 46 49 53 50 56 56 57 68 66 77 89 107 118 129 137 138 142 149 149 155 146 138 117 98 77 57 52 45 46 46 56 67 89 126 172 217 249 272 274 276 263 253 241 246 238 252 254 267 277 
69 62 57 58 50 50 49 47 54 65 62 68 65 58 59 55 50 49 42 41 42 44 44 45 42 45 45 44 48 45 49 47 46 53 50 51 56 57 61 56 65 70 84 103 109 116 129 123 127 128 134 128 117 99 85 65 54 45 38 37 38 45 49 60 81 107 144 185 214 231 233 212 189 176 184 200 236 257 283 317 
134 115 106 101 83 78 70 63 59 58 56 56 49 54 49 50 47 49 43 47 44 46 44 44 45 44 45 42 46 47 46 48 47 54 55 54 53 51 60 52 54 59 69 75 96 104 108 110 116 115 114 104 91 82 68 56 46 43 37 39 40 39 44 52 67 85 107 142 178 199 205 187 161 148 155 187 235 283 318 356 
193 172 162 152 137 127 118 107 88 83 70 60 51 48 44 47 46 53 45 44 44 46 45 45 48 48 47 44 48 46 44 45 47 50 53 50 49 48 57 50 48 53 57 61 74 83 95 98 101 100 94 86 78 66 57 47 45 40 34 39 42 46 43 53 62 81 107 146 190 211 243 238 204 189 200 222 267 315 352 391 
232 219 214 206 190 182 167 156 144 137 114 100 82 69 65 57 53 53 49 47 48 46 47 49 45 45 46 46 52 50 44 52 48 49 51 52 48 47 50 43 45 52 54 54 66 67 76 83 89 81 84 72 68 55 51 39 39 36 32 39 44 42 43 50 56 71 101 150 210 263 312 334 333 315 301 306 331 370 399 421 
247 242 235 235 226 220 213 203 193 187 168 149 137 119 104 92 82 78 68 60 50 49 48 49 45 48 49 45 48 48 48 46 46 49 48 45 49 43 49 42 45 45 49 48 56 55 57 63 74 68 65 64 59 50 39 38 38 36 41 42 42 43 41 50 51 70 89 136 205 274 337 371 393 401 402 393 403 416 427 445 
249 248 239 249 242 239 243 240 230 232 214 198 187 171 157 143 129 119 105 90 71 58 49 48 47 49 51 49 48 51 45 48 48 47 47 47 46 50 49 43 40 39 48 46 51 49 48 52 50 53 55 55 50 43 44 40 38 40 37 38 34 45 43 49 53 60 87 134 204 272 339 387 417 426 435 432 439 445 449 456 
256 249 248 257 255 253 253 251 250 252 243 235 233 213 210 198 185 170 150 131 102 81 55 54 51 50 49 49 50 50 48 45 47 52 45 44 45 47 50 43 42 42 45 46 49 50 49 53 51 47 46 45 45 43 42 39 39 39 39 34 33 39 43 47 53 60 91 139 205 279 349 402 427 440 448 449 457 452 457 473 
259 253 254 265 263 262 259 263 255 262 261 255 250 242 240 234 221 218 194 168 130 99 78 73 73 73 71 68 62 51 52 50 45 44 44 49 54 50 51 48 44 46 45 44 44 46 48 52 46 48 51 45 43 42 41 38 37 41 30 28 28 37 35 44 46 58 89 148 216 281 357 409 434 447 458 455 461 457 463 469 
266 265 264 273 270 268 269 266 261 269 266 263 263 256 261 255 252 247 225 196 163 137 103 110 117 125 125 128 117 105 84 76 66 65 52 57 49 50 53 51 49 52 53 51 51 47 51 49 49 44 41 47 46 42 40 41 40 36 33 36 32 31 28 38 48 54 89 141 214 288 359 410 435 449 464 461 470 466 468 474 
271 270 273 277 269 272 272 272 267 273 270 272 266 272 270 272 264 257 247 220 200 172 151 144 153 174 181 182 180 161 145 126 111 95 75 66 55 51 62 54 55 60 66 60 55 55 53 52 51 46 43 46 50 43 42 41 38 34 33 35 31 30 33 36 38 51 80 131 207 278 353 398 428 442 453 458 463 463 463 479 
273 271 271 279 279 274 277 278 278 283 277 278 286 274 283 282 282 278 261 251 241 218 204 199 196 212 223 227 227 212 202 189 170 156 132 106 89 82 82 84 90 95 94 93 89 80 74 68 62 52 54 48 50 42 44 38 35 36 35 39 33 30 30 36 42 46 54 84 147 223 293 352 394 421 441 447 457 460 466 476 
278 273 274 288 278 280 280 286 282 287 286 281 286 284 290 287 285 287 273 260 254 243 234 233 235 242 242 246 250 240 242 235 222 215 198 176 161 149 144 136 139 141 145 144 143 133 125 107 100 86 72 68 61 48 47 40 36 36 35 33 30 34 27 30 31 29 29 33 51 81 131 206 271 335 393 423 443 449 452 463 
280 281 279 284 284 286 291 290 285 293 291 292 300 295 302 300 294 292 289 276 270 260 258 257 255 262 258 254 266 256 254 252 248 248 235 230 224 212 212 199 198 197 192 195 194 181 178 165 158 143 131 121 109 91 74 59 50 42 39 36 35 36 29 30 32 29 27 28 33 35 59 84 131 208 296 376 421 437 443 462 
287 285 288 292 294 293 294 291 299 298 298 304 301 303 302 305 304 299 295 283 276 274 273 271 271 267 267 267 269 268 260 262 261 262 257 252 248 247 248 241 235 234 232 233 233 220 220 206 205 189 187 179 172 151 140 119 105 99 87 78 65 57 40 47 36 34 25 27 32 30 44 51 71 114 197 292 380 423 435 448 
291 289 291 298 297 299 305 300 300 303 305 310 310 313 310 313 310 307 300 295 291 283 281 276 281 276 277 275 278 273 273 274 271 268 269 267 265 266 268 259 253 254 260 257 258 249 246 242 237 234 230 219 216 203 192 185 171 164 154 145 137 117 101 85 72 58 55 39 40 37 43 43 51 68 111 200 299 383 419 445 
292 291 297 298 294 302 307 309 305 313 310 314 313 313 319 316 313 310 306 297 294 289 287 279 282 283 285 277 285 279 279 282 281 285 278 280 277 278 279 276 266 268 269 266 271 267 265 263 257 251 249 247 241 233 227 221 217 215 206 200 189 184 171 163 148 134 118 91 92 74 69 60 61 63 81 116 199 298 375 431 
295 294 296 303 299 306 307 309 314 317 310 321 316 318 314 314 309 309 304 296 290 289 285 288 286 285 281 287 287 288 283 285 286 289 288 287 285 287 284 280 279 282 284 283 278 272 275 272 268 263 264 259 263 253 250 242 237 244 238 237 231 225 213 210 203 197 189 175 170 159 145 128 121 103 93 82 107 179 271 368 
295 292 297 303 297 306 309 313 316 318 318 319 322 312 312 311 307 304 300 294 293 291 292 293 290 289 283 290 293 289 284 289 289 290 288 288 289 293 292 288 282 288 292 288 285 286 285 279 276 274 276 274 270 264 264 256 254 259 256 255 251 247 243 246 243 234 230 229 220 213 207 192 168 176 159 120 98 97 153 251 
293 297 301 302 305 310 317 314 315 323 323 321 319 320 311 311 307 307 308 294 298 294 295 292 290 291 296 295 299 300 293 295 297 302 295 300 301 294 301 295 295 295 300 296 294 296 293 285 286 281 286 279 281 272 273 266 268 268 266 265 265 260 259 263 260 258 259 250 252 247 252 243 244 232 217 175 139 104 121 179 
294 297 300 308 307 311 319 319 323 328 321 314 312 309 310 310 308 310 303 296 300 297 296 300 293 297 298 299 298 304 301 305 303 306 306 304 302 300 306 306 300 302 304 302 303 298 299 294 291 291 294 284 291 289 282 278 281 276 279 282 276 276 274 276 275 279 273 274 277 274 279 277 276 266 263 227 195 153 141 179 
294 298 301 314 311 320 320 321 322 328 325 316 314 309 312 313 312 308 305 304 303 304 300 297 297 297 303 302 311 307 304 309 309 315 312 313 314 310 309 312 309 308 313 307 305 307 303 301 301 294 294 295 298 293 289 283 285 285 284 287 283 284 279 287 292 289 289 288 298 297 300 298 298 298 295 275 247 217 197 212 
299 300 309 316 311 321 321 321 331 332 326 320 312 306 304 309 307 308 307 306 304 305 306 300 303 302 304 308 313 308 313 318 314 319 315 315 317 313 317 316 310 317 320 311 314 314 309 304 304 299 300 297 302 303 297 294 302 302 298 295 288 291 288 294 298 298 305 302 309 308 314 311 312 313 310 293 284 257 244 245 
302 307 312 320 322 322 331 332 328 329 325 319 317 310 306 308 308 310 313 312 312 311 308 307 306 310 312 311 315 318 320 319 322 323 321 321 320 321 322 321 318 318 324 312 316 316 317 308 307 304 308 302 306 303 307 303 300 304 303 297 300 301 299 300 305 309 308 311 318 320 323 320 325 318 318 319 308 291 275 280 
307 311 313 324 322 331 334 326 326 325 318 316 310 305 309 309 311 311 311 312 309 309 307 311 310 313 317 319 318 318 325 325 320 327 324 327 324 324 326 325 320 323 328 316 320 315 319 314 313 309 311 310 313 309 309 306 305 309 306 306 305 305 305 309 319 311 313 313 319 315 320 324 320 319 322 325 313 303 302 295 
310 316 317 327 322 329 332 325 326 326 318 310 309 308 307 311 316 314 315 313 312 310 308 309 307 315 311 316 322 320 322 325 322 327 325 327 331 326 329 323 325 324 329 321 318 322 319 316 315 311 316 318 321 314 318 311 313 312 312 312 312 312 308 311 314 315 322 318 324 322 328 321 328 324 325 322 323 313 308 306 
320 319 315 329 327 328 335 327 324 325 321 318 311 304 314 312 314 316 320 315 312 310 310 313 316 319 315 321 327 329 324 328 326 328 327 326 327 329 330 328 327 328 330 328 323 321 325 319 323 319 324 325 329 324 326 323 326 325 324 320 318 315 308 317 318 320 319 325 325 323 328 330 333 326 330 329 325 326 317 323 
324 318 324 335 331 333 334 330 327 327 322 318 314 311 310 315 317 318 319 316 312 314 314 314 314 316 315 323 329 330 326 331 331 333 331 334 333 329 332 331 328 330 332 325 328 328 330 327 326 325 327 332 336 332 327 328 333 332 330 328 328 322 321 318 325 320 323 324 324 328 331 332 331 331 335 331 332 324 324 331 
323 320 324 334 333 331 335 325 322 324 319 320 310 308 318 315 317 321 316 316 316 318 317 319 314 323 319 322 336 327 328 330 327 338 334 334 333 332 337 332 327 330 333 333 330 328 330 332 327 331 334 334 336 337 338 335 336 337 333 332 331 324 320 324 321 324 322 324 327 327 335 333 339 339 336 338 332 327 326 334 
326 330 330 339 332 332 333 327 322 325 316 317 313 311 311 313 316 318 317 316 315 317 317 317 317 318 322 317 331 330 329 330 331 332 330 330 335 333 335 338 337 335 335 332 336 329 334 335 338 334 341 339 340 341 340 334 336 339 335 336 334 333 325 325 324 320 326 327 326 332 339 339 337 341 341 336 337 332 329 339 
322 328 329 328 325 321 324 318 312 316 318 314 310 315 311 311 318 314 324 315 316 315 318 313 314 314 317 313 328 322 322 330 328 330 332 333 342 339 344 342 342 345 349 341 342 341 343 339 345 346 348 348 353 350 349 343 342 344 334 337 337 335 330 331 332 336 329 330 325 328 337 336 341 342 341 339 338 338 335 346 


