P2
80 60
626
15 14 20 23 20 26 29 21 27 28 24 21 20 24 20 15 11 21 12 14 14 16 17 14 20 18 20 16 27 27 27 34 33 37 34 40 38 44 41 46 44 46 50 62 68 87 104 123 152 172 208 237 267 306 333 358 375 397 416 428 432 444 457 463 470 477 488 491 496 507 521 519 516 511 500 497 491 490 487 479 
14 19 24 22 28 30 30 27 22 24 26 22 18 23 17 16 18 17 11 18 15 15 19 14 14 20 23 15 24 24 29 34 36 34 39 42 43 46 44 51 52 55 64 71 77 96 112 131 157 182 216 243 274 314 339 363 386 404 421 431 439 452 462 468 474 483 488 494 498 508 521 523 518 515 507 498 491 491 483 487 
16 9 17 17 22 24 25 22 25 26 20 20 19 25 21 19 17 18 14 20 14 20 18 15 21 22 20 18 24 24 25 37 43 40 46 50 53 60 60 73 70 75 78 85 96 112 132 147 171 191 223 249 279 316 342 362 390 405 424 435 445 453 465 472 479 484 493 498 499 509 522 522 515 515 505 505 496 490 491 485 
9 11 17 18 15 20 19 16 24 20 22 22 21 23 22 19 14 18 15 20 18 22 18 18 21 23 26 35 35 38 38 47 55 62 62 68 77 87 89 97 98 109 111 120 129 139 158 172 193 211 238 268 294 327 353 375 394 414 432 443 453 463 471 479 481 487 497 494 504 511 527 523 520 522 509 509 502 494 495 487 
4 3 10 14 10 20 22 13 22 18 15 11 16 20 22 15 13 13 9 16 24 26 23 23 34 35 40 46 53 60 58 72 77 87 89 99 109 117 122 128 135 145 151 156 164 176 192 206 225 234 261 287 310 340 363 386 406 419 433 444 456 461 471 477 486 499 502 499 505 516 529 524 519 518 513 507 501 497 492 491 
3 0 8 12 13 18 19 11 17 17 18 14 13 18 19 19 19 22 21 26 29 38 44 50 54 64 68 77 90 93 94 112 115 127 130 141 145 159 158 171 182 191 196 204 210 226 234 248 260 277 303 314 341 359 378 396 420 433 444 456 462 468 479 483 491 500 504 506 506 517 524 527 525 520 509 517 505 505 500 489 
9 4 10 14 12 18 16 11 17 18 22 17 24 32 32 40 42 46 49 60 67 70 79 87 96 99 114 124 130 139 146 157 167 174 184 194 200 209 214 224 230 245 249 256 268 280 293 300 319 331 348 364 384 401 411 432 444 452 458 472 479 483 490 496 498 505 513 515 522 522 531 529 525 517 511 515 507 505 506 505 
11 9 15 22 17 19 21 20 30 31 34 39 45 55 60 71 72 82 88 101 111 118 129 134 144 150 167 177 190 195 204 225 224 237 244 255 263 271 280 290 293 306 313 324 334 345 354 370 384 392 406 425 440 465 474 488 499 506 514 515 512 514 513 514 515 522 523 518 522 522 527 528 525 522 516 513 501 511 505 503 
15 10 21 32 31 34 41 41 49 55 65 70 81 101 104 115 124 137 146 158 166 176 191 202 211 220 231 243 255 265 275 283 296 301 311 317 325 340 344 354 359 377 376 386 395 407 424 433 448 455 476 486 499 519 529 538 544 550 551 558 550 546 546 540 537 533 535 529 529 528 532 526 523 523 513 512 503 502 506 502 
30 34 40 54 58 67 77 82 97 104 119 129 136 162 172 181 196 207 214 227 241 250 263 270 285 294 304 312 321 329 339 352 361 369 376 386 392 397 407 410 416 419 431 439 443 454 462 472 481 480 507 513 528 539 546 550 563 566 562 562 562 561 561 548 544 544 537 534 528 525 530 523 520 519 512 512 502 502 501 498 
62 72 86 96 108 125 141 147 165 180 191 203 217 238 252 259 270 286 291 306 315 323 339 345 357 361 372 382 390 401 403 416 418 423 428 434 437 440 436 444 446 452 453 456 454 463 475 485 492 498 512 517 529 550 557 555 564 566 563 567 557 555 554 550 539 542 540 534 527 527 528 524 519 517 512 511 509 505 503 504 
119 138 156 173 185 201 216 232 247 263 275 289 301 319 330 338 350 358 365 375 387 387 402 411 417 417 430 436 440 437 444 453 451 456 455 455 457 457 452 459 459 459 458 461 461 463 471 476 485 487 507 507 525 543 544 549 561 561 558 556 557 547 544 541 538 535 530 527 524 520 523 521 512 512 503 508 504 504 506 502 
208 222 244 261 273 293 305 311 326 341 354 358 367 386 390 403 405 411 417 425 433 435 445 451 449 454 458 461 467 469 462 475 464 464 462 459 463 464 455 464 456 456 470 454 451 460 453 460 464 468 483 490 505 522 528 538 538 547 550 553 550 544 541 537 535 530 528 524 520 518 521 517 512 514 508 509 503 501 508 502 
297 312 324 342 350 361 376 382 389 396 410 413 419 429 437 440 446 448 451 458 462 462 464 464 470 468 468 472 474 470 467 466 461 463 461 455 474 449 443 445 439 442 441 441 438 439 441 440 445 448 454 461 481 497 508 511 522 533 532 538 535 539 537 529 526 529 522 523 518 516 521 512 519 511 504 505 501 502 495 500 
364 370 388 401 403 408 422 426 431 443 445 450 445 461 465 470 467 471 474 473 480 478 480 478 475 473 468 467 466 464 465 458 453 448 443 442 441 445 433 433 428 430 430 424 428 424 427 427 431 430 437 441 447 464 473 483 496 504 513 518 523 527 531 528 527 525 526 524 523 523 520 515 518 518 505 501 503 506 497 497 
412 419 432 440 441 451 455 454 457 465 468 471 469 480 486 487 485 482 481 485 480 476 477 468 463 468 460 453 452 448 445 445 438 438 431 434 427 426 423 424 415 417 412 417 415 414 418 416 419 420 426 424 431 440 441 452 458 473 480 493 496 504 510 509 512 511 517 517 516 519 527 519 518 520 508 511 508 511 510 501 
451 451 457 466 466 471 480 476 476 489 483 485 482 489 491 489 482 483 477 474 474 468 461 457 450 444 445 442 438 433 427 429 416 419 414 413 408 408 400 402 403 405 402 404 400 406 411 413 415 411 421 419 426 431 435 435 442 444 475 460 468 477 474 483 490 498 500 511 515 519 522 517 517 511 509 512 512 512 509 507 
465 473 480 483 487 490 487 489 480 490 486 484 483 486 479 474 469 467 457 458 452 447 440 435 432 430 421 419 414 410 408 409 401 400 391 386 384 380 375 380 379 385 387 389 392 401 409 408 414 416 417 414 423 431 435 443 443 444 449 457 461 463 473 479 483 491 497 503 503 512 517 511 507 513 511 516 516 512 508 505 
488 486 491 492 488 486 492 487 485 483 481 474 468 470 465 456 448 439 438 440 433 428 421 418 413 405 397 394 397 392 386 385 380 384 378 372 371 371 366 362 364 366 368 372 378 388 396 403 410 415 430 434 440 441 444 444 451 460 468 471 481 477 481 486 493 498 508 506 507 510 514 512 509 513 513 515 518 515 509 504 
489 486 489 490 485 488 490 484 478 474 466 460 451 450 442 436 425 425 417 408 407 404 399 395 389 381 381 374 372 371 370 372 369 366 371 367 372 366 363 365 363 360 360 359 368 374 389 397 411 419 437 445 456 463 462 468 472 476 480 492 495 500 501 502 506 511 510 509 504 504 508 509 510 515 515 518 517 513 508 504 
492 486 491 484 479 483 478 465 464 451 443 430 426 423 414 413 404 391 381 379 378 371 367 366 358 358 357 359 356 357 360 361 365 360 362 365 366 369 370 377 374 375 376 368 368 378 383 392 401 416 433 443 460 475 485 490 489 493 500 503 509 509 514 504 507 511 512 507 509 503 510 507 508 513 520 514 518 513 511 502 
483 476 481 475 469 464 455 447 435 426 420 410 396 394 382 379 365 358 353 347 347 345 343 341 342 340 348 352 353 353 354 358 355 364 363 369 371 374 378 383 387 391 390 390 392 393 402 395 407 420 435 444 457 467 482 492 501 505 508 512 512 509 512 508 506 511 512 510 507 507 515 510 506 517 516 516 515 511 510 503 
476 465 468 453 442 435 425 416 405 398 384 372 355 355 347 344 336 332 329 327 330 332 324 328 327 332 339 342 350 350 356 358 375 369 369 374 380 388 387 393 401 409 412 416 423 424 433 433 434 434 441 445 454 472 475 485 489 498 495 503 508 510 504 508 503 510 512 511 515 515 511 509 507 516 511 517 513 509 505 505 
449 438 434 424 414 405 389 384 373 362 354 344 333 326 318 316 313 312 311 318 322 326 328 330 342 342 346 354 355 359 369 373 377 383 385 392 400 402 410 418 422 429 436 440 443 455 461 462 468 472 479 482 487 491 485 492 496 500 498 504 506 506 503 507 505 514 514 512 512 512 511 507 509 514 515 518 518 509 508 504 
418 395 391 382 369 360 345 333 328 319 315 306 304 309 308 311 315 312 315 321 327 329 336 342 345 361 354 360 367 372 380 384 390 398 403 408 420 425 423 438 445 448 455 456 465 474 485 483 488 491 497 488 495 501 497 502 507 508 507 511 510 508 508 504 503 511 515 515 512 510 513 513 513 517 512 518 514 516 510 501 
379 361 353 343 321 316 313 305 304 299 292 290 292 299 299 307 311 315 320 330 337 344 345 356 355 361 367 377 384 390 391 399 403 414 418 429 433 444 445 452 460 461 470 471 480 482 486 487 491 493 498 498 503 504 507 509 511 510 512 513 519 513 515 505 508 513 513 512 504 506 512 512 514 518 516 512 515 510 503 505 
327 314 309 303 292 287 292 289 293 292 298 300 302 315 318 324 332 343 369 351 358 361 361 366 373 379 385 397 405 412 412 426 426 434 439 439 446 456 460 467 472 477 478 479 479 484 489 491 495 500 503 496 502 511 510 510 512 513 513 513 517 514 515 512 510 513 516 511 507 509 518 510 514 519 523 521 512 511 508 507 
284 269 278 272 271 281 279 280 294 296 301 311 316 332 336 343 350 360 364 371 376 385 390 392 395 404 408 417 423 427 432 438 441 447 452 455 461 470 471 479 473 477 477 482 482 489 492 488 494 492 500 501 509 513 509 509 509 513 510 514 510 513 513 512 512 518 510 509 507 507 509 510 513 518 520 519 517 512 502 506 
257 254 267 272 269 278 288 296 308 314 327 347 341 353 359 362 371 374 380 389 394 401 402 405 417 420 431 435 440 441 444 453 456 461 465 468 467 468 469 478 480 482 483 486 489 492 493 494 497 496 501 501 504 512 509 503 510 510 501 507 508 513 511 514 511 512 508 513 511 504 510 510 508 518 517 523 517 509 506 505 
256 266 279 285 295 305 317 322 332 342 346 359 361 372 381 381 392 394 400 403 413 415 420 422 429 429 436 443 446 451 457 466 463 464 464 469 478 475 480 482 481 491 489 489 485 492 498 493 500 497 501 496 509 509 513 511 506 510 506 505 509 508 511 510 507 513 514 508 507 507 509 513 513 514 517 519 514 512 509 503 
283 287 305 312 356 334 346 351 363 373 381 385 389 398 404 407 408 414 416 421 422 425 430 438 439 443 446 457 455 456 458 466 468 466 474 478 485 492 487 487 487 492 492 491 490 499 499 497 501 500 504 508 504 511 509 512 509 514 520 514 519 515 515 509 511 510 510 512 514 510 513 509 511 520 516 521 517 512 506 508 
367 322 332 345 347 359 374 381 391 406 403 410 410 418 426 416 425 423 421 423 427 431 434 436 450 450 450 455 454 453 461 473 470 473 479 484 497 490 483 493 491 497 494 495 494 499 499 497 498 501 505 501 508 508 504 508 513 516 512 515 516 512 512 507 511 510 514 518 514 512 514 510 512 516 514 522 511 513 514 507 
345 352 365 376 383 396 403 407 416 416 429 426 422 430 431 428 427 426 423 429 430 430 433 434 431 438 446 456 458 459 462 466 469 477 480 498 486 490 488 493 495 499 500 497 495 497 497 498 503 502 504 502 508 515 512 512 513 516 514 512 513 513 505 508 509 509 513 514 514 510 513 510 506 511 512 522 512 515 513 502 
383 393 402 414 418 420 427 434 432 433 429 425 425 427 430 423 428 427 423 425 417 423 429 427 431 433 443 446 459 463 469 476 475 488 484 486 490 493 493 499 503 503 500 502 500 505 500 497 503 499 506 506 514 513 517 511 507 516 511 516 516 513 508 509 510 514 514 513 515 507 511 513 507 510 511 514 510 508 510 506 
419 421 434 441 437 440 444 444 440 434 432 427 418 424 420 420 413 411 411 414 415 415 421 421 430 430 440 446 451 459 461 473 478 485 492 490 497 501 500 505 502 506 503 506 505 504 498 499 501 501 508 501 505 512 510 508 511 515 512 515 515 509 508 507 506 511 513 513 509 505 517 509 507 511 506 510 510 507 511 507 
441 444 448 447 446 451 447 442 436 433 433 424 414 411 410 406 402 394 392 402 398 403 408 410 422 425 431 441 452 452 475 472 473 481 484 490 498 501 501 506 503 508 507 504 502 503 508 504 505 504 502 502 503 511 513 513 510 511 507 511 514 512 508 505 503 504 512 509 511 507 513 504 510 513 508 513 509 506 508 504 
455 446 453 455 448 450 444 430 425 416 411 401 398 404 398 396 392 390 386 390 395 394 396 408 411 421 431 442 443 452 458 472 471 480 483 490 491 495 494 499 501 500 503 502 505 508 510 503 504 504 508 506 509 511 510 503 502 505 505 509 511 503 503 503 502 506 511 510 508 504 510 510 507 509 507 511 513 510 506 499 
461 452 454 453 440 438 430 417 408 400 399 393 388 382 385 382 380 382 386 387 394 397 404 405 418 426 434 450 451 458 462 474 476 483 489 490 491 492 489 494 496 494 499 503 505 508 508 502 502 504 504 504 500 504 506 503 502 505 504 507 507 497 502 504 504 505 510 506 510 500 505 507 508 508 507 507 507 509 507 499 
456 446 441 433 421 422 416 402 395 386 388 376 371 369 371 374 376 378 386 390 398 402 409 423 424 434 445 452 461 464 475 481 478 487 490 487 487 490 490 496 495 494 494 504 498 508 504 505 502 499 505 498 501 505 504 501 502 505 504 506 504 501 502 503 503 506 509 511 504 501 504 505 505 509 506 508 509 506 510 501 
432 429 420 411 403 404 396 382 373 379 369 366 361 374 366 372 374 382 391 400 411 419 424 433 435 448 456 460 470 476 480 488 486 486 485 489 489 494 486 490 490 495 496 498 498 497 500 495 497 495 499 491 498 501 503 500 501 502 501 503 505 495 499 501 502 504 506 508 504 506 502 509 507 514 510 509 511 509 506 500 
421 407 404 394 391 382 375 368 365 361 359 362 359 371 380 376 388 391 404 412 423 429 441 446 457 461 470 473 478 479 484 488 494 491 494 492 492 492 488 493 493 496 498 497 497 494 494 493 489 486 490 490 495 501 499 494 498 503 499 501 501 497 497 499 497 506 510 502 504 504 507 511 511 514 508 508 511 510 503 499 
397 383 384 379 371 363 362 355 359 360 361 367 363 376 386 396 406 409 422 428 442 449 449 459 468 468 473 478 478 477 479 488 487 494 494 499 493 496 494 496 503 498 493 495 492 488 490 488 491 488 488 491 496 491 498 493 499 499 496 503 500 493 496 497 496 504 507 505 501 505 506 509 507 512 505 510 510 507 504 503 
384 371 368 365 352 357 359 353 365 359 368 373 383 394 407 408 423 427 441 447 457 458 464 472 476 472 481 480 477 482 486 488 482 488 491 495 498 501 496 504 502 498 494 490 489 492 490 486 489 484 491 490 489 490 494 494 502 497 495 499 498 497 496 498 498 500 504 501 503 498 508 505 504 510 510 511 506 505 510 503 
366 356 361 360 358 358 360 361 365 369 383 391 394 411 420 430 443 448 451 463 466 470 470 469 474 480 481 490 488 485 486 489 486 488 490 497 495 507 492 495 490 493 488 487 485 487 489 489 488 484 490 490 485 492 490 491 496 498 499 500 502 496 500 500 498 499 500 501 498 499 508 505 507 507 504 507 510 505 505 504 
354 355 357 359 359 369 375 373 384 394 407 415 422 436 444 449 459 462 465 470 468 468 478 482 486 485 488 487 491 488 488 493 491 497 497 505 493 497 487 491 489 489 490 488 486 487 491 487 492 491 489 485 490 490 490 492 496 497 498 504 501 504 500 496 494 495 497 498 497 497 501 506 505 514 505 511 510 503 505 500 
359 361 359 366 372 379 391 397 405 415 429 434 446 452 465 464 472 472 474 478 483 485 484 480 487 480 490 486 491 485 490 497 499 499 497 495 490 497 486 485 485 487 490 485 486 487 491 486 489 484 487 488 490 493 491 492 500 501 502 506 506 509 507 503 496 496 496 496 497 497 501 505 505 509 509 513 511 505 504 501 
368 369 378 386 396 403 417 423 428 440 447 454 462 467 475 477 477 482 485 484 492 484 486 484 484 479 481 489 489 494 508 496 489 496 493 492 493 491 486 490 488 492 483 487 487 491 489 487 492 489 498 491 496 497 503 497 499 501 504 507 513 511 512 512 507 497 496 495 493 497 497 501 502 504 507 510 508 505 501 498 
381 385 405 414 418 431 445 447 453 462 469 473 471 482 489 496 493 496 497 493 499 494 488 490 488 483 487 490 511 487 491 494 489 491 495 490 494 499 492 490 497 489 490 487 487 490 499 491 497 496 499 496 505 508 504 503 509 512 505 508 516 518 512 515 506 512 504 500 498 496 499 501 497 505 503 508 503 505 501 506 
407 415 425 435 437 455 463 464 475 475 479 480 484 503 499 499 500 499 499 499 498 497 494 487 491 487 509 491 494 492 497 496 495 496 495 501 504 498 492 499 498 500 495 490 495 502 505 499 507 503 506 502 509 515 512 511 513 515 512 514 521 517 515 512 510 511 510 505 495 495 504 503 505 507 500 507 505 501 498 500 
435 435 454 455 462 472 483 480 491 491 498 503 500 511 509 508 507 505 503 503 505 501 501 500 507 507 499 502 508 506 511 514 509 511 512 509 511 505 507 510 511 515 507 507 511 510 516 513 516 511 519 513 520 522 519 518 518 521 521 525 521 516 520 517 515 518 520 508 509 505 505 501 502 502 501 502 505 501 504 491 
448 454 468 475 475 483 497 498 503 516 519 522 518 524 525 518 525 521 521 517 522 521 516 517 516 517 520 519 529 520 529 531 528 529 526 526 531 524 527 529 523 529 531 526 526 522 526 523 526 530 530 525 526 534 528 527 528 528 525 527 526 520 523 522 518 520 521 523 514 512 512 506 505 509 508 507 510 509 506 507 
469 472 485 493 499 507 521 516 523 533 537 539 539 547 549 548 548 550 547 547 548 546 549 546 552 551 554 559 560 554 562 562 558 551 554 553 556 559 549 552 554 552 553 546 546 547 543 540 546 541 546 539 543 545 539 535 528 534 533 534 533 528 524 529 521 523 521 518 516 515 516 515 518 519 514 516 515 507 511 507 
489 494 508 512 513 523 534 535 542 549 557 559 564 570 577 580 582 585 580 586 583 582 581 586 592 594 599 596 600 596 604 606 598 598 595 594 590 588 587 586 586 586 586 581 573 572 575 570 567 558 567 558 562 565 556 549 544 549 543 542 541 535 538 535 523 519 524 522 525 520 524 519 517 523 519 525 518 518 518 509 
511 504 516 526 525 534 539 545 550 561 565 571 572 593 590 593 592 596 597 595 603 601 604 607 607 606 610 616 615 618 617 619 614 614 616 605 608 606 605 603 599 600 595 592 592 586 587 578 575 567 568 565 568 570 561 560 549 548 543 551 549 541 540 537 532 526 528 524 522 518 519 516 516 517 510 516 518 516 513 511 
526 524 533 538 543 550 562 558 568 573 580 583 585 601 598 602 598 603 608 606 613 611 610 610 614 614 613 618 618 617 624 622 623 624 624 615 615 612 609 607 601 607 603 599 593 597 591 585 579 576 581 573 573 572 563 553 553 552 545 545 542 543 540 536 535 533 529 526 520 523 522 520 520 518 521 522 522 519 514 512 
537 541 549 561 551 564 575 573 574 584 591 588 592 601 602 605 604 603 608 611 610 613 610 616 611 613 620 623 626 619 621 625 621 623 619 617 614 612 609 607 606 602 599 600 598 598 593 584 579 574 574 567 564 561 560 549 552 545 543 537 543 540 530 530 527 531 531 522 520 519 522 517 522 518 521 525 525 517 512 509 
552 559 568 575 573 578 580 578 581 587 591 592 593 606 606 607 605 607 608 607 611 613 612 613 614 615 619 618 622 621 615 622 621 623 617 613 612 608 605 608 602 605 596 589 587 590 590 582 576 565 565 562 560 558 556 547 545 542 537 535 533 526 526 524 522 525 523 522 518 511 523 519 517 521 513 525 522 516 512 512 
574 572 576 583 581 588 585 585 589 591 598 597 596 604 605 606 610 602 605 612 615 614 612 613 611 617 621 624 624 621 617 618 623 619 614 612 613 610 599 602 597 596 591 586 582 583 582 572 576 566 562 557 553 554 546 545 542 539 535 531 531 523 524 525 526 518 523 513 514 516 511 518 520 519 519 521 517 513 514 511 
582 581 591 589 586 595 588 586 589 588 596 591 593 602 605 601 603 599 599 602 604 602 602 607 605 615 615 621 624 615 616 613 616 616 611 607 608 599 593 590 587 583 585 575 572 572 566 565 563 557 556 545 551 549 544 538 532 532 531 529 523 526 518 515 517 522 515 514 514 510 514 516 514 519 518 517 517 509 515 515 
595 594 596 603 595 594 592 586 592 592 588 593 588 602 600 595 595 590 586 591 587 595 597 604 605 602 609 613 616 614 609 614 613 615 615 606 594 596 595 587 574 573 570 568 566 561 553 557 553 546 551 545 540 541 534 530 525 529 527 525 525 529 522 518 519 516 515 513 507 507 512 517 517 517 513 518 517 514 516 510 


