P2
80 60
589
479 478 482 477 481 487 491 485 486 488 486 484 488 489 494 496 490 491 494 495 494 494 499 495 496 495 496 498 497 497 493 500 497 497 496 495 498 496 500 497 494 492 498 504 498 499 499 500 501 499 502 502 504 501 499 499 499 500 502 500 501 500 497 496 496 497 499 498 500 497 500 497 493 492 496 493 498 493 486 489 
480 478 481 477 480 486 486 487 486 485 490 486 485 489 492 491 491 487 491 493 493 495 498 496 494 498 498 499 501 497 501 496 501 497 496 499 499 500 498 499 499 497 498 499 500 499 499 498 498 500 504 500 499 499 501 502 500 501 499 500 501 500 498 498 499 497 503 496 500 497 497 496 495 496 494 499 496 492 489 497 
479 481 482 480 481 485 483 486 488 485 487 485 486 488 490 489 492 489 494 493 496 498 500 498 499 495 495 500 500 500 501 499 503 500 500 499 499 499 499 500 501 498 500 500 499 500 499 497 499 499 500 502 503 500 501 502 506 504 497 502 503 502 500 501 500 501 497 500 505 499 498 497 493 495 494 499 496 495 492 496 
479 480 480 479 482 487 487 487 488 488 487 485 487 491 496 491 492 492 493 492 495 500 503 495 499 497 504 500 502 501 499 495 499 496 502 500 501 503 502 500 498 500 498 503 501 503 502 503 497 498 504 501 502 504 502 505 507 506 502 502 505 500 500 498 498 501 499 501 502 500 504 498 497 497 495 500 497 495 492 499 
481 484 481 478 485 485 488 490 487 489 488 485 488 490 494 495 492 491 494 496 493 497 498 496 498 494 501 501 499 498 498 499 501 501 498 499 500 497 499 501 499 499 499 503 502 504 503 502 499 500 503 502 501 503 503 506 503 506 500 501 499 501 500 501 500 502 497 501 499 499 499 498 499 496 497 500 501 494 498 496 
485 483 487 481 483 485 491 490 494 490 490 490 491 489 494 495 496 492 495 494 498 498 501 498 496 500 502 501 501 499 499 501 502 503 501 503 503 499 500 502 501 501 500 506 501 505 503 505 502 500 506 502 504 505 503 505 503 506 503 502 501 503 501 505 502 504 501 501 499 498 501 501 500 500 502 502 501 500 500 498 
480 480 485 481 486 490 488 488 489 495 489 492 490 492 494 500 495 492 492 496 494 498 502 498 500 501 501 502 503 502 503 503 501 500 503 503 504 504 503 503 501 501 506 505 503 507 505 503 503 503 504 502 505 503 505 507 505 504 503 505 503 503 505 502 506 501 503 502 500 499 502 499 502 500 499 500 498 497 498 498 
475 480 484 480 483 487 492 493 490 492 490 488 493 494 493 502 495 493 496 497 497 502 502 499 500 504 503 504 504 504 502 502 505 504 502 502 505 505 504 503 503 501 505 511 502 505 503 505 505 505 506 505 503 503 508 506 505 505 505 505 504 504 505 504 504 500 499 502 499 500 501 501 503 502 501 500 498 499 500 495 
477 480 481 484 487 490 490 493 491 493 489 492 492 494 500 502 495 498 497 500 497 498 500 500 501 503 504 505 503 504 504 501 506 505 503 504 504 505 505 502 502 506 507 506 505 505 504 508 505 504 508 504 504 505 503 506 504 507 505 505 506 506 503 503 504 502 500 501 503 501 503 499 503 501 500 501 505 501 493 500 
477 479 484 485 490 493 494 496 494 493 493 494 497 497 502 503 500 495 497 500 502 499 499 502 504 505 507 505 506 508 505 506 503 508 507 506 508 507 506 508 506 507 507 512 508 506 506 508 506 505 508 506 506 506 507 507 505 508 511 505 504 503 506 503 505 500 502 502 506 501 505 501 500 501 503 505 510 503 498 499 
481 482 489 492 493 492 492 493 494 495 491 495 494 496 499 500 499 498 499 502 498 500 498 499 501 504 506 503 505 512 503 504 503 506 504 506 508 510 507 509 504 505 507 508 508 507 505 507 504 505 507 508 506 505 505 507 507 507 507 506 507 508 506 505 503 504 505 502 506 501 505 504 501 501 502 504 502 499 498 496 
485 485 492 485 495 491 498 495 495 498 492 495 496 498 501 500 499 498 498 497 501 503 500 499 502 506 503 500 506 505 505 507 505 508 511 505 508 509 510 508 505 507 507 507 507 506 505 509 508 507 507 505 511 505 509 508 507 509 504 506 505 506 506 505 505 506 504 502 504 503 503 504 503 506 504 503 503 501 502 501 
490 485 487 485 489 491 501 495 496 502 498 499 496 500 504 503 500 501 502 500 505 501 503 501 503 508 504 503 507 508 506 506 507 510 505 508 510 507 506 510 508 506 508 505 504 505 505 507 507 507 507 505 507 508 506 508 504 507 505 508 505 508 506 504 506 506 506 507 507 501 506 502 504 505 507 506 507 503 503 502 
489 489 491 487 492 490 494 493 495 497 498 497 497 498 502 506 499 501 501 504 501 502 502 503 505 506 503 503 506 506 507 508 506 509 508 510 509 510 507 509 505 503 508 506 508 506 505 508 505 505 506 506 509 505 507 510 506 509 507 505 506 508 508 503 505 505 504 506 504 505 506 504 504 505 505 506 506 501 508 507 
486 490 491 489 495 495 493 499 498 499 497 498 498 500 504 506 501 500 504 502 503 501 505 505 508 507 506 506 506 507 510 509 508 511 510 507 510 513 511 509 510 503 509 510 510 508 509 508 505 505 508 506 511 506 509 511 506 510 507 510 508 509 509 502 506 506 506 510 507 509 508 509 506 506 508 507 509 507 508 509 
491 491 496 490 495 495 503 499 499 497 498 498 497 501 506 504 503 501 503 503 504 505 507 506 505 507 508 504 507 508 509 511 512 511 510 508 510 513 508 507 511 508 508 510 508 507 505 509 507 507 510 510 510 508 510 510 509 513 506 509 508 510 508 506 508 507 506 507 507 509 510 509 508 508 512 510 513 508 508 511 
490 495 496 491 494 496 498 500 496 500 500 498 497 502 503 508 503 500 504 505 506 507 507 510 509 508 508 508 509 508 513 511 511 510 510 513 514 511 508 512 507 506 507 508 508 509 507 511 506 506 508 509 509 513 513 510 510 511 510 512 509 509 510 508 506 512 511 513 512 511 509 511 510 509 506 514 512 508 511 511 
493 491 497 496 498 499 504 498 500 500 500 501 499 503 509 506 503 503 506 508 507 507 507 508 506 505 511 509 510 511 514 511 512 511 510 510 514 511 511 512 508 508 508 511 512 510 510 509 508 508 509 513 510 512 511 510 512 515 510 512 511 511 510 511 512 511 511 513 509 512 509 512 512 510 511 512 508 509 509 512 
491 490 497 497 501 502 506 503 501 504 503 501 502 503 507 509 504 505 509 509 505 506 509 512 511 511 512 510 508 512 513 509 510 512 511 509 509 514 509 511 508 510 509 512 511 511 508 506 507 507 510 510 511 511 512 511 512 513 513 514 512 514 514 511 512 514 511 512 513 511 515 512 515 510 515 515 515 507 509 512 
493 495 499 497 499 502 506 504 504 504 503 503 504 503 506 505 504 504 509 505 507 510 511 513 509 513 511 509 510 511 510 511 513 513 512 511 515 513 509 515 511 509 511 512 512 510 510 510 508 510 513 513 514 516 512 514 511 515 515 517 513 513 512 512 513 514 512 515 513 513 515 514 520 514 512 513 513 510 513 513 
497 495 505 494 501 500 504 505 502 503 501 503 504 504 507 507 504 506 506 508 507 508 512 509 511 508 511 509 510 510 511 511 513 514 513 511 513 513 514 513 510 510 508 512 510 508 511 510 510 510 514 510 515 514 513 515 513 511 516 513 511 515 513 511 510 513 513 517 514 517 518 513 517 513 515 510 513 511 511 512 
496 497 498 496 499 502 499 500 505 503 505 504 505 503 506 510 505 504 505 509 509 509 511 510 511 508 511 509 507 511 511 511 513 516 514 509 512 510 510 513 511 512 511 511 509 508 509 512 511 512 511 512 511 515 515 512 512 512 511 512 514 513 515 514 513 513 516 515 514 516 519 513 514 516 509 513 514 511 509 513 
494 492 498 494 501 501 504 504 504 506 503 505 503 506 507 512 507 502 508 509 510 510 509 513 507 512 508 507 512 511 509 511 513 509 514 512 511 514 511 509 511 510 509 511 508 512 509 510 510 511 515 513 514 512 515 516 511 511 512 509 515 515 516 516 516 517 517 516 516 513 516 514 513 515 510 515 513 510 509 516 
492 494 503 499 502 505 506 509 504 506 507 508 506 505 511 510 508 507 507 510 511 513 512 515 511 510 511 511 511 512 513 509 510 513 516 512 511 514 512 510 505 508 507 509 509 515 509 510 510 514 515 515 514 510 514 516 514 516 516 518 517 517 518 516 518 519 515 515 513 516 520 516 515 513 516 512 513 512 510 516 
496 494 503 500 503 502 509 505 507 506 507 508 506 507 509 506 508 505 508 509 509 511 510 510 512 510 510 511 512 512 513 511 512 513 517 511 511 511 508 506 502 501 498 507 508 510 510 512 512 516 513 514 513 512 514 515 515 513 514 516 518 517 521 520 525 521 515 515 513 518 520 518 516 515 516 515 511 514 510 511 
494 495 504 499 502 504 504 510 510 508 506 507 510 506 509 509 506 508 509 508 505 507 509 510 513 512 511 510 510 512 514 508 510 510 508 505 510 510 504 507 497 491 490 494 509 510 512 511 512 512 514 515 517 516 512 515 511 513 513 514 515 520 516 518 520 519 518 517 519 515 519 517 520 515 514 514 515 514 511 515 
493 494 503 498 504 506 506 508 507 510 510 508 510 509 511 510 507 510 509 511 505 511 509 507 509 508 511 508 509 509 509 506 507 506 500 505 509 504 504 501 495 495 491 495 502 514 508 513 513 515 515 514 515 513 515 514 512 515 516 514 515 514 515 517 521 520 517 517 514 515 520 517 517 513 515 520 520 519 510 513 
494 495 500 500 507 504 506 511 509 506 507 509 508 507 511 507 507 511 512 506 504 511 508 508 504 504 505 509 509 507 503 505 504 505 502 502 505 506 503 503 500 498 496 498 506 512 510 512 509 511 512 516 512 513 511 513 510 513 519 514 515 518 518 517 519 517 514 518 518 513 517 517 513 515 512 517 519 517 513 513 
493 494 504 501 502 505 508 509 507 507 507 508 510 509 511 508 505 504 506 504 499 503 502 502 503 502 505 505 505 507 506 502 506 504 505 504 506 505 501 505 500 498 497 501 504 509 512 510 510 512 511 513 513 514 511 513 513 515 516 515 513 517 518 514 519 516 513 519 514 513 518 516 512 511 513 514 514 515 510 512 
489 495 503 499 501 505 505 510 505 509 511 508 511 508 510 510 506 498 497 496 496 500 503 501 506 504 506 505 509 508 507 505 506 506 506 501 506 505 503 503 499 498 496 501 506 507 510 513 511 515 516 513 514 512 515 518 511 516 516 516 512 518 515 515 517 518 516 516 516 515 513 515 513 511 512 517 514 515 508 513 
485 490 498 496 502 500 508 507 510 511 511 510 509 508 512 506 509 499 499 501 506 503 503 507 505 506 505 506 507 508 506 505 503 505 508 505 506 505 504 501 501 500 498 505 501 507 511 511 511 512 515 512 515 514 513 516 513 516 515 514 517 515 511 517 513 515 513 519 518 512 514 514 515 511 511 516 516 515 508 508 
481 483 496 496 500 503 505 508 509 510 512 508 510 511 513 510 508 507 505 501 507 506 506 507 507 506 506 510 508 507 507 506 504 506 506 503 505 503 502 505 502 502 501 504 502 509 510 517 512 515 516 516 518 514 511 518 514 519 518 517 519 519 513 513 515 520 513 517 514 514 516 514 514 510 508 516 511 513 506 510 
483 487 494 493 503 505 507 505 509 511 510 509 509 506 509 509 509 504 506 503 506 505 506 508 509 505 508 509 508 509 509 507 504 510 507 507 507 507 503 506 504 502 502 506 500 504 511 514 517 513 515 514 518 512 512 515 513 517 518 516 516 521 517 516 518 517 510 515 515 514 517 515 513 513 511 511 513 511 511 510 
487 491 494 492 499 500 507 505 507 509 511 508 511 508 508 513 507 505 503 504 507 506 509 508 508 508 509 510 508 510 510 507 506 510 508 506 505 509 505 503 506 504 502 503 503 506 509 511 508 512 513 512 513 511 513 514 511 515 513 513 513 514 516 518 517 512 514 511 513 509 512 514 509 511 509 512 510 511 506 515 
493 491 494 491 497 499 501 505 507 509 504 506 507 507 509 505 506 504 507 507 511 510 511 509 507 510 510 512 508 510 509 510 508 510 507 508 506 510 508 506 504 501 503 503 503 506 508 509 509 510 513 510 515 512 515 514 513 513 513 513 514 516 511 515 514 511 513 512 511 509 513 512 510 509 508 511 509 511 506 509 
490 489 497 494 495 497 502 501 505 508 504 506 507 507 514 515 511 513 514 512 507 510 510 512 507 509 509 510 509 510 510 511 508 509 508 508 509 511 509 507 505 503 505 505 501 504 506 513 509 509 515 513 515 514 511 516 516 516 514 514 514 517 517 516 509 512 511 509 510 509 511 513 509 510 506 511 507 509 504 511 
491 487 491 492 495 495 501 505 507 510 511 514 513 511 520 518 512 511 513 513 512 513 513 511 512 513 511 510 511 514 510 508 511 511 512 507 512 513 509 510 508 504 505 505 501 501 506 509 509 512 514 512 518 511 511 513 515 513 510 514 515 511 516 514 512 512 512 510 509 507 510 505 506 509 502 508 506 507 504 505 
487 487 491 489 496 500 503 507 511 517 518 519 516 520 521 515 516 514 516 512 513 513 512 510 510 510 513 511 511 512 510 510 511 510 514 510 513 512 510 511 508 508 509 507 501 499 494 505 506 509 512 512 517 511 514 517 514 515 511 517 512 510 509 511 509 510 510 510 506 507 508 507 506 507 503 506 504 504 503 505 
485 484 486 493 501 505 504 510 516 514 515 521 520 519 519 519 523 517 517 515 516 514 516 512 512 513 515 513 511 513 510 513 510 511 510 507 513 510 509 511 511 507 511 510 501 496 496 495 497 506 512 509 512 515 517 518 516 516 514 510 511 508 509 509 508 508 506 509 506 505 509 506 508 506 504 507 509 507 502 505 
480 478 482 485 495 503 507 506 505 511 510 516 520 516 520 522 516 516 518 519 513 514 514 514 513 514 515 513 512 515 513 514 515 510 510 512 511 514 511 511 513 512 508 513 509 504 496 497 496 497 501 509 515 511 513 517 515 515 511 511 513 511 508 509 506 506 506 503 506 507 507 507 504 503 504 505 506 503 503 506 
475 472 478 476 486 488 491 494 502 506 507 507 513 517 522 519 522 517 518 516 515 519 516 514 515 513 516 516 516 519 518 513 514 513 513 511 514 512 509 511 511 509 514 512 510 510 508 502 498 499 496 496 505 509 509 516 515 510 513 512 508 508 508 507 510 506 507 505 506 503 507 507 505 504 505 502 504 502 502 502 
456 452 447 452 451 464 479 485 493 498 501 510 516 515 525 525 518 519 519 517 518 518 519 516 519 514 517 517 516 518 517 517 514 516 511 513 511 513 511 513 511 510 512 512 509 511 507 506 506 502 498 499 502 494 503 515 508 510 508 510 511 511 505 506 508 505 506 504 506 503 505 507 504 499 502 505 505 502 496 503 
436 408 376 349 387 428 458 474 480 492 495 503 511 515 520 519 519 514 519 518 518 518 516 518 515 516 515 518 517 519 518 518 514 514 514 511 510 513 511 514 510 511 512 510 508 512 508 508 507 508 508 505 501 491 499 500 504 510 504 507 510 510 508 509 506 502 506 503 505 504 502 503 504 502 501 502 506 503 497 502 
377 289 214 173 217 329 417 461 478 489 495 504 511 514 524 521 518 516 520 518 520 519 517 517 517 517 518 517 520 522 518 514 513 514 516 511 509 517 512 512 511 513 514 513 511 511 511 510 511 510 511 509 504 496 494 498 490 503 509 508 509 507 503 505 507 504 507 503 503 504 508 502 503 498 501 505 503 504 500 499 
194 104 79 81 115 179 342 431 466 483 500 509 514 522 523 525 520 513 519 518 518 517 518 513 516 511 514 515 516 519 516 515 514 514 514 513 510 513 511 512 510 511 512 518 510 512 514 510 508 509 512 508 505 502 500 492 490 494 495 500 501 507 501 505 503 503 504 503 504 501 500 504 498 500 499 505 503 500 498 498 
47 15 22 27 64 112 239 390 452 480 499 512 514 518 526 522 522 516 518 513 515 517 518 514 516 518 510 511 516 519 517 516 515 514 509 513 511 513 510 513 508 511 513 515 511 514 512 513 511 509 512 506 509 506 505 503 495 496 497 499 498 507 502 497 500 503 501 501 501 499 502 506 503 497 498 502 498 499 493 501 
19 8 0 3 27 88 190 356 444 484 505 512 514 520 523 520 517 515 519 514 515 518 519 517 518 517 514 512 516 513 516 520 518 518 514 515 512 512 511 516 510 510 512 516 513 512 515 509 509 509 512 509 506 507 505 506 500 501 497 492 496 496 500 500 504 503 498 502 502 500 504 503 501 499 499 504 502 502 492 500 
59 10 2 1 24 76 195 349 433 479 496 507 513 512 518 522 516 517 519 517 511 517 517 516 517 515 515 515 512 518 516 516 518 514 514 514 513 512 510 515 509 508 511 514 511 512 508 510 510 509 510 506 509 508 506 510 505 504 504 497 494 494 489 502 502 500 500 500 501 501 501 499 500 496 493 502 500 496 492 502 
186 46 9 6 41 137 273 372 415 452 483 501 511 509 520 517 515 515 519 516 517 517 516 515 517 518 515 518 515 517 517 515 512 512 512 513 513 516 510 515 509 513 509 514 508 510 509 513 513 512 512 508 508 508 509 511 507 506 510 502 498 495 494 493 496 498 499 501 501 498 499 497 494 497 497 500 501 496 497 499 
288 98 20 23 118 272 365 404 422 442 474 499 504 506 515 517 512 516 517 512 515 519 519 515 511 514 516 521 518 518 518 512 508 513 513 514 518 515 511 513 511 509 509 516 509 511 509 513 511 513 512 511 512 510 510 510 511 514 509 507 502 496 492 491 498 493 497 498 497 494 504 501 499 495 498 505 497 497 492 499 
316 176 53 105 274 380 419 438 454 464 483 496 503 507 510 516 511 513 516 517 515 512 516 517 516 518 515 518 516 519 519 513 512 510 513 512 515 515 513 515 510 507 512 513 504 508 510 512 511 513 508 509 511 508 506 510 511 513 512 508 504 506 492 491 494 493 492 500 498 491 496 499 498 492 492 503 497 499 495 496 
315 295 170 273 391 438 452 459 465 480 486 497 499 506 507 513 512 509 512 513 516 517 520 516 514 515 514 513 515 518 516 516 516 513 515 513 513 512 512 511 510 508 509 509 509 507 507 513 511 513 512 512 512 511 509 514 511 511 512 510 508 508 500 493 490 493 489 499 499 490 496 498 499 492 497 498 499 495 492 493 
281 333 340 405 444 459 464 469 472 483 491 495 505 510 509 513 510 509 511 514 517 515 518 515 515 513 513 515 515 524 519 514 514 518 515 512 513 512 508 510 511 510 509 514 508 506 509 512 507 508 511 511 510 512 506 518 511 511 510 512 506 509 500 499 491 489 493 493 497 498 493 494 501 494 493 501 499 499 495 501 
285 401 443 461 471 474 472 479 483 490 494 499 502 507 508 509 511 508 511 514 518 520 516 517 519 517 518 517 519 520 517 516 517 515 516 517 517 517 515 516 516 509 510 512 509 509 514 515 512 514 506 500 507 506 508 509 512 514 509 511 506 508 503 499 493 490 491 495 496 493 501 507 498 497 496 504 496 497 494 496 
380 451 473 477 479 480 482 490 488 489 494 501 502 504 507 510 511 512 508 515 520 520 518 520 523 518 514 518 521 521 518 514 513 518 514 514 522 512 517 509 514 513 512 513 509 511 517 513 509 499 501 499 494 495 502 506 506 507 510 508 506 504 499 497 496 498 490 487 493 494 508 504 500 497 500 504 499 497 495 497 
451 479 487 484 485 487 489 493 494 494 497 499 501 504 507 511 511 509 515 517 525 524 521 527 526 528 528 524 522 529 523 519 518 519 521 516 525 509 517 518 516 516 512 518 519 512 511 507 507 501 500 497 505 504 498 503 492 503 504 503 506 506 503 500 500 495 495 486 490 487 498 505 493 497 494 509 500 497 492 489 
481 490 500 493 488 482 492 491 499 498 498 502 505 508 508 510 511 517 526 535 543 541 539 544 542 544 540 533 526 536 532 532 528 531 532 524 534 522 524 525 525 523 522 525 523 510 510 508 506 514 512 520 525 515 516 501 503 497 503 500 504 507 505 502 503 493 495 486 488 488 493 500 499 499 500 504 502 496 493 494 
500 503 507 500 495 489 490 491 497 496 500 501 505 510 512 512 511 524 541 557 569 563 566 573 565 565 559 566 558 560 552 556 557 562 557 555 553 553 552 550 552 546 544 545 532 526 519 518 522 535 543 539 541 538 540 529 513 505 504 495 503 505 507 503 500 495 497 495 489 489 490 494 503 497 499 501 499 500 493 503 
500 514 522 505 500 493 498 508 510 511 502 498 499 505 511 511 508 516 531 562 573 577 573 574 575 579 577 579 578 579 578 582 580 577 581 580 579 585 586 582 580 577 575 575 564 542 535 540 554 567 568 572 567 570 558 545 529 514 505 499 498 505 505 501 500 496 498 495 490 485 496 491 492 501 503 502 503 506 499 501 
498 505 519 522 517 499 515 527 524 519 513 510 506 502 508 508 509 517 528 554 574 581 582 575 578 589 584 585 578 581 581 585 583 580 578 580 579 580 577 585 586 584 584 580 567 549 551 568 580 586 580 580 579 578 573 560 537 516 509 499 495 500 503 504 499 497 492 489 490 484 493 493 496 498 499 508 501 500 494 504 


