P2
80 60
1942
26 57 151 230 287 345 358 343 317 319 328 361 414 499 628 822 1117 1498 1727 1803 1816 1803 1789 1795 1813 1852 1904 1911 1902 1883 1845 1814 1779 1765 1755 1741 1746 1748 1754 1753 1745 1725 1727 1717 1685 1558 1280 952 708 539 449 410 409 417 318 147 72 57 43 42 33 32 29 28 23 23 23 17 16 17 15 13 12 14 9 14 6 8 2 0 
47 129 219 287 369 371 363 346 339 354 375 425 516 646 871 1208 1588 1800 1849 1838 1817 1806 1766 1774 1799 1859 1904 1919 1928 1902 1876 1857 1834 1818 1803 1790 1786 1772 1756 1742 1729 1709 1722 1734 1737 1733 1660 1410 1048 749 562 452 406 416 410 279 118 68 47 43 36 33 31 33 25 25 26 18 19 22 20 20 16 12 13 12 5 8 6 5 
94 205 281 338 385 372 362 359 363 394 428 515 659 890 1248 1636 1814 1863 1849 1817 1803 1777 1735 1758 1809 1863 1900 1921 1915 1911 1880 1867 1853 1840 1827 1815 1790 1770 1730 1719 1709 1696 1706 1717 1732 1756 1762 1713 1493 1113 773 561 448 413 424 388 233 93 57 44 41 39 37 26 25 28 26 22 20 19 20 17 16 14 14 16 6 11 9 7 
164 255 318 371 384 374 374 375 399 445 515 647 890 1277 1649 1823 1859 1852 1803 1781 1784 1739 1717 1762 1824 1869 1887 1898 1907 1899 1887 1875 1859 1842 1835 1814 1787 1768 1745 1724 1719 1701 1704 1722 1744 1753 1770 1770 1732 1521 1128 770 557 454 425 425 353 165 68 54 45 38 33 35 30 29 26 24 19 20 20 18 20 21 16 16 13 11 12 15 
218 291 353 390 382 378 383 399 435 508 628 857 1246 1656 1833 1865 1842 1815 1797 1782 1763 1727 1713 1747 1820 1863 1885 1890 1895 1894 1893 1876 1864 1848 1832 1812 1786 1757 1745 1744 1751 1749 1755 1746 1751 1759 1762 1768 1762 1713 1496 1094 741 536 445 417 421 281 112 71 47 45 35 35 28 31 28 23 27 25 25 23 24 16 16 20 14 16 16 14 
261 327 373 383 382 380 394 429 483 602 805 1171 1602 1826 1878 1855 1814 1815 1803 1779 1757 1729 1736 1763 1838 1884 1880 1891 1895 1898 1890 1888 1879 1863 1833 1812 1777 1755 1761 1774 1796 1796 1796 1791 1787 1790 1798 1796 1775 1752 1703 1467 1038 695 509 436 435 381 199 79 58 48 45 38 35 36 36 28 26 28 28 31 27 24 24 25 24 20 21 12 
287 352 383 383 383 386 413 459 554 736 1069 1516 1785 1867 1864 1824 1813 1811 1795 1760 1748 1780 1798 1803 1844 1880 1888 1893 1888 1893 1899 1897 1887 1863 1819 1792 1777 1777 1789 1809 1811 1809 1806 1802 1804 1812 1826 1816 1790 1771 1777 1695 1377 933 626 479 435 428 299 126 69 51 43 40 40 36 38 31 29 31 27 28 30 24 23 25 23 19 20 14 
313 366 382 378 390 403 442 517 657 948 1385 1736 1849 1854 1843 1817 1821 1822 1781 1746 1765 1812 1838 1837 1846 1861 1878 1891 1880 1887 1903 1896 1884 1840 1797 1785 1793 1817 1835 1835 1835 1825 1816 1823 1821 1827 1836 1832 1818 1789 1787 1782 1629 1232 815 562 460 443 387 200 86 60 49 53 42 46 43 39 34 34 32 33 34 25 31 25 26 23 20 11 
340 367 377 374 390 417 476 594 817 1217 1635 1826 1870 1844 1829 1836 1832 1822 1769 1738 1747 1786 1818 1835 1841 1845 1869 1872 1856 1860 1862 1843 1828 1806 1790 1786 1814 1847 1860 1853 1848 1837 1836 1829 1826 1831 1838 1838 1845 1829 1801 1783 1739 1507 1051 681 498 444 428 286 122 70 56 57 47 45 39 38 37 36 32 29 33 27 28 26 23 24 21 18 
377 367 382 385 409 451 539 716 1029 1495 1776 1860 1861 1837 1841 1840 1835 1824 1770 1737 1745 1756 1776 1811 1829 1833 1853 1852 1830 1813 1817 1820 1813 1790 1782 1785 1832 1873 1880 1869 1861 1844 1840 1829 1829 1837 1843 1841 1853 1843 1832 1816 1784 1691 1329 862 578 466 448 369 176 80 65 56 49 46 42 40 37 37 34 34 30 31 30 28 25 22 23 18 
407 394 393 404 437 500 622 867 1289 1685 1830 1872 1862 1851 1852 1854 1846 1836 1785 1774 1770 1766 1764 1794 1824 1834 1838 1830 1824 1825 1824 1808 1799 1793 1796 1797 1833 1868 1877 1865 1855 1845 1849 1846 1849 1854 1855 1849 1842 1843 1846 1839 1812 1776 1570 1085 688 502 454 426 254 108 75 60 53 53 48 42 38 36 33 32 34 30 31 30 23 25 25 21 
401 414 421 426 467 547 721 1050 1501 1781 1851 1864 1861 1853 1859 1850 1837 1821 1799 1811 1817 1789 1776 1793 1822 1838 1829 1813 1808 1805 1794 1802 1812 1823 1823 1828 1844 1857 1861 1858 1862 1855 1858 1859 1860 1860 1858 1841 1841 1837 1832 1826 1805 1782 1701 1321 828 560 466 450 323 137 84 62 58 49 48 50 41 41 36 33 32 30 31 30 26 26 20 21 
402 414 437 444 494 605 838 1250 1652 1829 1856 1860 1865 1862 1852 1839 1819 1834 1844 1847 1837 1814 1790 1808 1827 1822 1816 1789 1789 1777 1781 1795 1823 1848 1859 1855 1859 1867 1866 1871 1873 1861 1859 1853 1853 1852 1835 1822 1825 1827 1833 1825 1801 1779 1740 1498 992 639 486 463 380 180 94 67 56 54 54 46 43 40 38 42 34 32 30 29 23 23 21 31 
405 419 440 460 525 665 969 1452 1739 1839 1850 1873 1866 1854 1846 1827 1822 1850 1862 1863 1853 1827 1804 1793 1796 1786 1771 1767 1766 1765 1768 1809 1839 1862 1862 1880 1882 1896 1892 1887 1891 1873 1862 1856 1848 1844 1839 1825 1847 1854 1868 1854 1804 1759 1737 1603 1148 721 526 469 422 234 106 79 54 55 56 48 45 44 39 38 33 33 27 31 25 26 24 22 
399 423 443 465 562 738 1130 1610 1783 1819 1846 1861 1860 1852 1846 1830 1845 1882 1875 1873 1857 1832 1815 1792 1780 1758 1754 1749 1740 1749 1772 1822 1861 1877 1879 1891 1899 1905 1915 1910 1909 1888 1882 1867 1858 1867 1867 1864 1883 1890 1891 1865 1807 1748 1743 1668 1278 816 566 482 448 282 125 84 67 62 54 48 44 42 41 39 37 35 33 34 25 26 21 16 
406 428 449 484 596 824 1275 1695 1794 1822 1816 1836 1836 1834 1830 1843 1876 1889 1874 1860 1846 1830 1817 1803 1788 1772 1756 1741 1736 1754 1784 1826 1864 1874 1877 1875 1893 1907 1915 1923 1925 1910 1898 1878 1870 1869 1877 1885 1907 1906 1902 1881 1825 1776 1761 1703 1398 922 609 505 475 326 145 91 71 61 56 50 48 41 42 40 34 32 32 28 26 23 16 12 
409 429 444 495 623 892 1380 1734 1791 1796 1809 1861 1862 1853 1864 1871 1873 1867 1857 1845 1837 1819 1807 1806 1792 1775 1764 1751 1766 1786 1812 1836 1852 1862 1870 1875 1878 1897 1918 1927 1939 1929 1911 1886 1873 1873 1879 1882 1896 1903 1904 1885 1833 1775 1749 1696 1476 1010 655 514 480 365 166 98 81 66 56 53 48 42 41 40 35 29 31 30 25 19 16 9 
409 433 445 504 655 969 1458 1742 1776 1790 1807 1855 1865 1869 1874 1868 1862 1864 1851 1848 1849 1824 1803 1805 1799 1786 1770 1764 1788 1815 1823 1836 1847 1869 1879 1887 1883 1906 1919 1931 1938 1942 1918 1891 1874 1865 1867 1873 1891 1893 1891 1881 1849 1798 1750 1737 1577 1118 711 539 488 390 194 108 83 74 56 55 47 52 41 40 35 29 30 27 22 19 13 6 
407 425 443 514 682 1039 1512 1746 1782 1789 1798 1816 1838 1863 1877 1873 1863 1860 1839 1835 1850 1839 1815 1800 1803 1795 1778 1771 1800 1803 1808 1819 1836 1868 1887 1901 1898 1905 1913 1927 1934 1935 1920 1897 1876 1861 1860 1870 1885 1881 1893 1899 1872 1841 1782 1761 1674 1236 777 560 495 413 218 110 87 74 57 53 50 47 46 43 37 32 26 25 20 15 12 8 
406 422 443 517 701 1090 1554 1751 1791 1798 1781 1795 1814 1850 1867 1865 1851 1841 1824 1836 1840 1840 1823 1807 1804 1796 1785 1767 1758 1763 1790 1822 1848 1876 1892 1900 1895 1895 1899 1910 1913 1911 1910 1891 1869 1853 1856 1860 1868 1868 1891 1905 1901 1862 1794 1771 1725 1323 831 575 499 433 228 118 93 76 62 53 47 48 47 44 38 31 25 20 17 13 10 6 
400 406 432 517 713 1129 1583 1750 1790 1800 1795 1804 1823 1840 1855 1850 1842 1838 1822 1836 1839 1836 1831 1815 1808 1800 1791 1775 1757 1764 1790 1820 1846 1865 1884 1900 1902 1904 1887 1887 1886 1885 1885 1865 1847 1837 1836 1836 1838 1851 1868 1882 1869 1819 1765 1761 1744 1379 875 596 502 431 234 121 97 78 61 56 52 47 46 39 31 31 23 22 14 16 9 6 
391 395 429 512 716 1148 1601 1773 1794 1811 1816 1823 1813 1818 1814 1815 1806 1822 1830 1843 1850 1853 1843 1826 1817 1806 1794 1775 1760 1764 1789 1823 1835 1854 1867 1892 1907 1911 1901 1881 1875 1863 1850 1842 1821 1831 1804 1805 1809 1810 1830 1836 1808 1764 1738 1758 1749 1405 894 601 503 432 240 126 95 79 62 57 50 48 41 35 32 23 18 14 15 14 9 5 
389 396 424 509 713 1124 1581 1771 1791 1803 1789 1779 1785 1789 1799 1804 1812 1829 1828 1845 1855 1868 1853 1840 1824 1808 1790 1775 1756 1759 1780 1811 1832 1846 1854 1877 1892 1911 1904 1880 1869 1857 1846 1830 1822 1838 1819 1802 1804 1791 1785 1781 1767 1761 1738 1759 1753 1401 896 602 495 422 236 126 99 77 64 59 46 49 41 33 30 22 21 22 15 13 12 3 
375 396 417 495 701 1108 1529 1698 1731 1746 1748 1763 1773 1798 1819 1823 1840 1847 1842 1855 1864 1862 1854 1837 1829 1816 1794 1776 1758 1757 1766 1802 1824 1846 1852 1863 1866 1869 1875 1872 1876 1863 1851 1849 1860 1863 1860 1854 1851 1835 1812 1790 1773 1754 1748 1768 1749 1377 878 588 491 416 223 119 91 76 61 55 46 37 34 28 26 23 19 22 13 14 9 2 
368 385 407 485 702 1161 1569 1700 1730 1734 1751 1786 1814 1839 1855 1844 1843 1847 1848 1861 1864 1858 1848 1843 1820 1814 1806 1781 1761 1760 1770 1795 1823 1839 1851 1861 1867 1875 1877 1881 1877 1863 1851 1857 1864 1867 1858 1854 1850 1836 1822 1791 1774 1762 1753 1773 1720 1334 837 554 488 413 217 121 91 67 50 44 37 32 32 29 27 22 23 23 15 15 15 9 
357 386 403 469 675 1155 1608 1740 1747 1759 1774 1813 1845 1866 1874 1853 1837 1850 1850 1858 1860 1856 1850 1844 1820 1806 1810 1794 1773 1757 1761 1774 1808 1832 1837 1849 1866 1878 1879 1871 1851 1834 1836 1848 1853 1853 1852 1856 1861 1858 1857 1839 1807 1778 1763 1770 1673 1266 781 545 493 400 202 120 89 64 46 37 28 28 24 30 27 24 24 19 15 13 14 11 
349 367 398 451 625 1016 1489 1712 1750 1762 1777 1794 1816 1855 1861 1837 1833 1834 1846 1851 1858 1860 1854 1846 1826 1813 1799 1804 1785 1768 1758 1758 1779 1809 1826 1844 1850 1863 1851 1833 1813 1815 1826 1832 1843 1857 1869 1873 1887 1879 1885 1882 1853 1801 1782 1756 1612 1168 719 528 496 375 184 118 90 71 63 57 41 31 24 18 18 18 18 22 21 15 16 13 
327 352 383 421 561 878 1356 1681 1744 1768 1774 1804 1834 1858 1845 1826 1826 1833 1845 1853 1870 1868 1876 1876 1866 1835 1801 1801 1792 1786 1760 1754 1758 1773 1786 1806 1824 1822 1808 1788 1788 1807 1831 1853 1875 1896 1906 1906 1908 1901 1907 1917 1887 1840 1786 1753 1580 1087 664 524 493 342 165 112 89 70 66 61 51 45 38 31 20 15 11 9 9 9 12 6 
317 338 365 416 522 773 1251 1624 1730 1757 1773 1813 1820 1843 1842 1822 1820 1835 1853 1859 1868 1877 1896 1899 1899 1875 1827 1805 1789 1784 1770 1756 1754 1753 1748 1758 1769 1776 1764 1756 1785 1822 1853 1872 1883 1889 1896 1903 1916 1916 1921 1916 1897 1861 1791 1744 1516 982 611 510 488 307 150 110 85 70 64 57 56 51 50 43 42 33 28 24 11 11 11 7 
297 318 347 398 487 685 1099 1536 1691 1739 1762 1790 1819 1839 1841 1831 1832 1851 1854 1866 1873 1870 1875 1882 1880 1860 1844 1812 1792 1779 1772 1761 1765 1763 1768 1771 1765 1760 1747 1751 1785 1815 1843 1848 1843 1852 1873 1882 1900 1911 1919 1896 1876 1849 1801 1723 1394 848 547 504 464 260 137 104 80 71 64 53 50 49 47 46 40 37 32 33 31 27 22 10 
287 305 328 378 456 597 957 1447 1662 1724 1758 1781 1819 1839 1842 1836 1838 1854 1853 1859 1860 1857 1853 1851 1840 1836 1837 1829 1801 1792 1778 1771 1772 1804 1828 1839 1812 1792 1769 1762 1778 1798 1811 1810 1810 1831 1857 1874 1886 1882 1884 1869 1843 1811 1783 1674 1210 721 513 505 412 211 126 99 76 65 61 57 55 51 51 48 44 40 37 35 33 33 34 31 
273 288 314 350 418 530 819 1309 1593 1707 1751 1790 1833 1841 1844 1830 1842 1854 1847 1836 1827 1821 1821 1823 1826 1833 1836 1837 1822 1803 1777 1770 1773 1812 1848 1846 1833 1819 1795 1775 1782 1784 1785 1790 1800 1822 1835 1857 1857 1850 1852 1844 1810 1789 1781 1521 980 602 493 484 335 171 117 90 71 56 49 44 41 46 46 43 41 37 35 36 36 36 34 25 
257 272 297 324 392 474 683 1083 1478 1688 1767 1822 1837 1840 1855 1846 1848 1850 1847 1843 1830 1809 1810 1813 1815 1826 1834 1849 1834 1811 1786 1765 1771 1773 1788 1800 1812 1803 1790 1782 1771 1762 1763 1778 1792 1809 1830 1825 1823 1815 1823 1812 1794 1804 1722 1271 768 509 460 429 257 136 104 83 64 51 39 33 27 28 32 30 30 30 27 32 25 21 21 13 
237 265 281 311 364 423 563 887 1336 1636 1771 1832 1848 1857 1861 1837 1849 1858 1854 1850 1837 1819 1805 1813 1812 1827 1836 1843 1828 1807 1790 1768 1774 1774 1777 1783 1779 1787 1779 1771 1762 1746 1746 1754 1764 1777 1785 1788 1772 1757 1749 1756 1775 1786 1537 1006 606 459 450 371 188 119 96 69 55 43 34 30 23 21 20 18 19 13 13 16 10 6 6 4 
213 255 272 289 333 388 490 714 1093 1495 1734 1818 1850 1846 1843 1837 1839 1860 1870 1858 1860 1826 1821 1836 1828 1834 1832 1828 1800 1780 1782 1790 1797 1811 1822 1838 1840 1831 1815 1799 1782 1765 1746 1737 1735 1746 1756 1747 1729 1700 1707 1731 1769 1687 1263 762 497 444 431 286 149 106 84 71 54 45 34 27 20 26 29 32 25 21 15 17 10 9 2 6 
177 249 269 278 312 354 436 583 874 1338 1662 1778 1831 1840 1838 1825 1843 1862 1866 1877 1887 1853 1831 1836 1833 1821 1812 1795 1784 1777 1806 1837 1868 1865 1861 1865 1861 1866 1857 1838 1812 1782 1759 1746 1742 1741 1724 1719 1716 1708 1716 1756 1731 1459 949 578 449 433 372 206 123 98 75 63 56 48 42 31 32 31 36 40 36 35 33 32 26 23 22 13 
141 221 257 270 299 330 390 493 698 1113 1512 1723 1792 1827 1862 1838 1840 1838 1848 1896 1897 1865 1841 1830 1818 1804 1798 1786 1771 1787 1831 1853 1856 1847 1832 1837 1842 1854 1857 1853 1837 1806 1772 1756 1756 1742 1715 1704 1707 1726 1764 1767 1582 1128 692 473 422 413 282 141 110 81 60 55 55 54 50 45 43 36 33 40 39 32 36 27 23 21 26 30 
101 183 238 260 286 310 353 430 554 830 1267 1624 1750 1806 1859 1867 1833 1841 1864 1889 1872 1848 1829 1823 1809 1795 1778 1771 1767 1801 1825 1837 1829 1828 1825 1830 1825 1838 1844 1844 1829 1798 1779 1763 1767 1753 1727 1721 1758 1766 1784 1665 1262 803 524 418 411 347 189 114 92 68 52 49 45 43 46 42 42 42 43 41 41 35 31 24 22 18 27 22 
80 132 214 249 274 290 317 379 467 628 946 1391 1675 1766 1832 1875 1869 1864 1851 1857 1858 1837 1839 1833 1822 1791 1768 1753 1754 1777 1799 1798 1804 1816 1823 1823 1831 1828 1818 1814 1809 1788 1785 1781 1778 1761 1756 1763 1790 1793 1710 1363 907 568 423 402 381 243 129 100 80 59 50 48 42 47 43 36 32 35 29 29 31 30 28 26 24 22 27 12 
70 96 170 239 273 282 301 340 393 498 683 1052 1471 1692 1797 1854 1883 1891 1869 1862 1851 1841 1845 1852 1841 1794 1771 1746 1746 1751 1762 1766 1775 1787 1814 1820 1822 1813 1796 1794 1796 1796 1793 1792 1782 1782 1801 1822 1813 1731 1419 983 628 438 397 392 296 159 102 87 66 56 52 50 46 41 39 38 35 34 34 27 24 22 23 23 24 23 27 22 
61 72 119 193 258 275 289 311 355 422 527 738 1098 1492 1728 1805 1862 1894 1882 1873 1862 1853 1849 1850 1853 1813 1790 1787 1774 1766 1761 1763 1771 1776 1792 1804 1808 1804 1800 1812 1826 1821 1823 1789 1784 1791 1824 1825 1743 1447 1018 670 466 389 391 330 186 109 89 70 59 54 48 49 39 41 40 36 27 34 33 32 27 25 23 28 20 17 17 15 
58 69 84 139 230 265 278 301 323 363 429 548 758 1112 1512 1725 1806 1852 1853 1864 1863 1865 1867 1865 1850 1831 1833 1829 1812 1793 1785 1781 1777 1773 1794 1812 1817 1819 1827 1827 1838 1850 1838 1806 1784 1784 1792 1709 1428 1022 692 479 401 391 357 220 119 90 73 62 57 50 45 39 40 38 41 35 33 31 33 33 29 28 24 22 23 21 22 18 
78 68 69 91 171 236 274 293 304 329 373 441 557 749 1087 1464 1692 1777 1789 1815 1828 1843 1851 1857 1843 1828 1827 1812 1803 1791 1796 1786 1792 1808 1825 1837 1847 1849 1856 1854 1857 1847 1822 1787 1765 1757 1644 1349 977 684 491 400 375 359 252 133 94 77 60 57 52 43 44 40 37 38 37 33 32 34 31 31 30 25 24 23 22 20 26 22 
81 57 58 70 112 176 249 280 285 306 329 373 445 541 716 993 1362 1618 1721 1764 1778 1789 1814 1818 1802 1794 1783 1776 1762 1769 1796 1820 1832 1845 1862 1870 1875 1881 1871 1859 1848 1824 1805 1771 1701 1525 1211 896 656 488 398 367 343 261 141 94 84 63 57 55 52 44 42 38 36 37 36 32 32 34 31 33 32 24 26 25 23 23 17 17 
52 46 44 60 83 113 188 259 278 291 305 323 369 427 515 644 874 1182 1465 1662 1728 1750 1771 1788 1768 1771 1773 1756 1763 1754 1783 1813 1837 1857 1867 1878 1880 1879 1860 1832 1813 1802 1762 1612 1342 1046 801 602 471 391 356 334 254 145 106 83 69 61 54 50 53 48 45 40 38 36 37 32 33 33 33 33 32 25 28 25 25 27 24 15 
40 38 38 45 66 80 120 200 251 277 290 307 328 363 411 478 573 728 974 1278 1508 1632 1708 1756 1761 1772 1763 1769 1757 1760 1765 1789 1805 1816 1838 1841 1832 1825 1793 1767 1738 1656 1443 1138 876 690 551 442 380 349 319 243 143 104 94 77 59 53 50 48 49 44 46 43 36 37 37 36 33 38 33 34 32 30 29 28 26 24 20 24 
31 32 35 39 57 59 78 119 190 251 280 294 304 322 349 391 435 513 608 773 976 1191 1401 1584 1697 1741 1746 1745 1748 1752 1771 1778 1792 1804 1786 1788 1758 1713 1615 1480 1318 1105 903 733 597 490 421 365 342 305 219 140 103 97 78 61 53 51 44 47 46 42 44 38 34 38 37 37 36 35 35 34 33 32 33 27 26 24 21 19 
32 30 35 40 47 42 59 85 112 179 247 277 301 306 323 338 362 402 456 525 615 719 865 1060 1261 1437 1556 1600 1594 1584 1649 1681 1677 1657 1625 1559 1458 1291 1119 961 827 711 612 529 451 388 361 330 288 199 128 104 98 80 67 53 52 49 46 49 43 41 40 41 32 40 37 40 35 36 35 32 31 29 25 25 24 19 19 12 
29 27 30 37 43 33 40 62 73 102 151 218 275 294 306 314 330 348 375 418 462 520 573 656 737 840 940 1016 1061 1098 1150 1169 1152 1110 1050 982 893 806 716 653 592 537 478 412 370 337 310 246 171 116 104 96 75 59 55 50 48 46 40 42 43 37 41 38 35 37 37 37 32 33 32 28 29 27 25 24 22 20 18 13 
31 31 32 30 38 36 35 51 59 68 86 133 195 253 286 301 311 321 336 357 380 406 435 478 517 558 603 639 666 694 712 726 711 702 677 644 607 589 554 518 469 430 392 361 330 283 217 148 123 108 95 70 61 56 51 48 49 44 43 45 43 41 39 40 35 35 38 36 34 36 34 29 31 30 25 23 21 21 21 17 
31 28 32 32 32 29 32 44 43 53 63 78 111 153 211 266 289 304 312 317 340 358 369 388 408 431 453 473 492 507 514 524 525 528 507 497 474 461 443 421 397 386 358 305 243 173 137 120 114 88 71 58 55 54 50 45 47 41 40 43 42 40 42 43 37 39 34 34 32 36 35 28 27 26 22 24 24 19 18 15 
25 24 27 26 33 26 30 37 41 41 40 55 78 88 113 156 213 263 288 307 315 325 338 348 360 367 379 387 400 407 406 414 418 424 416 408 406 405 391 370 355 318 241 175 142 127 123 106 81 64 62 59 54 52 54 44 44 39 40 42 44 39 41 40 40 38 35 30 31 36 33 29 28 23 22 22 24 18 10 10 
21 22 26 30 27 27 31 39 36 34 34 43 55 66 74 84 113 147 195 239 271 297 316 329 342 346 356 356 359 362 359 364 370 378 373 369 362 347 327 279 223 172 143 134 123 114 100 72 60 61 52 52 51 48 49 41 46 35 36 37 43 40 42 38 36 34 35 28 32 36 33 30 28 24 22 20 19 10 10 5 
20 23 27 24 31 25 25 29 31 33 28 33 41 44 58 64 74 83 98 120 152 188 226 259 285 301 316 318 327 326 318 323 327 324 306 281 241 211 181 150 139 131 124 117 94 70 63 61 61 50 50 50 52 52 49 42 40 34 34 40 43 40 40 39 35 36 35 35 31 34 33 25 29 23 25 22 18 12 8 2 
22 23 21 22 31 26 24 29 30 30 24 31 37 37 40 43 55 62 76 90 93 98 109 126 142 162 180 195 199 206 200 197 187 175 161 145 142 133 130 123 122 104 86 73 60 58 61 59 52 48 42 46 45 45 47 41 41 37 31 38 43 39 39 40 38 36 34 32 32 35 30 28 25 26 20 22 11 11 9 9 
20 19 26 23 30 24 28 27 27 25 28 29 34 38 37 36 40 40 54 67 82 82 83 96 97 97 103 109 115 116 114 122 122 125 128 128 126 126 111 88 74 63 63 62 57 51 57 54 51 47 43 44 45 45 45 41 43 36 32 35 38 34 35 35 34 34 32 33 32 30 27 27 23 24 22 22 14 14 19 9 
21 19 21 29 28 23 26 25 25 22 24 28 34 33 35 32 36 34 39 46 51 59 69 78 91 91 95 97 105 106 107 119 119 117 105 95 84 72 65 55 56 50 51 56 52 49 56 54 49 41 44 43 39 41 41 39 38 34 34 37 35 33 31 25 26 28 32 35 30 31 26 25 25 24 20 24 13 18 19 7 
17 19 22 24 30 19 25 22 26 19 23 25 32 33 32 27 32 31 37 43 46 47 48 50 53 55 60 64 64 67 68 72 70 67 58 61 58 55 57 50 47 46 49 50 50 48 50 46 49 42 38 43 37 36 39 38 38 37 34 38 38 28 24 17 20 28 25 30 27 26 25 26 27 23 20 23 14 19 14 8 
20 18 23 20 21 17 12 17 19 14 12 15 26 30 39 36 34 32 34 44 46 43 38 42 39 42 45 45 48 46 47 47 49 51 45 48 47 47 48 42 44 47 49 47 48 42 45 42 49 42 39 38 37 36 36 34 35 29 29 32 34 27 20 11 12 25 25 29 23 26 23 26 26 25 19 20 17 18 10 10 
17 14 19 20 17 10 8 13 15 19 13 19 35 30 45 25 40 45 49 60 61 44 36 38 42 39 41 45 48 51 48 49 56 51 50 49 49 53 53 48 50 49 54 55 46 47 48 47 54 50 44 45 43 45 47 42 41 34 29 32 32 21 9 6 10 25 24 27 21 28 23 26 27 22 18 13 14 14 18 14 


