P2
80 60
219
45 49 46 53 50 52 50 57 57 57 55 54 54 54 61 58 56 55 55 56 59 56 57 59 59 60 59 57 60 60 56 58 60 60 62 58 58 57 61 59 54 63 61 58 62 59 62 62 63 64 65 64 64 65 64 65 63 66 63 65 62 61 62 63 64 63 64 59 62 64 64 63 63 60 65 64 62 65 64 66 
45 51 48 47 54 53 54 55 55 54 58 52 54 56 57 54 53 58 56 56 57 56 57 55 56 58 58 56 57 59 59 60 58 61 60 60 59 59 62 59 58 59 59 62 59 58 62 64 66 62 65 66 62 65 65 65 63 60 69 62 62 67 65 64 61 60 59 58 62 65 62 65 63 62 66 65 62 62 67 68 
45 47 50 50 53 51 56 57 58 56 57 55 54 54 56 54 56 53 58 56 58 53 59 58 58 58 57 58 57 56 52 57 61 57 55 57 56 61 58 60 58 59 61 61 60 59 61 63 64 60 65 64 66 65 61 62 62 61 66 61 62 63 61 60 59 60 60 60 62 63 59 64 59 58 66 63 60 61 64 64 
49 52 51 52 54 56 56 57 59 55 57 54 57 55 57 57 53 55 54 56 58 55 57 60 54 58 55 54 57 58 55 57 58 60 57 56 57 56 58 60 60 61 58 58 59 62 60 62 63 57 63 62 61 63 62 61 66 62 63 62 66 63 62 62 59 60 63 59 62 61 58 63 58 59 61 66 63 67 65 58 
47 52 48 55 53 52 52 56 60 58 55 54 53 53 60 54 54 53 57 59 57 55 55 57 55 57 54 55 56 57 54 57 57 57 60 57 59 57 58 59 57 58 56 61 61 60 59 60 62 61 59 64 63 61 60 59 61 61 64 61 62 61 59 59 59 60 62 62 63 64 54 63 59 60 62 65 64 66 66 61 
49 46 50 52 53 51 53 58 60 56 55 55 52 56 55 55 54 51 54 55 57 53 55 60 52 58 53 56 58 55 53 57 55 60 57 58 56 57 56 59 58 60 62 57 62 58 59 57 57 60 61 61 61 57 63 60 61 61 60 59 62 61 57 59 60 59 62 57 61 64 55 58 61 61 68 66 69 65 63 61 
48 47 47 52 52 53 52 52 54 55 54 54 53 52 57 56 54 55 57 56 57 53 57 60 55 56 55 52 58 54 53 55 56 58 55 57 56 59 59 59 59 63 63 57 62 57 58 59 58 57 58 60 56 56 55 56 56 44 53 52 58 61 59 60 59 62 60 60 62 65 62 63 65 67 68 68 64 65 67 61 
50 51 50 50 54 54 51 54 56 54 54 50 51 56 55 56 51 54 55 56 56 57 58 57 54 57 57 56 57 53 55 58 54 54 52 57 59 55 57 58 58 62 60 56 58 56 58 59 59 60 58 60 65 60 57 53 49 35 37 45 55 59 57 58 59 61 58 61 63 63 61 66 65 66 68 64 65 62 65 70 
48 49 51 55 55 53 52 54 57 58 55 55 54 57 53 57 57 55 56 57 57 55 55 58 56 58 58 54 56 54 56 56 55 54 57 56 56 57 57 57 57 59 60 58 60 58 58 57 58 57 61 60 56 57 56 36 28 26 37 44 54 58 56 59 60 59 59 62 69 68 67 68 69 67 68 66 64 62 66 65 
48 51 52 55 54 50 52 55 56 54 56 54 57 56 55 56 57 54 58 54 56 52 56 56 54 56 56 56 56 55 56 56 56 56 60 59 58 56 58 57 55 59 59 59 58 58 58 57 60 56 61 59 51 54 50 43 38 31 38 47 56 55 57 55 58 60 60 62 70 69 69 66 66 68 68 63 63 60 62 59 
49 50 52 51 55 54 52 55 58 54 54 53 55 56 56 53 55 54 55 55 56 54 57 57 55 55 52 54 55 58 56 55 57 54 59 57 60 55 58 59 55 58 57 58 59 56 54 55 57 53 57 59 58 60 54 48 48 44 48 50 54 55 56 56 56 60 59 64 69 68 65 66 66 65 63 65 61 60 59 67 
47 52 50 57 54 54 52 55 57 52 55 56 54 57 54 53 57 57 56 59 56 55 56 57 53 57 57 56 55 57 59 60 60 59 57 60 60 55 57 58 59 60 57 54 59 54 55 57 59 56 57 60 57 55 57 55 51 49 49 46 54 54 54 56 57 61 58 60 64 68 66 68 62 65 64 58 60 58 59 59 
49 52 51 53 52 53 53 56 54 50 53 55 53 55 53 54 55 54 55 58 56 53 57 56 56 56 56 58 59 58 58 59 56 60 58 57 57 56 57 58 54 59 57 55 56 55 55 58 58 55 55 56 58 61 60 48 50 48 45 38 45 55 55 56 59 58 56 60 66 67 64 62 59 62 63 63 60 56 54 48 
53 51 50 55 53 53 52 57 59 52 55 55 55 57 56 54 55 55 57 57 56 56 56 60 54 57 56 56 59 56 54 54 56 59 61 58 57 56 55 59 56 57 55 52 57 53 58 58 58 58 58 62 60 60 58 51 45 43 34 31 38 52 58 54 59 59 56 59 67 65 63 61 60 58 57 58 57 52 53 47 
51 49 53 51 55 53 52 56 56 54 55 54 57 55 59 56 54 56 57 58 56 56 60 58 56 57 54 57 60 57 60 55 59 60 58 57 63 59 58 55 57 56 57 57 56 54 58 58 57 59 63 59 57 64 59 53 49 42 31 31 46 56 57 58 58 61 60 65 67 64 59 60 60 58 56 53 54 46 47 35 
53 51 53 53 57 53 52 53 56 56 53 55 56 54 55 54 53 56 55 59 58 56 56 60 56 56 54 58 56 55 57 58 58 57 56 58 62 58 60 58 57 58 57 56 57 55 57 57 59 58 62 65 61 63 60 55 51 42 47 46 55 56 59 57 57 63 65 63 66 65 61 60 56 53 54 49 49 37 27 22 
56 51 55 54 57 54 57 55 59 57 56 55 54 54 55 54 52 58 55 62 59 57 56 61 57 56 55 57 57 57 58 57 57 58 61 59 58 58 59 56 55 54 56 58 61 59 57 60 64 61 64 65 62 59 65 62 59 56 51 52 56 60 60 55 60 63 63 62 67 65 59 58 56 51 52 42 33 24 24 20 
55 55 52 52 55 56 55 55 56 59 53 55 55 54 54 51 53 51 56 59 56 57 60 59 57 61 57 60 60 58 57 58 58 61 61 58 62 54 56 56 56 57 60 60 61 56 59 61 64 66 62 65 59 62 64 55 59 54 54 55 56 59 58 62 61 61 64 61 64 63 59 56 52 55 45 33 18 22 25 15 
54 53 51 52 58 58 56 57 60 55 60 54 55 56 56 55 54 56 56 59 56 57 59 61 59 59 55 56 56 57 58 58 57 60 62 58 63 58 57 54 57 59 59 57 59 59 58 64 60 64 66 66 64 61 59 60 58 55 57 58 57 59 56 59 58 61 62 57 62 65 57 55 53 46 42 25 25 16 17 23 
54 53 53 54 53 54 53 57 57 58 55 56 55 56 58 56 54 54 55 56 54 58 57 60 60 61 55 59 60 56 56 58 58 58 57 55 56 56 55 54 53 53 55 57 60 57 60 63 59 64 66 64 63 57 59 60 59 58 55 54 57 59 56 59 61 61 60 56 57 57 51 57 46 33 32 19 18 16 15 19 
55 57 58 56 57 52 56 55 57 57 59 53 58 56 59 57 55 57 55 56 58 56 57 60 60 56 61 58 56 57 56 58 58 56 54 53 58 58 57 55 55 55 55 59 62 59 61 62 62 62 65 65 60 62 61 58 57 54 54 56 58 58 56 57 58 56 57 60 59 57 58 47 34 27 29 21 22 19 21 31 
56 57 52 53 55 55 55 57 58 57 56 55 57 57 56 56 55 55 56 56 60 57 60 56 56 59 58 57 61 56 55 59 56 57 58 55 56 55 57 55 51 54 53 57 62 57 60 59 61 58 60 61 63 62 61 59 56 50 55 53 58 59 58 58 55 57 54 53 58 59 52 39 26 26 33 30 29 31 36 36 
56 54 53 57 60 53 54 58 56 56 58 54 54 57 54 54 54 57 54 62 60 58 57 54 56 57 54 58 56 55 55 54 57 58 57 55 58 57 56 55 59 54 57 57 57 55 60 59 59 59 62 63 57 61 57 55 54 53 56 50 57 57 54 55 56 59 51 50 57 54 48 36 29 31 41 42 41 40 37 32 
56 51 55 57 59 56 54 57 61 58 59 57 58 55 55 54 53 54 56 57 55 56 56 57 58 56 55 55 55 57 53 56 55 57 58 54 60 55 56 55 56 52 56 56 57 55 55 57 60 59 60 60 60 60 53 53 52 52 51 49 53 54 55 56 59 59 55 57 58 54 52 45 46 45 49 46 44 42 33 28 
53 55 51 59 56 56 55 56 57 59 58 57 54 56 57 57 56 56 55 54 54 56 56 58 55 57 55 55 57 54 55 53 55 60 58 56 59 56 59 56 53 57 52 56 58 58 57 57 59 59 60 58 52 55 52 49 51 43 46 45 52 57 54 52 61 61 58 56 62 63 53 53 52 52 55 52 45 38 37 26 
56 55 54 58 55 55 55 60 62 59 60 57 55 57 59 57 54 52 55 55 53 57 58 58 54 54 57 58 56 57 56 56 55 59 56 57 60 58 56 56 55 54 56 56 55 51 54 55 58 60 61 57 52 56 49 43 44 32 31 36 54 58 58 57 61 59 61 53 62 59 57 58 55 53 56 53 50 46 36 31 
54 55 56 58 57 55 55 61 61 60 60 59 59 59 59 58 56 55 55 57 57 57 54 59 56 56 53 59 58 59 55 56 60 56 56 54 58 56 55 54 49 52 49 51 58 50 50 54 55 58 56 54 50 52 48 41 38 35 37 48 54 59 60 60 60 61 58 57 64 60 58 54 54 55 61 53 51 48 37 40 
53 57 56 58 58 57 58 61 61 60 57 54 52 56 58 55 51 56 55 58 55 55 58 56 53 56 54 57 54 53 56 55 55 56 54 55 53 57 55 57 56 51 49 52 51 51 51 50 51 50 51 54 48 50 49 42 42 45 49 47 52 58 60 60 60 59 56 58 59 64 56 56 53 56 58 60 53 40 36 39 
54 54 55 61 58 56 56 59 59 58 54 57 52 54 56 54 53 52 60 60 55 52 56 55 51 55 54 53 55 52 54 54 54 56 54 51 54 52 54 59 53 54 51 49 51 50 47 50 51 48 54 50 48 47 47 48 49 52 50 50 56 58 58 57 59 56 62 61 62 63 57 58 57 51 54 50 47 42 31 34 
52 52 54 56 57 56 59 57 61 57 54 55 54 55 54 56 54 54 54 56 53 57 56 58 53 54 56 52 54 54 55 52 53 51 48 50 43 47 46 53 53 54 50 48 49 49 47 45 46 47 48 48 48 49 48 45 42 46 47 50 55 57 58 57 58 58 58 58 62 65 57 58 55 53 46 46 45 42 39 37 
53 53 54 55 57 57 55 61 60 56 60 56 53 54 52 52 53 55 57 58 51 53 53 54 54 53 55 53 51 51 54 49 53 52 43 42 40 40 49 53 53 53 49 44 46 45 42 43 42 47 46 46 45 44 42 34 39 39 48 47 51 56 55 57 58 57 62 54 58 62 55 59 51 50 54 53 42 49 46 51 
53 52 52 55 53 56 53 59 59 60 59 58 57 57 53 54 56 51 55 56 56 57 54 56 55 59 54 56 54 52 50 52 54 56 49 49 50 51 50 44 51 49 37 41 39 39 39 40 34 46 44 47 44 33 38 31 34 40 44 47 50 51 51 56 56 55 58 52 55 61 59 58 50 51 53 55 49 51 53 51 
52 54 52 56 55 52 56 63 58 61 58 56 57 60 66 65 68 70 61 63 58 60 58 59 58 59 59 56 55 57 53 56 61 60 50 50 54 44 48 43 41 44 35 39 36 40 42 44 40 41 42 44 35 33 39 33 37 43 38 44 46 51 48 52 54 56 52 54 60 57 56 53 52 51 52 55 54 50 53 47 
54 54 55 55 53 55 54 60 61 60 60 60 64 61 68 79 92 89 78 72 61 58 62 59 62 66 58 62 60 60 53 56 61 57 55 54 55 49 51 43 41 42 39 40 45 38 43 46 37 36 42 38 33 36 41 40 46 41 44 45 46 46 51 54 55 56 56 53 60 61 58 53 51 52 53 53 53 56 52 55 
53 50 49 55 53 55 60 62 62 58 57 59 59 67 80 90 102 105 96 86 72 60 60 61 58 60 59 62 62 57 54 55 60 61 52 53 55 51 52 49 42 43 44 39 45 41 39 40 37 39 42 40 37 40 41 42 41 44 47 43 47 50 51 53 55 54 55 55 60 56 58 57 55 53 53 54 55 55 56 48 
51 52 49 52 52 56 55 58 62 57 59 60 60 68 84 93 106 112 110 102 81 66 62 64 59 58 59 61 63 58 58 54 57 58 50 54 55 54 51 50 50 47 48 46 43 41 44 44 44 46 43 39 40 36 41 46 43 44 41 43 50 52 52 51 52 50 50 52 56 55 55 51 53 52 57 54 56 56 55 57 
50 51 51 53 55 55 54 55 60 57 58 59 59 63 78 84 105 122 124 114 98 81 66 62 59 59 58 62 57 56 57 56 57 57 54 54 53 48 50 54 53 47 46 44 48 44 44 48 42 47 47 45 40 41 39 41 39 40 34 36 47 53 47 50 51 51 50 53 52 46 44 47 47 50 55 55 57 54 52 52 
53 51 50 53 54 56 50 58 61 58 58 56 61 63 75 84 106 124 129 121 103 81 66 60 59 64 62 63 62 69 65 68 65 61 56 53 51 52 48 52 47 49 47 49 51 50 55 60 55 53 49 46 42 35 36 38 34 28 30 34 43 43 46 47 47 45 48 49 48 46 41 46 48 47 55 55 56 55 50 60 
52 52 50 52 51 56 54 58 57 57 58 57 57 64 72 83 102 115 122 118 102 85 71 68 64 64 69 79 87 93 91 78 70 66 59 57 54 51 52 48 46 45 50 52 63 65 73 70 62 56 56 50 46 37 36 40 33 28 33 30 40 43 42 42 41 43 46 48 49 51 47 50 51 52 50 56 56 55 57 54 
50 51 51 51 54 54 54 59 56 58 62 59 59 65 69 81 99 117 125 120 113 85 73 68 68 69 76 89 101 105 104 93 84 71 62 59 53 56 52 53 51 49 58 60 70 83 83 78 69 57 54 51 43 43 43 38 32 32 35 28 30 33 34 37 44 46 47 47 49 55 46 52 50 46 53 52 54 59 54 47 
53 50 50 56 57 57 51 57 54 57 58 58 53 62 68 78 94 114 127 131 113 90 70 69 65 68 77 94 110 114 107 101 90 77 67 60 55 50 49 49 51 49 58 62 72 73 77 73 60 56 50 53 40 43 44 39 41 32 34 25 29 30 32 30 45 44 45 41 47 52 43 48 46 47 44 46 50 49 53 49 
49 51 52 54 56 57 55 58 55 62 59 58 60 62 68 80 101 119 138 141 126 103 79 65 61 73 85 103 113 118 118 110 99 83 65 61 54 50 55 46 50 50 55 57 62 54 61 59 55 47 46 46 45 44 45 41 40 31 25 30 30 26 26 28 31 34 37 36 43 50 42 45 42 44 42 49 44 45 51 51 
52 53 53 55 52 57 57 59 59 55 54 56 56 61 73 84 100 121 143 145 132 108 90 69 66 68 85 102 111 120 121 113 103 89 72 59 49 45 50 48 45 46 48 43 43 48 47 51 48 48 46 46 44 40 41 40 37 38 30 29 29 26 25 19 28 33 34 29 46 48 38 39 39 32 35 35 39 44 46 49 
52 51 49 57 58 56 58 59 65 60 54 58 65 70 78 88 95 115 115 122 119 106 91 83 76 77 93 112 123 137 134 129 112 94 74 61 48 44 39 40 43 45 42 43 42 40 40 46 47 47 47 44 36 39 39 44 43 40 35 29 31 25 30 30 28 23 28 26 33 40 36 35 28 21 27 36 36 48 51 43 
51 57 50 54 54 56 58 59 65 56 65 73 84 94 108 105 108 110 108 109 107 104 94 86 72 80 100 113 130 141 137 127 111 93 71 56 49 39 42 45 37 42 43 42 44 43 42 45 42 46 47 43 42 39 43 45 44 39 42 37 38 33 27 24 28 24 24 22 27 34 28 31 26 28 34 37 41 44 49 52 
53 60 57 61 58 53 57 61 67 78 88 95 107 120 124 125 115 121 112 106 104 104 90 85 82 88 105 121 131 134 128 119 105 86 67 50 51 45 47 50 45 42 47 46 47 42 44 43 44 45 45 43 42 38 43 46 43 38 42 36 40 32 33 24 30 22 19 21 26 34 27 34 33 37 39 47 43 43 54 46 
54 53 58 60 59 59 67 78 92 107 124 136 141 146 143 137 133 126 115 112 108 93 85 83 79 90 108 124 124 130 119 108 101 78 59 49 49 47 50 50 49 53 51 53 55 52 45 44 43 37 44 39 37 39 46 42 49 43 48 43 44 41 39 29 28 29 22 26 29 38 30 31 32 35 47 45 45 47 49 46 
56 56 59 61 70 73 92 110 132 146 157 163 173 168 162 159 142 127 119 111 95 78 74 75 80 97 107 125 137 126 122 101 85 67 50 46 49 51 51 53 56 59 55 55 53 53 48 47 43 39 31 29 22 30 37 43 44 46 50 41 46 43 40 35 31 28 27 20 29 29 31 35 33 36 43 43 42 50 48 43 
57 68 70 82 92 106 121 138 159 175 174 181 178 178 166 160 146 129 115 98 83 72 67 71 82 97 112 123 129 130 111 91 80 62 50 48 48 50 53 50 48 55 51 51 56 51 54 47 46 38 35 27 17 23 27 44 41 46 46 48 57 50 50 41 35 26 25 30 29 32 27 30 28 31 39 36 40 40 45 48 
62 75 88 104 116 134 150 168 179 179 180 185 182 172 171 164 139 120 104 88 76 63 63 78 87 99 111 116 117 108 95 81 67 51 53 48 51 50 48 49 49 51 52 52 52 55 52 60 48 44 35 34 26 24 36 42 46 48 50 48 58 63 55 48 41 37 29 27 32 37 27 35 28 25 38 37 41 43 46 46 
85 102 115 126 135 146 158 167 175 185 191 191 183 175 171 150 126 111 88 77 68 64 75 86 94 106 118 110 107 92 80 61 56 48 55 46 49 48 49 50 51 51 50 48 52 49 54 57 48 47 49 37 33 32 46 50 57 55 54 58 54 53 55 51 49 44 34 32 30 36 26 26 24 23 33 32 39 42 42 45 
112 131 141 161 161 168 169 172 176 174 173 176 173 166 156 132 111 91 68 67 66 69 82 98 110 118 125 115 105 91 71 58 56 49 47 47 46 48 43 46 46 46 46 47 48 47 53 51 55 51 49 50 36 41 57 53 47 43 44 44 47 53 50 52 55 49 46 36 38 35 31 31 26 28 24 28 27 34 41 42 
139 157 169 169 179 170 177 174 174 180 184 176 164 149 128 106 89 73 64 66 70 79 100 114 120 131 133 124 106 88 75 60 55 53 44 44 47 47 45 45 43 42 43 48 40 42 48 56 51 56 48 53 49 54 51 48 41 38 40 41 43 43 42 47 52 54 44 37 42 46 27 31 21 27 28 26 28 36 35 38 
162 175 181 181 178 180 187 175 185 177 186 169 147 132 109 86 71 65 63 74 83 93 114 136 138 138 136 125 106 87 64 59 58 52 47 46 48 43 45 45 42 35 38 35 30 38 40 48 53 49 49 52 61 57 49 44 46 37 37 33 37 38 40 41 51 57 50 49 46 37 34 31 30 24 29 21 22 31 38 37 
176 184 187 184 185 180 184 187 181 173 172 150 129 106 88 68 64 60 65 76 92 107 128 143 153 146 138 119 103 79 64 50 59 51 47 48 42 37 41 32 23 10 6 10 12 17 30 42 46 50 60 58 55 53 54 48 47 36 32 21 23 27 32 36 45 51 49 47 49 45 39 36 29 24 28 26 25 28 27 34 
194 189 188 196 187 182 182 182 175 164 146 127 100 83 70 65 61 62 74 89 110 136 152 170 163 156 139 120 97 77 62 57 53 52 45 44 45 42 35 26 16 7 4 0 3 10 23 38 35 44 60 62 49 49 53 52 48 40 31 22 27 27 27 29 42 50 49 46 49 47 43 38 29 33 31 28 25 24 28 32 
196 200 196 195 194 190 178 168 162 131 116 96 88 61 65 68 68 75 83 107 135 152 175 183 176 164 143 119 99 75 60 56 56 54 45 45 43 42 33 30 22 10 10 7 6 12 22 32 41 52 58 52 51 45 56 55 54 45 38 35 30 32 27 32 33 43 45 53 54 55 40 41 37 31 27 32 25 27 30 30 
205 209 205 200 202 184 170 150 132 106 92 75 71 68 77 83 89 101 115 131 154 169 177 181 173 161 140 117 94 70 57 51 53 53 48 41 43 42 39 34 31 24 23 23 18 20 32 36 55 58 53 46 47 46 48 46 54 48 48 37 34 33 26 26 29 32 39 46 54 55 47 43 44 38 37 31 32 35 34 26 
212 209 207 201 194 176 155 135 116 95 77 72 76 80 104 117 130 141 157 157 161 171 178 178 171 157 136 112 92 69 53 49 49 47 37 40 40 36 38 34 38 32 35 36 31 33 33 42 59 57 48 45 38 40 47 44 45 47 44 39 40 37 25 25 25 27 28 43 56 53 51 47 43 41 43 38 33 32 36 31 
219 214 201 195 182 162 132 118 99 86 75 76 79 101 127 140 151 163 163 169 171 167 172 177 171 151 125 106 75 62 48 42 42 39 33 39 40 27 31 38 40 34 33 36 39 31 36 51 61 50 47 44 35 43 46 49 48 44 48 40 44 31 36 35 34 33 29 34 59 55 49 48 48 39 43 39 29 33 35 34 


