P2
80 60
880
461 340 283 261 239 211 185 164 152 141 119 102 110 114 112 127 137 179 237 149 124 114 103 94 90 80 62 57 66 81 82 80 75 74 80 82 84 88 89 89 87 87 93 92 90 93 92 96 92 91 92 99 90 93 94 90 93 91 91 89 88 88 78 77 77 72 78 73 71 68 67 65 62 52 52 48 51 47 38 38 
389 297 276 239 217 199 175 161 156 148 131 119 114 114 101 98 142 212 261 133 111 121 112 103 98 88 78 69 71 80 75 75 73 78 82 86 87 87 87 88 81 87 87 90 92 93 95 97 98 97 96 100 94 96 96 92 95 93 90 90 87 85 82 87 81 76 77 80 71 67 68 59 56 49 48 47 51 40 37 40 
326 275 247 228 192 165 169 160 160 143 136 121 122 115 106 102 142 357 273 128 111 122 119 109 105 90 85 82 85 70 70 62 63 69 75 82 82 82 85 82 82 82 86 84 80 93 94 92 96 95 95 98 92 95 93 95 92 95 91 91 91 92 85 85 83 80 75 73 77 72 63 58 59 55 45 41 45 46 42 42 
276 258 234 213 178 165 171 156 157 146 136 125 123 115 110 100 96 124 126 109 108 122 120 113 116 106 87 89 88 84 81 64 60 60 63 68 80 79 83 83 83 81 85 80 78 83 86 91 92 94 100 101 94 93 96 99 94 91 91 91 90 84 84 83 82 77 77 73 73 72 65 63 57 47 49 42 46 42 50 45 
246 234 220 203 172 163 164 150 151 141 136 126 124 127 113 104 99 98 110 102 98 111 123 119 122 109 90 79 92 80 82 76 71 60 66 63 69 76 83 82 83 80 83 82 77 85 85 88 95 94 91 95 96 96 98 97 92 97 95 93 88 89 86 80 83 77 75 74 71 68 62 58 51 47 47 41 56 51 49 48 
228 219 219 205 184 166 163 150 146 136 131 122 130 123 114 99 94 110 115 106 105 109 110 116 117 113 106 93 95 71 78 76 74 65 66 61 68 70 68 78 79 74 81 78 83 79 84 89 86 86 98 96 99 92 98 94 99 98 96 93 89 92 87 83 83 77 83 82 75 73 65 58 57 49 53 52 50 52 49 54 
225 211 213 213 187 169 160 146 145 134 131 122 125 122 110 94 96 113 123 111 110 104 100 85 94 104 123 121 107 77 70 68 70 71 73 67 61 59 65 61 75 78 78 76 76 75 79 84 82 83 88 93 96 96 98 95 94 93 94 92 94 89 83 82 81 79 77 75 69 64 61 56 57 57 52 51 57 54 55 65 
302 261 233 215 200 185 174 154 154 145 130 126 126 122 111 106 98 119 121 109 110 107 95 79 81 87 107 122 125 107 83 78 74 68 72 74 69 60 60 58 64 72 76 73 69 72 78 79 78 78 84 82 88 94 90 93 94 96 94 92 89 87 87 88 82 74 78 71 69 66 63 63 64 53 52 55 60 58 57 80 
386 374 319 273 234 205 210 191 177 156 148 132 128 128 111 105 114 132 127 116 112 111 105 84 91 89 96 119 127 119 112 98 72 74 71 76 72 74 72 63 59 58 67 72 67 77 72 77 80 75 77 82 84 91 92 94 94 93 97 90 91 92 87 88 82 79 74 69 66 65 66 66 63 57 65 65 74 70 69 120 
307 355 395 382 323 271 247 220 214 201 172 147 137 129 109 112 127 134 124 121 121 118 110 91 101 103 107 127 115 103 109 119 106 84 77 74 76 71 77 85 69 61 56 61 68 71 78 77 78 81 84 81 82 83 91 92 91 96 99 98 91 91 87 80 82 77 76 76 74 77 69 65 69 66 66 68 73 69 87 171 
298 311 323 359 394 385 335 277 243 221 206 189 159 140 106 110 132 136 120 121 121 118 108 101 111 109 119 129 113 107 98 115 108 111 90 78 73 67 75 84 86 83 67 58 52 64 70 67 80 73 74 77 76 78 85 87 89 93 93 89 91 88 88 77 75 75 74 76 75 73 72 67 76 70 70 76 79 81 127 217 
390 495 432 356 321 340 392 395 344 289 248 217 208 187 146 120 142 136 126 121 125 122 115 114 118 113 121 131 116 114 110 114 95 85 81 79 72 67 77 100 87 94 86 68 54 56 58 67 68 66 75 74 75 75 78 75 78 80 89 90 88 81 75 76 75 71 80 70 72 80 75 74 77 77 75 76 79 95 177 228 
456 551 645 622 478 342 314 337 391 407 346 284 247 217 205 192 169 132 130 131 129 129 118 120 121 118 126 131 121 117 115 102 95 86 78 74 74 74 79 96 96 90 89 84 73 64 63 61 61 59 66 74 72 74 75 75 78 78 88 86 81 86 71 76 74 80 77 78 79 82 82 83 85 80 74 76 87 127 218 256 
567 575 686 706 650 519 359 277 293 329 386 407 356 292 246 211 190 137 124 132 134 129 119 124 128 124 137 137 120 119 118 113 107 103 91 81 80 81 82 93 102 100 96 91 86 90 79 64 63 59 70 66 68 71 77 74 76 75 73 78 75 77 79 80 76 76 82 85 87 83 87 88 86 74 78 75 98 180 242 274 
646 620 659 682 612 470 364 323 271 258 274 312 372 416 394 280 189 132 123 124 126 126 121 129 127 127 138 133 128 118 119 118 112 110 102 88 93 90 86 89 103 99 98 101 92 87 78 83 67 60 67 60 61 70 72 73 73 75 73 78 78 83 78 75 79 79 87 87 88 85 85 87 84 83 80 86 130 212 247 275 
704 641 573 554 432 344 378 351 397 285 223 229 265 325 400 333 189 131 120 115 124 125 115 125 130 125 145 135 125 124 117 121 115 113 112 105 104 102 94 89 104 102 96 92 89 93 90 83 73 63 60 60 53 59 66 68 76 69 72 78 79 76 75 75 79 83 87 89 91 88 87 89 91 81 89 121 189 225 249 258 
723 670 529 397 312 293 337 387 433 399 341 199 182 216 246 238 170 120 115 111 107 112 112 124 129 135 150 130 127 126 129 122 119 116 117 111 106 103 108 101 103 104 107 95 89 93 90 84 82 72 70 65 62 53 56 63 67 72 75 76 77 80 85 89 90 93 93 97 89 96 96 92 91 88 103 191 249 263 247 234 
727 674 582 448 316 324 442 460 419 349 440 355 174 157 178 190 135 118 121 119 93 75 94 119 131 134 140 132 135 128 123 124 123 114 116 115 104 100 99 99 102 103 111 107 96 90 97 90 87 86 81 70 65 53 59 55 66 71 78 76 82 83 85 87 87 89 99 91 90 97 92 89 93 84 130 228 266 239 221 231 
661 619 554 518 441 445 473 411 313 272 294 246 182 177 178 149 123 117 137 122 92 61 80 95 114 117 128 127 127 123 125 124 119 121 119 111 107 108 102 88 97 100 110 106 91 94 97 93 94 93 88 76 68 72 65 62 65 65 74 85 87 85 80 90 93 91 93 90 95 96 91 91 97 94 160 224 226 223 226 246 
514 503 514 578 597 549 504 364 271 247 214 186 243 389 256 152 129 127 149 125 111 92 90 98 96 93 112 124 127 122 128 131 128 125 120 117 117 120 111 101 102 106 107 102 99 103 97 104 97 95 89 86 85 78 76 73 72 73 87 89 90 92 93 92 96 93 102 98 98 94 99 95 95 112 195 216 232 236 246 253 
358 429 502 563 630 654 682 499 280 239 201 201 350 420 246 196 136 126 124 123 120 113 94 89 88 83 92 116 121 123 126 130 127 121 114 121 120 117 115 108 102 105 113 108 105 101 101 97 93 93 103 95 90 91 96 90 82 78 80 88 86 98 100 102 100 100 104 103 100 100 101 101 103 130 202 238 250 256 256 256 
203 245 360 479 660 695 665 439 256 223 197 213 265 272 299 340 162 124 123 119 120 122 100 83 79 72 83 106 122 122 121 122 123 125 121 120 120 116 113 114 105 104 101 105 102 101 93 91 103 112 100 96 91 100 100 99 90 86 93 98 97 105 105 105 103 107 107 102 105 108 103 101 107 164 247 266 271 262 257 267 
193 211 272 358 652 669 617 393 231 202 211 215 237 264 388 443 221 130 123 116 124 118 107 82 77 75 91 100 117 126 121 117 119 117 121 122 119 119 113 111 108 99 95 104 100 98 100 99 104 130 113 104 100 105 108 103 95 93 98 101 105 108 107 109 104 102 106 104 106 103 108 101 112 188 280 283 273 261 272 287 
159 205 245 335 582 604 547 296 209 219 225 227 251 321 393 453 314 141 123 122 124 121 117 84 81 83 82 94 103 125 121 122 117 118 118 117 115 119 110 109 100 93 85 82 92 104 106 111 121 127 120 111 109 111 111 110 107 100 100 109 107 113 113 111 113 104 108 107 104 105 102 106 109 183 271 273 276 279 287 291 
166 218 343 492 495 483 331 229 239 243 240 258 297 352 466 530 381 149 126 120 120 125 117 84 85 81 82 93 108 119 121 121 113 119 115 121 117 116 107 101 95 94 97 97 97 113 125 123 126 127 123 122 117 121 117 116 113 107 114 115 114 117 117 114 114 111 111 106 110 112 103 104 111 158 252 281 289 286 285 270 
230 370 550 556 405 286 222 324 369 314 298 338 486 580 599 468 256 135 125 119 123 123 120 96 86 87 89 91 105 109 115 117 117 117 121 118 112 110 106 103 103 100 106 104 95 106 122 122 121 124 123 124 121 119 125 120 125 122 121 123 117 125 126 118 121 114 114 111 108 109 111 109 110 132 229 284 290 277 267 258 
286 327 358 354 300 222 217 278 439 475 424 501 618 570 417 253 175 128 121 122 121 121 120 100 96 91 91 89 101 103 108 119 118 117 114 111 115 114 111 107 108 106 104 106 99 104 108 116 118 124 127 128 123 127 130 139 173 177 144 144 152 162 153 131 130 123 124 120 114 112 108 107 109 112 186 266 275 262 255 253 
452 575 434 392 296 248 221 237 352 501 448 562 467 314 237 182 135 119 117 114 115 116 117 101 95 88 90 85 91 99 107 117 110 112 107 106 112 117 110 111 108 107 103 110 98 104 106 101 114 124 124 128 131 143 192 285 349 351 324 306 345 350 308 247 225 185 166 143 127 126 112 112 108 110 159 239 256 251 256 263 
614 682 442 461 509 412 274 212 291 426 502 552 335 242 169 139 127 116 117 116 121 121 117 105 97 85 87 85 84 94 100 111 114 108 117 112 118 117 117 117 111 111 106 114 105 106 108 103 103 114 131 185 245 306 365 397 399 408 410 408 405 400 395 387 381 369 335 280 232 172 135 115 116 113 134 212 258 261 265 264 
672 553 458 583 880 831 465 229 211 248 373 447 299 177 128 142 122 115 110 117 116 119 115 102 96 90 84 75 80 93 105 105 110 116 114 117 118 116 117 116 107 109 108 113 105 108 113 104 104 142 224 324 375 409 415 407 396 418 412 412 418 408 393 392 403 406 407 387 370 286 167 134 127 122 139 222 278 274 274 280 
682 574 394 476 637 739 403 179 168 215 236 211 180 131 149 138 118 107 112 108 114 114 107 113 96 82 72 75 82 91 101 102 108 115 112 114 119 119 118 118 114 113 116 112 107 109 113 110 130 217 329 393 401 408 414 422 420 427 420 422 421 412 399 398 407 417 415 401 401 353 222 200 223 232 244 283 290 285 274 275 
746 590 312 253 272 370 229 174 170 232 246 187 140 152 152 127 120 113 112 114 117 115 112 124 102 77 72 74 78 85 101 107 109 115 122 118 117 119 122 120 114 114 117 112 110 115 114 132 191 287 379 413 406 399 427 434 429 427 434 434 428 417 409 413 420 417 419 410 407 397 376 372 365 364 347 318 302 277 270 270 
530 417 262 217 215 247 246 233 224 251 187 129 139 168 134 120 118 113 112 113 112 119 126 135 122 83 68 65 62 75 94 106 106 113 116 113 115 120 119 116 118 116 113 114 113 117 116 147 217 325 398 419 386 387 425 441 434 424 431 426 432 422 415 421 425 420 418 420 415 421 417 405 400 390 379 334 303 278 274 275 
274 273 231 204 200 232 245 236 230 226 213 187 162 154 124 119 118 112 113 113 115 113 122 114 85 59 45 40 47 62 80 97 93 96 97 109 118 115 117 118 117 120 121 116 113 116 121 162 233 357 411 423 397 390 409 426 429 430 430 428 428 423 420 423 418 421 426 422 422 415 407 402 400 395 390 353 302 282 280 274 
234 248 223 188 206 234 234 218 221 233 224 206 178 135 121 117 115 106 112 117 121 120 108 75 58 40 31 28 43 48 60 79 90 87 78 86 106 115 118 114 112 115 119 122 123 118 121 152 251 366 411 425 410 396 405 414 419 425 425 423 425 428 421 423 422 424 421 419 420 417 412 403 400 395 396 368 307 281 281 291 
241 236 211 178 210 225 227 181 226 301 269 216 155 131 121 117 122 113 111 115 123 119 108 91 82 48 34 55 65 51 42 58 74 82 80 83 90 114 117 116 116 116 123 122 126 122 122 141 240 366 413 425 417 401 411 419 419 422 421 416 421 425 422 421 422 421 424 422 429 427 422 413 410 403 391 369 313 293 295 293 
235 224 203 183 217 225 225 212 320 319 241 178 139 126 116 119 111 108 112 114 110 119 112 106 84 50 41 60 60 57 47 46 61 78 88 84 83 96 115 120 113 120 130 131 132 123 120 132 218 343 411 428 423 409 414 424 420 423 422 417 422 420 420 422 422 421 427 426 430 431 426 417 408 401 392 371 319 293 295 290 
236 226 198 194 230 231 334 443 408 257 194 152 126 122 116 119 114 108 111 115 118 114 117 118 85 56 36 30 80 52 43 44 47 64 79 90 90 84 89 111 114 143 164 148 138 125 122 129 199 284 390 427 422 414 418 418 419 422 423 421 419 423 418 418 416 418 428 429 429 430 419 412 399 391 387 377 330 299 291 282 
255 234 252 263 250 254 501 501 282 198 173 131 122 124 120 116 112 110 113 111 113 119 119 143 121 86 53 31 59 56 47 43 28 48 70 85 81 70 68 84 122 306 298 165 140 125 122 129 189 242 329 412 428 426 416 418 415 416 419 422 418 423 418 414 416 407 429 432 429 422 412 406 397 396 388 382 341 303 285 272 
284 266 442 414 269 263 431 334 214 195 157 126 121 121 113 116 112 107 108 110 112 118 120 142 122 85 51 24 14 38 49 53 48 31 43 64 73 71 67 78 115 273 349 180 136 127 126 125 152 236 286 361 386 406 414 421 417 407 407 412 414 420 412 409 402 401 416 425 423 418 406 402 401 397 391 391 353 300 271 272 
288 301 509 496 270 224 217 209 212 187 137 121 113 113 112 115 105 107 107 110 111 111 120 141 122 84 34 0 9 40 50 59 52 41 28 42 57 62 84 88 110 140 191 149 128 127 125 124 126 197 254 286 318 330 363 391 391 400 412 411 418 416 413 402 402 403 420 425 416 412 404 404 396 396 390 389 359 297 269 263 
279 421 689 495 263 236 230 248 256 176 125 114 113 113 108 109 105 106 109 110 115 112 121 139 120 87 49 34 42 61 53 70 71 60 39 31 52 75 80 95 100 112 123 119 121 122 121 114 112 155 220 240 255 288 309 329 350 389 415 409 417 419 408 400 402 408 411 409 403 400 400 393 397 391 391 394 366 298 276 262 
257 563 876 535 269 346 369 358 295 150 122 105 108 111 110 113 103 103 107 111 113 107 120 135 119 98 69 40 44 40 45 74 81 73 48 42 54 72 80 86 98 100 111 108 111 112 115 112 107 115 183 233 250 272 293 314 343 392 416 425 414 411 410 404 402 385 384 363 342 329 322 319 331 348 370 388 368 301 278 267 
232 447 712 424 247 370 364 355 204 131 112 105 112 110 105 105 103 105 101 110 112 113 121 137 112 71 41 53 58 53 46 47 47 54 44 50 56 53 62 70 74 91 91 97 96 99 107 105 103 96 138 189 214 245 270 298 334 392 423 430 425 402 395 379 343 295 238 197 174 175 168 166 179 201 257 338 353 291 274 273 
219 212 259 262 227 296 359 273 139 113 109 103 111 109 106 108 99 100 104 111 112 111 121 127 116 92 60 48 54 52 49 50 49 42 35 41 48 46 53 57 62 77 90 81 81 88 88 87 82 82 116 146 183 209 232 272 327 395 410 415 400 367 330 264 206 165 147 133 128 133 128 126 122 130 159 259 293 280 275 271 
204 167 181 218 213 244 235 142 104 102 100 99 104 103 100 104 100 99 103 108 109 111 123 132 113 79 48 49 51 43 46 43 39 28 26 36 53 52 56 62 59 61 72 78 76 71 64 63 72 86 108 119 158 160 179 198 230 285 333 313 265 230 191 158 136 122 123 120 119 121 119 113 119 112 131 190 250 265 264 261 
195 163 178 214 202 153 123 93 89 84 87 84 95 99 99 100 98 101 100 106 107 113 118 126 106 55 37 35 50 54 51 46 40 37 20 17 57 68 66 67 65 65 68 69 62 63 78 93 94 90 102 112 145 128 136 146 154 183 189 148 126 116 115 116 115 114 116 113 117 118 114 111 114 107 108 136 187 235 248 260 
186 153 181 210 193 135 110 86 85 79 78 66 80 82 86 95 97 96 103 104 106 111 115 126 101 48 17 11 48 53 55 48 47 43 42 32 53 76 77 75 68 55 56 72 89 94 98 100 96 97 100 107 128 116 105 107 115 176 151 101 85 86 102 112 111 111 114 112 112 110 116 110 114 112 107 110 130 198 246 263 
177 158 191 203 186 114 94 71 78 75 75 67 59 64 70 79 86 93 93 98 105 102 112 121 110 62 31 35 54 51 57 53 47 50 55 39 41 81 102 92 72 83 95 100 99 97 97 107 111 120 103 96 109 104 96 102 98 112 115 85 79 87 103 107 110 111 108 108 107 107 109 109 110 103 107 106 120 183 250 272 
266 266 221 204 174 95 81 62 67 70 65 66 66 69 60 60 64 60 72 80 89 94 100 115 106 78 33 32 49 49 51 52 54 49 59 42 58 97 120 115 114 112 114 117 122 114 117 124 124 129 111 97 109 102 90 88 83 88 80 76 79 90 97 101 104 103 105 107 106 107 106 105 103 98 99 102 120 180 254 271 
392 304 244 212 171 106 77 61 67 60 66 56 64 70 61 62 68 59 62 68 73 77 92 111 101 67 44 49 53 51 45 55 54 49 62 75 92 114 116 123 125 123 121 112 118 125 118 117 111 127 113 101 104 104 85 83 77 79 81 75 75 85 97 98 101 102 105 105 102 108 105 102 102 101 101 101 124 188 249 264 
470 356 238 210 169 112 84 68 69 73 63 52 59 58 54 63 68 72 71 74 70 67 74 97 102 74 71 58 74 81 82 75 71 66 69 82 104 107 113 118 123 124 120 126 117 125 117 112 114 120 111 97 99 91 87 82 80 82 81 80 84 92 100 99 105 101 102 99 103 101 100 103 100 94 97 97 109 174 250 242 
424 310 223 210 189 139 106 87 78 69 55 46 52 55 55 62 67 64 74 71 74 73 78 105 109 100 83 69 83 96 96 93 89 105 121 102 110 113 108 111 113 126 128 122 123 122 118 123 114 117 109 93 98 94 84 89 91 92 93 90 89 97 98 103 101 101 102 101 101 102 99 102 105 96 94 91 98 167 233 231 
298 200 205 202 181 147 110 87 82 76 67 54 59 66 59 61 63 59 64 77 70 61 67 105 115 110 97 65 83 112 104 100 131 226 157 113 109 102 104 104 108 121 131 128 127 131 122 120 118 107 96 87 96 102 100 96 104 98 99 95 96 102 101 101 106 99 100 101 100 100 100 97 98 94 89 85 96 161 219 246 
199 178 208 206 177 150 122 96 89 82 74 70 76 77 65 64 71 63 73 76 82 63 58 96 112 104 87 65 81 119 118 112 146 163 123 116 111 108 108 106 107 118 130 134 129 129 121 121 120 109 108 100 105 116 112 115 106 104 108 98 101 105 105 103 103 102 103 103 106 103 101 95 99 95 91 85 98 150 214 251 
178 180 202 206 172 141 136 112 102 88 81 75 86 89 83 80 79 73 77 84 89 73 68 96 110 104 101 73 80 116 127 114 121 111 123 124 115 108 106 104 100 109 124 127 122 128 124 122 121 115 121 118 113 114 122 116 110 111 108 105 102 103 103 104 102 107 104 108 103 105 101 98 100 96 91 86 88 134 205 245 
175 175 184 189 174 149 137 131 129 117 102 94 99 97 94 94 92 82 82 93 94 85 78 102 113 106 106 90 77 117 131 110 103 100 121 128 123 117 108 98 100 110 118 122 123 127 125 125 128 127 127 124 119 121 122 117 118 117 114 114 105 107 105 107 104 107 104 109 102 102 97 98 98 91 86 86 83 108 158 203 
165 167 179 178 169 162 176 153 152 128 117 109 109 113 110 104 100 88 90 96 99 99 104 111 110 105 116 113 108 150 140 116 104 105 119 124 125 116 112 105 97 93 105 114 123 128 128 129 127 124 125 127 124 119 127 128 145 182 164 129 113 109 106 107 105 108 105 101 104 99 101 97 96 96 86 84 81 82 103 162 
203 188 176 168 163 155 175 169 166 151 128 115 123 126 125 116 119 115 104 109 112 120 122 121 117 112 118 124 120 201 157 123 112 115 130 134 133 126 118 116 107 98 110 120 129 135 133 132 133 131 131 131 127 142 155 188 329 463 345 177 122 110 109 107 103 106 108 107 109 102 103 103 101 92 89 87 89 81 81 117 
225 216 207 205 190 180 183 165 164 150 129 111 123 123 122 128 126 117 119 124 127 136 126 120 118 118 124 127 123 164 147 122 110 114 131 132 132 126 121 118 118 117 119 118 127 138 131 131 131 134 131 128 123 143 158 261 524 590 403 188 119 113 117 110 108 112 112 107 107 111 106 102 102 99 95 96 96 87 88 113 


