P2
80 60
31
19 16 19 18 16 13 18 19 15 12 16 12 13 12 14 16 13 13 15 14 14 13 12 12 10 9 12 7 10 10 12 11 10 10 11 8 5 9 7 8 7 6 5 7 8 8 9 12 4 12 11 15 8 9 8 11 14 10 8 9 8 13 15 10 8 9 12 11 12 13 11 8 5 9 11 12 8 12 7 6 
16 16 19 16 16 16 16 16 16 16 15 13 14 15 15 16 13 17 15 14 15 14 14 15 13 6 10 9 7 11 10 15 12 9 12 9 5 11 5 8 10 9 8 6 6 12 11 9 5 11 9 11 12 15 13 8 11 11 13 12 14 11 11 11 10 8 10 8 10 15 12 10 10 11 10 7 8 10 7 0 
16 17 16 12 16 15 14 17 14 17 19 12 14 15 13 10 16 16 14 14 16 15 11 13 14 9 7 8 10 10 13 10 9 8 10 5 8 14 7 9 6 4 7 7 7 9 8 10 15 12 9 16 12 9 13 14 11 9 13 10 14 10 10 14 12 10 12 12 11 11 14 10 10 13 10 11 10 10 6 3 
17 17 17 17 16 15 16 16 16 16 19 13 16 18 14 14 17 16 16 16 15 14 16 11 11 11 11 11 10 13 13 12 13 12 13 12 4 14 10 6 6 7 10 8 12 11 16 8 10 11 10 16 13 19 13 13 11 14 15 13 14 11 10 15 17 14 11 11 13 14 16 16 12 11 9 8 6 14 11 7 
17 16 19 17 19 15 15 18 15 19 19 16 16 13 12 16 18 16 17 16 16 17 14 15 10 10 12 11 11 13 11 9 12 8 10 9 7 9 3 5 4 10 6 11 11 11 10 10 10 11 13 12 8 15 11 11 13 9 13 14 13 8 12 14 10 9 9 8 12 14 14 9 7 15 13 11 9 10 9 9 
13 15 19 15 19 15 16 18 17 17 16 14 13 16 16 23 14 18 18 18 17 14 16 12 10 10 9 11 9 11 11 9 11 9 8 10 7 11 3 3 6 6 6 12 9 12 12 11 8 10 13 20 10 10 17 11 13 13 15 14 14 13 12 13 12 13 14 12 14 16 13 15 12 13 11 9 6 7 3 3 
15 18 18 13 23 17 17 20 16 16 17 18 13 17 16 17 15 15 18 15 14 14 16 18 12 8 8 12 12 11 11 10 10 9 10 7 8 10 8 4 9 5 8 11 12 10 13 11 11 12 14 12 12 13 12 9 12 15 15 14 12 15 13 14 15 11 12 12 15 14 14 13 9 12 10 11 8 11 6 7 
14 16 16 13 17 15 15 21 15 18 14 16 15 17 12 19 13 18 15 18 19 13 13 16 14 10 10 11 9 11 13 8 13 11 10 9 7 13 5 7 7 6 9 9 12 14 11 11 8 12 10 11 10 12 18 9 14 7 14 12 11 7 16 16 13 8 11 11 13 13 14 13 11 10 9 9 11 8 5 10 
14 19 16 13 19 15 19 18 17 18 19 21 18 16 15 21 18 18 20 16 18 14 14 15 10 13 11 7 9 11 10 12 11 12 9 10 6 7 10 9 5 10 11 9 12 13 9 15 9 12 10 12 9 12 13 13 12 12 16 13 13 11 14 14 13 12 8 12 11 13 16 12 13 9 9 12 8 8 8 7 
16 17 20 12 19 19 18 16 16 14 17 17 12 20 16 16 16 17 14 20 14 17 15 14 12 10 10 9 7 8 9 10 11 9 3 7 3 7 5 7 5 7 7 9 11 13 9 12 12 15 8 16 8 12 14 12 12 11 11 13 11 13 14 15 10 10 11 12 12 11 11 18 13 12 10 9 11 11 4 0 
16 15 18 14 17 16 19 14 14 15 16 16 13 16 13 10 14 18 14 19 13 13 13 16 13 13 12 9 10 12 10 10 15 8 10 8 6 12 8 9 5 8 9 11 11 15 9 9 14 11 13 10 12 12 13 10 13 13 11 14 16 12 15 15 14 12 9 11 8 13 13 11 10 14 14 13 13 10 7 7 
18 19 21 20 18 15 16 16 12 13 18 17 13 19 16 9 18 15 12 17 16 15 15 14 12 10 11 10 11 12 11 10 12 11 10 8 4 8 9 7 9 7 6 9 15 11 8 9 8 10 9 13 9 11 9 10 13 12 15 15 13 11 14 14 12 14 9 14 13 10 12 11 9 13 12 11 9 11 4 7 
16 18 16 17 18 14 17 15 12 14 17 13 14 12 15 13 17 16 16 14 16 14 15 14 14 13 11 11 9 12 12 8 10 9 11 7 9 10 7 7 7 7 8 10 10 15 12 16 12 12 11 13 12 10 16 15 13 13 14 14 10 12 13 16 16 14 10 10 15 11 14 12 9 10 11 10 5 8 6 5 
21 16 18 12 17 14 14 19 17 14 19 15 18 18 12 14 13 16 15 17 17 13 15 13 14 14 9 8 10 7 9 8 10 9 9 9 8 13 7 9 5 7 8 7 11 11 10 10 8 10 8 8 9 8 11 11 11 11 12 14 14 9 13 12 12 14 11 10 11 14 12 11 10 14 7 10 9 10 8 7 
16 17 18 12 16 15 19 18 16 17 15 14 13 17 18 14 14 17 15 15 15 14 13 14 13 9 13 11 9 12 7 10 11 9 11 8 9 8 8 7 5 5 5 8 9 12 9 5 7 12 7 13 8 6 13 9 14 10 12 14 14 10 11 12 13 11 12 5 10 10 11 12 11 11 10 11 8 13 6 5 
15 14 17 14 17 16 16 15 18 17 18 19 14 18 14 16 16 16 18 14 15 15 15 12 13 7 10 9 12 8 10 8 10 8 8 8 9 12 8 8 5 5 4 7 12 10 12 14 7 12 11 12 11 11 11 12 6 12 12 12 13 12 11 14 14 11 11 11 11 14 12 13 12 10 11 7 12 8 9 2 
16 19 17 15 16 16 14 17 12 13 17 18 13 17 16 14 13 16 14 14 17 14 14 13 11 11 11 12 10 12 10 10 9 9 10 8 6 10 7 6 3 7 6 8 10 12 12 10 9 8 11 13 8 9 12 9 6 10 10 12 10 12 12 12 10 15 14 12 12 14 12 11 8 7 9 9 6 7 2 6 
16 15 14 13 17 14 19 18 14 15 17 18 14 18 18 15 16 14 15 16 11 16 13 14 14 12 13 14 11 10 11 14 8 8 7 8 5 10 5 7 5 9 9 7 12 9 12 8 8 10 9 16 9 10 14 10 11 12 10 12 9 12 11 13 14 12 10 10 13 10 13 13 11 10 8 9 10 6 7 4 
17 16 21 11 18 19 17 18 18 18 21 19 13 18 16 17 15 13 16 17 17 14 17 14 13 14 13 13 10 11 11 9 10 7 6 10 7 11 5 7 4 7 4 10 12 12 9 10 5 7 9 13 12 12 16 14 13 13 10 11 9 9 10 10 12 13 13 10 12 11 9 11 13 14 11 7 10 10 5 10 
17 15 17 11 17 17 20 20 14 12 17 18 13 17 18 15 18 15 15 16 14 11 14 15 14 12 9 14 8 8 9 11 8 8 6 7 7 11 6 7 7 8 6 13 11 10 10 10 9 10 10 10 8 11 12 10 9 8 10 7 12 10 8 8 12 11 7 7 7 10 10 11 8 10 8 11 10 10 8 7 
18 21 20 14 19 18 19 19 16 17 15 19 15 13 16 18 16 14 16 16 18 13 15 15 14 11 11 12 9 11 12 11 9 9 6 9 6 8 4 8 6 11 6 10 9 9 9 12 11 12 10 10 10 10 11 11 9 12 12 12 7 11 8 9 15 10 10 15 11 9 12 12 13 18 9 12 9 11 5 4 
16 18 16 13 16 17 18 21 16 14 17 17 15 14 17 14 11 17 17 15 17 17 14 13 15 10 13 12 10 14 10 12 11 8 8 10 7 8 7 8 10 9 7 9 7 7 9 9 7 13 12 13 7 11 8 9 11 8 11 13 10 10 10 11 13 10 15 9 15 7 10 12 9 15 12 12 12 9 6 4 
17 15 16 11 18 16 20 20 18 16 18 12 10 13 15 11 11 15 13 14 17 13 15 13 11 14 15 11 12 14 13 10 9 10 7 6 7 8 7 8 7 8 9 8 7 8 10 10 10 8 10 12 6 7 11 9 8 11 8 9 8 8 11 9 11 9 9 7 12 12 11 8 11 11 10 10 10 8 4 10 
17 14 17 15 17 14 17 19 17 16 17 15 12 14 13 12 11 12 13 11 13 16 13 12 12 11 11 9 9 12 11 9 8 10 7 6 7 9 6 7 8 8 7 8 8 7 8 7 5 7 11 10 5 7 9 6 8 5 11 10 7 9 12 9 10 10 12 8 12 7 10 7 8 12 12 11 11 8 10 9 
15 17 15 18 17 14 19 20 19 20 22 19 17 17 12 13 15 13 14 15 16 15 13 14 13 13 10 14 10 12 12 10 12 12 9 10 6 10 7 9 8 6 5 7 7 9 10 7 7 8 11 10 8 7 9 8 7 5 9 5 7 10 13 10 11 11 8 8 11 14 12 11 9 11 14 9 12 14 7 9 
16 18 16 13 18 14 17 22 19 16 20 16 14 14 15 13 16 16 15 15 15 16 15 15 14 13 13 12 10 12 13 11 13 11 11 12 6 11 11 11 7 10 5 9 7 7 11 8 8 11 9 10 7 10 12 8 10 6 6 8 6 9 13 12 12 11 8 10 11 10 9 14 10 14 14 10 9 13 10 7 
19 14 20 15 17 16 14 17 16 16 16 17 13 12 14 13 15 15 19 16 18 13 14 16 16 11 13 10 10 12 11 12 12 11 7 9 6 9 8 10 6 8 8 11 8 8 13 13 8 13 9 9 6 13 12 10 9 10 12 10 5 5 9 10 11 9 8 9 9 9 12 11 14 15 16 11 13 13 10 13 
15 18 16 10 15 19 18 17 17 16 16 14 16 15 13 14 14 16 17 14 15 16 15 16 14 16 10 12 10 13 12 11 10 10 6 11 8 13 10 11 7 11 9 9 7 9 5 9 10 12 8 8 5 8 8 8 11 8 7 11 10 8 8 11 11 8 11 8 10 10 11 11 8 12 12 10 12 12 11 11 
19 19 17 14 16 16 19 18 16 16 19 15 13 15 14 16 13 12 13 15 18 12 14 16 13 10 10 12 10 13 13 9 10 11 10 10 10 10 10 9 9 11 11 10 8 7 9 10 7 8 8 12 8 8 11 8 8 11 11 10 7 7 11 11 12 7 10 6 12 9 10 10 8 12 11 11 11 15 9 9 
15 18 15 13 16 13 18 19 16 19 15 12 13 15 15 14 16 14 13 15 16 12 14 16 17 13 15 15 14 12 10 9 10 13 13 10 11 11 11 10 8 9 9 13 8 7 7 10 12 9 9 6 7 9 11 9 10 10 11 11 10 10 9 10 12 8 12 6 14 10 15 12 10 15 12 13 13 17 9 10 
16 10 14 15 19 17 16 18 16 20 14 11 16 16 16 17 18 15 12 14 15 19 16 14 17 13 15 14 11 12 14 10 9 12 10 9 6 14 9 11 6 8 7 10 8 7 9 9 12 11 11 11 8 11 7 8 13 9 9 9 10 9 12 12 14 12 8 6 11 13 15 15 12 14 14 9 13 11 8 8 
15 16 19 16 18 15 17 19 19 20 18 15 17 17 18 15 18 15 15 13 17 15 14 12 13 10 10 14 8 12 9 11 10 9 7 9 10 10 9 7 7 10 10 11 11 9 6 7 11 10 8 10 8 6 8 9 8 10 10 10 8 9 11 11 9 12 11 7 10 9 14 15 9 13 10 11 14 9 9 10 
16 16 14 17 15 15 17 16 18 19 16 16 14 15 15 16 17 13 14 14 19 12 14 12 14 15 9 12 10 11 10 11 12 12 9 10 11 11 10 9 7 8 10 10 10 7 8 10 9 11 9 9 7 11 11 7 8 12 10 9 10 10 13 12 10 8 9 9 12 10 13 15 10 15 12 14 12 11 11 11 
18 16 17 17 20 16 19 20 19 18 17 15 16 16 16 14 19 17 17 18 20 18 18 14 15 11 18 14 13 15 12 11 12 13 10 12 7 10 9 12 6 10 9 12 8 10 11 11 10 13 11 7 10 11 15 15 10 9 12 13 14 13 17 10 13 13 12 9 13 11 14 14 12 12 15 12 9 16 11 16 
14 11 14 16 19 17 16 17 18 17 17 14 14 15 16 13 14 13 13 16 19 12 19 12 18 11 13 15 10 11 11 10 10 13 10 10 8 5 10 8 7 11 11 12 11 9 9 10 9 10 8 6 8 8 13 10 8 9 10 10 10 11 11 8 12 11 10 7 10 9 16 11 13 11 13 10 12 14 11 10 
18 15 16 12 18 16 19 20 18 18 16 15 13 11 14 13 13 14 13 17 14 17 16 15 18 11 15 14 10 12 11 9 10 10 12 12 8 9 9 7 7 7 6 12 10 9 12 9 10 11 9 10 10 10 10 10 11 9 10 13 12 11 9 12 13 10 10 7 13 12 13 10 10 14 12 13 8 11 11 8 
15 15 16 13 15 12 17 21 20 19 17 16 15 17 15 13 17 17 13 17 17 16 16 15 14 12 13 10 11 10 9 10 12 10 6 10 11 8 10 6 9 7 8 10 8 8 14 11 8 10 10 9 10 12 10 10 6 7 12 13 12 8 8 10 9 13 9 7 15 10 10 10 14 11 11 11 8 10 10 10 
17 18 18 18 17 14 18 21 20 15 17 16 16 15 16 15 13 16 18 15 16 16 16 16 17 17 13 14 9 15 9 11 10 11 11 8 11 13 11 10 9 13 8 10 8 11 14 11 12 9 10 12 9 8 15 9 11 11 10 9 14 10 10 12 11 10 10 8 13 12 13 11 13 16 12 14 15 13 13 7 
20 20 13 12 19 17 18 21 15 15 22 16 17 16 17 15 17 18 18 18 22 15 16 16 18 14 15 15 12 13 9 9 9 7 5 9 9 9 9 11 9 9 9 10 10 12 13 14 11 11 11 12 8 10 13 9 11 11 12 11 8 8 9 12 12 9 10 10 13 11 12 11 12 13 14 14 12 12 12 14 
21 16 15 12 14 13 19 21 20 17 20 21 15 21 16 15 19 18 19 19 19 15 17 14 15 11 15 12 10 11 9 11 11 10 7 8 8 11 9 9 8 10 9 9 8 10 8 11 9 12 9 9 6 10 14 9 11 8 11 13 11 9 8 8 9 10 11 8 12 8 13 13 14 16 14 13 11 14 14 10 
18 16 20 15 17 17 21 20 18 16 19 15 14 19 22 19 17 20 18 20 16 20 19 14 15 13 15 11 11 11 14 13 11 11 7 9 11 9 9 7 11 10 10 10 12 12 9 12 11 11 8 9 6 8 13 12 7 9 15 11 9 10 9 11 9 10 12 8 11 11 14 13 8 14 14 14 10 15 14 11 
18 18 20 15 20 17 17 18 17 18 17 16 15 13 17 16 17 16 14 18 15 14 17 16 14 14 12 13 13 11 13 11 8 11 9 9 8 8 8 10 7 9 9 13 15 10 11 9 10 10 10 7 6 9 10 11 9 8 8 8 11 9 9 10 10 12 11 11 12 11 13 11 12 14 11 10 13 14 12 10 
21 20 22 18 19 18 17 23 21 16 19 19 16 18 16 17 16 20 19 18 15 16 17 15 15 12 15 14 14 14 12 10 12 9 9 10 10 10 10 11 12 10 13 13 11 9 11 14 12 9 7 8 9 8 11 8 8 9 8 9 11 9 9 10 10 14 9 10 11 9 13 13 10 14 12 11 14 14 11 13 
20 19 20 17 20 15 18 22 17 15 18 16 17 17 17 17 18 12 21 22 19 17 16 13 12 14 15 11 13 15 11 14 9 11 11 12 8 12 11 12 11 9 12 12 12 10 10 12 10 12 10 11 9 11 10 7 7 10 9 7 8 8 12 11 13 10 10 11 10 10 11 11 13 13 16 15 13 17 14 14 
20 20 20 24 22 17 17 21 16 17 17 17 16 17 19 16 17 18 20 16 16 15 15 16 15 14 13 12 15 16 13 11 10 12 10 12 10 12 14 10 11 11 10 10 13 10 9 12 12 9 9 10 10 8 9 6 9 10 11 8 13 10 13 8 13 9 11 10 12 12 13 13 8 14 17 15 9 17 16 12 
19 20 23 18 18 18 21 21 17 20 20 14 18 19 18 18 19 19 18 19 17 15 15 14 15 13 14 15 15 12 12 10 11 11 12 12 12 13 11 10 10 14 11 12 13 12 11 13 13 10 12 9 9 11 15 11 9 12 12 11 11 14 11 15 11 14 10 9 14 17 17 12 12 14 15 16 14 20 14 16 
18 18 23 19 18 14 13 21 18 22 21 16 16 19 17 20 18 18 22 16 16 13 18 15 15 13 17 13 12 14 12 12 13 10 13 11 8 11 9 9 11 12 11 14 16 15 12 12 12 15 12 14 10 11 12 9 8 8 11 11 13 10 11 12 15 15 12 11 11 13 15 18 10 17 12 17 16 18 15 14 
23 20 24 20 19 19 19 21 22 25 22 20 20 20 19 17 16 17 20 18 19 19 16 14 18 14 15 16 10 14 15 15 14 15 12 12 11 13 11 12 14 12 13 16 17 13 14 14 15 14 13 13 11 12 9 11 10 11 12 12 14 15 14 12 12 16 13 10 11 12 15 14 15 14 12 21 14 15 13 13 
16 18 21 19 21 18 17 23 22 25 20 14 18 20 18 18 17 21 21 18 17 15 14 14 16 11 15 11 11 15 15 14 14 14 11 12 10 13 12 15 14 10 12 12 13 16 10 14 13 11 11 13 11 13 9 9 12 9 11 11 11 15 12 12 13 14 11 11 12 12 14 16 16 17 13 17 14 18 12 13 
20 19 19 21 20 16 18 21 23 19 19 17 15 17 16 18 19 18 19 16 18 12 16 15 15 14 13 13 16 11 14 13 12 11 10 10 10 11 10 13 12 12 14 14 13 11 10 9 13 9 9 13 9 12 12 13 12 13 11 9 16 15 12 11 8 15 12 12 16 14 13 15 11 18 16 15 12 15 12 11 
19 19 20 20 19 18 19 21 17 22 17 16 19 20 20 17 17 21 16 18 18 20 16 15 15 14 13 14 12 15 12 14 12 13 14 10 11 13 14 14 13 15 13 17 14 9 13 9 13 12 11 14 9 12 12 8 11 12 11 13 16 10 11 11 15 11 11 12 14 13 15 16 13 18 17 17 11 16 16 14 
22 22 26 24 23 18 19 23 27 25 19 17 18 22 20 18 19 18 17 19 20 18 15 15 16 16 14 15 15 16 11 13 12 14 14 13 14 14 13 11 17 13 12 13 15 13 10 10 13 11 14 13 11 16 8 10 10 8 10 10 10 13 13 14 10 13 14 15 16 15 14 13 15 15 15 17 12 15 16 12 
17 25 20 17 28 22 20 24 22 27 22 19 20 23 19 23 19 22 20 19 21 19 14 15 18 15 20 15 16 14 12 15 12 15 14 14 10 13 15 12 16 10 14 13 14 14 11 11 13 12 14 15 11 15 10 11 9 14 11 11 12 13 13 15 17 13 14 14 18 19 15 16 18 17 14 15 14 20 17 15 
21 20 21 21 27 22 22 21 19 24 24 20 21 21 20 18 19 20 21 22 19 18 14 18 19 16 20 17 12 14 16 13 14 15 12 14 13 15 12 15 15 15 15 13 13 8 13 17 14 12 13 15 9 13 12 13 14 13 17 16 17 14 18 17 16 16 18 18 17 20 19 18 16 16 15 14 16 18 22 16 
24 20 24 19 24 23 25 23 21 21 22 24 24 22 22 21 19 21 23 19 19 20 19 16 20 22 22 20 16 17 18 17 12 17 16 15 13 16 12 20 17 18 18 13 16 13 17 20 13 16 17 19 16 20 17 18 18 14 15 17 22 21 21 20 15 13 20 20 24 18 20 18 12 20 20 20 18 18 22 17 
30 26 26 25 29 25 23 27 29 24 24 27 22 23 26 23 22 24 21 21 21 22 17 20 19 22 25 21 17 15 16 16 16 16 18 19 16 17 16 19 13 14 19 18 17 13 16 15 20 17 19 17 14 20 19 18 20 19 16 17 14 18 20 18 16 21 17 16 14 17 19 19 14 20 22 24 21 17 22 20 
27 27 23 23 29 22 25 30 30 31 26 23 24 24 24 18 22 28 22 21 24 22 22 22 18 20 24 17 19 15 18 15 12 15 15 23 17 20 14 16 18 18 14 18 18 13 16 17 19 18 19 22 15 15 18 22 19 19 19 21 18 17 18 15 18 18 20 21 20 18 24 22 18 23 20 21 19 25 17 28 
19 23 23 21 24 23 23 31 29 20 23 22 20 21 17 23 22 25 21 21 21 21 18 24 20 21 21 18 17 20 17 20 19 16 13 15 16 19 18 16 15 17 13 18 15 14 16 19 19 17 16 26 17 17 21 21 20 19 19 17 17 18 20 15 22 21 19 18 22 19 19 22 17 21 26 17 26 21 21 18 
27 23 26 24 24 22 21 27 23 24 24 21 22 22 19 19 19 20 20 22 19 23 19 19 20 16 21 20 17 18 19 13 17 15 14 15 13 16 15 18 16 19 13 17 14 16 17 17 18 20 17 20 17 12 19 17 17 16 19 18 21 19 21 19 19 19 21 15 19 19 18 17 17 22 17 20 20 25 13 20 
27 29 28 25 26 23 23 28 26 26 22 22 21 20 19 21 21 20 22 20 22 22 21 21 24 20 19 20 15 19 20 21 19 14 17 15 11 20 17 18 22 19 18 15 16 15 18 18 20 19 14 20 15 19 17 16 19 20 19 18 20 20 25 19 16 17 22 20 19 18 23 26 19 22 20 22 21 23 17 20 


