P2
80 60
46
8 6 5 6 13 6 6 5 4 5 5 9 5 6 6 5 5 4 5 3 6 7 8 8 10 5 8 6 11 5 5 10 10 11 10 13 14 13 15 14 18 16 16 18 15 12 14 17 18 18 16 18 21 22 18 21 23 26 23 22 21 27 25 26 25 27 30 27 26 27 27 29 31 31 32 29 35 29 41 32 
7 7 8 7 11 12 4 6 5 6 5 7 6 6 4 12 11 3 7 3 5 10 8 7 7 10 11 10 11 10 12 9 12 13 10 13 13 16 17 15 15 14 17 16 16 12 16 17 21 18 16 18 19 22 21 24 25 25 23 22 26 31 29 28 29 27 30 28 26 30 31 31 30 30 29 35 32 34 35 30 
7 7 6 6 12 5 6 9 3 5 5 6 5 3 6 6 8 3 5 3 5 7 4 7 7 7 9 5 9 10 11 11 9 12 12 15 15 16 15 12 15 13 15 13 12 13 11 15 16 16 14 17 18 22 21 21 22 23 23 23 22 30 29 25 25 29 28 27 28 28 31 31 27 32 28 31 35 32 39 30 
8 7 2 5 9 7 2 8 5 4 5 3 4 4 2 5 5 2 3 4 5 10 6 3 5 7 9 8 11 10 6 5 8 9 11 13 12 14 12 12 13 16 15 13 14 13 14 15 18 17 17 16 16 23 23 23 20 21 24 24 20 25 27 23 23 27 29 26 29 29 31 24 28 30 28 29 31 28 34 28 
5 7 4 6 7 5 3 5 6 3 2 5 6 5 6 6 4 3 3 5 2 7 5 2 9 8 6 5 7 7 6 6 8 10 12 11 13 14 10 12 10 10 12 15 13 12 14 13 16 14 17 19 16 22 19 20 21 23 20 23 21 23 25 28 29 28 32 28 29 33 29 28 30 29 28 28 33 31 34 26 
4 5 9 5 10 1 3 5 7 4 4 3 7 7 2 9 3 3 2 3 6 8 7 7 5 7 12 7 5 6 8 7 8 11 8 13 13 14 13 11 10 11 14 13 12 15 15 13 12 13 14 16 19 19 21 26 23 19 21 22 23 25 26 28 27 30 29 25 27 30 31 28 29 30 31 24 29 30 34 28 
7 6 6 9 9 8 4 4 10 9 8 6 3 2 4 4 7 8 2 6 1 8 7 12 9 7 12 6 7 7 6 7 9 9 8 11 12 17 14 11 12 11 14 14 14 15 14 13 17 15 14 15 17 22 21 21 25 26 25 21 24 28 26 28 30 30 30 26 27 32 33 30 33 31 32 32 33 35 41 30 
11 6 8 6 9 2 7 4 7 6 5 4 4 3 2 3 6 6 4 5 4 5 3 6 5 9 7 6 8 5 4 4 9 8 9 10 12 12 11 10 11 9 10 15 12 8 13 13 11 17 16 17 16 18 21 20 22 24 20 22 19 29 28 30 27 27 30 26 26 30 31 32 31 30 30 32 31 35 40 30 
11 8 6 8 10 7 5 9 6 11 5 7 4 4 3 8 4 5 3 7 4 8 6 5 6 6 8 5 7 7 7 5 9 8 8 12 12 13 13 8 11 12 11 12 13 12 14 14 16 18 16 19 18 20 21 20 20 21 23 19 25 27 26 28 27 29 30 30 28 33 31 31 31 31 26 33 30 34 41 29 
10 10 4 6 7 6 6 3 9 8 4 5 2 0 5 5 9 4 3 7 7 7 5 4 6 6 8 5 6 9 7 9 6 7 11 13 12 8 10 7 13 10 11 13 9 10 11 14 15 16 16 14 16 21 17 18 21 22 22 22 23 26 23 29 29 27 28 29 30 34 32 29 27 33 31 31 33 32 34 33 
9 9 10 7 9 7 5 3 9 6 7 0 7 1 5 7 2 6 3 8 8 9 7 6 8 8 8 5 4 7 6 7 9 10 9 12 12 7 11 8 12 13 14 12 11 10 13 13 17 17 18 18 15 18 18 20 22 21 23 22 19 24 25 26 27 26 26 28 31 32 34 30 28 33 29 31 34 32 40 33 
12 8 8 9 8 10 7 6 6 7 4 1 9 6 5 5 9 4 7 3 4 9 6 10 7 5 9 5 5 8 9 7 8 9 10 13 11 8 9 13 11 12 18 16 15 10 15 18 19 16 21 15 17 19 19 20 26 22 22 21 25 24 25 27 30 28 24 26 29 32 33 30 27 29 39 33 39 39 33 30 
14 13 5 8 12 7 8 13 8 4 2 2 9 8 1 9 6 4 7 5 6 6 6 5 3 8 8 9 8 11 7 6 10 7 8 13 8 10 14 11 11 11 11 11 12 14 18 18 17 18 14 20 13 20 18 24 23 24 22 23 19 26 26 26 32 29 30 29 27 38 30 31 33 32 33 32 36 37 46 34 
7 4 3 5 9 8 5 8 2 3 1 0 7 3 3 5 7 0 0 3 3 9 4 3 2 2 5 6 9 9 6 5 7 10 7 9 10 11 12 9 12 12 10 12 10 10 12 14 16 14 14 12 15 16 19 21 23 20 17 20 21 27 25 26 27 28 24 26 25 30 33 26 26 29 27 31 33 36 39 31 
12 7 6 12 11 10 6 6 5 9 4 2 4 3 3 5 7 2 6 6 6 8 8 6 4 8 5 8 8 10 6 9 10 12 10 10 8 12 17 10 13 11 12 8 12 7 13 13 16 17 14 16 13 17 21 24 22 22 22 20 18 28 23 28 28 26 24 25 27 33 31 28 26 29 31 32 34 32 36 34 
10 5 6 6 11 6 9 8 7 3 5 3 5 4 3 7 8 4 5 9 3 8 9 7 5 6 8 10 12 10 5 7 9 10 8 9 7 10 16 9 8 12 7 14 12 11 12 14 14 17 17 14 15 19 19 21 19 21 27 21 18 26 22 27 26 28 24 25 26 29 26 29 26 30 31 27 35 31 34 34 
11 10 7 7 10 14 8 11 9 1 6 5 5 1 2 4 6 7 5 3 5 10 6 5 3 5 10 5 6 5 6 8 11 7 9 6 8 11 12 9 9 17 16 10 14 11 10 10 17 14 12 13 16 19 17 19 18 22 17 17 22 26 25 26 25 26 26 26 26 26 32 23 24 29 28 34 35 34 36 32 
7 5 8 8 14 6 6 5 14 4 7 10 6 4 3 6 5 4 2 6 3 9 11 8 7 11 9 7 5 5 7 7 3 10 7 6 11 11 13 9 12 11 12 11 10 10 14 17 14 13 12 16 13 15 18 17 21 22 19 19 16 23 26 26 26 26 25 24 27 30 31 22 25 26 27 26 31 33 31 30 
8 8 8 11 12 7 5 9 9 6 3 7 7 5 4 9 6 2 3 4 4 7 8 9 6 6 9 7 2 5 6 5 8 9 6 5 10 12 16 13 12 9 11 10 11 9 7 16 13 12 10 12 15 20 18 21 18 17 19 18 14 23 22 26 25 24 21 24 25 32 25 26 24 27 22 27 25 33 31 24 
9 10 6 7 12 2 8 7 11 2 8 1 6 7 8 8 10 6 1 1 4 9 8 5 5 7 8 6 6 9 3 5 8 5 8 8 8 8 13 8 14 9 9 11 11 9 12 12 14 12 13 14 16 17 18 18 15 19 18 20 19 23 23 23 23 22 27 23 22 33 25 24 25 26 27 26 32 29 30 30 
14 5 3 11 13 10 7 10 9 4 12 9 10 6 8 13 11 8 2 4 5 12 7 6 4 9 9 6 3 8 7 7 5 9 9 6 7 10 12 11 14 13 15 12 10 13 14 12 15 13 11 14 17 20 17 18 19 20 17 22 23 26 24 26 24 28 25 25 27 25 25 27 29 31 24 28 35 29 29 28 
10 6 5 10 11 11 5 7 10 4 11 8 9 8 6 10 7 5 3 5 7 7 6 7 6 11 7 5 5 5 6 8 6 7 6 7 7 8 8 8 16 11 11 11 12 9 12 13 13 14 12 12 15 18 15 21 21 24 21 16 15 25 25 25 24 25 27 25 24 26 24 28 26 29 27 31 34 31 30 23 
10 8 3 3 16 9 10 4 7 6 9 7 10 10 7 9 10 9 5 6 5 10 10 11 5 6 10 5 8 5 2 6 5 8 6 8 6 11 11 9 14 12 11 12 12 8 14 14 15 12 13 12 11 16 17 21 24 23 20 16 16 22 21 24 21 26 24 26 23 28 27 26 29 27 29 27 32 25 29 26 
10 6 8 5 14 7 4 10 8 5 9 7 7 5 6 6 11 5 4 6 6 4 10 13 7 7 7 5 4 4 4 8 6 8 7 8 6 12 11 12 13 11 12 10 11 11 16 16 18 14 13 17 13 17 15 17 17 19 18 16 18 22 23 20 26 21 25 23 25 25 25 26 25 30 27 30 34 30 29 27 
9 10 10 10 13 12 12 11 8 8 13 6 10 10 14 10 11 9 4 4 7 11 13 10 8 7 9 8 7 3 5 6 10 9 2 7 10 12 11 11 10 9 11 9 14 14 15 13 16 15 15 16 12 18 19 17 22 19 19 20 16 27 22 23 28 23 24 25 24 31 20 24 26 28 29 25 33 32 30 26 
15 13 11 17 14 10 10 9 8 9 7 11 10 7 9 10 13 12 3 3 8 10 5 11 7 6 10 6 5 6 0 5 5 9 7 11 9 11 14 10 11 9 13 11 12 12 12 13 14 15 12 16 15 19 19 24 22 18 19 18 20 22 21 22 22 25 23 23 25 22 20 21 23 29 25 27 33 33 30 22 
6 9 10 7 13 8 8 6 10 5 6 6 4 5 6 7 12 4 5 7 4 5 5 6 6 4 5 4 5 4 4 0 3 7 8 5 7 10 10 9 10 7 11 9 11 12 13 12 13 12 10 13 12 14 16 18 19 16 17 13 17 17 19 21 20 23 22 26 25 25 23 22 23 26 23 25 27 25 32 18 
11 9 8 7 13 8 7 9 10 5 9 9 9 5 6 7 4 6 7 5 3 5 4 4 5 3 3 2 5 5 2 3 5 7 6 8 6 11 12 11 11 9 11 10 13 10 12 10 14 12 8 10 14 16 17 14 16 17 16 14 15 20 15 17 16 21 22 24 20 21 22 23 19 22 21 23 27 25 30 22 
10 4 7 6 12 11 8 6 7 5 6 9 6 6 8 9 7 5 7 5 4 7 4 2 4 2 4 3 4 5 1 1 7 9 5 6 8 9 11 9 11 11 11 9 12 12 13 13 10 9 10 12 15 13 16 13 15 13 20 17 16 21 20 16 20 18 24 23 22 21 22 19 22 23 25 24 23 25 30 25 
7 8 12 11 12 13 8 7 7 7 10 7 6 6 9 7 6 4 6 5 7 7 5 7 5 4 3 4 4 2 2 7 4 5 4 8 9 12 11 11 10 8 8 9 10 10 12 13 12 11 13 11 13 15 17 15 13 12 15 17 16 22 17 20 19 20 18 23 19 22 19 20 22 24 24 21 23 21 27 21 
6 10 11 9 12 9 9 9 11 10 7 11 6 5 7 9 6 4 7 2 6 9 6 4 6 8 7 5 5 3 2 3 3 1 7 7 11 12 14 9 12 8 9 9 13 12 11 10 14 12 10 12 12 15 15 19 15 15 18 16 16 23 21 20 18 18 19 19 18 23 17 19 18 24 20 22 28 27 26 27 
10 11 10 7 8 8 6 7 7 7 8 9 8 8 8 11 8 6 8 5 7 11 7 5 10 6 13 6 6 8 2 6 4 6 7 8 9 12 12 10 12 10 10 11 15 10 11 9 15 12 13 14 12 11 16 15 21 15 15 12 18 21 15 16 19 17 20 17 16 21 18 19 17 22 23 28 22 26 24 27 
11 10 9 16 11 12 9 10 13 9 10 10 13 5 9 10 9 6 7 11 8 9 8 8 9 7 12 5 6 7 9 8 12 5 8 12 9 14 14 10 15 9 12 10 12 10 11 9 16 14 13 16 9 15 15 17 19 19 14 13 13 20 18 19 18 21 19 19 16 18 18 18 19 21 24 27 24 25 30 26 
7 11 9 15 15 12 10 11 12 10 14 14 13 9 12 13 11 9 10 11 9 11 7 8 8 10 12 12 10 7 6 11 11 10 6 8 8 17 16 12 13 10 13 15 16 13 12 14 17 16 15 18 15 17 15 22 17 16 17 14 17 20 18 22 20 21 22 21 20 21 21 17 22 22 22 24 21 25 26 23 
9 8 7 10 12 10 10 11 12 10 12 9 12 11 8 11 10 9 9 14 6 11 13 9 11 6 8 13 13 9 6 7 8 11 8 8 10 13 15 11 12 13 11 12 16 14 12 10 12 15 11 16 14 18 20 15 17 17 15 14 16 20 15 16 20 24 20 20 18 22 23 21 21 22 20 18 23 26 25 22 
7 3 9 8 11 12 7 11 9 13 10 10 12 9 7 12 10 8 8 8 9 9 6 10 5 6 8 10 8 8 6 9 7 8 9 9 11 13 8 12 13 13 15 13 11 12 11 11 13 10 13 12 14 17 16 14 17 16 17 13 18 18 13 16 17 17 15 17 18 18 20 18 20 18 21 19 21 27 23 22 
10 5 10 9 14 13 8 8 13 11 17 10 15 8 8 14 8 11 9 11 10 14 7 10 11 11 12 9 11 11 11 12 11 8 9 12 13 11 11 12 14 14 14 15 14 12 15 14 14 14 13 14 15 17 14 18 16 18 17 16 17 19 15 17 18 19 20 18 13 19 18 19 19 20 20 20 24 26 23 18 
9 9 8 12 13 8 11 10 12 13 16 15 13 6 11 11 9 10 13 13 12 10 8 10 12 11 14 11 10 15 13 11 9 7 8 13 12 15 10 12 10 13 16 11 13 13 18 10 12 14 13 15 15 17 13 13 18 19 18 17 13 19 14 15 19 19 19 19 17 16 20 16 16 18 21 22 23 18 21 14 
10 5 8 11 10 10 8 11 16 12 16 10 14 9 11 10 12 12 10 13 9 8 7 10 12 11 12 9 12 14 7 10 10 10 10 12 13 12 15 9 11 10 15 12 10 13 15 14 14 15 10 18 15 14 16 20 22 18 17 14 17 19 19 16 20 16 18 12 11 21 18 16 16 19 17 20 20 21 26 23 
8 7 12 9 12 11 9 12 12 13 14 14 13 13 15 18 15 12 10 14 10 13 10 9 10 11 11 8 14 11 10 12 13 11 11 9 15 16 16 14 15 14 16 14 16 12 17 15 16 14 14 15 17 18 17 15 19 15 19 16 13 19 17 15 20 15 18 14 16 22 17 14 18 17 18 23 18 26 23 19 
8 8 5 12 12 15 11 13 16 13 11 15 10 12 15 16 16 10 12 12 14 16 10 11 9 13 12 14 12 13 11 10 16 16 13 15 12 15 15 13 16 16 16 15 14 14 15 19 19 15 17 15 16 18 19 18 20 21 21 14 15 18 17 19 16 12 19 19 16 20 19 20 17 21 18 17 20 24 28 17 
8 9 9 11 11 13 12 15 14 14 16 12 13 11 16 15 13 13 13 14 14 18 12 14 12 10 14 11 13 16 13 13 16 16 16 14 12 18 16 15 17 14 14 15 15 14 16 16 17 17 18 16 16 18 17 18 17 21 20 18 17 15 18 16 15 22 18 21 21 23 17 17 18 20 17 19 23 24 27 20 
8 10 9 15 11 11 11 10 16 16 13 14 14 17 13 12 15 12 14 11 15 15 14 16 12 12 15 13 14 13 12 10 15 15 16 15 17 18 20 16 19 15 17 15 15 13 17 16 17 17 19 20 16 17 16 15 19 16 17 18 15 16 17 18 19 23 22 21 17 23 22 20 19 21 21 21 18 26 28 17 
9 11 10 14 16 13 9 10 9 7 13 12 13 11 15 17 14 12 14 14 14 14 14 14 14 15 15 13 16 13 12 12 12 14 17 17 18 18 15 18 15 17 15 16 15 13 15 15 17 17 17 21 15 16 13 13 18 18 16 16 16 19 17 19 19 16 15 17 14 17 18 13 17 20 20 17 21 20 29 24 
9 12 9 10 12 12 9 9 12 10 13 16 14 14 13 17 18 12 16 15 13 13 15 15 18 17 19 13 15 14 14 12 14 14 16 17 17 17 17 16 18 17 18 17 17 15 16 18 20 16 18 18 14 17 18 15 20 14 17 16 14 19 21 19 20 19 14 16 15 20 14 15 20 16 20 19 22 21 21 24 
10 11 10 16 16 19 10 12 10 12 14 12 16 13 12 12 14 16 17 15 16 14 15 15 20 20 20 16 16 15 16 14 18 17 16 14 18 18 17 16 17 17 17 15 17 17 17 15 17 20 17 16 16 17 18 15 19 19 19 16 17 20 20 20 18 19 18 17 16 20 18 20 19 21 19 17 25 24 22 13 
10 9 7 14 16 15 8 9 17 13 14 14 16 13 15 16 18 17 15 17 16 16 15 16 15 19 19 19 18 16 14 16 19 18 19 17 18 20 18 17 15 16 13 16 18 17 17 18 18 17 15 22 18 19 17 19 22 24 20 16 16 20 21 17 21 23 16 23 18 18 20 21 23 24 19 18 24 22 29 21 
10 11 11 15 15 12 14 13 16 11 15 18 18 18 15 18 22 18 16 19 18 17 15 18 18 16 18 16 19 18 18 18 22 20 21 20 16 21 18 14 15 18 15 18 18 14 19 19 20 20 19 18 18 19 20 19 21 21 19 15 17 21 22 21 21 23 24 20 16 21 21 21 21 23 20 22 24 23 31 25 
8 10 12 14 15 15 16 14 16 13 11 16 16 17 15 22 21 17 17 15 18 20 19 18 18 18 20 16 19 18 16 19 21 23 18 19 21 22 20 16 17 18 18 18 16 14 17 18 19 22 18 18 19 20 21 20 19 25 22 21 18 18 22 23 24 25 21 21 19 19 21 24 22 24 22 24 25 23 28 23 
10 8 10 9 14 15 13 15 18 15 16 18 18 15 18 18 18 17 16 11 18 18 17 16 18 18 18 17 18 18 18 19 21 24 17 20 18 19 17 16 20 18 17 17 16 14 20 19 18 20 18 18 17 19 17 18 22 22 22 17 20 20 21 19 19 23 19 17 22 23 25 20 20 21 21 18 23 25 23 25 
14 11 11 13 12 12 13 12 16 16 16 13 18 17 16 19 16 19 16 17 15 19 15 16 16 17 18 19 18 18 19 19 21 22 19 18 18 22 19 14 18 20 17 17 15 16 16 16 20 18 17 20 19 19 17 17 24 17 21 22 18 22 20 19 18 20 20 18 21 22 21 17 20 20 21 17 23 19 24 16 
8 10 10 12 14 13 13 13 13 14 15 15 17 14 18 15 17 16 17 15 19 17 18 19 19 18 17 18 21 19 20 19 18 21 21 17 18 19 19 18 14 15 18 17 17 16 14 15 20 19 16 16 18 20 19 21 21 20 21 23 19 20 20 26 19 21 20 17 17 22 19 23 18 22 20 24 24 23 27 16 
13 13 14 9 17 18 13 14 16 14 13 17 16 14 13 17 19 19 15 17 17 21 19 19 20 19 21 18 21 24 19 20 20 21 17 22 19 19 18 16 16 17 18 17 16 13 14 16 18 18 18 20 21 22 21 18 21 19 21 22 18 17 19 21 21 22 22 14 17 23 22 17 18 23 23 21 24 24 26 24 
12 14 13 14 19 18 16 17 21 16 20 18 18 14 18 22 18 17 19 17 20 20 21 18 20 25 24 24 21 23 22 21 22 19 19 19 19 20 19 15 16 15 15 20 18 15 17 14 19 19 21 22 21 20 21 18 21 22 20 21 23 24 23 23 25 27 20 21 21 21 25 21 22 26 25 21 28 25 33 26 
14 14 15 15 14 13 17 16 20 18 17 16 15 20 21 23 21 17 19 23 21 22 17 19 23 22 25 21 21 23 22 24 19 19 21 17 17 18 16 18 20 18 17 17 18 17 19 15 20 20 19 21 21 26 22 23 23 23 21 23 20 24 23 23 23 22 24 23 23 24 24 24 23 31 25 29 26 29 31 32 
14 15 17 16 17 20 17 20 24 19 22 21 23 18 24 27 23 25 23 23 24 27 24 23 24 25 28 29 26 21 25 24 20 21 18 21 23 20 20 19 20 19 20 23 19 18 19 18 23 23 17 23 24 25 26 23 25 25 25 23 22 25 25 26 27 25 25 26 24 29 24 23 24 26 31 23 30 28 34 29 
13 14 11 16 22 18 16 21 21 24 21 18 19 19 25 24 22 21 21 21 25 28 25 23 27 24 28 27 22 23 22 21 21 24 22 24 22 21 17 19 21 20 21 22 20 21 20 18 23 22 21 23 22 25 22 22 26 22 25 20 24 26 24 24 25 27 25 28 28 25 24 25 26 26 27 28 28 28 35 26 
17 20 16 20 16 18 16 18 19 18 21 17 19 18 21 23 23 21 24 25 26 26 26 28 28 26 27 21 26 21 21 19 22 18 19 23 20 20 20 16 20 20 19 19 19 24 23 23 20 22 21 21 21 26 22 21 23 27 22 25 26 23 22 25 25 27 31 28 31 28 26 29 27 25 28 29 27 28 36 30 
16 17 16 14 17 21 19 12 23 16 20 18 22 20 22 24 21 24 21 24 26 29 24 25 28 27 23 24 23 24 20 18 23 18 17 22 20 19 18 16 19 21 22 19 20 22 22 22 21 20 20 25 23 27 25 21 24 26 25 21 24 23 24 27 26 30 27 26 27 29 32 25 23 27 28 25 31 30 37 31 
21 25 19 16 21 19 20 21 23 22 23 16 22 19 24 23 28 23 25 23 26 25 25 27 27 22 26 25 24 24 21 23 22 18 17 19 22 22 20 17 20 20 25 22 20 22 23 25 23 26 22 25 29 29 29 26 28 28 26 24 22 27 24 29 31 34 28 26 28 30 30 29 23 27 29 30 28 30 34 37 


