P2
80 60
35
18 15 13 20 17 16 17 15 21 21 17 23 21 23 27 21 23 22 20 22 22 25 25 27 23 25 26 24 25 23 26 23 23 24 28 24 28 28 23 24 25 23 23 27 25 23 24 26 20 22 22 21 25 23 18 22 23 20 19 21 18 16 20 21 17 19 17 22 18 19 14 18 17 15 15 14 15 10 8 3 
15 15 14 20 17 18 19 17 16 21 20 22 23 25 24 25 24 23 23 22 23 26 29 24 25 24 26 26 27 22 26 26 25 24 24 24 23 26 23 24 26 24 22 25 23 22 22 24 21 19 19 22 22 22 24 24 26 22 24 23 21 19 19 18 15 16 18 22 19 20 14 14 15 9 16 12 16 12 10 2 
18 16 15 18 20 19 19 19 19 24 22 24 23 25 23 26 27 23 24 21 25 27 27 29 30 26 26 30 28 28 26 26 29 25 26 23 25 27 25 26 26 27 26 24 27 25 24 22 24 21 27 25 22 22 22 22 26 23 23 23 18 19 21 22 19 24 17 24 23 22 16 10 15 11 15 14 17 15 14 6 
18 19 13 17 16 17 19 21 19 21 21 20 26 27 27 24 23 23 23 23 24 25 28 28 25 24 25 26 28 28 25 26 23 24 26 26 27 29 25 25 25 26 23 24 20 24 24 24 20 24 23 23 21 23 24 23 28 24 22 21 18 18 20 19 19 22 17 18 21 20 17 22 12 13 16 12 15 16 11 6 
16 18 15 16 19 20 19 19 21 22 22 22 24 21 26 22 24 24 23 23 23 25 23 24 23 26 24 25 29 23 27 28 25 27 23 26 26 26 26 27 23 25 25 22 25 24 26 23 21 25 25 23 21 22 25 25 25 25 23 20 21 22 20 16 18 18 17 20 20 19 20 13 17 16 15 16 16 17 12 3 
19 21 16 17 17 19 22 19 18 21 23 24 22 28 27 26 26 23 22 24 25 27 26 26 25 24 27 25 28 27 24 26 24 28 26 28 30 28 27 25 26 26 24 25 25 26 25 23 23 23 25 25 25 26 26 26 24 25 18 20 21 19 18 20 22 20 18 22 20 19 20 18 16 16 18 16 18 10 10 7 
20 17 16 20 16 17 21 18 19 23 23 23 24 26 26 26 26 23 23 23 28 28 29 25 27 29 27 29 26 27 29 26 23 28 23 26 28 31 28 25 27 28 24 24 23 26 26 24 25 25 27 25 25 26 27 25 24 26 21 20 18 23 22 21 23 22 21 25 24 18 22 21 19 17 16 17 16 14 14 8 
17 19 13 22 18 22 20 20 19 22 24 19 26 26 28 28 25 28 24 26 25 29 26 26 29 30 30 30 29 28 27 28 28 30 26 27 27 33 28 25 26 25 25 29 26 27 25 27 23 25 26 21 24 24 27 23 25 23 22 22 23 20 22 21 24 20 18 23 20 20 21 15 19 16 19 17 20 14 16 7 
18 17 18 22 24 20 23 22 22 23 19 25 26 24 30 30 27 26 25 27 25 30 29 29 29 29 30 30 29 29 29 26 26 28 27 28 29 30 27 24 25 23 24 27 25 28 23 24 25 24 30 26 23 24 28 24 27 26 24 24 24 22 23 22 18 19 24 23 23 23 20 20 19 19 19 16 19 14 12 10 
19 19 21 22 21 21 23 22 20 24 23 25 26 28 27 26 29 30 26 27 32 28 24 28 27 27 29 27 27 32 28 25 24 28 27 28 29 26 28 28 27 25 27 25 30 28 28 26 25 25 25 27 29 28 28 30 27 25 26 22 23 23 20 20 21 21 22 22 21 21 21 18 20 20 17 16 18 17 13 8 
22 23 21 20 23 22 25 22 21 23 24 28 29 29 27 26 31 29 27 23 25 26 27 28 30 31 26 28 29 33 29 25 25 26 25 25 30 30 27 27 25 25 28 26 30 30 30 29 26 26 24 25 29 25 25 26 28 25 22 27 22 24 22 22 24 23 22 25 23 22 20 20 23 20 18 17 19 19 13 10 
20 23 21 22 23 22 24 23 25 25 25 27 30 30 30 27 29 29 25 28 29 29 27 27 28 31 28 26 30 28 27 26 28 29 31 27 28 26 28 25 29 24 27 27 32 30 28 28 25 26 27 27 26 24 24 24 28 26 27 24 25 26 24 23 24 24 21 25 24 25 20 22 23 19 20 18 19 18 14 3 
23 23 20 24 22 24 24 24 26 26 25 25 26 27 30 27 27 27 27 24 27 29 30 27 30 32 29 26 31 29 27 29 27 30 27 30 30 27 27 27 27 27 27 26 24 26 27 28 26 27 28 22 24 24 24 26 25 22 24 26 20 25 23 22 24 22 18 23 20 22 19 19 23 18 20 19 18 16 13 10 
24 26 20 23 25 24 21 26 22 24 24 24 25 27 28 26 29 30 26 28 27 26 26 29 30 30 28 27 31 28 27 29 29 27 29 26 29 30 28 28 29 28 29 27 26 26 27 25 26 26 25 25 26 24 25 27 27 25 27 27 22 23 26 19 26 23 18 20 21 23 21 21 20 17 20 16 20 15 15 9 
21 22 21 25 26 26 22 24 26 25 28 27 30 30 31 30 28 25 26 29 27 30 28 32 29 31 29 33 29 27 31 30 27 26 28 28 30 30 28 28 27 24 30 27 28 30 28 27 30 25 28 26 25 26 28 27 25 26 26 29 24 23 22 21 20 23 21 26 18 24 19 21 18 18 18 16 18 19 14 14 
25 25 23 22 25 24 25 27 25 26 28 28 29 30 29 28 27 25 26 28 30 32 30 32 31 29 29 29 29 26 31 31 29 30 27 28 31 31 28 29 27 25 29 29 33 27 28 26 26 28 27 26 29 25 25 27 25 27 24 25 25 23 22 19 21 23 21 25 24 20 22 19 17 19 21 17 19 18 13 8 
24 28 23 26 24 25 25 29 26 27 28 27 28 27 29 29 28 30 28 30 31 30 32 27 31 30 31 31 31 28 33 32 28 29 25 27 33 29 29 28 24 26 28 27 30 29 28 27 25 27 28 26 28 26 28 26 26 26 24 25 28 25 26 22 21 25 23 26 23 22 23 24 20 21 19 18 20 19 17 9 
25 30 22 28 29 24 28 27 26 27 27 28 32 29 30 27 28 30 29 27 29 31 28 29 30 32 33 31 33 29 31 30 30 29 29 30 31 29 32 28 27 28 29 27 30 27 30 27 26 26 28 28 26 28 30 28 29 26 24 25 24 21 25 23 22 23 22 24 22 23 24 22 24 19 20 19 19 18 18 19 
27 25 19 31 29 25 29 26 26 28 26 31 31 35 30 29 26 28 27 28 30 28 30 32 28 29 30 28 29 31 32 27 29 28 30 28 29 29 26 25 26 28 27 29 29 33 27 25 27 27 29 27 26 31 26 26 27 24 25 24 24 26 28 23 22 24 26 24 23 25 22 20 23 19 20 15 20 19 20 15 
26 25 23 27 25 28 30 27 25 28 26 30 32 32 28 27 27 29 29 28 30 29 30 29 30 30 29 29 29 29 31 28 29 27 27 29 29 28 26 30 27 25 27 27 29 27 26 27 27 27 29 26 28 30 28 27 28 25 27 25 24 23 25 23 22 23 23 25 24 23 21 21 24 21 21 17 22 17 19 16 
27 29 23 27 25 26 27 30 26 30 28 27 30 33 28 29 30 26 29 30 27 32 32 31 32 30 28 29 29 28 28 28 27 30 30 27 28 28 29 29 25 27 25 27 29 29 25 26 25 29 26 24 28 29 25 27 28 24 28 24 24 24 23 19 21 27 24 24 20 25 19 24 22 21 18 17 21 17 14 12 
25 26 21 25 28 26 30 32 27 28 28 30 28 32 30 28 25 26 24 27 29 32 31 29 31 30 31 31 30 30 31 28 29 32 33 27 30 30 26 28 26 26 30 25 26 27 28 27 28 31 27 28 25 27 26 25 28 22 24 24 24 22 23 21 22 26 24 25 20 24 22 18 22 18 19 20 21 17 14 15 
25 22 20 24 27 21 30 31 28 28 30 31 29 32 29 30 29 27 26 30 30 30 31 27 30 30 30 29 27 27 28 27 29 29 27 26 30 32 29 24 26 26 28 28 27 31 25 29 27 29 26 28 27 26 27 24 25 24 24 22 22 25 24 22 24 25 23 25 25 23 21 17 20 19 17 18 19 17 18 14 
29 25 24 28 26 24 30 27 28 31 30 32 31 31 29 28 30 29 25 28 31 32 31 30 29 32 29 30 29 27 28 26 32 27 29 28 28 31 29 24 26 28 26 24 31 27 24 26 28 28 29 25 26 22 21 25 25 25 24 24 25 24 22 24 22 27 21 24 21 22 26 21 20 23 23 18 18 17 20 19 
27 23 26 29 29 26 31 31 28 33 31 33 30 31 29 27 31 29 31 32 30 31 28 29 30 29 30 30 30 29 32 28 28 27 30 28 31 33 28 28 26 27 26 27 28 27 26 26 27 27 28 25 29 26 25 28 28 25 23 24 24 26 26 27 27 29 26 23 23 23 23 24 19 25 24 20 20 15 18 15 
24 24 27 31 27 27 29 28 27 27 30 30 31 32 30 31 27 31 27 29 28 30 29 34 30 33 29 30 30 29 32 31 28 28 27 30 30 32 28 30 32 27 26 29 30 29 29 26 28 28 29 27 29 28 23 26 23 25 23 25 22 26 24 25 25 29 27 22 26 23 22 19 23 24 24 19 23 20 17 12 
22 25 26 30 29 29 31 30 27 30 31 33 30 29 29 29 28 29 27 29 28 34 28 29 29 32 31 31 27 29 29 27 27 28 26 28 28 32 31 30 31 28 27 29 30 30 25 30 27 28 28 29 26 25 26 23 22 23 26 23 24 24 25 23 27 26 23 26 25 21 23 22 22 22 26 22 22 21 21 15 
26 31 30 32 29 27 28 29 28 30 29 31 33 26 28 29 29 30 28 27 29 32 27 29 32 31 31 29 29 28 29 28 29 28 27 30 31 32 29 28 30 30 27 26 29 28 26 29 31 27 32 27 29 24 25 25 25 25 25 24 22 28 28 23 24 23 23 26 28 24 24 21 23 24 23 22 20 23 20 13 
29 28 28 32 26 26 25 28 24 27 28 27 31 30 29 30 30 27 27 28 30 26 28 31 28 31 31 29 31 27 27 27 28 30 29 24 29 31 29 28 31 29 27 28 29 26 26 27 25 27 26 26 25 27 23 22 24 26 24 27 22 23 29 25 23 21 20 25 25 22 23 23 21 23 23 19 19 21 20 15 
26 24 26 26 28 24 28 29 26 29 28 30 31 31 26 29 28 28 25 26 27 29 26 27 32 29 30 30 29 29 28 27 30 27 29 30 31 31 31 28 28 28 24 26 26 24 24 27 25 27 32 26 27 22 21 24 23 23 27 23 21 24 23 21 21 22 25 22 24 24 20 21 21 20 21 20 24 23 19 19 
21 25 25 28 24 28 24 27 25 28 28 31 28 31 26 30 28 29 28 28 29 30 28 29 28 30 29 29 30 29 27 29 26 28 31 26 31 31 28 25 28 29 25 26 29 25 25 23 24 24 31 27 26 28 22 24 26 23 25 23 23 26 26 24 22 26 23 23 23 22 21 22 21 21 24 22 22 22 21 17 
25 28 26 27 26 24 28 29 25 27 27 31 32 31 33 26 30 28 27 27 27 30 28 29 30 30 30 30 30 29 27 27 27 29 28 30 31 30 30 28 30 28 28 28 29 30 28 26 26 28 28 27 26 30 26 25 26 26 25 26 24 24 24 22 25 26 23 26 27 25 25 22 23 22 22 22 24 22 21 20 
25 25 24 26 22 24 25 25 27 27 27 30 28 27 28 25 29 27 26 27 27 28 28 28 30 32 28 30 30 25 25 25 28 29 30 29 29 29 28 30 27 26 25 29 28 29 23 27 24 25 26 25 28 27 24 25 24 22 20 24 23 24 24 22 25 20 16 25 24 22 22 21 24 21 22 20 21 19 18 19 
22 20 25 26 26 24 27 24 24 29 28 28 26 25 28 28 27 25 24 27 29 29 28 27 31 29 26 30 30 28 23 25 25 27 29 30 28 29 27 27 27 26 29 28 29 25 27 26 25 27 26 26 25 24 26 25 20 22 17 26 22 24 23 23 22 9 8 18 20 21 21 20 22 24 20 21 24 22 15 16 
22 22 21 23 25 22 28 24 26 29 25 28 27 29 28 28 28 26 25 26 26 29 28 28 32 30 27 27 26 25 26 26 26 28 25 27 30 29 26 26 27 26 28 25 26 27 30 26 27 24 26 25 27 26 26 26 22 22 24 21 25 21 19 17 11 7 13 22 22 22 22 19 19 21 19 20 22 21 20 16 
27 22 22 23 21 23 24 26 28 27 25 26 28 29 27 27 27 28 26 28 28 26 29 29 30 31 26 30 26 28 27 27 26 26 28 28 27 30 29 27 26 25 27 28 26 27 27 27 27 26 26 25 27 28 26 29 25 23 24 22 22 22 22 17 15 13 17 19 22 23 21 22 22 21 19 18 25 23 18 16 
28 22 20 21 26 19 24 24 25 29 26 27 25 26 26 28 26 26 26 25 27 27 26 27 28 27 28 26 30 26 26 27 26 26 24 24 29 31 24 27 25 26 26 25 27 27 27 28 25 25 26 25 27 27 26 24 23 21 23 23 23 18 17 22 24 24 21 24 17 20 23 22 23 23 21 18 20 19 18 14 
23 23 21 17 21 20 22 26 23 24 26 24 26 27 25 26 27 26 26 26 27 30 26 28 29 26 26 28 27 26 27 25 27 25 28 26 28 29 29 28 28 24 28 24 30 29 26 28 26 26 28 26 27 24 26 26 28 23 22 25 25 25 22 21 21 21 23 25 21 21 25 22 21 21 22 19 25 19 16 13 
22 24 19 18 21 23 22 25 22 23 22 28 25 25 22 24 25 28 23 23 26 26 28 28 30 28 28 30 25 28 26 28 26 25 29 28 30 25 29 26 27 27 28 26 28 28 25 28 26 25 29 25 24 25 25 24 25 25 23 22 20 23 23 21 23 18 21 26 21 22 19 21 19 19 20 19 21 17 15 14 
22 23 18 22 23 19 22 24 20 22 23 26 26 26 23 23 22 27 27 24 23 26 26 27 24 24 26 26 28 27 27 25 24 25 28 27 26 28 25 23 26 28 29 26 29 27 26 27 27 25 27 25 24 24 27 24 25 25 24 23 21 22 22 20 21 24 19 20 21 23 18 18 20 23 22 21 21 16 16 10 
20 20 16 21 20 21 22 21 15 22 23 23 25 26 25 23 24 25 23 22 23 29 26 29 25 27 26 29 29 27 29 26 25 27 25 26 28 24 24 26 25 25 26 25 28 26 29 27 26 24 27 26 23 24 27 23 27 24 22 22 20 22 20 22 23 21 20 22 18 23 21 21 21 17 18 18 23 19 19 11 
19 16 15 18 15 17 19 20 14 21 19 20 25 23 24 24 25 24 21 23 25 26 25 24 22 25 26 27 28 28 23 28 26 22 25 25 25 28 28 24 25 25 29 25 27 28 27 26 25 24 24 22 23 23 25 22 23 21 21 22 20 19 21 22 23 20 22 22 20 19 19 18 19 16 19 17 20 15 17 6 
15 17 14 16 19 17 19 17 14 16 18 24 22 20 22 21 23 24 21 21 23 27 24 22 23 27 24 28 26 25 22 28 23 23 23 24 28 27 27 26 23 26 28 25 27 26 25 26 21 24 26 23 24 24 22 20 18 20 18 21 20 19 18 20 19 22 21 21 21 20 20 17 19 21 17 13 20 17 12 16 
16 15 16 18 19 16 18 15 17 17 18 24 22 23 20 20 25 22 23 21 22 25 24 20 24 25 23 26 25 26 26 22 22 22 21 23 25 25 23 23 24 25 24 24 27 25 25 22 25 24 24 21 25 21 21 19 19 21 19 17 18 20 19 18 18 21 19 20 21 17 20 17 20 18 14 16 19 13 11 8 
16 16 13 13 16 15 18 17 15 15 20 20 21 20 20 21 20 21 20 18 22 21 21 23 24 25 23 22 24 23 23 25 21 23 23 25 22 24 21 20 21 23 25 25 26 28 23 21 23 24 26 20 20 18 19 19 18 17 21 18 16 15 16 19 20 20 18 17 18 17 17 17 13 16 15 17 22 15 13 12 
16 17 15 15 18 16 16 18 13 14 18 19 21 22 21 21 21 21 18 20 22 24 21 25 24 27 22 25 23 21 23 22 23 22 21 24 23 23 17 21 20 21 22 27 24 25 21 22 23 22 26 22 20 20 23 21 21 18 22 18 15 18 18 18 19 18 19 19 23 16 19 18 18 19 16 13 18 16 15 10 
16 19 16 18 17 17 13 17 14 17 21 17 22 20 23 22 19 23 22 19 23 24 21 25 24 25 23 23 27 22 22 22 21 17 23 23 23 23 21 21 23 23 22 24 23 25 22 24 22 24 23 21 19 20 21 21 18 19 19 17 17 21 17 23 18 18 17 22 18 18 14 14 16 19 14 14 18 10 12 10 
16 18 16 16 14 20 19 16 15 18 18 17 21 18 22 21 21 19 23 20 21 22 21 22 23 26 21 23 23 22 22 18 22 23 18 21 25 25 23 22 23 23 22 24 26 26 23 24 25 19 21 20 21 22 20 18 19 20 19 20 18 19 20 18 15 18 16 21 18 16 15 18 19 17 14 15 19 11 13 9 
14 16 10 16 16 16 17 17 15 17 18 20 23 16 21 20 18 21 21 18 22 21 21 23 22 21 18 21 22 20 22 20 19 20 20 22 23 24 19 21 18 25 23 22 23 22 25 20 23 21 20 19 20 19 18 15 24 21 20 19 18 18 18 18 18 17 14 20 17 15 18 14 15 13 13 13 18 13 12 6 
14 14 14 16 20 15 18 17 15 18 16 19 20 16 18 16 17 21 15 16 17 19 17 24 22 22 20 24 19 22 23 22 21 19 19 21 21 22 20 20 18 21 19 22 23 22 22 23 23 20 20 20 19 20 18 17 19 19 19 20 18 20 19 16 17 18 15 18 18 15 16 16 11 10 15 13 14 9 8 9 
14 13 10 13 11 16 16 15 14 20 18 17 21 23 20 19 16 19 17 19 19 22 18 18 21 21 20 20 18 22 18 20 18 21 19 21 22 22 22 20 21 22 21 21 22 24 23 22 18 22 24 19 20 17 18 22 18 20 18 19 20 21 20 15 15 16 15 20 17 13 17 8 12 11 13 13 14 10 10 5 
15 11 9 14 18 13 14 16 15 19 18 17 18 23 19 20 17 20 16 17 19 18 16 19 21 20 17 18 21 22 22 20 21 19 18 22 22 20 23 22 21 20 21 23 22 21 23 20 18 20 23 21 21 21 21 19 18 19 16 17 17 22 18 15 17 18 16 16 15 16 15 12 15 10 13 11 15 7 6 2 
13 12 10 14 14 14 13 15 16 19 18 18 19 21 17 19 19 20 18 18 21 20 19 20 19 19 17 19 20 21 22 20 19 20 19 18 20 22 20 19 21 21 19 18 18 18 19 16 17 18 19 17 20 21 20 19 22 18 18 22 17 19 20 18 19 19 20 17 16 14 10 11 14 12 11 10 13 6 5 2 
14 10 13 13 16 13 13 14 19 17 16 16 19 16 20 18 13 18 20 17 18 20 19 18 21 19 17 21 20 25 22 23 21 20 17 21 24 21 19 17 17 20 19 19 22 23 18 15 21 19 19 18 21 21 18 16 19 18 17 17 17 16 16 17 17 18 17 19 15 11 11 14 13 13 9 12 13 9 8 4 
19 16 18 16 19 11 19 15 15 17 17 19 16 20 20 20 18 20 16 16 21 21 22 21 21 22 20 21 22 24 21 24 19 19 19 18 21 23 18 17 18 20 19 17 19 18 16 19 19 19 19 18 21 21 17 16 17 19 19 17 15 16 15 17 14 17 15 15 17 14 15 12 12 13 8 10 13 10 7 5 
13 16 16 14 15 16 19 15 17 20 17 19 22 19 17 18 18 20 20 16 22 21 20 22 21 23 22 19 23 23 22 23 22 21 20 22 22 22 19 18 20 21 21 17 19 19 18 20 17 19 22 20 19 18 21 19 16 13 18 16 17 16 16 14 16 15 13 18 15 15 16 15 12 11 15 12 12 12 8 2 
14 17 14 17 19 13 17 17 17 18 19 21 19 19 22 21 20 20 21 19 19 20 23 23 23 27 21 23 24 22 22 21 21 23 23 18 23 22 24 20 22 26 20 18 22 17 22 21 23 24 24 21 24 24 20 17 17 12 14 21 19 19 20 15 17 17 14 18 15 12 14 17 11 13 12 13 16 6 7 3 
15 11 17 15 16 15 17 17 19 18 14 21 21 22 22 21 16 23 19 20 19 20 22 22 21 25 21 23 23 22 21 23 21 25 23 22 24 25 22 20 22 20 21 16 21 20 21 21 20 23 22 23 20 20 18 17 22 16 16 19 15 18 20 16 15 17 16 17 15 17 15 15 14 14 11 13 14 9 8 5 
20 15 13 13 18 14 16 19 16 19 15 23 22 22 20 24 19 26 19 18 21 24 22 23 22 24 21 23 25 20 21 24 22 23 23 22 22 23 21 22 23 21 22 18 19 19 24 20 23 21 23 18 22 21 25 20 22 20 15 20 17 16 23 19 18 15 16 14 14 17 14 16 16 16 11 12 17 13 7 0 
19 19 17 18 15 14 18 18 16 15 16 18 18 20 21 22 18 23 18 17 20 22 22 21 24 21 22 19 24 26 22 25 21 22 23 24 26 22 22 24 18 17 17 20 18 21 26 23 22 22 22 19 24 26 21 17 22 21 16 21 16 18 19 17 17 16 18 14 13 14 13 13 16 17 12 15 18 16 10 7 


