P2
80 60
530
0 5 4 5 3 10 7 10 11 12 15 14 10 16 23 29 32 32 30 31 34 44 51 73 81 194 402 462 471 479 488 483 482 481 486 486 490 495 498 499 501 496 503 503 499 488 485 473 470 476 476 476 468 470 488 486 487 485 488 494 486 482 480 484 487 484 479 482 486 484 484 479 475 476 468 467 466 458 455 448 
0 4 6 4 3 5 2 6 8 10 12 13 13 22 20 26 31 31 33 37 33 39 59 120 176 309 437 470 476 480 486 479 482 482 488 486 491 498 499 498 500 498 504 499 495 484 479 473 470 472 471 467 463 467 476 484 484 485 483 486 480 476 472 471 474 480 478 482 479 480 479 479 475 469 472 465 459 455 452 451 
6 2 3 6 1 0 4 8 5 6 16 12 16 22 21 25 27 30 34 38 40 47 83 187 273 389 449 472 476 480 482 483 479 480 488 486 498 498 497 494 504 503 508 502 499 487 480 470 470 470 466 471 462 457 461 468 482 484 482 482 473 472 470 457 463 465 471 474 477 480 480 477 473 471 465 458 457 454 458 455 
5 1 2 3 3 5 3 10 9 8 23 12 16 19 18 23 26 33 34 37 65 128 236 308 391 428 455 471 478 484 483 486 481 485 489 491 496 501 495 500 505 506 507 497 491 481 477 472 469 465 468 463 456 443 436 429 467 482 481 481 477 475 462 456 463 462 475 470 472 476 475 475 471 468 464 459 461 457 456 454 
4 3 3 5 1 10 8 11 12 14 22 20 20 21 20 27 27 26 38 79 229 338 392 415 446 460 465 478 480 481 483 480 483 483 487 488 488 488 498 504 501 497 495 476 479 478 478 473 469 468 462 450 444 428 415 414 435 474 475 482 478 472 467 465 467 471 477 475 475 478 477 475 477 466 467 463 463 458 458 457 
5 7 4 4 3 9 10 16 13 15 24 20 23 25 26 26 31 34 40 101 336 407 428 435 453 467 473 474 473 472 480 478 474 475 477 473 474 467 470 484 486 481 485 476 476 475 477 475 465 463 452 436 432 421 422 420 443 469 474 477 476 471 467 470 477 476 484 483 483 483 482 478 484 477 473 467 468 465 466 463 
4 5 2 6 5 11 10 13 15 19 23 18 23 26 29 29 32 32 41 76 304 405 433 440 458 470 476 472 460 466 469 470 470 471 474 476 473 467 475 478 481 481 479 477 482 476 476 473 458 448 439 433 428 433 453 462 466 472 475 476 472 476 475 477 476 480 485 484 489 487 484 484 480 479 475 473 468 470 472 477 
7 5 2 9 6 13 15 15 18 21 25 22 23 32 29 31 34 35 37 53 156 383 437 449 456 474 478 477 468 463 471 469 468 473 475 475 477 478 477 478 482 482 481 483 484 476 471 461 446 441 440 442 454 464 476 469 478 480 479 477 475 482 484 482 483 482 490 487 487 487 488 487 483 484 477 475 475 472 477 482 
12 6 7 11 8 10 14 20 19 21 24 25 27 28 31 34 31 39 42 45 83 288 424 439 448 461 477 472 457 455 467 466 461 466 472 480 482 485 484 479 479 476 479 476 468 467 462 450 442 444 455 468 474 480 486 480 486 484 478 482 480 487 487 490 487 487 490 491 488 492 489 492 491 489 482 483 478 475 478 474 
13 12 11 15 13 13 16 26 21 25 28 24 27 30 35 36 38 39 44 45 60 158 388 420 426 438 450 462 435 434 446 455 460 466 471 475 476 475 478 470 471 457 464 453 454 446 444 447 458 476 481 489 486 485 484 485 483 485 480 487 489 488 488 487 490 490 488 496 493 490 491 496 498 494 487 483 481 476 472 476 
12 12 13 18 15 16 17 23 24 23 30 28 30 35 34 34 39 43 45 43 52 79 282 397 413 421 416 397 350 356 381 398 414 425 439 444 447 446 450 440 439 426 426 419 415 430 445 464 481 496 493 497 489 490 491 487 489 489 492 494 494 493 490 482 488 494 491 499 500 498 494 497 502 497 488 482 480 468 467 467 
17 13 11 18 19 19 22 27 23 28 31 30 29 33 37 34 40 50 46 45 52 54 145 359 391 382 351 261 203 199 234 267 306 327 346 356 354 345 360 334 342 360 377 376 406 436 471 480 489 503 500 499 493 491 490 489 493 494 491 497 497 497 494 494 498 502 500 503 501 505 501 499 500 492 487 476 479 469 462 460 
16 15 15 19 25 28 27 30 34 36 35 32 33 36 36 40 44 47 47 50 52 53 84 249 347 288 188 123 91 88 99 125 157 191 218 242 216 169 158 146 176 264 335 375 431 468 487 491 498 499 501 499 494 493 493 494 499 498 494 498 498 502 502 501 507 506 502 505 507 510 507 498 497 492 483 472 468 464 460 456 
17 20 20 23 38 43 36 38 54 50 41 34 33 36 37 37 44 46 46 49 50 55 68 123 182 128 81 75 61 61 65 61 77 95 112 120 97 76 78 75 85 192 326 404 449 479 495 494 500 505 500 501 498 495 496 495 504 497 493 502 507 510 509 502 509 512 508 504 506 517 513 503 493 486 481 472 467 459 459 450 
24 21 18 29 47 66 74 112 131 100 54 35 35 39 39 37 47 51 59 59 68 69 72 102 92 92 69 69 59 57 63 57 58 70 72 71 69 69 70 74 80 198 356 431 472 486 495 500 503 500 499 503 503 498 498 501 507 510 507 508 515 512 514 507 507 512 511 509 507 510 511 503 493 484 481 472 467 461 449 441 
22 23 19 34 46 67 115 206 221 172 111 66 48 46 50 45 58 86 89 91 116 127 129 94 77 82 69 64 57 58 60 63 62 65 69 63 65 68 68 79 116 266 393 456 486 495 498 500 499 499 498 498 500 503 502 509 515 517 516 517 514 516 511 511 508 509 510 506 500 505 511 503 491 489 483 469 466 453 443 429 
31 26 23 29 40 66 160 260 271 249 202 150 112 109 84 64 91 175 193 187 187 187 163 116 73 79 69 61 60 59 62 62 62 66 73 66 65 66 71 85 195 364 440 484 493 501 501 501 500 502 498 497 503 505 506 511 517 520 517 520 516 515 512 506 511 507 505 499 499 499 500 498 488 483 476 465 459 438 427 404 
33 34 32 33 35 72 205 297 303 298 287 269 267 252 175 108 208 283 299 287 278 256 224 157 89 74 72 65 62 75 72 62 63 73 79 67 65 64 77 117 289 408 463 487 497 500 509 506 508 507 505 506 506 506 505 510 515 517 514 518 517 515 514 510 506 505 506 498 496 494 488 486 485 479 469 454 445 415 396 396 
39 34 28 33 39 85 252 313 320 326 325 319 310 310 276 255 303 328 323 325 324 315 304 234 135 79 66 61 67 79 84 75 70 80 82 74 67 75 88 183 373 433 475 490 497 505 512 512 510 510 507 509 511 509 508 508 514 514 512 516 516 517 511 510 504 503 501 495 488 480 479 482 483 476 457 432 418 382 378 374 
47 36 26 33 41 128 286 318 320 334 336 335 331 328 309 314 323 331 333 338 335 333 327 307 231 120 68 65 69 77 81 88 93 84 79 69 73 92 127 294 421 450 485 493 505 510 514 511 508 506 504 507 505 508 509 508 514 513 513 512 514 512 511 509 502 491 491 483 477 474 477 473 477 459 435 406 377 368 374 397 
58 47 33 33 50 185 294 318 322 336 340 338 338 338 327 330 331 338 336 338 337 332 335 327 311 227 106 75 70 68 75 96 97 88 73 69 86 154 246 379 449 469 489 505 510 512 516 513 510 508 505 505 504 508 509 508 517 513 515 515 511 513 510 505 490 478 478 477 468 474 474 466 457 436 407 374 364 368 397 412 
108 65 45 39 72 169 274 289 304 322 331 340 341 340 337 342 344 347 346 340 341 336 337 336 330 304 188 85 64 60 66 84 94 118 98 89 118 229 350 421 464 474 489 503 511 512 514 514 508 508 505 510 511 516 514 514 521 515 513 513 509 508 499 490 479 479 474 474 461 449 446 435 424 397 369 351 363 387 417 427 
139 113 72 60 64 118 180 225 259 298 314 329 334 343 349 354 352 356 361 355 350 349 346 341 343 336 269 110 69 64 67 79 110 163 182 173 227 303 399 444 474 481 492 503 510 511 517 516 508 507 505 508 509 515 519 517 522 521 517 512 503 498 484 477 482 466 456 457 436 406 394 387 374 352 348 358 390 405 428 431 
147 136 107 84 72 83 100 133 175 250 293 304 321 328 332 349 354 362 367 368 366 365 362 350 355 352 322 174 75 71 81 100 164 239 252 256 312 368 430 469 479 482 494 504 507 513 514 516 513 517 518 508 507 501 508 511 513 507 504 497 491 487 480 473 466 440 412 408 375 301 264 304 327 336 348 383 409 413 432 437 
147 138 117 104 92 89 94 106 131 195 277 304 310 299 296 332 355 363 367 368 369 371 368 363 362 363 350 244 89 74 75 108 212 294 318 351 391 425 460 476 476 484 496 499 502 506 511 513 513 518 514 512 505 498 499 499 502 502 498 494 485 473 463 445 438 414 398 366 287 155 133 243 308 335 376 397 426 427 442 440 
149 138 114 106 101 105 112 126 120 147 235 284 294 296 292 317 339 362 371 376 372 373 372 370 369 362 355 309 175 106 87 108 230 335 392 413 428 451 480 485 483 482 492 494 496 498 502 501 507 509 511 510 502 498 498 497 502 497 495 495 487 445 422 408 398 378 332 265 156 91 133 240 307 359 391 406 424 434 443 441 
136 129 115 112 108 115 148 173 146 125 168 244 276 299 297 313 328 343 360 376 375 373 376 374 368 363 355 339 283 230 165 163 257 332 410 436 449 461 489 486 487 485 494 496 495 497 499 501 504 505 505 503 499 500 500 496 498 500 491 472 455 428 412 379 347 288 221 133 81 79 154 257 340 376 397 415 432 436 442 442 
137 128 117 120 127 166 190 165 97 80 107 184 251 291 311 315 309 327 343 350 361 367 371 370 359 363 355 347 310 294 269 261 279 320 412 439 455 466 489 492 495 490 498 501 501 500 500 500 500 500 502 502 501 501 501 498 500 484 457 453 427 405 370 295 240 158 97 64 57 75 179 281 359 395 414 424 435 441 446 446 
139 125 120 129 180 235 160 84 61 60 85 126 201 268 290 309 303 321 333 340 342 350 350 352 347 354 351 343 314 298 295 290 292 316 372 445 461 471 485 490 484 481 492 494 495 500 498 498 500 501 504 503 501 499 499 490 486 457 430 415 390 346 277 203 138 77 61 49 60 102 192 285 363 396 423 431 439 442 449 446 
135 125 129 177 245 196 80 53 48 55 69 89 133 208 269 298 305 319 325 336 338 345 344 343 343 349 342 342 318 300 297 292 292 300 335 422 457 471 475 475 469 444 457 474 482 490 489 488 494 495 490 494 484 475 470 447 433 410 389 360 315 255 180 123 107 70 54 53 64 89 150 270 361 396 423 433 441 445 452 451 
134 135 156 184 222 100 53 49 49 55 60 69 88 136 205 272 291 313 312 322 336 339 344 346 345 342 331 332 312 304 300 294 293 295 317 371 449 461 466 456 423 323 329 383 428 455 456 468 473 478 469 467 449 428 400 381 372 341 305 264 199 137 90 72 71 59 54 50 54 66 85 202 335 399 429 443 447 449 452 452 
134 138 153 176 113 54 48 46 55 58 58 60 65 85 120 186 239 287 298 306 316 327 338 336 329 321 307 305 298 297 298 296 291 296 315 342 410 448 444 416 348 181 153 211 301 350 373 376 375 375 370 368 348 326 287 259 243 212 176 129 89 73 60 52 47 41 45 46 48 49 55 142 314 388 431 443 450 454 448 449 
128 135 165 135 67 45 44 47 50 59 58 55 51 60 77 107 139 204 257 284 297 308 319 315 297 265 261 268 280 289 296 302 307 318 338 362 389 436 437 400 365 260 143 155 228 276 294 255 214 211 200 199 186 173 158 133 115 96 76 68 62 64 57 51 48 46 42 42 41 51 58 101 289 374 421 439 445 448 451 450 
116 127 142 84 43 37 38 43 46 53 52 53 47 51 60 67 86 128 178 227 261 276 290 273 201 156 169 203 255 285 311 336 359 389 409 424 445 462 467 459 438 405 329 273 303 309 296 215 166 176 193 203 209 195 143 103 83 70 64 63 57 54 54 52 46 44 45 46 45 50 59 67 202 359 414 429 440 443 446 446 
102 118 100 52 34 35 33 43 46 53 54 47 49 48 53 59 66 96 131 170 216 243 264 235 118 91 108 178 268 328 370 402 428 448 452 453 472 487 488 490 488 475 457 421 410 395 379 355 328 322 311 302 283 272 239 189 137 93 74 65 63 58 52 50 52 48 45 39 46 61 62 52 95 254 372 417 435 436 437 451 
95 101 75 40 38 33 37 42 43 50 50 48 47 49 52 55 60 81 110 160 219 273 284 257 133 88 114 200 345 413 444 455 456 458 461 463 474 486 489 492 505 495 501 479 464 458 452 442 413 406 407 393 365 347 329 303 275 214 154 114 88 72 65 57 57 48 41 41 42 61 66 57 65 121 303 399 425 434 441 449 
66 79 62 41 36 34 35 42 43 48 48 44 48 49 49 50 57 71 103 169 291 372 376 343 242 167 260 379 437 467 476 473 472 468 476 482 494 495 493 498 505 503 507 487 482 482 475 475 465 455 464 453 435 415 390 378 383 346 299 243 189 127 83 71 71 55 50 48 44 55 68 81 80 97 229 367 415 427 433 439 
44 50 47 39 36 34 38 41 41 43 47 47 45 47 49 48 56 65 85 173 365 417 424 424 396 372 420 458 474 477 475 476 487 494 500 498 503 503 504 507 504 503 500 491 487 487 484 480 475 472 483 486 472 469 463 442 427 402 378 355 316 271 198 155 143 102 81 66 63 57 71 130 151 146 201 299 390 415 428 431 
35 33 28 36 35 35 35 36 39 42 42 42 42 48 49 46 57 63 81 222 409 437 447 458 457 453 453 468 476 486 496 488 499 501 505 506 503 507 506 505 503 499 497 489 490 490 491 486 483 487 490 501 494 493 488 482 479 448 420 410 394 373 346 323 303 269 238 182 159 145 161 227 247 238 237 264 320 378 414 424 
28 32 32 32 30 35 30 34 37 40 40 46 43 46 45 51 53 64 98 290 430 446 463 473 479 458 467 484 485 498 497 500 501 501 505 503 504 505 507 506 507 503 501 496 493 490 495 492 494 498 500 499 492 491 492 500 500 488 459 460 438 419 411 395 394 380 369 351 331 323 325 339 343 332 328 321 332 379 403 410 
26 27 23 28 32 32 28 33 36 41 41 41 41 42 46 51 54 64 108 342 442 456 476 489 482 468 480 495 494 501 508 513 513 507 506 507 507 510 509 507 510 506 505 500 499 495 501 497 493 497 500 495 496 496 496 501 502 498 485 485 471 461 446 430 434 429 423 423 418 410 404 407 410 408 406 394 404 408 415 417 
29 24 22 28 29 32 24 35 33 39 39 35 35 43 44 47 54 67 110 361 441 458 479 488 486 473 486 498 498 503 519 516 517 511 511 507 507 511 509 510 512 504 505 505 503 502 506 500 497 503 497 500 496 498 498 497 499 495 493 486 478 484 482 469 474 468 468 464 459 449 454 455 453 454 444 443 448 448 443 429 
47 40 33 26 34 26 24 34 33 39 42 37 37 42 46 53 53 55 110 360 435 450 471 481 479 478 487 495 507 509 517 519 521 516 511 504 507 508 511 507 511 508 504 504 507 503 506 500 496 501 497 499 498 501 500 497 496 496 492 482 482 489 488 481 487 487 477 479 469 472 476 472 469 472 465 461 457 458 462 453 
100 85 74 62 53 46 34 31 33 35 39 37 37 39 42 48 47 56 92 302 409 434 452 467 467 474 486 501 510 510 512 511 513 521 521 503 510 513 512 512 511 505 507 504 501 503 505 501 499 501 502 501 499 503 501 498 495 497 492 483 484 491 490 488 490 491 484 484 478 481 482 478 475 476 469 467 468 464 466 463 
155 140 125 113 96 84 67 45 35 37 37 34 42 39 43 50 51 55 67 135 238 303 350 325 397 459 480 500 509 509 517 505 514 517 525 519 520 524 519 519 518 504 503 501 503 502 506 503 499 503 502 499 499 501 499 496 498 495 493 487 491 492 484 488 491 488 485 487 484 488 486 483 480 477 477 471 471 467 466 462 
187 182 172 158 151 137 122 100 88 73 61 54 47 43 43 43 50 52 58 64 79 100 128 121 247 425 470 488 498 505 516 506 511 517 521 523 526 522 525 523 518 501 504 505 502 502 503 503 503 504 500 501 498 502 498 498 506 499 493 491 489 494 488 488 487 487 487 487 483 484 484 486 483 478 475 470 470 465 469 464 
218 212 202 193 191 180 168 154 148 135 122 101 93 83 65 57 46 52 55 55 58 62 68 72 125 320 435 479 485 497 510 511 507 510 516 519 521 522 522 525 519 512 518 513 513 512 514 508 510 509 499 498 499 498 501 502 514 504 496 491 486 489 488 486 484 488 490 489 483 487 487 486 481 480 479 470 463 464 459 464 
236 228 229 224 221 214 211 205 198 186 177 164 154 139 120 113 82 64 59 57 57 55 60 61 80 167 365 455 474 491 500 504 504 506 513 513 516 521 525 530 524 517 519 522 523 519 518 513 513 512 511 512 505 509 514 511 518 508 502 498 492 494 490 489 492 491 487 484 484 488 487 482 482 481 477 470 468 466 460 461 
245 245 241 236 238 239 233 231 226 226 222 211 199 190 179 169 147 136 126 109 97 77 67 61 68 91 204 391 454 477 492 496 504 505 509 509 512 511 512 522 523 520 522 525 525 517 518 517 516 521 524 525 519 517 519 521 518 512 509 514 502 504 497 497 497 496 490 492 494 492 487 485 489 480 475 473 472 464 462 466 
256 248 250 252 248 249 249 250 245 250 248 235 232 228 217 219 201 193 187 174 162 140 123 99 85 80 99 221 393 458 482 493 499 501 506 503 502 506 506 510 508 507 512 512 512 512 512 514 514 520 516 521 521 526 523 523 516 514 516 519 509 505 500 498 497 497 497 498 495 491 488 492 489 477 479 478 471 465 466 467 
264 257 261 263 259 259 261 260 256 261 263 259 253 251 251 249 240 234 233 228 217 208 195 177 170 152 141 163 249 395 454 476 486 498 503 503 503 501 497 501 500 498 498 497 500 503 499 501 509 512 509 510 518 519 519 524 519 513 519 520 509 509 503 499 504 501 498 498 499 497 494 492 488 483 484 479 470 469 465 468 
271 269 269 269 267 263 265 269 269 275 270 269 265 271 267 273 264 266 266 260 251 245 246 236 231 225 218 224 224 239 324 415 468 488 495 498 494 495 493 499 498 494 493 490 494 498 497 499 501 501 499 498 503 501 508 509 510 513 511 513 503 509 504 502 504 502 502 501 496 500 497 492 486 485 482 474 472 469 467 467 
276 280 276 277 276 273 271 273 276 272 280 275 271 274 271 283 276 278 279 278 281 279 279 266 264 265 262 276 238 194 156 198 329 441 481 488 491 492 491 493 495 490 494 489 488 485 489 491 494 497 496 498 495 495 499 495 500 502 498 495 497 498 497 492 496 495 489 486 493 499 492 491 491 493 483 480 478 477 465 467 
285 287 283 284 280 282 282 281 278 283 285 278 280 284 281 285 288 288 294 293 297 297 298 293 294 300 298 306 259 196 132 104 129 261 430 477 480 487 492 497 494 490 492 486 489 470 471 480 487 493 493 495 492 491 495 492 498 495 493 491 492 493 489 482 490 483 485 482 480 484 480 479 489 488 484 480 485 473 472 472 
293 293 289 290 287 288 284 283 284 290 290 286 285 291 287 293 294 301 307 313 314 319 323 321 320 326 326 317 266 219 171 126 103 206 380 437 464 470 481 484 486 480 487 480 481 458 450 463 483 487 491 492 496 494 497 492 496 493 493 493 488 487 486 481 481 479 484 477 471 474 476 474 482 477 472 475 479 472 471 469 
298 298 293 295 289 290 288 292 288 296 294 291 296 294 298 299 304 309 317 322 330 333 343 337 341 342 342 325 282 250 225 209 206 288 386 413 429 447 450 459 464 463 471 473 467 447 452 456 477 487 488 493 497 492 492 489 490 490 486 487 487 488 482 482 481 481 477 477 473 477 474 471 469 464 466 458 462 462 464 457 
301 300 298 298 295 294 290 294 295 296 301 299 300 302 304 307 310 316 322 330 337 338 348 344 349 351 341 323 294 280 269 258 274 345 389 406 408 422 423 440 440 441 452 450 456 449 457 466 472 481 480 488 488 485 484 481 487 481 473 479 481 476 476 473 478 482 476 474 473 472 471 466 466 462 460 453 460 456 450 445 
305 303 298 300 300 293 299 297 298 299 304 307 302 306 308 314 313 318 324 336 338 344 347 352 351 358 345 331 315 300 293 292 318 368 386 392 402 405 417 419 424 422 433 434 437 446 449 455 457 462 463 473 473 467 459 445 444 432 432 443 443 455 463 461 469 473 477 471 474 474 470 469 466 460 453 450 454 451 445 440 
307 301 304 306 301 298 299 300 300 302 304 307 309 314 317 318 316 322 330 340 342 350 350 355 357 359 343 336 336 326 318 316 344 364 378 386 396 398 404 406 407 407 419 422 419 432 435 435 442 443 445 454 445 438 435 422 421 412 402 401 395 407 413 419 441 453 461 463 468 474 472 468 467 459 451 449 452 448 438 435 
303 306 304 306 301 300 304 298 299 301 306 307 312 320 315 318 319 322 329 339 342 350 351 354 355 351 346 338 347 341 333 336 359 368 375 380 390 393 392 397 400 402 414 417 413 421 425 425 431 440 436 445 439 433 438 431 427 423 415 412 406 408 405 401 412 421 436 440 458 469 475 473 469 459 454 454 457 455 443 440 


