P2
80 60
1330
684 699 739 767 796 822 870 914 969 1034 1097 1144 1163 1181 1175 1165 1148 1149 1158 1179 1208 1224 1234 1246 1245 1248 1260 1252 1233 1243 1250 1243 1242 1242 1237 1232 1230 1249 1271 1279 1280 1285 1277 1278 1253 1231 1218 1212 1213 1216 1237 1250 1262 1267 1269 1271 1268 1271 1259 1235 1224 1211 1205 1211 1207 1189 1161 1099 1034 964 913 864 832 803 770 735 696 664 628 601 
687 713 752 789 816 852 908 951 1018 1082 1134 1179 1173 1169 1161 1161 1158 1168 1180 1198 1223 1234 1245 1254 1243 1245 1251 1245 1226 1217 1230 1235 1241 1233 1229 1219 1219 1240 1262 1267 1272 1274 1270 1267 1244 1229 1231 1228 1218 1217 1225 1232 1243 1253 1257 1266 1269 1276 1269 1250 1234 1213 1197 1210 1217 1207 1198 1140 1083 1020 955 905 860 826 804 763 720 688 648 613 
702 735 782 815 848 886 943 1000 1061 1136 1174 1185 1172 1172 1174 1174 1176 1179 1190 1208 1233 1244 1255 1259 1251 1247 1246 1242 1209 1198 1202 1226 1232 1226 1221 1205 1204 1228 1254 1256 1260 1253 1244 1242 1241 1247 1246 1238 1228 1224 1225 1233 1230 1237 1241 1255 1264 1278 1278 1263 1245 1225 1205 1197 1211 1218 1215 1183 1127 1072 1000 943 894 852 835 797 745 710 677 630 
731 761 797 838 875 916 974 1045 1105 1175 1179 1180 1177 1185 1187 1188 1181 1190 1199 1214 1234 1244 1258 1267 1258 1255 1245 1229 1207 1198 1192 1214 1225 1228 1218 1201 1191 1213 1238 1243 1245 1239 1250 1250 1259 1264 1269 1251 1233 1237 1237 1240 1254 1253 1238 1240 1259 1270 1278 1265 1258 1245 1227 1206 1204 1219 1229 1202 1161 1113 1052 985 916 881 858 820 772 730 692 657 
747 771 819 859 900 952 1014 1084 1136 1190 1188 1186 1174 1182 1191 1187 1183 1191 1206 1216 1236 1245 1260 1263 1260 1254 1254 1240 1222 1211 1202 1193 1221 1223 1216 1202 1190 1198 1229 1232 1229 1232 1238 1267 1272 1262 1255 1242 1236 1240 1250 1264 1271 1271 1262 1245 1248 1264 1275 1271 1263 1250 1238 1214 1205 1220 1237 1215 1194 1162 1104 1026 959 911 875 846 791 746 704 674 
762 803 838 878 930 983 1048 1113 1173 1192 1186 1190 1168 1181 1184 1186 1182 1191 1195 1212 1230 1241 1253 1266 1264 1260 1263 1254 1237 1219 1214 1195 1202 1219 1220 1210 1195 1195 1218 1220 1219 1243 1262 1277 1262 1254 1233 1217 1229 1241 1260 1265 1270 1280 1277 1256 1241 1264 1270 1273 1269 1266 1247 1226 1208 1224 1241 1221 1210 1193 1136 1072 991 945 895 863 809 765 730 688 
778 815 862 901 955 1017 1082 1152 1176 1194 1192 1195 1174 1184 1193 1193 1185 1196 1202 1215 1231 1235 1249 1264 1265 1261 1262 1262 1248 1231 1221 1203 1192 1190 1197 1216 1203 1198 1205 1212 1230 1268 1270 1266 1255 1254 1228 1217 1225 1238 1256 1264 1266 1270 1270 1259 1246 1257 1274 1276 1275 1266 1254 1232 1217 1224 1241 1218 1217 1201 1164 1110 1040 971 923 883 831 789 744 700 
796 840 887 929 988 1056 1118 1172 1179 1196 1196 1204 1188 1193 1211 1220 1197 1199 1206 1216 1230 1233 1247 1256 1258 1255 1261 1262 1245 1235 1223 1208 1195 1180 1179 1182 1189 1184 1200 1222 1253 1271 1261 1257 1261 1256 1237 1229 1228 1245 1258 1261 1263 1267 1269 1267 1255 1252 1267 1281 1277 1276 1264 1243 1223 1232 1243 1228 1226 1216 1189 1146 1077 1008 947 906 857 817 774 721 
819 856 900 945 1007 1079 1144 1180 1184 1199 1197 1209 1200 1208 1216 1231 1222 1210 1206 1217 1223 1226 1233 1247 1251 1253 1259 1255 1245 1234 1220 1199 1199 1186 1187 1180 1174 1176 1207 1230 1257 1260 1249 1255 1255 1262 1257 1247 1244 1256 1271 1269 1279 1282 1281 1284 1267 1265 1264 1279 1280 1276 1272 1251 1230 1232 1246 1234 1236 1228 1215 1181 1113 1036 960 923 879 831 788 743 
829 860 917 973 1042 1101 1168 1180 1194 1204 1204 1217 1215 1219 1221 1234 1239 1223 1196 1207 1217 1222 1230 1236 1239 1241 1250 1252 1235 1228 1204 1194 1190 1197 1215 1207 1193 1190 1216 1231 1240 1248 1250 1258 1250 1249 1258 1265 1272 1275 1290 1293 1294 1296 1293 1288 1284 1278 1269 1284 1283 1285 1280 1263 1240 1244 1249 1243 1246 1247 1237 1205 1149 1074 998 946 897 862 804 752 
844 886 942 997 1070 1131 1179 1198 1205 1217 1214 1228 1232 1234 1229 1232 1238 1233 1200 1195 1209 1216 1218 1233 1235 1237 1240 1240 1232 1220 1203 1194 1206 1227 1238 1224 1213 1208 1216 1225 1235 1246 1247 1267 1262 1255 1264 1271 1284 1291 1301 1299 1294 1297 1289 1297 1289 1281 1279 1287 1294 1295 1283 1267 1257 1259 1254 1246 1253 1248 1242 1220 1170 1102 1026 969 918 877 833 767 
860 907 963 1026 1099 1153 1189 1203 1215 1225 1231 1231 1232 1243 1240 1233 1230 1233 1210 1194 1196 1197 1208 1221 1223 1228 1235 1229 1220 1207 1198 1199 1227 1240 1232 1223 1226 1223 1235 1222 1237 1257 1274 1289 1274 1263 1273 1282 1293 1295 1296 1290 1281 1283 1298 1309 1305 1291 1293 1295 1302 1300 1282 1273 1266 1267 1248 1245 1250 1244 1242 1227 1186 1130 1055 993 941 898 840 796 
874 918 977 1045 1110 1170 1198 1215 1226 1235 1239 1238 1231 1241 1239 1226 1219 1216 1208 1194 1191 1181 1193 1202 1205 1212 1226 1220 1207 1195 1196 1209 1243 1229 1216 1210 1216 1232 1242 1235 1253 1277 1290 1288 1266 1265 1277 1279 1280 1283 1287 1293 1289 1283 1310 1314 1304 1295 1296 1307 1316 1300 1286 1277 1269 1264 1249 1249 1250 1245 1244 1241 1208 1157 1084 1018 958 908 850 805 
888 935 989 1066 1129 1184 1201 1211 1229 1241 1243 1247 1234 1236 1235 1226 1214 1206 1195 1191 1190 1183 1179 1186 1187 1199 1206 1207 1191 1180 1190 1214 1236 1236 1221 1224 1225 1237 1248 1259 1268 1273 1263 1268 1266 1269 1263 1264 1268 1273 1285 1297 1302 1296 1301 1307 1301 1302 1300 1315 1315 1301 1284 1278 1271 1267 1263 1248 1246 1240 1239 1243 1223 1175 1104 1033 971 918 862 812 
902 945 1007 1079 1142 1188 1198 1216 1240 1249 1252 1250 1237 1236 1230 1227 1211 1201 1187 1183 1193 1184 1178 1178 1179 1185 1190 1189 1180 1180 1189 1223 1239 1235 1232 1225 1228 1245 1255 1251 1253 1250 1245 1257 1271 1279 1264 1270 1277 1274 1282 1295 1310 1309 1300 1298 1299 1306 1318 1318 1306 1295 1283 1269 1263 1271 1276 1260 1243 1245 1242 1235 1232 1189 1115 1048 975 922 874 826 
910 966 1040 1102 1160 1201 1205 1223 1245 1260 1266 1267 1248 1246 1235 1227 1212 1202 1187 1177 1188 1191 1189 1189 1183 1177 1173 1173 1168 1173 1190 1229 1245 1232 1231 1231 1228 1233 1243 1241 1245 1252 1243 1268 1276 1280 1274 1284 1284 1275 1284 1295 1310 1316 1318 1306 1306 1321 1324 1318 1308 1295 1289 1271 1262 1272 1285 1270 1251 1248 1245 1239 1236 1203 1133 1060 987 931 889 837 
921 977 1042 1110 1161 1198 1212 1228 1257 1273 1272 1277 1260 1257 1245 1235 1214 1210 1192 1185 1185 1182 1185 1194 1194 1185 1166 1163 1162 1163 1190 1227 1238 1231 1216 1216 1216 1225 1238 1238 1240 1252 1256 1272 1281 1286 1278 1287 1288 1277 1273 1287 1298 1312 1317 1320 1322 1326 1325 1321 1309 1299 1288 1270 1260 1274 1290 1273 1252 1245 1241 1237 1235 1211 1143 1070 990 935 890 842 
928 982 1061 1127 1182 1221 1230 1238 1260 1282 1283 1283 1271 1268 1252 1241 1224 1211 1194 1179 1179 1186 1198 1201 1186 1186 1180 1182 1169 1173 1200 1224 1229 1222 1217 1214 1224 1233 1246 1251 1254 1262 1268 1286 1300 1297 1285 1285 1290 1277 1263 1275 1291 1305 1315 1327 1326 1330 1325 1324 1318 1307 1291 1278 1267 1287 1296 1278 1264 1251 1243 1240 1234 1213 1146 1084 1008 935 894 842 
937 998 1067 1146 1215 1245 1250 1246 1261 1279 1279 1280 1271 1271 1261 1253 1231 1210 1190 1179 1186 1190 1186 1195 1176 1184 1194 1200 1192 1184 1206 1223 1225 1218 1212 1219 1241 1250 1257 1258 1261 1272 1277 1299 1303 1301 1287 1286 1291 1277 1268 1268 1282 1298 1315 1324 1327 1328 1328 1322 1312 1308 1296 1277 1282 1294 1303 1286 1265 1254 1245 1233 1239 1202 1148 1089 1005 944 904 850 
940 1004 1080 1155 1223 1251 1252 1241 1245 1262 1266 1270 1254 1254 1239 1236 1225 1207 1185 1182 1189 1181 1175 1175 1188 1197 1191 1196 1203 1191 1201 1217 1221 1209 1214 1227 1239 1256 1269 1268 1265 1275 1282 1303 1308 1295 1292 1288 1284 1282 1270 1267 1272 1283 1302 1312 1313 1321 1314 1309 1302 1294 1283 1282 1297 1306 1306 1285 1263 1256 1237 1232 1237 1207 1157 1092 1005 938 893 845 
956 1003 1088 1157 1224 1251 1247 1246 1245 1253 1265 1275 1260 1251 1234 1212 1201 1193 1188 1188 1179 1165 1151 1171 1194 1205 1192 1188 1194 1192 1208 1211 1207 1205 1213 1230 1243 1261 1271 1267 1269 1277 1285 1297 1304 1294 1280 1287 1277 1275 1272 1269 1273 1273 1293 1300 1300 1304 1301 1298 1292 1282 1287 1293 1299 1303 1307 1280 1268 1256 1243 1234 1231 1216 1165 1096 1009 940 890 843 
959 1018 1087 1162 1220 1246 1255 1259 1250 1263 1279 1295 1282 1272 1259 1230 1200 1198 1193 1192 1170 1148 1146 1172 1195 1209 1210 1205 1198 1208 1220 1216 1206 1203 1217 1237 1246 1261 1266 1272 1269 1281 1290 1303 1299 1285 1278 1276 1274 1271 1272 1272 1268 1262 1277 1284 1285 1290 1283 1285 1280 1285 1293 1301 1303 1308 1301 1280 1268 1257 1246 1240 1228 1218 1169 1101 1016 942 894 841 
968 1023 1094 1159 1223 1250 1268 1258 1256 1273 1283 1291 1285 1285 1266 1247 1225 1203 1196 1199 1167 1151 1164 1173 1174 1191 1198 1204 1203 1214 1224 1221 1209 1208 1221 1236 1249 1261 1265 1268 1270 1288 1294 1300 1287 1268 1279 1273 1264 1267 1268 1271 1258 1260 1271 1284 1288 1293 1293 1287 1290 1293 1297 1298 1304 1308 1296 1278 1266 1264 1255 1247 1234 1218 1169 1097 1018 947 890 845 
964 1020 1099 1158 1225 1256 1267 1268 1260 1263 1277 1286 1278 1274 1257 1241 1216 1211 1204 1197 1164 1152 1171 1175 1183 1189 1189 1193 1192 1196 1206 1208 1203 1206 1219 1236 1236 1243 1260 1263 1271 1287 1288 1284 1269 1257 1266 1256 1256 1253 1262 1266 1263 1257 1268 1283 1285 1289 1296 1288 1292 1288 1292 1297 1291 1287 1283 1274 1271 1272 1262 1248 1241 1222 1168 1098 1016 944 889 831 
961 1012 1097 1160 1225 1256 1269 1272 1266 1267 1263 1268 1264 1265 1248 1232 1214 1213 1208 1205 1170 1165 1174 1177 1176 1185 1190 1190 1195 1187 1191 1194 1199 1201 1219 1231 1235 1237 1251 1261 1265 1277 1274 1262 1235 1249 1251 1240 1241 1243 1248 1256 1255 1262 1267 1276 1271 1280 1280 1276 1277 1281 1282 1285 1280 1277 1286 1282 1278 1270 1273 1263 1245 1223 1159 1089 1008 941 882 828 
953 1013 1087 1153 1213 1256 1268 1272 1272 1280 1279 1279 1256 1254 1240 1233 1226 1229 1221 1209 1186 1176 1187 1189 1179 1180 1192 1198 1210 1200 1190 1192 1202 1208 1219 1220 1224 1229 1240 1251 1266 1270 1252 1235 1227 1238 1234 1225 1228 1233 1231 1246 1255 1265 1267 1277 1278 1280 1275 1273 1267 1263 1270 1269 1263 1279 1288 1286 1281 1285 1274 1266 1246 1224 1153 1083 1000 936 879 827 
950 1003 1078 1152 1215 1254 1268 1270 1274 1282 1279 1283 1254 1247 1238 1238 1238 1241 1224 1218 1200 1186 1191 1193 1192 1186 1191 1203 1207 1214 1199 1193 1201 1201 1212 1217 1218 1219 1233 1248 1254 1254 1219 1212 1220 1224 1216 1216 1223 1221 1230 1229 1244 1261 1271 1288 1283 1286 1280 1276 1271 1262 1249 1253 1258 1278 1297 1295 1292 1286 1286 1265 1250 1215 1143 1076 998 928 880 828 
942 1001 1074 1144 1205 1253 1269 1272 1279 1286 1281 1281 1252 1249 1252 1257 1256 1243 1235 1224 1203 1198 1201 1191 1189 1196 1195 1197 1199 1217 1212 1192 1191 1196 1207 1209 1210 1213 1226 1238 1241 1231 1203 1206 1207 1209 1205 1211 1211 1220 1222 1229 1237 1252 1265 1275 1280 1284 1284 1283 1278 1270 1262 1253 1256 1278 1303 1305 1301 1292 1283 1261 1247 1198 1137 1065 989 920 871 824 
939 996 1061 1130 1194 1239 1260 1267 1270 1280 1282 1272 1255 1257 1265 1266 1256 1247 1235 1221 1206 1205 1205 1194 1189 1200 1198 1193 1191 1200 1210 1189 1184 1186 1195 1197 1194 1196 1209 1223 1216 1199 1183 1192 1194 1196 1204 1209 1214 1218 1218 1217 1227 1244 1256 1263 1271 1281 1285 1286 1282 1275 1264 1248 1249 1277 1302 1306 1304 1298 1282 1259 1226 1187 1121 1053 974 908 861 810 
930 985 1049 1113 1183 1235 1262 1265 1268 1278 1278 1269 1258 1265 1277 1273 1261 1246 1232 1219 1205 1207 1202 1198 1187 1191 1203 1196 1187 1193 1199 1185 1172 1173 1176 1175 1181 1187 1202 1204 1189 1171 1170 1178 1189 1203 1213 1218 1218 1222 1216 1215 1216 1235 1253 1268 1273 1283 1288 1292 1286 1276 1267 1247 1248 1278 1307 1317 1307 1300 1279 1254 1224 1178 1107 1041 958 899 849 798 
929 975 1041 1106 1168 1222 1256 1265 1260 1273 1264 1256 1259 1281 1283 1276 1267 1257 1239 1218 1207 1205 1203 1200 1188 1189 1198 1199 1185 1192 1198 1181 1170 1183 1188 1181 1167 1171 1186 1186 1157 1153 1155 1174 1193 1203 1219 1220 1225 1223 1223 1222 1218 1227 1240 1259 1267 1282 1280 1284 1283 1274 1271 1261 1258 1282 1302 1313 1314 1297 1285 1257 1228 1167 1094 1018 948 889 837 786 
914 965 1026 1091 1151 1209 1248 1255 1252 1262 1252 1256 1275 1292 1287 1278 1272 1266 1240 1221 1210 1214 1213 1201 1187 1184 1191 1195 1184 1193 1202 1201 1190 1194 1195 1197 1188 1177 1171 1160 1153 1156 1153 1179 1197 1211 1221 1225 1229 1232 1235 1232 1241 1248 1248 1252 1257 1267 1276 1280 1281 1278 1268 1261 1261 1271 1300 1310 1321 1307 1292 1251 1222 1157 1075 998 931 880 826 769 
902 953 1014 1069 1131 1195 1240 1253 1247 1250 1251 1271 1282 1290 1288 1284 1279 1274 1252 1226 1221 1225 1219 1206 1187 1184 1184 1182 1179 1182 1193 1202 1204 1199 1198 1195 1205 1202 1190 1170 1158 1167 1167 1190 1202 1214 1223 1227 1234 1243 1244 1247 1256 1259 1264 1259 1250 1258 1274 1281 1283 1275 1265 1261 1257 1270 1293 1310 1317 1307 1289 1257 1220 1147 1059 985 923 866 806 754 
894 943 999 1055 1116 1171 1230 1246 1244 1248 1253 1267 1275 1281 1280 1274 1270 1257 1244 1229 1232 1232 1225 1215 1191 1180 1181 1180 1178 1181 1188 1199 1202 1201 1200 1192 1196 1213 1213 1188 1167 1171 1171 1188 1201 1211 1221 1231 1240 1247 1251 1253 1258 1265 1266 1253 1260 1271 1278 1284 1286 1275 1274 1264 1262 1274 1284 1301 1304 1298 1280 1256 1204 1120 1035 964 909 842 787 739 
876 919 973 1029 1093 1156 1211 1239 1241 1238 1250 1268 1276 1287 1282 1278 1272 1269 1260 1245 1238 1229 1216 1199 1191 1175 1175 1181 1184 1188 1190 1196 1197 1197 1188 1190 1185 1202 1218 1206 1181 1170 1170 1182 1189 1210 1224 1235 1246 1250 1258 1261 1264 1266 1267 1267 1275 1285 1288 1288 1289 1288 1283 1274 1263 1277 1275 1284 1289 1284 1268 1243 1177 1093 1014 947 886 817 769 720 
869 906 958 1012 1062 1134 1190 1233 1232 1236 1249 1274 1290 1290 1283 1282 1277 1278 1267 1252 1236 1211 1201 1192 1184 1176 1173 1184 1196 1197 1191 1200 1199 1193 1186 1182 1174 1185 1203 1209 1196 1174 1172 1177 1185 1195 1220 1234 1247 1256 1262 1266 1274 1280 1277 1283 1279 1292 1292 1296 1295 1294 1291 1286 1282 1284 1276 1275 1278 1279 1261 1228 1142 1065 983 928 861 800 744 696 
849 885 936 991 1039 1103 1171 1211 1233 1244 1249 1274 1283 1291 1286 1284 1284 1285 1271 1260 1240 1217 1210 1209 1199 1193 1187 1189 1189 1194 1187 1184 1191 1197 1182 1175 1164 1169 1185 1195 1197 1184 1178 1183 1179 1190 1205 1227 1244 1254 1266 1273 1284 1289 1286 1286 1293 1299 1300 1303 1302 1307 1305 1304 1297 1291 1278 1271 1279 1269 1253 1192 1106 1032 953 898 836 784 722 678 
835 873 921 964 1018 1079 1144 1197 1234 1252 1251 1275 1284 1300 1298 1296 1288 1286 1274 1261 1237 1234 1227 1233 1227 1227 1222 1218 1204 1196 1191 1187 1177 1188 1182 1181 1184 1181 1184 1178 1173 1184 1194 1197 1192 1185 1193 1205 1227 1248 1261 1271 1284 1284 1288 1288 1299 1311 1315 1314 1315 1319 1319 1314 1306 1296 1280 1269 1275 1272 1227 1161 1083 1006 931 877 808 765 708 666 
820 855 910 945 994 1049 1105 1169 1206 1253 1258 1273 1285 1304 1304 1304 1296 1288 1276 1261 1248 1247 1256 1257 1252 1244 1247 1243 1235 1215 1200 1199 1190 1189 1203 1210 1210 1213 1213 1190 1162 1180 1203 1209 1202 1195 1194 1196 1199 1222 1245 1255 1265 1265 1277 1294 1306 1318 1321 1321 1328 1328 1325 1317 1301 1288 1273 1259 1258 1241 1198 1125 1052 981 914 850 793 736 697 651 
803 840 886 927 974 1013 1079 1141 1185 1233 1247 1266 1279 1302 1310 1311 1293 1284 1270 1261 1257 1267 1269 1276 1267 1259 1263 1257 1243 1228 1212 1209 1199 1208 1228 1224 1220 1222 1219 1194 1162 1173 1195 1201 1203 1204 1200 1200 1207 1220 1222 1231 1234 1247 1266 1293 1307 1315 1321 1322 1326 1329 1326 1315 1294 1282 1272 1265 1263 1227 1166 1093 1023 962 896 831 770 727 679 628 
777 818 863 905 946 990 1044 1098 1150 1204 1227 1262 1271 1295 1301 1300 1291 1272 1262 1260 1273 1280 1283 1288 1280 1269 1265 1266 1242 1231 1211 1208 1206 1216 1239 1237 1227 1222 1220 1202 1174 1164 1188 1196 1190 1198 1203 1209 1216 1224 1222 1223 1222 1241 1253 1266 1293 1311 1322 1326 1329 1322 1317 1296 1282 1283 1286 1266 1248 1186 1120 1056 991 924 865 809 750 697 648 609 
755 797 847 876 918 961 1014 1059 1110 1172 1205 1243 1255 1283 1289 1291 1279 1266 1256 1271 1284 1291 1289 1287 1280 1271 1270 1253 1232 1215 1210 1216 1214 1216 1235 1240 1237 1228 1228 1214 1175 1167 1169 1180 1181 1191 1204 1218 1224 1234 1238 1230 1237 1257 1263 1279 1282 1287 1302 1309 1311 1308 1289 1273 1274 1289 1293 1258 1209 1146 1093 1029 963 912 846 791 731 682 638 601 
737 777 825 855 886 928 983 1022 1071 1132 1171 1217 1238 1264 1271 1270 1265 1258 1263 1277 1295 1287 1289 1283 1279 1264 1253 1241 1224 1225 1242 1239 1237 1229 1228 1238 1242 1243 1236 1224 1187 1179 1172 1168 1163 1185 1203 1218 1234 1243 1248 1239 1240 1270 1284 1293 1302 1306 1297 1284 1280 1280 1274 1265 1268 1274 1260 1222 1170 1121 1058 995 935 881 813 773 712 664 617 578 
709 755 797 829 862 899 942 985 1027 1092 1143 1183 1205 1244 1256 1260 1260 1252 1260 1280 1294 1288 1286 1284 1272 1258 1252 1233 1219 1240 1251 1250 1235 1230 1232 1233 1238 1249 1249 1233 1203 1200 1182 1166 1161 1185 1204 1222 1232 1238 1237 1236 1240 1276 1289 1297 1298 1299 1289 1283 1268 1266 1264 1262 1272 1250 1226 1177 1130 1080 1026 962 903 851 795 744 694 656 597 556 
686 726 770 796 833 862 908 949 988 1053 1101 1148 1174 1218 1239 1243 1253 1254 1259 1278 1290 1283 1279 1278 1265 1252 1240 1227 1223 1225 1232 1241 1242 1227 1227 1228 1231 1247 1249 1237 1217 1205 1194 1178 1165 1189 1206 1216 1226 1226 1229 1225 1237 1269 1281 1286 1285 1286 1279 1261 1252 1249 1259 1264 1252 1227 1192 1140 1091 1039 989 931 878 831 766 721 673 625 575 539 
660 703 739 766 798 836 875 917 952 1010 1056 1111 1134 1189 1219 1241 1246 1259 1257 1270 1291 1282 1273 1264 1251 1244 1231 1219 1208 1218 1216 1231 1251 1244 1226 1220 1215 1229 1244 1233 1212 1206 1198 1192 1170 1185 1209 1216 1218 1220 1223 1225 1239 1262 1268 1273 1272 1263 1252 1241 1241 1248 1260 1247 1232 1193 1157 1102 1042 999 954 902 847 801 743 706 650 603 563 507 
627 671 707 744 774 808 844 884 913 969 1008 1065 1098 1146 1191 1224 1241 1255 1255 1258 1282 1279 1268 1258 1238 1231 1227 1215 1208 1221 1230 1232 1248 1254 1256 1241 1214 1213 1218 1219 1204 1205 1199 1190 1174 1194 1214 1211 1216 1216 1218 1224 1241 1262 1269 1271 1267 1255 1240 1239 1250 1258 1250 1226 1187 1154 1113 1050 1002 961 913 867 813 771 723 687 627 586 546 461 
604 650 693 726 755 778 813 846 879 928 969 1014 1048 1109 1151 1188 1230 1256 1257 1261 1272 1275 1267 1256 1236 1230 1225 1229 1227 1245 1245 1235 1248 1248 1254 1259 1243 1229 1218 1217 1202 1188 1189 1187 1179 1191 1206 1208 1212 1215 1221 1230 1240 1253 1258 1264 1254 1248 1242 1249 1256 1243 1223 1184 1151 1108 1060 1006 960 927 886 836 785 743 697 662 612 568 504 431 
561 606 657 695 724 749 782 813 843 895 923 968 1004 1062 1099 1138 1185 1229 1250 1260 1260 1258 1261 1252 1236 1225 1229 1237 1244 1254 1252 1242 1250 1254 1240 1244 1248 1237 1223 1219 1205 1190 1192 1204 1192 1189 1184 1193 1202 1207 1224 1228 1233 1251 1254 1248 1245 1244 1245 1247 1232 1209 1175 1140 1097 1052 1009 961 918 881 843 804 747 720 669 627 583 537 454 414 
516 578 621 659 689 728 752 782 811 850 884 929 951 1007 1055 1097 1140 1193 1218 1251 1269 1259 1254 1249 1237 1230 1233 1242 1252 1264 1249 1242 1245 1257 1243 1228 1219 1219 1213 1207 1213 1223 1225 1230 1203 1186 1183 1183 1206 1215 1226 1227 1231 1244 1240 1243 1239 1244 1244 1227 1199 1161 1127 1081 1035 998 962 911 875 837 803 769 728 695 645 610 548 486 433 403 
473 530 589 635 655 694 721 750 775 819 845 890 916 961 1003 1048 1087 1135 1171 1206 1243 1256 1251 1251 1239 1235 1242 1246 1258 1266 1252 1247 1251 1251 1244 1230 1219 1217 1209 1206 1215 1234 1239 1238 1220 1197 1182 1198 1213 1227 1230 1231 1229 1233 1237 1245 1235 1240 1217 1189 1145 1111 1070 1025 978 953 913 876 838 798 772 740 703 657 616 586 515 449 420 384 
461 475 549 600 633 665 702 721 742 775 808 844 873 924 959 995 1038 1081 1118 1149 1198 1225 1243 1247 1244 1245 1253 1248 1255 1254 1251 1251 1247 1247 1248 1233 1219 1217 1211 1206 1210 1212 1212 1215 1212 1193 1200 1207 1221 1230 1232 1226 1223 1225 1234 1235 1213 1195 1159 1134 1091 1053 1011 968 932 905 875 833 802 769 745 706 668 643 600 552 465 437 407 322 
407 458 492 558 589 635 672 692 712 751 774 810 834 876 915 952 979 1020 1050 1100 1127 1157 1196 1226 1234 1239 1252 1242 1241 1251 1247 1248 1244 1235 1240 1230 1216 1223 1219 1211 1206 1203 1201 1206 1198 1198 1212 1220 1221 1222 1222 1215 1214 1218 1209 1193 1162 1135 1095 1069 1036 983 956 918 887 858 834 794 762 735 707 678 639 611 558 491 449 417 359 161 
338 417 464 501 565 605 645 668 690 717 742 780 800 843 876 909 935 978 1002 1030 1073 1100 1138 1166 1183 1209 1227 1238 1223 1236 1241 1240 1238 1228 1236 1227 1223 1223 1227 1220 1208 1211 1207 1211 1211 1219 1220 1222 1219 1214 1216 1211 1202 1183 1163 1144 1100 1075 1038 1018 972 929 904 873 841 823 796 766 732 704 677 649 614 577 505 465 430 382 209 69 
182 348 426 461 498 559 602 634 663 687 715 744 761 803 836 868 887 925 946 974 1005 1033 1063 1093 1113 1142 1164 1182 1179 1205 1224 1221 1226 1216 1225 1221 1220 1224 1212 1214 1220 1239 1233 1231 1227 1226 1223 1218 1211 1204 1197 1168 1139 1129 1106 1074 1035 1009 972 956 920 885 860 831 804 786 761 723 692 664 644 620 568 515 459 447 397 242 76 35 
58 195 359 433 463 488 551 595 626 663 679 711 724 763 793 822 842 872 896 921 939 969 992 1022 1043 1070 1098 1117 1121 1157 1176 1182 1191 1202 1208 1212 1216 1212 1203 1205 1212 1228 1221 1218 1208 1209 1198 1187 1174 1149 1134 1105 1075 1065 1026 999 972 948 925 895 873 845 819 791 767 745 725 687 663 639 604 569 515 469 447 415 264 87 43 21 
32 59 219 358 428 458 492 548 587 629 651 679 691 724 752 782 800 832 851 868 895 913 941 960 978 1002 1025 1054 1068 1088 1108 1119 1140 1155 1164 1166 1165 1174 1176 1175 1163 1166 1162 1160 1150 1144 1135 1117 1101 1074 1062 1034 1006 989 967 945 918 910 872 843 821 801 780 755 729 706 688 659 623 601 566 509 473 453 413 281 93 45 28 15 
22 27 64 217 359 424 451 483 535 592 625 649 662 691 717 740 760 790 801 819 848 864 886 906 917 934 960 984 989 1018 1040 1051 1067 1085 1099 1099 1096 1106 1115 1112 1106 1100 1095 1093 1081 1080 1064 1041 1025 1009 990 960 946 935 911 901 875 859 823 798 786 762 745 720 694 673 650 622 590 558 507 471 450 418 278 104 50 34 21 4 
5 15 31 67 198 346 409 444 471 526 571 621 632 657 680 705 721 740 760 772 801 813 825 842 852 869 902 920 934 943 962 964 990 1002 1012 1015 1015 1027 1031 1028 1021 1021 1013 1012 1004 996 980 965 952 932 926 905 887 874 862 847 830 810 782 765 742 722 707 687 665 640 621 582 530 491 465 439 410 280 94 44 22 15 9 6 
3 6 22 41 64 194 351 411 453 475 515 581 594 645 669 682 672 719 727 744 768 781 798 813 824 836 857 870 878 888 901 912 935 937 941 945 941 943 950 948 946 944 940 936 925 922 913 908 899 888 871 865 848 844 837 813 789 776 738 739 704 697 685 660 640 613 596 532 489 469 450 409 266 99 54 40 22 12 5 0 


