P2
80 60
149
47 44 48 37 35 40 35 37 40 39 37 37 41 40 39 39 40 39 38 41 43 43 42 40 36 21 24 21 21 21 24 32 37 39 35 37 43 49 48 46 48 47 49 52 52 54 53 56 56 54 56 55 60 55 59 56 61 60 58 55 57 59 58 62 63 63 63 61 63 67 70 70 71 74 75 71 71 71 73 71 
46 42 47 43 40 36 38 41 39 41 40 46 39 39 40 39 41 40 40 44 44 41 38 40 34 23 23 23 22 23 25 34 35 38 39 41 47 49 47 48 51 50 52 52 53 52 53 53 57 52 56 53 56 55 59 57 58 59 60 56 59 59 61 60 64 64 64 63 64 67 65 67 70 71 67 70 68 69 73 69 
49 45 50 45 45 41 40 42 39 40 40 41 36 39 42 40 40 40 42 43 45 43 40 37 30 23 20 23 23 24 25 32 33 36 45 41 47 49 47 48 51 48 52 53 53 50 52 56 51 53 53 54 56 53 55 57 58 61 57 55 63 57 59 59 63 61 61 62 65 67 69 70 68 68 73 70 73 65 69 68 
48 44 52 41 45 47 42 44 40 40 37 36 37 41 42 40 45 40 44 43 39 42 40 35 27 20 20 24 28 34 37 34 37 42 47 46 49 52 51 48 48 53 51 51 51 53 51 53 56 53 53 58 55 55 55 59 55 57 58 59 62 60 59 59 65 62 62 63 64 65 65 64 66 64 68 71 69 68 74 68 
42 49 48 46 49 44 45 42 41 38 35 39 39 41 41 43 43 41 41 40 41 38 38 35 29 19 21 27 31 37 39 38 36 41 47 45 49 49 48 51 50 51 53 51 55 52 52 50 50 53 54 52 53 56 55 57 57 60 54 57 63 57 64 59 58 59 64 61 65 64 64 65 67 68 70 69 70 68 72 70 
44 49 47 45 46 43 41 41 40 42 40 36 42 39 42 43 42 40 37 44 39 43 38 32 30 23 21 26 34 37 41 36 42 42 45 44 51 47 48 49 50 51 53 52 49 51 52 53 53 53 52 54 55 54 58 57 62 57 55 58 59 59 59 59 61 65 64 61 63 64 66 65 66 67 69 68 71 67 69 73 
50 47 50 52 45 45 42 40 43 39 42 40 40 39 41 43 40 41 40 41 42 41 35 35 28 21 24 28 38 40 36 38 44 46 44 44 47 50 50 50 49 51 54 51 53 53 50 54 54 55 53 56 55 53 56 57 63 60 53 55 56 62 57 59 62 65 63 62 62 63 68 67 69 67 68 69 72 70 69 67 
50 45 47 48 47 41 37 43 39 41 41 41 40 40 42 40 43 40 42 40 41 42 37 33 30 34 33 32 40 34 38 42 48 46 46 48 53 51 50 48 49 51 54 51 53 52 50 50 53 51 51 55 56 54 57 55 58 58 56 58 61 63 59 63 61 60 62 63 63 66 66 69 68 71 69 70 72 63 73 79 
46 50 46 49 42 45 39 43 38 40 39 38 40 39 43 42 45 41 41 42 44 40 35 38 39 37 38 31 34 34 37 40 49 44 51 50 49 52 52 48 49 50 55 53 53 50 52 52 56 53 53 54 55 54 56 54 59 63 56 57 60 59 62 57 62 61 65 62 62 66 68 65 66 67 68 68 69 75 86 108 
49 45 49 49 44 45 42 41 43 44 42 39 38 42 40 43 41 41 37 44 43 43 46 45 44 46 45 40 41 38 43 40 47 44 50 50 54 50 50 51 49 52 56 55 53 48 49 52 55 55 53 53 56 56 54 56 63 61 58 56 59 60 59 61 63 64 64 63 66 65 65 65 69 68 69 70 69 85 118 149 
48 49 50 47 43 46 45 42 47 47 49 45 43 45 43 42 42 38 40 43 45 48 50 47 47 49 45 46 47 48 49 47 47 47 51 51 52 55 50 53 53 55 58 52 53 53 52 53 56 53 54 57 59 55 53 57 60 61 59 60 63 62 61 57 61 66 64 64 67 66 66 67 68 70 68 71 71 104 135 147 
47 46 50 48 47 47 44 44 45 55 51 48 48 51 50 46 47 44 45 51 49 50 49 48 48 45 47 46 51 52 48 51 48 55 54 52 55 53 52 52 52 52 54 55 51 56 52 57 60 53 58 58 60 56 57 58 63 61 60 60 66 64 60 59 63 63 64 67 68 69 68 66 71 72 69 69 74 105 137 140 
49 50 48 49 45 47 46 47 48 48 53 48 49 51 54 51 48 43 48 49 49 51 48 51 49 45 49 50 51 48 50 48 52 51 54 53 54 53 51 53 54 56 54 53 54 51 52 58 54 57 53 56 58 58 57 56 63 59 57 58 63 61 59 59 61 64 61 67 63 67 67 67 68 68 67 69 78 111 122 135 
50 48 50 49 49 49 48 48 51 60 53 52 56 54 59 48 46 43 49 51 49 54 53 48 47 50 48 49 53 54 50 50 53 56 50 51 53 52 51 54 52 52 54 55 53 54 53 56 54 53 55 56 58 56 57 54 60 58 56 59 60 63 60 59 61 65 63 62 65 67 64 64 64 66 70 69 78 101 118 124 
51 49 52 47 49 49 47 46 52 60 55 53 47 53 53 55 49 47 48 50 53 53 52 52 51 48 50 50 50 49 49 51 52 50 50 53 54 52 52 54 51 53 55 54 53 53 55 53 54 54 55 58 57 57 56 55 61 62 57 56 58 61 59 59 61 66 64 63 65 63 65 69 64 64 67 69 70 85 103 117 
49 49 53 53 47 49 50 50 53 58 55 54 54 51 52 51 51 48 51 48 51 51 49 52 49 48 49 47 54 51 55 52 53 54 54 50 51 56 52 52 52 53 53 50 52 56 54 55 53 55 55 54 59 57 56 54 59 59 59 58 64 63 57 59 62 65 64 64 66 61 64 68 65 65 66 67 68 72 83 99 
55 51 56 49 55 53 53 53 54 54 52 51 54 52 53 54 51 47 53 51 52 51 52 51 49 51 50 50 53 56 54 54 51 52 52 54 51 54 52 53 52 52 52 52 51 51 53 54 54 55 54 57 58 53 58 57 61 60 58 59 61 62 62 60 64 65 66 64 67 67 66 69 65 67 67 64 70 65 70 78 
50 54 56 56 51 54 53 57 56 53 56 52 51 51 49 48 51 51 52 51 53 57 53 52 54 52 50 51 53 51 50 55 52 56 54 53 56 55 52 53 52 54 54 54 52 52 53 53 52 57 55 55 58 58 56 54 61 59 57 57 61 63 60 60 61 66 62 64 68 63 65 66 66 66 69 69 67 66 65 73 
51 51 54 52 54 51 53 54 55 56 53 53 49 53 59 53 50 51 55 52 52 54 55 51 52 55 52 55 54 55 55 55 52 52 52 52 50 52 51 55 51 51 56 53 55 55 54 55 56 53 53 54 59 57 60 57 61 57 57 59 62 60 60 58 61 66 66 65 67 66 68 66 70 70 70 68 66 68 64 66 
50 51 57 54 53 55 56 57 57 58 55 55 54 54 58 50 46 49 53 54 56 56 52 50 51 50 53 54 51 58 53 56 54 56 55 50 54 54 53 53 54 54 55 56 55 55 52 54 58 55 55 55 57 58 60 56 60 59 58 61 60 64 59 64 62 65 66 65 67 67 66 64 66 70 68 67 70 65 63 64 
52 52 55 52 49 56 56 56 58 58 55 54 51 55 57 57 51 50 52 54 56 57 55 55 51 53 53 51 51 60 57 54 54 56 54 53 56 55 53 54 56 53 56 56 53 53 53 55 57 57 56 54 59 58 59 60 64 60 62 60 61 64 60 59 63 64 66 65 63 63 66 64 67 70 68 67 68 66 70 63 
54 51 55 54 51 56 55 52 59 55 52 60 48 51 55 50 53 51 54 54 54 56 53 54 56 51 50 56 54 55 56 58 54 53 55 53 55 54 53 51 51 54 51 51 55 57 55 54 57 55 57 52 55 55 58 57 59 61 58 58 60 63 65 62 63 62 64 62 63 63 63 65 69 66 67 67 63 67 64 61 
51 50 54 52 53 54 58 57 58 56 54 64 51 52 56 52 53 55 53 53 55 55 54 53 51 52 53 53 55 56 55 58 54 55 54 55 56 53 53 55 52 52 55 54 55 52 55 55 58 56 57 56 56 54 56 56 57 53 58 59 60 62 65 58 65 63 62 63 63 66 68 66 69 64 68 67 69 64 65 62 
53 53 54 53 52 55 58 55 58 54 57 58 56 54 52 52 49 53 56 54 56 60 54 52 56 50 52 53 57 57 55 55 53 53 53 54 56 53 53 53 51 53 53 52 55 51 52 55 55 57 54 56 58 53 57 55 58 57 58 59 60 63 60 60 61 56 59 62 62 63 64 67 65 69 67 63 65 62 65 63 
51 53 55 54 56 57 57 58 57 59 57 54 53 51 55 51 51 53 56 57 58 59 52 53 55 54 53 56 56 58 56 56 53 51 54 53 55 57 54 53 53 54 57 56 54 54 55 57 56 57 56 56 61 57 58 59 62 62 57 59 57 62 61 59 60 61 60 61 62 61 65 66 63 61 62 64 65 63 66 61 
35 51 57 54 54 55 57 56 55 61 56 56 53 54 56 55 53 54 56 59 59 56 54 55 52 54 56 56 58 58 54 59 54 58 55 54 57 55 54 55 54 55 56 56 55 58 55 56 59 55 59 57 60 59 58 58 59 61 57 57 63 60 60 59 59 63 63 61 65 61 62 64 65 62 64 66 67 64 66 59 
10 47 55 51 57 59 59 59 55 56 58 51 52 55 56 54 54 57 54 57 56 56 53 57 58 53 57 57 58 58 56 58 58 56 56 53 56 59 57 59 55 53 56 56 58 57 55 56 55 57 58 55 60 58 60 56 62 59 59 58 62 62 60 58 60 63 59 61 62 61 63 64 65 60 64 64 66 63 67 64 
0 45 55 55 57 58 58 61 65 57 59 56 52 57 57 56 60 60 61 58 58 56 56 55 54 57 57 57 60 58 59 60 58 61 59 58 59 58 57 56 55 53 57 57 58 57 56 60 59 59 60 56 57 60 57 57 58 61 60 57 65 60 59 58 61 65 60 62 61 61 62 65 66 60 63 66 65 63 66 65 
9 42 54 57 61 61 61 59 59 57 56 60 52 52 57 59 60 61 56 58 55 55 56 55 56 58 57 60 59 57 58 57 60 58 58 57 56 59 57 59 55 57 58 57 57 58 55 59 56 58 59 57 58 57 59 59 61 60 58 61 60 62 61 59 59 60 62 60 63 64 64 64 64 62 62 66 64 62 63 67 
30 43 53 57 57 59 59 60 58 58 59 57 56 53 57 54 58 58 57 58 58 58 55 59 58 58 58 58 59 58 59 58 58 57 59 55 57 55 57 56 53 55 58 53 55 56 57 57 58 58 57 58 58 57 59 61 59 59 56 62 62 60 60 62 61 67 62 62 65 62 68 66 63 63 67 64 64 62 63 59 
42 44 51 56 55 56 56 58 60 58 57 58 54 56 57 59 56 55 58 60 60 58 58 57 56 54 56 59 57 60 58 56 55 56 60 59 59 55 55 55 55 54 57 57 57 55 56 55 58 58 60 57 56 56 58 57 62 60 58 58 60 60 61 58 62 64 61 60 62 65 64 63 65 63 65 63 69 61 63 64 
50 50 53 53 57 57 58 60 58 58 60 58 53 56 62 64 56 56 62 58 59 61 58 60 59 57 60 57 60 60 58 62 57 57 58 57 56 56 55 59 59 59 58 58 57 57 57 59 57 58 57 61 57 57 59 59 61 59 58 57 61 63 61 60 64 60 66 64 64 64 62 62 65 64 67 63 67 66 64 62 
55 52 55 57 57 60 62 62 61 58 61 58 56 57 64 61 59 60 61 59 59 56 59 59 57 59 59 59 62 62 62 60 60 60 58 60 56 58 55 61 57 58 61 57 57 57 58 58 55 61 58 59 62 61 58 61 63 63 63 58 64 64 59 62 63 62 63 63 64 62 63 64 63 64 67 66 65 64 62 64 
53 55 57 59 58 62 61 61 60 59 61 56 60 57 60 64 57 58 61 60 61 58 60 58 58 59 64 64 64 63 63 61 57 61 58 61 62 57 57 57 60 60 62 59 58 60 61 60 61 61 57 63 62 58 60 58 66 64 62 60 61 65 62 63 66 64 63 63 64 62 66 62 65 65 65 67 66 65 67 63 
56 54 58 59 58 62 60 62 64 60 60 59 60 59 61 63 59 63 63 61 62 58 61 60 62 60 63 63 66 64 65 63 60 59 62 59 59 62 62 61 60 60 59 59 60 61 55 59 61 58 57 62 62 61 59 60 64 59 62 62 67 64 62 62 67 62 64 62 62 63 66 64 68 65 69 66 66 67 67 64 
52 54 58 57 59 61 64 63 63 61 65 61 61 62 61 61 58 60 62 61 62 62 59 60 61 59 58 67 64 65 63 64 61 59 58 62 59 58 57 61 58 59 61 59 59 61 61 58 61 60 58 60 63 60 60 60 64 62 61 61 63 66 63 63 64 63 64 63 65 66 68 65 68 68 68 69 64 65 63 61 
55 55 61 62 59 62 63 62 63 66 64 63 64 64 66 63 62 61 64 61 63 62 60 60 61 61 61 61 67 65 64 63 63 63 62 61 62 58 58 60 58 61 61 58 59 60 60 60 63 62 60 59 62 59 59 61 66 63 60 60 66 64 61 63 62 64 68 62 62 64 67 65 66 65 68 66 67 63 65 66 
57 56 61 62 59 64 63 70 65 67 68 62 63 65 66 64 62 62 66 60 65 62 61 62 63 62 63 65 66 66 61 64 63 60 64 62 61 59 61 62 62 62 63 61 60 59 61 59 60 63 59 60 62 59 58 61 67 62 62 61 62 64 63 63 61 64 67 61 64 63 68 64 67 65 67 63 67 66 65 65 
65 60 63 56 64 63 69 65 65 70 67 67 66 64 64 64 63 66 64 63 63 65 60 62 63 62 63 65 64 64 63 65 63 63 63 59 60 57 62 66 60 62 61 60 62 59 62 62 62 59 59 59 60 60 59 61 64 64 60 60 64 63 60 62 62 67 67 63 67 64 62 63 67 68 64 69 67 71 67 68 
63 61 63 64 65 67 65 67 70 69 66 68 65 64 66 66 67 63 64 63 63 64 64 62 63 60 62 63 66 65 66 65 61 64 62 59 61 59 58 61 62 61 60 61 56 64 62 63 60 60 60 62 64 58 60 60 64 64 61 58 61 62 64 62 65 65 65 61 64 67 63 64 67 69 68 65 67 69 67 71 
67 67 66 66 67 68 70 66 69 69 72 70 67 66 69 64 65 66 63 64 63 65 63 65 68 61 67 69 65 66 64 64 60 62 61 63 61 58 61 64 61 63 64 60 60 62 60 60 60 63 60 59 63 61 58 60 63 66 63 61 61 63 62 63 64 66 66 66 67 64 69 68 68 68 72 67 67 66 67 64 
73 66 70 74 75 71 72 75 76 77 73 73 67 67 70 68 62 66 65 64 66 64 65 67 68 68 64 66 70 69 69 71 66 67 63 64 67 62 61 63 59 63 65 64 64 62 62 62 63 61 61 63 62 61 64 62 64 64 62 63 63 64 66 63 62 64 66 66 67 71 70 70 70 69 71 68 72 68 66 67 
71 68 72 71 72 75 76 76 75 74 70 73 72 65 71 72 68 64 65 69 65 69 66 68 66 64 64 64 68 64 66 69 70 66 65 64 63 67 61 61 61 62 65 64 62 62 62 62 62 62 61 61 63 62 62 64 63 60 62 64 68 64 59 63 63 66 63 66 68 66 63 70 67 68 71 69 69 72 68 68 
68 68 68 73 76 75 73 70 75 71 73 75 68 71 68 72 65 64 66 67 66 68 66 65 65 65 67 65 69 68 70 70 63 67 64 63 62 62 64 58 64 63 64 62 62 61 61 61 61 62 62 64 60 60 61 63 64 64 64 64 64 66 62 62 65 66 66 64 67 67 69 71 73 70 71 69 68 73 69 66 
67 72 73 75 75 78 73 75 78 75 75 76 69 73 73 71 69 70 68 71 70 66 68 70 70 68 69 69 68 69 68 71 68 66 65 63 64 63 63 66 67 65 62 62 64 63 61 61 64 61 64 64 62 62 64 61 64 66 63 65 65 66 70 65 67 70 70 71 69 68 73 72 71 73 72 73 69 70 71 67 
71 69 73 74 75 74 73 80 79 75 78 74 73 71 71 67 67 68 67 66 70 69 68 67 64 67 66 68 70 68 67 70 68 65 67 63 65 63 63 68 61 61 64 63 64 64 62 62 63 63 65 65 59 59 62 60 64 62 64 64 65 66 67 64 65 67 67 67 70 70 68 71 72 72 73 73 72 71 71 73 
71 73 72 72 72 78 80 79 73 75 76 74 72 73 74 71 66 67 68 68 67 70 68 68 65 67 69 67 68 72 71 70 65 67 65 65 66 65 62 63 62 63 64 62 62 61 61 62 63 63 62 66 62 61 62 60 65 63 62 63 62 66 65 65 67 68 65 70 69 68 72 68 69 72 72 71 72 69 70 71 
72 72 71 72 73 78 76 77 77 76 75 76 71 75 73 73 66 67 70 70 69 70 70 70 68 66 68 68 70 69 68 71 65 68 66 66 66 66 66 65 66 66 61 64 62 64 62 64 62 64 64 65 62 59 61 65 65 64 65 66 64 66 65 64 69 66 66 69 70 71 69 71 72 70 73 70 72 70 72 68 
70 71 70 74 73 75 80 77 77 73 77 76 72 70 79 72 69 69 71 69 68 69 65 71 68 68 69 71 68 69 69 69 70 67 67 65 67 64 64 64 65 65 65 65 64 62 66 63 65 63 62 63 64 65 62 65 65 63 66 65 64 68 66 68 69 68 67 68 71 70 74 69 71 70 72 73 68 73 73 69 
76 69 75 73 76 74 79 81 80 75 73 76 74 74 75 74 69 69 69 71 70 71 68 69 68 68 70 72 70 70 70 70 66 69 66 63 67 66 64 68 62 65 66 64 63 65 62 67 65 61 61 60 66 65 62 64 65 63 66 67 67 70 67 69 68 69 69 70 68 69 72 69 71 72 75 73 74 73 72 73 
71 72 74 74 80 76 84 79 79 76 75 76 73 74 77 74 72 71 69 71 74 72 67 71 69 69 69 71 71 73 70 71 68 66 66 67 69 63 68 64 64 65 63 63 65 62 60 63 66 65 63 64 63 63 65 65 66 65 63 66 66 68 67 68 70 68 70 70 74 74 73 71 74 74 77 73 74 73 72 69 
72 73 74 77 79 81 82 80 80 79 78 75 75 72 75 74 71 71 71 69 73 72 68 70 70 71 72 74 74 70 71 69 67 68 68 71 70 66 67 68 63 68 67 64 66 64 64 65 65 65 62 65 63 62 65 66 69 65 65 66 66 70 67 67 69 71 71 70 76 74 74 76 73 70 73 72 73 75 70 74 
77 72 78 80 76 80 83 82 80 78 79 77 77 79 77 75 74 71 73 71 77 75 74 73 71 71 71 76 74 74 73 69 70 68 68 67 71 67 67 70 67 63 69 65 64 65 63 62 65 63 65 66 64 66 66 67 68 69 70 65 70 67 69 69 69 71 72 72 73 70 72 72 72 73 76 73 78 75 72 74 
77 75 86 80 79 80 81 80 78 77 78 81 80 76 77 77 72 73 75 78 76 71 72 69 71 70 69 72 72 73 71 70 70 68 70 68 68 68 66 72 67 65 71 67 67 67 64 63 68 65 63 65 68 62 66 69 70 69 68 65 70 69 68 71 69 72 70 74 71 72 70 72 73 76 76 74 76 73 74 75 
80 80 83 80 80 78 88 83 82 82 81 83 76 78 81 78 77 74 80 77 77 80 73 73 72 73 73 73 75 72 74 72 74 73 68 67 71 69 68 68 66 70 70 67 67 66 67 66 68 68 64 66 69 63 68 70 71 71 67 71 73 72 71 68 72 74 76 76 72 73 72 76 74 77 75 78 75 78 77 74 
79 80 87 78 82 86 85 84 79 84 79 80 81 79 83 78 75 78 78 78 76 77 75 73 72 74 73 79 78 76 77 75 73 70 71 70 71 68 69 71 71 71 70 70 68 70 67 68 70 71 67 68 69 66 67 68 75 72 71 69 74 72 71 73 72 75 75 75 75 78 73 78 79 76 76 76 78 77 77 78 
82 84 86 84 86 86 86 84 84 83 82 82 80 83 84 78 77 77 78 80 80 81 78 73 75 74 74 78 75 77 76 75 73 75 72 68 74 73 69 73 69 71 70 68 70 67 67 69 68 70 71 69 70 68 71 72 75 74 73 68 75 72 74 74 72 71 74 74 77 75 76 78 78 77 78 77 80 79 78 77 
85 82 87 82 85 87 87 83 85 81 86 83 82 83 82 83 76 76 79 79 81 79 75 76 77 74 75 79 76 75 77 74 73 73 73 72 72 74 71 72 71 71 70 67 70 73 70 70 69 68 67 70 70 69 72 67 74 72 71 68 73 75 75 72 72 75 78 75 80 73 77 78 81 81 74 78 81 77 77 80 
80 80 89 85 89 85 87 88 86 83 84 88 83 82 83 85 80 77 81 77 81 79 76 78 75 73 76 79 79 81 78 75 74 74 74 76 73 75 72 73 72 72 72 72 75 78 73 71 73 68 69 70 71 69 70 75 76 76 70 74 73 73 73 73 75 76 78 77 76 77 76 77 82 85 81 80 77 78 77 81 
80 84 92 89 85 86 85 85 86 84 82 81 81 78 85 78 79 76 76 79 78 76 78 74 74 75 77 74 77 79 75 76 72 71 74 69 73 72 70 72 70 72 74 75 79 78 81 82 72 68 67 69 73 70 74 70 75 73 68 70 72 73 73 73 75 76 76 74 75 75 75 74 77 82 78 80 79 72 78 79 


