P2
80 60
578
134 173 196 193 193 191 190 189 186 190 187 184 185 190 202 217 217 198 185 182 182 172 176 178 164 93 41 18 20 21 20 23 23 16 24 49 135 192 199 202 203 205 214 249 261 238 215 232 267 246 210 208 214 205 201 199 193 187 179 178 178 177 179 178 185 186 183 182 190 192 190 190 191 194 192 196 196 198 195 199 
126 132 153 193 201 192 191 191 189 191 184 190 190 185 182 206 221 213 205 199 186 165 166 170 162 114 52 23 12 10 19 21 22 12 24 43 113 185 198 197 201 203 213 253 260 216 208 247 258 229 205 208 208 202 194 188 185 178 176 171 175 177 177 180 177 179 183 183 183 191 192 188 190 194 194 196 194 195 195 195 
147 147 148 170 198 204 197 193 190 192 186 190 197 199 185 180 192 203 214 218 206 187 153 145 155 138 80 38 25 5 0 6 5 11 28 49 118 187 197 195 203 200 234 254 235 203 218 256 245 209 202 208 207 200 188 185 178 179 174 176 174 175 179 177 182 182 185 185 188 191 191 194 191 192 193 193 192 197 195 201 
163 171 163 170 185 203 206 208 195 198 188 193 209 194 187 183 182 177 194 208 212 210 181 122 112 157 128 72 39 14 10 11 16 20 40 72 145 187 192 194 196 210 247 250 215 203 245 252 227 200 205 207 206 200 192 185 182 175 176 176 175 177 178 180 178 185 185 191 192 194 193 193 193 195 195 191 192 195 190 193 
166 173 174 176 190 201 198 205 210 208 196 211 198 188 186 193 189 183 170 178 191 198 192 182 148 182 168 125 74 40 21 24 30 40 66 107 166 180 188 189 203 229 249 232 205 210 253 245 207 203 205 203 198 192 188 183 181 177 177 179 176 180 182 179 185 188 191 191 193 193 193 194 193 194 192 192 192 194 192 189 
166 176 173 177 193 198 195 198 202 211 208 209 192 190 187 195 187 185 181 173 170 188 198 190 178 180 178 163 132 90 69 64 73 89 122 158 174 178 186 193 209 244 247 212 207 233 251 226 201 202 206 200 194 185 183 183 180 181 177 179 182 179 181 186 189 194 194 193 194 191 192 192 190 192 192 190 194 193 191 193 
168 178 171 189 196 194 190 187 186 195 203 210 200 190 190 191 187 186 180 183 180 171 186 192 176 174 161 152 147 101 104 127 145 153 173 173 179 183 189 197 229 251 233 201 211 247 249 209 201 205 204 197 189 184 183 180 181 183 184 180 185 183 188 193 194 196 195 196 194 194 191 191 191 191 191 195 189 197 189 187 
169 174 185 194 195 191 189 184 165 153 185 200 205 208 196 188 189 190 182 182 183 183 178 172 170 165 150 147 157 125 94 138 156 163 180 177 179 184 199 207 252 258 215 199 225 254 236 202 201 208 199 192 186 183 180 182 185 188 184 185 187 191 194 193 196 197 194 194 194 195 196 191 190 192 190 192 190 194 188 192 
174 184 197 198 191 190 186 179 139 143 185 202 194 200 204 202 197 190 185 184 185 185 184 188 170 156 163 166 177 177 174 156 155 161 167 171 183 194 201 234 263 244 204 208 246 257 217 201 205 211 199 191 185 181 182 185 187 187 192 194 192 193 197 191 194 198 195 196 194 193 197 190 191 190 192 192 191 194 190 193 
177 197 198 200 188 186 182 172 137 167 204 207 193 195 199 205 203 196 185 184 183 184 185 185 184 179 165 166 173 170 169 184 171 159 157 168 188 199 214 257 260 217 199 229 263 249 203 201 208 202 192 188 184 183 183 187 188 187 194 193 196 194 195 196 196 193 192 196 192 193 196 192 194 192 191 191 191 193 189 196 
195 203 202 197 187 185 178 167 164 202 215 196 199 200 197 199 194 200 195 186 185 184 183 185 187 194 182 170 162 160 164 170 181 183 172 177 194 202 240 262 250 201 207 258 265 222 201 202 207 200 189 187 186 188 188 189 194 195 197 197 197 195 196 194 194 194 193 196 194 195 194 196 193 191 192 194 195 196 191 191 
202 207 199 192 187 186 187 187 199 227 211 204 208 200 196 195 198 197 194 202 194 188 187 186 194 191 182 178 177 160 158 168 179 174 180 186 199 212 256 263 225 204 231 268 259 206 200 207 207 197 191 191 190 191 194 199 200 202 199 198 197 197 194 195 195 196 197 195 192 196 193 197 190 192 193 189 191 194 188 190 
203 203 195 193 191 184 187 194 216 225 209 208 207 201 195 192 193 196 186 192 198 201 187 194 193 188 181 180 181 175 166 156 161 176 182 192 207 235 263 245 203 204 259 268 232 200 201 205 202 199 191 193 193 196 193 200 201 199 198 194 197 197 197 194 195 196 195 192 190 193 193 196 193 192 190 191 189 196 190 188 
203 204 202 193 188 187 193 213 225 213 207 211 208 208 201 195 196 194 183 185 189 189 199 198 188 186 181 179 181 176 173 174 171 184 187 196 213 257 264 220 200 226 268 260 208 199 206 206 201 201 198 197 200 202 198 199 199 197 197 197 196 196 194 191 199 193 191 194 193 194 192 193 192 192 191 189 192 195 190 190 
199 201 205 204 199 196 206 228 218 215 206 210 208 214 217 213 206 195 183 183 186 185 186 190 186 183 180 180 182 179 174 179 179 184 195 202 238 270 257 200 201 253 266 233 205 200 205 206 200 203 202 201 198 202 199 201 199 198 201 196 195 197 198 196 195 194 200 192 196 194 193 192 193 193 191 191 193 195 190 191 
200 199 205 213 214 204 225 222 214 212 208 214 213 222 226 218 216 183 178 182 181 182 183 181 185 179 179 179 181 179 172 176 181 180 200 209 255 268 225 194 223 263 256 209 203 205 207 202 202 202 199 197 200 198 200 199 199 196 197 199 196 194 194 192 194 195 195 194 192 193 194 193 194 193 192 190 191 194 191 188 
200 198 202 212 216 223 227 215 211 212 215 217 219 222 193 196 158 116 152 178 183 178 185 181 186 183 179 181 182 179 174 176 179 192 204 235 270 259 206 201 250 267 235 206 203 204 204 202 201 202 201 200 200 197 201 196 198 199 196 197 197 195 194 192 197 196 195 197 196 192 195 195 190 195 192 191 190 196 188 188 
214 208 201 204 217 230 216 213 213 219 218 217 220 208 193 195 121 87 95 148 176 178 184 177 181 181 175 179 184 175 176 177 186 199 212 256 266 231 199 215 267 261 214 206 205 204 202 200 202 204 201 199 198 198 198 199 199 199 195 196 197 194 193 195 195 197 194 194 195 193 193 193 191 192 189 189 187 192 187 189 
248 239 222 219 230 222 212 211 211 220 213 223 227 202 226 191 118 85 73 98 160 181 181 182 181 180 177 176 177 176 175 177 191 203 238 267 258 206 201 243 267 245 202 201 204 199 197 198 198 199 200 198 200 200 196 202 199 197 197 197 196 195 197 191 196 197 194 193 193 194 195 190 192 192 193 189 195 194 185 190 
259 253 252 244 236 214 212 212 211 217 213 227 208 221 223 192 142 98 74 75 123 173 175 179 180 180 176 175 180 180 174 184 200 212 263 264 231 197 213 263 266 221 202 202 203 198 197 195 195 200 198 200 200 198 200 198 197 200 196 200 200 196 196 191 199 195 200 198 194 194 192 192 194 195 194 194 194 196 191 188 
255 275 271 271 254 230 216 217 212 214 214 221 211 235 207 193 175 158 110 88 121 168 164 171 178 181 175 177 181 180 174 191 202 233 269 252 207 199 238 266 248 207 202 202 202 199 197 197 196 198 199 199 199 200 196 200 201 199 198 196 196 198 196 195 196 196 198 196 196 196 194 192 195 194 194 189 194 194 190 189 
272 297 316 372 302 256 233 221 210 217 224 212 232 219 206 189 181 174 166 141 139 170 169 164 168 173 174 175 181 176 179 195 205 258 262 230 196 213 257 259 226 203 199 200 200 197 198 197 198 199 198 200 198 197 198 199 200 197 197 197 197 196 197 194 194 195 196 194 195 195 194 198 194 194 192 189 194 195 187 192 
291 308 424 578 336 267 227 216 212 228 218 223 225 195 187 185 177 178 176 174 178 184 178 173 166 162 164 174 179 177 188 200 238 275 255 208 199 235 262 246 206 196 196 198 199 195 194 196 193 196 194 198 195 198 195 201 197 199 197 197 197 195 198 196 194 196 195 194 193 195 193 191 194 194 194 190 194 197 191 187 
300 342 501 435 303 250 220 212 218 234 214 238 215 191 186 186 181 179 178 180 181 183 178 181 176 168 159 166 172 180 188 205 261 255 238 196 207 260 260 223 198 198 196 196 197 193 194 195 193 192 193 195 196 196 193 197 197 196 200 197 195 195 195 196 196 196 196 198 193 196 192 192 191 191 191 194 193 195 191 195 
316 437 457 331 271 232 216 215 231 222 229 233 210 188 190 189 185 182 179 182 182 185 181 183 186 183 175 168 165 164 178 217 267 248 214 196 238 265 248 204 197 196 192 194 197 196 196 195 193 197 194 193 192 195 197 197 198 199 198 199 196 198 197 196 196 196 198 193 193 198 195 194 194 196 193 190 196 196 189 187 
372 483 367 298 243 223 217 228 226 224 236 220 206 192 191 189 184 183 181 182 187 183 181 179 181 183 180 177 175 157 159 247 261 234 197 201 256 260 224 195 199 193 190 192 194 193 192 192 194 196 195 191 195 192 195 198 197 198 198 193 197 199 196 197 197 199 194 196 197 196 193 193 197 195 195 190 195 195 190 188 
464 421 319 277 248 224 223 234 217 234 226 204 197 191 192 188 185 184 182 182 182 177 178 177 180 181 179 178 182 173 196 270 253 206 190 223 265 247 204 188 190 188 189 189 192 192 192 194 193 197 194 197 196 196 198 198 196 196 199 194 198 195 195 195 195 199 194 196 194 194 193 192 194 193 195 194 191 195 192 194 
462 349 300 278 273 263 249 227 224 237 210 197 194 189 190 188 186 184 182 184 178 177 177 177 177 180 178 179 183 182 239 267 238 187 188 249 259 230 192 190 190 188 190 191 191 189 193 193 193 198 196 198 197 198 197 196 194 196 197 195 197 194 197 195 196 199 194 193 194 194 198 192 197 189 199 197 193 197 188 189 
385 317 275 277 273 271 272 255 241 216 200 199 195 188 189 193 189 186 184 185 182 179 174 178 179 178 175 177 184 193 270 259 212 180 219 275 251 202 188 184 187 186 188 188 188 189 192 195 195 194 196 195 195 197 197 195 199 196 196 194 195 195 198 197 193 192 196 197 194 196 193 196 197 193 198 192 193 200 190 188 
332 283 234 245 260 273 277 273 264 242 215 205 199 192 191 194 191 188 188 180 178 180 173 181 178 180 176 181 191 237 273 250 197 189 257 279 243 183 180 178 186 186 186 186 191 190 193 196 192 199 196 194 195 197 198 198 197 193 194 194 197 192 194 194 193 195 195 197 195 196 196 194 196 192 197 194 192 190 185 187 
310 262 223 216 226 246 269 275 275 274 258 232 210 197 195 193 191 190 184 179 179 179 177 178 180 180 177 180 203 262 254 221 184 211 279 266 206 178 176 174 178 178 183 185 190 190 190 190 193 193 195 191 194 194 197 198 199 197 195 196 195 192 194 195 198 195 198 195 192 196 196 191 197 190 194 196 191 185 184 181 
292 292 263 229 213 221 248 267 276 279 275 270 254 224 202 196 192 193 183 182 180 179 177 178 183 183 180 184 242 262 240 192 183 246 284 248 188 178 175 175 174 174 179 183 187 189 186 190 190 196 193 194 194 194 194 195 197 196 196 195 198 192 193 196 198 197 197 198 197 195 196 195 196 197 197 191 186 187 183 183 
291 292 287 273 248 227 228 239 244 260 267 274 274 265 245 216 196 196 180 182 181 177 175 179 180 180 182 194 267 254 218 181 200 271 274 216 184 176 176 172 174 170 173 179 184 185 185 190 190 192 193 191 190 195 191 196 195 196 197 196 197 193 198 194 195 193 195 195 196 195 196 196 195 197 194 189 186 187 181 187 
243 266 275 277 273 270 251 255 231 222 230 252 277 279 275 267 243 207 188 185 185 182 176 180 181 181 187 229 272 245 194 183 236 272 251 189 181 178 176 175 179 176 174 177 177 178 187 185 188 192 193 192 191 195 191 196 196 197 196 195 200 196 193 200 199 192 200 196 197 197 196 195 198 200 196 190 187 188 185 185 
221 223 238 259 267 274 277 282 244 225 213 219 234 260 278 282 273 261 232 204 204 183 179 181 184 185 196 262 265 227 182 192 265 265 224 182 179 177 177 178 177 178 175 174 177 175 177 182 186 191 190 192 193 196 193 194 196 196 194 199 195 196 196 195 199 194 196 197 196 198 198 197 199 197 198 193 189 191 187 188 
219 218 216 221 238 266 278 284 276 264 228 213 211 224 246 268 280 284 272 232 210 192 182 182 184 186 228 268 252 203 179 226 269 248 199 178 179 180 176 177 177 177 172 174 177 175 174 177 180 189 189 194 192 195 189 192 194 194 195 195 196 193 197 197 196 196 192 196 193 198 197 195 198 198 198 195 194 198 195 190 
214 218 209 208 212 259 345 287 275 282 275 251 223 218 231 219 236 270 264 238 246 248 212 189 189 200 262 261 240 186 191 258 263 232 187 177 180 180 177 181 176 178 178 179 178 176 178 179 177 177 181 187 185 189 191 193 195 195 196 192 196 194 197 192 195 195 197 199 196 195 196 194 196 199 198 195 197 202 196 192 
213 214 209 209 227 330 371 284 253 270 274 278 272 250 225 207 207 212 223 220 265 280 264 248 217 240 279 257 218 185 218 265 252 206 186 179 181 179 177 176 176 178 176 178 178 174 175 176 178 179 174 177 179 180 186 192 194 194 196 194 194 195 195 196 194 196 194 197 196 198 197 197 197 199 197 196 196 200 197 191 
212 211 209 215 272 384 307 270 225 237 253 271 279 274 267 233 210 206 209 209 238 266 267 267 270 291 281 244 200 194 251 261 237 190 186 182 182 181 179 177 182 181 178 179 177 178 181 179 178 177 174 176 176 175 177 183 189 191 190 193 195 192 194 195 194 198 197 198 197 197 198 197 197 199 197 197 197 203 194 193 
213 213 212 233 296 328 297 269 226 223 234 243 265 272 282 281 263 230 203 197 196 206 239 264 272 273 258 210 197 223 264 256 215 182 185 180 182 180 178 179 182 180 182 182 181 179 181 179 179 177 175 174 175 175 175 176 180 187 190 193 195 190 194 196 195 195 197 197 197 199 200 195 197 194 196 197 197 197 194 196 
213 217 221 265 368 320 294 272 251 244 225 226 224 232 264 280 281 239 215 213 194 190 196 218 245 247 223 193 204 250 261 242 197 184 186 180 182 181 179 179 183 184 179 179 182 181 180 181 180 180 177 177 177 174 174 174 175 175 187 192 193 195 192 195 197 196 199 195 201 201 199 195 198 195 195 194 195 197 197 197 
212 219 232 328 380 294 289 280 255 237 222 230 206 198 217 242 251 239 256 283 250 210 190 193 196 198 191 191 220 265 253 218 185 181 182 180 185 181 182 179 182 179 181 181 182 180 181 180 181 181 179 177 175 177 179 182 184 186 190 190 195 194 193 195 194 197 196 192 196 200 197 194 194 196 194 193 195 196 196 195 
219 227 276 445 354 300 306 285 247 227 216 217 198 193 201 203 217 222 256 284 285 270 237 205 196 192 191 200 255 271 244 197 186 183 186 183 185 184 183 183 182 184 184 183 182 182 182 179 180 181 181 181 186 191 190 190 191 196 193 197 194 194 193 196 195 193 196 197 197 200 199 197 200 196 195 193 194 196 197 195 
220 254 364 436 341 283 278 270 241 216 207 203 195 194 194 202 211 203 213 243 266 275 270 262 238 207 197 218 283 265 223 189 184 186 185 181 183 183 182 179 183 181 182 184 183 182 181 181 183 180 180 182 188 190 191 191 193 195 193 196 192 192 192 192 195 196 196 196 194 195 199 201 198 200 201 197 196 198 196 197 
231 320 500 337 269 267 253 241 215 217 203 197 196 196 194 212 203 195 197 198 218 242 261 271 272 263 242 271 292 256 199 184 186 183 187 183 188 184 181 179 182 181 182 186 186 183 179 182 182 184 183 182 190 192 193 194 193 197 193 197 196 196 195 197 196 196 198 199 198 196 201 199 201 199 198 196 199 202 201 202 
265 471 436 277 248 260 231 220 215 212 199 197 200 192 201 219 206 194 192 191 198 200 214 245 261 268 273 289 278 234 191 186 187 182 187 181 185 186 180 179 182 182 183 182 185 182 181 184 182 183 179 186 189 190 191 192 191 191 194 195 198 195 197 197 199 196 202 202 198 199 204 198 199 200 197 204 202 201 200 197 
333 563 343 252 250 242 216 211 212 213 201 204 206 208 215 220 198 191 191 190 194 192 192 202 219 249 265 270 262 208 186 187 186 185 186 187 187 184 182 182 183 185 185 183 187 184 182 183 184 182 179 184 191 194 194 193 190 194 194 197 198 195 195 195 198 196 199 200 198 202 201 200 201 201 204 198 205 204 201 204 
389 462 308 254 254 225 210 213 210 206 201 200 199 197 199 199 193 193 192 191 191 192 191 197 198 204 217 234 218 191 183 185 187 187 187 184 187 187 185 181 184 183 184 184 187 185 182 184 187 185 182 186 193 195 193 193 194 197 195 195 199 196 197 197 198 198 199 199 199 205 202 200 201 203 202 201 206 205 202 199 
484 394 276 263 246 221 213 214 208 206 199 197 199 195 193 195 192 191 191 190 189 192 189 193 192 193 194 198 196 188 182 184 189 185 187 184 187 186 185 182 185 185 184 183 189 184 181 182 181 184 184 188 190 194 194 195 196 198 194 199 200 194 198 198 200 199 200 198 200 200 202 203 204 200 200 204 204 203 203 204 
425 305 258 262 235 217 216 212 207 205 196 197 197 194 191 195 194 190 193 194 188 192 187 193 194 193 190 193 191 183 184 184 188 187 188 183 189 190 187 183 188 187 186 188 189 186 184 179 185 186 188 193 194 196 193 194 196 193 196 198 201 196 201 198 203 199 201 203 201 201 202 200 202 202 205 205 204 207 210 209 
393 285 263 259 224 217 213 213 202 203 197 195 193 192 191 192 190 194 193 194 190 193 193 195 193 196 190 191 191 187 182 185 190 190 190 186 186 186 186 183 188 186 184 187 187 185 183 181 186 189 192 193 195 201 197 193 197 198 199 200 201 197 198 200 201 201 202 203 203 204 203 200 203 202 202 205 206 207 210 222 
400 297 266 247 216 216 215 208 199 204 194 196 194 194 190 195 191 193 192 192 193 192 191 193 195 197 192 191 194 183 183 186 192 189 190 185 188 186 186 185 188 186 186 186 187 184 182 181 184 185 192 195 197 198 196 199 197 202 202 202 204 200 201 201 202 204 200 205 200 205 203 200 204 204 205 204 208 212 233 268 
471 310 273 236 216 214 213 205 200 207 198 197 195 194 193 191 195 195 192 194 193 194 194 196 203 199 193 192 196 189 184 192 191 189 192 184 190 189 190 184 191 187 187 189 187 188 183 185 183 189 195 195 195 200 199 204 201 202 202 204 206 204 203 203 204 205 205 206 206 202 204 206 207 207 207 208 208 233 282 323 
476 302 268 223 216 216 211 207 201 204 201 193 198 198 195 196 198 195 194 198 198 195 196 198 202 197 195 192 197 189 188 189 191 193 194 187 192 188 190 188 192 192 191 193 186 188 186 182 186 192 198 197 195 203 198 202 202 203 204 206 204 204 205 203 206 207 205 204 205 203 204 205 210 208 208 210 225 280 341 398 
374 286 248 218 218 215 211 206 200 206 198 198 196 195 197 198 200 199 199 196 196 198 196 201 200 199 196 197 198 191 185 191 193 192 195 188 192 192 192 190 193 193 193 192 196 188 185 186 186 197 199 200 201 202 200 203 204 208 208 204 206 204 205 207 206 206 205 207 205 208 210 208 205 208 208 226 269 339 406 413 
302 269 243 224 219 216 209 207 202 207 198 202 200 200 200 199 199 198 199 196 198 197 198 203 200 202 196 198 199 194 190 190 194 193 198 190 196 190 195 192 192 195 192 191 194 195 188 188 190 199 200 199 204 203 204 202 206 208 207 206 209 204 208 206 208 204 206 208 209 210 211 210 209 211 219 257 319 387 415 432 
294 276 247 232 222 213 206 207 204 209 198 203 200 199 201 200 198 199 201 202 202 201 200 200 203 202 199 201 201 196 192 192 196 194 200 195 200 197 196 194 198 195 197 194 197 192 190 189 195 203 202 203 203 207 206 206 207 209 209 206 211 209 209 211 210 209 208 213 208 209 213 214 214 215 236 295 362 412 431 438 
279 283 242 227 216 209 210 206 202 207 203 204 209 205 201 202 202 202 198 200 204 208 202 202 203 204 197 201 202 197 191 193 197 195 199 197 199 195 197 191 195 198 195 196 196 192 191 190 200 203 204 202 203 208 203 205 207 211 210 207 207 207 209 206 209 208 208 209 210 210 210 215 215 223 259 328 389 429 434 417 
275 265 231 227 218 214 208 209 205 208 202 204 204 206 205 203 200 204 202 201 207 208 202 204 206 203 199 203 204 195 190 198 196 201 202 197 200 196 199 199 200 194 199 197 199 193 191 193 204 205 201 202 208 207 207 209 210 207 210 211 211 211 207 206 209 209 207 210 210 213 212 216 216 236 288 359 412 440 427 390 
278 256 233 224 216 213 211 209 206 209 201 206 205 205 203 204 205 204 204 201 203 203 201 202 207 207 199 204 205 203 198 202 197 204 205 203 209 206 206 201 201 199 200 198 201 196 194 199 200 206 203 203 204 209 209 209 213 214 210 211 214 206 211 208 211 206 211 202 200 206 210 208 213 254 306 394 428 449 426 382 


