P2
80 60
313
28 28 38 54 91 106 69 44 78 97 76 42 32 33 34 31 30 28 23 27 26 25 24 24 25 28 25 27 31 30 32 31 27 27 27 25 23 26 27 26 26 22 27 26 27 27 27 20 16 15 17 21 19 18 15 19 18 19 19 22 21 22 24 25 24 20 24 24 20 24 22 22 21 23 23 24 26 26 21 24 
26 29 45 60 95 103 66 42 78 98 67 44 35 35 34 32 26 28 25 27 22 26 25 26 29 32 31 29 30 32 31 28 29 25 28 24 26 23 26 25 27 27 29 26 23 27 29 24 17 15 15 17 18 17 21 19 21 19 24 26 28 26 28 30 27 20 21 25 21 21 22 22 21 25 24 22 23 26 24 20 
26 29 46 62 100 99 57 47 83 96 67 40 34 32 28 31 27 30 24 27 26 27 25 26 29 30 28 32 33 29 27 26 24 22 28 24 29 24 27 24 26 25 25 26 25 30 28 24 22 21 21 21 26 25 22 26 25 31 28 28 30 30 26 28 27 23 19 20 22 24 23 22 24 21 23 19 27 29 26 22 
27 29 43 67 99 98 57 47 91 95 64 36 32 32 30 31 27 27 24 27 25 27 28 30 33 26 29 30 34 33 29 27 26 24 25 23 24 23 28 26 24 28 28 26 28 30 29 28 26 25 27 27 28 28 29 28 26 27 30 29 26 26 25 24 24 22 21 20 28 25 25 22 24 24 23 24 23 28 25 18 
31 35 46 72 108 97 56 49 90 96 56 35 33 29 29 28 23 26 25 26 26 28 27 29 31 28 28 32 34 31 30 27 29 22 26 23 23 22 22 24 25 26 24 27 24 27 27 27 28 27 23 28 29 28 25 27 25 26 26 24 25 22 25 23 24 24 21 23 20 26 24 25 25 21 26 26 25 23 24 21 
28 33 50 84 104 92 53 52 93 94 54 31 28 30 25 27 27 23 23 27 30 31 28 24 27 32 28 29 31 31 31 26 28 26 27 23 23 25 24 25 24 27 24 25 25 27 28 27 29 27 25 30 27 27 28 24 25 24 23 24 25 25 25 27 26 24 20 22 27 23 24 25 25 25 27 25 24 24 26 21 
32 34 46 82 101 88 51 51 97 89 47 29 29 26 26 25 24 24 24 28 30 27 29 25 26 24 27 32 36 28 29 26 27 24 27 26 21 23 27 21 25 24 23 22 24 27 24 27 28 27 25 29 27 26 23 27 29 26 25 21 29 26 26 27 26 22 18 18 24 26 23 26 25 24 27 24 24 27 26 18 
22 32 41 81 100 83 45 49 93 85 42 24 21 23 19 19 23 26 24 25 25 21 23 23 23 27 20 26 27 31 26 24 26 24 22 26 22 23 22 24 21 26 24 22 25 23 22 22 21 26 22 22 24 24 24 22 22 23 23 26 26 28 25 24 26 20 18 18 25 26 25 25 23 22 22 20 25 23 21 17 
18 26 36 86 101 81 43 52 98 85 43 23 23 24 22 25 24 22 23 23 23 25 22 25 25 24 27 26 27 29 27 27 26 25 25 24 26 27 25 25 25 25 23 21 24 26 24 23 21 21 23 22 25 23 25 25 29 28 28 24 28 29 28 27 26 23 22 20 25 25 25 25 25 25 23 22 24 29 23 22 
6 0 16 86 103 74 37 49 106 88 33 20 17 19 19 21 20 24 20 24 21 25 21 24 25 23 27 26 25 30 28 26 21 23 26 22 25 23 24 24 25 25 28 27 26 26 23 25 22 21 18 20 26 21 25 29 29 30 29 28 28 30 28 25 28 23 25 17 25 23 24 27 24 22 25 23 26 25 30 22 
13 6 25 92 107 69 30 54 114 93 24 11 10 13 15 16 18 18 18 19 19 21 22 21 20 21 22 23 25 27 29 23 25 23 24 20 24 22 24 24 26 22 23 25 26 21 23 22 22 22 23 27 26 27 25 27 28 27 25 24 29 30 30 28 24 28 21 16 23 23 24 25 30 24 23 20 23 27 25 23 
23 21 34 95 110 72 31 58 115 90 23 10 11 9 9 10 11 9 11 13 14 18 20 21 23 20 22 23 25 24 22 24 24 21 23 24 23 26 23 25 24 24 27 26 23 25 21 24 25 27 24 29 27 29 28 27 29 28 29 29 27 30 27 27 28 22 22 19 22 24 26 28 25 22 25 23 24 26 25 22 
20 19 26 96 109 71 34 65 113 90 22 8 9 7 6 5 10 7 6 5 4 7 5 10 11 12 13 11 14 14 15 19 21 21 19 22 22 22 24 21 23 23 21 24 22 23 27 26 25 26 27 28 27 29 27 28 28 26 28 27 28 28 27 25 25 24 25 19 22 23 25 27 26 23 23 22 25 26 21 24 
17 20 33 102 98 61 35 72 116 83 22 10 10 10 13 12 9 5 6 7 5 7 9 7 7 6 4 7 8 9 5 7 11 11 17 22 21 23 22 21 24 22 25 21 25 27 26 23 24 25 25 27 29 25 27 28 27 28 28 29 28 29 28 25 29 24 23 20 20 25 24 28 26 25 24 24 26 25 24 20 
19 18 42 102 95 56 33 75 110 73 25 12 14 15 12 13 10 10 7 9 10 6 10 10 11 10 6 11 11 8 9 3 3 11 21 23 22 24 22 20 21 24 29 27 26 28 26 27 28 26 30 29 31 31 27 28 30 29 29 29 29 29 33 31 27 27 28 23 21 27 29 32 27 28 26 31 30 27 22 18 
23 19 41 101 90 49 33 75 105 74 24 13 10 12 14 10 11 11 7 9 7 6 5 8 6 6 5 9 9 11 8 4 16 18 22 24 22 21 18 21 22 26 25 25 25 24 26 27 26 27 24 26 26 31 27 26 26 25 26 27 31 26 28 26 26 30 25 21 21 26 26 28 27 27 25 22 25 25 22 24 
19 22 45 103 88 53 34 74 104 66 21 16 12 10 11 11 9 12 8 14 11 9 13 8 11 8 6 6 9 12 18 19 22 21 22 21 20 22 26 26 26 26 28 26 27 28 28 28 28 25 26 31 28 28 28 29 27 32 28 28 27 27 30 24 26 28 27 20 18 24 28 27 25 27 27 26 29 27 26 19 
22 19 48 101 89 47 29 77 103 66 20 13 18 16 12 11 9 11 8 11 14 11 11 11 12 11 10 15 14 21 24 24 25 25 24 21 24 23 24 23 24 24 25 26 26 27 30 25 28 27 30 28 29 29 26 29 26 28 29 29 29 28 30 29 27 31 30 22 22 24 25 26 27 27 27 25 32 32 28 23 
21 18 49 101 86 44 32 78 99 64 19 13 15 14 14 14 11 10 10 13 12 10 15 12 10 9 10 10 16 19 24 25 21 23 17 23 22 23 21 20 25 23 25 23 28 27 24 25 25 24 26 28 28 26 26 24 30 26 28 28 29 25 28 27 26 28 26 20 16 20 25 23 25 26 27 25 28 30 28 19 
21 18 58 101 88 45 32 85 101 60 19 12 16 13 14 14 16 10 16 13 13 10 14 11 12 13 10 12 14 23 28 24 25 22 22 19 21 20 22 23 26 26 25 28 25 26 27 26 27 26 28 29 28 27 28 30 29 27 29 30 30 28 32 28 31 30 33 26 19 19 25 26 28 28 26 27 28 29 27 26 
23 21 61 107 86 44 38 90 105 58 20 15 18 16 16 17 16 16 15 14 12 13 13 15 12 14 12 15 17 18 27 21 25 21 24 25 22 25 24 25 25 24 23 24 28 29 29 28 27 29 29 29 29 29 26 30 32 30 30 31 30 32 30 31 30 31 30 32 24 21 26 26 29 28 31 29 28 29 30 24 
30 29 74 115 86 43 39 94 103 55 15 19 17 14 13 14 16 15 14 16 11 14 13 13 11 14 14 16 12 16 22 21 20 20 20 24 21 23 23 20 23 23 24 23 24 25 26 25 29 31 28 29 28 26 27 27 29 29 29 28 29 31 33 28 28 25 29 28 25 21 21 29 27 27 29 23 27 31 29 27 
81 77 107 121 82 36 44 94 100 53 19 15 15 13 16 16 13 16 14 16 13 14 14 10 14 13 13 11 13 18 21 21 25 22 24 21 24 25 20 21 24 23 22 24 25 27 26 26 27 27 28 26 27 26 29 24 29 27 29 28 29 29 32 32 27 27 28 25 26 20 19 24 24 25 27 28 24 32 26 26 
106 106 112 103 68 33 43 96 96 53 19 17 15 15 15 14 14 14 15 16 13 15 16 14 12 11 13 16 14 19 27 22 21 22 22 19 24 25 21 25 25 24 24 24 23 25 26 26 26 30 27 30 27 28 30 29 29 30 28 26 28 27 31 29 26 29 29 30 29 29 19 20 24 27 24 29 26 34 31 27 
98 97 94 86 48 32 50 101 99 54 22 19 20 16 18 18 16 16 12 17 14 16 18 17 17 14 15 16 19 16 24 23 20 22 23 25 26 25 25 26 28 25 25 28 26 27 29 29 30 29 28 31 31 30 26 31 28 33 27 29 32 30 32 30 27 31 33 33 33 29 26 20 19 24 29 30 27 31 27 24 
44 47 50 44 27 30 52 106 99 53 26 21 18 16 17 19 16 19 17 14 15 21 15 19 16 14 13 15 16 17 24 24 23 23 26 24 25 26 28 29 28 27 26 27 25 28 27 27 30 33 31 31 31 31 28 29 29 30 28 30 31 30 32 35 28 31 31 33 29 30 31 26 21 21 24 24 23 28 27 17 
32 26 28 25 21 31 55 116 104 52 23 19 16 17 20 17 16 17 15 15 17 18 14 17 19 16 14 16 14 16 27 26 24 24 24 23 25 27 29 25 29 23 25 27 25 28 28 30 27 26 33 30 30 30 30 30 28 29 27 28 30 29 31 31 29 29 29 27 31 31 30 30 27 25 23 22 25 25 28 22 
80 68 62 53 46 49 73 126 100 50 18 19 20 17 20 19 16 17 18 17 18 17 19 18 17 15 17 16 13 17 24 24 24 25 26 26 24 26 27 26 28 28 27 24 28 28 29 25 29 28 30 28 29 30 30 31 27 29 29 29 31 29 31 33 33 30 33 31 28 29 28 29 30 29 30 29 31 28 25 23 
121 107 107 102 95 100 114 115 94 47 17 18 18 17 19 20 15 18 16 20 16 19 17 17 19 19 16 19 18 18 25 29 24 25 26 27 27 28 27 27 30 28 28 27 26 28 28 27 29 29 27 27 32 32 28 29 27 29 29 28 27 32 30 32 31 31 32 30 30 31 32 33 29 30 30 32 33 25 25 24 
98 95 99 99 94 98 100 100 79 36 18 18 19 19 20 21 19 23 19 21 19 16 18 16 17 17 17 15 20 17 26 25 25 24 26 26 27 27 28 27 31 28 26 28 27 32 25 26 29 27 29 32 31 30 29 29 30 29 29 30 31 31 32 32 28 30 29 31 32 28 32 31 30 27 30 32 30 29 32 25 
43 43 47 49 50 58 66 63 44 26 22 19 19 21 21 22 21 20 22 18 20 20 20 20 18 19 21 17 21 20 27 28 30 27 27 28 28 28 28 29 26 28 28 30 27 29 29 27 28 30 29 31 31 29 29 31 31 35 29 31 30 29 29 32 32 32 30 32 34 31 29 29 28 30 31 31 31 30 32 26 
25 24 27 24 25 29 33 28 27 18 22 21 21 23 23 22 21 22 20 20 22 23 20 26 22 19 21 20 17 17 26 27 26 28 25 29 27 31 30 30 30 29 29 26 29 28 29 27 29 26 31 29 33 29 27 30 29 33 31 30 29 31 35 36 33 34 32 30 31 31 31 33 32 31 28 29 33 34 32 28 
25 24 23 23 22 25 27 27 24 23 21 20 20 21 23 21 23 20 19 22 22 26 27 22 19 21 24 24 23 17 25 27 30 26 25 28 29 28 30 30 30 29 29 30 29 27 32 26 32 32 29 30 35 31 29 30 28 30 31 33 32 30 34 34 29 33 33 33 32 33 31 32 31 36 32 31 34 36 31 31 
29 23 25 25 20 27 29 26 24 25 22 25 23 25 26 26 23 25 22 23 24 22 25 24 27 26 24 21 19 19 26 27 30 31 28 28 31 28 31 28 29 30 30 32 32 28 30 30 30 31 31 33 32 31 29 33 32 32 29 32 31 34 32 36 32 34 33 32 34 33 35 33 34 37 34 29 32 35 34 30 
24 23 22 26 19 25 25 27 24 24 24 23 22 23 23 25 22 25 25 23 25 25 25 24 24 22 24 22 23 23 28 27 28 28 29 27 28 28 31 29 30 29 29 29 29 29 31 32 29 30 31 32 32 29 29 33 29 29 28 31 31 34 31 32 33 29 34 33 31 34 30 33 36 32 32 30 31 37 34 31 
30 22 25 25 19 29 26 28 27 21 23 23 21 23 25 26 26 25 22 24 27 25 26 28 24 25 25 26 21 24 26 28 32 29 29 30 28 29 31 32 30 29 28 31 29 31 32 31 28 27 28 30 33 30 28 29 32 30 31 30 30 33 31 33 32 32 35 35 35 31 31 35 38 34 31 30 34 35 34 28 
27 24 27 28 22 24 26 30 26 23 24 24 22 24 27 25 25 27 22 26 29 26 27 29 27 29 26 28 23 22 28 31 29 28 28 29 27 27 33 30 32 30 29 29 29 34 32 30 30 34 30 32 31 32 31 30 29 30 32 31 31 32 35 34 32 34 33 37 36 32 32 36 36 31 34 37 36 40 37 40 
29 27 25 30 21 26 29 29 25 22 25 25 24 23 26 26 25 27 26 25 24 25 26 28 29 26 28 30 23 23 28 33 31 30 30 26 29 29 28 27 31 31 32 31 30 30 30 31 30 31 32 28 31 33 31 31 31 31 30 30 30 32 34 31 35 35 35 35 36 30 36 35 34 34 34 28 37 38 39 44 
27 30 27 27 20 26 28 29 28 24 22 24 23 28 27 27 26 26 27 24 26 28 28 28 28 28 29 34 27 26 26 34 28 32 31 27 30 30 31 30 32 29 29 28 31 33 36 33 32 32 33 33 31 33 30 32 31 29 31 34 30 32 31 33 35 33 35 34 36 34 32 34 34 36 33 33 40 37 47 57 
27 25 30 27 18 30 28 32 25 25 26 26 26 26 29 27 27 25 29 28 30 28 26 30 31 30 29 31 28 26 29 33 32 29 32 32 32 31 32 29 32 31 32 29 30 34 34 31 30 30 32 29 31 30 33 27 28 30 31 30 29 32 32 30 32 35 35 31 34 36 35 35 34 34 34 33 50 62 103 131 
31 25 34 31 22 31 30 32 30 25 24 24 24 31 27 27 30 30 31 32 30 33 32 34 35 29 30 33 28 32 27 33 34 34 32 29 33 30 32 35 34 33 31 32 31 34 33 33 31 31 30 34 34 32 29 31 31 34 31 32 35 32 37 34 34 34 37 38 33 35 37 37 37 40 48 57 68 112 200 230 
30 27 26 34 24 31 32 32 25 25 27 27 26 30 30 32 30 30 32 32 33 35 34 34 35 34 31 32 35 29 29 34 37 34 34 29 30 31 33 35 35 31 37 31 30 35 36 31 35 30 31 32 34 35 31 31 33 33 33 32 33 33 36 32 32 37 38 37 36 38 36 36 39 48 59 79 115 199 267 270 
27 24 31 29 28 28 32 29 29 24 21 25 27 28 29 33 32 30 32 34 32 30 34 35 35 34 31 33 34 27 30 34 34 38 34 31 34 34 32 35 34 31 29 30 32 35 32 29 32 29 32 31 34 32 27 26 31 27 33 33 34 31 36 35 33 36 40 36 38 36 38 40 44 90 163 219 254 284 289 282 
33 27 29 32 27 32 40 36 30 25 24 26 26 27 29 35 30 33 32 38 37 34 37 36 37 34 33 33 34 29 28 32 35 33 34 32 33 32 32 34 33 32 32 32 31 31 34 31 31 31 32 32 33 30 29 28 27 29 31 32 31 32 34 35 34 35 38 35 39 33 40 44 77 203 273 293 300 294 269 259 
31 24 30 29 27 33 35 30 32 25 28 26 29 29 30 32 33 33 34 39 38 36 39 37 38 34 29 32 34 32 26 32 35 34 36 36 35 33 34 34 33 33 33 30 29 31 31 29 33 30 29 33 33 31 26 30 31 29 31 31 33 34 33 37 33 38 39 38 41 41 58 78 155 269 303 313 304 227 193 236 
30 30 32 31 29 33 36 33 30 28 26 31 30 32 36 36 35 36 38 40 41 40 39 38 37 34 30 32 32 29 25 30 34 39 38 37 33 32 37 35 33 33 30 34 33 33 32 32 33 34 31 34 27 32 30 28 31 33 32 35 35 36 35 35 35 36 41 38 43 69 123 168 232 298 313 312 304 215 209 229 
32 29 31 30 28 35 35 30 32 29 32 31 31 33 34 35 35 40 37 40 42 40 42 41 42 40 37 36 35 37 31 33 35 38 35 34 35 35 38 34 36 35 32 32 33 33 35 31 35 32 35 34 33 31 31 30 34 32 35 32 35 33 37 34 37 39 40 40 56 106 153 216 243 270 278 260 242 195 194 205 
29 29 34 36 29 36 37 33 33 28 29 32 32 33 37 36 36 39 38 43 40 43 42 43 44 49 44 45 44 45 38 32 33 35 39 37 36 35 36 38 40 37 32 35 33 33 33 32 32 35 32 32 32 35 29 33 31 29 33 35 38 35 35 36 38 37 41 47 73 107 127 149 156 176 186 175 180 183 194 222 
29 28 32 34 30 35 39 31 32 29 28 28 30 33 34 38 38 40 37 40 41 41 46 42 50 50 48 46 44 40 35 36 36 39 37 39 38 36 37 37 37 36 35 35 33 35 32 33 29 36 33 34 36 32 33 33 35 34 33 35 38 38 40 37 37 36 40 52 88 111 127 132 138 147 158 170 186 204 224 240 
31 26 32 32 28 34 38 35 33 31 32 32 34 37 35 37 40 39 38 41 41 42 41 44 45 51 48 49 43 43 37 34 37 42 40 37 37 39 38 40 38 36 36 37 35 34 35 31 32 35 31 35 36 31 35 32 33 33 34 34 34 36 38 39 36 38 42 56 91 119 139 148 154 163 174 187 200 215 234 252 
29 30 34 31 30 33 37 35 38 33 34 34 36 39 39 39 42 43 41 43 44 44 48 44 51 52 49 50 49 44 41 35 36 37 41 41 37 36 40 39 36 38 36 35 33 31 37 33 34 30 36 36 34 37 40 31 34 34 37 34 38 36 38 38 36 40 41 53 91 118 139 151 158 165 175 190 203 216 241 245 
38 31 38 33 30 33 38 35 37 34 33 33 36 34 37 40 42 44 41 44 47 48 51 47 52 52 52 51 48 44 41 39 39 41 41 40 40 37 42 42 39 38 37 40 35 35 36 31 34 34 36 34 35 39 43 40 39 41 35 34 38 35 36 39 37 40 42 48 79 113 138 151 157 164 168 184 200 216 235 251 
34 36 39 36 34 35 42 40 40 39 36 39 38 40 40 39 43 45 46 48 49 49 53 51 54 51 51 52 53 45 46 38 36 42 44 42 41 41 39 42 39 40 38 37 35 35 38 34 36 35 33 39 40 45 50 49 48 43 42 39 37 39 40 38 40 42 45 44 68 108 132 148 156 163 170 183 200 215 230 241 
36 32 37 40 36 38 44 38 39 35 38 37 41 38 39 43 45 45 47 53 53 52 51 52 57 57 56 52 50 50 41 38 37 41 42 42 45 41 40 39 40 39 38 38 37 35 37 36 37 38 36 40 39 45 60 83 72 52 39 39 40 38 39 41 38 40 43 43 63 102 130 144 152 159 165 180 197 211 231 243 
39 38 42 40 39 40 46 44 43 39 38 40 40 43 45 45 50 49 51 53 57 54 57 56 60 63 57 61 53 50 50 43 38 44 47 47 44 42 41 42 45 42 39 39 38 36 39 36 37 40 42 41 45 65 176 196 122 70 44 40 38 41 40 43 39 42 41 45 61 96 126 139 149 160 166 176 197 212 229 243 
43 46 43 46 43 47 48 49 45 45 42 44 48 47 47 51 54 55 54 58 63 62 62 64 65 65 65 57 60 57 50 44 42 49 47 50 46 47 48 42 49 44 43 41 40 43 43 40 42 41 46 48 49 76 202 204 121 69 46 41 41 43 41 39 40 45 43 45 58 96 125 145 148 157 161 172 187 201 229 241 
49 46 51 46 42 51 55 49 51 45 46 45 46 49 51 52 57 58 61 65 62 66 70 70 69 72 69 64 66 58 56 47 40 49 50 51 48 44 43 47 46 43 43 43 42 43 42 42 42 44 40 41 47 52 79 90 74 56 46 41 42 38 41 43 42 41 46 45 55 90 119 139 148 153 160 160 154 177 224 237 
57 48 48 50 47 53 56 55 55 53 51 49 52 57 52 59 59 62 62 66 68 72 75 74 81 79 76 70 68 60 55 48 46 51 53 51 48 42 44 47 45 47 45 47 46 46 44 43 44 48 45 45 44 45 52 54 53 50 45 42 42 42 41 43 42 45 47 45 51 84 113 137 146 153 158 153 156 191 226 233 
61 60 59 57 50 63 62 55 56 53 52 53 53 57 55 60 63 66 68 71 75 82 83 87 86 86 81 74 68 63 57 50 49 51 54 53 49 49 65 59 46 48 51 49 45 49 46 48 45 46 48 44 45 46 43 45 46 44 44 38 42 44 43 44 44 42 47 48 53 80 110 137 150 155 156 164 181 201 220 226 
79 73 71 66 60 67 67 63 60 59 55 61 58 59 60 68 65 72 75 78 79 84 83 79 90 90 88 76 69 64 60 56 49 57 57 55 54 70 123 89 56 57 54 52 48 49 50 48 43 45 47 45 46 45 46 45 46 44 42 42 48 40 45 42 46 45 46 49 51 75 106 136 149 153 163 171 186 199 223 221 


