P2
80 60
59
12 18 16 15 12 16 15 12 16 14 13 14 15 19 19 17 18 18 23 25 26 26 23 28 28 27 28 28 27 30 31 27 29 30 33 31 33 32 32 33 35 33 36 33 34 33 35 33 32 36 31 35 34 32 31 27 26 23 22 25 24 22 21 17 15 18 14 16 16 12 10 3 7 7 9 8 7 6 6 4 
13 17 17 16 17 17 10 11 16 14 15 17 19 22 19 20 21 29 23 21 25 27 24 28 28 27 28 32 30 32 32 31 33 31 35 31 34 34 32 32 33 33 30 32 38 34 32 32 33 34 34 34 35 32 31 26 28 27 25 23 21 22 18 22 18 20 18 18 17 13 8 5 6 8 7 10 9 0 4 7 
13 14 14 16 16 13 12 13 17 13 18 18 17 22 23 25 25 29 30 25 31 28 26 25 27 26 31 29 33 32 36 30 34 32 32 33 32 32 36 38 36 37 33 33 37 36 34 31 33 34 35 35 35 34 31 30 26 32 26 26 25 27 23 19 22 22 20 20 22 14 14 12 11 11 6 8 6 2 4 3 
16 20 19 16 21 21 17 17 19 20 18 22 22 22 25 29 25 26 29 25 33 29 26 31 29 30 31 31 32 31 36 31 34 34 35 33 37 35 37 40 36 37 37 33 38 35 31 35 32 35 38 37 38 34 32 33 29 29 27 27 30 25 22 23 22 24 25 21 16 15 15 12 16 12 9 8 10 2 9 1 
18 20 19 18 21 17 19 17 20 21 22 24 21 28 26 27 25 28 26 28 33 29 33 34 32 31 33 35 32 31 35 34 37 35 36 35 38 39 40 38 37 35 37 36 35 39 37 35 36 37 35 37 35 38 34 31 29 30 27 28 27 25 25 21 22 20 19 18 17 15 14 12 6 9 10 10 12 8 1 4 
15 21 23 18 21 21 22 17 20 17 23 25 24 26 23 27 29 32 29 30 31 30 33 33 29 32 32 36 35 33 36 33 40 37 39 36 38 41 35 40 38 35 39 33 38 36 36 38 36 36 40 35 40 37 35 35 33 34 29 28 29 29 23 19 24 24 24 21 21 15 13 8 11 8 11 11 15 8 1 1 
18 21 22 18 20 21 22 21 21 19 22 22 21 23 27 26 30 29 32 32 31 33 34 33 36 34 37 36 38 36 38 38 41 40 37 38 35 36 40 35 38 38 38 35 40 38 34 37 36 39 37 36 37 39 39 34 31 31 30 27 30 30 23 29 23 26 20 26 18 18 15 14 12 9 9 11 9 8 3 6 
18 22 23 22 20 19 20 19 21 24 18 27 26 27 30 29 29 32 32 33 35 32 32 33 36 33 35 35 35 37 36 35 39 34 38 37 39 41 37 39 37 39 40 38 37 40 38 39 41 39 38 38 36 43 32 34 33 32 28 29 28 31 26 28 27 22 22 22 22 17 17 14 15 10 10 10 7 2 10 9 
23 21 23 27 22 21 27 23 27 25 32 31 28 32 31 31 31 34 35 35 36 32 37 34 34 36 37 39 39 37 39 42 35 40 43 43 38 42 39 40 42 37 44 37 39 40 37 39 39 38 30 38 41 39 38 37 37 31 36 29 35 35 30 28 27 26 21 25 20 21 19 22 16 13 14 16 14 10 9 7 
21 31 26 30 26 26 25 27 26 30 30 33 32 34 33 35 35 34 40 38 41 36 37 39 38 40 40 38 42 40 44 40 43 46 43 41 40 43 40 48 39 41 40 42 42 45 42 44 40 42 41 41 43 42 40 39 35 36 36 36 36 35 31 24 29 28 27 26 23 21 21 18 16 16 14 12 11 7 8 8 
25 28 25 29 27 26 25 30 27 28 27 29 28 32 33 36 36 37 40 36 37 33 36 37 38 39 43 42 38 40 38 35 43 42 40 42 42 42 39 43 39 42 37 39 38 43 39 38 42 41 40 40 41 42 40 40 39 37 36 32 39 35 31 27 30 30 24 23 20 24 21 21 17 17 16 18 17 14 11 6 
27 28 27 26 26 31 29 30 26 30 30 31 30 31 36 30 35 36 40 34 37 38 40 37 41 35 39 42 41 45 44 42 48 43 39 43 43 41 42 44 42 42 44 41 43 40 39 42 40 41 42 40 43 41 38 34 41 39 35 35 38 34 29 27 33 23 28 24 25 24 20 22 16 21 17 16 18 13 11 10 
25 29 29 29 26 26 27 27 29 30 31 32 33 31 34 32 39 35 42 41 36 38 36 37 36 42 38 39 42 40 41 42 42 44 41 40 41 41 44 43 40 37 44 41 42 40 45 45 39 44 37 42 42 44 45 37 36 38 40 36 35 38 33 29 29 30 30 28 22 23 22 22 18 22 14 18 17 13 12 8 
30 32 31 29 32 34 31 30 31 32 32 35 35 36 35 36 41 37 39 41 42 43 38 46 43 44 44 40 46 45 45 45 46 47 47 45 43 43 45 47 44 44 46 40 43 42 45 44 47 42 47 43 40 46 41 42 40 37 33 33 38 35 34 33 32 31 32 29 31 27 26 21 22 14 16 15 17 11 9 13 
32 32 34 35 36 36 33 34 30 33 34 37 35 32 39 37 44 39 40 40 41 45 40 44 39 44 45 44 48 45 49 49 45 47 48 46 50 48 44 47 48 45 46 45 48 45 41 52 46 41 47 45 46 48 41 44 41 37 38 38 39 40 34 33 34 32 31 32 28 25 24 22 22 21 19 21 21 16 10 7 
29 30 30 34 32 30 36 35 36 34 33 35 38 39 37 43 42 40 42 40 42 44 42 44 41 42 44 44 44 43 43 47 44 45 49 46 45 48 45 46 47 47 46 41 45 42 42 46 45 40 45 46 42 47 42 43 44 41 40 37 36 36 33 28 30 29 29 29 28 27 27 25 21 20 17 17 21 13 4 9 
28 33 33 35 34 35 36 35 35 34 37 39 40 36 39 41 44 42 47 43 43 43 43 45 46 47 46 46 46 48 49 48 48 45 50 48 46 48 47 48 48 45 48 47 47 46 48 45 44 44 44 46 49 48 43 43 42 38 35 38 36 40 36 35 32 33 35 31 30 28 26 24 23 22 16 19 19 11 11 11 
35 37 37 37 32 35 36 33 36 36 35 37 35 41 43 42 46 43 45 43 46 47 46 47 46 44 47 47 47 47 44 49 52 49 49 47 45 48 47 47 46 45 51 47 45 47 49 46 45 45 44 45 45 46 46 42 41 40 41 41 37 38 39 36 31 32 30 28 30 29 27 23 20 15 20 15 15 10 10 8 
37 36 36 39 35 34 33 33 36 35 36 41 38 38 41 42 43 42 45 42 46 46 44 46 46 48 47 47 43 44 44 47 44 47 45 45 47 47 45 45 45 42 47 47 48 45 43 44 43 46 44 44 46 48 43 45 38 35 35 39 37 33 32 30 33 30 29 27 28 30 25 21 20 16 17 17 14 12 15 14 
36 39 37 37 42 35 38 38 35 40 39 40 38 43 45 43 43 44 48 47 45 43 46 44 48 48 48 50 44 44 48 47 48 46 44 47 48 50 47 47 46 45 51 47 49 48 47 49 47 46 47 49 46 48 42 42 44 46 42 41 44 38 32 36 32 29 32 29 28 24 29 20 20 15 18 17 17 14 15 12 
37 42 40 44 39 42 40 40 41 43 41 40 44 44 44 42 47 44 42 45 48 49 46 48 48 47 49 47 49 48 50 48 51 48 44 48 49 46 49 48 48 48 51 49 50 46 49 46 50 52 51 44 48 51 44 44 41 41 39 44 37 43 38 37 35 35 30 30 26 25 23 19 21 20 19 19 17 17 14 14 
36 40 42 40 40 41 40 37 37 40 42 43 43 44 40 46 46 47 47 45 47 48 47 45 44 47 46 47 49 48 47 48 51 50 45 44 47 50 47 50 44 48 48 46 47 50 46 47 48 46 47 46 47 48 44 47 48 40 42 40 39 41 39 34 33 33 31 28 22 25 24 22 21 16 18 18 16 17 12 11 
37 39 39 40 38 40 38 37 42 41 42 42 42 41 43 45 41 43 47 44 43 48 49 44 48 50 49 48 47 50 48 45 49 47 49 48 47 47 47 47 45 46 45 49 46 51 45 46 45 47 47 46 46 44 45 43 42 40 37 37 43 41 36 35 30 31 27 26 22 24 23 16 21 17 18 18 19 15 13 16 
36 40 36 37 38 38 40 39 39 45 44 41 40 43 45 42 43 44 44 45 48 44 47 48 44 48 46 47 43 49 48 50 52 47 49 47 45 49 48 49 47 45 47 44 47 46 47 48 51 46 45 44 45 44 39 43 43 37 34 38 37 40 36 32 32 28 29 28 21 24 22 20 23 17 19 19 18 16 18 15 
36 42 38 40 43 41 43 41 46 46 45 46 42 45 46 46 44 47 48 49 50 49 47 50 49 49 48 49 49 51 45 53 49 51 52 52 52 53 50 49 48 51 50 50 50 50 47 51 50 49 50 49 51 52 48 46 44 41 38 37 41 39 34 33 33 31 34 27 26 28 23 24 19 26 21 19 18 19 18 11 
34 42 40 44 47 44 43 43 45 43 45 47 44 44 43 48 47 47 47 48 49 48 50 51 49 50 50 48 51 49 52 50 49 50 58 54 51 51 53 52 51 53 53 47 50 49 54 52 53 50 49 54 49 51 50 47 47 42 39 39 38 38 32 33 31 29 29 34 27 23 27 26 25 25 23 19 19 19 15 16 
37 44 38 43 43 39 41 42 41 41 47 46 44 44 46 49 43 48 48 49 49 50 52 43 48 47 48 51 47 53 52 53 51 51 52 51 52 54 53 51 50 51 52 51 51 49 48 53 49 47 50 49 48 52 47 38 43 42 38 36 34 36 35 31 29 30 30 27 27 25 22 22 20 22 21 20 17 17 19 14 
39 40 40 42 42 37 40 41 40 43 43 48 41 41 43 46 43 45 49 46 46 50 47 47 46 49 48 52 46 49 49 52 49 48 52 50 49 52 48 52 50 49 47 49 53 50 48 47 49 51 49 44 45 43 43 38 37 38 33 32 31 38 29 30 29 26 28 27 24 28 23 21 19 23 21 22 18 18 23 19 
37 42 42 42 39 42 41 38 39 43 39 45 43 44 42 47 46 47 50 45 50 50 46 45 46 46 47 48 49 51 48 53 52 53 59 53 51 52 49 49 54 50 49 49 51 47 50 48 50 47 48 47 45 44 37 40 36 38 34 35 33 34 29 29 29 31 29 26 24 28 24 22 19 24 19 22 24 19 19 20 
35 43 43 40 39 43 42 44 40 46 46 44 43 46 42 46 44 48 46 49 46 51 48 47 43 49 47 51 48 47 50 51 49 51 54 57 51 50 50 51 47 53 49 51 52 50 49 49 50 47 45 47 39 44 38 36 32 35 32 30 35 39 35 26 31 29 29 27 28 26 26 25 23 26 24 24 26 21 18 17 
38 43 41 42 41 45 42 44 44 43 47 48 47 47 46 44 51 47 49 48 50 50 48 49 51 51 50 51 48 48 54 51 50 52 56 51 53 55 55 54 52 49 52 49 49 47 48 48 50 49 45 42 40 41 36 36 36 37 35 34 34 34 32 30 31 30 30 30 27 28 27 26 27 23 26 30 26 24 21 21 
40 44 39 45 40 42 45 47 46 47 47 48 42 45 43 47 49 51 50 50 52 50 48 53 48 51 49 52 48 49 52 52 53 54 58 58 54 53 52 58 52 50 53 49 51 51 48 51 48 48 47 42 41 42 37 35 36 33 34 35 35 34 35 34 33 32 31 31 29 29 29 32 28 27 29 29 25 21 18 22 
37 48 44 47 43 43 42 46 46 46 47 47 44 47 43 45 48 45 48 50 48 52 52 48 51 51 51 54 52 53 49 54 50 52 52 48 54 54 55 53 53 49 51 48 48 50 43 46 43 43 43 40 37 41 39 36 37 35 31 33 34 35 35 33 35 31 32 32 31 33 29 31 27 28 27 29 25 21 21 20 
38 43 40 46 47 45 45 43 46 47 48 46 47 47 46 45 50 48 50 47 52 49 47 49 50 52 47 51 53 52 49 51 48 49 53 52 53 52 53 56 52 54 53 50 49 47 47 45 40 44 43 40 41 40 38 40 38 32 36 35 36 37 35 35 34 35 37 36 31 29 28 29 28 34 31 27 25 21 21 21 
37 43 43 44 44 47 42 47 42 45 47 47 49 45 45 48 47 49 47 51 53 52 48 49 52 51 48 50 49 51 53 51 52 54 57 52 53 53 53 51 52 52 51 46 43 46 42 43 42 42 40 37 39 40 36 35 35 36 35 35 36 38 37 35 36 34 34 32 31 28 29 27 26 29 26 24 26 24 18 21 
42 42 42 44 42 43 45 44 44 46 47 44 48 46 45 46 47 49 47 53 50 53 52 50 49 51 51 53 51 50 50 52 51 55 53 49 52 53 50 53 49 52 48 44 45 40 42 42 44 39 42 41 39 37 36 35 40 35 34 36 39 38 40 37 37 33 35 35 34 30 31 28 31 31 26 27 25 22 21 18 
45 44 42 43 42 40 42 44 44 46 49 48 46 47 48 50 46 42 50 54 51 52 52 50 50 50 52 52 50 53 53 52 53 55 52 50 52 52 51 49 48 45 45 45 42 44 41 43 42 41 42 39 39 41 38 38 40 38 38 35 37 41 41 42 37 38 33 34 32 30 31 32 32 28 29 26 22 23 18 22 
43 43 43 46 41 43 40 41 42 42 47 45 41 45 44 47 47 46 47 50 52 48 49 47 47 48 51 53 49 50 48 52 52 50 50 49 54 48 47 47 45 38 42 41 42 40 43 42 42 44 41 40 37 39 38 36 38 39 36 35 38 42 38 41 38 33 35 35 33 29 28 28 25 28 23 23 21 20 21 19 
42 42 42 44 44 41 41 43 42 40 40 41 42 47 45 48 48 49 50 51 46 47 48 48 49 51 51 51 48 53 53 55 48 51 51 48 48 46 43 42 41 46 38 42 43 41 43 44 41 37 34 38 38 41 38 38 38 38 38 37 38 38 37 36 38 35 40 33 33 31 30 27 25 28 26 23 26 22 17 16 
40 42 41 39 40 45 43 44 43 40 41 45 41 43 42 45 44 47 46 47 53 51 48 50 46 52 50 53 53 51 50 53 51 49 49 47 46 44 42 40 40 39 43 39 49 44 47 43 43 36 42 41 37 43 41 40 37 42 38 36 41 41 36 36 35 33 36 30 30 32 30 27 26 26 24 24 23 21 18 16 
39 44 39 38 41 42 40 42 42 44 40 44 41 41 46 45 45 46 48 51 48 52 51 47 49 50 50 47 54 51 50 50 48 43 44 45 41 42 41 41 40 45 45 46 45 44 44 43 42 40 42 41 43 43 46 43 43 40 40 40 40 40 36 34 33 33 34 31 29 30 28 26 28 24 24 23 20 20 17 16 
37 40 41 37 39 45 38 42 40 42 39 42 42 45 41 47 46 46 46 47 50 46 49 47 47 50 49 50 52 52 49 47 43 45 45 41 39 44 42 45 44 43 44 42 39 43 40 41 42 41 41 42 41 51 43 37 36 38 38 36 42 40 35 36 36 33 32 34 33 33 31 26 27 26 22 22 21 17 18 17 
41 41 37 43 38 39 41 42 40 38 37 41 42 45 41 48 46 44 49 49 47 48 45 48 47 51 47 52 48 48 49 45 43 43 39 39 42 45 42 46 46 42 45 41 42 37 42 39 42 42 41 42 47 45 42 37 37 37 36 39 40 39 35 35 33 33 33 35 31 28 27 25 25 23 19 22 24 18 18 17 
36 40 38 39 34 39 38 42 40 41 39 42 43 44 42 41 46 46 45 49 47 49 47 47 46 49 44 52 46 47 42 43 40 44 43 44 42 43 44 43 43 43 42 39 39 42 40 42 43 44 43 44 40 40 37 33 34 36 34 37 41 38 34 37 34 31 33 30 29 29 29 26 22 21 19 19 22 17 19 15 
40 42 38 43 35 40 37 44 37 40 39 38 41 43 42 46 44 47 47 47 48 49 43 48 50 47 45 44 42 42 40 41 42 42 43 44 41 42 40 40 40 45 42 41 40 39 42 43 48 46 46 43 40 41 35 36 37 35 37 34 36 38 33 33 35 33 30 30 28 29 23 22 24 23 19 21 19 17 13 15 
35 42 39 35 40 37 39 38 37 41 38 43 40 41 45 44 46 45 46 45 47 47 47 46 47 48 42 45 42 41 42 41 41 44 43 43 42 40 39 45 40 40 39 45 48 47 48 43 46 44 46 44 41 41 38 35 37 37 36 36 35 40 34 36 35 30 33 31 29 29 26 25 27 25 24 21 20 17 13 12 
36 44 38 39 39 38 38 35 40 41 39 42 42 42 44 47 43 46 47 45 47 48 43 48 40 35 40 41 40 43 42 41 43 43 38 39 42 39 38 39 41 42 46 42 46 43 47 45 45 44 47 42 44 41 39 38 39 37 37 35 33 37 34 34 33 30 30 30 31 29 27 21 24 21 16 18 18 15 11 11 
36 41 39 40 37 40 43 38 38 37 38 41 41 42 42 42 42 45 46 46 47 47 45 41 42 41 41 42 40 43 42 41 41 41 41 39 38 39 42 42 43 43 43 46 47 48 46 46 47 51 49 43 45 46 40 39 37 37 33 34 37 33 32 31 30 30 31 29 25 25 25 20 22 23 18 19 19 12 13 15 
33 35 35 41 37 39 36 33 34 37 39 41 38 43 40 44 50 44 42 45 48 44 38 39 38 39 40 43 38 38 40 42 37 39 41 39 42 41 40 45 44 47 48 44 44 44 47 47 47 48 48 46 44 43 39 41 41 35 37 35 35 36 31 32 34 31 28 26 24 29 23 20 20 16 17 15 16 15 10 16 
33 32 32 40 35 33 36 40 38 39 38 40 39 41 40 39 45 39 44 38 38 36 34 37 36 42 36 38 38 38 37 38 38 33 37 40 46 45 46 43 43 43 44 45 44 48 47 46 44 48 44 42 44 44 37 38 34 37 36 33 36 38 29 27 29 35 26 28 23 23 21 20 18 19 15 13 16 11 8 10 
33 34 32 38 32 36 39 37 36 37 39 39 36 42 39 41 42 40 43 38 36 31 37 38 36 38 37 37 41 33 39 38 41 45 44 49 45 48 45 48 44 47 47 43 44 47 47 46 44 47 45 39 42 44 39 36 36 41 39 36 38 40 32 28 29 32 28 24 24 22 22 20 16 19 14 15 14 12 10 12 
29 34 36 38 36 33 31 32 37 39 40 40 38 40 41 41 42 43 34 33 34 35 37 35 35 34 34 33 38 40 40 41 45 45 43 45 47 45 45 48 44 46 47 43 45 49 43 42 44 42 41 41 40 42 40 39 41 37 34 34 36 37 34 32 31 30 27 25 24 23 20 18 18 14 17 17 13 10 9 7 
33 40 32 35 34 33 31 33 35 37 39 39 36 41 40 42 41 35 35 35 34 36 34 31 32 33 33 35 35 38 44 45 43 43 49 43 46 50 46 45 43 47 47 42 45 43 46 45 41 45 46 42 44 44 39 37 37 39 38 34 34 36 30 32 30 30 27 24 22 21 19 16 19 18 14 15 13 10 13 10 
34 34 34 33 32 33 32 32 35 38 38 37 35 40 36 35 31 30 31 35 36 30 27 31 31 32 37 36 40 43 46 43 49 46 48 44 47 43 41 47 46 42 45 44 45 45 45 42 42 45 44 42 42 47 39 35 40 35 35 34 34 33 34 31 31 27 25 23 18 21 18 15 15 12 14 14 12 10 10 8 
35 36 34 36 33 39 36 33 35 32 38 37 38 39 36 27 33 30 32 33 39 30 34 39 33 34 40 44 41 47 49 47 47 45 47 48 45 48 47 46 50 45 49 45 47 49 45 49 44 44 42 41 46 46 40 37 39 36 40 36 39 36 32 28 28 24 26 28 22 23 19 17 19 16 13 14 17 10 14 5 
31 37 32 34 31 35 33 31 32 33 35 39 37 40 27 28 30 33 35 29 35 35 36 38 40 40 44 40 43 47 50 47 47 46 50 49 46 46 48 49 48 47 51 47 44 47 47 45 44 43 45 46 44 42 43 39 39 40 36 37 35 33 31 26 28 28 25 24 22 18 20 20 15 17 13 13 14 9 6 7 
32 31 29 36 30 33 30 31 33 32 35 38 34 27 28 26 30 27 31 33 33 33 35 41 40 42 43 45 45 50 49 47 52 46 47 50 49 46 46 46 47 50 47 46 47 48 44 45 47 45 42 41 47 47 42 39 40 39 37 36 34 37 30 29 27 27 24 24 18 21 18 19 14 12 10 12 10 11 8 6 
30 36 32 36 29 32 33 29 32 33 32 36 27 23 27 25 26 28 30 33 36 36 36 42 41 42 44 44 49 46 46 47 47 43 46 42 46 46 48 46 49 46 44 46 44 50 47 49 46 43 44 44 46 41 42 37 41 37 37 33 34 39 24 28 30 29 25 24 21 17 19 18 16 12 11 11 12 13 11 6 
32 35 33 32 32 33 32 33 32 32 32 28 25 28 29 25 29 31 34 37 42 41 42 44 45 45 45 45 48 47 50 47 52 48 47 48 49 49 47 50 50 48 49 46 46 48 50 46 47 48 46 45 46 48 39 43 39 38 40 36 36 36 29 27 29 27 25 17 26 16 18 16 16 12 12 14 13 10 8 5 
28 40 31 33 32 30 34 30 32 34 34 29 26 30 26 25 32 38 36 40 41 42 42 43 45 46 49 47 50 50 46 51 52 49 50 50 51 50 51 53 52 55 51 49 44 49 47 46 50 49 49 47 47 46 48 43 42 39 38 40 31 33 28 28 28 25 25 23 25 21 15 16 17 13 14 12 19 12 14 12 


