P2
80 60
62
19 19 19 19 16 18 22 20 17 18 17 19 25 26 24 24 26 25 31 27 30 29 27 33 33 33 34 32 35 34 37 38 37 37 38 37 36 36 36 35 38 37 37 40 40 35 36 36 33 36 36 37 35 36 34 31 32 27 26 27 30 24 22 21 20 20 19 18 13 14 10 10 12 12 8 7 7 7 5 6 
21 17 20 16 21 21 16 21 23 20 20 23 23 26 26 24 28 32 31 25 29 29 28 33 34 34 35 35 35 37 36 37 36 35 41 38 36 38 37 36 35 40 34 36 41 34 35 33 35 36 35 39 34 35 35 30 32 31 30 25 23 26 21 29 24 19 16 21 17 16 12 10 7 11 7 9 9 0 5 2 
23 17 16 18 19 18 18 22 23 18 23 27 25 27 29 28 30 32 35 28 33 32 31 35 35 32 35 33 37 38 40 35 40 39 36 36 36 36 38 38 39 41 35 36 36 39 36 35 35 38 37 36 36 36 35 34 30 34 29 29 27 28 27 26 27 21 19 21 19 18 16 11 10 13 5 13 9 4 4 0 
24 19 19 21 20 21 24 24 24 24 23 25 30 27 32 33 29 30 34 30 35 32 28 35 35 36 34 34 35 36 40 36 37 38 39 38 39 37 39 40 38 38 38 36 37 38 33 36 35 38 42 37 38 35 38 36 34 32 31 32 29 26 25 27 24 25 23 21 16 17 16 14 12 13 8 13 11 7 6 4 
29 23 18 20 26 24 23 25 24 26 29 30 27 30 31 32 32 35 31 29 34 34 35 37 38 38 37 38 36 36 40 38 39 38 39 39 41 41 42 40 42 38 42 40 35 42 39 38 38 40 38 36 38 43 38 36 32 36 31 30 29 28 26 27 26 23 22 19 19 19 18 18 10 14 12 11 11 9 8 6 
27 22 25 21 26 25 25 24 24 26 27 29 31 32 27 32 33 38 33 34 33 35 36 36 37 36 37 40 39 39 41 40 46 39 43 40 42 46 38 43 43 40 42 36 41 42 38 40 39 40 43 39 40 39 40 36 36 40 35 32 30 30 29 26 27 25 29 24 24 18 18 12 15 14 14 13 11 9 9 5 
25 21 21 21 23 24 25 23 24 28 28 28 26 31 33 33 37 35 38 34 35 36 38 39 41 37 41 40 41 39 42 41 47 40 41 41 41 41 42 39 39 43 42 41 42 40 37 42 36 42 41 40 39 42 43 37 35 36 31 32 34 30 27 29 27 27 25 27 22 21 20 19 15 18 12 15 11 9 6 5 
24 21 23 24 23 25 25 26 26 29 25 32 33 34 33 34 31 39 33 34 34 36 35 36 41 38 41 38 41 43 40 42 44 41 41 41 41 43 42 42 40 45 43 40 41 42 41 41 42 45 43 37 40 45 36 33 39 40 34 35 35 31 32 33 30 28 28 25 24 19 21 18 19 12 16 13 14 5 13 6 
26 24 26 26 26 23 32 27 31 29 34 34 35 35 32 35 35 41 37 37 38 38 39 40 38 41 41 43 41 41 42 47 40 40 48 45 44 46 41 43 44 40 47 42 45 43 43 41 39 39 39 42 41 41 43 42 40 36 40 34 38 34 31 33 33 31 28 29 22 22 21 21 22 20 18 18 18 13 7 6 
31 30 28 28 29 31 32 32 30 34 34 38 36 37 37 41 39 38 43 42 38 39 40 42 42 43 44 44 45 44 47 43 48 50 48 47 43 48 43 46 43 46 45 45 45 47 46 43 40 46 44 41 46 42 47 42 42 41 41 41 39 38 36 31 32 30 33 28 26 25 23 22 21 17 20 18 19 14 13 11 
31 28 29 30 32 29 31 34 33 32 33 34 36 36 38 41 42 43 42 38 39 39 38 40 41 42 44 43 43 43 43 41 45 47 46 47 48 44 42 42 44 47 40 41 43 45 43 40 46 44 42 42 41 40 44 42 41 42 38 36 40 36 35 31 33 34 27 26 27 23 26 26 20 21 21 25 23 17 15 14 
30 30 31 28 32 35 34 37 33 35 34 35 35 35 41 38 40 41 42 37 37 41 40 44 48 40 43 44 47 48 46 46 50 48 44 50 44 46 47 46 45 47 48 45 46 45 45 44 42 45 46 45 45 46 44 39 43 41 37 37 37 35 32 34 35 28 33 30 29 28 25 28 24 27 22 23 23 14 15 12 
28 31 30 31 34 34 33 35 33 33 38 36 40 39 40 39 40 41 43 43 38 42 39 41 43 47 42 45 49 44 47 46 48 49 46 46 42 46 50 44 45 45 48 47 45 44 48 47 41 47 44 46 44 42 45 39 41 42 42 41 36 40 34 37 32 34 33 33 29 27 29 26 25 26 22 22 19 17 18 12 
37 33 33 31 38 41 41 37 38 38 37 37 39 38 41 42 42 45 42 45 45 46 42 48 46 49 48 46 52 50 49 46 51 49 52 49 47 48 51 49 51 49 48 46 45 46 48 48 47 48 50 49 44 46 46 45 45 43 36 39 38 36 37 39 34 35 34 35 36 29 29 27 28 23 24 25 19 15 17 15 
37 31 34 35 40 39 36 37 37 38 41 38 39 39 44 43 46 46 44 42 45 45 45 48 45 50 48 48 52 45 54 51 50 52 54 50 52 52 51 51 52 52 50 50 51 49 47 51 48 45 50 48 49 50 47 48 44 44 42 41 41 40 39 37 37 36 37 35 32 30 28 29 28 26 25 28 20 19 18 13 
37 32 35 39 36 38 38 34 39 40 38 39 43 43 42 45 47 46 45 42 44 48 43 48 49 45 48 48 51 48 47 51 49 48 53 52 49 51 50 49 52 52 49 44 48 47 47 48 46 47 47 50 43 50 47 45 44 44 44 41 39 38 37 33 34 34 30 34 34 29 31 29 27 26 23 27 28 17 18 15 
34 35 37 35 38 40 39 39 40 42 40 42 45 40 43 48 46 47 49 46 47 49 48 50 53 52 51 49 50 50 53 51 54 49 56 52 49 51 49 53 50 48 53 52 51 51 51 50 47 48 48 48 52 50 48 46 44 46 42 44 42 40 38 39 36 39 37 35 38 34 33 30 26 27 23 24 22 14 16 11 
40 40 38 38 39 39 38 38 41 43 43 43 43 47 47 51 48 49 48 46 50 51 55 52 51 49 53 51 52 49 47 53 55 54 52 51 51 48 52 49 54 51 54 51 51 51 53 50 46 52 49 47 47 49 51 45 44 43 45 44 40 39 40 40 36 38 36 33 34 31 31 28 27 23 25 22 21 14 16 12 
44 36 37 40 42 39 39 41 41 40 41 46 46 46 47 46 50 48 49 47 49 50 50 53 53 54 54 51 50 48 48 49 49 51 52 50 52 52 50 48 52 48 54 53 50 49 51 50 49 50 50 45 46 50 49 50 44 44 39 44 42 37 35 35 38 36 31 30 32 35 28 26 24 20 22 22 16 15 17 16 
43 39 39 43 44 40 41 42 40 44 43 47 46 49 49 47 46 51 52 48 48 47 50 49 51 52 51 54 50 47 53 52 51 51 48 49 49 52 49 50 52 49 54 51 53 51 51 51 51 49 50 52 50 49 46 43 48 46 42 45 43 38 38 38 36 36 37 34 29 25 30 27 23 19 22 20 21 16 17 18 
40 42 41 41 45 47 45 44 45 47 46 47 53 50 45 48 51 50 50 48 50 50 50 50 52 53 53 50 52 50 52 54 56 51 49 52 53 51 50 52 50 50 53 55 54 49 53 48 50 53 53 48 50 53 48 44 46 45 43 45 40 44 43 41 39 39 36 35 32 30 28 23 25 22 24 24 22 19 19 19 
42 43 41 44 42 45 45 45 44 45 44 48 50 49 47 49 51 53 51 48 49 51 51 52 50 52 53 53 55 51 54 52 56 55 52 51 54 56 52 53 49 53 51 51 51 53 48 51 50 51 52 48 47 53 48 47 50 45 45 46 43 40 44 38 36 41 38 33 26 28 29 27 26 22 27 23 22 20 21 19 
41 40 44 42 44 45 45 45 49 45 47 47 47 48 47 50 46 50 51 51 48 49 54 49 56 53 53 53 51 55 55 48 54 51 54 55 55 52 51 52 51 50 48 50 50 53 51 49 47 51 51 49 48 45 50 44 45 44 41 41 43 41 41 39 35 33 31 30 28 24 29 22 26 24 25 25 23 20 24 16 
43 38 39 41 43 44 43 44 44 50 49 48 46 50 49 46 49 47 50 50 52 51 51 54 53 51 55 55 47 55 53 55 55 52 52 49 52 52 53 52 52 51 49 51 51 49 51 50 55 50 51 48 49 45 44 45 47 43 38 46 39 40 40 37 38 35 34 31 31 30 25 32 28 24 27 28 25 20 23 23 
44 41 42 43 44 45 49 50 51 51 53 53 48 51 54 51 49 52 55 50 50 55 49 52 54 54 54 53 55 54 50 57 54 55 58 55 57 56 55 51 53 58 54 53 55 53 54 54 53 56 52 55 56 54 55 48 52 47 45 41 43 40 37 38 37 39 35 33 32 29 28 30 26 34 26 27 25 22 20 18 
42 44 45 45 47 47 48 50 49 49 49 52 51 51 50 53 53 52 55 51 52 54 52 58 56 57 57 50 56 56 57 54 57 54 60 57 57 58 57 57 56 55 54 53 54 52 55 53 52 57 52 60 53 50 52 53 53 50 43 43 42 41 38 38 37 36 34 39 30 27 32 31 29 31 25 31 26 22 20 21 
45 45 43 49 46 46 46 48 47 47 51 50 50 49 51 55 48 56 54 52 52 52 55 52 57 54 52 53 53 55 55 57 56 56 56 58 55 59 60 55 58 55 53 56 54 57 52 55 52 52 58 53 51 53 51 44 48 48 42 42 40 34 38 37 33 35 37 34 32 30 29 31 29 27 28 33 26 21 23 22 
45 41 43 44 47 42 47 47 48 45 46 51 50 48 53 52 47 54 53 49 51 53 52 53 50 53 53 55 53 54 55 58 53 51 54 52 55 56 51 56 56 54 49 56 56 53 53 52 51 55 50 44 45 48 45 45 41 42 37 36 35 37 36 33 37 33 35 31 31 33 28 28 25 29 27 28 28 23 20 23 
44 40 43 45 44 47 48 44 44 49 46 48 52 49 50 52 50 53 54 49 53 54 49 54 53 54 54 53 54 54 52 58 57 57 62 60 58 58 54 54 58 56 52 55 55 52 55 53 50 52 52 52 48 47 43 44 42 41 39 36 37 34 36 35 30 38 37 33 34 31 31 30 26 29 26 29 30 26 26 20 
44 45 45 42 45 47 48 48 48 51 51 51 49 52 49 52 50 56 54 51 49 56 53 56 51 56 55 53 56 52 59 53 53 56 57 61 57 55 56 55 52 57 51 56 54 56 53 53 49 50 48 50 44 47 42 42 41 40 37 35 39 39 38 31 34 35 33 33 34 31 34 32 28 29 30 33 32 26 26 22 
43 45 43 43 47 50 48 47 52 47 52 53 55 50 54 53 54 55 54 51 51 55 52 56 56 58 58 53 55 54 58 55 54 53 57 55 57 60 59 57 59 53 58 56 53 51 56 50 53 52 52 46 43 41 41 40 40 42 40 39 38 35 35 36 34 37 36 35 33 34 33 32 33 31 33 34 34 30 28 26 
50 47 46 48 47 50 49 53 52 51 50 53 50 50 51 56 55 56 56 53 52 57 53 58 56 56 54 57 52 53 56 58 59 60 61 61 58 60 56 58 57 53 56 54 53 57 56 51 51 54 49 46 42 44 41 38 40 39 39 37 35 35 39 40 35 35 36 36 36 30 35 39 33 33 34 34 34 26 25 28 
47 47 52 50 47 46 49 53 52 50 54 51 51 54 52 53 53 53 55 53 51 57 57 56 56 55 57 57 58 55 52 55 58 56 56 55 58 59 60 57 57 54 54 51 54 53 48 52 45 47 49 45 38 45 44 39 42 40 36 38 35 37 36 39 39 39 37 37 37 36 32 37 32 32 33 40 32 28 26 28 
45 46 44 46 51 53 51 51 51 55 55 53 53 52 52 55 57 54 56 50 56 53 53 57 56 58 52 54 58 56 55 54 54 54 56 56 59 57 56 59 57 58 56 56 54 52 52 48 42 47 48 44 42 44 46 41 43 41 39 40 37 37 40 40 38 40 40 42 40 36 37 34 35 35 38 36 33 30 29 22 
48 45 47 48 51 52 50 55 49 52 54 54 52 53 51 57 53 56 53 55 57 58 53 54 56 56 57 54 57 57 59 55 60 57 60 56 55 57 57 53 56 56 54 50 49 52 45 47 45 44 43 43 42 45 43 39 38 44 41 41 38 41 39 39 39 40 39 41 41 36 38 34 33 38 36 32 33 26 29 25 
49 45 44 46 50 47 50 52 49 52 51 50 54 52 51 54 56 55 54 57 56 57 56 55 56 56 54 56 55 56 56 58 57 57 58 54 56 57 57 56 56 56 52 49 48 45 47 45 46 44 47 44 42 42 41 40 44 41 40 40 43 43 42 43 42 41 41 42 39 38 38 36 35 35 36 33 31 30 25 26 
43 46 45 43 47 50 47 50 50 51 53 53 51 57 52 56 52 51 55 54 52 56 55 57 57 57 57 54 55 57 57 57 59 58 57 53 56 55 56 54 51 50 48 47 47 48 44 46 45 47 47 41 41 45 42 43 44 42 41 36 41 43 44 44 38 39 37 42 38 35 37 39 36 33 36 35 31 28 29 22 
51 49 48 48 46 48 45 46 49 48 51 49 49 52 50 54 54 54 54 55 55 53 56 53 55 56 58 55 53 56 52 55 56 53 56 54 56 52 51 51 51 44 48 46 45 43 47 44 44 47 49 45 40 45 43 40 44 43 41 41 42 44 42 49 45 40 40 45 38 38 40 34 32 34 31 30 33 27 28 27 
49 46 45 47 51 47 47 49 48 45 47 50 51 50 51 55 57 57 56 55 51 54 55 55 54 57 57 55 56 56 59 56 53 56 56 52 53 52 47 46 49 48 43 45 45 45 48 48 45 42 38 42 42 44 40 40 44 42 44 42 43 41 40 41 44 38 41 39 41 35 36 37 33 32 33 33 32 27 27 23 
48 44 44 44 45 49 50 47 47 46 47 50 49 49 47 50 51 54 52 50 54 57 50 55 52 58 54 57 56 54 53 57 55 57 53 48 49 47 48 42 45 46 49 42 50 47 50 46 43 42 45 45 39 45 44 43 43 44 43 42 44 42 41 41 40 40 38 35 37 36 36 32 33 31 30 35 32 25 26 25 
44 44 43 43 44 46 49 47 48 50 45 49 51 46 53 55 54 55 57 51 51 53 53 53 57 53 54 52 58 54 56 55 56 50 49 48 45 47 46 47 47 49 47 49 49 48 49 49 43 47 47 43 46 46 52 48 46 43 42 45 41 45 41 37 40 36 38 39 35 38 34 32 35 29 32 32 29 23 22 24 
44 43 43 44 44 47 46 48 50 46 47 46 49 50 47 52 54 53 56 52 52 50 52 55 54 53 52 53 55 55 53 53 50 50 50 43 42 48 47 51 50 49 46 45 41 47 46 44 42 45 45 45 46 50 49 43 39 44 44 41 46 39 40 41 40 37 38 41 39 37 33 32 35 31 29 32 30 23 25 19 
47 43 45 45 46 42 45 47 45 42 44 46 48 50 47 53 50 52 55 53 52 51 50 54 54 56 54 52 54 50 51 49 50 46 41 44 45 49 48 46 53 46 45 43 46 42 49 44 45 46 46 45 49 47 49 42 38 43 40 43 42 43 37 43 38 39 37 38 39 33 36 32 32 28 28 30 31 20 24 21 
49 41 38 43 42 45 46 47 46 47 43 47 49 47 48 49 48 54 53 53 49 49 51 52 51 53 49 53 50 50 46 48 48 46 47 48 47 45 47 46 44 47 42 42 44 46 46 45 43 48 48 50 41 45 42 40 39 39 39 41 43 38 38 43 38 37 36 36 35 32 36 36 28 27 27 30 27 24 25 24 
45 42 41 38 40 45 46 48 44 46 45 44 50 49 51 53 47 54 52 51 52 52 50 51 56 53 50 47 48 45 46 46 49 45 48 49 44 47 45 43 43 48 47 44 43 43 47 49 49 49 50 46 43 44 38 41 41 38 40 40 39 38 38 38 40 36 37 37 35 33 34 32 29 33 26 30 28 22 22 20 
45 44 43 43 44 44 46 43 43 42 44 46 50 46 51 53 52 52 54 51 53 52 53 53 54 53 49 48 47 46 47 47 47 48 48 47 47 45 43 50 44 42 41 50 53 51 53 48 52 49 48 47 42 47 43 40 42 42 45 39 37 41 41 43 39 36 39 35 39 38 33 31 31 34 29 25 24 21 22 21 
48 45 38 42 45 45 45 41 45 42 44 46 46 46 50 54 49 54 56 49 50 53 45 51 48 42 44 44 45 51 49 47 49 45 46 43 46 45 43 44 46 46 50 47 50 46 49 50 47 47 51 46 46 47 43 41 42 43 43 38 37 38 36 39 36 34 37 34 35 38 36 28 31 23 22 26 27 23 21 20 
44 43 41 43 42 46 47 42 43 43 46 44 49 47 49 48 48 53 51 48 49 48 51 47 44 48 45 44 45 45 46 44 48 44 44 42 43 45 45 43 48 46 44 51 50 49 49 51 47 53 53 49 47 50 44 43 40 40 38 42 42 37 34 36 33 34 36 35 31 32 35 28 26 29 27 25 28 22 18 20 
41 38 39 42 41 43 40 39 41 40 45 44 45 47 50 51 50 49 47 48 49 47 44 42 46 45 48 46 43 43 45 45 42 44 45 41 47 46 48 50 49 52 49 49 47 48 52 49 51 56 51 50 49 48 41 43 45 38 39 37 37 37 36 40 39 34 34 32 30 30 27 27 23 24 23 28 21 20 21 20 
41 38 38 43 42 39 40 45 41 46 41 45 46 46 48 46 50 45 50 42 43 43 38 41 43 44 44 42 45 45 42 40 44 40 42 44 51 50 52 49 48 48 49 49 51 49 52 52 49 56 48 46 46 50 42 43 43 43 41 40 38 41 34 35 34 35 33 34 29 27 27 25 24 27 23 26 27 17 15 17 
38 33 35 41 39 43 43 47 43 43 44 45 45 46 45 48 48 45 46 43 39 39 42 43 41 41 44 41 43 40 43 44 48 49 49 54 48 50 50 53 50 52 48 50 50 50 50 51 46 49 51 43 48 48 47 41 41 47 42 41 39 40 37 34 36 37 32 33 31 28 29 25 20 25 23 25 22 16 16 16 
37 35 35 40 39 38 37 38 43 42 47 47 44 49 46 52 50 51 40 38 37 41 40 44 41 40 40 37 43 45 42 46 51 47 50 51 52 48 49 54 51 51 49 47 48 52 46 47 48 47 47 48 43 46 43 43 45 40 41 41 38 38 36 39 35 34 34 31 31 26 26 26 26 24 23 27 22 18 12 6 
38 38 37 36 41 35 37 40 42 43 45 45 42 46 46 48 46 41 38 37 38 40 35 40 39 40 38 39 39 45 50 49 48 47 54 46 53 54 49 51 48 51 51 46 50 49 48 51 46 52 51 46 43 48 45 41 41 43 41 40 34 38 33 36 36 33 32 26 30 28 27 22 25 23 23 24 19 16 13 10 
38 37 34 34 40 36 40 38 37 41 44 42 40 43 43 41 39 35 38 37 38 37 31 33 34 40 43 42 42 47 50 46 49 50 52 49 53 47 48 50 49 45 49 47 48 49 47 49 48 48 49 47 44 50 47 38 45 41 40 38 38 38 38 38 39 29 30 28 25 27 25 21 23 21 21 20 21 14 17 12 
43 34 36 37 38 43 39 41 40 35 41 43 43 42 40 34 34 34 37 37 38 38 37 42 39 43 46 46 47 49 50 49 50 49 53 50 50 52 52 50 54 50 51 49 52 54 50 50 47 48 48 46 45 47 46 42 43 40 42 36 40 38 38 34 38 31 32 31 28 28 27 21 25 23 23 20 22 16 14 14 
35 33 34 36 36 39 39 36 38 36 38 44 43 43 32 35 39 36 38 32 35 33 37 42 48 45 50 46 51 50 56 50 53 50 56 52 51 54 54 51 53 52 54 51 51 52 51 47 48 49 49 49 47 47 48 46 44 45 41 43 37 39 35 32 35 33 30 31 29 23 25 21 23 22 19 22 21 16 10 15 
39 34 33 37 37 38 35 39 40 38 39 43 42 32 31 33 34 32 36 35 37 40 40 43 45 45 49 51 50 52 53 52 57 49 51 56 53 52 52 49 53 56 50 53 53 50 49 50 49 51 48 48 46 51 46 42 43 41 41 39 35 39 32 34 32 32 30 29 26 28 25 26 21 20 20 21 21 17 17 14 
37 32 32 36 33 36 38 39 38 38 38 37 31 29 31 34 33 33 34 37 36 39 39 46 44 47 49 50 53 51 52 55 53 48 52 47 52 53 51 51 54 48 49 51 49 52 51 49 48 44 48 48 49 46 46 43 43 41 40 41 39 41 30 34 32 31 30 26 26 22 26 21 21 19 16 17 21 19 17 11 
37 38 36 34 38 37 39 43 37 37 37 30 30 32 34 34 36 39 40 41 43 42 46 49 49 52 48 47 50 53 53 53 53 50 55 54 56 54 53 54 55 51 55 50 51 52 51 50 52 51 51 48 47 50 48 46 43 43 44 42 37 35 35 36 34 33 30 25 32 22 23 23 19 22 18 21 22 18 16 12 
35 41 35 39 36 36 39 44 37 34 42 34 32 35 32 34 36 37 45 42 44 45 48 49 50 52 53 49 55 56 52 55 57 52 55 55 54 55 58 54 55 57 56 54 49 53 51 50 51 52 51 51 49 49 50 45 47 47 43 43 36 35 33 35 33 33 33 31 31 25 23 24 24 22 23 22 25 17 19 12 


