P2
80 60
246
25 32 30 40 78 106 86 44 54 98 91 55 46 40 35 33 31 27 29 31 26 26 24 22 24 28 26 27 29 39 33 30 29 29 29 28 25 27 27 29 26 28 27 26 29 30 31 25 19 17 19 16 20 18 18 17 17 23 20 24 22 26 27 28 24 21 21 24 27 27 27 24 25 21 20 18 21 25 19 18 
18 30 36 44 82 110 80 45 53 99 90 53 41 38 36 33 34 31 28 30 28 26 27 28 27 31 30 30 30 38 31 33 32 31 27 25 28 30 26 31 27 27 24 26 28 31 31 29 22 23 20 21 20 21 23 21 24 21 26 29 29 30 29 34 30 22 22 27 28 27 24 24 27 27 22 18 21 28 20 17 
18 32 33 42 86 106 76 41 63 99 86 51 36 32 34 32 30 33 29 28 28 27 26 27 27 30 29 27 31 34 32 30 29 26 31 27 26 27 30 29 26 29 28 30 24 30 30 28 24 26 24 25 29 27 27 28 27 26 31 31 30 32 32 33 29 22 23 26 29 28 24 22 26 26 21 16 22 24 19 18 
24 31 35 49 93 102 69 39 66 98 80 48 37 38 30 32 34 29 30 32 27 26 28 29 28 31 31 28 34 32 33 30 28 26 25 24 26 30 28 30 31 29 28 29 29 29 35 31 26 30 31 31 31 29 28 29 28 32 31 33 30 31 26 28 24 24 21 22 31 26 29 26 27 25 23 18 24 25 21 15 
25 36 37 48 97 109 66 40 69 94 79 39 37 31 29 30 28 27 28 27 27 28 30 27 28 30 30 31 33 33 30 27 29 26 23 23 26 28 26 28 24 27 29 27 25 28 33 31 30 32 29 26 27 29 27 28 28 28 28 26 27 26 26 26 26 25 24 23 29 31 28 24 27 22 22 18 21 22 21 15 
25 35 37 60 101 98 66 41 75 96 76 39 35 30 29 26 25 29 28 26 28 28 25 26 24 28 29 29 31 30 32 30 29 28 26 25 24 26 27 25 24 28 22 28 28 27 27 30 27 29 30 30 31 29 28 29 27 26 27 29 25 26 28 30 27 26 22 22 30 33 26 25 29 24 21 24 20 20 17 15 
20 38 39 60 101 94 57 38 76 96 69 34 35 27 27 24 27 28 27 32 29 26 26 26 28 26 25 28 30 31 28 28 28 26 21 24 27 24 27 28 26 28 26 25 26 25 25 27 28 28 29 28 28 28 27 26 25 26 27 23 27 28 29 28 27 26 22 19 28 28 23 26 28 23 22 22 23 19 17 15 
18 33 30 51 100 92 54 38 77 93 64 33 30 23 25 26 25 27 26 28 24 25 22 22 24 25 26 31 29 31 30 29 28 26 26 26 26 24 25 25 28 27 24 23 25 26 21 24 27 28 27 24 27 25 24 26 27 26 28 30 27 33 29 30 26 26 20 19 31 28 25 29 29 24 22 20 20 21 16 15 
13 29 29 50 103 94 51 38 82 95 64 34 26 24 26 26 24 27 29 30 27 24 27 24 25 22 28 29 29 33 30 29 25 28 24 27 30 28 27 26 26 26 26 26 26 28 30 28 25 28 26 22 25 26 27 27 26 28 29 33 33 31 29 31 30 32 21 20 27 32 26 27 30 27 24 23 18 20 18 17 
7 9 0 45 106 93 41 32 87 98 58 29 23 22 23 25 24 23 23 27 22 25 21 26 23 25 25 25 30 32 32 27 29 28 26 27 27 27 27 29 28 28 27 27 26 28 29 29 25 26 27 27 29 27 32 29 29 30 31 33 33 31 33 27 32 30 25 22 30 32 28 30 30 25 27 24 20 23 21 16 
10 10 7 49 104 88 34 28 94 108 51 18 15 14 13 17 20 20 21 24 24 22 23 24 20 25 24 25 26 30 29 27 24 24 23 25 23 27 25 25 24 28 22 27 25 24 26 24 23 25 29 28 29 30 29 31 29 28 32 30 32 29 27 29 29 32 20 22 26 30 27 27 28 27 23 21 19 22 19 12 
14 20 19 59 114 93 35 32 96 105 50 19 14 11 14 13 9 15 17 20 13 15 20 20 20 21 21 22 24 26 28 27 24 28 28 26 25 27 26 28 23 26 27 25 28 27 24 28 26 30 34 30 32 32 31 32 33 30 33 32 31 29 31 31 32 34 27 22 30 31 28 30 28 29 30 24 22 24 19 16 
18 22 20 57 108 90 37 37 98 103 49 13 13 13 12 14 15 12 8 10 6 6 8 10 12 17 15 15 13 22 18 23 23 26 22 24 22 25 27 26 28 25 25 26 26 24 29 30 30 31 30 30 33 30 28 30 29 31 32 31 31 29 29 30 27 30 29 23 26 30 31 32 30 31 27 24 19 21 24 18 
19 23 23 66 104 85 37 40 102 103 42 19 13 12 18 13 15 12 10 11 9 9 7 7 10 9 6 9 11 10 11 6 16 13 18 19 21 27 28 27 24 25 25 24 27 30 29 31 31 32 34 32 31 29 30 33 30 28 32 34 33 32 32 34 32 31 31 24 23 31 28 29 33 30 28 26 23 27 20 22 
11 21 23 71 99 73 33 40 101 98 42 21 19 14 18 16 14 12 12 12 8 9 7 8 6 9 7 10 13 10 12 5 4 8 18 20 25 26 28 24 26 26 26 30 30 31 31 34 35 32 34 30 30 35 29 33 31 29 31 33 30 30 32 32 34 34 29 24 27 31 29 30 30 32 29 27 26 24 19 16 
17 20 25 70 99 71 28 42 100 89 38 15 14 15 19 16 11 14 13 12 9 8 13 9 4 8 11 8 11 12 9 10 14 17 23 25 26 23 25 27 25 26 26 28 30 30 30 29 30 28 32 28 29 30 31 28 29 29 30 32 29 31 31 32 33 34 30 26 25 25 29 32 29 27 28 24 27 26 23 21 
18 23 25 74 99 72 32 46 103 90 35 18 18 17 16 16 15 17 13 16 15 16 14 12 10 9 11 9 14 14 19 23 29 28 26 29 23 26 27 26 23 26 28 31 32 29 32 31 33 31 32 29 34 33 30 36 29 32 33 32 33 31 32 31 33 32 33 27 26 27 35 31 30 31 25 27 28 34 24 24 
17 23 25 81 99 71 28 45 102 85 35 18 16 19 19 16 17 13 15 14 15 13 14 10 11 13 14 12 16 22 27 28 28 27 25 24 25 28 26 27 24 26 30 30 32 29 35 31 32 33 33 33 31 32 32 30 31 34 33 33 36 32 37 31 32 34 32 30 25 25 32 35 31 32 29 28 26 32 28 23 
14 19 22 84 97 68 26 49 102 84 31 16 19 14 20 16 16 17 14 14 15 11 14 13 12 11 11 11 16 22 29 29 25 24 22 24 24 26 26 25 24 27 28 24 27 25 31 28 31 28 33 31 33 34 29 29 29 32 31 31 32 32 32 29 30 33 33 31 21 22 30 32 33 30 28 27 27 31 25 23 
16 23 29 86 99 68 29 51 105 85 33 20 20 20 18 17 18 17 17 16 14 17 16 14 15 13 14 10 17 25 29 26 26 22 23 23 24 26 28 27 28 28 29 26 28 31 33 31 30 32 33 32 33 32 31 31 33 34 30 34 33 33 33 34 30 34 36 33 26 22 28 31 34 31 30 27 29 32 26 21 
17 27 30 90 97 67 30 55 102 83 32 23 20 22 20 18 20 21 17 21 15 17 14 15 17 14 12 15 17 22 26 26 25 24 26 25 25 26 28 29 27 29 28 27 32 28 32 31 33 34 34 32 35 32 30 34 32 32 30 34 36 35 33 38 34 34 36 36 28 23 24 29 35 32 30 30 31 31 28 24 
21 29 41 105 101 64 31 60 104 84 37 23 20 21 21 18 18 19 17 20 16 18 15 15 13 14 15 15 16 16 26 25 23 23 23 26 25 27 28 27 27 27 24 30 30 28 31 28 30 35 37 32 30 33 32 31 29 32 33 34 33 32 35 36 33 33 34 39 35 25 19 29 32 31 27 27 30 35 24 22 
76 75 76 124 105 55 30 66 104 81 29 22 22 18 19 18 17 17 15 18 17 19 17 14 16 14 14 15 15 15 22 24 28 26 24 21 24 25 25 27 28 26 27 27 29 27 29 32 29 32 33 32 30 32 31 30 30 32 32 34 32 33 32 32 32 32 33 40 35 23 17 23 27 32 32 30 31 31 26 22 
103 110 107 111 93 44 31 68 102 75 30 21 23 17 19 16 18 19 17 16 15 19 15 15 13 17 17 16 16 17 24 23 24 25 24 23 27 25 23 29 29 28 27 28 29 27 29 30 27 32 32 32 31 32 31 31 30 27 30 35 30 35 35 35 35 30 32 36 34 29 21 21 25 29 25 29 28 31 26 18 
94 101 97 92 76 35 35 76 104 81 31 26 23 20 21 19 21 19 22 20 18 18 17 17 14 14 17 18 17 21 23 27 27 26 23 26 28 28 26 27 32 32 29 29 31 28 31 32 31 34 35 31 33 33 33 30 31 33 32 32 35 34 35 37 32 35 32 34 36 33 28 22 20 24 22 28 32 33 25 21 
39 48 51 50 35 31 34 79 109 79 30 24 21 22 23 21 21 20 18 21 21 20 20 20 19 17 19 17 19 18 25 27 28 28 31 29 29 29 31 29 30 33 32 30 33 31 30 32 32 32 34 34 34 35 35 36 33 35 31 37 33 35 34 38 35 34 36 38 37 37 34 31 26 21 20 22 25 33 26 22 
28 30 26 23 28 27 34 86 114 78 31 24 21 21 22 22 18 20 20 22 18 18 18 19 22 19 18 16 19 17 23 26 28 29 26 28 28 28 30 29 29 34 32 30 29 31 31 33 33 31 34 32 32 33 32 33 31 32 32 33 35 33 32 35 36 34 35 38 37 37 35 37 30 23 20 21 22 25 25 21 
71 69 52 47 43 47 45 97 116 80 31 26 22 23 21 20 20 25 21 21 19 19 17 21 20 20 19 19 19 19 24 28 29 31 28 28 31 27 29 35 33 29 29 31 29 30 33 31 33 34 35 32 31 36 34 33 31 31 35 33 33 33 37 32 35 35 34 35 36 39 37 38 34 31 30 29 24 26 26 20 
118 118 106 102 102 101 102 115 107 77 29 26 24 23 21 21 25 24 25 22 19 25 15 19 19 19 22 20 22 18 27 29 29 30 28 32 30 31 32 34 33 30 33 33 33 30 34 31 34 34 36 34 33 33 32 32 31 31 33 35 37 38 32 37 33 37 38 39 37 41 35 37 35 30 31 32 32 32 28 18 
100 106 99 100 103 103 101 103 92 58 26 23 22 20 24 24 24 25 23 23 22 23 19 20 18 20 20 18 20 20 28 29 26 28 30 31 32 30 32 31 31 31 27 30 29 30 32 32 31 33 33 32 33 31 34 35 31 33 33 35 33 32 38 35 35 38 37 39 37 39 35 34 35 30 29 32 36 31 24 21 
41 48 47 51 57 62 64 64 58 34 23 25 26 26 24 22 24 25 24 22 23 26 20 22 20 18 22 21 20 23 26 31 30 29 29 29 28 32 33 32 33 31 32 31 33 31 33 35 32 31 34 34 36 34 30 34 35 33 31 35 35 34 34 37 34 41 35 41 39 36 35 34 36 32 31 29 33 34 26 21 
23 29 25 25 28 30 31 29 31 24 22 24 26 27 24 26 24 26 25 26 21 23 25 23 23 21 20 22 23 22 23 31 30 30 32 29 30 32 32 36 30 32 33 30 34 31 30 31 33 33 34 33 34 38 33 35 32 35 33 34 33 35 38 36 34 36 36 37 39 33 37 38 38 36 31 30 30 33 25 22 
23 26 21 21 25 26 26 24 25 25 23 22 29 28 25 25 24 27 24 26 22 23 26 24 23 20 21 26 26 24 26 30 30 31 27 27 31 31 33 33 34 33 33 33 30 30 32 34 35 35 35 34 33 34 32 38 32 34 34 32 36 35 38 36 34 38 37 38 40 40 34 34 40 38 31 30 30 37 28 25 
22 27 19 26 26 26 20 23 20 24 24 26 27 27 30 24 29 26 27 26 23 25 23 24 27 22 23 23 23 27 24 31 31 31 31 27 30 30 34 35 35 34 34 31 33 32 35 35 31 35 36 33 36 34 31 33 31 31 35 35 35 36 40 41 35 38 39 40 40 40 34 36 41 35 35 32 31 34 30 24 
25 28 22 21 26 25 23 24 26 24 23 26 28 27 27 26 28 30 29 28 28 26 28 26 26 24 25 28 27 28 29 28 32 32 34 30 35 30 33 35 33 32 34 32 33 33 35 34 36 35 37 36 36 34 36 33 30 35 36 36 35 39 38 41 37 38 40 39 40 40 34 36 38 34 35 31 32 35 33 28 
28 29 18 21 24 25 27 27 24 25 24 25 27 28 28 26 27 28 30 25 29 30 30 23 28 27 27 27 27 27 28 28 33 30 32 30 32 32 31 33 32 31 31 34 32 32 34 32 36 34 37 36 34 37 35 34 34 34 34 37 36 35 36 39 36 37 37 40 38 37 34 34 39 38 35 31 30 39 33 31 
24 32 23 20 26 25 28 24 26 25 27 27 31 27 25 29 27 31 27 32 25 29 27 28 26 29 30 29 28 27 28 33 34 30 34 31 34 32 32 33 36 32 37 33 32 33 38 37 35 37 37 36 34 36 34 35 34 36 34 33 37 35 36 36 33 37 37 37 41 40 36 33 35 36 33 32 32 36 33 36 
22 29 23 23 23 26 24 26 27 26 24 23 27 26 28 30 26 29 29 30 28 30 26 24 28 26 33 32 26 27 27 31 34 32 32 33 31 33 31 34 32 32 31 30 33 33 34 39 34 37 36 35 35 38 33 34 35 33 34 34 34 35 39 38 36 37 38 38 41 41 34 35 37 35 33 33 34 34 39 34 
25 30 25 25 26 26 28 31 28 23 25 26 28 29 29 29 29 29 27 31 29 30 29 27 29 30 32 30 30 27 28 30 33 34 32 33 33 28 33 34 33 37 34 30 32 36 33 38 35 40 38 36 33 37 33 34 34 33 34 33 35 34 37 37 34 38 36 39 41 44 35 41 37 35 36 32 32 41 41 45 
26 30 26 27 27 29 29 29 26 24 25 26 29 29 30 31 32 33 29 31 31 33 31 33 31 30 30 33 31 28 29 35 34 31 34 33 32 33 35 36 36 31 35 35 32 36 38 35 33 40 36 36 33 36 36 36 37 36 35 34 34 36 38 36 37 36 40 40 41 40 37 38 40 36 35 36 41 51 52 63 
25 28 26 28 26 29 27 29 27 28 23 24 29 29 31 29 29 30 32 33 33 32 32 35 32 34 32 32 34 32 30 32 36 36 35 33 35 35 35 35 34 33 33 35 35 35 34 37 35 36 32 35 38 40 38 35 36 34 33 35 34 36 37 35 35 37 39 40 39 40 36 38 41 36 37 42 51 54 53 95 
23 30 23 30 30 31 29 30 25 26 24 29 32 33 31 32 34 36 33 35 33 33 33 36 33 39 33 33 34 34 33 35 37 35 35 33 37 34 38 35 36 35 33 34 36 36 36 34 33 36 35 38 37 37 34 32 37 35 34 37 37 36 38 39 38 38 41 42 44 41 39 38 38 40 37 41 46 49 61 127 
25 30 24 25 30 31 28 30 30 26 27 26 30 32 34 34 34 36 33 37 33 38 32 36 34 35 37 35 36 31 29 34 36 37 36 33 37 35 38 36 36 35 36 34 35 33 36 34 33 35 37 36 33 37 35 34 32 33 34 36 33 36 36 35 36 42 39 43 40 41 38 40 43 39 40 42 44 45 60 133 
25 27 23 24 28 35 27 34 27 27 27 28 31 33 37 37 35 38 36 39 37 35 35 37 37 38 33 34 34 33 30 31 35 36 36 34 36 32 36 36 37 38 35 32 35 33 35 33 36 36 35 34 35 32 29 30 31 31 33 35 35 35 37 38 38 37 40 39 43 42 42 41 43 39 41 43 49 50 62 133 
26 30 23 27 30 31 30 32 27 27 27 30 32 29 35 37 38 39 36 39 37 40 37 39 38 39 34 31 35 35 28 30 37 35 38 36 35 36 34 39 35 36 34 33 34 32 33 34 34 34 38 35 32 31 33 32 31 33 32 34 37 35 37 38 38 39 39 40 45 41 41 46 56 64 68 93 105 109 95 144 
28 35 24 30 32 33 30 30 32 26 28 31 33 34 36 37 38 40 40 39 39 44 42 42 41 36 37 33 35 32 29 29 38 41 40 39 37 37 39 42 36 35 35 36 35 36 36 37 36 37 36 35 34 35 34 33 32 36 35 37 36 37 37 37 37 41 43 42 47 47 51 81 124 161 188 211 220 209 179 178 
27 34 27 27 31 35 34 30 31 34 31 33 34 35 38 38 44 41 39 42 39 46 41 42 42 43 40 42 42 40 35 30 33 40 40 37 39 41 39 39 40 38 37 36 39 36 38 34 37 37 37 38 38 37 32 37 34 38 36 36 36 37 38 36 40 41 42 44 46 52 75 113 142 196 199 200 192 186 189 189 
28 31 26 26 30 34 34 34 29 31 29 34 36 36 35 36 40 40 37 43 40 42 42 42 46 46 47 45 45 46 42 34 33 42 41 38 37 42 38 36 38 39 36 36 37 37 38 34 33 34 38 34 34 35 33 36 33 37 33 36 36 38 40 39 41 42 44 46 56 78 103 116 133 145 149 157 162 174 187 203 
27 35 28 26 28 34 39 31 32 33 31 35 37 36 41 39 41 41 42 45 41 41 44 41 46 49 51 50 48 45 42 34 35 37 43 40 41 39 40 37 40 37 38 38 37 36 35 34 34 35 35 34 36 36 33 36 33 35 33 35 36 41 40 39 40 41 45 46 72 102 117 128 135 142 149 164 179 201 218 240 
25 30 28 29 35 31 33 30 34 33 33 35 36 38 37 35 38 41 42 44 42 43 41 44 44 50 50 51 50 48 42 35 34 41 39 40 39 41 38 42 38 37 35 37 39 35 36 34 35 36 35 35 35 37 33 35 32 36 34 37 39 36 40 44 43 42 42 46 69 108 132 147 156 163 171 182 198 218 236 244 
31 34 28 28 30 35 34 33 37 35 36 35 40 39 40 40 40 41 45 44 47 47 49 45 46 49 55 50 47 50 45 36 36 39 43 40 42 42 42 45 39 42 38 36 39 37 36 37 37 34 37 36 38 40 39 39 36 35 38 38 39 39 41 42 43 40 43 44 71 109 132 154 163 169 179 187 200 217 236 244 
31 29 29 28 32 35 32 34 31 36 34 36 40 41 41 41 41 42 42 47 46 46 49 49 48 51 55 53 50 49 45 37 36 41 41 40 41 39 40 40 41 42 38 40 36 39 37 38 36 39 36 36 40 42 44 46 37 39 39 42 37 42 40 43 42 41 46 44 64 102 131 149 161 167 172 181 199 217 231 238 
33 36 33 32 34 37 36 34 38 37 35 36 38 40 41 41 45 46 48 46 48 48 47 49 54 54 55 55 51 46 46 42 38 41 45 41 40 41 40 43 40 42 38 38 40 40 36 41 35 41 38 41 37 42 50 52 45 52 43 44 41 41 38 41 43 40 43 48 58 98 127 149 159 164 171 182 196 216 228 233 
32 38 34 37 36 41 40 35 37 37 35 39 44 39 44 46 49 46 46 52 50 51 54 51 54 55 57 54 52 53 50 40 39 43 46 43 45 43 42 44 44 42 42 43 38 40 38 37 39 40 40 39 40 47 55 73 82 64 47 44 42 45 43 44 44 46 47 45 59 94 124 146 157 162 168 178 190 212 230 232 
35 43 38 39 42 43 43 38 41 41 41 41 44 46 44 48 50 49 51 57 54 56 56 56 61 59 63 59 59 57 54 46 43 46 49 46 47 46 46 46 40 43 44 42 42 42 40 40 40 41 43 43 45 56 107 216 154 92 57 48 43 42 43 43 44 48 45 49 57 86 121 142 156 162 170 177 190 212 225 231 
43 46 40 40 43 46 46 44 41 42 43 46 46 51 50 55 53 54 54 61 61 61 61 62 62 64 65 65 62 62 54 52 44 43 52 51 51 49 49 46 46 46 48 45 45 43 45 43 42 44 46 43 46 58 125 246 159 90 55 49 46 41 44 45 46 46 49 50 55 83 114 143 154 158 164 172 187 197 222 229 
45 46 40 41 45 45 46 45 48 42 46 47 50 51 52 53 52 56 57 64 66 69 68 66 67 67 70 67 64 62 57 50 46 52 50 51 50 47 46 47 45 49 44 44 44 46 47 44 43 44 45 45 47 54 68 97 87 63 52 47 43 43 43 46 44 46 49 51 55 76 110 138 151 156 161 164 160 164 213 230 
52 51 47 45 49 50 53 49 51 48 49 48 52 53 54 56 61 62 64 68 68 72 75 72 77 75 78 76 70 63 58 53 45 50 51 50 48 45 47 49 48 50 45 46 47 47 46 48 45 44 46 47 47 49 51 54 55 54 50 46 46 46 49 44 43 46 49 50 54 72 105 135 151 155 160 161 159 177 216 226 
63 63 57 58 59 57 56 55 55 52 55 57 56 58 58 60 62 63 68 73 78 79 82 79 79 83 84 81 72 68 61 56 51 52 52 54 50 50 57 68 52 52 52 50 50 49 52 48 47 46 50 46 49 45 47 51 51 48 47 45 47 47 46 45 43 46 50 51 53 66 101 133 150 158 160 170 176 199 215 221 
88 87 78 65 68 58 63 62 55 56 55 62 58 60 59 67 63 66 73 75 79 80 84 81 82 92 97 84 73 70 61 56 55 55 57 56 56 59 92 133 66 55 58 54 51 52 56 51 48 52 52 53 48 47 50 48 45 50 46 45 43 43 46 48 48 49 47 51 56 61 102 130 148 161 164 166 175 191 213 219 


