P2
80 60
45
0 11 7 5 7 11 8 7 10 7 10 11 11 9 11 16 9 13 13 18 14 17 18 18 18 18 19 18 16 22 21 21 20 23 23 26 26 25 24 23 24 20 24 21 25 26 23 25 22 21 24 26 27 23 23 24 26 26 27 28 23 23 24 27 20 23 24 24 22 28 27 27 26 25 26 27 27 27 22 20 
7 8 6 9 7 8 11 9 8 7 8 13 8 12 10 12 13 13 18 13 18 20 17 17 17 19 20 16 19 21 18 21 21 19 23 23 21 22 21 24 23 21 24 25 22 19 20 26 25 21 22 24 23 25 24 23 24 25 26 24 21 26 20 21 24 18 22 22 22 23 26 25 26 25 26 25 28 24 26 25 
1 8 4 7 7 8 11 6 10 7 6 7 7 5 11 9 5 5 13 14 16 17 17 16 19 18 21 18 18 22 21 20 22 20 19 22 21 21 22 20 23 21 21 23 19 20 24 25 24 22 23 25 23 25 22 23 22 24 22 21 23 25 24 20 21 19 19 21 24 24 25 24 23 24 26 24 26 21 23 21 
0 6 8 9 7 6 8 8 10 9 8 6 9 8 12 10 8 9 10 12 17 18 18 16 15 20 16 18 20 19 20 21 21 18 20 21 21 19 21 25 23 22 21 20 22 22 22 20 22 18 20 22 22 25 22 19 22 22 23 23 22 24 23 22 20 18 21 24 24 26 25 23 24 24 22 21 26 22 26 21 
2 7 5 9 2 7 8 8 8 9 9 9 9 8 12 12 7 4 10 11 17 16 17 15 17 21 17 17 19 21 23 20 20 22 23 24 23 20 23 22 21 24 23 22 20 21 23 20 25 21 19 24 21 21 21 21 23 22 23 23 26 22 25 24 21 22 23 23 24 26 24 25 24 26 23 27 30 26 23 22 
3 4 7 5 3 8 9 8 7 7 9 6 9 7 9 12 9 10 11 11 17 18 17 19 18 19 18 15 22 23 22 20 24 23 23 21 25 22 19 21 23 24 24 22 23 18 22 22 19 20 22 23 24 23 19 22 21 23 23 23 26 23 20 23 21 20 25 22 24 25 25 25 24 25 22 25 28 25 26 21 
1 8 2 7 9 6 9 10 8 7 11 3 7 6 10 11 13 14 15 11 17 21 16 20 20 17 19 18 21 20 20 21 20 21 24 22 22 19 22 19 21 26 24 25 21 18 19 21 20 21 21 23 23 23 21 22 23 24 24 22 25 25 22 24 21 22 23 24 28 25 26 23 26 26 21 26 27 27 23 23 
0 7 5 8 9 11 9 8 11 10 6 7 10 11 16 14 14 12 17 14 18 23 19 18 17 17 17 20 20 20 18 19 24 19 22 23 23 25 20 22 20 24 20 22 21 18 20 23 23 22 20 22 24 22 21 22 21 23 23 23 23 22 22 25 23 19 23 22 26 26 29 23 26 22 20 24 25 26 27 24 
5 7 9 7 7 10 7 9 9 7 7 7 9 14 12 17 12 16 17 17 18 18 19 16 16 19 19 18 20 19 20 21 22 22 23 21 22 22 21 24 20 20 22 23 21 22 21 26 22 19 18 23 21 21 21 21 20 23 23 23 25 25 22 23 18 20 22 24 24 26 24 23 27 22 27 22 26 23 22 20 
4 8 8 7 11 6 8 10 9 8 6 10 16 15 17 14 13 16 18 18 17 20 16 17 16 18 21 22 19 21 22 22 19 24 20 25 22 22 21 24 20 23 22 25 19 20 19 21 22 21 20 22 21 20 21 17 22 20 22 23 25 26 21 19 21 19 20 25 24 27 25 21 21 27 23 22 23 25 19 19 
5 7 8 10 8 7 9 11 10 14 12 14 19 19 15 20 16 14 18 19 19 15 17 19 18 23 23 20 19 21 19 22 23 21 22 21 27 20 25 23 20 22 22 23 20 19 22 19 20 22 20 19 20 19 21 19 25 23 22 21 22 22 22 19 19 18 22 23 23 26 23 18 22 22 22 23 21 20 19 19 
4 10 11 11 9 12 18 19 13 13 17 19 23 23 18 19 17 18 20 19 18 20 14 19 17 16 20 20 18 22 21 18 21 19 22 24 22 18 25 23 22 22 21 21 25 21 23 22 25 22 19 21 20 22 22 21 24 24 23 24 24 25 22 18 21 19 23 23 24 28 22 24 21 24 19 21 21 19 23 21 
10 13 12 16 13 18 21 20 15 20 18 19 20 22 16 20 19 18 17 19 22 21 17 21 15 21 21 19 22 20 20 20 20 24 25 21 22 22 21 22 21 21 22 21 24 19 22 22 22 22 17 20 21 25 23 21 22 23 21 23 23 23 21 21 20 23 24 23 23 23 25 19 23 26 20 24 22 21 23 26 
10 13 20 19 19 18 19 21 20 20 18 15 20 18 20 20 15 15 19 19 22 20 19 19 18 19 18 23 24 22 21 20 21 21 20 20 23 20 21 22 18 24 25 21 19 20 20 21 20 22 19 19 21 21 22 20 21 24 20 22 21 19 24 19 21 21 22 21 25 25 23 20 22 26 23 21 21 21 24 21 
17 21 14 15 12 18 21 20 17 24 21 14 20 17 24 21 20 20 18 21 21 19 20 20 20 20 18 20 23 22 20 19 21 21 22 20 26 25 20 23 23 21 22 22 21 20 19 23 22 19 21 23 21 23 22 20 21 22 24 24 22 25 20 21 21 20 23 21 23 22 23 20 22 24 23 21 21 22 21 22 
14 19 14 14 16 15 18 19 16 16 15 16 19 24 23 22 21 18 18 20 19 17 18 20 18 17 20 21 20 23 22 23 19 20 22 19 27 24 18 23 21 23 20 22 23 21 20 19 21 19 19 21 20 23 22 17 22 21 22 18 22 24 21 21 19 19 21 21 22 24 22 21 19 22 24 20 22 22 25 21 
11 15 14 18 20 22 22 19 16 18 18 18 20 17 20 21 15 15 20 18 19 19 19 19 19 19 18 17 19 25 26 23 23 22 23 24 22 19 24 20 20 19 21 22 23 18 17 21 23 19 17 21 20 19 20 21 19 23 23 22 23 21 20 21 19 22 22 22 23 24 22 22 20 25 24 25 24 23 26 22 
14 17 12 15 17 19 21 17 15 17 15 17 18 19 17 20 20 18 21 19 18 21 19 15 16 19 17 20 19 21 21 20 22 23 24 21 22 20 23 22 20 23 23 24 23 19 19 19 22 22 18 18 21 21 23 18 20 24 22 23 22 23 19 15 18 19 20 23 18 25 25 21 21 21 21 26 23 23 23 22 
11 18 18 18 14 14 22 18 18 17 14 15 18 20 23 19 16 19 20 16 19 20 20 19 14 20 21 20 21 19 19 20 22 19 22 23 21 21 22 21 20 21 20 21 20 19 21 21 21 21 22 22 22 20 18 19 21 26 21 22 25 23 21 21 19 21 22 18 20 24 23 20 23 26 21 23 25 22 23 21 
12 17 14 18 10 19 20 18 17 19 16 14 19 23 24 21 22 22 20 19 18 20 19 16 18 21 16 17 24 21 21 21 24 21 22 21 19 21 22 22 23 21 23 19 22 20 20 23 22 25 21 23 23 22 20 19 21 22 21 24 24 23 22 19 20 20 23 21 20 23 20 25 23 25 23 25 24 22 20 21 
15 18 20 19 17 17 20 21 22 22 22 15 19 19 21 24 18 17 19 19 17 22 17 17 18 20 19 22 18 22 23 23 20 20 20 21 20 23 23 20 24 22 21 22 20 18 23 21 21 20 22 23 21 21 20 22 20 22 22 20 21 23 21 20 19 23 21 23 25 22 26 21 19 24 25 24 26 24 18 16 
16 19 20 19 13 19 20 22 19 21 22 18 17 18 19 22 19 19 19 17 18 20 21 17 19 20 19 16 20 20 19 22 22 23 22 19 19 21 20 17 18 21 20 20 21 21 22 18 21 18 21 21 22 23 22 22 23 19 22 20 23 24 22 22 15 23 22 22 24 26 27 19 22 21 22 24 23 25 23 16 
20 22 19 18 19 21 23 22 22 24 18 18 18 20 19 22 20 17 19 17 19 18 17 15 17 20 17 19 18 20 22 16 21 20 20 19 21 20 22 19 18 20 18 20 21 17 20 21 19 19 19 21 22 19 19 20 23 18 21 22 21 24 24 19 18 22 22 23 23 22 22 20 21 19 24 24 22 22 21 20 
18 18 18 22 17 22 20 21 20 18 24 19 18 19 18 20 21 15 18 17 18 16 17 14 18 15 16 18 20 19 20 18 21 21 19 16 21 22 22 21 20 19 18 20 20 15 21 17 24 21 19 22 21 19 19 19 23 24 20 21 21 24 22 19 21 19 22 25 24 26 22 24 24 22 22 23 24 18 16 19 
19 22 21 23 21 18 21 23 22 24 24 21 21 22 23 20 18 16 19 18 20 20 15 18 18 21 19 17 21 19 22 23 21 22 21 20 22 25 24 20 20 23 21 18 21 19 22 19 22 26 22 22 22 19 19 20 22 23 22 23 22 24 26 22 16 20 19 22 23 23 23 20 21 25 22 25 23 22 19 18 
19 23 20 22 18 23 20 23 22 23 18 19 20 21 23 22 19 18 16 20 17 21 17 21 17 17 16 17 21 20 22 20 25 21 23 22 21 20 23 23 23 22 21 19 23 20 20 20 19 23 22 21 23 20 20 21 23 26 24 24 25 26 25 21 19 19 23 22 21 25 21 21 20 22 23 20 24 24 22 20 
19 19 22 22 22 23 22 25 21 19 21 16 21 20 19 24 20 19 17 21 20 21 20 17 17 19 20 18 22 23 21 22 23 23 23 23 23 23 23 20 20 22 20 21 21 20 21 21 22 21 23 21 19 23 18 23 21 25 23 23 26 25 25 21 19 19 20 23 23 26 28 22 20 24 24 25 24 24 23 22 
17 22 18 21 20 25 23 25 22 22 19 19 21 20 20 24 16 21 18 19 17 21 19 17 17 19 18 19 20 20 21 23 22 19 22 20 22 22 23 22 20 21 21 23 20 19 21 22 22 22 21 19 20 20 19 18 20 21 22 23 22 24 24 21 18 20 21 23 25 25 27 18 23 23 24 25 22 23 20 18 
19 20 20 22 25 22 22 21 22 25 22 22 23 22 21 23 17 18 20 21 19 22 20 20 19 19 20 19 21 21 21 21 19 21 24 22 25 24 21 25 22 23 20 23 21 18 20 21 21 18 22 21 22 25 20 19 22 24 26 23 22 24 26 24 22 21 23 22 23 25 25 20 22 22 25 21 21 26 21 24 
19 19 20 22 21 22 22 22 21 22 21 23 21 21 19 21 20 19 22 23 20 23 19 22 20 20 19 21 20 21 24 17 18 21 21 24 22 23 24 22 21 22 18 20 19 20 21 21 20 21 21 22 22 21 22 18 21 20 24 24 23 26 25 21 22 21 20 22 20 25 26 24 22 23 22 22 21 27 23 20 
18 21 19 21 19 20 22 20 25 24 21 23 21 20 17 19 19 18 20 19 18 22 20 18 17 21 20 23 19 17 22 21 20 20 24 22 25 25 23 22 21 23 20 20 22 19 20 22 20 22 22 21 21 23 17 18 23 21 25 24 18 21 23 20 21 22 20 24 25 23 25 22 22 22 20 19 22 22 22 18 
17 16 20 17 23 21 23 24 24 24 20 22 23 19 17 18 21 19 19 20 19 20 22 20 20 20 19 19 20 23 19 19 21 21 26 21 22 22 24 21 20 22 17 19 21 18 22 20 20 20 18 19 23 22 20 18 21 24 22 27 21 26 24 24 21 21 21 21 21 24 25 21 22 24 23 21 23 22 22 25 
20 23 19 21 26 21 21 23 20 24 20 23 21 21 20 19 21 19 20 16 20 21 25 19 20 17 19 19 19 19 19 21 21 22 26 25 24 22 22 22 17 20 19 19 21 22 21 20 19 21 23 19 23 22 24 18 21 26 21 22 23 26 21 23 22 22 24 26 22 24 24 21 23 21 22 25 19 22 25 20 
18 21 19 20 18 22 22 25 23 24 22 23 22 21 22 21 20 18 17 17 21 22 23 20 19 17 17 17 21 23 18 20 22 21 23 22 24 18 22 21 21 23 24 20 19 21 22 22 21 23 23 18 22 20 22 21 24 22 23 23 21 23 25 24 22 24 24 24 22 21 26 20 22 25 27 24 23 22 22 23 
21 19 19 17 16 22 23 23 22 24 22 21 20 20 20 23 23 23 20 18 21 22 22 21 18 19 20 17 22 24 22 21 23 21 20 21 19 24 22 20 21 23 22 22 21 23 19 20 21 19 19 19 22 21 21 23 22 22 23 20 25 24 22 21 22 21 21 24 22 21 26 22 21 21 20 21 22 23 22 19 
20 24 18 19 18 23 23 25 22 24 22 23 20 20 22 23 23 20 24 19 22 21 23 19 21 19 21 22 21 22 21 22 19 19 23 20 21 23 22 24 21 24 20 19 21 18 20 20 21 19 21 20 20 19 16 20 21 24 23 24 26 27 23 25 21 18 22 21 21 23 27 21 22 22 24 23 26 25 25 23 
16 22 15 18 19 25 26 25 26 24 23 22 25 23 24 21 23 21 23 22 19 20 21 18 18 19 20 20 18 23 20 24 20 21 24 19 19 20 22 21 17 22 20 20 23 21 22 22 21 21 23 23 22 26 23 25 24 24 22 22 26 25 22 22 20 23 22 22 23 24 24 23 23 24 25 25 26 24 22 23 
13 20 15 23 17 23 21 25 26 25 22 21 23 21 23 21 22 21 21 22 19 22 22 19 19 23 19 18 19 23 18 23 20 23 20 21 20 21 19 20 21 19 22 17 20 19 22 21 22 22 24 22 21 23 21 20 21 24 23 22 22 22 22 24 22 18 24 26 24 20 25 22 23 25 23 24 25 24 20 25 
10 22 23 15 17 22 22 23 24 22 22 23 23 21 24 25 23 26 21 23 20 20 21 20 20 21 21 19 20 22 20 22 22 21 23 23 23 22 20 20 22 18 19 20 22 18 22 21 25 22 22 21 22 22 21 23 23 24 23 25 24 24 23 19 20 21 22 24 24 25 23 26 25 24 23 23 25 24 24 26 
9 21 23 23 17 22 19 27 26 24 24 24 22 26 23 22 22 24 22 24 21 22 22 19 21 19 20 22 22 22 20 20 25 20 22 20 22 20 23 22 24 24 22 20 22 22 22 23 22 23 24 23 27 24 22 24 26 26 23 25 27 25 24 19 24 24 24 26 23 25 26 23 24 23 26 27 27 27 23 24 
15 17 21 23 20 17 22 24 25 24 21 25 23 25 22 24 24 24 24 23 21 20 22 21 21 19 18 19 22 24 22 23 23 21 24 22 21 22 25 22 22 23 24 24 22 19 24 23 23 23 22 23 25 23 22 27 26 28 27 26 25 25 24 23 24 22 25 25 27 28 27 25 28 26 27 24 27 24 22 22 
15 19 20 25 22 19 20 25 27 25 25 27 25 25 22 22 21 25 22 25 21 20 22 21 22 20 19 23 22 22 19 23 22 22 25 22 23 23 23 23 24 23 23 20 22 19 23 23 25 21 22 22 23 24 25 23 24 24 24 23 27 23 24 22 21 27 24 27 27 28 27 23 27 28 25 26 27 26 23 26 
18 15 16 22 22 16 21 24 24 24 25 23 28 26 24 23 23 24 24 27 23 22 20 20 19 21 21 24 23 23 22 22 24 23 22 26 20 22 24 21 23 21 22 22 19 17 21 22 22 22 21 22 23 25 23 22 23 23 24 25 26 23 25 25 21 22 22 22 28 29 27 21 23 28 23 27 24 27 22 24 
11 19 18 21 22 18 25 26 25 25 23 25 24 25 24 22 24 25 25 23 20 24 21 20 19 18 20 22 23 24 24 26 25 22 23 25 21 19 22 21 20 24 22 22 24 24 21 20 22 23 24 20 23 19 20 21 23 23 23 27 27 27 24 25 22 26 24 23 25 27 28 26 24 26 23 25 25 27 22 23 
15 20 21 20 21 25 21 20 24 24 23 22 25 26 24 26 26 23 21 21 20 25 21 21 21 23 22 24 23 24 25 21 23 25 23 22 21 21 21 17 19 21 22 22 21 19 23 25 24 23 24 21 24 21 17 23 23 24 25 27 26 24 26 22 25 24 24 24 26 27 27 27 24 26 25 27 24 26 23 25 
17 18 17 16 22 23 23 24 21 28 21 22 29 26 24 26 22 27 23 24 23 23 27 21 22 22 24 23 23 23 22 24 21 22 24 23 21 22 22 21 22 23 23 23 27 23 25 26 26 24 22 25 26 23 22 24 24 27 23 27 27 27 28 24 22 22 26 25 26 29 25 24 31 28 29 28 28 27 27 24 
18 18 18 18 21 20 24 23 23 26 24 22 24 24 27 28 25 24 24 25 24 24 25 24 23 24 27 24 21 26 23 25 22 26 22 23 24 24 26 23 21 21 24 23 22 24 30 26 26 28 29 24 26 24 27 23 24 25 27 27 23 28 27 23 21 25 26 27 27 29 28 26 25 30 28 30 27 30 27 31 
18 19 14 19 19 25 25 24 25 27 23 24 26 24 24 26 24 25 23 26 24 23 23 25 22 24 26 22 22 22 25 23 22 24 21 23 24 21 22 20 23 25 23 24 25 23 23 26 24 25 25 26 29 29 25 26 25 26 24 28 24 29 24 25 23 25 25 24 26 29 30 27 24 27 25 28 28 28 28 28 
18 20 16 17 20 21 27 24 25 27 27 25 26 22 25 25 26 25 26 25 25 23 24 23 21 23 22 22 22 24 24 22 25 24 25 25 24 20 22 21 24 24 27 27 26 23 26 25 25 23 25 25 25 30 25 28 27 28 25 29 29 29 27 24 23 25 25 26 30 26 29 26 26 29 28 29 28 26 28 32 
17 19 20 16 18 20 19 24 21 25 24 26 26 26 24 26 24 27 24 24 25 30 26 25 19 22 22 22 24 20 26 22 21 23 25 23 21 21 22 21 24 26 31 26 24 23 24 25 21 24 23 25 28 28 26 25 24 26 25 25 30 23 28 25 23 25 29 29 30 27 28 26 28 30 30 31 26 28 27 26 
17 18 21 16 16 20 23 21 24 25 24 26 27 28 21 31 27 28 27 23 25 24 21 24 19 23 23 20 22 22 24 22 24 24 27 24 21 24 23 23 27 28 28 24 25 26 26 26 26 26 26 24 28 30 32 27 26 29 25 30 26 27 31 25 25 25 25 25 27 29 27 28 27 28 27 26 26 29 25 27 
20 19 20 15 14 20 20 23 22 27 27 26 26 27 24 27 27 25 27 24 22 25 23 24 25 24 24 25 24 24 24 23 22 23 30 23 25 24 25 20 28 26 28 25 27 27 25 27 28 25 24 21 26 29 26 33 26 29 29 30 26 29 27 26 25 26 25 27 30 29 31 30 27 31 27 28 28 30 29 28 
16 21 20 22 18 23 24 23 24 24 23 29 23 24 27 27 30 25 29 25 25 24 24 25 25 24 25 25 24 24 26 24 26 23 26 22 25 26 26 25 24 29 27 28 29 25 26 26 25 25 26 27 24 27 26 26 31 31 34 29 27 30 28 24 26 23 26 25 29 31 28 29 28 29 26 29 29 30 31 27 
17 20 20 22 22 27 25 21 23 25 28 28 28 27 29 30 31 29 29 27 28 28 28 25 28 25 26 30 27 28 22 27 26 25 28 26 24 26 26 34 30 26 32 30 27 26 30 27 27 25 26 26 27 29 25 27 35 35 31 28 30 28 30 28 26 25 30 27 29 34 30 31 28 29 30 28 33 29 33 24 
21 20 20 22 23 27 29 24 23 19 24 28 28 29 30 30 29 29 30 29 30 26 28 28 27 25 27 27 29 26 26 27 27 25 29 24 25 28 32 29 29 28 30 31 28 24 30 27 27 26 25 24 29 30 27 31 32 37 34 32 28 30 29 27 29 25 28 31 32 32 31 31 31 32 28 27 32 31 32 27 
17 22 23 25 24 28 29 26 21 22 26 27 31 33 28 31 29 29 27 27 27 29 29 28 26 25 23 29 26 28 30 32 27 26 29 26 24 31 34 30 30 32 28 30 29 25 29 27 26 26 28 27 30 28 28 29 31 36 35 30 31 30 33 30 26 32 30 30 31 30 31 32 30 32 31 31 33 30 31 37 
21 22 27 27 28 27 25 27 24 27 23 27 32 30 30 31 31 31 30 31 30 29 30 26 28 23 29 26 22 27 28 29 27 28 30 28 26 29 34 29 31 29 31 28 28 32 28 29 29 23 28 27 28 26 29 33 32 33 35 34 31 29 31 31 29 30 29 29 29 31 31 31 29 31 31 33 33 32 31 33 
22 22 26 25 27 30 29 28 28 22 27 28 31 29 31 32 28 30 30 29 32 32 29 26 27 27 27 27 28 29 32 28 28 26 31 25 27 35 31 29 33 32 32 27 29 29 28 30 28 27 27 28 27 27 31 34 32 33 34 34 33 30 31 26 30 33 30 30 30 30 29 31 34 33 30 32 33 35 29 34 
23 25 27 27 24 27 31 29 21 25 24 24 28 31 31 33 31 30 33 32 33 33 31 31 28 29 31 27 29 29 32 31 29 34 31 30 31 38 33 34 33 34 34 28 30 27 31 31 30 30 31 33 33 30 32 34 33 35 32 35 37 33 32 29 31 32 28 28 33 31 33 34 35 36 30 36 30 33 32 28 
21 24 27 25 23 31 27 28 21 24 20 24 25 29 30 33 33 33 31 29 30 34 31 32 29 31 33 31 33 30 30 36 33 33 35 32 33 45 39 34 35 38 37 34 31 29 32 32 32 29 34 33 34 33 32 35 35 35 33 36 34 33 34 28 34 33 29 31 30 31 33 34 35 36 30 31 32 32 30 31 


