P2
80 60
304
33 32 42 59 96 108 69 45 80 103 84 52 43 40 42 34 35 35 29 30 29 23 25 19 25 23 26 27 33 28 32 32 28 28 25 26 23 25 25 24 23 22 24 24 26 25 26 19 17 15 14 18 13 16 17 19 21 19 19 22 18 23 24 27 26 21 25 29 30 30 28 25 25 28 27 25 26 27 23 24 
33 36 43 61 103 105 64 43 83 102 80 49 43 40 39 36 31 31 29 29 23 26 27 23 26 26 31 28 30 31 29 26 28 24 24 22 24 23 25 23 25 23 26 23 24 25 29 22 17 15 15 18 18 17 17 19 20 21 23 27 25 25 26 30 26 20 22 26 24 26 24 25 25 28 28 24 28 29 26 24 
32 34 48 66 105 102 55 49 87 101 75 46 39 37 35 36 33 31 26 28 23 25 26 25 29 29 30 29 31 30 28 28 24 22 24 23 24 21 25 22 22 23 23 26 26 30 30 24 24 20 21 23 25 24 27 25 28 30 28 29 30 29 25 27 27 21 21 23 28 29 28 23 27 26 27 25 26 30 25 24 
33 37 44 72 106 100 53 51 93 98 70 44 35 37 35 32 28 31 27 29 27 25 28 30 29 23 30 28 33 31 28 25 27 23 25 23 24 20 24 24 20 23 26 23 26 29 27 28 26 24 29 29 27 27 28 30 26 29 29 30 27 27 24 24 25 19 24 23 32 26 28 25 28 27 27 25 26 25 26 27 
36 37 46 77 110 98 51 52 94 95 63 42 38 36 31 32 29 30 30 25 27 29 29 25 26 27 24 29 32 28 29 26 30 21 23 20 20 21 20 23 23 23 24 25 25 27 27 29 28 28 26 27 28 28 27 29 23 26 28 26 24 24 22 22 24 24 22 25 27 28 27 27 26 28 27 28 25 22 25 25 
32 40 49 86 105 96 52 57 98 94 62 40 35 35 30 32 31 28 28 29 31 28 25 24 24 28 27 27 31 29 30 28 24 25 20 22 20 24 22 21 21 22 23 23 27 26 27 27 29 27 27 29 25 26 28 25 25 24 23 25 22 23 25 25 28 25 21 23 30 31 31 28 25 27 27 24 25 23 24 24 
34 41 47 83 109 92 50 53 101 90 53 34 33 31 32 30 28 28 28 29 27 27 26 22 23 22 26 26 32 29 30 26 26 24 22 24 20 22 22 21 22 20 21 22 25 26 23 25 26 25 24 24 27 28 22 27 26 24 25 23 26 25 24 24 25 25 20 22 26 28 30 27 26 28 29 28 24 26 26 21 
26 37 41 83 106 84 42 52 98 84 48 31 27 25 27 24 26 30 26 27 25 22 19 19 19 21 21 22 27 28 24 24 23 23 19 24 18 21 18 22 19 21 21 20 23 22 21 20 20 22 21 20 19 22 25 24 22 22 24 25 26 27 24 23 25 21 19 21 26 26 27 25 27 26 23 23 22 27 25 24 
21 32 34 83 109 85 41 54 100 83 46 27 28 27 29 25 25 24 25 23 23 23 21 20 22 21 25 21 25 26 27 23 24 22 21 21 23 22 22 23 21 21 22 21 25 23 26 23 21 20 20 21 24 22 24 28 24 29 25 29 28 28 28 25 25 24 22 22 25 26 27 25 23 26 23 24 21 24 29 26 
9 3 17 89 110 81 35 54 110 88 42 25 22 23 23 23 24 25 23 25 25 23 20 21 19 22 22 23 24 29 26 25 23 26 21 22 21 23 20 22 22 23 25 24 25 25 25 24 22 21 18 20 21 20 24 29 29 28 28 30 27 29 27 25 28 23 21 18 26 28 31 26 26 28 26 25 21 27 28 25 
16 7 24 92 108 76 29 57 118 97 35 17 14 19 19 17 19 20 18 23 21 18 18 20 16 21 20 21 24 24 25 24 23 24 20 19 21 24 22 22 23 21 21 22 23 21 22 23 22 23 23 25 26 25 27 30 26 27 26 28 27 26 25 26 24 25 20 19 27 27 28 23 28 27 25 22 22 29 23 22 
29 24 35 98 115 74 30 61 115 92 28 14 12 15 13 14 12 13 15 18 16 16 15 18 20 19 22 18 24 24 24 24 21 23 19 21 23 24 22 21 21 22 23 23 22 22 23 22 23 26 22 26 29 26 29 28 29 28 28 30 28 31 27 25 27 25 22 20 25 31 29 25 29 28 26 23 19 26 27 26 
24 25 30 100 115 74 33 67 116 90 27 15 13 11 14 11 13 11 11 7 4 8 4 6 7 14 12 10 13 15 15 16 19 18 18 20 22 20 18 18 20 22 17 21 20 26 25 25 23 25 25 27 26 25 28 30 26 29 26 28 25 26 24 26 26 27 24 21 26 27 27 28 30 29 28 26 24 28 25 27 
24 22 30 100 102 65 34 69 117 83 25 16 16 16 15 13 13 9 12 7 5 5 5 6 3 6 4 3 4 6 3 6 8 13 12 19 17 17 16 20 20 19 20 21 24 26 24 24 22 23 26 25 27 28 26 26 28 26 29 28 26 29 26 28 28 26 23 21 22 29 27 28 27 28 26 29 25 26 25 26 
24 24 40 101 95 55 32 73 112 77 27 18 18 19 18 14 12 13 12 8 9 6 7 8 7 7 5 8 9 9 6 0 1 6 16 21 18 20 16 18 18 22 25 24 25 25 27 27 26 26 30 28 29 29 28 27 29 28 27 28 28 27 33 29 31 28 26 23 23 30 31 30 28 31 28 30 27 25 28 23 
26 22 41 103 92 51 29 77 108 74 25 19 16 17 20 13 13 9 12 9 8 8 5 8 6 6 6 6 7 11 7 7 12 15 17 21 19 19 16 18 18 22 21 22 25 25 27 25 25 24 25 26 26 30 28 27 27 26 26 28 29 29 28 27 30 29 26 22 24 29 29 27 29 27 28 29 26 25 29 24 
21 22 44 106 90 48 29 80 103 66 23 18 17 17 12 14 14 12 10 10 9 8 9 4 8 8 5 7 8 12 17 20 23 20 20 19 19 18 20 22 22 22 23 23 23 25 26 27 25 26 27 28 26 27 28 28 26 29 27 29 25 26 27 26 29 29 27 21 21 26 30 27 27 28 28 29 27 25 25 27 
24 21 45 103 92 49 30 81 102 65 21 18 22 18 14 15 10 15 13 11 12 9 9 6 8 6 8 8 13 21 21 23 22 22 22 20 19 21 21 21 20 21 22 24 24 25 26 25 28 25 28 29 27 26 24 31 29 29 28 29 27 29 25 29 29 27 29 25 19 25 28 26 26 28 25 26 30 32 29 26 
23 21 49 101 85 46 28 82 97 61 20 19 16 18 16 15 15 14 11 12 11 8 8 8 3 5 7 7 15 20 21 21 19 18 16 20 15 20 18 18 18 21 19 21 26 25 22 25 23 21 25 26 27 25 25 25 25 28 27 25 26 26 25 26 24 27 27 23 18 21 25 23 27 29 25 29 29 30 27 29 
23 21 54 102 88 47 29 87 103 58 22 20 20 18 16 16 18 16 15 12 11 14 10 5 9 6 7 5 13 22 24 22 21 20 18 19 19 20 20 23 19 21 21 23 24 23 25 23 25 25 28 26 26 25 27 26 26 28 27 28 27 31 26 27 27 28 28 28 19 20 27 26 28 27 27 28 27 31 24 28 
25 26 62 108 86 45 33 94 105 56 24 17 23 20 19 20 20 17 15 14 12 11 11 12 9 8 10 10 14 16 23 22 20 19 19 22 21 19 21 21 20 20 19 23 27 25 27 27 28 23 27 29 27 26 25 28 30 29 28 30 27 31 28 31 30 30 28 32 23 22 28 25 30 32 30 29 29 28 29 23 
32 31 73 115 87 44 32 93 102 58 23 22 19 22 19 15 20 15 16 16 15 14 12 13 10 9 11 11 11 14 22 20 20 20 16 23 22 18 21 19 20 19 22 22 24 23 24 22 27 28 27 27 24 29 26 27 28 29 28 28 28 29 31 25 25 27 27 27 23 22 21 27 29 31 28 26 25 30 28 27 
81 77 106 124 83 37 41 95 100 57 21 20 18 20 19 16 16 18 16 15 15 13 13 10 10 10 10 7 11 16 22 22 19 20 20 18 17 21 16 18 19 20 20 22 24 23 24 24 25 25 27 26 26 26 25 24 25 25 26 27 27 27 28 30 25 27 28 28 24 20 22 22 27 26 29 26 24 28 30 24 
108 107 111 105 72 38 43 97 101 54 24 26 20 17 20 16 17 18 16 15 12 14 13 11 9 10 11 12 11 16 23 21 19 21 20 19 19 22 19 20 20 22 21 23 25 25 25 25 24 27 27 27 28 26 26 28 28 29 28 26 28 26 29 28 27 31 29 30 30 29 22 20 28 26 25 27 24 30 31 26 
101 99 95 87 53 37 44 101 102 55 27 23 24 20 23 21 21 19 16 16 13 13 15 13 13 13 13 12 18 20 22 22 18 20 20 21 21 21 23 25 24 21 24 25 25 25 27 27 30 27 30 32 31 30 27 28 30 34 27 28 27 28 30 35 31 34 34 32 33 32 29 20 23 26 29 31 28 29 32 27 
46 50 50 46 31 33 48 106 101 55 26 24 23 27 20 21 20 23 17 17 15 19 15 18 13 12 14 11 17 16 23 22 22 22 22 24 24 24 25 25 24 26 24 25 26 25 26 25 29 31 29 29 28 30 25 28 30 30 28 30 30 28 29 33 29 35 32 33 32 32 34 28 27 27 24 27 24 28 31 24 
36 29 26 26 27 34 52 117 105 54 28 24 24 22 21 22 18 22 18 18 18 14 16 14 17 14 13 13 14 18 25 24 21 22 22 25 23 25 25 23 23 24 25 25 29 25 22 27 29 28 31 28 29 26 29 29 28 30 25 30 28 29 27 31 29 32 31 30 31 31 30 30 29 32 24 25 27 24 26 26 
78 67 59 53 49 52 69 127 103 51 25 24 24 21 20 18 19 18 18 18 17 16 13 13 13 12 11 14 14 17 22 23 23 22 23 26 22 26 20 22 26 23 24 22 27 26 25 27 26 26 30 27 26 29 30 29 26 28 27 29 29 26 28 29 30 30 33 29 32 30 31 31 32 32 30 28 31 28 27 24 
118 112 106 104 100 102 111 114 95 50 25 21 23 23 23 22 20 21 20 18 17 17 15 15 16 15 14 13 17 19 25 29 24 23 23 26 25 26 24 25 23 26 25 22 23 25 25 27 27 27 27 29 27 29 32 29 28 27 29 28 28 30 28 30 34 32 30 32 33 35 34 34 32 33 30 31 30 29 31 26 
102 99 100 97 94 99 95 96 82 35 23 23 23 25 21 22 19 24 19 20 18 15 17 13 15 16 17 13 18 17 22 24 23 20 25 24 21 25 24 23 26 22 26 24 27 28 23 28 28 26 26 30 28 27 30 29 29 29 28 29 29 29 28 34 32 31 31 31 33 32 35 30 29 29 31 30 29 30 31 25 
44 46 48 50 54 61 62 62 46 26 23 23 23 21 25 24 21 23 21 17 20 20 19 16 15 15 19 15 19 17 23 23 24 24 23 24 24 26 25 26 26 26 24 25 25 24 26 26 24 27 28 28 28 26 28 30 29 29 28 32 28 28 29 33 33 30 30 29 33 34 28 31 29 35 29 31 30 31 30 29 
30 25 26 26 28 30 28 30 29 21 23 26 25 28 27 24 26 23 23 22 22 21 19 21 16 15 17 16 15 17 23 27 24 24 23 25 23 28 25 29 23 24 25 24 28 24 26 28 30 26 28 27 29 26 28 31 27 29 31 29 30 28 31 31 33 31 31 31 30 32 32 32 30 34 28 32 35 33 33 30 
29 25 24 27 26 28 25 26 25 26 27 25 25 27 25 23 24 21 21 22 23 23 23 19 16 18 19 20 18 16 23 28 25 23 24 25 26 26 27 26 26 25 27 26 29 26 27 27 30 30 28 30 30 27 31 31 27 29 30 29 30 29 33 33 30 33 33 34 32 33 33 34 34 36 32 29 35 35 36 36 
30 25 27 25 25 26 24 28 28 26 26 28 29 27 27 27 22 22 24 24 23 24 19 24 20 19 20 20 17 19 24 27 30 26 27 25 24 26 26 26 25 26 29 26 28 25 28 28 31 27 30 32 31 29 28 32 31 31 28 31 30 33 32 32 34 32 31 33 32 36 39 37 32 39 31 28 31 35 35 33 
26 26 25 25 23 26 21 27 27 24 25 27 26 26 26 27 28 25 22 25 22 24 20 20 20 20 24 20 21 20 24 24 26 25 26 25 24 24 25 26 25 26 30 25 29 26 28 31 28 27 28 30 31 28 28 31 29 27 28 32 27 33 30 30 30 32 34 33 31 36 33 34 37 37 32 31 32 32 34 37 
30 24 26 25 26 31 22 24 27 20 25 28 26 26 27 26 30 26 27 25 24 22 22 23 17 21 23 22 21 23 26 28 27 27 24 24 25 27 27 26 23 26 25 26 27 25 31 28 30 28 28 29 29 29 31 29 32 31 30 33 33 30 33 32 32 30 34 36 33 36 35 33 37 36 32 30 32 36 36 34 
31 27 28 26 26 27 25 31 25 23 27 29 28 28 28 24 26 29 25 28 27 24 26 25 22 24 23 26 22 21 25 30 28 27 26 27 24 25 27 27 25 27 26 28 27 30 30 29 29 32 29 33 29 33 30 32 30 29 29 35 31 31 31 33 32 33 32 35 32 33 34 37 36 34 34 34 33 37 38 36 
33 29 27 29 24 29 25 29 26 23 27 29 29 27 26 26 26 29 27 26 24 23 25 25 24 24 24 25 24 22 27 31 28 26 26 25 26 26 26 27 27 28 26 28 28 30 30 32 30 29 32 30 31 29 30 30 28 30 29 31 30 31 32 27 35 34 33 35 36 36 38 31 36 37 35 33 35 36 40 44 
32 34 28 29 25 29 27 31 29 27 27 28 29 30 31 30 30 31 29 25 27 28 24 25 26 27 27 28 27 26 23 29 28 29 30 25 28 29 28 26 27 26 27 26 32 30 34 31 31 31 31 33 32 30 28 33 32 27 29 36 30 31 30 34 36 35 34 34 35 36 39 36 37 38 36 33 35 36 45 54 
34 30 32 27 23 30 26 31 27 29 29 31 31 31 30 32 31 31 29 28 27 27 24 28 28 25 23 28 28 25 26 30 29 26 27 27 27 27 27 25 27 27 28 27 29 29 30 29 31 29 29 33 34 30 32 29 31 31 27 29 28 29 28 31 31 34 36 34 34 40 39 37 35 37 35 37 46 54 67 89 
35 31 33 31 29 32 30 33 31 24 28 30 30 33 31 31 31 32 35 29 31 31 31 29 31 29 29 28 30 28 28 31 29 34 31 27 29 27 27 28 29 29 27 28 28 32 31 33 32 32 30 34 32 30 28 34 31 35 32 30 32 32 36 33 34 36 37 40 35 38 42 38 37 37 41 54 64 67 95 181 
32 28 29 35 29 30 31 33 28 25 31 33 32 35 34 34 33 34 35 31 32 32 31 29 31 30 27 30 33 28 28 31 35 31 30 28 27 26 32 30 31 29 31 28 31 31 30 29 32 30 29 29 32 33 32 31 31 33 29 33 31 32 32 32 34 33 37 34 35 38 43 40 41 42 44 50 62 108 205 250 
31 25 32 31 34 31 30 31 31 25 27 30 31 33 31 35 34 31 36 33 36 32 32 32 30 30 29 31 30 27 26 32 33 33 30 32 31 33 29 29 30 28 29 27 29 31 29 28 31 31 30 29 32 32 27 27 30 26 31 32 32 31 32 33 32 37 36 35 39 39 42 40 45 50 59 79 154 236 272 277 
34 31 28 35 34 35 37 36 32 26 32 31 32 31 33 36 33 35 32 36 37 33 36 33 34 32 29 29 29 26 26 32 31 33 30 31 31 28 28 31 28 26 30 28 30 29 32 31 31 30 33 29 30 26 31 28 31 30 30 33 30 29 32 33 33 36 39 36 38 40 51 66 82 116 159 203 257 281 288 278 
32 29 29 29 34 34 34 32 36 26 33 33 32 36 35 33 36 39 38 37 36 37 37 35 34 34 28 30 30 30 25 31 33 33 32 34 31 33 28 29 29 30 30 27 30 29 28 32 33 31 31 32 33 26 27 29 32 32 31 32 31 32 32 36 34 38 36 38 45 59 112 151 192 236 261 278 299 304 286 283 
34 34 31 34 34 38 30 30 34 29 29 36 35 37 40 39 39 40 40 40 41 38 37 37 32 29 27 26 32 29 23 28 31 35 36 31 29 30 31 31 32 30 27 30 29 30 31 31 30 35 33 36 28 32 29 29 31 33 33 33 32 32 35 34 37 36 42 39 49 95 139 220 261 278 288 288 304 290 263 248 
32 32 28 34 35 38 33 33 34 27 35 34 36 40 38 37 37 41 40 40 40 38 38 37 36 36 36 35 35 36 29 30 34 33 31 34 34 30 32 32 33 32 28 29 29 31 31 30 32 32 32 32 31 30 31 30 29 32 31 32 34 32 35 31 37 38 38 42 62 105 148 228 236 237 225 214 210 199 200 206 
34 34 34 34 34 39 36 33 34 31 34 36 39 38 41 38 40 40 41 44 39 42 41 40 40 46 43 41 43 41 31 29 33 36 35 34 34 32 33 35 36 35 32 33 31 31 32 34 29 32 32 30 32 31 29 32 33 29 33 33 35 35 33 33 38 38 40 49 80 111 130 151 151 156 156 161 171 179 193 218 
35 33 30 34 36 39 36 36 35 31 34 36 37 37 38 38 42 41 39 40 43 39 42 39 44 45 46 41 43 41 35 33 35 34 33 35 37 36 34 32 34 32 31 31 33 32 31 32 27 33 35 30 33 29 33 33 32 33 32 33 34 37 33 36 36 37 40 51 87 112 128 130 136 146 155 169 181 198 222 244 
32 30 28 32 33 35 34 37 34 30 36 39 39 42 38 42 43 41 43 40 42 41 40 42 42 48 45 45 43 41 36 32 37 37 38 36 36 36 36 37 31 34 32 33 31 30 30 29 29 34 32 34 33 30 35 30 33 32 33 35 32 36 35 35 37 37 40 50 84 117 141 149 154 166 172 185 199 216 235 246 
32 32 35 33 33 35 36 36 40 32 39 38 41 42 41 40 44 43 43 43 43 44 43 40 44 48 46 43 45 41 37 33 33 34 37 40 37 34 35 36 33 34 33 34 33 31 33 30 33 30 33 36 29 34 37 30 32 34 35 35 36 35 35 38 35 39 42 49 84 117 140 151 158 166 176 189 201 217 237 245 
37 37 36 34 33 37 38 36 41 36 39 40 41 40 41 42 45 45 43 47 47 47 48 45 48 48 45 47 44 43 37 34 35 38 38 38 37 34 39 39 35 32 35 34 33 32 34 33 35 31 34 34 34 38 43 41 37 35 35 33 35 37 36 38 40 39 42 47 77 114 140 150 156 166 172 186 200 217 236 249 
41 40 36 42 36 40 38 39 44 39 39 44 41 43 45 42 46 46 47 49 48 50 50 50 49 50 53 48 49 45 43 36 36 42 39 40 40 40 38 38 34 38 35 36 36 34 34 34 36 34 34 40 38 42 50 47 45 42 38 39 37 39 37 37 40 42 44 47 71 108 135 150 155 167 172 184 198 217 234 245 
42 37 37 39 42 42 43 41 41 40 44 44 44 46 42 48 47 50 49 54 52 50 51 53 53 55 56 49 47 46 43 35 36 38 38 42 42 37 37 35 36 37 36 34 34 33 34 35 32 34 36 38 41 44 58 80 68 50 41 38 39 38 39 38 42 39 42 43 66 105 131 144 156 161 170 179 193 210 229 249 
45 43 43 43 42 49 45 45 47 41 47 47 46 49 51 48 51 51 52 58 54 54 57 55 54 60 60 57 53 50 48 41 38 42 44 47 44 40 42 37 38 38 38 37 38 37 38 35 35 37 39 40 44 62 173 194 123 67 43 39 38 39 40 41 40 42 44 48 66 102 129 143 151 160 169 179 194 210 230 244 
49 51 47 49 49 51 46 49 50 47 50 52 52 54 52 57 57 56 56 59 61 62 62 62 62 62 63 57 56 54 48 44 43 47 46 47 46 43 44 39 41 37 38 39 40 40 41 41 40 40 44 46 48 73 206 208 123 70 51 44 40 41 41 43 45 43 43 49 60 100 124 143 151 164 165 174 184 202 229 240 
55 51 51 48 50 52 53 55 56 48 52 53 53 56 58 55 60 60 63 65 64 67 68 70 66 69 67 61 63 58 52 44 41 47 48 48 48 45 40 43 40 40 42 41 41 38 43 41 41 42 42 44 47 52 85 94 76 55 45 43 41 39 42 42 44 43 45 46 56 92 122 140 149 156 162 162 156 182 227 238 
59 52 51 52 52 57 52 58 58 54 59 55 57 58 58 60 63 65 66 68 71 69 72 72 76 76 72 68 65 60 53 47 46 48 49 46 46 40 39 44 42 42 41 44 45 43 45 42 42 46 45 47 42 46 52 57 58 51 44 44 40 40 40 41 45 45 50 46 55 89 120 138 149 158 159 159 155 195 228 230 
64 63 65 58 56 64 59 60 61 55 61 58 59 63 60 62 67 66 69 70 77 80 81 83 79 82 79 74 67 62 53 48 49 49 51 51 46 46 60 52 43 44 46 43 45 46 44 46 44 46 45 43 45 44 48 46 45 44 45 43 42 46 41 43 45 42 46 50 56 81 114 140 149 158 160 168 179 202 220 229 
81 75 73 68 69 68 63 66 66 59 62 66 63 64 64 69 69 72 77 78 80 83 83 79 89 88 88 76 69 64 60 57 52 53 53 52 56 67 120 85 54 51 51 49 46 48 49 48 45 47 47 44 44 42 47 45 43 44 41 48 48 41 45 43 47 43 46 49 54 78 113 136 150 158 162 174 185 201 222 227 


