P2
80 60
250
29 28 30 41 81 108 89 47 58 103 94 61 54 46 40 39 36 31 31 35 30 30 29 29 27 32 30 32 35 40 36 35 35 34 33 30 26 33 30 32 29 31 31 32 33 34 34 29 24 21 21 19 26 23 20 19 21 25 23 27 25 27 31 32 27 27 29 26 29 28 28 27 26 23 19 23 23 28 25 20 
21 28 36 47 87 111 81 45 57 102 93 57 47 44 40 39 37 32 33 33 32 30 31 30 30 36 33 34 29 37 36 35 33 32 31 28 30 31 28 31 29 29 31 31 33 33 31 31 26 23 21 24 24 24 25 25 28 25 28 30 30 35 34 37 32 26 26 27 30 28 30 26 26 27 24 21 26 28 20 19 
24 28 34 45 92 110 76 42 66 102 87 53 41 39 38 40 34 34 32 31 30 30 30 29 30 32 31 32 34 35 33 33 32 29 33 28 28 30 30 31 30 30 31 32 29 32 30 34 29 26 26 30 30 28 28 32 30 31 37 33 30 33 32 35 31 24 25 25 32 28 27 23 27 29 22 21 25 25 20 19 
28 24 34 53 98 106 73 41 70 101 81 52 40 39 35 40 36 33 31 30 29 29 31 34 34 34 31 33 36 35 34 33 30 31 28 26 25 30 27 30 31 32 30 31 30 30 32 33 29 32 31 33 33 32 30 32 33 35 34 32 33 32 30 29 29 25 26 24 29 30 29 29 26 25 23 21 29 24 22 20 
24 30 34 50 103 109 66 43 73 98 80 44 40 34 32 37 30 29 27 29 32 30 33 31 30 33 30 34 34 33 31 31 29 29 26 24 28 28 24 26 28 29 30 29 28 31 31 33 33 31 27 31 31 30 27 29 31 31 31 28 29 27 27 29 30 26 26 23 29 28 28 28 24 25 21 18 27 23 17 18 
24 30 37 57 103 98 68 49 79 98 76 39 39 31 31 32 26 31 28 28 30 31 30 31 28 29 31 32 32 31 33 31 31 32 29 27 25 31 26 26 27 28 28 30 29 29 29 31 29 30 29 31 34 30 30 31 29 28 30 28 27 26 31 29 33 30 22 22 28 30 30 27 28 26 25 23 20 20 16 18 
21 34 37 59 105 97 62 45 84 100 72 40 36 30 30 30 28 28 29 33 29 30 32 31 32 30 29 35 35 33 32 34 30 30 27 28 29 26 27 28 27 29 27 29 29 28 28 31 27 30 28 32 30 32 29 27 30 28 30 26 30 30 33 30 32 31 24 24 29 28 26 28 29 24 23 27 22 19 15 20 
23 34 31 54 103 98 58 43 80 99 65 36 34 28 29 30 28 31 28 31 29 27 28 25 24 25 30 36 30 30 33 31 31 30 30 28 30 27 28 28 28 29 29 28 28 28 26 28 28 28 29 24 30 29 29 29 30 31 32 31 30 37 32 34 30 31 25 22 30 29 27 28 28 25 23 23 18 19 18 16 
16 26 30 53 108 99 54 41 88 97 63 37 32 29 29 30 29 28 31 31 31 26 29 28 27 27 30 33 35 32 32 32 31 30 29 31 30 30 27 26 28 28 27 31 31 32 32 32 28 30 27 25 26 29 29 29 32 33 34 38 36 35 32 33 33 38 27 22 29 27 29 31 28 27 23 25 20 21 17 20 
11 5 0 45 109 96 45 33 91 102 58 32 29 34 31 28 25 25 25 31 27 27 24 28 26 28 29 31 32 33 34 31 33 29 31 28 31 28 29 28 29 29 30 29 29 32 34 34 30 29 28 30 28 30 33 31 33 33 39 35 36 32 36 31 33 34 28 26 28 29 30 31 29 26 25 25 20 22 19 19 
12 8 7 49 107 92 38 32 102 110 52 22 23 22 18 24 21 21 22 28 27 25 25 25 23 28 24 28 30 33 29 27 27 27 26 27 27 25 25 26 26 29 26 30 29 30 30 26 27 28 28 30 30 31 30 34 34 31 36 34 34 30 28 33 31 35 26 21 25 31 30 30 27 29 21 24 20 24 22 20 
16 18 20 60 114 96 36 35 104 106 50 20 19 16 19 16 14 17 17 23 19 21 24 24 23 24 26 26 24 30 31 27 30 29 30 26 27 29 28 29 26 30 30 29 30 30 29 32 29 30 35 33 32 34 34 35 37 33 36 34 33 33 32 33 35 33 29 24 29 30 30 34 31 28 29 25 21 22 20 21 
15 18 17 58 111 90 39 38 99 106 45 13 19 17 15 11 17 14 11 10 8 11 13 14 13 18 17 18 14 21 19 25 25 23 25 26 25 24 26 26 29 27 27 27 27 26 29 34 33 30 30 31 32 33 30 31 31 31 35 32 33 30 30 32 28 32 30 24 26 29 31 32 29 29 24 24 21 23 17 22 
16 18 20 66 106 87 39 45 108 104 44 20 20 18 20 16 16 14 14 13 12 13 10 11 12 10 8 13 12 11 12 8 18 15 24 21 24 25 26 29 27 26 29 27 31 33 31 34 33 32 32 35 32 28 33 33 32 30 37 36 34 35 38 35 35 33 31 25 25 30 31 33 32 30 29 28 24 26 23 20 
17 18 21 74 103 76 38 47 108 101 40 26 29 21 23 21 14 14 14 14 13 12 13 12 9 12 9 12 14 11 14 11 9 11 25 25 27 25 26 25 26 28 30 33 34 32 31 37 39 34 35 35 34 36 34 35 36 34 34 36 32 35 36 36 36 33 33 29 27 31 31 31 30 34 33 29 31 23 22 21 
15 20 25 72 100 73 33 50 109 91 40 20 20 19 21 18 13 15 15 13 13 12 17 15 11 11 14 12 13 14 9 11 19 20 27 28 25 23 22 27 27 27 29 30 33 31 33 33 34 30 34 32 33 32 32 29 33 34 31 32 32 33 33 35 34 36 34 28 24 26 28 32 30 30 29 27 28 24 24 22 
18 23 24 76 101 76 35 50 110 92 37 22 25 20 20 21 16 17 16 17 17 18 17 19 13 14 12 13 16 15 21 26 32 30 32 30 27 29 29 30 26 27 33 32 34 34 33 33 38 30 33 33 38 35 32 33 35 36 35 36 34 32 35 35 36 34 37 30 23 27 35 30 29 31 27 27 30 28 29 24 
26 22 28 79 103 75 34 50 108 85 37 22 24 24 23 21 20 16 17 16 17 16 21 21 15 15 14 18 17 23 29 32 31 30 28 28 28 31 27 29 25 27 32 32 35 33 38 37 41 37 32 34 36 35 36 35 37 35 39 36 37 34 38 35 35 39 36 32 25 24 33 32 32 32 32 27 28 32 25 28 
21 21 29 82 99 71 31 58 108 87 38 20 25 21 25 21 20 21 17 18 18 16 18 17 16 14 14 14 16 22 31 31 28 29 29 28 28 32 29 28 29 29 33 28 30 30 33 33 38 32 33 34 36 36 33 33 32 35 36 35 37 34 36 34 36 36 36 35 25 23 29 30 30 29 27 29 27 32 25 27 
22 25 31 86 100 68 35 60 110 89 35 25 27 21 22 21 21 21 19 19 17 18 18 20 16 15 15 14 19 25 31 29 31 26 27 27 28 29 30 29 31 30 31 29 32 33 34 37 34 34 34 35 37 37 34 32 35 38 39 37 37 36 36 36 35 39 43 38 28 22 29 31 31 31 30 31 29 33 22 29 
23 27 32 95 102 69 37 61 107 85 32 23 23 24 22 23 23 22 20 21 18 18 18 21 19 14 15 19 18 24 28 29 30 25 29 26 29 28 30 31 30 31 32 30 34 33 34 33 38 33 33 37 37 34 32 36 34 37 34 37 37 39 37 39 38 38 40 41 30 22 24 34 33 32 32 29 32 32 26 30 
28 30 43 109 102 67 36 68 107 86 34 23 22 22 23 18 22 20 20 23 20 21 19 17 17 15 19 21 19 20 29 28 28 27 28 27 29 29 31 29 29 30 27 32 34 31 35 32 35 36 36 34 34 36 35 34 32 37 37 38 34 39 37 37 35 36 39 39 33 25 20 32 33 32 29 27 34 36 26 28 
76 77 79 123 108 61 37 71 109 83 30 24 26 23 23 24 22 20 18 20 21 19 20 20 19 18 18 20 18 18 27 28 32 29 25 25 27 28 27 29 30 30 30 31 33 31 32 38 35 35 34 35 34 35 34 34 35 36 41 38 33 37 37 37 35 36 36 42 38 25 19 26 28 32 31 31 35 33 25 28 
101 106 107 112 91 52 37 74 104 78 32 25 28 23 23 22 24 20 21 19 20 21 20 20 17 20 21 21 20 20 26 26 28 28 27 27 29 28 27 31 30 30 30 32 31 30 33 34 31 33 32 34 35 38 35 34 35 33 36 40 34 37 39 40 38 36 41 38 36 32 21 21 26 28 28 30 34 29 24 24 
97 99 98 94 78 41 40 81 110 84 31 29 26 23 23 26 24 22 24 23 21 21 22 22 18 16 22 21 22 23 25 30 31 30 29 31 31 29 28 31 32 33 32 33 34 33 34 36 34 34 36 36 38 34 36 35 34 36 39 36 36 35 40 40 34 41 39 36 37 33 31 23 21 26 25 31 34 32 28 26 
41 47 49 53 39 35 39 83 115 84 32 28 27 25 27 29 25 21 23 23 24 23 23 24 19 22 20 22 22 22 27 30 32 31 33 31 33 33 34 32 32 37 34 34 35 34 34 35 36 33 34 37 40 36 36 38 36 39 37 40 37 38 38 39 39 39 41 42 37 35 35 33 24 20 21 22 27 30 24 25 
33 27 27 27 31 33 38 88 116 81 32 25 27 23 25 27 20 21 22 26 23 21 22 23 24 20 21 22 22 21 27 29 32 34 28 30 32 30 31 33 33 33 31 34 32 35 34 35 36 32 36 35 35 37 33 35 34 34 37 35 37 39 37 38 39 39 39 41 39 35 33 36 30 23 21 24 25 22 25 21 
78 71 56 49 47 51 52 103 120 83 32 25 24 23 23 25 22 26 20 24 21 23 23 24 22 22 19 23 18 20 27 32 35 33 30 32 33 28 30 36 34 30 33 32 33 34 32 34 35 33 37 36 36 38 35 36 33 35 37 37 37 36 39 35 36 38 41 36 37 38 36 37 37 33 31 30 28 25 24 27 
125 120 108 104 103 104 105 118 111 77 31 27 26 26 22 28 24 24 28 23 22 26 21 24 19 21 22 22 25 20 27 31 31 33 31 35 32 33 34 34 33 31 33 34 34 34 36 36 35 34 36 36 35 36 34 34 35 35 38 38 40 38 33 39 36 39 39 39 36 38 34 37 36 33 31 32 32 31 24 26 
102 104 100 104 104 105 104 106 97 62 28 24 26 23 24 25 25 26 27 25 27 28 24 24 22 23 23 22 24 22 30 32 30 30 32 32 33 32 36 34 32 36 29 34 31 34 37 36 34 35 33 36 34 35 34 39 34 36 36 36 37 35 37 36 37 42 42 41 39 39 39 35 35 34 30 32 31 31 23 27 
45 51 50 52 60 65 67 69 62 36 25 27 32 27 29 27 27 28 28 24 25 30 26 25 25 22 27 24 24 26 29 33 33 32 34 31 30 33 36 34 33 35 34 34 35 36 35 40 35 35 35 38 42 38 33 35 37 38 36 41 39 35 38 39 37 41 38 40 40 37 36 40 35 34 32 31 33 35 27 28 
29 29 27 26 30 34 36 32 34 28 24 28 31 29 27 29 26 28 28 28 25 27 31 28 26 26 22 26 26 27 29 34 35 33 38 32 32 32 33 36 34 35 35 30 35 36 35 37 36 33 34 36 38 37 37 37 38 38 37 39 38 40 42 38 38 41 38 39 41 38 38 40 37 36 31 31 32 33 27 31 
27 24 21 21 28 31 31 27 30 26 25 26 31 30 29 29 25 28 27 26 26 29 30 27 28 22 25 30 29 26 28 34 36 32 31 31 33 32 34 35 34 32 35 35 33 34 34 36 38 38 37 36 36 34 34 39 37 36 36 35 38 41 41 40 36 40 39 40 40 40 35 37 40 37 33 32 32 36 34 29 
26 24 24 26 28 27 24 27 26 29 26 27 29 28 32 27 32 30 29 30 27 26 28 26 28 26 26 28 25 25 27 34 36 32 32 31 33 30 34 34 35 37 38 33 36 38 37 36 34 37 37 35 41 37 35 36 37 35 37 39 38 38 41 41 38 41 42 44 42 38 34 37 41 38 33 33 36 34 31 31 
30 25 22 24 27 29 26 28 29 28 25 28 30 28 28 27 31 31 28 32 33 27 31 30 29 28 27 31 29 27 30 33 37 35 34 32 34 31 32 36 33 34 37 34 36 38 36 38 37 38 37 38 36 35 37 37 33 36 39 39 39 41 42 45 40 40 44 41 42 38 38 38 40 37 34 33 36 34 32 32 
29 27 22 24 28 27 29 28 30 28 26 30 30 30 29 30 28 30 30 29 32 32 32 30 32 28 28 30 29 27 29 32 38 34 33 33 34 35 32 33 32 33 35 35 36 39 37 35 41 35 36 38 38 38 35 37 36 37 38 41 39 38 40 45 39 40 41 43 40 39 36 37 38 40 35 32 33 37 33 31 
28 30 24 23 29 30 32 27 27 28 28 30 33 30 30 32 29 33 30 34 28 29 30 32 30 32 32 33 30 28 29 34 37 33 37 34 35 34 33 34 37 36 38 36 36 39 39 38 38 38 37 38 38 38 37 35 36 36 36 38 39 38 39 39 40 39 47 42 42 41 39 37 37 38 35 36 32 35 36 39 
27 26 23 25 28 30 28 29 30 29 28 27 31 29 32 32 31 31 29 34 32 30 29 31 32 31 36 35 31 29 28 36 38 36 35 35 32 34 33 35 34 34 34 34 34 37 36 42 38 37 39 40 40 40 36 35 37 37 37 39 40 38 40 40 40 41 42 41 41 39 36 37 38 36 34 36 36 34 37 46 
28 28 25 31 29 28 33 35 32 25 25 27 34 32 32 33 33 32 29 36 32 31 33 32 33 35 37 35 34 29 31 34 39 37 37 36 34 30 34 37 34 38 35 35 36 38 40 43 39 38 38 38 36 38 37 37 38 35 38 38 40 36 41 39 40 40 39 41 40 42 36 42 37 37 36 34 35 42 44 56 
30 26 25 30 31 32 33 34 30 27 27 28 33 33 33 32 35 33 34 32 35 35 34 36 34 34 35 36 35 32 29 37 38 35 39 35 36 35 35 35 39 35 38 37 34 39 42 40 37 38 37 38 38 37 40 40 40 38 38 38 37 37 41 38 39 39 43 42 42 41 39 42 40 36 36 38 44 52 56 60 
28 28 27 31 31 31 33 33 34 30 27 30 32 34 35 33 33 33 34 35 33 36 36 38 37 38 35 36 38 36 32 36 41 39 39 35 37 35 36 35 37 37 36 37 37 40 38 41 38 37 37 36 40 41 40 37 39 37 38 39 38 39 41 36 38 40 42 43 41 43 39 39 39 39 35 42 51 52 54 86 
29 29 26 30 34 35 33 31 31 30 25 33 35 34 36 38 37 37 35 37 36 38 38 41 38 41 38 36 38 35 33 35 40 37 37 36 39 34 39 37 39 38 37 39 40 39 38 38 37 36 36 40 41 39 39 37 41 36 42 41 40 39 42 41 43 44 41 41 46 44 39 42 42 40 37 41 47 48 55 115 
26 28 26 28 34 31 30 36 34 29 29 32 37 36 37 40 38 38 36 39 37 40 41 39 37 38 38 40 37 35 32 40 40 41 40 37 40 39 37 39 37 40 38 38 36 37 40 37 38 37 37 39 39 39 39 37 36 39 37 40 38 42 39 39 40 43 44 44 43 43 41 42 42 39 41 43 42 46 53 116 
28 27 22 27 35 36 31 37 34 27 30 34 36 37 39 37 37 38 39 43 41 40 39 41 40 40 36 39 36 35 34 37 39 41 42 38 39 36 37 37 38 42 38 35 38 38 37 39 40 36 37 37 39 34 33 34 38 36 37 39 40 39 42 42 42 40 44 45 43 42 44 44 40 41 39 44 47 45 52 113 
32 26 25 27 33 34 31 37 32 29 30 33 33 35 38 38 40 40 39 40 42 42 42 41 41 41 35 37 38 35 31 35 38 39 39 39 37 39 37 37 37 40 37 38 40 36 36 35 36 36 37 36 37 33 35 35 34 36 36 35 37 38 41 41 39 41 43 44 44 44 42 47 46 48 46 59 62 59 56 111 
26 31 26 29 34 36 34 34 34 29 28 34 38 37 41 41 41 40 44 42 42 43 46 44 44 41 39 37 38 33 28 34 41 43 44 39 38 39 38 41 38 40 37 40 36 36 38 39 40 37 37 37 39 38 35 34 37 39 40 39 39 41 41 38 42 42 46 46 47 44 47 71 97 110 128 157 148 113 96 137 
26 30 27 29 33 34 38 34 33 33 31 36 36 43 42 42 42 40 43 43 43 47 44 47 45 44 43 43 45 41 39 35 35 40 41 37 42 42 38 39 39 40 38 40 42 40 41 36 39 38 37 38 38 34 34 38 37 38 39 38 39 42 41 38 43 43 47 49 47 51 78 122 156 178 180 181 166 152 157 178 
29 30 29 27 35 38 38 37 35 35 32 38 40 39 44 40 42 42 42 47 46 44 45 49 49 48 51 50 47 47 43 38 37 43 43 41 39 44 41 40 40 41 39 40 40 38 40 40 38 38 38 37 38 38 33 38 38 39 37 40 40 41 43 41 43 50 51 50 59 82 104 121 135 143 147 154 161 169 181 205 
30 30 29 30 34 36 41 35 40 35 35 41 43 41 43 43 44 42 44 47 43 42 47 45 49 51 55 53 51 48 45 39 36 41 44 41 42 41 39 41 43 39 41 41 40 38 39 39 41 37 36 38 41 38 34 37 39 35 38 39 40 43 42 42 45 45 53 52 75 105 120 131 137 145 150 166 183 197 218 243 
29 30 31 30 33 33 36 35 36 37 34 40 42 42 41 39 42 41 45 46 42 47 46 45 45 49 52 55 50 49 42 39 39 45 44 43 40 43 40 41 41 39 38 39 42 39 40 39 39 39 37 38 38 38 36 39 37 38 38 40 43 42 41 42 47 45 48 47 70 108 135 149 153 163 168 183 201 217 235 246 
32 34 31 30 34 34 35 38 39 36 39 40 45 43 44 46 45 46 46 48 48 46 53 53 49 53 58 53 52 50 48 40 40 42 46 45 45 46 44 42 41 42 42 41 39 39 40 43 41 36 37 40 43 39 41 42 37 38 42 40 41 45 44 44 45 46 48 50 69 108 137 154 163 168 179 186 199 216 234 249 
36 32 32 33 35 38 38 42 39 38 40 42 47 45 44 48 47 45 45 51 50 48 52 54 53 55 57 57 54 52 49 42 40 42 45 46 44 42 43 42 46 46 42 41 38 41 42 45 42 43 39 40 45 44 48 48 44 42 42 43 40 47 44 47 45 45 53 47 62 102 133 150 160 169 174 181 201 217 233 246 
39 35 32 36 37 42 42 43 42 39 38 41 46 45 48 45 47 46 50 50 51 52 53 55 59 56 57 58 54 50 48 47 41 45 48 46 46 46 44 47 44 45 44 43 41 41 38 45 43 41 39 44 42 46 52 55 50 53 49 45 42 44 42 47 48 44 47 52 59 97 129 150 159 167 172 183 196 214 228 241 
35 38 35 38 40 45 45 40 43 37 38 42 47 42 47 50 49 49 48 50 54 55 58 54 56 58 59 61 55 56 52 47 45 47 52 47 46 45 45 47 45 46 45 45 41 44 41 42 43 40 40 43 43 48 58 78 87 67 50 44 44 45 46 49 49 48 50 46 57 92 123 149 159 164 171 180 192 214 229 239 
40 42 37 39 46 46 47 41 44 41 42 43 49 51 53 51 53 50 54 56 59 61 60 62 62 65 65 62 62 60 57 50 46 48 51 49 48 49 49 47 45 46 46 45 46 45 43 43 43 45 44 44 49 58 109 221 160 95 62 49 46 45 47 49 47 50 51 51 57 84 121 147 154 163 166 179 191 211 225 239 
45 44 38 40 46 49 48 45 46 45 44 49 50 54 54 58 56 56 58 65 65 61 65 67 65 69 69 68 65 65 56 50 47 45 54 52 52 51 50 46 46 50 47 47 49 45 47 47 46 47 47 44 49 60 126 250 163 94 62 49 46 46 50 48 48 48 52 52 55 81 116 146 153 159 164 176 187 198 219 234 
49 47 41 46 47 49 49 46 53 48 46 51 53 54 52 57 55 61 59 67 69 67 72 67 68 71 70 70 67 61 58 52 50 55 52 55 54 51 46 47 47 50 48 48 48 48 49 48 47 43 46 50 51 55 73 100 92 67 55 49 46 48 46 46 45 48 54 51 55 76 114 138 150 161 159 168 162 165 210 231 
56 50 51 47 55 54 55 54 53 52 51 52 54 61 58 61 62 64 67 69 72 70 80 75 78 78 79 77 72 67 62 55 49 50 54 53 53 49 48 51 50 52 50 51 49 49 48 52 50 47 49 50 51 51 53 59 60 57 55 47 51 46 48 48 45 46 54 53 56 68 105 136 151 156 159 163 164 177 217 229 
63 61 56 56 62 59 59 58 61 57 58 59 57 63 63 64 64 66 71 76 78 82 87 88 82 85 83 84 76 69 62 59 54 54 55 57 53 54 61 69 55 54 56 52 53 52 55 53 50 49 49 48 51 49 48 53 54 51 51 48 46 47 49 48 48 50 53 53 55 64 103 134 149 160 159 171 178 200 214 228 
89 85 78 64 68 61 66 64 64 63 61 64 62 62 62 67 69 68 76 78 82 84 88 86 86 96 96 87 76 70 65 62 58 59 59 59 59 59 92 132 65 57 60 56 54 54 56 52 52 49 51 51 49 49 54 52 48 50 49 49 47 48 50 50 51 51 55 57 53 60 105 135 148 159 159 167 175 199 215 217 


