P2
80 60
363
363 360 341 325 291 255 203 166 121 81 57 51 40 37 36 35 38 37 37 34 34 37 32 36 25 24 21 21 19 24 25 26 24 23 24 24 24 23 24 22 26 27 28 29 27 25 26 24 21 26 21 19 23 29 33 33 39 40 40 40 43 36 36 34 30 31 29 28 33 40 47 63 82 130 192 234 282 305 338 338 
362 348 319 295 259 214 164 114 76 58 44 40 37 42 36 35 39 36 35 34 31 33 30 29 26 23 20 25 24 27 28 25 27 27 24 23 30 28 28 27 27 30 29 28 27 28 28 23 25 26 21 20 25 31 35 36 38 37 39 41 42 41 37 38 31 31 33 29 35 36 38 42 55 79 131 192 242 276 308 330 
352 325 295 261 222 170 109 77 57 44 39 37 41 41 35 37 38 33 37 34 30 30 28 22 22 21 27 26 27 25 31 27 28 26 28 25 28 26 28 25 29 32 27 29 26 29 27 28 26 25 19 18 27 31 35 39 38 43 37 43 42 41 43 38 34 31 30 29 34 36 32 32 40 56 79 128 194 238 274 302 
333 301 270 225 176 120 76 51 44 38 33 38 36 41 38 36 37 36 35 35 32 27 21 21 19 21 27 30 22 27 30 25 27 28 29 27 31 27 28 26 29 30 32 29 25 27 25 27 24 23 23 22 32 35 40 40 44 45 44 49 43 40 44 38 36 31 28 30 27 31 33 27 37 41 54 76 139 193 237 272 
310 275 232 181 124 77 54 39 37 30 35 39 37 41 40 36 33 34 32 31 30 24 19 20 24 26 25 32 27 29 29 25 31 26 29 28 31 29 30 28 33 30 31 29 29 29 29 26 30 28 20 23 33 39 44 46 47 45 47 49 47 46 44 38 39 34 32 33 29 30 35 29 28 35 40 54 88 144 203 236 
286 238 187 127 80 59 40 33 35 31 36 36 39 38 35 37 36 38 32 28 25 21 21 28 25 26 29 28 29 28 31 29 32 33 32 27 33 31 28 30 31 33 31 31 29 30 31 29 29 25 22 29 36 37 46 48 47 51 49 48 49 46 45 41 40 35 36 30 32 31 30 29 29 29 35 41 58 93 150 205 
254 196 139 89 62 46 39 34 37 32 36 36 34 36 39 36 36 38 31 27 24 26 29 31 28 28 29 29 30 34 31 34 33 32 30 32 32 31 32 28 34 36 34 32 31 30 32 33 28 25 22 36 38 43 50 48 48 53 50 50 52 50 50 45 40 39 36 36 35 35 31 35 29 31 29 35 44 65 106 164 
210 147 96 60 43 41 35 34 37 36 35 40 40 40 41 40 36 37 30 28 28 25 29 35 32 31 30 33 31 34 34 35 35 31 34 33 33 34 31 31 36 37 36 34 33 32 35 34 28 27 26 35 41 45 48 49 50 52 50 53 54 56 55 49 49 48 41 37 38 35 32 32 32 28 32 34 37 44 68 110 
173 106 69 54 44 37 38 40 41 35 43 43 41 39 38 39 32 30 31 29 28 28 35 31 33 30 33 31 35 35 36 36 30 31 36 39 36 36 32 29 32 34 37 34 33 34 32 31 24 20 25 39 43 51 51 51 52 56 59 54 55 54 53 48 45 50 39 38 32 35 35 32 30 29 32 29 34 35 55 65 
128 87 62 47 40 41 36 35 37 40 39 41 41 41 38 34 32 31 32 35 30 31 34 35 33 33 34 33 32 38 39 35 35 38 40 39 38 40 34 34 34 35 34 37 36 39 34 28 30 28 30 40 46 48 52 53 54 54 59 59 57 52 53 48 47 46 44 40 34 34 29 31 27 24 26 25 32 29 42 51 
98 68 52 38 36 37 38 35 38 38 39 39 40 44 32 32 32 32 32 32 33 32 33 33 32 37 37 39 34 36 38 35 34 38 37 36 38 37 31 33 32 36 35 34 36 37 36 28 32 30 32 39 44 49 52 52 53 56 59 63 59 55 51 42 44 41 38 36 34 35 29 29 21 27 22 23 24 25 27 31 
77 51 41 36 39 33 40 34 38 38 38 40 37 36 31 28 33 33 32 31 30 28 33 32 33 34 37 37 36 40 39 38 38 38 35 37 37 33 33 38 34 35 35 36 38 34 35 30 26 29 35 43 44 48 49 51 54 55 56 59 50 49 47 45 43 38 42 32 39 30 26 28 22 25 20 17 13 13 17 19 
62 50 42 37 39 40 40 38 39 38 40 41 36 35 33 28 36 32 34 37 33 33 34 37 40 37 37 38 39 40 39 39 38 44 41 41 34 34 32 30 34 35 41 38 37 36 34 30 26 30 33 42 43 49 49 51 54 56 56 55 52 50 45 44 40 42 38 34 35 29 22 25 21 20 12 13 10 8 10 12 
48 40 40 39 43 42 42 37 41 44 41 37 34 33 33 33 34 34 34 38 37 31 37 39 41 37 38 38 40 44 41 42 44 42 42 41 35 36 33 38 37 38 39 38 41 38 34 35 32 32 40 41 46 47 48 50 51 52 51 54 48 45 44 44 40 41 33 34 34 24 25 21 20 16 13 13 9 5 6 4 
45 44 44 39 40 45 42 43 43 44 39 33 30 34 34 33 37 37 38 38 37 37 39 37 37 42 39 42 43 45 44 45 38 42 42 44 40 38 34 38 40 46 40 42 42 38 35 31 32 34 37 45 48 47 47 50 48 53 53 47 47 45 44 41 35 36 35 29 30 23 22 20 13 18 13 12 12 10 9 8 
44 40 39 38 38 42 45 41 43 41 36 34 35 37 35 35 38 37 40 38 42 37 37 42 37 40 44 42 41 43 44 44 42 40 42 42 37 35 37 40 42 47 44 41 41 41 32 31 27 31 37 44 47 51 50 50 49 51 48 50 48 41 43 38 35 36 32 30 29 23 22 22 19 19 17 17 17 14 16 10 
37 37 37 37 42 45 44 42 43 40 35 34 33 34 35 35 41 38 37 37 42 43 42 42 42 43 39 46 43 48 46 45 44 42 43 42 36 31 39 40 43 45 43 45 43 39 33 30 31 36 36 41 46 48 50 54 49 47 45 48 46 41 38 40 37 37 31 27 24 23 21 20 19 21 21 17 17 16 13 11 
40 37 41 36 45 48 44 45 44 38 37 37 37 34 41 40 40 40 40 42 42 45 48 44 43 42 42 47 46 45 44 43 42 41 44 41 34 33 35 37 45 46 48 47 45 38 36 33 32 35 36 43 45 49 51 50 49 51 47 45 44 42 39 38 33 35 31 24 25 26 24 22 18 21 21 20 16 13 14 13 
36 32 41 41 42 48 45 44 41 35 33 39 40 37 40 40 34 39 41 40 44 43 44 44 44 43 45 43 44 45 45 43 39 41 41 36 36 35 38 35 42 43 46 45 40 36 34 32 32 40 37 43 47 48 51 49 50 48 44 45 41 38 34 31 32 36 25 24 26 23 21 21 20 18 17 17 16 17 17 11 
34 36 40 41 45 47 43 41 37 34 35 39 40 39 40 39 36 42 43 41 42 42 45 43 43 41 41 45 42 42 43 39 42 40 39 34 35 39 37 37 44 48 46 44 39 34 32 33 29 37 40 41 44 49 47 48 47 48 44 45 38 37 36 35 27 30 28 22 23 21 23 20 20 18 15 19 17 13 15 11 
32 36 41 43 44 48 45 41 39 41 37 42 39 42 39 37 37 42 39 42 45 44 38 44 42 43 40 44 45 49 45 43 42 43 38 35 36 36 38 41 44 43 45 43 38 33 30 35 33 39 39 43 49 48 49 48 46 48 39 41 36 35 37 33 29 34 25 22 27 24 27 21 22 20 18 17 15 18 17 16 
34 37 45 44 44 44 44 38 37 38 41 44 38 39 41 37 38 40 39 42 43 44 43 45 39 39 39 47 45 44 43 39 37 44 38 36 39 43 38 42 41 44 43 41 38 32 29 29 31 34 38 42 46 49 50 50 50 45 42 42 41 36 37 31 30 30 30 27 25 22 23 24 21 25 21 17 15 17 16 10 
34 38 46 44 47 44 42 39 44 41 44 43 42 40 36 35 34 39 41 44 40 42 44 41 44 41 42 41 43 48 47 41 44 42 40 38 36 37 37 38 42 42 41 40 38 33 34 31 36 43 43 47 46 46 46 45 47 44 42 38 37 34 38 33 25 27 24 21 24 19 26 24 20 21 21 21 18 15 17 12 
36 42 48 44 45 44 41 44 43 47 48 46 41 38 33 33 33 36 35 43 42 42 42 46 42 42 43 43 43 50 44 45 49 46 43 38 37 37 36 32 40 42 39 38 35 34 36 34 41 46 47 44 50 48 44 49 47 43 38 38 38 35 36 36 30 28 28 25 24 24 24 26 22 23 19 23 17 18 15 19 
39 46 48 48 46 44 44 47 47 49 49 44 36 32 33 31 32 32 40 45 42 46 45 41 43 44 44 44 44 47 44 47 46 45 45 45 43 35 34 31 38 42 39 40 37 31 34 37 44 50 48 53 50 51 51 51 47 43 44 39 36 37 39 34 35 31 30 26 28 26 24 29 22 30 24 28 20 21 17 13 
42 43 49 42 48 42 45 46 46 47 45 40 34 30 32 31 31 29 33 36 40 42 40 44 43 44 42 43 45 42 45 48 43 49 51 46 47 37 36 33 35 41 41 36 39 37 40 38 44 52 49 53 47 49 50 50 45 44 42 37 37 33 31 33 32 31 27 26 25 25 27 29 26 25 26 25 22 17 17 16 
39 44 47 48 45 35 43 39 42 39 36 33 32 29 28 29 24 31 36 36 35 32 37 32 34 34 37 41 46 44 44 44 43 45 46 48 49 42 36 34 34 35 37 38 37 40 40 43 48 51 51 53 49 53 48 42 41 41 39 35 33 32 33 31 28 27 28 28 24 26 24 26 24 24 21 24 20 18 14 20 
40 39 48 47 43 37 37 40 38 33 32 37 29 25 30 32 34 37 40 38 36 37 35 33 37 40 39 46 44 45 47 45 46 48 52 47 50 47 44 45 44 43 43 45 42 46 48 46 51 51 46 50 50 47 47 46 39 40 38 32 33 32 28 28 28 26 28 24 27 27 25 29 23 30 25 25 21 20 18 14 
37 38 44 44 41 39 39 34 31 31 31 30 33 32 36 41 44 43 46 43 46 46 43 42 46 43 47 46 49 47 47 49 48 51 54 51 50 51 47 49 51 48 49 51 46 47 48 47 51 48 47 51 47 44 43 40 39 38 36 32 31 29 30 26 20 26 25 23 20 27 22 26 23 25 23 25 21 17 14 11 
35 37 45 43 40 37 38 34 29 31 33 38 41 45 49 45 47 52 50 52 48 51 51 48 51 51 48 53 47 48 50 47 47 51 53 56 52 50 49 49 46 50 48 52 51 48 50 49 49 52 47 51 49 48 41 40 38 35 36 30 30 30 27 24 24 27 24 25 25 27 32 27 23 26 22 22 22 12 7 5 
32 42 44 44 42 42 34 32 32 38 45 51 51 49 48 53 54 52 51 51 51 50 51 52 50 52 50 49 49 46 49 49 49 52 49 52 53 53 50 48 49 50 48 55 53 53 53 49 51 50 48 50 45 45 38 38 40 35 34 27 32 26 29 28 26 29 27 25 27 30 27 28 21 24 22 21 19 12 6 11 
36 38 41 47 46 38 32 39 46 53 52 55 50 53 53 57 52 56 52 55 56 50 51 52 51 51 48 48 48 49 47 48 45 47 50 51 51 50 51 48 45 50 49 52 53 51 50 50 51 50 48 48 46 45 37 34 34 33 34 31 30 29 32 35 28 28 26 24 28 27 26 25 23 24 23 22 17 12 12 12 
39 46 48 48 49 47 48 50 56 60 56 59 55 56 53 55 52 51 52 51 48 51 52 51 52 48 52 51 48 44 41 43 44 45 45 45 46 49 48 47 45 50 47 50 53 51 50 51 50 50 50 47 42 41 32 32 32 33 29 28 29 31 34 36 31 29 26 31 26 30 29 25 19 25 22 19 16 15 19 14 
38 46 51 52 53 53 46 54 57 62 61 60 58 59 55 54 52 51 52 52 53 47 53 54 51 48 46 45 48 45 39 44 42 43 45 44 46 47 45 48 47 51 48 50 50 50 52 49 48 46 45 48 42 40 33 32 28 29 33 30 32 32 38 36 30 29 29 32 31 26 27 25 21 26 22 22 20 19 17 11 
39 46 54 54 55 53 50 58 59 63 60 60 57 55 50 51 51 51 50 51 51 51 52 52 50 50 50 48 43 41 42 39 45 43 45 43 45 44 46 44 47 48 49 52 48 51 48 51 50 47 44 45 45 37 26 29 28 28 29 29 31 34 34 32 29 28 26 22 25 26 27 24 24 24 23 21 18 18 17 10 
41 44 48 46 53 54 54 58 58 60 57 60 52 53 50 46 46 50 45 51 51 50 50 49 48 48 45 45 38 40 40 42 41 41 42 41 41 43 43 43 43 53 47 48 46 46 49 50 48 43 44 44 40 35 26 24 31 30 25 29 29 31 33 31 29 26 24 23 21 25 24 24 28 26 23 21 19 20 17 16 
36 42 46 50 52 50 50 56 59 58 57 55 52 55 47 48 45 48 48 50 50 49 51 49 51 48 45 42 40 40 41 43 40 43 41 40 42 40 40 41 45 49 48 50 49 47 46 52 52 46 46 45 46 39 29 24 32 30 31 26 32 29 35 27 27 26 25 25 26 25 26 26 26 29 23 23 18 17 19 14 
36 38 45 48 48 51 50 49 53 54 53 51 47 51 49 48 46 50 47 53 53 51 46 46 47 45 42 43 39 40 38 40 39 39 37 40 39 36 37 39 45 44 48 45 50 49 50 52 50 46 48 47 44 43 37 25 31 28 26 28 25 30 31 31 31 24 24 23 24 20 25 27 24 25 19 16 19 16 18 14 
37 42 43 44 48 54 54 52 50 48 47 49 47 47 49 48 50 49 48 48 44 45 42 45 41 44 41 42 40 42 43 41 37 40 39 39 36 35 37 34 40 46 45 47 51 50 53 51 49 46 45 50 47 46 39 34 30 29 24 22 22 23 24 23 25 25 25 23 24 23 24 26 22 25 20 16 17 16 17 12 
32 36 44 43 48 50 49 48 44 48 44 49 46 47 44 47 44 45 47 44 43 45 41 42 42 40 44 45 44 44 41 41 39 40 38 39 37 38 38 36 38 40 46 49 55 53 53 50 52 46 44 51 41 44 40 37 30 28 25 21 17 22 27 21 19 24 23 21 26 22 22 22 24 22 18 18 15 10 16 15 
36 40 42 40 46 44 45 46 44 48 44 48 45 48 46 45 38 42 41 42 43 41 43 43 41 44 42 39 42 44 42 40 42 41 42 41 37 40 42 41 41 40 41 50 52 53 52 50 46 50 44 45 46 43 47 43 37 30 25 20 16 19 22 23 19 18 23 20 24 23 22 20 18 20 18 14 18 13 11 10 
34 37 41 43 41 50 47 49 47 43 43 44 41 45 39 37 37 40 39 42 40 37 42 40 42 40 39 42 43 44 41 38 40 39 43 38 35 41 41 43 42 40 39 43 50 52 51 49 48 45 42 44 41 43 37 32 30 32 28 17 16 19 15 17 17 20 20 23 21 21 19 22 15 17 12 15 13 11 9 8 
33 36 38 41 44 44 42 44 44 41 43 40 35 38 42 40 36 36 38 41 39 40 40 38 37 37 42 42 45 43 41 39 41 43 37 37 39 39 42 43 42 40 36 38 49 49 49 46 45 47 39 41 41 35 31 26 25 30 25 24 20 20 19 17 21 20 20 17 20 18 18 18 16 15 13 14 11 5 9 9 
34 36 37 41 44 45 43 44 44 37 36 39 34 38 36 37 35 37 34 39 39 36 40 41 36 39 40 45 41 43 39 41 41 41 39 40 38 38 40 41 39 35 34 37 42 45 46 43 46 43 41 43 33 25 22 18 21 21 19 21 18 19 17 23 16 19 18 18 18 17 20 19 18 16 13 14 11 9 10 6 
33 36 37 40 42 46 40 40 35 27 32 30 33 36 34 38 35 40 38 37 40 40 36 37 40 40 39 41 42 41 39 41 40 37 38 37 38 40 39 37 33 34 33 32 42 42 46 44 44 42 38 36 27 26 20 25 21 20 20 19 23 17 21 20 19 15 17 18 17 18 17 12 13 14 12 13 8 10 10 9 
32 37 41 37 42 40 39 31 27 22 25 33 33 31 33 35 37 36 36 33 37 38 35 35 38 35 36 38 41 35 37 36 36 40 38 37 37 35 37 38 33 31 27 34 42 43 43 41 41 42 38 34 25 24 22 15 13 18 20 15 13 17 17 21 18 19 17 20 21 18 15 16 19 16 12 7 7 5 6 6 
30 35 39 38 39 37 33 24 24 25 28 32 33 34 35 36 36 35 37 34 38 39 34 35 37 33 36 38 37 40 41 38 36 39 34 34 39 38 37 38 34 30 30 32 40 41 44 42 43 41 36 35 28 25 20 17 18 17 17 16 17 18 15 18 17 20 18 17 18 16 14 14 13 12 9 10 5 6 3 6 
25 30 35 32 32 30 21 22 20 28 33 32 31 33 31 34 32 34 34 36 37 37 36 33 35 33 38 36 35 36 37 37 34 37 36 35 34 37 36 37 35 30 27 33 36 40 40 45 41 42 38 33 27 24 20 16 16 16 14 16 18 15 16 18 18 15 18 16 16 16 17 16 14 14 11 9 6 3 2 3 
23 24 32 28 27 22 17 17 21 24 28 28 27 29 36 33 36 32 32 35 37 35 38 34 34 32 34 37 34 35 36 35 33 36 32 36 39 37 35 38 34 31 30 28 33 37 42 40 42 40 37 33 29 23 16 23 24 20 18 18 18 18 16 20 15 21 19 18 15 13 15 14 12 13 9 12 7 4 0 0 
19 27 28 25 17 13 16 16 24 26 25 29 31 28 31 32 32 27 31 31 33 38 35 35 33 33 33 37 34 35 34 37 38 31 35 35 37 36 36 38 36 29 26 28 30 42 44 40 41 39 31 22 30 24 19 21 16 21 20 18 18 21 20 21 20 20 18 18 14 12 13 12 12 13 8 6 8 5 5 11 
23 19 19 18 15 19 22 22 24 26 27 28 28 27 30 30 28 27 29 33 34 32 36 38 34 29 38 39 37 35 35 36 38 36 36 36 38 38 35 36 31 30 26 25 28 39 41 36 35 33 24 24 28 29 23 21 20 25 21 20 21 18 19 19 20 20 20 18 17 16 13 14 10 13 10 7 3 3 7 8 
22 19 17 18 19 18 20 21 26 29 29 30 26 25 28 30 26 30 27 34 29 31 33 34 33 34 38 39 34 36 36 37 34 35 36 36 38 37 37 35 37 32 26 25 29 34 38 37 34 30 20 22 24 25 25 27 28 25 22 22 23 20 21 20 19 22 16 17 14 14 10 13 10 9 10 8 3 7 15 10 
17 16 17 22 22 17 19 21 22 25 27 30 24 23 24 30 29 29 32 30 31 30 29 29 36 31 34 36 32 34 36 36 33 34 36 34 38 36 38 36 32 29 26 26 29 29 36 40 33 28 22 19 25 31 26 26 27 29 25 21 23 20 20 23 19 18 14 11 13 14 8 14 9 14 5 5 5 11 16 18 
17 17 24 22 22 23 22 18 20 24 24 27 25 25 27 29 29 27 28 30 31 32 33 30 30 31 34 35 33 35 36 35 34 36 36 36 35 33 32 36 34 29 28 30 28 30 38 38 32 26 22 18 25 30 28 22 30 30 26 22 20 22 25 23 19 19 14 13 13 13 9 10 8 8 7 9 11 16 20 19 
18 21 24 20 23 20 21 20 20 20 22 26 25 28 24 27 30 30 31 33 33 32 31 32 29 35 30 35 35 37 38 36 32 34 35 36 36 35 35 34 34 32 30 31 33 37 35 40 32 25 19 19 27 27 28 25 29 26 22 20 24 21 24 22 19 17 14 13 12 10 10 8 9 6 4 10 22 15 20 16 
21 25 25 23 23 22 23 23 23 22 24 27 28 29 28 32 29 33 35 30 36 34 37 33 33 36 37 38 34 40 36 40 39 35 34 37 39 36 34 35 37 34 31 33 35 38 42 39 33 21 18 20 34 28 31 31 33 30 25 24 19 19 20 19 17 21 12 17 13 9 12 11 8 9 16 18 20 18 19 23 
22 24 27 24 25 23 20 22 24 24 21 30 28 31 28 30 30 31 32 32 31 28 31 31 32 33 36 33 35 40 37 40 35 32 34 37 37 33 32 34 32 33 33 32 41 38 40 39 28 23 19 27 29 33 30 29 28 28 25 27 24 20 19 23 15 17 13 14 12 10 11 10 10 11 12 19 19 23 20 13 
25 28 29 24 29 24 26 22 24 23 23 29 28 27 31 30 30 28 29 33 33 33 33 34 30 33 35 39 35 35 36 36 34 34 30 29 33 30 28 27 30 34 35 40 46 42 44 34 27 19 19 30 29 29 30 28 29 33 27 22 24 22 19 20 17 20 19 12 19 15 9 9 12 18 19 21 27 22 24 13 
33 26 28 26 31 28 25 24 28 23 27 26 29 30 32 28 30 32 31 33 31 34 36 36 34 34 35 35 32 34 34 30 32 35 32 31 32 31 34 26 31 31 36 43 47 47 45 30 27 24 25 33 34 31 33 31 28 32 31 27 28 20 20 21 14 19 16 18 19 14 13 13 21 21 23 19 27 26 17 12 
38 35 35 26 31 38 32 30 29 27 26 24 31 27 29 27 28 26 30 29 27 28 29 34 31 29 31 31 30 24 25 28 27 32 31 28 34 31 29 28 29 34 40 49 50 47 42 30 24 25 28 31 31 29 29 32 29 30 30 23 26 19 19 18 15 20 25 23 21 16 15 20 26 29 30 34 36 27 16 19 


