P2
80 60
248
17 23 21 29 37 48 75 92 72 46 57 91 86 50 42 38 34 32 28 29 28 29 31 19 26 29 25 26 31 34 36 32 34 30 29 29 30 25 25 26 28 27 30 25 28 25 28 28 27 19 15 14 15 16 15 16 16 18 16 17 14 14 17 17 17 15 17 18 21 23 19 20 17 18 16 20 17 12 12 11 
16 23 27 27 36 52 85 99 67 44 65 95 80 44 39 38 32 34 31 27 30 31 29 26 23 24 28 28 32 30 34 29 32 33 31 30 28 29 30 26 26 27 27 29 28 26 31 32 30 21 14 18 16 14 16 17 19 17 17 18 17 15 17 21 19 19 19 24 25 24 25 20 19 16 16 21 18 13 10 10 
14 26 26 26 42 50 89 97 62 46 69 92 75 40 38 35 29 28 31 29 31 30 28 26 28 26 32 26 31 32 32 32 32 28 30 30 27 27 27 28 24 27 29 25 27 31 32 27 33 22 18 18 21 18 18 19 24 20 19 21 20 20 25 24 24 17 20 17 25 24 25 21 15 19 20 24 21 14 17 11 
17 22 23 30 41 53 91 101 54 45 72 92 71 39 34 30 28 30 27 29 29 28 27 26 26 31 29 28 32 34 35 32 30 26 28 28 27 27 26 27 27 24 27 25 29 29 27 30 31 24 20 22 24 24 24 27 27 27 25 26 24 24 24 28 26 20 19 20 23 22 26 21 18 17 18 20 24 12 11 9 
14 23 23 34 41 64 104 99 54 47 79 91 62 36 32 29 27 30 29 25 24 23 28 27 26 29 29 30 35 31 35 33 30 29 30 26 29 23 27 24 25 28 26 23 27 28 28 31 27 27 24 27 22 30 29 30 29 30 27 29 24 24 30 26 23 21 20 16 22 22 25 22 19 19 19 19 24 8 10 10 
17 16 25 33 40 75 100 88 50 47 82 90 60 35 33 29 27 27 29 24 27 29 30 27 26 26 31 29 31 31 33 32 31 32 28 29 28 28 25 27 22 21 26 28 28 28 26 28 28 28 26 26 30 25 28 29 28 30 28 28 24 24 23 25 23 20 17 16 24 19 25 24 20 18 19 20 18 9 8 4 
12 24 29 33 41 72 100 83 44 48 85 88 51 30 29 27 27 26 27 29 27 29 28 25 26 28 28 25 31 31 34 29 32 28 27 28 28 29 29 24 25 23 24 26 26 26 30 30 27 29 28 26 24 26 28 29 27 26 27 23 23 25 24 24 24 19 18 16 23 22 23 20 21 21 20 21 19 5 12 5 
12 17 23 31 37 70 98 76 45 49 86 88 43 30 25 23 26 25 27 24 25 27 25 21 26 27 26 23 27 29 32 31 31 25 27 28 25 26 27 25 27 26 28 24 27 25 24 25 24 25 28 22 26 28 23 23 26 25 26 24 24 21 25 26 23 20 16 18 21 22 23 18 19 20 18 21 16 8 12 4 
5 10 16 29 32 72 98 71 39 48 93 85 41 26 25 25 23 25 25 23 27 28 24 24 24 25 26 24 29 29 32 30 29 29 28 26 28 27 27 26 25 23 25 27 24 26 27 26 27 27 22 22 24 26 24 27 26 26 24 28 24 28 25 24 25 25 18 19 21 24 24 22 23 20 19 18 17 13 13 10 
7 7 8 0 13 75 99 67 30 51 99 85 42 28 25 21 23 23 21 23 26 26 27 23 24 28 28 28 28 28 30 32 29 29 29 26 27 28 26 26 27 25 29 28 28 29 28 28 27 26 20 22 22 25 24 26 28 31 26 27 28 28 30 25 29 25 19 17 21 24 26 20 22 24 22 25 16 11 12 9 
9 14 10 4 17 82 97 62 24 51 105 89 25 14 14 15 17 19 20 22 21 21 25 19 25 25 23 24 25 28 30 29 23 30 26 24 25 28 27 25 26 24 27 25 27 26 29 24 27 25 21 20 25 24 25 26 28 33 28 29 28 28 27 26 24 24 22 14 23 25 28 22 25 19 20 23 16 10 10 9 
9 19 19 14 24 92 101 62 26 58 103 79 22 16 13 15 9 13 18 16 16 22 20 19 22 24 22 23 25 27 32 29 26 25 23 26 25 28 22 26 24 25 27 26 27 27 28 26 25 23 22 24 26 27 27 26 29 30 28 30 26 28 26 25 25 27 22 16 22 23 26 22 20 24 23 18 15 11 7 4 
11 16 16 15 18 89 95 57 24 63 106 73 17 12 11 10 11 11 11 8 9 11 10 7 15 17 19 17 21 23 27 26 24 23 22 24 26 24 24 26 24 24 24 26 24 25 25 21 24 25 23 25 25 25 28 29 28 27 29 26 28 27 28 25 21 27 24 15 17 20 27 25 23 20 20 20 20 9 13 3 
10 17 18 17 27 93 85 47 29 71 101 67 18 13 13 12 11 14 11 11 10 6 9 9 7 10 8 10 10 9 12 14 18 20 22 23 22 23 26 26 27 27 26 24 23 24 25 26 27 26 23 25 24 28 28 29 29 28 26 30 27 28 25 24 24 27 22 20 19 24 25 22 26 22 22 26 20 8 14 11 
11 14 17 17 41 94 83 44 26 76 97 58 19 18 14 15 15 12 11 12 6 10 10 8 7 11 12 7 8 9 10 10 10 7 5 15 19 25 24 24 24 20 27 24 25 26 28 28 29 28 24 31 26 29 29 29 28 30 27 28 27 27 27 27 29 26 26 18 14 22 24 25 25 20 22 23 19 11 13 11 
8 15 15 20 42 92 80 39 28 80 96 57 20 15 13 14 15 12 11 8 9 11 9 9 10 9 12 5 8 14 11 12 12 7 8 18 20 24 20 24 25 22 26 27 25 25 27 27 31 30 25 29 29 29 31 29 29 29 30 28 28 28 28 27 25 31 26 18 15 22 26 24 23 23 23 24 22 14 11 10 
11 15 17 19 46 97 77 34 27 85 92 51 18 14 17 14 14 13 12 14 11 13 11 8 8 8 9 8 12 15 14 11 10 19 22 22 24 28 24 19 22 21 24 23 25 24 28 26 28 29 27 27 30 28 28 28 28 26 26 28 26 25 28 26 24 30 27 21 17 17 27 23 21 24 25 21 20 17 14 11 
10 15 17 19 52 97 76 36 29 90 88 49 18 15 19 15 18 13 15 11 13 12 13 11 10 10 11 11 12 15 15 19 23 29 26 29 26 27 28 25 25 28 28 27 28 27 31 31 28 26 28 26 31 32 32 31 31 31 30 28 28 26 28 27 26 27 29 23 19 19 26 26 25 23 24 24 20 20 15 7 
12 16 19 18 55 98 70 30 27 88 85 45 16 15 19 18 13 15 17 13 14 12 13 11 11 11 9 9 12 18 22 25 27 26 23 22 22 25 25 24 24 23 27 25 29 26 25 29 26 26 29 25 29 28 29 30 28 30 28 26 28 28 29 29 28 28 30 23 19 16 25 22 23 21 25 24 24 21 16 11 
12 20 19 21 64 97 71 27 32 90 82 41 15 17 17 16 20 16 17 15 13 13 12 12 13 11 11 10 11 19 25 29 26 27 24 21 26 25 25 25 26 23 23 25 25 29 26 26 29 27 29 27 28 32 30 27 31 29 28 29 32 29 25 27 30 27 27 23 17 12 21 24 23 25 24 21 21 20 16 12 
20 23 19 22 73 103 70 30 35 98 83 42 20 17 17 18 19 17 18 15 15 17 15 15 12 17 11 13 13 16 18 27 26 26 23 23 24 26 22 22 25 25 28 28 26 27 28 29 30 26 27 28 27 28 30 29 27 26 28 32 26 29 30 30 31 28 28 26 20 12 21 24 27 22 23 21 21 22 18 13 
40 38 36 38 89 112 74 29 40 100 82 37 18 17 17 15 14 18 16 15 16 16 14 10 11 11 13 12 14 16 15 24 25 26 23 26 24 24 24 26 25 26 28 26 27 28 27 30 31 25 28 28 26 29 29 28 31 31 26 29 30 29 26 34 27 29 28 30 25 14 15 21 22 22 21 24 23 20 23 11 
97 99 92 91 109 109 61 25 48 100 83 36 20 20 16 17 15 16 19 17 15 13 16 11 12 12 13 12 17 14 14 22 24 26 25 21 23 25 24 24 24 24 27 27 25 26 27 26 26 29 29 28 28 28 32 29 30 31 28 27 31 28 29 30 25 30 28 28 26 17 15 17 22 22 23 27 24 22 23 19 
97 101 102 102 103 91 52 29 53 100 83 32 16 15 20 18 16 18 18 17 19 16 18 13 12 12 16 12 14 15 17 23 24 28 23 24 25 26 26 26 25 22 26 30 27 29 28 25 31 31 27 28 28 28 26 29 29 30 28 32 29 27 29 30 30 30 31 30 28 24 19 13 19 21 23 27 21 21 20 18 
54 63 75 84 81 68 32 30 60 105 82 33 19 18 21 18 19 20 17 18 18 19 20 17 14 12 16 13 19 19 19 20 27 26 28 26 27 26 27 26 27 27 29 29 27 28 29 30 27 34 27 28 31 32 30 29 32 30 29 30 33 30 32 34 31 30 30 31 29 26 24 14 16 18 20 25 22 23 19 18 
27 31 27 31 32 32 25 30 61 111 83 36 18 20 17 20 18 17 19 18 17 19 17 18 17 17 20 15 16 20 19 24 27 30 26 26 26 28 28 26 32 25 28 32 29 30 28 29 30 30 30 31 30 29 32 32 30 29 28 32 31 28 32 33 33 33 30 28 32 27 31 24 15 10 17 17 18 17 18 14 
44 42 35 33 28 29 26 34 73 115 83 30 17 22 21 19 19 19 19 21 19 19 20 17 15 18 18 18 17 18 18 27 29 28 29 29 29 30 27 28 30 27 32 28 27 25 29 30 28 30 31 31 27 34 30 33 31 35 30 29 30 31 30 31 27 30 30 32 30 29 32 29 24 19 14 20 17 15 19 14 
105 106 96 87 76 72 60 61 94 118 86 33 18 22 19 19 21 19 23 17 20 19 18 16 19 17 18 17 16 14 18 26 24 27 26 28 31 32 26 29 30 27 29 26 26 27 28 29 31 31 29 26 30 31 31 28 30 32 29 28 29 31 30 30 29 29 33 28 31 30 29 28 26 26 27 27 22 18 17 16 
101 110 108 103 101 101 95 95 108 106 76 25 18 22 22 21 22 21 20 22 21 21 17 16 16 16 18 17 18 20 19 23 28 28 32 28 30 29 32 30 27 29 29 28 28 27 28 31 32 29 29 29 29 30 31 27 30 31 29 29 27 29 32 30 30 30 31 30 32 27 33 27 28 26 26 29 27 20 20 21 
58 71 78 79 84 91 86 91 94 90 58 19 18 21 20 20 20 22 22 19 20 21 22 21 22 18 21 17 20 19 19 24 28 26 30 28 29 29 34 29 32 27 29 28 29 30 29 29 26 30 26 29 27 30 32 28 28 29 29 32 28 31 28 30 33 33 32 31 34 28 30 31 31 28 27 26 26 25 20 21 
20 32 31 29 32 41 38 44 48 46 28 21 18 19 22 20 22 19 22 22 21 21 23 22 18 19 21 21 21 19 22 25 31 29 30 30 29 30 27 27 28 27 33 28 26 30 30 28 32 30 28 26 27 29 28 32 30 35 31 31 33 32 30 33 28 30 31 33 32 28 33 30 26 29 27 26 27 23 21 17 
20 25 21 22 24 27 24 25 27 25 23 22 18 18 20 22 21 23 23 22 24 24 24 21 22 23 18 21 23 21 21 23 30 29 29 28 29 31 29 28 31 30 30 29 31 28 28 28 31 34 28 30 31 33 33 30 32 30 32 30 32 31 31 31 32 31 33 32 31 32 34 33 28 31 27 26 25 21 24 22 
19 26 25 24 25 24 23 26 28 25 22 20 18 21 27 23 25 23 24 22 22 22 24 21 23 22 21 21 23 22 20 23 30 30 30 30 28 29 30 28 29 30 33 29 32 28 32 29 30 31 30 30 29 28 32 33 31 32 32 34 33 32 32 31 30 33 34 32 32 30 30 30 29 28 27 28 29 25 26 21 
17 25 23 27 26 26 24 23 27 29 28 20 19 23 27 25 24 24 24 22 23 22 25 24 23 20 23 22 24 24 21 29 30 28 28 28 29 30 28 31 33 31 29 33 31 29 30 31 34 29 31 30 29 32 34 33 32 31 30 30 32 34 32 31 31 31 35 36 34 30 31 31 32 32 30 25 31 29 29 23 
22 26 23 18 23 25 20 23 25 27 22 21 21 21 23 25 25 27 25 25 22 22 25 24 25 24 26 22 23 22 20 26 28 29 29 31 32 28 30 30 33 29 26 34 28 30 28 27 32 32 30 30 33 31 32 30 33 31 30 30 33 32 32 32 33 32 34 34 33 33 31 30 29 34 28 26 27 24 23 20 
20 28 27 22 24 27 23 21 26 26 22 23 20 25 25 26 24 25 27 25 26 25 27 27 25 27 24 25 25 24 23 28 30 30 31 33 32 28 29 28 27 30 30 29 30 31 33 30 33 33 30 29 31 30 33 32 32 32 29 33 32 32 34 31 33 32 35 36 33 34 33 30 31 29 31 31 28 31 28 29 
21 26 27 24 24 24 22 22 28 29 24 21 18 25 23 26 22 23 27 26 27 27 26 25 27 25 25 22 26 26 24 28 32 34 29 34 33 30 31 32 29 29 30 29 29 32 32 32 33 33 35 30 31 32 35 31 36 33 30 33 32 33 34 34 32 32 35 36 32 31 36 31 28 32 27 27 29 29 31 27 
18 24 27 25 25 24 24 23 28 25 21 22 22 25 29 24 25 27 28 27 27 30 25 24 28 27 29 28 30 26 24 28 31 32 30 31 33 32 30 31 32 33 32 30 31 33 34 34 33 34 29 30 28 35 32 33 32 34 32 31 32 31 33 30 32 30 33 33 34 34 35 32 31 31 29 28 28 25 33 34 
19 24 25 23 21 26 24 22 33 28 20 21 22 24 27 26 29 28 29 29 25 27 27 26 26 30 30 27 31 28 26 26 30 33 35 32 34 30 32 33 30 34 28 29 32 34 32 34 36 32 30 33 31 32 33 30 35 35 31 29 28 33 30 31 32 33 32 33 35 31 34 30 32 32 29 26 31 38 41 38 
18 23 25 25 24 26 22 21 30 25 21 26 22 24 26 27 27 28 30 27 30 27 29 30 32 29 29 28 28 29 28 27 31 32 28 31 32 35 32 32 32 31 31 34 32 31 36 31 32 31 31 30 31 30 32 34 35 32 28 32 31 32 31 28 29 32 35 33 35 33 34 35 32 33 26 34 50 45 42 35 
18 26 26 25 28 28 22 21 27 24 22 24 23 24 28 30 29 30 33 28 30 29 33 28 32 30 32 27 30 29 28 29 32 33 31 33 32 32 31 30 35 34 32 33 32 33 30 32 31 32 34 27 31 33 33 31 30 34 28 31 33 30 30 30 31 33 34 33 33 34 34 32 32 30 28 32 37 38 39 34 
21 22 25 26 27 28 25 23 28 27 21 26 24 25 26 28 29 33 30 29 30 32 32 31 32 34 33 31 29 30 28 26 34 31 33 33 34 30 33 34 33 32 35 34 32 32 33 31 36 31 30 32 31 32 32 32 33 32 30 30 33 34 27 32 31 35 35 33 34 34 34 35 32 32 31 36 36 36 38 34 
20 27 26 24 27 32 26 23 28 28 24 24 26 29 29 29 31 32 31 32 30 32 31 30 33 34 30 30 32 30 26 28 32 35 33 33 36 34 32 33 33 31 33 32 29 32 32 32 33 32 30 31 27 31 31 30 28 33 29 29 31 32 32 30 31 34 34 34 35 33 39 38 36 34 34 36 40 38 42 33 
19 22 23 23 26 30 27 30 29 27 24 26 25 28 28 29 29 32 33 32 33 35 34 36 30 35 33 32 33 32 30 29 35 37 30 33 36 34 36 33 35 34 31 32 28 29 31 30 32 31 31 32 29 31 31 29 29 29 30 30 29 31 30 34 31 32 35 37 35 36 39 39 41 45 51 58 71 81 99 106 
18 27 25 30 28 30 26 29 28 31 25 27 25 31 29 32 31 34 36 35 36 35 34 35 38 38 33 30 28 33 29 28 36 33 33 34 36 35 35 33 36 31 31 33 31 32 31 30 30 29 31 25 29 31 29 29 30 29 30 29 30 32 34 32 30 29 39 36 38 44 67 80 92 103 111 126 138 151 171 185 
21 29 28 25 29 29 29 28 29 31 28 29 26 32 32 32 32 35 35 39 34 39 39 36 37 36 34 32 31 35 31 30 33 32 34 35 37 39 32 33 34 33 30 31 32 31 33 33 33 32 32 27 31 29 30 30 27 36 30 30 32 32 35 31 35 34 36 37 38 64 106 124 133 139 147 155 168 185 204 225 
21 28 27 28 30 29 29 28 29 32 26 28 27 32 34 33 35 36 39 39 39 43 41 38 38 34 33 33 32 34 32 24 31 34 34 36 38 35 35 36 36 37 34 35 33 33 31 31 29 30 30 30 31 31 30 30 32 33 30 34 33 31 34 39 35 35 38 39 43 73 119 148 157 162 173 184 200 215 232 244 
21 27 25 26 29 32 30 27 27 33 29 28 30 33 32 34 34 34 39 37 40 38 39 39 37 37 41 41 36 39 39 34 31 33 36 37 35 33 35 33 33 37 35 35 32 32 32 32 31 30 32 29 29 29 30 29 30 33 33 32 32 31 31 32 32 34 37 39 39 71 122 152 162 173 178 195 203 220 244 243 
24 28 29 27 24 34 28 28 29 33 28 27 29 34 32 38 35 36 39 37 40 41 42 41 40 47 45 44 42 44 41 37 34 32 35 37 36 36 36 37 37 34 34 35 31 31 32 31 32 35 32 29 32 30 29 33 34 33 30 30 33 36 33 31 30 33 38 36 38 66 118 149 165 174 182 192 206 222 242 248 
20 27 28 29 29 31 30 29 29 35 28 27 29 33 34 34 36 39 40 37 40 44 39 41 38 44 47 44 42 43 39 34 34 37 38 37 34 36 32 37 35 36 34 35 34 34 30 32 30 31 32 30 31 29 32 31 33 29 31 31 32 34 33 32 34 33 37 35 41 59 112 146 163 168 179 190 202 218 242 242 
23 28 29 30 31 33 28 29 35 34 29 28 31 36 35 36 39 42 40 42 44 43 42 42 44 45 48 48 44 48 42 37 36 34 38 40 38 38 40 37 39 37 38 33 33 34 32 32 28 32 31 32 33 34 34 34 33 32 32 34 35 33 33 31 35 36 38 36 38 59 112 140 157 166 174 189 200 215 240 246 
26 31 29 26 30 34 30 28 35 35 34 32 33 33 36 39 37 43 43 44 45 45 42 44 44 48 51 47 44 48 46 39 35 37 39 39 41 39 35 40 39 35 37 34 35 38 32 32 35 32 29 32 32 32 35 35 36 33 33 33 33 34 33 35 36 39 36 37 44 55 106 137 155 164 174 183 198 214 237 244 
25 37 31 28 34 37 33 34 37 35 34 33 32 38 38 40 40 43 43 44 47 51 49 44 46 48 53 50 45 46 48 42 35 36 39 42 40 41 38 39 43 39 38 35 34 35 31 36 35 33 32 32 36 35 40 42 41 38 34 37 34 33 37 34 36 38 37 36 41 52 103 134 156 166 171 183 198 212 229 240 
29 34 34 33 39 38 37 37 38 40 37 33 36 35 38 42 41 44 47 47 50 49 52 48 49 54 55 52 47 49 50 41 36 36 41 45 43 41 39 44 38 40 39 36 35 34 35 34 34 36 36 36 35 38 46 47 44 45 36 36 35 37 35 36 37 36 35 40 42 52 100 132 152 160 168 177 180 183 215 245 
28 39 39 35 40 42 39 37 40 42 38 38 42 42 45 44 46 48 51 50 52 52 53 56 54 56 56 56 52 53 51 47 42 39 43 44 42 43 44 41 40 40 40 37 35 38 36 32 37 36 36 33 35 43 50 65 79 63 48 39 36 37 38 35 38 38 38 41 41 51 98 128 149 158 169 175 173 167 211 239 
35 44 41 39 40 41 47 41 41 43 39 41 44 47 46 48 50 52 53 54 57 62 60 57 59 62 61 62 57 59 57 49 40 42 45 50 46 49 43 44 45 42 41 40 38 40 37 39 38 40 39 37 42 46 79 198 168 106 60 44 40 37 38 37 39 40 42 40 45 51 92 129 153 159 168 181 182 191 230 236 
40 41 44 43 45 46 46 42 45 45 46 44 41 46 48 50 52 55 56 59 61 67 65 62 65 64 63 62 60 61 56 48 43 45 46 51 48 45 44 44 42 42 44 41 40 41 38 41 38 41 40 40 44 48 96 244 180 104 58 46 38 39 41 34 36 41 42 42 49 54 90 126 150 160 168 176 189 203 227 231 
45 47 49 47 51 54 47 48 51 51 49 46 45 50 52 54 55 58 60 63 66 68 68 66 68 69 70 68 61 60 57 51 45 45 47 54 49 47 40 43 43 45 43 41 42 43 38 43 41 39 38 39 41 46 63 98 94 71 52 43 42 34 38 35 38 40 41 40 43 49 89 122 147 163 165 178 190 205 219 228 
50 52 56 52 55 56 55 51 51 52 52 49 50 59 55 54 58 62 62 67 70 73 73 77 77 75 78 75 66 66 61 54 49 49 49 52 50 43 40 45 45 46 46 43 44 44 41 45 43 42 41 39 40 46 48 53 58 54 49 47 41 41 39 36 40 39 40 39 42 47 80 124 149 159 170 179 195 208 215 222 
68 70 64 55 60 58 57 53 51 52 53 54 52 60 57 60 61 64 67 71 73 75 79 81 82 82 82 78 66 66 61 57 50 50 48 53 52 51 60 74 49 50 47 46 43 48 42 46 40 44 44 41 41 48 47 46 52 53 47 43 43 37 36 37 40 42 41 37 44 44 77 131 149 163 173 181 193 204 218 227 


