P2
80 60
239
101 111 115 118 121 115 112 107 103 105 104 105 109 109 113 110 113 117 132 140 175 180 144 120 172 191 153 127 130 130 128 124 122 121 123 119 120 123 120 121 121 122 118 114 116 115 118 113 112 111 118 144 171 204 215 224 215 230 239 222 186 146 112 106 99 100 103 103 106 107 103 100 94 98 97 96 93 90 95 89 
104 107 115 117 121 121 119 122 121 113 106 99 101 100 100 103 113 116 126 144 177 178 137 125 174 189 146 122 128 130 128 126 122 122 120 119 122 118 122 121 120 125 116 116 115 114 112 115 111 112 112 118 128 135 148 160 152 143 141 132 121 115 113 108 100 103 103 109 111 108 106 102 99 95 99 96 94 91 90 89 
105 108 111 117 119 116 119 127 119 116 115 113 117 104 99 103 113 119 131 152 182 176 126 131 180 185 140 127 124 126 127 125 123 118 117 116 118 117 120 120 122 123 116 115 113 111 113 109 110 111 110 111 112 118 129 133 128 125 120 113 112 112 113 109 101 99 97 107 111 110 109 105 101 101 98 94 94 93 91 90 
105 105 110 113 118 116 118 128 119 116 116 115 116 115 112 113 113 122 132 161 183 167 127 138 187 180 136 123 127 121 124 122 119 115 117 116 122 121 120 120 123 119 117 112 112 112 112 107 110 110 111 108 112 112 115 116 116 112 113 113 111 110 109 106 96 97 100 101 103 108 111 105 106 107 105 98 97 93 95 89 
113 117 121 116 119 119 125 120 114 114 116 114 118 115 112 112 114 122 136 171 187 153 122 148 190 170 130 124 123 123 121 118 118 118 119 114 117 116 121 119 123 117 114 110 112 110 110 108 113 111 107 109 112 111 111 111 108 110 113 110 110 109 108 104 95 94 98 98 103 100 106 105 109 109 105 101 103 94 97 89 
120 117 127 128 130 131 127 116 113 112 116 115 114 119 114 113 117 127 137 181 184 144 125 159 192 166 128 125 122 121 120 119 119 115 116 115 116 117 118 122 121 121 115 113 112 115 111 113 113 109 108 108 110 109 108 110 109 109 112 109 109 109 107 101 96 98 98 100 102 99 101 102 102 110 109 108 105 104 99 92 
118 112 119 117 122 131 123 114 113 115 115 115 114 115 115 111 117 129 140 184 179 138 127 166 192 160 130 126 122 121 121 118 116 116 115 114 114 114 119 122 119 118 116 110 111 115 111 111 112 111 108 108 109 114 112 111 106 109 111 111 110 106 102 102 101 98 98 104 99 104 102 101 98 102 106 108 112 106 105 100 
116 112 112 110 117 116 114 112 114 112 111 113 111 117 114 112 124 131 151 187 172 131 129 174 187 153 128 122 120 120 119 116 115 113 114 113 112 111 115 117 119 117 115 109 114 112 112 112 109 109 107 108 108 114 109 109 107 112 106 108 106 105 101 99 96 97 100 99 100 102 99 103 102 99 104 103 106 106 103 100 
116 113 111 111 113 114 115 113 109 116 114 112 111 113 115 112 128 134 157 188 169 126 134 181 185 141 125 123 118 117 118 117 114 114 114 113 110 113 113 114 117 116 111 115 111 111 110 111 107 110 108 108 109 109 109 108 105 107 109 108 106 103 101 98 97 96 96 100 99 103 99 101 98 101 106 102 101 105 103 100 
130 84 89 102 111 112 115 110 110 112 108 110 109 112 116 116 129 135 169 190 162 124 137 185 179 136 120 121 116 115 116 116 114 115 113 114 112 115 119 118 120 117 113 110 109 108 110 109 108 110 109 109 108 109 109 108 109 110 106 110 108 104 99 97 95 96 97 99 98 99 97 99 96 98 102 100 104 106 100 102 
101 24 24 52 90 106 111 107 108 112 109 109 109 111 117 116 128 134 181 197 151 123 149 186 172 124 116 120 115 114 115 111 115 114 115 112 113 117 117 119 117 117 114 113 108 111 108 108 107 107 105 110 102 105 111 108 105 109 109 110 108 105 101 98 96 96 96 101 99 104 100 101 99 98 102 104 106 105 105 101 
78 21 2 4 25 76 106 111 107 113 109 111 111 112 115 120 128 144 188 186 146 124 162 188 165 123 118 118 117 115 115 113 113 112 115 113 117 116 117 119 117 119 116 109 107 107 107 106 105 107 109 109 106 108 107 109 109 109 109 108 106 107 104 101 93 97 97 104 102 110 108 106 106 107 107 108 108 107 105 103 
93 35 10 0 4 31 85 93 98 105 103 109 112 112 113 121 129 142 192 182 138 125 169 189 159 122 114 116 111 112 116 111 114 115 115 115 113 116 114 116 116 118 118 110 111 107 111 102 107 106 107 108 105 106 107 107 112 108 110 107 109 108 109 104 98 92 97 107 108 114 109 112 110 111 111 111 111 112 105 99 
113 78 54 31 22 30 73 96 93 91 89 94 99 106 108 118 125 142 190 178 129 118 170 184 146 117 113 110 114 112 112 112 115 115 118 111 115 114 116 116 116 119 114 109 110 112 112 107 107 105 108 106 105 106 103 104 109 109 109 109 108 111 108 108 99 94 95 104 110 110 110 110 109 107 109 112 108 106 103 99 
110 101 96 94 86 83 90 106 109 105 100 91 92 92 90 97 108 142 197 175 121 123 181 184 141 114 110 110 111 109 113 116 114 112 114 112 112 114 114 114 116 119 114 112 113 111 110 108 105 107 106 109 107 108 105 110 107 105 109 105 110 107 109 109 94 96 97 104 108 106 108 106 105 107 105 107 106 105 107 104 
116 107 106 103 102 105 105 112 113 111 109 109 108 103 95 86 91 149 196 168 105 119 187 175 131 109 108 109 110 108 110 111 114 109 110 110 112 113 115 116 115 117 114 113 110 110 109 106 108 107 107 107 104 106 106 109 106 107 107 107 106 107 105 107 98 99 97 102 105 107 107 105 102 103 104 109 107 107 105 104 
114 106 109 107 108 108 108 114 109 111 112 110 113 113 110 109 110 162 201 164 104 128 204 190 119 97 100 105 105 106 110 109 111 110 111 111 116 113 113 115 116 115 111 110 111 109 108 109 107 108 107 111 107 108 106 106 108 108 105 105 106 108 104 104 99 96 98 101 107 108 106 106 106 106 103 107 108 106 107 98 
102 105 112 110 115 109 110 113 110 111 105 110 109 108 108 115 117 176 201 154 104 135 205 178 108 95 97 100 100 100 103 105 109 109 110 110 109 106 115 108 112 115 108 108 108 105 109 106 106 106 109 101 110 109 107 109 107 107 105 106 104 108 102 102 100 100 97 100 106 108 106 106 106 109 108 109 111 108 104 102 
101 105 113 111 112 109 106 112 109 108 108 107 106 108 107 107 112 185 195 147 106 147 206 171 103 100 96 100 95 95 94 98 98 97 102 103 107 108 110 108 114 111 108 106 105 108 106 108 106 107 104 106 106 110 108 106 107 107 105 104 104 106 103 100 99 95 98 96 108 111 110 108 110 108 110 107 112 108 107 103 
100 106 113 113 113 110 110 112 106 108 106 109 110 107 108 110 125 191 183 136 106 161 203 162 103 100 97 99 97 99 96 95 93 96 94 94 97 102 105 107 110 108 105 103 103 105 106 106 106 111 103 107 106 107 106 106 105 109 104 107 104 105 105 104 105 94 97 94 108 110 110 108 108 110 109 109 108 107 106 101 
106 106 111 115 114 114 113 115 108 110 108 110 106 108 108 111 137 191 177 128 108 170 195 150 104 103 103 98 100 95 96 96 96 94 97 96 96 97 94 95 98 96 93 94 94 100 102 103 105 105 104 107 106 107 106 107 107 108 104 106 107 105 107 107 107 99 94 95 106 112 115 110 111 112 111 111 110 107 107 98 
109 106 117 116 116 113 111 113 111 112 108 110 109 108 109 111 141 194 171 121 110 177 191 144 101 101 100 102 101 98 96 95 98 96 96 93 96 95 94 96 93 96 90 85 86 89 92 94 101 102 104 104 104 106 104 104 107 108 107 108 108 108 108 107 108 102 95 98 105 110 111 108 110 111 112 108 112 107 108 101 
106 106 115 116 116 118 114 111 110 110 108 112 106 106 105 113 152 193 166 113 110 187 188 129 102 103 99 99 103 98 99 97 98 95 97 94 97 94 94 94 97 96 89 86 86 84 89 96 101 104 101 102 103 100 101 102 106 108 105 107 109 106 109 109 109 102 95 97 103 107 111 107 111 112 111 109 113 106 108 100 
111 107 111 118 117 117 111 110 112 110 110 105 110 105 109 115 159 190 158 114 122 189 178 120 101 101 101 100 99 101 100 97 97 97 96 96 96 96 95 98 96 95 91 89 90 95 100 104 103 105 103 104 100 103 100 105 107 105 107 106 109 108 111 111 112 105 98 93 100 109 111 111 108 109 109 108 112 106 104 103 
123 121 124 121 123 120 116 112 111 113 114 112 110 105 109 118 174 189 157 116 125 191 174 119 101 102 101 104 100 99 102 100 98 99 100 98 96 97 94 96 100 100 98 103 102 103 102 106 106 109 104 105 104 106 106 107 108 110 110 108 108 107 111 111 111 108 100 96 100 112 112 110 110 113 111 110 112 109 105 99 
171 164 158 147 141 132 124 120 115 120 125 116 110 111 114 121 182 185 149 112 137 187 175 115 103 102 101 101 105 105 103 100 101 101 102 100 103 101 99 100 99 105 105 103 105 105 106 106 104 104 105 108 104 108 107 108 108 111 110 109 108 110 110 109 112 112 100 95 99 106 111 109 110 112 110 107 111 112 106 103 
183 192 196 195 193 186 173 162 148 141 135 120 113 115 117 131 193 184 146 111 151 189 166 109 103 104 102 103 102 107 106 102 101 103 100 98 99 97 100 101 99 101 106 107 105 106 106 107 107 105 106 106 106 108 107 107 108 107 107 110 107 109 109 112 112 111 102 97 98 104 112 109 112 109 112 112 111 111 110 102 
178 185 196 198 203 205 200 202 202 175 160 177 163 144 137 156 218 187 141 118 160 185 161 106 101 104 102 100 100 98 102 103 105 99 100 98 101 102 100 101 100 103 104 106 106 104 102 106 106 103 105 105 103 111 108 109 110 113 109 106 109 107 110 108 111 109 102 96 96 103 112 111 112 112 110 109 110 109 110 104 
131 142 150 160 178 189 195 203 201 169 167 206 204 199 194 206 207 178 123 120 174 187 151 108 103 106 103 103 103 101 105 104 102 105 102 101 102 100 101 102 104 105 102 105 104 103 105 105 106 103 104 106 108 110 108 109 109 111 110 109 111 110 109 111 112 113 109 99 99 102 114 112 114 112 112 111 113 111 109 104 
130 130 135 145 151 147 139 150 154 151 154 183 194 197 197 196 190 165 119 126 178 186 144 108 103 106 104 104 103 104 105 104 107 104 107 103 103 103 104 104 103 102 99 109 103 105 105 103 108 107 104 103 104 110 107 108 110 110 109 111 109 108 108 108 113 111 111 97 97 99 112 111 110 112 112 112 114 107 108 109 
167 165 157 152 160 144 135 132 131 134 131 127 136 146 158 167 161 129 115 131 185 184 142 109 105 104 103 106 106 104 105 102 105 104 104 106 102 103 105 106 103 102 104 108 106 105 108 107 108 107 109 106 107 108 109 109 108 110 111 110 109 110 113 111 115 114 115 98 99 95 109 109 113 113 116 115 112 112 108 104 
187 197 198 202 200 191 173 162 152 139 127 122 122 122 119 117 120 112 118 134 192 179 135 108 104 105 104 106 103 106 103 104 102 106 105 102 104 102 102 106 105 101 102 108 107 105 107 107 109 109 108 106 106 109 109 108 108 109 110 109 108 112 113 113 116 115 114 107 99 98 106 110 110 109 112 113 117 111 111 109 
173 182 193 200 204 207 211 212 198 152 165 178 162 143 129 126 116 115 118 145 201 182 130 107 103 106 104 105 106 106 103 103 105 102 104 103 105 101 105 103 104 104 99 106 109 108 109 108 109 109 109 112 109 110 110 112 110 111 112 112 111 111 115 115 115 113 114 107 99 96 107 111 110 113 113 112 116 109 107 107 
133 139 160 170 179 189 198 204 194 169 195 216 212 206 196 187 173 158 149 175 209 180 126 108 106 106 107 105 109 106 107 108 109 104 105 103 106 106 104 103 105 105 107 109 107 109 111 111 108 108 110 109 111 114 110 110 109 111 111 111 112 113 112 117 113 115 116 112 98 99 101 113 113 115 114 109 112 112 110 107 
133 134 147 144 135 133 137 148 157 148 170 190 197 197 197 194 191 187 191 199 191 169 125 106 108 108 106 107 108 106 107 106 105 107 107 106 106 107 105 103 105 105 105 111 110 107 110 112 111 112 108 114 108 114 111 112 110 114 111 110 113 113 115 116 114 121 114 115 103 99 97 106 111 114 111 113 114 109 110 107 
146 154 142 153 136 119 126 123 133 134 131 131 137 145 163 166 173 178 180 183 172 147 115 104 109 109 106 109 105 107 110 109 109 106 111 107 109 106 106 103 106 101 107 109 107 110 109 112 110 115 109 112 114 111 110 113 108 112 114 111 111 111 111 113 109 114 112 115 106 100 99 109 113 112 114 113 114 112 108 106 
163 153 147 150 128 118 120 119 137 133 126 118 116 117 122 125 118 127 132 140 126 111 110 110 107 109 107 109 108 107 111 108 106 108 108 108 105 105 109 106 106 105 108 109 108 109 112 112 113 110 110 110 113 115 112 111 109 111 110 110 110 114 110 116 113 118 116 117 108 100 96 102 110 114 115 111 115 113 110 108 
163 144 138 139 124 118 118 123 139 131 121 121 118 114 116 115 115 115 115 115 106 108 109 110 105 110 109 110 108 108 110 110 109 109 109 108 109 109 105 107 108 106 109 112 107 109 110 111 113 113 110 113 114 114 113 116 112 114 111 112 113 113 111 115 113 117 116 118 112 98 95 101 113 115 113 115 115 114 107 109 
180 145 136 130 122 120 123 123 141 133 120 121 118 115 117 112 116 115 110 117 104 107 111 113 108 110 115 109 112 110 107 112 109 111 112 109 108 108 110 110 110 107 112 114 112 111 114 113 109 113 110 113 113 115 111 113 114 112 112 115 112 110 111 115 112 119 115 118 116 102 95 100 111 118 115 113 117 113 112 110 
176 145 131 129 120 122 119 128 137 130 121 118 121 117 119 117 116 112 113 116 103 104 108 112 112 111 114 114 114 110 109 113 112 109 112 110 110 108 108 112 107 107 112 112 110 113 114 114 112 109 113 113 115 115 113 114 110 114 111 109 113 113 115 114 116 116 121 114 115 108 97 97 111 113 114 114 117 113 106 107 
157 136 136 131 125 130 124 122 122 118 120 117 124 116 115 116 114 113 112 119 105 107 112 110 111 113 111 112 114 111 110 112 114 108 112 110 113 109 111 111 111 112 113 118 111 113 113 115 113 111 116 112 116 114 112 114 112 115 116 114 112 112 111 114 116 114 120 116 117 113 99 99 103 115 115 113 115 116 112 106 
131 130 135 132 126 125 118 117 118 115 116 117 123 120 116 113 116 114 111 116 104 109 116 113 113 112 112 115 115 112 110 114 113 113 114 112 116 113 111 111 108 108 116 117 113 114 115 114 111 112 113 114 116 118 112 116 114 113 111 114 113 114 113 114 115 118 119 114 118 116 105 99 103 112 114 115 116 114 113 107 
124 126 134 128 128 123 121 119 115 119 115 118 120 123 118 117 118 114 114 116 106 109 109 111 111 113 113 115 114 114 112 116 115 114 115 114 116 114 116 115 112 109 117 114 113 112 115 113 115 114 113 114 117 117 110 112 110 112 114 112 113 115 113 114 113 115 118 116 117 116 109 100 100 110 113 113 118 116 114 107 
121 123 134 126 124 121 120 115 117 114 114 117 119 125 119 119 120 115 116 118 105 111 114 111 114 116 116 115 115 113 114 117 117 116 114 115 114 114 114 117 111 110 116 111 114 115 116 115 116 113 113 116 113 112 110 111 110 113 110 114 111 115 114 113 118 115 116 119 114 116 115 106 101 103 114 114 117 114 113 108 
122 125 132 125 125 124 118 117 120 114 119 119 119 123 123 120 119 118 119 114 107 112 115 112 117 116 117 116 113 115 115 116 117 114 114 115 115 116 114 116 113 110 112 116 115 115 116 113 112 114 114 113 111 112 109 112 112 116 114 113 114 115 116 114 116 115 121 114 117 118 118 104 99 102 110 112 120 114 113 109 
121 130 134 125 119 125 120 118 123 121 117 119 122 121 121 119 121 119 121 120 112 115 113 110 114 115 118 116 115 117 117 120 118 114 118 117 117 118 114 115 110 112 114 115 115 114 112 115 116 115 114 115 113 113 114 112 114 114 113 114 113 116 117 113 116 120 121 121 119 116 119 113 100 101 104 111 116 117 111 107 
121 131 132 122 124 124 118 121 122 120 120 120 120 124 123 124 118 118 123 115 110 112 116 114 113 114 118 119 118 119 119 120 118 119 120 117 115 117 119 118 111 114 118 117 117 115 118 115 115 113 112 114 115 114 113 111 111 114 115 115 115 116 116 117 120 117 122 120 116 116 118 118 111 99 98 110 115 116 116 103 
121 131 132 121 125 120 119 122 120 122 122 119 120 120 121 125 115 116 121 113 110 116 115 118 116 117 117 120 118 119 120 120 119 120 117 121 120 116 118 120 114 113 119 115 115 118 121 118 118 114 114 115 115 116 117 113 115 116 115 116 113 114 117 117 122 119 119 119 115 118 118 117 114 104 100 100 112 113 109 106 
124 133 134 127 126 124 122 123 121 120 120 119 120 122 124 123 122 122 126 113 108 117 116 116 117 118 117 121 120 121 123 121 119 120 121 121 121 116 119 121 116 114 119 118 118 118 118 115 118 116 114 114 112 115 115 112 115 114 112 110 113 114 115 116 117 118 120 116 118 120 118 120 116 116 101 101 105 104 104 106 
125 131 130 126 125 126 117 121 119 124 122 121 121 122 125 124 121 124 123 120 109 113 114 116 117 119 120 122 120 123 123 120 124 120 122 119 123 124 120 123 116 114 121 121 119 118 117 119 119 117 115 115 114 119 114 113 116 112 115 115 116 114 118 116 118 120 122 121 121 120 122 118 119 115 116 106 104 102 106 104 
127 131 130 125 128 125 122 122 125 122 122 122 122 123 122 121 123 120 120 118 110 114 117 117 119 119 122 126 122 122 123 123 125 126 122 122 122 119 118 122 117 113 121 120 114 119 117 117 119 118 120 119 113 117 115 113 111 114 117 113 115 115 115 118 121 122 123 120 118 120 119 122 115 116 119 115 113 107 111 106 
131 131 133 123 123 128 119 124 122 122 125 124 120 121 121 122 121 119 119 116 110 113 119 116 119 122 122 121 121 124 126 125 127 122 126 124 121 117 120 120 116 119 122 120 116 116 120 117 120 118 115 119 118 119 114 115 112 116 115 116 117 118 117 116 117 120 119 119 120 120 117 119 115 115 118 114 117 113 112 108 
133 134 133 126 127 125 125 124 123 124 123 126 122 125 123 129 126 121 118 115 114 113 124 117 116 124 121 126 123 126 125 131 128 128 128 124 119 120 117 117 117 116 117 124 118 118 119 117 119 118 119 118 115 117 115 113 117 116 116 114 115 116 116 119 120 119 121 120 118 119 118 118 117 120 118 117 116 118 113 112 
134 134 133 125 125 126 126 127 125 124 125 124 122 127 128 127 125 126 124 121 114 117 121 122 120 124 124 123 125 127 126 132 131 131 129 124 124 121 121 119 119 115 119 122 118 122 120 117 118 121 118 116 116 121 116 117 117 116 119 115 116 114 118 119 120 121 120 121 118 120 118 121 118 122 121 120 121 117 119 115 
143 139 133 126 128 126 126 128 125 126 126 127 128 125 128 125 126 128 129 122 114 119 120 121 124 125 127 127 125 128 130 132 133 131 132 132 134 132 131 127 129 126 122 121 121 118 119 122 119 119 119 122 120 118 119 115 117 116 115 117 119 119 120 121 123 120 122 122 121 123 121 118 122 120 120 122 118 121 120 115 
145 134 133 131 133 129 129 130 130 131 128 130 129 130 128 127 127 128 128 121 120 122 124 123 123 126 128 130 133 129 131 130 131 132 132 135 140 136 135 131 131 127 125 124 124 123 121 125 121 122 120 121 116 123 121 119 116 119 119 119 119 120 122 120 121 121 122 120 120 124 122 119 118 121 124 119 126 118 123 117 
144 142 137 134 134 130 133 131 132 135 130 129 132 130 130 131 130 129 127 125 118 124 126 127 128 129 130 130 132 130 131 132 134 134 135 138 139 139 135 134 130 126 126 123 127 129 125 125 123 123 122 122 124 121 121 120 116 122 120 119 120 119 123 120 122 124 124 124 121 123 121 124 118 123 119 120 126 125 123 118 
143 143 142 136 138 135 136 133 134 133 130 132 129 135 135 132 134 130 131 125 120 125 127 127 129 130 128 134 137 132 131 136 136 136 136 141 140 137 137 135 132 130 127 128 127 131 129 129 124 124 122 123 120 124 122 121 118 122 121 119 122 121 121 120 121 121 124 123 123 122 123 122 121 123 123 127 126 125 124 119 
145 146 136 138 138 140 131 133 131 133 131 133 133 137 133 135 133 133 132 127 123 127 130 130 132 130 134 135 135 133 137 135 140 143 140 142 144 140 138 137 136 128 129 128 130 129 128 126 126 124 123 125 124 124 125 121 119 120 120 120 122 122 121 121 123 122 125 123 122 129 124 121 123 123 121 121 128 124 128 129 
149 142 138 134 138 140 137 137 132 134 132 133 133 137 137 135 135 133 132 129 125 128 134 133 130 133 133 137 138 139 139 140 140 141 142 150 145 141 140 138 133 127 124 128 129 128 126 125 127 122 124 127 124 125 123 120 124 127 121 119 121 121 119 117 124 123 122 121 122 125 125 121 120 126 119 122 126 119 131 134 


