P2
80 60
703
5 4 1 8 8 11 6 14 11 15 16 20 21 24 24 26 29 31 33 36 37 38 39 42 39 41 41 37 42 45 46 45 47 47 47 47 48 47 30 33 36 49 63 80 88 95 90 91 85 87 87 89 95 95 97 88 87 84 88 86 91 91 85 89 86 90 85 91 93 91 77 60 57 60 62 53 35 27 22 12 
9 1 3 4 11 7 5 11 15 19 20 23 24 24 24 27 27 28 31 33 38 36 36 41 42 38 39 37 38 43 41 45 44 48 43 45 46 44 32 33 33 54 62 79 88 95 96 92 85 84 85 85 87 86 90 86 84 82 83 86 86 83 88 89 85 86 88 88 85 86 70 60 53 56 49 41 26 16 10 14 
5 0 0 6 7 6 6 14 15 15 21 22 25 27 22 30 27 31 35 34 34 38 39 41 40 40 44 37 41 42 47 45 44 47 41 42 33 31 31 32 36 51 60 72 84 94 93 86 87 87 85 89 84 73 64 79 84 85 86 79 82 81 84 84 79 76 76 78 81 73 62 53 46 38 34 23 20 17 7 6 
9 1 2 9 10 9 11 13 15 17 21 22 26 26 28 33 30 32 34 38 40 42 41 44 42 41 42 42 41 43 47 46 43 44 37 35 32 28 28 35 42 53 59 70 80 82 78 77 74 79 82 88 85 67 57 70 86 79 71 72 67 67 63 61 65 62 59 60 55 53 42 36 32 24 21 15 16 12 4 8 
12 7 7 11 12 11 12 12 19 22 28 23 26 30 27 33 31 33 36 41 38 41 41 45 45 48 44 45 45 42 44 44 47 45 43 37 34 34 30 35 54 64 60 71 68 71 72 69 73 73 77 87 86 74 55 62 74 71 62 61 61 62 55 57 62 61 53 47 42 37 30 29 25 22 20 14 16 18 9 10 
13 9 8 10 16 12 12 16 21 23 28 25 34 31 32 38 37 40 43 43 40 49 42 46 44 45 43 45 45 46 46 48 49 47 43 35 34 32 35 54 77 88 63 65 69 64 63 63 67 70 82 87 106 94 73 56 64 59 60 54 60 54 49 50 50 43 42 36 39 38 33 30 29 24 23 21 16 15 8 14 
11 7 10 13 16 17 13 15 22 23 25 27 35 32 33 33 37 39 45 41 42 46 47 47 48 45 51 45 49 51 46 49 49 52 45 45 41 40 61 89 89 100 71 72 66 62 63 65 64 69 73 96 122 107 93 72 60 54 52 52 55 49 44 46 45 43 42 40 38 38 35 32 30 29 24 22 20 18 10 17 
14 11 8 13 17 14 16 16 24 26 25 34 38 35 37 39 34 43 45 48 44 47 47 51 51 47 52 44 49 49 47 52 46 48 51 52 56 73 101 100 94 95 80 71 65 62 61 63 67 69 69 99 127 116 100 86 66 55 50 47 50 51 50 44 45 43 41 35 37 40 32 31 32 28 23 23 18 21 17 22 
32 16 15 20 22 19 21 25 29 30 36 38 45 45 42 47 45 46 53 53 52 52 52 56 54 50 55 49 53 53 51 54 52 56 53 59 67 88 107 93 85 93 98 74 68 74 62 70 64 68 61 107 126 110 99 77 70 58 53 50 52 51 48 46 49 46 40 39 35 42 34 36 32 30 32 23 26 25 18 22 
68 31 20 21 24 25 25 34 38 41 51 53 59 63 62 63 59 61 62 65 64 62 62 66 67 59 63 62 62 62 57 60 60 64 57 56 64 74 71 64 66 78 88 83 83 82 66 65 63 64 72 117 126 104 84 70 75 66 56 55 52 49 47 47 50 48 42 44 44 43 35 36 37 33 27 29 27 23 21 25 
105 54 24 29 32 40 42 50 50 55 59 65 67 68 68 74 70 70 72 69 70 68 71 72 72 68 72 64 67 71 64 65 68 70 64 65 65 68 64 62 64 70 76 68 74 68 65 60 64 62 79 113 118 88 83 72 75 64 57 53 53 51 48 47 47 49 46 44 46 42 40 37 37 36 32 29 28 27 23 27 
67 52 38 40 49 51 54 62 62 66 69 69 77 72 75 75 72 75 82 73 74 75 75 77 77 71 75 73 68 74 69 71 75 70 68 73 69 64 67 71 68 68 70 63 63 60 61 60 60 64 90 125 126 85 73 69 74 68 59 59 55 53 47 49 51 47 45 43 43 45 42 41 42 38 36 32 30 27 22 26 
50 44 48 53 57 57 58 65 67 68 73 75 82 79 79 79 82 77 86 81 76 79 78 79 80 77 76 73 77 75 74 74 74 76 72 74 76 77 74 73 75 71 69 71 69 68 65 64 62 68 89 102 104 83 71 75 79 70 61 60 56 57 53 52 48 49 48 46 46 43 38 45 43 36 33 31 29 29 24 30 
51 51 51 60 64 63 63 70 72 77 79 84 86 87 84 87 85 84 86 85 83 85 85 84 86 81 80 78 78 82 79 80 83 83 77 76 82 80 81 81 80 78 81 77 77 78 73 72 75 75 76 110 93 91 87 81 82 75 66 62 61 56 56 53 50 51 49 47 46 48 44 44 44 36 36 31 31 31 25 30 
62 54 57 62 70 68 68 71 78 84 87 84 91 86 91 91 88 86 90 90 84 89 87 90 88 85 85 80 85 83 82 84 84 86 84 86 83 83 84 84 84 89 87 86 89 86 84 89 81 82 77 101 87 88 86 83 81 83 74 66 65 59 58 51 49 50 52 49 50 52 44 44 42 40 37 33 33 34 30 33 
65 56 59 66 68 69 70 76 82 83 90 89 91 92 87 93 90 90 91 89 89 89 89 90 91 84 89 85 84 86 82 89 86 88 87 84 89 88 90 89 93 94 94 93 92 91 88 90 90 92 93 97 87 98 98 92 88 81 72 67 69 62 57 54 56 58 52 50 45 50 43 46 47 44 39 37 36 34 29 31 
63 59 66 65 69 70 74 76 84 86 88 88 95 94 92 96 93 91 94 93 93 93 94 92 94 90 92 85 90 91 87 88 91 86 89 89 89 92 93 94 96 98 103 101 99 98 95 100 103 104 103 108 107 104 102 104 94 88 82 70 68 61 56 57 58 58 53 57 50 54 49 45 48 47 39 35 37 38 34 29 
67 63 60 68 72 73 75 77 84 88 94 91 94 93 95 99 97 93 99 96 98 95 97 98 98 94 96 89 95 91 87 92 91 90 89 92 96 93 97 99 102 105 107 103 107 106 105 108 113 109 109 109 112 110 113 107 101 96 103 86 79 72 61 63 61 56 58 55 49 57 48 47 54 44 43 36 38 34 36 39 
68 60 65 67 72 71 78 78 83 86 91 92 91 95 93 96 95 98 100 98 99 97 101 101 103 94 99 92 90 92 91 93 93 94 92 94 100 98 101 103 103 108 110 112 109 111 107 115 112 111 108 114 117 116 113 110 106 104 105 100 98 90 74 64 63 61 54 57 53 55 49 48 49 44 37 39 37 39 31 42 
72 61 63 67 74 73 77 80 86 89 92 95 100 100 96 100 99 101 110 109 107 108 108 108 106 100 101 96 96 96 93 95 99 101 96 100 104 109 107 108 111 110 113 115 118 116 113 116 120 114 113 115 116 118 113 113 111 108 110 110 101 99 86 80 68 63 59 57 57 56 53 49 52 46 42 39 40 41 33 32 
66 63 66 67 76 77 79 81 89 90 96 96 102 100 102 107 116 132 149 165 172 171 156 148 124 112 110 103 98 102 101 104 104 104 101 108 110 108 110 111 116 116 116 122 122 122 119 116 121 118 116 118 120 119 120 118 115 109 108 109 107 104 98 92 82 74 65 57 53 56 53 52 51 47 44 43 43 41 39 36 
67 64 69 66 72 74 77 81 90 93 94 100 105 106 130 161 205 235 257 264 263 272 260 249 216 173 133 112 108 106 105 105 108 110 108 111 112 112 115 116 119 119 121 122 123 121 122 119 120 119 119 117 120 119 120 123 119 111 114 114 109 103 101 99 96 87 79 63 54 59 55 52 51 49 50 41 39 46 38 41 
67 63 67 70 74 74 77 81 86 91 99 101 118 156 211 258 288 321 361 390 402 390 366 341 298 261 236 173 123 114 106 108 111 112 111 113 115 115 115 118 119 120 122 119 124 122 122 120 123 120 119 119 119 117 119 118 117 112 111 112 111 107 104 106 94 94 85 68 64 57 54 53 56 50 49 44 39 41 38 40 
66 67 64 65 71 72 76 81 89 93 101 123 180 245 295 361 441 491 536 558 589 547 526 496 449 357 289 247 197 135 115 116 115 115 113 117 124 123 119 120 122 122 124 125 123 123 122 124 125 120 119 120 121 118 119 119 118 112 114 116 113 112 106 105 106 102 93 82 71 61 55 53 52 48 44 43 44 43 36 40 
70 62 67 70 75 75 78 85 93 99 124 189 262 328 433 528 563 592 618 631 627 624 604 600 581 513 433 327 256 215 137 125 122 123 123 127 125 123 122 125 123 124 129 128 129 129 127 126 127 127 123 125 123 123 121 122 119 117 113 117 117 113 114 112 111 106 100 92 82 74 58 53 52 55 48 44 41 45 38 43 
74 69 70 72 75 78 83 88 93 116 173 256 342 469 549 603 611 615 621 646 643 647 635 626 625 598 587 467 336 259 199 134 128 131 131 131 129 125 128 130 130 128 129 127 130 131 132 131 135 133 125 126 128 126 126 126 123 120 118 117 117 113 114 116 115 115 106 97 89 85 70 64 57 53 47 45 43 48 43 44 
70 67 71 71 73 79 83 90 106 146 244 336 470 556 592 618 641 644 633 645 646 641 628 637 633 638 633 579 468 321 244 176 134 131 131 134 134 130 129 129 131 133 133 134 133 134 131 137 138 129 132 130 130 130 127 124 124 119 122 122 119 117 115 112 117 114 110 103 97 91 75 69 62 49 43 43 46 46 40 48 
70 64 70 73 75 75 78 92 118 198 296 429 551 592 612 648 668 672 651 636 637 631 633 643 645 647 649 621 566 432 279 231 144 135 130 132 134 131 129 130 131 133 129 133 132 132 139 137 138 134 134 131 133 129 126 126 122 123 119 121 120 120 118 116 116 116 111 105 102 97 81 76 66 55 44 46 44 44 42 46 
68 64 67 69 74 78 83 95 142 249 365 513 592 614 654 676 677 681 661 631 625 625 630 641 645 655 654 629 604 536 357 260 176 138 135 136 137 132 132 134 134 133 133 135 132 133 137 139 140 139 138 138 135 134 131 134 126 123 123 127 123 120 122 121 122 117 114 110 105 103 86 78 73 63 49 39 44 45 42 45 
66 63 71 74 78 82 88 105 178 300 442 562 607 645 678 683 681 683 673 639 626 629 629 635 634 645 653 640 627 591 443 280 207 144 135 137 140 134 135 136 133 136 132 131 134 135 140 139 142 142 143 143 137 137 138 136 131 128 129 123 125 123 122 117 121 120 111 108 108 108 93 86 80 67 55 43 41 43 39 44 
72 67 73 78 81 84 89 120 217 343 492 600 643 674 684 686 680 681 686 653 631 621 627 636 633 632 651 644 635 616 517 321 240 152 140 138 140 139 139 139 136 141 136 135 137 137 143 143 142 144 142 148 143 146 140 140 139 130 131 128 131 128 122 124 123 121 120 113 115 114 99 91 78 76 59 52 43 46 37 42 
72 67 72 80 85 86 93 135 244 374 540 616 663 691 685 690 678 684 695 680 648 627 623 633 634 632 646 645 637 627 535 355 259 168 139 143 141 136 139 139 140 139 137 135 136 142 143 144 145 144 143 144 146 141 145 143 139 138 138 139 132 131 129 130 126 126 119 116 118 115 99 99 91 80 70 54 53 47 43 40 
71 74 74 76 83 87 95 138 252 388 539 616 676 692 686 686 680 686 696 695 676 634 622 621 627 633 639 643 639 626 566 392 279 183 145 140 140 141 142 140 139 135 136 138 137 143 141 145 145 141 145 146 142 145 144 148 143 140 139 138 142 139 133 135 132 129 125 117 122 121 105 99 96 85 74 65 62 51 45 43 
74 71 77 78 82 87 100 143 257 399 558 608 669 691 685 688 681 699 697 703 689 643 614 617 617 624 635 636 639 630 561 401 282 191 149 141 139 137 140 142 140 140 137 136 140 146 146 146 140 142 142 144 145 147 151 145 140 139 141 139 143 140 140 139 141 140 132 130 131 126 111 108 104 91 78 72 60 57 51 48 
76 69 78 83 89 90 103 142 247 385 535 602 657 685 683 684 683 696 701 701 692 664 615 611 610 615 628 633 627 624 551 390 285 183 145 139 139 138 141 141 143 143 142 138 144 145 142 145 145 145 142 145 147 148 148 147 142 142 144 141 147 144 139 139 144 141 134 134 129 128 119 112 112 103 89 75 69 64 58 51 
75 74 76 82 90 95 107 142 233 362 514 589 639 676 678 681 679 695 700 701 691 688 626 605 606 613 623 630 626 601 535 363 271 180 144 139 146 140 140 141 144 144 141 142 145 146 142 145 144 144 146 147 146 145 150 146 145 143 142 146 145 140 140 140 139 140 136 131 131 133 125 124 121 115 96 87 76 71 64 56 
81 76 78 86 93 97 107 134 210 340 483 573 621 665 671 674 680 690 697 693 686 685 646 612 604 609 625 628 618 592 486 332 253 163 145 143 147 140 140 145 145 143 144 142 142 146 143 149 149 145 148 143 147 150 147 150 148 145 142 143 143 142 140 138 137 141 136 132 129 131 128 126 125 120 110 101 93 82 72 68 
79 77 81 89 95 99 112 131 183 293 415 535 592 640 674 672 674 686 692 688 684 684 680 656 612 614 622 614 599 549 420 305 215 156 142 145 148 140 141 144 144 143 143 143 145 145 144 148 148 148 146 144 149 148 148 149 148 150 144 142 147 146 144 141 140 140 138 135 133 135 126 122 127 125 119 109 111 102 94 90 
80 80 84 88 97 102 113 127 164 234 360 482 569 621 674 671 667 671 672 671 677 678 688 675 621 613 611 611 580 510 360 280 179 151 144 144 144 141 140 143 144 142 142 141 147 148 143 150 151 146 142 150 153 148 148 149 150 145 145 144 144 144 140 140 141 139 140 138 133 137 128 123 127 137 134 125 124 122 113 115 
78 75 88 91 93 106 110 128 151 193 292 402 526 599 650 666 669 665 674 676 675 685 686 682 619 604 607 590 539 426 313 222 161 145 142 143 145 144 142 141 145 143 143 146 147 150 147 148 153 148 145 145 148 148 151 148 151 145 145 143 146 143 143 139 138 140 136 135 132 133 122 120 127 155 165 164 159 147 134 121 
81 78 86 90 98 104 110 125 138 167 219 333 443 544 602 632 663 667 670 671 678 687 689 678 622 600 596 559 464 348 252 180 148 145 141 141 138 142 143 145 145 145 142 147 145 145 148 144 148 146 144 143 152 147 150 151 145 146 145 142 146 146 142 141 140 141 140 137 135 136 124 123 125 150 174 174 173 169 156 154 
84 82 82 87 95 103 108 121 131 148 173 239 352 440 520 573 619 644 660 663 663 672 672 648 609 589 558 466 354 273 185 153 147 139 142 138 140 142 140 146 145 144 144 143 147 149 145 143 144 144 144 147 149 148 152 146 145 147 146 144 150 146 143 141 142 144 140 147 137 135 122 119 125 150 168 156 154 153 132 128 
83 78 85 87 95 99 106 117 125 135 152 176 238 324 403 493 554 585 602 606 615 623 608 590 566 541 432 352 263 186 155 147 143 141 137 140 142 142 145 144 145 150 147 146 148 143 143 143 150 146 144 150 147 147 150 145 147 144 143 149 148 145 142 139 142 147 144 156 139 133 126 118 120 136 136 125 125 121 119 125 
71 72 83 84 91 96 103 114 121 127 138 149 174 208 280 358 410 473 502 519 529 524 506 481 441 379 313 229 170 152 142 145 142 141 137 141 142 142 142 145 146 149 146 147 146 145 146 143 144 146 146 148 145 143 145 143 146 144 142 142 144 143 141 143 142 141 143 146 129 131 127 122 116 125 118 121 123 118 114 119 
73 74 80 83 88 98 103 107 116 123 128 136 149 158 177 210 264 322 344 366 370 368 349 330 290 235 185 155 148 144 138 145 141 141 138 139 141 140 140 143 146 146 146 146 148 143 142 144 148 145 146 148 147 144 143 147 143 143 142 139 146 143 141 144 143 139 133 128 127 129 126 121 114 116 120 122 126 125 119 118 
70 67 76 83 85 95 98 104 110 118 120 126 139 140 142 152 165 178 198 214 215 218 197 186 170 161 151 145 143 143 138 140 137 143 140 139 142 141 143 145 143 144 142 146 146 144 146 142 144 147 145 143 146 143 145 143 141 144 142 144 145 144 144 140 145 139 141 131 127 129 124 120 114 118 122 126 125 126 123 127 
64 64 76 82 89 89 95 104 107 111 120 122 131 131 136 136 138 144 153 151 151 155 150 155 152 146 145 141 138 141 139 144 137 144 138 141 144 141 144 142 145 143 145 145 148 143 145 148 144 142 146 144 145 145 146 145 141 144 143 141 145 145 141 141 141 139 137 130 125 128 124 123 119 117 119 123 127 125 123 131 
63 64 71 80 85 91 91 100 106 112 116 118 130 130 131 134 131 134 141 142 140 145 139 149 147 144 143 138 140 143 140 139 136 141 140 140 141 140 143 140 144 143 145 148 146 144 143 145 145 144 148 148 147 145 147 149 146 145 143 144 144 144 141 141 143 140 138 133 126 125 125 122 119 119 127 128 136 141 143 145 
59 59 71 73 82 85 90 96 100 104 111 116 122 125 126 129 135 131 137 140 138 145 138 144 143 137 141 137 141 138 136 140 139 142 135 141 142 138 144 137 139 148 147 148 148 147 146 147 145 148 146 147 145 146 146 146 146 144 143 142 144 145 144 143 141 142 139 134 129 127 125 124 117 122 136 149 155 156 157 165 
56 50 61 66 77 78 87 91 99 104 110 116 121 121 125 128 127 128 132 134 132 135 136 137 138 136 137 131 138 139 135 140 139 140 135 136 139 137 140 141 143 146 146 146 147 146 149 150 149 147 146 146 148 146 144 145 141 143 145 143 144 142 142 143 143 145 149 145 138 131 127 122 117 116 142 157 167 166 160 163 
58 53 57 67 74 77 81 91 96 102 107 112 120 117 120 123 123 125 129 134 130 134 133 138 134 134 136 134 134 134 134 141 134 139 137 138 139 142 142 144 145 148 147 146 147 148 144 145 150 149 149 145 148 149 147 148 145 143 146 143 147 143 144 145 147 157 167 156 157 141 131 125 118 118 137 161 169 168 166 169 
56 53 55 63 67 76 79 86 96 99 107 108 114 114 117 118 116 118 123 130 126 131 128 133 134 130 130 128 136 134 132 140 134 136 136 139 141 142 143 145 148 147 143 147 146 143 145 144 146 145 141 143 144 146 145 146 145 145 146 144 147 145 143 146 144 154 166 162 167 139 124 124 119 113 133 153 162 164 159 156 
59 54 57 67 71 68 79 85 94 99 100 106 110 113 113 121 119 121 122 125 128 129 129 130 131 130 131 130 130 132 134 140 132 139 138 139 142 141 143 143 143 145 145 144 147 142 143 144 144 140 144 145 147 142 145 150 145 145 146 145 143 144 141 146 148 145 151 147 153 142 129 128 117 114 133 153 154 155 137 125 
59 51 58 61 69 74 76 82 90 95 99 101 106 112 112 110 111 114 119 124 119 129 123 130 128 129 130 125 130 131 131 138 132 138 139 139 138 138 138 144 148 146 144 147 141 142 148 144 140 135 132 136 141 139 139 141 146 144 143 143 142 143 143 143 144 141 145 141 144 137 130 131 127 116 125 138 132 123 112 117 
59 55 56 66 67 70 78 83 89 92 99 102 108 112 109 114 113 116 121 120 123 127 127 128 132 128 131 128 135 136 132 136 135 141 142 143 141 140 146 143 149 149 149 149 147 145 144 145 147 138 140 138 140 136 133 138 140 134 140 139 143 144 140 141 144 142 142 137 141 141 133 131 131 124 128 125 121 121 110 111 
55 51 52 58 65 68 75 82 93 94 99 102 108 108 108 114 114 119 120 123 119 126 124 131 132 130 132 129 134 136 135 140 140 141 145 143 140 142 143 145 146 149 149 147 148 146 147 147 146 145 143 138 135 126 130 135 138 135 138 140 136 135 134 137 139 140 140 139 141 137 130 134 133 131 127 122 123 123 114 120 
46 47 48 55 57 66 72 82 87 96 99 108 109 109 110 111 112 114 119 119 118 121 121 132 126 126 131 128 132 134 135 141 135 142 138 144 143 143 148 143 149 149 148 147 148 149 147 146 145 145 144 146 139 128 133 146 150 148 145 138 136 135 136 134 132 136 140 136 136 135 128 127 124 127 120 118 115 121 113 116 
46 42 42 49 56 61 63 79 82 90 94 100 104 103 106 109 112 112 120 116 121 121 121 127 127 131 129 130 130 130 132 138 136 138 139 140 143 145 147 149 151 148 144 147 149 145 144 147 144 141 141 145 134 134 137 150 158 158 158 147 141 137 135 138 137 131 137 135 133 132 123 128 123 124 119 113 111 116 107 113 
39 38 41 45 50 56 61 69 79 84 92 98 104 107 109 110 111 115 116 119 116 123 123 130 128 130 127 126 129 133 130 139 135 140 139 146 149 150 155 151 156 150 154 153 152 150 147 146 136 133 133 134 141 137 144 151 157 153 162 151 150 148 147 150 149 152 150 145 152 144 138 133 135 132 120 113 115 113 106 114 
37 36 40 50 51 54 59 67 77 86 94 101 115 116 113 117 117 118 120 124 127 134 133 134 134 138 136 132 138 139 140 143 141 150 145 154 159 163 164 159 163 158 156 163 158 158 155 152 140 136 134 140 148 145 145 148 155 157 163 164 162 163 163 170 168 169 172 167 168 166 155 153 143 141 122 117 112 120 105 109 


