P2
80 60
249
25 26 31 42 74 100 84 44 52 94 92 52 40 38 34 33 29 27 28 31 26 26 26 23 24 27 28 27 29 36 33 27 27 27 26 25 22 28 26 26 26 25 25 26 29 30 28 23 19 18 17 15 19 18 20 18 23 24 20 24 26 21 27 27 24 18 20 23 23 24 27 27 22 14 19 16 24 21 21 18 
22 25 34 43 81 105 78 43 55 98 93 53 39 36 32 31 31 27 26 26 25 25 25 27 29 32 29 29 26 32 31 30 29 27 25 27 25 25 24 26 27 24 26 28 30 31 27 25 22 22 17 20 19 25 23 22 25 23 25 24 28 29 31 30 30 20 19 24 23 24 22 24 24 22 20 17 24 23 15 15 
22 25 35 42 82 102 71 40 61 99 88 49 35 35 35 31 27 29 27 26 27 25 25 28 29 29 29 29 30 32 31 28 28 25 28 25 23 24 28 26 27 25 27 26 28 31 27 30 25 25 22 25 27 27 27 29 28 29 30 31 29 30 29 26 25 20 21 21 22 22 29 22 23 23 21 16 25 24 14 11 
25 22 31 47 89 98 66 39 63 98 82 47 32 30 33 28 30 26 25 30 27 26 28 29 29 30 30 29 31 30 30 26 26 25 24 21 22 25 25 25 26 27 28 27 29 27 30 33 25 30 30 25 30 28 27 28 29 33 29 31 30 28 28 25 26 20 18 17 24 24 26 29 24 20 21 18 27 23 14 14 
24 27 35 47 95 99 61 43 71 95 77 41 31 28 25 26 27 22 24 23 27 25 27 30 28 30 27 31 31 27 27 26 26 23 23 22 23 25 24 23 25 24 28 26 25 27 29 35 30 30 27 28 28 27 28 25 28 30 26 27 28 24 24 25 23 20 19 21 24 22 28 24 24 22 21 19 23 21 14 7 
23 27 36 56 98 91 64 42 76 98 74 36 30 27 26 23 21 24 24 23 29 28 25 27 29 24 29 26 30 30 29 25 26 26 23 23 22 22 24 21 24 24 26 27 26 29 27 30 24 28 27 31 28 30 26 28 30 27 26 27 28 23 26 25 25 24 17 20 22 25 28 25 27 24 19 20 22 15 12 10 
21 30 37 55 98 89 56 38 77 98 71 36 29 29 26 23 25 24 24 26 26 26 25 27 27 28 27 30 30 29 28 27 28 23 20 23 26 19 24 23 25 24 27 24 26 25 24 28 26 29 27 25 26 29 29 26 27 29 26 25 27 28 27 27 26 23 20 21 23 23 27 23 25 21 21 24 19 13 11 12 
23 29 33 50 97 86 53 36 77 95 66 32 26 21 22 20 20 22 24 27 24 24 21 23 23 25 27 29 28 29 28 26 25 23 22 24 22 24 24 24 23 24 26 26 28 29 23 25 24 27 25 22 25 28 25 27 29 30 29 29 28 31 26 29 27 27 19 17 25 25 27 27 22 22 21 21 23 16 12 9 
15 25 29 48 100 91 48 38 84 95 64 33 23 23 21 23 22 24 26 25 23 22 24 25 29 27 28 30 29 29 26 24 25 26 24 27 28 27 26 23 26 24 27 25 27 29 31 26 27 26 24 22 23 23 28 31 30 33 31 34 34 32 29 29 29 29 17 19 26 24 29 29 25 24 23 22 19 18 15 13 
10 1 0 42 102 87 42 32 87 100 58 26 19 21 21 20 22 21 21 25 19 23 22 24 23 27 25 26 29 30 30 26 27 22 27 25 27 26 26 27 27 25 29 25 29 28 28 29 26 24 24 24 26 29 32 32 33 34 32 32 35 29 30 28 28 27 22 21 27 27 29 28 25 26 26 25 20 22 18 11 
13 6 6 46 102 85 35 26 97 109 51 16 12 10 8 14 16 18 20 21 21 20 20 22 21 25 20 25 25 29 25 23 23 20 22 25 24 25 24 22 25 26 25 26 26 27 26 22 23 25 25 26 28 30 29 33 32 32 32 32 35 28 27 28 27 29 21 16 20 23 27 27 23 24 22 22 21 20 18 15 
15 13 19 58 108 88 32 32 99 104 47 15 11 9 11 9 8 14 15 18 14 20 20 20 21 22 20 22 23 22 26 23 22 26 26 25 23 26 28 27 25 26 27 24 27 25 24 27 27 26 33 28 31 35 34 34 33 35 32 32 35 29 28 28 28 30 24 19 22 25 26 30 27 24 25 23 23 18 14 14 
15 15 17 56 105 83 38 35 94 102 45 10 8 9 8 8 10 10 7 5 6 7 8 10 11 15 14 13 12 17 15 17 18 20 19 24 23 26 26 24 26 22 21 24 23 23 26 27 28 30 27 29 30 32 31 32 31 32 29 31 34 27 28 29 26 28 26 18 17 25 27 27 23 23 22 22 22 18 15 15 
18 17 21 62 104 78 35 42 101 101 44 18 10 12 14 10 10 10 7 6 10 8 7 8 11 10 6 8 9 10 8 4 13 11 18 20 22 25 25 25 25 23 24 26 27 30 28 27 28 30 29 32 32 34 36 34 35 30 34 33 34 29 30 30 31 31 27 21 17 22 32 33 28 27 26 26 26 19 16 16 
14 18 22 71 97 70 32 41 101 95 39 21 13 13 16 15 13 9 7 8 8 8 8 7 7 10 9 10 11 9 11 7 6 7 17 22 24 26 24 22 22 25 24 28 29 30 28 32 32 30 30 31 32 35 34 32 35 35 33 33 32 30 31 30 30 30 29 22 22 26 32 30 27 28 27 27 27 17 11 11 
17 19 22 72 97 66 30 43 100 89 35 19 12 13 16 12 11 8 9 8 8 8 9 10 8 9 8 8 9 11 6 8 14 14 22 24 24 21 21 23 25 24 25 29 29 30 30 26 30 27 29 27 27 33 33 30 33 33 32 33 33 28 30 30 30 32 31 22 18 20 28 31 28 24 25 24 29 20 20 14 
17 19 24 74 94 64 31 46 102 90 34 19 17 14 15 15 14 13 14 12 13 15 13 11 11 10 11 10 14 12 18 19 26 23 25 25 22 24 26 26 23 27 29 30 28 32 31 28 31 30 31 30 35 33 33 34 31 32 31 33 33 32 32 34 32 30 31 24 18 24 34 31 28 29 24 27 30 23 20 13 
18 17 27 80 97 63 29 47 104 86 34 17 16 15 15 16 16 11 13 13 14 14 15 14 12 15 13 13 14 22 25 24 27 27 24 23 27 25 28 25 23 29 29 29 32 32 32 32 32 36 31 34 31 31 35 32 36 34 37 35 35 31 32 31 33 33 29 29 17 20 29 30 28 28 29 26 28 30 23 21 
17 15 27 80 94 60 26 48 100 82 35 15 14 10 18 16 17 12 14 12 15 13 13 13 12 11 12 12 14 21 27 24 24 23 25 25 24 28 24 24 24 27 30 26 28 27 29 29 30 28 32 30 32 34 30 31 31 33 32 31 37 30 32 28 31 32 30 29 16 15 27 27 28 25 26 26 27 28 20 20 
18 17 35 86 94 58 27 53 102 83 32 21 18 15 16 16 15 16 15 14 13 14 15 18 13 15 12 10 16 21 28 26 26 22 23 24 24 27 28 26 26 28 31 25 29 32 31 33 27 28 31 31 33 33 32 34 35 37 33 34 37 33 31 31 29 31 35 34 23 18 24 29 28 29 30 27 31 28 25 21 
20 20 33 92 94 59 30 57 102 81 31 20 17 20 20 23 19 17 15 17 13 15 15 17 18 15 12 15 17 18 25 24 26 21 24 24 22 22 25 27 22 28 29 32 31 31 29 29 31 30 32 30 35 34 32 33 33 35 33 32 35 34 32 35 34 31 32 37 22 17 27 31 31 28 28 28 30 29 25 21 
26 28 44 104 97 57 30 63 105 82 33 20 18 18 17 14 20 19 16 18 18 17 14 16 15 12 16 16 16 15 23 23 26 24 22 25 22 27 25 26 27 25 27 28 31 28 30 30 31 33 35 31 32 33 37 31 32 33 35 34 34 33 35 35 32 32 32 34 31 19 20 30 31 30 28 27 32 29 25 22 
76 73 81 125 103 52 31 69 106 81 28 19 18 16 16 17 17 16 16 14 19 19 17 13 18 17 16 16 14 13 23 20 24 24 22 21 23 24 24 27 25 28 28 27 29 28 30 32 29 32 32 30 31 33 33 29 31 31 32 32 35 33 32 32 31 32 31 36 30 20 19 20 27 27 28 26 31 31 23 20 
102 105 110 106 87 45 31 71 103 76 29 20 20 16 16 14 17 17 15 16 16 17 17 13 14 18 16 15 16 15 21 20 23 23 23 22 23 25 25 26 28 24 25 29 29 28 28 29 29 31 29 31 32 33 33 29 32 27 30 36 35 35 34 35 35 30 32 37 29 28 19 18 21 27 26 27 31 28 22 17 
99 97 103 90 73 31 36 77 105 80 31 20 21 18 20 20 19 18 19 20 18 21 18 19 18 16 19 18 16 18 20 24 25 23 23 27 27 28 28 28 30 31 27 30 33 28 33 33 30 32 32 33 32 35 35 31 33 36 33 32 34 37 35 35 31 35 32 35 31 28 30 23 16 24 23 29 34 34 23 18 
42 43 52 50 34 26 37 82 111 82 32 24 20 20 23 22 19 19 19 19 21 19 19 21 19 21 20 22 20 19 26 26 27 24 29 27 29 31 32 28 30 31 31 30 33 31 33 33 32 33 33 36 33 33 36 33 37 39 34 36 35 35 34 37 32 36 35 37 35 30 33 29 23 18 18 21 26 30 21 19 
29 25 29 23 26 23 33 86 114 81 32 23 19 18 20 19 16 17 19 20 19 18 17 19 23 19 18 18 20 19 22 26 27 29 27 25 26 28 29 28 28 29 30 30 31 30 31 32 34 32 32 33 34 33 33 33 33 35 34 33 36 33 33 34 32 34 33 37 34 29 33 35 29 24 19 19 23 20 20 22 
76 68 58 51 45 42 49 102 119 82 34 23 19 18 22 18 19 20 20 18 17 19 21 20 22 24 19 17 14 17 24 26 30 26 26 28 28 27 29 30 31 29 31 30 29 28 32 28 33 31 34 34 32 35 36 36 29 34 37 36 34 31 36 36 35 34 33 34 32 31 35 34 34 31 32 30 28 23 18 18 
123 116 107 100 97 93 102 114 107 77 29 23 19 20 18 22 23 19 23 20 18 21 16 20 18 20 20 18 19 18 23 27 27 29 28 30 26 31 31 31 28 31 31 32 31 30 33 30 33 32 33 32 32 32 32 32 33 32 36 32 37 32 33 37 33 35 35 34 32 35 34 35 31 29 33 31 33 29 20 19 
107 102 101 99 99 97 102 105 94 63 26 22 20 20 22 20 24 20 24 22 21 21 20 22 21 21 22 21 21 17 25 25 28 25 29 30 31 30 32 31 32 30 29 33 30 30 34 33 30 31 28 32 34 34 35 36 34 35 34 33 38 31 35 37 36 36 39 40 34 33 37 35 34 30 30 31 33 28 21 20 
43 46 47 49 56 58 65 66 58 33 22 23 23 25 21 21 23 23 22 21 21 25 22 23 23 23 21 21 21 18 21 26 27 27 28 27 28 31 33 33 29 30 31 30 31 31 33 34 31 33 31 34 35 34 31 31 34 34 33 35 37 32 34 37 32 34 35 38 35 33 33 36 36 28 28 28 33 31 23 24 
28 25 27 23 24 26 33 30 30 28 24 24 22 26 22 23 21 21 23 21 20 25 25 26 23 20 18 26 21 20 23 27 29 28 29 28 27 28 32 33 30 33 32 29 33 33 32 31 33 31 30 36 35 33 32 34 34 35 34 34 36 35 38 32 34 35 37 36 36 31 37 38 32 30 30 28 31 31 23 23 
23 20 23 21 23 23 24 24 27 25 23 21 27 23 24 26 24 23 23 23 22 25 24 24 25 22 23 26 23 21 24 28 30 28 26 26 30 30 33 29 32 33 33 32 29 30 35 34 32 37 34 34 34 34 37 40 36 36 33 30 37 34 39 38 33 36 37 36 34 34 34 36 36 34 30 29 32 35 28 25 
27 21 24 22 26 23 23 25 24 27 25 25 24 23 25 26 27 25 24 25 24 26 27 24 28 24 23 26 22 21 23 28 32 27 30 28 30 28 32 32 36 35 33 33 33 35 34 34 33 35 35 34 35 38 36 36 40 40 39 35 34 36 39 39 35 38 39 41 36 35 36 34 38 36 34 33 33 36 30 25 
27 24 24 21 24 22 21 27 27 29 25 25 23 24 25 25 28 26 26 26 28 27 28 27 27 25 28 28 24 23 25 28 31 29 30 28 31 28 30 34 33 31 33 32 33 34 35 36 34 37 34 36 35 35 37 37 38 36 38 37 37 41 37 39 37 39 38 39 33 33 37 39 38 35 32 33 33 31 30 29 
26 26 21 20 22 21 26 27 30 25 25 24 23 27 27 25 28 26 26 25 29 30 29 24 29 24 28 28 25 22 25 28 35 27 29 27 29 31 30 30 29 30 29 34 33 33 34 34 36 36 35 35 34 37 37 35 37 38 36 37 38 34 34 37 36 35 36 37 33 34 36 32 36 34 35 30 30 37 26 26 
27 28 26 21 22 19 25 24 25 28 27 27 28 26 26 24 23 29 24 30 26 26 27 29 28 28 30 31 29 25 23 31 33 31 32 30 31 31 33 33 32 32 35 34 33 32 36 35 36 36 36 35 33 35 38 34 33 36 37 35 38 34 35 36 34 36 36 38 34 36 38 34 34 33 32 32 31 36 32 30 
25 23 26 21 23 20 25 29 26 27 25 25 26 26 26 29 27 26 25 27 28 28 27 27 28 28 32 33 29 24 21 30 34 33 33 32 31 32 32 34 34 31 33 33 34 34 34 38 35 35 35 38 35 35 34 34 35 38 34 35 37 36 36 36 35 36 39 37 37 33 38 38 34 34 33 30 37 30 36 34 
29 24 28 23 24 22 29 32 30 25 27 30 26 28 31 29 28 27 26 27 28 29 27 30 31 30 32 29 29 25 25 29 33 31 33 34 31 30 31 33 33 35 33 34 33 35 34 40 36 36 36 36 33 34 35 36 35 36 35 34 37 34 37 32 34 36 38 38 33 38 34 40 34 36 34 32 38 39 41 44 
29 26 28 27 28 25 31 30 25 26 25 28 25 28 29 29 30 30 29 29 31 31 33 31 32 31 32 34 30 30 25 32 33 33 34 32 31 32 35 33 35 32 36 35 35 37 37 34 34 35 35 39 36 37 38 36 38 37 35 35 38 34 38 34 37 35 41 37 36 36 37 37 35 36 36 35 45 46 49 57 
28 24 27 26 25 24 28 29 26 29 25 29 26 29 30 29 29 30 29 30 31 34 32 34 34 36 34 32 31 29 30 33 38 35 32 32 35 35 35 34 36 36 36 35 33 37 36 36 34 34 38 38 39 39 41 40 37 37 36 36 35 36 37 32 35 37 38 41 38 38 37 38 37 34 33 39 53 49 53 82 
27 27 24 28 26 26 29 29 27 30 26 31 30 33 31 30 31 33 32 32 34 35 34 36 36 39 36 33 35 32 29 31 37 34 35 35 37 36 37 36 37 35 37 35 36 36 35 35 34 33 35 39 39 38 40 37 40 35 39 39 42 35 39 39 36 37 40 37 41 38 42 39 40 35 35 39 47 45 51 110 
28 25 27 25 28 27 26 32 29 27 29 30 29 30 31 32 33 33 32 36 34 36 35 34 36 37 37 33 34 33 28 35 35 36 36 34 37 38 38 37 35 36 37 35 34 34 38 34 34 34 35 35 35 37 40 37 37 37 35 37 37 37 37 34 36 39 39 40 40 36 38 41 39 36 38 40 44 42 50 117 
26 21 24 27 29 29 30 36 32 27 28 28 30 31 32 33 32 33 34 35 37 36 37 37 37 38 36 35 33 30 26 30 32 35 36 35 36 34 33 34 35 37 37 32 35 36 34 35 34 31 34 33 35 31 31 32 34 33 33 36 39 36 40 37 36 35 41 36 41 38 43 39 39 37 37 40 45 43 52 109 
29 25 24 26 29 28 29 32 30 28 26 28 28 28 32 34 36 36 35 37 37 40 39 39 40 40 34 31 35 31 25 28 35 34 35 36 34 36 35 34 37 35 35 34 35 32 32 32 32 32 37 34 34 31 34 34 34 36 32 33 38 32 37 36 35 38 39 40 40 39 44 41 41 43 42 56 62 53 52 100 
28 28 25 25 30 28 30 29 30 29 27 28 29 32 32 34 35 34 38 34 40 42 43 41 43 36 37 33 34 29 24 26 35 39 37 39 36 38 36 38 38 35 36 37 35 37 35 36 37 35 36 34 34 33 37 36 36 38 36 34 38 35 37 35 38 38 41 42 42 41 43 61 75 92 119 147 140 100 90 131 
27 28 29 26 32 28 35 29 31 30 28 30 29 32 34 34 38 36 39 38 40 45 43 42 43 40 41 39 39 37 33 29 34 38 35 35 36 38 37 37 37 37 34 39 39 35 37 36 38 35 35 36 36 34 34 36 38 41 38 34 39 38 37 32 40 37 42 43 41 45 72 122 143 158 171 175 160 142 148 173 
29 25 27 26 28 30 33 36 31 33 29 31 30 32 33 35 35 38 37 42 40 41 41 43 46 45 47 46 45 42 38 32 33 38 37 37 37 38 38 37 37 38 36 38 35 36 38 40 34 36 37 35 35 36 34 36 38 38 37 34 38 37 36 36 39 41 41 43 52 74 105 121 134 139 144 152 158 168 175 195 
30 26 26 28 28 30 36 31 33 29 34 33 33 36 38 37 40 34 36 43 41 41 45 44 47 48 51 51 47 44 41 32 33 36 37 39 38 37 40 38 39 36 37 37 38 33 34 33 33 34 34 35 35 34 36 37 39 36 36 36 40 37 38 37 38 39 39 45 67 96 118 128 134 139 146 163 182 197 218 236 
27 27 25 27 28 26 33 32 35 33 31 34 34 33 36 36 39 41 40 43 40 43 43 44 45 49 51 49 48 45 37 31 38 39 39 41 35 41 38 43 37 39 36 38 39 38 37 35 34 36 35 36 35 36 39 37 37 39 34 37 42 38 40 39 40 39 41 45 66 105 133 146 151 159 170 183 199 214 230 241 
29 27 29 28 28 28 34 34 36 34 37 33 34 36 40 40 40 40 43 43 43 45 48 46 47 51 56 48 46 47 42 35 34 39 41 42 39 41 40 40 40 39 38 38 37 39 35 37 37 35 35 35 37 41 38 38 39 38 38 36 40 35 38 39 39 39 41 46 66 106 137 153 158 167 176 185 201 215 231 242 
29 29 33 27 28 29 32 34 36 37 34 34 38 40 36 40 42 40 41 44 44 44 50 49 50 51 53 52 49 47 44 35 38 38 40 41 38 37 41 40 42 41 40 39 38 37 36 38 36 36 34 36 38 42 43 46 40 39 38 41 39 42 40 41 39 40 45 43 59 100 131 150 157 166 172 180 201 216 230 237 
33 36 35 33 32 31 35 36 39 38 37 36 37 44 41 41 43 44 46 43 49 48 49 49 54 52 54 56 50 46 42 40 38 40 44 43 39 42 43 40 40 41 41 39 39 38 39 39 38 38 37 41 38 44 52 55 46 50 43 42 41 40 38 41 44 42 43 46 54 93 127 151 154 164 169 184 198 214 227 233 
33 33 37 32 32 34 37 39 40 39 38 37 40 39 40 45 45 41 41 48 50 52 51 51 54 53 55 56 51 52 47 38 39 39 46 42 41 42 42 42 41 40 41 41 39 43 37 37 36 39 36 39 38 47 54 75 86 67 48 44 41 42 42 39 40 42 43 40 47 88 123 145 153 160 167 179 191 211 227 232 
39 39 38 36 42 40 41 38 41 41 41 39 41 47 45 46 47 46 48 54 55 56 58 57 60 60 63 58 58 55 51 45 44 43 44 45 44 46 49 45 43 43 41 43 42 42 41 42 42 41 42 43 43 55 107 219 162 99 60 46 46 42 44 44 41 45 43 47 51 81 121 143 152 162 166 174 193 208 222 235 
42 41 40 39 39 41 45 42 44 44 44 43 44 48 49 52 51 51 51 57 60 61 65 64 65 65 67 63 60 61 52 46 45 44 50 48 48 49 47 44 46 44 44 42 46 46 47 44 43 43 43 44 48 58 125 249 162 95 58 48 51 40 44 42 44 45 45 51 51 76 114 143 148 156 161 174 185 195 217 230 
46 43 43 40 41 41 47 46 47 45 43 47 46 48 50 52 51 54 55 60 65 66 69 65 70 69 67 64 61 58 53 47 46 47 50 49 48 50 45 44 48 47 44 43 45 45 49 44 43 42 43 44 48 52 71 99 88 66 50 46 45 40 43 43 39 43 46 46 49 71 110 137 147 153 158 164 161 160 208 228 
54 49 48 44 45 49 50 50 50 49 51 49 50 51 52 57 59 60 64 66 69 71 75 72 75 74 80 75 71 61 55 51 44 46 50 47 50 44 46 45 47 48 47 47 47 48 46 50 44 45 44 49 46 47 52 57 60 58 51 45 50 44 44 41 44 43 48 51 50 66 103 133 147 153 156 162 160 174 216 227 
63 60 60 56 55 53 56 55 56 55 56 56 52 54 55 58 59 59 65 71 75 79 83 83 80 83 85 82 74 66 57 55 50 50 53 53 49 49 58 67 54 51 51 48 51 49 51 50 47 46 48 47 47 47 47 51 51 50 47 45 46 49 45 46 45 46 48 47 52 59 102 132 146 154 159 169 178 195 215 219 
90 82 79 68 63 54 64 61 57 58 58 59 55 56 56 59 64 64 72 72 78 83 83 82 85 93 94 85 75 65 61 57 52 51 55 55 55 55 89 128 65 53 55 53 54 49 53 52 48 45 49 50 47 50 50 47 46 48 46 46 47 43 47 43 49 46 47 52 50 53 100 134 145 156 158 165 177 195 212 216 


