P2
80 60
301
38 35 46 59 100 106 68 43 80 104 79 48 43 39 39 34 31 30 26 29 26 23 23 23 24 23 26 26 29 30 28 30 27 28 26 25 23 26 27 26 23 23 24 26 24 27 24 20 18 16 14 18 15 19 17 15 18 17 20 21 24 24 26 25 26 21 28 26 26 25 28 23 24 25 24 25 28 28 25 24 
36 36 47 62 105 105 63 44 79 102 75 47 42 38 37 34 29 29 29 27 25 25 24 23 27 27 31 29 28 31 26 26 28 25 24 23 23 24 24 22 25 23 29 23 23 27 29 20 16 21 14 17 21 17 22 19 22 21 24 27 27 27 27 32 23 21 20 24 21 24 23 25 22 27 26 26 27 26 25 29 
35 37 50 65 106 101 56 46 84 101 72 40 40 34 32 32 30 30 27 25 25 24 24 25 28 31 25 31 30 30 25 26 23 23 26 24 25 22 26 23 23 25 24 26 24 29 26 23 24 21 18 22 26 25 21 24 27 29 31 30 33 32 27 28 26 20 21 21 25 27 25 25 26 25 27 23 29 28 27 26 
32 35 47 69 110 98 54 47 89 95 66 38 33 35 34 30 28 29 30 28 28 25 28 28 30 26 28 32 30 32 26 25 27 23 25 25 21 21 25 26 25 25 28 23 27 30 28 30 27 26 28 29 30 26 26 29 27 31 31 31 27 30 27 26 24 20 20 23 28 27 28 23 23 25 25 25 30 26 24 27 
34 38 48 78 116 95 54 54 91 97 58 40 37 32 31 28 26 28 27 22 27 27 26 26 28 28 25 31 31 29 26 26 28 20 25 22 21 21 21 23 22 23 25 25 23 28 25 28 28 29 22 26 27 28 25 28 25 27 27 27 29 23 25 23 22 24 21 25 24 24 28 27 25 23 28 25 31 25 18 22 
31 37 49 86 110 91 52 51 93 95 57 37 33 32 30 28 30 27 29 28 30 29 28 25 26 29 23 29 29 29 28 23 23 24 23 23 20 21 21 25 23 28 25 25 28 27 24 25 29 26 23 27 26 26 23 26 24 24 23 24 24 25 24 26 26 25 18 23 28 30 27 27 25 26 29 26 29 25 20 22 
33 39 50 85 110 90 51 52 98 90 49 31 30 29 29 26 26 24 26 26 28 27 26 24 25 24 26 27 31 29 25 25 26 20 24 25 20 23 23 20 23 24 21 21 23 25 22 23 27 25 23 24 24 24 22 28 27 24 24 23 30 25 27 27 28 23 19 19 24 28 26 27 28 26 27 25 24 25 23 23 
25 35 45 85 107 84 42 49 94 84 47 26 24 26 24 21 23 28 27 25 22 20 22 21 20 21 19 23 23 26 21 22 22 26 21 24 18 23 21 22 21 25 21 23 23 22 22 22 20 24 22 21 22 23 22 21 20 23 22 26 28 29 28 24 24 19 17 16 25 24 25 24 27 24 24 21 24 25 23 25 
22 30 38 88 113 85 39 52 100 85 45 24 26 26 24 24 24 24 24 20 25 22 21 23 25 22 24 26 26 28 24 24 23 23 21 24 23 23 21 23 23 24 23 22 24 26 23 21 20 21 19 19 26 24 21 23 25 29 27 26 29 29 29 29 27 24 20 21 24 27 29 24 26 26 25 26 23 26 25 29 
9 2 20 88 112 79 34 51 106 93 39 23 20 22 20 20 21 24 21 22 22 24 21 25 22 23 22 22 25 27 25 25 21 23 23 21 23 24 21 21 23 24 25 24 22 27 24 25 24 20 18 19 25 19 23 29 27 30 29 32 32 29 30 25 28 22 21 18 25 26 27 27 25 27 26 26 26 28 28 26 
21 10 27 92 114 72 29 56 117 93 29 16 13 13 15 14 18 19 19 21 19 20 21 20 18 21 20 21 21 24 24 21 22 23 20 20 23 18 24 24 25 20 19 24 23 21 24 20 23 24 23 25 26 25 23 27 26 28 25 25 28 29 27 28 27 26 21 17 25 26 28 25 28 28 23 23 24 26 25 27 
33 25 38 100 117 75 30 60 115 92 26 14 13 11 9 13 10 11 13 14 14 17 17 18 21 20 20 22 22 22 19 19 23 21 20 23 21 21 20 24 22 25 22 23 22 23 19 20 25 25 27 27 30 27 26 29 25 29 29 29 28 31 30 27 27 23 22 21 22 27 29 26 26 25 26 23 23 25 23 24 
23 29 30 99 118 76 32 66 114 91 26 9 11 10 9 8 12 8 10 5 2 5 2 7 8 10 11 10 11 10 15 17 19 16 19 20 20 19 21 20 21 21 19 21 19 21 23 23 27 25 25 25 29 25 26 26 25 28 28 28 27 30 25 26 25 26 22 21 25 24 25 26 27 27 25 24 27 28 23 25 
26 23 35 102 107 64 32 69 113 84 25 14 12 12 13 14 11 6 11 6 6 5 4 5 2 6 1 5 6 4 2 3 9 9 15 18 18 17 18 22 21 22 23 20 23 25 26 24 25 26 27 23 28 24 26 27 28 28 28 31 29 32 26 28 25 24 22 21 22 26 27 29 30 29 28 27 25 25 24 25 
24 25 45 102 102 58 32 75 111 78 27 16 15 15 16 13 11 13 11 10 6 8 7 7 7 6 7 9 11 6 5 0 2 9 16 21 20 18 20 19 21 22 27 25 25 28 26 28 27 25 28 26 28 30 28 27 28 29 29 29 31 31 30 29 28 32 26 18 23 29 29 31 28 29 27 32 30 25 24 23 
24 24 44 103 97 53 27 76 104 73 24 17 14 15 13 12 10 11 10 10 5 7 6 8 4 5 5 5 6 8 3 5 13 16 20 22 21 18 17 17 22 24 24 26 25 27 27 24 24 24 22 24 30 26 29 27 28 27 27 30 31 27 29 26 26 29 25 22 20 26 28 28 29 24 25 28 25 21 26 25 
23 24 47 106 95 50 32 77 100 67 22 17 15 14 12 12 12 12 9 11 7 10 9 4 6 5 6 7 6 10 14 21 21 19 18 21 19 19 22 22 22 23 25 23 24 25 25 26 25 25 23 28 29 26 30 26 28 30 29 30 26 30 29 26 28 28 27 19 19 24 32 28 28 26 25 29 29 27 24 24 
25 21 50 103 97 50 28 79 101 67 20 15 16 18 13 14 11 11 12 12 11 9 10 8 10 7 9 9 13 18 21 25 22 18 22 20 21 22 22 20 21 22 22 24 25 25 27 25 30 26 24 28 27 27 23 28 28 29 28 27 30 30 28 31 28 31 29 21 21 22 29 27 29 25 28 28 31 33 26 21 
27 23 50 102 93 48 29 79 98 64 23 17 15 16 15 14 12 12 9 12 12 8 10 8 7 5 6 7 17 17 21 22 21 18 17 20 15 21 18 17 20 21 22 22 23 26 22 23 23 22 25 27 26 25 25 24 28 28 28 27 29 26 26 28 26 29 28 22 16 23 26 24 28 26 26 29 28 32 30 28 
31 23 55 103 94 50 28 85 101 60 23 16 17 15 15 15 14 15 15 13 11 12 12 10 11 8 8 8 14 21 24 22 23 19 19 19 21 21 26 24 22 21 24 25 23 26 24 24 25 27 29 25 27 29 27 30 28 32 31 30 30 29 30 30 30 30 32 26 16 21 27 28 29 30 26 29 29 32 28 29 
32 28 66 109 92 47 33 90 102 59 22 17 19 18 17 19 17 16 15 14 9 11 10 12 11 10 8 12 15 15 23 17 22 16 20 22 19 24 22 22 22 21 21 24 24 28 26 26 26 25 26 25 26 28 25 29 28 33 28 29 30 31 28 30 29 31 31 29 22 20 27 24 32 29 32 30 30 30 32 28 
34 33 77 121 93 43 35 92 100 58 21 18 18 18 17 13 16 18 15 17 12 15 11 11 11 10 10 12 11 13 21 21 21 16 18 22 17 20 23 18 19 21 21 22 22 24 25 23 25 28 25 23 29 28 26 28 26 29 29 29 31 30 31 29 30 25 28 26 24 20 22 29 30 30 28 26 27 31 27 33 
83 80 114 128 89 37 41 92 100 58 20 20 18 17 15 16 15 18 16 13 14 13 13 9 10 8 9 11 10 14 18 20 18 18 22 17 19 17 17 19 20 22 20 23 23 24 24 25 26 26 24 24 27 25 25 26 27 29 27 29 30 29 30 30 25 26 29 28 24 18 20 24 29 27 28 27 26 30 26 28 
112 110 112 107 76 35 42 96 97 56 22 24 21 15 17 16 15 16 16 16 11 14 14 12 9 9 10 15 11 13 24 20 19 18 20 15 21 22 21 24 21 23 22 24 23 24 24 23 24 27 29 26 31 28 25 28 26 27 28 28 32 28 29 30 27 30 28 30 29 30 19 22 26 28 24 30 29 33 29 28 
101 101 97 89 55 35 43 98 100 58 26 20 23 18 19 17 20 19 18 18 16 15 15 15 13 11 12 14 17 16 21 23 20 20 22 20 20 22 24 26 23 23 24 23 22 24 26 27 28 27 26 28 31 30 25 30 26 32 27 29 32 32 31 30 29 30 32 31 31 28 24 21 21 24 28 32 29 28 29 26 
46 47 51 46 32 30 47 105 102 54 23 21 19 20 18 21 19 22 14 14 15 19 14 15 13 11 12 12 14 12 22 21 20 23 23 25 25 22 26 26 26 26 26 26 23 27 24 26 26 29 30 25 32 30 26 27 32 30 29 30 32 30 33 33 30 31 31 33 32 29 32 28 25 19 21 26 26 28 29 32 
36 30 30 28 31 32 52 118 107 54 27 22 21 20 18 18 16 21 19 17 16 15 14 17 19 12 11 15 14 13 23 25 23 22 23 24 22 24 28 25 26 25 26 24 24 26 24 25 27 26 28 28 28 26 27 28 28 28 29 29 30 30 30 29 30 32 30 29 31 31 32 32 26 26 26 24 28 23 26 30 
79 69 61 56 53 51 69 126 101 49 22 20 21 19 19 17 20 18 18 16 19 16 14 16 15 13 13 12 13 13 20 20 21 22 25 23 22 22 27 24 26 25 26 23 24 26 24 23 26 27 26 24 30 28 29 30 26 28 29 31 28 29 30 29 33 31 31 33 30 27 27 32 29 29 28 29 34 28 25 26 
122 114 109 107 103 103 111 115 92 50 22 21 21 19 19 20 17 19 19 20 17 18 15 15 14 14 14 14 18 14 20 27 21 24 23 25 23 27 26 26 25 26 26 23 22 24 27 25 28 29 26 24 26 27 29 29 26 26 29 29 26 32 29 29 30 32 34 30 32 30 31 30 30 31 31 33 33 26 27 28 
100 100 104 104 98 100 97 96 78 33 22 22 21 18 20 20 21 22 18 20 20 16 17 14 15 14 14 12 16 15 20 24 19 21 25 25 23 27 25 27 28 24 23 24 23 28 23 25 29 25 25 25 28 28 28 27 28 28 28 28 29 32 30 32 28 29 29 31 31 29 31 30 30 28 32 30 32 28 28 28 
44 45 50 53 57 62 60 61 42 25 21 22 22 21 22 20 22 21 22 16 21 18 18 18 14 16 16 13 15 16 22 26 22 24 22 25 23 25 27 27 25 26 26 26 26 25 26 24 25 28 26 27 31 27 29 32 30 31 26 29 32 29 30 30 30 31 30 31 33 32 31 32 31 31 30 30 33 30 31 31 
29 28 28 28 28 31 29 28 26 21 22 22 25 25 24 21 24 24 25 20 22 21 21 22 19 17 19 18 15 16 23 26 24 25 24 28 23 27 27 27 26 26 27 25 31 26 27 25 28 26 30 26 32 29 27 27 28 28 31 32 30 34 33 33 33 32 31 34 30 32 30 32 34 30 29 30 34 32 31 32 
27 26 26 27 28 30 25 25 24 24 23 21 24 25 23 20 25 24 21 22 20 25 24 20 18 20 21 20 19 15 24 26 27 24 23 26 25 25 28 27 27 26 26 29 27 27 29 26 28 31 30 27 30 28 31 32 27 29 30 31 33 31 33 33 30 34 34 32 32 35 30 33 34 34 32 30 35 34 33 36 
29 28 28 27 27 29 24 27 23 25 22 23 28 27 27 25 25 25 23 21 24 23 20 24 22 24 21 19 18 17 24 26 29 28 26 25 26 25 29 24 27 25 27 27 29 28 26 28 30 30 29 31 30 28 29 29 29 33 28 31 34 37 32 35 34 33 34 35 35 35 36 35 34 37 33 30 36 36 34 33 
30 28 26 27 27 24 22 27 24 24 26 24 25 28 25 25 25 27 22 24 25 23 24 22 22 20 20 19 21 19 24 25 28 26 25 24 26 23 26 26 27 25 29 26 29 28 27 31 27 29 26 27 33 28 28 32 28 30 30 34 31 34 34 31 30 32 33 33 33 35 30 32 37 33 30 29 33 35 36 37 
32 25 26 26 26 30 22 25 25 22 23 25 24 25 23 27 27 28 24 26 26 25 22 25 20 20 23 23 18 18 24 30 29 26 25 26 24 26 27 27 24 26 25 26 29 28 27 29 28 27 26 28 30 30 28 31 29 33 31 31 31 31 30 29 32 30 33 35 34 36 32 33 36 33 31 31 36 38 34 39 
31 27 28 28 29 25 24 27 25 25 25 24 24 27 29 24 27 30 23 27 26 25 28 24 26 22 24 26 22 19 25 30 27 24 26 29 26 26 32 27 27 29 26 27 28 30 29 29 30 32 30 30 30 31 29 33 29 32 31 31 32 31 32 33 30 33 31 35 31 34 32 34 35 31 33 35 33 36 35 41 
32 30 29 29 28 29 24 29 27 25 27 26 26 25 26 26 25 25 27 25 24 24 26 25 26 23 25 27 20 20 24 28 28 26 28 25 26 24 28 26 28 28 29 29 25 30 29 30 29 29 29 28 29 31 30 31 27 29 29 30 32 33 32 32 34 35 34 35 36 34 35 34 34 35 34 31 35 36 38 48 
34 32 32 30 26 28 26 30 27 27 24 27 27 30 29 26 28 28 28 26 28 28 27 26 28 24 28 29 24 21 24 29 31 27 30 24 26 28 30 29 29 30 26 28 30 32 29 30 31 27 31 30 33 29 28 30 30 29 30 36 32 28 32 31 35 31 33 34 34 34 35 35 37 38 35 33 35 35 44 56 
34 31 32 27 23 32 27 32 24 25 26 29 32 29 29 30 28 27 31 28 27 27 24 28 29 24 27 28 27 20 25 28 30 27 28 27 28 28 28 25 30 30 27 27 28 31 30 28 30 28 30 27 33 26 30 28 28 30 27 29 33 29 28 28 32 34 37 32 30 35 35 33 34 35 33 38 48 55 68 96 
33 29 33 32 28 33 28 31 26 24 27 27 27 30 30 29 31 30 31 27 31 30 31 32 33 27 29 27 28 26 25 30 29 31 31 27 29 26 29 28 29 32 30 31 29 30 30 31 30 30 30 31 34 29 29 31 27 32 32 30 33 29 34 30 33 34 35 38 32 34 37 35 36 36 37 54 66 63 85 174 
30 28 29 37 27 34 29 30 26 23 28 29 30 31 33 34 32 32 34 30 31 32 32 32 33 26 29 29 32 27 26 32 33 31 29 28 30 28 33 31 32 30 32 28 29 29 29 31 31 29 29 28 33 31 30 30 32 34 31 30 34 34 32 31 33 36 39 34 34 36 36 39 39 43 40 47 59 96 185 246 
31 26 34 33 34 29 30 30 30 27 27 29 29 33 30 35 32 34 35 33 32 30 35 33 31 30 29 31 31 23 25 31 33 31 31 29 33 32 29 31 30 29 28 30 30 31 30 26 32 28 32 26 32 32 26 26 31 28 31 30 35 31 34 34 31 34 37 38 37 37 38 40 40 42 51 66 137 224 265 278 
35 29 28 35 33 33 37 35 27 24 28 29 31 31 29 35 32 36 33 36 35 34 36 37 34 33 29 29 31 26 25 32 31 29 29 32 32 31 31 32 31 30 29 29 30 30 31 29 29 29 32 27 34 27 29 28 29 31 31 34 34 34 32 34 32 34 37 36 37 36 46 51 65 92 127 181 249 275 288 282 
30 26 29 32 34 36 34 32 30 26 31 31 30 33 34 32 35 35 38 38 37 36 37 36 37 33 27 29 32 27 26 29 34 32 33 34 35 32 31 29 32 32 33 29 30 30 27 30 34 29 30 34 33 27 29 29 30 28 30 30 35 34 32 34 33 35 37 38 42 51 91 130 163 212 249 268 294 299 282 276 
32 33 34 35 32 39 33 32 29 26 28 30 32 34 37 37 38 36 39 41 39 37 39 39 35 34 29 25 28 27 22 26 34 34 36 34 31 30 34 34 34 31 30 32 32 29 32 30 33 34 31 33 32 29 27 27 29 31 31 31 34 34 31 33 35 36 40 38 46 88 139 208 252 272 280 288 301 284 259 248 
34 32 33 33 34 35 33 33 30 28 32 31 34 35 35 34 36 40 38 40 43 39 40 40 38 38 34 35 33 35 29 29 33 32 33 31 34 31 34 33 33 32 31 29 29 34 30 27 32 32 31 32 34 30 31 30 29 30 32 31 36 35 36 30 37 39 38 39 55 100 143 226 236 233 221 216 209 199 206 212 
35 33 36 35 35 37 34 29 35 31 30 34 33 34 37 36 40 43 38 44 40 40 43 39 41 45 42 41 39 39 32 28 33 33 35 34 33 30 35 32 37 33 32 30 33 30 35 29 31 32 30 28 31 32 30 33 31 32 33 36 38 36 35 33 38 36 40 44 71 105 122 151 149 155 155 161 170 181 192 227 
34 31 33 39 36 35 34 31 34 31 30 28 35 35 36 37 39 41 40 38 40 41 44 43 47 46 45 41 43 40 33 33 34 35 34 35 35 34 34 36 36 35 33 31 30 33 30 31 29 33 28 32 33 28 31 31 32 33 32 34 36 34 37 36 37 37 38 50 82 109 124 134 133 141 153 169 185 202 225 244 
31 32 31 33 34 35 34 36 32 32 34 32 36 41 36 39 41 39 42 39 41 44 41 43 43 48 46 44 44 41 34 30 34 38 36 36 35 36 35 35 34 34 34 32 31 31 28 32 32 33 30 33 35 32 32 30 32 32 34 35 36 34 36 34 37 39 39 49 82 116 137 147 151 164 170 182 199 215 236 247 
39 34 36 33 36 35 34 35 36 32 35 36 39 40 41 38 41 43 43 42 42 46 44 43 46 45 47 43 44 38 37 31 33 33 37 40 34 33 37 37 36 37 34 33 32 30 33 32 32 30 32 34 33 33 35 31 33 32 33 33 37 34 36 37 35 37 41 46 81 115 142 150 160 166 174 188 199 217 239 251 
38 34 41 36 36 38 36 38 37 36 35 36 37 38 37 39 42 42 43 47 46 48 49 45 48 45 47 46 45 42 36 34 34 37 37 35 37 34 38 39 36 33 36 34 30 34 34 34 34 36 34 32 34 40 43 37 38 37 34 33 37 35 36 39 38 39 40 45 76 112 138 148 156 164 172 187 201 215 238 253 
38 40 40 41 39 39 36 39 39 39 38 40 43 40 41 40 46 46 47 46 48 47 49 47 51 49 48 49 48 45 41 37 34 39 40 39 39 38 40 38 38 37 34 34 35 35 33 33 35 33 32 34 40 40 50 47 44 41 39 39 37 37 38 37 41 39 44 44 67 107 132 149 154 162 172 186 200 214 232 243 
41 36 42 43 41 40 41 38 38 38 40 39 44 40 43 43 47 45 49 55 51 52 51 51 51 53 52 49 45 46 40 34 36 38 40 41 41 38 38 38 36 36 38 35 35 33 33 35 33 36 34 36 39 43 61 79 67 52 43 41 41 38 38 39 43 38 43 43 64 102 129 145 154 161 166 181 199 214 230 248 
44 41 46 44 44 48 46 43 42 38 41 43 44 41 47 44 52 49 55 55 54 52 54 56 55 58 57 57 53 48 46 39 38 42 46 43 39 40 37 41 39 39 37 35 37 34 38 32 35 38 38 37 45 61 177 192 121 68 44 41 43 39 41 39 42 40 41 46 62 98 126 142 149 159 168 179 197 210 230 244 
49 48 46 45 48 50 46 48 45 45 45 46 50 50 51 52 55 57 54 56 59 60 63 64 61 62 62 56 56 54 48 44 42 45 48 47 44 40 43 43 43 43 42 42 37 39 40 38 41 39 43 42 48 72 205 203 121 69 49 43 43 39 40 42 42 42 42 47 59 98 124 143 148 160 162 174 187 202 228 241 
50 47 51 44 51 49 51 51 51 47 49 48 52 53 51 54 57 59 62 64 63 67 67 68 65 66 65 61 61 57 51 43 41 46 50 44 47 42 41 45 42 42 41 41 41 43 42 39 40 41 41 40 47 50 82 91 71 52 44 44 41 40 39 42 41 42 42 45 55 89 120 140 148 154 158 160 155 179 224 237 
59 51 50 52 54 58 51 57 53 50 52 51 55 56 56 59 59 64 66 64 68 72 71 75 73 76 73 67 64 60 52 45 44 47 52 46 46 37 37 46 43 45 42 47 45 46 42 38 41 45 42 44 43 44 49 53 51 48 43 45 44 44 42 43 43 43 46 44 53 87 116 136 146 153 154 154 152 193 219 239 
63 63 64 61 57 63 56 57 55 55 57 54 58 59 58 59 63 64 68 68 75 80 82 83 81 84 78 73 67 59 53 47 46 47 51 48 47 45 63 56 44 48 47 45 44 45 46 44 46 43 46 43 45 44 44 48 44 44 46 42 43 48 41 42 45 43 47 47 56 77 112 139 151 156 158 168 180 202 221 232 
81 78 77 70 68 67 64 67 63 59 60 63 62 61 61 68 65 72 77 82 79 82 80 79 88 89 87 75 67 62 57 53 51 53 55 51 55 67 123 86 52 53 50 48 47 45 49 46 47 45 46 43 44 43 46 45 42 46 41 47 48 44 45 42 45 44 45 50 56 74 110 138 147 153 160 174 185 200 221 232 


