P2
80 60
253
22 16 22 27 33 46 82 89 66 36 56 88 82 44 38 31 30 30 26 24 22 24 20 20 21 21 22 24 28 30 31 28 25 25 24 26 26 22 23 23 23 25 25 26 22 24 28 26 25 21 13 18 15 16 14 13 13 17 18 15 15 16 15 15 20 19 19 24 24 22 21 22 17 18 16 17 14 12 13 16 
22 22 22 26 32 48 91 91 63 36 58 89 78 42 35 32 30 29 26 25 24 24 20 20 19 16 22 23 28 28 29 30 27 28 25 25 24 23 25 24 23 26 22 23 22 24 27 26 25 20 15 18 13 15 14 16 18 17 16 16 19 14 18 20 22 21 18 26 22 19 21 21 20 15 14 18 21 18 9 9 
20 18 21 29 31 46 89 87 57 34 65 90 71 38 37 29 28 23 28 24 23 21 21 22 21 21 27 25 26 30 27 30 23 25 22 25 24 25 25 22 23 23 24 22 23 29 25 25 27 20 17 19 20 19 16 19 20 18 19 20 21 21 25 23 25 22 21 20 18 22 21 20 15 17 16 20 15 14 7 6 
18 16 20 31 33 51 90 91 45 39 70 90 68 33 29 27 25 27 24 25 26 21 19 19 20 23 26 23 27 29 28 29 27 22 24 21 24 21 22 24 22 24 23 25 26 27 28 26 26 25 22 22 24 23 24 26 25 25 26 28 26 22 25 28 27 20 20 22 20 16 19 23 18 21 18 19 13 14 6 4 
20 19 23 29 34 60 104 85 46 37 74 88 58 31 26 26 20 24 24 23 22 19 22 22 21 24 22 25 27 27 30 26 26 21 25 22 21 21 20 20 22 22 23 23 24 27 27 29 28 29 26 25 26 25 29 28 25 27 27 29 26 25 28 24 24 24 24 18 21 24 18 20 16 19 16 16 15 9 7 17 
18 17 25 31 35 69 96 79 44 41 82 85 55 30 27 23 22 23 21 21 24 23 27 26 24 22 26 27 24 29 29 29 24 25 26 25 25 22 22 21 21 20 22 24 25 26 25 28 27 30 27 27 29 26 27 27 27 29 27 27 27 25 24 24 22 23 21 20 23 18 21 22 18 22 18 19 18 13 9 2 
19 22 25 34 35 67 99 77 39 42 88 80 49 24 28 25 22 23 24 23 19 22 21 22 21 23 22 22 27 29 29 27 25 24 22 23 23 25 24 19 23 20 21 23 23 26 27 30 29 30 27 28 27 26 28 28 26 25 26 26 25 23 22 21 24 25 21 20 24 24 22 23 20 22 20 19 18 11 11 12 
14 14 22 28 30 66 94 71 40 45 85 83 40 23 20 20 23 18 21 21 21 19 20 17 20 18 20 21 24 27 27 28 26 21 23 23 20 20 23 18 22 25 23 19 23 20 21 22 24 26 30 25 25 25 23 23 22 21 25 23 26 23 23 28 23 23 19 21 19 22 21 23 18 19 15 18 13 13 8 12 
8 9 13 28 25 63 99 69 32 42 88 79 39 21 22 21 18 18 18 20 21 19 21 20 21 18 20 21 25 25 27 26 23 24 22 22 24 21 21 22 21 23 21 24 22 26 24 24 28 26 24 24 21 26 22 24 23 21 24 24 23 26 25 22 24 28 22 23 22 20 22 26 19 19 17 18 14 17 13 13 
8 1 4 2 9 70 94 63 25 42 93 78 38 21 21 18 17 17 16 18 20 18 20 19 22 18 22 22 23 26 28 25 24 24 25 21 24 21 21 23 25 24 23 23 26 25 28 25 26 27 21 25 22 25 24 24 26 26 25 25 25 28 28 25 28 24 22 21 21 24 21 22 23 23 19 20 14 16 10 11 
11 10 9 4 11 78 92 58 20 46 102 82 22 10 10 10 13 14 13 18 17 16 16 15 19 19 22 20 20 23 26 27 21 24 20 22 21 21 22 22 19 21 21 23 24 25 26 22 24 22 21 21 22 27 23 23 24 27 27 28 30 26 27 26 28 23 25 19 22 26 22 24 23 21 19 18 16 17 14 10 
19 15 15 15 18 87 96 54 19 51 98 73 19 9 6 8 7 6 10 14 11 16 15 16 16 15 16 19 21 21 27 25 23 22 21 22 20 22 20 22 21 23 20 23 23 23 27 25 26 24 23 24 27 27 25 24 26 30 29 33 25 28 25 23 25 27 23 23 17 20 22 24 21 21 21 20 20 14 15 15 
15 14 16 15 14 82 90 54 19 52 98 66 14 7 7 7 7 5 6 5 3 4 5 5 10 12 16 16 18 21 23 20 20 20 19 20 21 20 20 23 19 22 21 23 22 23 24 21 21 22 21 26 28 27 27 27 27 27 27 25 30 29 27 25 24 26 25 21 21 22 22 24 21 22 17 20 22 14 10 10 
13 12 16 18 19 88 81 43 27 63 99 61 18 9 8 7 6 6 5 6 4 3 5 2 2 2 4 9 8 7 7 9 11 17 18 19 18 21 21 21 23 23 21 22 24 21 23 24 27 27 28 26 25 28 27 27 25 24 26 29 26 26 25 23 24 26 23 22 19 22 26 25 22 21 18 19 18 12 12 11 
13 12 15 18 31 88 77 38 21 68 93 56 16 9 11 9 9 8 8 6 0 2 4 1 3 4 5 4 7 7 7 5 1 4 4 8 16 21 21 20 20 19 21 20 24 24 24 26 27 26 28 26 24 30 26 27 26 29 27 28 28 31 24 28 27 24 25 22 20 20 25 27 21 22 19 22 20 15 11 11 
14 16 15 18 33 89 77 33 23 73 94 52 16 11 9 10 10 7 8 5 4 7 2 5 1 5 4 3 3 8 6 6 4 1 5 14 15 21 16 20 20 21 18 24 23 22 24 25 29 27 28 25 27 29 29 25 29 27 29 27 28 24 26 22 29 26 26 23 19 22 26 23 20 22 21 22 17 18 10 12 
15 14 18 18 42 91 74 30 19 77 85 48 17 9 13 14 9 8 6 7 5 7 4 5 3 1 6 3 8 8 8 5 5 13 20 18 21 22 18 17 16 20 18 21 23 22 27 26 27 28 26 25 31 29 27 28 25 26 25 27 27 26 28 22 24 25 27 24 21 19 24 22 22 22 20 20 19 18 10 11 
18 15 19 19 43 95 74 32 23 81 85 46 17 13 11 13 11 9 8 9 10 9 8 6 3 6 7 5 8 8 10 14 19 23 23 21 24 20 24 20 21 22 24 23 22 22 28 27 26 28 27 29 31 29 29 30 28 27 30 27 29 26 30 27 25 26 28 24 20 24 25 26 26 21 22 19 22 21 15 14 
16 12 17 16 46 90 67 27 24 82 82 40 15 10 13 12 9 10 10 6 7 6 8 7 7 6 4 7 7 9 17 21 20 20 21 17 22 20 21 19 21 17 23 21 25 25 25 25 24 25 28 28 28 28 27 27 22 28 29 27 30 27 27 28 26 27 25 24 22 22 19 22 22 21 26 21 23 20 12 14 
17 15 19 21 56 91 72 24 26 81 83 39 14 11 13 11 17 12 11 9 9 9 7 8 8 7 9 9 9 13 21 24 21 20 19 16 22 17 21 20 22 21 18 22 24 24 25 24 26 26 27 28 30 27 29 27 28 27 28 30 27 28 26 26 27 25 26 25 21 18 21 24 26 24 23 21 21 22 13 19 
20 21 21 24 66 100 73 29 28 93 81 39 17 13 15 14 14 12 13 12 9 9 7 7 8 9 9 10 9 11 17 22 21 21 19 18 20 17 20 17 20 21 22 24 22 27 27 26 26 27 30 29 29 27 25 26 25 27 29 32 28 30 29 27 27 29 26 24 22 18 20 23 25 22 23 20 20 22 18 19 
45 39 37 40 81 108 73 27 34 95 82 35 15 12 15 13 13 13 12 10 11 9 8 8 7 7 9 8 11 13 12 19 23 19 20 20 17 21 20 21 23 21 23 26 22 25 25 28 29 29 29 28 28 28 31 28 26 29 29 27 29 27 29 30 30 28 28 25 25 21 18 24 25 22 21 21 21 24 16 15 
103 97 96 90 106 105 60 24 43 93 83 34 15 14 11 12 12 12 13 9 12 8 12 9 10 5 9 12 13 10 10 17 22 20 21 18 20 20 19 16 23 21 22 24 21 25 25 27 27 28 30 31 27 27 27 27 29 28 27 27 29 26 29 27 29 29 28 25 23 21 18 24 23 22 23 22 23 22 16 14 
105 101 103 104 98 92 49 29 52 96 80 26 15 11 13 12 10 9 12 10 12 9 12 10 8 6 9 10 10 12 10 18 19 19 19 18 21 21 22 20 22 21 22 27 25 25 25 24 29 27 31 27 29 26 28 27 27 28 28 27 28 26 28 27 29 28 29 25 26 24 21 23 22 23 20 25 21 18 16 18 
59 62 73 82 76 66 28 26 53 97 79 30 18 12 15 15 14 14 13 12 14 12 14 12 13 8 10 10 10 12 16 18 23 21 21 21 24 20 22 21 24 23 25 25 25 27 27 29 27 30 30 30 29 30 27 28 26 27 29 29 31 30 35 28 31 29 29 27 29 25 26 22 22 21 22 19 23 23 16 20 
29 26 26 30 28 29 23 27 57 103 80 35 17 19 15 16 14 17 15 14 15 11 14 13 15 12 14 14 13 15 13 21 23 26 21 22 22 23 24 24 25 25 25 28 28 28 26 26 30 31 29 29 30 31 32 31 29 28 31 28 30 27 29 30 29 27 30 29 27 30 27 28 21 20 19 21 21 23 14 18 
48 41 37 30 21 23 24 29 67 109 81 28 15 14 16 14 12 13 13 15 12 11 13 13 11 12 9 11 12 13 13 23 24 23 22 21 22 21 25 24 24 25 26 26 26 21 26 26 29 28 31 31 28 31 30 26 27 30 30 30 30 31 30 31 29 29 27 26 26 31 26 28 25 22 20 19 22 19 13 16 
108 105 99 90 72 66 59 59 89 113 83 30 17 14 17 15 15 13 14 11 11 10 12 15 11 11 12 14 11 12 15 22 21 19 22 20 26 24 22 26 25 25 23 25 24 25 25 26 27 28 28 28 29 29 30 28 25 27 26 25 30 28 28 27 30 27 28 26 29 28 26 27 25 27 25 24 22 22 18 14 
108 108 110 106 100 102 94 93 100 99 73 23 18 15 14 16 16 13 14 15 15 16 13 11 13 12 13 13 14 14 16 20 23 21 24 25 25 24 25 27 22 23 24 27 24 24 26 28 29 27 29 30 28 29 30 29 28 30 31 28 29 29 27 27 28 30 30 26 28 26 28 27 24 23 27 24 24 21 16 16 
59 68 74 80 78 92 86 91 91 84 53 18 15 16 16 18 15 16 14 17 15 17 16 14 16 12 14 14 16 13 15 18 20 20 21 24 23 24 28 27 27 26 24 26 28 25 28 29 26 28 28 29 28 29 28 27 27 27 27 29 28 29 27 28 31 32 27 27 29 27 33 30 30 26 26 25 24 23 20 21 
25 27 32 30 25 35 35 42 48 36 24 20 17 16 16 18 17 16 18 17 14 20 15 16 13 14 14 16 16 15 13 20 23 22 23 23 24 24 25 27 25 24 28 26 25 27 29 27 28 28 29 30 25 28 26 28 27 29 29 31 32 31 30 27 28 27 30 28 30 29 31 28 27 25 22 22 25 24 21 24 
24 19 22 22 19 22 21 21 23 18 22 18 20 18 17 19 18 18 17 17 19 17 16 17 17 17 13 17 18 16 16 20 26 25 23 20 24 26 27 26 27 28 26 27 29 27 29 27 31 31 28 29 29 31 31 30 26 29 31 30 31 30 32 32 28 30 32 28 30 28 31 34 30 28 24 22 26 27 20 24 
21 22 23 23 18 18 20 21 22 18 20 16 18 16 22 20 19 16 17 18 15 19 17 16 18 17 18 16 19 16 16 20 22 26 24 25 25 26 25 27 26 25 25 28 26 26 26 28 29 30 32 30 28 29 30 29 27 27 30 32 33 28 31 29 29 31 30 28 29 25 27 28 29 29 25 24 27 26 24 25 
21 20 23 24 17 20 20 19 20 22 20 19 17 18 23 19 20 19 18 19 19 19 21 20 20 18 17 17 20 21 15 23 27 25 21 24 25 28 25 24 27 27 28 26 28 29 27 27 27 31 32 31 30 29 32 29 27 26 29 30 31 35 32 32 30 32 32 33 32 28 30 31 33 33 32 27 27 30 21 25 
23 23 22 17 16 19 16 20 19 19 21 17 17 17 21 18 20 20 18 21 18 19 21 20 18 21 20 18 20 15 18 23 24 22 24 24 27 23 25 26 29 27 25 30 26 27 28 29 30 33 31 33 30 34 28 26 30 30 28 34 34 33 32 30 31 32 31 31 28 31 29 32 29 32 31 27 26 27 24 28 
24 25 24 20 17 23 18 17 20 19 21 18 18 20 20 21 23 21 16 20 19 19 20 22 20 21 18 21 24 21 16 20 25 26 25 26 26 26 26 25 24 27 25 26 29 28 30 27 30 32 29 31 31 30 31 30 29 29 28 31 32 33 32 30 34 30 31 30 30 27 27 30 29 30 33 29 27 30 27 26 
23 24 25 23 18 21 20 21 25 22 23 17 20 19 20 24 26 23 21 23 18 20 21 21 22 19 22 22 22 22 20 25 26 27 27 25 28 27 26 28 27 28 27 24 26 30 30 33 34 31 34 29 31 30 31 30 31 29 31 33 33 31 33 32 33 27 30 33 29 29 31 30 28 32 31 31 29 30 29 32 
23 21 27 25 19 25 20 19 23 18 20 19 21 19 21 23 22 22 23 22 23 23 19 21 22 20 22 23 26 22 20 25 29 27 25 26 28 28 25 25 28 29 30 26 29 30 29 32 31 33 30 30 30 32 30 30 31 32 31 32 30 30 33 30 32 30 31 32 30 32 32 31 30 30 32 30 33 30 33 37 
26 21 24 22 19 26 19 20 28 19 19 21 20 20 23 22 25 25 24 25 21 22 25 23 21 24 22 25 29 22 22 23 27 31 29 26 29 25 26 31 28 33 27 26 30 31 30 31 31 31 33 31 32 32 30 29 32 30 31 29 29 32 30 30 31 30 32 31 33 30 31 30 30 32 31 29 34 37 36 46 
29 19 23 24 18 25 20 19 26 19 22 23 20 19 24 24 25 24 26 23 23 23 24 25 23 22 23 26 26 23 27 24 30 29 26 28 28 30 27 27 27 26 27 29 30 30 34 29 30 31 33 33 32 31 31 31 31 29 30 31 30 34 31 31 30 31 31 33 31 31 35 33 29 30 28 34 49 46 40 37 
25 25 24 24 22 23 21 21 23 20 24 19 20 18 23 26 25 25 27 24 25 23 26 26 25 26 25 27 28 25 22 24 28 29 28 27 26 28 29 28 32 31 29 28 30 30 29 30 29 30 33 28 31 30 27 30 31 31 28 30 33 32 31 28 31 30 31 32 31 31 31 34 32 29 30 30 35 37 36 39 
24 21 23 26 24 26 24 21 25 24 22 21 22 24 22 24 24 27 24 30 26 27 25 26 29 29 26 27 28 25 21 20 26 28 27 29 30 28 29 27 31 29 28 30 29 33 35 28 29 29 31 32 32 31 28 32 31 30 32 29 30 32 28 32 31 32 32 30 32 33 32 34 36 32 32 31 37 30 35 36 
23 24 20 23 24 29 24 23 24 20 22 20 22 24 24 26 28 26 27 28 24 29 26 27 29 30 25 27 28 29 21 26 29 28 28 30 27 29 30 30 31 29 29 29 25 30 27 30 31 29 31 33 31 30 31 29 25 28 28 30 30 30 29 31 29 31 31 31 31 30 34 36 35 32 35 33 37 38 35 40 
22 20 23 24 20 25 26 27 26 22 20 22 21 26 27 28 26 30 29 28 28 29 29 31 30 29 27 29 29 28 25 25 31 33 30 30 29 30 31 32 32 31 27 27 27 28 28 28 29 30 29 31 30 29 32 27 26 28 31 30 31 31 30 34 29 30 33 32 29 32 36 40 39 42 49 54 67 80 89 106 
22 24 23 26 20 24 25 27 27 23 25 24 26 25 25 30 29 29 29 28 31 31 32 31 34 29 27 29 27 29 25 23 28 29 29 31 32 30 31 25 31 28 30 29 28 29 28 28 30 31 30 29 30 29 27 29 29 32 33 29 32 32 31 30 31 30 34 32 33 42 62 79 88 100 109 115 134 145 160 191 
23 24 26 26 23 27 28 27 23 24 24 24 27 27 29 25 28 30 31 33 28 34 31 33 34 34 32 28 28 30 26 24 29 31 29 33 30 32 32 28 32 31 26 29 29 29 32 30 30 32 31 31 30 29 32 29 26 32 30 29 32 32 33 32 31 33 35 37 33 61 100 120 130 135 141 150 164 180 196 229 
23 22 28 26 21 28 28 27 23 26 23 23 28 29 31 31 30 31 35 35 33 35 32 33 34 32 30 28 29 31 25 23 25 30 28 33 32 28 32 31 32 33 29 29 30 28 30 28 29 32 30 31 30 30 30 27 29 30 33 32 32 32 31 31 33 32 34 36 39 71 113 145 155 162 172 183 192 211 230 243 
25 25 26 25 24 29 28 25 22 26 25 24 28 25 30 27 29 30 32 31 34 33 35 36 36 34 36 39 32 33 33 30 27 28 32 33 30 32 30 32 32 31 29 29 29 28 31 31 29 29 33 31 29 30 28 27 28 29 31 30 34 30 30 34 30 30 32 36 35 69 117 151 162 171 178 193 203 220 237 250 
28 24 28 27 23 28 29 25 27 27 24 26 27 32 30 33 31 33 34 34 35 33 34 34 39 38 42 43 40 39 37 32 32 33 32 34 31 32 36 34 32 31 31 32 32 28 31 31 32 32 32 33 31 28 27 30 28 29 30 30 33 35 32 31 28 34 36 35 35 63 112 149 160 174 178 189 207 219 236 249 
27 22 26 28 24 26 27 26 23 29 25 27 28 29 30 29 33 34 33 34 35 37 34 37 38 39 44 44 41 39 37 32 28 31 33 31 33 33 31 37 33 34 28 34 30 31 30 29 27 32 31 33 31 28 28 29 30 32 29 31 32 33 33 33 33 33 35 34 36 60 109 145 162 170 176 186 197 217 237 248 
28 27 29 30 28 29 27 27 26 31 26 26 28 32 28 32 32 34 35 35 38 40 39 39 40 37 46 44 38 44 38 33 32 32 35 32 35 36 35 33 34 33 33 34 31 31 29 29 29 31 29 32 32 34 31 32 29 32 32 32 36 34 33 32 35 33 34 36 36 60 107 140 155 166 174 187 200 214 233 250 
31 28 29 30 25 31 29 31 29 29 32 30 30 29 35 34 33 38 38 40 39 41 39 40 41 43 44 44 41 43 40 37 30 31 36 35 33 34 35 34 36 35 33 33 33 34 30 30 34 31 31 32 32 29 35 36 34 32 35 32 32 34 31 31 34 38 35 37 39 53 103 135 153 164 171 183 196 209 231 250 
32 30 33 32 29 33 35 38 31 30 32 31 32 33 38 36 34 39 36 42 44 45 42 43 44 44 50 48 45 41 41 38 29 32 37 36 36 37 33 35 39 35 30 36 31 31 32 33 33 38 38 36 35 35 38 38 37 37 33 35 34 32 33 32 36 38 35 34 37 50 98 134 152 161 171 180 192 209 225 240 
35 33 36 33 33 35 35 35 33 35 34 34 37 31 35 38 38 42 41 43 47 47 47 46 45 47 52 49 48 43 44 39 33 36 38 39 39 37 37 37 34 35 33 37 34 34 33 33 34 34 38 36 36 38 45 46 41 40 39 34 36 36 38 34 37 34 33 36 40 51 94 131 149 162 168 173 179 182 207 238 
38 32 36 37 34 38 37 34 36 35 37 36 38 38 39 41 42 46 44 46 47 51 51 52 51 54 52 51 49 50 46 43 36 36 39 41 39 38 39 40 38 38 35 36 35 36 36 35 34 37 39 37 39 43 51 63 76 63 49 38 36 35 38 36 38 39 37 41 39 49 95 131 149 161 166 170 169 159 207 253 
37 39 44 40 37 41 44 40 39 36 38 41 41 42 42 43 46 48 47 50 52 57 55 55 55 58 56 57 57 52 50 45 40 40 44 44 43 44 40 40 42 42 41 39 36 38 36 35 38 37 40 40 45 44 79 195 168 103 62 47 43 41 39 37 41 37 39 37 44 49 92 128 151 162 168 174 177 191 223 242 
45 42 44 48 40 48 40 41 42 40 42 40 41 41 43 49 50 52 52 53 57 60 60 60 66 58 61 59 58 55 53 46 39 43 46 44 46 42 43 41 38 40 42 38 38 39 38 41 38 40 42 41 44 47 94 237 179 101 59 45 42 40 36 37 37 38 40 41 43 51 88 126 149 160 169 173 188 201 220 238 
50 48 49 51 43 48 48 46 44 43 46 42 44 44 46 48 55 55 56 60 61 63 62 63 68 65 64 61 60 58 54 48 41 43 46 50 45 44 38 40 39 41 40 39 43 40 40 41 40 40 40 41 42 47 59 92 91 66 53 45 41 37 37 35 37 38 39 41 41 45 86 122 147 161 165 176 192 200 216 233 
57 54 57 54 50 56 54 53 49 49 50 47 50 50 51 53 53 58 59 60 63 71 70 75 74 71 74 72 65 64 52 50 45 45 47 47 47 40 38 40 42 43 42 41 43 45 40 45 41 43 41 46 43 45 46 54 55 50 49 44 42 41 41 38 36 39 40 40 39 46 84 125 147 162 173 177 187 205 217 230 
75 73 66 59 52 58 58 55 50 50 51 48 53 56 56 56 54 59 64 69 70 71 76 79 81 80 80 75 66 63 56 54 46 48 48 52 50 48 56 71 47 46 49 46 42 45 46 44 41 47 45 47 44 45 49 46 48 46 48 39 45 40 40 41 39 39 37 38 37 42 73 131 144 164 168 182 190 203 219 233 


