P2
80 60
245
158 102 81 76 66 62 66 69 69 67 75 67 72 71 74 74 76 76 70 75 75 75 72 68 71 64 65 68 73 69 69 69 70 67 69 72 70 68 69 67 73 72 71 69 70 70 74 73 73 77 75 75 72 74 74 74 73 71 76 72 67 73 69 72 67 70 72 70 69 69 69 67 72 67 72 69 68 65 67 64 
172 114 77 80 71 65 66 70 68 70 74 72 73 71 72 75 71 73 69 69 74 74 74 65 63 61 60 71 74 70 67 69 67 67 70 66 68 68 66 69 68 72 70 70 69 67 73 73 75 73 71 70 71 75 71 73 69 70 74 70 65 70 65 69 69 65 69 69 73 69 72 70 70 70 70 66 69 68 63 62 
188 129 78 78 68 63 67 68 71 74 80 76 80 80 76 73 75 74 68 72 73 70 75 68 60 60 61 69 71 72 70 67 67 65 62 65 64 62 66 63 66 69 68 70 68 65 71 70 74 73 74 75 73 71 69 70 65 68 68 67 69 68 67 65 68 65 68 65 71 69 69 67 66 69 70 66 68 63 67 59 
195 135 87 79 68 64 68 71 73 81 91 93 96 83 70 71 71 68 68 73 72 75 73 70 64 64 67 67 71 66 66 70 70 67 63 66 62 59 66 63 65 67 69 68 68 67 73 70 71 69 68 72 73 69 69 65 69 65 70 66 66 65 63 68 72 65 70 66 68 68 70 65 63 68 67 62 67 63 61 56 
208 151 95 79 72 65 70 69 81 92 102 103 104 104 78 81 73 68 65 73 71 73 73 69 69 71 65 69 71 68 68 68 66 65 66 63 62 58 58 62 66 67 66 67 68 67 72 69 74 70 71 68 69 67 66 64 66 65 68 65 66 68 67 67 70 64 69 63 67 64 66 63 65 68 65 67 66 60 63 59 
214 159 101 80 71 69 67 83 90 102 109 116 117 114 89 76 79 74 68 74 73 75 75 70 72 70 66 70 71 74 73 72 71 68 66 66 64 60 61 68 68 71 68 65 68 69 68 67 70 71 70 68 69 68 67 65 67 62 70 64 63 68 64 64 67 65 68 68 68 67 70 65 69 71 70 64 65 62 61 55 
213 162 104 82 75 70 72 93 106 110 113 120 124 123 96 81 76 70 69 73 74 75 77 75 73 68 71 71 70 72 69 70 67 66 69 68 66 66 67 64 66 69 64 69 69 62 66 68 68 69 71 70 69 64 65 66 64 65 65 57 64 65 57 64 69 60 66 63 67 66 69 67 65 66 63 63 65 63 58 58 
207 173 110 88 69 68 79 105 106 113 127 125 129 132 103 77 78 72 68 70 70 73 75 68 74 69 68 74 67 67 70 68 71 67 65 68 62 67 64 68 69 71 67 70 66 67 65 64 66 65 64 63 62 63 59 63 66 64 67 64 57 63 60 62 64 62 66 63 67 63 65 64 66 66 62 61 56 52 57 52 
207 173 112 87 77 73 88 109 114 118 130 129 138 134 103 79 74 69 64 71 70 71 72 71 70 67 68 69 68 66 69 70 67 69 66 64 67 63 63 62 64 63 66 67 64 64 68 65 65 65 62 63 63 59 58 62 60 61 63 60 60 58 54 57 59 58 62 61 65 62 66 64 61 65 60 57 48 41 53 51 
206 177 118 89 84 74 99 114 118 117 129 131 141 129 105 79 76 73 65 76 71 74 76 69 72 69 73 71 72 69 70 68 66 69 67 66 63 66 65 65 63 63 64 70 62 60 66 64 61 63 64 65 60 56 60 59 60 56 64 58 57 63 54 55 53 54 63 59 66 64 70 59 62 67 57 48 37 35 40 52 
211 180 120 94 78 84 115 120 113 115 124 124 145 144 101 79 69 68 70 71 74 76 74 73 70 70 72 72 67 70 69 68 67 62 68 60 64 60 63 60 55 61 59 66 60 62 64 58 63 63 58 60 58 58 54 60 58 54 62 57 53 59 60 58 55 57 60 59 68 66 64 58 64 64 58 41 37 39 38 53 
214 183 132 95 76 93 120 120 114 107 126 132 155 146 94 77 77 73 70 75 70 76 70 70 72 72 70 71 70 73 68 65 69 67 65 63 56 49 53 55 57 63 60 61 62 60 65 55 55 55 58 57 61 61 60 59 58 54 62 54 56 58 59 59 60 58 61 61 62 64 61 62 60 64 59 52 51 45 43 38 
217 184 128 95 79 98 118 110 123 115 124 130 155 141 85 74 73 69 70 75 72 71 74 70 69 70 67 70 71 69 66 68 67 70 69 63 60 45 44 49 52 56 55 58 60 56 59 47 37 47 41 54 57 53 54 54 57 57 59 58 55 59 56 59 62 55 57 58 56 55 60 58 60 61 56 58 56 49 54 51 
214 180 127 96 81 97 111 123 133 125 134 138 159 125 77 64 72 69 66 73 72 73 74 74 73 70 72 74 72 70 69 69 67 66 67 61 59 52 53 53 47 59 61 61 58 57 54 36 23 34 44 55 57 54 61 55 58 60 60 55 54 58 54 59 60 56 59 56 61 60 58 55 59 55 57 56 52 52 58 57 
217 198 134 95 84 103 115 132 133 126 128 148 139 106 78 71 75 71 64 74 76 76 74 74 72 71 70 72 74 69 70 71 65 67 66 63 67 60 60 60 62 59 59 61 58 57 55 46 32 46 49 56 57 53 55 58 51 53 54 59 53 56 52 53 53 53 58 54 59 57 56 54 54 55 54 57 52 59 58 58 
222 197 139 101 86 98 115 135 137 126 144 155 147 95 76 71 77 74 67 71 71 70 71 74 72 71 69 71 72 70 68 69 67 61 63 64 67 65 64 62 62 66 60 61 60 57 62 51 51 56 55 54 54 55 54 57 52 51 54 52 51 56 40 35 46 49 53 51 59 57 56 55 54 54 53 57 54 58 53 55 
223 202 146 103 82 99 114 141 130 146 164 156 140 88 71 75 74 70 67 78 71 76 78 74 75 73 68 69 71 73 74 68 67 66 63 66 63 63 66 63 62 62 67 61 63 60 58 58 61 59 56 61 57 54 51 45 38 44 50 52 50 51 41 37 44 46 53 51 56 51 50 53 55 52 54 57 59 58 55 54 
222 199 142 108 82 94 107 124 142 162 172 169 128 91 72 66 76 67 72 71 71 76 79 72 73 70 71 73 73 71 70 69 70 66 66 67 68 68 66 66 67 62 68 65 68 61 63 61 64 64 58 60 62 55 49 29 21 28 48 50 48 53 49 52 45 48 51 50 52 49 52 52 52 52 56 55 52 54 56 57 
230 204 163 127 105 105 104 140 160 170 177 166 122 78 67 70 76 70 65 67 69 72 73 72 71 68 71 71 70 65 72 70 64 67 62 69 65 61 62 65 65 68 65 65 63 59 66 63 61 63 63 61 57 60 47 36 38 31 46 49 49 51 47 47 55 48 50 45 53 49 50 48 53 48 57 54 57 57 59 59 
240 206 181 168 140 134 127 126 135 156 165 152 112 81 71 73 76 71 71 72 69 73 74 71 69 72 69 66 74 70 69 75 70 70 66 65 64 63 66 62 64 67 65 64 67 64 68 63 61 65 63 61 60 57 56 49 52 48 49 53 48 52 51 50 51 50 50 46 46 50 50 51 52 53 54 56 59 53 64 55 
238 216 186 177 166 149 139 129 130 128 152 134 97 79 69 70 77 70 68 71 66 71 75 74 68 73 71 73 67 67 69 72 67 64 63 61 63 61 62 65 67 67 67 67 67 62 68 66 65 63 63 60 57 57 57 58 53 55 53 49 48 52 49 48 49 44 42 46 43 45 47 45 44 49 56 59 60 59 66 66 
237 221 193 176 160 161 154 142 123 118 123 115 89 69 65 70 73 62 67 72 73 76 75 69 68 71 67 67 68 69 67 69 65 66 65 63 63 63 65 62 60 63 66 66 64 61 66 59 62 61 61 61 59 57 57 58 57 48 56 53 49 53 51 47 42 38 40 40 43 43 49 42 47 50 54 57 59 62 71 75 
234 222 198 184 165 166 162 148 132 113 118 106 83 73 67 69 74 67 66 68 68 73 68 69 73 69 67 67 67 70 66 66 63 63 65 64 63 62 67 60 62 66 66 66 62 62 64 58 56 59 61 58 58 55 56 53 55 53 53 50 48 48 47 41 38 36 36 38 40 41 53 44 50 52 53 60 62 64 69 63 
220 226 199 197 174 171 166 155 145 121 119 98 77 67 59 61 66 65 68 73 69 73 74 66 70 66 64 66 64 67 66 66 60 61 57 57 63 63 64 62 64 65 61 65 61 59 61 57 58 60 54 58 58 51 53 55 54 53 49 45 39 41 38 36 34 36 33 37 45 49 50 47 50 50 49 54 58 60 60 55 
214 217 207 200 191 176 167 165 162 132 120 93 69 63 54 58 70 63 61 73 69 75 75 72 73 70 67 66 69 66 67 69 65 63 58 63 65 66 63 62 64 66 62 63 63 57 63 55 58 65 58 62 57 54 54 54 52 48 47 43 36 40 37 36 33 37 39 43 47 48 50 51 46 50 50 52 52 56 55 54 
210 216 204 203 201 190 173 177 170 150 128 89 72 62 60 58 73 64 62 70 69 74 70 72 70 68 66 65 66 69 66 67 66 63 61 65 61 63 63 64 65 66 61 61 62 61 66 57 57 60 58 59 58 52 54 54 53 49 43 35 35 35 36 39 36 44 49 43 48 49 48 50 48 48 53 49 58 57 61 59 
211 209 211 203 201 195 184 179 181 163 153 107 77 70 69 69 71 71 65 69 67 73 72 71 72 67 67 70 70 68 64 68 64 62 59 60 62 65 66 60 65 65 66 63 62 64 64 58 60 58 59 59 52 52 53 52 48 41 39 36 34 37 37 37 48 48 57 52 52 47 48 45 44 49 51 53 59 52 53 49 
213 206 211 209 198 198 191 189 184 179 163 146 91 77 71 74 73 66 66 68 69 73 72 72 68 67 65 68 65 64 65 68 63 63 59 57 61 62 62 64 61 63 59 66 63 61 65 60 56 57 51 55 52 49 49 48 42 37 39 33 31 35 41 46 52 47 49 55 53 49 51 50 45 47 50 51 52 47 51 43 
215 203 207 210 198 199 193 194 188 177 174 175 139 83 74 74 74 67 71 68 68 75 75 78 70 65 69 64 68 64 62 64 60 64 63 59 65 59 63 61 64 60 60 64 60 60 63 60 56 54 51 49 53 50 44 40 38 35 37 38 34 40 49 47 51 45 48 49 48 50 52 46 46 44 47 46 42 39 34 35 
216 202 200 203 194 200 196 199 187 173 183 171 178 110 76 71 75 64 68 75 77 86 91 95 83 70 65 64 66 65 65 64 64 63 63 68 62 60 61 62 59 66 63 63 59 59 64 59 58 60 53 52 49 47 42 37 36 35 38 36 46 52 53 47 52 48 44 46 48 52 49 52 49 49 47 39 31 23 39 41 
218 207 190 202 196 188 194 198 191 180 184 173 177 140 85 74 72 62 70 75 81 109 119 112 107 97 74 68 66 61 67 62 64 60 65 63 64 63 65 60 63 66 62 65 60 58 61 60 55 58 58 54 48 43 38 35 37 32 43 43 48 54 49 49 49 44 46 47 54 52 51 47 48 48 40 21 17 30 42 51 
217 205 193 197 192 185 194 197 188 178 183 177 180 162 114 77 79 77 73 86 98 124 130 135 128 110 83 71 66 65 65 65 64 67 68 66 68 64 68 61 64 64 62 63 62 54 65 56 53 55 53 51 47 40 42 40 38 38 42 45 49 49 51 51 47 46 49 49 50 48 52 48 47 38 29 27 34 43 54 51 
217 206 197 189 183 186 182 198 184 178 179 179 180 169 146 100 79 69 70 83 102 130 141 135 124 114 96 79 66 67 66 67 65 67 69 60 63 66 64 60 62 64 60 61 60 56 60 56 51 50 46 48 46 44 45 43 42 42 46 44 44 49 44 49 52 47 52 49 52 50 49 41 42 33 29 39 48 47 51 49 
216 207 199 195 183 186 182 191 182 179 183 184 183 174 155 140 89 72 78 86 113 138 139 147 130 120 108 82 67 68 65 68 62 66 65 71 66 59 61 60 63 67 64 60 60 55 60 54 53 50 47 43 44 40 46 42 46 47 46 50 41 44 46 47 51 49 49 52 50 47 42 37 33 41 42 46 54 54 57 44 
212 203 200 201 184 188 181 183 184 176 183 184 183 183 164 163 128 80 78 96 113 142 139 144 138 131 113 98 78 68 68 69 64 65 63 66 65 66 66 63 64 67 62 64 65 60 59 58 52 50 44 43 43 41 45 49 48 48 50 46 50 51 47 50 52 45 52 51 47 41 36 37 41 44 52 57 60 57 56 53 
207 197 198 197 190 183 183 184 177 174 186 181 181 184 175 164 156 102 88 107 128 141 142 137 135 139 124 102 76 67 67 66 64 64 63 63 64 63 64 64 62 65 63 63 60 58 61 52 51 51 49 44 46 40 44 45 50 48 52 49 46 50 46 49 50 43 49 43 40 42 43 34 43 52 56 58 59 54 60 59 
203 192 188 202 197 187 182 184 178 172 187 179 183 182 173 171 165 137 104 110 136 152 153 140 134 133 126 107 78 65 61 66 60 66 62 66 63 65 63 61 62 64 64 62 62 58 60 58 54 54 49 51 45 48 52 48 50 45 56 48 46 44 49 50 48 43 45 43 41 38 43 49 52 56 58 56 54 53 57 53 
201 191 185 195 197 195 188 186 177 170 185 185 185 185 182 175 171 161 132 117 136 149 156 157 148 142 133 105 79 61 51 59 60 59 56 64 62 62 61 63 64 65 61 60 61 57 61 58 55 58 52 56 51 52 49 53 51 50 51 47 46 48 46 47 44 38 41 43 42 39 49 49 49 55 56 58 51 53 55 51 
201 188 181 188 192 196 191 189 182 178 176 181 187 190 186 183 177 170 148 142 136 149 158 155 148 148 135 108 80 62 51 59 62 63 60 65 64 65 67 63 67 66 64 64 63 57 60 61 62 60 51 55 51 50 53 55 51 51 53 52 46 33 40 39 43 37 42 41 47 49 53 48 51 52 53 55 51 54 54 49 
200 192 183 189 186 193 193 188 185 175 182 189 187 187 183 181 174 170 157 145 148 143 148 142 147 149 130 109 76 62 54 58 63 63 61 63 63 63 66 59 63 64 64 62 61 60 65 60 60 60 57 55 53 51 56 57 51 51 53 48 42 39 42 37 35 37 42 54 52 51 50 52 52 51 56 51 53 52 53 50 
202 191 185 194 186 186 204 196 193 178 183 192 193 189 186 182 178 171 161 150 135 141 134 136 141 147 131 106 76 68 64 65 67 64 64 62 67 64 65 64 66 67 64 68 64 62 67 62 61 59 56 56 62 56 58 56 53 50 51 43 44 46 45 50 47 48 58 52 54 52 58 53 55 53 56 56 54 50 45 47 
204 196 187 195 191 196 208 201 196 184 185 192 191 191 178 176 174 163 157 152 139 140 138 138 145 145 119 101 81 70 66 67 67 69 70 65 69 63 66 71 66 67 65 64 63 63 62 65 61 61 57 59 58 56 56 59 52 51 52 44 43 48 47 50 50 52 60 58 56 58 57 61 56 56 55 54 55 52 52 44 
202 193 192 192 193 188 200 205 203 185 189 185 188 186 174 173 169 160 154 151 138 133 146 149 145 136 108 89 74 69 69 71 68 69 67 64 65 64 69 64 69 65 64 66 62 60 65 60 60 62 60 57 59 56 56 54 49 53 45 41 46 41 45 52 55 53 60 58 59 59 61 55 58 54 52 50 55 53 52 36 
200 193 189 195 193 192 198 212 201 189 184 181 185 180 165 161 161 156 151 142 136 126 133 152 143 123 99 81 70 72 70 69 76 68 71 67 72 64 66 64 65 65 63 65 66 61 65 62 60 61 60 59 57 53 56 51 49 41 33 43 36 45 54 56 55 51 57 57 57 58 54 56 54 51 49 47 47 47 48 22 
198 199 192 197 196 192 195 210 200 188 181 172 171 172 160 159 160 152 145 140 134 130 133 134 136 116 91 81 70 68 71 73 69 69 67 65 64 64 68 65 60 68 70 68 62 61 66 63 65 62 61 57 56 55 57 47 46 40 43 35 49 54 57 55 56 53 55 54 56 52 58 56 52 50 47 47 49 45 44 10 
196 198 191 195 194 194 192 201 203 192 172 162 160 160 156 155 152 146 137 135 128 124 124 129 126 107 82 72 72 68 70 69 68 67 69 67 67 66 68 65 64 67 63 67 64 63 67 63 61 66 64 56 57 51 41 42 40 40 40 47 51 54 57 55 57 55 59 54 55 53 54 53 50 51 47 48 49 45 36 10 
202 198 197 197 196 193 194 199 199 197 160 143 148 149 150 148 148 139 131 130 128 126 122 121 112 98 78 72 68 68 74 70 73 73 70 67 70 64 66 68 66 65 64 65 61 63 67 64 63 66 65 56 55 46 38 42 39 45 50 48 48 51 57 57 54 54 54 54 59 56 54 52 52 51 50 49 48 47 41 21 
209 201 203 201 202 191 195 203 204 199 167 111 112 134 140 139 139 131 129 126 122 120 115 108 100 91 72 70 72 69 73 71 71 71 67 71 68 70 67 70 69 70 66 66 63 64 65 65 63 65 61 59 50 48 49 45 51 54 51 54 53 56 56 53 55 47 56 57 56 54 54 51 47 50 49 50 47 45 43 37 
211 206 202 210 200 190 203 201 204 198 178 113 96 104 120 126 132 131 125 122 121 112 114 108 96 83 70 71 69 67 72 72 70 71 72 70 72 68 67 70 67 68 68 67 64 63 67 66 65 66 62 51 54 47 48 55 52 57 54 54 54 58 54 56 58 53 56 55 54 53 50 50 43 51 47 47 45 44 43 38 
214 212 207 206 200 200 200 208 205 198 191 121 88 85 93 107 121 120 113 112 111 109 107 99 90 72 68 72 70 69 74 70 70 67 72 69 67 67 68 68 71 67 66 66 67 65 67 64 66 68 59 54 55 48 57 57 62 54 59 52 54 58 57 54 55 52 55 52 53 53 50 50 47 50 46 46 43 47 46 39 
223 215 211 207 198 198 207 209 207 209 193 134 96 82 76 97 112 104 107 102 102 106 101 98 84 77 69 67 71 67 70 70 69 74 73 68 70 69 72 71 70 69 67 67 68 70 70 68 67 67 63 53 57 52 60 58 57 58 60 61 59 60 58 55 54 54 53 55 49 50 51 49 49 50 51 48 49 45 44 43 
224 217 214 209 202 202 208 215 213 214 200 147 97 78 75 80 100 107 111 105 103 103 99 96 83 73 67 71 69 67 73 75 73 72 67 70 73 71 76 70 73 73 72 67 69 66 69 66 65 67 63 60 59 56 63 61 60 58 62 59 56 59 56 53 50 47 40 26 27 25 40 37 47 51 49 45 47 49 44 44 
224 220 221 209 207 203 205 219 216 215 201 149 96 84 70 75 82 94 109 113 112 103 98 88 75 70 67 69 68 68 73 73 71 72 69 71 72 76 75 76 72 76 70 71 67 64 68 65 67 67 64 61 59 56 60 58 60 59 64 57 55 60 56 55 51 32 13 0 3 10 17 25 44 44 45 47 44 44 52 38 
220 216 222 214 208 206 201 211 211 210 205 157 101 78 74 69 77 79 85 96 96 91 89 79 73 64 73 71 73 69 71 72 72 73 77 75 73 70 71 73 74 73 70 67 71 66 68 68 66 67 66 62 61 59 59 56 62 58 63 56 53 58 55 49 39 11 7 5 4 7 14 25 41 43 43 46 44 44 43 40 
228 225 227 219 212 205 202 215 210 213 206 172 111 84 73 71 75 73 76 76 80 77 74 74 73 68 74 73 73 69 73 67 73 74 72 72 71 69 70 74 72 72 70 73 70 73 71 67 66 66 64 64 64 60 56 61 56 59 62 57 51 58 56 50 39 13 7 11 10 17 22 37 45 53 49 51 44 47 46 37 
240 236 225 223 221 213 210 212 219 220 209 179 114 87 77 72 84 71 69 74 77 75 75 75 69 68 67 70 71 72 78 78 77 75 73 72 73 69 69 75 71 72 71 72 72 73 75 72 67 68 70 71 67 65 61 59 60 60 59 54 56 57 55 51 46 26 20 20 20 27 41 41 50 52 48 46 45 49 49 40 
238 233 232 233 222 219 217 213 214 224 209 182 120 89 72 73 82 75 68 75 76 77 76 72 77 71 72 71 70 74 71 79 79 78 74 72 72 68 69 70 71 70 72 71 69 77 77 75 69 71 72 69 66 62 63 62 54 56 60 58 54 59 54 51 47 39 37 36 37 37 46 50 50 49 43 52 49 49 48 42 
241 233 234 233 224 220 219 214 209 220 210 190 129 89 75 75 76 71 67 74 73 78 80 70 73 70 73 70 68 73 80 80 79 71 71 71 69 69 68 68 68 73 71 71 68 74 76 74 73 74 72 71 66 63 67 66 59 58 58 56 56 54 54 55 50 47 48 43 44 49 53 50 52 49 50 50 49 46 45 41 
245 232 232 237 224 219 215 221 210 220 211 191 137 86 76 73 77 73 69 73 76 79 81 72 74 72 71 71 75 77 81 79 73 74 73 68 70 70 70 70 68 70 71 70 69 68 75 75 78 78 73 72 70 67 73 69 67 59 60 56 56 55 56 56 56 51 54 48 53 50 48 51 53 53 50 46 50 45 47 44 
239 236 233 236 222 218 215 217 207 210 211 192 143 89 75 74 78 79 75 74 79 81 80 78 77 77 72 72 75 78 81 77 74 78 78 75 75 74 76 73 72 75 70 73 72 70 78 81 79 87 81 81 79 72 72 77 73 70 66 62 57 55 57 55 54 56 51 49 55 50 52 53 53 49 50 41 50 48 49 46 


