P2
80 60
314
31 29 42 54 92 108 73 45 78 97 73 45 37 36 39 31 30 31 24 28 25 23 26 24 24 27 30 28 32 30 31 32 29 29 28 30 27 28 29 26 28 24 30 31 29 26 26 20 16 17 14 19 18 16 17 15 19 18 21 23 22 23 27 24 24 21 28 26 23 27 25 25 23 24 27 24 24 28 20 26 
30 32 42 59 94 105 68 42 80 101 70 42 38 36 37 34 28 30 27 27 24 26 26 26 29 32 34 31 30 31 31 28 30 25 28 26 29 24 29 26 29 27 31 29 26 27 30 25 19 20 17 18 17 16 19 19 22 20 25 26 28 26 30 30 26 21 24 26 24 23 24 26 26 28 26 24 24 25 26 23 
29 29 46 62 99 101 61 45 83 100 66 41 34 34 32 35 28 32 25 28 24 25 26 27 29 31 31 31 33 30 27 29 25 25 29 25 30 26 28 26 25 27 26 31 29 32 29 24 24 23 22 22 24 26 22 25 27 31 30 30 31 29 28 27 27 21 21 21 24 25 26 24 27 25 25 21 24 29 23 18 
30 29 42 65 101 100 60 48 92 95 63 38 32 32 35 35 28 30 27 29 25 27 30 32 33 29 31 29 32 33 28 29 27 26 26 26 27 24 28 27 26 28 29 27 30 33 32 30 28 29 27 25 27 28 29 29 26 27 30 31 27 27 25 23 23 23 22 23 29 27 26 28 27 27 25 27 25 28 21 17 
30 33 44 72 108 98 59 52 93 95 54 35 35 32 32 28 24 30 27 28 26 26 28 30 31 30 28 30 31 31 30 27 32 24 26 25 25 24 23 24 27 27 28 28 26 28 28 29 31 29 23 27 27 28 26 29 25 26 27 26 26 23 26 21 24 26 23 25 24 27 27 27 25 21 27 27 25 24 23 17 
31 34 48 84 106 92 55 51 95 94 54 33 30 32 27 29 28 29 27 28 29 32 28 25 25 31 30 28 31 32 32 27 32 29 27 26 24 27 25 25 24 26 27 29 27 29 30 26 28 28 26 26 27 24 28 24 26 24 23 23 25 24 26 24 27 25 20 25 29 26 25 30 24 25 28 28 25 24 23 21 
32 35 47 82 104 91 53 53 99 88 48 28 31 28 32 27 26 28 26 28 30 25 26 27 26 26 28 27 32 30 30 29 31 26 28 26 24 25 28 23 25 24 23 25 27 29 26 26 27 27 26 25 24 24 21 28 28 24 27 23 29 28 25 26 26 24 20 21 26 27 28 28 27 23 28 24 25 29 24 23 
24 32 42 80 104 84 46 49 94 85 41 26 22 26 22 22 24 28 28 24 25 22 22 24 23 27 22 24 26 30 25 25 27 26 25 26 24 24 23 25 23 27 23 26 29 24 22 21 22 24 22 21 22 23 24 23 23 24 25 26 26 27 28 24 25 23 19 19 26 29 27 28 26 24 25 19 24 24 25 20 
19 28 35 84 106 84 44 52 98 86 41 24 25 28 26 27 25 27 24 23 22 27 24 25 24 25 26 25 27 31 26 27 30 28 26 25 27 26 25 26 26 25 26 26 29 26 26 23 22 22 21 19 24 23 25 26 29 27 29 27 28 31 30 28 28 22 24 22 27 27 29 28 26 26 27 25 26 28 22 22 
6 0 16 84 105 77 38 51 107 89 32 20 18 20 22 20 21 25 21 26 23 25 24 24 25 26 28 26 26 31 29 25 26 26 26 25 26 25 25 24 27 27 29 29 28 28 25 27 23 21 20 19 26 20 25 30 31 30 30 31 29 30 31 26 27 26 26 18 25 26 28 28 28 25 31 25 29 27 25 21 
14 7 23 89 109 73 34 54 114 92 25 10 11 14 18 18 19 20 18 20 20 20 24 21 20 23 25 23 26 28 29 23 28 26 25 23 25 22 26 25 27 24 24 28 28 22 25 24 25 24 25 27 27 27 25 28 28 27 29 27 28 30 29 29 25 30 21 18 26 26 29 26 32 25 27 21 24 29 27 24 
25 22 33 98 111 75 34 59 114 89 20 10 10 12 12 12 11 8 14 14 13 17 21 21 25 22 24 23 26 25 25 26 25 25 25 25 26 27 25 26 24 25 28 27 26 25 24 26 26 27 26 26 26 28 28 28 29 29 32 32 27 31 28 27 27 23 23 21 23 27 29 30 28 24 29 25 26 28 24 27 
20 19 26 96 110 73 36 65 114 89 20 7 9 9 9 7 12 9 9 9 4 8 7 10 11 14 15 11 13 15 17 20 22 21 21 24 24 24 23 21 25 26 22 24 23 24 28 26 25 27 27 25 27 28 28 27 29 27 30 30 29 28 26 25 28 26 26 22 24 25 26 28 28 25 27 23 27 27 22 24 
18 18 30 100 99 62 38 72 114 82 19 11 10 12 15 14 10 9 10 8 5 6 8 8 5 5 6 6 9 8 4 7 13 14 18 22 24 22 23 21 25 25 28 24 27 28 28 23 24 27 25 25 28 25 26 30 28 27 28 29 28 29 30 25 28 24 26 22 21 27 27 32 28 28 27 25 26 27 22 23 
20 18 41 98 95 58 36 74 109 73 20 12 14 18 15 13 11 11 10 9 10 7 9 11 9 10 10 9 10 10 9 3 5 12 20 24 25 25 22 21 21 25 30 30 28 29 27 27 28 28 29 26 29 28 27 28 31 30 30 30 30 29 32 30 27 26 26 23 23 27 31 35 29 29 28 31 29 29 20 23 
22 19 39 100 92 50 34 77 106 71 20 14 12 14 15 9 11 12 8 7 7 6 6 10 7 8 8 7 8 11 7 6 19 20 23 23 23 22 19 21 23 26 26 26 26 25 26 25 27 25 24 25 26 28 29 26 27 27 28 29 33 26 30 26 26 30 27 22 24 27 28 30 29 28 27 24 25 24 19 19 
19 20 45 106 90 52 36 75 104 67 19 16 14 14 14 12 10 14 11 14 10 11 12 8 10 11 11 9 11 13 19 22 27 22 22 23 24 23 26 26 26 26 29 28 28 29 29 27 28 26 26 29 28 28 29 29 30 33 30 30 27 29 30 26 27 29 28 22 21 27 31 30 27 27 29 27 28 28 25 20 
22 17 49 105 90 50 32 81 103 68 19 16 18 18 15 14 12 14 13 11 12 11 12 13 12 12 11 11 15 22 25 27 28 26 26 25 27 25 24 24 28 27 26 29 29 30 32 27 30 29 30 28 30 29 28 29 28 29 31 31 29 28 28 30 28 31 31 22 24 26 28 28 28 26 27 25 30 33 26 27 
23 17 51 102 86 46 33 80 98 65 17 13 15 15 17 15 14 12 11 11 12 11 15 13 9 9 10 9 17 21 23 26 23 23 19 23 25 24 21 20 25 23 25 25 28 27 24 27 26 24 24 27 25 26 25 25 30 27 29 30 29 24 27 27 26 29 26 21 19 21 26 26 25 27 28 25 26 33 25 27 
21 21 57 103 88 48 33 84 103 62 18 13 18 15 16 15 16 13 16 13 13 11 16 12 12 14 12 12 16 24 26 26 26 24 23 20 22 22 24 24 25 27 26 29 25 25 28 27 28 27 29 27 28 28 29 29 33 28 28 31 32 30 30 26 28 28 32 26 20 21 27 30 29 28 26 29 28 32 23 20 
24 23 63 108 88 43 38 91 107 62 19 17 19 17 18 17 16 18 16 14 12 13 15 17 13 13 12 14 18 20 28 22 26 23 24 26 24 26 25 25 26 26 25 26 30 29 28 27 27 27 28 27 29 29 27 30 32 31 31 32 30 32 32 31 31 31 31 32 24 22 29 29 30 29 33 32 29 31 29 24 
31 33 75 117 87 44 39 94 104 57 15 18 17 15 14 14 17 18 15 16 12 17 13 16 10 13 15 15 13 17 23 22 23 21 21 26 24 23 23 21 23 22 23 24 26 26 26 25 28 30 26 26 27 26 29 27 29 29 31 29 30 30 34 29 29 27 31 28 25 21 23 32 29 29 30 26 30 31 27 23 
84 75 108 125 83 39 45 92 101 55 17 18 16 13 17 16 13 17 17 15 15 15 14 11 14 14 14 10 12 19 21 23 26 23 24 24 25 25 20 21 24 24 25 27 28 27 28 28 27 29 27 24 26 28 28 24 29 29 31 29 29 30 31 31 26 25 29 28 24 21 21 24 26 25 28 30 25 30 29 25 
108 106 112 103 70 34 46 96 98 55 19 18 17 18 18 15 14 17 17 16 11 16 16 13 12 13 17 15 12 18 25 22 25 23 25 20 25 26 22 24 24 25 26 26 27 27 28 26 26 29 27 30 29 27 29 27 29 29 30 27 28 27 33 31 26 31 28 30 29 29 20 23 27 27 25 29 28 32 30 21 
99 98 94 86 50 35 51 100 101 53 19 20 22 17 21 19 18 19 14 17 14 15 19 15 17 16 17 16 21 20 24 24 23 23 24 26 27 26 26 27 29 27 28 30 28 29 29 29 30 28 28 29 31 29 26 31 29 32 29 31 31 30 32 30 29 30 31 33 32 30 28 23 22 23 31 31 30 30 26 28 
45 48 49 46 28 31 53 107 102 53 23 20 21 21 18 20 17 23 18 15 15 20 17 20 15 18 14 13 18 18 25 25 24 26 27 26 28 27 29 30 30 28 31 29 29 29 27 28 29 32 31 29 29 32 28 27 29 31 30 31 31 30 35 35 30 35 32 35 31 30 34 27 25 21 25 25 26 30 29 26 
32 27 29 23 25 33 56 116 104 53 21 19 19 19 21 18 15 19 16 15 17 17 15 18 20 16 15 16 13 18 27 26 26 25 25 25 27 29 29 27 30 25 27 28 28 29 27 28 28 28 33 28 28 28 30 30 30 29 32 30 30 30 31 29 30 33 30 30 33 33 33 32 27 26 26 23 27 25 24 22 
82 68 62 51 49 50 74 125 102 51 18 19 22 20 20 19 16 19 18 18 17 16 19 19 17 16 18 14 14 18 25 25 26 27 28 28 27 26 28 27 29 28 29 27 30 30 28 25 30 29 31 26 27 29 31 30 27 31 30 34 32 29 31 30 33 33 34 31 29 28 31 30 30 30 30 31 34 28 24 25 
122 110 108 107 99 100 116 116 94 48 17 18 21 18 20 22 17 19 18 19 17 20 19 18 18 20 16 18 18 19 24 29 25 28 27 30 29 30 29 27 31 29 29 30 26 27 30 29 30 30 28 25 28 31 30 29 29 29 32 30 28 30 30 30 31 36 35 33 31 33 34 33 30 31 33 33 30 29 25 25 
103 97 98 99 96 101 102 99 79 36 18 19 18 21 21 22 20 23 19 21 20 16 18 18 17 17 19 15 18 18 24 24 27 25 28 27 28 29 28 30 32 30 27 30 27 31 25 26 29 28 27 29 28 29 30 29 30 29 32 32 30 32 29 31 30 31 31 34 34 30 35 34 31 28 32 33 28 29 29 25 
44 45 46 49 53 60 65 62 43 24 20 19 20 23 22 22 22 22 22 17 19 20 19 21 18 20 22 16 19 20 25 28 30 29 27 29 29 30 31 29 27 30 30 31 29 30 29 27 31 31 30 28 28 27 30 31 29 31 28 34 29 30 29 29 30 32 31 33 34 33 31 31 31 31 32 32 30 32 29 28 
26 24 27 24 26 29 36 27 26 18 19 21 22 25 26 23 20 24 24 22 22 25 22 27 22 20 22 18 18 19 26 27 27 29 27 30 29 32 31 30 30 29 31 29 31 30 30 28 32 28 33 30 29 27 29 30 30 31 31 30 30 32 36 33 32 33 32 32 33 31 35 36 33 32 29 32 35 32 31 29 
28 24 22 26 24 27 29 29 24 24 22 20 22 22 25 23 23 22 21 23 23 27 26 21 18 22 25 23 24 21 27 30 31 27 26 29 32 30 31 31 31 30 31 31 31 28 33 28 32 33 30 29 31 28 29 31 28 31 33 33 32 29 34 33 28 33 33 35 36 33 33 33 33 36 34 32 33 33 33 30 
28 24 26 29 24 27 30 25 25 25 20 24 25 26 28 26 23 26 25 24 25 21 24 25 27 26 26 22 19 19 29 29 33 32 29 30 34 30 31 28 30 31 32 34 32 28 29 30 30 30 30 32 31 30 30 32 32 33 29 34 35 35 33 35 31 34 33 37 33 36 35 34 35 38 33 30 33 36 34 33 
24 24 25 26 21 26 27 27 24 25 22 24 23 27 24 25 25 25 26 23 24 25 25 24 25 23 26 22 24 23 30 27 29 29 30 31 30 28 33 31 29 30 31 31 31 31 31 33 30 31 28 31 31 28 29 31 31 29 31 34 31 36 33 34 32 34 36 34 33 37 32 34 36 33 33 30 31 38 34 38 
31 21 25 26 21 30 25 24 27 21 22 23 25 27 26 24 26 28 23 23 24 25 25 29 24 25 27 25 21 23 26 30 33 30 28 32 30 29 32 31 29 31 29 34 31 30 30 32 30 31 30 30 32 28 29 30 33 33 32 32 30 35 33 33 31 32 33 34 36 36 34 34 38 35 32 32 35 36 33 37 
28 26 25 25 21 25 28 28 25 21 22 22 25 26 28 26 26 29 24 26 26 25 28 27 27 28 28 28 25 22 28 32 31 30 29 29 30 28 35 32 31 31 30 32 30 34 32 31 30 34 31 33 30 30 31 32 31 28 32 33 32 32 35 34 33 33 34 36 35 34 36 37 36 34 34 36 32 39 36 37 
32 28 25 21 18 28 30 30 27 22 23 24 28 24 26 26 25 32 29 26 25 27 27 29 29 29 30 28 24 23 29 34 32 32 31 30 31 31 32 28 32 32 34 32 32 32 30 33 32 32 32 29 31 33 30 33 30 31 30 32 31 32 33 30 36 36 36 35 36 32 38 36 34 38 39 32 36 37 40 46 
30 28 26 22 20 27 31 28 27 24 19 24 26 27 27 26 29 29 29 25 28 29 29 29 27 30 30 30 26 27 26 33 30 33 35 29 30 33 32 30 33 31 32 30 34 34 34 32 34 33 34 33 30 31 29 33 30 27 30 36 30 30 28 33 33 32 34 35 37 34 35 36 33 35 37 37 36 35 45 57 
28 27 27 24 20 32 31 30 26 24 21 24 26 27 29 28 29 28 30 29 28 27 26 30 30 28 29 28 28 25 26 33 31 30 34 32 35 34 33 28 33 31 34 32 34 35 33 31 31 31 31 29 29 29 33 29 30 30 31 31 30 32 30 29 30 37 37 31 36 37 37 36 32 35 36 37 49 65 100 131 
32 27 34 29 22 32 34 30 29 24 21 21 26 30 31 28 31 30 32 31 28 31 32 34 35 30 32 31 29 28 27 34 35 35 35 29 34 31 31 35 34 35 33 32 32 35 31 34 32 34 31 33 32 30 32 32 30 33 32 34 34 32 35 33 34 34 38 38 33 38 38 39 38 44 55 65 77 125 208 233 
33 28 26 30 25 32 36 31 27 25 24 29 29 30 34 32 30 32 33 31 33 36 35 34 34 34 32 31 35 28 31 35 38 35 34 32 32 32 34 35 33 33 37 31 32 35 35 33 35 32 32 31 31 34 32 30 32 30 32 34 32 34 32 33 34 37 38 35 36 38 38 38 49 70 102 115 159 233 278 276 
29 24 29 28 29 29 33 28 30 24 22 26 29 28 28 33 30 32 33 33 32 30 35 35 35 36 34 30 33 27 28 36 36 38 33 33 37 36 33 33 35 30 30 32 32 34 32 30 30 30 33 28 31 29 26 28 31 30 32 33 35 31 34 35 32 36 37 34 40 36 40 44 73 182 238 260 279 287 286 280 
35 26 28 30 26 30 42 36 28 23 22 26 25 30 32 33 31 36 33 36 35 33 36 36 36 34 37 30 32 30 28 33 36 33 33 32 36 35 32 34 34 31 34 32 31 31 32 32 32 31 33 29 30 28 30 28 29 32 32 35 32 33 35 33 33 35 39 34 39 34 42 51 120 247 296 306 302 290 265 257 
30 22 31 26 28 33 38 31 29 25 26 26 30 30 33 34 34 37 38 39 36 37 40 38 39 35 32 31 35 32 28 33 35 35 35 36 38 35 34 35 35 33 33 32 30 29 30 32 33 33 30 30 30 28 26 29 31 30 31 32 35 36 34 34 32 39 37 37 45 45 68 100 184 279 309 314 290 198 212 252 
30 29 32 28 25 34 38 33 30 28 24 31 30 33 37 35 37 37 39 41 40 40 39 39 37 35 30 31 33 31 24 31 35 38 38 37 35 35 38 36 34 32 32 36 34 32 31 34 33 36 32 33 29 31 31 28 30 32 32 36 36 35 36 34 35 35 43 40 48 84 136 193 240 297 306 309 271 210 230 242 
32 30 28 29 30 34 37 29 29 28 29 29 31 36 37 34 36 41 39 39 41 40 42 42 42 40 38 36 33 36 30 31 37 40 35 36 37 34 35 33 36 36 33 34 34 34 34 32 34 31 32 33 32 30 32 28 31 32 34 33 37 34 36 32 38 37 41 43 62 112 160 227 238 241 234 220 206 186 194 208 
31 28 30 29 29 34 40 31 32 30 26 30 35 36 39 37 39 41 39 43 39 43 43 42 44 49 43 44 42 45 38 32 35 36 39 39 37 34 36 35 40 39 33 35 34 34 36 33 31 33 31 29 32 33 30 33 32 33 33 35 37 33 35 34 36 37 40 48 77 112 132 151 153 154 159 161 165 178 192 223 
31 28 29 32 28 35 41 32 30 29 28 29 35 36 38 39 40 41 38 40 42 42 47 45 50 52 48 43 42 42 35 36 38 39 37 40 40 39 36 37 40 34 33 37 35 36 32 35 30 36 32 31 32 30 32 33 34 34 35 37 36 37 37 36 35 36 41 55 92 112 130 132 138 146 156 169 183 200 223 242 
29 25 29 29 32 33 39 35 33 30 27 32 34 41 36 39 40 41 40 40 41 43 43 46 44 52 49 45 44 44 36 33 37 42 40 39 39 41 39 39 38 36 38 38 37 34 35 30 31 36 31 32 34 31 33 32 35 33 38 34 33 34 37 38 36 36 42 56 90 121 139 150 154 162 172 184 199 215 234 247 
31 29 34 30 30 34 39 34 34 29 33 34 36 40 41 39 41 44 44 43 43 44 48 45 46 50 49 47 46 43 38 35 36 38 41 42 39 38 39 38 38 37 36 38 34 33 36 32 34 30 36 34 31 37 40 32 34 34 37 36 37 35 39 35 34 39 41 52 88 115 140 154 157 165 177 189 203 219 237 245 
35 30 37 29 31 34 40 34 38 35 31 34 36 36 39 41 43 44 43 45 47 49 52 49 50 51 52 48 46 45 38 37 38 41 42 41 42 40 41 39 40 37 38 41 38 37 34 30 32 33 34 33 34 39 45 42 39 39 36 37 39 36 38 38 38 41 42 48 77 116 141 154 155 165 169 187 201 217 235 245 
35 36 35 39 34 40 44 37 42 36 33 40 40 43 43 40 44 48 46 48 49 49 52 54 54 54 54 50 51 46 44 38 36 43 43 44 43 43 41 41 40 39 38 39 38 36 36 32 36 36 32 33 37 43 51 49 47 41 41 39 38 38 37 37 40 44 44 46 69 111 135 151 155 163 174 184 201 216 228 245 
39 33 35 37 36 41 44 40 42 35 34 38 43 39 41 45 46 47 46 52 51 52 52 55 57 58 57 50 49 51 43 39 40 40 43 45 47 40 40 39 40 38 38 40 39 36 36 34 36 37 34 36 38 44 62 83 72 52 40 39 40 37 38 39 39 41 44 45 67 106 132 147 154 162 169 182 195 211 226 241 
41 37 43 39 37 44 49 42 43 40 37 40 44 43 48 47 49 49 52 54 57 57 57 57 57 61 61 59 55 50 48 42 41 46 49 49 45 42 42 42 43 41 42 44 39 39 40 37 37 39 38 40 42 63 177 198 124 71 47 42 41 41 39 38 38 39 40 45 64 99 129 143 151 159 167 176 195 210 227 241 
44 45 43 42 41 48 49 48 45 45 41 45 48 48 50 51 52 56 56 57 63 64 66 66 63 62 67 58 60 59 49 45 45 51 49 53 50 48 48 44 48 46 47 45 43 44 42 42 42 42 45 45 49 73 204 207 124 68 50 44 43 41 40 40 42 43 44 51 61 98 127 147 151 161 164 175 186 200 228 241 
50 46 48 44 46 51 57 51 52 46 45 48 46 50 52 52 57 59 62 65 61 67 67 71 69 70 71 63 63 61 54 46 43 50 52 51 50 45 44 47 47 42 44 48 45 46 43 42 43 44 41 40 45 49 81 91 75 54 47 44 43 39 40 41 42 43 41 45 56 92 119 139 151 155 164 160 154 177 223 236 
55 49 49 50 47 55 56 52 54 52 48 49 52 57 55 59 60 62 64 67 67 71 73 75 82 78 80 69 68 62 54 50 48 51 53 53 48 41 44 49 46 48 47 50 47 46 45 42 43 47 43 44 41 45 52 55 52 48 45 44 41 41 41 37 42 44 47 44 52 88 115 142 147 155 161 156 158 193 222 232 
62 60 61 58 51 61 65 57 56 52 52 53 55 59 59 58 64 66 71 71 75 81 85 88 87 89 83 74 69 63 57 52 51 51 55 54 51 49 64 59 48 48 54 49 46 50 49 49 46 47 48 43 43 44 45 45 48 44 47 42 44 46 41 40 40 42 47 48 55 83 116 139 152 156 160 165 182 200 220 231 
81 77 71 66 63 68 69 66 61 60 55 61 61 61 60 67 66 72 76 79 81 84 82 80 90 92 91 76 69 65 59 56 52 57 59 58 58 72 122 88 57 59 55 53 49 49 51 49 47 48 45 43 44 42 48 45 46 45 43 48 52 40 47 44 46 47 47 50 54 78 112 138 149 154 167 172 185 200 220 225 


