P2
80 60
256
27 24 25 25 37 52 90 98 73 45 57 98 89 47 44 39 35 32 30 29 31 30 27 24 26 28 28 29 33 34 39 35 31 29 30 30 32 30 30 33 30 29 32 30 30 33 30 29 31 25 18 23 21 21 21 19 19 24 22 21 18 22 21 25 26 28 27 28 28 29 23 30 24 22 23 21 19 19 18 15 
28 27 25 25 35 52 95 96 70 40 68 98 83 44 40 38 32 33 30 30 32 31 28 26 25 24 25 28 31 33 33 33 34 35 32 28 30 28 30 32 29 32 29 29 27 29 31 31 30 25 20 21 18 17 20 21 22 23 23 22 20 20 21 25 27 28 29 30 29 25 27 27 25 19 21 22 19 22 15 11 
26 28 20 25 38 54 97 97 63 42 69 96 76 42 40 37 32 28 31 29 31 28 27 29 26 29 32 31 33 34 34 36 29 29 29 30 29 31 30 33 28 32 29 28 29 36 32 30 32 30 23 22 23 21 21 23 23 24 24 24 25 25 31 32 32 28 30 26 25 28 25 27 23 22 24 25 22 21 16 12 
27 24 24 30 38 58 101 97 53 42 77 97 73 39 35 34 30 32 28 29 31 28 26 26 27 31 32 29 33 33 35 34 32 28 30 28 30 29 31 32 28 30 29 31 31 35 34 32 32 30 27 28 29 25 27 29 27 30 35 32 29 31 32 34 33 29 29 27 29 24 24 27 24 26 26 24 19 21 14 10 
26 25 23 32 40 64 111 91 52 43 79 96 66 36 32 33 28 30 30 27 29 24 27 29 29 29 27 29 32 31 35 32 31 27 29 31 29 31 29 29 27 32 28 28 28 33 31 33 32 35 31 31 28 31 31 31 32 37 34 34 30 32 34 29 32 33 31 25 26 29 22 27 23 22 23 22 19 14 17 13 
22 21 24 35 40 71 105 84 49 46 87 93 61 36 31 28 26 29 30 26 30 29 31 31 28 29 30 32 29 32 31 32 31 30 29 31 31 28 28 30 25 26 28 30 32 32 30 30 31 33 29 32 33 29 29 31 33 35 33 34 30 32 28 29 28 32 30 27 30 24 27 27 25 26 22 21 24 18 18 10 
24 26 24 33 40 70 107 81 45 46 89 89 56 32 33 29 27 29 31 28 28 27 27 27 26 31 27 29 32 34 34 31 31 29 26 28 28 31 32 28 28 25 26 26 28 31 31 35 31 32 32 31 30 29 30 32 29 29 30 29 29 27 28 28 30 30 29 25 30 29 27 30 27 27 28 23 22 17 13 13 
17 18 22 30 35 71 101 77 46 47 88 89 47 29 26 26 25 25 27 26 26 25 26 22 22 23 28 25 28 33 31 32 31 25 29 28 27 28 30 29 28 29 29 28 30 28 26 27 28 29 33 27 27 31 26 24 26 27 32 27 27 28 28 31 31 28 24 27 26 27 25 29 23 22 24 22 19 17 14 10 
11 14 15 28 31 69 103 76 39 48 93 87 45 27 26 25 23 24 27 23 26 26 25 24 24 25 23 25 30 30 33 31 28 29 26 28 33 31 29 30 28 27 28 27 27 33 30 27 29 29 28 28 25 31 28 30 28 29 31 31 29 31 30 28 29 35 30 28 29 28 28 31 25 23 26 23 19 21 14 14 
12 12 4 0 13 78 102 68 30 50 101 85 43 27 26 25 23 21 23 27 29 22 24 24 26 26 27 27 26 30 31 31 30 30 28 25 32 30 29 31 30 29 30 29 30 35 33 31 32 30 25 28 25 26 28 31 33 28 31 31 32 32 34 29 32 33 30 28 27 29 27 29 25 28 24 27 19 21 17 18 
19 17 8 4 16 82 104 61 24 52 105 87 30 16 16 16 20 20 21 24 24 21 21 20 24 27 25 24 22 27 29 33 24 29 25 26 27 28 28 28 26 26 29 28 29 33 31 26 28 28 27 24 28 29 26 27 31 32 33 37 33 34 34 32 33 31 37 24 28 31 28 30 26 24 22 22 23 21 19 14 
20 23 18 15 23 87 106 59 23 58 101 80 23 13 13 12 10 12 18 21 20 18 19 20 23 24 20 23 25 26 30 30 29 27 25 26 25 28 25 31 27 30 28 29 29 31 29 30 29 26 30 32 30 30 29 27 30 36 35 37 31 34 30 30 31 35 30 28 26 28 28 28 27 26 25 23 21 22 16 15 
20 18 19 17 18 88 99 56 27 60 102 72 19 12 12 9 11 9 14 12 8 9 10 10 15 18 17 20 23 23 28 25 26 23 24 25 27 26 27 32 24 29 27 29 26 30 30 26 26 27 26 31 28 31 31 32 34 30 33 31 32 34 30 31 31 35 33 25 29 28 27 30 25 26 23 25 27 20 19 15 
19 19 20 18 25 89 93 50 31 69 103 69 23 11 14 12 10 11 13 11 12 9 11 8 7 8 7 12 13 12 15 13 18 24 25 24 25 26 28 28 29 31 27 29 28 30 29 31 32 32 31 32 28 32 31 32 32 29 33 35 31 31 29 30 30 35 30 30 28 26 28 31 28 25 25 25 23 20 19 11 
17 18 18 18 37 92 85 44 27 76 99 59 24 17 16 16 15 12 12 11 8 9 10 7 10 10 8 11 12 11 11 10 8 9 7 14 22 27 27 27 25 28 30 26 29 31 30 30 30 32 34 32 31 35 32 31 31 33 33 33 31 34 27 32 32 32 33 26 26 26 28 34 27 26 27 26 23 21 19 18 
21 22 17 17 38 93 86 39 30 79 99 60 25 16 16 18 18 12 14 10 10 11 9 10 8 12 9 8 9 12 8 11 10 4 9 20 22 26 22 27 26 26 26 30 28 30 31 30 33 31 32 29 31 33 31 28 33 33 37 36 33 30 29 29 35 33 34 29 24 28 27 31 28 28 26 28 22 23 16 16 
17 22 16 19 44 95 83 36 29 83 89 54 22 14 16 17 14 15 13 12 13 11 10 9 7 7 10 7 11 14 12 9 11 20 23 24 27 28 25 25 21 25 25 26 30 30 32 28 30 31 30 30 30 32 31 32 33 30 29 31 32 31 32 28 30 32 33 30 27 25 28 29 27 28 27 25 22 21 15 13 
18 19 17 22 48 102 81 37 31 88 90 50 22 18 18 17 15 15 14 16 16 15 12 12 11 11 10 7 13 15 14 18 26 28 27 24 27 27 29 27 27 29 32 28 30 30 33 32 30 31 31 32 33 31 32 33 36 33 34 33 33 30 33 31 31 33 34 28 27 29 30 31 28 25 28 25 26 27 17 13 
20 18 19 22 49 95 76 31 30 88 88 47 22 14 17 15 14 14 16 15 15 12 15 13 12 12 10 10 13 13 23 26 27 25 25 22 27 25 28 29 28 24 29 29 30 33 30 30 28 32 33 31 32 32 29 32 32 34 33 32 32 32 30 35 31 34 32 29 29 28 26 28 27 27 30 26 26 24 18 17 
21 19 19 21 61 97 80 32 31 88 88 45 20 17 17 17 18 20 18 15 15 14 14 14 13 14 15 9 13 18 23 30 26 26 23 23 28 25 28 28 28 27 26 26 28 29 28 29 32 32 32 31 31 31 32 32 34 33 32 32 33 33 31 32 32 31 34 32 27 24 27 29 29 29 30 23 26 24 19 12 
26 25 19 26 71 102 79 34 36 97 87 44 23 17 17 17 17 17 17 18 16 18 14 13 12 19 15 13 14 16 23 26 27 26 25 24 26 26 28 28 25 26 29 30 28 33 30 31 29 31 34 31 31 34 32 30 32 31 34 33 32 33 33 33 36 36 33 32 29 24 27 27 31 28 27 26 23 25 21 23 
50 43 37 38 86 113 82 32 41 102 87 40 21 19 18 16 17 17 18 16 16 18 12 14 12 13 12 12 13 18 17 23 27 24 26 24 24 26 25 27 27 27 29 29 28 31 29 31 34 29 31 32 31 34 35 32 32 32 33 31 33 33 32 36 36 31 33 33 32 26 25 29 30 28 26 26 25 26 21 18 
107 102 92 93 109 110 69 28 47 99 85 38 21 19 15 18 16 16 17 16 18 15 16 15 16 14 15 13 17 14 13 21 27 23 26 22 26 25 25 25 27 27 30 28 28 31 33 30 29 32 32 34 31 32 30 32 32 29 30 33 31 33 33 32 35 35 35 32 30 26 24 28 31 26 26 28 25 24 23 14 
109 107 108 104 103 96 58 33 55 100 85 33 20 16 16 17 16 16 17 16 17 13 18 15 11 13 16 14 14 16 15 23 24 24 23 21 25 26 29 26 26 26 28 30 31 33 30 28 32 31 33 31 31 32 33 31 30 32 32 32 34 33 31 32 33 31 35 33 32 29 27 28 26 26 26 30 25 24 20 19 
63 68 76 84 82 73 38 32 59 105 85 36 23 18 18 19 19 21 18 18 18 19 19 18 19 16 15 14 17 18 18 20 26 27 25 25 29 27 32 29 27 30 29 30 30 34 32 32 31 35 32 34 34 33 31 30 32 34 34 34 35 37 39 35 35 35 35 35 34 31 32 27 29 28 27 23 30 26 22 20 
33 30 30 31 35 35 30 31 65 113 86 39 22 21 21 20 19 20 19 17 18 17 18 18 19 17 18 18 18 18 20 26 28 31 24 28 30 29 31 32 29 30 30 31 32 34 31 30 30 33 32 32 32 34 36 34 32 31 35 34 32 31 34 38 36 33 35 35 33 34 30 33 25 23 25 27 24 26 20 22 
51 43 41 30 26 31 32 35 72 118 85 36 19 19 23 20 16 20 21 21 19 17 19 17 17 20 18 15 17 20 18 27 31 26 28 27 27 28 31 31 29 32 32 31 29 30 32 30 30 33 34 34 31 36 32 32 32 34 36 33 34 35 33 36 36 36 35 34 32 33 33 33 32 28 26 26 25 21 16 16 
112 109 96 90 76 74 68 65 95 118 88 37 24 18 20 20 19 19 21 18 17 18 16 19 16 22 19 14 15 17 18 26 27 24 26 25 31 30 29 31 30 30 30 29 28 33 30 30 30 33 33 29 33 33 33 34 32 32 31 32 33 36 31 35 36 31 36 34 35 29 30 33 32 30 31 29 25 28 24 17 
113 113 112 104 105 102 103 96 106 106 80 28 25 19 21 21 19 17 21 20 21 21 18 14 18 19 18 16 19 18 20 23 30 26 29 29 30 29 32 32 29 29 30 30 30 31 30 34 31 34 34 33 32 33 33 32 33 34 34 33 31 36 33 34 35 34 37 31 35 31 33 34 32 28 33 28 30 26 21 19 
66 72 76 82 86 96 96 97 95 90 58 24 23 21 17 20 20 22 20 21 20 20 21 20 20 18 20 18 21 17 20 23 26 26 29 29 29 29 36 32 31 31 32 32 33 31 32 31 30 33 32 32 31 33 30 32 35 31 31 34 30 32 31 35 36 36 35 33 35 31 36 36 33 28 32 28 26 29 25 25 
30 30 33 29 30 39 43 50 51 43 28 27 22 20 22 21 21 22 22 22 20 25 23 23 18 24 20 20 21 17 19 26 29 28 27 29 28 30 32 31 29 30 33 31 31 32 33 31 31 34 33 34 31 35 31 34 34 35 34 35 33 35 38 36 34 34 36 34 35 34 35 34 32 30 30 30 28 30 28 24 
29 25 26 25 25 24 31 28 28 24 27 22 25 21 22 24 20 24 23 24 26 24 20 23 21 24 19 19 22 24 21 27 33 29 27 25 29 32 33 31 30 32 30 34 33 34 33 31 34 36 33 36 34 34 38 36 34 33 35 34 35 36 37 37 37 36 42 32 36 36 36 37 36 34 32 29 29 28 27 24 
27 24 25 20 22 22 27 27 25 26 23 25 21 21 25 23 23 21 22 25 21 25 24 21 22 26 23 22 23 20 20 26 30 30 29 29 28 31 34 32 32 32 33 30 32 34 33 32 34 34 35 36 33 36 34 34 32 31 32 36 37 34 36 34 36 36 36 35 35 34 30 33 33 33 33 31 30 29 26 26 
26 24 26 24 21 24 28 25 27 31 27 26 22 22 26 26 25 25 23 24 27 27 27 25 24 23 22 21 24 24 21 28 32 29 27 27 30 33 33 31 33 32 31 33 33 34 32 32 33 34 35 35 33 35 36 31 34 30 33 37 33 40 38 38 36 38 37 38 37 35 36 37 38 38 38 31 31 33 28 27 
26 29 24 20 19 24 25 28 26 27 27 24 24 23 26 24 24 25 24 27 25 24 27 27 26 25 25 23 25 22 23 28 30 27 28 30 33 29 32 32 35 31 31 34 31 33 31 34 34 36 35 35 34 38 33 32 36 35 32 37 37 38 37 37 37 37 40 36 36 35 31 37 33 39 36 33 32 31 32 27 
27 28 23 23 20 27 29 23 26 27 25 24 24 25 29 28 27 26 25 26 26 25 26 27 25 26 23 22 28 23 21 27 29 29 30 32 30 31 33 31 31 34 31 32 34 33 34 32 33 36 33 34 34 35 34 34 32 33 36 37 35 36 36 36 39 36 39 36 35 34 33 40 36 35 38 35 34 33 32 29 
29 30 26 24 23 25 32 28 29 29 27 24 27 23 24 27 27 29 26 28 23 26 27 26 25 26 28 24 27 25 21 29 31 32 31 30 34 33 33 34 34 35 32 32 32 35 34 36 37 36 36 33 36 35 34 34 38 36 38 39 35 37 36 39 38 32 36 38 34 34 37 37 34 36 39 34 33 35 36 35 
28 28 26 24 24 30 32 25 29 26 24 24 27 24 26 25 26 28 29 29 28 27 28 27 28 28 29 24 29 27 27 27 33 32 28 31 33 35 32 32 35 35 37 32 33 35 34 35 36 36 35 34 34 37 35 36 36 35 32 35 34 37 37 36 39 36 38 37 35 36 34 37 35 35 36 34 35 35 37 38 
26 28 26 23 24 30 32 26 31 26 23 26 26 24 28 25 29 29 31 28 27 29 28 28 27 32 28 29 31 26 25 26 32 33 33 31 35 32 35 35 34 37 33 30 35 36 35 35 37 34 36 36 37 35 36 33 36 33 33 33 34 37 33 35 38 39 35 37 38 36 34 36 38 35 40 36 38 44 45 48 
31 25 27 24 25 27 30 25 33 23 26 30 27 23 29 30 28 29 33 27 30 28 28 30 28 30 29 30 31 28 31 30 34 33 30 33 33 35 34 32 34 33 35 34 34 35 36 35 35 38 38 36 36 37 35 36 36 32 32 35 34 39 35 36 38 37 38 37 36 38 38 41 37 36 38 40 52 51 49 45 
25 26 26 23 27 27 29 25 26 27 27 28 28 24 27 30 30 31 33 31 32 30 30 32 31 34 29 30 32 28 29 30 33 32 33 33 31 34 35 33 36 37 34 34 36 37 32 34 34 36 37 34 36 37 34 33 35 35 31 33 36 37 36 35 37 37 37 36 37 36 39 42 37 34 37 35 41 39 42 43 
28 26 25 25 25 26 33 24 28 29 28 27 27 27 30 27 31 32 32 33 32 33 31 31 34 34 31 30 31 29 26 26 33 32 30 37 34 34 36 36 35 36 33 37 35 38 38 36 35 34 35 36 35 38 34 36 36 31 36 31 32 38 32 37 35 38 40 36 37 36 37 39 41 36 39 39 41 38 41 41 
27 25 25 20 26 34 33 28 29 29 30 27 30 28 28 30 28 30 30 33 30 31 31 32 32 37 33 34 29 32 27 30 35 36 31 33 31 36 36 35 35 34 37 34 31 36 33 34 35 34 36 37 35 36 34 32 32 30 34 34 32 36 35 35 36 36 35 36 38 36 37 43 42 37 38 39 42 39 39 39 
27 26 25 27 24 32 36 32 31 28 26 27 29 29 30 31 30 34 34 35 35 33 33 35 37 37 33 33 35 31 30 31 34 38 34 34 34 35 37 37 36 37 32 34 34 34 33 32 34 33 37 36 37 33 34 30 31 32 34 33 35 37 35 39 35 37 38 37 37 40 41 45 46 46 53 58 70 79 91 111 
28 31 24 26 25 31 36 33 32 32 28 29 32 31 31 37 34 35 36 34 37 36 38 36 39 36 33 34 31 32 31 28 34 35 33 33 36 37 36 33 35 35 36 34 34 34 33 32 35 31 34 30 32 33 30 32 32 33 35 33 33 34 35 38 35 38 40 39 38 46 66 86 92 105 116 122 139 149 166 187 
28 28 28 24 26 33 33 31 29 31 29 30 31 32 32 31 34 36 37 38 37 39 36 39 38 41 36 32 30 34 31 29 36 35 34 37 35 41 37 36 34 36 31 34 34 34 34 34 32 36 35 35 33 34 35 31 29 39 34 32 35 36 39 39 39 39 43 43 38 64 107 126 136 139 149 155 168 184 199 227 
28 29 27 30 24 31 36 32 31 31 29 31 32 33 35 36 33 34 37 39 39 43 39 41 40 36 33 31 33 33 29 29 31 37 33 38 36 36 38 36 36 40 35 36 34 35 33 32 34 37 35 36 35 35 33 33 32 33 32 36 36 37 38 40 39 36 42 42 45 77 118 150 159 167 177 185 200 217 235 247 
31 28 26 26 27 34 34 31 29 30 30 28 34 31 33 32 36 35 37 37 40 39 42 41 43 41 39 42 38 37 38 35 31 31 34 37 37 39 37 38 36 37 35 36 38 37 35 34 35 35 37 35 33 32 33 32 32 34 33 34 37 36 36 41 37 39 40 40 43 73 121 156 166 174 182 197 206 224 241 250 
29 29 26 32 26 31 35 31 32 31 33 32 31 35 32 39 35 38 40 41 42 38 39 42 42 44 47 48 45 43 40 36 35 36 37 39 38 36 43 38 36 36 37 36 36 34 35 34 35 35 35 37 35 34 33 35 35 36 35 35 36 39 37 35 37 40 42 42 39 68 118 156 166 179 184 193 211 224 243 251 
31 28 29 28 27 32 37 29 29 33 34 31 34 33 35 38 37 37 38 40 41 43 41 44 42 44 50 48 45 43 39 36 35 36 38 38 37 36 36 38 37 38 34 37 34 35 34 33 32 34 37 36 34 31 34 35 38 35 33 34 34 38 38 38 39 38 40 39 41 64 113 152 165 174 183 191 202 221 239 253 
32 29 30 31 29 35 34 29 32 38 35 32 35 37 37 38 37 38 40 42 48 45 43 46 44 46 50 50 46 49 42 36 39 37 37 40 40 40 42 41 38 38 37 38 37 38 35 35 32 37 33 36 37 37 35 35 33 37 37 34 39 38 37 36 41 42 43 42 40 65 112 146 161 169 178 191 203 218 237 253 
37 33 33 31 30 34 37 33 35 36 39 36 38 36 39 41 39 42 43 45 47 46 45 47 43 51 49 47 44 48 44 41 35 39 40 42 39 40 41 44 41 40 38 37 38 40 36 34 39 36 36 35 36 37 40 40 38 36 38 35 37 38 37 38 39 44 43 44 44 61 107 140 159 167 177 189 202 214 236 247 
37 38 36 34 31 40 39 41 37 38 40 36 40 37 40 41 39 44 45 48 52 53 47 50 51 51 55 50 49 47 48 42 36 36 41 41 40 43 42 44 42 42 39 39 38 37 36 38 36 40 38 39 39 38 42 45 44 41 41 41 41 37 40 41 44 45 46 41 44 58 103 141 157 164 175 185 199 212 229 247 
38 37 34 36 37 41 44 39 38 42 42 37 42 35 41 44 43 47 51 50 53 54 52 49 50 53 55 53 51 47 49 40 39 40 40 46 44 44 43 44 39 41 40 40 41 42 41 37 37 38 40 44 41 42 51 51 48 46 42 40 41 39 43 39 43 40 42 44 44 57 96 134 153 165 171 180 184 183 214 243 
43 40 37 37 37 42 44 42 44 41 42 43 43 43 44 46 47 52 51 51 54 54 55 57 58 60 56 58 54 53 53 47 42 41 43 47 44 43 45 45 42 42 40 42 41 43 41 36 40 42 42 42 44 46 52 70 81 67 52 43 41 41 45 43 44 44 44 46 42 54 97 137 154 163 168 173 174 164 212 256 
44 44 41 41 38 41 49 42 43 44 43 43 47 47 48 48 50 52 53 56 57 61 63 59 60 63 63 61 60 57 56 50 45 44 46 49 49 49 48 49 46 45 46 42 40 45 42 40 39 41 46 42 48 51 82 198 173 108 65 49 44 45 43 43 44 45 46 41 46 54 94 136 156 165 171 178 184 196 225 244 
51 48 43 46 44 48 48 44 46 49 48 49 45 48 50 54 55 56 58 61 65 65 67 65 68 68 66 64 61 58 59 48 44 46 50 52 50 48 51 49 47 46 48 42 44 47 45 45 42 45 47 45 46 54 99 240 185 106 61 48 43 44 43 42 44 46 46 46 49 59 93 133 154 164 173 178 193 206 224 239 
54 52 50 48 47 52 58 51 50 50 51 48 49 53 53 57 58 61 61 66 69 70 68 66 72 70 69 68 65 62 59 50 47 48 49 54 51 50 46 46 46 48 45 45 50 49 44 45 43 43 44 45 47 53 63 95 97 73 56 49 43 43 42 40 44 45 47 46 47 50 89 127 154 167 170 180 194 209 222 236 
65 59 58 55 53 61 63 58 53 52 54 54 56 55 60 60 60 64 63 68 74 77 76 81 82 80 82 76 69 64 59 55 51 49 51 53 53 47 45 50 51 49 48 47 47 51 46 48 45 45 46 47 45 52 54 59 63 56 51 45 45 46 45 45 43 47 47 46 47 54 86 130 153 164 178 183 195 210 218 235 
81 75 69 60 57 61 70 59 54 54 57 58 57 61 61 62 61 68 70 79 80 79 80 84 82 88 86 79 71 65 60 58 52 51 50 57 55 55 64 77 52 52 55 52 50 54 50 48 45 49 48 48 46 50 50 54 57 47 48 44 47 43 45 47 47 47 46 44 46 47 76 136 152 168 177 186 196 212 219 235 


