P2
80 60
255
16 22 21 31 39 52 80 93 77 46 57 93 88 48 44 43 37 33 33 31 29 31 27 21 26 28 23 29 32 34 35 34 33 34 32 32 34 25 28 27 31 27 31 26 28 25 30 28 26 22 18 18 17 18 16 16 15 18 15 19 20 17 18 20 20 16 17 19 23 24 21 19 19 20 15 18 16 17 15 14 
17 22 25 26 38 57 92 100 73 45 66 95 82 47 40 41 35 37 34 28 30 29 27 27 25 23 28 29 33 31 37 33 34 35 33 31 31 28 29 27 28 27 29 29 27 26 30 32 30 23 17 20 19 16 17 17 20 16 17 23 20 16 16 25 22 19 16 23 26 22 24 20 21 18 14 18 17 18 9 14 
16 25 28 26 41 52 92 97 69 46 71 94 79 43 40 39 31 32 34 30 32 29 27 28 27 28 33 29 31 34 34 34 33 30 33 30 29 28 28 30 28 28 28 25 26 30 32 29 30 25 21 21 21 19 18 21 23 21 21 24 23 23 24 28 25 14 16 18 25 23 21 20 17 22 17 24 20 16 15 15 
17 23 26 31 41 56 95 98 59 45 74 93 75 42 37 32 31 34 30 30 31 25 27 29 26 31 31 29 34 33 35 35 32 29 32 29 30 25 27 26 29 28 29 27 29 29 29 31 30 26 24 24 27 24 26 27 28 29 27 28 28 27 25 29 27 20 18 20 24 20 24 21 19 18 19 19 20 15 11 11 
16 23 24 32 42 71 108 99 59 47 79 91 62 38 34 33 30 31 33 26 27 22 28 28 28 31 30 30 34 32 36 34 30 31 32 29 28 25 25 25 26 30 29 26 30 30 30 33 29 29 29 29 24 30 29 29 28 33 28 32 27 28 30 28 24 20 19 17 24 21 22 23 21 20 19 19 20 12 9 11 
16 20 26 33 42 75 106 89 54 46 85 92 63 35 35 31 31 30 28 26 29 29 31 29 28 28 32 32 31 33 34 33 33 33 30 31 31 29 25 27 24 24 28 30 30 29 28 29 30 32 32 30 33 26 28 30 29 32 30 32 27 26 25 26 24 20 16 16 25 21 25 26 20 20 21 18 18 13 8 12 
13 25 31 35 41 74 103 85 49 48 86 89 52 32 31 30 30 29 32 29 28 29 27 29 27 30 30 27 33 34 36 30 33 32 29 31 30 30 30 27 27 26 24 27 27 27 30 32 29 31 31 30 27 28 31 31 28 26 27 27 28 27 25 26 25 20 16 16 25 23 26 22 23 23 21 22 18 9 10 12 
10 18 22 27 38 75 101 78 50 51 87 88 46 31 28 27 28 27 28 25 27 26 25 23 27 26 26 23 28 31 35 33 33 27 28 29 26 26 28 26 29 28 28 26 29 25 27 28 26 26 30 27 30 29 24 25 26 25 27 26 26 24 26 27 24 22 16 15 22 23 25 19 20 20 20 19 13 10 12 13 
5 11 16 28 31 74 101 75 43 49 94 86 43 28 26 29 25 27 28 23 27 29 24 26 25 26 26 24 29 32 34 32 29 32 29 27 29 28 27 28 28 26 26 29 26 29 28 29 29 30 25 26 26 28 24 28 28 26 27 30 29 29 29 25 29 27 18 19 23 22 25 23 23 21 17 19 12 18 13 12 
8 5 7 0 15 77 101 68 35 51 101 86 43 26 27 26 26 24 24 25 27 26 26 24 26 25 30 30 30 31 32 34 30 35 30 28 29 29 27 28 30 28 30 29 30 32 29 30 29 30 25 28 23 25 25 27 27 31 27 30 30 29 29 26 29 27 20 19 22 24 26 22 24 23 20 21 14 16 15 15 
11 15 11 3 17 83 102 63 27 53 107 90 26 15 16 17 19 21 24 24 22 23 24 22 25 25 25 26 27 29 31 31 26 32 29 25 28 29 28 27 28 26 28 26 28 29 30 26 29 27 26 25 27 25 25 27 27 31 29 30 31 29 27 27 25 27 22 14 23 27 28 23 24 21 19 21 13 11 13 10 
10 19 20 16 25 93 104 62 29 59 103 80 22 14 13 18 11 14 20 17 18 21 21 19 22 23 23 25 24 28 31 29 28 27 27 29 27 27 24 27 26 28 26 29 27 28 28 28 27 26 26 27 29 28 28 26 29 32 30 32 29 30 25 28 27 27 22 19 23 23 26 22 22 24 24 18 14 16 11 8 
11 17 18 18 21 90 96 58 28 62 105 74 17 11 12 14 13 13 14 9 11 12 9 9 14 18 20 19 21 25 28 23 26 27 26 27 29 27 25 28 27 28 25 29 27 26 27 23 26 29 27 28 27 27 28 30 29 29 27 28 30 28 28 29 24 30 24 18 20 21 29 24 21 21 19 22 18 15 11 9 
11 18 20 21 26 97 88 48 33 69 103 69 21 14 17 14 13 14 15 10 11 7 8 11 10 9 10 11 11 10 14 16 19 24 24 25 24 25 29 27 30 31 26 26 25 25 28 29 30 31 29 29 27 30 29 31 29 28 27 29 30 30 26 27 26 28 23 20 21 25 27 24 24 22 24 24 16 11 11 18 
15 15 18 21 40 96 87 47 31 80 100 60 20 17 18 19 17 14 15 14 9 10 11 10 9 9 10 9 10 11 13 15 12 11 8 17 23 27 26 26 29 25 27 26 28 28 29 29 30 31 35 32 30 32 30 33 29 30 28 30 30 30 27 28 30 28 30 21 17 23 26 26 25 24 24 22 18 14 13 15 
9 18 17 21 40 96 87 40 31 83 99 57 20 15 17 17 16 17 14 10 10 12 10 11 12 9 12 5 10 13 12 13 12 10 13 20 20 25 21 28 28 25 27 29 28 28 31 28 32 32 30 32 31 31 33 30 32 32 32 29 32 30 29 26 28 32 30 21 17 22 28 25 23 25 22 23 21 19 11 11 
13 16 20 21 47 99 81 38 30 86 92 50 18 15 18 16 17 18 16 14 14 14 13 10 9 9 11 9 14 15 14 12 12 22 25 26 27 29 26 22 25 25 26 26 27 25 30 29 31 33 30 32 32 29 30 30 29 29 29 31 31 29 30 26 27 32 28 23 19 19 28 25 22 23 22 22 21 22 15 19 
12 17 21 21 54 102 79 36 34 94 92 50 19 16 21 19 21 17 20 14 16 14 14 14 12 12 11 11 13 15 14 21 26 32 30 31 31 28 29 26 26 32 32 29 32 30 34 33 31 31 35 34 33 33 34 33 34 34 34 32 32 27 31 30 27 29 33 25 19 20 27 26 27 26 26 26 24 24 18 21 
14 15 21 21 56 99 73 32 32 93 88 47 18 15 20 21 16 18 19 14 16 13 13 13 13 11 11 10 14 15 21 28 28 28 26 24 26 24 28 26 27 26 28 27 29 28 29 30 30 29 34 33 32 28 32 31 31 31 30 30 33 31 29 30 29 31 33 26 22 17 25 25 26 24 26 25 26 24 20 22 
17 22 22 22 62 99 76 31 35 93 86 42 18 16 17 18 22 19 20 15 14 14 13 12 15 13 13 14 16 17 24 30 27 28 26 24 28 24 27 28 27 27 25 27 28 31 29 30 32 30 35 31 31 33 33 30 33 32 30 32 32 32 28 26 32 29 31 25 21 13 21 25 29 26 23 20 23 25 20 14 
19 24 22 23 71 104 75 33 38 101 85 46 21 18 18 19 21 20 21 17 15 18 15 14 15 17 14 16 17 18 21 31 28 30 26 26 26 26 26 26 27 27 28 32 29 30 31 31 32 31 32 33 31 31 30 31 30 30 30 35 34 32 32 29 31 28 30 29 23 12 24 26 28 26 27 22 22 27 20 19 
41 39 38 39 89 114 78 30 44 103 85 39 18 16 18 18 17 22 20 15 18 17 13 13 14 13 14 13 17 18 19 27 28 29 26 28 27 26 25 27 27 26 29 29 29 29 31 33 32 31 33 31 31 30 30 28 30 33 28 31 33 32 29 33 28 31 29 30 26 13 16 21 24 24 25 24 27 25 19 22 
100 98 95 95 110 111 68 27 51 101 83 36 18 19 17 19 20 21 21 16 17 15 14 12 14 14 14 13 18 18 16 25 25 29 28 23 25 25 24 22 27 26 29 28 27 29 31 29 29 31 34 33 33 31 32 31 30 32 29 30 31 30 29 34 27 33 30 29 27 18 14 17 23 24 24 25 26 26 21 20 
95 104 104 103 102 92 54 30 58 102 84 33 17 13 21 19 19 19 19 16 19 16 14 15 13 14 16 14 15 17 18 24 25 26 26 26 28 26 26 25 26 25 25 29 28 29 29 29 31 33 32 32 31 31 29 31 32 32 29 32 32 30 30 31 31 31 30 32 28 25 21 14 21 23 24 25 24 23 20 17 
53 64 76 82 82 69 38 30 62 108 84 34 21 19 21 21 21 20 18 17 19 19 19 17 18 12 18 16 20 18 21 23 27 28 27 27 30 27 29 26 34 32 27 30 30 28 31 33 31 36 32 34 34 34 30 31 34 31 31 31 35 33 34 33 30 31 31 30 32 28 24 16 17 18 19 22 22 29 22 22 
27 33 31 33 34 35 30 32 65 113 87 37 19 20 21 22 19 19 21 20 19 18 18 19 18 20 21 16 18 21 21 25 29 34 28 27 28 28 30 29 36 31 30 33 34 31 29 32 32 34 34 33 34 32 33 31 32 33 31 33 33 29 32 33 32 31 32 31 34 30 30 25 20 13 16 17 17 20 20 22 
45 43 38 36 29 30 29 35 74 117 87 31 19 23 22 21 22 20 21 19 20 18 20 18 17 18 18 17 18 18 20 28 30 31 28 28 31 30 28 30 33 32 31 30 30 26 31 33 30 32 36 35 30 35 31 34 32 35 30 29 29 31 33 32 29 30 32 34 32 31 31 27 24 19 14 16 12 16 14 17 
106 106 98 88 76 74 64 61 95 119 88 34 20 24 22 22 26 21 25 17 18 18 18 18 20 17 18 19 18 17 20 29 27 28 28 30 33 30 30 31 32 30 31 30 29 30 32 30 32 31 33 30 33 33 31 32 30 30 28 28 30 33 30 30 30 30 32 28 32 31 31 29 28 28 24 25 22 21 20 20 
103 110 109 103 101 102 95 95 108 107 79 26 20 21 22 21 24 22 25 19 25 20 17 19 17 17 19 19 19 22 23 25 29 31 34 29 29 30 33 32 29 29 32 33 30 30 30 34 33 31 35 36 31 30 29 30 33 31 31 31 29 31 31 30 32 30 32 32 34 29 34 28 28 26 25 28 28 26 22 20 
55 67 78 77 82 94 91 90 96 88 61 19 20 20 21 23 22 23 23 22 20 23 20 22 22 18 22 18 19 18 19 27 29 26 30 31 30 30 36 32 34 29 32 30 30 30 30 31 30 34 31 33 31 31 33 28 29 32 30 30 30 32 28 29 31 35 34 33 34 29 31 32 30 29 25 24 25 27 23 25 
20 30 33 30 35 39 39 45 51 46 29 23 18 21 25 23 25 22 24 22 21 22 21 24 18 21 20 22 21 18 20 28 32 31 29 30 29 33 30 29 31 29 33 29 29 32 31 30 34 33 31 32 30 30 31 33 30 37 32 32 33 34 30 33 30 32 30 34 34 30 34 31 30 27 26 24 26 28 21 23 
21 28 24 23 25 28 28 26 31 26 24 23 20 20 23 28 23 25 24 24 24 24 22 21 22 23 21 23 23 22 21 27 32 32 29 31 31 32 31 31 35 32 31 31 33 30 29 31 33 35 33 35 34 34 36 34 31 30 35 31 33 34 32 31 32 31 33 34 32 32 37 34 29 30 25 24 23 25 23 25 
19 27 24 22 27 25 26 25 28 26 23 20 20 21 27 27 29 25 26 23 23 24 23 21 24 23 22 22 22 23 21 25 31 32 32 32 30 31 32 30 33 32 34 32 33 30 33 31 32 32 36 33 32 29 33 34 30 31 33 35 32 33 33 33 32 35 34 35 32 32 31 32 32 29 29 25 27 27 23 24 
18 24 22 28 25 28 26 23 28 30 27 19 19 23 27 27 27 27 25 23 24 24 25 24 26 22 24 23 26 24 24 31 31 32 30 29 31 32 30 33 37 32 31 33 32 31 30 32 32 33 36 34 33 34 37 35 32 31 32 32 34 35 32 34 33 35 36 35 33 29 31 32 34 32 31 24 27 28 22 24 
22 26 24 19 24 28 23 25 28 27 24 21 21 23 26 26 26 29 28 26 24 23 27 27 26 27 26 22 26 23 22 27 30 30 30 33 33 29 31 31 34 31 27 36 30 32 30 30 30 35 35 33 35 33 33 30 35 33 31 35 37 35 33 34 35 34 35 36 32 35 32 31 31 34 29 27 26 27 23 26 
20 26 28 21 25 28 26 24 31 27 23 25 21 26 27 27 26 26 30 26 28 27 28 28 26 27 25 26 27 24 23 29 31 32 33 34 33 30 31 30 29 32 32 32 33 32 34 34 32 36 33 33 32 31 35 33 33 34 32 33 33 35 34 32 33 31 35 36 33 34 33 31 31 31 29 29 26 30 26 30 
19 27 28 25 24 27 25 24 32 30 26 23 20 25 25 29 26 26 30 26 28 28 28 27 27 25 26 26 27 27 25 31 34 36 32 34 33 32 33 33 30 32 31 32 31 33 36 36 34 35 38 34 34 33 36 33 37 35 32 35 33 35 35 36 34 32 35 36 33 33 38 31 30 32 28 27 28 30 30 34 
21 24 29 26 25 28 27 24 30 27 24 24 22 25 31 27 28 32 31 27 30 31 25 26 28 28 29 29 32 27 26 31 32 33 31 32 34 32 31 32 34 36 33 32 34 36 35 35 34 36 34 34 32 35 35 34 33 34 35 34 34 31 34 31 33 31 36 36 35 35 34 32 32 31 29 30 28 27 35 35 
18 26 26 25 22 29 26 23 32 29 21 22 22 24 30 28 32 30 31 27 28 29 28 28 27 28 28 28 32 29 25 29 31 36 36 33 35 30 32 35 32 37 30 30 33 34 34 35 35 34 34 36 34 33 34 32 37 35 31 31 29 35 33 33 32 35 34 35 36 32 35 29 32 34 30 28 35 40 39 45 
18 25 26 27 25 30 26 24 32 27 24 27 23 26 30 30 29 30 34 27 29 27 30 31 32 29 31 29 30 32 31 32 35 34 30 33 33 35 35 32 34 35 32 34 36 33 37 34 34 33 34 34 35 31 34 37 34 35 30 34 34 34 32 29 32 33 36 35 35 32 35 35 33 34 27 35 55 50 43 43 
19 28 27 24 26 30 28 23 30 25 26 25 24 24 29 32 29 32 35 29 31 31 32 31 31 31 33 29 32 30 29 30 33 35 32 33 33 32 33 31 36 35 33 35 32 35 34 35 33 36 37 32 34 33 34 33 32 37 30 33 34 33 30 33 33 34 36 34 35 33 35 33 34 31 29 32 37 41 40 41 
20 23 25 28 26 28 28 24 30 28 23 25 26 25 29 31 30 34 33 30 32 33 31 34 33 34 34 33 30 32 28 28 36 33 34 33 34 33 34 34 36 33 36 35 33 34 35 33 37 34 35 36 33 33 33 35 33 32 34 31 33 32 27 34 30 37 36 34 36 35 35 36 33 33 34 34 36 35 37 40 
19 24 25 26 27 32 29 24 30 29 25 27 27 29 30 31 33 32 33 33 33 31 32 32 33 35 31 32 33 31 28 31 35 36 34 33 35 34 33 34 35 33 34 34 32 32 33 34 32 32 34 35 29 32 32 31 28 33 30 32 31 33 30 31 31 35 35 35 36 32 36 37 36 35 33 36 40 41 39 38 
19 23 24 24 27 32 30 31 32 32 23 27 24 29 30 33 32 33 37 34 33 37 34 38 30 36 34 34 36 32 31 33 36 38 33 34 36 34 38 34 37 36 33 34 30 31 34 31 33 34 34 37 31 32 32 30 30 30 30 31 31 32 30 36 33 34 36 37 37 37 41 41 43 47 52 58 71 82 96 115 
17 27 25 30 28 31 29 30 32 33 29 27 27 30 30 36 34 34 40 36 38 36 38 38 38 38 35 32 31 32 30 30 37 36 36 38 38 36 38 33 39 35 33 33 32 34 34 32 32 34 35 29 32 31 30 32 31 31 33 31 32 34 33 33 33 31 40 37 38 46 68 82 92 104 113 125 140 154 169 193 
22 27 30 27 27 33 32 30 32 31 28 30 27 32 34 33 33 41 37 40 36 40 39 37 38 37 36 34 32 35 30 31 36 37 37 38 37 40 34 36 37 36 32 32 35 33 35 36 35 32 35 33 34 31 32 32 27 36 31 32 34 35 36 33 36 36 36 39 38 65 108 123 132 138 148 158 170 188 204 228 
19 29 28 29 30 33 34 30 32 32 27 30 29 32 36 34 37 38 42 40 39 42 41 41 40 35 35 34 34 35 33 26 32 38 35 37 38 36 37 37 38 39 35 35 35 36 34 34 33 35 34 37 33 32 32 32 33 34 31 35 36 35 35 40 36 36 39 37 44 75 118 148 157 162 174 184 200 217 237 247 
21 26 25 28 30 36 32 31 28 33 31 29 34 34 34 36 38 37 41 38 39 40 39 41 39 39 43 42 39 38 41 37 33 36 38 38 36 35 36 36 35 40 35 35 33 33 34 34 33 34 37 34 33 31 31 30 32 33 33 34 35 32 34 34 33 35 36 39 42 71 122 152 165 173 179 196 206 225 246 249 
22 28 30 30 28 39 32 32 33 34 30 27 31 35 35 41 36 37 43 37 40 41 43 41 42 48 49 48 43 43 41 38 36 35 38 40 37 38 38 37 39 37 36 37 34 31 34 33 35 37 35 35 35 32 31 34 33 32 32 30 34 36 33 34 32 36 40 40 41 67 119 150 165 176 182 194 209 226 243 255 
22 26 29 31 30 34 32 30 33 35 32 28 31 36 37 37 36 41 42 36 40 43 40 41 40 46 51 48 45 44 44 38 36 39 41 39 36 38 36 37 36 40 35 37 36 36 32 35 32 34 35 34 35 31 33 33 31 32 33 32 33 33 35 34 36 35 40 37 43 60 113 146 164 170 180 190 202 221 242 251 
24 28 30 31 34 36 32 30 38 38 30 28 33 39 37 38 40 42 44 40 44 45 43 45 45 48 51 49 47 48 43 39 38 37 41 41 40 40 43 37 41 40 39 35 36 35 34 35 29 35 37 34 37 33 35 36 33 35 34 37 37 36 34 33 35 38 39 38 40 60 111 141 158 168 175 190 201 216 239 252 
26 32 32 31 30 35 33 31 37 40 39 33 33 34 37 44 42 46 46 42 46 45 43 46 47 50 50 50 47 50 47 43 37 39 42 43 41 40 39 43 40 37 40 38 38 39 34 35 38 35 34 37 35 34 35 37 37 34 35 36 36 38 35 37 37 38 38 38 45 56 105 136 155 166 175 186 197 214 236 252 
27 34 39 32 33 39 35 36 38 37 35 33 32 38 40 41 42 47 46 44 48 49 49 45 47 50 55 53 46 47 46 47 37 38 42 43 40 41 40 40 44 40 37 39 36 36 34 38 36 35 35 37 39 37 41 42 39 38 36 35 37 35 38 35 36 39 38 38 42 53 105 134 154 165 173 183 198 213 231 242 
29 35 35 35 38 41 40 37 40 43 38 32 41 39 41 43 43 43 48 46 52 50 50 50 51 54 58 54 49 51 48 44 38 40 42 46 45 44 41 44 40 43 40 41 38 37 38 38 36 39 38 40 39 40 49 49 44 46 37 35 36 37 37 37 39 37 36 40 42 52 101 131 154 163 169 177 181 187 216 240 
31 39 40 37 39 44 40 38 44 43 41 41 40 42 49 47 49 50 53 50 52 54 53 56 55 57 54 58 52 55 52 49 44 43 45 47 43 44 47 43 43 45 42 40 38 37 39 36 39 41 40 37 40 45 52 67 79 65 49 40 39 39 38 37 40 41 40 42 41 50 100 129 152 161 166 172 172 171 216 244 
35 44 45 42 41 43 45 43 46 46 40 40 44 43 50 52 52 53 56 55 57 61 59 60 59 64 63 62 60 61 58 52 43 45 48 52 47 50 47 45 46 46 45 43 40 42 42 44 42 44 45 42 45 48 81 199 171 109 64 47 43 40 40 39 41 42 43 42 47 51 95 130 154 164 167 179 177 197 227 241 
41 43 48 48 48 49 48 46 49 49 49 44 42 47 53 55 54 59 59 58 64 63 65 67 67 66 65 64 61 63 58 52 46 49 50 52 50 48 47 45 43 46 48 43 43 46 40 46 42 44 43 45 46 50 96 246 183 106 60 48 42 42 44 37 38 43 44 45 47 53 92 127 150 161 170 177 189 207 224 235 
50 47 50 49 51 55 51 49 52 52 49 48 46 50 55 60 56 59 63 64 67 67 67 70 71 71 72 67 64 61 58 54 48 50 51 56 53 49 43 44 45 47 45 45 46 45 40 45 46 44 43 42 45 48 65 98 93 72 56 44 40 38 41 37 40 41 42 43 43 49 89 123 150 165 165 178 193 207 220 233 
48 56 56 55 54 59 57 53 55 55 53 48 52 58 56 59 61 62 66 68 72 76 76 81 78 77 81 79 68 64 60 57 49 53 52 55 51 44 41 47 47 50 48 48 46 49 45 48 46 45 46 49 44 47 49 56 58 55 49 46 42 43 41 40 37 41 43 42 42 47 84 124 150 159 172 182 196 209 222 235 
71 71 69 57 59 63 59 58 58 55 54 54 53 58 59 64 60 64 70 72 75 77 78 83 84 83 84 78 70 67 60 58 52 54 52 55 53 52 61 74 51 54 50 52 48 51 47 50 44 48 49 47 44 49 48 50 50 50 46 44 47 38 38 41 39 45 44 38 44 46 78 129 150 169 173 182 194 208 223 229 


