P2
80 60
249
27 28 32 41 77 102 87 45 57 98 96 56 46 42 38 37 31 26 28 30 27 27 26 24 22 25 27 25 28 37 30 29 29 27 27 24 25 27 26 26 26 27 28 28 27 31 28 27 18 15 18 17 18 17 18 15 20 25 23 25 24 24 24 28 24 21 22 22 23 26 27 25 22 21 22 21 23 23 19 14 
22 28 36 47 84 107 82 46 58 101 93 57 44 44 36 34 30 28 30 28 27 27 27 27 28 30 30 30 28 33 30 32 30 28 25 26 27 27 24 27 26 25 26 28 30 31 28 28 24 19 18 19 17 17 23 22 26 27 26 29 29 32 32 31 32 23 19 25 25 27 26 25 24 24 22 22 25 24 21 17 
23 29 38 46 88 105 78 44 65 101 89 51 35 38 35 34 30 30 28 26 28 27 26 26 26 28 29 28 31 33 29 30 30 24 26 24 24 26 26 26 26 26 30 28 27 31 29 33 26 27 24 25 25 22 26 27 30 28 32 32 29 32 30 29 29 21 21 24 24 26 27 21 25 27 24 22 27 25 22 24 
28 28 33 50 93 100 75 40 69 102 83 49 36 36 33 31 32 27 27 28 29 26 26 28 29 28 29 30 32 31 30 27 27 26 22 21 21 27 23 24 29 29 29 29 28 28 33 32 28 31 31 29 28 27 27 31 33 35 31 34 30 29 28 27 25 23 20 22 28 26 29 27 25 22 21 22 25 21 17 18 
25 35 38 50 97 107 71 42 74 97 80 41 38 34 30 33 29 25 27 27 27 27 29 28 28 30 29 30 34 29 28 27 28 25 21 22 26 25 24 23 24 29 28 30 26 31 30 34 31 32 28 29 29 28 26 28 31 30 30 26 27 26 23 27 25 23 23 21 28 28 28 24 24 22 21 22 26 22 15 15 
26 30 36 60 101 97 66 45 78 98 78 38 33 31 31 28 24 29 27 26 27 27 28 26 25 25 27 27 30 30 28 27 26 26 25 22 24 27 26 22 23 27 24 28 26 28 28 31 27 29 30 30 30 27 28 30 29 28 28 28 26 25 27 27 26 26 18 19 28 28 29 24 23 24 22 22 21 20 16 16 
24 38 42 61 101 93 58 42 83 99 73 38 33 35 29 28 27 28 28 29 27 25 27 27 28 26 25 27 28 29 29 28 27 26 22 23 25 24 26 24 26 27 28 28 28 27 26 28 30 27 27 29 26 26 28 28 27 27 28 26 28 28 29 27 28 24 20 21 27 31 28 26 24 22 24 22 23 18 15 16 
22 33 36 52 99 91 56 36 82 101 68 33 32 27 28 27 23 24 27 31 27 26 23 22 21 23 24 28 26 30 29 27 26 25 23 25 25 24 23 25 24 25 26 26 26 27 23 25 25 26 28 23 26 25 25 28 30 30 29 28 28 32 25 31 26 29 21 18 27 28 27 24 24 22 24 23 21 17 15 12 
16 30 33 51 102 92 50 40 85 99 64 36 28 24 24 27 26 25 27 27 27 23 23 24 24 26 25 25 30 31 28 27 24 26 21 23 28 28 23 23 25 23 26 25 26 28 32 28 27 26 25 21 22 24 26 27 29 31 32 33 31 32 28 28 27 31 19 18 27 28 30 28 26 27 26 25 21 17 18 18 
12 6 0 44 105 91 43 31 88 102 60 29 24 25 26 22 24 24 21 27 23 22 22 24 22 24 22 25 27 30 30 28 27 26 25 22 26 25 26 26 25 26 29 26 27 27 30 29 27 25 23 25 24 27 32 30 32 35 36 33 32 29 31 28 31 30 21 19 26 30 30 28 23 26 29 23 20 21 14 15 
11 8 8 49 107 89 37 29 98 109 52 17 16 15 15 18 19 20 18 23 24 20 22 23 21 23 19 24 24 29 26 25 24 24 23 24 23 25 24 23 25 27 24 26 27 25 26 24 25 27 25 27 29 29 28 33 31 30 33 28 32 29 27 29 30 29 23 19 22 27 32 27 23 26 25 20 21 22 18 20 
16 22 21 60 112 91 35 35 101 109 49 21 14 13 16 13 12 15 18 20 16 16 19 20 19 21 20 22 24 25 28 24 26 26 27 24 24 25 26 25 26 26 29 25 31 26 24 28 30 29 33 30 28 31 31 33 35 33 35 31 32 32 28 29 32 31 28 21 28 31 27 31 27 24 28 23 22 21 19 22 
15 19 17 57 106 88 38 41 97 106 51 13 13 14 12 10 14 11 10 6 7 7 8 11 10 13 11 12 12 17 15 22 22 21 20 21 22 22 27 25 28 24 25 25 26 24 28 27 30 30 30 28 29 30 28 29 32 33 31 30 30 28 27 31 26 30 27 22 23 29 30 28 24 27 25 22 23 20 18 19 
13 23 22 68 103 80 37 46 108 107 46 22 15 14 15 12 12 9 12 11 10 7 6 10 10 7 8 9 9 9 7 4 15 12 16 19 23 25 23 25 25 25 24 25 27 29 31 32 31 31 31 32 30 27 32 31 31 31 35 33 34 31 31 32 34 32 30 21 22 30 31 30 28 30 27 26 24 25 18 18 
15 19 22 75 99 74 34 44 104 99 42 23 19 17 19 17 13 13 13 12 11 9 8 9 8 6 7 10 12 10 10 7 4 7 18 18 24 25 25 21 23 27 27 29 30 30 31 35 35 31 33 32 30 33 32 31 33 32 32 33 30 32 30 30 33 32 30 24 23 32 33 29 26 30 28 28 26 24 19 20 
19 22 25 75 96 69 30 45 104 90 41 19 16 18 18 16 12 11 12 9 9 8 9 10 9 6 9 8 7 13 4 8 13 17 21 22 24 20 21 24 27 26 27 25 29 31 31 31 31 29 30 28 30 32 32 28 34 31 32 31 31 31 28 32 33 34 29 26 22 23 29 29 26 26 26 27 29 23 21 21 
18 23 25 77 98 70 32 45 106 92 36 21 19 19 16 18 15 12 13 14 14 11 12 11 11 9 10 10 12 13 17 19 26 25 23 24 22 24 26 25 22 26 30 29 31 29 30 31 33 29 31 30 33 33 30 32 32 35 32 33 31 30 34 33 33 32 30 27 21 25 35 29 30 28 24 28 28 27 22 24 
19 22 27 83 99 69 26 48 104 88 39 24 17 22 18 17 17 14 13 14 15 14 13 13 12 13 11 14 15 20 28 28 27 25 25 22 26 25 26 25 24 26 29 31 31 33 33 31 32 33 31 31 32 32 33 31 35 34 36 33 34 33 35 33 35 37 32 28 24 23 32 29 28 28 30 25 26 28 22 30 
18 19 26 85 97 66 27 49 101 89 38 20 17 17 21 20 16 14 15 15 13 11 12 14 12 10 9 9 13 22 29 23 24 23 23 21 25 25 25 24 26 28 30 28 27 27 31 27 32 29 31 32 32 32 28 31 29 31 34 32 34 32 33 32 33 31 31 31 18 18 28 29 26 26 28 27 29 30 22 19 
18 24 30 91 99 63 30 52 104 89 33 22 19 20 17 18 19 18 15 15 15 15 14 12 12 12 13 10 14 23 29 25 26 22 21 20 22 27 27 24 28 27 30 26 28 30 29 32 28 30 33 33 30 32 30 32 35 35 34 35 34 35 33 32 35 32 35 31 23 20 28 29 28 27 28 26 27 29 20 26 
19 24 31 97 96 61 32 58 107 86 30 24 20 23 21 22 21 20 18 19 16 16 15 15 18 13 11 14 14 20 26 25 26 23 23 22 22 24 25 25 27 28 30 30 31 31 31 32 34 32 33 32 31 30 30 34 31 37 35 37 34 36 33 36 35 35 34 38 24 23 24 30 31 29 30 30 33 30 26 25 
27 29 43 107 100 58 31 65 109 89 34 24 19 21 20 18 23 18 16 18 16 17 15 13 14 11 14 13 17 16 25 22 25 22 24 21 24 25 27 24 27 27 24 30 29 29 31 30 31 32 34 33 30 31 33 33 32 33 36 33 33 36 33 36 34 33 33 35 32 25 19 29 28 27 29 28 32 30 20 21 
76 74 77 123 105 54 33 70 111 87 30 25 21 18 21 21 16 17 16 17 20 18 17 13 17 15 15 15 13 14 22 22 24 26 20 18 23 22 26 23 27 27 27 29 28 30 31 32 32 31 31 32 29 30 32 29 31 33 35 32 33 34 33 36 33 33 31 35 33 28 19 23 26 30 33 30 33 31 24 22 
100 110 108 115 93 43 32 70 105 80 32 23 21 20 19 16 17 18 18 16 17 16 17 14 14 16 18 14 16 16 22 22 24 24 21 21 25 24 23 25 29 26 26 30 26 28 31 28 29 33 30 32 30 35 32 29 34 32 33 35 30 35 34 39 36 32 33 35 31 31 22 21 24 28 28 30 32 28 23 23 
97 100 99 93 73 32 35 76 107 84 32 26 23 22 21 20 19 17 21 17 18 16 18 16 15 15 16 14 15 19 21 26 28 24 24 26 26 28 26 27 30 29 29 27 29 30 29 32 30 32 33 35 31 33 34 33 34 35 36 33 33 34 34 39 35 35 33 33 32 32 33 22 21 22 25 29 31 32 22 22 
42 48 53 52 36 28 36 80 112 85 36 27 25 25 28 24 21 20 19 21 19 20 19 21 18 19 17 15 16 18 24 24 26 23 28 25 26 30 30 28 29 31 32 30 32 30 30 33 31 30 32 36 31 32 35 35 32 38 35 35 32 36 33 37 36 36 35 38 31 36 34 31 23 18 19 22 26 31 20 22 
32 30 27 26 26 23 36 86 118 83 34 26 24 21 24 22 18 19 22 22 18 18 18 17 21 16 14 16 17 17 21 26 27 27 24 26 27 27 30 29 29 29 31 29 27 32 33 34 34 30 31 33 31 33 33 35 34 34 36 32 34 34 32 33 36 34 35 38 35 36 34 34 29 26 20 20 25 22 19 21 
76 72 58 51 44 42 49 100 121 83 35 26 23 23 25 23 20 24 18 22 19 18 20 21 17 19 14 18 16 17 25 26 30 28 26 26 28 30 28 31 32 29 29 31 29 30 34 31 35 34 35 33 30 34 36 35 32 34 37 34 34 36 37 35 35 35 37 35 35 38 38 35 32 34 30 29 27 26 24 25 
121 115 107 101 99 93 104 115 113 78 33 25 23 27 22 22 22 20 24 21 21 21 17 18 20 17 18 18 20 17 23 28 27 29 26 27 28 31 31 31 30 30 33 32 30 30 35 32 37 32 35 34 32 31 34 31 34 33 34 34 36 34 33 37 33 35 36 37 32 36 34 35 32 33 33 30 30 29 19 20 
101 102 98 100 102 99 103 104 98 63 28 25 24 20 24 24 23 22 23 22 23 22 21 19 19 20 20 20 17 19 27 28 27 25 28 29 28 29 32 31 31 30 28 30 30 30 34 33 31 33 33 32 31 29 36 34 33 35 34 35 36 32 34 36 34 39 38 37 35 34 37 33 35 30 32 32 32 28 22 23 
43 49 49 50 56 59 65 67 61 37 25 26 27 26 26 25 24 24 25 21 23 26 22 20 19 20 21 20 21 21 25 28 27 29 27 25 29 29 33 31 32 30 33 30 35 31 35 35 33 33 35 34 35 34 32 34 35 36 35 37 36 34 34 38 34 37 34 37 36 37 35 37 33 31 33 32 31 36 24 23 
29 29 25 25 29 26 32 33 33 27 27 25 26 29 26 25 24 25 24 23 20 23 25 25 24 21 17 24 21 21 26 29 33 30 29 26 28 27 32 34 30 32 33 29 35 32 34 35 34 34 33 35 33 35 34 34 35 36 35 36 34 37 36 37 34 36 35 37 37 35 37 38 34 34 36 29 34 31 23 32 
27 25 25 22 25 23 28 25 29 28 27 25 28 30 27 29 25 27 26 23 22 23 24 23 23 19 22 26 22 23 22 29 30 30 28 26 30 29 32 29 30 31 34 33 30 32 33 35 34 38 34 35 32 32 31 39 33 34 36 32 37 36 37 36 35 38 38 39 38 38 38 33 36 35 33 30 32 34 25 26 
25 26 23 26 23 20 21 25 26 28 26 28 26 28 30 29 27 26 27 26 26 25 24 24 26 21 21 23 20 22 24 29 30 29 30 28 29 29 32 30 34 35 37 34 35 34 36 36 33 35 36 34 35 36 33 34 35 36 37 36 35 36 36 39 36 38 37 41 39 37 34 34 36 34 34 32 34 35 27 26 
28 28 25 24 24 22 23 28 28 30 27 30 29 27 27 28 30 28 27 28 28 27 28 27 27 24 23 27 24 26 27 29 33 30 31 28 32 29 33 31 33 32 34 31 33 34 36 35 34 35 35 37 35 35 35 33 33 36 39 37 38 40 38 41 38 40 39 38 39 35 37 34 35 32 32 31 35 34 32 30 
30 30 23 24 24 23 28 28 28 29 26 28 27 31 31 31 27 28 30 25 29 30 31 26 29 25 25 27 25 26 26 29 34 30 30 28 30 32 33 31 32 33 31 32 33 34 35 33 35 35 36 37 34 38 37 35 37 37 37 38 37 38 35 39 37 37 38 38 35 36 35 34 38 38 35 32 34 38 32 28 
29 31 26 22 25 20 29 28 30 28 31 27 31 29 30 29 28 30 27 28 28 29 27 29 26 29 29 28 25 26 25 33 34 31 32 29 31 30 34 32 34 32 35 31 34 34 34 36 38 36 35 35 33 37 35 34 34 36 36 36 35 35 36 37 37 37 36 37 39 38 38 34 34 36 35 34 35 35 31 35 
25 31 25 25 24 22 22 30 30 28 29 27 28 29 30 30 27 29 26 28 29 28 26 27 28 26 30 32 26 24 24 31 35 32 30 31 29 29 33 30 33 31 31 33 33 34 36 39 37 35 36 36 35 37 35 34 38 35 35 35 37 36 35 36 38 38 38 37 37 39 36 36 33 33 34 29 35 30 35 37 
29 28 28 24 25 25 29 31 32 26 29 29 29 32 33 30 29 29 28 30 29 28 30 27 31 30 29 28 30 25 27 31 33 34 30 31 32 29 31 33 33 38 35 32 34 34 34 41 37 34 37 34 34 36 35 35 37 37 35 34 37 36 37 34 35 37 36 39 37 41 38 39 33 35 35 32 35 38 40 46 
28 29 30 28 27 23 28 29 30 28 29 30 29 34 31 31 31 28 31 28 31 32 32 32 33 29 28 33 29 29 26 34 35 35 31 29 31 32 34 35 35 32 36 35 33 36 39 37 35 39 35 36 32 37 37 36 37 38 36 35 37 35 36 35 38 38 39 41 40 39 38 37 38 35 37 35 43 49 48 59 
29 29 30 30 27 24 30 31 31 30 26 28 28 33 36 33 29 31 30 29 30 32 31 32 34 33 29 30 33 30 29 32 37 35 33 29 32 33 33 32 32 37 34 33 34 36 37 37 36 33 34 35 35 39 38 37 37 35 37 36 36 37 36 34 36 39 38 43 37 40 38 37 35 35 36 40 54 52 54 88 
31 28 26 29 30 27 28 29 29 31 27 31 33 33 33 33 33 34 32 34 37 33 34 35 35 37 31 32 33 32 29 31 36 36 33 30 33 32 35 35 36 35 34 33 34 35 35 36 36 31 32 35 37 36 36 34 36 36 38 38 36 37 38 36 40 42 39 38 40 40 39 37 38 38 38 39 49 50 60 127 
26 28 27 26 30 24 26 33 31 30 30 31 31 32 37 37 37 36 33 35 33 36 32 33 33 33 35 32 33 33 30 35 36 37 33 31 35 34 33 35 34 36 35 35 34 34 38 34 35 36 35 38 33 36 37 37 32 39 35 34 34 38 35 35 39 40 38 41 41 40 39 42 40 39 40 42 44 47 63 143 
25 29 27 25 32 29 27 36 31 31 31 30 32 33 35 37 35 34 35 36 38 34 36 36 40 37 35 34 34 33 25 31 37 38 36 31 36 33 36 36 37 36 35 33 34 34 35 35 39 35 33 36 33 31 31 33 35 34 35 36 34 37 37 37 38 37 39 39 41 41 43 43 39 40 40 45 50 48 61 138 
29 30 27 27 31 28 31 34 31 29 31 31 32 34 38 36 38 36 37 37 38 41 38 39 39 38 34 29 34 33 29 30 34 35 34 35 34 35 35 35 36 35 35 36 32 31 34 32 35 36 36 33 32 28 33 32 31 36 33 35 37 37 38 36 38 39 38 41 41 42 42 46 48 55 59 75 88 90 79 147 
25 34 26 31 30 31 30 31 33 29 29 32 33 35 37 36 36 35 38 38 42 42 42 41 40 35 35 34 32 31 24 30 36 40 37 34 35 34 33 36 36 34 34 36 33 34 36 37 36 37 35 36 32 34 33 31 33 37 38 36 35 38 35 37 37 37 41 43 42 43 47 72 108 136 165 194 206 187 151 166 
31 32 27 27 30 30 34 32 32 32 32 33 35 36 41 39 42 37 41 38 38 44 43 43 42 41 39 40 39 39 33 30 30 37 36 35 36 35 36 35 35 36 36 38 36 36 37 34 37 37 35 37 36 33 33 35 35 36 38 36 36 37 36 36 38 39 42 42 44 51 69 111 135 187 191 188 183 179 174 187 
29 29 29 27 27 29 32 33 33 34 31 33 35 36 37 39 38 40 40 41 40 44 42 42 43 45 48 45 45 44 39 32 35 40 40 37 36 39 36 34 37 39 38 37 35 37 36 37 34 34 38 37 33 33 33 37 35 37 33 35 37 37 38 38 40 41 42 43 51 75 99 114 125 142 145 152 160 169 180 202 
26 29 27 30 28 31 36 33 38 34 34 37 36 38 39 41 41 38 41 42 41 42 44 42 45 47 49 49 46 45 40 34 34 38 39 38 38 37 37 37 37 37 38 36 36 36 35 35 36 35 35 35 33 34 34 34 38 38 37 37 38 38 38 41 39 39 43 47 68 103 115 128 133 138 147 163 182 196 213 239 
30 28 31 30 31 28 33 31 37 38 36 35 38 37 39 37 40 40 42 41 41 44 40 43 42 49 47 48 47 46 41 32 36 39 40 39 37 38 37 39 35 38 36 38 39 37 36 35 36 36 34 35 35 36 35 34 35 38 37 37 40 40 37 40 41 39 42 46 68 109 135 146 150 159 170 182 201 214 229 245 
32 33 31 30 29 30 33 32 39 36 39 38 40 41 44 42 41 41 46 41 47 47 49 48 46 49 53 51 47 48 43 35 34 40 41 39 42 41 41 40 40 41 37 37 39 40 34 38 37 37 36 36 39 38 38 38 40 39 43 41 38 40 38 42 40 41 44 45 66 109 137 154 161 167 178 188 200 217 233 249 
34 32 32 31 28 29 33 35 36 39 39 38 41 45 44 44 41 42 43 45 47 45 48 49 49 51 52 52 51 49 44 34 35 39 40 39 39 40 40 38 41 41 38 41 39 36 38 38 35 38 37 37 37 42 46 44 41 39 41 40 37 42 41 43 42 41 47 45 64 100 136 151 158 164 172 180 198 214 229 239 
37 38 32 37 34 32 36 36 42 39 37 39 41 44 41 43 45 43 46 44 48 49 50 49 53 53 54 52 49 46 44 39 37 39 41 38 40 41 40 40 40 40 41 39 37 41 35 44 35 38 37 38 38 42 51 49 48 49 45 40 40 41 40 41 44 43 43 45 55 99 127 148 154 164 172 182 199 210 225 238 
39 39 39 39 36 31 37 35 44 39 38 41 43 40 46 46 46 45 46 48 51 50 54 51 52 56 55 55 50 52 49 39 38 43 45 39 44 44 42 41 41 42 42 43 40 43 39 40 38 38 38 40 41 44 54 76 85 65 51 41 42 42 42 41 43 43 44 40 52 92 125 147 151 162 167 177 192 207 225 233 
44 47 38 44 41 39 43 42 44 44 44 43 45 49 51 48 51 47 51 54 57 58 56 58 60 58 63 59 59 60 53 47 42 46 45 43 45 45 45 44 43 44 44 43 43 42 43 41 41 38 41 43 46 53 108 218 158 98 59 46 44 43 43 46 48 48 46 48 55 88 123 145 152 160 166 177 193 210 226 235 
44 45 44 43 42 43 46 45 48 45 46 47 47 52 55 56 52 52 56 60 62 62 63 62 66 66 64 65 58 63 53 48 44 43 49 47 48 50 45 43 47 46 46 44 44 44 42 45 43 43 47 42 47 57 124 248 162 92 57 46 45 45 46 42 47 48 47 50 53 80 115 143 150 159 163 172 185 197 218 238 
46 45 43 46 46 42 49 45 53 48 49 50 50 53 51 54 52 56 57 61 66 68 68 64 66 69 67 64 62 62 55 48 46 47 49 48 49 49 45 45 46 48 44 42 43 45 47 45 45 42 44 47 46 54 72 100 89 65 54 47 44 44 42 44 45 48 46 46 50 75 111 138 146 156 160 167 164 162 206 227 
54 54 49 46 48 45 52 50 50 52 53 52 51 56 58 61 60 61 65 67 70 71 75 74 75 76 76 74 69 63 58 50 45 49 49 47 48 41 44 44 47 49 45 49 45 45 46 49 45 46 45 47 46 47 52 57 59 57 51 45 45 45 43 44 45 47 47 48 55 68 107 135 146 154 160 162 163 173 214 222 
65 64 58 60 59 55 57 54 58 56 60 58 55 59 61 62 61 61 67 74 77 79 81 84 79 81 82 81 71 69 58 53 49 51 50 51 49 48 58 64 53 50 52 52 49 53 52 51 48 48 48 45 44 45 46 52 52 51 47 45 46 47 44 45 45 48 52 50 52 66 102 130 145 156 164 168 182 199 209 224 
97 91 82 72 69 54 63 61 61 62 61 62 57 60 61 64 64 66 74 72 77 81 84 83 82 92 91 82 70 68 59 54 56 57 54 55 54 55 91 127 63 54 57 54 51 52 55 53 50 50 49 49 47 45 50 50 47 51 48 46 47 49 45 45 49 51 54 52 52 58 106 132 145 160 164 172 179 194 210 218 


