P2
80 60
613
54 56 67 84 98 122 133 158 177 208 239 263 303 345 416 440 427 440 471 492 507 564 560 528 533 516 519 522 493 510 544 549 534 534 539 547 559 520 512 507 531 508 511 511 516 507 494 497 507 505 490 484 473 469 474 471 457 464 453 496 515 465 418 418 395 373 353 317 274 237 192 159 133 101 76 57 38 20 7 4 
54 62 77 96 118 132 148 176 204 239 273 304 352 396 473 487 460 476 518 543 518 518 516 527 517 518 532 548 508 497 523 507 500 496 523 535 526 505 507 519 548 550 502 511 512 502 487 512 511 511 507 501 471 471 474 466 473 478 477 511 526 501 447 434 435 441 385 365 329 271 236 193 157 124 96 73 53 35 15 0 
61 72 86 111 126 152 171 205 234 269 308 350 402 415 463 482 468 514 540 548 519 526 528 536 534 525 529 535 504 502 500 505 508 502 499 500 510 511 499 543 540 539 532 503 502 484 502 495 495 483 502 483 476 487 479 466 485 489 472 493 512 507 467 487 454 446 400 378 351 305 269 232 195 152 126 93 69 46 30 7 
72 84 98 123 151 176 197 226 267 304 351 388 426 433 490 522 512 513 508 513 523 544 548 546 546 541 525 521 515 517 531 538 505 501 516 507 506 517 507 548 517 498 505 487 520 500 506 476 496 488 494 478 523 482 493 518 490 489 475 484 476 488 483 488 469 494 444 413 406 363 304 263 226 183 158 111 85 64 46 18 
84 94 120 145 170 199 218 265 298 348 395 419 487 489 532 536 555 538 525 535 542 540 551 545 542 545 529 532 513 518 546 551 521 509 505 497 529 552 503 508 513 521 509 486 521 527 523 482 523 486 488 488 512 480 524 526 520 506 518 515 495 520 516 493 499 487 451 468 468 418 349 304 259 222 186 145 109 79 54 35 
89 108 133 158 190 222 249 290 333 396 419 453 494 491 548 560 565 555 527 559 543 539 539 559 553 551 532 543 530 528 522 539 508 508 511 501 534 531 512 507 498 495 489 477 521 498 487 466 479 469 479 480 482 482 532 529 502 486 493 491 496 516 494 491 494 474 468 454 477 446 369 358 305 261 219 178 138 101 73 44 
96 115 146 175 207 245 277 331 366 415 445 463 485 491 528 539 531 514 523 535 545 566 567 556 560 556 547 556 540 521 522 522 518 516 533 521 526 514 509 513 519 517 480 464 470 463 465 464 481 478 488 500 493 493 491 488 479 526 530 504 498 494 485 483 483 477 469 461 444 412 390 373 329 294 252 209 163 122 92 61 
107 127 162 195 231 271 308 362 404 442 504 518 511 501 507 506 505 526 537 556 550 554 556 565 567 562 553 554 552 555 535 543 552 523 527 521 518 513 512 498 503 493 489 467 477 468 479 496 505 491 493 487 501 497 497 488 496 509 511 489 500 501 482 494 496 484 487 507 479 464 443 393 367 330 296 239 196 150 112 84 
126 147 181 216 256 295 338 392 450 463 497 500 519 543 516 510 534 562 546 541 550 561 568 568 571 571 569 568 568 569 557 549 531 530 539 519 517 516 503 507 499 512 508 499 520 469 499 504 482 475 480 489 487 487 493 505 493 519 504 496 505 529 504 508 499 495 477 463 457 474 489 423 400 353 319 272 220 175 135 99 
140 161 198 237 276 323 375 423 453 479 495 507 547 561 550 519 536 554 532 550 557 560 568 571 577 577 582 587 585 577 568 565 551 528 534 512 512 505 496 489 505 496 491 497 530 486 469 469 477 488 490 478 475 487 487 491 498 532 502 494 501 518 504 493 494 477 479 463 464 449 443 429 404 404 352 295 248 198 154 114 
153 184 222 263 304 353 408 450 477 494 512 507 543 553 554 540 527 540 548 563 560 564 570 577 585 590 592 594 597 593 586 574 547 534 541 503 498 497 484 490 486 483 481 479 479 471 509 509 480 483 481 480 486 483 476 475 477 494 505 498 501 488 488 490 491 488 507 489 479 467 471 448 420 426 382 326 287 230 184 140 
169 195 244 280 332 375 405 449 480 524 558 516 528 546 538 530 543 572 561 569 575 579 580 585 593 594 591 595 597 594 591 584 556 534 512 515 535 497 483 474 489 481 470 471 484 488 482 466 472 475 513 501 481 470 505 524 474 504 496 496 490 490 489 496 501 486 485 484 472 467 496 456 469 421 388 343 303 259 214 165 
182 214 259 302 353 414 456 459 478 507 522 510 511 539 549 564 564 571 574 578 578 585 579 588 592 594 593 597 596 598 596 589 560 552 510 507 532 493 478 516 518 472 479 487 488 479 486 504 516 511 490 471 465 474 501 508 458 466 465 481 493 495 501 496 491 489 499 476 477 466 474 472 451 457 481 385 339 283 239 185 
198 231 274 331 384 429 471 472 511 505 511 525 539 547 545 567 572 584 580 583 584 583 584 590 595 593 592 593 595 595 592 591 567 535 522 494 480 475 502 526 525 491 472 476 466 481 498 496 485 477 485 501 498 485 475 469 466 501 482 468 485 480 491 498 496 499 519 491 515 488 497 503 488 450 456 388 349 301 254 205 
214 252 297 344 393 426 448 480 523 528 507 561 564 556 554 572 582 584 584 583 582 582 581 591 591 589 591 590 592 592 589 584 566 544 534 497 523 469 467 486 466 464 476 469 482 475 490 476 478 490 479 473 468 471 484 463 457 482 471 475 498 480 483 482 495 488 485 489 511 505 484 504 506 452 432 413 367 326 277 216 
231 270 313 373 418 455 511 516 498 504 518 542 535 543 562 566 572 580 578 576 581 580 585 586 588 582 583 587 587 585 579 579 570 552 524 502 506 469 461 479 467 469 490 487 485 471 488 478 478 478 465 482 480 498 489 479 463 462 456 463 470 460 471 498 483 495 491 486 492 498 490 477 459 506 492 410 387 339 290 237 
247 285 337 393 432 484 513 524 513 552 548 528 534 550 569 573 580 589 587 584 582 581 580 576 575 575 571 571 581 579 577 574 568 554 540 528 490 502 504 509 471 498 473 465 467 468 467 470 476 484 503 519 499 484 471 471 471 474 464 468 466 483 478 469 488 521 497 490 494 497 484 479 465 472 449 443 436 383 309 264 
259 300 366 403 431 492 510 504 524 566 550 524 564 562 577 583 585 591 591 589 585 578 575 575 575 576 573 573 576 578 574 577 573 567 558 539 510 513 515 522 481 461 464 459 472 461 459 494 481 486 465 475 468 469 483 507 473 469 469 467 468 471 463 485 489 481 494 494 494 493 494 504 509 478 445 445 458 403 337 272 
272 313 369 407 446 471 488 521 518 533 522 533 557 568 580 588 592 600 594 592 580 577 573 580 581 574 573 577 579 583 581 581 580 577 574 547 525 500 492 474 464 476 528 479 454 451 449 438 441 455 474 469 494 480 468 464 463 469 474 468 460 462 471 476 481 479 475 487 507 500 496 507 518 481 450 446 459 392 338 293 
286 327 382 425 469 486 537 574 542 524 560 569 569 574 589 591 590 594 588 582 575 572 575 582 581 577 576 578 578 581 579 581 582 576 576 561 534 507 484 496 507 503 532 452 469 495 434 448 468 466 454 451 458 454 474 471 478 480 474 471 472 453 464 473 473 502 487 508 500 501 497 510 482 462 456 436 418 403 351 308 
298 347 398 444 467 494 564 578 555 525 572 577 565 571 593 591 591 593 581 577 578 577 584 586 582 585 582 581 579 580 581 579 581 578 576 562 549 547 496 507 475 469 456 455 468 494 465 496 470 459 475 477 470 457 477 488 479 470 472 469 498 491 474 469 473 504 482 477 493 505 495 489 487 508 472 495 451 403 381 323 
311 351 402 437 513 523 509 518 516 540 553 561 573 580 590 584 581 585 578 580 581 583 586 586 585 586 578 584 583 581 580 583 580 581 583 565 555 546 504 495 485 469 492 464 455 443 442 439 447 456 458 453 444 436 450 468 464 478 479 466 460 474 446 442 458 468 480 480 493 490 492 492 490 502 489 453 442 403 372 334 
327 365 413 458 527 526 510 548 544 548 565 567 581 582 586 584 580 585 586 584 592 590 589 590 589 586 583 585 585 585 582 583 580 579 581 572 569 551 528 534 487 484 530 483 439 444 446 454 457 452 451 458 447 450 492 459 467 482 465 463 466 484 442 457 469 504 484 487 499 501 495 503 498 488 469 483 452 426 393 352 
339 384 459 485 495 504 538 576 572 564 565 575 582 583 586 580 581 590 590 594 599 591 593 593 590 583 583 587 583 584 582 581 578 577 577 573 572 559 543 516 519 485 470 465 502 495 454 446 471 494 463 454 474 452 442 466 468 463 451 451 444 447 461 458 465 482 478 498 508 497 501 518 490 480 477 474 450 426 438 394 
345 422 492 502 502 521 526 560 541 549 575 578 581 583 584 584 588 600 596 597 597 594 592 593 589 585 579 585 584 585 579 581 574 576 577 572 570 569 553 539 526 516 532 468 492 476 436 439 446 442 464 488 473 460 474 447 450 456 452 456 457 436 447 443 461 465 495 492 495 489 496 496 488 490 494 483 486 476 417 389 
349 439 508 534 515 521 555 541 539 563 573 573 579 584 588 592 597 600 601 601 599 597 596 591 591 590 583 589 587 584 580 578 571 574 575 565 568 568 563 553 550 518 497 465 455 453 459 486 482 458 452 444 443 435 492 463 428 442 464 481 441 466 448 448 460 477 470 479 489 490 501 500 496 492 478 484 480 483 414 382 
359 412 486 506 495 551 566 540 547 564 574 577 578 588 597 598 600 605 598 597 598 595 591 589 591 589 583 587 586 583 580 577 574 569 572 566 568 565 562 561 561 531 520 476 470 472 449 481 439 440 433 447 444 460 434 418 446 445 438 438 437 454 448 457 475 464 473 472 505 487 485 498 488 488 482 480 462 444 434 380 
362 401 444 473 501 522 529 536 560 569 573 579 592 598 605 604 603 607 601 601 598 598 592 587 589 587 582 586 586 586 586 580 575 576 569 565 565 567 559 562 562 537 511 483 469 474 461 461 433 428 439 445 445 443 441 452 484 482 479 477 491 471 434 441 446 484 488 460 474 501 489 493 501 502 491 493 498 482 420 395 
362 405 442 496 542 521 524 548 544 561 583 591 599 602 606 605 601 605 600 596 594 591 593 588 591 586 579 584 587 586 583 578 574 572 570 563 564 563 557 558 559 544 515 484 499 487 438 441 454 432 420 479 447 444 432 441 438 446 436 425 445 450 438 450 455 445 450 467 481 473 497 519 501 499 484 462 456 444 415 387 
376 419 443 492 529 524 523 544 546 562 588 595 603 604 608 607 602 608 598 595 594 593 589 590 588 587 580 585 586 586 582 579 574 573 570 559 561 561 554 555 555 553 523 495 470 455 430 450 448 446 414 422 424 429 427 444 456 459 459 433 433 442 441 428 451 450 472 454 465 483 475 482 479 496 488 484 468 452 442 380 
364 411 438 471 487 512 538 536 552 570 592 599 609 609 612 607 605 605 600 596 598 590 590 592 591 587 588 588 590 588 584 584 578 576 573 565 562 561 553 553 561 557 538 496 482 443 440 430 431 440 467 461 445 480 469 458 435 411 440 433 444 436 439 431 433 446 441 455 454 450 463 499 483 505 507 483 458 442 432 413 
357 391 475 500 513 522 510 538 561 582 595 602 609 611 613 609 605 607 601 595 593 591 587 586 587 590 587 587 588 587 583 585 580 577 574 562 567 558 551 554 563 556 539 496 467 475 473 506 482 474 497 498 423 455 429 422 433 465 451 434 457 441 438 438 462 449 466 466 494 506 473 487 472 471 468 473 462 469 412 382 
356 421 509 539 542 512 520 538 551 576 600 601 610 608 608 608 604 606 599 597 595 592 587 589 591 590 585 587 587 584 581 584 582 578 573 563 563 561 546 552 560 558 542 518 475 483 511 510 435 430 499 484 431 435 431 414 486 498 469 450 424 431 427 431 465 439 441 428 483 498 487 481 458 468 465 481 459 437 400 386 
354 434 518 550 558 530 533 538 567 580 599 603 610 610 612 606 607 609 601 596 590 590 587 593 590 591 588 588 589 589 585 582 579 580 577 566 562 561 554 549 559 559 554 518 484 485 471 452 423 443 441 421 425 425 423 424 460 474 427 409 425 450 440 444 440 446 457 434 433 447 438 447 470 489 482 470 458 445 411 404 
369 415 507 544 560 530 509 537 551 575 594 604 609 608 613 609 605 607 597 590 594 589 587 589 590 587 585 586 586 589 585 581 576 576 574 562 563 555 546 547 554 561 561 537 512 480 454 433 470 437 452 437 429 456 437 411 405 390 397 424 425 421 429 441 441 441 432 464 469 445 456 459 462 475 470 463 467 490 427 374 
349 393 470 517 502 515 556 546 547 568 596 599 609 610 610 607 604 605 600 590 589 585 586 591 586 587 585 585 584 585 582 579 575 574 568 562 561 553 547 544 553 556 562 547 533 510 477 451 448 443 438 431 427 440 445 439 415 422 478 487 438 449 430 447 442 446 449 443 465 437 440 462 480 478 466 467 460 453 396 355 
342 379 425 464 492 507 534 525 538 565 584 597 609 608 612 606 602 603 600 592 591 588 590 591 589 588 587 584 581 589 580 578 576 572 568 559 563 557 546 541 551 562 563 556 546 529 493 464 456 503 494 433 425 417 409 414 410 462 491 486 450 431 473 443 438 444 439 449 441 455 475 461 463 468 462 458 445 419 393 357 
333 384 428 461 478 499 521 524 556 590 587 594 603 606 611 606 602 605 597 592 588 588 592 590 589 589 585 583 582 587 578 574 571 570 565 558 557 549 543 539 544 552 551 551 551 541 517 499 444 456 427 413 404 406 438 426 420 440 486 472 443 416 436 456 460 465 447 440 444 446 467 465 472 473 472 464 452 416 434 358 
326 369 423 470 479 505 538 526 532 570 580 593 604 603 610 604 600 602 598 589 588 588 591 590 586 586 582 584 580 581 576 577 569 566 562 554 554 551 543 543 548 549 554 550 557 557 528 499 483 448 465 453 411 438 486 478 421 412 428 416 416 434 446 468 450 450 465 464 458 489 455 465 478 473 474 477 487 411 390 356 
317 361 412 457 470 492 499 517 547 558 565 582 597 601 606 601 599 601 593 590 586 588 588 592 585 584 583 580 579 577 573 572 564 565 560 551 551 553 548 548 557 551 553 553 559 556 545 519 496 461 493 462 396 408 461 459 451 429 436 439 452 436 444 448 460 450 454 442 448 443 455 463 461 471 467 487 460 397 363 337 
311 365 406 450 507 535 501 541 577 575 575 572 593 596 603 599 597 597 591 586 588 589 588 589 585 583 584 581 579 580 571 570 562 558 557 550 553 559 558 557 559 557 557 557 561 558 558 544 524 492 454 433 433 417 434 428 431 436 441 437 451 441 438 444 454 456 452 453 445 464 451 462 459 473 455 437 426 395 365 328 
303 348 396 437 482 509 485 528 555 550 536 560 576 587 600 596 588 593 584 585 584 592 592 586 586 582 581 581 575 574 569 570 560 555 557 555 565 567 564 561 563 560 558 554 556 557 553 554 541 510 478 464 483 433 441 435 439 442 453 456 446 499 490 450 451 470 445 452 449 449 452 460 458 461 446 425 424 399 369 322 
287 332 382 423 466 477 493 510 504 519 530 556 565 577 591 586 585 590 581 581 583 590 585 585 584 583 578 576 575 571 566 565 559 558 559 561 572 572 570 564 564 561 560 549 552 551 552 553 543 517 491 470 451 458 465 457 464 472 452 438 498 537 525 453 448 454 446 440 434 462 485 472 466 454 462 416 393 367 345 307 
271 309 373 431 506 510 492 492 539 559 551 542 559 570 587 578 576 582 579 583 587 583 583 582 582 578 577 578 576 570 568 565 561 568 571 569 578 578 572 567 567 563 559 550 542 543 541 544 544 528 510 492 469 496 461 484 483 473 456 445 460 490 461 444 437 456 447 443 429 426 433 426 430 462 454 430 413 369 330 298 
257 299 356 419 497 517 497 486 544 566 558 540 549 560 569 569 569 577 577 579 583 584 581 580 576 578 576 570 570 566 566 569 568 576 577 573 578 579 572 569 568 562 554 542 538 533 530 539 532 544 525 514 498 485 470 455 447 444 438 445 433 419 425 429 446 442 459 428 431 419 427 441 458 452 440 416 413 362 318 277 
248 287 332 379 436 469 456 482 515 545 529 528 540 546 559 566 573 580 581 576 581 580 576 576 577 573 572 569 570 570 572 576 579 584 582 582 584 584 577 574 571 563 554 544 535 532 543 546 547 556 549 543 529 514 479 520 488 473 498 448 428 487 455 443 450 437 428 440 487 477 458 430 466 447 427 408 397 353 312 261 
232 270 315 362 410 438 464 493 483 507 507 515 529 535 556 563 570 582 582 576 578 576 576 578 572 568 566 566 568 575 580 581 582 586 585 585 586 587 581 577 572 562 559 543 548 545 558 559 563 572 563 561 542 526 499 491 463 461 469 435 431 447 425 407 407 411 419 427 468 467 451 426 433 442 448 422 407 341 289 237 
221 252 292 344 383 412 445 461 483 524 513 546 553 546 549 561 572 581 580 576 578 581 571 573 570 567 566 569 577 586 585 585 586 587 589 586 589 585 580 577 571 562 561 543 548 561 564 570 569 572 574 575 554 531 505 483 457 447 445 453 439 414 433 474 464 453 465 461 435 419 421 443 450 431 411 387 369 315 273 218 
213 241 279 319 367 399 426 472 470 483 507 556 561 548 543 559 570 581 577 579 578 580 573 575 566 564 570 579 584 587 587 586 587 588 591 584 587 584 575 574 568 562 558 547 553 567 569 572 574 577 575 573 563 547 509 500 464 459 447 445 431 423 449 479 479 418 417 409 412 421 430 444 428 418 409 365 350 294 249 196 
203 218 266 303 344 384 411 440 458 483 491 514 513 509 520 551 565 584 577 576 577 574 568 567 569 573 582 584 586 593 590 588 588 587 588 584 585 582 576 573 571 563 558 548 552 563 573 572 574 578 574 571 562 550 516 494 462 461 445 427 463 467 440 429 416 439 415 448 420 432 438 440 423 407 383 365 322 271 227 172 
186 210 242 286 317 363 389 443 474 474 491 514 520 522 533 547 561 577 579 579 580 576 567 567 567 582 586 588 587 584 586 589 584 585 588 578 580 579 573 572 569 564 563 553 560 559 558 557 561 563 563 555 551 536 513 482 465 507 460 445 428 408 409 408 407 459 439 427 435 436 425 421 413 395 363 342 291 246 203 157 
179 194 232 265 302 338 385 444 493 463 514 537 528 505 528 538 553 569 577 580 581 583 574 570 572 581 584 586 588 591 585 587 585 582 585 577 582 579 571 565 571 563 560 555 557 557 547 548 546 551 546 549 544 530 515 499 475 454 439 457 470 452 441 458 459 434 435 438 435 434 425 420 426 376 344 309 264 219 172 134 
168 186 217 247 283 316 362 394 440 439 488 528 529 506 520 537 547 567 581 581 583 583 578 574 570 580 581 585 589 587 589 583 581 581 579 574 574 576 569 568 567 560 560 556 555 550 544 544 544 550 551 555 549 539 523 500 476 478 446 499 502 448 436 440 441 438 443 441 441 438 447 416 397 360 328 285 238 192 153 117 
163 177 204 229 263 293 329 364 384 421 443 461 474 490 540 549 546 567 573 580 586 586 584 576 572 574 579 585 587 587 582 582 580 578 576 566 571 567 562 563 563 555 551 552 549 548 545 548 551 555 557 555 556 548 536 510 484 463 458 432 438 442 441 440 467 443 447 445 447 437 449 396 359 345 301 257 210 171 136 105 
158 165 191 223 242 268 299 337 371 425 442 446 466 494 512 526 533 553 564 574 582 580 580 575 568 572 566 581 578 578 579 576 573 568 570 563 569 564 553 555 559 551 553 552 549 551 552 552 553 561 558 554 556 553 544 519 492 473 452 459 452 446 451 451 452 453 455 449 442 425 396 378 349 316 272 226 182 147 117 85 
148 154 175 195 229 250 276 310 345 386 420 442 479 478 504 512 521 538 548 556 569 574 573 572 573 579 574 572 575 574 571 569 566 566 564 559 558 552 550 550 552 551 552 544 554 552 553 555 553 557 555 559 553 548 543 525 499 476 465 480 456 460 451 452 455 453 453 471 422 402 408 350 318 277 236 199 160 123 98 69 
136 148 165 188 209 234 256 284 321 375 401 415 451 463 516 500 520 539 533 543 561 566 575 574 570 577 571 574 577 573 569 568 562 562 557 549 549 550 552 549 560 554 556 558 560 562 555 559 560 558 563 561 558 553 543 520 500 483 473 463 453 444 452 446 448 448 437 432 433 378 359 321 282 245 203 170 139 105 87 61 
132 140 154 183 195 217 233 261 299 331 364 405 423 446 468 492 501 520 548 539 547 557 566 571 569 573 576 573 572 570 564 559 555 555 551 544 554 560 558 561 565 559 565 560 562 564 561 560 562 566 563 562 555 552 537 516 508 484 469 472 473 470 456 455 447 440 421 406 387 373 329 293 251 214 175 146 116 88 76 58 
122 128 147 161 180 197 221 243 267 304 337 371 402 427 447 464 480 495 527 526 529 536 542 560 554 562 566 573 575 575 565 550 546 548 555 557 562 567 565 564 568 565 569 563 565 566 564 566 566 569 564 561 552 547 534 520 494 488 474 473 469 457 455 459 448 431 408 414 392 334 297 253 214 183 151 122 101 77 64 53 
109 123 138 154 173 196 213 235 257 277 309 344 367 412 434 449 509 525 499 517 545 527 554 546 559 562 565 572 576 571 569 558 551 558 563 564 574 576 574 571 576 578 576 575 574 571 571 575 575 577 578 568 563 549 531 510 508 504 492 478 477 467 455 441 445 465 425 382 360 301 263 220 179 148 125 107 83 67 66 47 


