P2
80 60
41
8 6 17 16 18 19 25 27 25 28 30 28 27 32 28 27 18 18 20 20 19 19 17 17 18 17 12 21 18 18 17 19 14 17 17 17 15 16 11 13 20 21 20 22 22 25 21 21 24 23 21 21 25 22 20 24 22 22 24 26 22 18 19 19 22 23 24 26 30 25 26 23 25 21 21 16 17 16 17 12 
8 12 18 21 23 23 29 28 30 28 32 28 30 29 25 24 19 20 22 23 20 18 24 19 19 15 18 22 19 23 17 22 24 22 23 23 21 18 20 19 21 22 21 24 25 29 26 26 23 23 24 25 28 23 22 25 25 23 24 24 24 23 21 25 23 24 27 25 26 29 25 24 24 24 21 22 22 17 16 17 
8 12 20 22 23 25 29 27 29 26 26 26 26 25 23 24 21 24 23 23 21 20 22 23 17 15 19 25 22 22 19 25 22 24 23 25 25 25 21 20 26 20 23 26 27 25 25 23 22 23 22 24 24 20 23 26 24 21 21 22 26 24 25 24 24 26 28 26 25 31 23 26 21 23 23 18 21 17 20 13 
14 19 23 22 21 20 25 21 24 24 25 22 24 28 22 23 21 20 19 24 19 22 18 20 21 18 19 22 19 22 20 18 23 23 23 23 25 25 21 22 23 20 29 26 24 26 24 23 24 23 22 25 26 22 22 29 24 22 27 23 23 25 28 25 26 30 28 26 29 28 25 25 25 22 18 18 20 19 17 15 
13 14 22 20 20 22 22 21 25 19 22 20 23 25 21 19 23 19 19 18 19 21 21 21 22 21 19 20 21 24 20 16 24 23 23 23 20 24 20 23 25 23 21 22 24 25 23 25 23 22 22 25 21 23 25 25 25 26 25 26 25 26 27 25 30 28 29 23 23 28 22 26 22 22 21 16 20 15 18 17 
16 19 19 21 21 20 19 16 26 25 24 21 24 25 20 22 18 19 20 22 20 20 17 21 23 22 22 23 22 26 27 21 25 28 24 25 24 24 25 24 26 26 24 25 25 26 25 24 25 22 23 24 24 23 21 28 26 28 25 26 27 29 29 26 27 26 27 26 23 30 22 26 27 18 18 18 16 16 18 16 
11 16 18 19 20 17 19 22 23 22 24 21 18 23 22 19 17 15 17 23 19 22 20 21 25 22 21 29 20 26 25 25 27 28 28 29 25 25 24 24 28 23 25 21 27 28 25 22 22 24 22 25 23 20 25 25 26 28 24 24 30 29 27 23 29 31 26 24 24 28 24 27 23 21 21 19 21 18 23 17 
17 15 19 22 22 22 21 20 21 22 27 23 21 25 20 23 27 19 20 20 22 21 23 25 24 26 24 30 25 29 28 28 31 27 29 24 23 26 28 23 27 24 27 23 27 26 28 26 22 24 22 27 22 21 24 30 28 28 27 30 31 31 33 28 28 29 27 24 26 24 21 23 25 21 18 18 18 18 20 24 
11 10 11 17 15 18 21 19 22 18 22 21 25 23 18 23 21 19 18 22 21 22 24 27 24 26 24 29 25 29 27 30 27 26 28 28 23 23 23 22 26 24 24 24 25 23 25 24 21 27 25 24 23 23 22 32 28 30 30 31 32 28 27 25 28 27 26 27 25 27 27 23 24 23 18 19 17 19 18 15 
9 12 16 17 16 17 20 19 18 18 21 21 23 24 22 24 19 19 24 26 22 24 24 26 25 25 29 27 27 28 27 27 28 24 28 26 23 24 23 21 26 24 23 25 23 28 24 21 21 24 25 27 24 27 25 28 29 32 29 30 30 31 30 28 27 28 25 26 28 27 22 25 24 20 20 16 17 17 17 18 
8 11 15 18 16 18 20 23 21 18 20 24 23 25 26 24 23 22 21 28 29 30 29 27 29 27 28 30 30 32 26 30 32 27 29 26 27 27 23 22 25 25 25 26 25 26 25 25 20 25 28 29 30 24 23 32 31 34 33 36 34 30 33 31 29 29 28 27 28 27 23 29 26 22 22 22 17 22 17 18 
11 10 16 15 15 15 19 22 21 20 21 23 24 22 26 22 23 20 24 27 28 24 27 28 24 25 26 31 30 31 29 28 28 29 28 27 28 28 25 22 26 24 25 26 28 24 26 25 26 26 26 28 32 23 22 29 34 32 32 34 31 34 30 29 27 29 27 26 24 28 28 27 26 26 25 21 23 20 19 19 
7 14 19 18 14 19 19 23 17 16 21 21 22 27 24 26 22 23 25 29 27 29 27 31 23 22 26 30 29 30 30 27 30 25 28 26 25 30 28 24 26 26 24 23 28 27 26 27 24 26 26 25 28 25 29 31 34 32 32 35 34 31 33 31 30 29 26 28 29 29 27 28 26 24 19 19 21 22 18 18 
13 16 17 13 14 15 19 22 20 19 19 21 24 28 24 27 23 25 25 29 26 28 26 30 31 26 24 31 30 30 28 30 29 28 30 30 29 28 28 27 27 26 26 26 28 32 27 27 23 30 27 26 27 27 28 31 32 34 32 33 35 31 28 29 27 31 27 26 25 29 23 23 29 23 19 20 23 23 21 23 
12 15 16 18 15 23 22 23 25 24 23 27 23 30 26 29 23 24 22 29 26 27 26 28 31 30 31 28 29 29 27 29 30 28 28 27 27 28 28 26 29 28 25 28 28 32 30 29 27 28 27 31 30 29 34 34 30 33 34 32 33 30 30 27 30 27 28 24 26 27 25 25 25 26 23 20 19 24 18 23 
15 15 22 19 24 22 23 26 24 28 23 26 24 27 28 28 26 23 25 25 26 28 32 31 31 27 29 29 30 30 26 29 30 28 30 26 32 31 29 27 29 28 32 31 30 31 32 27 30 30 33 31 29 30 32 38 30 34 33 31 31 30 30 28 31 29 30 28 24 28 28 25 26 26 23 24 23 25 21 21 
8 13 18 19 21 19 27 24 23 23 30 27 27 30 29 27 27 26 24 29 29 27 27 29 28 26 25 27 28 30 25 25 29 23 27 27 29 30 28 25 29 29 29 24 31 30 31 29 27 32 33 31 31 33 29 30 31 31 32 30 32 28 30 26 29 28 27 24 27 30 27 28 29 27 24 26 23 25 23 16 
13 18 19 26 21 23 26 26 25 28 27 28 27 35 27 28 28 27 23 25 26 27 27 26 26 27 26 27 29 31 26 25 29 26 27 29 28 29 27 30 30 28 26 28 31 28 28 31 31 31 30 33 33 34 29 33 29 29 30 34 33 30 29 30 31 28 29 29 27 29 25 30 30 26 23 23 27 22 22 20 
20 19 24 25 21 26 27 25 25 28 27 28 28 34 27 26 29 26 24 25 25 25 27 27 27 27 26 28 31 30 26 28 29 28 32 31 29 29 28 30 29 28 29 31 30 31 33 31 33 33 32 32 32 34 29 32 32 32 32 33 29 29 34 32 30 33 29 26 27 30 28 25 30 27 29 28 22 25 21 26 
20 22 23 20 16 23 23 28 22 25 29 22 22 25 25 26 26 22 19 26 22 22 25 23 26 27 26 28 25 27 24 27 29 29 29 28 25 27 25 29 27 26 29 30 31 33 32 33 31 29 35 32 30 28 28 30 30 30 30 29 30 28 33 32 28 31 29 26 28 29 29 28 28 30 25 28 25 24 24 20 
19 19 19 20 22 25 19 21 23 20 19 20 21 26 23 26 24 21 20 22 21 20 22 24 25 25 23 24 23 25 24 25 30 25 28 26 25 26 26 28 27 26 28 28 27 26 28 30 28 29 36 30 29 29 28 30 29 30 31 32 30 33 30 29 33 28 26 31 30 30 28 28 28 28 20 27 20 23 25 23 
18 20 16 19 21 19 21 19 22 19 21 23 24 25 23 24 20 21 20 21 22 19 25 23 24 25 26 25 25 24 25 27 30 23 27 26 24 26 26 26 29 26 26 28 30 31 27 32 30 28 34 30 34 30 28 28 30 31 31 32 32 34 30 27 29 28 30 30 28 29 30 31 28 30 27 27 21 24 28 26 
18 19 19 20 18 17 19 17 19 17 21 19 19 24 20 25 20 19 18 18 21 26 24 26 27 24 25 26 26 26 27 24 27 27 25 26 26 27 27 27 28 30 30 29 31 31 29 30 30 30 33 29 29 31 28 31 27 30 31 31 30 31 29 28 29 27 29 26 30 31 30 27 28 27 26 25 26 23 28 24 
12 16 18 17 18 13 17 16 21 18 16 19 21 24 20 23 15 18 17 21 19 20 23 25 25 24 24 25 25 27 26 25 26 25 26 27 26 28 26 27 25 28 30 29 29 27 30 27 30 30 32 31 28 28 26 27 30 30 29 31 28 32 27 26 28 29 28 28 31 30 28 27 30 28 27 26 26 22 26 26 
10 13 14 13 14 16 13 15 20 15 19 17 19 22 19 21 16 17 18 20 19 18 22 21 20 20 21 24 24 24 24 24 26 24 24 21 23 23 27 26 23 26 30 28 29 26 27 26 26 24 27 24 26 25 26 26 25 25 29 28 26 25 26 26 28 29 28 25 29 30 28 28 26 27 26 22 22 19 24 26 
6 9 13 14 12 12 14 13 20 16 17 16 21 20 19 18 15 19 18 21 21 18 20 24 21 20 22 24 22 22 24 23 25 22 23 22 21 26 22 25 25 27 30 30 26 26 28 25 26 25 24 26 28 26 26 26 26 27 27 27 27 26 26 28 28 26 27 25 28 32 26 26 24 30 30 23 25 22 30 24 
4 11 13 16 13 13 13 13 17 15 19 18 17 20 17 19 15 18 22 19 20 22 23 23 26 24 23 25 23 22 23 23 26 26 26 22 24 23 24 23 25 28 30 32 28 24 22 24 28 25 24 24 28 26 26 27 24 25 26 28 25 29 25 24 25 28 26 25 27 30 27 27 28 28 24 25 26 25 26 26 
8 12 13 15 17 13 13 13 20 18 19 17 19 24 18 18 18 17 19 20 25 23 22 25 24 24 25 25 26 25 25 25 28 23 27 23 23 25 24 23 24 28 28 26 25 25 23 24 26 29 24 26 26 24 27 28 26 26 28 30 27 27 23 26 29 25 28 26 25 34 26 28 33 30 25 24 26 28 25 27 
5 13 12 13 14 13 14 13 15 15 17 16 17 21 18 19 16 17 18 20 23 21 26 26 24 23 22 25 24 26 25 24 26 23 23 24 23 24 28 24 24 26 26 28 24 24 24 27 26 26 23 26 29 25 24 24 24 25 25 26 29 27 25 25 27 27 28 25 28 27 29 29 29 27 28 28 28 22 27 24 
5 10 10 15 13 13 13 10 16 16 18 16 16 20 18 18 17 13 19 21 21 23 25 25 24 23 24 25 27 24 24 21 27 23 27 21 20 22 25 26 25 23 26 27 26 25 24 22 26 26 24 27 24 21 24 23 26 25 26 25 26 27 25 28 27 25 26 23 24 31 31 28 29 29 24 25 25 22 24 21 
5 8 8 13 14 12 13 10 14 16 15 14 14 19 19 18 15 14 21 23 24 22 24 24 24 22 25 26 29 29 24 28 31 27 26 27 25 23 25 24 24 22 24 23 26 23 22 25 24 24 25 26 26 25 24 26 27 27 25 27 25 29 26 25 27 28 28 28 26 30 27 29 26 27 29 26 25 22 23 17 
6 8 7 13 10 12 11 10 12 14 12 10 13 19 19 15 12 18 20 20 20 23 25 24 20 20 24 23 25 28 24 29 30 24 26 29 27 25 23 22 25 26 26 30 26 23 22 20 23 21 24 26 25 26 24 24 23 24 25 29 28 24 27 24 26 27 27 26 27 31 26 27 29 30 27 23 25 20 19 15 
5 9 8 8 13 11 12 11 13 13 13 12 17 19 18 19 16 17 20 21 22 25 22 27 27 20 25 26 28 30 29 28 32 28 26 29 26 27 25 25 26 27 27 25 27 25 25 24 23 25 24 27 29 23 22 21 20 21 26 26 26 25 25 24 26 26 26 30 24 29 28 29 27 27 25 26 23 23 18 11 
6 4 8 7 6 14 11 7 11 13 15 12 14 17 18 20 16 16 18 23 23 22 24 26 22 23 24 24 26 28 27 27 30 25 28 28 27 23 25 22 20 24 26 22 25 26 24 24 23 24 24 25 28 24 23 24 26 29 28 30 28 24 25 24 25 28 27 24 25 28 26 28 29 24 24 27 23 17 18 11 
3 4 8 11 7 13 12 6 14 12 14 13 13 18 17 19 15 13 19 20 21 23 21 26 24 28 22 30 25 28 25 28 26 26 30 29 25 25 27 27 25 28 25 25 25 24 25 21 25 22 23 23 25 21 19 27 25 27 27 26 27 27 25 23 23 29 23 25 27 29 25 26 31 26 23 20 21 18 16 14 
0 6 12 10 7 11 18 14 12 11 13 14 12 18 17 19 16 15 20 21 21 24 24 26 28 26 27 26 28 26 28 29 31 28 29 28 25 25 25 27 24 24 26 22 25 23 25 27 23 25 23 26 25 23 27 23 29 27 29 28 28 26 29 27 26 31 27 26 29 32 26 26 29 25 23 21 22 19 18 15 
2 11 13 13 8 10 12 13 12 12 16 17 12 20 19 18 18 16 21 22 22 23 24 26 28 24 28 23 24 28 26 29 34 29 30 29 25 26 26 27 28 27 28 25 26 28 27 24 25 27 26 28 26 25 26 27 26 29 26 29 27 30 28 28 31 29 31 27 30 32 30 31 30 27 27 25 21 18 17 12 
6 10 11 11 10 12 15 13 15 10 16 15 15 19 17 21 16 18 19 21 21 24 24 26 26 22 27 27 26 29 27 30 30 26 30 26 25 25 27 26 25 26 26 24 25 26 27 26 25 26 29 26 29 26 24 27 25 25 31 31 30 28 28 27 29 29 28 28 30 30 33 32 30 29 29 25 24 19 20 18 
0 7 9 10 13 12 13 15 12 12 15 14 14 19 18 18 16 16 18 20 22 20 22 25 23 24 27 28 25 28 26 27 31 25 27 24 22 22 28 26 25 26 27 27 26 25 26 23 24 28 27 26 27 28 25 26 23 28 26 28 30 29 30 28 29 29 30 26 29 31 32 32 33 28 27 25 21 20 22 20 
5 10 9 10 13 14 13 14 13 10 15 14 16 18 19 19 17 16 17 24 20 22 24 25 23 22 23 24 26 30 26 27 30 26 30 26 27 26 26 26 28 25 25 25 27 26 25 24 24 25 29 28 24 28 25 29 26 25 31 28 29 29 32 29 29 31 31 29 28 33 32 33 31 28 27 23 22 19 20 13 
9 11 12 15 11 11 15 15 13 14 12 15 18 21 19 17 16 17 20 21 23 23 23 27 23 24 22 26 30 26 28 29 30 27 32 30 26 28 26 26 28 25 26 25 30 25 27 24 27 27 27 26 26 29 25 30 28 27 26 29 32 28 29 28 29 31 30 25 33 29 29 33 30 29 24 25 21 19 19 16 
9 13 12 15 11 13 16 14 13 12 15 14 13 20 16 18 13 14 19 21 20 23 22 26 23 24 25 24 25 26 27 25 27 26 27 29 29 26 27 27 29 26 27 28 26 24 23 25 24 25 27 25 28 25 25 28 27 28 31 33 31 29 26 26 27 33 31 31 30 32 32 31 27 25 22 21 22 19 17 18 
8 14 17 14 11 16 19 13 18 16 15 12 17 19 19 21 20 23 20 20 24 22 22 26 23 24 25 25 25 28 29 27 27 27 28 27 27 27 28 29 27 29 32 25 26 27 27 27 24 28 25 25 28 25 26 32 30 26 30 30 32 30 28 27 31 33 29 33 35 33 28 31 28 24 22 21 20 19 17 14 
13 19 18 14 12 17 18 18 18 13 20 19 18 22 21 19 20 19 24 19 21 23 22 25 27 24 27 28 28 29 31 29 30 27 31 29 29 30 28 30 31 32 32 27 26 28 26 28 28 27 26 27 28 30 30 31 32 30 34 35 34 30 32 32 30 35 36 35 35 33 32 33 28 27 23 21 21 16 22 14 
12 10 16 16 14 18 19 18 19 16 17 14 16 23 20 20 18 19 21 23 23 24 24 24 25 24 25 26 27 26 28 31 34 30 31 30 29 29 27 27 31 29 29 26 29 28 25 28 26 30 30 28 28 29 30 30 31 31 31 32 29 31 30 31 29 37 33 33 35 32 33 33 26 24 23 18 19 17 21 20 
5 12 13 16 13 11 18 18 19 18 16 18 16 18 17 20 19 18 19 19 20 19 21 21 25 26 22 25 28 31 27 26 28 27 30 30 28 28 28 27 28 29 29 26 28 22 30 24 19 23 27 26 27 29 24 28 29 27 32 31 31 29 27 26 29 35 34 31 34 31 32 29 28 26 21 20 20 22 16 19 
10 15 19 14 16 18 19 16 19 18 16 19 15 18 20 18 22 20 19 21 23 20 21 26 21 26 25 26 24 27 27 25 31 31 27 30 27 26 27 25 25 25 27 26 27 23 24 26 24 23 24 28 27 24 27 29 29 30 33 33 32 31 33 26 32 36 32 31 33 31 30 30 26 27 20 17 19 19 18 16 
14 17 20 14 14 17 17 15 17 19 20 18 16 21 20 22 19 22 23 20 22 22 21 24 23 24 25 26 26 31 30 26 29 31 26 27 29 26 26 24 26 25 26 26 24 22 21 23 20 22 25 26 30 28 27 33 28 30 33 31 32 31 35 35 31 38 34 34 32 30 32 32 26 22 23 24 18 22 20 15 
6 18 19 20 18 17 17 18 20 23 20 24 16 22 25 20 18 17 23 22 21 20 22 24 24 24 23 26 29 27 28 24 24 29 26 25 27 28 25 27 25 25 27 25 25 23 21 24 27 23 23 27 27 28 28 35 30 30 32 32 32 35 32 33 34 39 36 35 31 33 33 29 30 26 20 21 19 20 21 16 
13 17 21 20 21 22 20 20 22 21 22 23 20 24 23 20 17 21 20 24 20 22 24 23 26 25 26 29 26 28 26 26 26 27 28 28 24 26 25 26 27 25 26 24 25 24 25 26 22 23 27 28 24 24 28 34 31 35 33 33 34 34 33 38 37 41 39 35 34 30 28 29 27 24 21 21 17 19 22 18 
12 15 20 17 20 23 21 19 21 19 19 22 19 20 21 21 18 18 21 22 21 22 25 23 22 25 24 25 27 25 24 25 26 26 25 27 23 23 24 24 26 25 24 24 28 24 22 22 24 20 23 26 26 25 28 31 29 30 33 34 34 32 39 38 33 37 37 31 30 29 31 31 26 23 21 20 16 22 19 16 
15 17 23 20 21 22 23 20 24 20 20 20 23 23 21 20 18 20 25 21 22 24 23 24 23 27 25 28 26 25 27 21 26 25 26 28 28 24 23 21 26 24 23 23 22 22 25 23 23 25 25 25 26 27 29 30 29 30 29 31 33 35 37 38 39 38 36 33 32 32 32 30 26 25 19 17 16 18 24 16 
13 19 18 21 19 21 25 18 21 21 21 21 21 21 17 17 17 18 22 22 24 22 25 26 25 24 25 27 25 28 23 22 24 24 26 27 24 24 23 23 24 21 20 23 25 22 25 23 21 21 26 25 27 25 26 29 26 29 28 29 32 33 35 36 35 33 30 32 28 30 31 26 26 23 20 18 14 16 16 16 
17 18 20 23 20 17 25 22 26 23 22 22 26 28 21 19 15 18 20 20 20 24 24 23 26 24 25 27 27 25 23 25 24 24 25 25 26 24 22 23 25 23 23 20 22 24 21 22 20 23 26 25 29 25 25 27 27 29 30 34 29 35 36 36 34 37 31 31 32 32 22 26 29 19 17 19 17 25 23 14 
10 17 19 21 16 21 24 20 23 21 23 24 21 22 18 22 17 18 20 19 18 20 22 23 23 24 24 26 24 24 22 22 27 24 22 25 22 23 21 20 24 19 23 21 26 21 22 21 14 19 24 25 23 25 22 29 25 29 32 36 34 31 34 32 29 30 31 28 25 30 23 22 19 17 18 19 14 17 17 14 
12 23 20 23 21 24 17 16 20 19 21 21 19 19 18 21 14 19 21 21 21 22 21 23 25 24 25 29 27 22 25 23 25 24 22 25 19 21 21 23 23 20 23 20 24 19 19 22 21 21 24 25 28 24 25 27 28 29 31 30 38 34 32 35 26 30 28 25 26 24 22 20 23 18 15 14 13 16 14 12 
15 17 19 24 20 21 20 21 27 22 21 22 21 23 17 20 19 21 21 24 21 23 25 25 24 23 24 26 25 23 24 26 25 24 24 23 23 24 23 25 24 21 20 21 24 20 23 22 21 21 26 25 26 23 27 31 30 34 29 34 35 34 30 30 32 35 27 23 22 22 21 21 20 18 13 16 14 15 20 12 
15 18 18 23 20 22 22 22 24 20 18 23 24 28 21 19 23 18 20 21 23 25 26 24 23 24 23 25 24 22 24 23 29 23 26 23 24 26 21 24 23 20 20 19 21 22 23 22 20 24 24 27 29 28 25 31 29 28 31 31 33 34 30 26 24 28 24 20 24 22 17 18 19 17 19 18 18 12 13 13 
11 18 20 21 23 27 20 22 22 23 20 18 18 21 18 21 19 15 23 25 24 23 25 24 26 24 24 23 26 24 23 26 28 24 24 22 24 24 20 21 25 22 21 23 22 20 25 24 19 22 24 24 26 23 26 29 29 30 31 31 30 28 26 24 25 27 26 22 23 21 19 19 19 19 16 18 14 13 20 18 
11 16 15 19 20 18 24 20 20 22 19 20 20 26 18 24 18 19 20 26 25 25 23 23 24 25 21 26 26 26 27 25 26 25 24 23 22 25 21 22 22 21 20 23 24 25 25 26 18 23 26 25 26 22 26 29 32 30 30 30 29 22 28 23 21 25 22 21 23 19 20 18 20 19 16 17 17 13 20 12 


