P2
80 60
59
14 20 13 14 17 14 16 15 13 14 13 18 21 21 18 21 18 21 22 22 27 29 25 30 29 28 31 31 34 37 36 34 35 39 37 35 37 36 37 37 37 34 37 37 34 32 35 31 30 32 30 34 35 35 34 30 28 26 22 29 27 25 25 22 20 17 20 17 14 17 19 14 11 14 9 13 8 8 6 0 
12 18 13 12 19 18 15 16 16 15 16 23 18 21 20 18 22 27 22 20 24 25 26 29 30 30 31 32 32 35 34 36 32 34 40 35 38 37 36 39 37 37 33 33 37 33 31 32 33 34 30 36 36 33 34 28 29 29 26 29 25 26 23 27 25 20 17 18 18 19 16 10 12 11 10 9 10 6 6 6 
11 17 14 14 16 14 14 18 16 14 20 23 21 21 20 22 24 23 27 27 31 27 26 28 27 28 34 32 35 37 40 38 40 37 39 37 37 40 41 41 38 37 34 39 35 38 34 35 36 36 32 35 36 32 32 31 30 36 28 31 24 27 28 25 25 22 21 20 23 20 20 15 12 15 8 10 9 9 7 7 
11 25 16 14 18 18 19 19 19 20 20 25 24 22 26 27 25 25 28 26 33 30 28 32 30 31 32 35 36 38 39 35 38 40 42 37 41 38 42 43 39 38 38 41 40 38 33 38 39 36 40 39 39 36 37 36 35 33 30 32 29 25 26 29 23 24 22 20 16 20 22 17 15 13 9 8 15 11 2 3 
18 25 18 17 22 20 21 21 22 22 25 28 23 23 25 31 26 28 26 25 32 30 32 32 33 34 33 37 36 38 38 38 38 39 44 42 44 41 43 43 44 38 41 45 39 41 38 37 38 39 36 36 40 39 36 33 33 33 31 32 29 30 32 28 29 21 22 17 16 19 23 17 12 14 13 9 13 14 7 5 
14 24 21 18 25 21 22 21 20 22 21 26 26 25 24 27 28 32 30 29 33 31 35 33 32 31 34 36 38 40 37 34 42 38 41 39 44 45 39 46 44 40 46 42 44 37 38 39 40 35 39 40 40 38 35 33 34 36 31 32 27 34 34 28 29 24 28 24 21 20 24 13 15 15 11 15 9 17 8 3 
14 20 20 15 23 22 24 20 17 21 24 24 21 24 25 27 31 27 33 32 33 32 35 34 39 33 39 36 40 41 40 41 41 40 38 43 40 41 44 41 44 42 43 41 41 38 37 40 37 41 35 38 37 40 38 31 31 32 30 31 30 27 27 31 27 27 25 27 19 19 20 20 15 15 13 15 10 12 7 4 
14 24 15 19 22 21 21 20 21 23 21 26 27 25 28 27 26 35 31 30 34 33 32 32 38 34 37 37 36 38 39 40 41 38 40 41 42 45 41 45 43 42 43 41 42 39 39 42 40 36 36 36 38 43 33 31 34 31 30 30 32 30 31 30 29 24 27 25 23 21 23 18 18 13 17 12 12 6 12 10 
18 23 19 20 26 20 28 23 25 24 32 31 30 33 31 28 31 34 35 33 35 34 36 36 34 36 39 39 43 41 42 44 36 40 45 45 42 44 41 43 42 39 45 41 43 40 39 41 38 39 31 41 43 43 40 37 35 33 37 30 35 32 34 33 32 28 27 26 24 22 25 26 23 19 17 14 19 14 7 11 
22 29 23 24 27 27 27 29 24 28 29 34 32 31 31 34 34 32 37 37 38 36 38 41 40 40 42 38 42 43 43 43 44 47 46 46 42 45 42 49 41 44 44 46 42 44 44 44 41 44 40 43 42 44 45 37 38 37 39 38 34 35 34 32 31 30 31 25 24 25 25 24 21 17 17 13 17 14 12 11 
22 23 24 23 30 26 24 28 26 27 31 32 32 34 33 36 36 34 34 32 34 34 35 38 36 38 41 38 39 41 38 38 41 43 43 45 44 43 42 44 40 44 40 44 42 45 38 37 45 42 40 41 41 40 40 39 40 37 35 33 36 38 38 32 33 33 26 24 25 27 27 23 22 19 16 21 18 19 14 17 
24 29 24 24 27 29 27 30 28 29 29 33 28 30 36 31 34 35 36 34 36 38 35 39 40 36 37 40 43 46 44 44 48 44 41 44 45 42 45 47 43 44 45 42 44 40 42 41 39 40 41 42 43 44 41 32 40 39 37 35 36 34 32 35 35 26 34 29 27 29 26 24 20 26 21 16 22 16 10 12 
25 29 26 24 27 28 28 30 27 31 33 33 33 31 35 34 36 38 40 38 35 38 35 36 39 40 37 41 45 41 43 43 45 47 44 42 40 42 46 44 41 39 45 47 42 40 44 44 39 43 37 43 41 42 45 37 42 37 42 40 33 37 35 36 32 35 32 34 26 29 29 28 26 27 20 20 17 18 15 17 
27 30 29 24 33 36 34 30 32 34 36 37 35 35 36 35 39 39 38 40 45 43 38 44 45 43 44 43 46 46 47 44 44 48 48 46 44 44 45 48 47 45 45 42 44 42 44 45 46 41 45 44 41 44 43 42 44 42 38 40 37 37 39 42 34 36 34 35 32 31 33 30 28 26 25 22 17 17 16 14 
24 29 27 28 36 38 31 34 31 34 38 36 34 33 39 38 41 39 40 42 43 39 41 43 41 47 43 45 46 43 50 47 43 50 48 45 48 47 46 50 48 48 45 49 48 42 45 50 46 42 45 45 46 46 46 46 41 40 41 39 41 43 42 40 37 34 36 33 34 33 32 30 30 29 25 21 19 20 14 13 
28 29 29 33 32 34 33 32 33 34 35 35 37 38 39 42 41 40 40 39 38 44 41 43 43 39 42 45 46 43 42 50 44 48 49 45 45 47 46 47 51 48 45 44 47 42 42 44 44 42 42 49 41 45 44 42 43 45 42 38 38 38 39 34 34 32 33 33 29 32 34 32 34 25 26 19 23 17 13 11 
28 35 33 31 34 35 37 35 34 36 38 42 38 35 40 46 44 42 43 42 45 46 46 46 47 48 44 46 49 50 51 47 49 47 51 49 47 47 46 50 48 45 49 47 50 46 46 45 44 48 45 46 50 49 47 46 47 43 41 42 42 40 41 42 38 38 37 35 33 38 37 34 30 29 24 24 22 16 15 10 
31 38 32 34 37 39 39 38 40 39 43 42 38 41 47 46 46 44 45 45 47 45 47 50 46 45 48 47 51 48 47 48 53 50 49 48 48 44 50 47 49 46 49 51 48 46 50 44 45 47 43 44 47 45 46 41 45 42 46 46 44 40 40 42 38 39 39 36 31 33 37 32 25 23 26 19 17 17 17 13 
33 35 32 33 37 38 35 36 39 35 40 43 37 39 42 39 43 45 44 43 45 46 43 47 46 49 47 48 49 45 46 45 46 48 48 47 47 50 48 45 47 43 47 48 48 46 45 45 42 45 45 44 46 47 46 46 43 41 40 45 43 40 35 38 40 41 36 33 29 35 32 25 24 16 19 18 17 20 18 20 
32 37 32 34 40 37 37 38 37 39 40 41 39 45 47 42 42 45 45 47 44 43 46 44 47 48 44 48 47 46 50 49 49 46 45 46 48 48 46 45 47 44 48 47 48 47 47 51 50 50 44 47 45 47 43 39 43 46 44 47 45 43 41 39 38 36 42 33 33 30 34 22 23 17 23 20 19 20 16 18 
33 40 36 34 39 41 39 37 39 44 44 46 44 43 46 44 47 43 43 44 45 47 45 48 48 48 47 48 52 51 50 52 52 49 45 51 49 48 48 48 49 44 50 52 49 43 46 45 50 52 46 44 45 50 46 42 42 47 44 47 45 48 45 45 41 42 40 36 29 29 30 23 25 24 22 23 21 25 18 17 
32 40 37 34 41 45 43 39 38 40 45 48 45 44 45 46 48 48 48 45 48 49 45 45 43 44 47 47 53 51 49 47 50 53 49 46 51 50 47 52 45 48 48 49 47 48 45 47 46 50 43 46 43 51 46 44 48 43 47 47 44 43 45 41 38 44 38 32 24 25 29 27 23 22 21 21 20 21 17 13 
33 37 36 34 40 40 37 37 39 42 47 46 41 42 41 42 41 43 47 45 45 47 47 44 51 50 48 50 49 50 51 44 51 45 51 49 50 49 47 47 48 44 42 47 46 49 44 44 42 45 46 45 44 41 46 41 42 43 41 42 42 40 42 39 33 30 30 26 27 23 28 20 26 23 21 20 18 20 17 13 
37 36 35 34 40 39 38 39 39 48 48 44 43 44 45 45 41 43 43 44 45 46 47 46 45 45 48 51 45 53 50 49 51 48 50 46 46 49 49 52 49 47 47 46 46 44 44 46 47 45 43 44 43 42 42 42 45 41 39 46 42 40 39 38 34 30 31 27 28 26 27 27 26 20 22 22 21 20 17 12 
31 42 38 38 38 41 42 45 44 45 52 51 44 45 47 48 45 49 48 50 47 51 46 47 49 50 48 51 52 53 47 53 51 53 57 51 53 52 49 47 51 53 51 49 51 47 48 48 49 53 45 48 51 50 49 45 47 44 46 46 44 39 36 36 33 34 34 27 28 26 25 28 25 29 27 22 20 22 19 8 
31 43 38 40 44 44 43 45 44 43 48 45 42 44 44 47 49 47 50 44 49 46 46 49 47 48 50 48 54 52 54 50 50 49 57 53 51 52 55 52 50 50 54 49 51 45 48 47 50 50 44 50 46 47 47 44 47 46 43 44 39 41 35 35 35 34 30 32 25 23 29 26 29 26 19 23 21 22 17 12 
33 42 37 38 45 43 43 42 41 43 50 46 43 42 48 47 46 49 47 50 50 47 50 45 51 47 46 52 52 55 52 50 52 53 50 53 54 55 54 52 52 49 51 54 50 50 46 50 50 47 50 47 46 51 47 38 41 42 40 40 38 37 38 36 34 30 34 27 25 27 29 25 23 23 22 21 20 24 16 17 
33 40 35 37 43 41 40 40 40 43 43 48 42 39 46 45 42 49 47 45 49 47 46 49 47 45 48 51 48 52 50 53 48 50 50 48 50 52 49 51 50 49 45 53 51 47 46 46 48 48 45 41 43 41 40 39 37 38 35 33 33 36 30 31 29 28 29 22 25 28 25 23 23 22 20 21 23 20 20 16 
34 39 39 37 43 43 42 38 38 43 43 45 43 44 43 44 46 50 47 46 51 51 44 47 46 45 46 48 51 52 48 53 52 54 58 56 53 54 50 51 53 48 47 49 48 45 46 47 46 44 45 46 44 44 40 39 36 38 37 35 34 33 30 31 23 29 28 21 24 25 24 22 24 25 22 20 26 25 19 24 
37 38 40 38 42 46 42 43 42 46 49 45 41 47 43 48 45 51 49 48 47 51 48 46 46 49 48 50 50 51 54 50 48 52 55 55 56 53 52 52 47 51 50 51 49 51 47 47 45 45 42 47 41 42 39 36 37 37 33 31 33 36 32 26 32 30 28 28 27 27 27 26 26 25 26 23 25 24 22 18 
37 43 41 38 44 46 43 43 42 45 49 49 48 43 46 46 46 48 50 46 51 49 48 50 50 53 52 52 50 50 53 50 51 52 57 51 52 57 57 54 53 50 52 51 49 45 46 45 48 48 46 43 40 40 38 37 39 37 34 34 35 32 32 30 32 31 32 28 26 31 29 28 33 29 29 29 24 29 22 19 
37 42 37 39 44 43 42 46 48 47 46 48 43 46 46 47 48 49 50 50 50 49 49 50 49 55 48 51 48 50 52 53 56 55 59 56 57 54 53 57 51 49 51 50 50 51 45 46 48 48 42 42 38 42 37 35 41 33 34 34 30 32 36 33 34 29 31 28 30 29 33 34 32 27 29 29 27 23 21 18 
36 44 42 42 42 44 41 46 48 48 50 49 44 47 45 47 46 45 47 48 46 53 52 50 49 51 51 53 52 52 48 52 51 54 53 51 54 52 54 53 53 49 49 53 49 48 43 45 42 41 40 38 34 43 37 35 36 35 30 35 31 34 35 33 33 30 31 30 29 32 30 31 29 28 27 28 27 26 22 21 
36 40 38 40 45 47 44 45 46 49 49 52 45 46 48 46 50 44 49 47 54 49 49 50 52 54 48 52 52 52 49 53 49 53 52 53 55 52 51 57 53 53 51 52 47 44 46 41 38 41 41 39 41 40 40 36 38 32 33 33 34 33 35 36 32 34 38 35 34 31 29 28 31 31 31 27 28 29 21 21 
34 41 42 40 47 49 43 49 45 47 50 49 48 46 46 48 49 49 48 53 54 53 48 48 49 51 51 50 51 54 52 51 53 53 58 52 53 53 52 50 52 49 50 47 44 46 40 41 40 40 36 38 39 40 36 32 34 35 35 36 35 34 36 35 35 32 35 31 30 29 33 28 30 29 30 28 27 27 19 22 
38 39 38 40 44 44 44 45 43 46 47 47 47 45 46 44 48 51 47 56 53 51 51 52 49 49 49 54 52 54 51 52 53 54 56 51 53 51 52 54 51 49 46 49 43 39 40 41 38 36 36 39 37 36 36 35 38 36 33 37 35 36 37 37 37 36 37 33 31 32 34 30 34 27 31 29 31 29 21 21 
38 42 39 39 44 42 41 43 43 47 50 47 48 49 47 49 46 45 50 50 48 50 49 49 50 48 54 53 50 54 52 52 53 56 54 49 54 51 53 51 47 44 45 46 45 43 39 42 42 39 37 38 35 42 38 37 39 37 33 35 36 42 41 39 33 35 34 34 32 32 35 39 37 29 28 29 28 27 23 21 
38 44 40 38 45 40 42 38 44 45 48 46 43 45 45 45 48 46 45 48 49 45 48 47 49 49 53 52 49 55 49 50 53 50 51 48 51 48 49 48 44 37 40 44 42 37 38 40 40 42 38 39 38 39 35 33 40 39 36 36 36 40 39 41 37 32 34 37 31 35 36 27 31 33 25 25 30 26 22 24 
39 39 39 38 43 43 42 43 43 44 44 46 43 45 46 46 49 49 48 49 48 48 49 48 49 50 52 53 51 55 55 53 45 53 52 48 49 46 43 43 45 45 40 41 40 40 41 44 42 38 31 38 37 40 35 35 39 40 40 37 35 35 36 35 37 32 37 32 35 32 33 31 32 31 30 23 26 25 23 19 
39 41 37 35 41 44 43 41 43 41 45 45 45 44 44 42 44 48 45 45 50 52 46 49 47 51 49 53 51 53 50 54 51 49 48 44 45 41 43 41 42 40 43 38 44 41 43 42 39 34 38 38 34 38 39 39 37 42 37 35 37 36 36 36 30 35 39 32 33 32 33 33 29 27 27 26 26 26 24 16 
38 41 39 36 40 40 42 42 41 45 43 45 43 39 48 45 46 48 46 50 48 49 48 49 50 50 50 48 52 51 55 51 51 47 45 45 40 40 40 43 41 42 44 43 46 43 41 42 39 36 36 40 41 39 45 41 39 38 38 41 37 37 39 35 32 33 36 34 33 35 33 32 29 26 25 25 25 24 19 19 
36 42 36 34 40 43 39 41 36 41 39 44 43 46 42 45 45 47 45 46 47 48 47 49 50 47 49 49 48 52 53 48 44 48 47 40 42 43 43 46 43 42 40 42 35 39 39 38 39 38 37 41 39 46 41 35 33 40 36 36 38 37 32 35 34 34 34 35 32 31 31 26 26 23 23 22 25 24 18 16 
35 40 37 36 41 36 37 41 38 41 41 41 41 44 42 44 46 45 47 48 45 44 44 49 49 49 49 48 49 49 48 47 45 45 42 39 42 45 46 45 47 43 41 40 41 35 41 40 42 40 36 39 44 42 42 35 34 38 36 37 36 38 34 38 33 35 33 29 30 30 30 26 27 26 25 25 22 20 16 17 
35 40 33 36 39 41 40 42 39 43 41 45 45 43 42 43 45 48 44 49 46 48 48 48 46 46 44 52 48 47 43 44 43 47 46 45 45 42 45 45 42 44 39 40 38 41 40 38 43 46 40 41 38 40 39 34 34 37 33 34 38 35 35 39 32 31 32 31 32 29 34 27 28 28 23 20 20 20 16 15 
35 41 37 36 36 42 39 43 37 39 43 42 40 41 43 45 42 49 48 48 47 48 45 46 46 48 44 43 47 45 41 40 44 46 48 47 42 42 41 40 37 43 41 40 36 36 39 43 45 44 42 39 37 40 34 36 36 33 36 35 34 34 35 34 34 32 32 29 28 29 32 23 27 27 23 23 21 21 13 13 
35 44 37 35 41 38 41 37 38 40 39 43 43 39 45 46 51 46 51 46 46 47 49 47 47 48 44 43 44 46 42 41 43 46 44 41 46 40 42 44 39 36 37 45 48 45 47 44 47 43 40 41 38 41 39 33 33 39 41 36 36 36 37 41 35 32 35 32 33 33 31 29 28 31 25 22 19 19 13 20 
33 45 36 35 44 38 38 37 38 40 41 45 42 40 44 50 45 47 46 43 46 47 41 46 42 37 39 42 42 46 48 42 45 42 41 39 42 41 39 41 40 42 45 41 46 40 45 46 47 40 41 41 44 42 36 36 37 37 41 36 33 36 34 36 30 29 30 29 30 29 31 23 27 22 18 20 19 21 16 15 
32 41 37 41 40 41 40 38 39 40 41 46 41 45 41 44 39 43 45 45 46 45 45 41 39 42 42 42 43 47 44 43 42 40 41 40 39 40 42 42 45 42 43 48 48 44 43 44 44 49 44 44 41 47 40 36 35 37 33 38 36 32 33 32 32 28 32 31 26 26 29 22 24 24 20 19 20 19 15 14 
31 37 33 36 38 41 37 36 37 38 40 39 40 40 44 44 45 43 41 45 44 43 38 39 39 38 40 43 41 42 41 40 38 41 43 40 42 41 43 48 44 46 45 45 45 42 45 44 42 48 43 46 42 45 39 40 41 36 36 36 30 33 34 34 31 27 29 25 26 22 27 23 23 22 19 20 19 20 14 13 
31 37 32 39 41 37 42 38 36 41 39 43 42 40 47 43 44 40 45 40 39 37 34 38 38 39 37 38 41 42 37 37 42 41 42 41 46 47 49 47 42 45 44 48 47 45 47 45 46 49 41 40 42 44 37 37 36 36 36 35 33 36 33 29 29 30 27 28 26 23 26 23 22 18 17 17 20 17 12 9 
30 35 29 35 35 40 38 39 38 40 40 44 40 42 43 43 44 40 41 40 33 33 37 39 38 35 40 40 40 38 40 38 45 45 46 50 44 46 45 50 44 46 46 45 44 44 42 45 45 44 42 40 41 42 42 36 36 41 39 37 34 34 31 28 31 28 30 26 25 25 22 23 22 21 17 17 18 13 8 9 
28 31 30 34 35 33 34 31 38 38 40 43 39 40 41 40 43 43 32 34 34 36 34 38 36 32 37 34 37 43 41 44 47 49 46 46 51 46 47 49 45 43 45 45 43 47 41 39 44 40 39 43 39 42 37 40 37 34 34 36 35 33 35 32 29 26 29 24 23 23 21 21 20 21 17 17 14 16 9 7 
28 39 31 35 37 30 36 36 37 39 42 41 36 39 43 41 39 33 32 31 34 36 33 34 35 35 35 37 37 44 47 46 42 44 49 42 47 50 49 44 41 42 48 45 44 42 44 45 41 42 43 40 42 42 39 36 40 38 39 36 32 35 28 33 28 25 26 20 23 23 23 20 18 17 16 18 17 16 11 13 
26 30 28 28 37 33 34 35 36 37 41 37 35 35 36 38 33 30 28 35 34 30 28 30 32 35 35 39 41 46 46 45 47 47 50 43 46 42 42 46 48 41 46 46 41 43 42 42 43 42 43 40 39 43 40 33 39 38 35 34 33 35 35 34 34 24 24 21 18 21 22 16 17 16 16 16 15 15 10 7 
29 31 31 32 35 37 36 34 37 31 41 40 39 39 35 32 30 28 30 34 35 32 34 38 35 38 40 44 41 48 50 46 45 46 49 47 46 48 46 48 47 45 48 46 49 48 41 44 43 43 40 42 41 43 41 34 40 35 38 30 34 33 35 33 30 24 28 21 21 18 22 20 22 17 15 13 16 15 12 11 
28 34 29 28 33 33 36 32 35 33 41 40 37 39 28 31 32 33 34 30 32 31 35 39 42 43 46 41 48 49 52 45 47 48 50 48 45 49 49 51 47 48 50 49 45 44 45 43 46 43 44 42 40 42 43 40 37 38 36 38 36 33 32 30 29 26 24 23 21 20 22 20 19 15 16 15 16 15 9 16 
29 32 28 32 37 33 33 35 36 37 40 41 36 29 27 25 27 31 30 33 34 34 39 42 40 40 46 48 46 51 49 47 53 46 47 51 50 49 48 46 50 50 48 53 47 43 45 46 48 45 41 41 43 47 41 35 40 37 37 36 32 35 33 31 29 27 23 25 23 23 21 20 19 16 15 15 14 17 12 17 
27 32 27 30 29 32 35 34 32 35 38 35 26 25 28 27 30 28 29 35 36 37 36 38 40 44 45 47 54 51 45 49 48 44 48 45 48 49 47 47 49 45 46 49 45 46 48 47 44 40 42 41 44 43 39 37 38 38 34 35 35 37 30 34 30 27 28 21 21 20 24 18 18 17 12 13 16 16 12 12 
30 35 31 29 33 34 37 37 34 34 34 29 27 27 32 27 29 28 34 39 40 39 41 44 47 47 45 48 49 50 52 48 51 48 53 51 57 49 50 55 52 49 48 45 48 47 45 46 47 46 43 43 43 47 44 38 42 37 42 37 33 29 30 27 29 25 25 19 23 17 20 18 16 14 17 12 13 16 11 15 
27 35 32 33 35 34 33 37 32 35 35 29 25 29 26 30 31 38 34 41 39 45 41 43 43 48 48 47 51 53 48 51 51 49 54 51 56 52 53 55 50 52 51 50 45 48 44 43 48 47 43 48 44 46 43 38 42 40 39 41 33 30 32 30 28 24 27 25 22 23 19 18 18 17 17 16 14 17 16 9 


