P2
80 60
221
107 112 117 117 119 114 110 106 101 107 106 107 111 110 112 112 111 116 131 144 179 186 144 123 168 191 155 126 129 129 127 126 123 123 119 118 118 123 116 120 122 122 119 115 115 114 119 114 111 114 125 133 144 167 162 155 147 134 124 111 111 106 101 102 98 99 102 107 109 106 103 99 99 101 98 98 95 93 97 93 
106 106 114 116 119 117 122 124 119 114 105 103 101 102 100 106 111 120 130 147 179 180 137 127 173 188 146 125 130 133 129 125 118 120 118 117 121 121 118 120 123 123 117 116 115 115 113 115 112 113 114 118 128 136 131 130 122 114 115 114 111 108 114 107 98 100 102 109 114 108 108 103 98 98 97 95 96 93 95 91 
107 110 112 118 121 119 123 126 119 118 118 117 116 104 99 106 116 120 133 156 185 178 129 131 178 187 138 129 126 129 126 125 121 119 118 119 117 118 119 119 122 122 119 115 114 112 111 109 109 112 113 112 112 116 115 116 113 114 114 114 111 112 111 107 100 99 96 110 114 112 110 107 105 100 94 96 97 92 92 93 
106 108 110 117 119 117 123 126 120 117 117 118 118 113 114 112 114 123 134 162 184 171 127 139 186 179 134 126 128 123 123 123 121 115 116 118 122 120 118 120 124 121 114 111 112 113 111 109 109 110 111 110 109 109 110 112 114 114 114 114 110 111 106 104 96 98 100 102 106 109 111 107 110 106 101 98 95 94 95 92 
118 119 120 118 117 118 130 120 117 119 117 117 120 116 111 114 115 126 137 173 187 155 127 151 190 176 133 126 125 125 119 120 121 120 118 117 117 117 118 116 122 118 113 110 111 111 111 110 111 113 109 108 111 110 110 111 113 111 112 110 112 109 110 102 95 97 96 103 107 100 106 108 113 109 107 104 103 96 96 94 
121 116 126 132 130 132 136 119 115 116 120 116 116 115 113 113 118 128 140 182 189 147 128 159 190 168 129 128 123 124 120 119 119 120 115 115 120 117 119 119 120 122 114 113 111 115 112 111 115 111 110 110 108 109 108 111 110 109 111 110 110 110 107 101 95 99 97 99 105 100 103 103 102 109 104 108 108 101 100 97 
117 112 116 121 121 130 128 117 113 118 117 118 114 116 114 114 121 131 145 185 181 140 130 167 191 159 129 128 122 121 124 121 116 117 113 114 115 114 115 119 120 119 118 113 113 114 112 110 110 111 107 110 108 107 110 109 109 109 111 113 110 109 103 102 97 96 98 102 105 104 103 100 102 101 104 112 110 104 104 99 
117 111 109 113 115 117 118 116 118 115 115 115 113 117 115 114 123 134 153 188 172 133 133 178 190 154 128 125 120 122 120 118 116 112 114 113 112 113 115 119 118 116 113 112 112 114 111 112 108 110 110 111 106 111 105 111 109 112 108 111 106 105 100 100 98 97 98 103 104 102 102 103 100 97 102 106 108 105 105 101 
118 110 109 110 112 117 116 114 112 119 116 116 116 112 115 113 129 136 159 193 171 129 140 185 186 144 127 125 122 121 118 115 114 112 113 113 111 111 111 115 118 115 114 113 110 110 111 111 106 112 109 111 107 109 109 110 108 109 111 109 107 104 100 98 96 98 96 100 103 101 101 102 99 97 104 102 106 104 106 104 
132 87 92 107 109 111 118 115 113 112 111 111 111 114 115 116 126 138 171 192 160 125 144 186 178 139 122 122 119 117 116 115 117 115 113 112 112 113 118 119 121 116 112 110 108 108 109 107 108 110 110 108 106 109 109 108 108 109 108 113 107 103 99 94 95 97 95 99 100 100 99 100 99 95 101 99 103 102 104 106 
101 25 26 55 92 109 115 113 110 114 110 109 113 111 115 116 127 135 183 196 151 128 155 190 169 129 117 120 116 115 115 114 114 113 115 110 115 114 116 117 117 116 115 109 108 109 107 106 107 108 104 110 105 106 106 110 105 110 111 111 108 106 96 97 96 97 97 103 101 101 102 103 102 100 101 104 103 104 105 105 
77 22 5 9 31 78 113 116 107 113 112 111 112 111 116 120 131 148 190 182 146 131 160 193 163 125 120 119 118 117 117 111 114 113 113 115 118 119 117 117 116 118 116 110 109 108 109 106 107 110 110 111 108 108 107 112 108 110 111 111 110 106 104 102 95 98 98 105 105 108 107 108 107 106 111 108 106 107 110 111 
96 36 10 0 5 36 93 99 101 107 108 109 112 110 116 122 131 148 192 181 136 128 169 193 155 127 119 117 111 114 115 112 113 114 112 114 113 116 116 116 117 118 116 111 110 108 110 104 108 107 108 107 106 106 108 109 112 111 112 108 110 108 109 104 97 97 96 106 109 113 115 110 110 110 112 111 109 112 106 108 
115 78 54 31 17 34 78 97 95 94 93 96 100 108 111 121 124 146 195 176 127 126 176 185 146 120 115 113 113 115 110 112 114 115 116 112 114 114 112 118 116 116 114 107 108 113 107 108 105 107 108 107 103 105 102 107 108 110 110 109 108 108 107 106 99 95 96 105 112 112 111 110 109 108 108 109 107 106 107 106 
113 99 97 93 84 81 94 110 111 105 100 94 95 95 95 98 108 147 197 174 121 128 186 183 140 118 112 110 111 113 113 114 116 114 113 112 113 114 111 114 114 118 114 110 111 110 110 110 106 107 106 109 106 104 107 109 107 108 110 107 111 109 110 106 96 96 96 103 110 108 109 108 110 106 104 107 110 104 106 107 
117 111 107 104 103 107 109 112 117 115 111 109 108 103 99 87 93 155 197 164 104 126 192 178 131 114 112 110 112 108 110 110 113 112 108 109 113 113 107 114 117 116 112 110 107 111 110 107 108 107 107 109 104 106 108 109 108 108 106 108 105 106 107 105 98 97 96 102 108 110 109 108 106 105 105 108 113 107 105 107 
117 107 108 110 105 109 116 116 112 114 118 116 116 113 109 108 113 167 201 161 104 134 207 189 122 103 101 109 106 110 109 109 111 111 109 111 112 110 111 114 116 115 114 110 110 108 110 104 108 107 107 110 107 106 109 108 111 110 108 104 107 106 104 102 101 97 95 105 108 109 108 110 110 107 108 107 106 107 106 101 
103 109 111 112 112 109 113 112 114 112 111 111 110 110 113 115 121 180 199 154 104 143 207 173 109 100 97 100 101 102 104 107 108 107 109 110 109 106 112 109 111 114 112 108 108 106 109 106 106 106 109 105 109 109 108 108 108 108 109 107 107 105 102 102 103 102 97 102 108 110 109 109 108 110 106 111 110 107 108 100 
105 104 109 114 110 110 113 115 110 109 110 111 111 110 110 106 117 187 195 147 107 152 207 169 103 101 96 101 96 95 96 97 98 97 104 104 106 108 106 109 111 113 109 107 103 107 107 107 107 105 104 105 109 106 106 108 107 108 110 107 106 104 103 100 99 95 98 98 107 112 112 109 114 108 108 108 109 108 103 105 
105 108 113 116 112 110 118 112 108 113 110 111 109 109 111 111 127 193 184 133 108 166 206 158 104 104 99 100 98 100 96 94 97 95 92 95 100 105 105 107 110 109 105 104 104 106 105 105 106 110 105 107 108 108 111 106 108 109 106 108 107 106 102 105 105 95 100 98 107 110 113 110 109 112 110 111 112 108 105 104 
110 109 112 117 113 116 118 117 111 114 113 114 110 108 110 111 141 190 179 127 111 176 197 149 104 105 101 101 98 98 96 96 96 93 93 96 93 95 91 93 97 97 92 93 96 103 102 103 105 105 107 108 107 104 107 108 108 108 103 109 109 105 106 106 109 98 95 99 108 111 113 113 114 109 111 108 111 105 107 108 
106 109 119 117 117 115 117 114 113 115 113 111 109 106 108 116 147 193 174 119 111 183 193 143 101 104 102 104 101 97 96 96 98 99 96 93 97 95 93 93 92 94 88 87 84 89 92 95 102 101 105 102 106 109 105 107 106 106 107 109 109 107 109 110 109 100 94 97 107 109 111 112 112 110 108 107 112 108 105 104 
108 109 114 117 115 116 119 114 115 114 112 113 109 108 107 111 155 192 165 113 113 189 189 129 103 105 100 102 102 99 97 97 98 96 97 95 96 95 91 92 97 94 88 84 87 83 91 96 99 104 104 104 102 101 101 104 106 105 109 109 109 107 109 109 109 105 95 99 104 110 110 112 111 109 109 110 116 110 106 106 
113 108 114 120 116 119 119 113 113 113 112 111 111 106 110 118 166 187 162 112 124 194 181 122 100 103 102 102 100 103 99 100 98 96 97 95 96 95 96 97 98 96 94 87 90 97 101 106 105 105 105 106 101 103 102 109 109 108 107 107 109 107 109 109 113 107 98 94 101 110 112 112 112 112 111 110 109 108 110 99 
125 124 126 123 121 121 119 114 114 116 115 116 114 107 112 122 179 191 157 114 130 191 178 120 101 106 105 106 102 101 102 101 100 99 100 98 97 95 93 96 103 99 96 102 102 103 102 106 107 107 107 107 105 106 107 109 108 111 111 111 109 109 112 112 112 112 101 98 104 112 112 111 111 113 110 111 112 108 108 107 
169 159 155 146 137 132 125 121 119 122 123 117 112 111 113 123 183 185 151 111 140 192 174 114 103 106 103 103 104 102 101 101 100 101 101 100 102 98 94 97 97 102 105 105 103 107 107 106 106 105 104 109 106 106 109 109 107 110 111 109 109 112 109 107 112 112 99 96 102 109 113 111 112 115 112 108 110 109 110 106 
188 190 197 195 189 181 175 161 144 145 134 119 114 112 117 134 201 187 144 112 149 191 169 111 104 107 104 105 104 108 103 101 101 101 99 101 100 98 98 100 99 100 105 108 103 106 105 104 103 106 105 106 106 107 109 107 110 109 110 112 112 109 107 112 114 112 101 95 99 107 112 111 111 109 111 110 108 108 109 111 
182 187 201 203 199 202 202 203 203 171 161 174 161 138 133 155 217 187 138 118 163 188 163 103 102 108 103 99 100 102 102 102 104 101 101 101 101 100 98 100 99 100 104 103 105 105 103 106 106 104 107 106 102 109 107 109 109 111 111 107 110 108 111 108 116 111 104 95 95 103 112 115 115 112 109 111 110 110 112 109 
138 142 154 168 181 191 202 206 203 173 174 211 209 198 195 205 209 180 127 122 175 189 152 110 103 109 102 106 106 104 104 104 102 105 99 101 103 101 101 100 104 105 99 104 105 104 107 107 103 106 105 107 106 109 109 108 109 109 111 110 110 111 110 110 114 113 108 98 97 101 114 113 112 113 113 110 110 113 107 106 
133 131 135 144 152 147 148 160 159 154 158 193 200 198 198 198 190 165 121 125 181 186 147 106 104 107 106 104 104 104 105 102 104 103 106 104 103 103 101 103 103 102 98 107 106 104 105 104 106 106 106 105 105 107 106 108 109 110 112 109 110 108 108 107 112 113 110 97 96 102 110 114 113 113 109 111 112 110 107 112 
169 158 153 152 159 144 139 133 130 140 131 132 139 150 166 172 163 128 117 131 188 186 143 107 103 108 107 108 105 104 104 102 104 104 107 104 105 102 104 103 102 100 104 107 104 103 109 104 106 107 111 107 106 107 109 114 111 112 112 111 111 111 113 108 114 114 114 99 99 99 111 111 114 110 113 114 110 109 109 106 
190 197 198 203 201 184 175 159 151 138 130 125 121 121 119 122 119 114 120 134 192 182 136 108 105 107 108 108 101 107 103 105 106 104 107 104 104 102 99 105 102 99 101 107 105 103 108 105 106 108 108 106 108 108 108 109 111 110 111 112 109 113 115 114 117 116 115 104 98 98 108 111 112 115 112 112 113 109 109 108 
182 182 194 203 206 210 212 214 196 153 167 175 159 141 127 125 116 113 120 149 202 183 129 107 101 109 107 107 104 107 106 103 106 103 101 103 105 102 103 102 101 100 105 106 105 107 108 104 105 107 108 110 107 110 111 112 110 111 112 111 113 114 114 116 116 118 113 108 99 96 106 108 115 112 112 113 114 110 110 103 
137 143 162 177 181 191 204 208 199 175 198 221 215 206 197 187 169 160 150 179 211 183 129 108 106 108 107 106 106 107 108 106 109 104 105 104 106 103 102 102 106 103 104 105 105 106 112 107 106 112 113 107 110 112 110 112 110 112 112 112 111 118 113 114 114 118 117 111 102 97 102 111 113 115 116 112 112 111 111 107 
133 137 148 146 133 136 144 152 160 151 175 197 203 199 196 198 194 190 192 201 194 169 125 109 106 111 107 107 106 106 108 106 105 109 108 106 106 103 102 99 103 102 104 108 108 110 111 110 110 111 111 112 107 112 110 112 109 114 114 111 114 118 115 112 115 117 114 116 104 97 96 109 114 112 112 115 114 112 108 111 
147 151 144 153 131 120 129 125 138 139 133 136 142 152 166 175 179 181 185 186 173 150 118 105 106 110 108 113 105 106 109 108 109 108 109 106 107 106 105 102 107 103 106 107 108 110 108 109 112 113 113 113 111 110 108 111 109 112 114 112 112 115 111 113 114 116 114 115 106 99 99 108 113 115 113 116 114 110 110 106 
165 154 146 152 128 120 123 124 139 136 129 121 118 119 120 127 122 132 139 142 131 114 114 108 107 112 108 111 111 107 110 108 109 109 110 106 108 104 107 102 104 104 109 110 109 112 111 109 109 111 113 113 111 114 110 112 110 112 113 112 110 115 112 114 117 118 120 117 110 99 93 104 114 113 117 113 114 110 108 108 
162 144 139 142 122 118 122 123 138 132 124 124 114 114 117 117 118 118 119 113 107 113 113 108 106 111 108 113 107 108 110 109 108 107 111 109 110 109 105 107 108 105 108 110 109 108 111 112 113 113 112 114 113 114 114 116 113 113 113 114 114 114 111 113 115 115 116 117 113 99 95 102 114 114 117 116 116 113 110 106 
183 144 136 133 120 119 124 125 140 135 124 123 119 114 114 117 116 116 115 114 108 107 110 110 106 113 114 113 108 111 107 109 110 111 110 109 108 108 107 109 108 106 108 111 114 109 112 112 109 112 112 114 114 113 113 115 114 112 113 114 111 109 110 115 115 118 115 116 116 99 94 99 112 117 114 115 114 109 111 114 
172 142 135 129 115 123 122 133 139 131 123 121 122 117 118 119 116 114 113 115 105 109 114 110 110 114 113 114 113 112 113 110 112 109 111 112 111 108 107 109 106 106 111 112 113 114 113 111 112 111 114 116 111 114 110 115 111 114 113 113 115 113 111 112 115 118 116 117 117 108 98 101 110 115 113 113 116 113 113 114 
158 135 135 135 121 129 130 124 121 123 121 117 123 116 116 119 115 112 113 119 105 109 113 112 109 115 109 114 112 111 109 111 117 110 112 110 110 110 110 111 112 110 113 113 113 114 115 114 111 110 115 111 112 112 115 113 113 115 116 116 114 113 110 111 115 117 120 115 119 112 100 101 102 115 113 113 112 112 115 114 
135 128 139 133 124 127 123 120 119 119 119 118 125 119 115 115 116 113 115 115 103 110 116 112 114 114 112 117 116 113 112 113 113 112 113 113 113 112 108 110 109 109 115 114 113 115 113 111 110 112 114 114 113 116 113 114 114 113 112 115 116 113 112 113 114 119 118 115 118 120 106 97 101 112 111 114 117 115 113 117 
128 127 133 133 127 123 120 119 115 120 117 120 120 122 118 117 116 116 119 114 105 111 112 111 110 114 115 116 114 114 113 116 115 112 116 114 114 112 111 113 112 109 116 115 115 114 114 113 116 114 116 114 115 114 111 113 112 111 113 116 116 116 113 112 115 118 119 117 119 117 110 100 102 108 112 114 118 115 110 114 
123 126 133 129 125 120 121 118 118 116 115 118 121 121 120 118 119 113 119 118 105 114 116 112 114 120 119 117 115 114 114 115 114 115 115 115 115 114 113 114 111 110 114 114 114 112 114 110 114 113 115 116 110 111 110 111 111 118 112 113 112 113 114 113 118 117 119 117 116 117 113 106 101 103 113 117 119 116 114 115 
123 126 134 130 122 124 121 119 120 119 119 121 120 123 123 121 121 119 120 117 107 117 117 114 115 119 117 118 114 116 117 117 115 116 115 114 115 117 113 115 113 111 115 114 116 115 115 111 115 116 118 118 112 112 109 112 112 114 114 115 115 115 117 114 116 119 118 116 118 117 119 109 98 100 109 112 118 112 112 111 
125 130 131 128 122 122 123 120 121 123 120 120 122 123 123 120 119 119 127 120 111 117 115 117 113 118 115 118 118 118 117 117 116 114 115 115 115 115 112 111 110 111 116 116 118 117 113 117 115 115 117 116 114 112 115 109 115 114 112 113 115 115 119 117 118 120 120 118 123 119 118 113 105 99 102 114 117 116 117 116 
127 132 131 123 123 122 123 122 123 120 122 119 122 123 124 128 120 119 124 116 114 116 117 117 112 116 119 121 119 121 122 117 119 115 116 117 116 118 116 114 112 113 117 117 116 116 118 117 119 116 114 115 115 113 112 110 110 115 114 114 115 116 117 116 119 117 123 124 119 118 116 116 113 103 99 109 117 119 116 114 
125 128 135 127 124 122 122 121 118 123 123 122 121 123 124 127 119 116 124 113 111 117 117 118 118 121 119 121 120 121 123 118 121 117 117 121 120 116 118 117 115 112 117 117 119 117 117 114 115 115 115 112 114 113 115 112 113 113 116 116 115 115 117 119 121 119 118 116 117 117 116 118 119 106 95 100 109 112 112 111 
131 133 133 129 122 124 126 123 120 123 120 120 122 121 123 128 126 121 127 113 109 119 118 115 116 118 121 120 121 121 121 122 120 121 119 123 122 119 117 120 115 113 121 117 118 117 114 115 118 117 114 114 113 114 115 112 115 117 111 114 114 115 118 117 120 119 118 117 118 119 117 120 116 118 106 103 105 103 107 111 
127 132 130 127 126 125 126 122 120 125 125 124 120 123 124 128 124 122 124 120 111 118 117 117 118 125 121 120 121 122 124 122 126 122 123 121 120 121 117 119 117 115 121 119 119 116 116 117 117 116 117 116 115 117 113 114 114 113 117 116 116 117 119 114 121 123 123 122 121 120 118 117 119 115 118 109 104 103 107 107 
129 131 129 126 123 126 126 120 125 123 124 126 122 122 123 124 124 121 119 121 112 120 122 117 119 123 123 123 123 125 125 124 127 126 123 122 121 117 118 120 116 114 120 117 117 118 116 116 116 118 118 115 114 118 113 112 112 115 117 114 118 117 115 121 121 123 124 121 119 118 118 122 120 116 120 115 114 107 105 106 
131 132 132 127 122 126 125 127 125 126 125 126 124 120 122 122 127 120 120 115 113 122 122 118 119 124 122 122 121 125 127 125 125 127 124 123 120 117 118 118 117 116 120 118 123 118 118 117 119 117 120 117 116 118 113 115 116 115 116 115 118 117 116 117 117 122 121 120 122 117 117 121 117 117 119 117 117 114 109 111 
137 132 133 129 125 123 129 125 124 128 125 126 122 124 122 128 125 124 121 117 118 119 123 119 119 126 124 128 123 128 125 128 129 129 128 124 119 118 115 115 116 112 116 122 119 119 119 117 122 118 121 119 112 119 118 116 117 119 119 116 116 121 117 115 122 121 123 123 122 118 120 116 121 119 119 117 118 118 116 115 
139 134 132 130 126 124 129 127 125 128 129 126 122 127 127 131 126 128 127 121 114 119 125 122 120 128 127 125 124 127 128 131 131 134 126 126 126 118 118 117 121 114 121 121 119 123 121 118 122 118 120 121 115 119 118 117 115 119 118 116 116 115 121 119 120 122 121 120 124 122 119 121 118 121 118 122 121 116 120 117 
145 139 135 128 128 131 130 131 127 131 133 128 127 127 126 127 132 130 129 121 117 122 127 121 124 131 127 127 123 129 131 134 134 130 132 134 134 131 129 126 130 127 123 123 125 120 122 123 122 124 121 120 121 118 119 119 116 118 116 117 121 119 121 119 122 121 122 124 126 125 122 121 125 119 117 121 118 120 120 119 
146 138 137 132 133 130 134 129 132 133 129 133 131 131 130 129 130 132 130 122 119 127 127 126 127 133 131 131 132 131 132 131 132 133 132 136 138 136 131 130 129 126 124 124 125 123 124 121 122 120 122 123 118 120 121 119 117 118 118 121 121 118 122 121 124 123 123 124 123 123 126 118 120 120 122 120 124 120 123 120 
148 142 135 139 134 131 137 131 133 135 132 130 133 130 128 132 131 131 132 125 120 126 130 126 125 131 128 133 132 132 132 133 136 134 135 140 140 135 134 133 132 126 124 125 128 128 126 128 124 123 127 122 121 124 123 124 121 123 122 122 121 122 122 120 124 125 124 125 126 123 122 124 123 119 118 123 126 123 123 123 
150 144 140 138 136 134 138 134 136 135 133 135 132 132 133 134 136 134 134 126 120 124 129 128 127 134 128 140 138 133 133 135 135 135 136 142 141 136 134 133 133 129 126 127 130 130 130 127 125 126 129 122 120 122 122 123 120 120 121 119 122 119 123 122 125 123 125 122 126 124 125 123 123 121 123 123 125 125 125 124 
151 145 140 139 137 139 136 135 134 137 135 135 137 135 131 135 136 132 135 127 125 130 135 131 130 134 133 136 134 135 138 138 138 143 141 145 145 137 134 134 133 129 128 127 130 129 126 124 125 124 127 126 123 122 124 128 120 122 124 122 124 122 121 119 125 124 125 126 125 123 128 123 122 122 119 123 125 123 128 125 
151 144 141 141 138 142 143 136 134 139 134 132 136 137 136 139 137 134 136 130 127 130 137 132 129 135 133 141 140 141 142 140 141 144 141 150 148 141 136 138 133 128 126 129 133 131 127 122 127 122 127 127 125 124 122 121 123 124 122 121 125 121 120 118 127 126 123 126 122 125 124 124 124 127 120 120 123 123 129 135 


