P2
80 60
301
2 9 0 1 5 10 6 6 12 15 17 17 17 14 17 19 23 24 20 25 28 29 33 37 38 37 39 38 39 42 40 47 44 48 47 47 49 50 46 46 41 37 39 38 34 34 36 35 37 47 47 45 44 39 38 39 47 55 59 60 66 76 76 77 85 131 149 149 147 160 158 158 155 152 149 145 144 143 144 145 
0 3 4 5 5 11 13 18 16 17 21 26 24 28 31 29 33 28 33 36 46 48 53 54 58 59 61 58 57 61 58 62 68 62 66 65 63 60 57 61 61 59 59 58 55 52 50 49 43 69 80 73 55 49 49 49 54 58 63 67 73 81 80 83 112 155 161 163 168 167 171 164 166 160 156 152 146 144 147 148 
5 7 10 12 15 26 28 35 37 38 42 42 41 39 37 39 37 38 45 68 82 86 90 92 91 90 94 92 93 94 96 103 101 101 103 104 106 104 105 104 107 106 109 108 104 104 105 107 108 115 126 128 94 85 85 77 75 83 93 92 90 89 89 99 156 174 175 180 180 183 181 175 176 167 164 157 150 151 151 152 
16 25 31 35 41 47 45 47 43 45 46 49 44 42 40 43 39 47 74 87 87 91 95 97 95 96 98 99 98 101 100 105 109 109 113 112 118 119 119 124 117 119 121 129 127 128 134 142 143 140 141 145 138 134 139 136 136 141 144 144 145 137 129 134 174 194 197 194 191 187 189 183 180 174 167 160 157 155 154 153 
31 38 41 37 37 44 42 42 41 41 45 46 41 46 48 49 52 79 95 96 99 99 102 102 99 102 106 104 106 109 106 111 116 115 117 123 123 124 124 126 118 122 126 134 127 128 138 139 135 131 144 146 131 136 145 139 147 148 156 156 158 158 156 166 186 211 216 212 203 201 197 190 187 180 172 170 162 160 166 157 
31 35 35 36 40 41 42 43 37 41 42 45 46 49 54 62 81 95 97 100 102 103 108 108 108 108 107 111 112 114 116 119 121 123 125 127 131 131 133 134 131 126 135 144 151 150 154 157 164 174 168 164 137 137 144 138 147 146 148 155 160 167 167 183 203 213 231 229 224 210 204 195 191 186 179 173 165 170 169 164 
34 38 33 38 40 37 41 40 38 39 46 46 49 53 62 83 96 102 101 104 103 103 109 109 110 112 112 116 117 116 117 121 121 124 130 130 136 134 136 138 142 138 143 150 172 184 196 189 182 177 183 186 170 150 156 160 152 152 154 156 156 174 180 176 201 223 232 244 244 226 214 200 197 191 186 184 178 176 173 166 
37 40 39 38 41 40 42 46 43 43 46 53 55 62 84 100 104 104 104 102 101 101 103 108 107 110 111 111 111 117 116 119 126 126 131 134 138 138 140 143 149 139 149 156 185 203 214 215 198 202 210 222 208 178 172 178 175 163 167 169 173 171 187 183 189 227 243 237 247 246 229 215 206 205 200 192 187 181 177 178 
36 42 40 41 41 45 43 42 42 43 48 54 60 77 97 107 105 102 94 93 89 95 96 98 98 99 102 104 103 103 104 106 111 113 117 133 140 139 142 147 150 148 150 165 187 203 227 229 212 225 223 214 226 208 185 183 190 196 208 210 199 187 182 198 196 219 229 212 205 235 243 232 226 216 205 200 201 195 188 182 
40 43 41 43 42 44 43 47 46 50 58 63 75 99 106 110 101 96 96 93 90 90 96 98 96 98 98 99 103 106 105 106 111 111 119 137 143 141 145 144 144 146 150 158 185 224 256 268 246 225 212 214 226 224 211 190 192 201 200 213 223 199 191 200 209 214 211 203 187 218 257 266 257 241 224 211 209 201 199 193 
47 53 49 47 46 50 50 50 49 53 61 72 92 102 111 106 94 95 95 95 96 95 99 96 98 104 104 104 102 103 105 108 112 114 122 139 144 143 148 150 152 145 149 156 177 223 247 257 261 267 242 215 220 249 231 205 197 200 207 208 212 212 218 224 230 228 214 209 205 209 244 285 292 269 246 229 219 214 208 197 
51 54 52 50 50 49 52 52 52 60 71 91 107 106 108 98 94 97 98 97 94 92 98 97 99 101 101 105 105 104 111 112 114 116 125 140 145 146 149 160 155 142 147 153 169 222 228 239 252 256 281 220 214 226 243 240 233 206 217 225 215 225 228 219 197 214 232 213 214 217 233 270 299 292 269 253 236 225 213 205 
53 53 55 53 51 54 52 58 61 70 92 107 107 107 102 95 95 97 94 98 96 96 99 100 100 103 105 106 109 111 112 113 116 117 126 143 145 146 147 175 160 148 150 161 171 217 263 288 293 295 288 226 206 217 236 236 225 217 209 234 229 197 205 224 209 190 216 226 215 218 224 242 264 284 289 276 256 242 225 214 
53 54 52 55 55 55 60 67 72 93 108 108 111 101 95 94 96 100 98 98 97 99 104 104 102 108 105 106 106 108 110 115 111 119 131 145 148 148 148 177 166 148 151 159 170 207 242 248 248 257 272 249 217 217 220 236 261 279 227 222 243 199 195 206 222 205 196 213 223 217 218 222 225 242 270 282 276 260 245 225 
50 54 55 56 56 62 67 73 95 106 111 112 105 94 95 93 96 96 100 97 100 100 100 103 105 104 106 107 108 109 109 113 113 119 133 144 146 145 149 180 174 146 149 155 165 198 263 284 299 301 282 255 213 211 210 215 237 238 237 243 259 249 199 190 205 230 212 193 219 226 217 213 216 223 244 277 287 275 258 240 
55 53 55 59 61 65 73 94 107 114 112 113 102 96 98 97 96 100 100 98 103 104 107 110 110 110 110 109 109 115 115 118 116 128 136 147 151 150 150 176 177 152 151 157 169 188 257 246 252 253 262 257 224 212 213 210 228 255 276 285 280 269 225 190 193 204 220 194 195 218 221 213 217 222 231 258 277 292 285 260 
55 60 58 64 68 76 97 111 112 113 114 116 109 112 113 113 116 120 115 114 118 115 117 124 122 128 124 122 126 125 128 130 127 136 140 147 146 149 145 175 182 149 147 147 155 170 240 256 291 290 300 274 230 207 203 203 209 238 229 239 248 255 248 203 191 191 201 206 190 202 222 220 215 218 221 227 244 273 292 281 
61 66 65 70 77 95 109 112 113 116 116 118 117 119 122 125 122 124 122 124 126 124 129 131 129 133 134 135 133 136 137 138 138 143 146 145 146 151 146 175 183 152 149 145 153 159 221 222 219 237 243 246 233 204 201 199 202 228 231 256 283 283 271 229 190 186 190 195 192 190 192 221 215 216 211 215 217 241 265 275 
62 71 71 77 91 111 112 113 113 114 117 120 118 117 121 121 122 121 125 125 125 125 129 130 131 132 135 132 134 138 136 137 137 140 144 145 148 147 152 178 186 142 143 143 150 156 207 221 201 271 280 275 242 210 194 194 199 209 243 225 226 238 241 236 203 185 183 187 188 191 185 197 221 214 211 217 216 222 235 252 
67 76 74 94 109 111 114 114 116 117 117 120 120 121 128 127 124 124 126 126 125 127 129 132 132 134 133 135 134 136 135 136 140 143 143 143 149 146 150 177 184 141 142 141 147 151 181 232 202 210 219 229 224 216 238 244 213 200 228 222 207 225 263 261 226 192 179 176 177 189 185 181 203 218 211 215 215 213 208 221 
69 79 90 109 112 118 117 117 115 117 119 124 119 121 122 125 126 126 122 127 126 128 128 131 132 133 134 133 134 132 137 135 138 140 142 144 146 146 151 182 186 144 142 147 160 170 197 227 180 171 177 184 213 217 215 227 193 184 193 233 222 238 247 242 225 202 175 169 173 176 189 176 180 205 215 210 209 213 207 193 
76 92 104 113 112 119 117 117 116 116 118 120 118 116 124 123 124 126 124 126 126 127 133 130 129 134 133 132 134 135 136 138 139 138 142 144 145 145 146 178 184 139 135 148 178 207 227 240 187 163 169 173 211 204 194 194 199 196 206 223 214 177 177 173 180 188 183 167 166 169 178 186 179 183 209 211 207 209 208 202 
78 103 115 117 117 117 115 116 117 116 120 119 117 120 120 123 126 124 125 125 126 129 131 129 132 134 132 133 133 136 136 137 139 143 142 140 146 145 146 178 181 141 133 144 171 206 232 234 192 161 155 158 161 183 200 222 244 242 236 205 222 181 165 160 161 172 185 175 164 166 169 179 180 172 180 208 206 206 211 202 
102 115 116 114 118 117 119 118 119 117 119 121 118 120 123 124 125 128 126 126 129 128 128 130 132 134 134 134 133 135 137 141 140 143 141 141 145 148 146 175 180 142 137 153 156 155 206 224 202 165 155 156 154 158 187 193 236 241 247 228 221 197 166 161 158 167 177 182 170 166 165 166 174 175 171 187 206 208 211 207 
111 117 116 116 115 116 117 115 120 118 120 119 120 120 120 122 123 125 123 125 125 126 126 132 130 133 130 134 130 133 133 137 137 141 141 141 144 144 142 168 181 134 133 146 132 131 192 208 204 159 149 152 150 155 175 188 190 197 199 199 201 202 174 160 153 159 167 173 167 165 165 165 171 180 177 186 194 211 207 200 
113 117 115 116 117 116 116 121 119 120 122 124 121 118 123 121 125 126 127 128 125 126 125 131 130 134 130 133 132 132 135 137 137 140 141 141 143 144 140 166 181 137 133 140 132 122 178 193 200 161 145 147 148 153 162 185 192 218 217 219 225 210 183 155 152 153 157 159 172 166 161 155 163 174 176 180 183 196 207 201 
111 118 117 118 119 118 118 120 122 120 120 122 120 118 121 122 124 127 126 124 126 128 129 130 130 131 129 131 133 135 135 138 138 137 139 140 143 142 142 160 178 145 135 132 145 143 156 168 199 159 145 146 143 146 153 178 182 215 222 224 225 223 192 162 151 150 153 151 166 168 157 152 155 154 168 176 172 178 194 203 
112 116 117 117 118 116 119 119 120 121 117 122 122 123 122 121 127 125 124 128 127 128 126 130 127 131 129 129 133 132 134 135 136 135 134 137 139 140 140 155 172 138 125 130 150 180 191 198 201 169 141 145 143 143 146 171 185 196 209 222 219 219 201 175 152 149 150 151 155 168 168 157 155 155 153 169 174 172 181 199 
115 117 115 116 119 115 119 119 118 117 119 121 121 121 123 123 125 124 124 125 123 126 128 128 131 132 130 133 133 134 132 136 136 137 139 141 142 140 142 156 174 145 126 126 141 182 196 204 201 176 145 147 138 138 143 154 186 180 198 213 218 207 192 178 152 142 144 142 141 154 169 164 169 164 164 166 171 171 173 176 
113 118 117 115 116 118 121 119 119 118 122 122 121 119 122 123 124 123 126 124 126 128 126 129 127 133 133 130 133 132 135 135 137 138 139 141 140 137 141 155 175 145 128 132 140 177 193 196 198 180 143 140 134 137 139 146 182 182 188 197 198 179 158 158 153 147 140 140 141 144 161 164 171 169 163 166 164 168 167 165 
113 117 117 118 116 120 121 117 119 120 125 121 121 120 123 124 126 128 125 127 125 125 126 132 131 131 132 132 136 136 133 136 137 137 138 141 142 142 141 156 151 150 143 146 154 176 187 192 191 179 158 153 146 149 148 154 178 176 165 161 157 155 163 164 161 154 149 148 147 150 160 166 167 161 164 165 169 171 167 159 
116 117 118 116 117 120 120 121 119 118 123 122 119 122 126 123 125 127 126 127 129 127 128 131 129 134 134 131 133 134 132 135 136 136 138 138 139 142 141 143 149 155 154 157 170 176 184 190 183 178 173 174 171 173 172 182 189 190 187 173 168 164 159 165 161 166 166 163 162 162 169 168 174 169 171 176 177 178 180 174 
115 121 120 118 120 121 120 121 120 122 125 125 124 123 126 127 125 130 126 126 128 129 126 134 131 133 135 135 135 131 134 133 140 139 136 139 141 138 139 145 150 153 156 157 169 175 179 183 178 173 171 173 173 174 177 188 188 192 189 177 174 169 170 166 162 164 167 166 165 164 168 167 175 174 176 180 182 183 186 183 
118 118 117 113 117 123 125 119 120 121 123 121 122 125 123 126 124 125 127 126 125 125 131 132 131 128 131 133 134 133 134 137 138 135 137 137 139 139 140 142 150 152 156 157 168 171 177 179 174 172 167 170 171 171 174 183 185 183 181 172 172 167 165 166 160 164 168 166 161 163 166 168 170 174 173 181 177 179 186 182 
116 116 119 119 119 123 121 121 118 120 122 124 121 121 124 124 123 128 129 127 125 128 128 130 129 131 132 131 134 133 134 137 136 142 137 138 140 143 139 141 150 151 154 154 167 170 176 177 171 169 165 166 163 170 173 181 186 183 178 171 168 163 163 162 163 161 162 161 158 161 163 163 166 168 166 173 174 178 182 179 
114 120 120 115 120 121 122 119 119 120 120 123 120 121 123 124 123 125 125 126 126 128 128 128 128 133 132 130 134 131 134 135 136 139 142 140 138 138 141 144 149 153 154 156 164 167 177 172 168 164 163 167 162 166 169 177 179 174 173 167 167 161 163 160 160 161 159 161 159 159 162 160 163 163 164 168 169 178 177 177 
117 123 118 119 118 119 120 118 121 120 124 121 121 120 124 124 125 124 124 127 126 128 128 129 129 129 130 129 133 131 130 135 136 139 137 136 137 140 140 147 150 149 149 153 165 168 173 169 168 166 161 169 164 166 173 177 174 175 170 165 165 164 163 157 160 157 162 159 158 158 156 159 162 164 162 168 163 171 174 169 
117 124 119 120 118 121 120 119 118 120 125 123 122 121 124 125 123 127 126 126 127 126 126 129 131 130 134 131 129 131 133 137 137 137 136 137 137 137 139 145 150 153 151 151 163 165 171 170 164 164 163 165 162 164 171 174 174 174 165 163 161 159 157 155 155 159 159 157 157 157 157 157 158 159 163 164 164 165 167 167 
119 121 121 119 121 124 123 121 120 119 126 122 122 121 126 124 124 128 125 127 127 130 130 128 132 131 131 132 132 134 130 134 132 136 134 136 137 139 140 146 149 149 154 155 163 171 171 169 162 166 163 166 162 165 173 172 174 168 166 163 161 162 160 157 154 157 160 155 156 154 155 154 158 160 163 163 162 163 170 167 
127 125 122 125 125 128 125 124 126 123 127 128 124 124 128 123 128 126 128 127 126 130 128 130 130 131 133 136 136 133 132 136 136 136 138 137 138 137 140 141 150 148 154 154 162 167 170 171 160 164 161 166 162 168 175 173 173 171 162 161 159 158 157 156 154 155 154 153 153 152 151 152 156 156 160 160 161 162 164 167 
125 129 124 120 123 128 123 127 127 126 127 127 128 128 129 131 132 132 129 130 129 132 131 136 131 134 132 133 136 133 136 136 135 137 135 136 137 137 136 139 144 146 153 151 157 160 165 165 157 157 156 160 160 163 169 170 170 168 161 162 157 159 155 155 152 155 155 157 151 149 153 151 156 156 156 162 157 161 165 162 
114 116 110 115 111 119 117 116 119 121 118 120 121 126 128 127 126 130 126 125 127 129 129 131 129 132 132 129 133 133 134 131 134 131 133 132 130 130 131 133 138 139 140 137 134 135 141 141 141 140 144 142 144 144 145 144 148 147 148 149 147 148 150 148 147 150 152 148 149 149 150 151 155 151 152 160 157 160 160 157 
95 99 93 90 91 97 96 94 97 100 99 97 100 103 108 115 113 115 112 113 118 116 116 121 120 125 125 124 124 126 124 129 129 125 127 129 128 128 128 127 131 137 133 131 130 128 133 133 135 139 138 141 135 136 140 136 139 141 140 143 144 142 144 146 144 145 148 144 146 149 152 149 150 154 151 154 154 156 156 154 
83 87 80 80 82 83 82 86 82 83 84 89 84 90 89 95 96 96 95 93 93 96 93 100 97 99 99 98 100 103 103 109 108 105 109 109 105 105 108 107 113 122 121 121 118 119 119 124 125 121 124 131 127 129 127 128 131 132 135 137 136 136 138 141 140 141 140 140 138 141 140 141 147 142 140 151 142 144 144 137 
76 81 74 76 77 82 74 73 73 74 80 81 80 76 81 84 82 85 82 85 85 83 84 85 83 84 85 85 86 90 87 91 93 91 90 90 88 88 85 91 98 102 100 100 98 97 103 103 104 106 105 110 105 106 111 107 114 113 117 120 122 121 123 124 125 125 123 126 127 127 124 125 129 127 128 129 126 126 129 126 
70 74 71 71 70 72 74 72 70 72 74 69 72 72 74 74 74 74 76 75 76 77 80 75 75 78 78 79 78 78 79 78 78 76 81 79 79 77 77 80 86 87 86 83 85 83 87 91 91 90 93 94 92 91 95 94 95 102 99 105 102 107 106 110 105 112 114 107 110 112 113 111 113 113 108 114 109 115 118 110 
67 70 68 70 70 71 70 69 67 71 70 67 71 70 69 69 70 70 69 67 68 68 71 72 71 74 73 73 68 70 68 71 73 72 72 73 70 69 69 69 74 79 74 75 75 77 77 77 80 80 84 86 80 81 80 81 85 88 87 92 91 97 93 96 97 97 102 100 100 99 102 98 101 99 97 104 104 101 101 97 
59 70 68 64 67 68 69 67 67 65 69 69 67 68 69 67 69 68 70 66 66 68 67 69 70 72 69 68 66 71 68 69 69 68 66 66 70 67 65 67 74 73 71 71 69 69 74 75 73 77 74 76 77 78 78 78 81 77 78 83 82 85 83 90 83 88 87 88 92 89 89 90 89 87 92 95 91 89 91 92 
61 63 65 64 61 63 65 63 63 63 65 66 63 63 66 67 67 65 66 63 64 64 64 67 66 69 67 65 66 64 68 65 67 67 67 67 66 66 64 64 68 68 70 64 68 67 67 70 71 75 75 73 72 72 74 76 74 72 76 76 77 79 75 79 79 79 84 80 80 80 82 79 85 82 84 83 86 81 86 82 
58 60 64 56 59 62 63 60 59 60 58 62 59 59 63 64 65 65 62 61 60 60 64 62 62 63 63 62 63 63 64 64 62 67 63 62 63 63 64 66 71 67 69 65 68 65 64 72 69 72 73 72 69 69 71 71 73 74 73 72 71 70 73 70 72 76 77 73 74 79 76 74 79 76 79 79 77 82 77 75 
55 58 57 57 58 58 58 57 58 57 56 59 58 58 59 60 61 61 60 57 59 58 61 62 60 58 61 62 60 60 63 63 60 65 61 62 64 64 61 65 70 72 69 63 74 65 68 76 75 73 72 72 66 69 71 70 71 70 70 70 70 70 72 69 67 71 71 71 67 72 70 72 71 74 73 73 72 80 75 76 
54 59 56 56 58 59 59 58 57 56 59 55 57 58 59 58 57 60 62 58 58 61 61 60 64 60 62 59 57 60 59 64 61 62 61 61 65 63 60 64 74 74 68 69 76 68 71 74 78 74 69 66 65 66 74 76 72 72 69 69 69 69 67 66 64 65 66 68 68 68 68 69 68 71 71 73 68 76 78 73 
52 55 56 58 58 60 60 58 57 56 59 57 57 59 58 62 63 57 59 57 57 57 58 57 57 56 59 57 58 59 57 62 58 61 60 61 64 62 62 66 75 74 72 77 76 67 70 74 75 65 64 64 59 61 68 74 71 71 68 66 63 64 66 64 62 63 64 62 61 64 63 62 69 68 70 70 65 71 71 71 
52 54 56 57 56 58 60 60 56 57 60 56 62 57 61 62 57 58 59 57 56 59 58 58 59 60 61 57 55 57 60 63 60 60 62 59 63 62 64 64 73 75 78 76 79 72 72 77 72 76 66 72 69 66 70 75 74 68 66 69 67 69 64 64 60 62 61 61 59 56 60 60 65 63 68 66 65 69 72 73 
56 59 60 56 58 58 58 61 62 57 59 57 58 58 59 61 60 63 58 56 56 58 62 58 60 63 59 59 59 57 58 61 61 62 62 61 64 67 63 63 70 72 76 76 79 71 73 75 73 77 68 71 69 70 70 69 71 67 66 69 67 64 66 62 59 59 61 58 57 59 61 60 63 66 65 65 67 67 71 63 
55 64 60 59 59 58 58 58 59 56 60 60 57 59 61 59 59 58 59 57 56 56 60 60 63 66 58 60 61 61 59 61 64 61 62 62 65 62 64 66 68 70 71 73 76 71 74 74 75 68 64 76 68 70 70 72 68 69 65 67 67 63 66 64 60 61 61 59 60 59 63 61 62 64 67 68 66 68 71 66 
61 59 56 56 58 60 58 58 60 59 56 57 54 60 59 59 58 60 58 58 60 59 61 61 64 67 62 60 61 59 59 62 61 64 64 64 63 60 60 59 64 69 65 69 71 67 70 71 65 64 68 70 65 65 70 74 71 71 66 65 64 64 62 63 58 60 62 59 57 62 63 59 60 62 61 64 64 68 66 64 
63 62 56 64 57 60 59 60 61 55 54 58 60 58 59 60 59 63 57 58 60 61 61 61 63 65 60 62 59 56 54 58 59 59 55 56 56 52 46 53 54 55 56 55 56 63 62 58 59 63 66 71 63 63 60 65 69 70 67 66 65 63 61 59 58 63 61 58 60 61 62 60 63 60 64 65 61 70 64 64 
63 60 58 60 59 59 61 60 59 59 56 57 59 57 60 61 62 60 59 62 62 61 60 63 58 58 54 57 53 51 51 50 53 53 52 49 49 50 45 46 50 53 52 53 50 49 53 53 52 52 53 57 52 51 53 56 59 61 61 61 62 62 61 60 57 60 63 61 58 62 65 60 64 65 64 66 64 70 63 66 
60 63 57 59 54 55 57 58 56 56 58 60 55 58 58 56 57 62 58 61 56 56 57 62 56 53 56 54 54 51 50 52 52 55 50 48 51 52 48 48 50 50 51 55 52 48 48 52 47 52 54 52 49 51 54 50 49 50 52 57 58 67 65 62 63 65 64 62 65 64 63 60 64 65 65 65 64 67 64 66 


