P2
80 60
251
33 31 35 44 78 106 90 46 57 99 91 56 47 41 37 36 34 35 32 34 31 27 28 25 25 29 33 31 35 42 37 33 34 33 32 32 28 30 30 28 29 29 29 29 34 34 34 29 21 20 19 18 19 21 21 20 26 28 26 26 28 30 34 33 28 24 23 26 27 29 30 28 30 24 23 22 27 26 22 24 
29 30 37 46 86 110 86 44 59 98 91 56 43 41 37 35 35 33 32 31 33 27 29 30 29 34 34 33 31 37 35 35 34 33 31 30 30 30 29 31 30 28 31 32 35 33 31 31 27 21 21 24 22 23 26 24 32 30 29 29 32 36 35 38 35 25 21 28 28 26 28 28 29 31 23 24 24 25 21 18 
28 31 39 45 84 111 78 44 62 97 87 52 43 37 35 33 34 36 29 28 30 30 29 30 29 30 31 32 33 37 36 34 30 30 29 30 29 31 30 31 30 27 32 30 29 32 32 34 27 27 27 29 30 28 30 31 37 33 34 34 33 35 34 34 32 24 22 24 26 28 28 26 29 29 25 22 27 26 19 18 
29 26 37 50 93 102 72 37 67 101 81 48 39 33 34 32 33 31 30 28 29 26 28 30 31 32 31 30 35 36 33 30 31 30 27 28 25 28 29 28 31 31 32 29 33 31 32 34 31 32 32 32 29 29 28 31 37 34 34 34 30 33 30 28 28 23 21 23 27 28 28 27 31 24 22 20 25 26 20 16 
26 31 39 49 98 106 68 40 70 98 75 42 36 33 29 34 32 30 27 26 28 27 32 29 29 31 30 34 34 34 32 30 29 29 28 27 30 28 26 27 27 27 29 30 29 30 31 35 33 33 28 30 30 30 30 29 35 31 30 29 29 30 28 29 31 24 22 23 24 28 31 26 27 26 25 25 23 19 17 11 
25 30 36 59 102 95 66 43 76 97 75 37 36 30 34 29 27 28 29 27 31 28 30 28 26 31 30 27 32 33 33 30 32 28 28 27 27 26 28 24 28 25 27 31 30 30 29 31 26 31 29 31 31 28 27 30 34 27 29 31 27 27 30 30 28 28 21 24 29 29 29 24 29 28 24 26 20 16 12 11 
24 34 41 60 103 96 60 39 78 100 68 36 34 30 32 27 31 28 28 29 31 26 28 27 28 30 29 31 34 36 32 31 33 29 26 27 29 23 28 25 28 28 29 25 28 26 26 30 30 28 29 29 29 30 29 27 31 27 29 26 29 30 33 32 31 26 21 23 25 29 29 27 29 27 28 26 24 14 13 19 
22 30 35 52 100 93 56 36 78 97 62 35 33 26 28 26 25 27 28 30 31 29 24 24 23 26 27 31 33 33 33 31 34 27 29 29 31 27 26 28 27 26 27 28 28 29 25 26 26 28 30 23 29 27 28 27 33 30 31 32 30 36 31 33 30 28 22 20 26 29 29 26 29 27 28 26 23 16 11 20 
19 29 31 49 106 94 52 39 83 97 61 34 27 29 26 28 27 29 32 27 27 25 25 24 27 27 30 30 34 33 30 31 29 27 27 31 31 30 29 25 32 28 27 28 28 31 31 28 30 28 28 24 24 26 28 30 33 33 33 36 33 35 34 31 31 33 20 21 28 31 31 31 30 28 25 25 19 21 18 18 
10 6 0 43 107 92 46 30 88 100 60 27 26 25 26 23 25 26 26 28 25 26 23 26 23 26 26 27 30 34 35 30 32 28 29 30 32 28 30 30 30 28 29 32 29 32 33 29 28 29 28 29 27 29 32 31 33 34 37 32 35 33 36 32 34 31 27 23 26 29 30 29 30 29 26 27 23 25 18 13 
12 10 8 54 105 90 38 28 98 110 48 18 17 14 16 20 22 23 21 24 25 23 24 25 21 25 26 27 28 33 31 27 26 28 25 28 28 29 28 26 27 28 27 29 28 28 28 27 27 27 29 30 29 31 30 35 35 34 35 33 35 32 32 34 31 32 24 22 23 30 31 29 32 30 26 26 19 22 19 21 
18 20 20 61 112 92 37 33 98 108 46 18 16 15 13 14 14 18 19 19 16 20 22 22 22 24 22 23 26 30 29 28 29 27 28 29 27 28 31 28 29 30 31 26 30 29 28 29 28 30 34 35 32 34 33 37 39 35 36 36 33 34 33 32 34 33 28 22 25 29 31 31 33 31 30 28 22 20 17 21 
20 18 19 60 105 86 42 37 95 104 44 13 13 15 12 11 18 13 11 10 10 10 9 11 10 17 15 16 15 22 18 25 25 22 23 26 25 25 28 25 30 27 26 27 23 26 28 29 30 32 30 31 32 33 29 33 35 32 33 31 33 30 33 31 30 31 29 23 22 31 31 30 29 30 28 26 24 21 17 18 
21 23 21 65 102 86 39 41 104 103 44 20 16 15 15 13 14 17 13 12 12 10 8 11 10 10 7 10 13 12 12 9 20 15 21 23 26 24 26 27 28 23 28 26 30 32 30 30 31 35 33 34 31 33 33 32 33 30 37 36 35 35 36 34 36 32 31 25 20 30 32 33 34 35 27 32 24 24 19 19 
21 20 24 74 100 74 37 40 102 98 36 21 21 17 20 20 16 15 15 14 12 10 11 9 9 11 10 13 15 12 12 12 12 10 22 24 26 29 26 24 27 27 29 33 33 32 30 34 36 33 33 36 32 33 32 33 37 38 36 34 35 33 35 35 36 33 31 27 24 31 33 31 32 34 27 31 27 22 19 21 
19 20 25 71 98 73 32 42 100 88 37 19 16 17 19 16 16 15 13 12 11 9 11 11 10 9 13 11 11 14 9 12 18 18 26 28 28 23 23 24 27 25 27 29 31 30 32 30 29 30 32 32 31 33 30 30 36 33 34 35 33 34 31 34 34 34 32 27 22 22 29 31 33 27 28 29 28 24 18 21 
19 22 25 75 96 73 34 44 103 91 35 19 23 20 19 19 18 18 18 17 16 13 16 14 11 11 12 14 16 17 23 26 32 28 30 29 28 27 31 28 29 26 31 31 35 32 33 32 34 33 32 33 35 34 33 35 38 36 35 36 37 36 36 37 37 34 36 30 20 27 35 33 33 33 27 31 30 27 23 23 
21 21 29 85 100 69 28 47 103 86 34 21 22 20 20 20 21 14 16 21 16 17 16 16 14 16 14 15 20 25 28 29 33 30 29 27 29 28 29 29 28 27 32 30 35 34 35 35 34 36 33 36 34 31 34 33 40 36 40 35 40 38 40 34 35 36 35 31 25 26 32 32 34 34 34 31 31 32 27 25 
21 18 26 85 98 67 28 48 101 86 34 19 21 16 22 19 21 17 20 16 17 17 17 16 16 15 15 13 18 25 30 30 28 26 28 28 28 28 28 27 27 27 32 28 31 30 33 31 32 32 35 34 36 34 30 32 35 33 38 34 39 37 37 34 33 34 34 32 20 21 27 31 30 31 28 31 30 30 28 25 
21 22 33 88 99 63 30 51 103 86 30 21 23 17 20 19 23 20 21 16 17 18 18 16 16 15 16 12 18 27 32 29 32 24 26 27 28 28 30 27 30 29 31 28 33 34 35 32 32 33 34 34 33 37 37 34 39 34 35 36 37 37 35 34 33 33 37 35 26 23 30 31 35 35 30 31 34 31 25 25 
24 23 31 96 98 66 34 56 107 87 29 23 22 22 22 22 25 21 21 19 20 19 17 17 19 17 16 17 18 24 29 29 28 25 27 27 27 28 30 28 29 30 29 33 34 30 32 32 35 32 36 35 38 32 33 35 38 38 36 34 38 37 37 39 37 35 36 42 25 19 27 31 36 36 34 33 33 31 26 27 
29 29 43 108 101 63 33 64 107 83 32 22 20 21 22 18 22 22 19 20 18 19 17 18 16 13 16 18 18 21 27 27 28 27 26 28 25 28 29 28 30 30 31 30 31 30 33 32 32 33 37 35 32 34 36 34 37 36 35 34 36 39 38 37 35 35 36 37 32 25 20 32 34 36 32 31 36 31 25 24 
79 76 78 127 108 59 40 68 107 80 26 22 21 18 20 21 22 21 21 20 22 18 18 17 17 17 14 18 18 19 26 27 28 27 27 25 25 27 28 28 28 29 29 31 31 31 31 33 31 35 36 34 32 34 33 34 36 34 33 36 35 38 35 38 31 35 33 36 33 23 21 25 32 35 31 30 31 31 27 26 
105 107 108 112 94 48 35 71 104 78 30 21 22 18 21 21 21 22 21 20 19 19 20 17 18 19 18 19 19 19 24 26 29 27 27 25 26 27 27 29 31 29 31 31 30 32 31 30 30 33 33 35 33 37 35 32 37 33 34 36 34 38 39 41 36 34 35 37 32 32 22 21 28 32 29 33 31 29 24 22 
100 99 98 97 74 39 39 75 105 81 30 26 27 23 23 23 22 20 24 20 21 20 21 20 19 16 18 22 22 22 24 28 30 28 28 31 30 30 31 29 34 32 31 31 34 32 33 34 34 34 36 33 34 35 36 34 37 37 36 36 36 38 40 41 34 39 36 36 35 33 34 24 22 28 27 30 35 34 28 25 
47 47 53 54 38 32 37 78 111 81 29 24 24 25 27 26 23 27 22 21 23 19 20 23 20 21 21 21 23 22 27 28 33 28 32 32 32 34 31 30 30 35 33 32 36 33 33 36 36 34 35 35 36 34 37 37 38 39 33 36 38 37 38 42 36 36 38 37 35 35 35 32 26 24 21 23 24 28 24 23 
31 30 30 29 29 27 38 84 114 82 30 26 25 24 26 23 22 20 24 22 23 21 20 19 20 18 20 21 20 20 26 29 31 29 30 30 34 30 32 32 34 33 32 32 32 31 34 34 37 32 33 34 33 34 36 35 36 39 37 34 36 37 37 38 38 39 37 39 35 35 37 35 33 25 21 24 21 23 23 21 
79 71 58 50 46 49 53 100 121 84 33 25 21 23 25 26 24 27 26 23 20 22 23 23 20 23 20 22 21 21 28 32 36 30 31 32 32 29 33 36 35 33 33 35 36 32 34 34 36 34 36 36 35 36 38 38 42 37 35 37 35 38 41 41 37 40 40 36 36 37 39 36 38 36 35 35 32 25 26 27 
126 117 110 103 103 100 103 115 110 78 30 24 26 23 23 24 26 24 28 24 22 24 19 22 20 22 21 20 21 22 27 32 33 34 31 34 32 31 35 35 31 34 34 34 34 31 35 31 36 32 36 37 34 31 33 36 39 37 37 35 36 37 37 40 34 38 40 38 34 41 37 35 39 34 34 35 37 31 24 28 
106 106 105 102 104 104 106 102 95 62 26 23 25 22 26 24 27 23 29 25 26 25 22 21 20 24 23 22 24 21 28 30 32 32 31 33 33 33 33 34 34 36 32 34 32 33 36 35 34 33 34 35 36 35 37 38 35 36 39 36 39 36 38 40 36 40 40 40 37 37 41 37 37 35 32 36 37 26 26 26 
46 50 51 54 58 67 70 65 60 36 24 26 30 29 26 27 27 27 27 25 25 31 23 22 22 24 24 25 25 25 27 33 34 30 32 33 31 35 37 36 35 34 33 32 35 35 34 35 35 35 36 36 39 38 33 34 40 36 34 36 37 39 42 42 38 37 38 38 37 38 38 38 39 36 35 34 32 33 24 24 
30 30 28 28 28 33 35 30 32 28 23 26 27 27 28 29 27 26 26 22 23 26 27 26 27 25 19 27 26 26 28 31 36 35 36 33 33 31 34 38 32 33 34 31 36 35 34 34 35 34 34 36 37 38 35 37 40 39 38 37 39 41 41 41 40 39 38 38 38 34 39 43 39 35 34 33 34 33 28 29 
29 27 24 23 25 29 29 26 28 27 24 27 30 27 28 29 29 29 27 26 26 28 27 26 25 24 25 29 27 26 27 34 35 34 31 32 33 33 36 32 35 35 37 36 35 35 34 37 37 38 36 37 34 35 36 41 40 37 37 35 40 40 44 42 38 41 39 41 37 40 37 37 41 41 35 33 37 37 32 30 
29 27 25 25 27 26 26 25 26 29 24 28 31 26 31 28 31 29 29 25 28 27 29 26 30 28 26 28 27 27 28 32 35 33 33 31 33 33 33 36 38 37 37 36 39 35 36 40 33 36 39 38 37 36 35 34 39 38 40 37 38 40 42 41 41 38 41 42 41 40 36 39 42 42 36 33 35 34 32 31 
30 29 27 25 27 30 25 26 28 30 23 27 28 29 29 28 33 30 28 28 30 28 31 29 29 27 29 29 28 28 29 34 37 35 33 33 34 32 34 37 34 35 37 33 35 36 36 37 38 35 37 40 36 34 34 38 36 36 40 41 41 45 44 46 41 40 44 41 39 39 41 39 43 38 35 36 35 34 32 31 
31 31 24 23 23 26 32 29 30 28 26 28 31 30 33 30 33 31 32 28 31 32 31 27 32 28 29 31 30 28 31 34 40 33 34 33 33 34 33 32 35 35 33 36 36 35 36 35 38 36 40 38 35 39 36 37 38 38 40 40 39 41 42 41 40 38 39 41 37 41 37 39 41 42 40 36 36 39 31 33 
30 29 27 23 26 26 29 27 27 29 28 28 33 29 29 33 31 33 32 30 30 30 30 30 31 30 33 34 31 30 27 36 37 34 37 34 34 34 37 35 38 32 38 35 36 35 38 38 38 36 41 38 35 38 37 37 39 38 39 38 41 40 40 40 39 35 39 42 39 39 41 38 40 43 37 37 37 37 34 38 
29 29 29 25 26 24 29 28 29 26 25 27 29 28 31 32 29 31 31 32 30 31 28 31 31 31 34 36 32 29 28 33 38 35 35 36 34 33 34 33 35 33 33 36 38 36 38 40 37 35 38 37 37 38 33 38 38 38 39 36 42 39 40 40 39 39 40 39 39 40 38 38 39 38 36 35 38 35 39 44 
32 26 26 28 26 29 31 32 32 27 24 29 32 32 32 33 32 32 30 31 31 31 30 31 33 31 32 32 33 31 28 33 36 35 35 35 38 33 35 33 36 39 36 34 35 36 36 42 39 36 37 37 37 37 35 36 40 38 36 35 38 38 40 37 39 39 41 39 38 42 38 43 39 39 36 36 39 41 44 46 
32 29 27 31 30 30 33 30 29 28 23 27 31 31 32 32 34 32 31 30 33 32 34 34 33 33 33 34 34 33 30 34 37 37 36 36 37 34 37 33 39 34 41 38 35 38 39 39 35 36 39 38 35 36 39 37 42 39 38 37 38 38 41 38 41 38 42 40 37 41 41 43 39 38 38 40 45 51 54 62 
32 28 30 32 28 28 34 29 29 31 24 29 32 31 34 34 32 34 34 33 33 35 34 35 34 36 33 35 37 38 32 34 40 36 38 35 38 37 36 35 37 37 37 37 37 39 36 39 36 35 36 36 38 36 38 37 41 38 40 37 36 40 42 37 38 39 42 45 39 42 39 40 40 40 38 43 54 51 56 95 
30 29 28 32 30 31 32 30 28 30 25 32 32 35 36 33 35 38 35 33 39 38 39 39 36 39 37 36 39 39 35 36 40 36 38 39 39 37 37 36 40 38 36 38 39 39 38 37 37 36 36 40 40 39 37 36 42 37 42 40 41 39 42 42 41 40 42 42 44 41 41 41 43 43 40 42 49 46 64 140 
31 27 29 27 33 29 29 32 33 30 29 31 35 35 35 35 38 36 34 39 36 38 40 39 37 38 38 38 37 38 33 40 39 37 39 38 40 36 38 37 39 38 37 38 38 38 37 37 36 35 37 39 32 37 36 36 40 40 38 37 38 41 39 39 38 43 42 42 41 39 39 42 45 41 40 45 44 46 70 160 
32 26 25 26 31 31 34 35 33 28 29 30 34 35 36 37 36 37 37 38 38 36 39 37 38 36 37 36 35 35 33 35 39 40 40 38 39 38 37 35 40 38 38 35 39 39 38 37 38 35 36 35 34 32 33 34 36 38 37 36 38 39 40 42 41 37 45 39 42 40 44 47 44 42 40 43 48 48 63 155 
30 27 28 29 31 30 34 35 29 28 26 30 34 35 37 36 41 39 39 41 38 44 39 42 39 39 36 31 37 37 30 33 38 40 39 41 38 36 36 38 40 39 37 36 37 36 35 36 37 35 39 35 37 30 32 37 37 36 37 33 38 38 41 40 40 41 44 41 40 41 44 45 47 48 45 52 58 59 62 151 
32 28 26 32 32 34 33 31 33 30 27 31 34 36 38 39 42 41 40 37 43 43 44 41 41 35 38 34 39 34 27 31 38 42 41 41 36 40 36 40 38 37 39 40 35 37 36 39 39 36 38 38 36 35 36 33 37 38 38 38 35 40 42 40 43 40 43 43 46 44 46 56 76 86 94 126 145 128 104 161 
33 32 30 29 31 34 40 30 29 32 30 34 38 36 39 39 43 42 43 41 42 45 46 45 44 43 40 42 44 45 38 33 34 41 39 40 40 40 40 38 40 39 36 40 39 39 36 36 40 37 38 35 37 34 33 37 42 40 39 37 40 40 42 37 40 41 44 45 43 45 56 101 135 145 157 170 167 154 161 187 
32 27 29 28 29 32 36 36 31 36 27 32 36 35 36 38 40 41 40 44 43 44 43 46 48 47 50 47 48 47 40 35 38 40 41 41 40 40 39 37 40 41 36 38 38 37 38 40 36 36 37 35 37 34 35 37 40 44 39 38 40 40 41 42 39 43 44 44 53 73 97 119 131 139 142 150 159 167 183 205 
31 30 30 33 30 36 38 35 35 34 31 35 35 37 41 39 43 40 44 43 43 44 47 45 47 51 53 52 48 49 43 36 36 40 43 44 43 40 39 38 41 39 40 42 39 38 37 36 39 38 36 35 37 37 34 40 43 43 39 38 40 43 41 40 42 41 44 47 69 102 117 129 136 141 148 167 183 199 219 241 
30 28 28 31 31 31 36 30 34 35 29 36 37 35 39 38 44 40 45 46 44 45 44 45 43 51 53 51 51 49 41 37 39 42 42 45 41 40 38 42 39 38 38 39 42 39 37 37 38 36 37 36 38 39 34 35 38 41 38 38 42 41 42 41 45 42 43 46 69 106 134 147 157 164 172 188 200 213 233 243 
31 30 30 33 31 33 35 32 37 36 33 36 39 38 43 44 45 43 45 45 45 46 51 48 47 51 58 50 50 50 48 38 39 43 43 45 45 45 46 41 42 41 41 41 43 41 36 39 40 36 38 36 41 39 41 39 44 38 42 40 41 43 43 44 43 42 44 46 68 109 141 153 162 172 177 191 200 214 236 245 
36 30 36 31 30 35 38 37 37 40 34 37 44 42 42 44 46 44 46 49 50 46 52 50 50 55 56 55 55 54 47 40 40 41 45 44 43 43 42 42 44 45 43 43 42 41 40 40 40 39 39 40 41 44 45 47 45 40 42 44 43 46 45 45 42 41 49 47 64 102 135 150 162 170 176 186 203 217 234 241 
39 38 35 36 34 37 39 36 39 39 38 41 42 47 42 42 47 46 48 49 53 52 54 51 54 56 56 57 53 52 48 44 40 43 47 45 46 43 43 43 43 43 44 44 42 41 38 43 40 40 39 41 39 44 53 54 48 52 48 44 42 46 42 45 45 43 48 48 56 99 131 151 158 168 171 188 201 215 232 245 
40 35 38 38 37 42 41 38 40 40 37 41 45 42 44 48 50 47 47 51 54 56 55 55 53 57 57 59 54 56 51 43 43 46 49 44 45 46 43 44 45 44 44 47 41 43 41 40 38 41 41 44 42 49 57 78 90 68 52 46 43 47 44 46 44 47 46 44 53 92 124 148 156 167 172 183 195 211 230 240 
39 41 41 40 42 43 43 40 44 42 39 44 46 50 49 49 53 54 55 57 58 61 59 62 60 64 64 60 60 62 56 49 47 48 49 47 50 50 49 46 45 45 46 47 44 45 40 42 42 43 43 46 48 57 107 221 165 102 62 48 44 46 46 50 46 50 48 52 52 87 122 145 158 165 170 180 191 212 226 235 
48 45 43 46 42 47 48 44 40 47 43 48 49 51 53 55 57 60 56 61 64 62 67 67 66 67 68 65 64 64 57 51 48 46 53 52 50 51 49 47 49 49 46 48 47 45 44 48 43 45 46 47 48 59 126 251 173 94 62 49 49 45 48 46 49 47 49 54 52 80 118 143 155 160 165 177 186 197 219 235 
51 46 43 45 43 49 50 44 51 49 44 49 51 52 53 54 59 60 60 62 67 71 71 69 69 72 70 70 66 63 58 52 49 50 51 53 53 52 48 47 48 50 47 47 47 47 48 46 48 45 47 47 50 54 72 101 95 72 53 49 45 45 47 47 45 45 50 48 51 74 114 137 153 159 164 169 162 159 211 236 
57 52 50 48 48 53 56 50 51 50 48 51 54 56 57 58 64 65 67 68 72 74 78 73 77 79 81 77 71 66 62 56 50 51 55 53 52 45 47 50 51 50 47 50 50 50 47 49 51 47 45 49 48 50 54 57 65 60 53 49 48 49 51 45 49 47 50 51 54 69 107 134 154 160 160 165 162 177 215 229 
67 64 61 60 61 60 60 57 60 58 56 59 59 61 61 64 65 65 71 75 76 82 89 86 83 84 86 84 77 74 65 59 56 53 56 54 54 51 61 71 60 52 55 51 53 53 54 53 49 50 54 51 47 47 48 54 55 52 53 47 51 52 50 48 48 52 51 53 55 63 105 135 155 163 163 172 180 195 217 228 
95 86 79 71 69 63 67 64 60 61 56 62 61 61 63 65 69 67 74 77 79 83 88 87 85 94 96 87 77 73 67 61 57 56 59 58 59 57 93 130 69 58 60 55 55 52 55 53 50 51 57 54 46 48 51 51 51 53 48 50 50 48 51 51 52 53 50 54 54 57 106 137 154 165 165 169 179 195 218 224 


