P2
80 60
298
32 34 43 51 96 105 67 45 77 99 82 50 43 41 38 31 31 32 24 26 26 23 25 21 23 24 24 28 32 32 30 29 26 27 23 25 24 25 29 29 26 24 26 27 27 27 24 21 14 16 15 17 14 15 16 14 18 17 19 22 21 20 23 24 24 22 24 26 24 25 23 21 21 23 25 24 23 24 18 22 
32 33 45 60 101 100 62 41 78 102 73 49 41 40 35 35 31 28 28 26 24 25 25 25 28 29 30 30 29 32 30 29 25 25 23 22 24 24 26 26 27 26 28 26 26 29 29 22 19 19 17 17 20 18 18 17 21 19 24 24 26 26 25 30 24 20 22 27 23 22 22 21 26 25 25 22 24 25 18 24 
30 34 45 62 102 98 58 47 85 99 70 41 38 38 32 32 29 31 25 26 25 21 23 24 24 29 28 29 31 32 25 28 23 23 28 23 24 23 23 25 25 25 26 29 28 30 31 25 26 23 19 20 25 23 23 23 24 29 29 27 30 29 25 25 27 22 20 22 25 25 23 21 26 22 27 20 27 29 22 25 
29 34 42 69 105 93 55 49 90 95 63 39 34 34 31 33 28 29 28 30 26 27 28 30 31 26 28 27 32 33 25 26 27 27 21 22 21 22 23 28 25 24 28 25 30 28 28 29 27 27 27 27 30 26 28 26 25 27 28 28 25 25 25 25 22 22 21 23 29 26 25 24 24 26 23 23 27 27 21 24 
32 39 46 77 112 91 53 49 91 97 61 38 38 35 30 29 26 26 26 23 27 28 25 25 28 27 24 30 29 32 31 25 29 18 23 21 22 23 21 24 24 25 25 27 25 28 28 28 28 28 24 28 25 27 24 27 23 25 25 22 21 20 25 19 25 24 21 24 25 24 24 27 23 23 29 24 24 22 18 21 
34 40 46 83 106 89 49 52 95 94 56 35 32 34 30 27 29 25 27 27 32 30 27 26 26 29 25 26 29 31 31 26 23 23 22 24 20 22 21 22 22 25 22 25 26 29 26 24 29 26 24 29 24 26 26 22 24 23 22 21 22 23 25 25 28 23 18 23 26 29 24 26 25 25 24 24 24 24 20 22 
35 38 45 80 104 85 48 51 97 89 51 31 33 31 30 27 27 26 27 26 27 27 26 25 24 23 26 28 30 31 26 26 27 23 25 22 19 21 22 22 21 21 20 24 23 26 21 23 26 25 23 24 24 24 22 24 26 23 24 21 24 27 22 25 27 24 18 20 25 25 23 27 26 24 26 24 22 24 22 22 
26 36 41 82 106 81 48 49 97 85 43 28 25 28 23 21 24 27 27 25 24 22 22 24 21 22 21 25 27 28 23 23 26 23 21 22 19 21 20 21 20 23 23 24 26 22 21 21 22 24 21 21 21 19 25 22 21 20 20 24 25 27 24 24 25 20 17 19 24 25 23 21 26 24 26 18 21 24 23 23 
21 28 34 83 107 81 38 56 98 84 44 27 27 25 25 26 25 26 24 21 23 23 21 20 23 22 25 23 25 30 26 23 24 24 24 22 23 23 23 22 23 21 22 24 23 23 23 21 23 21 20 20 23 22 21 24 26 25 25 23 27 28 27 27 27 24 22 21 25 27 26 24 25 24 25 24 19 25 17 23 
7 1 15 86 107 74 34 53 105 89 38 20 18 22 19 18 23 24 21 24 23 22 21 25 21 22 23 22 23 29 27 24 23 21 21 21 21 23 24 21 23 22 24 25 25 25 22 26 24 21 15 19 24 18 24 26 27 27 26 27 26 27 26 26 28 22 22 20 23 25 24 26 28 24 25 22 24 25 19 24 
16 10 21 90 109 70 31 54 114 94 27 15 14 17 16 16 20 20 16 21 17 20 21 23 17 21 21 22 23 26 28 21 25 21 18 19 21 20 21 22 23 24 20 25 23 20 22 25 26 22 22 27 24 24 24 25 26 25 27 25 26 25 26 30 24 29 21 19 24 25 24 23 29 26 25 20 22 28 22 26 
31 25 33 96 115 71 29 58 114 92 26 14 15 16 12 14 9 11 12 14 16 16 19 19 20 19 19 21 24 27 21 22 24 23 21 21 21 23 26 24 26 21 24 25 22 24 21 24 27 27 24 27 28 27 27 24 24 28 29 29 27 29 26 31 27 25 21 18 23 25 26 26 26 26 27 24 19 27 20 26 
23 23 26 94 114 71 35 64 115 89 25 14 13 14 12 10 9 10 8 6 5 6 5 9 9 11 9 9 13 18 18 16 20 18 17 19 21 20 21 20 23 23 20 24 22 22 25 23 25 23 24 28 27 26 27 21 23 25 25 27 25 27 25 28 27 27 23 20 25 24 24 24 27 26 25 23 25 28 22 21 
19 20 32 100 102 62 32 69 116 83 25 14 14 14 13 14 11 6 9 7 5 7 6 7 2 4 2 5 5 11 5 5 10 10 16 19 21 19 22 21 22 22 22 26 24 26 26 25 25 27 25 26 27 26 25 26 28 25 27 27 25 30 27 31 28 26 23 20 21 28 26 27 28 29 28 26 25 26 20 23 
22 21 39 97 97 55 34 73 110 75 24 15 15 21 19 13 10 11 11 9 9 8 11 10 6 8 7 9 10 12 8 0 3 9 18 20 22 20 20 20 22 21 24 25 26 28 27 27 31 29 30 27 28 30 27 26 28 30 27 25 29 28 30 32 31 30 27 22 21 29 27 28 24 29 28 28 27 25 21 23 
24 22 37 99 91 45 28 74 104 72 23 14 15 17 14 11 9 10 8 8 6 6 6 9 3 6 4 5 7 10 7 4 15 14 21 21 21 19 15 19 22 23 22 26 26 24 28 25 26 25 22 25 27 26 26 23 25 25 25 25 30 25 25 26 25 27 25 21 20 27 26 26 29 25 24 24 25 22 19 23 
19 22 42 102 90 47 29 73 102 67 22 17 15 14 13 13 13 11 9 9 11 11 10 9 6 7 6 7 8 12 17 20 21 20 20 20 20 20 25 24 22 21 23 25 26 23 26 24 26 27 25 26 26 27 27 25 26 29 28 26 25 25 26 25 27 31 26 21 20 25 26 26 25 27 24 26 27 28 24 22 
23 21 46 102 95 47 26 78 101 67 21 16 19 20 13 15 12 11 12 10 11 10 11 11 9 8 10 10 14 20 21 26 23 23 19 22 23 21 22 23 25 23 24 28 27 25 28 25 27 27 28 26 27 26 24 27 27 26 28 25 28 27 27 30 26 27 30 21 20 27 25 22 26 26 27 26 28 31 24 23 
21 21 48 101 88 45 29 81 98 64 22 16 15 17 15 15 13 11 8 10 16 10 11 12 8 6 7 7 17 19 19 21 19 20 16 22 16 20 20 20 22 20 25 23 25 26 24 24 25 24 28 26 27 25 23 26 26 26 26 24 26 23 21 26 25 27 26 23 15 22 25 21 24 25 24 24 27 31 24 26 
22 20 53 103 90 44 29 83 102 60 22 16 17 16 15 17 15 13 16 11 12 12 13 9 9 9 10 9 13 24 26 24 22 20 18 21 18 20 22 24 22 22 24 27 25 24 27 24 27 26 28 25 27 27 27 29 26 29 28 28 26 27 27 29 28 28 29 27 18 19 24 24 28 27 26 25 23 28 23 25 
24 25 62 110 88 41 34 88 104 60 22 18 20 21 16 19 16 17 12 12 13 10 12 11 10 9 9 13 15 19 24 19 23 18 21 23 20 21 21 20 22 22 21 24 30 27 27 26 26 26 29 27 26 27 24 27 27 29 27 27 28 32 26 29 27 32 28 28 23 21 24 25 31 28 28 31 28 30 27 32 
33 31 74 119 90 40 34 90 101 57 23 20 19 20 15 15 18 14 13 15 15 17 12 15 8 9 12 13 11 15 22 21 22 17 15 21 20 20 22 20 22 21 22 23 25 24 26 24 28 29 28 25 27 27 27 26 26 28 26 27 29 28 30 29 28 27 28 28 24 22 20 27 25 28 27 25 23 29 26 30 
84 79 107 123 85 35 41 93 101 57 22 21 18 19 16 19 13 16 16 14 15 16 14 12 10 12 10 10 12 16 20 21 22 20 21 20 19 22 20 19 22 22 22 25 25 24 26 25 26 26 27 25 26 26 26 24 27 27 27 27 30 29 26 30 25 29 29 28 24 18 19 24 26 28 26 26 26 28 26 30 
112 110 109 101 73 33 41 94 98 56 22 19 19 17 19 16 14 16 17 16 14 15 14 15 9 13 12 13 11 17 24 18 18 19 20 16 22 23 22 23 21 22 23 24 25 26 26 23 27 26 27 28 27 26 27 26 27 26 26 25 27 27 29 31 26 30 29 31 28 29 18 20 23 26 24 28 24 30 27 29 
105 100 93 85 50 30 43 100 99 55 23 22 22 19 19 21 17 20 15 18 14 14 16 15 15 12 14 12 16 18 20 22 18 20 18 22 21 24 24 24 27 26 24 26 25 26 30 28 29 29 28 28 31 27 25 29 25 31 27 26 27 27 29 28 32 30 34 34 32 30 24 19 16 23 25 30 31 28 23 27 
44 48 49 43 28 26 49 105 102 54 24 22 21 21 18 22 18 20 15 16 16 18 18 19 13 12 12 12 14 17 24 23 19 25 22 23 24 26 25 27 26 23 28 26 26 28 26 27 28 31 29 27 31 29 27 24 26 28 28 31 29 27 32 34 32 31 31 34 32 30 34 26 23 20 20 22 25 27 24 22 
33 29 26 24 26 29 51 112 103 55 21 20 21 21 21 21 18 21 17 17 16 14 16 16 18 13 12 12 15 17 26 24 23 22 22 24 24 25 27 24 27 26 27 26 26 27 25 26 26 26 30 26 26 26 28 26 26 25 26 27 26 28 28 28 29 31 30 30 31 32 30 29 25 26 23 22 26 23 21 23 
79 69 59 55 50 49 70 124 103 52 24 21 23 22 21 17 17 17 17 18 20 18 16 19 15 14 14 15 15 17 21 21 23 23 22 25 23 24 26 26 28 25 27 23 29 29 25 24 28 28 29 27 29 27 27 27 26 27 27 29 27 28 28 31 32 32 32 32 31 29 28 29 29 29 27 30 34 28 23 26 
121 113 107 104 98 96 112 112 95 48 21 22 23 23 20 20 18 20 20 18 18 18 16 18 16 18 13 15 18 18 24 28 24 24 24 27 27 28 27 24 27 27 27 28 25 28 26 26 28 30 26 27 26 29 30 28 24 25 28 26 25 28 27 30 29 33 31 33 32 36 34 30 26 30 31 30 32 26 23 27 
103 103 99 100 96 96 97 98 78 35 21 22 18 21 20 19 19 22 18 22 19 16 17 16 15 15 18 13 18 18 23 24 21 22 22 25 23 27 26 27 29 25 26 27 26 31 24 29 28 29 27 31 26 29 29 25 28 26 28 29 29 29 29 31 33 31 29 30 32 32 32 30 29 29 29 30 31 27 26 27 
45 48 48 47 52 56 63 59 45 26 22 22 24 25 24 24 21 21 20 19 20 19 19 18 18 18 19 16 20 18 26 27 25 25 25 25 26 27 27 26 25 26 27 30 26 28 27 28 27 29 27 28 26 26 28 29 26 29 27 30 29 29 29 31 31 34 30 32 33 31 29 32 28 29 30 30 31 31 26 27 
29 26 25 26 26 28 28 25 25 22 24 24 23 27 25 25 22 23 23 20 22 23 19 23 18 17 18 19 16 19 27 25 26 25 24 27 25 30 27 28 26 27 25 25 27 28 28 27 29 28 27 29 30 27 29 27 27 28 30 30 29 28 32 34 35 38 33 34 31 30 32 31 32 29 30 31 30 32 28 32 
27 27 22 25 26 24 26 25 26 26 25 24 25 27 26 22 26 21 20 21 21 26 23 22 17 21 20 20 20 19 27 28 27 24 23 25 25 26 27 28 27 27 25 28 29 28 30 27 30 33 29 29 30 27 30 30 24 27 32 30 29 29 33 34 32 35 35 35 34 34 30 31 32 34 30 29 30 34 30 31 
27 26 25 25 25 24 26 25 25 28 24 26 27 28 28 27 25 26 23 23 26 22 23 26 22 22 21 20 21 20 25 26 29 29 25 26 30 28 30 28 27 28 29 31 30 29 29 28 31 31 30 32 30 29 29 27 30 30 29 33 31 33 31 37 35 36 35 35 33 34 34 33 32 36 32 30 30 33 32 34 
26 26 24 24 23 22 21 25 25 26 25 26 25 29 26 27 25 27 23 24 25 25 23 25 23 22 23 20 24 24 26 26 28 25 27 25 27 24 30 30 27 29 29 30 31 31 30 31 28 28 27 28 31 27 31 28 28 27 28 33 30 32 31 32 33 32 33 34 32 36 31 33 35 34 33 30 32 35 33 35 
29 26 21 23 22 25 22 23 26 21 25 25 24 26 25 26 29 25 23 22 24 26 24 28 22 22 24 23 19 23 26 27 28 27 23 27 25 27 29 31 26 29 27 29 28 26 30 29 29 29 29 29 30 28 26 28 30 30 28 29 30 30 29 32 33 31 34 35 34 36 31 34 34 34 33 29 31 33 32 34 
30 26 26 25 23 22 24 26 26 23 23 24 26 29 28 25 27 27 25 28 28 26 25 25 26 25 25 25 22 22 26 29 26 26 24 26 25 27 32 31 27 29 26 29 27 31 31 30 28 34 28 30 28 30 30 28 30 27 27 29 28 30 30 34 33 35 32 35 33 35 33 36 35 31 36 33 32 37 35 42 
31 30 25 23 21 26 26 30 28 25 27 27 27 27 26 29 27 27 29 28 26 24 26 27 28 25 28 26 24 22 27 31 30 29 28 24 27 26 29 29 28 30 29 31 28 29 29 31 31 32 28 29 30 31 29 29 29 29 30 31 29 33 30 32 34 35 34 36 35 32 35 34 34 33 36 32 33 40 34 42 
32 32 30 26 22 25 26 27 28 26 21 27 29 32 28 29 30 28 28 27 26 28 26 28 27 26 26 31 25 26 25 29 29 31 29 26 27 27 30 31 30 31 29 29 31 31 31 30 31 31 31 31 28 30 29 27 30 26 31 33 29 31 32 33 35 35 34 35 34 33 33 36 37 37 35 32 33 34 42 51 
29 30 30 24 21 27 26 29 27 27 26 29 32 30 27 32 28 27 31 29 27 29 25 29 28 28 29 29 28 26 26 31 29 27 29 30 30 28 31 30 30 29 30 30 30 33 32 31 31 30 29 32 29 27 32 25 28 30 28 29 28 31 27 30 32 37 38 33 33 37 35 35 32 36 34 34 47 55 63 95 
31 28 31 29 26 28 28 28 28 25 25 25 30 33 31 30 31 31 31 30 31 31 33 31 30 27 30 28 27 27 28 29 30 32 32 28 31 27 30 31 32 33 27 32 30 31 31 33 32 30 29 30 30 30 30 29 32 30 31 29 33 31 33 33 35 36 36 41 35 36 40 34 35 37 38 52 60 61 77 164 
30 29 27 35 24 27 30 29 27 26 28 29 31 33 34 34 33 31 33 31 32 33 34 31 29 32 31 30 32 29 29 33 34 31 30 27 27 27 34 32 33 31 33 30 30 32 32 32 35 31 30 27 31 32 31 28 29 28 30 29 30 35 30 33 33 38 38 37 34 34 39 36 37 38 40 44 52 85 169 237 
33 26 30 32 30 26 27 27 28 26 26 26 30 30 31 34 32 31 33 33 31 31 32 33 33 32 29 31 31 28 26 32 33 33 30 29 32 32 30 33 32 30 28 30 31 32 31 28 28 30 30 28 30 30 26 25 30 27 30 27 32 30 30 36 33 37 36 35 36 37 39 38 40 44 51 63 119 211 257 268 
36 31 28 33 28 31 40 33 29 24 25 27 30 31 33 35 31 34 33 33 36 34 36 37 34 33 30 31 32 29 27 32 32 31 27 30 33 30 32 33 30 31 29 31 31 31 33 30 31 33 30 31 30 26 29 25 25 29 28 30 31 32 31 33 32 37 38 36 37 37 47 58 74 104 142 177 235 271 285 284 
34 29 29 30 28 29 32 33 31 25 28 29 32 36 34 32 36 35 38 38 38 34 37 38 36 32 27 31 32 32 27 30 29 33 31 31 34 33 32 31 31 33 31 29 31 30 30 30 33 31 28 32 29 28 26 26 28 27 28 29 31 32 32 34 35 40 36 39 41 55 103 146 181 223 251 264 287 298 283 281 
31 31 29 31 29 32 32 32 30 26 27 31 32 34 36 36 37 36 39 39 40 38 39 39 32 32 28 30 31 29 25 28 32 36 33 32 32 29 34 35 33 32 29 34 33 32 31 31 30 34 29 34 30 29 27 25 26 29 30 32 32 32 31 35 36 37 41 43 48 94 141 221 258 275 282 283 297 284 256 248 
32 31 26 33 32 32 35 30 33 28 31 32 35 38 35 34 37 41 39 40 44 38 42 38 38 37 34 33 33 35 28 28 34 34 32 32 34 30 36 33 34 32 30 32 31 34 31 29 33 32 31 33 31 29 30 25 28 30 29 31 32 32 33 31 36 38 41 43 62 105 149 229 236 235 220 208 208 197 198 210 
31 30 31 32 31 34 35 32 32 31 29 32 35 36 37 39 36 43 38 44 41 40 44 41 42 47 40 44 41 41 35 27 33 33 35 35 34 30 35 35 37 35 30 34 34 32 34 32 32 32 31 29 30 33 29 32 28 28 30 34 33 34 32 34 37 37 39 47 77 109 125 149 149 154 154 155 167 178 189 223 
30 31 29 33 30 34 34 31 32 29 30 32 38 35 38 39 38 38 37 39 41 43 44 42 46 49 47 45 43 42 34 32 34 34 33 35 34 36 36 33 37 36 33 34 33 34 32 32 29 36 29 33 32 28 30 29 33 33 30 32 34 34 34 34 34 35 37 53 83 109 122 132 134 144 153 167 179 200 219 243 
31 29 27 30 28 29 31 33 34 29 33 34 37 41 35 39 39 38 39 39 42 44 40 43 43 48 44 46 43 41 36 30 34 39 35 36 36 37 34 37 36 35 36 36 35 32 31 30 32 34 29 33 34 29 33 27 32 31 34 33 32 33 33 34 36 37 39 52 83 116 136 148 151 164 168 182 195 215 230 248 
33 31 33 29 30 31 35 32 37 33 36 37 40 41 42 40 42 41 41 42 43 41 45 43 44 49 45 45 45 42 37 33 34 34 37 38 37 34 36 38 35 36 34 37 36 34 36 31 33 32 34 33 34 32 35 27 33 31 33 34 31 36 32 36 33 39 41 50 81 115 138 150 158 163 175 186 198 214 234 243 
36 36 35 31 27 32 35 33 37 34 36 32 39 43 39 42 42 42 42 47 49 50 48 46 50 47 46 49 45 44 37 34 36 38 39 36 37 37 38 41 34 32 35 36 35 35 35 32 39 34 35 33 33 38 41 35 33 33 35 32 33 36 34 38 35 40 41 46 76 113 137 147 154 162 169 184 200 215 231 251 
39 42 35 37 29 35 40 36 42 39 38 40 42 45 43 43 47 47 48 48 49 49 49 53 50 50 48 48 50 47 47 35 33 40 40 40 39 41 42 40 39 38 36 37 38 35 34 34 34 36 31 36 35 40 49 48 44 39 37 37 32 35 36 35 38 41 46 46 67 106 132 148 153 163 168 182 195 213 229 246 
44 41 39 38 35 38 44 40 40 39 40 39 47 43 45 46 44 45 48 49 54 52 51 57 51 54 55 49 46 50 40 36 38 39 41 40 44 36 39 39 37 36 37 37 39 36 36 37 33 35 32 38 40 44 60 77 69 51 41 39 39 39 38 43 42 41 42 42 65 105 132 145 153 160 166 178 196 212 228 243 
42 41 42 41 38 44 46 43 41 41 42 41 45 47 48 47 50 48 51 53 54 53 56 58 57 58 56 56 54 51 48 41 38 43 44 44 42 40 43 42 41 39 35 40 40 36 37 36 36 39 38 39 44 60 178 191 120 68 46 38 37 37 41 42 41 43 41 46 62 97 125 140 151 157 166 175 195 208 225 245 
46 49 40 43 46 48 46 45 47 44 44 47 50 54 50 55 56 58 54 56 60 62 62 65 61 62 63 58 55 57 48 45 44 47 46 44 43 45 48 46 43 42 42 42 42 44 39 40 38 42 40 43 49 70 203 202 121 68 47 41 39 38 38 39 43 43 43 48 59 96 123 144 148 154 160 170 183 201 225 245 
47 46 46 44 44 48 50 47 54 47 48 45 52 52 53 54 58 59 59 65 62 67 67 70 64 68 65 63 62 59 53 45 42 46 47 48 43 41 44 45 43 42 38 43 43 42 41 42 41 43 38 38 46 49 81 88 72 53 44 42 39 37 38 41 40 41 42 45 55 88 118 138 148 154 157 158 152 177 223 235 
55 51 48 50 48 49 54 53 53 53 54 50 56 57 56 62 61 62 67 68 67 71 73 76 76 76 73 69 65 60 54 44 42 47 51 46 47 40 39 49 41 43 44 46 45 44 43 42 44 46 43 44 43 43 50 50 52 49 42 41 37 42 38 40 44 41 48 47 51 88 114 137 144 153 157 153 149 190 220 232 
65 61 61 53 51 58 59 56 58 54 58 52 57 60 57 60 63 66 68 67 76 80 84 84 81 82 77 74 66 63 56 48 46 49 49 51 47 48 63 55 45 47 51 46 48 47 45 46 46 44 44 43 42 43 45 43 45 43 42 39 41 44 39 42 44 40 45 47 54 82 110 137 149 154 156 163 178 201 217 229 
82 77 73 64 64 61 64 62 60 61 59 62 59 61 60 66 65 68 74 78 79 84 81 79 85 89 87 74 69 64 59 54 51 55 52 54 54 68 121 87 55 55 53 52 49 48 48 46 46 48 44 42 40 41 46 43 42 41 41 44 42 40 41 40 44 43 45 47 53 76 108 135 146 154 160 168 184 200 219 226 


