P2
80 60
274
106 114 117 114 118 116 111 110 106 109 111 109 111 113 114 116 113 119 131 142 177 185 151 127 169 191 156 126 129 130 129 128 125 124 120 119 120 122 123 122 121 123 118 117 116 117 118 115 115 111 126 163 194 233 253 266 261 270 274 260 230 184 131 114 101 103 104 107 108 110 103 101 97 100 97 97 92 91 93 95 
110 110 118 115 120 117 121 127 124 116 109 103 102 102 103 106 117 118 128 145 181 182 143 128 176 189 149 126 127 133 129 125 125 123 122 118 121 121 126 121 122 125 114 118 116 116 114 117 112 115 116 130 152 171 175 183 168 160 164 149 135 122 119 114 102 104 104 111 113 108 110 105 100 96 99 97 96 94 90 91 
106 115 115 118 119 119 125 130 127 122 118 116 118 107 105 106 117 122 132 152 188 181 134 131 185 187 139 126 127 131 130 127 125 121 121 120 119 119 124 121 121 123 120 118 114 111 112 112 111 113 113 115 118 124 134 139 133 127 125 120 116 116 116 111 103 101 100 111 115 113 111 108 105 103 99 99 94 92 92 92 
107 112 113 114 117 119 125 136 128 120 119 120 120 118 119 116 117 124 133 161 187 175 133 140 188 184 134 127 128 124 125 125 123 117 119 119 123 123 122 121 123 122 116 116 112 113 113 112 111 111 114 114 113 116 117 121 120 117 118 115 114 113 113 111 99 103 102 103 108 110 114 110 110 108 107 101 97 92 97 97 
118 121 117 117 119 119 130 126 121 122 120 116 121 118 117 116 116 126 136 174 191 161 130 150 195 178 134 128 124 124 123 121 121 118 121 117 118 119 120 120 124 122 115 114 110 112 113 111 114 114 110 112 112 113 114 113 113 112 115 115 113 109 113 105 99 99 101 103 107 103 106 106 110 111 108 107 99 97 95 96 
119 119 128 127 128 133 131 122 117 116 119 116 116 117 118 117 119 129 136 183 192 150 133 159 193 171 129 128 123 123 123 120 120 118 120 117 120 118 121 123 123 122 113 116 114 115 113 113 117 110 113 112 111 111 110 113 111 111 115 110 113 111 111 103 99 101 100 101 104 103 103 102 101 111 109 108 106 103 98 97 
120 118 117 116 120 129 126 119 117 122 118 117 117 119 118 116 120 131 142 186 185 144 136 167 192 161 130 126 122 121 123 119 117 118 117 116 115 115 120 120 120 121 116 114 113 115 115 114 115 112 109 110 111 112 113 113 109 111 113 112 112 110 109 105 100 100 101 107 102 103 101 100 103 101 106 112 107 105 101 99 
118 113 112 112 113 117 120 118 116 116 114 116 116 118 118 115 124 133 149 189 177 137 136 176 190 158 129 122 121 123 119 118 118 115 116 115 111 113 116 117 118 116 114 112 112 113 112 112 111 112 110 111 108 114 111 113 110 114 109 112 109 109 101 101 97 99 101 106 103 102 100 104 102 98 100 103 105 106 103 103 
117 113 110 109 110 115 116 116 115 117 115 117 116 114 116 115 128 134 156 191 175 131 140 182 189 145 122 126 123 121 119 117 116 114 115 114 113 113 114 115 118 116 112 116 110 111 110 113 108 113 111 113 109 111 111 111 111 109 112 111 108 106 103 100 98 98 98 102 99 100 102 100 100 100 101 102 101 104 101 102 
136 88 91 103 109 115 117 114 116 113 111 112 110 116 119 118 132 137 167 193 165 127 145 190 181 139 120 120 119 119 118 117 119 118 116 115 116 117 121 119 122 117 112 111 110 110 110 110 113 113 112 110 110 112 111 112 110 111 111 112 111 106 99 98 98 99 98 99 104 101 101 103 101 99 103 104 101 104 101 104 
107 29 23 47 88 107 116 112 112 113 112 111 111 109 118 120 126 136 182 202 157 130 154 189 174 127 116 122 116 116 117 115 115 115 116 113 115 118 119 120 120 118 117 112 108 111 108 112 110 108 110 111 108 111 111 111 107 112 113 111 113 106 100 99 99 97 97 102 101 101 102 101 102 101 102 105 101 103 103 105 
85 28 1 2 25 76 109 114 111 111 110 113 112 113 118 126 132 146 187 187 147 132 163 193 166 126 119 118 116 116 116 115 114 115 113 117 117 119 118 117 118 117 115 113 109 109 110 108 109 108 110 111 107 110 111 111 111 111 111 108 111 110 105 103 97 99 99 105 107 111 110 109 108 108 110 108 106 110 109 102 
101 41 11 0 2 30 89 98 103 108 105 112 116 111 114 123 129 143 191 184 141 127 171 191 161 125 117 119 112 112 115 115 115 115 115 115 115 116 118 118 116 120 115 110 111 109 110 105 110 108 109 109 107 107 110 109 113 109 111 111 113 110 112 106 98 96 96 106 109 114 112 113 111 110 112 112 107 108 109 104 
119 86 59 32 22 33 75 99 97 94 91 97 99 106 112 120 126 144 193 178 130 123 175 188 150 118 113 114 116 113 113 113 115 117 118 113 116 117 119 121 117 118 117 109 112 112 110 113 110 107 108 108 108 106 104 107 107 112 113 110 108 111 111 107 100 95 96 106 112 111 110 110 111 109 108 110 107 104 103 102 
113 105 96 92 88 85 93 110 112 107 103 95 95 93 96 98 104 141 197 176 124 128 188 186 143 116 112 113 113 112 111 115 115 114 116 111 114 115 114 115 115 122 117 112 114 111 111 112 110 106 108 111 107 108 110 108 107 108 111 107 112 108 112 109 97 94 97 103 109 105 109 109 109 106 107 110 105 104 105 106 
121 110 107 102 105 107 109 113 119 115 110 113 111 106 101 91 94 153 197 169 109 122 195 180 134 113 111 110 111 107 111 113 112 111 110 112 113 115 114 115 116 117 114 114 111 114 109 108 108 107 110 109 107 109 109 111 111 110 111 109 107 107 106 108 101 99 99 103 110 109 110 107 107 106 107 110 111 107 104 104 
119 107 110 107 106 109 113 115 112 113 114 116 117 115 114 110 113 163 200 166 109 129 212 194 123 102 100 106 106 107 110 108 111 113 111 112 113 113 114 114 116 116 114 110 110 110 111 109 111 108 110 111 107 108 109 111 113 112 106 108 107 108 107 105 101 97 96 103 109 109 109 107 109 108 106 107 107 108 103 107 
103 109 112 109 111 111 112 115 118 112 111 113 111 113 115 117 119 177 200 158 106 140 212 179 110 99 97 102 99 102 104 107 109 111 111 111 109 108 116 112 113 116 113 109 110 104 110 110 110 107 111 104 111 112 110 111 112 110 111 109 106 108 107 105 105 100 97 103 108 110 109 112 110 112 107 111 110 105 107 105 
105 111 112 112 111 113 111 115 114 108 112 112 110 110 110 110 115 183 194 152 109 152 212 175 104 102 94 101 95 97 96 100 100 98 105 104 108 108 110 109 114 115 110 109 105 107 107 107 107 110 106 108 107 111 109 110 111 108 109 108 108 106 106 101 101 95 98 101 109 110 113 109 113 109 111 109 109 108 106 103 
105 109 113 114 111 112 116 117 110 108 110 112 110 108 111 113 125 193 185 138 110 167 207 164 106 105 98 100 98 101 98 96 94 97 94 95 97 101 107 106 108 109 105 104 104 109 108 108 108 111 108 107 109 108 111 107 109 111 109 111 110 104 106 106 107 100 101 99 111 112 112 110 109 109 113 111 109 107 104 102 
109 113 117 113 114 116 117 121 114 114 112 114 111 111 114 116 136 193 180 130 110 175 203 153 107 106 102 101 100 98 99 98 96 96 96 96 97 97 99 95 98 99 95 95 96 102 105 104 107 109 111 107 110 108 110 112 111 109 107 108 110 108 107 110 110 101 98 99 110 115 114 113 116 113 113 109 111 107 105 99 
110 111 116 115 116 117 116 117 115 114 114 113 110 112 113 117 143 195 174 123 112 183 196 148 106 103 102 104 103 100 99 97 97 98 96 98 98 96 95 96 92 97 89 88 85 89 93 99 105 107 110 104 106 111 106 108 109 109 109 113 108 108 111 111 111 101 95 96 108 109 113 112 114 114 112 109 110 107 104 106 
110 109 116 111 114 118 115 115 116 114 114 115 110 110 111 115 154 192 168 116 114 189 190 133 106 106 100 102 104 100 98 100 97 98 97 96 98 96 94 94 98 99 89 87 86 86 91 100 103 106 106 107 106 103 101 105 110 111 110 111 110 107 110 110 112 104 96 97 106 110 111 112 112 112 112 109 112 109 106 105 
116 109 115 116 116 120 115 113 116 116 113 111 111 107 112 119 163 190 162 116 124 194 185 127 104 104 104 102 100 102 104 100 98 100 99 99 98 98 99 99 96 99 94 89 92 97 100 105 104 106 107 105 102 105 104 111 111 110 108 109 111 108 110 112 113 108 102 95 101 109 112 115 110 111 110 108 111 108 107 108 
127 124 126 120 120 124 118 115 115 115 117 115 114 109 113 122 175 192 160 118 127 194 183 122 104 104 103 105 103 102 104 102 101 101 102 101 97 98 97 99 103 99 98 106 103 105 102 110 108 111 107 108 107 110 107 112 111 115 113 110 111 110 111 113 113 113 106 99 103 111 113 112 112 114 110 112 114 109 105 106 
174 168 161 151 141 135 124 122 119 124 123 119 113 114 116 124 184 188 152 115 139 195 181 119 103 106 101 102 108 106 102 102 103 105 102 101 102 100 99 98 102 102 104 106 105 108 107 108 108 108 109 111 110 110 110 115 109 112 113 110 111 115 111 112 113 114 104 100 104 110 115 115 113 112 112 109 110 110 103 107 
187 194 196 195 192 188 179 169 152 149 136 124 119 116 119 132 198 189 146 118 150 197 172 112 107 107 102 104 104 111 106 104 103 103 103 101 101 101 100 102 101 103 106 111 105 108 106 108 107 110 106 107 109 112 111 113 112 111 111 110 113 112 109 113 115 115 105 98 101 106 114 112 115 114 109 112 112 111 109 104 
181 190 197 198 198 203 204 208 210 176 161 180 166 149 142 157 219 192 139 119 162 193 166 107 103 107 103 102 101 103 104 102 104 101 103 99 103 103 102 101 101 102 103 106 107 104 106 107 109 108 109 108 107 110 108 111 110 112 111 107 110 109 112 111 116 112 103 99 99 108 112 116 115 113 110 108 109 111 108 104 
136 143 152 163 177 189 196 206 205 174 172 207 207 199 199 207 210 184 127 125 177 192 159 112 105 106 104 107 105 106 106 108 106 106 103 105 104 104 104 106 105 107 101 107 107 105 107 109 109 108 109 107 109 112 110 112 110 111 111 110 112 113 112 113 116 118 111 101 101 105 115 114 112 114 116 110 112 112 104 104 
135 133 136 143 149 147 143 154 157 153 157 187 196 197 199 198 191 165 123 126 182 190 154 109 105 107 106 105 106 106 105 106 105 105 107 105 103 106 105 106 103 103 98 109 105 107 105 107 109 108 106 108 107 111 110 113 114 109 112 110 111 110 111 112 115 115 112 101 99 102 116 111 112 115 111 115 111 112 107 110 
174 168 162 152 161 145 139 133 135 141 135 131 136 144 163 171 160 130 117 132 188 187 148 109 105 108 105 108 105 104 104 107 103 107 107 107 104 102 107 106 105 103 103 110 105 105 109 107 109 106 112 108 107 109 111 115 113 113 115 109 112 112 117 115 115 118 118 103 103 99 112 111 113 113 113 116 110 111 107 108 
191 199 203 201 202 192 179 166 158 144 132 128 126 122 123 124 121 115 121 133 196 183 139 109 110 107 106 107 102 107 105 107 104 109 108 106 106 104 104 108 103 103 101 107 106 106 107 110 110 108 111 111 110 112 111 114 116 114 115 112 112 113 116 116 115 118 116 106 99 98 106 115 111 117 112 116 115 112 107 105 
178 182 196 198 205 209 213 216 205 158 169 185 166 148 133 127 121 116 120 147 204 186 136 109 106 109 106 107 105 108 106 106 106 106 106 107 108 103 106 104 105 104 101 107 109 109 108 108 109 110 112 113 111 114 111 114 112 110 112 113 114 115 115 117 117 120 117 109 100 97 107 111 116 115 113 116 114 109 109 108 
138 141 159 171 177 188 199 204 200 173 196 219 216 210 202 190 175 162 153 177 211 186 133 110 110 108 107 106 109 109 109 112 105 107 107 104 109 105 107 104 106 103 104 108 107 110 110 111 110 112 113 111 113 113 112 114 114 114 113 112 112 116 111 117 121 120 118 114 101 98 103 112 113 115 112 112 109 113 109 111 
136 139 147 142 133 135 139 150 160 150 171 192 197 199 198 199 195 189 191 199 194 174 130 109 108 111 107 109 107 107 110 109 105 109 110 108 107 106 106 103 105 105 105 109 110 109 110 112 115 111 113 115 110 115 114 116 113 114 114 115 115 114 116 115 120 119 117 115 105 99 97 110 115 114 114 115 113 109 110 111 
151 155 143 149 132 120 125 126 134 139 134 133 140 146 163 169 175 178 182 184 176 155 121 107 110 110 106 110 105 109 111 109 107 108 112 109 110 106 108 103 108 105 106 109 107 113 111 114 113 114 112 114 112 114 112 113 112 114 117 112 113 116 112 115 115 116 116 116 106 102 100 110 114 113 116 114 112 108 106 110 
166 153 145 149 126 119 122 124 140 138 128 123 121 119 123 126 123 127 133 141 128 115 116 112 110 109 107 111 111 109 113 110 107 112 111 109 108 107 112 104 105 107 109 111 110 114 111 112 114 113 116 115 112 117 113 116 112 113 114 114 113 115 112 115 118 119 120 118 111 105 98 104 113 116 116 112 112 109 111 110 
167 149 143 140 124 121 124 124 142 135 125 128 118 119 119 118 120 117 117 117 110 112 116 109 110 112 108 111 111 109 115 112 111 111 113 110 112 109 110 109 108 106 109 110 110 110 112 114 116 114 114 116 115 117 116 118 115 115 114 115 117 116 113 117 118 121 119 116 117 103 98 105 115 115 115 115 112 111 109 115 
184 147 140 129 120 122 122 124 144 136 124 123 119 118 120 117 118 115 114 115 107 113 115 112 109 114 114 111 110 111 110 111 107 112 113 110 109 107 111 111 109 108 109 113 116 109 115 111 112 113 112 115 115 115 114 117 115 114 114 115 114 113 112 116 117 121 119 120 119 102 97 103 113 116 115 113 113 110 111 117 
178 147 136 129 118 125 121 132 140 132 122 124 127 120 123 120 120 118 112 116 106 111 115 113 113 116 112 112 113 111 112 113 114 111 114 115 112 109 114 110 109 111 111 112 114 116 116 115 114 113 116 114 115 117 113 119 116 114 117 112 114 115 118 114 118 118 122 118 116 111 101 100 113 112 115 114 117 113 113 108 
159 139 138 130 121 130 126 125 124 122 121 121 126 121 120 119 117 115 114 118 107 112 117 111 110 114 112 115 113 114 111 112 115 109 116 113 112 112 114 112 113 110 111 116 113 116 114 116 115 114 116 115 114 115 115 117 115 114 116 115 115 118 114 115 117 117 123 116 119 115 100 101 104 113 116 113 114 114 111 113 
135 132 139 134 125 128 120 121 120 119 120 121 126 123 119 119 122 114 114 116 105 111 119 112 115 114 112 116 114 114 113 115 113 114 116 116 115 113 114 111 110 111 114 117 113 115 115 116 114 116 114 114 116 117 117 117 114 115 115 116 116 116 113 117 117 118 118 116 119 118 106 99 101 112 114 113 112 115 114 115 
126 131 137 129 125 125 121 120 119 121 120 120 125 126 119 122 118 117 116 114 110 114 119 112 112 115 115 117 116 116 114 116 117 115 116 116 115 113 116 114 113 112 116 118 113 115 113 117 117 115 117 117 117 116 111 116 114 117 117 114 116 118 116 116 118 117 121 117 117 117 109 102 102 108 114 115 117 115 112 112 
123 128 133 124 122 123 119 117 126 117 118 120 123 125 126 120 120 116 117 119 107 114 119 111 116 116 115 118 117 116 115 119 117 117 119 115 117 116 116 117 110 109 115 115 116 113 118 116 116 114 116 118 112 113 112 112 110 115 114 115 113 117 115 115 118 119 121 118 117 119 112 106 100 104 115 116 115 113 116 116 
125 128 134 125 123 124 122 127 124 120 121 121 123 125 126 124 123 120 120 117 110 116 122 115 117 118 116 122 115 115 116 118 116 116 117 116 116 117 118 117 113 112 114 116 115 116 117 114 118 116 120 117 111 115 114 115 113 117 113 117 118 118 118 119 121 118 123 120 119 116 118 108 102 101 110 113 115 116 113 118 
128 134 135 125 121 124 123 122 122 124 121 125 124 124 126 122 120 121 124 120 116 119 121 116 115 117 115 117 118 122 119 119 119 117 120 117 118 119 115 114 112 114 116 117 116 120 115 123 119 116 115 119 115 113 116 114 115 113 113 115 117 115 117 118 118 121 121 120 122 118 119 114 103 98 106 113 116 115 115 114 
125 134 134 119 123 124 125 126 126 121 122 121 124 124 126 127 120 117 124 115 116 117 121 117 117 116 120 123 120 120 123 122 119 118 118 117 118 117 120 115 114 113 117 118 119 117 119 119 116 115 117 118 118 117 115 113 112 116 117 115 117 117 115 117 121 122 125 123 121 117 118 119 112 102 101 110 113 114 113 114 
125 131 135 123 121 123 124 123 122 123 123 126 127 122 125 127 121 116 122 112 116 121 122 119 120 120 117 123 119 123 121 121 122 117 122 120 121 118 121 121 116 113 118 117 115 120 117 120 121 115 116 117 115 116 115 114 115 115 117 119 117 115 115 118 124 124 117 120 119 120 122 118 115 106 101 101 108 114 115 116 
130 133 136 127 122 124 124 124 125 125 124 127 126 123 128 128 128 123 127 116 113 121 123 117 119 121 118 121 121 123 123 121 123 123 122 123 121 116 122 118 115 116 120 118 118 119 120 120 120 119 118 116 114 116 117 115 117 115 115 114 117 117 119 116 122 117 121 118 120 120 121 127 118 120 105 103 103 102 109 112 
128 135 135 123 124 125 125 121 123 126 127 126 125 122 128 128 125 126 125 121 115 120 119 116 120 120 117 121 121 123 123 121 124 122 125 122 120 123 120 121 118 115 118 121 119 120 119 120 120 117 122 117 119 117 116 116 117 112 118 117 122 119 121 117 122 119 122 121 120 121 120 119 120 114 116 111 101 102 105 105 
129 133 133 127 124 127 125 123 126 124 124 126 125 124 124 125 125 120 118 120 115 116 122 116 121 122 119 125 123 124 123 127 125 128 124 124 123 120 121 120 118 114 118 118 115 120 119 117 119 118 119 120 115 120 116 116 113 116 117 116 119 119 115 120 122 123 125 120 118 121 120 122 118 121 121 115 110 107 107 111 
134 137 134 124 125 128 122 127 128 127 128 125 124 126 127 127 124 122 121 117 113 118 126 120 119 125 120 123 123 125 127 128 127 125 127 125 122 120 122 120 117 120 122 121 119 117 120 120 121 117 117 120 117 121 119 117 116 117 117 118 119 121 120 122 125 124 123 121 122 118 117 122 117 118 120 118 116 115 109 111 
141 140 138 125 126 127 128 127 126 129 129 128 126 128 126 130 128 126 120 117 117 119 129 118 121 127 118 126 126 131 126 130 128 128 131 125 120 120 121 118 118 116 118 123 119 121 120 118 122 118 124 119 117 120 116 118 118 121 121 118 118 118 117 122 126 123 124 125 120 120 118 121 117 120 122 117 116 121 113 115 
144 141 138 127 128 126 127 127 132 131 129 126 126 125 128 131 128 128 125 122 118 122 127 125 123 126 125 127 126 126 128 133 134 132 131 128 125 123 122 119 122 119 120 122 120 122 122 120 123 120 121 124 119 123 119 119 120 119 123 118 118 116 120 124 122 123 123 123 123 121 122 120 121 119 121 124 122 120 116 117 
152 145 144 130 130 128 129 133 133 129 130 131 130 129 131 129 129 131 129 125 120 125 128 122 125 128 126 131 129 133 132 133 134 130 134 136 136 133 131 129 129 128 124 124 124 120 123 126 122 121 122 123 121 120 121 119 119 119 120 121 124 122 121 125 127 121 123 123 122 125 121 120 123 118 121 123 118 121 118 119 
154 141 138 136 134 130 135 134 137 137 131 134 133 134 135 131 128 132 129 124 123 129 130 126 128 133 129 133 134 135 132 134 133 132 136 137 141 137 136 133 132 130 126 126 123 125 125 125 125 120 122 125 121 124 121 122 118 121 119 120 119 121 123 124 128 123 124 126 124 125 126 120 122 121 125 122 125 121 121 122 
156 145 136 137 132 136 135 136 141 140 135 132 135 133 133 132 131 133 126 126 122 129 132 128 128 134 130 135 133 134 131 135 134 133 138 140 142 139 138 133 135 128 126 126 125 130 126 128 125 125 125 126 123 123 124 124 120 123 122 121 123 122 122 123 122 123 126 125 125 126 125 125 124 122 124 121 126 127 128 118 
157 148 143 136 136 135 137 134 142 137 134 136 135 135 137 135 137 135 131 128 124 127 132 130 126 133 128 138 135 136 134 138 138 137 136 144 143 137 140 133 132 132 126 128 130 129 129 129 127 127 125 125 123 124 123 124 119 124 121 122 124 120 123 122 121 123 124 124 125 123 126 123 123 125 126 124 123 129 128 122 
153 147 141 141 140 137 136 133 138 138 135 137 140 140 138 139 133 133 133 130 127 133 135 133 134 132 133 138 136 136 142 140 139 144 143 146 145 141 139 135 135 129 127 132 128 131 130 125 126 127 128 129 126 125 125 125 122 123 124 121 125 123 123 120 124 127 126 125 125 124 127 124 124 123 124 122 124 123 128 121 
151 146 141 139 141 142 142 136 141 138 135 136 140 139 140 139 137 136 134 134 129 134 139 135 129 135 134 142 139 142 144 141 142 142 145 151 149 143 141 137 134 131 125 131 131 131 128 127 128 127 127 128 125 126 126 125 128 129 123 123 124 124 121 123 127 126 124 122 123 127 124 123 125 125 122 122 125 122 122 130 


