P2
80 60
248
20 17 15 27 37 44 77 90 71 46 57 93 89 47 35 34 34 27 27 23 25 26 24 18 25 24 19 24 25 29 33 31 28 27 26 27 29 23 25 24 27 25 28 23 27 24 27 26 23 17 13 15 13 16 16 14 12 14 14 18 16 17 16 17 17 14 15 16 19 21 17 17 14 15 14 15 14 12 11 7 
19 19 21 27 34 47 86 94 65 43 62 90 82 43 39 35 32 29 28 24 25 24 25 22 22 20 23 25 25 28 32 29 28 28 28 24 26 25 25 25 24 26 24 25 24 25 26 26 24 19 13 15 12 11 13 15 16 13 15 18 18 15 17 19 19 17 11 20 19 20 17 19 15 15 12 17 15 11 6 9 
17 20 18 24 37 47 87 92 62 42 67 92 74 41 38 37 30 25 30 27 27 23 26 25 24 24 27 24 27 31 32 30 26 25 25 27 27 26 27 25 24 24 24 25 24 29 28 24 28 19 17 16 19 18 14 19 18 16 18 21 19 20 22 27 23 13 13 17 24 20 20 22 17 16 15 18 17 13 10 6 
20 19 17 27 36 48 91 92 54 44 76 92 70 38 35 31 29 27 27 27 26 22 24 25 22 28 29 26 30 33 32 27 26 25 27 26 30 25 24 26 25 23 23 26 26 25 26 25 26 24 20 20 24 22 24 24 23 24 24 25 25 23 25 30 27 16 15 17 21 19 20 17 18 16 17 16 16 10 4 9 
19 20 18 29 38 58 106 91 53 45 80 91 60 36 32 25 25 24 27 22 23 19 24 25 25 30 28 28 31 31 35 28 24 26 25 25 30 21 23 22 24 25 24 22 26 27 27 28 26 27 25 24 23 27 28 30 26 26 24 27 24 24 27 26 24 20 17 14 21 20 19 19 16 18 17 16 17 8 6 3 
20 18 18 32 35 70 100 80 50 46 87 90 59 32 35 28 28 24 26 20 25 26 27 26 23 26 30 28 29 33 31 29 27 27 25 26 31 25 23 25 22 19 25 29 30 27 25 26 26 28 26 24 28 24 27 30 25 27 27 27 26 23 21 26 22 18 12 14 22 18 20 17 18 16 19 16 23 10 5 7 
15 22 23 34 36 68 99 81 40 49 84 89 50 28 32 26 27 23 26 25 22 24 23 25 25 31 28 28 28 28 31 27 29 27 23 27 28 27 25 23 24 22 22 24 23 28 28 28 28 30 28 26 24 24 28 28 26 24 27 25 24 23 22 27 22 19 18 15 19 20 19 18 15 18 18 18 22 7 4 1 
13 15 15 26 35 68 97 75 42 47 85 88 44 28 24 21 28 23 25 23 24 23 23 20 23 24 24 22 26 28 31 27 28 25 26 26 26 24 24 22 23 25 24 25 24 28 26 25 26 27 29 23 23 26 22 20 21 21 25 24 24 21 25 28 25 19 16 15 18 23 23 18 18 18 17 18 17 8 7 7 
9 5 9 25 27 68 99 69 37 48 92 79 40 24 24 20 22 21 23 20 21 23 22 23 22 19 21 21 25 29 30 26 24 23 24 26 26 25 26 23 24 24 22 26 24 27 27 29 23 26 21 22 23 25 20 24 23 23 24 25 26 25 30 30 25 26 17 14 20 23 19 22 19 16 16 17 17 12 7 9 
8 3 1 1 10 69 96 61 27 47 96 78 39 22 20 18 19 17 18 18 23 22 21 20 23 22 24 25 23 28 31 26 24 26 27 22 27 25 22 26 24 26 26 28 25 27 25 27 23 26 19 23 18 21 23 22 23 26 24 29 26 25 28 23 24 24 18 16 18 22 19 17 17 19 14 16 12 10 10 3 
12 10 4 0 10 77 96 57 22 52 102 84 23 12 9 11 14 14 14 18 17 18 18 19 20 20 22 21 22 23 29 27 21 24 23 22 23 25 24 24 21 23 24 26 26 26 26 24 22 23 21 20 22 21 22 21 24 25 27 26 25 25 26 24 23 23 17 12 18 23 20 17 19 17 16 15 12 11 6 6 
11 18 18 15 22 86 98 58 21 57 99 75 17 8 6 11 7 9 12 13 14 18 16 16 18 20 22 20 21 22 26 23 24 23 25 23 22 24 23 25 22 27 23 29 24 27 26 24 23 21 23 22 24 26 26 22 27 28 27 28 25 29 23 23 24 26 18 16 16 19 20 20 19 20 18 14 15 11 5 11 
13 15 13 15 16 82 94 53 23 61 102 70 14 8 6 7 10 8 11 7 3 8 4 8 12 13 15 14 17 18 24 18 21 20 21 24 25 22 21 26 22 23 21 24 24 26 25 21 21 22 23 21 22 25 25 25 26 23 26 24 26 26 26 25 23 27 21 14 13 18 20 21 20 18 16 18 20 7 11 12 
12 17 14 17 21 90 84 45 27 68 99 65 19 10 11 9 9 9 8 7 9 3 4 7 5 4 4 7 9 9 9 10 15 18 22 18 22 23 25 23 26 25 22 24 24 24 25 26 26 25 26 25 23 25 27 28 26 26 26 27 28 26 24 27 23 26 22 16 14 21 21 21 22 18 20 21 18 6 9 10 
17 12 14 19 33 90 82 41 24 77 97 60 19 14 13 9 16 7 9 9 3 7 8 7 5 7 7 7 8 7 8 7 5 2 5 13 19 23 24 25 23 20 26 23 27 25 26 27 25 25 26 27 25 26 25 28 26 25 28 25 26 28 27 26 27 28 25 14 13 18 21 22 23 18 19 19 15 7 8 10 
12 14 10 20 36 90 80 33 24 79 96 54 20 12 12 10 12 10 10 8 6 8 8 5 3 7 7 2 5 10 8 7 6 3 5 12 17 22 21 22 19 20 24 26 25 26 27 26 26 25 25 26 29 26 31 27 27 25 28 28 27 29 26 22 28 27 24 17 11 19 23 20 21 21 21 20 20 12 8 9 
15 12 10 16 43 92 77 31 25 85 92 48 20 11 12 11 14 9 9 11 8 9 9 8 6 7 7 4 8 10 11 7 8 14 18 20 23 25 24 21 18 20 23 21 22 23 26 22 25 28 27 24 28 25 25 28 25 24 24 29 28 26 27 23 24 25 23 18 12 15 20 19 21 20 20 18 21 16 11 9 
15 12 13 19 49 94 76 30 28 89 92 46 17 15 13 13 17 12 14 11 10 11 10 10 7 8 6 6 8 9 12 17 22 25 25 22 24 24 26 21 22 24 27 24 26 26 32 31 28 25 26 25 31 29 30 28 29 27 29 28 27 25 28 24 25 26 27 19 15 15 20 23 24 20 22 20 23 16 12 13 
14 9 14 16 49 91 68 26 27 87 82 42 14 13 14 11 10 9 15 11 8 8 10 9 7 7 7 6 8 12 18 23 22 24 22 20 22 21 23 21 25 20 24 23 25 26 23 23 24 25 27 25 26 24 28 27 24 26 23 26 28 25 26 27 26 28 27 23 17 14 17 18 23 19 21 21 21 19 14 13 
16 15 16 24 59 93 72 25 28 89 81 37 16 16 10 10 14 13 14 11 9 11 9 11 9 8 9 8 8 14 22 25 22 23 22 18 24 21 23 23 25 24 24 25 23 25 25 27 26 26 27 28 27 29 28 25 27 25 27 27 27 27 23 27 29 28 26 25 13 13 17 21 23 20 18 20 25 19 12 16 
22 18 17 22 69 97 71 28 33 99 81 40 17 13 13 13 18 16 14 12 13 12 9 11 10 15 9 10 13 14 19 27 24 25 19 21 22 21 22 22 24 23 26 28 24 26 25 26 27 25 25 25 26 27 26 26 25 25 28 30 29 28 27 27 28 30 26 25 18 9 15 22 23 20 21 17 21 22 14 13 
45 33 31 38 86 105 74 26 38 98 80 34 16 12 15 12 15 16 16 11 12 11 10 10 9 6 8 8 13 13 16 21 23 22 20 21 21 21 21 24 25 25 27 23 25 28 24 26 29 24 26 23 26 28 28 28 28 27 24 25 27 26 25 27 27 27 24 26 23 13 11 19 23 18 19 19 24 21 16 18 
100 96 87 92 106 104 60 24 44 99 79 32 15 14 11 13 12 13 15 11 13 10 13 8 10 9 9 10 12 13 14 18 21 21 21 21 21 20 21 21 23 26 27 25 24 27 24 25 24 25 30 26 27 25 27 25 25 27 28 28 26 27 28 28 25 28 25 26 23 16 9 13 20 20 20 23 24 19 16 12 
100 96 97 99 97 90 49 27 54 100 81 27 13 10 12 13 13 13 13 12 14 14 12 12 9 9 11 9 8 11 13 19 21 22 22 22 22 23 23 22 23 22 23 27 25 26 26 24 29 27 28 25 26 27 25 26 23 25 27 27 28 26 28 28 29 28 26 30 26 24 20 9 18 19 18 22 20 21 15 12 
57 60 72 81 76 64 31 24 58 105 82 30 17 14 17 17 17 18 14 14 14 13 14 15 12 7 12 12 14 13 17 18 24 22 23 24 24 22 24 23 28 27 25 24 26 29 29 29 29 29 27 26 29 31 24 26 27 26 28 28 29 30 31 30 29 28 27 28 27 25 23 10 15 14 15 18 20 20 16 12 
29 26 25 34 30 28 24 26 60 110 82 32 18 17 15 16 17 18 16 18 17 16 14 17 12 14 14 14 15 15 16 20 23 29 23 24 26 25 27 26 28 29 26 29 30 28 28 26 29 30 27 29 29 29 31 27 28 29 28 30 27 28 28 30 30 31 28 28 28 28 26 23 14 9 12 14 18 19 15 17 
46 38 30 31 25 23 24 30 72 118 85 29 16 18 18 15 18 14 16 15 16 15 15 16 13 16 12 15 15 14 17 22 24 27 25 23 26 26 26 26 28 27 28 27 26 27 27 27 28 27 32 29 27 32 27 28 25 29 28 27 27 29 29 32 28 30 25 32 26 27 27 25 20 14 12 14 11 12 12 15 
107 100 93 86 72 69 58 57 94 119 85 30 19 18 19 16 19 16 19 15 17 14 13 14 16 15 13 14 13 11 17 22 21 24 25 23 31 28 28 27 29 26 26 28 25 27 29 28 25 28 28 24 29 28 30 27 25 25 27 28 26 29 27 27 27 28 28 27 28 29 24 24 25 24 20 21 20 19 17 13 
104 107 105 103 99 98 93 89 103 103 74 24 16 18 16 17 19 16 18 19 20 19 13 15 13 15 13 14 15 15 15 20 26 25 27 25 28 28 30 28 25 27 27 29 27 28 26 30 28 24 28 31 28 27 28 25 27 27 27 28 25 27 27 28 30 29 29 28 27 27 28 28 24 23 23 25 26 20 19 17 
60 65 71 79 79 88 86 85 91 87 56 18 16 19 18 17 19 20 16 18 17 16 16 21 17 17 16 14 18 14 18 21 25 24 27 27 27 27 31 28 28 28 29 25 27 27 26 29 26 28 28 28 26 26 28 28 26 25 26 27 27 27 26 29 32 30 29 29 30 27 27 28 28 23 23 20 26 26 19 20 
23 27 28 29 28 35 38 40 49 43 28 18 14 18 19 19 21 19 18 18 18 21 20 23 14 16 17 16 17 15 19 23 26 27 25 25 25 29 27 27 25 27 33 26 29 28 29 26 29 28 26 28 27 27 28 29 30 29 29 31 29 32 29 31 27 28 27 32 29 26 27 29 25 23 22 21 26 23 20 20 
25 21 18 23 20 22 22 24 28 27 23 19 17 19 18 21 22 22 20 16 22 21 18 21 17 19 15 18 19 18 19 21 28 27 27 25 28 28 30 28 32 31 29 26 28 27 27 28 29 32 27 29 33 32 32 31 30 29 30 30 31 30 31 31 29 31 32 31 29 29 28 29 26 27 23 23 24 23 20 21 
24 20 18 21 21 19 22 20 22 26 21 15 14 18 22 21 22 19 21 20 21 20 17 18 18 18 18 17 20 18 17 20 25 27 28 26 26 27 28 27 28 28 31 28 28 27 29 27 29 27 32 27 29 28 30 31 28 30 29 30 31 29 30 30 29 32 28 32 28 29 27 26 27 26 24 24 25 25 21 25 
24 20 19 23 21 16 20 20 23 27 23 16 17 19 24 20 24 21 21 20 23 24 21 21 21 17 21 20 22 21 19 25 28 27 26 25 26 29 28 29 32 29 29 32 30 25 27 30 30 27 30 31 30 29 34 33 29 28 27 29 29 32 29 30 31 32 32 33 31 29 29 29 29 28 30 23 27 26 22 19 
22 22 19 17 22 21 17 19 22 25 21 17 19 21 23 21 23 21 24 23 22 20 21 23 21 22 24 19 22 20 20 24 26 26 28 26 31 23 27 27 31 28 26 31 29 30 29 26 28 30 29 29 30 29 29 27 32 29 25 29 32 30 32 30 33 31 31 32 30 33 25 30 27 30 25 24 23 22 22 21 
23 23 24 19 19 24 22 18 23 22 21 18 17 22 22 21 26 24 22 23 23 23 22 25 21 22 22 22 23 19 20 26 26 26 30 30 29 28 29 28 26 32 28 31 33 29 30 29 30 31 28 27 27 29 32 29 30 30 28 31 31 30 31 30 32 31 32 34 29 31 27 28 29 26 28 27 26 28 23 23 
22 22 21 23 22 19 19 18 26 27 21 19 17 21 23 24 21 23 23 25 23 21 25 25 22 24 23 21 23 22 21 27 28 29 27 31 29 30 30 31 28 29 26 28 32 30 31 33 32 31 31 29 31 30 34 29 32 33 28 31 32 30 33 32 31 29 31 33 28 30 31 27 29 28 27 21 25 26 26 28 
20 20 24 23 23 21 21 19 27 26 22 22 20 21 23 24 25 27 25 26 24 26 21 23 22 22 25 24 25 23 22 25 31 29 28 29 29 29 29 28 30 31 32 29 31 30 32 30 31 31 31 29 29 31 31 30 30 31 29 29 30 28 32 29 31 30 30 36 31 30 28 29 27 28 27 23 28 26 31 30 
22 20 21 20 19 21 20 20 29 27 20 20 20 21 26 24 27 25 26 25 23 25 23 25 22 24 25 23 26 23 23 23 25 29 30 29 31 28 27 30 28 32 28 28 30 30 31 31 32 29 30 31 31 31 30 30 31 28 30 27 28 30 29 31 31 31 30 31 30 30 27 26 28 26 26 24 32 36 37 35 
22 20 21 21 21 21 21 18 29 23 22 22 21 22 23 27 25 26 29 25 25 24 26 28 27 26 25 26 25 25 28 25 30 30 27 30 28 34 31 30 28 30 29 32 31 30 32 28 32 29 30 29 31 28 31 32 30 28 26 30 31 32 29 27 30 31 32 33 30 33 30 30 29 27 26 30 51 44 37 38 
23 24 21 21 22 23 20 18 25 24 23 21 21 21 24 26 27 27 27 26 26 28 28 29 25 28 28 26 29 25 26 27 28 31 27 28 30 28 31 29 32 32 31 32 32 31 29 31 31 30 33 27 30 32 30 29 28 29 28 28 32 31 27 29 30 29 31 32 31 32 32 29 28 25 27 26 37 33 36 34 
23 20 19 22 24 20 21 18 25 25 21 22 21 22 24 26 28 28 28 26 28 29 26 31 31 31 28 28 26 25 24 24 29 29 30 30 31 30 32 30 33 30 32 31 30 30 31 30 32 28 30 31 31 31 30 32 31 26 30 27 30 27 27 31 31 33 33 33 32 33 31 30 32 29 30 30 36 33 35 34 
28 22 23 21 25 24 23 24 25 29 21 22 23 30 24 27 30 31 28 28 31 30 31 28 30 33 27 30 28 26 24 27 35 31 28 29 33 33 31 31 32 29 32 30 29 31 31 30 31 28 29 31 27 29 27 27 25 28 29 33 30 26 32 30 29 32 34 31 30 29 31 33 34 30 33 33 37 35 36 29 
21 19 20 22 23 24 25 29 26 28 22 25 25 28 26 31 31 33 32 28 30 30 32 35 28 35 31 30 29 27 29 29 35 34 29 31 35 33 36 31 34 34 31 31 28 30 31 31 31 32 29 31 28 29 29 27 26 29 29 32 29 34 37 33 28 31 34 36 32 35 39 40 39 42 48 56 69 79 95 106 
21 22 22 26 23 22 26 26 28 32 25 28 25 32 28 30 33 34 34 31 33 33 36 33 35 36 34 30 27 30 27 26 32 32 30 34 33 34 34 31 33 31 30 31 30 33 30 29 30 28 29 27 26 31 29 29 28 29 32 33 34 30 35 37 30 30 36 37 34 45 64 80 88 100 112 120 135 150 166 181 
24 20 23 23 26 27 29 24 32 32 24 27 29 31 29 28 32 35 33 34 33 36 34 36 35 36 32 27 29 31 29 27 31 30 31 35 34 35 31 33 35 33 30 30 29 31 32 31 31 30 33 29 30 29 29 26 24 34 33 31 35 35 34 34 34 30 32 36 36 66 103 119 130 131 142 153 165 184 201 224 
23 25 22 25 24 26 28 25 29 32 25 27 26 30 31 30 35 34 35 34 35 38 36 36 36 32 30 28 31 31 30 24 29 32 30 33 34 32 33 36 34 32 32 32 31 31 31 30 28 29 30 29 30 30 28 26 28 28 30 33 33 31 33 38 33 32 35 37 40 71 113 145 153 158 171 183 201 214 231 239 
23 20 19 27 25 28 27 22 23 34 29 25 29 31 29 30 32 30 37 32 36 36 37 35 35 36 39 38 35 35 37 31 28 30 32 36 33 33 34 31 32 34 32 31 31 30 30 29 29 29 31 32 26 30 29 28 25 29 28 29 30 30 30 33 28 31 33 37 36 67 115 148 160 169 177 190 207 221 241 244 
24 23 23 27 22 27 27 24 28 34 25 27 28 31 29 34 34 34 37 34 38 38 37 39 40 43 45 43 38 41 37 33 30 30 33 34 31 34 35 36 35 32 34 34 31 28 31 29 30 28 29 31 32 30 27 32 28 28 27 29 32 33 34 34 30 32 36 35 36 62 113 148 160 172 180 189 205 220 237 246 
24 23 24 27 26 24 28 26 28 34 28 26 29 30 32 31 35 37 35 35 38 39 36 39 35 40 46 41 42 39 41 33 30 32 36 33 34 36 33 35 34 35 32 33 32 32 29 32 29 31 29 29 29 28 31 29 30 28 32 29 32 30 33 34 33 31 34 35 39 59 108 144 161 169 179 187 204 218 237 248 
28 25 27 32 26 29 26 23 30 33 28 27 29 33 32 33 36 37 39 36 38 39 40 39 41 42 46 44 41 43 42 35 34 30 34 36 35 36 38 34 35 35 37 35 33 31 32 30 26 30 29 30 32 30 30 30 28 30 31 30 35 33 33 30 35 34 36 35 36 57 106 139 155 163 169 189 203 215 236 241 
29 30 28 29 27 31 30 27 30 36 31 30 32 31 36 34 35 36 39 39 40 41 41 41 42 43 47 45 42 45 44 36 30 33 35 36 38 38 38 37 35 33 37 35 34 35 31 30 33 30 28 29 31 33 33 33 33 30 31 35 32 31 33 33 33 36 34 36 40 54 101 135 154 162 172 185 200 214 233 239 
29 31 30 30 31 33 30 29 32 37 33 29 29 35 37 34 36 41 42 42 46 46 45 43 45 46 50 47 44 42 45 39 34 33 39 36 37 38 37 38 39 38 35 37 34 34 30 32 33 33 33 32 34 34 38 41 37 33 35 35 33 29 35 33 34 37 36 35 36 52 98 135 152 161 170 183 198 208 229 237 
31 31 29 31 33 33 32 34 35 41 37 33 37 34 36 36 40 40 44 43 50 49 46 46 47 51 53 49 45 45 47 37 32 35 38 41 41 40 39 41 36 37 36 37 35 33 35 33 32 33 33 34 34 37 44 48 39 42 38 33 31 34 37 35 36 36 34 39 36 49 96 129 148 161 166 175 182 183 211 234 
37 33 34 34 34 38 36 33 36 40 41 37 38 41 40 40 45 45 46 47 49 50 50 52 51 54 52 53 49 49 46 45 40 38 40 43 40 40 42 41 38 40 38 37 35 38 35 32 33 32 35 35 38 41 49 63 74 58 44 37 35 35 39 37 38 37 36 42 37 48 95 127 146 156 162 169 171 165 211 234 
38 38 36 38 37 39 41 39 39 42 38 39 40 41 45 45 48 48 50 50 51 58 54 56 57 56 59 57 57 54 54 46 43 39 43 47 44 44 44 41 44 42 40 38 40 39 36 37 36 38 38 37 42 45 77 194 164 101 60 43 39 36 35 35 38 40 40 39 41 48 90 128 153 160 165 175 177 192 224 236 
47 38 40 44 41 44 44 40 43 48 44 41 40 43 45 45 52 52 55 54 59 57 60 61 63 61 60 58 56 56 52 46 42 42 45 46 47 43 47 40 40 41 46 40 39 41 41 38 37 38 38 40 43 46 95 240 179 101 57 45 37 37 38 34 36 43 38 42 45 52 84 124 143 155 166 174 191 205 221 229 
50 43 45 47 47 46 43 45 45 50 46 45 47 48 49 48 56 56 60 62 63 62 65 66 67 68 67 62 59 55 54 48 43 43 45 51 48 47 42 41 43 43 45 39 42 41 40 41 39 39 38 38 40 46 62 94 89 67 50 45 39 35 38 38 39 40 37 40 38 46 82 121 149 160 162 176 192 204 217 235 
57 53 52 53 51 53 53 50 49 54 49 48 52 54 52 54 57 60 60 63 66 69 72 75 77 75 76 71 64 60 56 51 45 45 45 50 50 41 40 45 43 45 46 44 43 46 40 44 44 40 42 42 43 43 48 52 55 50 46 41 41 39 39 37 35 39 40 41 39 45 78 124 147 158 169 178 193 205 217 228 
76 68 64 56 53 53 53 51 51 52 50 50 50 54 54 55 60 61 66 67 73 70 74 77 79 80 80 74 65 61 58 52 47 49 47 49 51 49 58 70 46 48 49 47 46 47 42 45 40 43 44 43 40 44 44 46 47 44 43 38 45 39 39 37 37 41 40 38 39 44 73 129 147 161 169 178 192 204 219 224 


