P2
80 60
220
108 116 115 115 121 114 105 106 102 105 108 106 109 111 113 111 111 118 134 142 179 182 148 123 169 192 154 129 130 134 130 127 124 123 120 119 117 123 120 124 123 123 119 116 118 116 116 116 116 113 133 162 183 203 202 190 186 190 177 146 128 114 105 106 97 103 102 105 105 105 102 99 95 98 98 100 91 89 92 95 
105 109 113 117 119 118 118 125 122 111 108 103 102 103 100 105 111 120 130 146 178 180 139 124 171 191 149 126 129 134 130 127 119 122 122 119 121 119 120 121 121 125 117 117 115 115 115 114 112 113 114 120 129 140 150 136 128 124 120 116 112 112 114 111 99 105 104 108 112 108 107 102 100 97 102 97 97 92 92 92 
105 110 110 119 120 119 119 126 123 118 119 116 116 107 101 106 113 123 134 156 186 181 132 130 181 188 139 129 129 133 129 125 125 121 122 120 118 120 121 120 121 122 119 116 117 113 111 110 112 111 113 113 119 125 126 121 118 117 115 116 115 114 114 113 100 102 100 111 114 112 110 108 107 103 101 100 98 93 93 94 
106 105 110 114 119 117 121 127 122 118 120 118 118 117 114 113 114 124 136 164 183 170 132 139 185 181 133 126 129 124 124 123 121 119 117 119 123 119 117 119 120 121 115 113 113 115 112 111 108 111 112 111 113 113 111 114 114 111 113 112 112 109 111 105 96 100 103 102 106 109 110 107 109 109 103 101 97 96 92 97 
115 117 117 116 118 119 127 122 118 115 120 117 118 119 114 112 115 126 138 172 188 154 130 149 187 178 131 127 125 125 121 121 121 117 119 117 117 115 118 115 122 118 116 111 111 112 112 111 112 113 109 109 115 112 110 109 110 111 112 112 112 107 112 105 96 97 99 105 103 101 103 106 110 113 106 104 99 97 96 97 
120 115 124 129 129 131 132 117 116 113 116 118 115 115 116 112 116 125 140 183 190 144 133 160 189 169 131 128 123 126 122 119 119 118 116 116 114 115 116 120 119 122 114 113 113 115 110 112 113 110 109 110 109 109 107 112 109 109 113 111 110 108 107 102 96 99 100 100 104 99 103 104 102 112 109 107 107 103 96 95 
119 112 116 120 122 131 123 116 118 114 118 117 115 115 115 112 117 129 147 183 184 139 131 165 188 160 129 128 121 124 122 119 116 117 115 113 112 112 117 120 116 119 116 113 112 115 112 112 112 111 108 109 107 110 111 110 107 108 111 111 111 109 103 102 97 97 100 102 100 103 100 102 101 104 104 111 107 105 102 101 
114 112 109 111 114 119 116 114 117 114 115 117 112 117 115 115 122 133 152 188 175 131 134 175 187 156 128 123 120 122 119 118 117 113 117 113 109 113 116 116 119 116 115 114 112 114 113 113 108 110 106 111 109 111 106 108 108 109 108 111 106 107 101 100 97 100 100 102 100 102 99 102 101 101 101 105 109 106 104 103 
115 111 107 109 112 118 114 114 114 116 119 114 111 114 114 114 127 133 159 191 171 128 141 182 184 145 125 125 122 120 121 117 116 114 114 114 113 110 111 114 115 116 112 113 111 110 110 112 107 111 108 110 110 111 108 108 108 109 110 111 106 103 102 98 96 97 97 101 97 99 101 101 98 99 101 100 103 105 103 105 
134 86 90 104 110 114 115 110 117 110 112 112 109 113 116 116 125 137 171 190 161 125 147 187 176 139 119 124 118 118 118 117 118 114 114 114 114 113 116 119 120 116 112 112 109 111 111 110 107 108 109 111 110 110 109 107 110 108 106 111 108 106 98 98 98 99 98 103 101 101 99 100 100 99 101 98 102 104 100 108 
103 26 23 53 93 110 114 108 115 111 113 109 110 110 117 117 125 133 182 197 153 125 157 188 172 127 117 120 117 118 115 113 115 114 114 114 115 114 116 118 119 118 117 110 109 110 105 109 106 106 108 108 107 109 109 107 105 107 109 111 110 107 101 99 97 95 99 102 99 102 99 103 100 101 100 103 105 104 102 104 
77 22 4 2 30 80 108 113 109 110 110 109 110 111 118 122 128 146 191 181 147 126 164 192 162 126 120 119 117 117 119 115 114 114 114 117 118 117 117 119 118 118 114 111 111 110 107 109 107 109 108 109 109 110 108 109 108 107 109 109 108 107 103 102 96 96 99 109 104 109 106 106 106 109 110 106 106 108 105 103 
92 34 8 0 4 36 90 98 101 104 108 109 111 110 114 122 129 145 192 181 136 126 172 188 157 125 118 118 112 115 116 115 114 115 116 117 114 116 115 115 115 118 115 110 113 109 110 103 108 106 105 107 106 107 107 108 110 109 111 109 110 109 110 103 96 96 97 110 107 113 113 110 108 109 112 110 107 111 105 109 
117 81 50 32 18 34 76 98 94 93 94 98 99 105 112 120 123 144 193 176 128 122 179 183 147 121 116 112 113 114 112 112 115 117 118 114 114 114 113 115 116 117 114 108 110 113 108 109 106 105 108 107 108 108 104 105 107 110 111 109 108 109 107 107 99 96 98 108 111 110 111 111 106 107 108 109 107 106 106 106 
109 100 94 91 85 80 89 108 113 106 104 95 91 94 94 96 105 143 197 172 122 126 187 180 137 117 112 111 110 112 114 114 115 113 115 114 112 115 113 113 114 118 116 111 112 112 110 110 104 105 104 110 108 105 108 107 107 108 110 108 109 109 111 109 99 95 99 102 108 108 108 109 108 107 106 107 105 106 106 105 
119 109 105 105 103 105 106 109 119 115 114 113 107 104 101 85 93 154 197 166 103 121 193 177 131 113 111 109 111 110 111 111 112 110 110 112 113 113 112 114 116 117 114 112 109 113 109 107 108 107 107 107 106 111 109 108 108 108 105 106 105 107 106 107 97 98 98 103 110 108 108 108 107 105 107 106 108 105 106 109 
117 107 108 108 106 109 111 115 114 111 119 115 115 114 110 106 112 164 199 160 104 128 207 188 119 105 101 107 104 107 112 107 111 110 112 110 113 110 112 112 114 114 111 112 110 111 108 105 107 108 105 109 108 108 107 106 109 107 106 105 107 108 104 102 99 96 97 103 108 107 108 107 108 107 108 106 108 109 104 107 
100 108 110 111 110 111 111 113 114 112 114 114 110 110 115 114 116 179 200 157 103 141 209 174 105 101 99 100 99 104 104 108 108 108 110 111 109 109 113 110 112 115 112 107 109 106 108 106 107 106 110 105 108 112 107 106 107 106 108 108 107 107 103 104 103 98 98 102 108 108 110 107 107 112 108 110 112 107 107 107 
105 109 108 114 111 110 109 115 111 110 110 112 110 107 110 107 114 186 195 152 107 153 208 172 101 102 96 100 97 96 97 97 100 98 104 104 108 108 109 111 112 112 107 109 106 110 105 108 106 108 103 107 108 108 105 106 108 109 109 108 106 106 104 102 100 97 100 99 109 113 112 109 113 111 111 107 109 108 105 109 
105 110 113 115 113 110 114 113 109 109 112 111 109 107 111 110 126 193 186 135 109 165 208 163 101 106 100 101 98 103 99 97 96 95 93 95 99 103 106 106 110 108 106 105 103 108 106 107 108 110 105 107 108 108 109 106 106 109 107 109 108 105 106 107 105 98 99 97 109 113 112 109 109 114 113 112 108 108 104 107 
109 110 112 115 113 115 114 115 113 113 114 114 107 109 111 111 137 190 179 128 110 177 201 150 104 107 102 101 98 97 97 96 96 95 93 96 94 95 96 95 94 96 92 95 98 105 104 104 106 107 105 108 106 105 108 106 108 105 104 105 109 105 109 108 108 97 98 98 109 112 112 113 113 113 113 108 108 108 105 107 
109 108 117 114 113 115 115 114 112 114 111 113 110 107 109 114 143 193 171 120 113 179 195 142 102 107 104 106 101 99 99 96 97 98 94 94 95 94 93 95 92 95 89 87 87 89 92 98 103 102 106 104 108 108 104 105 106 105 108 108 108 106 110 110 110 102 97 97 104 108 108 110 112 113 111 109 107 108 107 104 
110 109 115 117 116 119 116 114 113 114 112 113 107 109 111 112 149 192 166 111 113 188 193 129 103 110 102 101 103 101 101 97 98 98 96 98 97 95 93 93 98 97 89 86 88 86 90 97 101 104 102 104 102 103 100 104 106 106 109 108 108 107 111 111 111 105 97 97 103 106 110 110 111 110 111 109 112 107 105 104 
114 107 113 120 116 120 114 111 115 111 115 110 112 109 110 117 161 189 161 115 122 190 182 121 100 107 103 102 98 103 100 98 100 97 97 97 98 95 96 97 97 97 93 88 91 98 101 103 105 104 105 106 102 104 103 109 108 107 107 107 108 108 111 112 113 109 99 94 99 108 112 110 110 110 109 108 108 109 106 108 
124 121 124 123 122 120 117 112 113 113 117 116 112 108 110 120 174 191 157 115 129 191 181 116 100 105 103 105 100 103 103 101 98 100 98 97 96 97 96 94 100 100 97 101 102 108 101 106 107 106 106 107 107 108 106 110 108 110 110 108 108 107 111 115 112 113 101 98 99 110 113 108 111 114 109 110 113 108 105 107 
170 161 154 145 138 131 123 120 118 120 125 117 112 112 113 122 181 184 150 111 139 189 178 115 101 108 105 105 106 106 104 102 99 101 100 102 103 100 99 98 99 103 104 104 106 107 107 108 107 105 105 109 108 109 109 110 108 110 110 107 110 111 114 111 112 115 102 100 101 109 112 111 112 114 112 108 110 109 106 105 
186 192 195 193 191 185 171 161 145 143 138 123 114 114 117 131 197 187 146 111 150 190 171 109 101 109 106 107 105 108 105 104 103 101 102 101 100 99 99 101 98 100 104 107 105 110 107 107 104 106 102 106 107 108 109 109 108 108 109 109 108 108 110 113 115 115 103 97 98 108 112 110 113 111 115 110 109 110 108 109 
185 189 198 202 202 204 200 204 203 169 159 176 162 141 137 153 217 187 139 118 162 187 165 103 100 108 103 104 102 104 101 104 105 101 101 101 103 104 102 103 101 102 104 107 106 107 105 109 106 105 104 105 108 111 108 110 109 111 112 106 110 109 109 112 114 112 106 97 98 104 112 115 114 113 110 111 111 112 108 107 
135 141 150 168 179 194 198 207 205 172 174 209 206 200 197 203 207 182 128 124 173 189 158 108 103 108 102 107 104 104 105 106 104 107 102 103 103 103 102 102 102 102 100 107 106 104 105 107 106 105 104 107 109 111 108 107 108 109 111 109 111 112 111 114 112 117 108 100 97 105 109 114 113 113 114 110 111 111 106 104 
132 131 132 146 150 146 142 155 160 152 159 191 198 198 199 198 190 164 122 125 182 185 151 106 104 109 107 106 105 106 108 107 106 103 107 104 104 103 104 105 100 102 98 107 104 105 102 106 105 105 104 104 107 111 107 109 108 109 108 111 110 107 110 110 114 116 110 100 96 101 110 114 111 112 110 112 113 111 105 109 
167 161 157 152 161 144 135 131 131 135 133 131 137 148 165 173 162 130 117 129 187 185 147 105 102 107 105 107 103 103 106 106 106 108 105 105 104 101 106 102 102 99 101 107 105 105 106 107 106 107 109 108 106 108 109 112 111 111 110 110 110 112 116 110 115 116 114 102 96 99 109 113 114 113 115 112 110 112 106 109 
191 198 198 200 200 187 171 161 151 140 131 125 121 121 122 122 120 112 120 135 193 183 139 108 102 110 107 109 102 108 105 106 105 106 107 105 103 102 102 106 103 100 102 108 108 107 106 107 104 107 108 107 109 110 111 110 111 109 110 112 109 111 114 117 116 119 116 107 96 98 109 115 110 117 115 115 112 113 107 106 
177 185 194 199 205 210 209 212 198 153 168 179 159 143 126 124 116 115 121 147 201 181 133 105 102 110 106 107 105 107 106 104 107 104 105 106 106 102 104 102 103 102 101 106 107 109 109 106 105 107 106 113 108 111 110 112 110 109 112 112 112 114 116 116 116 117 116 110 97 94 105 111 112 112 115 113 110 112 109 106 
135 143 160 175 181 193 197 207 200 174 196 220 211 207 194 182 168 159 149 177 210 183 132 108 103 109 109 106 108 109 109 108 107 106 105 104 106 105 103 104 104 101 104 105 106 109 110 110 109 108 111 111 110 110 111 110 111 111 111 111 112 113 112 117 115 118 118 112 99 97 101 114 112 116 116 111 111 113 107 109 
134 139 146 146 135 137 141 150 160 149 175 197 201 200 199 198 194 189 192 199 193 170 128 107 104 112 108 108 107 111 108 107 108 111 110 107 105 107 106 101 104 103 106 109 109 109 111 110 111 108 109 113 108 114 112 111 109 112 110 111 115 116 115 117 115 119 117 117 103 97 96 108 111 116 113 113 114 110 105 109 
144 154 141 156 131 119 123 125 137 137 135 133 140 152 164 172 175 179 184 184 175 152 122 105 106 113 108 109 105 109 109 108 110 106 109 108 108 105 105 103 105 102 108 109 108 112 109 112 113 113 109 113 112 111 110 111 110 110 115 114 112 111 113 113 113 117 116 116 104 98 97 107 113 118 114 113 110 111 109 105 
164 153 142 153 127 119 121 124 139 134 129 122 117 120 121 125 123 130 140 140 132 113 114 107 106 112 110 110 108 108 113 110 109 110 110 108 105 105 107 102 102 104 108 109 110 111 111 109 112 113 112 113 111 115 112 111 111 111 112 113 111 114 114 113 117 119 118 119 110 99 96 102 112 115 114 114 115 111 109 109 
163 146 137 139 122 119 120 123 137 132 122 122 116 116 118 117 116 118 118 112 108 109 115 107 106 111 108 111 109 110 111 109 108 110 110 109 110 107 107 106 106 107 107 113 110 109 110 113 114 113 111 115 113 113 115 113 113 111 111 115 114 113 113 115 114 116 118 117 113 99 97 103 114 115 115 116 110 112 107 110 
182 144 135 132 120 122 121 124 143 135 124 123 118 115 116 118 117 114 115 115 106 107 113 110 106 113 115 112 111 112 108 111 115 113 113 112 108 107 109 107 108 107 108 112 114 111 113 115 110 113 109 115 113 115 113 113 112 113 113 114 112 111 114 116 116 121 118 120 116 102 95 101 114 118 116 117 114 112 110 113 
178 142 134 130 121 124 122 130 139 131 124 122 125 120 118 117 117 114 117 115 106 108 116 109 108 115 116 114 114 112 113 113 113 110 111 114 113 108 110 109 106 108 113 112 112 118 114 115 112 113 114 115 114 116 112 113 112 113 114 113 115 111 116 114 117 120 122 120 118 108 99 99 109 113 112 116 113 114 112 112 
159 139 137 130 124 133 130 124 124 122 126 120 124 119 118 117 116 114 114 117 105 109 116 111 107 115 113 114 115 115 112 113 116 111 113 113 113 110 112 111 111 110 113 113 110 116 115 117 113 113 114 113 114 115 116 115 113 115 115 116 115 113 112 114 116 118 122 118 118 114 99 102 104 118 117 114 112 116 112 113 
134 131 139 132 125 127 120 120 120 120 121 118 125 122 117 117 118 113 117 115 106 109 119 112 111 115 114 120 117 114 114 115 115 114 115 115 114 112 111 110 109 109 114 114 114 117 115 114 112 113 115 114 116 118 116 116 113 115 113 115 115 112 112 116 115 120 118 117 118 117 104 99 100 114 114 116 116 116 108 114 
124 127 133 130 126 125 119 117 117 119 118 120 122 123 119 119 115 115 120 113 106 111 117 110 110 116 116 115 116 114 114 116 120 116 117 116 116 113 112 113 112 110 117 115 112 116 115 114 115 114 113 115 117 115 112 113 112 114 114 112 116 117 113 114 115 117 122 117 117 116 108 99 101 109 115 114 119 115 110 113 
123 126 132 124 125 120 118 117 120 115 117 119 120 123 121 117 119 113 120 117 106 110 118 110 113 119 117 115 114 115 114 116 115 116 117 117 116 113 114 114 111 108 115 114 116 114 114 112 116 114 115 116 113 109 109 110 110 113 109 114 111 113 115 115 115 118 122 120 116 115 115 104 100 104 114 115 115 113 107 109 
122 124 131 126 123 122 116 118 120 118 121 121 120 121 125 118 117 117 122 115 107 114 119 112 114 120 117 119 117 116 115 117 116 117 115 117 113 113 114 114 111 110 114 114 114 116 114 114 115 115 115 113 114 113 111 108 110 114 111 115 116 112 117 118 115 118 120 117 119 119 117 109 98 100 108 112 114 113 110 113 
123 131 132 127 125 127 122 121 121 120 121 120 122 124 125 120 118 118 124 119 112 117 119 111 110 119 117 119 115 122 119 118 119 116 117 118 117 116 112 114 112 111 115 114 117 117 113 118 116 113 115 116 114 114 115 110 112 112 112 114 113 113 117 116 117 119 120 121 119 118 117 112 103 100 103 113 116 117 112 113 
125 132 131 123 124 122 122 122 124 119 124 119 120 124 125 125 118 117 124 114 114 115 123 117 110 118 118 122 117 119 121 119 120 118 117 118 117 117 116 116 112 112 119 118 118 117 118 119 118 115 115 115 115 117 114 111 110 113 115 114 117 115 115 116 121 121 124 124 119 118 118 117 111 103 100 111 113 116 112 113 
123 129 134 125 124 122 123 123 121 123 127 123 120 124 126 127 119 117 127 113 112 119 122 115 115 123 122 122 118 121 124 120 121 119 121 124 122 116 118 117 114 112 119 119 116 121 118 119 118 114 115 116 116 115 115 111 113 113 115 116 117 116 119 118 122 123 122 120 117 120 118 119 118 105 102 103 108 113 112 108 
129 135 132 127 125 125 122 125 122 122 121 122 121 124 126 127 121 123 128 116 111 117 122 116 115 121 121 122 122 123 122 123 122 123 121 126 122 116 121 118 117 114 119 118 118 120 117 118 116 116 116 114 115 116 116 112 114 117 111 114 116 115 118 115 121 121 120 118 120 122 121 119 119 118 106 105 105 102 103 106 
126 132 132 125 124 126 123 121 120 123 124 123 120 123 125 125 123 123 126 119 111 117 120 116 118 120 121 118 122 122 127 122 126 124 123 122 119 121 119 121 117 114 120 120 117 119 116 118 118 116 117 113 115 117 113 117 114 113 114 114 117 116 117 114 119 119 123 123 119 119 121 117 118 118 114 107 102 105 108 107 
129 130 129 125 124 128 127 121 129 124 128 123 123 124 123 123 124 123 121 117 110 117 122 117 116 123 121 124 125 125 125 123 125 126 123 122 122 117 119 118 116 114 119 120 117 120 119 118 118 118 117 115 115 120 115 115 113 114 115 115 118 117 118 121 121 124 125 123 117 120 119 121 118 119 122 117 114 105 109 112 
132 134 133 126 127 129 123 126 126 123 126 125 124 124 122 126 125 121 124 116 114 118 125 119 118 125 125 121 124 126 129 127 128 125 125 125 122 118 118 117 117 118 119 122 121 121 119 120 119 116 118 117 118 120 116 114 115 115 114 116 119 118 118 117 119 125 122 121 123 118 117 121 117 122 119 119 116 116 112 112 
137 139 135 129 128 124 127 124 124 125 126 126 124 128 122 128 127 124 123 115 118 119 126 117 119 128 126 129 124 131 129 130 130 128 129 127 120 120 117 115 117 114 118 124 119 120 119 119 120 117 122 120 117 120 119 116 116 119 118 118 117 118 120 118 121 125 123 123 121 119 118 120 121 121 119 119 117 117 116 114 
137 141 132 127 125 127 127 125 127 128 128 125 123 129 127 130 127 129 126 121 116 121 128 121 120 129 128 127 126 129 127 131 134 132 127 128 125 119 119 117 119 117 118 123 119 126 120 121 121 117 119 121 117 120 118 117 115 119 120 116 116 115 122 121 121 122 123 122 120 121 119 120 120 122 123 124 120 119 118 117 
143 140 136 128 128 127 126 128 130 127 128 128 127 127 126 127 127 129 132 122 117 121 128 121 122 130 129 130 128 133 132 132 136 130 134 136 134 132 128 128 129 126 124 124 125 121 122 123 121 120 121 120 119 119 120 117 118 117 118 115 120 122 119 122 122 124 122 125 121 125 121 120 123 122 119 122 120 120 120 118 
145 139 135 132 133 133 131 128 132 128 130 133 127 128 131 129 128 130 130 122 120 125 131 125 124 134 131 135 133 134 134 132 131 133 134 137 140 135 134 131 128 128 124 123 126 125 125 123 124 119 119 126 118 122 124 118 117 118 121 120 117 120 122 121 126 124 126 125 122 124 125 123 120 122 124 121 125 120 123 121 
148 141 133 139 136 134 132 130 130 139 134 129 129 130 132 131 129 128 130 124 122 128 133 126 123 134 131 135 132 132 135 134 137 134 135 142 140 138 134 131 130 127 124 124 127 129 127 127 124 121 122 123 122 121 123 124 118 122 119 119 120 120 124 120 124 126 126 126 124 126 123 123 122 124 121 122 122 123 122 122 
145 143 139 137 136 135 133 134 134 134 133 136 132 133 136 132 135 133 133 128 120 124 134 125 128 135 130 139 138 135 137 138 138 136 137 141 142 137 136 133 131 128 126 127 128 131 130 128 126 125 121 123 119 124 123 121 118 122 121 119 123 118 121 119 122 124 126 126 124 125 123 123 121 125 123 126 125 123 126 129 
147 143 139 140 139 142 132 135 136 138 135 135 135 137 135 134 133 134 136 129 125 127 137 133 130 134 135 139 135 138 141 139 141 143 143 145 144 138 135 137 132 129 128 132 132 132 129 127 125 123 124 126 124 125 123 123 119 119 121 120 124 121 123 119 121 126 128 128 123 121 126 124 122 127 121 121 125 125 124 127 
149 144 138 139 138 141 138 137 141 136 136 133 136 137 137 136 135 135 137 131 128 129 140 132 123 136 133 141 137 141 145 141 141 142 142 149 149 142 136 136 133 127 123 129 132 131 129 126 128 123 123 128 124 123 123 123 120 123 120 119 123 121 118 119 126 124 124 124 120 123 122 124 123 127 121 120 124 124 124 128 


