P2
80 60
299
37 34 41 56 100 107 65 43 77 101 82 51 41 37 36 31 33 29 28 24 23 20 25 21 25 28 27 29 32 30 31 29 25 30 26 24 24 25 25 24 24 23 27 26 27 25 24 22 14 16 16 19 17 16 15 17 16 17 17 19 21 21 25 26 25 20 24 27 23 26 24 25 23 25 25 22 22 25 23 19 
33 38 47 59 103 100 59 40 79 101 73 47 40 37 34 34 32 32 29 25 23 24 24 25 29 31 30 29 28 33 25 29 27 25 22 23 23 22 24 23 25 25 29 27 24 27 29 23 17 18 17 18 19 17 18 19 23 19 21 23 25 26 26 31 26 19 22 24 21 23 21 24 24 24 24 22 22 24 21 20 
29 36 47 62 105 97 53 43 84 99 70 43 37 34 31 31 30 31 25 23 24 20 21 25 27 28 27 28 29 31 25 26 21 24 26 23 23 20 24 24 21 26 24 29 27 27 27 24 23 22 22 20 23 22 23 25 24 28 28 28 30 29 26 28 25 18 18 22 23 23 22 24 26 22 26 20 24 26 23 20 
31 35 41 71 105 95 52 47 89 93 65 40 30 33 29 31 26 27 26 25 26 25 27 29 30 25 28 30 33 33 25 24 24 24 23 23 20 20 23 25 24 25 26 22 28 27 27 28 27 27 26 26 29 27 27 29 25 27 27 28 26 26 24 23 22 22 21 20 29 25 23 25 26 25 25 22 24 23 23 20 
30 39 45 77 114 91 53 49 90 94 60 39 36 31 28 27 25 25 24 21 25 26 24 26 26 26 24 30 30 31 29 26 29 23 24 20 20 21 19 23 22 25 27 25 24 27 28 28 27 27 24 26 24 27 26 28 26 28 24 23 22 20 23 18 24 21 22 24 23 22 25 27 24 23 27 23 24 19 22 19 
28 38 47 86 107 87 48 52 95 91 56 36 32 32 26 26 30 24 26 26 30 28 26 22 26 30 26 27 29 30 30 26 24 24 23 24 19 22 21 22 20 26 23 24 28 28 27 27 29 27 25 26 25 27 27 24 26 24 20 23 23 22 24 24 27 22 21 21 25 28 27 26 25 27 28 23 22 22 24 19 
37 40 46 83 106 85 47 50 101 88 51 32 30 29 28 27 28 26 27 23 28 27 28 26 24 24 26 29 31 29 25 26 25 23 25 22 20 20 23 21 22 25 20 23 23 25 23 25 25 26 25 23 26 26 22 25 27 23 22 21 24 27 23 24 24 23 21 20 25 26 24 26 28 28 27 25 22 24 26 22 
26 35 43 83 107 79 44 47 97 85 45 28 23 27 22 21 24 27 26 22 22 21 24 22 20 22 20 22 26 27 24 23 24 22 19 23 19 19 20 21 19 25 24 22 25 21 20 20 20 23 21 21 21 21 23 19 20 21 21 23 25 28 24 22 24 19 19 18 22 25 25 23 25 27 26 18 20 24 23 20 
22 29 36 83 110 81 38 52 98 87 44 27 25 26 23 26 27 25 24 21 22 22 23 23 25 23 25 23 25 28 25 23 24 24 23 23 24 22 23 22 23 24 21 23 25 25 22 23 21 19 20 20 25 21 22 24 26 25 26 22 27 27 27 26 25 23 23 22 20 24 28 26 24 26 25 24 20 25 19 21 
5 0 14 87 109 76 31 48 108 90 37 21 17 21 18 18 21 23 21 21 21 22 20 23 21 24 23 22 23 27 26 22 22 21 23 22 22 25 22 21 23 23 23 26 24 26 25 25 22 19 16 20 22 18 23 25 28 26 25 27 27 28 28 24 28 22 23 19 21 23 25 24 24 22 24 22 22 25 24 20 
13 7 20 88 111 72 27 52 113 91 28 13 10 13 13 14 18 16 16 18 17 17 21 17 19 23 19 22 21 25 25 20 24 21 20 19 21 19 20 21 23 24 20 25 22 19 22 24 21 22 22 26 23 24 22 24 25 24 24 24 26 28 24 27 23 28 19 17 23 24 23 25 26 25 23 23 22 27 28 23 
29 24 31 98 118 73 29 56 113 89 25 13 12 10 9 9 11 9 12 12 14 15 17 20 20 21 19 20 21 24 21 22 23 21 22 22 22 24 24 23 24 24 23 24 21 24 21 22 23 26 25 26 27 25 27 25 28 26 28 29 25 31 24 26 27 25 20 20 22 24 27 28 27 24 22 22 22 24 27 21 
21 22 25 96 114 73 32 64 113 88 23 12 12 10 6 9 10 10 8 3 5 5 4 8 9 13 12 9 10 14 15 16 18 17 19 20 20 19 20 20 22 22 18 24 22 21 25 25 23 24 25 28 27 24 27 25 28 26 25 28 24 27 23 26 25 26 22 20 23 23 26 24 28 23 23 23 22 25 23 25 
19 20 32 99 104 62 31 67 115 83 24 15 12 13 9 15 12 7 7 5 4 5 8 4 4 6 4 4 4 7 3 3 8 9 17 19 20 20 21 20 23 24 22 25 24 24 26 23 21 26 27 25 28 25 25 26 27 26 27 26 26 29 28 27 27 24 22 18 20 24 25 29 27 28 27 25 22 22 19 20 
22 25 41 100 98 54 31 75 110 75 26 18 14 18 14 11 12 13 9 7 7 7 8 8 8 9 6 10 10 9 9 1 2 9 18 20 21 19 20 19 20 23 27 26 27 27 27 27 28 27 31 28 29 29 27 27 28 30 25 24 29 27 30 29 26 28 27 21 18 24 28 28 28 29 30 31 25 24 25 18 
26 23 39 100 96 48 28 74 104 73 24 16 14 17 13 10 10 13 8 6 5 4 6 10 5 6 3 5 7 8 7 5 13 14 20 21 21 20 17 20 23 26 22 24 25 23 26 27 26 24 24 24 30 31 26 27 26 28 24 24 29 26 26 23 24 27 25 20 20 22 29 28 27 25 25 26 22 22 25 23 
20 23 43 104 93 51 31 75 103 65 24 19 16 15 11 11 13 14 10 9 9 8 8 8 5 9 5 7 8 10 17 18 20 21 21 20 18 17 24 23 23 26 25 24 26 23 26 25 26 27 26 27 31 29 30 27 29 30 25 23 26 26 26 24 26 29 26 19 20 23 29 26 26 27 24 27 24 25 22 20 
23 23 47 103 94 49 27 80 101 66 20 19 18 19 14 15 11 14 11 10 10 9 10 9 8 8 11 10 15 20 22 25 23 23 24 20 22 22 22 21 25 25 23 28 28 25 28 27 29 25 28 28 29 30 25 28 29 28 28 25 29 28 27 30 27 29 30 24 19 25 27 25 27 25 27 26 29 30 25 23 
24 23 48 105 91 46 29 81 99 63 23 18 16 17 14 14 13 15 9 13 14 8 10 11 7 8 7 8 17 18 20 22 18 20 18 22 15 21 19 19 23 23 22 21 24 27 24 24 25 25 27 28 29 26 23 25 27 27 26 25 29 26 23 30 25 28 26 23 13 22 25 26 24 24 26 26 28 31 28 23 
24 23 54 106 92 46 28 84 101 61 19 18 17 17 13 16 16 13 15 9 9 13 13 10 11 10 9 9 13 22 25 24 21 21 20 19 19 19 22 22 24 24 23 25 25 25 27 24 27 27 30 26 28 28 28 28 29 28 27 27 28 28 27 29 29 29 28 27 17 18 27 27 27 28 26 27 25 29 28 24 
26 25 63 111 91 42 32 88 105 59 23 21 21 20 15 18 16 16 14 12 11 13 12 12 10 11 10 14 16 20 24 20 23 19 21 23 20 20 21 20 22 22 20 26 28 27 26 27 26 25 29 28 28 27 26 30 28 29 27 26 28 31 28 28 28 32 28 28 22 18 26 24 31 28 28 30 28 28 29 26 
32 32 75 120 94 42 34 92 102 56 20 19 19 16 13 14 16 15 15 15 14 16 11 14 10 10 12 14 13 14 22 20 21 17 18 22 20 20 21 19 22 23 23 24 25 25 25 25 29 30 28 26 27 27 27 29 27 28 25 26 27 28 30 26 25 27 28 30 22 20 20 29 26 30 24 25 25 28 29 27 
85 80 109 126 87 35 41 94 101 57 22 21 16 16 13 16 15 16 15 13 13 15 15 10 10 12 10 9 10 17 21 20 21 19 20 19 18 21 19 18 23 22 22 24 26 23 25 24 27 28 28 26 25 25 26 24 27 28 25 26 27 27 29 30 24 28 29 28 23 18 20 27 26 30 26 28 24 28 29 27 
111 109 109 106 74 32 42 93 98 57 22 20 18 12 15 15 16 14 16 13 11 13 14 13 9 10 10 15 12 16 24 20 19 20 22 16 23 22 23 22 22 24 22 24 25 24 26 22 27 26 28 29 27 27 27 26 28 28 26 25 25 25 30 29 25 27 28 30 26 26 18 21 23 26 23 27 23 28 28 24 
102 103 94 87 51 31 41 97 98 56 25 21 19 17 15 18 19 16 13 15 11 13 15 13 13 12 13 13 17 16 22 23 18 20 19 22 21 22 24 25 26 26 26 25 23 25 28 28 30 28 27 28 29 28 23 28 26 31 24 24 26 28 32 29 30 28 32 33 30 27 24 18 20 23 25 30 26 26 25 21 
45 51 48 44 31 28 45 104 101 56 25 23 19 18 16 20 17 18 15 15 13 19 19 18 13 12 12 14 14 16 23 21 21 24 22 23 24 24 25 27 26 24 26 27 24 27 25 27 28 31 29 26 29 29 26 25 29 27 26 28 28 29 32 33 32 30 30 33 30 29 34 26 22 21 20 24 24 24 26 26 
33 29 26 24 29 30 49 111 104 54 23 23 19 21 19 19 16 19 16 17 16 16 14 16 17 14 13 16 14 13 23 22 22 22 22 24 22 24 26 24 27 25 26 25 26 25 23 27 29 30 31 26 28 26 30 27 28 27 27 27 26 28 28 27 28 30 30 29 31 29 30 29 25 26 22 21 23 22 26 24 
79 70 58 55 52 49 68 123 101 51 21 20 23 21 21 16 16 16 18 15 15 18 16 17 15 14 12 16 14 14 20 19 22 21 23 25 21 24 25 26 27 28 27 24 28 26 25 28 28 29 29 27 27 28 29 28 27 30 27 29 27 30 29 30 32 31 33 31 30 28 28 30 28 29 27 27 32 24 28 23 
120 112 107 105 100 99 113 111 93 47 21 22 24 21 20 20 17 19 18 16 15 18 17 17 15 17 12 16 17 16 23 27 22 23 24 27 25 28 27 23 25 28 26 26 23 26 25 25 26 29 26 27 27 29 30 28 25 26 28 27 24 29 27 31 30 31 33 31 28 32 34 30 30 28 29 28 30 26 24 25 
104 100 99 103 96 98 98 97 79 35 21 21 19 20 19 20 21 22 16 19 19 16 19 19 15 17 18 14 16 18 22 24 20 22 27 26 23 25 24 25 28 27 24 27 24 29 25 30 26 27 26 29 29 29 28 26 30 27 29 27 30 30 29 31 31 29 31 31 30 28 31 32 30 30 29 29 29 27 30 25 
45 48 47 52 53 57 62 58 44 23 21 23 25 23 20 24 21 20 20 17 19 18 18 18 17 18 19 18 17 19 23 25 24 25 26 25 24 26 25 27 26 28 26 30 25 26 27 28 27 30 28 29 28 27 27 29 28 30 26 29 29 29 29 30 31 31 28 32 32 29 29 33 31 29 30 29 29 30 26 27 
29 24 25 27 25 28 27 26 26 20 23 22 22 24 22 22 21 21 23 18 20 22 19 22 17 17 20 19 15 18 23 24 24 26 23 28 24 27 28 28 28 29 27 25 27 26 28 29 29 29 31 29 30 27 26 27 27 28 26 26 27 29 34 31 30 35 31 32 30 29 33 33 33 29 29 29 31 29 30 27 
27 27 23 26 26 24 22 23 23 22 23 24 22 25 24 20 24 20 19 19 20 24 25 20 16 20 19 20 19 16 26 27 28 23 25 25 24 25 26 28 27 29 25 29 28 26 28 28 28 32 30 31 31 27 30 31 26 29 30 29 28 29 33 31 30 35 32 34 33 31 31 33 32 34 30 27 31 33 31 33 
27 26 25 27 25 23 25 25 23 26 24 26 25 25 26 25 23 23 23 21 22 21 21 23 24 21 21 21 19 19 26 25 27 28 25 27 29 28 29 25 28 30 28 28 28 28 28 29 31 30 30 33 31 31 29 26 31 30 25 29 29 34 32 33 32 35 33 35 32 32 35 34 33 36 31 28 32 31 34 33 
28 27 27 27 25 25 21 24 24 24 26 26 25 27 25 25 25 26 23 21 23 24 23 23 22 21 23 21 21 21 26 25 27 26 27 26 29 25 29 28 28 29 28 29 29 30 29 31 28 28 29 29 34 29 29 30 30 28 27 31 30 32 29 31 30 30 35 34 31 34 30 34 36 35 31 29 30 34 33 34 
32 25 23 24 23 27 20 23 25 20 24 26 22 24 24 24 25 24 22 20 24 25 24 26 20 23 24 22 19 21 23 26 27 26 26 26 23 27 28 27 27 29 26 28 28 27 29 29 28 28 30 29 28 27 26 29 30 30 27 29 28 30 32 30 31 29 32 35 32 32 31 36 33 34 31 28 29 32 34 33 
33 26 27 28 26 21 22 23 24 26 24 24 27 26 27 24 25 25 24 26 26 23 26 24 25 24 24 25 22 20 26 29 27 27 25 26 24 27 30 30 27 31 27 29 27 28 29 30 28 33 28 32 28 31 31 29 30 26 29 30 28 28 30 32 32 31 33 33 32 33 35 36 36 32 34 32 33 35 35 36 
33 29 25 28 25 25 23 27 28 22 26 29 27 26 25 26 25 24 27 24 25 26 26 25 27 24 25 27 23 22 27 31 27 30 28 25 29 24 26 27 29 32 29 31 28 28 29 32 29 32 33 30 30 30 30 28 29 29 28 30 28 32 30 31 34 34 33 36 34 33 35 34 34 33 34 30 33 34 36 42 
31 33 29 28 26 26 25 27 24 24 21 26 27 28 26 28 29 26 28 25 24 27 27 27 25 26 28 30 24 25 23 30 28 29 31 27 29 28 28 29 29 32 26 28 30 30 32 30 32 31 31 31 28 30 29 30 32 27 28 32 26 29 31 31 35 33 32 37 33 31 32 35 37 36 33 31 33 36 42 51 
31 28 28 27 22 30 26 30 25 24 27 28 30 28 24 31 29 26 29 27 25 27 23 30 29 27 27 30 28 24 26 31 29 27 30 29 32 29 28 28 30 29 30 29 28 34 32 30 31 30 31 31 31 27 32 23 27 28 28 28 29 28 28 29 31 34 33 33 32 36 33 34 33 35 35 34 44 51 63 89 
32 29 31 32 29 29 27 29 27 24 26 31 29 29 30 29 30 30 30 27 31 30 31 33 31 28 29 29 29 27 27 30 30 32 34 27 32 28 28 32 31 35 29 30 30 32 30 35 35 32 32 32 32 31 31 30 32 30 29 29 30 32 34 30 34 33 35 41 32 36 40 36 36 38 38 53 59 60 82 175 
33 31 29 39 28 29 29 31 26 25 28 33 31 31 31 34 33 33 34 30 30 33 34 33 32 32 31 32 32 29 27 35 33 31 32 33 31 29 34 32 35 31 35 29 33 32 34 33 34 32 31 28 34 34 31 29 33 32 31 29 31 35 32 30 33 37 37 37 33 35 39 40 41 42 42 47 55 94 186 241 
33 26 32 35 33 27 27 27 26 27 27 32 29 31 29 32 32 31 34 29 31 32 32 35 35 33 33 32 33 25 27 32 33 32 32 32 35 32 30 32 32 32 29 29 32 34 32 30 33 34 32 29 32 32 29 27 32 28 30 27 32 31 33 35 32 38 34 36 33 36 39 38 44 47 52 72 135 224 264 273 
33 29 26 35 33 31 38 35 28 26 26 29 32 30 29 34 32 35 34 34 36 34 37 37 34 33 32 30 32 27 27 34 31 33 30 32 33 29 31 33 32 33 29 31 31 31 32 31 31 31 31 30 32 26 32 26 28 28 29 31 31 32 32 35 34 35 39 34 37 33 48 63 77 107 147 188 247 277 288 278 
33 29 31 31 30 29 31 29 30 24 32 31 31 31 32 33 38 38 37 37 35 34 37 38 36 32 29 29 31 30 27 29 32 31 31 33 35 31 31 31 31 34 32 29 31 31 30 30 31 30 30 33 32 28 29 26 30 27 28 29 29 33 31 34 35 35 36 39 38 54 104 149 184 227 256 273 292 299 287 276 
32 35 28 34 31 33 31 28 29 25 26 32 32 33 35 36 40 39 39 38 38 36 38 38 33 31 29 31 31 28 24 28 31 35 36 33 32 29 33 33 35 31 30 34 31 30 31 30 29 32 31 34 30 27 27 28 29 30 28 28 31 33 34 35 36 34 40 39 46 91 141 219 257 276 283 285 296 283 257 246 
33 34 27 34 34 32 33 27 33 29 32 32 36 37 34 34 38 44 38 37 40 36 41 39 37 38 33 34 35 35 29 28 33 35 33 34 35 32 34 32 35 35 31 32 29 31 30 29 33 32 32 32 31 30 31 28 29 30 31 30 31 35 35 32 36 39 38 40 58 103 150 230 236 234 219 211 208 195 199 205 
36 32 31 34 34 35 34 32 36 31 31 34 35 35 37 36 39 41 36 44 39 40 44 39 42 46 42 45 39 40 34 27 34 33 36 36 37 31 35 35 37 34 31 34 33 31 34 30 30 33 30 30 32 33 31 31 30 30 31 33 34 34 34 36 37 38 40 46 76 107 129 152 152 153 153 157 166 178 192 220 
34 34 31 39 36 34 34 32 37 31 32 33 40 34 36 41 41 37 38 38 40 45 45 45 49 48 47 43 42 39 34 34 36 37 34 38 37 36 36 33 36 35 34 32 31 34 33 32 27 37 31 35 35 29 29 30 33 31 30 34 37 38 36 37 34 35 35 52 85 114 127 133 136 144 154 165 181 200 221 243 
32 34 32 36 34 31 35 33 36 33 34 35 37 39 36 39 43 38 42 40 42 44 44 44 44 50 46 48 43 43 36 33 36 39 37 40 37 37 35 36 37 36 36 36 35 32 33 32 30 35 31 36 37 31 34 30 36 32 34 32 33 34 37 39 36 37 40 49 82 119 138 149 152 165 170 182 198 212 234 241 
34 35 35 32 35 32 35 34 38 32 36 37 37 38 39 40 44 42 43 41 40 44 45 43 46 49 46 44 44 42 38 33 33 34 38 40 37 34 37 38 37 39 34 37 31 32 34 33 32 31 36 36 33 37 36 30 33 33 32 31 34 34 34 36 34 39 40 48 82 115 139 150 157 163 176 189 201 215 236 243 
36 34 33 35 34 34 36 32 38 35 33 35 36 36 38 40 44 41 44 45 48 50 51 46 50 47 48 48 45 41 37 33 36 38 40 38 38 36 39 37 35 35 35 35 34 32 36 34 34 34 34 34 34 38 42 39 35 36 34 32 35 37 36 36 37 41 41 46 75 111 138 150 155 162 172 184 200 215 231 249 
38 40 34 41 35 36 37 38 41 37 36 41 40 41 43 40 45 47 46 46 48 49 50 51 50 52 50 49 50 45 43 36 34 41 42 39 39 39 39 39 39 39 36 36 35 35 35 37 32 36 35 35 35 40 49 47 45 40 37 37 33 38 37 32 38 39 44 46 67 105 133 150 154 164 169 183 196 211 229 241 
42 40 37 40 40 38 39 36 39 38 39 43 43 41 41 46 44 46 48 50 52 50 53 53 52 55 56 51 47 49 41 36 36 39 43 40 44 36 38 36 38 39 37 37 35 34 35 37 33 38 35 39 39 44 61 78 68 50 40 37 37 37 38 37 39 41 42 43 66 103 129 145 152 160 163 178 194 210 229 241 
43 43 40 42 40 43 43 43 42 39 43 44 43 43 45 44 51 49 52 52 51 54 57 59 56 60 58 57 54 52 48 43 39 43 46 45 43 42 41 39 42 41 36 38 40 38 40 38 35 40 41 40 43 62 179 192 124 67 42 38 37 38 42 39 37 42 39 47 64 98 127 142 149 159 167 174 197 210 231 240 
49 52 41 47 46 47 45 45 47 44 45 48 48 49 49 51 56 58 57 57 58 63 66 64 61 64 63 58 56 57 49 45 44 48 50 49 48 46 45 43 45 43 43 45 42 44 43 43 40 43 43 45 49 73 203 203 123 72 48 43 42 40 40 38 42 43 41 49 61 96 127 145 149 158 160 170 183 197 225 240 
50 50 46 47 52 47 48 48 56 48 47 50 50 53 54 51 59 60 61 65 63 66 69 69 65 69 67 64 63 57 52 44 43 49 46 49 47 44 42 45 44 42 41 44 42 43 43 44 39 43 42 40 48 50 82 90 77 56 46 40 41 40 39 41 42 39 43 45 55 90 119 139 149 157 160 160 151 175 224 231 
59 52 49 52 53 50 51 52 52 53 55 50 54 56 55 61 63 65 66 65 68 68 74 74 77 79 74 70 65 62 54 46 43 48 53 48 49 41 40 46 42 49 44 48 46 45 43 43 40 45 45 46 46 47 50 53 53 48 41 42 39 43 41 40 45 40 47 45 52 87 115 138 146 156 159 154 152 186 221 230 
63 62 60 58 54 59 56 54 54 54 58 54 55 58 54 61 67 65 67 67 73 78 81 84 81 84 76 74 69 61 55 47 46 48 52 51 49 45 62 54 46 49 49 46 46 45 48 48 44 45 46 42 46 46 44 44 43 42 42 38 41 43 39 44 46 40 45 47 51 79 113 139 150 153 155 162 176 198 218 224 
78 76 72 67 70 63 60 60 60 58 59 64 58 61 59 68 65 70 74 77 78 82 82 79 87 89 88 74 69 64 58 53 46 52 54 53 55 67 121 86 55 56 51 52 47 47 49 47 44 48 44 45 43 42 47 43 45 44 41 41 44 40 43 42 45 43 46 47 50 73 110 137 147 154 161 167 182 196 221 224 


