P2
80 60
257
25 19 21 25 36 45 85 90 70 42 59 93 83 44 39 37 32 30 24 29 24 27 22 22 24 26 23 28 31 32 35 29 28 28 26 27 23 23 23 24 23 25 25 23 25 26 26 24 24 19 14 17 16 16 19 19 18 18 16 20 19 19 19 20 20 23 21 23 26 28 23 24 22 24 21 19 19 21 19 15 
21 21 21 25 38 50 92 91 64 36 65 95 78 42 34 37 30 31 28 26 24 25 21 25 23 20 22 27 28 30 33 30 25 29 26 24 25 23 25 26 24 25 24 26 26 24 29 28 26 21 18 20 15 15 16 18 19 17 17 18 19 16 18 23 25 24 24 27 24 25 23 22 25 17 20 23 16 18 14 14 
21 22 18 24 44 50 92 90 61 42 69 92 71 39 36 33 31 28 28 31 27 26 23 24 24 25 28 27 27 30 31 30 24 26 26 28 25 25 27 25 25 26 24 23 24 28 28 26 27 23 19 18 20 18 18 18 21 19 19 23 24 25 28 26 29 21 24 24 24 26 20 24 19 20 22 25 20 20 15 17 
19 20 20 29 42 54 94 91 50 40 74 96 67 37 31 30 28 28 25 26 25 23 23 23 23 26 27 27 31 30 30 31 24 23 23 22 25 21 23 25 24 23 22 23 25 25 25 25 29 25 22 25 26 25 22 27 24 29 28 27 29 26 26 27 25 26 21 23 25 21 21 22 24 23 26 19 18 19 12 11 
17 23 19 30 39 61 105 89 49 39 78 91 59 34 30 32 24 25 25 23 21 18 21 24 25 28 25 27 27 28 31 28 26 24 25 22 22 18 21 21 25 24 24 22 24 26 25 27 26 28 26 27 24 26 26 28 29 30 28 28 27 26 28 25 23 28 25 23 25 24 18 23 22 21 22 21 20 17 15 12 
18 21 21 34 40 71 100 78 46 42 85 88 56 34 27 28 27 23 23 23 24 22 24 26 25 24 27 29 27 28 32 27 23 28 26 25 25 23 19 24 22 21 21 25 25 26 25 26 26 29 28 28 30 28 28 27 29 28 27 29 27 29 20 29 23 24 21 23 25 21 23 24 21 26 23 19 24 23 14 12 
15 24 21 33 40 67 100 79 42 42 86 83 47 29 28 26 25 24 25 25 23 22 22 25 24 27 26 25 28 27 33 28 26 28 26 25 25 25 22 23 24 23 20 23 23 25 26 28 27 30 29 28 28 27 30 28 29 26 27 26 28 28 24 27 23 26 23 25 29 27 22 28 24 24 26 21 24 21 17 13 
12 16 19 30 41 67 98 73 42 44 86 84 40 26 20 25 26 23 23 21 21 20 23 20 22 21 24 23 24 27 31 27 26 24 23 23 21 21 22 24 24 23 23 22 24 25 23 24 23 26 27 26 25 29 26 21 29 27 27 24 25 23 27 27 26 23 23 24 24 26 24 25 25 22 24 20 21 22 17 13 
6 11 14 29 30 68 100 69 36 44 88 79 39 24 20 22 24 23 22 22 22 20 20 21 22 21 24 22 25 25 29 24 26 25 24 23 24 23 24 24 25 27 21 23 23 26 26 25 28 29 22 24 24 25 25 27 25 27 22 27 25 29 28 30 30 30 26 24 27 26 25 30 26 22 25 21 24 25 20 18 
7 6 0 0 16 76 98 64 25 45 96 80 37 23 21 21 22 19 18 22 22 18 21 21 25 22 23 21 25 28 30 24 24 26 23 20 25 22 23 25 26 25 24 23 25 28 29 28 27 31 22 26 24 24 24 25 30 26 26 28 27 31 28 34 33 28 26 25 24 27 26 25 29 24 22 24 25 21 16 16 
14 14 7 4 18 79 100 55 22 47 103 82 22 13 12 18 15 18 15 16 18 18 17 19 20 22 20 24 20 24 25 26 20 25 21 23 21 23 23 23 24 24 22 23 22 26 28 24 23 26 25 24 25 25 22 24 27 29 27 29 29 29 28 30 32 27 27 23 28 28 25 24 29 21 23 22 25 24 21 19 
19 18 15 17 25 89 101 51 22 54 97 75 16 12 8 11 11 11 14 14 13 14 15 18 19 20 21 20 21 22 26 25 23 23 21 23 22 24 20 24 21 25 19 25 26 25 25 23 26 23 24 28 27 29 26 26 31 30 28 35 28 30 28 30 31 27 24 23 25 26 29 27 27 24 28 26 26 26 21 18 
18 18 14 18 20 85 95 52 22 59 101 71 14 10 7 12 12 6 7 7 3 5 7 7 11 13 14 17 18 21 22 22 19 20 20 22 20 21 22 24 21 23 21 24 23 24 27 21 23 24 26 26 26 26 27 27 30 27 28 30 29 29 27 29 26 26 27 24 24 23 26 30 26 23 20 26 27 19 19 18 
14 15 14 18 24 90 88 44 26 63 98 64 17 9 11 14 9 9 8 7 7 3 6 6 4 5 9 11 9 8 12 9 13 19 19 21 21 22 24 24 25 26 20 24 23 22 25 27 25 25 25 28 25 28 28 30 29 24 25 32 32 27 27 28 25 29 24 25 25 30 26 27 28 22 26 25 29 25 18 19 
17 16 15 18 39 90 84 43 23 73 95 58 16 12 11 16 12 10 9 7 5 3 5 4 4 8 8 7 9 7 8 5 4 4 0 11 15 21 21 23 25 23 24 25 26 25 25 26 26 27 29 30 27 31 30 28 31 29 27 31 32 31 26 28 33 32 29 28 26 27 24 29 26 25 26 27 29 25 17 17 
11 15 14 16 38 88 86 32 24 75 93 53 16 12 7 15 13 9 9 5 7 7 5 9 5 6 7 4 5 10 8 8 5 2 4 12 16 19 19 20 23 21 19 24 24 24 26 25 28 28 29 31 28 29 29 27 32 27 31 30 29 30 27 28 37 31 25 25 21 27 26 27 26 24 26 26 24 25 17 22 
12 15 16 17 48 91 81 32 20 78 88 48 17 12 10 15 11 11 8 7 8 7 7 7 5 4 7 2 7 9 9 5 6 14 17 20 23 22 21 18 20 23 20 22 23 24 26 24 28 27 28 26 28 28 28 29 31 27 25 29 29 29 29 27 24 28 27 28 24 27 26 28 30 24 26 25 24 24 19 20 
15 15 14 20 49 97 78 33 27 85 88 47 15 17 14 15 15 10 11 9 10 9 9 12 9 8 10 9 8 11 11 15 21 23 21 21 24 21 22 24 21 25 25 24 24 26 28 28 26 28 28 30 32 31 29 29 31 29 29 30 33 30 28 26 24 30 28 28 24 27 27 29 31 23 28 26 27 26 17 18 
13 15 18 19 51 93 76 29 27 83 82 42 15 11 12 16 12 13 11 9 10 8 8 8 8 7 6 7 8 10 17 20 19 23 22 19 22 19 21 23 25 21 23 23 25 25 25 26 24 28 26 28 28 27 27 30 31 28 27 29 32 28 28 30 25 31 26 28 23 28 22 25 26 25 27 24 28 27 22 20 
16 16 18 22 59 94 78 27 29 84 84 39 14 14 14 15 17 13 12 10 10 8 9 11 9 11 9 6 7 14 20 24 22 22 19 17 23 21 20 23 22 21 21 22 24 24 25 25 25 28 29 28 29 28 28 29 29 28 28 33 30 29 26 27 30 27 27 25 25 24 23 27 29 25 27 23 28 23 21 18 
23 21 19 24 70 100 75 29 32 93 83 39 16 13 12 15 16 13 12 11 10 10 9 10 10 14 8 12 9 14 19 21 22 22 20 20 20 20 20 22 26 23 23 24 25 25 24 27 26 27 27 28 30 27 27 27 31 29 31 30 31 30 27 29 27 27 27 29 27 25 26 27 31 22 25 23 26 25 19 23 
45 37 33 39 87 108 77 27 37 93 83 37 12 16 16 17 14 15 13 11 10 13 10 9 8 8 9 7 11 15 13 20 22 21 19 22 18 19 20 22 24 22 23 23 24 24 25 26 29 27 28 30 29 28 31 26 28 28 29 28 29 29 28 30 30 28 27 28 29 26 20 26 29 23 25 24 27 26 24 24 
104 102 90 95 112 106 64 24 45 93 82 37 15 15 12 17 14 14 14 14 10 9 11 11 11 12 9 11 12 11 13 17 21 21 21 17 20 20 21 20 25 24 24 22 23 25 25 27 25 28 28 31 31 28 29 30 32 28 27 29 31 30 33 29 28 31 28 28 26 26 22 26 31 25 27 25 28 26 20 20 
105 106 104 106 103 92 52 29 51 95 78 33 15 11 14 16 15 13 14 16 13 12 13 13 12 10 12 11 11 14 14 18 17 19 20 18 23 20 22 22 24 23 21 24 25 26 24 24 27 28 30 29 27 27 30 30 28 28 28 31 31 31 33 30 30 28 32 29 30 28 26 27 29 24 26 28 27 29 22 18 
58 64 74 84 83 68 34 27 55 98 84 32 17 14 15 19 16 16 13 13 14 14 14 14 13 11 10 12 12 13 16 18 23 20 21 21 23 20 24 23 26 26 25 24 25 29 27 28 26 32 29 31 32 30 29 28 28 29 30 31 34 33 31 29 32 32 30 29 30 29 28 28 28 23 27 24 28 26 19 22 
28 31 27 31 35 31 26 29 59 105 85 31 16 19 16 18 19 16 14 16 16 13 13 13 18 15 14 13 12 18 16 23 22 26 22 23 24 23 25 25 28 26 22 27 29 27 28 27 29 33 30 31 31 30 30 29 30 29 28 30 31 30 32 35 32 33 32 30 33 31 32 32 26 23 28 26 28 29 20 20 
45 42 32 31 28 27 28 31 70 113 80 32 13 18 15 16 17 16 16 17 13 15 14 15 14 16 12 10 13 14 14 22 23 23 24 21 24 24 26 28 26 28 27 26 26 26 26 26 28 29 28 33 29 33 28 30 29 33 28 30 31 31 29 33 30 31 31 31 29 30 30 30 30 24 25 25 28 24 19 24 
107 105 95 85 74 68 62 58 89 113 82 30 16 16 16 17 18 15 18 14 12 14 13 14 16 14 14 14 12 14 15 21 18 22 22 20 25 24 22 25 23 27 24 25 25 26 27 26 29 28 30 26 30 28 30 31 27 29 27 28 30 32 30 28 32 28 31 28 31 30 28 30 30 26 28 27 28 30 23 24 
103 110 108 108 106 97 96 92 102 103 75 23 17 18 16 22 18 16 17 17 15 14 14 11 15 14 16 16 14 17 15 20 23 23 25 23 25 24 25 27 26 28 25 25 27 27 26 30 27 29 27 33 29 29 28 28 30 30 29 27 31 31 29 29 28 31 32 32 29 31 32 30 36 24 32 29 26 28 23 25 
61 69 75 84 87 93 95 90 94 84 55 22 15 16 14 20 18 20 16 18 17 15 16 15 16 14 16 15 13 14 16 20 22 23 26 26 23 25 31 28 29 28 27 27 30 27 28 26 26 33 29 32 30 29 30 28 32 30 28 30 30 31 29 30 31 33 31 33 32 30 31 35 36 27 34 26 28 32 25 26 
24 27 27 32 32 35 41 41 48 41 25 19 15 17 19 20 18 18 17 17 17 19 16 19 15 18 15 18 15 14 17 20 26 24 22 23 23 25 23 26 25 28 28 24 25 23 28 27 28 30 28 31 29 28 29 30 33 30 28 29 32 33 30 30 29 32 31 30 33 31 31 31 35 31 30 26 29 31 28 24 
23 24 20 24 24 22 24 24 26 23 22 20 16 17 17 23 18 19 18 18 17 18 17 19 18 18 17 16 18 18 16 22 29 24 24 23 25 25 25 24 30 30 27 25 28 26 26 28 32 34 26 32 33 31 31 30 32 32 30 30 31 34 32 33 29 32 34 29 30 32 33 34 32 35 32 28 32 32 28 24 
21 21 20 19 27 21 24 23 25 22 20 20 12 17 22 22 22 19 20 20 17 20 18 19 22 21 20 17 20 16 16 18 26 26 24 25 23 25 27 27 29 30 27 24 26 27 27 27 31 31 30 32 31 27 30 32 30 29 29 31 31 32 32 32 31 34 31 32 32 31 30 32 34 34 32 31 31 31 29 29 
21 23 18 24 22 21 25 19 21 23 21 18 15 19 20 24 22 23 22 19 19 19 22 20 21 19 21 18 19 20 16 24 28 22 24 24 27 27 25 29 31 29 29 28 29 27 28 28 29 32 31 31 30 29 32 30 33 30 27 32 34 34 33 32 34 34 34 34 32 33 33 38 34 35 38 30 34 36 28 29 
19 25 17 20 24 22 21 24 23 21 23 19 17 20 23 23 22 21 20 21 19 21 22 21 21 23 22 20 20 17 19 23 23 22 26 29 30 24 26 28 28 27 26 29 27 30 28 27 30 32 29 30 30 33 31 31 33 33 28 32 34 33 35 32 33 32 35 34 32 35 31 36 33 35 36 32 33 33 31 32 
21 25 23 21 20 23 21 21 23 20 21 21 19 22 19 25 26 22 20 20 20 19 23 22 21 24 21 20 22 22 19 21 25 26 27 28 26 27 24 27 28 28 25 25 29 25 27 29 28 31 31 32 32 34 34 33 30 32 28 34 34 31 33 34 32 33 33 31 32 34 31 33 35 33 42 35 35 36 34 35 
23 25 25 22 24 20 23 22 26 24 21 19 20 22 21 25 24 23 22 23 19 22 21 22 24 21 25 22 23 23 21 26 29 30 26 27 27 29 26 27 32 31 28 26 28 32 30 31 30 33 33 32 32 31 32 32 32 31 31 34 34 34 32 35 32 30 31 35 31 34 34 33 34 34 37 33 36 38 34 39 
20 22 24 23 23 25 24 19 25 21 20 21 21 21 22 23 23 27 24 23 23 23 22 24 25 22 23 21 25 22 20 23 31 30 26 26 27 29 26 29 31 30 30 24 28 29 30 29 31 31 28 33 31 33 30 32 34 30 29 31 31 33 31 33 32 34 33 35 32 34 32 34 35 33 37 34 38 37 38 46 
23 21 22 25 25 24 21 19 31 23 20 20 20 21 24 26 26 24 25 24 22 24 23 24 23 27 24 26 27 25 22 21 27 28 27 26 30 26 27 30 29 33 24 25 29 29 31 32 32 32 33 33 33 33 31 31 35 32 32 29 31 33 30 33 31 32 33 32 33 33 32 38 36 31 36 32 35 44 45 47 
25 23 23 25 28 21 23 19 30 22 19 23 19 19 22 28 27 25 29 22 26 26 24 27 25 26 25 26 25 24 28 23 29 28 26 27 27 30 28 26 31 27 28 29 28 29 32 31 31 33 31 30 32 32 32 35 32 30 31 30 32 33 32 32 31 30 35 34 35 33 32 36 35 33 35 38 53 53 47 49 
23 26 24 24 28 25 23 22 28 21 22 20 21 23 24 29 30 25 27 25 28 27 28 27 29 28 28 26 26 27 26 24 28 28 28 27 28 28 29 28 33 31 31 31 31 30 30 28 32 32 33 30 31 33 30 31 32 31 29 31 35 33 30 34 34 33 33 33 33 33 36 36 36 32 35 40 42 42 40 36 
21 21 22 25 25 23 26 22 26 25 21 22 22 23 23 28 28 28 27 28 27 28 25 28 30 30 27 28 29 27 24 22 29 27 27 29 29 28 29 29 33 32 29 31 32 33 31 27 30 31 29 33 29 33 31 31 33 29 31 30 33 32 31 33 32 33 32 34 38 38 36 37 35 36 35 36 42 38 40 47 
22 23 24 24 26 27 27 20 26 24 23 21 20 24 24 27 29 27 29 26 27 27 30 30 31 29 28 30 26 29 24 26 29 30 28 29 29 29 32 30 31 31 32 30 27 30 28 28 31 27 31 33 31 33 30 27 31 31 29 32 31 32 32 34 33 32 34 33 34 37 36 37 41 36 38 39 41 43 46 118 
22 20 22 24 25 24 27 28 29 25 18 23 23 24 25 28 27 31 28 30 29 30 29 32 29 31 29 29 29 27 28 25 28 32 30 29 35 30 30 30 32 30 29 29 28 28 28 28 29 31 30 30 31 30 28 28 29 28 29 31 32 31 31 32 30 30 36 35 36 37 38 41 45 43 54 61 73 84 104 174 
23 25 20 24 26 27 30 27 28 26 22 26 23 27 25 31 30 31 33 32 34 33 32 34 35 31 28 28 25 28 26 24 28 28 29 30 32 31 30 28 30 29 28 28 31 29 28 27 28 29 30 27 29 29 25 30 29 31 31 30 30 36 32 30 31 31 37 35 37 48 66 81 89 103 119 125 140 151 171 201 
24 23 25 22 30 27 32 27 26 24 22 24 25 29 30 33 29 34 32 34 31 36 34 34 36 34 32 28 28 29 28 24 26 30 29 32 28 33 31 33 31 31 27 28 31 29 31 30 28 32 30 31 30 33 30 28 29 35 28 29 32 36 33 34 36 33 35 38 38 65 105 124 133 138 148 156 167 186 203 223 
20 27 25 25 28 29 31 25 27 25 22 26 27 32 30 34 30 32 35 37 36 35 34 37 37 34 31 29 29 29 28 23 28 31 30 33 32 31 33 31 32 33 28 30 32 30 30 29 31 31 30 31 32 32 28 27 33 29 30 32 33 36 33 34 31 35 36 36 42 75 117 149 157 163 175 186 201 218 232 247 
27 26 23 26 30 28 30 26 25 29 27 24 27 29 29 34 34 33 34 32 35 35 36 36 37 38 39 40 35 36 35 31 25 28 32 32 33 31 31 33 34 32 27 28 29 30 32 30 29 28 33 31 31 31 28 27 32 31 30 29 34 33 32 34 33 33 36 38 40 71 117 152 166 173 183 196 207 224 245 252 
25 24 26 31 28 28 31 26 30 30 25 26 25 30 28 36 35 36 37 36 38 35 37 39 38 41 44 44 41 39 39 31 32 30 33 35 33 31 36 35 31 32 31 30 33 29 32 31 28 31 30 33 32 30 29 30 34 29 30 31 37 38 32 35 32 33 35 37 39 68 114 154 166 174 185 194 213 225 243 256 
27 25 25 26 31 26 34 29 30 31 27 30 29 33 30 35 34 38 33 37 36 39 35 39 36 42 47 41 43 40 39 30 30 31 34 33 34 32 30 33 34 34 33 30 30 31 30 31 28 32 31 31 31 29 30 29 33 31 33 33 34 36 37 36 35 35 34 37 39 64 111 146 163 172 183 192 205 223 240 253 
26 29 27 31 30 30 27 24 32 32 29 29 27 32 30 37 33 36 37 37 40 40 39 42 41 42 45 45 40 43 40 32 32 31 33 35 34 32 37 36 35 35 36 33 32 31 29 32 30 33 29 33 31 32 32 31 33 32 33 32 35 37 36 33 35 37 35 38 40 65 112 143 159 165 177 187 202 219 237 251 
29 32 28 32 30 30 33 27 31 35 31 31 29 31 31 38 37 37 39 37 42 42 41 41 43 43 47 44 43 42 42 37 32 33 36 33 35 35 32 35 35 34 33 34 31 32 29 31 32 32 30 31 33 34 35 36 36 31 34 35 32 35 34 35 33 39 37 38 43 59 108 141 157 166 176 187 199 216 234 249 
30 32 32 29 32 33 31 36 33 33 33 33 31 31 34 39 38 40 41 42 43 45 43 43 48 47 53 46 45 43 43 38 31 34 36 34 35 35 35 38 38 35 33 34 35 34 30 32 33 33 32 33 35 35 38 41 39 38 36 35 35 33 34 35 37 40 36 38 41 63 104 139 154 167 173 186 198 214 230 243 
32 33 33 37 37 37 37 35 35 38 37 32 35 34 35 41 39 38 44 44 46 47 49 47 48 47 53 48 47 43 45 35 33 35 38 39 37 37 36 39 32 37 35 35 33 33 32 34 33 35 37 38 36 40 43 46 44 44 37 38 36 36 36 37 37 37 35 38 40 55 98 135 153 165 171 178 182 187 211 249 
38 36 33 39 40 39 40 34 38 38 37 37 39 40 42 43 44 43 45 46 48 50 50 51 52 53 53 55 50 51 48 43 39 36 38 41 39 41 40 39 39 39 36 38 33 36 35 35 36 38 38 37 39 42 50 67 79 64 47 39 38 37 39 40 39 42 39 43 41 52 95 132 152 160 167 173 174 166 211 257 
39 43 41 43 42 40 46 38 41 41 39 38 38 41 43 49 50 48 49 51 56 55 55 54 57 60 61 60 54 54 53 47 40 41 43 44 41 44 42 41 43 41 40 37 36 37 37 37 38 37 39 39 43 47 82 197 170 102 60 46 44 43 40 39 39 39 41 39 47 52 93 129 156 160 170 180 185 196 227 247 
44 43 42 49 45 45 42 41 44 44 44 43 37 40 45 52 53 52 50 51 59 59 63 62 62 62 60 64 57 54 54 43 40 43 43 46 46 43 42 40 41 43 42 36 37 39 40 39 41 41 37 41 43 48 98 240 180 104 57 45 38 41 40 36 39 42 41 42 45 57 89 128 152 159 171 178 198 206 227 238 
52 48 48 47 49 48 50 47 48 48 47 45 43 47 48 50 57 54 59 64 62 63 65 65 66 67 67 66 61 57 54 48 42 43 45 48 45 43 41 37 39 45 41 38 41 41 41 40 41 40 39 40 44 48 62 94 93 69 51 44 40 39 39 39 40 41 39 43 43 48 86 121 153 164 168 179 196 209 224 234 
57 55 55 57 54 54 56 52 50 51 52 51 51 52 51 56 57 58 62 61 67 70 70 79 74 74 77 73 66 61 55 48 46 48 48 49 46 39 36 43 46 44 42 43 43 45 42 44 46 43 42 45 45 45 49 53 58 53 47 43 44 43 44 40 42 40 42 42 41 49 81 124 151 163 177 180 200 213 223 235 
74 69 66 60 56 57 59 54 55 52 50 51 52 56 53 60 59 62 63 68 72 72 76 79 80 83 79 75 65 62 58 51 47 49 47 49 50 45 56 70 49 48 48 44 46 43 46 45 42 44 45 44 43 42 47 51 51 50 43 41 41 42 43 41 42 43 42 39 42 46 72 130 150 165 177 184 199 212 222 236 


