P2
80 60
301
33 35 40 51 96 105 67 45 79 103 80 49 40 37 38 30 29 28 24 26 24 21 23 21 23 24 26 27 30 31 28 30 26 26 24 24 23 25 26 24 22 22 27 27 27 27 25 20 13 14 16 21 15 17 17 17 18 17 18 21 20 23 25 23 23 20 21 25 21 23 24 24 21 24 26 23 30 27 25 25 
32 37 44 56 102 99 62 43 80 101 73 47 41 38 36 33 26 29 25 25 24 25 25 23 27 30 31 28 28 31 25 26 28 23 22 23 25 22 25 24 25 23 28 25 24 27 28 22 17 18 17 19 18 18 21 18 22 20 22 25 27 26 28 32 25 22 19 24 20 21 20 23 22 27 25 24 25 26 28 22 
30 34 49 60 104 98 56 46 85 99 71 45 38 36 32 32 28 32 26 26 25 20 25 26 26 30 30 30 31 32 27 27 22 22 26 25 26 24 25 27 22 26 24 28 28 29 28 24 25 23 22 24 23 24 24 24 27 29 28 29 31 29 28 30 27 20 17 23 23 22 24 24 25 24 28 22 27 31 29 23 
32 34 42 68 104 94 54 48 90 94 64 41 34 34 33 29 28 30 27 28 27 26 28 31 30 27 29 29 32 32 27 28 25 22 22 23 22 23 25 26 25 26 27 23 26 27 29 30 28 26 30 29 27 28 28 29 27 28 28 30 26 27 29 26 23 21 21 21 27 24 25 26 24 28 30 24 25 26 27 23 
33 41 45 71 110 92 53 51 92 95 58 39 39 33 28 28 26 28 26 23 27 29 26 27 27 28 26 31 29 31 27 25 28 19 24 21 23 23 19 23 22 25 27 25 24 25 28 28 28 28 23 28 25 28 25 28 25 27 26 25 24 25 25 21 22 22 20 22 23 23 28 28 23 24 27 25 26 21 21 20 
32 39 47 85 102 88 51 53 97 96 57 37 32 32 27 26 28 26 28 27 29 29 27 23 24 29 26 26 29 31 28 25 24 24 24 24 21 23 21 24 20 26 25 25 27 27 26 28 29 26 27 30 26 24 26 24 25 23 22 25 23 23 28 24 27 24 21 20 27 27 27 26 26 29 26 27 25 23 21 23 
38 41 47 84 105 85 49 51 101 93 48 33 29 29 29 27 26 28 27 25 29 27 27 25 24 25 26 27 31 32 27 24 27 21 24 25 24 21 23 23 21 24 23 23 21 26 23 26 26 26 25 25 25 27 23 26 26 24 25 24 24 23 24 26 26 24 18 22 24 29 25 26 26 26 27 24 22 27 29 25 
27 38 44 81 103 79 45 49 98 86 46 26 25 27 22 20 23 26 28 24 24 22 23 21 21 24 22 24 25 28 25 23 24 23 21 24 20 20 21 23 19 24 25 23 24 21 22 20 22 24 22 22 22 22 25 20 21 21 23 26 27 29 27 26 25 20 16 17 22 25 26 25 24 24 24 21 22 23 25 23 
22 31 37 84 111 80 40 52 99 85 44 26 27 26 26 26 26 26 23 22 24 22 21 23 25 25 27 24 26 29 26 23 24 22 22 23 24 23 23 22 23 25 24 24 25 24 23 22 22 20 21 22 23 24 24 25 26 26 25 26 29 28 30 28 28 23 19 18 22 22 28 27 25 27 26 24 22 27 25 23 
8 2 16 90 107 77 33 51 107 91 37 22 19 22 20 18 22 22 21 21 23 23 20 22 21 25 24 23 24 29 26 23 23 22 23 23 23 26 24 22 23 25 26 24 23 26 24 26 23 20 19 21 24 18 26 27 30 26 29 29 26 28 26 25 28 23 19 17 22 23 24 28 24 26 26 24 24 28 28 24 
17 8 23 88 109 70 29 53 118 94 26 14 11 14 15 12 18 16 17 17 17 18 21 20 20 23 20 23 21 27 25 22 25 22 20 19 22 21 22 23 24 23 22 25 25 21 21 24 22 21 23 27 25 25 27 26 27 25 25 26 26 27 26 28 25 26 19 16 24 22 22 25 27 27 24 22 24 28 27 24 
28 23 30 96 115 71 30 58 115 90 27 13 11 11 11 9 11 9 12 12 15 16 18 19 20 20 18 21 21 24 19 23 24 21 20 22 21 25 26 24 25 23 24 24 22 25 22 24 25 26 24 27 26 25 28 28 27 28 28 30 26 30 24 26 23 25 20 19 24 22 27 29 27 26 25 24 23 25 25 25 
21 24 27 95 114 73 34 67 116 90 24 11 12 11 7 9 9 8 9 4 3 4 4 7 8 11 10 9 11 14 14 17 20 16 19 20 20 19 21 20 19 22 18 22 20 21 26 26 25 24 26 29 27 26 28 26 28 25 27 27 24 28 24 25 24 26 22 19 22 21 24 26 26 26 24 23 23 27 25 25 
21 20 30 98 99 61 34 70 116 84 23 15 9 14 11 14 9 7 5 5 5 7 6 5 3 5 0 4 5 8 2 3 10 8 16 19 18 20 21 21 21 22 22 22 24 25 27 24 22 26 28 25 27 25 26 28 27 26 30 28 27 28 27 26 25 24 21 19 19 25 26 29 29 28 27 24 26 24 23 21 
22 22 40 96 94 52 32 74 110 77 23 16 14 16 14 11 9 11 9 9 8 6 10 5 7 8 5 7 9 8 8 2 3 8 18 20 19 20 20 20 20 22 25 25 26 26 25 27 29 26 29 28 28 30 29 28 30 31 26 26 29 25 30 27 25 29 25 20 20 24 27 30 25 27 26 29 29 25 22 22 
26 22 39 97 93 48 29 74 104 73 21 16 13 13 14 10 9 9 7 7 5 7 4 8 3 6 4 4 5 9 3 5 14 15 20 21 19 21 17 20 20 24 24 24 26 24 25 25 25 22 24 26 29 27 26 26 26 26 25 28 29 24 27 25 25 30 24 19 21 22 26 27 28 25 25 27 27 26 26 20 
22 23 44 102 89 51 32 75 103 66 22 17 16 12 11 11 9 12 9 10 9 8 9 10 6 7 7 8 5 12 16 19 21 20 22 19 17 18 24 23 22 23 27 25 26 25 28 28 27 26 26 27 29 27 29 26 26 30 25 28 26 27 28 24 26 28 25 19 19 24 28 29 26 27 27 28 29 27 26 24 
23 22 48 103 92 50 29 81 101 64 21 19 19 19 13 14 11 12 11 10 11 10 10 10 9 8 10 10 14 24 21 26 23 20 23 20 21 22 23 22 24 23 24 25 28 25 28 29 28 24 30 29 27 28 25 29 29 27 28 28 30 29 27 28 25 29 27 20 17 22 27 27 27 25 26 28 29 29 24 24 
24 20 48 102 88 45 30 80 99 65 21 21 15 15 15 14 13 14 9 12 13 10 9 9 7 8 7 7 16 20 20 23 18 18 17 20 15 20 19 19 20 20 22 20 26 27 24 24 24 23 27 27 27 27 25 25 27 27 28 27 27 24 24 27 24 28 25 19 14 20 25 23 24 26 24 25 27 29 29 28 
25 22 53 104 90 46 28 85 100 62 19 18 17 19 15 16 14 14 14 10 11 11 12 10 9 9 11 10 13 24 26 24 22 20 19 20 18 21 21 23 22 24 24 26 25 24 27 25 28 27 29 29 26 29 31 28 31 27 27 30 28 28 30 29 28 28 28 27 18 17 26 28 27 28 28 26 28 30 25 23 
26 27 60 106 88 42 33 89 104 58 23 20 19 20 15 19 17 15 13 12 10 11 12 13 9 10 10 12 15 19 24 20 23 18 20 21 20 20 23 20 22 21 22 25 26 29 25 28 26 24 26 28 27 28 27 28 28 28 26 29 28 29 29 29 27 32 26 29 21 17 25 24 30 30 31 32 30 28 28 32 
33 31 72 117 88 42 35 93 103 56 21 18 18 17 14 16 16 15 14 15 14 15 11 12 8 10 13 13 13 15 21 19 21 16 17 23 20 22 21 18 23 20 24 22 24 25 25 24 29 30 27 27 26 29 30 26 27 28 26 26 29 27 31 27 25 27 27 27 22 17 20 29 26 30 28 24 25 28 28 28 
85 79 107 121 84 35 41 94 101 55 23 20 15 16 15 14 13 16 13 14 14 15 11 8 8 9 11 7 10 16 20 19 23 19 21 19 18 21 20 18 20 21 20 22 25 25 25 27 27 28 26 25 25 27 26 25 27 28 25 29 27 28 29 31 23 29 27 27 21 16 21 26 26 30 28 27 25 29 31 27 
114 107 107 101 70 34 42 93 99 55 22 20 20 17 17 14 14 16 16 14 12 14 14 12 10 10 12 14 14 15 23 21 19 19 22 16 21 23 23 23 21 21 23 24 25 25 26 23 27 25 29 29 28 26 29 27 27 28 27 27 27 26 29 29 26 28 27 31 25 26 19 23 24 27 23 28 25 30 29 25 
104 101 94 86 49 32 46 98 100 54 25 21 21 17 19 18 17 18 12 14 12 13 15 14 13 13 14 12 14 16 22 22 20 18 20 22 22 23 24 25 25 26 26 27 24 26 29 27 30 27 28 30 29 29 26 29 27 31 28 29 29 29 32 30 29 28 31 34 29 26 25 19 19 25 25 30 28 28 27 26 
45 54 49 41 26 29 49 108 103 55 23 24 21 22 19 21 18 21 15 15 14 20 17 19 16 13 13 13 18 15 23 22 23 24 23 24 24 25 24 28 26 26 27 26 24 26 24 26 29 32 29 27 28 29 27 28 29 28 30 31 30 29 31 35 29 29 32 32 31 29 33 28 22 18 20 23 24 27 26 25 
34 29 24 23 25 29 54 115 104 55 24 23 20 22 20 21 16 18 17 16 18 17 14 17 18 14 12 14 14 14 24 24 23 22 19 24 24 25 28 25 28 25 28 24 26 26 25 27 29 29 31 29 26 28 31 28 28 27 29 28 26 27 30 28 27 31 28 30 33 28 30 31 24 25 23 23 25 22 26 26 
79 70 59 51 48 49 71 125 102 50 23 23 27 20 21 17 18 18 19 16 16 18 16 18 17 16 14 14 14 16 22 20 23 21 23 25 22 25 25 26 27 26 27 25 26 28 26 27 29 28 28 28 26 29 32 29 28 31 27 30 27 28 29 31 31 31 30 31 29 28 27 30 29 29 28 28 32 28 25 26 
120 112 106 101 98 100 112 114 93 48 22 22 23 21 22 20 15 22 19 17 17 19 17 16 17 17 13 18 18 18 24 28 24 23 24 26 25 29 27 26 25 29 27 28 26 27 26 26 25 28 27 27 27 28 30 29 28 27 29 29 26 30 27 33 28 30 31 32 28 30 32 30 29 28 33 32 31 27 27 29 
103 102 100 99 93 97 98 96 81 34 21 20 21 19 19 17 19 22 18 21 20 16 17 17 16 21 17 14 16 21 21 24 20 21 24 24 24 24 25 26 29 25 24 27 25 30 26 29 25 27 28 31 27 28 30 30 30 26 29 29 29 30 31 31 27 30 27 32 29 28 31 31 30 32 31 31 28 29 28 29 
45 46 49 48 50 58 63 60 43 23 22 23 24 22 20 22 20 21 20 16 19 17 17 17 17 19 19 17 16 21 23 26 25 24 23 24 24 25 26 27 26 27 26 27 27 27 25 27 26 29 27 29 29 27 29 30 29 29 27 30 28 28 31 28 29 31 27 29 31 31 28 30 29 30 31 30 32 32 28 32 
28 25 26 24 25 30 29 28 27 22 23 23 22 25 24 21 25 22 23 20 22 23 20 21 18 18 20 20 15 19 24 25 23 26 24 28 23 29 28 29 28 28 27 23 29 27 27 29 29 28 29 29 30 29 27 30 29 28 28 30 29 29 35 31 30 34 31 32 29 29 30 31 33 30 30 31 32 33 32 34 
28 25 22 26 23 25 23 25 25 23 23 25 24 27 26 19 24 22 20 19 19 25 25 20 17 21 20 21 19 17 25 27 29 24 25 25 24 25 26 29 26 26 25 28 27 27 28 28 28 31 30 30 28 27 32 32 29 29 30 30 28 29 32 32 29 32 30 32 28 31 29 32 31 34 29 27 31 34 33 33 
29 27 23 24 21 25 26 24 23 26 25 26 26 27 26 25 23 23 23 22 22 22 21 24 23 22 23 20 19 18 26 26 28 27 26 26 29 28 29 26 27 29 29 28 29 28 27 30 30 29 30 31 30 29 29 28 31 29 26 31 31 33 32 34 31 34 32 32 31 30 34 35 33 35 34 30 32 33 33 34 
30 28 24 23 22 24 23 27 24 24 27 27 25 27 25 24 24 27 24 21 24 25 23 22 22 20 22 22 21 21 25 25 27 24 25 25 28 24 29 28 28 28 28 29 30 31 28 34 29 28 29 30 30 29 32 30 30 28 28 32 29 33 32 29 31 31 32 33 28 32 29 33 35 35 32 31 33 35 34 38 
34 25 23 23 22 26 23 25 27 21 24 28 24 27 25 25 26 26 23 21 26 26 24 27 21 22 24 22 19 23 23 26 29 26 25 26 23 28 28 28 27 27 25 28 31 28 30 31 30 28 30 30 27 27 28 28 31 32 28 31 29 30 32 29 31 30 33 34 32 32 31 35 33 35 33 31 33 34 34 38 
31 27 25 23 24 23 25 28 25 24 25 27 29 26 28 27 27 27 22 26 25 22 27 25 25 25 26 26 21 21 26 29 28 25 26 27 25 27 31 30 28 30 27 27 28 29 29 31 29 32 29 34 30 33 31 30 30 28 29 32 30 28 31 31 29 31 32 33 31 31 32 34 35 34 34 34 34 37 39 38 
34 30 25 25 24 27 27 28 30 23 24 29 28 27 26 25 26 27 26 25 25 26 27 26 26 24 25 25 24 22 27 30 30 29 28 25 28 25 29 27 28 30 29 30 27 30 29 32 31 30 32 32 30 30 31 29 29 29 29 32 32 31 31 32 35 34 33 35 34 29 35 35 34 35 35 30 34 38 38 46 
34 32 25 24 23 25 27 30 26 25 24 27 27 28 29 28 29 29 27 26 26 27 27 26 27 27 27 30 24 26 23 31 31 27 30 27 27 28 29 31 29 30 27 29 33 31 31 31 32 29 32 33 30 31 30 32 33 29 31 35 27 27 32 34 35 32 32 34 32 34 33 36 37 37 36 34 34 38 43 55 
32 29 27 25 22 29 28 29 27 27 29 27 29 27 26 29 27 27 30 28 28 27 23 28 29 28 28 29 26 23 26 32 31 29 31 29 28 28 29 28 29 31 30 30 28 34 31 28 30 30 33 29 31 28 35 25 30 31 30 28 29 27 28 32 30 34 34 32 30 35 35 36 32 36 37 38 46 53 65 93 
34 29 32 29 25 27 30 29 28 25 27 31 28 29 30 29 30 31 30 27 30 33 31 31 32 27 28 30 28 27 26 31 32 32 32 27 31 28 29 32 29 32 29 29 31 31 30 34 33 29 33 32 32 29 33 30 33 31 32 29 33 31 33 29 34 34 34 39 31 33 37 35 35 38 39 53 63 62 82 166 
32 30 27 34 27 29 31 32 28 26 27 30 30 31 34 33 32 31 33 32 31 33 33 31 32 31 28 32 33 30 26 34 35 31 30 26 28 30 33 32 33 30 35 29 33 30 33 33 33 28 30 28 31 33 33 30 33 33 32 30 32 31 31 32 32 36 36 36 34 34 36 36 36 42 42 47 58 91 183 241 
33 26 31 28 29 27 27 27 30 30 25 29 30 31 29 32 32 31 32 29 31 30 33 34 33 32 28 29 30 27 26 31 34 32 31 27 32 32 30 33 31 31 28 29 30 33 30 29 29 31 31 30 32 31 30 26 31 28 31 29 32 29 32 34 31 38 33 34 33 36 37 38 41 44 55 69 131 218 266 274 
33 29 25 30 31 30 38 33 29 25 25 30 33 31 31 35 32 36 32 33 37 36 37 37 33 33 31 31 32 28 26 33 32 31 31 31 32 31 32 33 32 31 30 30 30 30 30 32 28 29 33 32 32 28 31 29 31 29 29 32 31 31 33 35 35 37 38 35 37 37 46 61 73 108 147 188 247 277 291 286 
30 28 28 28 30 31 32 28 31 26 29 31 30 32 32 31 34 36 35 36 36 37 37 38 35 34 27 28 32 30 26 29 33 32 32 33 33 32 30 33 31 32 30 27 28 30 29 32 33 29 30 32 31 27 29 26 32 28 29 31 30 30 31 35 32 36 35 38 39 54 102 148 184 227 254 271 293 300 284 278 
34 33 28 29 29 32 31 30 29 26 26 33 33 34 34 35 35 35 37 38 40 37 38 37 35 31 29 30 28 27 22 28 33 35 35 33 28 30 34 33 35 30 30 33 30 30 31 33 32 33 33 34 31 32 30 27 31 31 30 31 31 31 35 35 36 34 39 40 46 90 139 221 257 276 282 285 301 286 260 245 
36 33 26 31 30 34 34 29 31 28 32 33 34 37 36 34 35 38 36 39 41 40 41 39 37 36 34 33 33 36 29 29 36 34 33 33 32 33 34 33 35 35 31 29 30 32 33 31 33 32 33 32 33 30 32 29 28 29 34 32 33 30 36 31 36 38 38 41 58 101 150 229 235 233 219 212 210 198 200 206 
35 32 31 30 30 34 37 31 33 28 30 33 33 36 38 38 38 39 36 43 41 40 41 38 41 46 44 44 41 41 35 27 34 34 35 35 36 31 34 35 38 33 33 32 33 30 34 33 33 33 31 32 32 33 31 32 32 30 32 34 34 32 35 37 36 36 40 45 73 104 126 151 150 154 154 158 166 176 191 221 
35 31 29 32 32 32 35 32 31 30 29 34 37 36 36 38 38 38 37 38 40 40 44 42 48 46 45 43 42 40 33 29 34 34 35 38 35 36 35 33 36 36 33 33 31 33 33 34 27 35 31 34 31 29 31 31 32 31 32 35 35 34 35 38 37 36 35 49 82 105 124 134 135 144 154 167 181 199 222 240 
35 30 29 28 30 32 33 37 34 28 33 35 37 40 37 40 40 37 41 38 41 42 40 42 46 47 45 46 45 45 33 31 34 37 36 34 36 37 35 35 36 35 35 34 33 31 31 32 32 35 30 33 34 30 34 30 33 32 36 35 34 32 36 38 36 38 38 49 81 115 138 148 151 164 170 183 198 214 236 245 
35 34 33 28 31 30 34 36 36 32 35 40 40 40 40 39 42 42 41 41 42 42 42 43 45 49 46 46 46 43 37 34 35 32 35 39 35 34 36 37 37 38 32 34 32 31 34 33 32 30 35 36 30 35 38 29 33 33 33 33 34 34 34 37 35 38 39 47 81 115 140 150 158 164 176 188 200 218 238 246 
38 35 35 31 31 33 37 34 38 35 34 37 36 37 38 38 42 41 43 45 50 48 48 47 50 49 48 49 46 43 38 33 37 38 37 37 37 35 38 37 35 34 39 35 33 32 34 32 32 34 35 36 34 38 43 38 36 37 36 35 36 36 39 37 36 41 40 44 76 110 136 149 153 163 172 187 201 216 232 249 
38 39 35 35 34 36 39 41 40 39 36 41 40 41 44 39 45 47 45 45 49 49 49 49 50 52 51 48 50 46 42 36 34 40 41 39 41 39 39 40 38 38 36 35 36 34 34 36 33 36 35 37 35 41 51 46 46 40 41 38 34 37 39 35 39 39 44 44 68 105 131 148 154 164 172 186 197 213 228 241 
40 37 33 36 39 39 44 38 40 39 38 41 44 42 43 46 44 46 47 50 53 51 51 52 53 55 55 49 48 48 39 35 37 37 41 41 42 37 41 38 38 37 37 35 34 35 34 36 33 36 36 41 39 43 61 79 69 50 40 39 38 36 40 38 41 41 42 42 66 100 129 146 150 161 167 180 194 211 228 243 
41 42 40 37 40 43 44 43 44 39 40 44 44 44 49 47 49 50 53 52 52 53 56 56 56 61 57 59 55 51 45 40 39 40 46 44 41 42 39 41 44 40 36 39 40 41 40 36 35 37 40 43 42 63 179 193 124 68 41 39 38 37 42 41 39 42 40 47 61 98 125 143 149 159 167 177 201 208 227 241 
49 47 41 41 42 46 49 48 46 45 44 48 48 50 50 54 54 56 54 56 58 63 62 61 61 62 61 57 56 57 47 44 42 45 48 47 46 45 45 43 45 43 40 42 39 42 39 40 42 41 44 45 46 72 204 204 119 68 47 42 39 37 39 38 42 43 40 47 56 95 125 145 148 158 163 171 186 203 227 241 
50 48 49 42 47 46 52 50 52 46 44 48 51 53 51 52 61 58 59 63 65 66 69 69 66 68 67 60 62 58 51 44 43 46 47 48 45 43 41 46 44 40 40 43 42 42 42 42 39 42 42 41 46 49 83 91 74 54 45 47 40 38 39 42 41 41 44 47 53 86 118 142 147 154 161 163 152 179 225 237 
61 52 48 51 50 48 52 55 55 52 52 52 55 55 54 61 60 63 64 66 69 70 73 74 74 75 74 68 63 60 52 47 44 47 51 46 44 37 41 46 42 45 42 46 45 45 41 43 41 46 45 47 43 49 54 54 53 48 43 45 39 42 43 43 45 43 47 47 50 87 116 138 142 155 155 157 153 190 221 235 
65 63 62 58 53 60 58 57 55 54 57 55 56 60 54 59 63 66 69 69 75 79 83 83 83 83 77 72 64 61 54 48 48 48 52 50 47 45 61 57 45 46 49 46 48 49 47 47 47 45 47 44 44 45 46 46 46 43 46 40 40 44 42 41 43 40 45 49 52 77 112 138 150 157 158 166 180 202 218 232 
81 78 72 67 65 65 62 65 61 61 59 66 60 62 61 68 65 71 77 81 79 84 82 80 88 91 88 73 65 64 57 55 50 52 52 51 53 66 121 87 55 55 51 51 50 49 49 47 45 47 47 47 44 43 46 45 44 42 42 47 45 39 47 40 45 43 46 48 52 72 108 137 148 158 164 173 186 200 222 235 


