P2
80 60
256
16 17 20 24 38 40 83 94 74 47 56 90 82 49 39 35 35 31 28 29 29 31 25 21 25 27 22 27 30 32 36 33 29 29 29 28 28 25 26 25 27 28 28 24 27 24 27 28 25 23 14 17 15 17 15 19 14 19 19 16 14 16 19 19 19 18 19 21 23 24 23 21 18 19 19 16 12 13 14 15 
18 23 27 23 35 43 90 100 73 43 63 93 81 46 38 36 37 33 32 30 30 28 29 25 26 23 25 30 30 31 34 30 30 30 28 28 27 25 27 29 23 26 27 25 26 25 28 30 27 20 15 16 17 15 17 20 18 19 19 19 19 16 17 21 22 22 21 24 28 24 25 24 21 18 18 16 16 14 13 18 
15 22 26 25 39 45 92 97 71 45 67 91 74 43 41 35 31 29 33 32 29 28 24 27 23 27 32 31 28 31 33 34 29 26 27 28 26 30 28 26 24 28 28 25 24 29 30 27 31 22 19 17 22 21 19 21 21 20 21 21 22 25 28 28 26 17 19 19 26 26 24 22 18 20 20 21 19 14 14 14 
20 21 25 32 39 45 97 101 60 46 75 91 71 40 35 33 30 30 30 32 30 27 25 27 26 32 28 27 34 34 35 32 29 27 26 22 28 28 26 25 26 27 27 27 28 29 28 27 28 24 22 23 27 25 27 26 26 26 29 26 25 26 27 30 27 21 18 20 24 24 23 24 19 20 22 20 18 12 11 12 
14 20 23 31 38 54 107 96 58 44 74 89 59 37 35 30 27 27 31 28 27 24 27 26 27 30 26 31 32 32 34 32 25 28 27 26 23 22 24 22 26 28 25 26 27 29 27 28 27 29 27 26 26 28 28 31 28 29 26 30 26 27 29 27 27 20 22 17 26 24 22 21 20 22 20 17 19 9 9 11 
20 16 27 32 40 66 103 86 53 47 83 89 59 36 32 29 27 26 27 26 27 31 30 29 27 30 30 33 30 33 34 31 29 29 28 28 30 26 24 26 22 24 28 28 31 29 26 28 27 30 30 29 31 29 28 32 26 28 29 30 26 28 25 29 25 22 17 19 26 21 24 24 20 23 20 20 17 7 12 13 
17 23 25 33 38 64 104 89 49 50 86 83 51 31 31 28 29 27 30 31 29 26 26 26 24 29 25 28 31 31 34 31 29 27 26 28 28 26 27 23 25 25 27 25 25 26 29 32 25 29 29 30 28 29 28 29 26 23 29 27 26 25 24 32 27 23 18 21 24 21 22 23 19 23 22 18 16 7 11 17 
12 16 22 30 39 65 101 78 45 49 85 88 44 31 28 26 28 24 26 29 29 26 24 21 25 24 25 24 26 29 32 31 28 24 28 26 25 24 27 26 25 27 27 26 24 24 27 25 25 28 29 24 26 28 25 25 25 26 27 25 25 27 29 29 29 22 21 20 24 25 23 21 21 20 21 18 10 10 14 11 
8 8 18 28 32 63 99 74 43 48 90 81 42 28 26 24 24 24 26 24 26 25 23 26 24 25 22 25 29 29 33 29 26 26 27 27 25 24 27 23 28 25 25 28 25 26 26 26 27 26 22 24 25 26 26 29 26 25 25 25 25 27 27 28 28 28 22 19 24 23 23 26 21 21 19 21 13 12 14 8 
7 3 4 0 12 70 100 69 32 50 98 84 41 28 26 22 20 20 21 24 25 23 23 22 25 24 26 27 26 32 31 29 26 27 27 23 29 25 26 25 29 29 27 26 27 28 30 31 25 27 23 26 23 26 26 25 27 26 28 28 29 28 30 26 29 26 22 18 22 23 24 25 23 24 22 20 10 15 14 13 
12 13 8 6 14 74 102 64 27 51 103 88 26 17 15 15 18 18 19 22 19 20 21 22 22 26 23 24 23 26 30 30 23 28 24 23 25 25 27 28 26 26 26 26 26 26 28 25 22 25 24 23 25 24 26 28 29 29 31 30 29 31 28 28 29 27 24 16 22 26 24 25 23 21 20 18 15 11 17 14 
12 19 19 15 23 82 104 62 30 60 101 77 19 12 13 15 12 13 15 17 17 20 20 20 22 23 21 24 24 26 30 27 26 23 24 26 24 25 23 24 23 28 27 27 27 27 29 26 25 23 24 26 27 29 29 27 32 31 29 33 27 31 26 28 28 29 26 19 22 24 25 26 22 25 24 19 16 11 15 12 
12 14 17 13 18 83 99 59 26 63 102 73 14 12 10 8 11 8 11 11 8 11 7 10 12 16 18 18 20 22 28 22 22 22 23 24 23 23 26 27 23 27 25 25 25 25 28 23 23 25 26 26 25 25 27 29 29 26 31 24 28 28 27 26 26 29 26 19 19 20 27 26 21 21 22 20 15 9 13 14 
15 18 16 17 24 87 89 48 34 71 102 66 19 13 14 10 11 10 13 8 12 7 8 10 8 8 9 13 11 12 12 13 15 20 20 20 22 25 27 26 25 27 26 25 25 25 25 28 26 29 27 27 27 31 30 30 29 27 27 30 32 29 28 29 26 30 25 21 20 25 26 26 24 21 20 24 16 9 14 10 
13 12 20 18 37 87 84 45 30 79 100 59 18 15 16 13 18 12 13 12 6 8 10 6 7 8 8 10 9 9 12 10 6 7 6 14 18 23 27 24 26 24 28 25 26 28 26 30 26 29 29 29 28 29 31 32 30 28 29 31 28 29 28 30 31 28 29 20 20 22 24 27 25 25 22 23 19 10 13 13 
7 16 17 16 39 88 84 42 29 84 97 56 17 14 15 16 15 12 13 11 12 11 10 10 9 11 10 5 6 10 12 13 9 4 7 17 17 22 19 24 22 22 25 28 27 26 28 27 28 28 27 29 29 31 31 28 32 27 34 29 30 29 29 28 29 31 30 22 19 21 25 26 23 25 25 24 19 15 11 13 
17 15 17 17 47 90 83 37 30 87 90 51 16 14 15 14 13 13 13 13 13 13 12 10 9 9 11 8 14 12 11 10 9 17 22 22 25 23 26 20 22 25 24 27 25 23 29 26 28 28 28 30 31 29 32 32 30 28 29 30 29 28 30 30 29 29 29 24 17 19 25 26 23 22 23 22 23 15 14 17 
15 13 23 19 51 95 83 38 30 91 90 48 21 20 21 18 18 14 18 15 16 14 13 10 11 10 9 10 11 16 14 18 24 27 26 25 25 25 28 25 25 28 28 27 28 29 33 32 29 27 30 31 32 32 32 32 33 30 33 31 31 28 30 29 29 31 32 26 20 20 26 26 28 26 26 23 24 21 18 15 
13 15 24 17 50 90 76 34 34 92 87 43 15 16 19 17 15 16 17 15 15 12 13 11 13 13 8 10 9 15 21 24 23 25 24 20 23 27 24 25 26 25 27 26 27 27 25 28 26 29 30 29 30 29 31 32 29 27 29 29 33 29 31 30 30 32 33 29 20 15 24 23 26 25 27 24 23 22 22 16 
19 17 20 21 62 94 79 32 35 91 86 40 17 20 16 14 19 18 20 13 11 15 14 15 15 13 13 12 11 14 23 28 24 26 22 20 24 23 24 25 25 26 25 26 26 29 27 28 29 30 32 29 29 32 30 30 29 29 31 34 31 31 27 28 32 29 33 30 18 14 21 25 29 25 25 22 22 21 22 21 
22 20 24 21 72 97 78 34 40 103 85 41 19 18 18 17 19 18 17 17 16 17 14 14 15 17 12 15 13 16 20 27 25 27 23 21 23 24 24 20 27 25 29 30 26 28 30 28 27 26 29 30 27 32 29 31 30 28 32 30 29 32 30 34 30 33 35 30 24 16 20 24 28 24 25 23 19 25 21 21 
42 35 33 36 88 106 80 31 44 101 86 37 17 15 18 17 15 18 17 17 15 16 14 13 13 12 14 13 13 16 17 24 25 23 23 24 22 22 26 27 27 26 28 27 25 30 29 30 30 28 28 27 29 31 32 29 33 30 29 30 32 31 32 32 32 31 32 30 27 18 13 23 25 26 22 22 23 22 21 20 
104 100 94 93 111 105 68 29 51 102 85 36 19 18 17 15 16 17 20 17 17 14 15 13 15 12 13 14 16 16 14 21 23 22 23 21 26 21 23 20 27 25 27 28 26 29 28 26 26 31 29 30 29 29 32 29 32 28 29 29 29 29 31 31 31 31 32 28 30 21 14 19 25 25 24 24 24 20 22 22 
98 102 102 103 100 86 57 32 57 103 81 29 17 13 19 16 16 16 16 17 17 16 16 13 12 11 14 16 11 16 16 22 23 23 23 23 25 24 25 24 25 26 27 29 27 28 28 26 29 28 29 30 29 28 30 30 29 29 32 31 31 29 33 32 35 31 34 33 29 27 17 16 21 23 21 26 22 23 19 20 
59 64 76 83 80 62 39 31 62 109 85 34 20 18 21 20 21 19 19 17 18 16 16 18 16 10 17 13 15 14 22 21 24 25 27 27 25 23 25 25 30 29 29 28 29 31 29 32 28 32 30 32 32 34 29 31 32 30 31 32 30 34 37 34 32 31 32 33 30 28 25 15 19 19 22 21 23 23 22 22 
30 28 32 31 33 29 30 30 66 115 86 39 18 20 20 20 20 19 20 18 17 19 16 18 18 17 18 16 17 18 19 24 24 29 23 26 27 26 30 27 32 28 28 32 33 30 31 31 30 31 32 31 31 32 34 32 31 32 32 33 31 31 32 35 31 34 36 33 33 30 31 25 17 15 19 19 18 20 23 21 
45 42 36 30 29 22 29 36 78 119 87 34 15 21 25 18 20 19 22 20 18 19 18 20 15 19 16 14 15 17 20 27 26 27 26 24 25 28 28 30 30 30 31 31 26 28 28 30 27 27 32 32 30 35 32 31 29 33 35 30 30 32 32 33 31 32 32 33 33 31 30 29 27 21 17 17 13 15 20 19 
103 101 95 84 76 66 67 65 99 121 88 32 19 20 25 19 20 17 21 22 17 21 18 21 17 15 16 18 17 15 17 26 24 26 25 24 29 29 29 31 29 28 30 30 28 30 30 30 27 31 28 29 29 28 33 32 29 30 32 28 30 31 32 31 33 31 35 31 33 29 31 29 28 29 25 26 21 19 20 18 
104 106 111 105 105 97 98 98 110 108 75 25 20 22 23 22 24 19 22 22 22 23 17 16 18 19 18 16 17 17 18 24 26 27 31 26 27 29 28 29 29 33 30 32 30 27 30 32 29 28 31 35 32 31 32 31 29 31 30 30 28 31 31 33 32 34 35 35 34 30 34 30 30 26 29 31 25 20 25 21 
59 68 77 77 83 86 94 95 98 91 58 18 19 20 20 20 21 19 21 24 22 22 20 23 21 18 18 18 15 18 19 22 25 26 29 30 28 28 31 32 32 31 32 30 30 29 31 30 29 31 30 31 28 29 32 32 30 29 32 30 29 31 32 33 33 33 35 35 32 29 32 32 32 28 27 26 24 24 26 24 
24 29 33 29 33 33 41 47 55 48 29 21 19 22 23 20 23 20 20 22 21 21 22 23 18 20 19 20 21 18 20 26 28 29 27 27 27 29 29 30 28 30 33 29 30 32 34 27 29 31 32 31 29 32 32 33 33 33 32 32 33 33 33 38 33 34 35 32 32 29 33 32 29 29 28 24 24 27 24 28 
24 22 21 22 26 18 27 25 30 26 23 20 18 21 24 24 22 24 23 22 25 26 22 22 22 22 19 21 20 21 19 26 28 30 27 25 30 29 30 29 31 33 32 30 32 29 29 30 31 36 29 31 34 33 35 33 31 31 30 31 31 33 35 38 33 34 35 33 33 33 35 34 30 32 29 24 24 25 26 21 
23 20 23 21 23 15 26 25 28 26 21 19 18 21 27 25 27 20 25 24 24 24 22 22 23 22 20 21 22 21 18 24 27 28 30 29 27 30 29 31 32 29 31 29 31 29 28 29 27 32 31 32 33 31 33 32 31 32 32 34 34 32 32 37 31 35 32 34 34 31 32 30 35 30 28 28 24 27 26 24 
20 22 23 25 25 15 25 26 29 29 24 17 18 24 27 23 26 25 23 23 27 25 25 24 24 22 24 21 22 22 24 29 29 30 27 26 28 32 28 32 35 34 34 31 33 29 29 30 28 32 34 32 32 33 36 34 31 31 31 33 32 38 35 40 34 37 39 40 35 29 33 33 34 32 31 27 26 29 28 29 
22 24 23 21 23 18 25 27 32 27 23 20 21 24 27 26 25 26 27 29 24 24 23 24 25 28 26 21 25 22 20 27 27 29 30 29 34 26 28 29 32 33 30 35 30 31 29 31 30 33 31 32 32 33 30 31 35 32 30 33 33 33 36 37 37 36 41 35 34 32 30 34 34 33 30 27 23 26 29 25 
26 27 28 22 20 21 25 22 29 25 22 21 22 27 27 26 26 27 26 27 25 27 26 26 26 26 25 25 24 23 21 29 29 29 30 31 32 29 29 30 28 34 30 31 33 31 32 30 32 33 34 31 32 33 34 33 31 32 30 31 35 35 33 36 36 32 37 34 35 34 34 32 32 33 29 29 26 29 27 31 
23 25 26 24 23 18 25 27 31 29 24 24 20 25 26 26 26 26 27 27 24 26 27 27 27 26 25 24 25 26 24 31 30 34 29 29 33 31 32 33 32 33 32 30 31 33 36 33 31 34 35 32 34 32 34 33 34 33 33 35 35 35 37 35 37 34 35 36 34 32 37 32 31 34 29 28 27 30 30 30 
20 22 29 24 24 19 26 25 32 27 21 21 24 23 28 27 26 30 28 27 28 27 26 26 28 26 27 27 27 25 23 27 32 31 30 29 30 31 28 30 35 34 33 31 32 31 34 33 30 36 32 32 32 33 34 34 34 33 33 31 34 36 35 33 33 35 37 36 35 34 36 33 31 31 30 28 28 27 32 38 
21 18 25 22 26 23 27 28 36 30 21 18 21 22 30 29 29 26 30 32 26 30 28 28 29 29 27 28 30 29 25 26 28 32 30 30 30 31 30 31 31 37 33 30 33 33 33 33 33 34 32 33 33 33 33 34 34 32 33 30 30 36 34 34 34 35 36 33 38 34 37 32 31 35 29 27 33 37 41 45 
21 21 26 27 26 22 28 23 36 27 23 23 22 25 30 29 30 29 31 27 30 29 26 31 30 31 29 31 29 29 31 28 33 34 30 30 31 34 30 32 31 32 35 33 34 33 36 32 31 31 36 33 35 31 34 36 32 32 32 33 32 37 32 32 33 34 35 37 36 34 36 37 32 35 29 34 51 44 42 40 
24 26 28 27 26 20 27 25 33 28 23 21 23 27 29 31 30 33 31 31 32 30 31 30 31 31 33 30 29 27 28 29 29 32 31 30 32 31 33 32 32 38 36 35 36 34 30 31 30 34 36 32 36 33 35 35 33 35 32 33 35 31 32 33 32 35 37 36 35 31 39 36 35 33 30 31 36 37 44 41 
21 21 27 24 27 20 29 23 33 28 21 23 22 26 30 27 29 30 31 29 31 32 31 31 33 35 31 30 31 30 28 29 31 30 30 30 33 32 31 32 34 34 35 34 33 34 33 32 34 31 33 32 33 33 35 36 31 29 35 29 32 34 29 33 32 35 36 36 36 35 36 35 35 33 31 35 33 36 41 43 
21 22 25 22 28 22 29 24 31 29 24 23 23 30 31 31 31 28 30 32 31 34 32 32 32 34 30 33 30 30 26 30 31 33 31 31 32 32 32 32 33 32 34 32 31 32 32 31 30 29 32 33 29 31 30 32 30 35 29 30 32 32 32 33 33 37 35 36 38 34 34 37 39 36 34 36 39 36 44 40 
23 20 25 24 26 22 33 32 35 31 22 24 24 28 30 31 29 33 32 35 31 36 34 37 32 34 31 33 32 31 29 31 34 33 32 34 35 33 36 33 34 35 33 35 32 31 32 30 29 31 32 32 30 33 33 30 31 31 33 30 30 35 33 36 32 34 37 37 36 37 37 43 43 48 52 54 68 81 99 109 
22 23 26 26 27 22 30 32 35 33 26 25 25 34 27 31 33 32 35 36 38 35 35 36 37 35 34 30 28 31 28 28 33 34 33 32 37 36 35 32 34 35 32 35 32 34 32 29 32 31 33 29 29 31 31 33 32 31 35 32 32 36 35 34 33 34 39 39 36 44 67 82 90 103 118 124 135 148 172 191 
19 23 28 24 29 26 32 31 34 32 25 26 28 31 33 30 32 35 36 38 37 38 38 38 40 35 34 33 30 32 29 30 31 34 34 34 34 34 33 35 37 35 29 32 31 32 33 34 31 33 34 31 31 29 32 28 28 35 32 29 32 35 38 34 36 35 38 40 39 65 107 124 135 138 147 156 168 182 203 228 
20 24 26 24 26 21 32 30 32 34 24 26 27 31 32 34 33 34 38 38 38 41 39 38 37 34 34 32 30 33 29 27 28 34 31 35 35 33 34 39 37 36 34 34 33 32 31 32 30 32 34 31 31 32 32 28 32 34 31 33 32 35 35 39 34 36 39 41 42 72 118 149 157 162 174 183 196 214 238 241 
23 25 26 22 28 25 32 31 32 35 26 28 31 33 32 32 35 34 38 38 37 40 39 38 36 39 41 42 37 38 38 37 29 33 34 37 36 33 34 34 35 36 33 35 31 34 32 32 30 32 34 32 31 31 33 31 31 32 33 35 33 32 33 37 33 35 38 41 40 69 122 151 164 170 176 194 206 222 245 247 
23 25 28 26 27 25 34 29 32 34 26 27 29 35 33 35 35 36 40 39 37 40 38 39 41 46 45 45 41 42 39 36 31 33 34 36 34 34 35 36 34 37 34 35 32 30 34 33 33 31 32 34 33 31 28 31 32 30 32 31 33 37 34 36 32 36 37 39 40 67 119 150 164 174 179 191 207 219 241 256 
24 23 29 29 28 26 32 27 34 35 30 27 30 34 33 36 38 38 36 38 41 41 38 40 41 45 48 46 41 42 41 37 32 36 38 36 35 35 34 36 35 38 36 35 30 35 33 33 29 35 32 34 32 30 33 31 32 32 33 33 33 33 34 34 34 36 39 36 43 61 111 147 164 173 179 194 201 216 245 250 
27 28 32 33 29 25 31 30 35 37 31 28 29 38 33 38 35 39 40 40 42 43 41 41 44 47 49 48 44 46 42 38 33 33 38 39 37 38 41 37 37 38 41 36 34 33 32 33 27 33 33 31 33 32 32 35 33 32 35 32 34 36 36 36 39 38 40 37 42 60 110 141 160 169 175 189 197 215 236 248 
28 29 36 31 29 27 34 34 38 40 37 32 33 33 40 41 36 40 44 42 44 47 45 45 46 48 49 48 45 47 47 41 32 34 39 38 41 37 38 41 37 37 38 37 34 38 34 34 34 33 32 33 33 34 37 38 36 36 37 35 34 36 38 39 41 37 41 39 47 58 102 136 157 163 175 186 197 215 236 250 
30 32 35 31 34 27 40 39 40 38 32 32 33 37 40 40 38 44 42 45 47 49 47 44 48 48 52 50 46 43 46 41 34 36 40 39 39 38 37 39 42 41 37 36 37 35 34 33 35 36 37 37 37 36 41 43 40 37 37 35 37 33 37 38 40 39 39 40 42 54 104 140 157 166 175 183 194 209 232 243 
31 32 37 29 37 28 40 38 43 42 36 33 36 36 43 40 43 42 46 48 50 53 51 48 51 52 54 51 47 47 51 41 38 37 39 42 42 41 38 43 39 40 38 38 36 36 37 37 34 34 36 37 37 38 48 49 45 43 42 34 33 37 38 36 38 36 37 41 41 50 100 134 153 165 170 176 181 184 217 238 
33 33 39 36 37 36 44 42 44 42 36 38 40 42 43 43 45 49 50 52 54 53 54 56 54 60 52 57 47 50 50 49 39 41 40 46 43 43 41 45 41 42 42 39 38 38 39 35 38 36 38 37 40 44 53 67 78 64 52 38 38 40 39 38 39 39 39 44 41 52 99 133 151 163 166 171 172 162 215 246 
38 39 40 40 38 34 49 45 42 47 42 39 38 43 49 51 50 50 53 55 57 59 58 58 58 63 60 63 58 56 56 50 41 44 44 48 45 46 44 45 47 45 43 40 38 42 37 37 39 41 42 41 43 45 81 196 171 104 63 45 43 40 40 39 41 42 45 44 49 54 94 131 157 163 168 179 178 192 228 244 
43 42 46 45 45 37 48 47 48 47 45 39 44 47 47 50 56 54 58 57 64 63 65 63 63 64 63 62 59 59 57 51 41 45 48 50 49 45 47 42 42 43 48 41 41 41 40 41 41 40 41 42 45 50 95 243 184 105 60 45 42 42 42 38 39 44 45 46 50 53 92 129 149 159 169 177 189 204 223 238 
47 45 51 46 46 42 48 53 52 49 47 45 45 51 53 51 58 57 58 64 67 67 69 67 71 73 71 68 63 58 57 52 46 44 49 51 49 47 41 42 42 45 46 43 45 43 41 40 40 41 40 40 42 47 63 95 93 71 54 43 40 38 40 39 39 41 43 42 45 48 89 124 150 167 165 175 188 206 222 233 
53 51 57 52 56 49 57 55 55 55 47 48 49 54 59 56 58 60 64 67 70 72 74 78 81 77 80 75 66 63 60 54 47 48 49 50 48 41 41 47 46 49 48 46 46 44 41 46 43 42 43 45 45 45 48 56 60 53 47 46 42 42 43 40 39 41 46 42 45 49 84 128 149 161 172 180 192 206 224 229 
70 68 68 53 56 52 60 57 56 55 50 53 52 59 60 58 61 61 69 70 75 72 75 80 84 82 84 79 66 64 60 57 47 50 50 52 53 50 56 74 49 51 52 47 45 48 45 45 41 46 47 45 45 47 46 51 51 48 48 43 42 38 40 40 41 42 45 40 44 43 80 133 150 162 174 180 192 209 218 230 


