P2
80 60
256
32 31 34 46 81 109 89 47 56 102 91 58 49 47 40 39 35 32 33 34 31 29 30 28 27 30 32 31 35 42 41 36 38 35 35 30 30 32 33 32 32 32 34 32 34 33 34 30 23 23 26 24 22 23 25 22 24 27 22 27 25 28 32 29 28 27 25 30 29 31 34 30 28 24 25 24 27 26 26 25 
30 34 40 50 88 113 85 45 59 101 94 58 45 43 38 36 36 35 33 34 33 30 32 33 32 34 34 32 32 37 37 37 35 36 33 29 30 31 30 35 31 34 33 32 36 35 33 31 29 27 25 26 25 25 27 27 29 28 27 30 32 33 36 35 34 27 23 30 30 31 29 31 27 31 28 27 30 28 24 30 
27 30 39 50 90 111 79 44 63 104 89 55 44 40 38 38 34 35 33 31 34 30 31 32 31 34 34 32 34 38 40 35 34 34 32 31 29 31 32 35 33 33 33 31 31 36 35 34 29 30 30 30 33 31 32 33 34 32 34 33 33 34 33 33 33 26 25 27 31 31 33 29 30 29 28 26 31 27 22 31 
30 27 35 54 97 104 73 40 69 102 83 51 40 38 35 36 35 33 32 32 34 30 33 33 35 32 33 32 37 38 36 34 33 31 30 30 27 30 33 31 32 33 33 33 32 33 35 35 31 33 36 33 34 32 30 30 34 35 33 35 34 33 30 30 30 26 22 25 31 31 34 33 31 25 22 25 30 25 23 22 
29 34 38 51 103 111 71 43 71 100 81 46 41 36 31 37 31 31 29 29 35 32 36 32 33 34 33 36 37 36 33 34 31 29 29 27 31 30 31 29 30 30 32 34 30 33 33 37 34 35 34 32 33 32 33 31 36 32 33 30 29 29 28 30 28 26 24 26 27 30 35 30 31 29 26 27 26 24 21 27 
29 29 38 60 105 99 69 46 78 104 77 41 38 34 34 31 30 31 31 30 33 31 34 32 32 30 32 32 32 33 37 32 34 29 29 28 28 29 31 27 30 31 29 32 31 31 33 32 29 34 34 32 33 32 31 31 33 28 29 32 29 29 28 30 28 31 22 23 29 33 33 32 31 28 27 27 23 18 17 19 
29 35 42 63 105 98 59 41 78 104 71 40 37 34 33 29 32 32 30 32 33 30 31 32 32 30 29 34 36 36 34 32 34 29 27 29 32 26 32 28 30 32 29 29 34 28 29 32 32 32 33 31 30 34 32 30 29 29 28 28 31 31 33 31 32 27 25 26 30 32 32 32 30 28 28 30 25 16 18 21 
26 31 36 57 104 94 59 40 79 101 64 36 33 30 31 30 26 28 30 33 31 30 27 26 26 29 29 35 32 34 35 32 33 29 30 30 31 30 29 29 28 29 30 29 30 31 26 28 28 29 33 26 32 29 30 29 32 31 31 32 32 36 31 35 31 30 26 22 30 33 32 29 30 29 33 28 22 18 17 18 
20 30 30 56 106 95 53 41 85 100 64 36 29 31 27 30 28 31 33 31 30 26 28 28 32 30 31 32 33 36 33 32 32 30 30 33 34 33 32 30 30 29 31 30 30 30 30 31 31 30 30 28 28 28 30 32 31 33 32 36 32 37 34 31 31 36 23 23 32 34 33 37 33 31 31 28 23 20 18 23 
13 7 0 48 107 93 46 35 90 105 59 29 27 26 28 26 24 29 26 32 27 29 26 28 27 30 27 30 32 35 37 32 32 30 33 31 32 32 32 30 31 30 33 32 30 31 33 33 31 30 29 30 30 31 36 32 33 36 36 34 34 35 34 31 34 35 29 24 30 33 36 32 31 32 31 29 23 27 23 21 
16 8 10 57 108 92 38 30 99 114 52 21 19 19 16 22 23 24 24 28 28 26 25 27 26 28 25 30 28 34 32 29 29 30 29 30 29 33 30 28 30 29 28 31 30 30 32 29 28 28 31 31 32 31 30 33 35 34 35 34 33 34 31 33 32 36 28 24 25 32 34 33 31 32 28 28 22 24 24 25 
22 21 21 62 114 95 39 38 100 110 48 22 18 16 15 16 14 19 19 24 18 22 24 23 26 25 25 25 27 31 34 32 31 31 31 29 28 31 32 31 31 32 33 31 33 29 28 30 31 32 36 35 35 36 35 36 37 36 35 36 34 35 32 35 35 37 30 25 28 33 32 37 32 34 33 30 25 23 23 25 
22 18 22 61 108 89 41 37 96 107 47 15 14 18 13 13 17 17 12 14 10 11 12 16 13 17 18 18 15 24 21 25 25 25 26 27 28 26 31 28 31 29 29 31 29 25 30 29 34 34 33 34 33 32 30 34 36 36 32 34 33 30 32 31 32 35 30 25 25 33 35 33 33 32 30 28 25 19 20 27 
23 25 22 70 104 85 41 46 103 108 45 22 18 17 17 16 17 18 15 14 15 13 11 15 13 12 9 14 13 13 14 10 20 17 23 23 26 28 30 32 30 27 30 28 31 36 34 33 34 39 36 37 35 35 35 35 35 32 37 37 36 34 38 33 36 34 31 28 23 33 34 36 35 36 32 35 31 25 23 28 
24 23 24 77 101 75 36 43 103 102 39 23 23 20 21 24 17 16 16 17 16 14 14 14 12 14 11 16 18 17 15 11 12 15 24 27 31 33 27 28 29 31 32 35 35 37 33 36 38 38 38 37 34 35 35 35 37 36 36 35 34 33 37 35 39 36 35 28 27 35 36 33 34 35 32 34 31 24 21 29 
24 21 27 76 99 74 33 42 103 95 41 21 19 18 24 21 17 16 17 15 14 13 16 13 13 12 13 11 13 14 9 12 19 20 30 29 30 27 28 29 32 31 31 31 34 32 34 33 33 36 37 33 34 37 35 33 33 33 34 35 34 36 33 36 36 36 34 26 25 28 31 38 34 32 31 33 34 23 25 29 
23 25 27 77 101 74 35 46 105 97 38 23 24 22 20 23 18 21 17 21 22 18 21 16 16 12 14 16 18 20 26 26 31 30 31 29 28 29 33 31 31 31 34 35 36 35 33 33 35 36 36 36 36 37 35 37 35 36 36 37 37 34 36 36 36 36 36 29 24 31 38 36 33 32 30 34 32 28 28 32 
26 20 25 86 103 73 31 50 105 91 35 22 24 24 22 22 21 17 19 21 19 18 19 19 17 17 15 20 22 27 31 32 33 32 33 30 32 30 32 31 31 31 34 33 39 36 36 37 36 38 36 37 38 35 38 36 38 38 40 36 38 32 40 34 38 39 37 32 26 30 36 39 35 35 36 32 34 35 32 30 
24 21 26 89 96 68 30 50 104 90 35 20 22 18 23 22 20 19 19 19 18 18 19 19 19 14 16 16 21 26 31 32 29 30 31 29 29 32 31 31 30 32 36 31 33 32 33 32 33 34 37 34 38 36 35 35 34 34 40 36 38 36 38 37 34 37 36 35 21 26 33 36 33 32 32 33 32 33 32 29 
24 24 31 93 102 67 32 54 105 92 33 25 28 23 23 24 22 23 22 20 18 21 22 20 16 18 19 14 20 30 34 32 33 28 28 30 28 31 32 29 33 32 33 32 33 33 34 35 32 35 37 37 36 35 35 35 38 37 34 36 39 36 34 37 34 37 39 36 29 27 34 37 37 34 34 35 36 32 29 32 
26 26 34 99 102 70 35 59 110 91 31 25 24 24 24 26 27 25 24 22 22 22 20 20 21 17 17 19 22 27 32 32 30 28 31 30 30 31 30 31 32 33 34 33 36 35 35 33 38 34 38 37 38 35 37 36 36 38 37 37 39 39 37 42 39 37 40 43 30 25 34 35 36 36 36 35 35 34 29 32 
31 33 44 112 105 66 34 65 108 87 34 24 23 24 22 20 23 24 21 22 21 24 20 21 20 16 19 21 22 22 31 29 32 28 27 31 28 31 31 30 33 33 33 34 35 32 34 33 35 36 39 37 35 37 38 36 36 36 36 38 37 38 38 37 36 38 39 40 35 29 25 36 36 37 35 34 36 34 30 35 
82 77 79 130 110 60 36 71 109 85 28 24 25 23 23 23 22 26 21 22 25 25 21 19 19 17 18 20 17 19 28 28 31 30 28 26 28 31 31 31 30 32 32 33 36 32 33 37 34 36 40 36 33 36 35 38 34 35 35 37 34 38 36 38 35 39 38 40 36 27 27 30 32 35 35 33 37 35 28 33 
109 109 110 115 96 50 38 74 106 81 33 25 25 20 24 23 22 25 22 24 22 22 24 20 17 22 21 19 22 19 29 28 31 28 30 27 27 31 31 33 32 32 32 33 32 34 32 34 33 36 37 37 35 39 36 34 36 32 33 38 34 38 36 41 40 38 38 42 36 33 26 24 28 32 33 35 35 34 28 34 
103 103 101 98 77 37 42 78 108 86 33 28 27 27 25 25 25 23 25 24 25 23 24 23 22 20 21 22 25 25 28 30 34 29 31 32 34 33 35 33 38 36 36 34 38 35 35 37 36 37 39 36 38 38 39 37 38 40 38 39 36 40 38 42 37 40 40 40 39 36 36 28 25 29 29 34 34 35 31 32 
49 48 52 57 41 33 38 84 113 85 33 28 26 27 28 29 25 26 24 24 25 23 24 25 22 22 23 24 24 24 30 31 35 31 35 33 35 37 35 33 36 38 36 35 38 37 36 36 36 36 40 38 39 36 39 40 37 40 36 40 37 40 37 44 39 39 40 42 40 38 38 36 27 25 26 28 30 31 26 34 
36 30 26 28 32 29 38 85 115 87 33 28 27 25 26 26 23 22 23 25 26 25 24 20 24 20 20 22 21 22 27 31 32 33 31 33 35 33 34 36 37 38 35 35 35 35 34 35 35 32 38 37 36 38 36 37 36 37 39 37 37 40 35 37 39 41 39 42 38 38 42 41 36 29 24 28 26 25 25 30 
83 73 61 52 51 48 51 102 119 89 36 29 25 27 27 26 26 28 26 25 23 26 26 26 25 27 20 24 21 23 29 34 37 34 31 33 34 32 38 39 38 36 36 36 35 34 35 35 36 35 38 38 36 39 40 38 35 38 37 39 37 39 39 42 40 40 41 38 38 40 42 41 40 38 37 36 35 27 24 28 
125 119 112 106 102 100 103 117 110 83 31 28 29 27 24 28 28 28 30 27 25 26 23 24 22 24 23 21 25 23 30 34 35 35 33 35 33 35 39 37 34 38 36 35 36 31 38 33 39 36 40 37 39 34 36 35 37 38 37 36 38 37 34 40 38 41 44 41 36 43 40 43 41 38 39 37 38 33 26 31 
111 105 106 108 106 103 106 106 97 66 30 25 28 25 28 28 29 29 29 27 29 28 26 24 22 24 25 24 25 23 32 33 35 34 34 34 34 35 37 36 34 37 34 38 34 35 38 37 37 35 40 38 37 37 37 38 37 37 38 37 38 36 40 40 39 42 44 44 41 40 44 41 38 37 38 38 35 29 29 31 
49 50 51 57 62 66 69 69 59 40 24 28 32 30 28 30 29 29 29 28 26 29 28 25 25 22 26 24 25 27 31 35 36 32 33 32 33 37 40 37 37 38 36 35 37 36 36 38 35 38 40 37 41 38 35 36 36 38 35 39 41 38 38 41 37 41 41 42 38 40 42 42 38 37 36 38 35 37 29 31 
34 30 28 31 32 34 36 31 33 29 25 31 31 30 31 31 30 29 29 27 25 30 30 32 27 25 21 29 28 28 31 33 36 37 35 34 35 34 36 39 36 38 38 34 37 36 37 38 39 37 37 38 38 37 37 38 38 39 37 39 38 40 39 39 39 41 40 40 41 38 43 48 39 37 37 35 38 35 29 35 
31 29 25 24 29 30 30 26 28 33 24 26 33 31 31 29 29 31 30 28 27 28 31 28 28 26 27 32 30 30 31 35 37 36 32 32 35 36 39 34 40 39 39 37 36 37 36 39 35 42 40 40 38 36 37 42 40 35 38 34 39 40 40 42 37 41 42 45 40 44 42 45 44 42 39 35 38 37 30 42 
33 29 23 28 30 28 28 27 27 33 28 29 30 31 31 30 32 30 32 28 31 30 31 28 34 27 28 30 28 29 30 35 38 36 34 32 36 36 37 38 42 40 39 37 41 38 40 42 36 39 42 39 42 37 36 37 38 36 39 38 38 40 41 41 41 44 42 44 43 41 43 43 43 42 37 36 41 38 32 35 
39 30 25 25 29 30 27 30 31 34 26 31 29 32 32 32 34 34 32 31 34 34 35 33 31 29 30 31 30 29 33 37 38 36 36 34 37 35 37 38 36 37 39 36 38 38 39 37 39 38 39 40 40 37 36 38 36 38 42 42 41 47 44 46 41 44 46 45 41 42 45 43 43 39 38 39 38 37 34 38 
36 30 23 24 28 29 31 29 31 31 28 30 31 33 36 32 33 34 35 30 35 36 34 29 35 27 31 33 31 28 34 35 40 36 36 33 36 37 35 34 38 37 36 38 39 37 39 37 39 37 43 38 37 41 40 36 38 37 42 41 39 41 41 42 42 41 42 43 40 42 41 42 44 40 41 38 38 41 35 40 
31 33 29 25 29 29 28 27 28 33 30 31 34 34 30 33 33 35 35 33 32 31 32 33 34 32 35 36 34 32 33 38 41 37 41 37 37 38 40 36 39 36 38 38 39 38 40 39 40 38 43 40 37 41 39 39 39 36 38 38 38 38 40 38 41 39 43 43 42 44 46 45 42 42 39 41 39 39 38 42 
31 30 28 30 29 27 28 29 30 32 29 30 32 32 32 35 32 35 32 33 33 34 32 33 33 32 35 36 31 31 30 37 40 35 38 38 33 36 38 36 38 37 36 37 40 38 38 41 39 39 42 40 39 40 37 39 39 36 39 36 41 38 41 41 39 41 42 41 42 42 42 41 42 39 39 38 38 35 44 48 
31 29 30 35 32 30 30 32 31 30 27 31 36 34 33 36 35 37 33 36 35 35 33 35 36 33 34 34 36 33 34 35 38 38 38 37 39 36 40 37 39 41 39 36 37 37 39 44 40 38 43 40 39 40 36 41 41 39 38 37 39 38 41 37 40 41 43 41 44 45 43 47 41 40 40 38 42 41 48 58 
33 31 32 30 33 33 34 31 29 32 26 30 33 35 33 36 36 37 34 34 37 35 37 38 37 34 34 36 35 35 31 38 41 39 40 37 37 38 40 37 40 37 39 39 37 41 42 39 38 40 41 40 38 39 40 39 41 37 37 38 39 39 42 40 41 42 45 43 42 43 45 45 44 40 41 43 48 55 55 67 
31 30 33 35 29 30 32 31 31 34 27 31 33 36 35 36 33 40 36 36 39 39 36 40 38 37 36 37 38 37 34 37 44 40 38 36 41 38 39 38 38 40 41 41 40 39 38 41 41 40 40 38 42 39 40 41 41 39 40 38 41 42 42 36 39 43 44 46 43 45 43 43 41 42 42 46 53 52 58 104 
34 31 28 34 36 35 33 33 30 33 26 37 36 37 38 36 35 40 39 38 41 41 38 42 40 41 39 37 40 38 38 40 42 39 39 38 39 38 41 39 41 43 41 41 41 41 39 39 37 38 39 43 41 43 40 38 42 36 42 41 42 39 42 42 41 42 46 46 48 45 46 47 46 44 43 47 50 50 65 145 
37 30 29 30 36 31 32 34 32 32 31 36 37 36 37 42 38 42 38 40 41 41 42 42 41 40 40 38 40 39 38 43 40 42 42 38 41 40 42 40 39 42 40 40 37 40 38 40 38 39 41 40 39 40 39 41 39 40 37 38 38 40 40 37 41 47 47 46 46 45 44 47 46 46 44 48 45 47 72 163 
33 28 25 30 35 37 33 38 33 31 30 33 37 37 37 41 37 39 40 41 43 42 42 41 43 42 39 39 38 37 33 37 42 40 42 41 43 40 40 40 41 41 40 38 40 40 39 40 39 40 42 39 38 37 33 36 36 38 37 40 38 40 41 44 42 40 47 45 47 45 49 48 48 44 44 48 52 49 65 159 
33 29 30 32 35 34 35 34 31 33 31 32 38 39 39 40 42 44 43 43 42 45 44 45 44 44 37 34 41 39 34 36 40 42 41 43 41 39 41 42 41 42 39 39 40 37 38 39 37 37 43 38 39 33 36 36 36 36 37 37 40 38 41 40 41 45 45 44 45 48 47 48 50 49 49 58 67 67 72 157 
35 34 27 34 33 35 35 32 34 37 30 35 37 39 40 42 43 41 46 41 46 47 49 45 48 39 40 36 39 36 31 34 41 47 43 43 43 42 42 42 40 41 41 41 37 41 41 41 42 38 43 42 37 40 39 35 39 38 38 40 38 39 42 41 42 43 47 48 49 49 51 62 85 95 112 147 163 143 111 165 
36 34 31 36 35 36 37 35 31 34 32 35 43 42 40 41 45 44 45 43 45 48 49 48 47 45 44 45 44 46 42 40 37 44 42 41 45 46 43 42 42 42 41 41 42 41 40 39 41 40 40 41 40 38 37 39 39 40 40 40 40 40 40 36 43 43 46 51 48 53 67 110 140 156 170 179 177 163 165 193 
34 31 31 34 33 39 35 38 33 39 30 37 41 38 39 41 42 44 43 47 46 47 46 49 49 48 52 50 49 50 47 40 38 42 44 43 42 44 43 40 43 45 42 43 41 40 40 41 39 40 42 39 39 39 39 39 37 40 38 40 41 42 40 46 44 46 46 49 57 81 105 123 135 144 148 158 163 171 188 214 
33 30 28 34 34 39 36 36 35 38 33 40 40 44 42 44 46 43 45 47 46 48 49 49 51 53 55 55 51 50 49 40 38 42 46 42 45 43 45 42 44 42 44 43 42 39 38 38 38 40 41 36 39 40 35 40 40 39 37 41 42 42 41 42 44 46 47 51 75 109 123 134 139 146 153 170 186 201 225 254 
31 29 31 33 35 33 39 34 32 39 31 41 38 40 42 41 44 44 47 49 47 48 47 48 47 52 53 56 53 50 44 40 40 46 44 45 44 44 42 45 43 43 39 41 42 41 41 39 39 39 41 40 41 39 36 37 36 39 38 38 41 43 41 43 44 43 48 50 70 112 142 151 158 165 174 190 204 218 239 251 
35 34 35 36 34 36 38 34 36 41 35 39 40 43 46 45 45 45 47 48 49 49 56 52 52 53 60 54 53 52 51 40 39 44 46 45 46 44 48 44 43 45 44 44 43 43 39 40 40 39 43 41 42 42 44 43 43 38 40 41 40 43 42 44 45 45 45 50 70 114 145 158 168 173 183 193 205 217 241 256 
36 31 33 32 33 36 37 37 37 41 37 41 46 44 43 48 44 46 47 50 53 51 55 52 53 57 59 59 56 56 51 40 42 45 47 47 45 45 45 45 45 48 46 46 44 42 40 41 40 43 42 42 44 45 46 49 43 41 44 45 43 46 43 46 44 45 49 48 63 103 138 155 164 171 178 188 204 219 237 251 
41 38 35 38 36 38 38 39 37 41 37 42 44 50 46 46 47 50 51 51 54 55 56 55 58 60 59 60 53 55 52 49 43 45 49 49 47 47 47 46 46 46 44 45 43 42 41 45 44 44 41 44 42 47 53 55 49 54 48 46 44 45 44 46 47 47 49 49 60 101 135 156 162 168 175 189 201 216 237 246 
38 39 37 39 39 42 41 39 40 43 39 42 46 42 46 52 48 50 50 52 59 58 58 55 56 60 60 60 56 57 53 46 44 49 50 47 48 46 48 45 47 48 46 47 45 44 43 41 42 45 44 45 43 49 57 77 87 67 53 48 45 49 47 45 46 48 50 47 56 97 130 152 159 166 172 184 199 215 234 244 
44 44 40 44 44 43 43 39 44 46 42 42 47 52 49 52 53 54 55 59 60 63 62 61 62 64 66 65 62 65 58 51 48 49 51 49 50 49 53 48 48 48 49 48 45 47 44 45 46 46 45 46 50 58 106 220 160 99 59 51 44 48 48 49 47 49 48 54 56 92 125 150 161 164 172 183 195 214 229 247 
52 46 44 46 47 49 47 44 43 51 48 49 50 55 54 56 55 56 60 64 65 66 68 68 68 67 71 69 65 67 59 54 51 49 55 54 52 53 54 49 52 52 50 47 49 49 50 48 47 48 51 49 52 62 128 251 165 96 62 49 48 46 48 47 52 50 50 56 56 83 121 150 156 162 166 178 191 198 224 248 
55 47 45 48 48 50 46 45 50 54 47 50 55 54 56 56 58 60 63 66 72 72 74 69 71 71 71 71 65 65 60 54 50 53 55 55 57 55 50 51 53 54 50 47 49 51 50 48 49 47 49 51 52 58 74 103 91 68 54 48 46 45 45 47 47 49 53 52 53 77 117 142 153 157 171 170 164 163 214 235 
61 52 50 52 52 51 53 50 51 54 52 53 57 56 58 63 64 66 70 71 73 75 77 77 78 79 80 79 73 66 64 58 51 53 59 55 55 48 52 50 52 56 50 51 49 52 47 50 50 49 48 52 52 49 56 58 62 60 55 45 48 48 48 48 50 50 52 52 57 73 109 139 154 157 164 168 166 178 222 242 
70 67 61 62 64 61 60 55 60 58 59 59 59 61 60 66 65 68 71 77 80 84 88 87 86 87 88 84 77 71 63 60 58 56 60 57 58 54 66 69 60 56 58 55 54 55 54 54 52 53 53 50 50 48 50 53 52 53 52 47 48 51 48 49 50 54 56 54 57 67 110 139 153 160 166 172 182 197 222 233 
97 88 79 71 72 63 67 63 58 63 57 63 62 62 64 68 68 70 76 79 82 89 89 87 87 100 98 86 79 72 64 63 59 57 60 63 62 61 98 133 71 61 62 58 57 56 57 54 54 54 54 52 50 51 52 51 48 52 49 49 50 50 48 50 54 55 54 56 57 62 110 138 153 163 167 173 182 197 219 232 


