P2
80 60
280
151 60 65 61 66 72 66 68 70 62 57 63 64 64 61 53 53 62 57 57 57 59 64 65 65 101 73 65 62 60 66 65 64 61 60 60 51 56 62 62 57 65 63 65 55 72 71 73 68 75 75 76 77 87 88 91 147 106 99 108 102 100 105 111 114 129 131 131 137 147 157 155 158 172 167 167 177 176 165 168 
140 56 66 68 69 63 60 68 63 51 65 55 66 64 49 45 60 65 51 48 49 56 64 63 60 101 62 51 53 56 75 61 62 61 54 59 59 45 57 53 62 60 61 59 62 65 55 67 70 69 64 69 80 81 84 82 153 99 98 104 91 104 104 98 107 122 119 118 137 127 137 155 156 163 169 164 174 173 166 162 
150 56 66 68 54 55 62 59 62 56 52 60 53 70 51 46 51 49 50 49 53 49 53 67 59 95 55 60 51 63 65 59 55 55 60 50 54 43 48 63 52 56 62 63 62 64 54 72 68 75 63 76 71 78 78 78 142 98 95 98 97 96 104 100 109 112 118 129 134 125 129 142 150 154 162 158 168 165 161 158 
145 48 56 58 58 51 57 57 47 55 47 42 46 56 46 47 37 47 55 50 54 44 53 53 57 93 54 56 52 57 58 54 53 53 54 48 45 51 46 48 57 58 50 54 56 53 59 64 64 55 63 63 71 79 76 77 142 95 85 95 87 94 102 93 99 108 111 114 117 129 127 143 139 147 152 153 164 164 149 161 
133 36 58 58 58 47 57 54 47 51 46 36 47 47 42 43 39 54 43 50 50 42 49 48 57 84 59 51 48 54 57 56 55 49 40 48 50 45 47 45 57 51 46 47 50 53 51 68 63 48 58 65 71 74 83 73 141 78 73 85 81 94 98 94 96 97 116 106 125 127 123 136 127 151 150 155 158 156 146 159 
124 25 52 50 45 44 43 42 43 47 38 33 30 38 36 31 32 37 38 44 46 44 46 48 45 74 55 43 41 44 47 55 47 32 40 39 42 40 46 39 46 49 43 46 45 49 53 58 51 59 55 60 63 72 71 60 124 79 73 84 81 88 91 93 94 97 106 106 109 110 112 117 112 137 132 139 147 151 148 155 
136 38 54 56 48 45 44 48 51 36 46 30 35 33 41 41 32 39 40 46 42 42 47 47 45 77 48 35 33 41 47 46 43 36 38 36 42 41 39 44 40 36 39 45 48 49 53 53 51 50 62 62 63 65 72 65 128 85 74 78 82 88 86 92 89 95 102 98 106 112 110 124 126 123 130 135 149 152 138 140 
133 43 53 58 52 51 47 55 53 36 33 25 33 34 29 42 32 44 38 34 39 35 35 40 39 69 41 31 39 46 43 44 39 39 34 40 36 35 43 43 41 29 42 48 44 43 42 45 54 51 53 59 63 63 64 61 127 75 70 76 80 83 78 87 87 93 99 92 105 114 114 124 115 134 127 134 141 127 131 135 
131 50 55 44 62 53 49 55 47 42 40 28 33 35 28 34 39 38 38 36 33 31 37 39 43 68 36 37 39 40 37 39 33 36 29 30 35 36 29 33 40 39 36 35 40 47 45 46 54 50 55 51 51 56 58 74 118 74 66 71 74 68 80 85 88 88 89 94 107 112 114 113 116 113 122 129 134 129 136 142 
120 43 47 43 43 37 36 42 44 34 31 30 33 31 29 22 26 27 34 35 26 26 30 36 29 58 34 34 36 39 37 28 36 31 25 27 29 29 26 33 30 36 32 35 43 46 43 46 50 47 46 48 49 53 59 58 119 67 64 62 62 67 72 80 72 87 78 89 100 105 111 112 112 113 112 126 132 134 143 141 
124 42 42 42 46 41 35 38 38 29 32 33 32 25 33 20 24 25 33 32 34 34 34 35 26 67 39 35 34 34 35 33 34 33 29 29 23 31 28 38 35 33 29 35 45 43 44 48 39 37 44 46 46 57 59 48 115 72 67 68 68 72 78 79 76 82 95 96 88 106 112 110 108 111 105 117 132 143 142 139 
116 38 33 44 42 32 27 37 27 29 30 31 18 15 28 16 25 33 22 29 28 27 30 31 25 68 33 28 30 28 29 29 36 34 29 29 29 29 32 33 30 26 32 33 33 45 42 42 45 41 48 41 45 50 51 52 110 60 71 73 67 69 75 77 77 83 85 92 92 103 106 110 102 107 103 118 133 129 134 135 
124 36 34 34 41 37 41 36 29 34 40 35 21 20 31 21 26 40 24 29 27 22 33 33 30 67 40 30 31 25 32 35 38 29 32 40 34 24 32 33 33 29 33 35 35 34 42 45 47 43 47 41 48 53 49 50 114 59 66 71 63 75 77 80 79 79 85 85 91 106 104 102 109 108 122 125 130 123 131 135 
113 24 32 32 33 38 34 28 23 30 30 24 30 26 26 21 31 23 23 16 16 26 29 26 26 66 23 30 28 27 28 30 27 31 34 28 25 27 27 34 21 32 22 33 31 31 37 34 35 43 39 48 46 51 46 51 108 60 60 65 60 71 72 74 78 75 76 76 94 103 94 96 101 116 112 120 125 127 125 132 
116 21 37 36 33 34 34 26 27 22 21 25 27 18 21 21 25 23 24 20 26 24 30 24 28 62 26 32 26 29 29 35 26 27 37 30 18 26 24 19 20 23 19 24 35 29 31 37 38 45 38 46 42 51 44 45 109 54 66 64 64 76 68 69 75 76 82 81 90 99 96 104 102 104 112 123 128 132 131 135 
114 28 30 36 30 30 29 27 30 25 19 21 25 18 16 15 23 21 22 20 24 15 20 27 24 59 21 26 28 26 22 27 28 23 25 23 14 16 18 23 20 16 15 27 26 29 25 40 37 36 35 36 34 37 39 49 95 55 55 70 61 63 65 73 71 71 80 87 92 88 90 101 99 118 115 120 130 122 129 132 
110 31 27 21 27 25 26 26 31 22 23 20 21 20 19 9 22 18 16 22 25 21 16 21 29 55 22 32 23 26 21 30 27 19 22 24 20 11 18 20 16 12 11 19 23 28 22 40 32 29 37 34 33 42 44 48 106 52 57 59 66 65 72 68 63 82 79 82 92 81 95 91 101 113 105 112 124 120 132 132 
107 31 32 30 20 23 25 33 24 14 23 20 14 16 12 8 8 27 17 18 20 17 16 22 23 54 20 19 21 22 23 24 19 16 16 22 15 18 9 17 13 13 17 18 22 26 27 26 27 27 30 26 36 38 41 39 95 52 52 56 49 54 64 66 61 72 68 71 81 77 85 93 88 106 102 110 117 118 133 132 
108 29 30 32 27 25 30 28 29 19 22 24 15 19 21 15 17 25 20 13 22 16 15 24 25 57 20 25 22 23 17 23 19 20 18 16 15 15 18 16 9 10 16 15 23 20 27 24 28 19 27 24 32 29 38 43 101 54 56 60 55 57 66 64 67 72 73 76 83 81 89 85 98 105 106 113 116 116 129 133 
100 26 24 23 26 28 20 24 24 15 20 20 21 22 24 17 14 18 11 20 14 17 15 24 23 48 20 23 15 12 15 19 19 17 13 15 13 14 13 11 9 6 13 10 18 19 24 19 24 18 24 29 27 27 30 37 93 53 43 54 47 49 53 53 59 60 65 75 78 87 87 84 100 96 96 109 104 107 117 124 
100 31 29 30 22 26 20 24 30 22 20 21 17 21 19 20 24 22 20 22 18 21 23 21 29 53 27 26 23 17 18 28 24 23 15 13 16 15 15 19 9 18 10 20 21 22 18 22 25 14 23 31 27 25 33 32 104 49 53 53 51 55 50 53 60 56 70 68 72 81 85 87 90 99 101 104 107 110 116 126 
98 27 26 24 28 28 23 31 25 21 23 17 15 18 16 13 16 17 19 22 18 16 18 22 24 55 21 13 19 21 22 29 21 14 14 22 7 11 17 18 15 9 15 19 29 25 20 18 21 27 19 32 32 25 34 33 98 48 54 49 46 54 47 56 54 65 68 69 71 81 87 88 89 98 100 104 107 110 121 121 
101 28 32 29 28 31 25 22 28 21 23 24 15 22 22 15 20 17 19 21 21 26 24 25 27 55 22 28 14 24 29 35 20 26 22 23 15 15 18 18 14 18 18 19 27 30 23 25 30 32 25 25 31 36 31 37 95 41 62 55 48 50 55 64 63 69 74 74 73 81 88 100 103 95 107 109 109 121 125 123 
100 27 30 30 22 27 26 22 18 16 21 24 10 23 23 16 21 16 21 19 22 20 25 17 23 54 22 20 25 26 25 14 18 11 18 15 13 15 20 15 16 20 16 13 29 29 26 27 35 33 27 27 34 37 39 44 88 40 55 54 54 57 56 56 59 65 71 69 76 83 84 87 90 103 101 112 112 111 115 127 
97 27 34 32 22 24 16 25 17 16 16 11 18 19 18 15 11 25 12 13 21 25 22 16 21 52 26 26 23 21 28 14 18 14 18 17 12 14 15 19 20 10 11 18 21 23 24 22 27 26 30 27 30 36 41 43 98 46 54 55 50 52 51 61 56 57 67 76 76 81 83 89 96 97 103 106 111 120 111 123 
97 29 25 23 20 15 15 17 17 9 16 15 14 10 14 7 0 20 13 22 20 16 15 20 23 45 21 12 9 9 22 17 10 12 14 7 6 8 8 11 11 11 10 14 22 19 24 21 17 21 22 26 28 38 33 35 84 49 48 52 55 44 47 53 51 54 63 72 72 74 75 89 92 94 92 103 109 113 122 121 
109 30 23 32 22 24 17 21 18 4 17 14 20 11 18 20 19 5 21 21 20 24 10 20 17 41 26 12 11 19 14 18 10 15 13 5 8 9 10 11 6 9 12 15 18 19 16 19 17 24 23 23 30 29 35 42 83 39 47 55 46 60 48 55 60 51 59 66 71 79 86 92 82 93 91 106 112 110 118 118 
103 23 31 32 21 15 25 15 17 15 14 13 13 11 19 12 18 13 14 13 11 12 17 22 23 49 17 17 22 18 15 19 18 6 13 9 2 5 10 9 6 1 12 11 4 14 12 21 15 20 21 24 29 31 26 39 88 38 46 48 49 42 52 55 54 65 67 65 67 86 81 82 96 92 93 105 106 106 105 121 
100 26 27 31 24 20 13 16 21 17 14 16 16 12 13 14 20 19 16 16 13 15 15 24 22 59 15 21 19 19 17 17 19 11 10 8 1 8 11 7 4 8 13 12 4 16 14 18 17 18 20 28 29 32 30 36 95 41 44 45 47 49 53 52 51 56 79 65 83 77 79 88 94 96 94 107 110 109 111 111 
100 28 26 30 30 29 17 24 30 27 20 17 21 19 10 9 17 17 21 18 20 20 19 15 17 56 25 14 8 16 15 17 18 19 11 11 3 20 11 10 10 1 13 7 6 10 19 12 18 18 19 27 29 37 33 40 99 43 42 49 47 53 55 52 53 64 64 76 76 78 78 91 88 92 92 102 111 110 110 114 
110 38 42 40 33 26 28 25 22 22 18 22 18 23 21 15 22 22 11 22 21 19 27 18 26 55 17 16 14 18 15 17 22 20 17 19 15 16 12 9 12 15 11 12 14 17 19 13 11 16 22 25 31 32 42 46 87 36 51 44 46 54 53 59 56 65 68 73 69 82 84 93 92 94 98 104 110 111 109 110 
110 44 43 41 36 30 26 28 22 19 19 15 7 9 13 16 22 16 9 11 25 21 24 19 24 50 20 20 21 17 13 19 17 10 13 13 10 18 7 12 8 10 9 11 12 14 12 14 11 16 21 22 24 25 26 35 92 31 44 43 48 54 51 50 54 65 67 73 74 84 79 85 90 91 92 99 102 110 109 116 
112 40 46 39 32 38 36 24 35 24 28 18 19 23 22 26 20 16 21 17 30 13 28 25 25 53 23 28 26 18 12 17 20 17 18 18 12 14 9 10 15 11 11 10 18 21 19 19 21 18 26 26 34 31 36 32 96 30 47 43 45 51 54 53 57 60 66 65 76 78 86 86 98 95 91 107 106 113 113 114 
115 41 47 47 37 43 34 39 31 31 24 17 24 24 24 19 15 19 22 22 24 15 23 25 25 53 28 26 22 20 21 11 16 8 11 17 7 13 14 8 11 13 13 14 13 20 11 19 18 16 16 22 28 29 28 31 90 40 41 40 41 48 47 51 48 52 63 55 71 84 81 81 84 95 84 106 113 109 115 111 
118 46 49 50 44 39 42 35 40 30 25 16 27 16 23 25 17 21 21 19 26 18 29 24 28 53 26 29 18 22 25 19 21 23 20 18 12 15 19 21 11 15 16 17 17 14 22 16 21 15 25 21 27 30 32 29 93 47 42 53 50 55 53 51 51 64 67 67 76 77 83 88 80 94 99 106 112 116 112 115 
126 36 39 47 38 46 38 37 29 31 22 23 25 9 25 21 24 18 23 24 19 25 22 27 25 56 24 22 20 23 18 19 22 22 17 13 14 19 20 16 11 13 17 16 15 13 19 18 22 22 22 24 27 29 26 41 90 45 43 56 52 53 47 46 56 63 68 74 78 78 83 94 84 97 92 103 115 118 115 114 
131 30 51 48 48 47 42 45 27 33 27 32 20 27 30 24 20 23 17 25 22 20 29 26 25 57 21 26 20 17 18 21 16 19 21 22 12 17 18 17 21 13 18 21 16 13 18 21 20 22 22 26 28 34 36 33 90 45 38 49 50 55 55 52 59 62 71 68 76 81 95 90 93 93 100 103 115 121 116 115 
129 43 55 49 45 46 42 45 31 29 31 31 23 19 25 20 22 23 22 20 24 24 23 21 23 56 23 19 18 14 20 21 13 12 23 16 9 10 9 12 7 17 15 12 16 12 10 16 16 16 23 23 29 32 36 49 92 46 44 49 49 59 62 59 57 56 73 67 80 84 81 96 91 95 102 103 115 118 120 125 
140 53 58 58 51 46 42 41 32 31 29 31 19 23 28 24 32 24 18 21 23 26 25 20 28 66 31 19 23 15 16 21 21 7 24 19 12 14 13 18 13 15 15 10 17 13 9 16 18 21 26 30 29 36 34 38 94 46 48 47 51 57 57 68 66 62 70 64 77 86 83 95 97 100 107 106 113 123 119 124 
138 51 57 49 46 46 43 37 34 27 30 28 25 26 25 23 20 22 24 25 22 24 27 11 19 53 23 19 18 24 14 19 25 10 21 17 12 10 6 9 14 17 11 12 19 15 9 19 20 21 25 25 28 33 31 35 93 39 47 45 43 53 48 49 63 60 63 68 77 78 88 86 89 101 97 104 117 123 124 119 
146 64 57 51 47 47 47 39 42 38 33 27 28 27 26 20 22 23 25 26 24 28 27 24 25 52 31 31 14 26 22 18 14 22 10 13 20 17 19 10 11 17 17 16 16 17 14 20 20 18 29 21 27 34 35 34 86 38 41 43 46 45 49 52 55 64 67 68 79 83 91 84 100 110 108 111 116 121 124 121 
175 71 55 53 50 37 36 41 41 38 39 25 25 22 24 20 28 25 25 21 25 26 24 27 26 54 30 21 14 23 16 21 16 15 14 18 16 18 18 13 11 12 9 15 15 18 18 17 21 21 27 20 23 29 28 37 100 37 37 38 46 46 50 55 49 66 72 67 76 84 87 91 105 106 105 112 114 116 114 123 
219 96 68 64 60 51 63 41 46 41 34 32 29 24 25 22 32 31 21 20 18 22 29 26 34 59 25 23 21 21 21 23 20 17 17 21 15 19 19 15 12 13 10 24 12 22 17 24 14 19 24 20 26 26 30 46 96 51 50 36 51 52 49 53 53 64 65 73 76 83 94 99 102 105 104 119 111 119 124 123 
228 126 91 63 61 66 57 42 46 44 40 37 35 33 33 28 25 22 20 21 25 20 23 27 32 60 29 25 28 28 27 23 18 18 15 15 19 12 18 10 17 17 16 17 24 24 14 19 21 15 24 26 25 30 34 37 101 45 48 48 48 52 51 53 55 52 75 74 78 80 90 85 100 100 102 110 126 122 130 133 
234 137 129 79 72 65 59 52 52 51 42 47 39 39 41 28 29 29 25 18 20 32 35 26 41 62 35 27 28 33 21 21 24 23 22 16 21 10 19 18 18 20 14 14 22 23 21 23 18 25 28 23 26 37 33 34 100 45 49 45 49 48 53 54 67 55 69 69 76 81 83 100 94 108 105 115 123 128 130 129 
243 160 134 116 83 74 58 58 54 56 51 47 40 37 40 38 32 29 33 25 29 31 26 23 30 57 32 28 23 23 21 27 24 12 15 21 15 17 15 17 18 13 18 15 22 22 18 20 21 18 21 33 27 35 33 39 91 45 48 46 46 53 51 56 58 59 65 70 71 82 88 92 100 102 110 113 112 122 132 131 
257 163 155 146 119 83 72 67 57 68 53 58 55 45 41 39 44 38 42 34 40 46 39 28 39 71 32 29 25 26 23 27 29 15 19 22 26 26 19 18 17 13 22 18 15 18 26 21 21 19 24 26 36 34 37 35 95 49 50 58 53 61 59 57 57 64 74 77 83 83 93 99 116 115 116 119 129 133 138 135 
261 167 169 154 140 110 85 70 73 62 72 54 52 59 53 42 45 35 42 31 31 38 39 33 36 72 30 33 33 33 27 27 25 18 18 21 23 23 24 23 19 13 22 20 13 16 23 23 21 18 27 30 36 34 33 39 96 37 49 45 49 59 53 51 64 64 73 77 89 86 94 101 108 112 118 119 135 133 135 141 
275 173 173 163 152 134 116 88 83 73 61 55 58 60 59 47 44 41 47 40 31 42 42 41 36 75 38 40 36 32 31 41 32 30 23 24 24 21 24 24 25 17 18 25 25 28 23 22 26 22 26 27 36 36 40 45 97 41 47 43 45 59 48 61 66 70 82 74 87 104 101 104 113 124 116 120 144 137 139 151 
274 176 180 181 169 157 134 103 78 68 76 58 63 61 63 56 45 43 41 40 34 44 41 51 40 73 41 39 34 32 27 41 28 30 27 27 22 24 21 26 31 19 28 26 26 27 18 24 24 33 27 34 29 32 47 49 108 46 57 59 59 59 60 71 66 75 72 87 105 98 98 100 113 127 120 122 143 141 148 149 
275 185 188 176 166 160 149 128 91 81 65 64 66 63 60 57 48 45 46 51 44 48 48 42 53 75 37 40 33 33 32 40 28 28 31 17 22 26 22 20 30 28 19 32 33 28 25 29 33 33 33 38 38 35 39 50 111 53 54 58 59 60 62 70 68 69 78 87 97 99 101 110 122 123 129 136 149 142 147 147 
272 186 190 187 177 165 150 138 110 92 74 77 71 61 53 55 60 48 54 44 46 50 45 46 38 75 36 39 33 36 41 40 30 31 31 19 19 25 26 20 23 25 21 29 30 32 24 31 31 30 28 32 32 38 39 38 97 47 54 51 61 60 58 67 73 78 86 87 98 105 101 110 115 124 125 143 145 146 146 154 
270 194 192 186 182 185 160 160 129 115 89 76 73 57 64 60 49 59 53 51 40 52 47 51 42 79 41 40 41 42 31 40 34 36 26 28 25 21 29 24 26 25 26 31 27 36 28 26 34 34 30 38 32 40 37 41 105 51 45 50 65 65 59 64 71 80 79 92 99 106 106 119 120 127 133 145 142 146 151 152 
273 192 190 185 181 186 164 166 155 142 103 73 76 63 64 60 46 56 49 51 47 52 45 50 49 80 39 38 40 37 33 38 27 23 29 30 23 31 28 29 25 23 31 30 34 26 25 32 38 34 33 28 37 33 39 40 99 50 46 51 59 63 63 68 67 81 79 89 101 108 97 112 118 125 127 133 141 141 149 154 
264 185 181 184 178 178 169 163 168 149 117 95 73 60 66 63 56 52 51 47 46 46 45 51 45 87 39 45 38 35 31 36 36 31 24 30 30 34 27 27 28 19 28 22 29 23 28 26 32 31 28 18 27 31 37 43 99 46 45 60 54 67 65 62 69 76 73 87 100 93 98 111 112 124 128 135 142 140 142 153 
250 179 177 184 185 179 177 169 163 151 143 113 85 76 63 59 53 48 53 48 50 49 56 48 39 87 20 41 33 38 23 31 25 30 27 24 29 26 15 28 22 23 25 22 17 15 15 20 19 23 20 24 18 31 23 35 106 43 54 51 50 49 60 62 67 74 77 84 90 98 102 103 105 121 121 133 144 138 141 138 
258 177 193 184 185 182 178 179 165 158 155 135 119 78 71 59 56 59 53 53 53 54 56 53 40 93 43 42 33 38 30 38 33 23 30 23 29 27 21 27 22 21 12 24 13 20 14 17 24 27 27 23 18 28 31 31 101 44 48 50 53 53 54 65 70 69 72 80 90 106 103 109 121 122 123 128 142 134 131 140 
264 180 187 188 189 188 191 180 187 175 162 148 140 99 74 70 64 69 67 55 59 52 58 56 48 89 43 37 39 47 20 37 29 31 19 17 26 23 21 19 10 15 18 15 14 22 19 16 27 29 18 17 20 28 31 30 95 41 39 48 51 53 52 57 69 72 77 85 90 99 104 109 117 119 121 125 136 131 137 137 
270 179 181 197 182 186 191 187 188 184 179 166 147 119 100 81 76 74 70 58 70 54 56 59 57 91 42 40 46 47 24 44 29 23 19 16 25 21 18 26 11 17 19 14 16 19 18 10 25 22 18 24 24 27 34 32 100 43 35 48 48 60 61 54 74 70 80 76 91 100 102 114 110 123 124 131 129 141 141 133 
280 193 183 197 191 178 184 184 185 183 182 170 151 139 121 104 81 77 69 67 64 58 60 58 56 87 48 48 45 46 32 32 28 27 28 21 17 20 19 24 23 14 21 20 20 26 14 12 23 22 22 23 26 29 33 36 99 44 37 44 50 56 57 63 69 70 70 80 86 96 106 112 111 119 123 124 131 136 139 146 


