P2
80 60
246
27 24 31 41 77 102 80 44 59 97 89 55 41 39 32 33 31 26 29 33 25 27 29 26 25 25 25 27 30 34 31 29 30 26 27 26 23 26 25 24 25 25 27 26 25 26 27 22 15 14 15 15 17 14 13 15 18 22 20 22 22 22 26 25 21 20 21 21 24 27 26 23 18 15 14 18 21 22 17 16 
20 24 32 45 81 104 77 41 57 97 91 48 38 40 34 32 32 26 31 31 27 23 29 29 25 31 28 29 25 31 31 29 29 28 25 25 26 26 24 26 25 25 25 27 29 28 26 24 21 18 18 21 16 17 22 17 23 21 25 29 24 29 29 32 28 20 22 24 26 25 25 20 20 18 17 17 22 24 16 20 
18 25 30 45 85 101 73 38 66 97 85 48 28 30 31 31 29 30 29 29 26 26 28 25 27 28 27 29 28 32 30 29 29 23 26 26 25 25 25 29 27 27 27 28 25 28 26 29 22 21 22 23 25 26 22 27 24 27 31 32 27 29 28 30 28 22 18 21 26 27 25 21 19 19 19 18 20 20 17 15 
23 23 31 49 91 100 66 38 67 98 79 47 30 28 29 32 31 28 28 30 26 25 27 30 30 28 28 26 30 32 31 28 29 25 21 23 23 24 24 25 26 29 25 26 27 25 29 29 25 24 27 28 26 25 24 27 26 29 28 29 31 27 25 26 25 23 18 19 22 23 26 22 19 17 21 17 20 20 14 14 
21 28 31 47 95 104 62 37 72 95 75 38 31 27 24 31 25 23 25 28 26 26 28 26 27 29 25 30 29 29 28 27 24 25 19 20 23 24 18 20 21 24 26 25 23 26 26 27 27 25 25 24 25 24 23 26 25 24 26 22 26 23 21 21 25 23 19 20 24 27 24 22 18 15 16 16 19 14 18 14 
21 27 32 56 97 93 62 41 74 93 72 32 28 25 28 26 23 24 23 26 26 25 23 24 26 26 26 25 26 25 32 27 25 25 22 22 21 25 22 20 22 23 22 24 23 24 25 25 23 25 26 28 25 24 25 27 28 22 25 25 25 24 26 24 25 24 15 17 22 30 27 23 19 15 18 23 14 14 10 14 
17 28 38 59 101 94 57 40 82 98 67 34 29 27 26 24 25 22 26 30 26 26 25 25 30 27 26 28 27 28 30 31 27 24 19 24 24 21 21 25 25 24 23 23 24 24 24 25 22 25 25 27 24 25 25 24 27 26 29 24 29 27 28 26 26 26 20 19 27 31 27 25 20 18 20 25 19 14 13 13 
20 26 29 53 95 88 54 38 82 96 63 31 25 24 26 27 23 25 24 27 23 23 23 21 22 22 23 27 25 26 28 29 28 25 23 24 26 21 24 24 23 24 27 25 26 25 20 24 22 24 25 19 24 24 25 24 28 29 29 31 28 32 26 28 26 29 21 17 24 29 26 24 24 16 22 23 18 13 14 13 
11 22 25 50 103 92 46 38 86 96 60 31 24 24 26 25 25 23 26 25 25 22 27 25 26 22 24 27 26 26 28 27 28 25 22 27 27 26 24 23 26 25 23 25 25 26 25 26 24 23 23 21 23 22 25 26 31 31 31 33 31 31 30 27 27 32 21 15 25 31 26 28 23 23 24 25 16 17 11 18 
8 0 0 43 105 89 40 30 91 100 56 25 20 22 24 24 23 22 21 27 21 23 23 24 26 23 21 24 25 29 29 26 27 24 25 25 28 25 23 24 26 25 25 23 23 25 28 27 25 27 23 24 23 26 30 28 32 29 33 32 34 28 32 25 30 30 23 21 26 30 26 27 23 21 24 27 15 19 18 14 
8 4 4 48 104 86 33 28 101 106 47 16 13 13 10 17 17 17 18 23 22 19 22 20 19 23 19 22 22 28 25 23 23 23 21 23 23 23 22 22 21 26 22 23 24 22 24 20 22 23 23 24 26 27 26 29 32 28 30 30 33 30 25 28 28 31 21 21 21 28 25 25 21 22 19 22 16 19 17 16 
12 11 19 60 110 91 31 31 101 103 44 16 12 10 13 13 8 12 14 18 15 14 19 18 19 19 21 21 19 24 26 24 27 23 24 22 23 24 23 25 22 26 26 22 25 22 21 24 24 25 31 29 29 31 30 31 31 33 32 29 32 30 29 28 31 31 25 21 24 28 26 27 25 21 23 22 15 17 17 13 
14 14 15 58 105 84 33 33 98 101 41 10 7 10 10 8 13 9 8 6 5 6 8 9 10 12 11 12 9 17 16 20 19 17 18 21 20 21 22 21 23 19 20 22 22 20 24 25 24 26 26 28 29 30 27 25 27 27 31 29 30 23 26 27 24 29 24 22 22 27 28 25 21 24 22 21 18 16 14 12 
15 17 18 65 99 79 32 38 103 100 41 14 10 10 15 10 11 9 10 10 9 8 7 7 9 5 2 8 7 8 9 4 13 10 15 18 19 21 22 23 22 20 22 21 24 27 25 29 24 27 26 29 28 26 28 28 29 26 31 33 30 26 29 31 29 29 25 21 21 28 26 26 24 25 25 25 18 18 16 15 
12 18 20 72 98 70 29 41 109 98 38 21 17 17 18 19 11 10 11 13 7 8 8 5 8 8 5 7 9 7 11 6 5 6 18 22 24 23 19 20 22 24 25 25 27 27 25 29 30 28 29 32 27 30 30 31 30 31 30 30 28 26 30 30 32 33 26 26 22 32 29 27 23 25 26 25 21 19 16 15 
16 13 20 70 95 67 29 44 102 88 33 15 12 12 15 16 11 8 10 10 9 4 9 8 7 4 8 4 8 8 5 7 16 15 20 23 25 19 18 20 22 22 26 25 26 26 25 24 27 24 29 26 25 27 27 24 27 28 27 27 27 27 27 29 30 34 28 21 18 23 26 27 24 21 26 24 23 19 20 18 
17 14 19 75 96 68 27 42 106 85 33 17 18 12 14 16 14 12 13 12 12 11 11 10 10 9 8 9 10 9 18 20 28 23 24 26 22 24 24 24 21 21 29 27 30 29 27 24 28 26 29 27 33 30 26 30 30 29 30 30 32 28 30 31 32 30 31 25 16 27 30 26 23 23 21 30 25 23 20 21 
17 13 20 80 97 67 24 41 103 82 30 17 15 15 15 12 15 10 12 12 13 10 12 10 12 11 10 13 14 18 23 26 26 24 22 22 22 22 21 22 20 21 26 26 30 27 29 27 29 32 27 28 29 29 29 28 31 29 35 29 33 28 32 29 28 33 29 25 20 22 28 28 25 26 26 27 22 27 25 26 
16 13 23 78 96 64 23 46 102 79 30 13 15 11 16 14 15 11 11 12 13 11 11 11 14 9 8 9 12 18 26 24 24 23 22 22 22 24 23 20 22 24 26 22 25 24 25 22 26 28 31 28 31 29 26 27 28 28 32 29 29 27 32 27 30 31 29 27 20 21 22 25 23 19 23 28 22 26 24 23 
14 18 29 87 98 61 25 51 106 84 28 20 16 16 15 17 15 14 12 16 13 14 14 15 15 13 11 9 13 21 27 24 27 20 21 23 24 22 23 23 24 26 27 25 28 27 27 27 26 28 30 30 31 29 29 28 30 33 34 32 31 31 31 29 29 33 37 30 23 19 24 27 26 21 26 30 29 28 23 25 
21 20 29 93 96 64 29 56 107 82 28 21 18 20 21 22 20 15 18 19 15 16 15 17 17 13 11 13 12 18 24 25 26 20 22 23 26 21 23 24 25 26 28 26 31 27 28 27 30 29 31 31 30 29 30 30 29 32 31 33 34 33 33 34 33 35 34 35 24 20 23 27 25 23 25 29 29 31 26 22 
26 23 40 105 99 62 29 61 107 84 34 21 17 18 19 17 17 16 15 17 15 16 18 13 14 10 14 15 15 13 25 22 21 23 22 23 25 23 22 22 23 25 21 27 29 26 31 24 27 31 33 29 28 29 31 29 29 31 34 33 31 36 33 33 31 36 33 33 29 24 15 26 26 22 27 30 30 29 24 20 
73 70 71 122 101 51 27 66 107 80 25 19 16 18 17 17 17 15 15 13 17 15 15 15 18 13 11 14 11 12 22 21 28 24 21 21 23 22 20 23 23 24 24 23 25 24 25 29 25 27 31 29 26 30 29 29 30 29 33 33 31 33 29 32 32 34 32 36 32 21 17 21 22 23 25 29 31 25 22 24 
104 101 102 108 87 42 28 67 104 78 29 19 17 16 16 17 20 16 16 16 18 17 16 15 14 14 15 13 15 15 22 21 23 24 23 22 26 23 22 24 24 26 25 25 25 26 24 25 25 29 29 32 28 32 30 26 30 29 30 36 32 31 34 35 33 33 32 33 32 32 18 17 20 22 24 27 28 24 22 24 
95 94 96 91 71 35 33 75 106 81 27 22 18 19 20 23 20 17 19 20 17 17 19 16 15 12 16 15 15 16 21 25 28 25 23 28 28 25 25 24 27 30 27 28 29 29 30 31 30 31 34 32 34 30 32 32 29 35 36 33 33 33 35 36 31 38 34 33 33 33 29 19 16 18 20 29 30 27 25 19 
40 42 47 47 36 28 30 77 113 80 29 23 22 21 24 25 23 16 17 19 20 20 18 20 18 15 18 17 18 16 24 25 27 25 28 26 28 29 28 27 28 31 29 29 30 29 29 28 30 29 31 33 34 31 34 33 34 37 34 35 34 35 36 35 34 35 36 36 35 36 30 30 21 13 18 21 23 27 25 16 
29 24 19 21 25 26 31 84 117 76 32 23 20 19 19 23 15 14 17 20 21 20 19 17 20 15 14 15 16 15 22 25 27 27 24 28 29 25 25 26 28 29 27 27 28 30 28 29 29 26 30 30 29 30 30 31 29 31 32 29 31 33 32 35 34 35 32 36 34 35 33 33 26 18 19 22 22 20 21 20 
72 63 50 48 42 46 46 97 118 81 29 24 17 18 18 21 19 18 14 19 18 19 16 19 16 18 14 16 15 14 21 26 30 28 25 27 29 24 27 29 30 25 29 27 27 30 27 26 29 30 31 31 30 33 30 32 27 30 34 34 30 30 33 30 33 36 34 31 33 36 32 30 29 25 27 29 25 20 21 14 
118 113 105 101 96 99 99 112 108 71 28 23 18 22 19 24 23 19 22 21 18 21 17 18 17 15 15 16 19 15 21 27 28 30 24 31 27 27 29 28 29 26 27 30 29 27 32 29 30 29 31 30 28 29 28 28 30 30 32 31 34 30 29 35 35 34 34 34 32 37 32 33 27 26 29 32 29 26 24 15 
97 100 92 98 95 96 100 101 92 58 23 19 20 18 20 24 22 20 22 22 21 22 21 19 18 19 17 17 17 16 24 27 26 25 25 28 29 27 29 28 28 30 24 30 26 28 30 30 27 29 28 30 30 28 29 31 30 31 29 30 31 29 34 30 34 39 36 35 34 36 35 31 28 25 25 29 28 25 21 24 
40 42 43 48 53 60 61 62 60 31 21 21 24 22 25 24 22 21 22 20 20 25 19 17 21 16 20 17 18 18 22 29 28 28 24 26 26 27 31 28 29 28 28 30 30 30 28 31 28 29 29 32 34 31 28 29 31 34 29 34 34 30 34 33 34 36 33 35 36 35 31 32 29 25 27 27 27 30 23 19 
27 22 22 25 23 29 29 28 30 22 19 21 22 22 21 24 19 18 23 22 19 19 23 24 23 21 18 20 22 18 24 29 29 25 28 29 29 28 29 29 30 30 30 26 32 31 27 27 29 28 30 32 32 30 31 32 32 32 33 31 30 32 37 32 33 38 35 34 37 32 32 33 29 28 28 28 27 30 23 24 
23 19 16 20 21 24 24 22 27 22 20 21 25 23 25 25 21 22 23 22 21 24 24 24 25 19 21 26 23 19 22 29 33 27 24 25 29 28 29 27 29 27 30 31 28 27 29 30 30 33 32 33 32 29 29 33 31 31 30 29 35 32 34 34 31 36 33 33 34 37 31 32 33 30 28 30 28 32 27 20 
22 20 19 23 23 21 17 21 27 27 23 23 21 23 27 25 28 23 24 25 21 20 25 23 27 21 21 23 20 20 22 29 32 26 27 27 31 26 30 29 32 31 32 28 30 31 32 30 26 31 32 31 35 31 31 31 31 31 32 34 31 33 35 36 34 38 35 35 37 38 29 31 34 29 30 32 30 32 26 24 
27 19 18 20 25 22 21 24 30 28 21 22 24 24 25 30 27 29 25 26 26 24 26 27 27 24 23 26 24 23 26 27 31 29 29 27 31 26 27 29 29 28 30 28 29 29 31 30 32 32 30 32 31 29 34 32 29 33 35 34 35 37 35 38 36 38 37 37 34 36 33 33 32 31 32 34 33 28 28 26 
28 20 17 23 23 24 25 25 29 26 23 28 23 26 28 29 26 26 25 24 28 28 28 27 30 24 23 25 23 22 24 29 34 28 29 28 29 29 27 28 29 29 29 29 31 31 30 28 32 31 32 32 30 33 32 32 31 33 34 36 33 33 34 38 36 38 37 39 36 35 31 29 31 32 33 32 29 36 33 27 
24 25 20 23 25 22 24 22 28 26 25 24 27 24 27 27 24 28 25 31 26 26 26 29 27 28 28 28 26 23 24 30 32 29 31 31 32 29 29 30 32 31 33 29 30 32 33 31 32 31 33 32 30 31 31 31 30 31 34 35 34 31 35 34 37 36 37 36 36 40 34 33 30 31 33 33 30 33 29 31 
24 20 19 24 22 21 23 27 31 26 24 23 24 23 27 25 28 27 25 30 27 26 26 26 27 26 31 31 25 24 24 33 36 30 28 30 28 27 29 30 30 29 29 29 30 31 31 36 33 34 33 35 32 35 31 32 34 33 35 34 34 30 36 36 35 37 35 36 39 38 32 32 29 28 31 32 31 29 36 35 
23 22 19 26 24 21 24 31 31 22 22 24 27 28 26 29 29 27 24 29 28 28 27 28 31 29 29 28 27 23 25 29 34 31 30 31 30 27 30 29 29 35 30 29 30 33 31 34 30 33 34 32 31 31 32 33 36 33 32 32 33 30 35 34 34 37 34 36 37 41 31 37 29 29 33 31 31 33 40 45 
23 20 23 24 26 24 24 29 31 26 22 23 27 27 29 31 30 27 27 29 30 30 28 30 32 30 30 29 27 25 24 31 31 29 32 28 30 30 32 28 33 28 33 33 31 33 36 31 30 32 33 34 31 33 33 35 35 32 34 32 32 31 36 33 35 36 39 38 37 36 34 34 33 30 32 36 41 46 46 56 
23 23 21 24 25 24 26 27 32 29 23 27 25 27 31 28 27 29 29 32 28 31 31 32 32 33 29 29 32 28 26 30 34 34 32 28 34 30 31 30 32 31 32 32 33 34 34 33 31 31 33 31 35 33 36 32 34 33 34 34 32 34 36 31 34 39 38 37 36 38 34 33 32 30 30 37 47 46 48 86 
23 24 22 28 31 29 29 28 29 27 22 29 26 29 30 33 31 32 30 33 31 31 33 37 35 37 32 31 31 30 28 30 35 31 31 31 33 31 32 31 32 33 32 33 33 33 32 30 31 32 31 33 34 35 35 32 37 32 38 38 36 34 37 37 38 41 36 37 42 42 33 35 34 33 34 36 42 42 51 111 
23 23 23 27 30 25 24 32 30 25 25 28 26 27 31 34 32 30 30 35 32 34 34 36 34 33 33 32 30 31 27 34 35 36 34 33 34 32 32 34 31 35 31 33 32 31 32 30 29 30 31 33 31 35 34 33 31 32 32 35 32 35 35 33 35 41 39 37 40 39 33 39 33 33 35 43 39 41 50 117 
24 23 22 26 30 29 25 34 32 25 27 26 26 30 32 35 31 31 34 37 37 34 37 36 37 35 30 33 31 31 29 30 35 34 35 34 35 31 33 32 33 37 33 29 32 31 31 32 33 33 33 30 31 31 28 29 30 29 33 34 35 32 35 36 36 36 38 38 40 39 37 38 36 34 35 45 46 37 45 107 
26 21 23 27 27 27 29 34 31 26 26 27 29 28 32 36 39 36 35 37 36 41 39 37 40 37 29 30 32 29 26 31 33 33 33 37 33 35 34 32 34 37 29 33 34 30 30 31 32 31 35 32 31 30 30 30 29 31 34 31 35 32 36 34 36 38 39 39 43 38 41 46 43 44 49 60 63 53 50 108 
25 31 24 30 31 31 30 31 34 25 25 32 32 31 33 36 38 35 39 37 38 41 44 42 43 36 33 31 33 28 24 28 37 36 37 36 37 33 35 36 34 35 32 35 29 34 33 32 36 33 33 31 33 32 31 30 32 34 37 35 33 35 35 34 37 39 43 42 47 44 45 73 102 113 136 169 153 106 88 133 
27 29 25 30 30 30 29 32 32 30 29 32 29 33 36 37 38 35 39 41 38 43 41 46 45 39 37 37 40 36 34 28 33 34 36 36 39 34 35 36 35 37 34 35 37 35 35 32 34 33 32 35 33 29 30 36 33 34 34 33 38 35 35 31 37 41 42 42 44 51 81 123 157 178 183 188 166 148 149 179 
27 24 23 27 32 32 31 31 33 30 28 35 29 35 37 37 39 36 38 44 41 39 41 44 46 43 44 43 43 42 37 33 33 37 36 40 38 38 37 36 37 38 34 35 35 33 35 34 32 32 33 31 31 33 29 33 35 34 32 34 35 36 39 37 37 46 41 44 53 81 105 120 132 138 141 151 159 167 178 201 
30 26 25 31 32 31 34 32 38 29 32 34 34 34 38 42 41 36 38 45 40 40 45 43 47 48 49 50 47 43 39 33 33 36 38 39 39 37 36 35 37 35 37 36 37 34 33 32 31 31 34 32 34 33 31 35 34 33 34 35 35 37 38 36 39 36 42 44 68 101 114 127 132 134 145 164 178 194 215 238 
29 26 25 32 31 29 31 33 41 32 28 37 34 35 35 38 41 34 41 43 42 45 42 44 44 47 47 48 47 42 37 34 37 39 39 40 39 37 34 39 38 38 35 36 38 33 34 32 34 33 34 34 32 35 35 36 36 37 35 38 39 35 37 38 41 40 41 42 66 106 132 144 149 157 164 186 200 213 234 241 
29 29 26 30 29 28 29 35 41 36 34 36 34 37 41 42 42 40 42 46 46 45 49 49 48 49 53 48 45 45 43 35 34 38 40 41 42 40 40 35 39 41 36 35 38 34 33 35 31 32 35 35 38 35 38 38 37 35 38 35 38 40 39 43 41 43 42 47 68 111 135 151 158 163 177 188 198 210 228 244 
30 27 29 33 30 31 30 34 41 35 34 34 39 40 39 44 43 40 41 48 48 45 51 49 51 55 56 53 47 45 44 37 34 37 41 41 40 36 39 37 40 39 37 39 37 37 37 35 36 38 36 35 37 38 41 44 39 39 39 40 35 42 40 43 37 41 48 44 60 102 130 147 155 159 169 183 199 213 229 240 
34 34 29 36 32 34 33 34 42 36 33 38 35 40 39 44 44 42 46 45 50 48 47 49 58 53 53 52 47 44 44 41 38 39 44 44 41 40 38 39 37 39 39 40 39 38 36 40 34 36 34 38 35 38 50 49 47 50 47 41 41 38 41 42 45 44 45 50 58 97 125 145 155 161 168 182 200 213 224 232 
34 33 34 37 37 37 36 35 40 35 35 37 39 38 40 52 47 45 45 47 51 50 53 48 53 54 54 56 49 51 50 40 37 44 45 45 43 39 39 41 38 43 41 39 38 40 36 35 36 36 37 37 38 45 53 72 81 65 47 43 42 42 42 41 45 47 47 44 56 95 121 141 149 157 164 180 194 211 227 233 
38 39 34 43 40 36 41 40 45 39 38 40 39 43 50 49 52 48 51 54 54 58 56 57 60 60 61 56 56 57 55 47 44 43 45 46 47 43 42 42 39 43 42 41 41 38 39 38 37 40 41 42 45 53 105 214 160 93 60 46 45 39 44 45 44 50 47 46 54 81 119 139 145 155 163 176 192 209 222 234 
43 43 37 46 41 44 44 45 48 42 41 45 43 49 52 57 54 52 55 60 60 60 65 68 63 65 64 63 61 61 56 47 44 40 48 51 50 45 43 41 43 46 43 42 45 41 43 41 43 42 44 41 46 57 123 246 162 90 60 46 44 42 43 45 46 47 44 49 52 79 112 140 144 153 162 175 181 195 217 230 
45 40 41 44 43 45 44 45 54 43 45 49 48 49 50 57 52 55 55 62 67 66 69 64 69 68 65 65 61 57 56 51 47 49 48 51 52 45 42 43 44 46 42 42 43 44 45 42 41 39 42 44 45 50 70 95 88 65 52 46 42 42 42 41 42 45 47 46 49 73 105 135 145 151 156 168 159 162 210 231 
51 45 45 48 49 48 50 50 57 47 49 50 51 55 55 59 60 59 62 67 67 69 76 73 77 74 74 72 68 58 58 52 47 47 48 51 48 40 43 46 45 46 44 45 43 44 44 45 42 42 44 45 45 43 48 55 56 55 52 41 47 44 42 42 43 45 46 47 52 67 104 130 145 148 157 164 159 173 212 224 
62 58 54 57 56 53 52 54 60 53 52 58 50 57 57 63 63 61 65 72 75 77 81 84 80 81 79 78 70 63 56 56 50 49 50 53 47 45 56 63 51 48 50 46 50 46 50 47 44 44 46 43 45 42 42 49 50 46 48 45 45 44 43 41 43 50 51 50 49 65 102 133 144 149 157 168 172 194 212 219 
86 81 76 66 65 56 62 59 62 59 58 60 54 56 58 66 67 64 70 71 77 81 83 82 84 89 91 81 70 65 61 57 53 53 53 55 55 52 88 128 63 54 56 50 51 48 52 47 47 45 48 48 42 44 47 47 44 46 45 46 47 45 43 45 45 48 47 51 52 57 101 129 146 153 155 167 172 194 211 218 


