P2
80 60
256
18 17 21 24 37 51 80 91 70 40 54 88 85 45 37 32 32 28 25 23 25 25 23 21 20 23 24 24 26 30 33 30 30 27 26 28 27 23 25 24 26 25 24 23 24 25 23 27 28 20 15 19 14 14 16 13 15 18 15 18 20 20 19 16 21 18 19 21 24 24 21 22 19 21 21 19 16 12 14 11 
23 22 18 23 34 47 88 90 63 39 61 92 80 40 33 33 31 33 28 22 23 25 25 23 22 20 22 23 27 27 30 29 27 30 28 26 24 24 26 25 23 27 23 26 23 23 25 27 25 17 14 14 12 15 14 15 17 15 16 18 21 17 18 18 20 19 19 22 23 23 22 21 18 16 18 19 15 14 10 8 
17 21 17 23 37 48 88 87 58 41 64 90 75 38 36 30 29 27 25 22 23 24 22 24 23 24 27 27 27 27 29 31 27 25 27 29 26 28 27 26 25 26 26 25 27 26 27 27 28 22 19 17 18 16 14 18 20 18 19 23 23 23 26 24 23 20 21 20 22 22 21 21 14 21 20 18 14 13 6 6 
17 21 19 26 36 49 92 91 48 42 70 90 69 35 30 28 25 29 23 21 25 21 23 24 22 27 26 24 30 28 30 30 28 25 26 25 25 23 25 23 22 24 20 24 24 25 24 28 25 22 20 23 25 21 25 23 23 26 27 29 27 27 27 27 25 25 19 19 22 20 20 20 18 23 22 20 16 12 9 8 
16 21 19 29 37 61 101 87 49 39 75 89 63 34 28 28 25 25 25 19 22 19 27 25 23 26 23 28 27 26 32 27 25 24 28 24 23 21 24 22 23 25 25 24 23 25 24 28 26 27 27 23 25 26 29 28 27 29 29 31 28 27 29 26 20 22 20 21 23 24 20 19 16 23 20 22 17 11 6 6 
16 17 22 31 36 70 97 78 45 45 83 86 58 33 26 24 24 22 20 22 24 25 27 25 22 25 25 26 26 28 31 29 27 28 28 26 26 25 25 22 19 21 25 26 28 26 26 28 29 28 27 27 30 27 28 25 29 30 25 29 24 25 21 25 20 20 19 19 23 23 22 23 20 23 18 16 18 14 10 8 
15 21 24 33 37 66 97 76 40 44 82 81 52 28 30 26 25 23 24 21 21 25 23 25 22 27 22 25 25 28 32 28 27 28 27 23 24 25 27 25 22 22 21 25 24 23 25 31 29 26 29 28 25 26 28 29 27 23 26 26 24 24 22 23 21 22 20 19 24 28 20 23 18 26 22 21 19 12 12 11 
9 12 17 28 33 67 94 69 38 47 85 80 40 26 23 23 23 20 21 19 21 20 20 22 22 21 22 23 23 24 30 26 26 24 25 25 22 21 24 23 20 22 24 22 24 20 22 25 24 25 28 23 24 28 22 21 24 24 24 26 28 21 24 22 23 21 20 21 21 24 21 22 22 19 21 20 14 10 11 12 
4 9 13 25 25 65 95 64 35 43 88 77 41 26 19 21 22 21 20 18 23 22 18 22 22 22 20 20 24 24 29 28 23 25 25 23 25 20 25 24 24 23 22 22 25 23 24 26 26 27 24 24 21 26 22 25 24 22 26 29 25 24 26 25 24 24 23 22 23 22 20 23 23 21 19 18 15 16 15 14 
5 2 1 0 11 71 92 61 27 48 95 78 39 19 20 21 18 17 16 16 21 19 20 20 22 22 23 25 23 27 27 26 22 28 29 23 26 23 23 25 27 24 24 24 25 27 26 28 25 24 23 24 22 24 24 23 24 25 26 27 26 29 27 23 30 24 23 19 24 25 22 22 21 24 24 22 18 17 13 15 
12 13 8 1 12 74 96 53 21 52 102 80 24 13 9 13 15 16 15 16 17 19 19 18 20 22 21 22 19 23 27 27 23 25 23 22 23 24 24 24 22 24 22 24 24 25 26 23 22 26 24 20 22 24 20 25 26 26 26 29 28 28 27 25 24 24 24 18 24 27 24 23 22 24 19 18 18 18 16 15 
13 14 16 15 19 82 96 52 20 54 99 71 18 9 8 8 7 7 10 11 11 15 18 17 17 19 19 19 18 19 29 23 23 25 22 23 22 22 23 26 22 24 21 26 24 23 25 25 27 21 22 25 25 27 26 25 29 27 30 34 27 28 25 26 23 24 24 22 20 22 23 25 21 24 21 21 18 18 13 13 
8 11 16 17 16 81 91 51 21 58 98 68 16 10 6 8 10 6 9 6 1 6 4 7 10 14 14 13 15 19 23 20 20 20 23 19 23 20 25 23 21 21 22 24 24 24 24 23 22 26 20 27 24 24 29 26 27 25 25 26 28 27 24 24 22 26 24 20 21 22 23 22 21 20 19 18 19 16 14 10 
10 12 14 16 19 87 81 41 25 69 99 63 21 10 10 7 7 6 7 3 6 4 5 4 4 6 4 9 7 8 11 8 13 20 23 20 20 21 25 21 26 26 22 22 25 22 22 27 28 26 26 26 24 26 27 28 29 25 24 29 28 28 27 24 22 26 24 20 20 27 25 22 24 24 23 21 20 17 14 14 
12 9 16 18 32 88 76 39 21 75 94 55 19 11 13 10 12 8 6 5 3 4 5 4 4 6 3 6 5 6 9 6 2 6 5 11 16 22 23 22 24 19 25 25 25 24 25 29 26 26 29 28 26 31 28 28 29 27 27 28 27 28 24 25 25 26 25 21 21 25 23 26 23 25 20 23 20 13 15 12 
11 16 13 16 35 92 77 34 24 77 92 52 18 8 11 10 13 11 10 5 5 5 5 6 4 7 6 2 3 6 7 8 6 3 6 14 15 21 21 23 19 19 22 24 24 25 25 27 29 25 26 24 26 28 31 29 30 26 28 30 30 27 27 26 25 26 27 21 19 25 25 24 23 28 26 22 20 20 12 12 
10 14 14 18 42 91 73 30 20 80 85 47 16 9 12 13 10 9 8 6 4 7 7 6 6 6 6 4 8 9 7 8 9 15 19 20 23 23 21 19 20 22 20 21 24 22 25 27 28 28 27 27 29 29 29 28 27 27 25 31 27 28 29 24 22 25 29 24 20 22 25 24 22 23 22 21 22 18 19 15 
14 12 14 18 47 95 74 30 26 86 83 43 18 15 13 14 13 14 12 9 10 11 10 10 8 9 10 7 8 10 12 16 19 26 24 21 22 21 26 22 23 27 25 24 25 24 29 30 27 28 27 29 33 29 30 30 31 30 30 29 32 27 26 28 25 26 27 26 20 24 26 28 28 25 25 26 23 22 16 12 
12 12 16 18 50 90 65 24 24 83 80 40 14 12 13 13 13 9 12 9 7 8 9 8 7 11 6 8 5 11 18 21 20 21 24 21 22 22 23 23 24 21 24 23 25 28 26 27 26 27 26 29 29 28 27 28 28 27 28 27 31 27 28 27 24 27 27 29 21 20 21 22 23 26 25 23 24 19 17 19 
12 13 15 19 57 89 69 24 26 84 79 38 15 12 12 12 16 14 14 9 9 9 8 10 12 9 7 6 7 13 18 25 23 25 21 19 22 21 24 23 24 23 19 23 23 25 24 26 26 25 27 29 29 27 27 27 30 28 26 31 30 28 26 27 25 25 29 27 20 21 23 24 24 25 24 22 23 20 16 16 
17 20 21 21 71 95 68 29 31 92 77 36 20 14 13 14 18 13 12 9 11 9 9 10 9 13 9 10 9 12 17 25 23 27 22 21 20 22 23 23 23 21 24 25 24 26 25 28 28 26 28 27 29 29 27 28 28 26 28 30 29 30 30 27 26 28 30 26 22 24 24 26 26 25 24 21 22 21 21 20 
40 34 32 38 85 103 71 24 37 95 77 34 16 16 16 13 16 17 14 10 11 13 10 11 9 10 11 8 10 13 14 19 23 23 20 23 19 22 23 23 23 22 23 26 24 25 24 28 30 23 26 28 29 31 30 28 29 29 29 29 31 31 28 29 26 26 27 27 26 25 20 25 24 26 21 21 24 23 17 17 
98 94 89 89 106 105 58 20 43 93 77 32 17 17 10 14 13 15 12 11 11 12 12 11 11 10 9 10 12 12 11 20 22 20 20 19 20 22 24 19 23 25 25 24 22 25 26 29 27 27 30 30 28 30 29 27 31 25 28 30 30 25 30 29 26 28 27 25 25 23 21 23 23 23 22 23 26 21 20 15 
99 97 99 100 100 90 47 25 50 93 77 28 16 12 13 13 13 11 13 12 12 13 15 13 10 10 11 11 10 12 12 19 20 19 20 20 22 22 23 22 22 25 25 26 25 26 25 26 29 27 27 28 28 26 28 29 31 28 26 30 30 26 29 26 29 26 30 28 26 26 21 22 23 23 21 24 22 21 18 22 
56 61 72 79 76 66 30 24 55 100 75 27 20 16 16 14 17 15 13 13 12 13 14 14 14 11 11 11 12 12 18 19 24 23 23 24 24 22 26 25 26 28 26 25 27 26 27 31 27 30 27 29 29 31 30 26 28 29 29 30 33 30 32 29 30 28 28 29 27 26 25 24 23 22 23 22 26 23 21 16 
25 27 26 27 28 29 23 27 59 103 78 30 20 21 14 17 18 20 15 11 13 14 13 14 15 14 15 13 13 15 16 21 24 28 25 23 26 23 28 26 27 27 26 30 29 28 28 29 28 30 28 29 28 29 31 29 32 31 28 32 31 29 29 31 29 30 30 28 29 30 29 27 22 19 20 22 23 22 18 19 
41 40 31 30 23 26 24 31 69 110 80 28 19 18 18 15 18 13 16 13 12 14 16 15 13 15 13 10 12 16 15 23 25 24 26 22 23 24 26 26 27 26 27 27 24 25 26 29 27 28 29 31 29 30 28 30 29 30 30 31 31 29 29 30 26 32 29 29 29 30 28 25 26 26 21 20 21 19 19 15 
106 106 95 87 75 70 58 57 89 116 82 27 19 18 18 15 18 13 17 12 11 14 13 16 14 17 14 14 12 13 14 22 22 26 22 22 23 24 26 27 26 25 24 27 25 26 26 28 29 29 30 26 29 26 31 30 27 28 26 27 29 31 28 28 28 25 30 28 30 26 25 27 26 27 27 27 25 24 18 20 
105 111 110 104 103 97 92 89 103 101 73 20 17 17 17 18 22 17 16 16 14 19 14 14 16 14 15 12 14 14 14 19 26 25 27 26 27 23 29 29 26 29 27 26 27 25 27 31 31 25 31 28 28 28 29 30 30 28 28 26 27 30 29 28 29 29 30 29 29 31 31 26 26 26 28 28 25 25 25 22 
58 65 72 78 80 89 88 85 93 85 53 15 17 17 18 18 18 17 16 14 14 18 18 18 17 15 18 14 16 14 15 20 24 24 27 27 24 26 31 29 29 27 26 27 27 28 28 30 26 28 29 30 29 29 30 28 30 28 26 27 28 32 30 26 30 32 31 32 31 30 34 33 30 30 29 26 26 28 21 25 
22 26 30 28 26 33 36 40 46 38 23 17 16 18 16 18 22 16 19 16 17 20 18 18 16 21 16 17 16 15 14 21 25 23 24 26 25 27 28 28 27 29 30 28 26 29 30 29 28 30 26 30 26 27 27 27 32 29 29 32 34 31 30 32 28 28 29 29 30 31 31 29 27 27 26 23 26 26 25 22 
20 21 22 21 22 22 21 20 26 24 21 18 20 21 18 19 20 21 18 14 18 17 18 20 18 19 15 16 17 16 16 21 26 24 26 22 27 26 30 27 29 29 25 30 30 27 27 30 30 33 28 29 31 32 31 29 31 29 29 31 34 30 31 32 29 30 33 30 29 29 31 32 30 30 26 27 27 30 22 22 
16 20 22 19 20 20 21 18 21 22 19 17 17 19 21 19 22 19 18 19 17 20 19 20 19 19 17 19 18 16 16 23 25 27 25 26 23 25 28 25 26 29 28 27 26 27 24 29 28 30 30 32 34 27 31 30 28 29 29 31 33 29 31 29 27 31 29 30 32 31 27 28 27 31 30 28 29 26 26 24 
17 20 20 22 20 19 20 16 22 23 18 16 19 22 22 20 20 21 19 17 19 20 22 21 23 20 18 18 20 21 18 26 27 24 27 25 27 29 28 28 29 27 28 30 28 28 28 31 29 31 32 31 28 29 33 30 30 29 30 33 30 33 33 33 32 31 31 33 32 32 33 32 32 34 34 30 30 31 28 22 
18 21 17 17 17 20 19 17 20 20 22 17 20 18 19 21 21 21 19 22 19 21 21 22 23 23 19 20 21 17 19 25 26 26 27 27 29 24 26 28 29 27 27 31 29 28 25 29 30 33 32 31 30 32 30 26 32 32 28 33 36 32 33 31 31 30 31 31 31 34 30 32 30 33 34 28 26 29 28 31 
18 23 22 18 19 22 17 14 21 19 20 17 20 21 23 20 23 21 20 19 21 22 21 23 20 22 21 21 23 21 18 26 27 28 27 28 29 26 28 27 29 28 26 28 27 27 29 29 29 33 29 30 29 27 30 30 32 30 29 33 35 31 34 29 31 31 31 33 30 35 31 31 31 32 36 31 27 28 29 33 
23 21 24 23 21 20 21 17 27 27 21 18 21 23 21 25 24 22 22 23 19 22 22 23 24 22 23 22 22 20 21 27 28 29 28 29 30 27 31 29 30 29 29 25 29 30 32 34 30 32 33 33 32 29 31 29 32 30 31 33 38 32 33 32 33 28 35 35 29 33 35 33 29 35 36 32 32 32 35 35 
19 21 25 26 20 27 23 21 25 23 19 20 23 22 22 22 24 25 25 23 23 24 20 23 26 25 25 24 27 23 21 24 30 29 27 28 30 31 28 30 31 30 32 27 30 31 30 36 33 35 32 34 30 32 35 32 32 32 30 31 32 32 32 30 31 29 33 35 32 33 32 33 31 31 35 32 32 31 34 42 
20 18 19 26 21 23 17 18 27 21 21 18 21 22 24 24 25 26 25 24 20 25 24 24 23 27 23 25 27 22 21 24 26 30 31 28 32 28 28 29 28 31 26 28 30 29 30 31 29 29 31 32 31 32 30 31 33 30 31 31 30 33 31 31 30 29 33 31 34 34 28 31 29 34 33 29 35 37 38 48 
23 19 22 24 20 22 20 14 27 20 19 19 21 21 22 24 26 26 27 22 23 25 24 26 26 27 26 28 27 25 25 26 30 30 30 30 30 30 31 29 31 29 30 30 30 29 32 31 31 31 33 31 31 32 31 32 32 30 30 31 29 33 32 29 31 28 36 35 34 33 33 34 31 28 32 38 43 45 40 42 
17 24 21 23 23 24 20 17 23 23 19 20 21 24 25 29 30 27 26 23 26 25 26 27 29 29 31 26 27 24 26 28 31 29 34 29 30 29 31 29 32 36 31 30 31 32 29 31 29 31 33 29 32 32 32 32 32 33 27 31 32 32 31 29 32 30 34 34 33 33 36 34 30 31 32 32 38 36 38 40 
21 20 19 27 22 25 21 20 27 26 20 20 22 23 22 25 28 29 28 26 28 29 27 29 30 29 28 28 26 26 23 26 33 29 30 29 31 29 33 31 32 31 30 29 31 33 33 31 33 28 33 31 31 34 29 32 33 30 31 30 31 31 29 32 31 31 33 32 34 34 31 35 33 34 35 36 36 33 34 38 
17 22 20 25 23 26 21 20 25 25 20 20 23 26 26 26 27 28 29 27 28 29 30 30 29 31 28 28 29 29 27 26 34 31 35 31 29 31 31 30 31 29 29 31 30 30 27 30 30 28 30 32 29 31 29 28 28 30 28 28 30 29 28 32 30 29 32 32 35 35 36 35 37 35 36 36 37 39 38 40 
15 16 22 25 27 28 24 27 25 26 19 20 23 27 24 28 26 31 31 27 30 29 31 34 29 32 30 29 29 28 26 29 31 37 32 33 31 32 34 32 30 31 28 30 29 28 30 29 30 31 31 31 31 30 30 27 27 29 31 32 33 30 30 32 29 30 33 34 34 39 40 39 40 47 52 56 68 77 92 110 
18 21 21 25 19 25 24 24 25 26 24 22 27 29 26 31 29 31 33 29 31 31 32 31 33 32 30 27 25 27 30 26 30 35 30 32 34 32 34 31 32 29 30 30 32 29 28 28 30 33 32 28 27 27 27 30 30 27 31 31 32 28 33 32 32 32 35 35 35 46 65 80 90 105 111 123 135 148 165 185 
18 25 24 24 25 28 27 24 24 27 24 22 28 30 31 31 32 33 29 32 30 35 35 33 34 35 34 28 29 31 28 27 32 31 34 33 31 34 33 30 33 34 28 29 32 31 32 32 31 33 32 30 30 29 29 28 26 34 30 31 34 29 33 33 33 33 37 36 35 67 105 121 131 139 145 155 165 185 197 219 
20 24 23 26 22 26 26 23 25 30 22 24 27 30 28 30 31 34 36 32 35 37 32 37 36 32 32 29 29 31 26 24 29 31 33 33 32 31 34 35 33 32 31 32 31 29 29 31 28 32 31 32 33 31 30 27 33 30 30 30 32 31 34 32 32 33 40 38 42 72 116 147 154 161 168 184 197 210 227 243 
21 23 25 22 28 30 27 22 24 30 26 23 27 30 30 30 31 32 33 30 35 36 36 37 39 35 35 38 35 34 36 31 29 31 32 35 32 32 35 33 34 35 31 31 29 32 30 31 32 31 31 32 31 31 28 29 30 31 28 30 32 32 32 32 28 31 36 37 36 70 115 153 162 174 182 194 203 219 241 251 
22 23 25 27 23 30 28 24 27 31 24 25 31 34 31 34 33 34 36 34 35 35 35 38 39 44 42 43 41 39 39 32 32 33 36 36 33 32 38 35 32 31 31 33 32 29 32 33 32 32 32 32 32 29 30 33 32 29 30 29 34 37 36 34 30 31 37 37 38 65 117 148 165 175 180 190 204 218 237 256 
24 26 25 27 26 28 28 24 26 33 25 24 30 32 33 31 33 35 34 33 34 39 36 38 39 43 44 44 42 39 37 35 29 30 35 34 34 36 33 34 32 35 32 33 30 31 31 31 28 30 32 31 31 30 33 28 31 29 30 33 32 38 34 33 31 33 37 34 37 61 110 147 162 173 181 187 199 220 237 249 
22 30 27 30 25 31 28 26 28 34 27 27 32 36 32 33 35 35 37 35 38 39 41 41 38 43 46 46 40 43 39 34 33 34 36 35 37 35 40 37 34 35 37 33 34 30 31 30 27 30 31 29 32 33 30 31 31 33 32 30 34 36 32 33 33 37 35 37 37 63 109 140 155 167 175 187 198 216 231 252 
26 27 29 30 28 30 27 26 32 34 31 28 33 33 35 35 35 38 38 36 41 43 40 42 42 45 48 42 42 40 41 37 33 33 40 35 37 37 35 37 35 34 32 34 32 33 31 31 34 32 30 31 32 31 36 35 36 32 32 34 35 35 33 34 34 36 37 36 42 55 102 134 155 162 171 186 196 213 234 246 
26 30 30 30 31 35 27 33 30 32 29 28 33 31 33 36 37 40 41 40 44 47 44 42 47 47 53 47 43 42 42 42 33 33 39 37 38 34 38 37 37 35 33 35 36 29 31 33 33 33 34 34 35 34 40 41 37 37 36 37 33 33 32 34 32 39 37 33 40 52 102 135 155 163 171 181 194 207 227 240 
30 31 32 33 35 35 32 30 34 38 35 30 39 35 33 36 39 38 43 43 45 49 47 46 48 50 54 48 48 44 45 40 35 34 43 40 38 39 41 40 34 37 32 37 35 33 34 32 34 32 37 36 36 40 46 45 40 40 36 36 34 36 37 34 35 35 33 36 37 51 97 132 150 162 168 175 181 180 212 249 
31 35 32 37 35 37 36 34 37 36 36 36 41 39 41 39 44 43 45 44 47 50 49 54 52 55 56 52 50 48 47 43 36 37 43 44 39 43 41 41 38 41 39 37 37 35 35 34 36 38 35 36 37 42 50 64 77 63 48 40 38 34 37 35 37 38 39 42 39 52 95 131 151 159 167 169 169 160 210 253 
35 40 39 40 38 39 40 36 40 41 38 35 41 43 41 44 46 47 50 49 52 56 58 55 56 61 59 60 53 54 53 45 40 42 46 47 43 46 44 43 42 41 40 41 39 40 35 38 38 39 42 40 42 44 81 194 168 104 61 49 43 37 38 37 38 37 43 37 45 52 94 131 153 162 168 175 183 193 227 241 
42 44 39 46 41 44 39 37 42 44 43 38 43 44 44 48 52 51 53 54 58 60 63 64 61 62 61 61 54 58 55 48 41 46 49 47 46 45 44 42 42 42 42 40 40 40 39 38 40 40 40 41 44 46 92 239 180 102 59 50 42 39 38 36 33 39 46 41 46 54 91 125 150 163 171 177 191 203 222 231 
47 45 47 48 46 46 46 44 45 48 48 41 47 48 49 50 52 54 57 60 62 63 65 63 67 66 65 63 59 57 55 47 42 44 47 50 47 47 42 40 41 41 43 40 42 39 41 39 41 40 38 41 42 46 62 93 91 69 53 49 40 37 40 39 37 41 43 40 43 49 87 123 152 167 168 181 190 204 217 229 
56 52 58 55 51 55 52 50 49 53 49 45 52 51 54 53 54 57 61 62 66 70 71 75 76 75 77 75 63 60 55 50 45 47 52 48 47 42 42 44 43 45 42 43 42 44 42 44 43 43 42 46 43 45 48 53 56 52 48 46 41 40 38 36 36 38 41 39 43 48 82 124 150 165 174 180 193 207 220 230 
74 73 65 62 55 56 57 56 54 54 49 45 56 57 59 56 57 61 67 70 71 74 78 80 79 84 81 76 65 62 59 54 47 50 48 52 51 51 62 74 48 45 48 49 46 47 46 47 45 48 47 48 43 46 48 49 49 47 45 42 44 39 39 39 37 40 41 39 42 46 73 129 146 168 174 180 192 207 226 236 


