P2
80 60
251
22 28 22 27 37 48 81 99 73 53 62 92 93 51 42 41 39 35 32 30 33 35 33 23 29 28 27 31 32 35 38 34 36 33 32 31 33 28 30 29 31 30 32 30 30 32 32 30 29 22 20 19 20 19 20 18 19 24 21 20 18 18 21 23 23 21 21 23 25 26 23 23 23 20 21 18 17 13 12 10 
28 28 24 27 36 52 92 104 71 50 68 96 88 50 41 41 38 36 36 29 30 32 31 28 28 25 29 31 34 37 39 33 35 33 34 31 32 31 33 32 27 30 31 31 31 32 36 31 31 24 19 23 19 17 20 21 21 19 20 24 20 20 21 25 26 24 21 26 27 26 27 23 25 19 21 22 20 18 12 13 
23 28 25 28 36 52 90 99 67 49 75 94 82 45 42 39 35 33 36 31 31 29 29 29 29 30 35 33 33 36 37 36 34 30 32 31 30 31 31 32 28 32 30 29 29 36 34 30 35 25 25 23 26 24 22 25 25 22 24 25 25 26 29 28 30 20 20 22 29 25 25 26 19 22 22 24 20 17 11 15 
25 28 24 31 39 52 98 101 57 52 77 93 79 44 36 37 35 36 32 33 29 29 30 29 29 32 33 32 37 36 37 35 34 30 32 29 32 32 30 29 28 31 30 30 33 34 32 32 32 27 28 27 30 27 29 30 28 29 32 34 28 30 29 32 32 23 21 25 25 24 22 24 23 22 24 24 22 15 11 13 
25 29 25 28 40 64 108 101 55 49 83 93 68 43 35 34 29 31 32 29 27 25 32 31 30 32 33 31 35 34 39 35 33 30 32 29 29 26 28 27 29 30 31 28 30 34 34 35 32 33 32 29 29 32 33 34 30 32 31 32 29 29 31 32 29 24 22 23 26 25 26 25 23 22 24 21 22 11 6 10 
24 25 26 32 38 73 104 91 54 51 89 89 65 39 34 32 32 29 32 28 31 32 33 33 28 31 35 33 35 37 35 35 34 32 31 32 31 29 27 29 27 26 31 32 32 33 32 32 35 34 34 32 35 32 30 34 31 35 33 33 28 31 26 29 29 25 19 24 29 24 27 25 24 23 26 22 21 12 8 9 
24 33 30 34 40 72 107 90 46 57 91 90 60 35 35 31 32 30 34 32 29 31 28 29 30 35 32 33 32 34 36 34 36 34 32 32 31 33 30 29 28 28 29 31 29 33 32 35 32 34 34 35 35 30 33 34 32 30 31 29 28 30 27 29 31 23 25 21 28 25 25 28 24 22 27 22 21 9 9 12 
19 23 21 27 38 70 103 81 43 52 89 89 50 30 28 27 30 29 31 32 28 30 28 25 26 28 29 28 29 32 33 32 32 28 32 30 29 29 30 27 31 30 30 30 30 31 30 30 31 28 31 29 29 31 27 26 28 28 27 26 28 25 29 29 29 23 21 19 24 26 25 22 26 24 24 19 15 10 10 7 
15 13 13 29 31 70 102 75 39 50 99 85 48 31 26 26 25 28 29 27 28 28 28 26 27 26 28 29 31 33 34 33 30 29 32 28 28 29 30 30 30 28 28 32 30 32 33 31 31 31 26 28 29 30 27 32 29 29 29 28 27 28 30 29 30 31 22 21 24 27 25 29 24 21 23 21 15 14 9 8 
13 12 3 0 13 75 102 71 32 54 103 86 46 30 25 25 25 25 23 25 30 27 27 27 28 31 31 31 31 32 33 32 31 29 32 28 32 29 29 30 31 33 31 30 32 33 33 33 32 32 26 27 26 29 29 30 30 31 30 30 31 29 32 29 33 27 24 22 25 27 28 24 26 27 23 21 16 15 15 12 
19 19 10 3 13 80 103 68 26 56 109 87 33 17 14 20 19 23 24 23 24 24 23 25 27 28 27 27 29 30 34 33 28 29 28 27 28 30 29 28 29 28 31 30 30 33 35 31 29 28 26 27 28 29 27 27 30 33 32 31 31 28 31 30 30 29 26 18 26 28 27 25 27 22 23 23 16 14 11 16 
16 22 20 15 22 90 104 63 26 66 107 83 26 15 13 17 11 16 18 19 20 24 22 22 24 24 27 27 28 27 32 27 28 26 29 27 28 27 27 31 29 31 29 32 29 32 32 31 32 29 28 30 30 31 29 30 34 34 33 37 29 32 28 31 30 30 25 23 24 25 28 26 25 26 27 20 16 17 10 14 
20 22 17 15 18 86 98 62 26 66 105 73 20 14 7 12 13 13 16 10 8 13 10 13 17 19 25 20 23 24 28 24 27 25 26 25 28 27 28 30 27 31 30 28 28 29 30 27 27 29 26 29 32 29 30 30 34 32 30 27 30 32 29 29 27 31 27 20 22 24 28 26 26 22 24 23 18 13 12 14 
19 23 19 17 24 94 89 54 32 73 107 69 25 16 17 15 14 15 15 13 13 12 10 13 11 11 11 13 14 14 15 16 21 24 27 23 26 28 31 29 30 31 29 29 31 28 31 33 31 31 30 31 31 33 32 32 33 31 30 33 32 31 27 30 28 31 26 24 22 27 29 27 28 23 26 25 19 12 12 15 
21 20 20 21 38 92 90 50 30 84 103 61 26 18 17 16 18 16 13 13 9 11 12 13 11 15 13 12 15 11 14 11 10 10 9 17 23 26 29 28 29 25 31 30 30 31 32 32 31 33 32 34 32 33 33 34 32 33 32 31 33 31 27 32 30 31 30 22 20 23 27 29 29 24 24 25 19 14 11 14 
15 21 16 19 39 96 86 43 28 85 101 55 25 17 17 19 17 14 16 13 14 13 12 13 9 13 14 9 12 16 13 13 15 9 11 17 21 27 24 29 25 25 30 34 31 31 34 31 35 32 33 32 32 34 32 31 34 31 35 33 32 32 32 29 32 33 30 25 19 25 28 25 27 26 27 26 24 20 12 18 
18 19 16 20 45 97 83 39 27 91 95 52 21 17 18 18 18 16 16 15 16 15 14 13 10 12 14 12 15 16 15 12 14 18 24 26 27 28 27 23 24 27 26 29 26 30 32 29 34 35 33 31 35 33 32 32 31 32 30 34 29 31 31 28 29 31 31 25 18 22 27 26 26 26 28 21 23 21 14 18 
19 19 19 19 51 101 82 40 30 96 96 47 24 21 22 20 22 18 19 16 16 18 15 15 11 14 14 13 13 16 15 22 28 30 31 26 30 27 30 28 27 33 32 31 30 32 38 35 34 32 34 35 38 36 34 35 35 35 35 33 34 30 31 32 30 31 33 27 20 22 27 30 30 25 29 25 25 22 18 21 
19 21 20 20 53 95 73 35 29 93 91 45 22 16 20 20 17 16 20 15 17 16 15 15 14 14 13 13 17 18 23 27 29 29 28 24 27 26 28 27 30 28 28 29 33 31 31 32 32 32 33 34 33 31 33 35 31 34 31 31 33 31 31 33 32 33 34 31 23 20 25 23 28 24 31 26 24 24 21 19 
25 22 20 24 63 96 79 33 33 93 91 44 22 21 20 20 23 21 22 18 15 19 16 17 16 15 16 15 16 20 25 30 30 28 28 23 28 26 27 29 28 29 27 29 29 34 32 34 33 32 35 33 35 35 34 32 33 33 35 34 33 33 30 31 34 32 34 30 20 18 23 26 31 27 27 23 26 26 20 20 
27 29 22 23 72 102 77 36 35 105 90 43 24 20 20 21 24 23 21 19 18 18 15 17 15 20 17 16 18 18 23 29 29 30 27 24 28 27 26 26 28 27 32 32 30 33 35 33 33 33 36 33 33 33 31 31 32 31 36 37 33 35 34 34 33 33 32 30 23 16 22 26 28 26 28 24 26 26 20 23 
49 45 37 37 89 111 80 35 45 104 89 39 21 19 20 21 20 23 21 18 18 18 16 15 17 14 16 15 18 18 19 26 28 28 26 25 26 26 25 30 30 29 32 31 30 34 32 34 35 30 33 31 33 36 33 34 35 34 30 32 32 34 32 36 33 33 32 31 30 20 18 25 26 25 25 26 29 25 21 20 
104 103 91 91 110 112 67 31 51 102 87 35 23 21 18 20 19 20 20 19 21 17 19 15 17 18 22 15 19 19 19 27 29 25 26 22 28 26 28 26 28 31 32 32 30 35 33 29 32 34 35 35 34 32 32 31 33 33 32 33 33 31 33 33 31 34 33 33 30 20 14 20 27 25 26 28 30 24 21 18 
104 104 100 102 102 96 56 36 56 104 87 33 22 17 18 20 17 19 22 20 22 20 17 17 16 14 18 15 15 19 19 24 28 26 26 23 27 27 28 30 28 27 30 33 32 34 33 28 37 34 33 32 34 33 33 31 35 33 32 34 33 30 34 33 34 32 35 35 31 27 20 17 21 24 25 30 26 25 16 17 
61 66 73 81 78 68 37 33 63 109 88 34 25 19 21 24 22 23 21 21 19 18 21 20 19 14 21 18 22 20 22 23 27 27 28 27 29 28 30 31 32 32 30 31 35 34 33 34 35 35 34 33 36 35 31 33 38 37 33 32 34 34 36 34 35 34 35 33 33 33 27 18 20 22 22 26 25 27 24 22 
35 33 33 31 33 34 30 36 66 115 89 36 25 22 21 24 23 23 23 22 21 21 21 20 19 20 21 20 20 23 23 25 27 32 27 28 29 29 32 35 32 32 34 37 34 33 36 33 36 36 35 35 35 34 36 34 35 37 33 33 31 34 35 35 34 36 36 34 36 33 31 28 21 13 21 21 20 25 21 18 
51 42 35 32 28 27 29 40 74 121 90 33 23 23 21 24 23 21 22 21 22 19 21 21 19 21 18 19 19 20 21 28 31 28 30 26 29 31 30 33 32 33 34 33 30 33 34 33 34 35 38 35 34 38 35 35 31 37 36 30 34 33 34 34 32 34 34 37 33 33 31 30 28 20 18 19 18 18 16 18 
112 115 101 86 74 74 67 66 97 123 91 34 26 24 24 22 24 22 26 21 20 21 19 20 21 21 23 19 20 17 20 28 29 29 28 29 33 30 31 33 34 30 36 34 31 34 35 32 33 36 36 32 36 35 35 34 32 33 34 33 32 34 34 34 35 32 35 32 34 33 33 32 30 32 30 27 24 24 22 23 
107 112 108 105 96 103 100 98 108 107 80 27 25 25 23 26 24 24 22 24 25 22 21 19 20 24 22 19 22 22 21 27 33 29 33 30 31 31 32 34 31 33 33 35 33 37 32 38 34 32 35 37 35 35 32 32 35 37 35 33 32 32 33 37 35 37 36 35 35 32 34 32 33 28 31 32 30 28 23 23 
64 74 77 81 83 91 93 93 95 91 63 24 24 24 22 25 24 26 24 25 24 24 23 23 23 26 24 19 25 18 21 27 32 28 32 30 29 34 35 35 36 36 35 31 33 34 35 35 33 34 35 35 33 33 33 31 32 33 33 34 32 32 33 33 37 38 37 36 36 31 34 35 33 28 29 29 30 29 26 25 
30 37 34 28 31 39 44 48 52 47 34 23 22 24 25 26 26 24 25 23 24 24 25 27 21 23 22 24 22 21 22 30 31 34 30 30 31 34 33 34 32 34 37 33 33 37 34 34 35 33 36 35 34 34 32 35 35 36 34 35 35 36 34 37 35 35 37 39 37 32 33 34 32 31 32 31 32 27 26 25 
28 30 26 23 22 25 30 31 30 30 29 23 23 23 24 26 23 28 26 22 27 28 25 23 23 25 22 24 26 23 23 25 32 31 31 29 33 33 34 34 36 37 35 33 33 32 34 35 37 37 35 36 38 37 35 36 34 35 37 33 35 35 34 36 33 36 38 36 37 36 35 34 33 32 30 31 28 28 26 27 
25 29 26 25 25 24 28 31 29 31 29 20 23 24 27 26 28 27 26 28 25 26 24 24 25 25 24 24 25 23 21 26 32 31 31 30 30 31 32 33 33 35 37 35 33 33 34 33 37 35 37 36 35 32 36 32 32 34 35 36 35 34 33 36 34 36 37 37 36 33 35 32 36 30 31 30 27 29 25 29 
25 29 24 27 24 24 28 29 27 32 29 21 23 27 31 28 29 28 27 26 28 28 28 26 27 24 26 24 26 25 24 32 36 32 31 29 31 35 31 35 35 36 35 37 35 33 33 36 37 35 38 37 36 36 37 37 35 36 34 35 35 37 36 37 38 38 37 39 37 33 36 35 38 34 35 30 29 35 27 26 
28 31 27 19 24 26 23 29 29 31 29 21 26 26 28 29 29 28 28 26 27 25 28 27 27 29 29 24 28 24 25 29 31 29 33 31 34 31 33 32 35 33 32 38 36 37 33 33 35 36 36 37 35 35 34 33 35 36 33 37 37 35 36 37 39 38 38 36 35 39 33 35 34 34 36 28 26 29 29 30 
29 34 29 24 23 28 29 25 30 29 27 22 25 30 27 31 30 31 30 28 31 30 29 29 29 30 29 28 33 25 25 31 33 31 33 34 35 31 33 33 31 37 36 36 35 37 37 36 37 39 36 35 37 39 37 36 35 38 36 36 37 35 37 37 41 37 41 38 34 37 35 34 34 33 35 30 27 34 33 31 
29 31 28 25 24 24 26 29 31 33 30 24 26 30 28 32 28 30 33 32 30 29 30 30 29 29 30 29 28 30 24 32 34 36 34 34 35 34 35 36 34 36 36 34 35 38 40 39 39 36 39 37 40 36 36 37 39 35 34 37 39 36 36 41 38 37 39 41 37 37 37 34 35 36 35 29 31 32 30 35 
27 30 28 24 23 29 27 30 32 29 30 27 27 26 30 29 29 31 32 30 29 32 28 29 29 31 32 31 32 30 28 29 36 35 34 31 34 34 33 34 38 36 38 35 35 38 38 35 37 40 37 39 34 37 38 36 37 37 35 34 35 37 37 34 36 36 40 40 38 37 34 34 35 33 34 29 32 30 35 37 
25 32 29 23 21 30 27 28 33 31 24 24 30 29 32 32 30 31 33 32 29 30 31 28 29 33 33 31 34 30 30 27 31 32 36 33 35 34 34 34 35 37 35 34 37 36 36 38 37 34 37 37 37 37 35 34 38 36 36 32 33 39 36 36 34 37 38 37 38 37 35 34 33 35 35 29 37 42 40 46 
28 30 30 25 25 27 27 26 32 29 29 27 27 27 30 34 31 29 35 30 31 30 33 32 34 33 33 33 32 32 31 28 36 33 33 32 34 38 36 36 35 37 36 36 36 35 42 36 35 34 36 35 36 33 37 38 38 37 32 34 34 37 34 33 35 36 37 41 38 39 34 37 34 31 32 37 58 49 44 41 
29 31 27 23 27 29 29 26 28 29 29 26 29 28 31 30 33 35 35 33 34 32 35 31 31 35 36 32 35 31 30 34 33 35 33 33 34 33 36 36 38 37 37 38 37 38 37 36 36 37 40 33 36 38 35 34 34 37 35 37 34 35 32 36 35 36 37 40 37 36 35 35 37 33 33 34 41 41 42 43 
25 27 24 25 28 26 30 26 30 29 29 25 30 28 30 31 34 34 36 33 35 37 33 37 36 36 35 33 35 32 31 29 37 34 34 34 37 36 37 38 39 39 37 38 36 37 39 37 40 36 37 38 36 37 38 37 35 33 37 35 33 35 32 38 35 37 37 38 39 37 36 38 37 37 38 39 36 39 40 43 
27 30 24 25 27 30 30 29 30 33 29 27 30 34 30 35 33 33 34 35 36 35 36 35 34 36 32 36 35 33 30 34 38 36 34 34 35 38 35 38 37 38 39 37 35 37 37 36 36 34 36 37 33 34 33 34 32 35 33 34 34 34 34 36 34 37 39 36 39 35 38 38 42 40 39 41 42 43 38 38 
26 27 25 25 26 29 32 36 32 33 26 27 29 33 31 37 30 36 37 35 37 38 38 38 34 39 35 36 35 35 32 33 39 37 34 34 40 37 41 36 39 41 38 35 37 37 34 33 37 36 36 39 34 36 35 32 31 34 36 34 32 37 36 38 33 36 39 41 39 42 41 43 48 47 56 61 70 86 98 113 
26 31 26 26 24 33 30 34 31 33 28 28 31 36 30 39 35 35 39 37 42 38 40 39 39 42 37 36 34 35 30 30 37 36 35 36 38 38 41 37 38 37 35 36 35 37 35 34 37 34 36 36 33 34 33 32 34 35 36 32 33 33 36 36 35 37 41 41 38 47 71 82 94 106 117 125 137 152 169 188 
29 30 28 24 28 30 35 36 31 35 30 29 32 38 34 35 34 39 40 41 38 42 41 39 39 40 38 36 35 35 33 32 36 34 34 36 38 40 35 39 39 39 35 36 37 35 39 37 39 36 39 37 35 33 33 31 29 39 35 31 35 36 39 38 40 37 39 43 41 69 108 126 137 140 152 159 168 187 203 222 
26 32 28 29 29 28 36 33 30 36 31 28 33 34 36 38 37 38 41 39 40 45 43 42 41 40 36 35 37 38 35 28 34 37 38 39 38 38 38 42 40 41 38 39 37 38 37 35 36 35 38 37 36 37 34 32 35 36 35 37 37 37 37 40 38 39 41 41 46 76 121 149 160 166 178 187 201 219 237 242 
29 33 26 26 29 33 33 32 31 36 33 29 36 36 34 36 37 36 43 41 40 41 43 43 39 43 44 44 42 41 43 37 35 35 37 39 38 39 39 39 40 41 39 37 36 36 37 36 37 36 37 37 32 35 33 32 33 35 35 36 35 37 36 38 34 37 40 43 43 73 124 156 168 176 184 196 207 225 247 245 
31 32 29 29 29 31 32 32 33 38 33 31 34 38 34 39 41 40 43 42 43 42 45 45 43 49 49 49 46 44 45 39 37 36 40 39 39 40 41 40 40 38 39 41 37 35 38 36 36 39 35 38 38 35 33 35 37 35 36 33 37 40 38 38 35 39 42 42 42 69 119 153 170 178 185 195 207 226 240 251 
31 32 30 29 29 32 33 30 32 38 34 28 35 36 37 37 42 40 40 40 43 44 43 44 42 48 51 48 48 44 46 38 37 38 40 38 37 41 38 40 39 40 39 38 38 36 38 37 37 38 37 34 35 33 32 35 36 35 36 32 35 36 37 37 38 36 41 38 44 65 115 147 169 173 183 194 202 220 241 250 
31 35 30 34 33 34 31 32 34 41 36 30 36 39 36 37 41 43 46 44 44 45 43 45 45 52 54 52 47 49 45 40 38 35 43 40 39 40 43 41 42 40 43 40 40 36 38 37 34 38 37 38 37 37 35 34 35 38 36 35 36 36 38 35 41 39 44 39 41 60 112 144 162 169 178 194 201 217 240 247 
34 34 34 29 31 35 30 33 36 41 38 35 37 37 38 41 42 44 47 46 48 49 47 46 49 52 52 51 51 50 50 41 35 37 43 39 42 44 42 43 41 40 44 39 41 41 38 37 40 37 35 36 35 37 39 38 41 38 37 37 36 37 37 38 38 41 43 43 45 56 106 139 159 167 179 190 197 213 238 243 
32 38 35 30 33 36 35 40 36 43 35 34 38 42 42 39 43 47 46 45 51 51 50 47 51 53 54 53 50 47 50 43 36 36 42 40 43 41 42 42 47 42 43 40 40 38 37 40 40 36 42 39 39 40 42 44 44 41 40 38 36 36 38 39 42 43 43 44 44 55 105 140 158 166 177 185 197 214 232 239 
35 39 36 33 36 38 38 39 36 44 42 35 46 40 41 44 45 45 50 47 54 53 52 54 52 54 59 53 52 49 49 41 37 37 40 43 43 44 41 47 42 43 44 42 39 39 42 41 39 38 40 39 40 42 49 50 49 49 43 36 37 37 40 41 39 41 42 45 43 54 101 132 157 166 173 180 181 187 215 240 
40 43 38 37 40 41 45 41 44 48 42 41 45 47 48 48 50 52 53 52 54 56 54 57 57 61 56 61 55 55 52 50 48 40 45 46 44 45 46 46 44 45 44 43 41 42 40 39 41 41 40 42 41 45 54 71 81 66 53 42 41 40 43 44 45 46 45 51 44 53 98 133 154 164 171 176 175 168 214 238 
45 49 46 40 41 41 45 45 44 49 43 41 46 48 48 54 52 55 58 53 60 62 62 62 64 65 68 66 62 59 60 51 43 44 47 52 49 51 50 48 50 48 49 43 44 45 45 43 43 44 46 46 47 49 82 199 176 111 69 48 44 41 41 44 45 47 51 45 49 55 96 134 158 166 172 183 182 196 231 239 
49 49 46 45 44 47 51 48 46 51 51 44 47 49 48 54 56 59 59 59 65 66 68 67 68 69 70 66 64 64 56 51 46 46 51 53 51 48 51 48 44 46 50 45 46 47 46 45 44 45 50 49 49 51 100 246 187 110 63 49 41 43 43 41 41 49 50 48 49 58 95 131 150 162 170 179 194 209 226 235 
55 51 51 50 48 50 51 54 51 57 53 46 50 52 55 57 61 62 64 65 66 71 71 68 74 75 75 70 68 61 59 53 51 48 53 54 53 51 46 46 47 50 49 46 49 48 47 46 46 46 47 45 46 49 66 99 96 75 58 47 43 40 42 43 45 43 49 45 47 53 91 129 153 168 171 180 192 210 222 235 
61 59 57 54 56 58 58 57 55 59 55 50 55 57 57 60 60 64 68 67 71 75 79 81 84 81 84 78 70 66 61 55 51 52 51 53 52 47 44 49 48 51 51 49 48 51 47 51 48 47 48 50 50 49 52 57 60 58 51 48 44 43 43 42 42 44 45 46 47 51 84 131 155 164 176 179 194 211 222 233 
74 76 67 55 57 57 62 60 56 59 57 54 59 60 59 63 63 65 71 72 76 76 81 81 84 86 86 82 68 66 62 55 51 53 54 54 56 53 62 77 52 55 53 52 49 52 50 49 46 50 51 50 46 51 48 51 54 51 50 42 45 43 41 43 44 45 45 44 43 47 77 133 154 167 176 180 193 208 222 228 


