P2
80 60
254
20 16 16 23 37 45 83 90 68 44 56 85 81 46 37 34 29 30 26 27 26 25 25 24 24 24 23 26 26 30 34 29 30 24 24 27 25 21 23 23 23 24 24 22 21 25 25 25 23 23 14 16 14 13 15 18 16 17 17 19 17 17 18 16 18 14 15 18 22 22 18 18 15 16 14 16 12 7 13 15 
18 16 20 22 32 46 91 94 65 40 59 90 78 42 35 35 31 30 27 26 25 24 24 26 24 20 25 26 28 29 31 27 29 26 26 24 25 23 21 24 21 24 24 22 22 24 26 27 22 21 15 15 13 13 18 18 19 17 16 17 15 15 15 21 19 15 14 20 23 18 21 21 17 14 14 15 14 12 9 12 
20 21 26 27 38 46 90 93 60 44 65 89 72 40 36 34 31 25 28 28 27 24 24 26 23 25 27 28 29 30 30 33 27 23 25 24 25 23 27 24 20 25 25 25 23 27 25 27 24 23 16 17 20 17 17 20 22 21 21 22 21 24 23 22 23 16 14 17 20 21 18 20 14 18 15 19 17 10 11 13 
19 19 23 30 40 49 91 90 50 43 70 87 67 36 31 30 27 29 25 28 29 23 21 25 25 27 27 25 30 31 31 30 29 25 25 21 26 23 23 24 23 23 27 25 26 27 25 29 27 26 20 24 26 25 27 26 26 27 27 29 26 25 26 28 26 18 14 17 21 16 20 16 14 16 19 14 17 8 8 14 
21 19 18 30 38 59 103 91 51 44 76 86 61 34 30 29 26 26 28 26 25 23 26 25 27 27 24 27 32 29 31 28 26 26 26 23 25 20 21 20 24 25 26 25 28 25 25 28 26 28 30 26 23 27 32 31 28 29 26 29 26 26 28 27 20 17 18 16 21 22 20 21 18 18 14 17 18 12 8 12 
22 15 22 30 39 65 98 81 46 46 81 85 58 33 29 25 25 24 26 26 29 26 27 27 23 24 29 28 28 30 29 29 28 28 26 27 24 22 23 23 19 20 25 28 28 26 26 27 26 29 26 28 29 26 30 30 28 31 29 29 27 29 24 27 21 21 13 15 22 17 19 20 18 18 18 20 15 6 7 9 
19 18 24 33 38 64 98 83 42 48 83 81 48 30 26 26 23 26 27 28 25 25 23 27 24 27 25 27 31 32 31 30 29 27 22 24 25 24 24 21 23 22 23 25 24 25 27 29 26 30 28 27 26 26 28 29 25 23 25 28 24 25 23 23 22 21 16 17 24 19 21 22 18 20 20 18 17 6 10 11 
16 14 18 31 38 66 96 74 42 50 84 83 42 27 22 26 26 20 22 24 26 24 22 23 22 20 25 22 28 27 29 26 27 23 26 24 21 20 23 22 24 22 28 22 26 23 23 22 23 26 26 24 26 28 25 25 28 27 28 24 26 22 25 25 24 19 12 14 19 21 22 19 18 18 16 17 10 5 11 8 
8 6 12 29 30 65 101 73 34 50 89 76 42 24 20 25 23 21 25 21 26 25 22 23 20 22 22 24 29 28 31 26 28 24 26 24 23 21 23 23 22 23 23 25 24 27 25 27 26 26 23 26 24 25 24 28 24 26 25 26 26 24 27 26 26 24 19 17 22 18 23 23 19 20 16 18 10 12 12 12 
10 1 2 0 11 73 99 68 28 47 97 79 39 25 22 22 21 19 21 23 24 22 22 21 23 22 26 24 29 28 30 25 27 26 23 20 25 24 24 24 25 25 24 23 25 27 25 29 23 26 23 25 22 26 25 26 26 29 26 31 29 25 31 22 25 23 17 16 20 20 21 20 18 20 17 16 13 13 8 12 
16 12 8 2 14 78 99 61 22 49 104 80 24 15 11 13 17 17 20 17 20 19 20 18 20 26 23 24 24 24 26 27 21 22 22 22 22 22 24 24 23 22 24 22 22 25 26 24 22 26 23 20 23 23 22 27 26 28 29 30 27 28 27 25 24 23 18 13 21 24 20 21 21 17 15 15 15 7 9 13 
17 15 16 15 22 88 100 59 22 58 104 73 18 10 8 13 11 11 15 18 16 18 18 18 20 21 19 20 24 23 28 23 23 22 21 25 23 22 21 24 22 23 25 24 26 26 25 27 25 23 24 25 26 27 28 28 28 30 31 33 27 30 23 25 24 27 19 15 18 20 23 22 19 20 20 18 13 9 9 11 
16 13 14 14 17 83 95 59 24 60 107 71 17 11 9 9 8 8 11 9 9 10 8 9 12 15 17 16 19 22 22 20 21 21 23 22 21 20 23 25 19 21 24 25 26 24 23 20 22 25 24 27 24 25 28 28 29 29 29 27 28 27 30 26 25 23 21 13 18 19 23 25 18 20 20 18 14 7 12 12 
14 12 15 17 25 88 89 49 28 68 105 65 22 10 11 11 7 8 11 10 5 11 8 8 4 3 6 9 12 8 10 9 13 19 22 19 21 22 24 23 23 23 22 21 23 23 24 25 25 30 24 29 26 29 28 34 26 28 26 31 29 27 26 26 22 24 22 17 17 19 24 26 19 21 21 21 14 8 10 12 
12 13 17 18 36 88 82 44 26 77 103 56 20 12 12 11 12 10 10 10 4 8 7 5 6 7 7 7 8 9 9 5 6 6 1 9 16 22 21 21 22 21 23 20 26 26 25 27 28 29 26 28 27 27 29 32 28 27 28 32 30 29 24 25 24 24 23 18 16 18 22 23 21 20 18 22 16 7 3 8 
10 12 13 17 36 92 82 37 25 79 100 55 18 12 10 15 11 10 10 10 10 8 8 9 4 6 7 2 7 11 7 7 7 1 4 15 16 21 17 20 18 19 22 23 23 24 24 27 27 30 28 28 27 31 28 28 30 28 31 30 30 27 25 24 26 26 25 16 13 16 21 22 21 21 21 19 18 8 7 8 
13 10 14 15 44 93 82 37 24 85 91 50 18 12 14 14 11 11 11 11 11 7 11 5 5 6 7 6 10 9 9 8 8 15 19 18 21 23 21 18 19 21 21 21 25 23 24 26 26 28 25 25 29 26 28 31 28 27 27 31 27 28 28 26 25 25 26 22 14 15 21 21 22 19 20 18 20 13 10 6 
16 11 15 20 52 98 78 38 27 89 91 44 18 17 13 14 14 11 13 10 14 10 11 10 8 9 10 9 11 10 12 16 22 24 23 23 24 24 24 22 23 25 24 24 26 26 28 29 27 27 28 30 32 28 30 31 29 29 31 30 29 26 27 27 24 25 27 22 19 14 24 25 24 23 20 22 24 21 13 19 
13 13 17 17 52 92 74 32 27 91 89 41 16 13 14 14 12 14 14 12 12 10 12 8 11 8 6 8 9 10 17 24 22 22 20 23 22 20 22 23 21 23 23 23 28 26 23 25 25 27 29 30 29 27 29 31 27 29 28 30 32 28 29 31 25 28 26 24 19 15 18 20 20 19 24 20 25 19 16 14 
20 15 16 22 61 94 74 30 29 90 90 39 17 14 14 15 16 14 13 12 12 12 10 13 12 12 12 8 11 13 20 27 25 24 19 18 23 21 21 24 22 23 20 22 27 23 22 27 28 27 29 28 28 28 27 30 30 30 27 29 28 29 27 28 26 26 26 26 15 12 19 20 23 21 21 20 23 17 18 16 
22 20 17 26 75 98 73 31 32 99 88 36 18 15 15 15 18 13 15 13 12 12 11 10 11 13 9 10 11 13 19 24 23 24 21 20 21 21 21 19 22 23 27 24 23 26 24 26 26 26 28 30 28 27 27 28 27 27 29 32 30 30 31 27 26 28 27 27 21 11 19 23 24 22 21 19 17 21 18 15 
47 36 33 38 90 108 75 29 39 100 88 32 16 16 15 15 15 15 17 12 13 13 13 13 12 9 12 10 10 15 15 21 22 22 22 22 20 21 20 23 22 20 25 24 22 25 25 26 28 26 30 27 29 30 30 31 31 29 29 28 29 29 26 30 29 28 27 28 22 15 16 21 21 19 20 21 22 19 15 17 
104 97 89 94 111 103 63 26 44 98 83 33 17 15 13 15 15 15 20 12 15 11 13 11 10 9 12 12 13 15 12 20 22 21 23 20 23 21 20 21 23 21 24 23 24 23 25 25 25 28 29 30 28 28 30 29 32 27 31 31 28 29 29 28 25 30 24 26 24 16 11 15 22 21 21 24 22 19 16 21 
100 96 99 103 101 85 49 30 52 103 85 26 17 11 12 16 15 14 18 16 17 14 15 13 9 9 13 10 13 13 14 19 21 19 20 19 21 21 23 23 23 25 24 28 24 26 27 23 27 28 29 31 27 28 30 30 28 28 29 32 29 28 27 29 28 28 29 30 28 22 18 13 16 19 18 24 22 19 16 17 
61 61 72 81 79 63 32 29 57 107 84 30 17 15 16 19 17 18 15 17 17 15 17 13 15 11 13 12 15 13 17 20 23 23 21 22 23 21 24 22 24 25 26 23 25 28 25 27 29 35 28 31 32 31 28 32 29 29 30 30 32 33 32 29 30 26 28 30 27 26 23 17 15 17 18 19 22 22 14 15 
29 25 26 32 30 26 23 31 62 113 86 31 19 20 17 19 20 16 16 15 18 16 14 16 17 14 16 14 15 16 17 21 25 27 22 22 23 24 26 24 26 25 26 29 29 29 26 26 26 33 28 31 31 28 32 32 29 28 29 31 30 28 30 30 29 31 29 29 30 26 28 25 14 14 16 15 18 19 18 17 
49 38 31 29 25 24 24 34 71 116 85 26 17 21 18 19 16 15 17 18 16 16 15 15 14 16 13 14 13 15 16 22 25 23 23 23 24 24 25 26 24 27 28 26 24 26 27 27 24 30 30 30 27 31 28 32 30 32 31 31 29 30 30 29 25 29 29 31 29 25 27 28 21 17 13 16 13 15 16 18 
110 103 96 88 74 67 59 62 94 119 84 27 19 17 17 19 20 16 20 16 16 16 14 16 14 14 17 15 14 14 15 23 24 23 22 21 27 22 26 25 24 24 25 28 26 26 26 26 26 30 26 25 28 29 30 30 26 30 27 27 27 30 28 29 28 25 28 25 29 25 26 29 25 24 21 23 19 21 16 18 
109 109 110 105 104 96 96 95 102 104 75 22 17 17 16 21 18 17 18 17 19 17 15 15 15 15 17 11 19 15 16 19 27 23 25 22 25 25 28 27 26 25 27 27 24 25 25 29 27 28 27 29 30 29 30 31 28 31 30 28 26 30 27 27 27 29 28 30 33 27 28 28 25 24 25 24 25 20 17 17 
63 64 73 79 82 85 87 92 91 86 56 13 18 18 15 19 19 20 20 19 17 17 17 18 21 16 18 17 18 11 18 21 22 23 24 23 25 26 30 27 27 27 25 26 26 26 26 25 26 28 27 30 28 29 29 29 30 29 29 30 29 30 28 27 29 30 30 31 32 26 28 31 26 21 24 24 22 24 18 22 
27 26 31 29 30 33 36 44 49 46 24 20 17 20 21 19 18 19 18 19 21 19 19 18 17 19 17 19 16 14 16 22 26 25 25 24 24 26 26 25 24 25 29 25 26 27 30 26 28 28 30 30 27 30 29 29 30 31 31 31 31 29 28 28 26 28 30 29 30 26 29 29 25 24 25 22 24 26 25 19 
25 19 19 20 24 21 24 23 26 26 21 15 17 21 20 23 19 21 22 24 23 21 19 19 19 18 18 19 21 18 17 19 28 24 24 25 27 25 27 26 26 30 28 27 30 28 27 28 29 31 29 33 31 31 32 32 30 32 32 33 32 33 33 31 28 30 35 29 32 27 29 29 28 29 25 23 23 25 21 20 
23 20 25 22 20 19 23 26 24 28 21 21 16 21 24 26 23 20 24 24 21 23 20 20 23 21 19 18 20 19 17 20 27 25 28 24 25 28 28 27 27 28 29 26 27 27 26 28 29 31 34 33 30 30 32 32 33 27 31 33 32 30 35 29 28 31 30 34 34 27 29 28 30 28 26 25 28 27 21 24 
25 20 18 24 22 15 21 20 24 29 21 15 18 20 23 23 21 22 23 23 23 23 23 20 23 20 21 18 21 21 19 24 27 23 24 23 27 30 24 26 27 29 31 28 28 28 27 28 31 32 33 31 28 32 34 34 31 28 31 34 33 34 34 32 32 34 31 35 32 26 30 32 27 31 33 27 28 30 26 26 
24 21 22 19 21 18 19 26 22 26 21 15 18 21 24 21 22 22 24 25 24 20 24 20 23 22 20 19 24 20 21 25 27 25 25 26 27 25 26 27 27 26 27 30 28 29 25 26 28 31 29 30 28 31 29 31 33 30 26 31 32 34 33 32 31 31 30 32 34 30 28 31 29 28 27 27 23 26 24 29 
24 26 22 24 22 19 21 22 23 24 21 16 18 20 22 22 24 24 23 21 22 22 22 25 22 23 21 22 22 20 18 24 28 25 26 28 27 26 26 24 27 29 29 28 33 29 29 28 30 31 28 30 31 30 31 31 31 31 31 32 31 31 31 29 31 31 30 32 31 29 28 29 27 28 28 25 27 28 29 28 
23 24 24 25 23 20 19 24 27 26 23 19 21 22 21 24 25 24 24 25 21 24 23 26 24 23 24 23 25 24 21 26 31 29 24 28 27 27 27 28 28 29 30 26 27 31 31 31 31 31 32 32 33 28 34 32 33 32 32 34 32 32 33 32 28 28 28 34 34 29 32 30 28 30 29 26 27 30 33 31 
24 20 24 22 21 22 21 23 27 27 20 18 21 23 24 23 24 29 29 26 26 26 22 24 25 25 28 24 28 24 20 24 32 30 25 26 27 30 27 27 29 31 29 26 30 29 30 31 30 32 30 32 31 33 33 33 32 32 30 32 32 31 31 31 31 30 31 34 31 30 33 30 29 27 32 28 31 26 31 36 
25 19 23 23 22 22 21 26 29 26 21 17 20 22 26 25 25 25 28 27 23 24 26 25 24 26 25 26 29 23 23 23 28 30 30 26 29 26 27 27 26 29 28 27 32 28 31 32 31 29 31 32 33 32 33 31 34 31 32 31 29 31 30 32 31 32 31 31 34 30 31 30 30 29 29 28 33 39 37 44 
24 21 21 22 21 19 23 20 30 26 21 19 19 19 25 26 25 26 29 25 27 25 26 29 28 27 28 28 28 26 27 25 30 31 27 29 30 31 28 27 28 25 29 30 32 30 31 30 30 31 31 30 32 33 33 33 32 33 29 31 33 31 28 28 31 29 34 33 34 30 30 32 29 28 29 33 49 44 39 41 
24 25 24 26 25 20 19 22 29 27 23 18 23 25 23 29 28 29 29 30 32 29 29 28 28 28 28 27 30 27 27 28 28 31 29 28 30 28 30 29 31 31 30 32 32 31 30 30 29 30 33 29 34 31 32 34 33 32 30 33 33 30 30 31 33 32 30 35 32 29 31 35 30 28 32 31 35 35 39 34 
22 21 22 27 24 20 24 22 26 26 22 19 23 23 27 27 28 27 28 29 31 32 30 30 32 30 27 29 30 27 25 23 28 29 29 28 30 28 32 30 30 30 31 31 28 34 32 29 32 30 29 31 31 34 31 37 32 30 34 30 31 31 30 31 32 31 33 32 33 31 32 33 31 32 30 34 39 32 38 37 
26 20 25 24 27 25 24 24 26 27 25 20 21 29 27 28 29 29 29 32 28 29 30 29 30 32 29 30 31 28 25 25 31 32 28 29 30 30 29 30 33 29 31 31 28 31 28 27 30 29 31 32 30 29 31 28 29 33 30 32 30 29 31 31 33 32 32 31 30 30 34 35 33 36 33 34 36 36 35 40 
23 18 23 23 24 24 30 29 28 29 21 21 22 28 27 28 30 31 33 32 31 32 32 32 31 33 31 30 31 28 27 27 31 35 30 29 29 30 33 30 32 32 28 30 28 27 27 30 30 31 29 31 31 30 32 29 29 31 33 31 31 31 33 33 28 30 30 36 33 33 36 41 40 42 52 58 67 79 92 113 
24 21 21 24 24 24 26 30 27 31 23 24 25 30 28 32 32 31 34 34 37 32 34 32 36 31 29 28 28 29 26 26 31 30 31 30 34 29 31 28 30 31 31 31 31 30 29 27 30 29 33 29 29 31 31 31 28 30 31 33 32 31 32 33 31 29 33 38 34 42 65 79 88 103 112 121 134 149 163 188 
25 23 25 25 29 25 29 28 28 28 26 24 28 32 30 31 31 34 36 38 37 37 36 34 37 36 33 30 33 33 27 25 30 34 31 34 31 34 30 30 32 30 29 31 33 31 34 30 30 32 28 32 32 30 32 29 29 32 32 31 34 34 36 31 33 32 35 38 37 59 104 122 130 136 143 153 166 183 199 228 
24 24 27 25 26 27 25 30 28 32 26 25 27 30 30 32 33 34 37 36 36 37 37 36 37 34 33 30 33 33 29 23 28 32 29 32 33 33 32 32 32 32 31 32 31 29 31 30 29 32 31 32 32 30 31 31 32 30 32 33 35 34 34 33 31 31 35 35 42 70 115 149 154 161 173 180 195 211 231 242 
27 25 27 25 31 28 26 29 27 33 27 23 29 27 28 35 33 33 36 36 37 36 36 36 37 39 38 41 36 36 35 32 29 32 31 34 33 30 32 35 31 33 28 29 30 31 28 32 28 31 31 31 31 31 33 31 32 35 34 32 33 32 31 32 30 31 33 38 38 65 115 151 161 171 179 191 203 219 240 250 
27 21 24 30 25 23 31 28 29 35 26 25 29 31 30 35 35 36 39 38 38 37 37 37 41 42 46 46 42 39 41 33 32 30 32 35 35 31 35 34 32 30 29 33 32 28 31 31 31 32 33 33 33 30 29 35 34 31 31 28 35 36 33 33 30 32 34 33 38 64 116 149 164 174 178 188 205 220 239 254 
28 21 24 29 28 27 31 29 28 34 28 24 31 32 30 38 35 37 36 39 38 41 41 40 40 41 48 43 43 39 38 32 31 32 37 32 31 31 35 35 33 33 32 33 32 30 32 32 27 31 32 31 32 30 32 34 34 32 34 33 33 36 35 33 32 31 33 33 39 57 110 144 161 170 180 189 202 216 240 252 
28 23 27 32 30 30 29 31 30 34 31 27 30 34 34 39 37 38 40 43 43 41 40 42 43 44 44 47 42 45 42 34 32 31 40 36 37 35 38 37 33 33 36 34 31 32 30 30 28 32 31 31 33 32 31 34 33 32 32 35 35 34 36 33 33 35 36 34 38 57 108 139 158 165 173 187 200 215 240 251 
31 29 29 32 30 30 32 32 32 36 33 30 30 33 38 39 38 41 41 45 45 45 41 42 42 44 47 44 46 43 45 34 33 32 39 34 35 35 35 37 35 33 38 35 34 34 29 31 33 29 31 32 33 32 35 37 37 33 34 36 35 35 33 34 33 36 36 36 41 50 102 134 153 164 170 185 199 213 232 254 
30 29 32 30 30 30 34 38 35 38 31 28 33 32 34 38 36 39 40 48 47 43 45 45 45 48 50 48 45 44 46 39 32 33 39 36 35 34 35 37 36 35 34 37 36 31 32 33 31 35 35 35 34 34 39 43 40 36 36 36 33 31 35 31 34 37 33 34 37 53 101 137 153 165 172 180 192 208 230 243 
33 32 33 36 37 33 35 35 37 41 37 31 39 34 36 41 41 42 43 49 49 49 49 49 46 48 53 50 48 44 50 40 35 34 37 41 38 37 37 40 37 37 35 36 35 34 33 34 34 35 37 37 36 40 46 50 46 44 39 35 34 35 39 34 34 34 35 38 38 49 95 133 149 162 164 174 180 186 210 240 
39 34 34 39 39 37 38 37 39 42 37 34 40 39 42 46 46 47 46 50 52 50 53 54 53 55 53 53 52 50 51 44 40 37 39 40 39 41 43 38 37 39 37 37 37 37 35 33 37 38 39 36 41 44 49 67 81 64 47 41 38 38 38 37 36 37 38 41 41 49 93 130 147 159 168 169 170 166 209 240 
39 39 43 43 41 40 44 42 39 45 39 36 41 45 42 47 48 49 51 55 57 59 59 58 55 60 61 63 59 55 53 48 39 42 43 46 42 43 42 41 42 38 43 40 38 43 38 35 37 40 43 40 43 47 80 200 169 105 63 48 43 40 39 37 39 39 41 41 51 48 94 126 153 161 166 178 178 194 225 240 
49 40 43 47 45 42 44 44 42 47 42 38 41 45 45 51 52 53 55 60 61 59 62 64 64 62 64 61 59 56 54 45 38 43 47 48 49 43 43 41 41 41 45 39 42 41 42 39 41 42 40 43 46 49 98 243 181 106 58 49 40 43 37 34 39 38 36 42 46 53 90 129 145 159 170 178 191 204 223 235 
54 44 49 49 50 45 48 53 49 50 50 42 45 49 48 53 57 56 62 66 68 65 68 68 70 68 68 65 64 58 55 50 44 44 48 52 48 45 41 41 40 42 43 39 43 41 39 41 41 43 41 40 45 45 62 96 93 71 53 47 41 39 42 38 38 43 38 42 46 45 88 126 148 160 166 175 188 205 220 236 
62 50 57 53 53 50 56 55 52 55 51 50 51 55 53 61 56 59 65 69 70 72 75 79 80 76 76 76 69 61 56 50 44 48 49 52 46 41 38 44 43 44 43 45 44 44 40 43 44 43 44 44 44 45 48 54 59 54 50 49 44 43 42 41 36 39 40 40 45 46 82 125 147 161 168 180 194 204 221 228 
78 69 68 58 57 54 57 52 55 55 50 51 54 58 57 59 56 63 67 72 76 72 77 82 81 83 81 77 67 64 57 53 46 50 52 51 51 49 57 71 47 48 48 47 44 46 44 43 42 46 46 44 44 46 46 49 51 48 48 46 42 38 40 38 38 39 40 41 41 43 75 131 146 164 167 178 192 204 220 230 


