P2
80 60
250
19 16 18 25 35 41 79 94 68 42 58 85 82 46 37 33 33 32 29 27 25 24 23 18 21 23 23 26 26 29 32 26 30 26 24 24 26 23 23 24 23 25 24 25 22 24 26 25 22 17 12 14 12 14 11 13 12 18 16 15 14 15 15 13 17 16 15 18 19 18 15 21 16 16 17 16 14 14 16 7 
18 17 25 23 35 46 88 92 63 37 60 89 80 42 32 34 32 32 29 23 27 29 24 24 21 21 24 26 27 28 29 25 30 28 27 26 25 27 23 23 22 23 25 24 22 25 26 27 28 19 14 15 13 13 13 13 17 16 16 18 16 15 17 19 21 19 19 19 21 19 19 23 21 12 14 15 18 19 17 9 
22 22 20 24 37 47 90 91 57 40 68 87 70 39 34 34 31 28 31 26 26 26 25 23 22 23 30 29 29 30 33 28 29 27 26 27 26 26 22 25 22 24 23 25 23 28 24 25 29 22 14 14 18 17 16 16 19 22 19 20 21 21 24 20 22 17 14 15 17 17 18 23 20 18 17 21 20 15 11 4 
17 16 20 30 36 45 90 91 50 41 72 87 67 37 30 29 28 30 28 28 27 23 22 24 24 28 26 24 28 30 30 29 26 24 21 23 26 23 22 28 24 25 22 24 21 27 28 24 26 24 19 19 26 24 22 22 22 24 24 25 22 21 23 27 26 19 17 17 17 14 19 20 18 16 15 18 18 15 15 1 
19 19 19 28 37 61 101 89 45 40 74 86 60 36 29 30 26 26 27 24 24 20 25 25 25 27 26 24 30 28 32 23 25 27 25 23 24 22 23 21 23 22 24 23 24 27 24 25 25 26 23 26 23 26 26 25 25 29 23 25 22 26 26 22 20 20 19 15 20 19 19 20 19 16 15 18 18 11 11 0 
22 16 21 31 37 68 98 80 47 41 83 85 55 33 27 24 27 28 25 23 22 25 26 26 22 23 27 29 26 28 29 28 26 26 25 27 24 22 20 21 20 21 23 27 26 25 25 26 26 27 25 25 27 27 26 24 25 27 25 27 23 24 21 24 22 19 14 13 18 14 19 21 17 20 17 16 17 12 7 3 
20 20 25 32 36 66 97 80 41 46 86 81 50 30 27 26 25 25 27 27 23 25 26 26 24 27 24 27 31 28 30 29 27 26 25 28 24 25 23 20 22 22 22 22 23 23 27 29 26 25 28 27 23 22 25 24 25 22 23 26 23 22 22 22 22 19 18 16 19 17 20 20 21 20 19 16 17 9 11 10 
15 11 18 30 34 67 100 78 40 47 87 83 40 25 23 20 24 24 23 24 24 23 20 22 21 20 22 23 26 25 26 25 26 21 26 24 22 21 21 23 23 25 24 22 24 23 25 21 21 24 28 23 25 25 21 19 22 22 23 19 24 23 22 24 23 19 13 16 19 18 20 18 19 16 17 17 13 11 12 6 
8 7 12 25 27 65 98 72 36 48 92 79 41 24 19 21 23 24 22 20 22 23 21 23 20 18 21 25 24 23 27 24 26 24 24 24 21 21 24 23 23 21 22 24 22 25 25 25 23 25 20 24 23 24 22 23 24 27 23 26 22 22 23 22 24 25 20 15 20 19 19 22 22 19 15 19 13 15 16 3 
9 0 3 1 9 72 97 70 27 49 96 82 39 25 20 22 19 23 20 21 22 23 20 19 23 22 24 23 24 28 29 24 28 28 26 22 23 21 25 22 22 23 26 25 23 26 24 25 24 24 22 23 22 20 23 21 24 28 23 29 24 25 28 22 27 24 18 17 19 18 20 22 20 18 18 17 13 13 13 5 
14 11 10 3 12 77 96 64 21 49 103 84 26 13 8 12 16 19 18 19 19 19 18 19 20 24 19 23 21 24 27 24 25 24 22 20 21 23 25 24 24 19 25 23 22 23 24 22 22 24 22 23 23 22 19 21 26 30 25 27 25 27 26 23 26 25 22 14 19 20 21 22 24 19 16 16 18 12 12 5 
15 15 18 20 22 86 101 60 20 56 102 76 19 11 6 10 10 13 14 15 16 16 18 18 17 18 18 20 24 22 28 21 25 24 21 23 21 23 22 23 21 23 23 22 24 22 25 23 23 19 20 25 25 22 24 22 25 30 28 32 25 28 25 23 24 27 21 15 17 19 19 23 24 18 20 17 17 15 13 11 
17 15 17 16 16 83 92 57 23 59 104 70 17 8 5 8 9 11 10 8 5 8 8 7 11 13 13 15 18 19 20 18 20 21 19 21 20 20 22 24 20 21 21 26 24 25 23 19 20 24 21 25 25 24 26 22 28 27 26 25 23 23 26 23 22 24 23 14 16 17 20 24 22 18 15 18 19 14 13 6 
15 12 15 15 23 89 87 50 28 65 101 65 19 11 9 8 9 11 10 8 7 7 6 7 3 4 3 10 9 9 10 7 13 18 18 20 22 22 24 21 26 24 22 23 23 22 22 23 25 26 24 26 24 24 22 27 26 25 24 29 25 24 25 21 21 24 22 17 16 19 22 22 22 19 20 20 18 14 12 7 
17 13 15 16 35 91 83 43 24 76 101 59 20 11 9 11 12 13 13 8 7 5 10 5 4 6 5 7 7 9 10 6 4 6 2 10 14 21 21 22 24 21 23 24 24 26 22 25 26 24 26 26 26 28 26 28 28 28 27 29 27 25 25 23 26 27 24 17 14 16 19 24 24 21 18 22 21 16 14 8 
12 10 15 18 37 90 86 42 23 76 101 55 17 11 9 13 13 13 12 7 8 10 8 6 5 8 6 2 4 9 6 9 5 2 4 13 16 20 17 21 19 21 22 26 22 23 25 23 28 27 26 25 25 27 27 24 29 26 30 25 26 25 25 21 28 25 22 20 13 15 20 24 22 22 22 20 19 17 15 5 
13 10 15 20 44 91 81 39 23 80 93 51 17 11 12 14 12 13 10 9 9 9 10 6 2 4 5 4 10 8 8 4 7 15 18 19 21 22 18 17 17 21 21 23 22 21 26 24 25 29 26 25 26 26 26 27 28 27 24 28 25 25 27 22 26 28 25 19 15 14 22 22 21 20 20 20 20 20 15 10 
16 12 16 19 51 99 81 34 27 89 90 48 17 20 13 12 15 13 12 10 10 13 11 10 6 8 8 6 10 11 12 13 22 22 21 22 23 22 22 23 22 24 25 24 23 24 28 25 27 27 28 27 29 29 28 26 27 30 28 27 26 25 26 24 25 25 27 23 17 17 24 25 25 20 22 20 22 21 12 4 
13 16 17 14 52 95 75 33 27 88 88 42 15 13 12 14 11 13 12 10 11 7 11 8 8 7 6 7 8 9 14 19 22 25 20 20 22 20 23 23 24 22 25 24 24 26 23 25 26 24 27 29 28 26 26 27 26 28 24 28 26 29 26 28 24 27 28 24 18 12 17 21 24 22 25 22 23 22 15 15 
18 17 17 21 63 96 78 28 29 86 87 40 16 14 10 12 18 12 13 12 10 10 12 13 9 10 10 8 11 13 18 23 23 24 20 18 20 20 23 21 23 23 21 22 23 25 23 23 26 25 26 28 27 28 22 27 25 29 26 30 25 28 24 25 28 24 26 26 15 10 16 21 25 22 21 19 24 22 22 16 
22 22 20 23 72 99 74 32 30 100 87 40 18 15 13 14 18 14 14 11 12 12 9 9 12 12 10 9 11 13 19 22 23 25 20 18 21 21 22 18 21 20 24 24 22 26 24 23 25 26 28 29 26 25 24 25 26 26 28 31 25 27 28 25 27 28 26 26 19 11 15 21 25 19 25 20 20 23 23 14 
45 37 33 37 88 105 76 29 37 97 88 35 15 15 14 13 14 17 17 10 11 12 11 8 8 7 8 7 11 13 13 18 20 22 19 20 18 19 18 23 23 22 24 25 21 26 24 25 29 23 27 26 24 29 28 25 27 28 24 26 25 27 27 28 28 26 27 24 21 12 11 22 20 19 19 18 23 23 18 12 
101 98 91 90 107 103 63 24 44 95 86 36 17 15 12 16 12 14 20 10 13 10 11 8 9 7 11 9 9 12 11 17 23 21 20 17 21 20 20 21 22 22 25 22 24 23 23 24 23 27 28 26 25 26 27 27 27 26 28 26 27 27 29 25 24 28 25 25 21 14 13 18 22 20 19 20 24 20 17 12 
99 97 96 99 97 85 52 31 50 98 85 30 16 11 12 15 15 16 16 13 15 12 12 9 7 6 10 10 10 11 12 17 19 23 19 19 21 21 22 23 21 22 23 25 22 27 24 23 26 24 30 29 27 28 25 25 29 27 27 29 26 25 27 28 30 26 29 27 24 20 14 14 20 17 20 22 25 26 17 14 
57 59 71 81 74 63 31 31 57 101 85 31 18 15 13 17 17 18 16 13 14 13 13 12 11 9 12 11 13 13 15 19 23 21 19 20 22 20 24 22 25 24 27 23 25 26 24 27 26 29 26 29 30 31 25 27 26 28 27 27 28 30 30 28 28 28 27 28 24 22 20 14 17 12 19 20 24 23 23 13 
30 26 28 31 31 28 25 31 60 109 87 31 20 18 11 17 21 18 16 16 16 13 14 14 13 14 16 13 14 15 16 21 22 27 22 23 23 23 26 24 27 24 24 28 29 28 27 25 27 30 27 29 28 29 28 26 29 29 27 29 27 27 28 27 30 30 26 27 27 24 23 24 16 12 16 15 20 21 19 10 
47 41 33 30 24 23 22 36 68 117 84 30 15 19 18 13 17 19 15 18 13 17 15 14 10 14 11 14 13 13 16 22 25 23 23 21 23 25 26 26 25 26 26 24 26 25 26 23 27 26 27 31 27 29 28 25 27 28 28 25 28 27 28 29 27 30 28 30 27 22 26 25 24 15 14 16 18 17 17 11 
110 104 96 87 75 68 59 64 92 114 87 28 18 17 15 15 19 18 21 14 13 15 15 16 15 13 14 15 11 14 13 20 22 22 20 20 26 25 25 26 26 23 28 27 24 25 24 25 25 26 26 24 28 30 28 26 26 31 26 26 29 28 27 26 28 26 29 26 26 23 24 28 23 23 25 21 23 23 20 9 
105 106 109 106 100 99 92 100 104 104 73 25 18 19 18 18 18 19 21 17 16 18 15 13 14 13 15 13 15 15 15 17 25 24 25 24 24 25 26 27 24 25 28 26 25 27 25 26 27 24 28 28 28 30 29 24 25 32 28 28 25 29 26 28 27 28 29 28 27 25 26 26 27 23 22 23 25 24 22 13 
62 63 73 77 79 86 85 90 90 85 56 16 17 21 18 18 21 21 22 18 16 19 18 18 18 15 17 15 18 12 15 17 23 24 24 24 26 25 33 27 28 27 27 27 27 25 25 25 25 27 26 28 27 28 27 25 29 29 26 28 27 30 26 28 29 31 31 30 28 24 29 32 31 24 26 21 23 28 22 21 
27 27 29 29 30 35 39 44 48 41 25 21 17 20 18 19 22 20 22 19 18 20 19 19 15 17 17 18 19 15 14 20 26 26 23 23 24 25 25 24 26 24 27 25 25 27 27 24 29 26 27 29 28 31 26 26 28 33 29 29 31 29 29 29 27 28 30 30 31 24 28 29 29 22 25 21 26 29 25 23 
24 18 21 20 22 20 24 24 25 24 21 17 20 20 20 19 22 22 20 18 21 20 20 20 18 16 17 18 18 17 15 19 28 26 25 23 25 25 27 27 29 29 28 27 28 27 26 25 29 30 27 29 29 29 30 26 28 31 29 29 30 28 31 30 29 28 33 29 28 26 28 31 30 29 25 26 27 28 25 18 
22 18 19 21 21 18 21 26 22 23 21 18 19 22 21 22 23 24 21 20 20 20 19 18 17 16 18 15 20 18 17 20 25 26 26 24 25 28 26 26 24 29 27 26 27 25 27 26 28 27 31 32 29 27 26 27 29 28 30 31 29 28 30 31 28 32 30 29 29 27 26 27 29 26 27 23 29 30 25 24 
22 21 19 23 20 19 21 20 22 24 23 19 19 21 20 21 22 23 20 17 22 22 22 19 21 18 19 19 21 20 19 23 26 25 24 22 25 28 25 27 29 29 26 28 28 26 26 25 30 30 29 28 29 28 30 29 31 27 27 31 32 33 28 31 31 32 32 33 29 26 26 30 30 30 28 27 29 33 27 23 
23 22 20 18 21 20 20 24 23 24 21 21 18 20 21 21 23 23 21 24 22 20 24 20 21 23 21 21 23 19 18 21 24 24 26 28 29 23 26 27 30 27 23 29 29 27 27 25 29 30 30 28 29 30 28 28 31 32 25 33 31 33 29 32 30 31 34 30 31 30 26 31 29 30 28 27 27 30 27 25 
21 25 22 21 21 22 20 21 22 22 19 20 19 21 19 22 25 25 18 22 23 24 24 24 22 22 19 21 22 21 17 21 28 27 27 28 27 27 27 27 26 29 27 29 29 27 29 26 29 31 27 30 30 28 29 28 28 29 28 31 30 30 32 30 31 32 33 30 30 26 28 29 31 32 32 29 29 31 31 30 
24 23 26 25 23 22 23 22 27 26 24 18 19 22 23 23 25 26 24 25 21 23 25 26 22 21 21 22 22 23 18 24 29 29 27 31 27 27 28 28 29 29 28 28 28 29 29 30 31 28 32 31 30 26 30 30 31 32 31 32 30 32 32 32 32 30 28 31 31 28 33 30 28 32 30 26 32 33 36 31 
21 21 27 24 20 23 22 22 26 23 21 22 21 24 21 21 25 28 27 25 24 25 24 22 25 23 26 24 27 23 21 26 30 30 26 26 28 29 28 27 30 30 29 28 28 29 30 31 28 29 29 30 28 29 28 30 31 32 29 29 31 34 32 33 31 32 31 32 29 29 30 29 28 31 30 28 33 33 34 30 
22 18 24 22 18 26 20 24 28 25 23 18 20 22 23 24 27 25 26 24 22 25 24 26 22 25 26 26 29 23 22 23 27 32 29 29 30 28 27 28 28 32 27 28 30 28 29 29 31 29 31 30 31 29 32 29 34 33 30 30 27 31 30 32 30 31 31 31 34 26 30 30 31 34 27 26 32 39 37 39 
27 22 23 26 22 23 22 21 27 23 21 22 22 21 24 26 27 27 28 24 25 26 26 28 27 26 25 27 27 24 24 28 30 31 25 27 27 30 29 27 28 27 29 33 30 28 30 28 29 29 29 30 32 29 29 30 30 31 25 29 28 33 29 30 32 32 33 32 32 28 30 29 29 30 28 32 41 42 39 36 
26 21 23 23 25 22 22 23 26 23 22 22 20 25 22 28 29 30 27 27 27 25 25 27 25 29 27 27 28 26 25 26 29 31 28 27 28 29 30 28 32 30 32 30 31 31 29 29 29 28 30 27 33 30 28 27 29 31 27 30 33 29 28 28 30 32 31 31 31 25 32 31 32 31 30 33 35 37 40 36 
25 19 23 25 22 22 25 21 27 26 23 19 24 23 24 25 27 30 26 26 28 29 28 29 30 30 28 28 27 27 24 23 29 28 27 28 30 27 32 28 31 31 29 29 30 29 30 30 30 29 29 31 31 30 29 26 28 29 30 27 27 31 28 29 31 33 34 32 33 30 31 35 30 32 31 32 38 36 37 35 
27 22 24 22 26 26 26 21 24 23 23 20 24 26 26 27 27 29 30 31 30 28 30 30 29 30 29 30 29 29 26 23 30 31 29 29 30 29 30 28 29 29 31 32 28 30 28 29 30 28 28 31 29 30 27 26 26 34 26 30 27 28 30 32 31 32 31 32 31 27 32 38 35 35 33 34 38 40 39 30 
24 19 25 24 21 23 26 31 27 28 22 23 24 25 24 29 29 34 32 30 31 31 31 32 29 32 30 30 29 27 26 27 31 33 30 30 31 32 35 28 32 33 29 31 26 27 28 29 29 29 29 31 28 26 26 24 27 31 31 27 29 30 30 31 29 31 32 33 33 31 35 40 40 44 49 55 70 84 96 106 
23 22 24 23 23 27 25 31 26 28 24 22 26 28 25 30 30 33 33 34 34 32 31 33 32 32 30 30 25 28 25 25 30 32 29 29 32 33 34 30 32 31 30 30 29 28 30 25 29 30 31 26 26 26 28 25 29 29 30 30 29 32 32 31 31 31 36 33 37 39 63 77 92 101 110 119 134 152 167 184 
27 21 25 25 27 28 27 29 29 27 28 26 30 30 29 29 30 36 36 36 34 37 36 36 34 35 32 33 29 31 27 24 30 30 31 31 31 36 32 32 30 31 27 27 30 30 29 29 31 30 29 30 28 28 28 24 27 34 30 27 33 31 34 30 32 34 35 33 35 61 102 122 131 134 144 155 168 184 205 221 
24 24 28 26 23 27 28 31 25 28 25 27 28 33 30 31 32 34 35 36 35 37 37 36 35 32 32 32 29 30 26 24 27 33 30 31 35 32 34 32 33 33 30 32 29 28 28 28 29 30 29 30 30 31 27 26 31 32 29 32 34 30 33 31 33 34 36 36 41 67 115 147 156 160 172 181 198 218 234 242 
25 22 28 24 27 30 27 30 24 31 30 25 28 31 28 29 35 34 35 35 35 36 36 35 37 36 38 42 38 37 36 30 27 28 32 34 33 30 32 34 31 33 29 31 29 29 31 30 28 27 30 30 27 27 27 25 26 31 29 31 31 31 31 31 32 34 34 36 37 64 116 151 163 172 179 191 204 219 241 245 
25 24 27 26 26 26 30 28 26 30 26 27 26 34 28 32 35 35 37 33 36 33 37 37 39 41 43 44 42 39 38 31 31 30 32 35 33 32 35 34 34 32 31 33 30 26 27 30 27 27 28 31 27 30 29 28 28 31 28 29 33 33 32 30 30 35 34 33 38 65 113 152 165 173 177 189 205 223 241 250 
28 21 25 26 26 27 28 28 25 30 30 24 28 31 27 33 37 36 36 33 35 38 37 38 37 42 45 44 41 38 38 30 30 31 35 33 30 32 33 36 32 34 32 34 31 30 32 31 28 30 28 30 28 27 28 26 26 28 28 27 28 32 31 32 31 35 33 33 37 56 105 145 164 170 178 186 201 220 240 238 
28 25 27 30 30 30 29 32 29 32 31 27 30 36 31 34 37 37 40 38 41 39 41 39 41 43 46 47 41 44 41 32 32 32 35 34 35 35 37 36 34 33 34 34 29 31 27 28 27 30 29 31 30 31 31 27 32 33 29 31 29 31 32 32 33 38 34 33 36 53 107 138 157 167 174 186 202 217 238 242 
30 27 30 31 28 30 32 31 31 33 35 31 31 32 32 36 37 43 44 40 40 44 41 42 42 44 47 43 47 42 41 36 32 32 37 36 35 35 36 37 35 35 32 36 32 34 30 31 31 29 32 31 29 32 32 30 34 33 34 30 32 32 34 32 32 36 36 36 40 50 101 133 155 164 172 183 199 216 235 242 
32 30 34 29 34 33 30 36 34 36 32 34 36 33 35 36 40 41 44 43 44 47 44 45 44 47 50 46 45 43 44 38 34 34 38 36 35 35 35 36 36 36 31 34 34 33 31 31 33 32 33 35 34 33 41 37 39 37 32 34 32 30 33 32 35 39 35 35 37 50 100 134 151 164 169 180 197 211 229 239 
30 33 33 30 37 35 36 37 37 39 39 33 38 37 35 40 41 44 44 46 50 49 51 46 46 48 54 50 47 45 48 36 33 35 40 40 39 37 36 41 36 38 35 35 34 35 36 34 34 34 35 37 34 36 43 43 42 43 37 34 33 34 34 34 34 35 34 37 37 46 95 132 151 161 165 176 179 186 217 241 
38 37 36 36 37 42 37 37 40 37 37 35 41 40 43 39 47 46 46 49 50 50 50 54 51 54 54 54 51 49 49 42 41 40 39 41 38 39 41 39 39 40 37 37 36 37 36 33 37 35 37 36 36 43 49 63 76 62 47 37 36 35 36 35 38 37 37 42 38 45 91 129 148 160 164 170 172 167 213 233 
39 37 41 41 37 38 44 42 42 39 41 38 42 43 42 46 48 51 56 52 54 55 57 55 54 55 58 59 56 53 53 45 41 41 44 45 43 43 43 40 42 41 40 38 36 36 37 35 37 36 38 40 38 42 74 192 168 104 57 43 41 38 35 34 38 40 43 40 42 45 89 127 155 159 167 176 181 196 226 235 
45 42 45 47 42 44 43 46 42 46 42 38 42 45 46 47 53 55 59 55 59 59 63 62 61 64 62 60 59 54 55 42 40 43 44 46 47 42 41 39 40 40 40 37 38 40 38 36 37 39 39 40 41 44 92 237 178 103 57 43 35 40 35 33 39 39 38 41 42 48 86 125 150 161 167 176 194 210 225 229 
50 44 48 48 45 45 45 49 47 47 48 41 46 47 50 52 58 57 60 60 63 65 66 66 66 65 66 64 61 57 58 46 46 43 45 48 45 44 41 40 39 40 39 37 42 40 39 38 39 38 39 40 38 43 58 91 90 69 48 42 38 35 36 35 37 39 38 42 40 42 85 125 151 162 164 174 192 210 226 227 
59 52 56 54 53 53 52 54 52 50 50 50 50 52 52 54 58 63 64 63 65 69 72 77 77 72 76 74 66 61 57 46 48 46 48 48 46 39 38 42 41 45 43 40 42 44 37 41 42 41 40 43 42 44 45 50 55 50 48 41 40 39 37 35 37 39 39 40 40 44 81 125 145 162 171 181 191 207 228 224 
75 69 69 59 56 54 57 53 53 51 51 50 55 57 56 54 59 65 69 71 73 74 75 77 78 81 78 77 66 60 58 48 46 47 46 51 52 47 57 70 46 50 49 46 44 46 42 41 44 41 44 44 42 43 43 45 47 45 43 39 42 34 38 36 40 39 37 40 40 37 69 127 147 163 169 177 194 211 220 230 


