P2
80 60
250
20 19 21 25 33 48 83 90 65 36 54 88 82 45 37 33 30 28 24 22 23 26 22 21 21 23 22 25 29 30 31 28 27 24 25 26 27 23 23 26 25 25 26 27 24 25 26 26 24 19 11 16 15 17 16 15 15 20 19 17 17 17 16 17 23 20 20 23 23 23 19 23 21 20 18 18 15 15 13 8 
22 23 20 24 32 49 91 92 63 32 58 91 80 41 36 32 27 28 27 24 25 25 22 22 20 18 21 25 28 29 31 30 29 30 28 24 24 24 27 26 26 27 23 24 23 25 26 27 24 19 14 18 14 16 15 17 18 20 18 18 19 15 20 21 23 22 19 23 24 21 22 20 20 16 15 15 15 16 9 5 
21 22 18 27 35 50 91 89 55 36 66 91 73 38 35 30 27 25 26 23 25 24 23 25 22 24 29 26 26 29 30 31 24 26 23 26 24 26 26 25 26 25 24 24 24 30 29 25 26 23 16 18 20 17 17 19 21 19 21 22 23 21 26 24 26 23 20 21 19 25 23 22 19 20 20 23 15 16 10 6 
17 17 20 30 34 53 92 89 46 37 71 93 70 35 29 27 26 29 25 23 28 23 21 20 23 25 28 24 28 29 30 30 28 24 25 23 26 23 24 26 25 24 23 26 27 27 28 27 26 23 21 23 22 21 23 26 24 26 28 28 27 23 26 31 28 21 21 23 23 20 19 24 21 22 20 22 15 13 11 7 
20 20 22 31 37 64 105 83 46 37 77 92 61 32 28 29 23 26 27 23 23 20 24 23 23 25 24 27 28 27 31 28 27 23 24 26 23 22 23 22 24 24 25 25 25 29 26 28 27 29 26 25 24 25 30 28 27 30 30 31 28 26 29 25 26 26 24 20 24 26 20 23 19 19 18 17 18 11 9 5 
17 17 24 33 39 72 98 78 43 40 83 89 57 30 28 23 22 24 22 22 25 25 28 27 23 23 26 27 24 30 30 28 26 26 25 27 26 23 24 24 22 22 24 25 27 27 26 27 27 29 24 26 27 26 27 29 30 29 29 30 28 27 26 25 23 23 21 22 25 21 22 23 21 23 21 16 20 15 13 7 
20 23 25 34 35 68 101 77 38 41 86 84 50 29 31 25 25 24 27 25 22 23 23 24 21 25 23 25 28 29 32 28 27 25 23 24 24 26 25 23 27 21 23 24 25 24 28 31 26 27 27 28 26 24 27 31 28 25 28 27 26 26 24 22 25 24 23 21 23 27 22 26 22 22 23 21 21 13 12 8 
15 16 24 29 32 69 96 74 40 42 85 86 43 25 24 22 24 22 24 22 21 20 21 19 20 18 22 22 25 28 28 28 26 22 25 24 21 21 24 23 25 25 25 23 25 23 21 23 23 25 27 24 24 26 24 25 25 27 27 24 27 24 26 29 26 23 19 23 21 25 22 24 21 20 19 18 14 13 12 7 
9 11 15 28 26 66 99 69 33 41 89 81 40 23 25 23 19 20 20 19 21 20 22 22 20 20 21 21 26 26 26 25 23 24 23 23 26 23 23 25 23 23 23 24 24 26 25 25 25 25 22 26 21 27 23 25 25 24 28 27 27 28 26 24 25 28 23 24 24 24 23 26 22 21 20 19 15 19 12 10 
8 3 4 2 8 71 97 63 24 42 94 80 38 22 25 19 20 17 17 19 22 19 21 18 21 19 24 23 25 27 27 26 24 25 25 22 25 22 24 26 27 26 26 26 27 26 28 27 25 25 20 26 22 27 24 27 28 27 27 28 28 30 29 27 29 24 25 22 23 27 22 24 25 25 19 22 17 19 13 14 
13 12 12 4 11 79 97 58 21 44 101 82 24 11 11 11 14 16 16 19 20 17 19 16 19 22 22 23 21 24 27 27 19 24 20 23 23 23 24 25 24 24 24 25 25 28 26 24 24 23 22 22 25 27 24 23 25 29 29 29 33 28 28 28 29 23 25 21 25 28 23 25 25 22 21 20 19 18 8 9 
18 17 16 18 19 89 99 56 19 53 95 75 21 8 9 7 7 8 13 15 13 17 16 17 17 18 17 20 21 22 28 23 23 23 21 24 22 22 21 27 23 26 23 25 24 26 27 25 25 22 22 26 27 27 25 24 28 33 30 33 29 31 27 25 25 26 26 25 21 23 23 25 24 23 21 20 20 16 14 12 
17 19 18 16 16 84 92 53 20 55 96 70 16 8 7 8 9 6 7 7 4 5 7 6 10 13 16 16 19 21 24 20 21 21 21 21 22 21 23 27 21 24 23 25 23 25 24 22 23 23 22 26 25 28 27 28 29 27 29 28 32 32 29 26 25 29 27 23 23 25 23 25 23 23 20 18 26 19 15 8 
16 13 16 17 22 89 83 45 26 63 100 64 20 7 10 6 6 6 6 6 5 5 9 3 3 3 5 10 9 9 11 9 13 18 20 20 20 22 23 25 28 25 23 24 26 23 24 26 28 27 27 27 25 30 28 29 27 25 29 30 28 29 26 24 25 28 24 26 22 25 26 26 24 23 21 22 23 16 16 15 
14 13 14 16 33 89 79 38 21 69 94 58 19 10 11 9 11 9 9 8 3 6 6 3 5 5 6 6 7 8 7 6 3 5 4 9 17 22 23 23 21 23 24 22 26 26 25 28 26 26 29 28 25 31 29 30 28 30 29 30 29 31 27 29 27 26 26 23 22 24 25 29 24 25 22 21 22 19 14 9 
16 16 16 17 35 92 82 35 24 73 94 54 19 11 10 11 12 8 10 7 5 9 7 9 2 6 4 4 5 8 5 7 5 0 5 15 18 21 18 24 21 23 20 26 24 25 25 26 30 27 28 26 28 30 31 27 29 28 32 29 32 27 27 25 30 28 28 23 20 24 26 27 25 25 24 22 20 21 10 10 
14 15 17 17 44 96 77 32 23 78 86 50 19 8 12 13 9 9 8 8 6 9 8 7 3 2 8 5 7 8 9 6 6 14 20 19 22 22 21 22 18 21 23 23 26 23 30 25 27 28 27 28 31 30 29 30 29 28 28 30 31 30 29 24 26 27 28 25 22 21 25 25 24 24 23 23 21 19 11 13 
17 14 17 19 44 100 76 33 25 81 86 48 19 13 13 11 11 10 10 10 11 10 10 8 6 6 8 6 9 8 11 15 20 24 23 23 26 21 26 24 24 26 26 24 24 26 30 30 27 28 28 28 31 30 29 31 32 32 32 30 32 29 32 29 27 27 28 24 22 26 27 28 30 24 26 21 22 23 12 11 
17 12 18 18 48 93 69 26 23 80 83 42 17 11 13 11 9 11 12 8 9 8 10 9 5 6 5 7 7 8 17 21 21 21 22 19 24 20 25 22 24 20 25 22 25 26 27 26 25 25 28 29 28 28 29 28 26 30 30 30 32 29 29 29 26 27 27 25 23 25 22 25 25 23 26 22 23 23 15 12 
17 15 21 18 56 93 74 24 25 82 84 41 15 12 13 11 16 13 13 11 9 10 9 8 7 7 11 9 9 12 18 24 23 21 22 18 23 20 23 24 24 22 20 24 25 25 26 25 27 26 27 28 29 27 29 28 29 29 31 31 29 30 28 29 26 26 26 26 23 23 21 25 27 25 25 24 24 24 16 12 
20 21 20 23 71 101 74 30 30 93 83 41 19 14 14 13 13 12 14 13 10 11 9 9 7 11 10 11 10 12 17 22 23 23 20 19 22 20 22 22 23 22 26 27 26 27 27 28 26 29 28 29 28 28 27 25 28 30 30 32 31 33 31 30 30 28 27 26 24 23 22 24 28 22 24 23 20 25 17 13 
45 37 37 38 82 110 75 26 34 96 82 38 17 11 14 12 14 13 14 11 10 10 9 9 6 7 9 8 11 14 13 20 22 19 20 19 18 22 22 23 25 21 25 26 23 26 25 28 28 25 27 28 27 29 32 28 27 30 31 28 33 29 30 31 29 26 30 26 26 23 18 26 26 22 23 21 20 26 16 14 
102 97 92 90 105 109 61 24 41 93 82 33 17 13 12 13 11 12 13 10 12 10 12 8 9 7 10 13 12 11 11 17 22 18 20 18 21 22 22 19 24 23 25 25 24 26 25 25 24 26 26 30 28 27 28 28 28 30 29 30 31 29 29 28 27 30 28 27 26 23 17 23 25 21 24 22 23 21 19 19 
105 102 106 103 98 96 52 30 50 96 79 29 17 13 14 14 13 10 12 12 13 10 13 10 6 6 10 11 11 12 12 19 20 19 19 20 21 22 24 23 26 24 23 29 26 26 26 25 28 27 29 26 28 29 30 27 26 27 30 31 31 27 29 27 29 27 29 26 27 25 22 22 24 24 20 27 22 19 16 23 
58 65 75 81 77 69 31 27 53 99 80 34 20 13 15 16 16 17 15 13 13 14 15 14 13 10 11 11 12 13 15 17 22 22 21 22 26 22 24 24 27 26 26 25 26 27 29 30 28 30 28 29 29 29 27 28 27 29 31 33 33 32 36 30 31 31 30 29 30 27 27 24 24 24 22 20 25 26 18 9 
32 27 26 31 30 30 24 28 60 106 81 37 20 17 15 17 15 18 16 12 14 13 16 14 16 13 16 15 14 15 17 23 22 26 21 23 23 25 28 27 26 26 26 28 30 29 27 26 29 31 29 28 28 31 32 32 31 29 31 29 33 30 30 33 30 29 31 32 29 31 28 28 23 21 21 21 21 23 16 18 
46 42 37 30 22 27 27 31 69 109 81 29 17 15 17 15 13 14 15 16 11 12 15 14 10 14 11 12 14 14 15 24 25 23 23 22 23 22 26 27 26 27 27 27 27 22 27 27 27 28 30 30 27 32 31 28 29 31 33 31 32 34 31 31 29 30 28 27 27 32 28 28 27 24 20 20 20 20 16 11 
112 109 99 88 74 69 62 60 92 113 85 32 19 15 17 16 18 14 18 13 11 14 14 16 11 14 14 14 14 13 16 24 23 20 22 21 26 24 25 30 28 26 25 28 27 28 28 28 28 27 27 27 30 31 32 30 27 30 29 27 33 31 29 30 31 27 29 28 31 31 27 30 27 27 26 25 24 26 20 16 
112 110 110 105 101 105 98 95 101 99 73 25 19 16 16 18 18 16 19 17 14 17 15 11 12 13 13 12 15 14 18 22 25 22 25 26 26 25 28 30 27 27 25 29 27 27 27 30 30 28 30 30 28 31 32 31 29 33 33 30 30 32 30 29 30 32 32 27 31 30 30 28 27 27 28 24 27 24 21 16 
59 69 75 79 79 96 88 90 91 84 54 20 19 16 16 16 17 17 16 19 16 17 18 16 17 14 15 15 16 14 17 19 20 20 24 25 25 25 31 29 29 28 27 29 32 27 29 28 28 29 28 29 29 32 29 29 32 30 29 33 30 31 28 32 32 34 30 30 32 30 34 31 33 27 30 22 25 26 23 20 
27 29 33 30 26 37 36 41 46 38 25 21 18 16 18 17 18 17 18 17 15 21 19 16 13 17 16 18 18 14 15 21 25 23 24 25 25 25 26 29 26 27 29 28 27 28 28 27 26 28 29 30 27 28 28 30 30 32 32 32 32 32 32 30 29 30 32 30 32 31 31 30 30 27 27 23 24 27 22 20 
26 20 21 23 21 25 22 21 25 19 24 21 21 18 17 20 20 17 17 17 19 17 18 18 16 18 14 18 18 17 17 22 27 27 24 22 26 25 28 28 30 28 27 29 29 26 27 27 29 32 29 30 29 31 33 32 30 32 33 32 33 31 32 32 29 31 34 29 31 30 32 35 31 29 28 24 27 28 21 23 
19 21 21 19 20 20 21 21 23 20 20 20 19 16 21 20 20 19 19 19 16 20 20 17 18 18 19 18 20 14 18 21 24 27 25 26 23 25 26 28 28 28 25 30 29 28 26 28 27 30 30 32 28 30 31 31 30 29 32 32 35 31 32 30 31 31 30 30 31 27 29 30 30 30 29 26 28 27 19 16 
22 22 21 21 21 22 24 19 21 23 21 21 18 19 23 20 23 20 21 20 18 20 22 21 20 18 18 18 21 23 19 24 29 25 22 26 26 29 27 26 30 28 29 29 30 30 28 27 28 28 30 31 29 29 32 30 30 30 32 33 33 37 34 34 31 34 31 34 31 30 32 33 35 35 32 27 28 32 23 25 
21 22 21 17 18 22 19 21 18 19 22 20 19 19 21 19 21 22 21 21 18 20 23 22 20 21 20 20 22 16 19 24 27 23 26 26 28 23 27 28 31 29 27 30 29 29 27 29 30 31 30 31 29 34 29 29 34 34 30 35 37 34 34 33 33 33 32 32 30 32 30 33 31 33 30 27 26 27 28 23 
24 24 25 22 17 25 21 17 21 20 21 21 21 21 22 23 24 20 18 21 21 20 20 23 19 22 19 21 24 24 18 22 26 28 27 27 26 24 27 26 27 28 26 29 32 28 28 27 29 30 28 32 31 31 31 31 30 31 30 33 33 35 34 31 34 30 32 31 31 30 29 32 32 31 33 29 28 32 26 28 
25 25 24 23 20 23 22 22 24 21 23 19 21 19 21 22 21 22 21 23 19 21 23 22 22 22 25 22 22 21 18 26 26 28 28 27 29 27 27 30 31 31 27 27 29 30 30 31 31 30 34 30 32 31 32 30 33 31 32 33 35 34 34 33 34 28 32 34 30 33 32 30 31 33 32 30 28 31 29 29 
23 22 27 23 22 27 20 18 24 18 19 20 23 20 22 22 21 24 25 23 24 24 23 22 23 22 25 24 27 23 22 23 28 28 25 27 29 30 27 29 31 30 32 26 29 31 30 32 31 31 30 30 31 34 32 32 34 33 32 33 32 33 34 32 34 29 32 33 31 35 30 31 32 32 33 30 34 32 33 36 
22 22 24 22 18 28 19 20 28 19 19 23 22 22 25 23 26 25 24 25 22 24 26 24 22 25 23 24 29 21 21 22 27 29 30 26 30 26 28 34 30 33 28 27 32 32 30 31 32 30 30 31 32 32 31 30 34 32 33 30 30 35 31 31 32 32 31 33 34 35 30 31 32 33 33 30 36 40 40 44 
26 22 23 23 20 25 21 19 26 18 20 24 21 21 24 24 25 24 27 23 24 24 25 26 24 25 25 26 26 24 27 24 29 28 26 29 28 31 29 29 30 27 29 32 33 31 35 30 29 31 33 32 30 31 32 32 33 30 30 33 31 35 30 31 34 32 32 33 33 34 33 35 31 30 31 35 51 46 41 38 
24 25 24 24 22 25 22 20 24 18 21 21 22 19 23 25 26 26 29 26 26 25 27 27 26 30 26 29 29 26 25 25 29 28 29 28 26 30 31 31 33 32 31 30 31 33 28 31 31 31 34 29 32 32 30 31 32 32 29 31 34 33 32 30 33 30 34 33 33 32 32 35 33 30 32 31 36 36 39 36 
24 20 23 26 23 28 25 21 26 22 22 22 24 23 26 24 25 28 26 30 28 28 26 27 30 31 28 28 30 26 24 21 28 28 27 31 32 29 30 30 35 31 30 33 32 33 34 30 30 29 31 32 30 32 30 34 33 32 34 30 31 32 29 34 32 34 34 32 34 36 32 35 37 35 34 34 37 31 35 36 
21 24 21 22 25 30 25 22 24 22 22 22 23 24 25 26 26 27 27 28 24 30 28 28 29 31 26 29 30 31 24 27 32 29 28 30 29 31 31 33 33 32 31 30 27 31 26 30 32 29 29 33 30 30 30 31 27 31 30 32 31 33 31 32 31 32 32 33 33 33 35 39 39 33 35 36 39 37 34 36 
22 21 25 24 21 28 26 28 27 22 20 23 23 27 27 28 27 32 30 29 29 30 31 31 30 30 28 31 32 29 27 27 33 33 30 32 30 31 32 33 36 34 28 31 29 29 29 29 30 29 32 32 31 30 32 26 28 30 33 33 33 33 31 35 31 30 33 34 31 35 36 43 43 44 54 60 71 79 92 107 
25 28 26 27 22 26 27 27 27 23 26 25 27 26 28 30 30 31 31 30 33 33 34 32 33 32 28 30 27 29 27 25 29 31 31 32 32 31 32 28 35 31 31 31 32 30 29 30 30 31 30 27 29 29 26 32 30 34 33 32 35 33 33 33 32 31 34 35 36 46 63 81 92 103 113 120 138 147 162 183 
25 25 27 25 24 31 29 24 24 23 25 24 28 27 29 27 31 33 34 33 30 35 33 35 35 36 33 29 28 30 26 25 32 31 30 33 30 33 33 30 36 33 28 30 30 30 33 31 31 31 31 30 30 29 31 30 27 33 31 30 35 34 34 33 33 33 35 38 34 64 101 121 133 136 144 151 166 181 199 223 
24 22 25 28 22 28 28 28 22 24 24 26 28 29 32 31 32 32 36 35 34 38 33 35 35 32 31 30 28 31 25 24 26 31 30 34 32 30 33 34 35 35 29 30 31 28 30 28 27 31 29 31 32 30 31 28 30 32 31 33 34 33 32 33 34 31 36 36 42 74 112 145 157 163 174 184 194 213 229 240 
27 25 26 25 25 30 29 26 22 26 26 26 29 26 29 28 31 32 32 32 34 35 38 36 37 34 36 41 33 33 35 30 28 28 32 34 32 32 31 34 34 33 31 32 31 30 31 31 30 28 33 29 30 30 29 29 29 31 32 29 36 32 31 35 32 31 34 37 36 71 118 152 165 172 179 192 203 220 238 246 
28 25 27 28 22 29 33 27 26 28 28 28 28 31 29 32 33 34 36 34 35 34 35 37 38 40 44 44 42 40 39 33 32 32 33 35 33 32 37 36 34 32 33 34 34 27 31 30 32 30 30 32 31 32 29 31 30 32 31 32 34 36 33 33 31 34 38 36 36 65 113 150 163 176 180 189 207 222 234 247 
29 22 27 27 24 30 29 25 24 30 27 28 30 30 29 30 32 34 36 35 36 38 36 39 37 39 45 44 43 40 36 31 29 30 34 31 32 32 32 38 35 35 30 34 31 31 29 30 27 32 33 31 32 30 29 29 33 33 31 32 33 35 34 35 33 34 35 35 38 63 110 145 163 171 177 188 200 219 235 246 
29 27 30 32 27 31 30 26 27 31 28 28 31 33 31 34 33 35 36 36 41 41 40 41 38 40 47 45 41 43 38 34 32 33 34 34 34 36 38 36 36 34 34 35 32 31 31 32 27 31 28 34 33 35 33 32 30 33 33 34 40 35 35 33 35 36 35 37 37 62 107 141 158 167 175 188 203 215 234 247 
30 29 30 31 28 36 31 30 30 29 33 31 31 31 35 36 35 39 38 40 39 42 42 42 39 44 46 44 43 44 43 37 31 32 37 36 36 35 36 39 38 38 35 33 36 34 30 31 32 32 32 31 34 30 36 37 35 32 37 34 34 36 33 34 35 38 36 39 40 56 104 136 156 166 172 184 196 211 233 239 
32 31 35 31 31 38 35 34 31 29 34 31 35 32 37 37 37 40 39 42 45 46 44 45 45 46 48 48 46 43 42 38 31 32 38 37 37 37 34 39 40 38 31 37 32 32 30 33 32 33 34 33 34 35 39 39 39 39 39 37 37 33 34 36 38 39 37 36 39 53 102 135 154 164 171 180 193 209 225 238 
32 32 34 33 33 38 36 33 30 35 36 35 39 31 36 39 37 40 44 43 46 49 49 45 46 48 52 50 45 42 45 36 35 37 37 41 41 38 38 39 36 37 36 38 36 34 36 34 34 32 35 37 37 40 46 48 44 42 41 36 38 36 38 35 39 36 35 38 41 54 94 133 151 162 167 176 180 182 210 238 
38 34 36 35 35 40 40 36 37 36 39 38 39 39 41 41 42 46 45 48 46 51 52 53 51 54 52 53 48 50 50 44 37 35 39 43 40 38 40 41 40 40 36 37 36 36 38 34 35 37 38 35 39 42 50 65 79 65 51 42 37 37 40 37 39 40 40 40 39 51 94 133 150 162 164 170 170 164 207 250 
39 39 45 38 37 42 47 38 38 36 39 43 42 43 43 43 45 50 49 52 53 57 56 54 55 58 58 59 56 53 55 44 40 40 43 46 45 45 41 43 44 43 42 40 38 37 36 35 36 37 40 38 44 45 79 196 170 105 64 46 42 41 40 38 42 38 41 37 45 52 91 130 153 164 168 175 179 194 220 240 
45 43 44 44 41 49 41 39 42 41 43 43 43 42 46 48 50 54 54 56 59 61 62 61 61 61 62 61 57 57 55 46 42 44 47 45 48 42 45 43 42 42 44 39 43 40 38 40 40 41 41 41 43 49 94 238 181 103 60 46 39 41 38 39 39 39 40 42 44 56 88 126 151 162 170 174 190 204 220 231 
49 48 49 49 47 50 49 45 44 44 47 45 46 46 48 49 54 55 60 63 62 64 64 63 66 66 67 63 61 60 56 49 41 44 47 51 46 46 40 42 41 44 42 41 45 41 38 41 39 39 39 40 42 48 59 93 94 69 57 49 41 39 41 37 39 39 39 42 43 48 85 122 151 163 168 176 190 206 219 233 
60 54 56 56 51 60 57 52 49 47 51 50 52 50 51 52 55 60 59 63 67 72 70 76 76 75 76 74 66 63 53 50 45 44 49 48 48 41 40 43 44 46 44 43 44 44 39 44 39 41 40 43 41 46 47 56 61 56 53 44 44 43 43 39 37 41 41 41 42 49 81 124 150 163 173 176 194 207 215 222 
76 70 67 59 53 58 59 54 50 49 52 50 54 56 55 54 55 61 65 71 70 73 79 78 76 82 80 76 68 63 57 54 46 47 47 53 52 49 57 74 49 48 50 47 45 44 46 44 40 44 43 44 43 45 48 49 53 50 49 44 42 39 41 41 41 38 39 40 40 44 73 130 148 165 171 179 197 208 221 227 


