P2
80 60
116
74 69 71 68 68 71 67 64 62 64 61 62 62 58 59 58 56 58 63 62 61 61 60 55 54 51 51 56 55 56 48 57 55 52 57 53 49 51 52 53 55 51 52 53 56 53 53 56 58 56 53 49 48 48 54 54 53 50 52 57 56 61 57 55 54 58 55 58 64 60 59 57 60 62 58 59 51 51 47 49 
72 76 75 68 68 71 66 65 61 67 67 64 61 58 57 60 60 60 64 62 62 63 59 58 51 53 51 57 55 50 49 50 54 53 54 55 53 50 54 51 53 52 52 53 49 56 56 58 57 57 52 49 51 49 51 57 53 56 58 60 58 62 57 59 56 51 55 55 57 61 65 55 59 63 59 58 50 48 50 47 
71 70 70 65 68 65 66 68 68 63 59 60 53 56 59 60 61 59 63 60 57 60 62 59 57 52 54 55 50 50 50 53 52 51 49 51 50 49 50 50 50 49 50 47 53 53 50 53 50 54 51 46 48 51 53 55 55 59 55 59 58 62 61 57 57 55 52 47 57 58 61 53 60 63 57 56 51 44 43 45 
78 70 66 67 62 70 70 68 60 62 56 62 61 59 68 58 61 61 62 62 61 62 61 58 51 51 54 56 50 54 53 52 52 53 53 50 51 46 50 49 49 49 47 44 48 51 49 57 54 53 50 51 52 49 51 53 54 57 55 58 58 57 58 57 55 58 55 54 54 53 61 53 58 61 52 57 53 43 39 49 
81 71 70 63 65 70 69 69 66 63 60 63 60 63 63 57 63 61 63 60 58 59 56 54 53 54 49 53 51 52 47 53 50 51 55 50 44 46 50 43 50 44 48 46 49 47 49 53 55 56 46 45 47 48 46 51 58 57 55 56 59 58 56 56 58 57 57 55 57 49 58 56 56 64 56 53 51 49 43 48 
84 71 74 63 64 66 70 67 61 64 65 63 63 59 64 62 64 60 60 63 60 60 56 53 48 53 48 53 50 52 46 51 48 51 54 48 43 48 45 46 46 48 46 47 48 49 45 51 53 51 54 49 50 49 42 40 57 53 54 56 57 58 58 56 59 59 58 58 58 57 62 63 59 61 57 57 50 48 45 54 
81 71 66 64 65 68 66 62 61 63 61 61 61 63 67 62 63 61 62 60 59 56 57 48 49 52 47 55 51 54 49 51 52 53 45 46 46 44 48 46 46 43 46 46 45 44 41 47 51 50 48 52 47 47 41 38 50 49 51 56 57 58 54 58 60 59 52 59 59 58 64 61 56 60 57 57 52 49 52 54 
79 69 68 62 63 67 65 65 61 62 59 62 61 59 63 60 62 62 59 56 55 48 47 46 48 51 52 52 49 52 51 52 45 45 48 43 47 42 44 45 44 43 41 44 46 43 37 45 44 47 47 48 48 42 45 37 41 48 46 53 56 58 55 57 56 59 57 56 57 59 59 56 65 61 56 62 54 52 55 58 
78 68 77 65 67 67 70 66 67 58 59 60 62 58 64 62 63 62 63 50 52 43 50 51 52 54 51 53 53 52 51 51 47 47 48 46 43 47 44 43 42 43 46 44 44 46 40 46 43 44 44 47 49 48 39 44 39 46 48 55 54 59 58 57 55 58 58 62 59 62 64 59 60 65 61 61 62 58 60 59 
79 72 73 66 71 69 67 70 63 60 59 62 57 62 68 59 63 63 61 49 42 47 56 56 52 53 52 54 55 51 50 49 50 47 48 49 51 47 44 43 42 42 44 44 45 42 47 47 45 47 45 50 53 50 49 45 52 52 51 53 56 57 57 54 55 56 56 55 61 64 64 58 64 64 63 62 67 62 62 58 
72 69 71 66 63 66 69 68 62 59 61 59 57 62 63 60 61 58 53 45 45 47 50 54 51 53 51 51 49 50 48 44 42 46 48 46 45 44 37 32 29 29 36 35 41 49 44 45 44 43 43 43 51 44 48 47 49 49 46 48 53 52 52 56 53 56 56 50 54 59 62 55 66 61 65 59 58 58 61 60 
70 67 72 64 68 65 66 64 59 61 63 62 57 57 60 57 54 53 50 49 52 52 52 49 52 53 50 51 49 51 47 46 41 44 46 45 38 29 20 16 17 19 20 29 41 40 43 42 38 42 45 45 51 46 44 42 53 48 49 51 50 53 52 53 54 57 49 48 59 53 58 55 60 66 63 62 60 60 64 61 
75 69 72 67 67 63 66 64 60 60 61 59 62 59 59 57 56 53 54 50 51 53 54 55 54 50 48 50 49 50 47 47 42 49 47 43 32 11 12 9 13 12 18 20 32 39 47 42 45 44 42 42 46 51 48 44 54 51 47 53 51 51 52 52 54 57 52 49 53 50 60 56 65 66 64 61 64 60 63 70 
75 71 72 67 70 65 69 64 61 62 63 61 61 62 62 62 60 55 54 49 50 53 56 53 53 50 47 52 48 52 46 48 51 47 44 39 19 8 6 10 13 10 18 21 24 40 42 46 44 44 43 40 48 48 48 50 47 51 54 51 53 51 50 54 53 55 50 50 61 59 59 59 63 62 61 63 64 68 80 85 
71 73 73 66 66 71 67 65 63 62 62 60 58 62 64 58 60 53 53 52 54 54 57 53 50 50 52 54 50 47 48 47 46 48 45 32 18 9 9 4 2 5 13 19 27 36 38 45 44 45 42 38 50 47 51 52 51 54 52 55 51 54 51 54 52 53 54 55 55 59 60 53 64 66 63 70 76 90 101 108 
71 70 71 67 66 65 69 62 63 61 61 61 58 58 59 57 54 57 55 51 48 50 54 54 48 50 47 50 48 46 45 46 42 45 43 26 10 10 7 0 3 8 9 16 25 35 39 43 44 41 38 40 42 42 49 48 48 52 49 50 50 50 49 49 50 54 51 54 60 55 57 56 61 63 68 84 94 106 111 111 
70 68 73 68 64 67 70 67 63 62 62 57 61 60 57 55 53 57 57 55 55 51 55 52 50 49 48 50 45 45 46 47 48 45 42 34 17 8 10 5 6 13 13 16 21 36 43 43 41 44 38 36 41 43 49 47 47 49 47 51 53 52 49 48 47 53 56 56 55 56 60 53 65 73 89 105 113 113 110 106 
73 69 70 65 66 66 67 67 63 63 59 61 60 57 58 52 56 55 56 54 53 54 56 51 49 48 49 46 46 48 46 43 46 44 38 35 23 9 12 6 10 14 13 18 30 42 49 43 44 39 42 41 42 41 48 48 45 49 47 50 49 51 48 44 39 47 50 54 61 56 58 52 70 90 109 114 116 115 116 108 
68 68 69 63 66 68 68 64 63 63 56 57 52 55 57 52 53 54 53 51 50 50 51 49 48 46 44 47 42 42 43 44 43 45 39 35 28 19 15 7 12 14 21 23 38 45 44 43 40 38 38 37 40 41 44 43 42 45 43 46 51 52 49 45 31 42 44 44 54 48 55 60 83 104 108 110 114 112 108 103 
73 69 70 65 67 70 68 66 63 61 59 56 53 57 60 55 52 51 49 48 46 49 52 50 47 46 48 45 44 43 41 42 40 42 39 35 32 29 27 20 18 17 24 28 44 45 40 43 40 39 42 37 38 39 42 42 37 37 37 43 46 52 46 41 37 35 44 44 51 39 51 60 81 95 99 103 97 97 102 101 
72 75 71 64 70 71 70 67 64 63 59 54 57 62 59 53 54 52 48 47 50 51 52 51 49 52 47 48 44 44 44 47 40 42 42 38 41 38 36 32 33 33 39 38 44 41 42 43 43 40 39 36 40 41 41 37 39 37 39 45 42 47 41 40 45 44 40 41 44 40 50 61 82 92 91 97 94 96 100 103 
72 69 67 61 65 66 66 64 62 61 57 52 54 57 54 49 50 49 47 48 47 48 48 47 45 46 43 47 44 44 42 37 38 42 42 40 37 35 41 36 34 38 38 39 43 40 40 39 41 38 37 34 41 42 42 37 36 29 31 40 46 50 47 42 42 44 41 38 36 30 45 52 76 83 84 86 93 97 107 104 
71 70 69 59 67 67 63 64 61 56 56 56 54 58 54 51 50 47 49 44 47 45 47 42 40 38 38 43 44 44 43 41 41 40 39 42 40 34 36 35 38 39 41 42 44 41 39 37 37 38 34 35 41 40 42 37 35 31 31 36 43 46 43 46 43 46 45 39 35 34 43 47 69 77 80 83 93 94 102 97 
69 65 68 60 64 65 63 66 59 61 58 52 52 52 52 52 49 50 51 46 48 40 36 29 20 25 27 39 42 44 44 44 42 40 39 39 40 38 41 38 38 43 40 39 39 41 36 39 38 38 33 33 36 40 36 37 33 36 32 34 35 40 51 46 48 49 41 38 37 39 44 46 57 66 72 74 80 83 82 74 
66 62 69 62 67 66 66 61 62 59 57 56 50 53 53 50 50 52 52 46 43 34 17 17 17 23 18 29 38 45 44 40 40 43 42 41 43 40 41 42 40 42 40 37 41 42 39 39 39 39 35 35 36 40 39 38 35 36 34 37 37 37 45 50 48 48 44 40 45 41 48 45 54 63 59 60 62 66 62 59 
72 70 72 61 61 67 65 64 61 55 57 53 53 53 52 46 47 49 52 45 37 24 15 17 14 13 18 24 34 42 46 42 40 39 43 40 43 41 41 40 42 41 39 39 40 44 40 38 36 38 35 33 37 40 40 36 38 37 32 32 32 37 38 44 46 51 44 42 47 36 44 49 51 56 52 57 59 51 56 53 
70 70 70 60 59 68 65 68 60 55 53 55 53 53 53 47 47 50 49 44 23 19 13 8 12 7 12 24 27 40 45 42 37 39 42 38 43 40 40 40 38 39 41 41 37 39 39 38 38 37 37 33 38 37 38 35 39 36 34 33 27 27 38 41 47 47 43 48 47 36 43 49 48 55 54 50 59 49 58 51 
68 63 66 60 61 67 65 65 62 56 54 54 53 51 53 52 47 48 49 41 34 19 18 14 11 16 15 22 25 37 44 46 39 40 42 41 41 41 42 40 42 39 40 36 43 36 40 40 37 40 35 33 31 33 39 38 37 35 34 32 30 36 38 42 44 42 43 42 45 47 44 44 47 55 54 54 54 53 60 52 
66 63 68 62 63 67 69 67 61 59 57 54 53 52 52 48 49 48 47 40 37 26 19 14 14 16 18 24 24 39 44 45 44 42 42 40 42 42 44 39 42 39 40 39 41 38 40 41 36 39 34 34 33 38 39 37 38 37 34 33 35 38 42 41 45 47 44 44 46 48 52 42 44 49 52 54 56 55 58 50 
66 66 69 64 65 68 65 65 62 60 58 59 55 56 54 47 50 50 49 42 42 39 28 17 15 23 20 26 31 45 43 44 43 41 43 44 40 41 41 44 40 41 39 40 41 37 38 40 37 37 36 35 36 37 36 37 37 37 37 33 36 41 42 40 45 47 44 44 50 47 50 45 45 47 47 55 58 55 52 49 
69 68 70 62 65 68 65 66 62 63 62 60 56 55 55 51 52 51 53 41 41 43 36 30 24 27 29 34 42 47 45 46 44 44 43 41 44 43 40 41 43 39 42 39 40 39 40 40 35 40 39 38 38 39 34 40 40 39 37 37 39 38 42 42 45 49 49 50 48 49 51 43 36 44 48 52 54 56 58 51 
70 68 68 64 64 68 65 66 64 66 60 62 58 53 53 52 52 49 51 46 41 43 44 40 33 33 26 43 46 47 44 47 44 44 44 45 45 43 42 44 38 38 40 39 42 38 37 41 38 36 40 37 38 40 37 36 40 38 39 36 39 38 45 40 39 47 47 50 52 54 49 43 41 40 49 46 51 51 54 50 
72 69 70 64 65 66 68 68 66 64 61 59 58 57 58 54 55 51 52 48 45 44 45 43 44 44 43 45 48 43 43 48 44 44 45 41 42 40 42 41 40 40 40 42 41 39 35 39 37 38 38 37 41 39 35 39 40 38 36 38 37 41 43 45 41 45 45 52 50 52 51 39 46 48 46 47 57 54 56 52 
71 69 70 62 61 70 66 68 63 66 62 62 57 58 58 54 54 51 52 47 48 48 50 43 44 46 47 45 50 50 42 44 43 45 42 40 40 43 42 42 41 36 40 42 44 42 38 38 40 39 41 38 39 37 39 37 37 37 40 38 40 41 44 43 42 39 48 49 54 49 49 43 51 53 49 47 55 54 59 49 
66 69 68 59 62 67 68 67 63 65 63 65 60 57 58 55 51 50 50 50 50 49 52 48 47 46 45 44 48 45 45 42 43 43 42 40 39 40 42 40 42 42 41 41 38 42 38 41 39 38 36 40 38 36 35 36 37 35 35 40 36 42 44 42 41 38 41 47 52 50 49 42 47 51 46 47 51 56 53 55 
69 67 66 61 64 66 69 63 64 68 64 62 62 60 60 53 53 55 50 46 48 48 50 50 45 45 46 47 46 47 45 47 43 40 43 39 42 38 42 41 40 37 40 44 40 39 39 40 39 41 39 38 37 36 35 35 39 38 36 39 35 40 43 44 40 42 46 38 51 52 47 48 50 52 52 48 50 51 54 57 
71 69 69 64 63 65 68 67 68 69 62 62 62 60 61 56 56 53 53 52 49 50 49 47 44 46 48 48 46 44 46 44 46 43 44 38 41 37 42 43 42 39 41 40 42 40 41 43 42 41 36 36 33 37 37 36 38 37 35 39 37 43 42 42 38 43 40 43 45 53 51 45 55 54 45 48 55 50 54 50 
70 69 71 62 64 64 62 62 64 67 65 62 59 60 63 56 57 53 53 50 47 49 51 47 47 50 49 47 42 46 43 45 42 41 43 39 41 36 41 41 41 41 39 38 40 39 40 41 40 38 35 34 34 36 35 35 36 36 35 38 42 37 43 41 39 41 42 44 49 49 51 51 49 55 52 52 53 50 51 49 
66 66 68 62 68 68 70 66 64 65 64 65 60 59 62 56 58 57 53 50 49 48 51 47 46 44 48 47 45 47 44 40 40 45 43 41 39 38 41 39 42 38 42 37 39 40 41 44 39 35 31 33 32 33 36 34 37 36 34 41 34 39 39 37 41 37 40 44 45 47 51 48 52 57 50 56 49 47 51 46 
67 68 68 61 63 66 67 67 66 63 61 65 64 60 61 58 59 59 54 52 52 50 53 47 45 48 46 47 48 43 43 45 41 42 42 42 41 39 42 37 44 39 40 41 43 39 41 42 40 39 34 33 34 31 34 36 35 36 33 35 33 33 39 36 37 40 35 36 47 49 50 49 50 53 52 53 49 44 47 41 
70 71 68 60 64 69 68 68 64 63 63 66 65 62 65 59 58 58 55 49 55 55 48 48 46 49 48 47 50 47 46 46 48 43 47 39 40 40 42 43 44 43 41 44 46 41 39 42 40 43 35 35 34 36 35 40 37 37 35 35 33 37 39 41 37 41 44 39 44 50 52 48 48 54 53 53 49 52 47 40 
68 70 67 58 63 66 67 66 61 58 62 66 66 61 63 59 62 61 56 52 53 56 55 52 49 50 48 45 46 49 45 43 40 42 42 43 42 38 43 41 45 41 44 44 40 42 39 43 41 41 35 31 34 38 39 35 37 36 36 34 38 36 38 39 40 37 42 38 47 46 52 44 45 49 51 49 41 47 41 40 
68 68 70 65 62 66 67 66 59 60 64 64 62 63 66 59 60 58 57 56 52 53 53 45 49 48 45 49 48 47 46 45 41 42 44 41 38 39 41 41 44 41 40 40 43 40 38 41 43 41 38 32 37 37 35 37 35 37 34 37 34 34 34 37 36 40 35 33 41 44 48 40 41 47 47 52 44 41 45 40 
70 67 67 62 67 67 64 65 65 62 60 62 65 64 63 59 61 62 60 56 54 54 54 48 48 50 49 50 46 45 46 46 44 43 44 41 43 39 40 43 43 42 36 43 41 40 39 42 40 37 37 34 34 36 35 34 34 32 35 34 36 34 38 36 34 36 38 36 43 43 50 39 46 50 48 51 49 50 48 42 
68 67 67 67 66 68 64 64 60 64 59 61 65 62 65 62 59 62 61 54 58 54 55 54 48 48 52 49 50 49 44 46 40 46 47 43 43 41 40 39 44 39 43 40 41 39 35 39 39 41 34 33 31 30 32 35 34 35 32 34 34 35 34 33 32 35 40 33 40 37 47 42 41 48 48 46 48 52 47 45 
69 69 70 63 66 65 63 60 57 56 59 63 60 62 64 60 60 63 64 57 59 59 57 54 52 51 57 52 46 46 49 47 43 44 46 43 39 40 41 41 42 41 42 44 41 40 36 39 39 39 34 32 32 31 32 30 33 28 29 32 32 35 33 32 34 34 35 39 38 39 47 34 42 45 47 43 48 48 46 46 
68 71 70 65 62 64 63 65 60 60 59 59 58 59 59 62 59 61 64 60 59 59 57 56 54 51 51 51 46 46 48 46 45 45 44 42 39 40 40 42 43 40 40 40 41 41 34 38 36 38 37 36 31 33 30 28 24 27 27 29 29 38 34 32 33 35 33 34 41 41 43 38 44 46 43 47 51 47 46 46 
65 69 71 63 62 65 62 66 61 64 61 61 61 56 61 60 62 61 59 61 56 61 61 56 53 52 49 52 51 49 47 48 42 42 45 41 41 40 38 37 41 38 36 38 42 42 38 37 38 40 35 32 35 33 32 24 20 19 21 27 25 32 34 34 33 37 38 40 39 37 41 38 38 45 47 48 50 43 45 45 
65 66 70 63 63 68 66 67 64 64 63 63 60 60 62 62 64 63 59 59 61 61 64 59 57 54 50 53 50 50 49 49 47 44 45 44 38 43 39 42 39 39 42 42 42 40 37 40 38 38 33 32 37 32 26 23 19 17 18 28 30 33 32 35 33 42 39 39 41 38 43 36 42 43 40 45 52 49 50 45 
69 66 65 65 63 64 64 65 64 64 64 61 60 59 55 56 55 57 59 55 59 59 61 58 55 55 52 50 48 49 46 48 47 46 45 44 42 40 44 40 39 37 39 43 44 43 38 38 38 37 33 31 31 30 21 21 4 9 8 17 26 30 36 32 33 33 37 36 40 37 42 37 40 40 41 40 42 48 47 49 
68 69 69 66 63 68 66 64 65 63 63 60 56 57 48 51 51 56 59 60 61 57 59 62 56 55 57 57 56 49 47 48 47 48 46 44 43 42 44 41 41 38 41 43 39 37 41 39 35 35 32 30 31 31 23 16 16 8 12 24 29 34 34 37 33 40 39 38 38 41 44 37 42 44 43 42 42 47 48 46 
70 68 68 64 64 67 66 65 63 65 64 57 55 43 42 37 44 52 56 60 60 57 60 60 58 57 56 63 56 50 52 50 48 46 48 45 43 41 44 42 43 42 43 38 40 40 38 36 35 35 32 35 28 26 31 25 18 18 20 26 30 37 37 38 36 36 40 40 43 41 41 36 46 42 40 48 48 43 49 48 
72 67 74 65 64 67 63 69 66 60 61 59 55 47 41 34 38 50 62 61 63 62 62 58 61 58 58 61 62 57 51 51 48 47 47 44 46 44 43 44 44 44 45 43 46 41 37 40 38 38 41 42 40 35 35 30 28 25 30 34 34 38 40 37 41 41 39 40 46 42 46 42 45 46 46 42 47 47 45 47 
71 69 72 67 69 68 65 66 62 66 62 53 54 51 39 38 39 52 59 57 60 65 60 60 59 57 56 61 58 61 64 52 52 48 49 44 45 41 44 43 45 43 45 42 43 41 42 42 48 55 48 44 51 47 43 33 38 33 29 36 34 38 39 41 37 42 44 45 44 41 43 38 44 44 40 43 50 45 41 44 
70 73 74 66 71 67 69 66 65 65 60 63 58 59 52 46 52 55 62 59 64 64 66 60 60 60 58 60 59 68 56 56 54 52 51 46 46 48 46 46 46 44 46 47 47 46 50 59 55 47 35 34 40 51 47 45 44 38 30 32 37 38 42 38 40 43 41 44 45 43 44 36 43 47 44 48 47 50 45 43 
77 74 75 65 70 72 72 71 68 66 60 61 62 62 58 58 60 62 65 61 66 64 69 65 63 65 64 66 62 63 62 60 56 52 56 49 50 48 49 47 47 44 48 45 46 55 59 51 43 40 36 34 38 38 47 44 51 44 44 42 43 43 45 42 43 47 42 48 46 44 45 42 41 46 50 47 52 47 49 41 
71 76 74 72 73 73 71 72 69 72 60 70 63 63 63 58 68 65 67 65 66 62 67 66 63 63 66 66 62 64 60 59 59 52 55 54 53 52 51 50 45 49 48 45 53 59 51 48 37 42 35 40 38 41 51 47 49 51 43 46 41 47 44 45 44 43 44 43 48 45 48 42 40 44 42 47 44 42 44 40 
69 75 75 68 70 71 72 71 66 72 63 65 66 67 67 61 65 65 69 64 65 59 67 65 65 64 64 65 61 62 60 61 59 57 56 52 54 50 49 49 50 46 45 46 59 50 43 44 42 40 39 40 35 28 38 46 45 49 48 44 45 46 44 40 42 47 46 43 45 42 49 42 42 43 45 39 46 45 42 42 
74 78 76 68 71 71 74 72 68 68 68 70 66 63 71 62 67 66 68 69 67 67 65 70 68 67 64 65 66 64 69 66 63 64 63 57 55 53 50 51 54 50 54 60 56 49 43 42 43 43 42 41 39 48 44 40 50 50 48 47 49 45 46 45 48 45 45 45 44 46 48 42 49 47 42 43 46 47 49 42 
76 78 79 68 72 74 73 72 70 70 69 70 71 76 79 65 64 66 70 67 72 72 70 72 70 65 68 68 71 68 73 67 65 64 66 59 59 55 52 51 53 53 62 63 54 48 46 48 43 43 43 41 41 43 42 41 53 48 55 47 47 50 49 48 48 46 46 46 50 46 52 48 48 50 51 46 51 46 47 46 


