P2
80 60
244
22 21 29 43 76 104 81 44 54 92 91 51 42 39 34 33 29 26 27 25 25 22 23 22 19 27 26 26 29 38 32 30 32 28 27 26 24 24 25 24 26 26 25 25 27 26 27 23 18 16 16 15 19 18 15 12 18 21 19 22 21 22 23 22 23 19 15 19 19 22 25 22 24 20 19 15 19 22 15 14 
19 23 36 46 82 103 76 38 55 92 88 50 39 39 33 30 31 28 28 24 24 22 24 25 25 27 28 27 24 33 32 29 29 29 24 22 26 26 22 25 26 25 27 27 28 28 26 27 22 19 19 18 17 18 18 19 24 21 23 25 25 27 26 29 27 17 15 19 22 19 24 23 25 24 17 17 21 22 15 11 
20 24 35 42 85 102 70 35 61 94 86 46 34 33 32 31 26 32 27 25 25 25 24 23 26 25 27 26 27 34 31 28 29 26 28 23 24 24 26 25 27 23 25 26 24 27 26 28 25 22 22 24 25 24 25 25 25 27 31 30 24 28 28 26 24 18 17 18 20 20 22 19 27 25 21 19 23 21 18 12 
19 22 33 46 93 97 65 36 64 95 80 43 32 32 27 30 28 29 24 26 25 25 24 28 30 28 27 29 30 32 31 27 28 25 23 24 18 25 21 23 26 28 25 26 27 26 28 29 27 28 26 26 27 26 26 24 28 29 28 30 26 28 23 22 20 19 17 17 22 21 25 23 24 21 20 19 24 22 20 13 
21 26 37 49 97 104 60 37 67 91 76 38 33 27 24 31 27 26 24 24 25 24 27 27 27 27 28 28 30 30 28 29 29 26 23 21 26 25 21 20 25 25 25 26 24 26 28 31 29 29 26 25 28 26 26 25 26 26 29 24 22 24 20 21 22 21 17 17 20 23 24 24 25 23 19 20 23 18 16 17 
20 25 35 57 98 93 60 40 75 96 74 31 33 26 26 27 23 27 25 22 24 25 25 24 27 24 24 28 27 30 30 30 28 25 24 22 20 24 22 21 22 23 23 23 24 24 24 28 25 30 27 25 27 25 26 27 25 23 25 26 21 23 24 25 23 25 12 15 23 24 26 22 24 25 20 21 20 15 9 11 
17 27 37 59 100 92 51 35 76 95 69 30 30 27 26 23 24 25 28 25 25 23 23 24 24 25 25 27 27 31 29 29 29 24 22 25 24 21 23 21 22 24 23 23 24 22 24 25 26 25 26 27 25 26 25 23 26 26 26 23 23 26 27 24 25 22 17 17 22 25 24 22 23 22 23 22 21 13 9 15 
17 28 32 53 99 87 49 35 77 92 63 27 28 24 26 28 19 22 27 24 23 22 22 23 23 23 25 30 26 32 30 28 27 26 24 24 25 23 22 23 24 22 23 23 24 25 21 25 25 27 24 22 25 23 23 23 28 25 27 28 25 30 24 29 24 25 19 17 22 23 26 24 26 21 23 23 18 15 11 14 
8 23 29 49 101 89 45 36 83 93 60 27 22 20 20 24 22 25 24 22 24 19 22 23 24 22 24 27 26 32 27 28 25 25 23 26 26 26 24 21 25 21 24 25 25 25 25 28 28 25 24 20 23 21 26 28 25 30 29 31 28 32 25 25 22 29 16 14 22 24 27 24 24 26 22 24 19 16 12 12 
6 0 0 42 103 87 37 27 86 97 55 22 20 20 20 20 21 24 20 21 19 20 21 22 21 25 22 23 26 28 32 27 28 22 25 25 24 25 23 26 26 22 24 22 25 26 25 27 23 23 24 25 24 25 28 25 26 29 30 30 29 27 28 25 27 28 18 18 21 26 26 25 25 27 26 24 17 20 14 11 
7 3 4 48 105 86 28 21 98 105 49 13 11 10 8 15 17 17 16 18 21 18 21 21 22 22 19 23 22 30 28 25 24 23 21 24 20 26 22 21 23 23 21 22 24 23 23 20 23 23 23 23 25 25 25 25 30 29 31 30 28 26 25 26 25 26 18 16 16 23 27 25 24 23 23 18 17 20 15 12 
9 14 17 60 111 86 28 30 100 102 45 15 9 7 13 9 7 13 16 14 12 14 16 18 19 20 19 21 21 22 28 24 25 25 23 20 22 24 23 24 22 24 26 23 23 21 23 26 27 28 31 28 27 27 29 30 29 29 30 29 28 26 26 27 29 28 23 18 20 21 24 27 28 24 28 22 18 20 13 10 
12 14 18 57 104 83 31 33 95 101 45 9 10 10 7 7 13 12 7 4 6 5 6 10 10 12 13 13 11 16 18 21 19 20 20 20 19 21 24 22 26 23 21 24 22 20 25 26 27 30 28 28 28 27 26 26 28 28 26 31 28 25 26 28 23 25 22 17 19 24 26 25 23 28 23 22 20 16 13 15 
12 18 20 65 102 77 33 39 101 100 40 14 11 11 12 10 12 11 9 7 7 10 5 7 8 7 4 8 9 8 10 7 15 11 15 20 21 24 22 25 20 22 22 23 26 26 26 30 29 32 30 30 28 26 30 28 31 27 32 31 29 27 28 30 29 28 25 19 15 24 30 29 28 29 28 28 23 22 15 13 
9 15 21 74 98 68 27 40 101 93 38 19 19 17 17 16 13 10 10 7 8 7 8 5 6 6 6 7 10 8 11 6 6 8 19 21 24 26 22 20 22 23 24 27 27 27 27 31 33 31 32 29 28 29 29 30 30 32 30 31 29 27 27 27 30 28 27 21 20 26 26 27 27 32 26 27 28 17 16 14 
14 15 24 73 96 64 25 40 101 85 37 15 11 12 16 14 9 11 13 7 8 6 9 8 7 6 7 7 9 10 7 9 14 17 23 24 24 21 21 23 22 24 25 25 27 26 27 26 28 28 29 29 26 31 30 26 29 26 32 32 27 28 26 27 27 29 25 21 18 18 24 29 29 27 26 29 29 19 17 18 
14 19 25 75 95 66 25 42 102 86 32 18 16 14 14 15 14 13 11 10 13 12 11 10 10 9 8 10 12 15 20 21 26 26 26 26 21 22 24 23 23 23 26 28 30 27 26 26 31 28 32 30 34 29 28 31 31 30 28 29 29 29 32 29 29 30 31 23 20 25 31 27 27 30 25 33 28 23 18 19 
14 17 24 78 97 64 22 43 102 82 32 16 16 15 14 17 15 12 13 12 16 13 12 12 9 12 10 12 13 20 25 24 28 26 25 21 26 27 24 23 23 23 27 29 30 28 30 29 32 33 32 31 31 29 31 26 30 30 34 30 30 31 32 28 27 33 30 26 21 20 29 28 29 30 33 26 28 29 23 21 
14 14 25 83 93 60 24 48 100 80 32 15 15 14 18 15 14 13 12 13 13 10 11 12 12 11 9 9 12 18 27 24 25 23 24 24 23 25 23 21 23 25 28 28 28 25 28 27 30 30 32 30 31 30 28 27 28 32 31 30 30 31 31 27 27 31 30 27 17 16 27 25 28 26 28 27 29 27 22 18 
13 17 30 87 96 58 24 48 102 80 32 16 16 15 14 16 15 18 13 12 12 15 12 14 10 12 11 8 16 21 27 24 28 21 22 23 26 26 24 24 25 26 27 24 26 29 29 28 28 30 31 30 29 30 29 27 29 32 30 31 31 30 29 28 27 30 33 27 21 18 26 27 31 27 30 29 28 26 20 20 
16 20 30 95 95 60 26 54 106 80 29 18 17 20 15 21 18 17 18 16 13 14 14 16 15 13 11 14 16 19 26 24 23 23 24 22 23 23 22 23 24 27 28 28 30 27 28 30 33 31 33 31 31 29 30 29 28 31 32 33 31 32 31 30 32 29 32 33 22 16 22 27 29 30 32 28 29 29 23 16 
21 25 42 106 98 59 25 61 105 77 30 16 15 17 17 16 18 18 15 16 14 16 13 13 12 8 12 15 13 14 26 24 23 23 24 22 23 26 25 23 25 26 26 28 29 27 31 29 31 33 34 30 29 28 31 30 28 30 32 34 27 32 31 32 29 30 30 31 29 20 17 25 30 30 29 28 30 27 21 17 
71 71 77 122 104 53 28 64 105 78 24 17 17 15 15 18 16 15 12 14 18 14 16 13 13 14 13 15 13 12 22 22 28 24 23 20 21 24 22 23 24 24 26 26 28 28 29 31 28 30 32 30 29 29 32 30 29 29 31 31 27 30 29 31 26 28 28 32 29 20 17 19 23 29 28 26 29 26 19 18 
95 102 108 108 88 42 27 65 102 73 27 18 22 16 15 15 18 17 14 12 14 15 15 14 13 15 16 14 13 13 23 22 25 22 23 21 23 23 21 24 25 25 25 27 27 27 29 28 28 31 30 29 31 32 30 26 30 26 30 34 27 33 34 34 31 28 30 33 26 27 21 18 20 27 26 29 28 26 18 15 
91 93 97 91 73 32 31 73 107 78 29 19 22 17 21 20 19 16 19 16 16 17 15 17 13 11 14 17 15 20 23 26 27 26 24 27 26 27 26 25 29 30 27 28 30 28 30 31 30 30 33 29 31 31 34 29 29 32 34 30 31 30 33 32 29 31 31 28 31 26 31 20 18 24 22 29 29 30 20 19 
37 43 48 51 35 28 31 78 111 79 30 21 19 20 23 22 19 20 18 18 20 21 18 20 16 17 17 19 20 17 23 26 28 28 32 29 29 30 28 30 30 31 32 30 31 30 30 32 33 31 32 34 33 31 31 33 32 35 30 35 31 34 32 32 34 35 33 33 32 30 32 30 20 21 20 24 23 28 21 13 
27 28 26 24 27 24 31 83 115 76 32 21 21 19 20 21 16 18 17 18 18 18 18 17 20 15 14 18 16 16 25 26 29 32 28 30 27 28 27 29 30 29 30 29 30 29 32 31 32 32 32 30 33 33 32 31 30 32 31 32 32 32 32 31 33 36 33 34 34 29 33 31 29 25 19 20 22 21 19 17 
74 67 55 51 44 45 47 98 119 81 31 22 20 19 22 21 18 23 18 20 17 19 16 21 18 19 16 17 16 18 26 26 31 31 27 29 27 28 29 31 31 28 31 29 31 30 32 31 35 30 34 34 32 30 36 32 28 31 36 34 32 32 35 33 34 38 34 31 32 30 34 32 32 31 31 32 26 24 19 18 
117 114 105 103 100 94 99 112 109 75 26 22 18 21 18 22 21 20 22 18 17 21 13 20 17 17 16 18 18 16 26 28 29 31 27 29 27 28 30 30 31 28 32 30 29 30 32 30 35 33 33 33 30 30 31 29 31 30 33 32 32 32 29 33 33 34 36 33 32 31 32 32 34 32 31 30 32 27 24 15 
98 99 98 98 98 96 100 99 93 58 22 19 19 16 21 22 19 21 24 19 20 22 15 18 16 17 18 17 18 19 28 27 27 29 28 28 28 28 30 30 30 30 26 34 30 27 33 32 31 30 29 33 29 30 31 32 30 33 34 35 32 30 33 33 31 36 38 37 34 33 33 32 30 30 32 32 31 25 24 19 
36 43 49 50 55 59 60 63 56 30 20 22 24 23 21 24 20 21 24 18 19 25 20 18 19 16 19 19 19 19 26 29 28 28 25 25 27 29 32 27 30 30 29 33 32 32 31 33 32 33 35 31 35 30 30 29 31 34 30 36 32 32 31 33 30 33 30 33 33 33 34 32 33 31 29 31 30 32 26 18 
24 24 25 25 26 28 30 29 29 22 20 22 24 21 22 25 22 20 23 19 19 23 25 24 20 19 17 26 20 20 29 30 30 29 29 29 27 30 30 31 30 29 30 29 32 30 31 30 32 32 32 34 33 29 33 34 32 32 32 34 31 34 34 32 32 33 33 31 32 28 33 37 32 33 30 28 31 28 28 26 
19 21 20 18 25 23 22 22 26 22 21 19 24 23 25 25 22 25 21 22 21 25 22 24 24 21 21 27 22 23 25 30 31 29 26 26 27 28 30 30 30 29 31 32 30 29 31 31 32 34 33 31 33 31 30 35 31 32 32 31 34 33 37 35 32 36 35 37 31 31 33 33 37 37 32 31 31 34 29 21 
20 23 21 22 25 22 18 21 23 25 22 24 22 23 25 24 25 24 25 24 25 26 23 26 27 20 21 25 20 22 29 30 33 31 29 27 30 28 29 30 34 33 32 31 33 31 34 33 33 33 34 33 32 31 30 29 32 33 36 33 29 33 36 37 35 38 35 39 35 32 31 35 38 36 34 32 33 33 30 22 
24 20 23 23 24 22 18 23 28 24 24 24 24 24 25 27 26 26 25 24 27 25 27 25 25 23 24 27 24 24 27 30 32 32 31 29 30 30 28 32 31 30 31 29 32 33 34 34 34 33 32 34 35 31 34 29 30 34 35 35 34 37 36 39 35 36 35 37 32 34 36 36 36 36 36 34 33 31 27 27 
23 23 22 22 21 22 21 25 26 24 21 25 25 25 26 25 25 27 27 23 26 27 26 25 26 21 24 25 25 23 27 30 35 28 29 26 29 32 28 28 30 28 30 31 31 30 35 31 34 34 35 35 33 34 33 31 30 34 35 36 32 33 33 37 33 33 33 36 33 34 33 32 35 38 37 32 29 33 29 29 
22 24 22 21 25 21 21 21 24 24 25 24 25 23 24 29 24 28 25 27 24 26 24 28 25 27 27 29 27 24 25 33 37 29 31 28 29 29 30 29 31 30 31 32 32 32 35 34 34 33 34 33 32 32 32 31 31 35 33 33 31 32 33 34 33 32 32 34 35 33 34 32 34 36 36 32 30 31 28 30 
23 23 23 22 22 22 20 25 28 23 22 23 25 23 27 26 26 26 26 26 28 25 23 26 24 26 31 30 26 26 23 31 34 30 30 31 30 31 28 30 31 32 31 30 30 31 33 36 37 34 33 35 33 34 32 32 33 32 32 33 33 33 35 34 34 36 32 36 32 34 33 33 36 35 32 32 35 29 32 30 
25 23 23 26 26 23 23 29 29 24 23 24 27 27 27 28 28 28 27 28 26 29 29 27 29 28 29 29 28 26 25 30 33 32 34 33 35 31 30 31 31 35 33 30 31 34 33 39 37 36 37 33 32 31 32 30 34 33 32 33 33 32 36 31 37 36 35 36 35 37 35 38 35 34 35 33 35 35 38 44 
25 25 26 25 30 24 27 26 28 23 22 24 26 26 29 31 31 29 28 26 29 29 30 31 31 30 29 31 27 29 28 33 36 34 31 33 31 31 31 29 34 29 36 33 32 36 37 33 32 36 37 36 32 33 35 33 35 34 34 34 32 33 35 33 35 38 38 38 32 35 37 37 38 35 34 34 43 49 48 55 
23 24 27 28 28 23 26 27 29 24 24 23 28 28 29 29 30 30 30 29 29 31 31 35 34 32 29 28 32 32 28 31 37 35 33 31 33 33 32 31 33 33 33 33 32 36 35 38 37 34 34 32 35 34 33 32 34 33 37 34 31 37 36 30 33 37 37 36 37 39 37 35 34 35 34 40 49 49 54 84 
23 24 25 28 30 26 27 27 25 24 24 26 29 30 33 33 31 31 30 29 31 30 31 34 32 35 32 31 34 33 33 33 37 33 32 36 32 34 33 33 34 33 33 34 36 33 35 33 32 34 33 36 36 33 34 30 35 33 36 37 33 34 37 34 34 36 34 35 38 36 39 37 39 37 35 37 44 43 52 118 
23 25 28 28 32 26 21 26 28 23 25 27 29 27 30 36 32 33 31 31 33 36 31 35 34 36 35 32 34 32 31 35 36 36 34 34 33 35 32 34 33 35 33 35 32 31 33 32 33 34 35 35 33 33 33 31 31 33 35 33 33 34 33 32 32 38 36 36 37 34 36 39 39 36 38 39 40 43 52 123 
25 23 23 24 30 30 23 33 29 23 26 24 29 30 30 36 31 33 35 34 35 33 33 36 35 35 31 33 32 31 30 31 36 34 35 31 35 33 34 33 37 34 33 31 35 33 33 34 35 34 33 35 35 29 26 26 31 32 31 37 32 31 35 35 35 33 37 35 40 34 42 40 39 37 38 42 48 42 51 118 
23 23 24 25 29 28 26 30 28 25 27 25 29 30 34 36 36 35 36 34 35 39 36 36 39 38 31 31 34 32 28 28 36 35 35 35 34 35 35 35 35 37 34 33 34 30 31 34 33 34 34 33 36 27 31 29 32 33 31 32 32 32 34 34 36 37 37 33 37 35 41 43 43 48 49 57 61 58 51 109 
25 24 24 29 29 29 27 28 30 26 26 28 31 31 33 34 34 35 38 33 38 39 39 41 42 32 34 34 33 30 29 26 36 38 37 35 34 34 33 36 36 34 34 36 33 33 33 36 38 34 34 33 30 29 32 28 34 32 34 33 29 33 33 34 34 37 38 38 39 40 45 69 97 112 129 156 146 99 85 134 
27 28 26 27 30 32 28 28 28 27 29 30 30 31 34 36 36 36 39 37 35 42 39 39 41 39 37 37 39 38 35 29 33 37 37 32 35 36 34 33 35 34 35 35 36 32 34 32 39 37 34 34 33 32 30 34 32 34 36 33 33 37 34 30 36 39 38 40 41 47 74 125 160 175 180 181 163 145 150 173 
24 24 28 25 30 30 29 31 30 30 26 30 31 32 33 33 34 39 37 41 40 42 42 43 45 43 46 43 43 43 39 33 34 38 39 36 35 39 37 35 36 37 38 34 33 33 37 35 36 36 35 31 33 32 31 33 33 34 35 36 34 35 35 35 38 42 39 40 50 71 102 121 138 146 146 151 158 163 176 198 
27 27 27 27 29 32 29 32 33 29 33 33 35 34 40 38 39 36 38 41 38 39 41 42 44 47 49 48 44 44 45 33 33 40 40 36 39 35 38 38 37 34 35 38 35 33 34 33 35 34 31 32 35 33 32 34 34 34 33 36 32 38 38 38 39 38 40 43 66 98 116 125 135 144 148 163 180 198 213 238 
24 26 27 31 30 30 32 30 36 31 30 33 35 33 33 35 39 37 40 39 36 42 40 41 42 47 48 49 45 47 39 33 37 41 42 37 37 39 35 38 35 38 35 38 39 34 37 33 34 36 35 36 34 34 31 31 33 35 33 36 37 34 35 38 40 36 40 43 64 102 134 146 152 160 168 183 201 215 233 239 
28 29 30 31 31 29 29 30 35 32 34 31 38 36 40 42 39 41 45 41 42 43 47 46 45 47 54 48 44 50 45 35 35 41 42 38 39 42 41 38 39 39 37 37 37 36 36 36 36 35 37 37 36 35 34 37 37 33 38 36 37 36 37 38 36 41 40 43 62 103 136 151 158 168 178 187 200 214 230 243 
28 24 28 28 31 33 27 33 37 33 34 35 40 38 37 42 41 43 41 44 44 42 48 47 50 52 51 51 47 48 45 35 34 37 39 40 39 37 39 37 40 42 39 40 35 36 34 39 35 38 38 35 37 40 42 42 40 36 38 42 38 41 37 38 36 39 41 37 57 93 129 149 160 165 169 181 200 214 228 239 
31 31 32 35 32 32 33 35 38 35 35 38 36 40 37 40 43 41 45 43 45 48 48 50 54 52 53 51 49 50 45 42 38 41 43 43 40 41 37 40 39 40 41 37 38 37 38 38 37 39 35 38 36 39 48 50 44 49 42 44 38 37 38 37 41 41 40 43 51 92 125 146 155 166 170 181 199 209 227 235 
31 33 34 35 36 38 35 37 38 33 35 36 39 37 38 48 45 43 44 44 47 52 54 50 50 55 53 54 46 51 48 39 38 42 44 40 41 42 39 40 40 38 41 40 37 41 38 37 40 36 38 37 38 43 54 73 81 59 49 43 40 40 39 39 38 41 41 41 50 89 122 140 156 160 165 176 194 210 224 230 
36 37 38 44 41 39 38 35 40 37 36 37 43 44 45 47 48 45 49 50 50 57 54 56 57 58 60 56 54 56 54 47 42 44 47 43 44 45 43 41 41 40 41 41 40 40 40 40 40 41 39 42 43 51 101 214 154 93 57 46 40 39 40 41 42 45 42 43 51 77 117 138 150 159 167 176 188 208 219 229 
40 41 41 46 43 42 41 39 45 43 42 43 42 50 47 51 48 51 55 58 58 58 61 63 61 63 62 61 60 59 52 46 41 41 49 47 47 48 45 40 46 44 42 40 44 41 43 44 41 44 42 41 43 54 122 244 157 89 57 47 42 39 39 42 44 45 44 45 48 74 115 140 147 158 163 171 186 193 215 227 
42 42 42 46 44 42 43 41 47 46 44 45 46 47 49 51 51 54 54 58 62 63 68 66 67 67 64 64 62 61 58 50 45 50 48 48 50 51 43 43 44 44 41 42 43 43 45 44 43 42 42 43 46 50 68 95 85 63 51 47 41 41 41 44 39 44 47 45 49 70 107 135 146 154 160 164 159 162 208 226 
51 51 46 47 49 48 48 47 49 50 47 48 51 51 53 56 60 58 64 62 66 66 74 72 75 76 74 73 69 62 60 53 44 45 48 47 46 45 43 44 45 45 46 46 46 45 47 48 46 47 43 45 47 45 50 54 55 55 50 43 41 43 45 41 41 43 45 44 50 65 101 133 147 152 157 160 159 174 216 222 
58 60 58 57 57 54 52 52 55 50 56 54 52 53 59 60 61 59 64 69 71 76 80 80 79 80 80 77 70 67 62 55 51 51 51 52 46 49 56 63 52 46 52 47 51 45 49 47 48 49 46 44 46 41 43 49 50 47 46 42 42 45 41 43 42 46 47 45 46 58 100 129 146 154 156 170 176 194 214 211 
87 84 78 68 66 56 60 59 58 57 57 58 57 56 59 65 63 64 70 69 76 79 81 82 81 91 93 83 72 65 63 57 53 53 54 53 53 56 88 124 64 52 56 51 50 45 52 49 50 49 49 48 46 44 49 47 45 43 46 45 43 44 42 43 47 48 47 48 47 52 100 131 147 159 160 165 175 192 212 218 


