P2
80 60
267
101 111 118 114 119 115 107 108 102 105 106 106 111 110 111 111 111 116 128 140 176 180 144 124 169 191 157 127 129 132 129 126 122 121 119 120 119 122 120 119 124 121 118 113 114 116 116 113 113 111 126 158 188 223 248 258 250 262 267 254 225 178 131 111 102 99 102 105 105 105 103 102 97 96 96 97 92 92 92 84 
108 106 114 117 118 116 118 128 121 114 106 103 102 100 99 102 112 117 126 145 177 178 139 127 175 188 147 126 126 134 129 124 123 121 119 116 122 122 125 118 124 124 113 117 112 115 114 115 110 114 112 127 146 163 172 181 168 155 157 144 134 118 116 110 100 102 102 108 111 109 109 106 101 95 97 97 96 92 88 91 
107 110 115 117 119 120 120 127 122 118 118 116 117 106 101 103 113 120 132 151 183 178 132 131 180 188 141 127 127 131 130 127 123 120 119 119 120 118 122 120 121 122 117 115 112 113 111 110 109 114 113 113 116 122 129 141 132 121 118 116 114 113 115 108 101 99 98 108 113 109 113 105 104 101 97 99 94 92 90 88 
103 107 111 115 116 115 119 129 119 116 118 117 118 116 113 114 114 122 130 161 184 170 130 139 185 182 135 126 127 124 125 123 120 117 118 119 123 120 120 120 121 123 115 112 112 114 111 111 109 113 113 111 111 115 115 118 118 112 113 112 110 111 108 107 96 100 101 103 104 108 111 107 109 106 108 100 98 93 96 88 
114 120 119 117 119 119 125 120 114 114 120 115 120 116 113 112 115 121 133 172 188 156 125 149 193 177 132 124 124 126 121 121 119 118 120 115 119 117 119 118 123 122 115 110 110 110 113 109 113 112 110 109 111 113 113 112 111 112 110 109 113 107 108 101 98 95 97 100 105 100 105 104 109 109 107 105 99 95 94 94 
117 117 127 129 128 132 130 120 115 112 116 117 115 116 113 115 117 125 135 179 189 147 127 157 190 169 129 127 123 122 120 120 118 118 118 116 119 119 119 119 120 119 114 112 110 115 110 111 113 108 113 109 109 110 110 110 109 111 110 107 109 110 106 102 97 96 98 99 103 101 103 102 101 109 110 108 105 102 97 93 
115 114 116 120 121 128 125 116 115 116 115 114 115 112 112 115 117 127 139 183 182 137 130 165 190 160 130 124 121 121 120 118 115 115 116 114 118 115 117 119 119 118 115 110 112 114 112 113 112 112 108 107 109 109 112 109 107 108 110 111 108 105 104 103 96 97 97 104 100 101 99 99 100 100 106 111 108 104 98 95 
115 109 111 114 114 116 118 115 114 114 112 115 114 117 116 115 124 133 148 187 173 131 131 174 188 157 129 122 119 124 120 116 116 114 116 117 115 114 113 117 118 116 114 110 114 113 110 111 110 111 111 110 109 112 108 110 107 110 109 109 107 104 101 101 94 97 98 101 102 102 102 103 101 99 99 104 107 105 104 94 
117 111 109 110 110 116 116 112 112 115 113 119 113 111 115 115 127 131 153 192 174 127 137 182 187 146 125 124 121 119 122 117 114 113 115 113 113 112 111 115 118 117 113 113 110 112 111 111 108 113 112 112 107 112 109 108 108 108 108 107 107 103 98 99 96 97 99 100 102 100 103 99 98 98 102 104 101 105 101 97 
130 86 90 105 108 114 117 110 112 109 109 110 110 112 116 118 129 134 165 192 165 125 140 186 179 140 120 120 118 118 116 116 116 116 115 115 114 116 118 118 122 117 114 109 108 110 110 109 111 111 111 108 108 111 107 110 107 109 106 110 108 104 97 98 94 97 97 96 102 98 101 100 100 96 100 102 101 103 102 96 
106 27 20 49 86 106 112 110 110 111 108 110 111 110 114 119 124 132 181 200 158 127 151 189 172 127 116 120 117 116 116 112 112 114 115 114 116 117 118 119 119 117 118 111 107 109 105 108 109 108 108 110 106 107 108 111 104 108 106 112 110 105 99 98 94 96 98 98 99 102 101 100 101 100 104 105 100 102 103 102 
81 24 1 3 24 74 107 112 107 109 108 111 112 113 117 123 130 145 186 187 148 128 161 192 165 125 118 120 118 116 114 111 112 113 113 117 118 117 118 118 117 117 115 112 107 107 108 106 108 110 108 110 106 108 108 111 109 109 108 107 106 108 102 103 98 97 99 103 106 111 108 106 107 107 113 107 106 107 105 101 
96 36 10 0 2 30 88 98 100 105 105 109 114 111 113 123 129 142 191 182 139 125 166 190 159 125 117 118 111 111 114 114 113 114 113 117 115 115 118 117 116 118 116 109 109 109 109 107 108 108 106 107 107 107 104 106 111 108 112 107 108 107 108 105 98 94 95 105 105 112 112 111 112 111 112 112 105 108 101 105 
115 82 58 37 22 33 76 99 95 93 90 95 98 104 113 121 125 143 193 177 128 121 172 187 148 117 112 113 114 112 112 115 114 116 117 114 117 114 116 118 116 117 115 107 109 112 110 107 107 109 108 108 109 105 103 106 106 109 109 107 105 111 108 107 99 94 94 104 111 109 111 109 111 110 108 108 105 106 106 104 
113 101 97 94 88 84 93 108 109 104 101 95 94 94 95 98 103 139 196 175 123 124 182 185 140 114 111 113 111 110 112 115 115 114 116 111 113 115 112 114 115 119 115 110 114 110 110 109 106 108 107 110 108 107 108 105 104 107 106 106 108 109 109 109 97 95 98 104 108 107 109 106 109 106 106 109 104 106 106 99 
118 110 106 104 102 106 106 111 117 113 108 112 109 105 100 90 90 149 196 168 106 117 191 177 133 112 111 111 111 108 110 113 112 109 109 110 113 116 113 114 117 116 112 111 110 113 108 106 107 108 107 108 107 106 107 109 109 108 106 106 105 107 103 106 98 97 98 100 110 110 108 102 106 105 108 109 111 110 106 103 
117 105 109 108 106 110 111 115 109 110 113 113 115 115 110 109 111 162 199 163 105 127 207 190 122 101 101 106 105 108 109 108 110 111 111 113 115 113 112 113 115 114 112 110 111 108 109 106 108 107 110 109 106 106 107 108 109 108 103 104 106 107 103 103 98 96 95 102 109 107 107 104 105 107 110 108 108 109 103 100 
103 107 110 111 110 109 112 112 113 108 109 110 110 108 112 115 117 177 198 157 106 137 207 176 109 98 97 101 98 101 102 105 108 109 110 111 110 110 115 110 114 114 111 107 108 105 109 107 108 107 109 104 110 111 107 109 108 106 107 107 107 107 102 101 102 97 96 100 107 108 108 107 108 111 108 110 110 105 102 97 
103 108 111 114 110 110 111 113 111 105 108 110 110 110 107 110 112 184 193 149 109 148 206 174 103 100 95 100 95 97 95 98 99 98 101 106 107 108 109 109 114 115 108 107 104 107 105 107 105 107 105 107 110 110 108 108 109 107 106 106 106 104 103 98 99 94 96 97 109 112 113 110 112 109 110 109 111 105 103 102 
102 106 111 115 112 111 115 113 107 107 108 110 108 107 110 110 124 191 183 135 107 162 204 163 105 105 99 100 98 102 98 98 96 98 96 95 99 104 108 106 111 108 104 104 105 108 107 105 105 112 106 107 109 108 112 106 107 109 107 107 105 105 105 104 104 97 101 96 109 109 112 111 110 113 112 115 111 108 102 105 
109 108 115 115 115 118 116 118 112 112 109 111 107 108 109 110 133 192 178 130 109 170 198 155 105 104 104 101 99 98 98 97 96 98 95 96 97 97 98 94 99 98 92 95 96 101 103 103 105 107 108 106 106 107 108 110 110 107 102 105 107 107 107 108 106 102 98 97 110 112 113 113 115 113 114 112 113 108 103 99 
106 108 115 116 117 115 113 114 110 112 110 112 109 108 108 112 141 192 171 121 111 179 194 147 103 103 101 104 102 98 97 95 97 97 95 97 96 97 96 94 91 95 88 86 85 90 91 97 102 104 108 103 104 107 103 106 105 105 106 107 104 107 109 109 105 102 95 95 105 110 113 109 113 111 112 108 111 108 104 103 
110 107 116 115 114 118 115 113 113 111 109 113 108 109 106 111 151 190 165 113 111 188 188 130 102 105 100 101 104 101 99 101 97 96 96 95 100 97 92 93 98 96 88 86 86 86 89 98 101 105 102 104 102 101 102 105 108 107 108 107 107 105 108 109 111 101 95 97 102 110 110 109 112 108 110 110 112 110 106 100 
116 107 113 119 117 122 115 110 113 110 112 110 111 107 108 116 161 190 162 115 122 192 180 125 102 105 103 101 98 102 101 98 97 99 97 99 99 98 96 97 96 97 92 88 90 96 100 103 102 105 105 103 101 104 101 109 109 107 106 107 109 107 110 108 111 106 98 93 100 111 115 112 111 111 111 111 111 110 107 99 
125 124 127 124 122 122 115 113 112 112 114 115 112 108 111 120 172 191 159 115 127 191 178 121 102 104 104 104 101 100 103 102 99 100 101 101 98 100 95 98 104 98 99 103 103 106 101 109 105 108 108 107 108 110 107 108 108 111 110 107 109 110 109 111 112 109 100 96 102 111 112 110 110 112 109 112 114 110 105 102 
170 167 161 149 140 131 123 122 115 120 123 117 110 111 115 122 181 184 151 112 137 189 176 117 102 105 101 104 108 104 102 102 101 104 101 100 102 101 99 98 101 101 103 104 103 107 106 106 106 107 108 110 108 107 107 110 105 109 110 108 108 112 109 109 112 113 102 98 102 110 114 111 113 114 111 109 110 111 104 101 
186 191 197 197 191 186 175 167 149 144 134 123 116 113 117 131 196 188 144 117 147 193 170 111 104 106 104 103 104 109 104 102 102 100 101 100 101 100 98 103 101 100 104 108 104 108 106 105 105 109 104 105 107 107 109 111 109 110 109 109 109 108 108 112 113 110 103 96 99 105 114 111 112 112 115 111 109 112 108 103 
180 186 194 200 198 203 201 204 203 173 160 179 165 146 137 154 217 189 138 118 162 186 162 108 99 105 102 102 103 100 101 101 102 100 103 100 104 102 101 101 100 98 102 104 107 105 104 106 105 108 109 105 107 109 109 109 108 111 109 106 107 108 110 110 113 111 103 96 97 106 114 114 113 111 111 111 109 110 107 102 
132 137 148 165 175 189 196 205 200 167 168 207 206 198 196 204 207 179 125 122 175 187 156 109 102 104 104 106 105 104 103 105 103 105 102 104 105 103 102 103 103 103 98 105 106 106 105 107 103 107 107 105 107 111 108 108 108 108 109 107 111 112 109 110 114 115 108 100 97 102 113 113 112 112 113 109 111 111 106 101 
129 132 136 143 150 146 141 152 154 150 155 184 195 195 194 196 188 164 120 125 180 184 149 107 104 106 106 105 105 105 103 105 103 104 106 104 103 106 104 104 103 101 96 107 103 108 104 103 105 107 106 104 105 109 108 110 110 108 108 108 109 107 108 108 111 114 108 96 98 102 114 109 114 114 111 114 112 111 106 102 
171 165 161 152 162 144 137 132 134 134 129 127 135 142 159 168 158 126 114 128 186 186 146 108 103 107 105 107 104 105 106 106 102 104 105 107 103 102 105 103 102 100 102 106 104 106 108 105 107 107 111 105 106 107 110 112 107 109 109 108 110 111 113 113 113 114 114 97 100 99 111 110 114 112 114 112 111 111 105 104 
190 197 202 203 202 192 177 163 155 139 127 126 123 119 119 119 120 111 118 131 194 180 135 106 105 107 105 105 102 109 105 106 104 107 106 104 105 104 101 105 102 101 100 107 104 104 105 108 107 108 109 108 109 109 110 109 112 109 112 108 111 111 112 115 114 115 113 104 97 98 107 112 110 113 112 115 115 112 107 103 
176 180 194 199 205 208 211 213 201 155 167 181 164 144 130 127 118 113 116 144 203 181 132 108 102 110 107 108 103 106 107 105 104 104 104 107 107 102 104 100 104 104 102 106 107 108 107 106 107 109 109 111 108 111 110 111 110 106 109 110 114 113 113 114 114 114 113 108 100 97 107 108 113 113 113 113 112 109 109 101 
132 140 158 172 176 190 197 201 198 170 193 218 214 204 197 187 174 158 149 176 211 183 131 108 107 106 107 106 108 109 106 106 107 105 105 105 106 106 104 104 106 101 103 106 104 110 109 110 107 110 108 109 110 111 112 109 111 111 109 110 112 115 110 116 113 115 117 111 99 96 102 109 114 113 113 111 111 112 102 101 
132 134 149 144 133 132 138 148 157 147 167 189 195 195 195 195 193 186 187 196 192 168 127 106 107 111 109 108 108 105 108 107 105 109 108 107 107 107 104 101 104 103 103 109 108 108 110 111 112 109 109 112 108 115 111 111 108 112 110 111 114 113 114 112 116 116 111 114 102 99 96 108 113 112 112 115 115 110 104 104 
149 152 142 153 132 118 123 123 132 134 130 130 135 144 159 165 171 173 179 183 174 147 117 106 108 109 108 109 105 109 109 110 107 106 109 108 108 105 106 102 106 103 107 107 108 112 110 111 111 112 110 110 111 112 110 110 109 112 112 110 112 113 112 112 112 114 113 113 104 98 97 106 110 113 114 113 111 111 106 105 
165 151 143 149 126 119 120 120 136 133 125 120 119 116 120 123 118 123 131 139 128 110 111 108 107 109 108 109 109 110 111 107 107 109 109 108 105 104 110 105 102 104 107 108 108 110 110 112 111 114 112 111 111 116 111 112 110 112 109 107 109 112 111 113 114 117 115 114 107 98 94 102 112 115 116 112 113 109 109 103 
164 144 140 138 121 117 121 122 137 130 121 122 115 115 115 115 115 114 115 114 107 109 113 107 107 110 109 111 108 110 111 110 107 110 110 109 109 108 106 107 107 104 107 109 107 109 111 111 114 112 111 113 114 114 115 114 110 112 111 111 113 111 112 113 114 114 117 114 111 100 96 101 113 114 116 115 113 109 107 107 
183 144 137 130 118 121 121 119 140 132 121 120 117 113 113 114 118 112 111 113 104 107 111 110 107 113 113 112 110 111 109 108 107 110 112 109 109 108 109 108 108 106 109 113 113 107 115 109 110 111 111 113 114 114 112 114 112 113 109 113 111 110 109 113 115 118 117 118 116 102 95 100 110 115 115 114 114 110 110 108 
172 146 135 128 118 125 121 131 136 132 119 121 121 118 116 117 116 114 111 115 106 107 112 112 111 114 112 112 112 113 112 111 113 110 112 115 111 110 111 110 109 110 111 112 111 114 115 114 111 112 114 114 114 117 113 114 111 114 114 112 115 112 115 115 116 115 118 116 115 109 100 98 110 112 114 113 117 115 111 107 
160 138 139 130 120 129 125 126 120 119 120 120 124 119 115 117 114 112 111 118 104 108 115 113 109 113 112 113 113 115 111 112 112 109 114 112 112 111 112 113 113 108 113 113 111 114 114 115 114 112 115 113 114 114 112 114 113 113 113 112 114 113 113 113 112 114 122 116 118 114 98 98 104 114 116 115 115 114 112 106 
130 130 137 133 124 130 122 119 117 115 117 117 125 120 116 117 116 113 113 115 103 107 115 112 115 113 111 117 113 113 111 115 111 113 113 117 118 112 110 110 109 110 113 115 113 114 115 113 110 114 112 112 115 116 115 114 113 113 111 115 112 112 112 113 113 117 117 116 117 118 104 95 101 112 114 113 113 114 111 107 
126 128 136 128 126 125 120 119 116 117 115 117 121 124 117 120 115 113 114 115 108 110 113 113 111 113 116 116 114 115 114 117 117 114 116 115 117 115 114 112 113 111 115 116 114 113 112 114 113 114 114 113 115 115 111 114 112 114 111 111 113 116 113 115 116 117 117 114 115 116 108 99 100 107 114 114 116 114 109 106 
124 126 132 125 124 120 116 113 120 113 114 118 121 122 121 119 116 113 114 118 105 112 115 111 114 117 115 116 117 114 113 116 115 117 116 115 119 115 114 115 110 109 113 113 114 114 115 112 114 112 114 114 112 110 112 110 109 113 110 114 110 114 112 114 114 117 115 115 115 116 113 102 100 103 113 115 115 111 111 111 
122 126 132 127 123 125 119 120 119 116 116 119 122 119 123 122 119 119 115 117 109 117 115 113 116 118 115 119 114 115 115 117 115 115 116 115 117 116 115 113 114 112 115 114 116 115 114 112 115 115 117 114 111 113 113 112 111 113 111 116 116 115 114 116 115 117 120 116 118 118 120 106 101 99 109 114 116 114 111 109 
122 131 133 127 121 124 122 119 121 122 119 121 124 122 124 120 119 117 119 120 113 115 116 112 111 117 116 120 116 120 118 118 118 115 119 117 117 118 114 115 114 112 115 116 116 117 111 117 117 116 117 117 115 113 115 112 112 112 111 114 113 115 118 115 115 118 119 118 122 117 121 112 102 96 106 114 118 116 110 111 
125 132 132 124 123 125 121 124 123 118 124 120 122 123 124 126 118 117 120 115 113 114 118 116 113 117 119 123 120 120 122 119 120 117 117 119 120 118 117 113 115 113 116 116 118 116 118 117 115 116 116 117 118 116 115 110 112 115 114 113 114 117 116 118 119 122 122 121 117 116 118 116 110 99 101 111 116 113 112 106 
124 127 135 126 123 122 122 121 119 123 123 122 122 123 124 126 119 114 120 112 113 118 118 117 117 119 119 123 117 123 122 120 122 119 120 123 123 117 118 120 115 112 118 115 116 119 115 120 117 117 118 116 114 114 115 114 111 116 112 114 115 114 116 115 119 120 118 117 117 121 119 115 113 103 101 101 108 112 107 104 
127 131 136 127 121 125 124 122 122 122 118 119 124 124 126 127 125 120 126 115 110 115 118 115 118 119 117 121 121 123 122 121 120 120 122 124 121 117 120 118 118 114 117 116 117 118 118 116 116 119 115 112 113 114 115 111 116 114 110 110 113 113 115 115 118 117 119 115 119 120 121 118 118 117 105 103 105 102 105 104 
125 130 134 125 124 126 122 119 122 121 122 125 123 123 125 126 123 122 122 120 113 114 115 115 118 120 116 123 121 122 124 123 121 123 124 122 121 121 121 120 118 115 117 120 118 121 115 116 115 116 116 115 116 115 113 114 115 112 113 113 115 116 118 116 118 117 120 119 120 120 119 117 120 115 116 110 101 102 102 102 
129 130 132 125 125 126 126 123 125 122 122 124 122 121 121 125 123 120 117 118 113 116 119 116 118 121 120 124 124 125 123 128 123 124 124 125 123 118 119 120 119 112 118 118 117 120 115 117 116 118 119 117 116 118 114 113 112 113 115 113 116 115 113 116 119 120 123 120 118 119 118 121 120 120 123 116 111 106 106 104 
131 132 132 127 123 125 122 125 123 124 124 125 122 120 123 123 122 121 118 116 112 115 123 116 117 122 122 121 121 127 127 126 126 126 126 124 123 117 119 119 116 118 120 121 120 120 118 118 118 119 117 118 117 119 116 113 114 115 114 117 119 116 117 119 117 123 119 119 121 119 115 121 116 119 120 119 116 112 113 105 
138 133 140 127 128 126 126 125 122 126 126 128 124 125 123 129 124 123 118 117 118 115 124 118 118 126 122 127 125 132 125 130 127 127 129 123 119 122 117 116 117 114 116 122 118 121 119 116 119 119 124 117 115 119 117 114 119 117 117 116 116 115 116 119 119 121 122 122 119 119 117 118 119 121 121 120 117 118 114 112 
137 134 136 125 124 125 127 125 129 126 124 123 123 125 127 129 126 126 121 121 116 116 121 126 121 128 125 128 126 128 127 132 132 131 128 128 124 123 119 119 120 116 120 121 119 123 120 121 120 122 119 120 115 120 118 115 115 114 116 116 115 113 119 121 116 118 119 121 123 120 117 116 120 120 121 122 121 117 119 110 
144 137 135 129 129 127 124 127 130 125 127 126 129 127 127 126 128 127 125 123 115 120 121 121 125 128 128 128 124 133 131 132 132 131 131 134 133 133 129 126 127 126 121 122 123 120 119 123 120 120 120 117 118 119 121 120 117 117 115 116 120 118 119 120 119 119 120 120 119 123 117 114 121 117 121 122 118 121 117 112 
146 139 137 134 134 133 132 130 131 130 130 132 129 128 132 131 126 128 128 122 120 126 126 126 126 131 130 130 132 136 132 135 132 134 134 137 141 138 133 131 131 127 125 125 125 125 124 124 122 121 120 121 119 120 120 120 116 119 117 120 117 118 121 119 120 122 123 124 123 123 122 118 119 118 122 120 123 120 120 113 
150 142 137 139 135 134 138 131 132 133 130 130 133 133 131 131 130 129 126 124 120 125 131 128 127 132 131 133 132 135 132 138 134 133 137 142 142 138 136 133 134 127 124 125 127 131 126 125 124 124 124 124 124 121 123 122 118 121 119 119 121 119 120 121 122 123 124 123 125 123 122 124 124 123 123 121 125 125 124 119 
148 143 144 137 138 135 136 134 136 133 133 133 130 135 136 133 136 132 130 125 123 123 130 130 126 132 129 138 137 136 133 138 139 137 136 143 143 138 136 133 131 131 126 127 129 130 129 129 125 125 126 123 122 123 124 121 118 121 119 121 121 120 120 121 122 120 124 124 124 124 123 123 122 126 126 125 125 126 126 115 
147 147 143 139 139 137 133 134 137 133 135 135 139 136 137 136 133 132 131 129 127 131 134 134 132 132 134 138 136 136 140 141 140 144 143 146 144 141 138 136 137 130 129 130 128 131 128 124 126 125 126 127 126 123 123 122 119 120 122 121 123 124 122 121 123 123 122 124 123 124 128 121 122 124 122 121 126 124 122 115 
151 145 141 140 140 140 139 137 137 133 133 134 140 137 137 138 136 135 133 133 128 131 138 134 129 135 136 141 140 144 142 142 145 144 141 151 149 143 139 139 135 130 125 130 133 130 127 126 127 126 127 127 128 124 121 122 123 126 119 120 123 124 120 119 126 123 123 121 122 121 125 126 122 124 121 121 128 123 122 120 


