P2
80 60
266
108 112 118 120 123 115 110 110 105 109 110 108 113 113 115 114 112 118 134 146 179 186 148 125 169 193 157 128 128 130 131 128 127 124 121 122 122 125 122 121 123 123 122 117 118 119 120 117 115 113 124 155 185 223 240 261 254 259 266 257 225 174 127 114 102 102 102 107 108 106 104 103 98 100 99 97 93 92 96 93 
110 108 116 119 121 120 121 126 123 116 109 105 103 103 100 104 113 117 130 148 179 182 140 128 174 192 150 126 128 132 132 127 125 123 123 120 125 121 128 123 126 128 118 120 116 119 116 117 116 115 113 126 145 161 167 182 169 158 159 140 135 121 119 115 104 104 104 112 114 111 109 107 102 97 101 101 97 93 90 89 
108 114 114 116 124 122 123 127 121 122 120 117 118 107 102 104 117 121 134 151 186 182 133 131 183 189 141 126 127 130 131 129 126 122 123 122 122 118 121 122 124 125 118 115 114 115 113 113 111 116 112 115 117 124 133 141 130 126 126 119 118 115 115 111 102 101 100 109 115 112 113 109 105 104 99 103 96 91 90 92 
104 108 112 116 122 118 121 131 120 118 120 118 119 117 116 116 118 123 135 162 187 172 132 140 191 184 134 125 127 124 126 123 122 118 121 120 126 121 121 122 122 123 117 115 113 116 115 111 109 112 115 112 113 116 117 119 119 113 116 113 114 112 110 110 98 102 102 104 105 109 112 108 108 108 108 103 96 92 96 94 
118 122 121 118 122 122 129 124 115 117 121 117 122 117 112 114 118 124 137 175 191 161 126 151 194 179 132 126 124 124 122 123 123 120 122 118 120 117 122 119 123 122 117 112 112 111 115 112 115 115 111 110 113 114 113 114 113 111 114 111 113 109 110 104 102 98 100 104 107 102 106 108 110 112 106 105 101 96 94 95 
119 118 129 132 130 134 132 119 112 114 118 119 119 119 115 116 119 129 137 183 191 151 131 158 194 172 129 127 125 122 122 122 121 119 120 117 120 118 119 123 123 121 117 112 112 116 113 114 114 110 114 111 112 111 116 114 115 113 113 111 113 113 109 104 97 99 104 103 104 101 103 105 104 111 111 110 107 102 99 95 
119 116 118 122 124 131 127 118 116 117 118 117 119 119 114 115 119 131 142 185 186 143 131 166 196 163 131 126 121 121 121 119 119 116 118 115 116 114 120 122 122 122 118 112 114 116 115 115 114 113 111 112 113 113 114 112 110 110 114 113 112 111 107 103 97 99 100 106 102 104 104 100 102 103 108 112 110 108 100 97 
119 113 113 114 118 122 119 114 116 117 116 117 118 121 119 116 126 136 152 189 177 136 133 175 189 159 128 123 121 123 122 118 120 116 121 116 115 114 117 120 121 118 117 112 116 115 113 113 112 111 111 112 111 113 110 113 109 111 110 111 110 109 103 101 98 100 103 104 105 102 105 104 101 100 101 108 109 107 102 103 
118 115 112 111 114 117 117 116 112 116 116 117 115 114 117 115 128 136 158 194 176 132 140 184 189 145 125 126 122 120 119 117 115 115 118 114 116 111 114 117 118 122 116 115 112 113 114 113 112 114 112 112 109 110 110 111 112 108 113 109 110 109 102 101 100 98 101 103 101 103 105 101 100 100 103 106 103 106 102 102 
133 84 91 102 112 111 119 112 115 112 114 113 112 115 118 117 132 141 169 195 167 130 142 186 181 141 123 122 119 118 117 117 118 119 114 116 116 115 120 119 122 120 116 110 108 111 113 111 112 111 113 109 110 112 111 111 109 110 108 112 112 107 100 100 97 97 99 100 104 100 101 102 101 99 99 102 102 103 105 101 
106 28 22 48 89 109 115 113 112 114 115 113 113 112 117 118 129 136 183 203 161 131 153 189 174 129 118 121 115 116 118 115 115 116 116 115 118 117 121 124 122 120 117 112 109 111 109 113 112 109 110 112 109 110 111 114 106 110 109 111 113 109 103 101 96 100 101 102 101 103 104 104 102 105 105 106 103 105 106 104 
85 27 3 4 28 76 109 114 109 111 113 114 113 115 118 123 131 146 187 188 152 132 164 194 167 128 121 118 116 117 119 114 115 115 115 120 118 118 119 120 119 119 119 113 109 110 114 111 113 112 110 112 110 111 110 113 111 110 111 110 110 111 104 106 96 99 101 106 108 109 110 110 108 111 112 109 109 110 106 102 
99 39 13 0 7 32 91 97 103 108 108 111 117 115 114 123 131 145 192 185 141 129 170 191 161 126 121 116 113 111 117 113 116 116 116 118 119 116 119 121 116 122 118 112 110 111 112 112 111 111 109 108 107 108 107 110 112 109 112 110 112 111 110 106 99 97 98 109 109 114 114 114 111 109 111 112 110 113 106 103 
117 83 55 37 25 35 75 97 97 95 95 97 100 108 110 122 125 143 195 179 132 123 173 184 149 120 113 112 113 112 115 115 117 118 118 114 117 114 115 121 118 119 116 107 112 114 114 109 109 111 109 108 108 108 104 109 109 112 111 110 110 112 108 110 99 96 97 108 113 110 114 110 111 112 112 110 108 106 107 105 
113 103 99 93 89 85 95 109 112 106 105 97 96 98 94 98 104 140 198 177 125 129 184 181 140 116 113 113 113 112 113 115 118 116 116 114 114 117 114 119 121 123 116 113 112 113 112 110 108 110 108 112 110 109 110 108 107 109 109 107 111 111 113 111 98 96 101 105 109 106 107 108 109 108 107 109 105 106 105 101 
121 111 109 104 105 109 109 113 116 116 113 114 111 109 99 90 95 153 200 169 111 122 193 178 134 116 114 111 111 110 113 114 116 112 111 111 114 115 115 117 120 120 115 113 110 114 111 107 111 110 109 109 109 109 110 111 110 111 108 110 108 109 108 110 99 98 100 103 108 109 109 108 109 107 108 110 109 109 103 104 
122 106 112 109 110 114 114 115 109 114 116 116 118 117 112 111 115 166 203 166 109 131 211 193 124 102 102 106 107 108 113 109 113 114 113 114 114 113 116 116 119 117 116 112 111 110 113 109 112 112 111 113 111 109 110 111 111 110 107 107 110 111 107 107 101 99 100 106 110 108 108 107 108 110 108 110 109 108 107 109 
104 107 114 111 113 111 113 115 114 113 113 113 112 111 112 117 123 178 200 159 109 140 209 179 110 102 99 101 100 103 105 108 110 110 112 113 111 106 117 113 113 117 114 109 111 106 112 108 112 109 110 106 114 112 111 111 110 108 109 109 110 109 106 104 103 99 98 102 107 106 108 110 110 115 108 113 112 107 105 105 
106 108 114 113 115 112 110 115 111 111 112 114 112 110 109 111 116 184 196 152 113 150 209 175 106 101 95 101 95 95 96 101 98 100 102 105 106 107 110 112 115 115 113 111 107 109 107 111 108 109 106 106 110 111 111 109 111 106 109 109 107 105 103 100 102 96 99 100 107 110 113 111 114 111 109 108 109 108 107 107 
104 107 116 114 115 113 113 114 108 111 113 112 112 111 111 113 127 192 186 138 112 165 206 165 109 103 99 101 96 102 101 99 98 99 95 97 99 102 107 110 114 113 107 105 106 109 109 107 108 113 108 107 113 108 109 107 109 109 110 111 109 106 105 107 108 98 101 100 109 110 112 111 112 113 112 113 110 111 105 106 
111 110 116 116 119 119 116 119 112 115 113 115 111 110 112 112 136 195 182 133 112 175 200 154 107 106 104 100 101 104 100 99 98 100 97 98 97 98 98 99 103 99 95 95 97 105 108 105 108 109 109 108 110 109 109 112 115 109 109 108 112 109 110 113 113 103 99 100 112 111 118 112 114 114 113 112 113 113 108 106 
111 110 120 116 118 116 116 115 111 114 114 115 112 110 110 114 144 196 174 123 113 181 195 148 104 107 103 106 102 100 98 97 98 100 97 98 98 97 97 98 95 99 91 88 87 93 95 99 104 105 108 104 108 110 106 108 110 107 108 110 110 110 112 115 111 104 96 99 107 110 113 111 113 113 112 110 111 109 107 111 
111 110 118 116 119 121 118 115 115 114 114 116 111 110 109 118 155 193 170 115 114 190 192 132 108 107 102 103 103 100 100 100 97 97 99 98 100 97 96 99 102 101 91 87 90 88 94 99 105 107 105 106 105 104 105 106 111 109 111 111 113 110 111 113 112 106 98 100 106 109 111 113 113 111 112 112 115 109 105 104 
117 107 117 122 120 124 116 112 113 114 114 111 114 109 110 118 165 192 164 117 125 195 184 127 104 105 104 101 99 102 103 99 99 100 100 101 101 96 98 101 99 99 94 90 93 101 104 105 105 107 107 108 104 105 104 111 111 109 109 110 113 113 113 112 114 108 101 94 102 111 115 113 113 113 112 111 111 110 108 103 
126 126 127 125 125 125 118 114 112 117 118 116 115 112 113 124 175 192 161 117 132 196 184 124 102 105 105 106 101 100 106 103 100 103 103 103 101 98 96 101 106 101 102 105 107 109 106 110 108 110 109 108 111 112 109 112 111 112 115 110 114 111 111 114 116 112 104 100 102 111 114 113 113 115 111 111 113 111 106 106 
174 169 159 149 142 135 125 122 118 122 126 121 113 114 116 123 183 187 155 115 140 194 180 118 105 107 104 103 107 104 103 102 103 106 103 102 104 101 100 100 103 106 107 105 105 108 109 108 108 107 108 110 110 111 109 112 110 109 112 111 112 113 113 113 114 115 104 100 103 110 119 113 113 113 112 109 111 111 108 108 
189 194 199 197 196 188 175 168 150 148 138 124 118 118 120 133 198 192 148 119 151 197 174 112 107 106 103 104 103 107 106 106 105 103 102 103 103 102 101 105 104 104 108 108 105 111 110 107 110 110 107 107 111 109 108 112 111 110 111 113 114 111 111 115 115 114 104 98 102 106 116 113 114 111 114 111 112 113 109 109 
183 189 198 200 202 206 203 205 204 177 164 181 169 149 139 156 220 192 143 120 165 189 165 107 102 107 105 102 102 99 105 103 106 103 105 99 104 103 104 105 103 102 105 107 107 106 107 109 108 108 107 108 109 112 110 111 110 115 110 109 114 112 113 115 116 114 106 98 97 107 115 116 114 114 113 112 109 109 105 104 
136 141 150 163 179 192 197 205 202 174 170 208 208 201 197 207 209 182 127 125 178 192 158 109 105 107 106 103 103 104 107 107 103 108 104 105 106 104 103 106 106 106 101 108 108 106 110 109 107 108 107 107 111 116 110 112 112 110 110 111 114 113 112 114 117 117 111 100 100 103 116 113 115 115 115 112 112 112 105 109 
134 134 137 143 151 151 142 153 156 154 159 185 197 199 199 199 189 165 122 127 185 189 151 108 107 109 109 105 106 104 106 106 105 107 108 105 106 106 106 109 106 104 97 109 105 110 109 109 109 110 107 107 109 114 112 112 112 109 111 112 113 109 110 112 118 118 110 100 100 102 114 113 114 116 113 114 113 110 106 106 
172 166 164 155 162 146 138 133 132 134 133 131 136 145 160 170 160 130 118 132 189 189 146 109 107 110 106 110 106 106 106 106 104 106 107 109 105 102 106 110 106 103 104 109 106 108 113 111 111 109 114 109 110 112 113 114 111 111 113 112 114 114 114 116 115 117 118 102 100 99 112 111 115 112 114 115 110 113 106 106 
191 197 201 205 205 194 177 166 154 140 130 129 126 124 122 121 121 113 120 133 196 183 140 109 108 108 106 107 103 107 106 107 105 108 108 106 109 104 105 109 105 104 104 110 107 108 111 112 110 110 111 109 112 114 112 111 113 110 114 113 111 113 115 118 116 119 117 108 97 98 108 113 113 116 114 116 116 114 109 105 
177 181 196 197 206 209 212 217 201 156 173 187 168 149 132 131 123 117 121 148 204 186 134 111 105 111 107 111 107 109 108 107 108 105 105 108 109 102 108 106 105 109 105 109 109 112 113 111 112 111 113 113 111 113 112 114 113 110 113 113 117 116 116 119 118 118 117 110 101 98 108 110 115 115 114 115 115 112 113 108 
136 141 161 169 180 188 198 205 196 173 198 221 216 209 197 188 177 161 155 180 212 188 134 109 109 109 109 107 109 111 111 110 111 107 107 107 109 106 106 106 109 104 106 108 106 113 113 112 110 112 112 111 114 114 112 113 115 114 114 113 116 118 112 120 119 119 122 113 100 97 102 114 116 113 117 113 111 117 109 107 
136 136 150 143 133 134 141 148 157 150 172 191 197 199 194 197 196 187 192 199 194 174 128 111 109 112 110 109 112 109 110 107 106 111 110 110 108 106 106 103 106 105 107 111 110 110 114 113 113 112 111 115 115 117 113 114 111 115 114 113 117 118 116 118 116 118 115 117 105 101 99 110 115 118 115 114 114 112 104 108 
151 152 145 150 135 121 124 126 134 136 135 134 139 147 161 166 174 176 183 186 176 154 120 107 109 112 109 109 106 109 112 110 111 107 112 110 109 107 107 105 111 106 109 109 110 114 113 113 112 116 113 112 114 115 113 114 112 111 117 111 117 115 115 115 114 117 115 116 105 98 99 109 114 116 116 114 112 111 106 110 
165 154 146 150 130 121 124 124 138 138 129 123 120 120 123 125 120 129 136 142 131 118 115 111 111 113 109 112 111 109 114 110 109 112 111 110 108 107 111 109 105 107 110 112 110 113 114 114 113 115 116 113 114 117 114 115 112 111 112 112 114 115 113 117 118 120 119 115 109 101 96 106 114 119 116 114 113 110 107 111 
165 145 140 136 126 118 124 123 138 133 126 125 119 119 121 116 119 117 119 116 111 113 117 109 109 113 109 112 109 109 113 112 110 112 112 110 111 110 109 110 111 110 111 113 110 110 114 116 117 116 113 115 117 115 115 117 114 115 113 113 116 115 114 117 117 119 120 118 113 101 100 102 114 117 116 120 114 115 110 107 
188 147 140 130 123 125 125 122 140 137 126 125 119 120 116 119 120 116 115 115 109 111 117 111 111 114 115 112 110 112 111 111 109 113 114 111 111 111 109 112 111 110 113 116 115 110 118 115 113 116 112 115 117 116 115 115 115 114 113 114 115 113 111 116 116 121 120 120 116 102 97 103 114 119 117 117 114 115 109 112 
177 144 136 129 119 127 120 131 136 132 124 124 123 120 120 121 118 117 114 118 107 112 115 112 113 115 114 114 113 109 113 112 112 112 115 113 115 109 111 113 110 112 114 114 111 116 117 115 113 113 118 116 116 117 114 117 112 114 116 113 117 115 116 118 118 118 121 119 117 110 101 99 112 113 116 116 115 114 108 108 
159 138 139 131 122 134 127 124 120 122 123 123 127 124 119 118 116 114 114 120 107 113 117 112 110 114 114 112 113 113 111 113 116 112 115 113 114 110 114 114 115 111 114 115 116 115 116 115 115 113 117 116 115 114 115 118 114 114 115 115 117 117 114 116 116 118 124 118 120 114 101 99 106 116 117 113 115 116 113 107 
136 132 139 135 127 133 121 122 118 119 121 120 126 124 118 120 119 114 116 117 107 112 118 115 117 114 115 117 114 113 113 115 113 116 116 114 116 114 114 114 112 113 118 117 114 117 118 117 113 116 116 116 116 119 117 117 115 115 114 116 120 116 115 117 118 121 119 119 119 118 104 101 104 114 119 116 115 118 112 113 
130 130 135 128 127 126 122 120 117 121 121 120 124 126 121 123 117 116 117 117 110 113 114 112 114 116 117 116 115 115 118 117 118 116 117 115 118 113 115 117 115 112 118 119 115 116 117 117 117 118 117 116 120 117 111 116 114 115 114 113 116 120 116 119 117 119 122 120 118 118 108 101 102 110 115 116 118 114 111 111 
126 129 134 127 123 124 120 116 122 117 120 119 122 123 124 121 120 117 118 121 109 117 118 112 116 117 117 116 116 114 116 117 118 119 119 117 120 115 116 118 113 110 118 116 116 116 118 114 116 116 117 117 115 112 113 114 113 116 114 115 115 118 116 117 118 121 121 119 118 119 116 104 103 107 117 116 116 113 110 113 
124 126 135 125 126 127 121 119 121 119 123 121 123 124 125 123 120 122 121 121 112 118 116 114 116 117 116 118 114 116 118 118 118 118 117 115 119 118 116 117 116 114 116 116 116 115 118 113 117 118 117 117 115 116 114 114 113 115 116 117 117 119 116 120 119 120 123 117 121 120 120 108 103 102 112 115 118 114 111 113 
126 132 134 125 124 126 121 121 121 123 122 122 125 126 125 124 121 120 124 124 116 119 119 114 114 118 116 118 116 120 120 119 120 118 120 116 119 117 117 117 115 113 118 119 117 120 115 119 117 118 117 119 115 115 116 113 113 112 116 116 117 117 118 120 117 121 122 121 124 118 121 111 106 99 105 115 115 115 114 113 
126 134 134 123 126 124 123 124 122 120 124 123 123 125 126 129 120 120 124 119 116 115 119 115 115 117 118 123 118 118 123 122 121 119 120 120 118 117 120 116 116 116 119 116 117 118 121 117 117 118 117 119 118 118 116 113 113 114 116 117 117 118 117 120 122 122 124 122 120 116 118 119 113 103 99 110 115 117 112 112 
124 128 136 122 126 122 121 123 121 124 123 124 125 124 125 127 121 116 121 116 113 119 122 117 119 121 118 121 118 120 124 122 123 119 120 124 123 116 121 122 118 114 123 117 116 121 120 120 120 116 118 117 118 118 117 115 113 114 114 117 120 115 117 118 121 121 120 120 120 119 121 117 115 105 102 103 109 113 109 110 
133 133 137 130 130 125 123 122 122 124 121 122 124 125 126 130 127 123 128 119 113 119 120 118 119 120 118 123 122 122 123 123 122 125 124 125 122 119 121 120 118 115 122 118 119 118 121 118 118 118 117 116 116 118 116 116 117 116 115 114 117 118 117 121 120 118 121 118 122 120 122 121 118 118 105 104 104 105 105 108 
127 133 136 127 129 129 123 120 120 125 127 125 124 125 126 126 126 125 126 124 115 120 119 118 120 123 119 122 120 122 125 124 125 125 126 123 122 124 121 122 118 117 121 123 120 120 119 119 118 117 119 115 119 119 116 115 116 112 117 116 118 120 120 119 122 122 124 123 121 120 121 117 121 115 120 111 102 104 103 102 
132 131 132 124 126 128 126 123 126 123 127 128 125 128 122 126 126 123 122 120 115 118 123 117 122 124 122 126 124 126 124 125 126 127 126 125 122 118 124 121 121 116 119 121 117 122 121 119 118 118 122 117 117 120 119 114 114 115 117 115 121 121 115 120 120 124 125 123 119 120 120 120 121 120 122 119 115 109 104 110 
134 131 135 122 126 128 124 128 125 123 130 129 126 125 126 123 125 121 119 122 115 117 125 119 121 126 123 122 122 128 129 128 128 125 128 125 122 121 121 122 120 118 121 122 121 120 120 120 120 118 118 119 118 122 120 118 116 116 116 118 122 118 120 120 122 125 122 122 124 121 118 119 117 118 121 118 118 115 114 107 
140 133 139 125 132 128 128 127 122 127 130 129 127 129 126 129 126 125 120 120 117 119 128 120 120 129 121 126 125 131 130 131 130 129 130 126 122 120 120 119 119 115 117 123 120 118 119 119 121 121 124 119 116 122 119 116 120 119 120 119 118 117 119 123 124 123 128 125 119 120 120 118 121 122 121 118 118 119 115 112 
140 136 137 127 127 127 127 129 127 127 128 126 126 129 131 130 129 128 127 125 116 121 125 126 125 129 128 125 130 130 130 131 134 133 131 131 126 122 123 122 124 123 120 123 120 123 124 121 121 122 122 120 120 123 119 120 119 116 121 118 119 116 122 124 122 124 124 122 123 123 120 123 121 121 122 122 123 119 119 116 
148 140 138 129 128 129 126 130 130 129 131 130 131 130 127 127 129 130 130 126 119 124 127 123 125 129 128 126 128 132 132 134 133 133 133 135 138 133 134 130 133 129 123 125 125 122 124 127 122 122 125 121 123 123 121 122 120 118 119 117 123 120 122 124 123 121 125 124 121 123 120 121 125 123 120 125 119 121 119 121 
149 139 141 134 133 134 131 130 131 133 133 134 132 132 133 131 130 131 130 127 125 128 127 125 126 133 131 131 133 133 134 133 134 136 135 139 143 137 137 133 130 131 128 125 128 127 128 126 124 123 125 122 122 123 122 121 119 120 120 120 123 122 122 123 121 123 126 125 124 124 127 121 125 123 124 121 123 122 122 119 
148 143 140 141 136 137 136 134 131 135 137 132 133 132 131 135 134 131 127 128 124 127 131 128 126 133 130 131 132 132 135 136 136 134 137 140 143 140 139 135 133 129 125 125 129 129 129 128 126 128 129 128 125 125 122 125 120 122 122 121 120 123 123 123 123 125 126 125 123 125 123 126 125 124 122 120 123 125 123 121 
147 142 143 137 139 136 136 133 136 133 136 133 131 134 135 132 136 133 130 128 125 127 131 128 125 131 129 134 136 135 133 136 138 139 137 143 141 137 137 136 133 133 127 128 130 129 132 129 128 127 129 125 122 124 124 124 120 124 120 120 125 122 122 121 120 123 126 125 123 123 124 122 122 124 123 124 124 125 123 122 
151 146 146 139 140 139 133 133 132 134 137 137 138 140 135 135 136 133 135 131 128 133 134 134 134 133 135 137 132 134 140 138 141 145 144 148 145 140 138 139 138 132 131 130 131 130 130 128 126 127 128 126 127 125 127 127 122 121 122 122 124 124 123 123 122 125 126 125 120 124 127 125 124 122 123 120 125 125 121 123 
153 144 143 140 142 141 138 137 137 137 137 134 138 140 137 137 138 138 136 133 131 134 139 135 129 135 135 140 138 141 143 145 144 144 144 152 149 141 137 140 137 131 126 130 130 132 129 128 130 126 128 127 127 127 125 126 125 125 122 122 123 125 122 121 127 124 124 125 123 123 123 126 126 126 123 121 126 124 125 129 


