P2
80 60
250
26 26 32 39 78 104 89 45 52 95 89 50 47 42 35 36 34 30 29 33 29 26 25 26 24 24 28 31 31 37 36 31 32 29 31 29 26 27 28 28 26 26 28 27 31 30 29 24 19 19 19 16 20 19 23 19 23 22 22 26 23 24 26 29 25 21 23 23 26 25 28 23 23 20 23 22 26 23 20 22 
22 30 36 42 83 108 80 42 53 95 90 54 43 39 34 33 33 29 28 29 29 26 25 28 27 30 29 30 28 34 31 32 32 29 25 27 27 29 26 28 27 26 29 30 31 28 28 24 24 20 19 21 22 22 27 22 26 26 27 26 29 29 31 31 30 21 22 23 26 23 24 23 23 25 22 20 26 24 16 17 
23 28 36 39 85 105 72 41 57 94 84 47 38 34 33 33 30 30 29 31 28 26 24 27 26 28 28 29 31 33 32 32 28 24 28 25 23 26 29 28 29 26 29 28 25 31 29 28 25 23 24 27 28 28 28 33 30 30 31 30 28 30 29 29 26 20 19 22 26 24 23 21 24 25 23 21 27 24 17 15 
25 27 34 44 91 99 69 37 63 94 76 44 34 32 29 33 34 28 26 30 29 24 25 30 30 28 30 29 30 35 33 30 27 28 25 22 23 26 30 27 30 29 29 27 28 27 29 30 27 30 29 29 30 30 29 29 32 31 31 32 28 30 24 24 25 19 19 19 26 27 30 25 27 23 22 21 26 23 16 18 
23 30 37 47 97 106 65 43 70 93 72 42 33 32 27 31 30 26 26 27 31 29 30 30 27 28 25 29 32 32 30 30 28 26 25 24 25 27 24 24 24 26 28 27 25 28 30 30 30 31 27 30 30 29 29 26 31 30 29 27 27 27 24 26 25 20 19 19 27 27 28 24 24 22 24 20 22 20 14 14 
24 29 35 55 101 94 65 41 74 94 72 35 33 30 29 27 25 27 28 27 30 29 26 27 26 25 26 25 30 32 30 30 29 25 25 23 24 25 27 22 26 27 27 28 26 29 31 27 26 29 28 28 29 29 28 30 29 27 27 28 27 24 27 25 26 23 18 20 25 27 26 22 28 25 22 25 21 17 9 13 
22 32 41 53 100 93 57 40 74 93 66 33 30 28 29 26 28 26 26 31 28 24 26 27 26 27 24 30 33 32 29 30 29 24 24 24 26 21 27 21 25 29 27 24 26 25 23 27 25 27 30 26 26 30 30 25 28 28 27 24 27 27 27 29 27 23 20 19 26 27 25 21 27 23 25 24 19 13 12 15 
22 30 35 49 100 90 55 38 75 90 60 31 30 23 26 25 25 25 26 28 27 25 21 24 22 22 26 32 28 30 30 29 30 27 26 25 26 25 26 25 24 27 26 26 25 29 21 24 26 25 28 25 28 27 28 28 29 31 31 29 29 33 27 30 25 26 20 16 25 26 25 23 25 23 24 23 20 15 14 16 
15 25 31 46 102 91 48 40 79 89 60 28 25 25 24 25 27 26 28 28 25 23 23 24 24 25 28 29 30 29 29 28 26 25 25 27 30 30 27 22 27 28 27 27 27 28 27 28 26 26 25 24 24 24 27 31 31 32 32 33 31 29 29 28 30 30 20 15 26 26 27 27 25 23 26 24 19 18 15 16 
7 4 0 40 106 91 47 32 85 94 54 26 23 22 25 21 27 24 24 25 26 23 21 23 21 26 24 26 29 30 33 27 27 25 27 27 28 27 28 28 28 27 28 29 27 28 29 28 26 25 23 25 26 29 30 29 31 34 35 32 33 28 31 26 31 26 25 20 26 32 33 28 29 24 26 26 22 22 17 19 
10 8 5 47 104 86 34 28 95 102 45 14 16 12 10 18 20 20 21 25 21 20 20 22 20 22 20 23 25 30 27 26 23 24 23 25 24 26 26 25 22 27 24 27 26 25 26 24 24 23 26 27 27 31 29 30 32 31 32 33 33 29 28 29 27 29 22 17 22 29 29 26 26 25 24 24 19 22 14 17 
14 17 19 58 109 89 36 31 93 100 45 14 12 12 11 12 10 15 17 20 15 17 19 20 21 19 20 20 23 26 26 25 26 24 26 25 24 25 28 27 24 28 28 25 29 27 24 26 28 27 33 30 31 32 31 33 35 33 32 34 32 31 28 28 31 28 26 18 25 26 25 27 29 27 26 26 20 21 13 23 
16 18 20 52 102 84 37 34 91 100 42 9 10 12 9 8 14 11 9 9 8 7 7 12 9 12 15 11 10 18 17 22 21 22 20 23 22 23 26 24 28 24 24 26 22 21 25 27 28 30 28 28 28 31 30 30 32 33 28 29 31 27 26 26 25 28 25 19 22 25 27 25 25 28 27 25 21 18 13 17 
14 22 19 61 102 81 37 40 100 100 39 15 15 13 13 12 16 12 10 12 9 6 5 11 8 5 5 9 11 12 11 7 15 12 20 18 24 25 25 25 26 23 25 24 28 30 32 28 30 32 28 32 31 31 33 32 34 30 33 34 33 31 32 29 32 33 27 22 19 25 29 31 30 31 29 29 25 23 17 17 
15 18 24 71 98 72 34 39 99 91 36 16 18 15 15 18 15 14 11 11 13 9 9 8 7 7 7 11 13 9 10 8 7 8 20 22 27 28 27 23 24 26 26 31 31 28 28 31 34 28 31 32 33 33 33 33 35 34 32 33 34 31 30 30 31 31 30 24 22 30 32 30 30 29 29 30 29 21 13 19 
17 25 26 69 98 69 30 41 99 84 36 15 14 14 20 14 11 12 13 12 11 8 11 9 8 8 12 9 11 11 6 8 15 17 24 25 25 20 25 24 26 25 25 28 29 28 29 27 29 28 31 29 30 32 31 30 33 31 31 33 31 32 29 30 30 31 31 22 20 23 28 31 30 26 30 28 26 25 17 19 
18 25 23 76 95 70 33 45 101 85 30 16 17 17 16 15 15 15 15 15 17 14 14 11 11 8 10 11 15 16 22 22 29 26 26 27 25 23 29 27 24 27 28 29 32 29 29 29 33 29 30 31 37 32 32 35 33 33 32 34 33 30 32 32 33 31 33 27 20 26 32 26 30 30 24 31 27 26 20 22 
16 17 25 80 99 67 28 45 100 81 31 15 18 17 16 16 19 11 14 16 14 14 17 15 11 14 11 15 15 20 26 28 28 28 28 23 26 24 26 26 23 27 29 28 31 30 31 32 33 33 30 32 32 31 34 31 36 35 38 36 35 32 35 30 32 33 32 26 20 22 27 29 31 30 31 27 32 29 22 23 
16 15 22 82 95 66 26 50 96 82 29 16 18 14 20 16 17 15 16 15 14 14 13 14 12 10 13 12 14 22 28 27 25 23 26 23 23 25 26 24 23 28 30 27 29 28 30 28 30 30 31 30 32 32 31 30 32 31 33 31 33 33 33 30 31 31 32 29 17 18 25 27 28 28 28 29 29 28 22 21 
20 21 29 85 96 63 29 49 100 82 28 21 19 19 18 19 17 17 18 16 15 15 16 17 13 13 12 9 14 24 31 26 27 22 27 25 25 27 29 27 27 30 31 26 29 30 29 31 27 31 32 31 32 32 33 31 33 33 33 33 37 33 30 29 31 30 36 31 23 20 25 27 28 29 32 28 32 29 21 23 
18 24 32 92 95 63 31 55 100 80 26 20 17 23 20 21 22 17 17 20 17 17 13 16 17 14 11 15 15 19 25 25 26 24 24 28 23 25 26 27 27 29 29 30 32 28 28 29 31 28 31 33 36 31 34 31 32 37 34 35 35 36 32 32 36 31 33 35 23 19 23 28 32 30 30 30 31 28 21 23 
26 29 43 104 98 61 31 62 104 79 30 19 18 18 18 16 21 20 17 19 18 19 13 15 14 13 12 15 16 16 26 23 25 23 24 24 23 26 28 25 26 28 27 29 29 28 29 28 29 31 32 29 32 33 36 32 33 33 34 33 33 33 32 32 32 30 34 34 32 24 16 26 31 28 30 28 31 28 26 22 
77 75 77 123 104 56 34 69 103 76 24 19 18 17 14 18 20 18 16 17 22 19 16 13 15 15 12 18 13 15 23 24 26 24 24 22 25 26 28 27 26 28 28 26 30 28 29 32 28 31 29 31 33 32 35 30 33 32 34 33 34 34 32 33 31 31 33 36 32 22 19 22 29 28 31 29 32 31 25 23 
99 104 108 108 89 45 30 70 102 73 28 21 22 17 17 17 20 17 17 18 20 17 16 15 13 16 17 16 15 15 23 24 24 24 25 23 25 25 28 28 28 28 27 29 28 29 28 28 29 31 31 31 33 34 34 30 34 31 31 34 32 35 32 36 33 30 34 32 32 27 20 18 25 26 28 30 30 28 21 23 
97 99 98 92 73 35 40 78 105 76 29 21 22 21 20 22 21 18 22 21 20 20 17 19 16 13 15 18 16 21 23 31 31 28 26 27 29 28 29 28 31 32 29 29 32 28 32 32 30 32 33 31 34 33 37 33 34 36 34 34 33 35 35 36 32 33 33 33 34 30 30 23 19 25 27 29 35 30 23 25 
40 47 50 50 36 33 39 81 108 76 27 22 23 23 23 23 23 24 23 22 24 22 19 24 19 19 19 20 22 20 29 32 31 31 33 28 28 32 32 30 31 34 32 32 33 31 29 32 33 33 33 34 36 35 35 35 36 37 35 36 35 36 34 37 33 34 36 39 35 35 34 29 25 21 21 22 26 29 19 22 
33 31 27 25 28 28 37 89 112 77 29 23 24 20 21 22 19 20 22 21 22 19 18 19 21 16 16 17 21 18 25 30 29 29 32 28 29 29 32 32 32 31 30 29 30 31 31 33 32 30 33 32 33 33 35 35 33 35 34 37 36 33 32 34 35 33 37 36 34 33 33 31 32 25 21 22 24 23 21 24 
77 72 57 47 45 47 51 101 118 79 30 23 19 20 22 22 23 25 23 22 19 22 22 24 19 21 18 21 16 19 28 30 32 30 32 30 28 27 31 33 33 31 29 31 31 31 33 29 33 32 34 34 30 36 35 35 34 33 36 36 35 35 36 34 33 36 38 33 35 35 36 32 36 33 31 31 30 24 19 25 
124 121 107 100 97 96 102 113 106 71 27 24 21 22 19 22 25 23 26 23 20 22 19 22 18 18 20 19 19 19 25 30 31 31 33 33 28 30 33 33 30 31 33 33 31 30 34 29 33 32 33 31 33 32 33 31 35 34 36 33 34 35 30 37 31 33 37 37 31 37 32 31 35 32 34 32 35 28 20 26 
105 105 104 100 102 102 103 104 92 59 24 20 22 18 22 22 24 21 26 24 25 23 18 21 19 22 21 19 19 19 27 29 28 28 32 29 30 31 34 32 29 34 29 33 29 29 32 32 30 30 32 33 32 33 36 37 33 33 34 35 36 31 34 36 32 37 38 39 35 33 35 32 32 32 33 29 33 25 23 26 
41 47 47 51 58 62 66 66 57 30 21 20 25 24 23 24 25 24 28 23 26 27 21 21 20 21 20 21 22 21 26 30 31 28 30 29 28 30 35 34 32 32 33 33 34 32 32 32 32 31 32 33 35 36 33 32 34 35 36 36 35 33 35 36 33 36 36 36 35 35 33 33 33 31 32 30 32 32 25 27 
27 28 25 24 25 31 31 29 29 22 20 22 26 24 25 25 25 23 26 25 22 22 25 25 24 19 17 26 23 24 25 31 31 31 31 31 29 30 34 36 33 33 32 29 33 32 32 31 33 33 32 35 35 33 31 37 36 35 37 35 35 36 35 33 36 34 34 36 36 33 36 36 35 32 33 30 33 30 27 27 
23 24 24 16 22 25 26 24 25 23 18 21 27 27 25 25 25 26 23 26 25 26 25 24 23 19 21 26 24 22 24 30 31 30 29 28 30 31 33 31 31 34 34 33 30 31 31 35 34 36 35 34 35 34 36 40 34 34 33 31 35 37 38 37 34 36 36 38 35 36 34 34 36 36 33 29 34 36 27 29 
24 24 20 24 23 23 24 23 23 24 20 25 26 27 30 24 26 27 29 27 25 25 24 26 28 23 21 25 23 22 24 29 32 29 30 29 31 30 34 32 36 35 35 33 34 32 34 34 32 34 37 33 36 36 34 34 35 35 36 35 34 36 38 35 38 36 40 38 38 37 32 34 37 37 36 33 34 33 27 29 
25 26 23 19 24 24 21 25 25 27 20 24 26 25 27 24 29 28 28 28 29 28 30 29 25 23 24 26 24 24 26 29 31 30 32 28 32 30 31 33 33 33 34 31 31 32 33 34 34 34 34 37 37 34 35 34 35 34 38 36 37 39 37 41 37 37 40 37 37 36 36 36 40 36 33 34 34 33 26 32 
27 26 20 19 22 25 28 25 25 25 21 24 25 28 28 28 28 29 28 26 30 29 27 26 28 21 25 27 25 23 28 30 34 29 32 29 30 32 32 30 32 32 32 32 31 32 33 31 37 33 34 33 33 35 37 33 34 35 36 39 38 38 34 37 34 33 36 37 34 35 36 34 39 36 38 30 31 37 30 31 
25 30 23 24 23 22 28 24 23 24 24 24 28 27 26 28 27 31 29 32 28 29 26 29 29 26 29 30 28 26 25 32 34 32 36 31 31 31 35 34 36 31 35 33 33 33 36 35 37 36 33 33 34 37 35 34 35 34 35 35 35 35 36 37 35 33 37 39 38 38 36 33 35 35 35 34 34 33 28 39 
26 26 24 23 24 23 27 28 25 21 20 23 28 26 28 29 29 28 27 30 28 28 25 27 27 27 29 31 28 25 25 33 34 33 33 33 31 30 33 31 33 32 32 32 34 32 35 37 37 35 33 35 33 35 34 34 35 34 34 35 37 35 36 37 37 35 37 36 37 36 34 33 35 33 35 35 36 33 37 42 
25 24 24 24 23 26 30 34 28 20 22 27 28 26 30 30 31 30 29 32 28 30 28 30 29 29 30 29 28 26 25 32 33 32 35 32 33 32 35 32 32 37 33 33 34 35 32 38 36 35 36 34 33 34 35 34 36 35 34 35 38 36 36 34 37 35 37 35 37 38 33 38 35 38 36 32 36 37 39 50 
28 29 27 24 29 29 32 29 23 22 19 25 27 29 29 29 33 32 31 30 32 29 32 32 32 30 28 32 29 29 26 34 36 34 34 31 32 33 38 34 35 34 36 37 32 37 38 35 32 34 34 35 34 37 37 34 37 37 37 36 36 35 36 35 37 34 39 38 38 38 37 37 36 36 39 37 44 50 51 67 
26 26 28 26 28 28 31 29 25 23 21 26 28 30 32 31 30 31 32 35 36 33 32 34 32 30 30 31 32 32 30 33 39 37 35 31 34 35 35 35 34 35 36 36 34 34 33 35 35 32 34 35 37 36 39 35 38 38 39 36 33 37 35 35 35 36 40 42 38 39 35 36 37 36 38 42 52 51 55 108 
23 29 26 28 30 30 30 29 24 25 22 29 30 33 33 31 33 35 34 35 38 36 33 38 36 35 34 33 33 33 31 33 38 34 36 34 33 33 37 36 38 39 35 35 35 35 35 35 35 34 34 36 37 38 39 35 38 37 42 41 38 37 37 38 37 38 40 38 42 38 39 37 40 37 39 42 49 46 60 135 
25 28 26 24 31 27 26 30 28 23 25 28 30 33 31 35 35 35 34 37 37 36 35 37 36 35 34 33 34 33 29 37 38 36 37 34 36 34 34 37 36 37 36 33 33 33 36 33 36 34 34 34 35 35 37 37 37 37 37 36 35 37 36 34 35 39 40 39 41 39 35 38 42 40 41 41 41 43 59 139 
24 27 23 22 32 34 29 35 28 24 23 28 29 33 33 36 35 35 35 37 39 36 36 36 38 34 33 35 32 32 29 32 37 37 37 33 38 35 35 34 36 38 37 33 34 34 35 32 35 32 35 35 34 32 31 32 35 34 33 35 38 36 34 38 36 33 41 36 40 40 41 41 43 42 41 44 52 47 56 140 
26 25 25 24 32 31 30 31 27 25 23 26 31 32 34 36 39 38 39 40 37 41 37 40 39 36 31 30 34 32 31 32 35 36 37 37 35 37 37 36 36 37 36 35 35 32 32 32 36 31 36 33 35 30 33 34 35 36 32 35 36 34 38 36 36 35 41 39 40 40 40 42 56 58 64 92 103 93 73 137 
25 29 27 26 30 33 32 31 30 24 23 26 32 35 34 38 40 37 39 39 41 41 42 43 40 32 34 33 34 31 29 29 37 38 39 38 35 37 39 42 35 37 37 37 33 35 34 35 38 32 35 35 32 33 38 32 35 38 34 36 34 35 38 34 40 37 42 41 43 43 47 77 122 140 168 212 219 185 131 164 
28 30 29 24 31 31 34 29 27 27 27 29 34 35 38 36 40 38 39 40 43 44 42 43 42 39 38 41 40 39 37 31 33 38 37 37 39 38 41 38 38 39 38 39 39 35 34 33 38 34 35 34 37 34 33 37 38 37 37 36 37 37 39 34 41 36 41 41 43 46 70 123 159 177 191 194 183 172 168 191 
29 29 28 22 31 34 33 35 30 29 24 29 34 35 35 39 38 39 40 45 43 43 41 44 45 43 46 44 46 44 38 33 35 38 40 39 37 39 41 38 37 43 41 37 35 35 35 37 34 34 35 35 36 34 33 36 35 38 36 37 38 35 36 36 40 39 41 43 51 75 101 119 134 145 147 156 161 171 179 207 
30 28 29 26 30 32 34 31 32 27 29 33 34 37 39 40 41 38 40 44 43 42 44 43 46 48 50 51 45 44 41 35 34 40 39 40 40 37 42 37 38 38 39 38 38 33 34 32 35 31 34 32 36 34 33 36 38 36 35 36 39 37 40 38 38 38 42 43 67 101 115 126 134 140 149 164 183 200 217 246 
29 26 28 28 30 28 34 31 33 31 26 32 36 34 36 36 40 41 41 45 42 44 41 44 42 47 49 49 48 46 37 35 34 39 39 41 38 38 39 40 38 38 35 37 40 38 35 34 34 33 33 33 36 33 34 34 35 37 36 39 39 36 37 37 39 38 41 43 65 105 133 143 153 160 171 184 199 214 233 246 
28 29 28 28 28 29 32 32 35 30 31 31 38 36 41 40 40 42 43 43 46 45 47 48 47 47 53 49 47 47 43 36 33 40 44 40 42 42 43 38 39 43 39 39 37 38 33 37 38 33 32 35 38 37 40 38 38 37 39 38 38 38 39 39 38 39 43 43 67 107 136 150 161 167 177 188 199 213 232 250 
32 31 34 27 29 33 34 36 34 35 33 34 38 38 37 42 41 42 43 45 49 47 48 52 48 51 54 53 49 49 48 39 37 39 42 41 39 39 41 41 42 42 42 42 36 37 37 36 41 35 34 35 40 42 44 48 42 39 41 44 37 42 40 41 38 40 47 44 62 100 129 148 159 165 174 183 197 217 230 244 
35 37 34 33 35 35 37 36 36 34 32 35 36 42 41 39 45 45 49 48 52 50 49 50 54 53 53 56 51 47 48 44 39 41 48 43 44 41 41 40 43 42 39 43 38 39 37 40 38 36 37 40 38 44 52 54 49 52 44 46 40 39 38 42 42 39 46 46 55 97 126 149 156 165 171 184 197 213 228 244 
33 33 35 31 37 36 37 38 38 34 34 39 39 39 41 47 47 44 45 50 51 52 54 52 53 54 56 55 52 51 51 43 41 42 48 43 43 43 44 42 42 41 41 42 39 42 37 37 38 39 39 40 40 46 56 77 84 65 49 44 43 44 41 43 42 42 44 42 54 92 120 144 155 162 170 180 193 211 228 237 
36 38 38 37 42 41 41 39 39 40 38 36 41 46 45 46 51 48 49 57 58 56 56 59 61 60 61 60 58 57 54 46 44 43 48 45 48 46 47 44 43 44 43 43 41 43 38 40 44 40 41 42 46 56 106 219 160 95 60 46 42 41 41 46 42 46 44 46 53 82 118 141 154 159 168 178 192 210 220 237 
43 44 39 39 42 44 46 43 41 40 39 43 45 50 49 54 53 50 54 61 61 60 62 65 64 64 65 63 61 61 54 48 45 48 52 49 50 49 48 44 47 45 46 42 45 43 42 42 42 42 45 43 48 60 127 250 163 94 58 47 46 43 44 43 45 46 47 49 50 77 116 143 150 156 162 176 185 196 216 235 
49 41 40 40 43 45 48 47 47 41 42 46 47 51 50 53 54 56 56 61 65 67 67 67 66 67 65 65 63 61 54 49 47 50 50 50 51 49 46 46 46 47 46 44 45 44 45 43 44 43 42 47 49 53 73 98 88 66 52 47 42 43 42 44 42 44 47 47 52 74 108 134 149 154 162 165 162 161 210 234 
54 51 48 45 46 50 51 50 48 46 46 47 53 56 54 59 62 62 64 67 70 71 76 75 74 73 76 75 69 62 58 54 46 49 49 50 50 44 46 47 46 50 49 48 46 47 44 48 47 43 42 49 49 46 53 55 59 56 54 45 46 45 46 43 45 45 48 46 52 67 103 132 149 148 161 162 162 175 218 230 
65 61 58 55 57 61 57 54 55 53 53 54 55 57 58 62 63 61 67 75 76 78 81 83 81 82 81 81 75 68 60 54 51 49 53 53 49 48 63 71 56 54 54 50 50 48 50 49 47 44 49 46 47 47 47 51 50 51 48 45 44 47 46 46 44 48 47 47 53 62 102 130 149 155 159 171 179 196 214 223 
93 85 80 67 67 61 64 60 57 57 55 58 57 56 58 63 68 65 72 74 80 83 82 87 81 92 92 85 71 67 62 59 53 56 57 58 56 57 93 133 68 58 60 54 53 49 52 48 49 45 50 51 47 49 52 48 49 48 47 47 46 45 47 45 48 48 46 52 50 56 103 130 146 161 163 167 177 192 217 221 


