P2
80 60
253
21 17 15 25 35 46 80 93 73 49 58 89 86 46 43 35 34 30 26 27 27 30 24 22 25 27 25 25 28 28 34 32 30 30 27 28 27 23 25 24 26 26 26 27 24 25 26 26 23 20 15 14 15 17 15 17 17 16 20 17 16 17 17 19 20 19 15 22 22 26 18 19 18 15 16 16 16 13 17 11 
21 17 21 21 30 47 89 99 68 45 64 92 82 43 36 36 33 33 30 28 30 31 23 27 26 21 25 29 30 30 31 28 30 33 28 25 28 25 29 25 23 25 26 25 26 26 27 27 24 20 16 16 15 16 19 16 18 15 17 17 18 18 19 20 22 19 18 24 23 24 21 20 19 14 12 14 17 17 13 16 
24 22 22 24 34 50 91 97 65 48 66 89 75 42 40 36 31 29 30 27 30 31 24 28 24 27 31 31 30 30 31 32 28 28 26 29 27 27 29 27 22 25 26 26 28 32 27 26 27 24 17 16 18 17 16 20 23 20 20 19 23 24 27 25 25 16 18 19 22 25 18 22 15 19 16 22 18 18 17 9 
19 16 20 29 37 50 94 99 52 45 71 90 72 40 34 29 30 31 27 27 26 29 23 25 27 32 32 28 30 29 34 32 28 25 27 23 28 27 28 26 24 27 27 28 28 29 28 29 27 22 19 22 25 23 26 25 27 25 31 27 26 24 28 28 26 18 17 20 24 17 22 20 16 16 20 17 17 15 11 12 
20 19 19 29 33 60 106 97 53 45 75 90 63 36 34 33 28 29 29 25 24 24 28 25 28 35 29 30 32 31 33 30 30 28 26 22 26 23 26 22 27 23 26 26 27 26 27 29 27 28 26 23 23 25 29 29 27 28 27 28 29 30 29 28 22 19 20 20 24 23 20 23 19 20 19 17 18 11 16 9 
22 18 20 30 34 70 98 88 52 48 84 86 62 36 32 28 29 27 26 23 28 30 30 28 26 30 31 30 28 31 31 33 30 28 30 27 27 27 25 26 20 21 26 28 29 29 27 28 27 29 25 25 31 27 28 28 28 27 32 29 28 30 26 28 24 20 19 15 23 20 23 22 19 21 20 17 18 14 10 11 
21 22 25 32 36 66 100 89 45 52 85 84 54 31 32 28 27 29 29 26 25 31 25 29 28 30 26 28 30 30 31 31 30 27 26 27 26 26 26 24 24 23 24 26 26 27 28 30 29 28 30 28 27 26 29 28 25 22 28 28 24 26 23 25 24 21 19 17 26 22 21 22 19 21 20 19 15 10 13 10 
15 13 19 28 33 65 99 79 48 52 85 85 46 30 26 25 26 25 24 25 26 25 22 23 24 24 25 25 24 27 28 29 29 25 28 26 24 26 24 22 26 26 28 26 27 25 27 25 23 25 27 21 29 30 25 24 27 26 29 23 26 25 27 28 25 22 18 17 22 20 22 21 19 19 20 19 12 8 13 10 
10 7 11 25 25 67 100 79 37 53 92 80 43 28 26 25 24 25 24 23 26 25 24 24 23 24 25 24 29 28 33 27 28 26 26 26 24 27 26 23 25 24 26 28 27 27 25 27 26 30 24 23 24 24 24 27 28 24 26 25 26 26 26 27 25 27 20 20 21 22 24 24 20 20 18 19 9 13 15 7 
10 5 0 2 11 73 101 74 31 53 100 81 41 28 24 23 22 21 19 21 26 25 23 23 26 23 26 24 26 29 31 27 28 28 27 24 27 27 26 26 26 26 28 25 27 28 28 29 26 24 23 25 23 25 25 23 25 28 27 29 29 27 30 24 28 25 19 17 23 24 21 23 16 24 17 20 14 14 9 6 
17 13 6 2 12 78 100 66 24 53 105 84 27 17 14 15 16 21 17 21 20 22 21 21 23 26 24 25 24 24 29 28 24 27 24 24 24 25 26 26 25 21 26 26 26 28 27 26 24 24 23 21 23 22 25 24 29 29 29 31 27 30 26 25 27 26 21 16 24 27 23 24 21 18 21 19 14 13 15 11 
14 16 14 13 19 86 100 64 26 62 103 74 21 13 14 16 12 13 14 15 17 18 18 18 22 22 23 23 26 27 30 25 26 25 24 25 26 26 24 23 22 25 26 25 25 26 26 26 26 23 24 24 25 25 28 25 28 28 30 30 26 34 26 26 26 24 23 20 21 23 25 25 20 21 26 18 13 12 12 10 
17 19 13 15 15 85 95 60 29 66 106 72 18 13 11 10 13 9 11 9 9 10 9 12 13 16 17 18 19 23 25 23 24 24 23 23 24 21 26 25 23 23 25 26 25 29 26 25 23 23 24 24 26 25 28 26 29 29 32 27 28 29 27 26 22 26 22 16 17 22 24 25 19 19 22 19 18 11 14 10 
18 19 13 15 21 90 90 50 32 73 103 66 19 12 15 14 11 11 13 8 10 9 10 9 9 8 8 11 13 8 13 16 18 19 24 23 23 26 27 24 26 24 25 25 27 27 26 29 27 28 27 27 24 27 27 31 28 28 28 30 30 28 25 25 24 27 26 23 19 25 25 25 22 21 23 22 15 11 14 11 
17 18 11 18 35 90 85 46 28 83 100 58 21 14 16 16 16 11 11 10 9 10 8 8 9 9 12 11 12 9 11 11 6 7 4 14 18 26 24 23 26 22 24 24 26 28 26 29 28 25 27 27 27 27 31 31 29 28 31 31 31 31 25 26 26 26 28 21 17 21 23 26 23 22 22 21 18 10 11 11 
14 17 14 17 34 94 83 42 29 84 100 56 19 15 18 16 16 10 15 8 10 12 9 10 7 8 9 7 9 12 10 11 7 5 6 16 18 24 21 25 25 22 24 27 25 26 27 28 29 27 27 25 29 29 31 27 32 29 33 30 31 30 28 25 29 26 27 20 16 21 24 25 24 22 24 23 20 16 12 11 
15 16 12 18 42 94 81 36 26 88 92 49 16 13 16 15 13 12 13 12 11 13 10 11 8 9 10 6 11 9 10 10 10 16 22 22 24 26 23 19 21 23 22 25 25 24 27 25 28 28 26 24 30 26 31 29 29 28 27 30 26 26 30 28 25 29 29 24 16 18 24 25 22 22 24 21 22 21 16 12 
16 13 13 18 47 98 78 37 30 93 91 50 21 18 18 17 17 15 14 10 13 13 12 14 10 7 12 8 12 13 13 16 24 25 26 23 26 25 26 23 25 26 28 26 28 27 30 30 28 29 29 29 32 31 30 30 31 29 31 31 31 28 28 26 24 27 28 25 18 19 23 27 25 23 24 22 23 21 17 13 
16 13 16 18 48 92 72 35 29 92 87 43 19 17 19 18 13 15 16 13 15 11 14 11 11 12 8 10 10 12 21 25 25 23 22 22 24 24 25 23 23 22 25 25 29 26 26 27 27 28 29 29 29 27 27 32 28 28 28 28 32 31 29 32 27 30 29 27 17 16 22 25 23 22 26 23 25 22 17 13 
17 16 17 21 61 96 76 31 33 91 88 40 18 15 17 16 20 15 15 13 13 14 12 14 12 12 12 10 13 14 20 26 25 25 22 20 26 25 24 24 24 24 24 25 26 27 27 27 29 27 31 28 30 31 29 30 27 29 27 30 30 28 27 27 28 28 30 28 19 14 20 22 25 22 24 20 24 21 20 22 
22 20 18 24 70 96 76 34 35 103 88 42 20 18 20 19 20 16 16 15 14 17 15 16 12 17 12 16 12 15 23 27 25 24 23 22 23 24 26 22 22 23 25 30 24 27 27 26 25 27 28 30 28 28 30 29 27 27 30 30 31 33 30 29 29 29 29 28 22 15 18 25 24 21 24 21 22 24 19 18 
48 37 33 39 85 106 77 33 40 102 87 36 18 19 23 19 17 16 16 13 13 16 17 13 11 10 12 12 12 16 16 24 23 24 23 22 22 23 24 22 26 24 24 25 25 27 27 30 29 27 25 26 29 31 30 30 30 29 30 27 31 34 28 32 30 27 30 32 23 17 13 26 23 22 22 20 23 23 21 17 
102 94 88 89 105 104 64 29 49 102 84 36 17 19 16 18 15 14 18 13 16 15 15 13 13 13 14 16 13 16 14 23 26 22 22 18 24 22 24 22 26 24 25 27 25 27 26 27 27 27 29 30 29 28 31 29 29 28 31 30 31 30 29 29 28 29 28 28 26 21 13 16 23 20 21 24 25 23 21 19 
103 98 98 98 96 87 50 33 57 103 83 28 18 15 19 18 15 16 17 15 16 14 13 13 12 11 14 12 11 13 14 22 24 23 22 21 23 25 24 21 24 26 23 31 27 27 25 24 29 25 30 28 29 30 27 30 27 29 29 29 32 30 29 31 30 27 32 33 28 24 17 14 18 18 21 23 21 24 20 13 
59 60 72 79 74 65 33 31 61 108 84 32 21 18 18 23 21 19 19 17 17 15 18 16 17 12 15 12 18 15 18 20 26 26 24 22 23 23 26 23 28 27 27 28 28 30 25 30 31 33 27 28 32 30 28 31 30 28 30 30 33 33 32 30 30 31 30 32 30 28 21 16 16 16 22 19 22 23 20 16 
33 26 26 29 30 30 27 32 65 117 85 36 22 19 18 21 19 18 19 17 16 19 19 18 19 16 18 16 17 18 19 24 26 30 24 23 26 26 26 28 28 26 27 30 32 29 28 26 28 33 29 29 31 28 33 31 28 29 30 30 31 30 29 33 29 31 32 31 31 29 29 25 17 10 18 16 18 20 21 17 
46 39 33 29 22 24 27 35 73 119 87 27 19 19 21 20 19 18 20 17 19 20 18 18 15 17 14 16 16 17 18 25 28 27 26 24 24 28 25 27 28 29 29 29 26 27 29 28 26 29 31 31 29 31 30 31 32 33 31 30 29 31 30 29 27 31 32 31 30 30 27 28 23 18 16 15 14 16 19 17 
109 103 93 85 71 67 62 65 97 122 86 28 21 21 22 21 19 15 18 16 17 19 16 18 14 16 16 15 16 15 19 25 27 24 24 23 29 28 26 29 27 25 27 29 28 28 27 30 27 30 29 23 30 27 29 30 25 30 27 28 29 30 28 29 31 27 30 31 34 30 26 30 26 25 24 22 17 21 20 10 
107 107 108 102 97 98 95 97 106 106 74 25 19 21 19 21 21 20 16 19 19 21 18 18 18 17 19 16 19 17 19 21 27 27 28 25 28 28 30 32 27 27 29 32 29 29 27 31 29 27 28 31 31 28 30 32 28 31 28 29 26 32 29 31 31 30 29 32 32 27 28 31 26 23 26 28 25 24 25 19 
62 66 73 77 78 88 88 90 95 88 57 19 20 20 20 21 20 21 20 21 23 23 20 21 18 18 19 17 17 14 19 20 26 23 28 25 25 30 31 30 29 28 30 27 29 29 29 28 28 30 27 29 31 27 30 28 31 28 29 32 31 31 29 31 31 33 30 33 29 30 32 34 25 26 25 27 25 27 22 20 
26 27 29 26 25 36 40 46 51 44 28 18 17 19 23 21 21 18 19 18 22 25 20 23 18 21 20 19 19 17 17 25 28 28 29 27 26 28 29 28 26 28 34 28 29 28 31 29 32 28 30 30 30 30 29 32 31 30 30 31 32 33 30 32 28 29 32 34 30 30 30 30 28 27 27 26 26 27 25 20 
26 19 19 18 20 23 25 29 30 27 22 18 19 25 21 22 21 23 21 21 23 22 22 21 20 19 20 18 23 20 20 23 28 26 27 25 28 28 28 29 30 29 28 30 31 28 28 29 30 31 28 31 33 30 32 35 29 31 30 30 32 33 31 33 29 32 32 33 29 29 30 32 28 26 27 25 25 28 25 21 
24 22 22 21 19 22 24 25 24 29 20 18 17 24 25 27 26 19 22 22 23 23 22 22 22 23 24 21 22 20 21 25 28 27 29 26 25 29 28 31 29 29 30 31 29 27 29 29 30 29 30 30 30 28 32 31 29 30 31 33 33 31 33 31 31 32 30 34 30 27 27 28 32 31 30 25 28 29 25 21 
24 23 20 23 19 20 24 24 26 29 22 21 20 25 24 24 27 24 22 22 24 25 25 23 25 23 24 20 23 21 20 26 29 28 25 26 29 32 28 33 31 31 29 31 29 29 29 29 30 30 32 30 31 32 34 31 29 28 30 32 34 35 33 32 32 34 33 36 33 32 31 30 30 30 31 25 29 34 28 23 
24 22 19 18 19 21 22 27 26 29 24 18 19 24 25 26 26 22 25 26 26 24 26 22 25 27 26 21 24 21 21 25 27 27 27 27 31 26 28 32 30 27 27 32 30 32 28 29 30 32 32 31 31 32 31 28 33 33 29 31 31 34 33 35 36 31 35 33 33 34 29 29 30 30 27 25 25 29 29 27 
23 27 22 20 19 21 22 25 28 28 22 20 22 23 27 26 26 24 23 24 26 26 26 27 24 25 24 23 28 22 19 26 28 28 29 30 29 30 29 27 28 30 28 31 31 31 31 29 29 33 28 29 31 32 34 32 30 31 31 30 33 33 33 32 34 34 34 35 32 33 29 30 30 29 30 28 28 32 33 29 
27 22 22 20 20 20 25 26 27 28 24 19 20 24 27 25 25 25 26 26 25 26 24 27 25 23 27 25 25 24 20 29 31 31 27 31 30 31 29 29 29 29 30 30 30 34 32 31 31 33 31 32 31 28 35 32 33 31 33 32 33 33 32 36 32 29 30 34 32 30 34 34 29 31 28 28 27 32 37 32 
23 21 23 21 17 21 24 25 32 32 24 20 22 26 27 26 25 27 27 25 27 28 27 27 28 27 29 27 28 25 22 25 32 32 27 29 32 31 30 29 32 30 31 30 32 32 31 33 31 33 30 31 31 34 33 33 32 34 29 30 31 35 34 33 32 33 33 35 32 35 33 30 29 30 31 26 31 29 39 39 
24 20 21 21 19 27 23 26 34 29 21 19 23 23 25 26 29 25 30 28 25 29 26 28 27 31 27 28 30 24 24 23 29 33 34 31 32 29 30 29 29 32 29 29 34 30 30 34 32 30 31 30 33 33 33 32 31 34 32 29 30 35 32 32 31 33 33 34 36 33 32 30 31 32 28 28 32 40 40 42 
25 22 19 24 20 22 24 24 34 29 22 23 23 23 27 28 29 27 29 25 26 31 29 28 29 28 26 28 27 28 30 26 33 32 31 29 30 32 31 28 30 29 33 31 31 33 33 33 30 28 30 31 32 31 33 34 32 32 31 30 32 36 31 31 32 32 35 36 35 32 32 35 32 30 30 35 51 48 42 40 
25 23 23 23 24 23 23 27 28 29 22 21 23 25 27 32 28 31 29 26 30 29 32 28 30 30 30 28 29 28 27 29 30 32 30 31 30 31 31 29 34 32 32 33 33 33 30 30 29 31 34 26 33 34 33 29 32 31 32 31 33 35 31 34 35 34 35 36 33 31 34 35 32 30 32 30 38 41 43 41 
25 20 23 23 22 24 26 26 30 30 23 22 23 25 28 30 28 30 31 30 32 31 31 32 34 32 30 30 31 27 30 26 33 31 33 34 34 32 33 31 33 31 34 35 31 37 33 32 33 30 31 29 32 33 33 33 34 30 32 28 29 31 30 35 35 35 36 36 34 33 35 31 33 33 32 34 38 36 39 37 
27 23 24 21 22 27 29 26 28 28 24 22 24 31 32 30 30 30 31 30 32 31 32 33 32 33 30 32 31 31 28 26 36 32 31 32 31 34 33 32 34 30 33 30 29 30 30 31 30 28 30 30 29 29 30 26 29 31 31 30 30 32 32 33 32 33 34 35 34 35 35 38 37 36 34 38 40 38 43 36 
22 20 20 22 20 24 29 32 32 31 22 23 24 28 28 30 29 32 32 30 30 33 33 35 29 35 33 33 31 29 29 29 35 34 31 32 34 34 36 31 34 34 28 33 30 30 32 30 30 29 30 30 31 31 30 28 27 31 31 28 29 30 32 33 28 31 32 35 34 35 36 38 39 43 51 56 67 80 100 107 
24 22 19 22 21 25 28 32 29 32 24 24 28 32 27 32 33 34 33 34 35 36 35 33 36 36 33 31 29 29 28 26 32 32 34 32 35 35 34 29 33 32 32 32 32 31 31 30 32 28 31 26 28 29 30 32 29 30 29 29 33 33 34 34 33 32 35 37 36 45 65 82 90 102 113 121 136 151 170 187 
25 23 24 21 24 28 31 33 32 34 25 27 28 32 31 34 32 34 36 37 36 39 37 37 39 37 34 31 33 30 29 27 31 32 32 34 33 36 33 33 32 31 29 31 33 31 30 31 31 29 30 29 32 29 31 30 25 34 30 30 32 34 36 31 32 34 39 41 36 65 106 122 132 135 148 153 166 182 207 223 
23 25 23 24 23 27 30 31 28 34 25 26 29 34 34 34 34 33 36 36 37 42 38 39 40 35 34 32 30 29 32 24 30 34 30 33 37 34 35 34 37 34 31 34 29 33 29 29 29 28 30 30 33 32 32 29 32 31 30 32 34 34 33 35 33 35 39 40 44 73 118 148 156 160 177 184 199 214 237 246 
27 25 26 23 27 28 28 32 28 38 29 25 34 32 33 34 37 34 36 36 37 37 39 39 41 42 41 42 38 37 39 33 29 32 36 35 36 33 35 34 32 36 33 32 32 32 31 33 30 30 32 30 29 30 31 28 28 31 32 31 34 33 32 38 34 36 36 41 41 70 121 153 162 170 181 192 205 225 248 248 
29 24 22 27 22 29 32 29 29 36 26 30 31 33 35 37 38 34 39 35 38 37 38 39 42 45 47 45 42 40 39 35 32 33 34 38 35 37 39 36 34 33 32 34 34 30 32 33 29 30 30 32 33 31 33 31 30 30 30 30 32 36 36 32 36 37 38 38 42 67 116 150 162 173 180 191 207 223 243 252 
30 24 27 28 27 27 32 30 32 36 30 27 30 31 33 38 36 35 37 38 38 39 41 41 43 44 49 47 45 41 41 35 33 34 38 34 34 35 35 34 34 35 34 35 33 34 33 31 27 30 29 29 31 30 30 30 31 29 34 30 33 36 34 34 36 35 38 36 41 62 109 145 161 170 180 190 203 218 241 253 
32 25 24 28 25 29 31 30 35 36 31 30 30 35 34 38 38 39 39 37 40 42 42 42 44 42 50 46 44 45 43 38 33 33 37 37 36 36 40 37 34 35 35 35 32 32 29 32 30 30 30 29 33 32 33 34 30 31 33 33 34 35 34 33 38 37 35 37 38 59 109 141 156 167 175 189 203 217 237 250 
31 31 28 30 25 29 30 33 35 37 33 30 33 33 38 40 39 42 42 41 44 45 45 45 45 47 48 46 44 45 45 38 34 34 39 34 39 40 35 38 37 33 36 36 32 36 33 33 33 29 31 30 31 31 35 34 34 31 35 33 34 36 34 35 36 36 38 39 41 56 103 135 153 163 172 188 197 215 237 242 
28 28 30 29 29 31 33 37 38 42 35 31 32 33 38 39 40 41 45 43 46 48 48 47 48 48 52 48 46 43 44 40 34 36 41 38 38 39 37 39 39 35 34 35 36 35 34 33 36 35 34 31 36 35 38 41 41 36 37 37 35 34 35 34 36 37 37 38 39 53 103 136 153 166 173 184 196 209 229 243 
31 31 33 31 34 34 36 38 41 46 37 33 39 37 38 43 42 43 46 45 49 53 49 49 47 52 55 50 49 48 46 38 34 37 37 41 41 41 40 39 36 38 38 37 37 36 37 34 33 32 34 36 39 39 45 46 44 44 41 34 33 37 39 37 37 36 36 41 38 51 98 132 149 163 166 176 180 187 214 236 
36 35 33 34 35 37 37 38 45 48 37 37 41 42 44 43 46 51 46 47 53 52 53 56 55 58 57 55 51 50 49 46 41 40 41 41 42 41 43 41 37 40 40 39 38 38 36 35 38 35 37 35 40 46 50 66 78 64 47 39 36 34 39 39 38 40 38 44 42 52 92 131 148 164 167 169 172 168 214 242 
40 39 40 41 35 37 44 44 46 47 42 39 42 48 46 48 49 48 53 52 58 60 57 57 59 62 60 60 56 53 52 46 42 42 45 47 45 45 44 42 41 41 44 41 39 39 37 37 38 38 38 39 48 50 81 197 166 103 62 43 42 40 39 38 39 43 43 42 46 52 92 127 149 161 166 178 178 195 228 240 
45 43 42 43 38 42 47 45 47 53 43 40 43 47 51 49 53 52 54 56 62 65 64 64 65 63 64 62 58 58 56 47 43 45 49 47 48 44 44 43 42 41 45 41 42 41 40 41 40 40 40 39 46 47 95 240 181 103 60 45 40 42 39 37 38 43 44 45 44 55 88 129 149 159 169 178 193 206 225 239 
52 46 44 47 47 45 46 53 53 55 49 43 46 50 53 54 59 57 58 62 66 70 68 67 70 69 70 68 62 57 56 50 45 47 47 53 48 47 41 41 40 41 43 44 44 42 37 43 43 42 38 38 41 43 60 95 93 69 54 44 39 40 38 39 40 43 41 45 45 50 86 122 148 163 167 176 191 203 223 234 
60 56 52 55 50 54 54 54 54 56 50 49 52 55 55 58 56 60 63 64 70 74 75 78 81 77 81 74 67 62 56 51 47 49 47 51 47 43 40 44 44 45 46 45 43 46 40 45 41 44 42 42 46 47 48 55 58 53 48 43 43 43 39 38 41 43 44 42 47 51 80 126 144 162 171 179 193 208 224 227 
76 69 62 55 52 56 59 56 55 58 52 52 57 59 58 61 59 62 67 68 75 75 77 80 83 85 83 78 68 63 60 56 50 50 52 51 48 50 58 72 47 49 47 46 44 48 46 45 41 47 43 42 43 45 46 49 52 46 46 42 40 38 39 39 41 43 46 44 46 45 76 129 146 164 172 180 191 203 222 229 


