P2
80 60
285
27 28 38 57 93 106 68 45 74 95 75 46 37 36 36 29 28 29 23 27 22 19 22 23 22 22 22 26 31 30 29 29 27 26 25 27 23 27 26 23 23 20 24 26 27 25 24 18 13 15 12 17 16 13 14 15 17 15 20 22 21 21 24 23 26 19 22 23 24 26 24 16 17 20 25 19 24 26 18 16 
26 30 40 63 96 102 62 39 77 95 69 44 37 36 33 31 27 27 26 26 21 23 23 23 27 26 27 28 29 31 28 27 27 22 26 23 23 25 23 24 24 21 27 24 26 25 27 23 16 17 16 19 18 13 16 17 19 17 24 22 24 23 24 29 26 19 18 22 20 21 21 16 20 23 27 21 22 24 21 14 
24 28 42 59 99 100 56 43 80 95 65 41 34 36 30 29 28 29 23 26 22 21 20 23 26 28 28 29 31 29 28 26 22 22 26 22 24 22 24 22 21 24 23 29 28 28 24 23 22 21 21 22 24 22 21 26 25 28 24 25 28 25 24 26 28 18 17 19 23 23 19 17 20 20 23 17 23 27 22 19 
25 29 41 67 102 99 54 46 87 91 59 36 32 31 30 26 25 29 24 26 24 23 25 28 29 25 28 30 30 33 27 27 25 23 26 25 21 23 25 24 23 23 25 22 27 26 27 27 24 25 26 25 25 25 27 26 26 26 27 27 24 24 23 23 24 20 18 19 27 23 25 21 19 21 24 21 22 26 18 17 
22 33 42 74 111 95 53 49 90 91 54 34 32 30 29 25 24 24 23 26 24 24 23 25 27 25 24 28 29 30 28 26 29 22 24 22 22 23 21 23 23 21 23 25 23 26 25 27 26 25 21 27 26 24 26 26 24 25 22 21 23 20 22 23 25 20 18 23 22 24 22 21 21 19 25 23 21 20 19 17 
22 32 46 84 103 90 49 51 92 91 51 32 28 31 21 27 24 22 23 28 30 27 25 22 22 27 25 28 28 30 28 25 27 25 24 24 20 23 22 21 20 23 23 22 25 23 27 23 25 27 24 26 23 22 25 21 23 22 22 21 22 19 26 22 25 23 15 21 25 23 23 21 20 25 25 22 18 24 19 16 
28 35 46 82 105 89 48 51 97 85 46 29 30 27 30 24 23 26 23 28 28 21 22 23 22 23 26 26 32 28 28 26 28 25 24 24 21 21 25 20 22 22 20 21 24 26 21 24 24 25 23 26 24 22 20 26 26 23 23 21 27 25 22 25 26 22 16 20 24 25 24 22 22 23 26 22 20 28 22 17 
23 31 39 83 106 80 43 49 94 80 43 25 21 25 18 21 24 26 26 25 23 21 20 23 22 21 21 25 28 28 24 23 25 28 22 23 19 24 22 23 19 22 20 22 25 21 21 19 20 25 22 18 23 21 24 20 19 21 20 22 26 24 23 24 25 19 17 21 25 26 25 23 25 22 21 16 21 23 25 24 
16 27 34 85 107 80 41 51 97 82 39 23 26 25 23 21 25 25 23 19 23 20 18 22 23 23 25 26 27 31 24 25 26 28 24 25 24 24 22 23 22 22 22 23 25 24 24 24 22 20 18 19 25 22 23 23 26 27 24 24 26 29 28 28 27 21 20 21 26 25 27 25 23 22 26 22 18 25 21 19 
2 0 14 87 108 74 33 51 103 85 32 20 17 21 18 18 20 24 19 23 19 22 20 22 22 21 23 22 25 29 27 22 24 24 24 22 23 24 23 21 23 22 25 25 26 24 21 27 22 20 18 20 23 18 24 29 27 26 26 25 27 28 25 25 28 24 22 17 22 23 23 21 23 23 27 20 21 24 21 21 
10 7 21 91 110 70 30 54 115 90 24 11 10 17 11 13 18 17 16 19 19 17 19 19 19 20 18 22 26 27 29 21 25 24 21 21 23 21 23 24 22 21 19 24 25 19 21 22 22 22 22 26 26 22 24 26 24 24 25 24 27 27 26 28 26 25 18 14 23 24 25 20 27 23 24 20 22 30 21 21 
20 20 30 99 114 73 30 59 112 88 23 9 8 9 8 10 9 9 12 14 12 15 17 16 22 19 19 21 24 24 23 24 24 23 23 22 22 23 25 24 22 21 21 22 23 21 20 22 23 26 24 26 26 24 27 27 27 27 26 29 25 29 26 26 28 21 22 17 20 24 28 26 24 23 25 22 20 25 23 26 
17 18 23 98 114 70 31 61 113 85 22 9 8 7 7 8 11 8 7 8 2 4 6 6 7 9 11 9 12 15 16 18 20 18 19 23 23 22 21 20 22 23 18 21 21 21 26 25 26 25 24 26 26 24 27 27 26 25 26 28 27 28 23 25 27 25 22 18 24 26 26 22 25 21 23 25 24 24 18 17 
14 16 29 103 100 62 32 69 114 79 20 12 11 10 11 11 10 6 8 6 4 2 4 4 2 3 3 5 6 9 1 4 9 13 16 22 21 20 21 19 20 22 23 23 26 23 26 23 22 25 24 25 26 24 25 29 27 26 26 27 26 27 24 25 29 23 22 19 21 25 25 24 26 26 26 22 21 23 21 19 
14 17 39 100 95 56 29 74 106 70 20 13 17 14 15 9 9 9 8 7 7 5 7 6 7 6 5 9 9 8 7 1 3 10 17 25 21 21 21 17 19 22 24 26 26 26 24 25 27 23 29 25 27 25 27 26 28 26 28 28 29 25 29 28 28 26 25 21 18 26 30 28 26 27 27 28 26 29 19 21 
17 18 37 101 92 50 31 76 105 69 19 15 11 11 11 10 10 9 8 6 4 5 5 7 4 4 3 5 6 9 4 4 16 18 20 23 21 21 16 18 20 23 23 24 24 22 25 25 25 23 27 25 26 24 27 25 25 25 24 24 29 23 26 25 27 28 24 20 20 26 26 25 24 28 25 24 23 24 19 22 
17 21 42 106 90 51 33 77 101 63 18 15 13 12 10 11 11 10 8 12 8 8 9 5 6 5 4 9 8 12 16 19 22 20 20 23 20 22 25 24 23 23 25 25 26 24 26 26 26 23 24 28 25 25 28 29 27 30 27 25 26 27 24 23 29 27 24 20 20 24 30 25 24 24 26 26 24 27 27 24 
19 17 44 103 93 47 27 79 100 63 17 15 18 16 13 11 10 10 11 9 8 8 9 11 8 7 8 11 14 21 20 24 24 24 24 23 22 26 22 21 23 23 22 25 27 24 27 25 30 26 28 28 29 27 26 28 27 27 27 26 28 28 27 29 28 27 29 21 21 24 25 24 27 25 27 24 27 29 27 21 
20 16 49 105 89 43 28 81 96 61 19 13 14 15 14 12 13 12 9 11 10 9 11 10 7 6 8 8 16 21 21 22 21 22 16 22 19 24 20 20 21 20 22 21 27 25 23 27 26 23 26 27 25 21 25 26 27 26 28 26 29 25 24 26 29 26 26 21 14 20 27 22 24 25 25 24 26 29 28 25 
18 20 55 104 91 44 30 84 101 59 18 14 15 12 11 15 13 9 15 13 10 10 11 8 9 9 10 10 15 23 24 24 24 22 20 20 21 20 23 22 23 22 24 26 25 24 26 26 26 25 30 27 26 24 29 28 29 25 26 27 29 27 28 28 32 28 30 26 20 19 26 28 27 27 26 24 26 29 23 24 
22 21 59 110 90 41 32 88 104 56 19 16 18 15 15 18 16 16 14 14 10 10 11 13 10 12 9 12 15 17 27 20 24 21 23 22 22 24 22 22 22 21 22 25 28 26 25 26 26 24 27 28 27 25 24 29 28 28 28 30 28 28 27 30 31 29 28 29 22 19 23 22 27 27 30 28 27 25 28 24 
27 28 73 121 88 41 37 91 101 54 15 17 16 14 13 14 17 15 13 16 9 15 11 12 9 10 11 14 11 15 21 20 22 20 20 22 22 22 21 19 20 22 22 23 24 23 23 24 27 29 26 27 26 23 27 27 26 26 27 27 30 27 30 27 31 23 29 26 23 22 21 25 26 29 25 26 26 30 25 24 
81 75 105 127 84 35 42 94 99 52 18 19 15 14 13 14 13 14 15 15 14 12 14 9 10 13 11 8 11 19 20 20 24 23 22 23 22 23 18 18 21 24 23 23 27 24 26 28 28 28 27 25 25 25 27 24 27 25 28 26 29 30 29 31 30 26 27 26 22 21 21 21 24 27 26 24 23 29 26 26 
109 104 109 104 71 34 42 94 98 52 17 19 18 16 15 13 17 14 15 15 10 12 13 10 9 11 10 13 11 16 24 20 22 22 22 20 22 24 22 23 21 23 23 26 25 26 24 26 26 28 28 28 27 26 27 27 27 26 25 26 27 27 28 30 28 30 27 29 26 30 19 19 24 25 24 27 23 31 29 26 
96 96 91 86 53 31 44 100 98 50 19 21 19 16 16 18 17 17 13 17 11 14 17 13 14 13 11 13 18 18 23 22 21 22 22 24 26 24 25 25 27 26 27 26 25 24 26 27 32 29 28 29 27 26 24 28 25 31 28 28 29 28 30 29 28 30 30 30 29 28 26 18 17 22 28 27 28 28 24 24 
42 46 46 45 28 27 48 103 100 51 23 20 18 19 15 20 17 20 16 15 14 18 15 17 13 12 11 12 16 16 24 22 22 25 24 24 26 25 26 28 27 24 27 25 27 28 25 27 27 30 31 28 26 26 25 25 27 28 26 29 30 28 31 36 30 33 29 32 30 28 31 24 22 22 22 22 25 28 26 23 
30 26 26 25 28 28 50 114 101 52 20 19 17 16 20 20 15 17 15 14 16 16 12 16 16 13 10 15 12 16 23 22 24 22 23 23 25 27 27 25 27 25 24 24 25 26 25 28 25 24 30 27 26 26 28 28 27 24 25 28 28 27 28 28 26 31 29 28 32 31 30 26 23 27 23 20 24 20 25 19 
81 66 60 54 50 49 68 126 99 49 17 18 18 19 19 17 17 16 16 17 15 12 15 15 14 13 13 15 12 17 21 20 24 25 24 27 24 26 26 26 24 25 25 24 28 25 24 21 26 26 28 26 26 25 28 28 23 29 27 29 31 26 29 28 33 31 31 30 27 30 28 26 28 28 28 28 31 26 25 20 
118 109 103 105 97 97 111 114 90 45 14 17 17 20 18 20 17 16 16 18 16 16 16 16 15 16 13 15 16 17 23 27 24 25 26 28 25 27 26 24 26 27 25 26 24 24 26 27 27 27 25 26 27 28 27 28 26 26 30 26 26 28 27 29 30 32 30 30 29 33 33 28 27 30 32 28 27 25 21 25 
99 96 96 102 93 98 98 96 78 31 18 17 16 18 18 19 19 20 16 20 19 14 14 15 15 14 15 13 18 17 22 24 23 22 26 25 24 26 26 26 28 26 23 26 24 27 21 25 24 27 25 29 28 25 28 28 26 26 28 28 30 28 27 30 31 29 28 30 30 29 30 29 26 27 32 27 26 25 25 26 
39 44 45 51 53 58 63 59 41 21 19 19 19 20 19 21 20 19 20 17 18 18 16 18 15 18 19 14 18 19 23 25 28 27 25 27 25 27 27 27 25 27 25 27 25 26 28 27 28 28 27 27 29 26 26 30 26 27 26 32 29 27 31 29 32 29 27 31 32 32 26 27 27 30 28 27 29 29 27 25 
25 22 25 28 27 28 29 27 24 18 18 20 19 23 22 21 20 20 20 20 20 22 18 21 19 15 17 17 16 18 23 25 26 28 24 27 24 30 29 27 26 27 28 24 27 24 27 25 29 26 31 29 28 25 25 26 27 28 27 29 29 28 31 31 31 32 29 31 29 31 31 28 29 29 26 26 31 32 35 30 
24 23 20 26 23 24 24 25 23 20 19 20 23 21 22 21 22 20 19 21 21 23 22 19 15 18 19 21 21 18 24 28 28 24 25 27 28 27 28 28 26 25 26 27 27 26 30 26 28 31 29 30 31 25 27 30 27 28 30 30 31 27 30 32 30 34 29 33 31 30 32 28 30 33 30 30 29 34 29 27 
24 23 23 28 26 26 26 24 22 22 20 25 22 25 23 26 23 24 23 24 24 18 20 23 23 21 22 18 18 17 25 28 29 29 26 26 30 27 29 26 27 28 28 29 30 26 28 27 29 30 29 31 30 27 29 28 28 31 26 33 32 34 31 32 33 35 31 34 31 34 34 31 31 35 30 29 29 32 30 32 
23 23 22 27 20 22 22 28 23 22 22 23 22 26 19 22 24 24 24 25 24 22 23 22 22 20 21 20 21 22 27 25 29 26 26 27 25 27 30 29 26 26 29 27 26 27 29 33 27 28 26 27 30 26 28 30 27 27 27 31 29 33 31 31 30 31 30 34 31 34 31 29 34 31 29 28 30 31 32 34 
30 23 21 26 22 26 24 23 25 17 20 23 24 23 23 26 26 24 22 24 24 22 22 26 20 23 23 22 19 21 24 28 31 28 25 29 27 28 30 28 26 27 25 32 28 28 29 29 27 28 26 26 29 25 26 28 29 29 28 31 30 31 32 29 32 31 33 35 34 33 33 29 35 33 29 29 29 33 33 31 
25 22 23 25 24 22 23 26 24 19 21 22 23 25 24 24 24 25 23 28 24 23 25 25 24 22 23 26 22 22 26 29 29 28 24 28 27 26 32 29 27 28 25 28 28 30 29 28 27 30 29 31 29 27 29 30 26 26 29 30 29 28 32 33 32 31 32 34 34 31 33 31 33 31 32 30 31 36 32 35 
29 26 22 28 22 24 25 27 23 17 21 23 25 21 25 25 25 25 26 25 22 25 24 25 25 22 25 27 24 21 27 31 30 28 29 29 29 28 29 25 29 28 28 30 29 27 27 31 29 30 30 27 30 30 29 30 28 31 29 30 29 29 30 28 35 31 34 35 35 31 37 31 33 33 35 28 30 36 36 49 
30 28 24 25 21 25 26 28 27 23 19 24 25 27 25 27 27 26 27 25 24 28 26 27 25 25 24 30 24 25 25 31 28 32 31 28 28 29 30 30 28 28 27 28 29 32 29 32 31 29 32 30 27 29 29 29 28 27 30 34 28 30 30 33 33 34 35 32 36 34 34 34 35 35 34 30 32 35 43 54 
26 27 25 26 20 28 25 30 25 21 24 24 28 25 25 27 27 25 29 28 24 27 22 27 28 25 28 29 26 24 25 31 29 28 31 32 31 31 31 27 29 28 29 29 30 31 30 30 32 31 31 31 28 27 31 27 29 30 28 29 28 27 27 29 32 34 34 32 32 33 34 33 31 34 33 32 45 62 99 118 
27 25 30 30 24 28 29 31 25 20 23 22 28 29 28 27 29 28 29 30 29 27 29 30 31 27 30 30 28 27 28 32 31 33 33 30 31 28 31 32 30 32 28 30 29 30 30 32 30 31 31 31 29 28 30 30 29 30 31 29 33 29 30 31 36 33 35 36 32 34 37 36 32 34 41 50 61 112 181 192 
28 24 26 33 27 29 30 31 26 23 23 28 28 31 31 31 31 31 32 31 30 31 31 33 32 29 30 31 33 29 27 33 34 33 34 32 30 27 34 33 32 31 31 30 33 33 32 32 34 30 30 28 30 31 31 31 29 32 30 32 30 31 29 34 37 35 38 35 33 37 38 34 37 39 44 42 50 106 194 233 
26 21 28 31 31 26 30 31 29 21 24 26 29 29 27 31 31 30 32 33 32 28 35 33 33 31 30 33 31 27 27 32 34 36 35 32 35 34 32 31 31 28 27 30 31 32 30 29 31 31 34 29 32 28 27 25 31 29 31 32 34 32 32 31 35 34 35 37 37 34 38 37 39 40 44 44 52 107 220 259 
31 25 25 32 28 30 39 34 26 21 25 27 28 29 31 34 32 33 32 37 34 32 34 36 34 31 29 31 33 29 26 32 35 32 32 33 34 32 31 31 30 30 30 31 31 29 32 30 30 32 32 29 30 26 29 29 28 32 28 32 30 31 32 33 34 34 36 33 40 34 39 44 53 59 73 81 100 192 264 272 
26 23 24 28 28 31 31 29 30 22 26 26 30 30 31 29 33 35 36 41 35 36 38 37 35 31 29 29 33 31 26 30 34 36 35 37 34 34 32 32 29 31 31 28 31 28 29 31 30 32 30 33 29 25 25 30 29 29 29 30 31 31 32 33 36 37 36 37 41 51 84 108 124 161 211 206 221 268 282 285 
29 27 27 29 30 29 31 30 29 23 22 30 30 31 34 34 34 37 36 40 37 36 37 38 33 31 29 29 31 28 23 28 33 36 36 36 32 32 34 33 30 31 28 32 31 29 30 31 29 35 32 31 27 27 28 27 28 32 30 31 32 32 34 34 35 33 39 37 48 92 141 194 232 254 266 253 260 266 258 245 
30 29 26 32 29 32 33 30 29 23 28 28 31 34 37 30 35 39 37 39 38 37 40 38 37 35 37 34 33 34 29 29 34 36 33 34 34 33 34 34 35 32 29 29 30 30 30 30 31 31 31 32 30 30 30 27 25 31 29 30 33 33 35 31 38 35 38 41 67 109 153 222 232 230 214 202 193 192 199 206 
27 26 29 31 29 31 35 34 35 27 26 31 33 35 36 36 38 38 37 44 37 39 41 40 39 44 39 42 41 41 35 31 35 36 37 37 35 33 33 34 36 35 31 33 33 32 32 32 29 34 33 29 31 29 29 31 28 31 31 34 34 34 35 35 39 35 40 49 83 109 127 144 150 151 154 154 164 178 191 222 
29 26 27 35 32 32 35 31 31 27 27 30 35 32 36 36 37 36 35 39 41 38 42 42 46 46 44 44 41 42 34 33 35 37 34 40 39 35 35 33 34 32 32 33 30 31 30 32 27 34 32 33 32 28 31 32 32 31 31 33 34 36 36 35 38 36 36 54 91 111 125 128 132 142 155 164 181 200 219 237 
27 28 26 31 31 29 34 36 31 28 30 31 33 36 35 37 40 36 38 39 41 39 40 43 42 47 46 46 43 43 36 31 36 41 38 37 37 38 36 36 34 35 35 34 34 32 30 30 28 34 31 31 33 29 31 30 30 32 34 32 33 32 34 34 35 36 39 54 90 120 137 144 147 160 168 180 194 215 238 247 
27 30 31 27 27 31 34 32 35 28 32 35 34 37 39 39 38 40 39 42 42 41 42 42 46 45 44 45 43 42 38 34 35 36 41 41 39 37 37 36 35 35 31 32 33 29 31 31 33 30 35 33 31 33 37 28 30 31 31 33 32 33 35 36 37 36 39 47 83 114 139 145 156 163 174 186 197 214 243 246 
29 29 35 28 30 33 37 35 36 30 31 34 35 34 36 38 44 41 39 44 44 44 47 47 47 45 46 48 46 42 38 34 36 39 39 40 39 36 40 38 35 34 34 33 34 32 33 33 32 32 35 33 32 35 41 38 36 38 33 35 37 36 34 38 38 37 40 43 76 113 137 145 153 162 171 185 198 218 235 243 
32 34 34 33 33 36 39 40 40 33 33 40 38 40 40 39 46 43 41 46 47 44 48 51 50 47 52 49 52 44 43 35 34 41 43 43 41 40 39 38 36 36 35 34 36 34 34 34 32 34 32 34 36 39 49 47 42 40 39 37 35 39 36 36 39 41 43 44 69 108 130 148 152 163 171 180 194 213 227 240 
32 30 35 34 36 37 40 37 40 34 34 38 39 37 36 44 45 43 45 52 50 47 51 53 54 53 54 48 47 49 41 37 38 39 41 43 44 39 40 38 36 37 35 37 36 34 35 35 33 36 35 38 37 42 61 81 68 50 38 36 37 37 36 37 40 40 40 43 65 100 128 141 151 158 164 176 192 211 230 247 
36 35 38 38 38 42 44 40 41 35 36 40 40 42 43 44 48 47 51 55 52 51 54 56 56 57 55 56 50 49 46 40 38 43 45 47 43 40 41 38 38 40 37 38 38 37 36 36 35 37 40 38 40 59 174 195 120 68 44 37 35 36 36 38 38 40 38 45 60 96 127 140 146 159 167 175 191 206 224 239 
39 43 41 41 40 45 43 45 43 41 39 43 48 48 46 51 51 52 51 57 58 61 63 62 61 60 61 58 56 56 48 43 43 48 48 49 47 47 45 41 45 41 40 39 40 41 39 38 38 40 44 43 46 69 201 203 121 68 46 42 40 39 40 37 44 41 40 46 56 96 125 142 145 158 162 169 183 201 224 238 
45 43 43 42 44 46 51 49 50 42 44 43 45 51 48 52 54 55 59 63 60 63 65 69 63 64 65 61 60 58 50 44 39 46 49 49 47 43 43 42 41 39 41 41 44 40 41 41 38 44 39 39 43 46 82 89 71 48 45 42 40 36 37 39 42 40 39 43 52 89 115 134 144 153 163 158 149 176 224 238 
49 46 45 49 45 50 52 54 52 47 49 47 49 54 51 57 59 59 62 68 65 69 72 72 73 74 73 70 63 59 52 43 44 49 52 48 49 40 41 44 39 42 41 43 44 43 41 39 38 43 42 43 40 40 47 52 51 45 40 41 39 41 37 39 44 40 42 42 47 83 111 132 139 154 158 152 151 191 220 229 
59 59 57 55 53 59 60 54 54 49 53 52 53 56 54 57 62 63 66 69 73 77 82 83 81 83 76 72 65 61 55 49 48 49 51 51 47 47 61 55 42 46 47 45 45 45 43 45 45 46 45 42 44 42 43 45 43 41 42 38 43 42 37 40 43 40 43 49 53 79 108 134 144 153 159 162 175 200 218 228 
75 72 67 67 60 63 64 63 60 58 54 60 58 56 57 66 64 67 74 77 78 81 79 76 88 89 85 75 67 64 58 54 49 53 56 55 55 68 119 85 51 54 50 50 48 46 46 48 43 46 43 41 44 39 44 43 43 42 39 43 45 38 40 40 45 44 43 47 52 75 108 133 146 152 163 168 180 200 220 225 


