P2
80 60
220
108 109 116 119 124 112 109 110 105 107 105 109 113 112 115 114 110 116 132 145 178 185 149 126 174 191 157 129 132 133 130 129 125 124 122 121 125 126 123 125 125 126 120 116 119 117 118 115 113 113 118 137 165 194 210 217 207 205 208 191 166 139 115 111 101 107 105 107 109 109 105 102 97 102 98 99 97 99 94 97 
107 109 116 120 124 119 121 125 121 113 109 104 102 102 100 104 113 118 132 146 180 184 140 133 175 190 150 127 130 134 130 128 122 126 122 122 126 124 126 123 124 130 116 119 117 117 116 118 114 113 115 120 128 136 139 159 154 144 138 126 122 116 118 113 103 106 107 112 114 112 112 106 100 100 100 100 95 96 94 94 
106 111 115 122 125 118 122 128 122 119 120 115 118 107 101 107 115 123 135 155 185 183 135 134 185 187 141 129 130 130 128 128 125 124 122 122 126 122 124 123 126 126 119 118 117 114 116 114 112 113 115 116 117 118 130 137 132 126 122 116 117 115 119 114 103 102 104 110 116 115 114 110 108 105 100 98 97 96 94 93 
106 108 111 121 123 118 121 126 122 117 118 118 121 116 114 116 116 124 135 165 186 174 134 144 191 182 134 126 130 124 128 123 123 118 120 122 126 125 124 123 126 123 119 115 116 114 117 111 111 112 115 114 117 113 115 119 119 116 115 117 115 112 112 112 100 103 103 104 109 113 117 108 109 111 110 103 99 97 97 100 
119 119 120 119 122 120 129 123 115 115 120 115 119 120 113 114 115 124 138 173 189 159 129 156 195 174 131 127 128 127 121 121 122 122 123 122 124 123 124 122 125 122 118 114 114 113 114 113 115 115 114 111 113 114 114 115 114 112 113 114 114 111 112 108 101 100 103 103 108 104 110 108 112 114 108 106 104 102 99 104 
120 119 127 130 132 131 131 118 118 111 118 116 115 115 113 113 117 130 138 182 189 147 131 164 192 168 129 128 125 124 123 119 118 122 119 119 121 121 121 123 123 125 117 115 114 117 111 114 114 111 113 110 113 114 113 113 112 112 112 113 114 112 112 107 98 103 102 106 105 102 103 103 105 112 111 110 110 108 100 106 
119 113 119 121 124 132 127 117 114 116 115 117 116 116 115 114 118 131 145 186 185 141 132 169 193 158 133 128 124 124 122 120 118 121 120 117 116 118 121 123 123 122 119 111 113 116 114 114 112 113 113 111 113 113 115 114 109 110 112 117 114 110 106 106 101 101 102 108 103 104 105 103 103 103 107 112 112 109 104 102 
119 113 114 118 118 119 118 114 114 115 115 117 113 119 118 116 122 133 154 190 176 132 134 178 190 155 130 127 123 123 123 116 116 117 118 116 116 116 119 120 122 120 118 114 117 115 114 115 110 112 114 110 111 118 112 112 111 113 108 113 112 109 104 104 99 102 104 104 102 106 105 106 104 102 101 107 109 112 103 104 
119 113 111 113 115 115 117 116 112 117 118 115 116 116 117 115 128 134 160 191 171 130 143 187 186 146 127 126 124 121 120 119 119 116 118 117 115 118 119 120 120 120 114 117 114 114 113 114 108 115 114 113 111 113 111 112 109 109 112 112 111 105 102 103 100 101 102 107 104 105 107 106 101 101 104 104 106 112 103 101 
135 86 91 106 113 115 118 113 112 113 114 113 111 115 118 117 127 138 169 193 163 128 145 190 184 140 122 123 122 118 120 117 119 118 115 117 118 120 123 120 122 119 114 114 113 112 113 112 111 113 115 110 111 116 112 111 108 112 108 114 113 109 102 102 99 100 102 103 103 103 101 104 99 99 102 106 108 110 104 104 
107 26 24 54 91 109 114 111 111 113 113 113 113 112 118 118 126 134 183 200 156 126 156 193 177 129 120 123 118 118 116 115 116 118 116 116 120 122 122 122 122 122 118 113 111 110 108 112 111 109 110 114 107 112 115 110 107 110 110 114 113 109 104 102 99 100 102 106 104 107 107 105 105 102 103 107 109 111 104 107 
85 25 0 6 28 80 110 114 107 112 114 114 113 115 118 124 130 145 190 185 149 128 167 196 167 125 119 120 120 121 117 115 117 117 119 120 123 123 121 121 122 124 117 113 111 111 112 110 111 112 113 112 111 113 111 112 113 111 114 114 111 112 109 107 96 103 103 110 108 114 111 110 110 111 108 113 114 115 111 110 
100 39 11 1 6 34 88 98 102 107 110 113 116 116 117 125 131 145 196 185 141 129 173 193 161 125 116 116 117 117 118 114 116 117 116 120 120 122 118 120 119 123 122 113 112 110 114 109 112 112 111 111 107 110 110 110 111 110 114 114 116 110 112 109 100 95 102 110 111 117 115 114 113 112 113 116 117 114 108 112 
119 81 55 36 26 32 76 99 95 93 94 100 102 108 111 118 125 143 195 180 131 121 176 190 152 118 114 114 118 115 115 113 117 117 120 117 122 121 120 119 120 122 117 110 113 114 114 112 111 110 112 112 109 109 105 109 110 110 114 115 112 114 112 111 101 96 99 108 112 114 113 114 113 112 108 114 113 112 108 107 
114 104 95 95 89 86 92 107 112 104 104 97 98 95 94 97 106 144 202 178 124 125 185 188 147 116 113 114 115 115 114 116 117 116 116 116 119 118 119 117 121 125 117 115 117 115 114 113 110 112 110 114 114 112 111 109 109 108 110 108 115 111 115 112 102 97 99 108 110 110 112 108 111 110 109 111 108 110 111 110 
122 112 108 107 108 108 108 113 117 114 112 110 113 108 98 88 92 152 202 172 110 122 194 182 139 113 112 114 113 111 109 112 113 113 113 115 117 118 118 120 119 121 117 116 114 115 113 109 109 110 111 111 111 112 109 111 110 109 109 112 111 112 108 112 103 98 101 105 109 112 112 109 108 108 108 112 113 111 108 111 
122 106 109 111 112 110 114 116 111 113 119 115 116 118 112 110 115 166 204 167 107 132 212 197 128 103 103 110 110 111 113 110 113 114 112 116 119 118 118 115 121 120 116 114 115 113 113 111 108 111 111 114 114 113 110 111 115 111 107 111 111 112 108 108 102 100 101 105 113 114 111 108 111 109 109 111 113 115 111 112 
107 109 115 113 117 116 114 116 116 112 112 113 111 111 113 117 120 176 202 158 108 140 214 184 115 102 100 104 103 102 107 109 111 113 114 114 114 112 119 112 116 119 114 110 113 109 113 111 109 110 113 106 112 116 112 112 111 112 109 112 111 109 108 108 104 105 104 105 111 114 113 110 113 113 111 113 117 113 111 110 
108 106 113 116 116 115 114 116 112 111 115 113 111 111 112 111 115 186 200 154 109 152 214 181 109 104 100 104 100 100 99 100 102 103 106 110 111 113 116 115 117 120 113 110 109 113 109 112 108 111 109 109 112 115 113 110 112 109 110 110 108 108 108 107 102 99 104 99 110 117 115 113 117 114 114 111 113 114 109 107 
107 109 115 116 117 114 114 116 111 112 115 114 114 112 113 111 126 193 188 143 111 164 210 172 109 104 102 102 104 103 100 97 99 100 96 98 103 108 110 115 114 114 108 105 110 108 110 109 110 112 108 109 113 113 112 112 109 112 112 110 109 108 108 108 108 100 101 100 111 114 116 113 116 114 115 116 114 116 108 112 
113 109 117 119 115 116 118 119 112 114 113 117 111 109 111 113 135 193 182 133 110 174 200 158 109 106 106 100 103 99 98 96 97 97 98 97 100 100 98 99 101 99 96 97 99 104 106 108 107 109 110 111 108 113 111 113 110 110 105 109 108 107 110 111 109 103 99 101 111 115 117 114 118 116 118 116 116 114 110 110 
112 109 118 118 118 116 115 116 114 113 114 116 111 110 110 114 142 193 176 124 114 181 198 151 108 104 103 106 103 103 98 97 100 99 97 98 100 99 98 100 98 99 93 89 88 92 95 101 105 105 109 106 110 112 106 107 111 110 110 111 112 110 113 112 110 105 99 99 108 112 115 111 115 118 115 110 114 112 105 116 
113 111 117 117 120 120 117 112 114 112 115 115 109 110 109 113 152 195 171 117 114 190 194 140 109 105 102 103 105 102 100 100 101 99 99 99 102 100 97 98 101 101 93 90 87 87 92 101 104 107 104 107 108 106 104 106 110 108 109 110 113 109 114 113 114 106 101 101 106 111 113 112 115 113 115 114 117 112 108 109 
118 108 115 121 120 120 117 110 114 115 115 110 113 108 112 116 161 192 165 118 125 194 187 130 106 104 105 104 103 108 102 102 102 101 103 103 103 101 100 103 101 100 98 94 94 101 103 108 108 108 107 110 106 108 105 110 111 109 109 112 113 111 114 114 115 110 106 98 103 114 116 116 113 113 111 113 115 112 108 115 
126 123 129 126 128 125 122 113 113 116 118 117 113 112 111 122 176 192 164 118 129 194 185 127 105 105 106 106 105 104 105 104 102 102 103 103 101 103 100 102 105 103 102 105 107 108 106 111 111 112 108 112 112 113 111 111 112 112 113 113 114 112 113 117 115 114 106 101 103 113 116 114 114 117 114 114 115 113 109 116 
176 169 161 152 144 134 128 121 119 122 129 120 114 114 116 124 183 189 155 116 139 192 182 124 107 105 105 103 108 107 106 103 106 106 105 104 107 106 106 106 104 107 107 106 109 109 110 110 109 109 110 112 113 112 113 114 110 112 113 115 115 114 115 114 114 117 104 100 105 111 116 111 117 116 113 113 115 114 110 117 
190 198 200 201 197 187 177 166 149 144 139 125 116 115 120 133 197 188 151 117 153 194 173 118 107 108 105 107 106 110 107 105 105 106 103 105 105 104 105 106 103 104 107 112 108 110 109 111 107 108 110 112 113 113 112 112 113 110 110 113 113 113 113 116 116 117 107 102 103 113 116 112 116 114 116 115 116 113 114 113 
184 193 200 202 207 206 202 203 203 176 164 180 166 146 139 156 218 190 145 121 164 189 168 113 105 108 106 104 104 103 104 105 106 102 107 102 106 106 106 105 106 105 107 109 110 107 108 110 108 106 110 109 108 114 110 111 111 115 114 111 115 111 114 118 115 115 108 100 99 107 113 114 114 115 114 115 114 116 114 114 
137 142 153 166 184 192 199 205 201 171 172 207 207 200 194 206 210 182 128 123 177 189 159 113 107 107 106 106 108 107 108 106 103 109 102 104 107 106 105 104 108 109 103 107 109 106 105 109 108 108 109 106 110 114 110 113 110 114 110 112 117 114 113 116 118 117 112 104 101 107 115 114 117 116 117 115 115 114 108 110 
135 133 139 147 158 150 142 153 157 153 159 186 195 197 198 198 192 169 122 128 181 187 153 114 108 108 109 108 108 109 108 107 106 106 110 109 107 109 107 108 107 106 101 110 108 107 108 110 110 110 109 106 109 115 110 110 111 111 113 115 117 113 114 114 115 117 114 102 100 103 116 116 115 115 115 114 117 113 108 112 
171 164 161 153 165 144 137 133 135 135 132 131 137 144 159 168 161 131 118 131 187 187 148 112 107 108 109 110 107 109 104 104 103 108 109 109 107 105 108 106 108 105 105 112 109 106 109 109 112 110 114 108 111 113 110 112 111 112 112 113 115 113 117 116 116 116 119 103 100 101 112 113 118 114 117 117 115 114 109 109 
192 200 202 203 205 192 176 162 152 140 132 126 122 120 122 121 120 114 120 133 194 183 142 113 109 110 107 108 105 109 104 107 105 109 110 105 107 105 104 108 107 106 104 110 110 107 109 111 110 111 113 111 111 113 113 111 111 111 112 115 116 114 117 118 118 121 121 108 101 101 111 114 115 114 113 114 120 116 112 112 
178 184 196 201 209 211 212 216 200 154 171 181 163 146 131 128 120 117 121 146 206 187 137 113 108 110 110 109 107 110 106 107 106 107 106 110 110 106 108 104 107 106 104 110 110 110 111 112 110 112 113 114 113 114 112 115 111 114 115 116 117 115 118 120 118 117 119 115 100 98 106 114 117 115 114 117 119 113 115 113 
135 143 160 171 183 189 199 203 197 172 197 220 214 209 198 185 175 162 155 178 210 185 134 114 111 109 110 107 110 112 110 110 111 107 109 108 110 111 107 107 108 107 107 111 109 110 115 115 111 110 116 112 115 113 112 114 114 114 112 116 117 114 117 121 117 119 121 118 101 100 103 116 117 118 116 116 117 116 111 114 
137 136 148 146 137 134 141 148 159 151 174 192 199 199 198 196 193 190 195 200 195 175 131 114 110 113 110 112 110 109 111 109 107 111 108 109 111 111 109 106 108 107 105 113 112 110 114 118 115 114 113 116 111 117 114 116 112 115 111 117 120 118 119 119 117 121 116 120 105 101 101 107 117 117 115 117 120 115 110 106 
150 154 144 155 139 122 126 124 136 137 136 133 140 148 164 168 172 179 186 186 177 153 124 112 112 112 110 113 108 111 112 110 111 110 113 109 112 108 112 106 111 106 111 110 110 112 113 116 113 115 114 114 117 114 113 114 112 115 116 116 118 116 116 117 114 119 120 118 109 101 100 109 118 119 117 117 117 117 114 115 
168 155 146 153 130 122 121 120 140 136 130 122 119 120 123 124 121 129 137 142 131 116 118 116 112 110 110 113 111 112 114 110 107 113 112 112 109 108 112 109 108 109 111 112 113 113 113 115 116 113 115 117 116 119 115 115 112 115 114 115 116 116 115 121 118 122 122 122 110 104 98 104 116 117 118 115 122 115 111 114 
168 146 139 140 127 121 125 123 140 132 124 123 117 117 118 117 118 119 117 115 109 112 116 116 111 112 112 111 111 111 112 109 110 114 112 112 114 117 109 112 110 108 110 114 112 111 113 115 116 116 116 116 117 118 116 117 116 117 117 117 119 114 117 124 117 120 119 121 117 103 100 102 116 117 114 121 119 120 110 113 
187 149 138 136 126 123 126 124 142 134 125 125 121 117 118 117 120 116 116 116 105 113 117 120 112 114 118 113 112 114 112 113 111 114 114 112 116 114 115 113 111 110 113 116 117 115 115 116 112 117 115 116 117 118 114 115 114 116 116 118 118 114 115 118 115 120 122 121 119 106 99 102 115 119 118 118 120 117 116 116 
177 147 136 133 121 127 122 129 140 131 126 123 125 118 121 119 119 116 117 120 110 109 115 119 116 115 115 116 115 113 113 113 112 113 115 113 116 114 113 115 111 110 114 114 114 115 117 116 116 114 118 116 118 118 114 116 114 116 115 114 122 114 118 118 117 120 125 120 119 113 103 100 113 116 117 120 120 119 112 116 
160 138 137 135 128 133 128 128 125 121 125 122 125 122 118 118 117 116 115 126 109 110 117 117 114 113 111 115 115 113 114 115 116 114 116 116 117 113 116 115 115 115 118 116 115 117 117 120 118 116 121 116 119 119 117 118 118 118 119 118 118 115 117 117 116 120 125 121 122 120 105 104 105 118 120 116 120 121 116 116 
137 130 138 134 137 131 122 121 121 116 119 121 128 121 120 118 119 116 116 121 109 113 121 119 119 115 116 119 119 116 115 114 115 117 117 117 119 116 116 116 113 115 119 118 116 117 118 117 113 116 118 117 117 122 117 118 119 117 115 118 122 118 117 117 117 119 123 119 122 122 110 101 103 114 117 117 117 124 114 116 
129 127 136 133 132 126 122 118 115 121 117 121 123 126 121 118 117 118 119 119 109 114 117 118 114 117 117 117 117 119 116 117 116 115 118 116 121 120 120 117 116 111 120 117 116 117 117 116 119 119 118 118 120 119 113 115 115 117 117 116 118 121 118 120 118 118 121 122 119 120 113 102 103 111 116 117 121 121 114 115 
127 128 137 128 128 122 121 116 121 116 119 123 120 124 121 116 121 117 120 121 109 116 121 118 118 117 116 119 117 117 116 116 118 118 119 119 120 123 122 120 114 114 119 117 118 118 120 117 118 117 119 118 117 116 111 115 116 115 114 118 115 119 117 119 119 119 123 122 121 118 117 107 104 109 117 117 119 115 117 119 
127 127 133 130 128 124 117 119 121 117 121 121 122 125 124 121 120 121 122 120 110 118 122 119 122 118 117 120 119 118 118 119 119 118 119 120 123 125 117 117 116 116 116 119 118 117 119 118 117 118 118 117 115 119 113 116 114 119 114 117 119 121 120 121 121 119 125 119 121 125 123 108 103 104 112 117 122 120 117 118 
126 132 134 128 127 127 122 121 121 122 121 120 124 127 122 118 122 121 126 124 114 122 122 122 116 119 118 119 120 122 121 120 120 118 120 121 124 123 119 118 114 115 119 120 117 118 118 121 121 119 118 119 118 119 116 115 116 116 116 119 118 118 121 118 121 121 125 124 123 125 122 117 104 101 105 116 120 121 115 119 
129 134 133 126 128 126 121 123 125 121 125 122 123 127 126 125 121 120 129 118 116 116 125 123 118 116 123 125 122 122 123 120 121 120 122 123 122 121 122 117 118 118 121 119 119 119 120 119 119 117 120 118 120 118 117 114 115 118 116 120 121 119 120 122 124 119 127 124 121 121 124 119 115 103 104 114 121 122 117 113 
126 130 134 125 127 122 123 121 121 123 128 123 123 123 126 127 120 119 124 115 114 119 121 126 123 120 120 122 124 124 125 123 123 121 121 125 127 120 122 123 119 115 121 121 121 122 121 120 121 116 120 120 119 120 123 118 120 117 117 120 119 118 121 123 123 122 123 124 119 123 123 118 116 110 103 108 117 118 112 115 
129 134 134 133 128 126 122 123 121 122 124 122 124 124 128 127 126 127 129 118 112 121 123 121 123 120 120 122 124 125 123 123 121 123 125 125 125 122 125 121 120 118 123 120 122 121 119 119 119 119 120 118 117 121 120 116 117 118 115 117 122 118 120 121 123 121 125 120 122 124 122 123 123 120 105 104 106 109 110 108 
128 130 135 130 128 128 121 121 118 126 124 127 123 123 126 128 123 123 124 122 112 118 120 119 122 120 120 122 122 124 125 121 127 125 126 124 125 128 124 124 119 118 121 120 121 118 118 120 118 119 120 119 119 121 115 115 118 115 115 119 123 120 122 120 120 122 124 124 123 122 122 122 122 116 118 109 108 108 105 116 
130 133 131 128 130 125 125 120 125 123 125 125 124 125 123 123 126 123 121 122 114 118 123 123 121 123 121 126 125 127 124 127 127 128 127 127 126 123 126 123 120 118 122 121 118 120 120 120 120 120 118 119 118 122 117 117 113 117 118 118 124 118 122 121 125 125 125 122 119 123 120 123 120 119 121 120 116 112 111 109 
133 132 135 128 128 129 122 125 123 126 129 128 126 123 126 125 124 121 122 120 114 118 125 122 123 124 124 123 124 125 130 129 127 126 129 127 126 126 124 124 119 121 122 123 122 117 121 122 121 120 117 121 118 123 117 118 115 119 116 121 123 119 119 121 123 124 126 123 123 121 120 119 119 117 120 121 119 119 115 110 
140 136 135 129 133 126 126 123 123 124 127 127 125 126 125 129 128 124 121 119 119 119 127 123 120 127 125 130 126 130 128 132 130 131 131 128 126 126 121 119 120 120 119 125 121 121 122 121 124 122 124 122 118 121 121 116 118 119 119 119 121 120 123 124 120 124 126 124 125 123 122 120 118 119 121 122 121 123 114 118 
139 139 136 131 131 125 129 127 127 126 130 128 126 130 127 130 129 129 127 123 119 123 127 126 125 127 126 127 129 132 129 133 132 133 130 130 129 128 123 124 124 119 122 123 122 124 123 123 122 123 123 123 119 126 121 121 119 120 122 119 120 118 123 125 121 124 125 125 122 124 124 123 121 126 124 126 126 123 119 119 
142 141 136 131 136 128 130 132 127 128 130 128 130 128 128 127 127 129 128 125 118 121 127 128 128 129 129 130 128 131 133 134 134 134 133 135 140 137 133 130 132 131 122 124 125 121 123 128 126 123 123 122 121 124 123 119 118 120 119 119 124 122 123 126 125 124 127 125 126 125 124 119 123 122 123 126 121 124 123 123 
146 136 135 136 135 132 129 131 134 131 132 133 134 132 133 129 128 127 131 124 122 128 131 130 129 132 131 133 135 134 133 134 132 136 134 139 142 141 135 135 135 132 127 126 128 127 127 129 124 123 123 123 122 124 124 122 121 121 120 124 126 121 126 126 123 124 128 126 125 124 125 119 124 124 125 124 129 124 126 123 
146 142 138 138 135 136 135 131 133 137 134 132 132 134 131 133 131 133 130 127 123 126 131 133 129 134 133 134 133 136 134 134 137 134 140 142 144 141 142 137 134 130 128 127 127 131 128 131 123 126 126 126 125 124 123 125 119 124 122 123 125 123 125 126 123 126 128 129 123 126 124 125 124 124 124 126 126 127 123 126 
147 145 143 140 141 137 137 133 134 134 134 137 133 133 136 133 136 133 137 127 124 128 137 135 132 131 132 136 139 137 134 136 139 140 138 145 145 144 142 138 135 134 128 129 130 132 132 133 128 129 128 126 123 128 126 125 121 125 122 121 129 125 123 126 125 124 131 128 128 125 126 126 121 127 127 132 127 130 127 132 
150 149 140 139 143 140 136 135 137 137 136 136 138 141 136 141 136 135 137 133 130 130 137 141 137 133 135 138 137 138 141 138 142 146 144 146 150 148 145 143 141 131 129 131 133 133 130 130 129 126 129 128 128 128 130 127 124 124 119 124 129 126 125 130 126 127 131 130 128 127 127 124 125 126 123 123 130 128 125 130 
152 145 142 140 143 142 141 138 137 138 135 135 137 138 141 139 136 134 137 134 130 132 142 140 135 135 135 140 139 143 142 141 142 142 145 155 153 148 142 142 138 131 123 131 134 131 128 128 128 126 129 129 128 128 126 125 126 125 123 122 127 125 123 125 128 128 124 125 125 127 127 125 125 127 123 123 127 126 127 136 


