P2
80 60
74
16 17 20 21 24 22 22 23 23 27 24 25 20 23 23 25 24 23 23 25 22 25 26 24 21 27 22 25 24 25 26 25 23 30 23 26 26 29 28 27 26 28 27 27 26 28 26 24 26 24 24 25 25 29 26 26 27 27 29 29 29 30 30 32 31 27 32 34 33 35 33 33 33 34 31 35 35 33 38 32 
11 18 20 22 24 23 23 25 25 25 23 22 19 23 21 20 25 23 22 22 21 26 22 26 22 27 24 24 26 25 24 24 25 28 25 26 23 27 27 24 26 23 28 26 26 27 26 25 23 25 26 26 25 26 26 26 24 30 30 28 29 29 32 32 32 30 30 33 36 33 32 33 30 31 34 32 35 34 33 34 
9 15 16 21 22 18 19 26 23 23 20 23 20 23 23 24 23 21 25 21 22 23 23 21 23 24 23 23 23 23 26 24 26 24 23 25 23 24 26 23 25 22 25 25 23 25 22 21 24 25 24 23 22 27 26 27 27 27 30 27 29 29 27 30 30 28 28 32 33 32 32 35 31 29 31 31 33 36 34 30 
11 16 18 18 22 17 19 23 24 21 23 22 18 20 23 22 16 22 21 23 20 22 25 23 24 22 27 25 22 24 25 24 23 24 22 23 24 23 25 25 25 23 22 21 23 26 22 22 22 23 22 22 25 21 23 23 27 25 29 27 26 27 27 29 27 26 29 30 32 31 32 31 25 30 29 32 33 32 34 27 
10 17 17 19 19 18 16 21 23 22 22 20 22 19 21 19 20 20 22 18 21 23 21 21 27 24 23 23 21 25 21 23 24 23 26 23 23 25 24 25 22 24 23 24 22 26 23 20 23 24 22 24 23 22 24 24 21 26 30 27 26 27 26 28 26 28 30 29 31 31 31 32 26 29 29 29 33 30 30 30 
9 15 18 18 20 19 21 19 19 21 21 18 20 21 21 24 18 20 21 20 20 19 21 19 19 24 21 20 19 21 22 22 20 23 26 20 21 24 24 23 21 22 27 21 24 22 20 23 21 22 23 23 23 23 22 24 23 24 28 26 26 26 25 27 26 25 31 27 30 29 30 25 29 29 29 31 32 32 35 33 
11 19 19 19 20 22 20 22 20 21 22 20 19 19 17 21 21 18 20 23 23 19 23 21 20 21 24 22 21 22 21 20 22 21 21 24 22 26 24 26 19 21 23 22 23 21 24 20 24 20 20 21 18 24 23 22 26 25 26 28 26 26 26 25 23 27 25 26 25 28 27 27 29 25 26 30 32 29 31 31 
17 20 19 21 19 20 17 21 21 18 20 18 20 23 23 21 23 23 18 21 20 22 21 21 21 22 22 21 21 19 23 22 22 18 24 22 22 24 25 23 21 21 21 19 21 23 23 21 23 19 22 22 19 22 21 23 23 24 24 24 27 27 27 26 26 23 26 24 26 26 27 30 27 26 28 29 30 30 30 25 
17 22 22 22 24 21 21 18 21 20 25 21 20 22 20 22 23 20 20 24 21 21 19 18 21 23 23 18 19 20 21 22 21 24 23 22 22 24 22 21 22 23 22 21 20 22 23 20 20 20 21 21 18 21 22 22 22 26 22 26 25 28 27 24 23 24 26 27 27 27 29 26 28 26 28 29 27 27 31 32 
14 22 22 21 23 22 18 20 18 19 22 19 17 24 22 23 19 18 19 19 21 20 20 20 23 21 22 21 21 21 23 22 20 25 21 24 21 21 25 25 21 25 22 24 25 21 22 22 21 21 21 23 23 22 22 21 22 24 23 26 25 26 27 21 24 25 26 28 27 28 25 25 31 27 25 29 28 30 29 32 
18 21 20 20 21 25 22 24 21 16 23 21 19 21 21 22 18 21 20 22 22 24 22 22 23 25 26 21 21 22 21 19 19 26 27 21 25 26 22 23 22 22 21 23 22 23 24 19 20 23 22 22 21 24 23 22 22 22 24 26 23 25 28 26 24 26 27 26 27 27 32 26 29 27 26 30 30 31 29 32 
20 21 25 23 19 22 21 21 22 20 20 19 21 23 22 23 22 21 19 25 21 22 23 22 24 23 24 23 23 21 21 22 22 26 22 21 19 25 24 23 22 21 23 22 23 25 21 24 22 21 21 25 20 21 25 25 24 26 23 24 25 26 27 26 25 24 27 25 31 31 26 27 25 29 28 32 30 33 31 31 
15 21 20 21 19 18 23 21 19 20 19 17 16 20 18 21 19 18 18 21 20 23 20 18 21 23 21 21 22 20 22 23 22 24 22 19 22 20 19 22 21 21 20 20 20 23 21 21 22 23 19 20 23 22 21 21 26 23 26 25 23 23 26 26 25 24 26 25 28 28 27 27 28 29 28 29 29 33 30 29 
17 21 17 18 20 20 21 18 18 17 19 18 16 16 19 18 22 18 20 23 20 22 22 20 23 21 21 21 21 20 20 20 21 22 25 22 20 22 19 21 19 20 17 18 18 19 19 19 19 19 21 21 24 21 22 23 24 23 24 24 22 26 26 25 23 25 22 25 26 26 26 26 24 26 29 30 26 28 34 29 
16 21 20 14 17 20 18 21 19 19 16 13 11 20 14 18 16 18 17 22 22 20 20 22 18 24 19 19 20 20 22 19 20 24 20 19 20 19 18 22 21 20 18 18 19 21 20 19 18 18 21 22 19 20 20 21 22 21 23 25 22 24 22 23 23 24 21 24 25 26 25 23 25 27 27 32 27 28 28 32 
17 20 20 20 18 15 18 20 19 16 18 18 17 15 15 22 17 18 18 16 19 19 19 20 17 21 19 21 17 19 18 17 20 22 20 18 19 18 16 19 19 17 17 17 19 17 20 19 16 19 19 19 18 19 20 19 20 24 21 22 21 25 23 21 22 23 22 24 25 25 24 23 25 25 25 27 30 29 31 30 
17 20 22 21 18 19 22 16 21 20 19 20 17 20 18 21 20 20 21 20 21 23 20 19 21 21 18 21 16 21 21 20 19 22 21 19 21 16 21 21 19 18 18 17 19 19 19 16 16 17 16 18 19 19 19 19 19 20 19 22 22 21 23 22 24 23 20 24 26 25 26 22 23 27 26 26 27 29 27 27 
20 21 17 21 19 21 20 24 21 19 20 18 17 20 18 21 19 18 20 22 18 19 23 22 17 23 20 20 18 15 16 18 19 20 19 18 19 20 20 20 18 18 18 18 20 21 19 18 16 19 15 16 19 18 17 18 19 18 21 24 24 22 20 22 20 24 21 23 20 22 25 21 23 26 25 28 30 29 26 24 
20 22 19 19 20 22 23 22 24 23 20 21 19 23 20 20 19 20 21 20 24 26 25 20 22 22 21 21 19 19 19 17 18 18 19 18 18 18 18 20 17 17 18 21 19 20 17 17 16 17 15 17 18 20 21 19 16 19 21 24 23 20 23 23 23 23 22 23 24 23 23 24 25 22 27 27 24 24 29 29 
16 23 21 21 26 21 24 26 23 21 20 21 19 23 23 21 23 21 22 22 19 25 25 24 21 22 17 21 19 20 16 19 18 20 19 18 17 20 20 22 17 17 17 17 15 19 20 17 17 16 17 18 19 20 18 19 19 16 20 24 24 23 21 22 20 22 23 25 24 23 26 25 25 23 26 25 26 28 26 27 
18 20 22 20 27 23 23 22 25 24 23 27 26 25 21 22 22 19 21 22 20 23 24 23 21 23 19 21 21 20 21 20 21 21 23 21 19 20 20 21 23 21 16 18 19 19 19 15 17 17 15 15 17 18 16 18 17 19 19 22 23 23 23 21 26 27 22 21 22 24 25 23 25 24 24 26 29 25 28 23 
15 19 22 21 22 22 23 24 25 25 22 26 25 30 22 23 18 21 19 23 21 25 24 23 20 22 22 20 22 20 21 19 20 23 20 19 21 21 19 21 18 20 19 18 16 20 16 19 17 17 16 16 16 18 16 18 17 16 21 21 21 23 24 24 23 20 22 19 22 24 26 22 25 23 26 25 27 25 28 24 
13 17 17 21 24 24 23 22 26 23 26 24 27 27 22 22 21 20 19 22 20 23 21 20 21 21 22 19 19 20 22 19 19 21 22 19 24 21 19 17 20 21 18 19 16 22 19 17 17 17 19 18 16 18 18 17 16 19 19 21 20 22 22 22 22 21 22 21 23 23 28 25 29 23 23 23 27 27 27 23 
12 17 19 22 23 22 25 22 25 27 28 22 22 23 22 23 20 20 19 21 19 22 17 18 20 20 19 20 20 18 22 18 20 21 22 19 21 19 21 18 19 22 17 19 17 16 17 18 19 17 19 16 18 16 19 21 18 20 21 20 22 24 26 23 22 25 20 23 25 23 29 25 26 23 23 25 27 27 26 27 
12 20 23 18 23 23 27 29 29 27 30 26 20 24 21 26 24 18 17 20 18 20 19 19 21 18 17 19 20 18 20 19 18 20 23 22 20 21 23 19 20 21 16 19 17 21 17 15 19 18 17 15 18 16 17 18 17 19 21 21 20 21 21 21 26 23 23 24 26 24 26 24 26 23 22 24 24 26 28 25 
15 18 18 19 25 27 31 32 33 31 29 23 25 18 21 21 19 18 17 20 21 18 18 20 21 20 20 20 16 21 19 20 18 23 21 23 19 21 21 20 19 20 19 21 19 18 16 20 16 17 17 17 17 19 18 17 21 16 21 21 22 21 23 21 26 25 20 25 26 24 27 24 26 21 23 24 29 27 24 22 
14 24 18 25 28 32 32 33 35 32 30 22 23 22 19 21 20 18 18 18 17 20 17 18 19 22 18 18 17 20 17 18 19 20 22 22 20 22 22 21 21 17 19 20 19 18 16 16 17 18 18 15 16 21 18 17 18 21 18 18 19 23 23 19 23 24 22 21 22 25 28 21 21 24 24 26 27 25 23 19 
18 23 24 31 33 35 35 33 32 30 28 19 21 21 18 20 15 16 18 19 18 20 18 19 16 22 19 20 18 19 20 21 22 21 22 21 22 20 20 20 20 19 18 19 21 20 17 17 16 18 20 16 20 17 20 18 16 18 20 21 22 20 21 23 22 22 21 23 21 25 23 23 23 23 26 25 26 22 21 21 
23 32 30 33 37 36 36 37 29 29 28 27 20 21 17 20 23 15 20 19 17 21 19 21 19 24 18 19 18 21 23 25 23 23 22 21 24 21 22 21 23 22 21 18 21 20 21 18 20 19 17 17 19 19 21 18 19 17 20 23 21 21 22 23 21 23 19 23 20 25 27 22 27 24 24 27 27 24 25 20 
27 34 39 38 39 35 38 41 33 28 27 26 19 21 21 21 20 20 21 21 20 19 22 23 24 26 20 21 21 20 23 20 22 23 23 22 22 23 23 21 23 19 22 18 22 21 17 21 18 21 18 18 19 17 17 18 19 18 18 20 23 22 21 22 20 21 21 24 22 23 28 24 24 23 20 24 24 25 25 23 
36 38 38 39 38 34 36 39 34 29 25 25 21 24 23 21 18 19 21 22 21 20 19 21 22 24 20 21 21 20 24 26 24 23 19 22 25 22 23 25 23 20 23 20 20 21 17 18 20 20 19 21 18 19 18 20 16 20 17 24 20 25 24 21 22 20 21 22 24 23 25 24 22 24 24 26 24 22 24 24 
36 43 39 39 41 37 36 37 30 28 24 24 23 25 20 23 21 19 18 21 23 25 24 24 23 22 20 22 22 19 23 26 27 22 25 22 26 24 24 22 22 21 22 21 22 21 21 21 19 21 23 23 21 19 20 22 19 19 21 21 24 21 24 22 24 18 22 20 23 23 24 23 23 23 25 24 23 26 24 18 
35 43 43 41 47 35 35 33 31 29 27 21 23 25 24 25 21 24 25 23 26 25 24 25 23 24 24 24 20 22 23 30 27 23 23 25 25 24 26 23 22 23 25 21 19 23 17 22 19 25 22 21 20 18 20 20 21 20 20 23 23 26 23 24 23 23 23 22 23 23 26 24 25 25 27 24 24 25 21 21 
37 39 40 40 39 42 34 28 28 30 25 24 25 28 23 25 22 24 21 24 23 25 27 25 25 23 23 24 22 24 26 26 26 24 28 27 27 27 25 24 25 24 24 24 22 21 22 19 22 26 22 23 23 24 22 22 21 21 20 22 22 24 23 24 23 21 23 24 25 24 26 26 24 24 24 26 25 26 21 19 
40 42 34 35 38 39 36 31 26 26 27 25 25 28 21 23 23 23 26 27 26 21 26 25 28 22 23 26 25 27 28 26 28 28 28 28 30 27 28 24 26 24 23 21 23 23 25 21 25 23 27 26 24 23 23 22 23 21 21 24 26 27 25 25 25 26 21 25 23 27 29 26 25 27 23 27 28 27 22 22 
37 35 38 37 33 33 32 30 27 28 24 26 24 27 20 21 20 21 23 25 23 23 24 24 24 24 24 25 27 26 29 27 29 30 28 29 29 30 27 26 26 25 23 24 25 24 25 24 25 23 25 25 23 23 24 24 26 26 24 25 27 26 29 24 28 27 20 25 24 28 26 26 25 25 23 28 24 27 26 24 
48 43 36 35 32 30 30 30 28 23 25 23 23 24 22 24 25 25 23 25 20 20 21 19 24 25 25 28 28 28 30 27 29 30 26 26 31 31 28 28 25 26 23 23 25 26 25 22 23 22 25 23 24 22 23 25 28 24 26 25 23 25 26 28 29 26 24 25 25 27 28 28 22 26 27 25 25 27 24 24 
45 54 34 33 33 29 24 27 25 26 24 24 22 23 19 25 24 24 23 24 24 20 20 20 23 25 26 31 28 29 27 25 25 28 26 29 30 30 30 28 28 27 26 25 24 22 24 26 26 23 24 22 21 26 25 25 28 29 26 26 22 27 27 27 25 23 23 27 27 26 27 26 27 28 25 21 24 24 25 25 
48 52 44 33 31 27 29 29 25 27 24 24 23 24 20 25 25 25 24 24 19 24 18 22 20 28 26 29 29 28 28 25 26 29 28 27 28 30 25 28 27 31 27 26 26 27 27 22 21 22 25 22 24 25 25 23 24 24 27 25 20 26 25 27 27 24 27 25 26 27 25 23 26 27 28 26 24 26 23 27 
59 48 43 38 29 30 26 29 27 26 22 24 24 25 24 26 28 24 23 20 21 19 22 20 24 29 29 27 30 29 30 27 27 26 28 26 28 26 28 33 31 29 27 26 27 27 25 25 24 25 26 25 26 26 23 26 27 24 26 24 23 22 28 25 26 30 29 28 25 26 26 25 25 26 29 26 26 23 27 26 
64 51 36 34 31 25 26 32 24 23 23 27 22 24 22 26 26 22 24 21 20 20 23 22 29 30 29 29 27 29 30 27 29 28 31 26 29 30 28 30 29 29 27 27 27 29 26 23 21 24 24 24 24 25 24 26 26 24 27 24 23 25 23 28 25 25 27 26 25 26 27 24 26 29 31 29 28 27 29 24 
61 49 32 32 33 27 25 28 31 25 24 21 26 26 27 28 25 20 22 23 22 23 26 27 33 34 31 31 33 28 30 28 30 30 28 27 31 27 25 28 29 30 28 29 28 28 26 25 24 25 24 25 24 26 25 23 28 26 28 25 24 25 23 28 23 29 29 28 28 26 27 26 25 26 27 31 31 26 27 27 
62 42 29 26 26 28 28 30 28 26 26 23 27 26 27 27 23 20 21 21 20 25 28 33 31 35 31 32 31 31 32 31 31 30 29 28 29 30 26 28 29 31 26 31 29 29 28 23 27 25 23 27 26 23 25 26 25 27 25 27 27 24 24 24 26 29 24 30 27 29 28 29 29 28 28 28 28 29 32 24 
56 35 24 22 28 27 27 30 29 26 28 26 27 27 26 26 22 19 25 25 24 27 33 31 34 32 34 32 32 33 32 31 36 32 31 31 29 28 27 27 29 30 31 30 29 29 28 27 26 26 25 27 25 26 26 23 26 26 27 26 26 27 26 24 26 28 24 29 32 30 28 27 25 27 23 28 26 27 24 23 
44 33 24 28 31 29 27 29 27 32 33 31 28 28 27 26 27 22 26 26 29 31 33 33 34 35 33 34 30 32 34 32 33 34 32 32 31 26 27 26 30 28 27 31 31 33 27 26 29 27 27 29 26 28 27 27 26 28 25 25 29 29 28 24 27 27 26 32 32 30 28 26 28 26 29 25 26 26 24 25 
31 28 27 29 28 26 31 31 32 31 31 32 31 30 29 27 26 24 25 27 28 35 35 34 35 35 35 35 37 36 32 32 35 35 35 34 34 31 32 29 29 30 31 31 29 31 27 30 28 31 29 31 28 29 26 26 28 25 28 27 25 27 23 28 30 26 30 34 32 30 30 30 28 30 28 25 29 26 26 23 
27 32 30 29 29 30 28 31 31 30 35 36 30 32 29 30 27 24 27 30 35 35 35 37 36 36 37 35 36 35 35 35 35 37 35 34 36 36 34 35 32 32 30 30 34 32 32 33 30 33 34 32 33 32 33 30 29 28 25 26 26 26 28 26 30 28 32 33 31 32 28 29 31 30 31 32 31 28 31 28 
20 27 21 24 26 25 25 31 30 30 33 35 32 30 28 29 26 23 27 36 35 36 39 36 35 39 34 36 34 35 37 37 36 37 38 36 36 36 31 34 33 33 33 33 34 36 33 32 30 35 34 34 36 33 30 31 28 25 28 25 28 27 29 28 29 27 27 31 28 33 30 30 28 29 29 29 32 28 30 26 
14 18 12 15 21 24 25 27 30 31 32 29 26 27 25 31 26 29 31 36 37 36 37 39 39 38 36 37 38 34 38 38 36 36 37 37 39 37 36 39 33 36 33 34 34 35 35 35 33 36 35 35 33 35 36 37 30 29 32 26 29 28 30 33 28 27 25 29 31 33 33 29 31 29 28 35 30 31 32 30 
15 11 1 9 15 21 20 28 27 33 31 29 24 27 26 28 26 30 31 37 38 37 36 40 38 44 37 38 37 35 39 39 40 36 38 38 38 36 37 36 37 36 37 35 34 35 34 33 32 37 33 37 35 36 35 33 32 32 32 32 30 29 33 32 30 26 25 32 31 32 32 31 28 29 31 33 29 32 30 26 
17 8 0 6 11 15 14 23 29 33 31 26 24 27 27 29 29 32 35 37 35 39 38 42 39 41 37 41 41 39 36 38 37 40 39 37 40 41 39 37 37 38 35 34 34 35 36 36 37 37 39 35 38 36 37 36 33 33 36 35 33 32 37 33 32 31 28 32 30 34 36 34 30 34 32 32 33 31 24 26 
17 15 13 13 8 9 20 25 28 30 28 28 24 27 25 29 29 30 32 37 39 40 38 43 40 45 39 38 38 35 37 34 33 40 37 39 41 38 39 37 40 38 39 36 38 39 39 35 39 41 43 38 34 33 32 33 34 34 34 38 34 33 34 32 34 33 32 32 30 34 33 35 29 32 35 32 35 35 29 30 
19 18 18 12 11 12 14 26 23 26 23 22 21 28 29 37 41 39 32 35 40 40 41 43 40 44 39 41 37 36 40 38 36 35 40 39 35 36 35 39 37 36 38 36 37 40 39 39 40 39 43 41 36 33 24 33 35 34 34 36 37 36 34 31 32 33 33 34 29 33 31 33 36 32 34 36 32 32 30 30 
19 22 18 15 17 18 18 20 16 19 20 22 22 25 31 48 50 48 46 47 42 46 45 42 43 47 41 40 40 40 41 41 37 39 40 38 39 37 37 39 37 41 40 39 38 38 39 36 37 44 42 43 39 35 28 26 31 32 34 32 35 36 36 33 35 32 34 32 30 30 34 35 36 31 38 36 34 35 33 28 
21 18 19 22 21 22 23 18 18 12 13 19 19 24 43 52 53 53 52 55 48 49 43 45 44 48 42 44 41 39 42 39 40 40 38 40 39 37 35 39 39 38 38 40 41 37 38 40 36 41 42 41 40 37 34 30 28 31 30 30 35 31 36 34 33 31 32 31 32 32 33 35 32 34 35 36 32 32 34 31 
20 27 23 21 22 26 27 22 18 15 14 11 12 36 53 56 56 56 54 55 54 53 54 52 47 49 46 47 45 43 45 39 43 41 40 37 39 40 37 40 41 43 41 40 40 43 42 39 37 35 48 40 40 36 33 36 35 32 34 32 36 36 35 34 35 32 30 34 31 30 34 33 35 35 38 39 35 36 32 32 
23 27 21 25 31 29 29 26 18 17 18 15 20 54 64 63 60 59 61 56 56 56 60 57 54 52 48 49 48 49 47 47 44 45 44 44 42 43 39 39 38 41 44 42 41 44 43 42 41 41 41 41 39 37 35 39 36 33 34 34 37 36 36 33 33 36 33 38 34 37 36 37 34 34 35 39 34 37 35 33 
27 27 25 28 28 27 25 24 21 23 25 20 47 63 65 64 64 59 62 57 62 60 61 61 58 59 57 52 50 51 47 48 49 47 45 42 43 44 41 43 39 45 42 47 47 49 48 48 46 42 38 35 38 39 38 39 36 38 35 37 36 39 37 37 36 39 38 38 37 38 37 35 39 38 40 37 40 34 36 35 
26 32 27 35 29 22 19 17 21 23 28 45 65 71 67 66 68 61 65 65 65 64 62 65 60 62 59 59 57 51 51 55 49 50 47 41 46 42 44 46 42 46 45 43 45 48 51 48 45 44 42 36 36 38 39 41 38 37 38 35 41 40 35 37 37 36 37 39 38 37 35 33 35 34 40 36 39 37 35 34 
27 39 33 33 29 17 4 10 17 25 38 66 73 74 67 71 69 64 67 68 68 65 63 62 60 65 60 58 59 57 58 50 51 47 50 51 46 46 45 48 45 47 47 46 46 50 46 48 45 43 40 36 37 38 40 40 40 38 40 34 37 39 40 38 41 39 37 36 38 36 40 36 36 34 38 33 39 34 39 34 


