P2
80 60
256
17 19 23 27 32 45 81 95 70 41 54 91 82 44 37 31 27 26 26 27 23 26 22 21 19 23 19 25 26 30 31 29 26 26 25 25 24 23 23 22 23 20 25 21 25 26 26 22 24 17 15 16 12 13 12 14 12 16 17 15 14 16 16 16 19 21 22 22 24 23 18 22 23 19 19 20 15 16 12 13 
16 22 19 25 33 45 89 95 62 36 58 92 77 40 33 30 27 27 25 23 22 23 21 22 20 20 20 25 25 24 31 27 28 27 26 24 25 22 21 24 21 24 24 22 23 22 23 25 23 17 13 13 12 10 13 15 13 13 16 15 16 14 16 20 21 23 20 24 23 23 23 19 23 14 18 17 13 16 11 12 
14 22 20 25 36 48 91 93 60 40 65 92 70 39 36 30 25 25 24 27 21 22 18 22 18 21 25 27 25 27 28 30 26 23 26 24 24 24 24 23 22 22 22 23 24 27 25 25 22 19 17 15 16 17 12 16 17 16 20 19 21 21 26 25 25 20 22 21 21 21 19 19 19 20 19 21 14 17 9 13 
18 20 20 29 36 49 94 95 50 41 71 91 65 36 30 27 24 23 21 25 23 21 21 21 20 26 23 27 27 28 28 29 25 22 23 18 23 20 21 22 21 21 21 24 25 24 24 25 25 20 19 20 20 21 20 23 23 23 27 24 23 23 25 28 26 23 21 21 20 18 19 18 21 22 22 20 20 13 8 10 
15 19 18 30 33 57 104 90 48 41 72 87 57 34 28 27 23 20 24 22 21 18 20 23 22 23 25 26 28 26 29 26 24 22 24 22 24 21 20 20 20 22 22 23 24 25 23 26 25 26 24 23 20 25 24 25 23 25 26 25 24 25 26 24 23 25 26 22 24 20 18 18 20 20 17 17 16 13 7 5 
11 18 21 32 36 67 100 81 45 40 77 86 56 32 25 23 22 20 23 22 21 23 26 25 20 22 25 27 24 26 28 29 25 26 24 23 23 21 22 24 18 19 22 23 23 26 24 23 25 27 24 25 28 24 24 24 25 24 28 23 24 26 20 27 23 23 23 20 23 20 20 23 21 22 19 18 19 17 13 9 
9 19 21 33 34 65 100 79 44 42 82 81 47 27 26 23 21 21 23 21 20 24 23 21 20 25 22 24 25 24 32 29 24 27 24 21 24 24 23 21 21 23 21 20 23 24 25 27 24 24 26 24 25 24 24 26 24 22 23 21 24 21 23 24 21 23 23 22 22 25 18 26 21 23 23 19 17 16 9 14 
10 14 18 28 36 63 99 73 39 44 83 81 40 24 22 22 20 20 21 22 20 21 22 18 19 18 19 19 22 25 27 24 23 20 25 23 21 21 23 22 20 21 22 21 22 21 22 21 20 21 25 22 22 24 21 19 22 20 22 19 22 20 24 28 24 21 20 20 23 21 20 20 21 23 19 19 14 19 14 11 
1 7 12 26 25 60 99 70 32 43 85 76 38 22 21 18 17 20 19 18 22 18 19 20 17 17 19 19 21 23 28 24 22 22 24 22 22 21 23 22 20 19 21 21 22 22 23 24 21 22 19 19 19 22 18 21 23 20 20 22 24 23 25 22 25 25 24 23 23 21 20 22 21 22 21 20 19 18 12 13 
3 5 1 1 8 70 94 65 23 47 94 76 35 24 19 17 17 16 15 19 23 16 19 18 18 17 22 25 23 25 25 26 22 21 23 21 23 21 20 23 22 20 22 22 24 24 25 26 22 21 20 21 19 20 20 22 23 23 25 23 26 24 27 24 26 25 23 23 21 22 20 20 23 24 18 23 19 19 13 11 
11 12 5 1 13 75 95 60 22 46 102 80 21 14 11 12 13 15 15 18 16 17 16 14 15 20 19 23 18 19 25 23 21 22 20 20 20 23 22 24 22 19 22 22 21 26 25 21 21 22 21 19 20 19 19 22 27 28 26 28 26 25 26 24 26 22 24 18 24 24 22 20 24 24 21 18 20 21 13 13 
15 16 15 17 19 83 97 55 18 54 95 70 16 6 7 7 5 5 11 10 11 12 13 16 14 16 18 17 19 19 25 22 22 21 20 23 21 23 21 22 18 21 20 21 23 22 22 23 23 19 19 21 24 22 22 24 25 26 25 31 25 27 24 24 23 24 24 22 21 21 21 23 23 25 23 21 19 20 11 15 
11 15 11 17 13 81 92 55 21 58 98 66 15 7 7 6 8 3 6 7 0 4 5 3 5 11 12 14 16 19 18 19 18 18 18 19 20 19 20 23 15 20 19 21 20 22 19 18 21 20 21 22 24 24 26 25 27 23 27 24 25 24 24 22 21 24 23 21 18 22 23 24 22 23 21 16 19 17 13 12 
10 11 13 17 18 84 85 46 24 65 97 63 16 8 8 10 4 6 4 4 4 2 3 2 1 3 0 7 7 6 7 9 12 17 18 18 19 20 19 23 21 22 18 22 23 20 23 26 23 25 23 24 24 25 24 25 24 22 23 27 28 27 24 23 24 28 24 21 22 24 21 22 22 21 21 22 23 17 14 14 
10 12 16 13 31 87 82 46 21 74 93 53 17 12 10 10 10 6 7 4 2 4 3 0 1 3 2 4 6 5 6 6 0 2 0 8 12 22 21 22 20 18 21 21 23 25 23 26 23 26 26 26 24 26 24 24 26 24 26 28 27 28 23 25 27 25 26 23 22 21 20 25 25 20 24 24 20 20 18 11 
8 14 14 16 35 89 83 38 21 77 92 50 15 11 10 10 8 7 7 3 6 8 4 5 2 3 4 3 4 8 7 7 4 4 3 14 15 19 16 20 17 21 18 20 23 22 25 23 24 25 24 24 25 25 26 23 26 24 31 27 27 27 26 25 29 25 25 24 20 21 22 24 26 24 26 22 22 21 16 12 
9 13 13 19 39 91 75 32 25 83 84 45 13 10 11 13 6 9 8 8 7 5 6 5 2 3 6 1 7 6 7 5 6 15 18 18 20 23 21 18 15 17 19 20 22 21 24 24 24 26 27 23 26 25 24 23 26 24 24 27 27 24 28 26 23 25 24 25 22 18 24 22 27 24 23 22 21 19 13 15 
12 13 13 16 44 95 78 33 29 87 87 46 15 14 14 11 11 9 11 10 9 6 9 8 6 4 8 5 9 7 10 15 19 24 24 20 21 23 22 22 21 24 24 22 24 22 28 27 25 24 26 26 30 27 25 26 28 27 28 26 30 24 27 27 24 26 26 26 23 22 24 27 28 24 26 25 24 20 13 14 
10 13 16 18 45 89 73 28 28 90 81 41 16 11 11 11 7 8 12 9 8 6 9 5 5 7 6 9 7 7 16 21 19 24 24 18 19 21 20 21 20 20 23 22 21 25 21 22 22 24 25 24 24 26 25 25 25 26 27 25 29 26 27 29 24 27 24 26 20 22 19 23 25 24 24 26 22 21 15 15 
14 17 18 17 56 89 72 27 28 89 78 40 15 14 12 10 13 9 10 10 10 7 8 8 8 7 9 6 8 12 16 24 19 21 19 16 21 18 18 21 18 20 18 21 21 21 22 24 25 24 26 25 25 25 24 24 26 24 29 29 26 27 27 27 29 27 25 24 23 19 21 24 26 25 24 21 21 21 16 14 
17 21 19 22 69 95 75 27 31 95 83 41 18 17 12 13 12 11 10 11 9 9 8 11 7 12 9 12 10 11 16 23 22 24 19 16 20 20 19 19 21 22 23 24 21 25 26 23 25 24 27 27 26 26 26 27 25 26 31 28 26 29 27 27 26 29 26 26 24 21 23 27 26 22 25 22 22 20 18 16 
39 36 32 37 83 102 74 25 36 93 80 34 12 15 14 12 11 15 12 9 11 10 9 9 5 7 9 7 10 12 11 20 21 20 18 19 19 19 18 21 22 20 24 23 22 25 24 24 28 23 26 26 24 27 29 24 24 23 25 24 27 27 28 28 29 27 25 26 27 23 21 24 28 24 22 20 21 23 16 18 
99 95 90 88 103 99 62 25 43 92 79 32 16 14 11 14 9 10 12 9 10 9 8 7 9 7 6 8 9 10 9 18 20 20 19 16 19 19 18 21 19 21 21 21 22 24 24 24 24 24 26 26 23 25 26 25 25 25 26 28 26 27 27 28 25 28 24 26 24 21 16 23 26 23 23 23 24 19 18 17 
99 104 103 103 99 88 51 27 48 94 76 28 12 10 11 11 11 12 11 10 14 9 9 9 7 5 7 6 8 11 9 17 16 20 19 18 22 21 21 21 19 22 20 24 25 26 23 23 26 24 27 24 25 24 26 24 24 25 29 27 27 27 29 28 28 24 27 28 26 25 19 24 26 23 24 25 25 23 16 18 
55 60 71 84 77 63 34 28 57 96 77 27 15 12 13 15 13 12 12 12 13 13 13 13 11 8 10 8 12 10 13 20 20 21 20 20 23 19 21 22 23 22 22 26 22 25 23 27 24 28 25 25 28 28 25 23 24 25 26 25 31 29 31 28 29 30 28 27 26 26 23 22 24 23 25 22 26 22 20 18 
20 28 28 30 29 26 24 27 58 104 79 30 14 15 14 15 13 13 11 13 12 10 11 12 10 10 11 8 12 14 12 21 19 23 19 20 26 20 23 23 24 23 20 27 27 25 25 26 27 29 27 26 29 28 28 24 27 27 27 28 29 27 29 30 30 29 29 28 29 27 28 31 24 20 25 23 22 25 15 19 
42 41 32 30 23 24 26 30 68 110 81 28 15 15 15 13 14 14 15 13 10 12 14 13 9 13 11 9 11 13 14 22 23 22 22 20 24 21 23 24 24 24 25 26 23 24 24 25 23 27 27 29 27 29 29 27 26 27 30 27 28 30 28 29 27 30 27 29 27 27 26 27 27 24 25 23 25 18 16 20 
106 105 96 86 71 64 59 58 90 113 79 28 15 14 16 13 12 12 16 11 11 14 13 11 11 9 14 11 10 11 11 20 20 21 19 18 25 23 22 22 22 23 22 25 23 25 24 26 27 25 25 21 26 26 26 25 22 26 26 23 26 26 27 29 28 27 28 26 29 27 25 28 28 27 29 26 21 21 18 18 
105 110 111 107 101 97 95 93 102 102 71 23 16 14 16 17 17 14 16 15 13 15 12 11 11 11 14 11 13 13 14 20 22 22 26 22 23 23 25 25 24 24 25 24 23 26 24 28 25 24 26 28 26 29 26 24 24 25 27 25 29 27 27 29 27 30 27 29 29 28 27 27 29 22 27 26 26 23 20 21 
60 67 72 82 81 88 91 91 94 85 52 15 16 15 13 18 15 15 12 15 13 14 15 15 12 11 14 15 12 13 14 18 21 21 24 23 20 25 29 24 27 24 25 26 26 26 25 25 23 27 27 27 29 28 25 26 25 25 28 26 27 28 28 29 33 29 28 29 30 28 31 28 30 28 29 24 24 28 23 15 
21 27 28 28 29 36 38 45 46 40 21 19 13 17 17 17 17 14 15 15 13 17 14 16 11 17 16 15 14 13 16 21 23 23 22 23 22 24 24 24 23 24 29 23 25 26 27 25 28 25 27 27 26 25 24 25 25 24 28 28 29 31 28 31 28 29 28 30 31 27 28 28 30 31 27 26 28 26 22 23 
22 22 21 22 20 19 23 24 26 22 22 16 17 16 19 19 17 16 15 16 16 16 17 17 15 15 14 14 18 16 17 19 24 23 24 19 22 26 25 24 26 25 24 28 26 25 26 25 30 28 26 27 29 28 29 28 28 28 28 28 30 31 30 31 29 31 31 28 28 29 27 31 32 33 28 26 28 29 21 24 
16 20 19 21 22 17 22 21 22 21 18 15 13 18 21 19 20 17 18 16 16 19 17 16 17 16 16 14 17 16 13 19 23 26 23 23 21 23 25 25 27 26 26 25 26 24 25 25 25 25 28 27 26 24 28 26 25 26 26 30 27 27 28 27 30 31 29 32 29 27 26 28 32 32 30 29 25 29 24 25 
17 21 21 23 18 15 21 20 22 24 19 15 16 21 20 19 19 18 19 16 19 17 20 17 19 15 19 16 17 17 16 22 23 25 24 23 25 26 25 27 25 26 29 25 28 25 26 25 27 27 28 26 27 28 29 27 27 27 29 31 31 35 29 32 32 30 32 31 29 29 27 31 32 35 35 30 27 30 27 26 
15 22 18 18 17 16 18 23 22 20 21 19 16 19 20 21 19 17 17 21 19 18 20 20 16 19 17 16 18 16 18 23 23 22 25 24 28 24 25 27 27 25 25 26 29 28 24 23 27 28 28 26 29 31 27 26 29 28 26 30 31 33 31 31 32 31 32 29 30 30 29 29 33 35 31 31 27 28 27 30 
15 25 23 21 17 20 21 21 20 19 19 17 18 21 20 21 21 21 18 16 18 19 20 21 19 18 18 18 20 20 17 21 24 25 26 26 27 25 23 23 24 27 27 25 28 25 25 26 27 28 27 28 27 27 27 26 26 29 28 30 32 29 30 31 34 30 30 30 30 32 26 29 31 33 37 30 28 30 30 28 
20 22 24 24 19 17 22 21 23 23 20 17 18 21 19 19 21 20 20 22 18 21 22 20 20 16 22 19 20 22 18 24 26 27 27 25 27 29 26 25 28 28 25 24 28 29 29 31 29 28 30 27 29 29 30 28 28 30 32 32 34 32 31 34 32 28 30 32 32 31 30 31 34 35 35 30 31 35 32 34 
17 21 22 21 19 20 21 21 24 21 22 19 21 20 20 19 21 21 21 22 21 23 20 20 21 19 21 21 23 20 17 23 29 28 25 25 25 27 24 25 27 28 29 24 28 27 28 31 28 29 28 27 27 30 29 30 29 31 28 28 31 30 31 31 31 31 32 29 29 31 30 29 31 31 36 30 33 32 38 36 
17 20 22 23 20 22 21 21 26 21 17 18 19 20 22 24 22 24 20 22 21 23 24 22 22 23 24 23 24 22 21 21 22 28 27 25 28 25 27 28 26 29 24 24 28 27 28 30 30 28 29 29 28 30 28 27 29 29 29 25 28 31 29 31 28 29 28 29 31 34 29 33 35 32 33 30 34 41 41 45 
21 20 23 26 22 18 23 19 28 21 17 19 18 19 23 22 22 23 25 19 25 23 23 26 22 23 23 25 23 21 22 22 29 27 26 26 26 27 26 27 28 25 28 29 28 29 29 30 28 29 28 27 28 27 30 29 29 27 27 29 28 32 30 29 32 29 33 32 33 33 31 32 35 31 34 36 55 51 44 47 
19 26 23 24 24 20 23 21 24 23 18 17 17 19 22 25 26 22 26 23 27 25 27 26 26 26 26 24 26 25 26 25 26 26 28 25 26 27 29 26 27 29 29 28 28 29 28 30 27 28 32 28 30 31 28 25 26 27 26 28 30 29 28 28 32 32 33 31 32 29 31 32 34 33 33 36 38 38 42 60 
20 21 21 28 20 22 27 25 25 26 19 19 21 23 25 23 26 26 25 26 25 26 24 28 25 28 25 26 26 24 21 23 27 25 28 29 27 27 30 28 27 28 26 28 29 30 31 28 26 25 28 27 28 28 29 29 28 28 32 28 30 28 27 30 34 32 33 31 35 33 32 33 36 36 33 34 37 34 44 105 
15 22 23 23 22 25 25 24 24 21 18 18 18 25 24 24 26 25 27 27 27 27 29 30 28 27 25 27 25 28 23 24 28 30 27 27 27 28 30 28 29 29 30 29 25 27 27 28 27 27 29 29 26 28 26 27 24 28 28 28 26 28 28 32 33 30 32 33 31 32 33 34 39 34 38 38 37 38 41 94 
18 21 22 24 20 22 27 31 24 24 16 20 20 26 26 25 25 30 26 29 27 28 29 31 25 30 29 26 28 26 23 25 29 31 26 28 30 30 30 30 29 31 28 27 29 26 27 26 29 28 29 27 27 27 25 24 24 26 29 27 28 28 30 34 31 29 31 32 30 35 35 40 51 56 60 61 69 79 96 132 
18 25 19 24 23 25 26 29 27 24 21 22 22 26 24 27 27 29 30 30 31 31 31 31 31 30 26 26 25 26 22 24 28 28 28 30 31 29 31 27 28 27 29 26 29 27 28 24 26 27 27 24 23 24 26 26 27 27 29 29 29 30 31 30 33 31 33 33 34 40 62 82 99 115 119 123 135 148 163 191 
18 24 24 21 27 27 29 31 26 24 22 23 26 28 29 28 27 30 31 34 32 34 32 31 34 32 32 26 26 28 26 23 27 31 29 30 30 32 28 30 30 31 26 29 30 29 30 31 29 28 31 26 28 27 28 28 24 29 29 27 30 33 33 32 32 33 33 35 32 59 101 122 133 140 147 156 165 180 199 221 
16 27 25 25 24 25 30 26 23 25 22 21 25 28 29 29 30 32 32 34 34 35 33 33 33 31 32 26 26 27 25 21 25 32 31 32 31 32 30 30 32 30 27 30 30 29 27 27 28 29 27 29 26 28 26 23 28 26 29 28 29 31 32 34 32 32 36 36 41 69 112 145 156 163 176 181 196 211 228 247 
22 24 23 24 24 26 29 25 25 29 24 22 27 28 26 31 29 30 33 35 33 34 35 36 35 35 37 38 34 33 33 30 26 27 35 29 33 30 29 33 32 31 27 27 28 29 31 30 28 24 30 27 26 28 24 25 28 28 30 28 36 33 31 34 31 32 33 37 37 67 114 149 165 174 182 193 202 223 241 249 
18 22 26 31 23 27 31 26 26 27 24 27 27 29 26 33 31 33 33 34 35 34 35 35 34 39 40 41 38 35 37 31 28 27 30 34 33 33 32 34 31 28 31 29 32 28 31 31 28 28 29 30 28 26 26 28 28 26 30 26 32 35 32 31 32 30 34 34 36 61 112 149 165 174 183 193 205 220 239 252 
19 26 26 27 26 25 29 27 27 29 25 24 25 31 28 31 31 33 31 35 35 39 38 34 34 38 44 39 39 37 37 31 28 28 34 29 30 31 29 34 31 31 31 31 30 31 27 28 26 27 28 26 28 26 27 25 26 27 29 31 31 32 31 33 34 32 31 34 38 60 107 143 162 169 179 186 200 217 234 256 
22 29 28 28 28 27 26 29 29 32 26 26 28 33 31 30 32 33 35 36 38 40 39 37 37 41 47 44 40 41 37 33 31 29 32 37 35 34 35 34 33 33 33 33 31 32 31 31 27 30 29 29 28 29 27 28 28 30 30 29 33 33 33 33 39 36 32 34 37 58 107 141 158 168 176 187 200 215 232 246 
24 29 29 31 27 28 28 30 30 32 30 29 30 31 34 34 32 37 38 38 40 42 39 39 39 41 46 44 42 43 40 38 31 34 35 34 32 36 34 35 33 33 36 33 31 31 29 28 28 29 29 29 30 31 33 32 32 28 33 31 33 33 33 34 34 37 37 38 40 54 100 137 157 164 174 186 197 211 230 243 
26 31 32 31 27 33 28 38 31 33 32 27 32 34 34 35 35 38 39 39 43 45 45 42 42 44 50 43 44 41 42 37 28 31 38 35 33 35 35 36 37 32 34 33 34 31 30 32 32 31 32 30 33 32 36 37 35 34 33 35 33 34 33 34 37 39 35 35 37 54 99 137 156 167 173 181 196 209 224 241 
28 33 30 38 32 34 34 37 36 36 36 33 35 33 34 38 39 39 43 42 45 47 48 46 46 48 51 47 46 43 44 37 33 34 37 37 36 35 36 41 33 35 34 34 33 32 36 31 32 31 35 32 34 37 42 44 40 39 36 34 32 35 36 35 37 34 36 38 39 48 94 133 151 166 168 178 181 182 208 245 
32 35 33 36 35 37 38 37 34 38 35 35 36 38 43 40 40 43 43 46 46 48 49 50 47 51 50 48 48 48 44 43 37 34 37 38 40 42 39 38 36 37 36 36 36 35 36 32 35 37 36 35 36 41 45 63 75 60 46 36 35 37 36 38 39 37 34 42 40 48 90 129 149 159 167 170 169 162 206 254 
34 38 39 41 35 35 44 41 39 44 37 35 39 44 42 44 46 44 50 50 53 55 55 54 53 58 57 59 53 51 49 46 38 41 44 44 44 45 41 40 39 38 39 38 36 38 34 35 33 35 38 36 40 46 76 192 167 102 59 44 37 39 38 37 41 39 39 36 44 49 91 130 153 163 168 178 180 192 225 243 
42 43 42 49 44 41 42 45 44 46 40 37 39 43 48 46 48 51 52 54 58 58 61 60 60 60 60 59 58 53 54 47 40 43 44 46 45 40 40 40 40 39 40 38 38 41 39 38 38 38 39 40 41 46 94 236 177 102 58 43 37 38 39 37 38 40 38 43 45 50 85 126 150 165 169 177 191 203 225 236 
44 46 48 49 47 46 48 50 48 49 46 44 43 46 51 49 53 54 57 61 62 63 65 63 65 67 67 61 58 57 53 48 40 42 45 47 46 46 40 39 37 40 37 37 42 39 39 40 39 35 40 38 39 42 57 91 90 70 52 42 38 38 38 37 38 39 39 41 41 46 83 121 153 164 166 177 191 206 225 237 
51 55 57 57 52 52 55 55 50 51 49 48 48 54 54 54 54 59 58 61 65 70 71 75 73 73 74 72 64 59 53 49 44 44 48 47 45 44 38 43 42 43 40 42 43 45 37 43 40 39 43 41 42 42 45 52 55 48 45 40 39 40 37 38 38 40 41 41 41 46 83 123 148 163 175 181 191 208 217 233 
69 70 65 61 54 56 58 58 51 51 49 46 52 56 57 59 54 61 66 70 74 72 75 78 78 80 78 73 65 60 55 54 48 47 49 49 49 47 54 71 47 47 48 45 45 46 44 46 40 42 45 42 40 40 46 45 47 45 45 39 41 37 38 38 39 39 40 38 40 41 71 127 151 165 176 182 194 206 216 231 


