P2
80 60
254
26 28 29 44 78 107 89 42 57 99 92 57 47 42 40 37 34 33 32 31 29 26 27 23 25 27 32 30 34 40 37 30 33 31 32 31 29 30 28 29 27 28 27 30 31 31 32 28 21 21 18 19 20 19 21 19 23 26 21 23 27 28 31 27 26 24 23 26 26 29 28 26 26 24 25 21 28 25 22 22 
23 26 36 47 86 109 83 41 54 98 94 57 43 41 36 36 35 32 32 30 31 28 30 26 29 33 33 30 29 35 33 34 31 32 30 28 29 29 26 30 28 28 30 30 33 32 29 28 26 23 22 23 23 22 22 23 26 28 28 30 30 32 35 34 33 23 21 26 27 28 26 27 26 28 26 23 25 26 23 19 
25 27 35 45 88 105 78 38 63 101 88 54 40 39 37 33 31 34 32 28 29 26 28 27 29 31 33 31 34 36 34 33 29 28 30 28 28 29 28 30 30 28 31 30 29 31 32 31 27 26 28 28 31 27 29 31 29 30 32 32 31 32 31 31 30 22 22 26 27 28 27 25 29 27 26 22 28 25 21 19 
26 26 34 50 94 103 71 37 67 100 82 48 38 35 35 32 33 32 29 32 31 27 31 30 34 29 30 29 34 34 35 31 28 28 28 27 26 31 31 26 29 32 30 31 31 32 33 34 30 31 34 32 33 30 30 30 32 33 32 34 33 31 28 28 30 23 22 22 30 31 29 28 32 25 22 24 30 23 22 21 
26 33 38 53 101 107 68 41 72 97 79 43 38 32 32 34 33 29 28 28 32 30 33 29 29 30 31 33 37 35 32 32 29 28 27 25 28 30 26 26 30 28 30 32 29 30 31 35 34 33 32 31 32 31 31 33 35 30 31 28 30 27 25 28 27 26 22 24 26 30 29 26 30 30 26 27 26 22 19 21 
26 30 35 57 102 95 67 42 77 99 75 38 36 33 33 30 27 29 31 28 30 30 31 29 28 27 30 29 31 33 36 31 29 28 26 26 27 27 27 25 27 27 29 29 28 29 30 31 28 32 30 30 30 29 30 30 33 28 28 31 27 28 29 29 28 31 20 22 28 30 29 27 29 27 26 25 20 16 17 20 
24 33 38 59 105 96 59 38 77 99 69 35 32 32 33 27 29 30 30 31 30 26 28 28 29 28 28 32 33 35 32 29 31 28 25 27 31 24 29 25 28 28 27 26 31 25 26 31 28 30 28 31 27 30 30 29 27 28 26 27 29 29 31 29 30 24 23 22 27 30 27 29 30 27 29 27 22 15 14 21 
24 29 35 56 104 93 58 37 76 99 63 31 31 26 29 28 25 26 28 30 27 29 24 25 25 26 27 34 30 30 33 29 29 28 30 29 29 27 26 26 27 28 27 28 28 28 23 26 27 28 28 26 30 27 24 27 30 31 30 31 31 34 28 31 30 28 23 19 28 32 30 28 29 27 31 27 21 14 17 21 
17 25 30 50 106 94 53 36 82 96 62 36 26 25 25 28 27 30 31 29 29 24 27 26 28 27 29 30 31 34 30 29 28 28 27 32 34 32 28 26 28 26 30 29 27 29 30 29 29 28 27 26 27 25 27 30 29 32 32 36 32 35 31 31 30 34 22 21 29 36 28 31 31 29 30 27 21 19 19 18 
10 5 0 45 107 93 49 34 89 101 58 29 25 24 28 24 23 26 24 28 26 28 23 25 25 28 26 30 31 33 35 31 29 27 31 29 29 33 30 28 29 26 33 29 31 30 31 31 28 27 28 30 29 31 33 30 32 34 36 33 35 34 33 31 33 30 27 23 27 31 29 31 30 31 31 27 20 24 19 18 
13 5 7 55 107 92 37 28 97 111 50 19 18 17 15 21 21 25 21 26 27 24 24 25 23 25 22 27 27 33 29 28 25 25 26 29 28 31 29 24 27 26 27 30 28 28 28 25 28 27 28 28 28 30 29 32 33 33 34 36 35 32 28 32 33 34 27 19 24 32 29 29 31 32 27 26 21 19 21 19 
17 20 19 61 115 94 38 33 99 106 47 21 16 14 15 14 12 19 18 23 17 21 21 22 23 23 21 24 27 29 30 28 27 26 30 27 26 29 29 31 29 30 31 30 32 26 26 29 29 31 36 32 33 32 33 36 35 34 34 37 36 34 31 33 36 35 27 23 26 32 27 32 33 32 31 27 24 21 20 20 
17 15 22 57 110 91 39 34 96 106 45 13 14 15 15 13 16 14 13 11 10 10 10 14 12 18 16 16 16 21 18 22 23 25 25 25 27 25 29 27 29 27 26 29 27 25 28 29 32 33 30 34 31 31 28 34 34 34 31 32 33 30 31 30 30 32 29 24 24 30 32 32 31 31 30 26 25 21 19 21 
18 24 20 67 105 85 42 41 102 107 44 21 16 14 16 14 14 18 13 13 14 12 8 12 12 11 5 11 11 12 12 8 16 16 21 21 24 27 27 30 27 25 27 26 28 33 29 31 34 34 32 36 32 30 33 33 34 31 35 36 34 32 38 31 35 32 31 27 21 31 30 32 33 35 31 30 25 23 20 21 
19 21 22 77 101 78 38 41 103 98 37 24 19 17 21 20 16 15 13 13 14 11 13 11 10 11 9 13 16 14 15 7 8 11 23 28 28 30 25 24 26 27 27 33 32 32 30 34 35 34 36 35 33 34 34 35 37 35 33 36 33 31 37 33 37 34 34 26 24 34 31 32 34 36 30 32 29 19 19 24 
19 18 24 72 99 75 32 39 100 89 38 19 19 17 22 19 15 15 14 13 13 10 13 11 11 10 12 10 13 14 9 9 14 17 26 27 28 27 24 25 27 27 28 29 31 31 31 31 30 31 31 32 32 33 32 33 32 33 32 33 33 34 31 34 33 34 33 26 22 25 29 33 34 31 30 29 32 23 23 26 
19 18 25 76 97 72 34 43 101 91 35 20 20 20 19 18 17 19 16 17 19 16 17 13 13 9 12 13 16 17 23 21 28 27 29 28 27 26 29 27 28 27 30 34 33 30 31 32 35 33 33 33 34 33 33 35 32 34 31 35 36 32 34 34 35 32 33 26 23 30 32 31 31 33 28 31 31 27 25 24 
18 18 22 84 101 71 29 46 103 87 35 20 21 19 20 19 19 16 17 18 15 18 16 15 14 15 14 15 19 24 27 31 31 30 29 28 31 30 27 26 26 28 29 32 34 32 33 36 35 37 34 34 35 33 36 32 36 34 38 35 36 32 36 34 37 36 35 32 23 26 30 34 34 36 36 31 33 31 29 30 
20 18 25 86 95 68 27 47 101 84 34 20 17 15 22 20 18 19 18 16 18 15 15 15 16 12 14 15 18 23 30 30 26 27 29 27 29 31 27 27 26 29 30 30 30 30 32 31 30 32 36 35 35 34 32 32 33 32 37 34 37 35 34 35 32 37 35 30 21 24 28 30 31 34 32 32 32 30 30 25 
21 19 28 90 101 65 31 50 102 86 32 24 22 20 24 22 20 23 20 18 17 19 18 18 16 18 17 12 18 26 31 28 29 24 26 28 28 29 29 29 29 31 34 31 34 32 32 33 31 32 37 35 35 34 34 32 35 34 33 35 38 35 32 35 33 35 38 33 26 25 28 34 37 33 33 33 34 32 29 35 
24 23 30 95 103 66 34 57 105 86 30 25 21 25 23 24 23 23 22 21 19 21 18 18 21 16 15 17 19 24 28 27 29 26 28 27 28 29 27 31 28 32 32 32 33 32 32 32 35 33 36 35 36 34 36 33 35 36 35 36 38 37 37 39 38 35 38 39 27 25 26 31 36 35 33 33 33 31 28 29 
28 32 44 110 106 66 34 65 104 86 34 23 21 25 23 19 20 22 19 19 20 22 17 19 21 15 17 20 20 21 28 26 28 26 25 29 29 30 29 29 31 30 28 33 34 31 32 31 34 34 37 36 33 33 37 35 35 36 34 37 37 37 37 35 37 36 38 36 32 27 21 32 36 35 33 32 34 29 29 31 
77 76 77 126 106 57 34 68 106 82 28 24 22 21 23 21 19 24 20 19 23 22 18 18 18 16 18 18 17 18 27 27 29 27 26 25 25 29 29 28 27 29 27 28 33 30 31 35 31 33 39 33 32 34 34 37 34 33 33 36 35 37 35 37 34 36 34 35 35 24 20 24 32 33 35 31 34 30 30 33 
106 106 107 108 92 48 35 68 104 78 31 25 23 20 22 21 20 24 21 22 20 19 22 18 15 18 21 17 20 18 30 27 27 26 27 23 27 26 27 30 29 30 28 30 33 31 30 32 31 33 34 35 34 36 35 33 34 30 32 37 35 36 35 39 38 34 36 38 34 35 23 21 28 31 31 33 33 31 28 32 
96 101 97 94 74 37 38 75 107 82 32 25 24 25 24 23 23 22 25 23 21 22 22 20 20 16 18 19 23 23 26 30 29 26 28 29 30 30 27 29 33 33 33 31 34 31 33 35 33 37 37 34 36 34 35 35 35 36 36 37 35 39 39 37 35 38 37 37 37 35 34 26 23 30 28 31 33 33 32 28 
44 45 51 53 39 33 38 79 110 83 31 27 25 26 27 27 23 25 26 23 21 22 21 23 20 18 21 23 23 24 28 27 30 28 33 30 31 35 31 31 32 35 33 32 36 35 32 35 34 35 38 36 37 32 36 36 34 39 34 38 35 39 36 41 38 36 37 37 36 37 33 35 27 24 25 24 27 29 25 33 
32 24 26 27 30 30 36 80 114 83 31 26 24 26 25 23 20 22 23 22 21 19 20 20 22 18 17 19 19 22 25 27 28 31 28 31 32 32 31 32 32 32 33 34 32 33 33 33 34 33 34 35 35 34 33 35 34 36 36 36 36 38 37 36 37 39 36 39 37 36 35 36 34 30 23 24 24 24 29 25 
80 69 55 50 47 49 53 97 118 84 34 27 24 24 26 22 25 26 24 24 21 21 22 23 20 21 18 20 18 20 26 31 33 31 29 31 33 29 33 34 34 28 31 33 31 29 34 33 36 34 35 36 34 36 35 37 33 36 37 37 35 38 38 38 38 39 40 35 36 38 34 35 37 37 35 33 31 26 26 28 
122 115 107 104 103 100 103 113 110 79 28 24 25 24 22 24 25 25 27 25 22 23 19 22 19 22 21 20 23 19 29 33 32 33 32 33 31 34 34 35 30 34 32 34 34 33 35 30 35 34 34 35 36 34 34 36 34 37 35 35 36 36 33 38 36 39 42 39 35 39 35 37 39 36 36 35 36 31 30 30 
103 104 104 103 104 104 105 101 95 63 27 25 26 22 26 26 26 27 27 25 25 25 22 22 20 22 23 23 22 20 28 30 30 31 32 32 33 32 34 33 31 33 31 35 31 30 36 34 32 32 36 35 35 34 34 37 34 37 36 36 38 33 39 38 37 39 42 41 37 38 38 36 38 36 33 35 33 28 29 30 
45 47 49 53 58 63 66 65 59 38 24 27 28 28 27 25 25 29 27 24 25 27 23 24 23 21 24 23 26 24 27 31 30 30 33 28 32 35 35 34 33 33 34 34 34 32 33 35 34 33 37 35 39 35 34 36 34 38 36 37 39 36 35 40 36 39 40 40 38 39 38 38 36 35 37 35 33 32 31 29 
30 27 25 28 30 33 36 28 31 28 23 29 25 27 29 28 28 27 29 26 26 25 28 26 27 22 23 27 25 26 26 30 31 31 32 30 33 30 32 36 35 35 33 31 35 32 33 35 35 35 34 36 36 34 35 37 37 38 36 37 36 39 38 38 37 38 37 39 38 37 39 39 38 35 35 33 35 34 30 30 
27 22 22 22 29 28 28 23 28 27 23 27 31 29 30 27 26 29 26 27 29 24 26 27 25 21 25 29 27 26 28 33 32 31 29 29 32 34 32 31 34 34 36 34 31 31 34 36 33 39 38 38 37 35 35 40 39 35 36 32 39 38 40 40 36 40 41 42 37 41 37 35 39 39 36 33 36 35 31 33 
25 24 21 27 27 27 25 24 26 27 26 28 28 28 31 29 30 30 31 27 29 28 29 27 30 23 26 28 26 27 27 33 33 34 33 29 35 33 34 34 38 36 38 36 37 34 35 36 33 37 39 37 39 34 35 35 37 37 36 36 36 38 42 40 42 40 41 42 40 39 36 37 42 39 35 34 36 35 34 32 
29 26 23 24 27 27 25 24 28 30 26 33 25 29 30 30 32 32 30 29 32 28 31 31 29 26 29 29 29 28 30 33 33 32 34 32 34 33 34 35 32 34 36 35 36 35 36 36 40 38 37 37 38 36 35 35 35 36 39 39 39 45 42 45 40 41 42 42 40 40 39 39 42 38 37 36 36 34 33 33 
27 27 21 23 26 30 29 25 28 27 26 29 29 31 33 30 30 32 33 28 32 30 32 26 30 26 29 29 28 25 31 32 36 33 32 33 36 35 32 31 33 36 32 35 36 34 37 35 37 36 39 36 37 40 39 35 36 35 39 39 39 40 38 42 39 39 39 41 37 39 35 36 41 40 38 35 35 35 34 36 
28 28 26 24 25 25 31 24 27 30 26 29 30 32 29 31 29 33 32 31 30 28 31 31 30 30 33 33 32 31 29 34 36 34 37 36 35 36 36 35 37 34 36 35 36 35 37 38 38 38 39 38 36 39 36 36 37 36 37 36 38 38 38 37 38 37 41 42 40 43 40 37 37 40 36 37 36 35 35 43 
27 26 21 25 28 26 31 28 29 28 27 28 30 29 33 35 29 33 31 32 34 30 30 30 31 31 32 35 32 28 28 34 37 35 35 36 32 35 35 35 37 36 34 35 39 37 35 42 38 38 39 38 37 37 36 37 37 36 37 36 41 39 41 39 39 39 42 39 41 41 36 38 40 40 37 34 38 34 40 40 
31 25 24 30 30 30 31 29 28 27 26 30 32 32 33 33 33 33 32 35 32 31 31 31 36 32 34 32 33 30 29 32 35 36 36 35 38 35 35 35 36 40 36 35 36 36 37 41 39 37 39 37 37 37 34 41 39 38 36 37 41 38 40 35 40 40 40 41 44 43 38 43 39 39 36 37 39 40 43 50 
34 26 27 29 32 32 33 30 27 26 28 29 32 34 32 34 33 36 31 32 35 32 34 34 35 34 33 32 33 33 29 35 37 37 37 34 36 33 35 33 38 33 38 40 35 38 39 38 37 35 40 36 35 38 38 39 39 35 35 37 37 39 40 39 40 39 43 42 40 42 39 41 40 40 39 39 45 51 57 68 
27 26 28 31 28 29 32 26 28 31 26 31 31 32 36 34 31 37 35 34 36 37 35 36 36 36 34 32 35 35 33 33 41 38 36 34 38 36 38 35 36 35 36 38 38 38 36 39 37 39 37 36 41 37 39 40 39 37 38 36 40 41 40 35 39 39 42 43 40 44 41 39 39 43 41 45 51 51 56 104 
28 30 24 32 33 34 32 31 26 30 26 33 34 35 36 34 35 37 38 36 37 36 35 38 40 39 37 35 38 37 33 35 41 36 36 38 37 35 37 37 39 38 37 39 38 38 38 38 36 36 36 39 38 40 37 37 41 35 41 39 42 37 42 42 41 40 42 41 45 42 42 40 45 43 43 45 49 48 67 144 
30 28 27 28 35 31 29 27 31 31 29 34 33 34 37 37 35 36 38 38 38 39 36 38 40 38 40 36 38 37 34 40 37 41 39 36 40 38 39 37 37 39 36 37 35 37 38 42 38 37 39 40 36 40 37 39 37 38 36 38 37 39 40 37 41 42 43 42 42 44 39 43 45 46 44 46 42 45 68 155 
29 26 25 29 33 37 32 32 31 30 30 31 34 35 36 37 36 37 37 38 40 36 39 37 41 37 36 36 36 35 31 35 39 39 40 37 41 37 38 37 40 40 38 38 38 38 37 38 38 38 40 37 35 35 32 32 35 35 34 39 37 39 42 44 41 38 46 42 46 42 45 45 47 43 42 45 50 47 65 152 
30 28 28 29 33 34 34 31 31 29 29 30 34 37 36 37 39 41 40 43 41 41 41 42 42 40 34 31 38 36 32 33 38 39 40 41 38 37 40 36 40 38 39 40 37 34 35 35 35 34 40 36 36 32 32 35 34 35 34 35 39 38 40 39 39 39 42 43 42 47 42 44 48 48 46 55 59 62 68 152 
30 29 25 30 33 35 33 30 30 30 29 33 36 38 37 39 38 40 41 38 45 43 45 43 44 36 36 35 36 33 28 31 37 44 39 40 38 40 39 40 38 38 39 39 34 37 39 40 40 37 40 39 36 37 36 33 38 37 36 39 37 38 41 40 40 41 44 46 48 47 45 54 79 90 102 137 150 114 101 162 
30 31 28 31 33 33 36 31 30 33 31 34 38 38 39 40 40 42 42 41 43 46 46 44 45 42 40 40 43 43 38 36 35 40 40 37 41 41 39 37 38 39 39 39 42 37 37 35 40 37 38 39 37 36 35 38 37 39 38 39 38 40 41 36 43 45 44 46 48 49 60 109 140 153 167 177 170 150 160 191 
29 27 29 28 31 38 35 34 31 33 29 35 35 38 38 40 42 42 42 46 45 43 44 45 47 47 51 47 46 46 41 36 37 42 41 40 41 41 40 39 36 39 40 41 38 37 37 40 37 38 39 37 37 35 34 37 36 38 35 38 40 40 41 42 42 44 43 46 54 76 99 120 135 144 148 155 162 170 184 209 
34 29 29 31 33 37 37 31 36 34 31 38 36 40 41 42 43 45 45 47 45 44 46 47 49 53 52 54 48 47 42 38 38 40 42 40 42 42 40 38 38 38 41 40 39 37 35 36 38 38 38 37 34 35 34 39 38 38 38 39 40 40 40 39 43 46 46 50 69 103 119 131 139 145 153 167 183 198 223 245 
29 25 27 30 31 33 39 30 37 36 31 39 38 38 41 39 42 44 44 47 43 45 43 42 45 50 50 53 48 49 42 36 39 44 44 45 45 42 38 42 39 39 37 42 40 39 38 37 37 38 38 38 37 40 35 34 34 39 36 40 39 42 41 41 42 41 44 48 68 112 138 150 159 166 173 187 201 216 236 250 
33 31 33 35 33 35 37 32 38 38 36 39 39 42 45 45 43 45 45 46 48 47 52 51 49 51 58 53 52 51 49 39 38 43 46 46 46 45 42 42 41 41 41 43 41 40 38 38 39 37 39 40 42 40 40 43 42 37 39 41 41 42 43 42 44 43 47 48 71 111 142 157 163 172 182 191 202 217 237 254 
39 29 32 34 34 37 36 32 35 42 36 41 43 43 42 47 43 47 45 47 50 49 51 50 52 55 55 56 52 52 50 37 39 43 45 46 45 45 42 42 45 45 43 43 43 40 39 40 40 40 38 40 44 44 44 49 42 40 42 43 41 44 43 46 42 43 49 47 64 104 134 154 162 169 176 186 200 217 238 243 
37 34 35 39 37 38 38 34 37 41 37 43 42 47 46 44 47 48 49 48 52 52 53 50 54 55 55 58 51 52 47 44 41 43 47 46 44 46 43 42 43 42 42 44 40 39 40 42 41 42 39 41 39 43 53 57 49 52 44 46 43 42 41 47 45 43 47 49 59 97 129 151 160 168 178 187 202 214 236 242 
34 36 36 38 37 41 38 34 38 43 37 42 44 43 46 49 46 48 49 51 57 57 55 51 56 58 57 58 54 54 51 42 41 46 50 46 48 48 45 44 45 45 43 46 43 43 42 39 39 43 40 42 41 49 59 77 87 65 49 46 43 49 46 45 45 44 48 44 54 97 125 148 157 166 172 184 196 214 235 241 
40 39 38 41 43 45 43 38 44 43 43 43 44 49 50 52 52 55 53 56 57 61 60 58 61 62 66 62 59 60 55 48 47 46 49 46 49 49 50 47 45 45 45 46 43 43 42 42 45 44 45 45 48 58 109 220 160 97 58 50 42 49 46 49 47 48 45 47 56 89 122 146 158 163 172 181 193 211 227 239 
47 42 39 44 46 50 46 41 41 45 45 50 48 54 54 55 52 56 59 62 63 62 65 63 68 66 67 66 63 62 57 50 46 47 53 51 52 52 50 46 48 48 48 45 47 44 45 45 45 43 48 49 51 61 127 249 164 95 59 51 47 44 49 48 50 48 50 54 52 82 118 144 158 160 169 176 190 195 223 238 
49 43 45 44 47 47 47 41 47 48 44 49 51 53 55 55 59 60 62 66 70 69 71 68 69 69 69 69 66 64 59 50 47 53 53 50 53 53 46 47 46 47 46 48 48 46 46 46 47 45 48 50 49 55 72 101 91 66 53 49 46 44 46 48 46 47 52 49 52 76 114 140 153 159 166 168 163 161 214 235 
57 47 50 50 49 52 53 49 50 54 51 52 55 57 58 60 62 64 68 69 71 73 75 73 73 76 79 77 73 64 63 54 47 50 54 52 55 45 49 46 49 49 48 52 48 51 46 49 47 48 47 51 49 47 53 58 64 58 54 46 50 48 48 47 49 50 51 49 56 71 106 136 154 157 163 166 164 177 219 238 
67 60 60 61 63 60 60 54 58 55 57 59 58 61 61 62 62 67 68 75 79 80 87 83 83 85 85 83 75 70 63 58 54 52 56 53 54 53 63 67 57 52 54 53 53 51 52 52 50 50 52 49 49 50 47 53 52 51 50 47 48 49 47 50 48 50 54 53 55 66 103 135 151 161 164 172 181 196 221 225 
96 83 79 72 70 62 66 58 56 62 57 63 62 63 64 65 66 71 73 75 80 86 86 83 85 94 94 83 75 69 64 60 57 56 57 58 59 57 93 131 68 56 59 56 55 53 55 51 50 50 51 51 49 50 51 50 46 49 47 49 49 49 47 49 53 52 51 52 56 59 104 134 152 165 164 169 179 195 217 223 


