P2
80 60
256
22 17 20 26 32 44 83 94 67 41 51 89 83 43 39 31 28 28 25 24 22 23 20 19 19 22 21 24 26 30 32 28 25 24 25 24 27 25 22 23 22 25 26 22 23 28 24 23 25 20 13 17 13 15 14 14 13 15 14 15 14 19 18 17 17 22 22 23 24 24 19 23 18 16 19 18 15 15 11 11 
21 17 20 26 31 46 90 92 65 35 60 92 79 40 35 34 29 29 25 23 24 22 23 20 18 19 19 24 25 27 30 29 26 31 28 23 24 23 23 24 23 27 22 22 22 21 25 25 25 17 15 13 11 11 14 16 16 15 14 16 17 18 17 18 22 22 20 25 24 21 23 22 20 15 18 18 17 21 14 8 
26 18 16 25 35 48 91 91 61 38 62 92 72 39 36 31 29 23 27 24 23 23 20 22 19 27 29 25 26 28 28 31 25 24 25 25 24 25 23 24 22 26 23 21 23 27 27 25 25 23 17 17 18 17 14 18 19 16 17 20 21 22 25 24 25 20 24 22 21 24 20 23 16 18 19 20 15 15 10 6 
21 19 21 28 35 50 94 93 50 39 69 90 69 36 30 28 26 27 24 23 25 22 20 19 21 27 27 24 29 27 28 30 27 23 25 20 22 22 20 24 22 26 22 22 25 29 28 25 26 23 19 22 25 21 22 25 23 23 29 26 24 26 25 27 27 23 24 23 26 19 19 22 19 21 22 16 15 14 11 9 
18 21 18 31 35 59 106 87 48 39 72 90 60 34 29 28 23 24 26 23 21 16 22 23 22 25 23 24 27 27 28 27 26 21 23 23 23 20 21 19 22 24 24 20 22 28 27 26 25 28 26 24 22 26 27 27 27 27 25 28 24 25 30 23 27 25 23 22 24 25 21 23 17 20 19 18 15 14 8 13 
18 16 21 33 36 67 101 80 46 44 84 85 58 33 26 23 21 23 25 22 23 24 27 26 20 25 26 27 24 28 26 26 25 24 25 24 25 22 22 24 19 19 22 22 27 25 26 26 24 27 22 27 27 25 23 26 27 26 26 28 24 25 24 24 21 25 24 23 26 20 23 22 19 23 19 18 20 15 8 12 
19 19 19 34 37 65 102 77 40 42 85 83 52 27 29 25 22 23 25 22 20 22 23 21 22 24 21 22 26 26 28 25 26 25 23 23 23 25 23 23 24 21 21 21 22 24 26 29 26 26 26 26 24 24 25 26 27 24 26 23 24 22 25 23 24 24 22 23 25 25 22 23 21 22 25 21 17 12 13 8 
12 13 19 27 31 65 95 73 43 43 85 82 41 25 21 22 21 20 20 19 20 20 20 17 16 19 21 20 21 25 25 27 25 20 26 21 20 22 22 21 22 22 23 22 22 21 20 21 22 24 28 23 22 25 22 20 23 23 27 21 21 22 24 28 23 23 20 23 22 23 21 23 17 20 20 17 15 16 12 9 
6 7 10 26 27 62 100 72 36 44 91 79 39 22 21 21 18 19 19 18 21 21 18 19 21 20 19 20 23 24 27 27 22 23 25 24 24 22 21 23 26 22 21 24 22 24 25 23 23 24 25 22 19 23 22 24 23 20 23 22 23 26 27 28 24 29 25 25 25 23 23 26 19 20 22 19 16 20 15 10 
6 2 2 0 7 71 98 66 26 47 96 80 37 22 21 20 17 16 16 16 21 20 21 21 20 20 22 22 21 25 24 27 24 25 24 21 25 23 20 25 23 23 23 20 24 27 27 26 26 24 21 22 19 20 23 25 26 22 24 26 26 28 29 27 27 25 24 24 23 25 25 24 18 23 20 23 15 17 12 13 
13 10 7 2 10 74 97 60 23 47 101 81 24 10 9 13 12 16 13 17 17 15 18 15 17 18 20 20 17 21 24 28 19 24 20 21 22 23 21 20 21 22 24 22 23 27 25 22 23 23 22 18 21 23 21 23 25 26 28 28 28 28 28 27 27 25 28 23 24 26 24 24 22 20 16 17 19 18 14 11 
16 15 16 15 19 83 100 56 22 53 96 74 18 8 7 6 6 7 10 11 14 15 15 15 17 17 15 18 20 20 24 23 22 22 20 20 20 22 19 23 19 24 22 23 24 23 23 26 25 21 21 24 25 24 24 23 26 31 28 31 24 29 26 26 25 28 25 25 21 23 26 24 22 21 19 18 18 18 13 14 
12 12 13 16 14 81 94 54 24 57 98 67 15 7 7 5 7 4 6 5 2 2 4 5 9 12 11 16 16 17 24 19 21 19 19 20 20 21 22 23 20 22 21 23 21 23 22 20 21 20 20 24 24 26 25 27 28 26 28 25 28 29 25 28 24 28 29 21 25 24 24 25 20 22 18 19 22 15 16 16 
12 12 16 15 21 85 88 46 28 64 98 65 20 8 9 6 5 6 7 4 4 5 6 3 2 2 3 6 7 6 8 7 13 19 22 18 19 20 20 23 23 23 21 21 24 19 23 26 25 24 26 28 23 26 24 30 29 25 25 29 26 28 26 26 23 28 25 24 22 25 24 25 22 21 20 22 20 17 14 9 
14 13 13 15 32 85 83 42 25 72 94 54 20 12 12 11 7 7 6 5 3 3 4 3 4 5 4 4 6 7 6 5 2 3 3 8 15 21 21 22 22 20 23 20 23 23 25 26 25 24 25 25 24 28 28 27 29 25 28 27 28 31 24 28 27 27 28 23 23 22 21 30 23 21 23 23 21 17 16 11 
13 13 16 16 33 87 81 36 26 76 92 54 19 11 11 10 11 5 7 2 5 6 4 6 1 6 6 2 3 8 5 6 4 0 4 14 15 20 17 23 18 19 21 22 24 25 27 26 27 25 27 23 26 27 28 24 29 29 30 26 30 27 25 25 28 27 27 28 21 25 22 25 23 22 22 22 21 21 10 12 
9 13 14 17 41 89 78 32 24 82 84 50 16 11 13 12 8 9 9 7 6 7 4 6 3 1 5 2 5 9 7 4 6 14 19 17 22 22 20 18 17 21 21 21 23 22 28 24 26 25 26 25 26 27 28 27 28 25 25 27 29 28 28 24 25 28 29 26 24 22 24 27 22 23 22 20 20 20 14 12 
14 13 14 18 44 97 77 34 29 86 88 47 17 14 14 12 11 10 11 9 9 9 8 8 6 4 5 2 8 8 10 15 22 23 22 20 23 22 23 23 20 25 27 22 25 23 29 28 25 26 26 25 28 27 27 28 32 29 30 29 29 28 29 26 25 27 30 25 23 25 26 26 24 22 24 22 23 22 14 11 
15 11 15 19 45 90 71 31 29 85 84 42 14 9 12 11 8 11 11 10 9 6 9 9 5 7 4 4 5 8 16 20 21 20 20 19 22 21 22 21 22 19 23 24 24 25 25 25 24 25 27 25 27 27 25 27 26 28 28 27 28 29 26 30 25 28 26 28 24 23 22 23 22 25 24 20 23 21 17 13 
19 14 17 19 56 93 76 28 27 83 82 38 15 13 12 13 11 15 12 9 10 7 9 9 7 8 9 4 7 12 19 25 23 21 18 18 22 21 21 22 22 21 19 21 23 23 22 25 25 25 29 27 27 25 27 27 25 27 27 27 29 30 28 27 26 25 29 28 22 21 23 24 23 25 24 20 22 21 14 15 
20 20 16 23 68 97 72 29 33 93 81 38 16 13 13 13 12 12 11 12 9 10 10 8 5 11 7 9 6 10 18 21 23 21 19 16 20 22 19 21 21 22 23 24 21 25 23 26 22 24 27 26 24 27 27 25 25 24 29 28 28 28 28 26 27 29 28 27 25 21 22 23 23 21 23 22 19 23 16 17 
46 36 33 36 81 106 78 28 36 97 82 34 14 14 12 10 12 13 13 10 10 11 7 6 7 6 8 6 8 11 13 20 22 19 21 20 18 20 20 20 23 22 23 23 21 23 24 26 29 24 27 27 25 29 30 26 26 28 29 26 28 30 28 30 27 28 27 29 27 21 21 25 22 22 23 23 20 22 17 17 
102 96 89 92 105 106 63 25 44 93 80 35 17 14 12 12 10 10 11 10 12 8 11 8 10 7 9 8 13 9 9 18 21 19 22 18 21 19 18 18 22 19 22 23 21 25 25 25 23 27 26 27 27 26 25 28 31 26 25 26 28 28 29 27 28 32 30 28 27 21 20 25 21 20 22 23 21 20 20 16 
105 102 105 103 99 91 54 30 52 95 81 28 14 11 11 12 10 10 11 11 13 9 13 9 6 8 10 7 8 10 9 18 19 20 18 17 20 21 21 19 23 21 23 24 23 25 25 23 27 26 28 28 26 26 25 25 25 27 26 28 28 27 28 26 30 29 28 31 27 24 23 23 21 20 21 25 22 20 16 17 
59 64 72 80 77 66 35 28 56 102 80 30 18 14 14 15 14 14 13 13 12 12 13 15 12 10 10 7 10 12 13 17 21 21 22 20 24 19 22 24 25 23 25 24 24 26 25 29 26 31 26 29 27 26 25 27 26 27 28 27 32 31 32 30 29 32 29 28 30 28 25 23 23 24 23 19 25 25 16 20 
26 25 27 28 30 28 26 28 60 106 82 32 16 17 15 17 15 15 15 10 13 12 13 12 12 11 13 12 11 13 11 20 24 25 22 20 22 21 24 24 24 23 23 26 26 27 25 24 25 27 27 27 27 27 32 29 28 26 29 29 28 28 30 33 30 29 30 33 28 30 26 30 18 19 21 23 21 23 17 13 
43 39 36 27 21 24 26 33 69 113 79 30 15 15 18 16 13 15 16 15 10 12 14 12 13 12 10 11 12 14 13 22 25 20 23 20 22 22 26 25 24 25 25 25 24 24 26 28 26 28 29 31 25 27 27 28 28 28 28 31 28 30 30 31 31 32 31 31 27 30 28 30 26 25 22 22 20 17 15 18 
106 103 96 88 72 70 64 62 90 114 83 33 18 16 17 15 16 15 17 10 10 14 12 11 11 14 14 12 9 11 13 21 22 20 20 20 24 25 23 26 24 25 25 26 23 26 25 25 25 27 27 24 29 26 29 28 25 27 25 28 27 31 28 29 31 26 31 29 28 27 26 31 27 23 26 26 24 24 18 16 
107 110 110 103 100 99 99 94 104 102 74 23 20 16 16 19 15 12 15 17 15 17 15 10 12 14 13 11 13 15 15 19 25 23 24 23 25 23 27 27 25 26 26 26 24 23 24 30 27 26 29 29 27 30 28 27 27 30 29 28 27 31 28 27 29 31 30 27 29 28 31 28 28 24 29 24 27 23 21 18 
61 67 75 81 83 95 95 93 96 84 53 18 16 14 15 16 14 16 16 17 16 16 14 14 15 13 15 14 14 12 17 18 23 21 23 24 23 23 28 26 27 27 25 26 25 25 28 26 26 28 27 28 27 27 26 26 29 26 28 29 26 29 26 30 30 31 30 31 28 26 31 33 30 27 28 26 21 26 19 21 
23 27 30 26 25 36 40 44 47 39 25 20 17 18 18 18 16 16 16 18 14 20 17 17 12 18 14 15 14 13 13 20 23 23 24 23 23 25 26 25 25 26 26 25 23 25 27 26 25 29 28 29 26 28 26 26 30 29 29 30 29 33 31 32 29 28 31 30 29 30 31 30 24 26 26 25 24 27 24 23 
24 19 20 21 19 21 24 24 26 21 20 17 19 17 17 20 15 18 17 18 17 18 15 18 15 16 12 15 17 16 14 21 24 23 23 20 25 25 26 26 26 27 27 27 28 25 28 25 28 30 27 29 29 28 32 29 29 28 31 29 30 29 33 32 30 30 34 31 31 29 30 34 29 30 27 24 26 26 20 22 
19 18 21 17 17 17 23 25 20 24 18 18 16 16 21 19 18 17 18 18 17 19 17 17 17 15 16 17 19 15 13 21 24 25 24 23 23 25 26 27 27 27 26 25 26 24 27 24 26 28 28 30 28 26 29 29 26 26 31 31 30 32 31 31 31 31 31 32 30 30 26 29 29 30 29 26 26 27 23 21 
22 20 21 22 17 20 25 22 23 24 21 19 19 20 20 19 16 20 18 18 20 21 20 20 18 17 17 16 19 17 15 24 27 25 22 22 26 26 25 26 29 26 27 26 28 27 27 27 27 30 32 31 27 28 31 29 32 26 29 32 30 36 33 33 31 33 34 33 32 31 33 33 34 34 33 27 28 29 24 26 
22 24 20 16 16 20 22 24 22 22 22 19 20 18 22 19 20 21 19 22 17 18 22 20 21 21 20 18 19 14 19 23 25 23 23 24 28 25 25 27 29 26 25 28 26 27 25 27 29 31 31 30 28 28 26 28 34 29 29 32 34 34 32 32 31 32 34 32 31 33 29 33 28 34 31 27 28 27 29 24 
23 23 20 22 17 24 21 20 22 22 19 21 20 21 23 24 22 20 19 19 19 21 19 20 19 19 17 18 22 17 15 21 25 25 26 27 26 25 25 25 24 28 26 27 29 27 29 28 28 29 29 30 29 28 29 29 28 29 28 32 32 32 31 32 34 32 36 32 31 32 30 36 31 31 33 30 29 31 27 24 
22 22 24 23 19 21 23 24 26 25 24 19 22 19 20 22 21 24 22 23 18 21 21 22 21 21 23 20 21 20 17 23 25 28 27 25 27 26 26 28 26 28 26 25 26 30 30 32 29 29 32 29 30 29 31 29 31 33 32 34 33 34 31 34 33 29 34 35 31 32 34 33 28 34 35 32 29 32 33 32 
21 21 24 23 20 23 24 22 28 22 19 19 22 21 21 21 21 24 24 24 25 25 22 21 22 21 24 19 23 21 22 22 28 27 23 25 29 27 26 26 28 30 30 26 29 30 29 31 31 31 30 30 29 32 31 31 33 32 30 30 30 33 33 33 33 32 35 34 33 32 29 33 29 30 33 29 32 34 31 36 
24 20 23 22 20 25 23 22 28 22 17 19 21 20 25 22 24 22 24 23 20 25 22 21 22 25 23 24 26 20 19 21 26 28 27 26 28 26 27 28 27 32 27 25 28 29 29 30 31 29 30 30 29 30 30 29 32 30 29 30 29 32 29 33 32 33 34 33 33 32 29 34 30 31 33 32 34 42 38 46 
30 18 22 21 19 20 25 20 31 20 20 22 21 20 25 24 25 22 25 23 24 23 23 25 24 23 23 25 26 23 24 24 28 29 25 28 25 30 25 27 29 27 29 29 29 31 32 30 29 31 32 29 30 29 29 30 32 28 28 30 30 34 30 32 34 32 33 35 33 33 32 34 33 30 31 34 50 51 38 36 
22 21 22 21 22 23 24 22 26 23 20 22 22 20 22 26 26 25 28 25 28 25 25 24 25 26 25 25 28 23 23 24 28 27 29 27 27 30 27 26 31 30 28 28 27 29 28 30 28 30 34 29 30 28 28 29 30 29 26 31 34 31 31 31 34 33 33 32 33 32 35 35 33 31 32 32 37 35 35 31 
24 21 23 24 21 23 27 23 26 25 21 21 22 23 26 24 26 28 26 27 26 27 25 26 29 28 26 27 26 24 22 22 28 27 27 30 29 26 31 31 30 31 29 31 30 32 32 28 28 28 31 32 31 30 28 33 32 26 32 27 28 33 27 32 30 33 35 32 34 34 32 35 36 32 35 34 37 34 37 37 
21 20 21 22 23 26 25 24 27 24 21 22 24 25 24 25 24 26 25 28 24 28 27 28 27 30 28 28 25 28 23 26 30 31 28 27 26 29 29 27 31 28 30 29 25 28 26 27 28 27 31 31 29 28 28 29 27 28 31 31 29 31 30 31 32 32 33 33 35 36 34 37 37 34 37 36 37 36 34 39 
21 21 21 25 19 23 28 29 28 25 20 23 23 24 25 26 24 31 29 28 29 30 28 30 29 28 28 27 29 27 24 26 29 34 30 29 29 30 31 29 31 29 26 29 27 28 28 29 28 27 31 29 28 28 29 26 27 29 31 30 31 32 30 35 29 31 35 35 33 37 36 40 41 45 50 55 66 78 91 111 
22 23 21 23 19 23 28 30 28 27 22 24 27 27 26 32 28 30 30 30 34 30 35 31 32 29 29 27 25 27 25 22 29 31 28 29 31 30 30 25 29 28 29 27 28 29 25 27 28 27 29 27 26 26 23 29 28 30 31 29 30 30 30 34 30 30 37 37 34 43 64 79 88 101 113 117 137 148 162 186 
23 21 25 23 21 26 30 27 25 26 24 24 27 27 28 26 29 30 32 31 30 34 29 33 33 32 32 28 25 27 25 21 29 31 30 30 30 34 29 30 28 31 27 27 29 28 30 27 27 30 29 28 27 26 30 28 25 32 29 26 32 33 35 34 32 32 37 37 35 60 104 121 131 134 144 150 163 181 197 224 
23 22 25 27 21 26 31 28 27 28 22 24 27 28 31 32 28 29 33 35 32 37 33 33 34 30 28 28 28 28 24 21 25 32 27 31 31 31 30 32 32 31 28 30 30 28 29 28 26 31 29 29 29 29 29 29 28 27 28 31 32 31 33 35 33 33 38 37 43 73 115 145 154 162 172 180 195 212 228 242 
22 22 22 23 26 30 30 27 25 28 28 24 31 26 26 28 32 33 33 31 34 35 36 35 38 35 36 37 33 32 33 30 25 27 30 32 32 31 29 33 32 31 29 30 30 29 29 29 30 30 32 29 27 27 29 27 26 28 30 27 33 31 32 34 30 33 37 37 40 67 117 153 161 173 179 192 202 221 236 245 
25 22 21 27 23 25 34 28 29 29 26 26 27 32 29 33 29 34 34 33 35 33 33 37 36 38 42 42 41 38 36 31 29 31 31 34 32 31 34 33 31 30 30 29 27 25 28 31 30 30 28 31 27 28 27 29 29 29 30 28 32 35 33 31 31 36 39 38 36 65 113 150 161 174 179 188 207 221 238 251 
29 21 23 24 23 29 34 27 27 31 28 24 30 32 30 30 34 32 34 34 34 39 35 38 35 38 43 42 39 38 34 31 29 29 33 31 31 30 30 32 30 32 29 31 29 28 29 29 27 28 32 29 28 26 28 28 30 30 29 28 29 33 34 33 34 34 38 34 38 62 110 144 162 169 177 186 200 218 234 254 
26 23 25 30 28 30 31 28 29 34 30 26 31 34 32 33 32 34 36 36 39 39 38 40 38 39 44 44 41 42 38 32 31 31 34 34 33 34 35 34 31 32 33 33 32 31 29 31 27 30 28 30 31 31 29 30 28 32 32 30 33 34 32 31 35 38 38 40 38 62 108 139 157 166 173 190 200 217 233 246 
31 27 30 32 26 31 31 33 32 32 33 30 33 33 35 35 35 37 40 39 39 40 37 42 39 45 43 45 38 43 40 34 30 32 38 36 34 36 32 37 34 34 36 34 33 31 29 30 32 30 30 29 31 30 35 34 34 33 35 30 32 32 34 33 34 38 38 40 42 55 104 135 154 164 172 186 200 212 231 246 
31 31 33 32 26 34 35 39 36 33 33 27 34 33 35 36 35 40 40 39 43 46 44 43 44 45 49 48 43 40 40 37 29 30 36 36 38 36 32 38 35 36 31 35 34 31 29 32 32 33 33 31 30 32 37 40 39 37 36 34 34 33 35 35 40 39 39 37 39 54 99 133 153 164 170 180 198 212 225 242 
31 30 32 34 32 33 38 36 35 38 36 31 36 31 36 38 37 39 43 44 45 48 47 45 45 45 50 48 46 42 43 37 34 34 39 39 38 38 36 39 33 35 34 35 33 32 35 33 31 32 32 37 36 36 47 45 45 42 36 34 36 36 38 35 36 35 37 39 40 51 95 133 148 163 167 176 180 182 210 243 
36 33 34 34 33 38 41 40 40 37 37 36 38 40 40 40 40 43 45 46 47 50 51 53 52 51 53 52 49 49 46 42 36 36 39 41 39 39 39 39 39 36 34 36 33 36 34 32 36 36 35 34 38 41 49 65 78 62 48 38 37 35 39 37 35 38 39 43 40 50 94 133 150 160 166 169 169 160 207 256 
37 39 40 40 35 37 45 41 39 39 41 36 41 42 42 42 46 47 49 49 53 55 58 55 53 55 57 57 56 52 50 45 39 39 44 43 44 43 41 42 43 41 39 37 37 37 35 33 34 33 40 37 41 44 76 195 170 103 61 46 40 40 37 36 40 40 42 40 46 52 89 132 151 162 168 176 179 192 223 243 
44 42 40 47 40 45 45 42 43 45 46 41 39 44 45 47 49 52 54 53 57 60 63 58 62 61 59 59 57 53 54 45 43 42 45 46 47 42 41 41 39 40 42 36 39 39 37 40 38 38 43 41 40 47 94 237 181 100 58 42 40 39 38 36 38 42 43 43 47 54 89 126 146 160 171 174 190 203 220 235 
48 46 48 48 43 45 51 48 48 48 47 43 44 49 48 49 54 58 57 60 60 63 62 60 65 64 64 62 60 56 52 46 41 43 47 48 43 46 39 38 40 40 38 38 42 42 37 37 38 39 39 41 41 44 60 92 92 67 52 45 37 39 37 38 39 42 42 44 42 45 85 121 148 163 166 176 191 206 219 231 
55 53 55 55 49 53 56 54 51 49 51 50 51 53 56 55 59 62 59 61 65 68 68 75 76 72 78 72 65 59 52 51 44 45 49 50 46 39 39 42 41 42 41 41 42 44 39 43 41 41 42 44 40 42 48 52 56 52 47 41 39 43 42 40 38 43 42 41 41 49 81 125 147 161 171 180 193 206 216 229 
72 70 66 58 51 54 60 56 52 54 50 52 52 57 58 57 60 64 66 68 72 72 75 80 77 82 81 74 66 61 54 51 45 46 49 50 49 47 58 70 46 44 49 46 44 44 44 43 41 42 46 42 41 43 43 48 51 45 46 39 42 40 42 43 42 43 40 40 41 43 73 130 146 163 172 180 192 207 216 226 


