P2
80 60
251
19 19 18 24 35 43 83 94 74 44 60 93 89 51 42 35 32 31 31 28 28 29 25 23 25 25 23 27 35 33 34 32 32 28 25 29 30 24 26 25 26 28 28 28 25 27 29 29 27 24 17 18 16 15 15 15 17 17 20 16 17 16 18 23 20 18 17 22 21 28 20 20 20 19 17 17 20 12 17 10 
16 20 20 21 32 49 90 101 71 44 63 95 84 45 38 32 32 31 32 29 27 27 23 27 23 21 25 29 33 30 33 30 31 33 29 26 27 24 26 25 22 27 26 27 26 27 30 31 28 22 17 16 15 15 16 16 19 15 16 18 18 17 18 23 23 17 20 25 23 26 19 22 22 16 18 17 17 15 18 15 
18 17 21 21 36 49 95 98 66 47 70 91 78 41 37 34 29 29 31 28 30 27 24 28 25 25 32 32 34 33 34 34 30 27 25 29 30 29 25 28 24 29 27 26 26 32 27 29 30 25 18 19 20 17 15 18 20 20 19 20 24 22 28 27 26 17 18 18 22 25 21 21 19 19 19 22 20 14 15 10 
19 16 19 26 37 52 99 100 53 44 74 92 73 37 33 29 27 28 30 26 28 27 24 27 25 28 30 27 32 31 34 34 29 25 27 24 27 24 28 27 25 29 27 27 28 31 28 31 28 25 23 23 24 24 25 24 23 25 29 26 24 27 25 29 27 19 20 22 22 21 21 23 19 19 22 18 19 11 12 5 
18 18 21 27 36 62 110 97 53 45 76 95 67 34 32 28 26 27 30 24 26 22 28 27 26 30 27 29 33 33 35 30 30 27 27 25 25 22 26 21 26 27 26 25 27 28 29 29 28 31 28 26 24 24 29 29 25 30 29 27 26 26 28 26 26 22 20 19 23 26 21 23 20 22 17 20 20 11 14 7 
19 18 20 30 38 69 103 90 51 45 88 89 65 34 29 26 26 26 27 23 27 27 29 28 26 27 31 31 29 33 32 29 30 30 29 28 27 24 25 26 23 21 27 28 28 31 30 30 30 30 27 26 32 26 26 28 27 30 29 28 25 28 25 27 24 20 21 16 23 23 22 22 19 21 20 21 18 12 11 8 
19 18 22 29 38 67 102 90 44 48 86 87 57 30 32 26 25 27 30 27 23 27 23 29 28 29 27 27 31 32 32 30 30 28 26 28 27 29 26 23 25 23 23 25 25 28 29 30 30 29 30 28 27 25 28 27 25 23 27 26 25 27 26 26 23 21 21 18 23 22 21 22 21 23 21 21 17 9 12 9 
13 13 18 28 37 67 102 85 43 47 87 87 49 30 26 26 25 22 25 27 26 23 22 21 23 24 25 25 28 31 29 29 30 23 26 26 24 24 24 25 27 25 27 25 27 25 27 26 27 27 28 25 27 28 21 23 25 23 26 25 24 24 28 27 24 23 19 16 21 22 23 20 20 23 21 20 14 8 12 8 
5 7 9 25 26 66 104 81 37 49 91 83 46 26 24 24 20 25 26 21 24 24 22 22 26 24 24 26 32 28 31 26 28 25 27 26 26 23 27 23 23 22 24 24 26 26 25 28 27 28 25 23 24 24 24 23 24 22 24 24 24 26 25 25 25 27 20 17 20 22 23 25 20 21 19 19 10 12 12 10 
8 3 0 0 10 75 103 77 29 46 100 81 44 26 24 23 20 21 19 21 24 22 23 24 26 24 26 24 30 29 31 27 28 28 26 24 25 27 24 24 27 27 27 25 30 29 29 31 26 26 25 26 22 24 25 20 25 25 25 29 28 27 29 25 28 24 22 16 22 25 20 23 21 25 19 20 14 12 10 15 
15 13 6 3 12 79 102 68 23 51 103 86 30 14 12 13 17 20 20 22 22 21 23 22 23 26 24 26 24 24 29 28 25 28 24 23 23 23 23 26 24 23 27 25 28 28 28 28 26 26 25 21 24 24 24 24 26 27 28 30 29 30 25 27 28 24 23 14 23 28 23 23 24 22 22 20 14 12 12 9 
14 15 14 13 19 88 102 64 22 59 102 80 22 11 10 13 8 12 15 15 16 18 19 20 21 23 22 22 27 28 32 27 26 26 24 25 24 25 22 23 22 26 27 25 26 28 27 28 28 23 25 27 25 26 27 23 29 28 29 30 26 33 26 27 27 25 24 20 21 22 24 23 21 25 23 19 15 12 13 4 
13 13 16 15 15 84 97 65 25 61 105 73 20 14 10 12 9 9 12 9 7 9 11 12 13 16 17 16 21 24 25 22 24 24 21 24 22 21 24 25 23 23 26 27 26 27 28 25 26 25 25 26 25 24 27 25 27 26 28 26 27 29 27 26 24 27 26 17 20 23 25 27 22 24 22 21 20 11 12 7 
15 13 14 14 20 91 92 53 30 69 105 67 23 13 12 12 9 11 10 8 9 6 7 10 8 8 8 10 11 11 14 14 19 18 23 21 22 23 25 22 25 26 25 24 26 27 27 31 29 28 27 26 26 29 28 28 27 27 26 30 28 28 25 25 23 29 25 19 19 24 28 25 20 24 25 22 18 11 15 5 
11 12 13 16 34 92 86 46 27 76 101 59 23 14 14 13 15 10 11 9 10 6 8 7 8 8 9 10 12 9 11 7 8 6 6 12 18 23 21 22 25 22 26 24 28 26 27 30 31 26 29 28 28 28 26 28 26 27 28 30 31 30 27 28 26 27 30 22 16 23 22 24 24 23 22 22 21 11 11 8 
10 12 12 16 37 95 86 45 28 78 100 58 22 13 14 14 13 10 13 7 10 9 8 9 5 9 10 6 8 14 12 10 8 4 6 16 18 21 19 24 22 22 23 25 28 25 26 28 30 29 28 25 27 29 28 26 28 27 29 27 28 27 29 25 27 29 31 20 14 21 25 25 25 23 25 22 21 14 11 15 
18 11 13 18 42 95 84 41 24 84 93 51 21 13 14 16 13 14 11 11 11 11 11 10 7 8 8 7 12 11 14 10 10 16 21 22 22 22 24 19 20 22 22 25 28 24 28 27 29 27 27 26 28 27 31 27 27 28 26 29 28 28 29 28 26 29 31 23 15 19 25 26 24 24 25 23 22 18 15 12 
15 10 16 18 48 100 80 40 30 90 91 49 22 16 15 13 16 14 14 8 14 14 12 14 9 9 10 9 14 13 14 18 24 24 26 24 26 25 26 23 29 26 30 27 28 27 32 29 28 28 29 30 32 28 30 30 28 28 31 28 29 28 29 27 26 29 31 26 17 20 23 28 28 23 26 23 24 21 14 17 
15 13 18 18 51 93 74 36 28 91 88 47 19 16 16 15 11 16 16 13 15 11 14 10 11 12 9 11 11 12 21 25 26 23 24 23 23 22 25 22 23 21 26 23 27 28 28 28 28 27 30 28 29 28 28 29 25 28 28 28 31 32 28 33 27 32 32 28 17 20 21 24 24 24 27 22 26 21 24 16 
17 15 17 19 61 96 78 33 31 90 86 42 20 13 14 12 17 15 17 15 12 11 14 15 12 11 13 10 15 18 21 27 27 25 22 21 24 23 23 24 26 24 24 24 27 27 28 28 30 27 29 28 28 31 29 27 31 31 28 29 31 30 28 29 30 28 33 25 17 16 17 24 27 24 27 19 24 22 24 13 
22 18 18 23 71 98 77 35 36 101 86 40 22 18 18 16 20 17 19 13 14 14 9 13 10 17 11 14 14 16 21 26 28 28 23 21 23 24 21 21 24 24 26 30 26 29 29 28 28 28 30 30 28 27 28 26 26 29 30 29 31 31 31 29 28 31 32 26 20 18 17 24 26 22 24 21 23 25 20 16 
46 33 31 35 88 108 80 35 39 98 85 36 20 17 17 16 14 17 18 13 13 15 13 15 12 11 10 10 13 18 16 22 23 23 24 21 22 21 22 24 26 23 27 26 26 28 28 31 30 30 28 28 28 31 29 26 28 29 27 25 29 30 31 32 30 29 31 30 23 17 15 23 21 21 22 22 23 21 21 16 
101 92 90 87 108 104 66 30 48 98 83 37 20 16 13 15 13 15 21 13 15 11 15 13 12 11 14 13 16 16 14 23 24 22 23 19 23 22 21 21 24 22 27 26 26 26 26 29 28 28 30 31 28 28 27 27 29 26 29 27 31 30 29 29 26 30 31 30 24 21 13 16 23 21 22 24 25 23 20 21 
97 94 97 96 97 87 51 36 55 99 82 28 20 14 16 16 13 16 14 14 16 12 13 15 10 12 11 12 12 15 15 19 21 23 22 21 24 25 21 21 24 26 24 29 26 27 26 25 30 30 29 28 29 27 28 28 27 28 27 28 28 28 31 31 28 28 33 31 28 26 16 14 20 19 19 25 23 24 21 15 
57 59 71 79 77 64 35 35 62 104 84 34 24 18 16 19 16 19 21 17 14 16 17 16 15 14 17 13 17 16 20 22 26 23 23 22 26 24 25 22 28 27 26 27 29 30 29 32 30 31 29 31 32 30 27 29 30 29 29 30 33 34 34 34 31 29 30 32 29 30 23 17 17 17 21 21 22 23 20 13 
30 26 25 28 30 29 27 33 65 111 83 36 22 19 18 18 18 18 19 17 14 14 18 17 16 15 16 16 17 18 19 23 28 28 24 25 27 27 27 26 28 25 26 29 32 29 29 30 29 30 29 30 31 30 32 29 28 28 29 31 31 30 30 32 30 31 33 29 31 29 26 25 17 14 17 20 18 21 18 15 
47 39 33 28 21 24 27 38 73 116 85 32 23 20 19 15 17 18 20 18 16 17 16 17 15 15 13 15 19 18 19 24 27 27 25 24 25 25 27 26 25 28 32 27 27 28 29 28 27 28 29 29 28 31 28 28 29 31 31 29 30 33 31 31 27 32 31 34 30 29 27 26 24 18 14 19 16 17 16 16 
107 102 97 83 70 67 60 68 96 120 84 32 25 19 20 18 17 16 20 16 14 17 17 19 15 17 17 15 17 14 18 25 23 24 24 23 28 27 26 27 27 25 29 28 28 28 29 30 28 31 29 27 30 27 30 28 25 28 29 27 31 31 31 31 30 29 32 30 31 32 26 28 25 27 27 24 20 19 20 14 
106 106 106 100 97 95 93 96 104 103 73 27 21 21 19 19 18 19 20 19 19 19 18 19 17 18 20 16 21 17 18 20 28 26 26 25 28 27 29 30 26 28 30 29 27 28 26 31 30 28 31 33 33 30 28 28 28 29 27 28 26 31 29 30 30 32 33 33 30 30 30 29 25 25 26 29 28 21 19 20 
61 63 73 78 78 86 90 97 94 85 56 20 22 20 20 22 20 18 20 19 22 20 18 23 18 19 20 18 20 15 19 22 25 24 28 28 25 28 32 26 29 28 30 26 29 31 30 30 30 29 28 28 29 29 29 26 27 27 27 30 29 31 30 32 30 34 33 32 31 31 29 34 28 26 27 26 23 27 23 18 
26 26 31 28 30 37 43 49 53 42 26 20 21 20 23 21 21 20 19 18 23 23 21 24 18 21 20 22 19 17 17 26 28 29 28 28 25 29 29 28 29 28 33 29 28 30 32 28 33 30 32 30 29 30 27 30 30 29 31 35 31 34 30 33 31 31 33 34 31 32 33 32 30 28 27 26 28 27 24 18 
23 19 21 20 23 21 28 28 30 27 24 22 21 22 20 23 20 23 24 22 23 23 21 21 20 19 21 18 25 20 20 23 30 27 29 26 28 29 29 29 30 30 29 31 33 28 30 31 34 33 31 31 33 31 30 32 28 29 32 27 35 32 32 35 31 30 34 33 32 31 33 33 31 30 27 26 29 27 27 22 
20 17 23 20 23 21 27 28 25 27 23 21 22 20 26 25 23 21 23 21 21 24 22 24 24 21 21 21 24 21 21 25 29 28 29 27 26 28 29 27 29 30 30 30 32 27 31 29 31 29 33 33 29 30 30 29 28 29 29 32 33 31 32 30 30 32 33 35 33 29 29 31 30 31 29 25 29 28 25 22 
21 21 23 22 22 20 25 25 25 29 24 21 21 22 23 24 24 24 25 22 23 24 26 23 24 22 24 21 24 23 21 24 31 29 26 25 28 31 27 27 32 31 32 32 31 30 32 30 32 33 33 32 31 32 33 33 32 29 31 33 35 35 32 34 33 36 35 35 31 31 34 33 32 35 32 26 29 30 25 24 
24 22 22 17 21 20 24 27 26 27 24 20 22 24 25 24 22 23 25 26 25 21 24 23 23 24 24 23 25 21 22 25 28 26 28 29 30 26 28 29 30 29 26 31 30 31 29 31 32 34 31 32 32 31 30 29 33 30 27 32 32 33 34 34 34 35 37 34 32 33 28 32 33 31 29 27 26 27 25 27 
21 24 24 21 19 20 24 26 28 27 23 20 26 23 27 25 26 23 24 24 25 26 26 26 24 23 23 24 28 23 22 26 30 28 30 31 30 30 28 28 28 34 29 31 31 32 33 31 32 33 29 34 33 31 34 30 29 32 29 33 35 34 34 31 31 32 35 36 32 35 32 31 31 33 33 28 29 32 34 26 
26 21 23 20 22 22 25 28 28 27 25 19 24 26 25 23 25 26 25 25 24 26 25 27 25 24 27 25 30 24 22 30 33 31 30 32 29 30 30 29 32 32 31 30 31 34 34 35 33 34 34 34 32 30 32 31 33 32 32 33 34 34 34 35 31 32 34 36 34 33 33 31 30 34 31 28 29 30 33 29 
19 19 23 21 22 21 26 28 28 27 24 22 24 27 26 23 23 29 25 24 28 26 23 25 25 26 28 26 30 26 23 27 34 33 28 29 31 32 27 29 33 33 33 29 30 35 36 35 33 33 30 34 32 32 32 32 33 32 30 32 36 33 32 32 33 34 37 32 32 35 33 30 32 30 30 27 32 29 35 30 
23 18 20 21 20 27 26 28 30 27 22 19 25 23 26 25 28 26 27 26 23 26 26 27 25 29 26 28 30 27 23 24 30 33 33 30 30 28 30 28 31 32 28 28 34 32 34 35 35 31 33 33 33 31 31 30 32 30 29 30 31 33 31 32 31 32 35 33 35 35 32 32 32 32 31 28 35 39 37 39 
22 20 21 23 22 22 25 25 33 29 24 25 26 22 26 29 25 26 30 23 29 26 29 30 28 27 28 32 29 29 30 26 32 31 29 32 31 33 29 28 31 29 33 30 33 34 38 32 32 32 31 31 32 30 33 33 33 31 28 31 36 34 31 31 29 34 36 34 34 34 33 34 33 30 31 35 53 48 42 32 
21 22 24 20 24 24 25 28 29 26 21 22 26 27 27 28 27 29 28 27 32 28 29 29 30 31 30 28 31 31 28 28 30 31 31 31 30 30 33 27 34 33 33 32 34 33 30 32 31 33 34 30 35 33 32 29 29 31 29 30 34 34 32 32 31 34 35 34 31 33 35 36 31 31 32 31 37 36 40 36 
21 18 23 23 23 24 28 27 28 28 24 24 26 23 28 30 28 29 30 29 34 30 31 32 33 32 30 30 33 28 28 27 31 30 34 33 32 31 33 29 34 32 34 34 31 36 34 32 37 32 30 34 31 32 32 32 35 28 31 29 30 31 31 34 32 35 40 37 33 38 32 34 34 34 33 33 37 37 39 36 
25 22 23 22 25 27 28 29 28 27 23 23 27 28 31 29 30 30 33 29 33 30 32 33 31 34 28 33 31 31 28 28 35 32 33 31 32 34 32 31 37 30 34 30 32 32 32 32 31 30 32 31 29 30 29 27 28 31 27 29 31 32 32 34 33 33 35 33 32 34 33 38 37 37 38 37 37 38 41 34 
21 19 22 19 24 25 31 35 31 29 23 23 28 27 29 29 28 31 32 31 33 35 33 37 29 35 32 33 33 31 29 29 34 36 34 34 33 33 34 31 34 33 31 32 30 30 30 29 32 30 32 31 30 29 30 28 26 30 29 29 31 32 32 34 30 32 35 38 33 35 37 39 41 43 55 57 66 80 94 105 
23 20 22 19 24 28 31 35 29 29 26 27 31 30 28 30 31 34 36 36 36 35 34 35 36 34 31 31 32 30 30 28 31 32 35 33 34 31 35 30 34 33 33 31 32 31 30 31 32 32 32 26 27 28 30 32 28 29 32 31 33 33 34 33 33 35 38 39 36 44 66 80 90 106 112 125 136 149 166 182 
25 23 25 22 26 28 32 36 31 32 28 28 30 33 31 30 32 35 37 37 37 38 38 37 39 37 33 31 32 33 32 28 34 33 32 33 33 35 33 33 34 34 32 32 35 32 33 32 34 33 32 30 32 29 30 28 24 33 29 29 33 36 36 35 33 36 40 39 36 67 108 120 134 137 146 157 171 183 203 221 
21 23 25 23 25 27 32 33 30 31 25 29 30 33 33 32 34 34 37 35 36 40 38 41 38 35 33 31 33 33 35 24 30 35 31 31 35 34 34 34 36 34 33 33 32 33 31 30 31 30 32 33 32 32 31 28 32 28 30 32 35 33 35 34 33 35 41 39 43 75 116 148 157 162 177 183 197 215 235 242 
27 24 25 24 29 31 29 36 27 34 31 28 38 32 31 32 35 33 37 36 37 38 38 40 39 38 41 42 40 40 39 34 31 31 35 36 34 33 35 34 35 35 32 32 33 31 33 33 32 31 34 31 31 31 31 27 28 30 33 33 34 33 31 35 31 34 39 39 40 70 122 153 162 174 185 193 206 223 245 249 
26 24 25 26 22 27 34 31 32 35 26 28 34 33 33 36 35 35 41 35 39 37 40 40 41 45 46 46 42 43 43 36 33 34 35 37 34 33 39 35 36 34 33 33 35 30 34 34 33 33 31 33 32 30 30 30 30 32 29 29 32 37 36 34 31 33 39 38 39 67 117 150 165 179 184 192 208 222 243 251 
26 24 25 25 27 30 32 35 33 32 31 28 33 31 32 35 35 35 38 38 39 41 39 41 44 42 47 44 46 42 41 35 32 32 39 33 35 33 34 35 36 36 37 36 33 35 33 34 31 34 31 31 33 30 30 27 29 32 35 30 32 36 36 36 32 35 38 36 39 62 109 145 166 172 180 191 203 219 241 246 
26 25 26 30 27 30 34 33 33 36 31 30 35 36 34 36 36 38 41 39 43 40 42 43 44 43 47 48 46 48 42 37 34 33 38 38 37 35 40 36 36 35 37 34 33 34 32 33 30 32 34 33 33 32 32 30 28 33 32 31 34 36 35 34 36 38 39 38 39 63 107 141 159 168 176 192 200 218 240 245 
29 36 29 28 29 30 34 36 34 37 36 33 34 34 38 37 37 44 43 43 45 45 43 45 46 48 50 48 49 47 45 38 35 34 43 38 38 37 38 39 37 33 37 36 33 39 33 34 34 31 34 34 31 33 35 34 34 32 34 31 35 35 38 38 35 39 43 38 41 57 103 139 154 166 175 188 199 215 239 237 
34 29 36 26 31 32 36 40 38 40 36 33 35 36 38 38 40 43 44 43 46 46 47 48 47 48 53 49 47 45 47 40 36 36 41 39 38 36 38 36 41 36 36 36 37 36 33 34 36 35 36 35 35 36 40 40 37 36 37 35 35 35 35 35 36 40 39 38 39 55 105 137 155 169 174 185 195 208 230 240 
31 31 36 30 35 35 39 41 41 45 40 38 41 37 40 40 40 40 46 46 51 49 51 48 48 49 54 50 50 47 49 40 37 37 40 42 42 39 36 40 36 39 39 38 38 36 37 37 36 35 36 38 38 38 48 45 43 44 42 36 38 37 40 39 36 38 38 41 41 54 97 134 151 164 167 178 180 184 213 238 
33 34 34 35 34 39 42 42 42 42 39 42 45 40 43 41 43 49 50 49 54 51 53 57 54 58 57 56 53 55 50 45 42 41 43 44 42 43 42 41 39 41 39 39 39 41 39 38 38 40 39 35 41 43 50 65 77 68 47 40 40 36 40 41 37 39 41 44 42 53 93 132 152 166 170 174 174 167 212 241 
38 38 41 37 37 40 49 47 45 45 42 43 46 46 45 49 47 51 53 54 57 60 59 57 57 60 62 62 61 59 56 47 43 42 45 46 44 45 45 44 45 41 44 40 39 40 40 39 40 42 41 40 44 46 80 196 168 102 59 44 44 40 40 39 38 40 45 41 44 52 90 128 153 163 170 180 181 193 230 240 
44 39 44 41 42 43 51 47 46 47 45 43 45 46 48 49 52 54 56 56 63 60 65 66 66 64 65 62 62 60 57 46 44 47 52 48 48 43 43 41 41 42 47 40 42 42 43 43 43 41 41 43 48 49 95 242 182 103 57 47 41 42 39 38 39 39 43 41 45 56 88 128 149 164 173 179 193 206 228 231 
50 44 47 46 50 45 52 54 51 50 50 45 46 50 53 52 57 56 59 64 66 66 71 68 70 71 72 69 66 60 56 53 47 46 48 54 47 47 41 41 41 44 45 43 45 43 40 42 43 42 41 41 44 45 62 95 92 71 50 45 41 41 38 39 39 41 41 42 42 50 87 126 153 167 167 178 191 206 225 229 
56 50 56 53 54 55 59 58 55 52 48 51 52 54 54 55 55 61 61 65 69 73 76 79 82 76 77 76 68 64 60 51 48 49 49 52 48 41 40 44 44 46 48 44 47 49 43 46 45 44 44 46 46 43 47 55 57 53 46 44 42 42 38 41 40 43 44 42 44 50 80 127 149 165 172 180 194 207 222 229 
74 67 66 53 53 54 62 58 54 55 51 54 55 58 61 61 55 63 69 70 76 72 80 81 83 82 81 79 70 66 60 54 51 49 50 52 50 51 56 71 48 50 53 47 45 49 46 47 44 46 47 45 43 46 44 46 49 49 41 43 43 38 37 39 39 40 44 41 41 47 75 131 148 167 171 179 189 207 225 223 


