P2
80 60
560
133 170 190 188 189 188 185 191 186 186 180 178 180 182 202 211 209 197 186 182 171 169 173 174 148 82 34 14 14 17 16 21 21 13 26 47 133 185 194 198 198 200 206 241 253 232 209 232 261 243 207 203 208 200 199 192 184 180 173 172 173 173 176 171 178 180 176 179 184 184 184 183 188 187 189 193 194 195 191 190 
122 127 154 192 195 193 187 192 189 187 181 181 183 179 180 202 215 211 205 195 177 162 164 164 152 102 48 20 8 8 18 19 21 8 25 40 115 184 194 200 195 197 207 249 253 210 204 245 255 221 201 204 202 199 189 185 179 174 171 166 171 173 174 176 174 179 178 177 181 183 188 185 187 187 186 192 194 192 186 191 
143 142 143 167 198 205 194 195 189 187 179 186 194 193 180 176 185 200 217 214 201 182 148 142 147 128 74 34 17 1 0 2 1 7 30 44 118 184 196 195 195 198 227 249 230 202 218 254 242 204 198 204 202 194 187 183 176 174 171 171 168 172 177 173 176 179 178 178 184 188 191 187 187 185 188 190 192 193 183 186 
159 167 163 164 182 199 204 207 192 191 183 186 204 189 182 182 176 175 195 204 207 206 174 112 105 148 121 66 34 10 3 5 11 19 41 67 142 183 190 192 190 206 240 246 206 200 238 251 224 197 203 203 201 193 186 180 176 172 170 172 172 172 176 174 174 183 180 186 186 190 189 187 190 191 190 190 192 193 185 193 
163 172 171 171 186 195 197 206 208 201 193 204 192 181 179 188 183 180 168 175 186 194 187 175 140 173 164 118 70 36 15 21 24 39 67 106 160 179 184 187 198 224 246 227 203 209 247 244 203 199 204 203 194 188 182 181 175 173 172 175 170 179 177 176 180 180 187 185 187 185 189 189 188 190 187 190 195 192 184 183 
166 171 169 174 189 192 192 197 203 207 206 204 188 184 186 190 184 185 178 171 163 183 193 185 170 172 175 158 124 84 62 61 70 86 121 154 169 176 182 192 205 241 240 207 201 231 248 224 198 200 203 196 192 182 179 180 176 176 174 174 176 179 181 184 188 188 190 190 191 186 189 188 188 189 187 190 195 195 185 186 
164 174 170 186 193 192 189 187 185 190 200 203 196 182 188 187 184 184 179 178 172 167 186 186 168 166 158 148 143 99 104 124 142 152 171 170 176 180 186 198 223 246 227 198 205 242 243 207 199 201 204 196 184 180 177 176 176 181 180 177 181 185 185 190 190 189 189 194 193 190 189 186 188 188 185 193 190 195 185 185 
169 170 180 187 193 188 186 181 165 151 184 195 203 201 192 186 184 186 182 180 177 176 177 166 163 157 148 143 151 117 92 135 153 162 176 171 175 180 194 206 247 252 205 195 221 251 232 197 199 204 197 188 179 179 177 178 180 183 180 182 187 188 193 190 190 190 190 191 191 192 191 186 186 188 186 189 193 190 183 184 
172 181 194 192 188 187 184 177 137 142 185 195 193 192 201 196 190 186 181 183 180 180 184 182 159 148 159 162 173 175 169 153 153 160 166 167 176 189 196 233 258 237 196 202 242 257 211 200 202 208 196 187 182 179 180 182 181 183 187 190 190 195 197 189 192 191 191 190 191 189 188 189 185 187 188 191 192 191 186 187 
175 194 193 193 185 184 177 167 137 165 200 201 191 189 192 201 201 193 184 183 178 180 181 182 176 171 162 161 168 167 165 182 167 157 153 165 183 195 212 253 255 212 194 224 259 244 198 199 206 201 189 185 179 177 181 186 186 185 191 188 194 194 192 193 192 189 190 192 187 189 190 189 188 188 187 189 191 192 187 183 
191 195 198 189 185 184 172 163 159 198 211 191 196 196 194 198 193 199 193 183 179 181 182 179 179 187 179 166 158 157 158 167 177 180 170 173 187 200 238 260 242 196 203 254 260 218 194 202 203 196 189 183 181 184 184 185 189 193 192 192 191 195 191 190 189 190 189 189 188 190 190 188 189 189 189 189 191 192 182 190 
197 201 192 185 179 184 182 185 197 223 208 200 203 196 192 191 194 192 195 194 188 182 183 181 188 182 179 175 170 155 154 164 174 171 181 181 195 210 255 263 214 197 227 265 248 202 197 207 205 194 191 187 185 187 189 193 196 196 193 196 194 195 192 192 189 190 192 193 189 190 189 190 187 188 188 190 189 193 183 187 
198 198 192 188 186 184 186 192 215 217 205 203 204 195 191 190 190 196 186 191 192 193 185 191 187 178 181 176 178 173 161 151 160 174 181 188 198 232 260 247 196 199 254 264 226 197 199 204 201 195 190 191 189 192 193 195 196 195 196 191 193 194 193 191 190 192 191 188 189 189 190 192 191 188 187 191 192 189 187 184 
201 204 196 188 184 186 188 210 224 208 204 206 207 203 199 192 191 196 183 182 184 186 196 194 179 179 176 177 177 175 171 172 167 181 188 193 206 255 264 220 191 223 261 251 204 197 205 205 202 200 196 196 196 198 196 194 196 195 197 193 193 193 193 190 194 189 189 189 189 189 189 187 190 190 189 191 190 192 184 183 
198 197 204 197 198 193 202 225 218 211 203 206 208 211 212 207 204 192 184 180 179 179 184 186 181 178 178 177 178 177 170 176 178 178 194 199 233 266 251 199 198 251 258 225 200 200 203 205 197 199 200 200 196 197 196 196 193 196 197 192 191 192 195 190 190 191 194 189 191 189 189 186 189 191 189 189 192 192 183 186 
195 195 201 208 212 205 220 224 213 210 206 209 211 216 219 217 212 184 181 180 177 177 181 176 177 174 175 176 178 174 170 171 179 177 200 207 252 266 223 193 217 259 249 203 197 202 203 202 202 200 198 198 197 198 197 196 195 194 192 195 190 195 197 191 187 192 192 190 186 189 188 189 188 188 188 189 190 192 188 184 
196 194 199 203 216 224 227 215 211 208 212 213 214 217 188 195 147 120 154 177 177 177 181 176 177 173 175 175 177 175 170 174 177 189 206 232 264 254 200 199 243 263 227 199 197 203 203 199 201 202 197 200 197 195 198 195 193 196 190 193 191 193 197 190 190 192 190 190 195 189 192 191 187 189 188 189 188 194 181 184 
213 201 196 199 218 230 213 211 211 214 213 214 220 203 195 192 116 85 96 150 172 176 180 173 171 171 171 176 179 171 171 173 183 194 214 254 264 223 197 214 262 256 209 199 200 201 199 199 200 203 198 197 195 196 196 195 197 197 194 193 195 193 197 193 189 191 192 192 191 191 194 189 192 190 188 188 190 194 187 188 
243 234 217 212 228 219 210 210 209 213 209 217 223 198 222 182 111 84 71 97 154 176 178 178 171 174 173 174 174 173 170 173 191 199 237 265 248 201 200 244 261 239 200 199 198 196 195 198 197 199 198 197 196 196 195 196 196 196 193 194 194 199 200 191 190 192 192 188 191 190 193 186 190 189 189 189 192 196 185 186 
253 249 247 239 230 210 206 213 207 213 209 221 206 215 219 188 135 96 73 74 121 170 172 174 171 171 174 173 173 174 167 180 196 210 263 255 224 195 211 261 257 216 199 197 199 195 191 195 194 198 196 195 197 193 197 196 195 194 192 194 193 197 198 191 194 191 194 194 190 189 191 189 191 193 191 193 192 190 185 184 
254 272 265 266 250 229 212 218 214 211 214 215 213 231 203 191 174 154 104 85 116 162 162 168 169 172 172 175 177 177 170 188 198 231 264 244 199 198 237 266 240 204 199 197 197 194 194 196 195 196 196 196 196 193 194 198 198 195 194 193 192 198 199 192 191 194 191 193 192 187 192 191 191 189 190 189 194 190 182 182 
271 293 315 362 292 252 228 216 211 210 219 207 230 213 200 182 175 173 165 134 134 168 163 163 158 167 171 169 175 174 176 190 203 256 259 223 191 209 257 259 216 201 195 194 195 194 193 194 196 195 196 194 193 193 196 195 193 193 193 192 191 196 196 192 192 190 187 193 192 192 192 193 189 190 187 193 194 193 183 184 
288 306 435 560 327 263 220 212 209 223 213 220 224 190 184 179 174 178 175 172 170 179 171 168 156 153 161 170 173 172 184 195 235 270 249 201 192 233 260 244 199 190 188 193 195 192 192 194 190 193 189 195 191 193 194 194 193 193 191 190 191 192 197 193 188 192 189 190 191 190 188 188 191 185 188 187 190 190 184 191 
301 341 502 418 298 245 215 209 216 227 211 234 210 186 184 181 177 180 177 177 174 178 176 177 170 162 157 160 166 177 184 204 258 250 233 191 204 260 257 219 194 194 191 190 190 193 192 195 193 189 193 190 193 194 191 195 192 193 194 192 193 195 195 194 192 191 193 193 191 191 189 187 189 188 188 192 189 193 189 183 
316 439 450 323 265 230 209 215 231 218 229 227 205 185 186 183 181 181 179 182 178 181 177 177 178 174 173 163 160 159 175 215 262 243 211 193 231 263 246 202 191 189 188 187 192 195 194 193 192 194 192 190 189 189 194 194 195 194 194 194 191 198 195 194 190 191 192 189 189 191 190 189 188 190 189 188 191 193 187 186 
373 477 355 290 236 218 210 224 223 218 228 214 204 187 187 183 181 181 182 181 181 178 178 176 173 174 178 173 169 151 156 246 257 229 197 197 253 256 221 194 189 188 185 185 188 191 188 189 192 194 192 191 190 190 192 193 191 192 193 189 195 196 196 193 193 192 191 191 191 193 190 187 192 191 191 188 192 192 184 184 
462 410 314 272 241 221 221 233 214 229 219 202 196 187 187 182 180 181 184 183 177 175 174 173 171 174 176 176 176 174 196 265 250 200 189 222 260 242 198 188 188 185 186 185 187 187 187 189 192 195 191 193 193 193 193 194 191 195 194 189 192 195 196 194 191 191 191 192 191 188 190 186 190 189 189 191 190 192 183 188 
456 340 294 272 269 257 241 221 222 231 203 195 190 185 186 187 179 181 180 182 177 172 172 172 168 170 174 174 179 183 241 261 237 182 187 243 254 224 192 189 183 185 186 183 186 187 189 192 192 195 194 194 193 195 194 191 191 192 192 191 192 194 193 192 194 193 189 189 188 187 192 186 191 186 191 192 189 191 187 188 
379 310 270 273 269 270 264 253 238 210 193 193 193 183 185 190 185 186 183 182 176 173 174 174 174 173 170 173 180 196 263 256 208 177 218 270 246 198 185 184 181 184 183 181 182 186 187 190 194 193 195 192 193 196 192 191 193 192 191 191 192 194 197 194 192 188 191 193 189 191 189 192 191 192 191 191 193 194 184 183 
327 275 229 242 261 269 271 270 265 236 206 197 198 187 186 189 187 188 186 179 173 173 171 173 174 174 174 174 185 239 267 246 195 185 254 272 235 179 178 177 178 184 178 182 185 186 188 193 190 197 194 192 193 195 195 195 192 190 192 192 191 191 193 192 191 193 189 192 189 190 192 189 192 189 193 191 188 185 181 181 
304 253 219 211 224 246 269 274 271 269 250 226 204 194 190 189 185 190 185 176 172 174 174 172 173 173 176 177 201 261 250 217 182 210 278 261 201 172 173 174 171 176 177 180 185 187 187 189 191 193 192 193 190 192 192 194 193 196 194 191 192 191 192 191 195 191 192 190 189 191 190 190 192 190 189 196 186 185 178 182 
290 288 255 221 210 223 244 265 274 273 267 266 250 217 198 191 187 190 182 178 174 174 173 172 174 173 178 179 242 258 235 187 181 243 282 242 184 174 172 173 167 170 174 179 182 187 187 192 191 192 192 195 192 190 190 191 192 193 193 194 193 193 190 192 193 192 193 192 194 193 193 192 193 193 193 189 183 184 181 182 
285 284 281 269 245 224 224 240 242 256 263 270 268 256 238 209 190 191 178 177 174 173 175 177 172 172 178 194 265 250 212 177 198 269 270 208 179 171 173 171 167 167 167 173 179 183 187 191 191 189 192 190 188 192 188 192 188 192 193 192 194 198 197 190 190 190 192 190 193 188 192 193 192 193 190 185 183 186 178 179 
244 266 269 271 268 266 243 253 227 219 225 250 267 270 268 258 235 202 185 182 178 176 174 174 176 175 182 229 265 240 187 179 234 270 247 183 175 175 174 174 172 171 170 172 173 176 184 185 185 189 190 190 188 191 190 192 190 193 192 194 197 195 192 196 192 189 191 190 192 193 191 191 194 195 191 186 183 186 176 185 
220 222 234 253 261 271 272 278 241 218 208 214 231 254 271 273 267 258 226 201 196 179 176 177 176 176 196 257 259 221 177 189 262 263 219 177 173 174 176 177 172 172 171 170 170 174 174 182 185 189 187 190 187 191 189 191 192 191 190 194 193 194 195 192 194 189 191 192 193 194 191 192 195 193 192 190 188 186 179 183 
215 210 211 216 237 264 271 278 270 258 221 208 210 220 245 261 274 280 268 228 201 184 178 176 174 180 224 264 245 198 176 223 265 245 196 175 173 175 174 175 170 172 166 170 172 172 170 175 179 186 188 188 188 190 187 190 190 191 191 190 190 193 195 193 192 191 190 193 191 193 193 192 196 195 194 193 194 195 187 184 
211 211 204 206 212 263 335 283 272 273 266 244 219 212 228 213 234 267 260 233 240 241 206 182 178 193 260 258 233 184 189 254 259 226 185 172 175 177 174 179 169 175 174 174 173 171 173 176 172 175 179 184 183 185 188 191 189 191 189 185 193 194 195 191 189 191 191 194 192 193 192 189 192 195 196 195 194 199 186 189 
211 210 202 207 228 335 363 282 255 266 270 276 268 245 221 201 203 212 225 218 262 273 261 240 209 236 275 255 211 182 217 264 248 200 182 174 174 176 174 174 171 173 167 169 173 173 174 174 177 175 173 173 176 175 183 189 186 192 189 190 190 193 191 194 191 193 191 192 192 191 193 192 195 195 196 195 196 198 192 188 
207 206 205 212 271 379 300 264 223 230 249 268 274 271 263 228 203 207 208 209 236 261 265 266 262 284 279 239 194 192 251 260 232 188 186 174 176 177 178 175 177 176 171 174 174 175 178 178 173 176 174 172 174 171 173 180 184 188 188 189 190 189 192 193 189 193 192 192 195 193 194 193 193 195 194 196 204 198 189 190 
210 207 209 231 294 326 291 264 223 218 232 240 264 268 280 275 257 227 204 194 191 202 237 262 263 266 252 204 192 219 262 255 211 178 182 174 178 178 175 179 177 175 175 174 175 177 177 177 177 176 175 170 171 170 171 173 175 184 188 188 189 190 192 190 192 189 192 192 193 190 194 190 193 191 195 194 198 199 189 193 
211 212 217 262 367 315 288 269 248 238 221 220 223 228 263 276 276 233 213 210 186 185 192 215 237 241 221 191 199 249 258 237 194 179 183 175 176 178 179 176 176 178 171 175 177 177 177 178 175 178 175 173 172 170 173 170 169 170 182 186 189 194 190 192 190 191 194 190 195 191 192 191 194 190 192 191 193 195 194 192 
213 218 232 330 372 292 284 277 250 230 218 225 203 194 211 238 249 239 258 279 243 202 188 189 188 192 189 188 218 263 250 213 184 179 182 177 176 177 178 178 177 174 175 173 176 178 178 178 178 177 175 175 170 176 179 178 178 179 183 183 191 194 193 190 189 193 192 191 193 191 190 191 191 191 190 191 194 195 191 188 
216 224 277 443 344 299 299 281 244 220 210 213 198 188 195 198 213 222 259 285 277 262 232 200 188 184 188 194 248 268 242 193 183 181 184 178 178 180 179 179 176 180 177 177 177 182 178 181 176 178 177 177 182 185 185 187 187 190 188 189 192 194 192 193 190 192 194 189 192 190 194 194 195 191 190 192 193 195 192 193 
216 253 365 429 335 279 270 264 235 212 201 198 192 191 191 197 206 203 218 246 263 269 266 254 228 200 195 216 279 262 218 186 183 184 182 178 177 180 181 182 177 175 178 178 177 182 179 178 178 179 179 181 185 187 187 188 188 190 188 189 187 191 191 190 191 192 193 191 192 190 193 196 195 194 193 192 197 198 192 193 
227 324 490 327 262 262 248 236 211 210 200 192 193 191 190 211 200 195 199 199 213 239 260 264 262 253 238 268 287 254 195 181 182 178 185 177 180 180 181 178 175 176 177 177 178 179 177 180 181 180 181 181 187 189 188 190 189 192 186 193 191 193 193 193 190 194 194 193 192 190 195 196 196 194 195 195 202 203 193 194 
267 479 424 273 245 260 225 220 212 207 196 190 196 187 197 212 201 194 194 193 191 197 214 242 253 264 270 286 273 233 185 183 182 181 186 176 178 182 180 178 178 179 177 175 178 179 178 182 181 180 179 183 185 187 189 189 188 191 191 192 193 194 199 193 192 195 196 197 194 196 200 194 196 196 199 201 204 202 195 195 
340 558 330 245 246 238 212 208 212 210 197 198 202 200 208 213 193 191 192 188 186 184 191 200 212 242 259 268 255 204 182 183 183 180 185 180 180 182 182 181 176 180 178 179 185 181 180 182 184 178 179 182 187 188 191 187 185 190 189 195 193 192 196 194 194 193 195 193 196 196 199 194 197 196 199 200 201 200 191 196 
397 453 300 246 248 219 205 211 210 203 197 198 197 195 194 196 191 193 191 193 185 187 189 191 194 197 216 230 212 187 178 180 184 183 187 178 180 184 182 181 180 179 180 178 181 181 178 184 186 181 178 185 189 192 190 189 188 192 192 192 193 193 195 195 193 193 196 196 194 197 197 196 199 197 197 197 204 203 194 197 
489 380 269 254 242 218 207 210 204 199 194 193 194 190 192 189 188 190 192 185 184 189 186 190 187 185 189 193 192 185 180 181 185 184 186 178 181 182 184 181 180 182 179 178 183 181 177 181 178 180 182 189 189 188 188 194 191 194 190 194 195 193 196 194 195 195 195 195 192 196 198 195 197 196 195 203 203 201 196 194 
418 293 256 253 233 214 210 211 206 200 191 191 190 187 191 192 186 190 193 191 183 186 188 188 185 186 189 188 188 181 181 181 186 183 189 179 183 184 185 186 183 182 182 182 185 181 179 180 182 178 185 190 190 191 191 189 191 191 193 193 195 193 198 192 196 196 198 197 195 197 196 195 201 199 203 202 206 205 202 200 
387 276 258 254 221 215 211 210 200 199 196 192 189 188 191 188 185 192 191 192 187 186 189 189 185 189 189 188 187 185 178 181 187 185 187 181 182 182 184 182 180 180 177 178 181 181 180 181 180 182 187 191 193 194 193 191 193 194 193 194 194 196 195 197 199 197 198 197 198 199 198 197 200 200 201 201 203 205 201 216 
390 289 263 239 212 215 210 207 197 200 193 195 193 188 189 189 190 190 192 191 188 185 190 187 188 189 188 187 189 182 180 182 187 185 190 182 181 184 184 183 181 183 179 180 183 182 180 181 182 182 190 191 194 196 193 195 195 196 196 196 198 199 201 199 199 199 197 198 197 200 198 199 201 200 200 203 206 207 212 242 
462 300 270 230 212 210 208 203 200 200 193 194 192 190 191 191 195 193 197 193 188 187 190 191 193 192 191 190 191 186 182 187 189 188 191 183 184 186 189 185 187 184 180 185 183 186 180 183 182 186 193 193 195 197 195 199 196 200 200 203 202 204 205 201 198 199 198 202 202 197 197 200 203 201 202 207 207 224 247 295 
469 298 264 219 213 214 208 204 200 198 195 191 195 191 193 193 193 196 196 200 192 192 193 196 195 190 193 190 193 187 183 188 191 189 193 184 186 186 188 186 187 187 183 187 187 184 185 179 184 192 195 195 194 198 197 200 198 201 201 205 200 202 205 200 199 202 200 199 199 197 201 201 205 206 204 208 217 261 299 349 
369 281 242 213 214 212 206 206 199 198 197 193 192 191 194 196 194 197 198 194 192 194 194 196 188 191 192 191 193 188 181 190 191 189 193 183 188 188 189 186 184 186 185 187 194 185 182 182 184 195 197 195 198 196 198 201 200 202 201 201 202 203 207 203 200 200 201 203 203 202 204 203 205 205 206 217 239 304 362 409 
299 265 242 219 217 212 206 207 204 202 199 199 198 194 194 194 194 197 198 193 192 194 195 201 193 194 195 194 195 188 186 190 193 189 196 187 191 186 193 190 188 190 189 189 189 191 185 185 189 199 198 198 200 198 200 200 201 205 203 203 205 205 209 204 202 202 202 202 203 204 206 203 206 206 211 231 290 363 404 416 
287 275 256 225 221 210 204 207 206 206 194 197 197 194 195 196 195 199 198 199 197 199 196 195 194 193 194 197 199 190 188 188 192 191 197 191 193 194 192 194 193 187 190 188 192 189 184 188 190 198 200 201 200 201 205 205 202 205 203 204 207 206 206 206 202 202 204 205 205 203 207 206 210 208 222 265 337 395 408 426 
276 285 240 220 210 209 205 206 202 202 199 200 200 196 198 197 199 202 198 199 198 201 198 195 192 198 198 198 200 191 186 190 191 192 197 191 193 191 193 191 188 191 192 190 194 190 189 191 197 199 200 200 199 200 202 202 203 207 207 207 206 207 208 203 205 202 207 205 206 204 205 209 211 216 246 299 365 415 422 413 
273 273 229 224 212 210 202 207 207 203 196 198 201 196 199 199 197 204 203 201 197 203 197 199 195 198 195 198 200 191 186 193 194 197 201 194 195 192 195 194 194 190 191 195 195 193 189 190 199 202 200 202 204 204 205 205 206 204 208 210 211 210 204 204 203 203 206 204 208 208 207 209 213 227 268 329 391 426 420 373 
271 249 227 219 213 210 204 206 207 206 199 200 200 198 197 199 200 203 205 200 197 202 196 198 195 199 195 199 199 198 194 197 193 199 206 196 202 200 201 198 196 196 195 194 198 193 191 199 197 204 202 202 203 204 206 208 210 208 207 209 209 205 210 201 205 202 206 196 199 200 207 205 212 239 284 367 410 436 410 364 


