P2
80 60
252
30 34 33 41 78 102 86 47 57 99 93 56 45 39 37 35 32 29 32 34 31 28 29 28 26 29 29 34 35 40 35 34 34 34 31 31 27 32 28 30 28 28 30 28 31 33 28 24 19 21 22 17 22 20 20 20 24 23 22 27 26 27 28 25 25 23 22 24 26 29 30 25 25 23 22 20 25 25 24 20 
27 30 38 49 85 106 82 45 59 100 94 56 43 41 35 33 34 31 32 32 32 28 30 30 32 33 32 33 30 37 34 35 35 33 29 30 29 30 28 30 29 27 30 31 32 31 29 27 24 25 23 23 22 25 24 25 27 27 27 27 30 32 32 32 32 22 22 26 27 27 26 25 27 30 24 19 27 27 22 17 
27 32 35 47 90 105 74 40 65 99 89 53 38 38 35 32 32 34 28 34 31 29 29 30 31 31 31 33 37 40 36 33 32 29 30 27 28 29 30 29 30 29 30 30 29 34 31 31 28 28 25 29 31 28 29 33 33 29 34 32 30 34 31 29 28 20 23 24 26 26 32 25 25 30 24 18 27 28 22 13 
26 29 33 51 95 99 72 39 68 99 83 49 37 33 35 31 34 31 30 32 35 28 31 33 32 31 32 33 34 37 35 32 30 31 29 23 25 26 26 28 31 31 30 30 31 30 30 34 29 35 34 29 32 32 30 33 32 35 34 34 31 31 30 27 28 23 20 20 27 29 27 28 27 24 21 17 28 26 22 18 
27 34 39 50 98 102 66 43 72 95 79 43 35 33 28 29 29 28 29 28 29 28 31 32 31 33 32 36 34 33 29 30 29 28 25 23 29 27 26 27 28 29 30 29 29 30 28 34 33 34 30 30 30 30 30 29 30 32 32 28 30 27 26 25 26 23 21 23 28 26 31 26 25 25 22 16 25 24 20 16 
25 30 37 56 100 90 64 41 77 99 77 39 33 30 29 27 25 29 28 27 29 31 29 29 32 27 31 30 32 34 34 31 30 28 26 27 27 26 27 23 26 28 28 29 29 33 27 31 27 31 29 31 30 30 28 30 30 28 30 30 29 26 28 26 28 26 18 20 27 28 29 23 28 24 23 21 21 18 14 12 
25 32 40 58 100 90 58 39 79 100 72 38 31 32 30 25 27 25 28 27 29 29 28 30 29 31 29 32 34 33 32 32 30 27 23 25 30 25 28 26 26 26 29 27 28 27 25 28 28 31 29 30 29 31 29 30 27 30 29 28 28 32 31 30 28 23 20 22 25 25 29 23 27 22 25 26 20 16 14 11 
25 32 35 51 100 88 56 38 79 99 65 34 29 25 26 24 22 25 29 29 27 28 25 25 26 26 29 32 32 33 30 33 28 29 27 29 28 26 28 26 26 26 28 28 29 31 25 26 25 29 29 27 29 30 27 28 30 30 32 31 30 35 29 30 30 29 19 17 26 28 29 27 24 22 26 23 24 19 16 13 
17 27 30 50 102 92 51 40 87 97 66 34 24 27 24 26 24 28 29 28 29 25 27 27 30 28 31 32 34 32 31 30 26 28 27 31 33 30 29 26 28 26 28 27 30 31 32 30 28 31 27 25 25 26 30 33 31 32 34 35 35 35 32 31 29 31 18 18 26 26 32 29 27 26 27 23 21 19 17 14 
11 4 0 44 104 88 45 32 90 102 60 29 22 24 24 22 24 24 24 29 23 27 24 27 27 30 28 28 33 33 34 30 30 27 30 28 33 31 29 30 29 27 31 28 32 31 31 30 28 29 28 28 26 31 34 33 33 35 35 33 37 32 33 29 33 32 25 23 29 31 32 31 28 29 28 27 21 24 24 15 
14 8 5 48 104 87 38 29 101 110 53 20 16 13 12 17 20 23 22 26 25 23 22 27 26 29 24 26 30 32 28 28 27 27 25 29 27 29 26 25 28 28 27 29 29 29 27 24 26 28 29 29 30 32 30 34 33 34 35 34 36 31 29 31 32 33 24 19 22 26 31 28 27 28 26 21 22 22 21 19 
20 19 20 60 113 89 34 33 102 107 49 18 15 13 14 12 10 18 20 23 17 21 23 23 23 25 23 24 29 29 32 27 27 27 27 25 29 27 30 28 27 29 31 26 31 27 27 28 30 30 36 32 32 34 35 36 35 36 36 34 37 31 31 32 34 33 25 21 24 28 28 32 30 30 29 25 24 21 21 20 
21 19 18 57 106 84 40 39 99 106 46 14 14 13 10 10 13 13 12 10 9 10 11 14 12 17 16 16 17 20 20 25 22 24 22 26 26 27 28 27 29 25 25 28 26 25 28 29 32 33 31 30 31 32 30 32 32 33 31 33 34 29 29 32 28 30 29 20 21 29 29 28 26 29 28 24 22 20 19 16 
19 23 23 63 105 81 38 42 107 104 45 21 15 15 16 13 12 12 11 13 13 11 7 13 14 13 9 11 12 12 12 10 17 14 20 22 25 27 27 28 27 26 28 26 31 32 30 30 32 34 32 32 32 34 37 36 36 31 39 36 35 32 33 34 34 34 30 24 21 26 32 34 30 34 30 29 26 23 21 21 
18 20 24 70 97 69 36 43 104 99 39 23 19 17 19 18 14 12 14 14 14 10 11 13 10 12 12 13 15 13 12 9 9 10 21 26 27 30 26 23 24 28 28 31 31 32 27 32 36 32 34 34 33 35 35 34 36 35 36 34 35 35 33 34 34 33 30 23 24 29 34 30 30 31 31 30 30 21 20 17 
18 21 24 74 98 66 31 45 102 90 39 21 17 16 19 16 15 12 13 12 11 10 12 12 10 12 11 12 16 15 10 12 17 20 25 28 27 23 22 25 28 27 27 31 32 33 31 29 33 30 34 31 31 33 33 31 34 33 35 33 34 31 32 33 33 34 33 24 21 22 29 33 31 28 30 26 29 23 22 20 
18 21 27 77 96 67 32 43 105 91 34 23 20 16 17 17 16 15 15 16 14 17 17 15 14 13 13 13 18 17 23 23 28 29 28 30 26 27 30 29 26 28 32 32 31 35 32 31 35 31 33 33 36 35 34 36 31 32 32 33 35 34 34 35 33 32 32 27 21 27 36 32 31 31 28 29 30 27 23 22 
20 19 26 79 99 63 27 47 105 87 35 19 20 19 17 17 17 12 15 16 15 16 17 17 15 17 13 16 19 21 27 28 29 30 28 25 28 28 29 29 25 30 30 31 35 34 33 34 34 35 33 36 35 31 35 33 34 32 36 35 38 34 34 32 34 35 31 28 21 23 31 31 31 30 32 27 29 33 26 19 
22 15 25 86 96 60 27 46 101 84 36 17 17 14 19 17 17 15 15 15 17 15 16 16 16 13 15 15 21 23 31 29 26 25 27 26 26 28 27 27 27 28 30 28 30 29 30 28 32 30 35 33 36 36 30 32 31 34 33 34 37 33 35 30 33 33 30 31 17 18 28 29 31 28 28 29 27 31 26 26 
21 21 33 88 102 61 29 52 106 85 33 25 24 20 19 18 19 19 19 18 19 18 19 21 17 17 15 13 21 27 33 30 30 25 23 27 27 29 28 29 30 31 33 27 32 35 32 33 29 33 34 35 36 34 34 36 37 37 35 37 38 35 32 34 30 31 34 34 23 21 29 29 31 30 33 28 32 31 27 26 
25 23 33 97 98 61 33 58 105 83 35 23 21 24 22 25 22 19 20 21 17 19 19 20 21 19 15 18 19 22 29 28 29 25 27 27 26 26 29 30 26 31 32 31 34 34 31 31 35 34 38 34 36 33 32 36 35 37 35 35 37 36 35 38 35 34 36 37 23 19 27 31 33 30 32 29 34 32 30 23 
28 29 42 108 99 61 33 65 107 83 35 25 21 20 20 18 21 20 19 21 19 20 17 18 18 14 19 20 22 22 29 26 28 25 25 27 27 29 29 29 29 30 29 31 34 30 32 32 34 36 38 33 33 34 37 34 33 35 37 37 35 36 35 36 33 35 35 34 33 22 22 31 32 33 33 32 35 32 30 24 
77 75 80 125 103 52 34 71 107 83 30 22 19 19 17 19 19 19 19 18 22 21 18 16 20 19 19 19 19 19 26 25 27 27 26 25 26 27 27 29 27 29 31 30 32 31 32 34 32 35 36 32 34 35 35 32 34 33 37 35 36 36 34 34 33 35 32 36 32 24 21 22 30 31 31 30 31 32 26 24 
103 108 110 110 91 45 34 71 103 79 31 24 21 16 18 17 17 20 19 19 19 21 21 16 17 19 18 19 21 20 26 26 29 26 28 25 27 27 28 29 30 28 28 31 31 31 30 31 31 34 33 34 33 35 38 32 36 31 35 37 34 37 37 37 37 33 35 38 31 29 21 21 25 28 32 30 31 30 28 23 
99 100 102 94 77 33 38 78 107 83 33 24 24 20 21 22 21 20 23 22 20 24 21 22 19 18 20 21 20 23 25 29 26 27 25 29 30 30 31 31 32 34 30 31 34 29 33 34 33 35 35 35 34 38 36 34 35 38 36 35 34 38 36 37 33 38 33 34 33 31 31 23 19 27 28 30 32 36 27 24 
43 45 52 51 38 29 41 82 114 84 33 27 23 22 26 24 21 21 22 22 24 22 20 24 21 21 21 23 22 22 28 30 29 27 32 28 31 33 33 33 34 34 34 32 36 33 32 32 34 35 35 38 35 34 37 36 37 40 37 38 36 37 34 40 36 36 35 38 37 34 36 31 26 22 21 21 26 30 24 21 
32 28 29 24 29 25 36 86 116 81 33 25 22 21 22 23 19 19 21 22 21 22 21 22 25 18 19 20 24 20 25 29 29 29 28 28 30 31 32 32 33 32 33 32 34 32 31 32 36 33 36 35 37 35 35 35 36 36 36 36 39 36 34 35 36 37 34 38 36 33 37 35 31 27 21 22 24 23 23 24 
80 72 58 52 47 44 51 102 122 84 36 26 23 22 25 22 23 23 23 23 21 22 25 23 23 25 21 22 21 22 28 33 33 31 31 32 31 31 32 35 35 32 34 32 32 31 34 31 36 35 39 35 35 37 36 38 33 36 38 37 37 35 37 37 39 38 40 35 34 36 38 34 35 36 36 29 30 29 23 20 
126 120 107 102 101 94 102 114 110 79 31 26 23 24 22 24 25 22 26 24 21 25 20 22 21 22 23 21 24 22 28 33 31 30 30 33 30 34 34 34 32 34 33 34 34 33 34 31 37 35 39 34 35 35 34 34 37 34 37 35 39 36 34 37 34 39 41 38 34 38 35 35 35 32 36 33 36 34 24 24 
109 104 102 101 102 98 104 104 97 64 28 25 22 23 23 22 26 25 27 24 24 26 22 24 21 23 24 24 25 22 28 33 31 28 30 33 34 34 35 33 34 33 31 35 33 31 35 34 34 34 34 36 35 35 36 38 36 36 36 36 38 33 36 36 37 41 42 40 36 36 39 34 35 34 33 34 31 30 28 27 
45 49 51 53 57 62 66 68 60 35 22 26 26 26 23 24 25 25 26 23 24 28 24 25 25 26 23 24 26 25 29 33 32 29 32 30 32 34 34 35 32 32 34 33 35 33 34 35 36 37 37 37 38 35 33 34 36 37 35 37 38 35 36 39 34 36 37 38 37 36 35 38 38 32 32 30 33 34 29 25 
30 30 28 27 26 29 35 31 32 30 24 27 25 25 24 25 24 26 27 23 23 26 28 30 26 23 20 28 26 26 29 32 32 32 32 32 33 30 34 36 33 36 35 32 36 35 33 34 36 34 33 38 37 34 34 38 37 38 37 37 38 39 40 35 37 38 39 37 38 34 41 40 34 35 33 30 34 34 28 23 
27 24 22 23 26 24 27 24 29 26 23 25 29 26 26 28 25 26 24 24 24 27 27 27 27 24 25 29 29 25 27 33 32 32 30 29 32 32 34 31 35 33 35 35 33 33 36 35 35 39 36 37 36 35 37 41 38 37 36 32 40 37 42 39 35 38 37 36 36 36 36 37 37 37 33 30 34 37 27 27 
27 24 23 24 28 22 24 25 25 29 24 27 27 26 28 29 30 27 27 27 27 29 29 27 31 25 25 27 26 26 28 37 34 30 33 32 32 30 35 35 39 37 35 34 36 35 36 35 35 37 37 36 38 35 36 35 37 36 38 38 39 39 40 40 37 39 40 41 39 38 37 35 39 38 36 33 33 38 33 30 
31 26 23 23 26 23 24 26 29 30 26 29 26 27 29 28 30 29 27 27 30 28 31 30 29 27 29 29 28 27 29 34 32 32 35 31 35 32 32 36 34 33 36 34 34 34 35 36 36 40 36 38 38 34 38 37 33 34 38 38 40 44 40 42 39 41 40 39 34 36 39 37 39 38 35 34 35 34 32 32 
29 29 23 22 24 25 29 28 30 29 27 27 26 29 30 28 30 29 30 26 30 32 32 28 32 27 30 28 30 27 31 32 36 31 34 32 31 33 32 33 32 33 32 36 35 34 35 35 37 39 38 37 37 37 39 36 36 38 38 39 40 38 37 40 39 38 38 38 35 37 38 35 39 39 36 33 32 39 31 34 
28 30 27 21 25 22 27 25 26 29 29 29 29 29 28 27 27 32 28 32 27 29 30 31 30 32 32 30 34 29 28 37 33 32 37 34 34 32 35 35 35 33 37 36 35 35 37 37 38 38 38 37 36 36 39 35 34 37 37 36 38 37 36 39 36 37 38 39 36 39 40 35 36 38 35 34 33 36 35 36 
28 26 26 22 23 23 27 29 29 28 26 26 28 28 30 30 29 29 27 28 31 30 30 30 30 30 33 34 32 28 27 34 35 36 35 34 34 34 33 36 35 33 36 34 37 36 35 39 38 39 37 40 37 37 37 36 38 37 35 38 39 38 37 38 37 37 38 37 40 37 39 36 37 37 35 32 39 32 43 39 
32 27 27 26 29 24 31 32 33 27 28 30 32 30 31 30 30 30 29 31 30 31 30 33 33 33 33 31 35 31 29 37 36 36 35 34 36 32 34 36 34 39 37 37 34 37 35 40 41 37 40 39 35 37 37 38 38 38 37 35 40 37 39 35 39 38 38 37 36 42 36 40 36 38 38 35 38 41 49 48 
30 30 29 28 29 26 32 30 30 28 27 27 30 30 30 30 33 31 32 32 34 33 34 34 35 32 34 35 34 33 29 37 36 38 36 36 35 34 36 34 38 33 38 40 36 38 37 36 38 38 37 39 37 37 39 38 40 38 37 38 39 37 39 38 40 38 42 39 37 39 40 40 37 37 39 36 44 51 57 62 
30 26 27 29 30 26 31 30 29 30 26 31 31 32 32 31 32 33 33 36 36 35 33 35 36 37 34 32 36 33 32 36 40 38 36 34 37 35 35 35 37 37 37 37 36 37 36 39 38 37 37 37 38 37 39 39 37 37 39 38 36 37 39 34 37 38 41 42 40 42 40 39 38 36 38 40 53 52 58 95 
28 28 26 32 30 29 30 30 28 29 26 34 33 36 33 32 33 35 36 35 36 37 37 38 38 40 37 36 40 35 32 37 38 37 36 37 40 35 36 35 38 37 36 36 37 37 35 34 35 38 37 40 40 37 38 36 38 36 41 40 41 37 38 39 38 40 42 40 43 40 42 38 40 38 38 39 47 47 63 132 
27 28 27 27 33 28 25 33 32 29 30 31 32 32 33 36 35 36 36 38 37 39 38 37 38 39 38 38 40 36 31 41 39 38 39 36 38 38 39 39 39 39 37 35 36 35 36 34 36 35 39 37 37 36 40 38 37 38 38 39 37 40 36 35 37 42 42 42 42 39 40 40 42 41 41 42 43 49 63 139 
28 24 25 28 35 33 32 39 33 30 32 30 33 35 35 36 34 38 37 37 40 37 40 40 41 41 39 38 39 35 30 36 38 40 39 37 38 36 36 37 39 39 38 34 38 38 35 38 37 36 36 35 36 33 33 33 36 35 36 38 40 38 39 39 38 37 44 38 43 40 42 42 41 40 39 42 48 45 59 132 
28 29 24 28 32 31 34 36 31 32 28 32 33 35 35 37 38 40 39 40 41 43 42 41 42 43 36 34 40 36 30 33 38 37 37 39 37 38 38 37 39 38 37 36 37 34 33 36 37 35 38 36 37 31 35 35 34 38 36 35 38 35 39 38 38 41 42 41 42 41 45 44 46 46 46 53 59 56 60 127 
28 30 26 27 32 31 37 31 34 31 30 35 34 37 35 37 36 39 42 39 42 44 46 43 44 39 39 37 37 32 28 31 39 41 40 41 38 40 39 40 39 37 37 37 36 38 35 38 42 36 38 37 36 34 38 35 36 39 39 36 40 37 37 37 41 40 44 44 44 43 45 64 81 93 116 138 132 95 94 143 
29 30 30 27 32 32 37 31 32 31 31 34 37 36 37 37 40 38 42 42 42 47 45 45 45 43 43 42 45 41 37 33 35 40 38 37 40 39 38 39 38 40 37 40 41 36 34 36 40 37 37 39 38 36 36 37 37 40 40 37 40 39 39 35 42 38 44 44 41 48 73 124 148 160 172 175 158 142 153 182 
30 27 27 26 30 33 36 36 34 33 30 36 36 37 36 38 39 41 40 45 43 44 45 46 48 48 49 47 48 46 41 35 37 41 39 40 39 43 40 38 39 40 39 38 38 38 37 38 36 38 37 38 36 37 36 38 39 39 37 37 41 40 38 39 42 43 42 43 52 77 107 123 135 142 145 152 159 170 179 198 
31 28 27 28 29 32 36 31 36 30 34 37 37 38 39 41 43 39 42 45 44 43 48 46 48 50 53 54 52 47 44 36 35 41 39 40 44 40 42 40 40 38 40 39 40 36 34 35 36 37 36 36 38 36 36 38 38 38 38 37 42 39 41 40 39 41 42 47 69 102 119 130 136 141 148 163 181 200 219 239 
30 28 29 29 33 28 36 34 38 37 33 38 37 36 37 39 39 41 44 46 43 44 46 45 46 51 54 52 53 50 42 37 39 44 41 42 39 41 40 43 40 41 38 41 41 40 37 39 38 39 37 39 39 37 38 37 37 39 38 38 40 40 42 43 41 41 45 47 69 109 136 148 155 162 172 185 200 216 236 246 
31 31 30 34 33 31 36 34 40 36 38 38 39 38 42 44 41 43 47 46 46 48 51 48 50 53 59 53 53 51 47 39 39 43 44 42 43 43 43 42 43 40 40 40 39 39 34 37 40 36 36 38 39 43 41 41 39 38 39 39 41 40 41 42 41 41 44 46 66 109 137 155 160 171 178 188 204 219 238 246 
33 32 34 31 34 33 34 36 37 39 38 40 42 43 39 43 43 43 43 50 49 48 52 52 53 54 56 56 53 52 48 39 41 42 43 44 43 40 43 41 45 43 43 42 38 40 37 40 38 39 37 39 39 43 46 49 42 40 43 43 41 45 42 44 41 42 48 44 60 102 133 151 160 169 176 183 199 220 238 240 
36 38 33 37 34 34 37 35 41 41 40 41 40 45 42 43 44 46 49 48 52 53 54 51 58 55 56 57 55 50 48 46 40 45 46 45 44 42 43 43 43 44 41 42 41 40 38 41 41 40 39 44 38 44 52 55 48 53 45 44 43 44 40 43 47 44 45 47 55 96 129 151 158 168 171 184 199 217 234 239 
37 36 37 36 38 39 42 40 44 41 39 43 44 40 42 48 47 44 45 51 53 54 54 54 56 55 58 59 55 54 51 44 44 43 46 44 46 44 44 43 44 43 43 44 42 46 38 39 41 42 39 42 41 47 57 78 88 67 51 45 43 45 43 42 43 44 45 43 51 92 126 147 154 163 170 182 194 214 233 236 
45 43 41 40 46 41 43 40 45 44 45 45 46 50 49 49 51 48 53 59 58 60 62 60 62 63 66 61 62 60 55 51 46 47 48 47 48 47 51 47 46 47 44 46 44 42 40 44 46 43 43 45 47 58 111 222 163 100 62 47 49 43 46 45 44 47 46 50 54 84 123 143 153 162 169 178 195 213 229 236 
47 46 41 42 40 45 47 42 44 45 46 48 48 50 51 55 54 55 55 61 62 62 66 66 68 68 69 67 64 64 55 52 48 46 52 53 51 50 50 47 48 46 47 45 47 45 45 44 45 45 45 45 50 60 127 252 164 95 60 48 52 43 46 44 46 47 47 51 52 78 118 143 151 160 165 176 186 197 223 234 
53 50 41 49 44 43 47 44 49 49 47 51 49 50 54 54 52 58 61 66 68 70 70 67 71 71 70 67 67 62 57 52 50 52 51 51 52 52 46 47 48 50 47 45 46 47 46 44 46 44 45 46 50 53 73 100 88 68 55 47 46 44 45 46 42 48 49 49 49 74 111 138 149 157 162 167 162 163 214 231 
58 54 53 49 53 47 52 49 52 52 51 56 53 56 54 59 63 65 67 69 71 72 77 75 77 78 82 78 73 65 64 57 49 53 53 51 53 47 49 48 48 51 50 49 49 49 46 51 47 48 48 51 50 49 53 60 61 60 55 46 50 46 46 44 47 47 50 51 55 70 108 134 150 158 161 163 161 178 221 227 
68 64 58 63 64 56 58 55 60 57 58 60 55 57 61 61 64 65 70 75 77 81 86 85 83 86 88 84 77 70 62 58 53 57 57 55 54 53 61 70 55 53 53 52 53 50 51 52 51 49 50 47 49 48 48 53 52 52 52 47 49 50 48 49 48 50 50 49 53 64 104 132 150 160 163 171 179 199 216 225 
96 87 79 70 71 57 68 62 59 62 61 64 58 59 62 63 66 67 74 74 81 82 85 85 88 96 97 87 78 71 63 60 58 58 58 58 59 59 91 131 67 57 59 56 56 52 55 54 52 49 52 52 49 50 51 49 47 48 49 51 49 46 48 46 52 50 50 52 51 59 106 133 146 162 162 167 179 197 217 224 


