P2
80 60
160
22 25 24 23 25 29 21 23 21 22 21 21 20 24 24 21 18 22 16 16 19 17 15 18 18 12 16 13 11 11 13 15 11 11 10 10 10 9 8 10 10 11 10 9 10 11 13 13 12 10 11 9 10 10 15 12 9 13 14 11 11 14 16 17 21 24 21 20 18 18 17 22 20 22 27 16 26 18 28 20 
24 26 25 26 23 27 24 23 21 24 22 21 19 19 20 19 18 19 17 17 20 16 16 19 18 12 18 14 11 14 13 12 10 12 10 9 12 11 8 11 10 7 12 11 10 11 9 11 9 9 11 8 12 13 14 17 13 12 14 12 15 15 15 19 19 21 21 17 18 18 21 20 21 22 22 22 23 20 19 20 
23 28 23 27 20 27 24 21 22 25 21 20 21 19 19 19 16 18 16 14 18 16 18 17 14 14 17 14 12 14 12 12 9 9 11 8 7 9 9 9 11 8 9 10 9 7 8 12 8 10 10 11 13 11 12 12 10 13 16 13 13 11 15 15 18 17 15 15 20 21 20 16 20 21 20 20 19 16 21 21 
24 25 24 21 21 22 21 21 20 21 20 19 20 18 19 17 19 19 16 15 15 16 14 15 15 10 13 13 12 11 11 13 11 9 11 9 11 10 9 9 8 7 9 8 8 11 10 9 11 10 9 11 11 10 12 12 12 11 15 11 13 12 16 14 19 19 17 19 17 21 22 20 20 22 17 16 25 29 34 26 
19 24 22 27 23 21 23 19 19 19 19 16 20 17 18 19 16 18 15 18 16 13 18 16 14 12 16 12 10 11 14 12 12 10 10 9 15 10 9 8 8 9 9 7 9 10 9 9 6 8 14 8 11 11 13 15 11 10 12 13 13 10 15 14 16 18 15 17 17 17 14 22 24 26 22 27 36 44 48 52 
20 24 23 24 24 21 21 18 21 21 20 14 17 15 15 20 17 17 13 15 17 18 18 16 14 12 15 11 12 13 12 11 11 9 9 9 12 9 7 8 8 10 11 8 6 9 12 9 10 10 7 8 11 10 12 15 14 15 8 10 14 13 11 15 18 23 18 28 20 23 28 27 32 44 54 50 49 56 70 71 
22 26 23 21 23 22 21 18 23 22 19 19 18 17 22 22 18 20 16 17 17 16 18 17 13 16 11 11 13 11 11 12 10 12 9 10 15 11 9 10 11 10 10 9 5 10 10 10 10 11 11 9 9 10 10 13 13 14 12 10 11 15 13 15 27 34 41 41 47 49 54 59 76 82 84 66 62 69 80 91 
24 24 23 21 22 23 21 22 21 22 17 19 17 19 19 22 19 20 16 16 16 16 15 18 13 12 18 13 11 10 11 11 12 12 10 12 13 10 8 8 8 7 7 9 9 11 10 4 7 9 8 8 12 8 14 13 8 13 11 10 13 10 11 27 52 63 66 63 69 71 81 98 106 108 93 72 75 73 83 96 
20 23 23 24 23 21 20 22 19 21 24 19 18 17 17 18 19 22 14 16 16 12 15 17 15 14 15 15 10 10 12 13 12 9 11 10 8 10 9 7 11 9 10 10 6 7 7 5 10 7 3 8 11 8 13 12 11 13 14 10 13 12 30 56 74 86 83 85 85 90 98 101 106 97 83 64 80 80 90 107 
18 25 23 25 23 24 21 21 18 21 22 15 19 17 18 19 18 20 17 15 16 14 17 15 16 15 16 15 12 11 13 13 8 9 9 12 11 10 9 9 10 9 10 7 8 8 6 7 8 8 0 4 9 10 11 12 13 12 11 12 16 23 56 77 92 91 81 83 91 100 100 97 92 86 79 73 80 80 99 118 
24 26 22 24 20 22 21 20 17 22 20 18 23 18 20 20 17 20 18 17 15 18 16 19 12 13 13 11 12 11 12 9 9 10 10 8 10 12 10 10 10 7 9 6 3 6 7 4 2 5 6 8 10 10 8 12 9 12 12 12 17 35 60 78 88 94 102 95 91 93 90 85 85 84 80 83 80 85 100 118 
22 25 23 22 22 25 22 20 18 21 23 18 22 18 19 22 18 19 17 17 13 15 16 14 14 12 14 12 12 9 14 14 10 10 9 12 12 11 8 10 8 8 8 5 1 12 7 1 4 6 10 8 12 8 13 14 12 10 14 12 22 46 65 72 81 82 90 90 93 80 86 78 79 86 95 88 87 86 100 119 
21 21 23 21 21 23 22 20 19 20 18 17 21 16 18 17 15 18 16 12 12 13 13 16 13 10 12 16 12 8 10 10 13 11 12 12 14 10 8 10 8 8 8 7 7 6 6 4 6 9 7 8 11 9 13 12 11 8 11 11 24 39 58 65 74 83 80 74 83 90 86 92 92 102 102 88 78 79 101 125 
23 22 20 24 21 21 20 18 18 19 20 19 17 16 18 17 14 18 18 13 14 12 15 14 11 13 13 15 10 14 13 12 13 12 12 11 14 11 10 10 11 9 8 7 8 8 6 7 8 9 8 9 10 8 12 9 9 10 11 11 22 33 50 58 75 83 86 98 91 94 105 106 96 88 82 67 62 72 99 114 
25 26 23 22 21 19 19 19 21 20 20 16 18 18 17 21 20 20 16 17 14 16 13 15 17 13 16 17 12 12 10 12 9 9 9 10 14 14 8 9 10 10 9 7 9 10 11 6 8 13 7 7 10 8 14 11 7 14 12 11 16 24 41 47 64 74 83 79 94 88 92 88 79 64 50 44 51 60 86 105 
22 25 23 26 23 20 20 16 18 20 19 20 17 17 17 22 18 16 20 18 17 14 15 16 15 13 14 14 10 12 10 9 11 12 13 9 13 13 9 8 10 10 12 11 9 12 11 10 8 11 10 8 11 9 11 9 10 15 20 14 16 22 25 40 49 59 62 73 74 74 65 51 42 35 28 29 38 47 72 76 
26 22 27 31 26 21 21 19 16 18 20 18 16 19 20 19 16 17 18 16 13 14 14 15 14 12 16 14 12 10 13 10 11 11 12 10 11 13 9 8 9 13 13 13 12 10 10 10 10 11 9 9 13 9 13 12 11 11 12 13 14 15 21 24 35 38 37 43 45 41 31 28 25 22 24 23 34 35 52 59 
24 25 24 33 23 25 22 20 17 23 23 16 19 16 18 18 20 18 18 14 16 15 15 18 14 12 13 13 10 11 11 11 9 15 11 10 13 12 11 10 11 10 15 14 9 12 9 7 8 10 10 9 10 12 9 10 10 15 11 9 8 10 16 17 20 27 22 28 23 19 17 16 17 16 13 13 23 26 38 42 
28 27 30 25 25 23 22 21 20 19 27 19 21 17 19 23 17 19 16 15 16 16 14 16 15 15 15 13 12 11 11 10 12 11 11 9 9 10 13 13 12 15 15 12 10 14 13 10 10 11 10 9 12 11 14 9 13 11 14 13 12 12 15 10 14 18 16 15 18 13 18 16 16 16 15 21 20 20 26 30 
27 29 28 26 27 24 20 21 21 22 25 19 20 17 20 20 16 17 19 16 19 14 15 16 15 13 15 13 12 13 11 11 11 10 11 10 9 10 10 13 14 15 15 12 11 18 12 8 13 10 11 10 12 9 13 12 10 13 14 11 12 11 13 12 16 19 13 19 15 13 11 19 19 17 14 10 20 20 24 22 
26 27 25 22 27 22 23 19 21 23 22 18 16 21 21 22 16 17 15 15 16 17 15 15 14 12 14 12 12 14 13 10 10 11 10 10 14 14 10 13 13 13 12 12 14 17 14 10 11 9 10 8 10 8 9 10 13 12 15 10 13 11 11 12 14 14 14 12 14 11 12 13 15 19 13 16 13 12 14 19 
25 26 24 25 22 23 21 20 21 20 17 20 20 17 22 18 19 20 15 14 17 13 16 17 15 13 16 14 13 11 11 12 13 12 13 12 13 12 14 11 12 11 10 12 16 13 14 13 12 8 10 8 8 8 8 9 8 10 13 12 16 11 10 13 13 7 14 11 11 13 12 18 16 16 15 18 17 20 17 14 
24 27 24 22 20 20 22 22 18 22 20 19 20 15 19 16 15 18 13 13 16 14 16 16 15 13 14 16 9 13 12 13 12 14 14 12 12 11 11 11 12 11 14 11 13 13 12 11 8 8 8 8 7 8 12 10 10 9 12 11 10 11 8 8 14 16 11 11 10 11 13 14 15 18 15 15 20 18 16 17 
24 26 22 21 25 25 23 23 18 20 23 17 21 20 18 20 16 16 15 13 17 18 14 14 14 11 16 11 13 12 11 10 11 11 11 12 14 14 11 13 12 11 14 12 13 14 9 11 9 13 11 10 9 8 9 9 8 9 9 8 10 10 10 14 11 13 12 11 13 12 14 13 15 15 14 14 16 10 16 19 
23 26 24 24 24 24 20 19 19 22 20 18 21 18 20 20 18 16 18 14 15 17 15 16 16 11 17 15 11 12 14 13 13 11 13 11 13 13 14 12 12 13 14 11 10 15 14 12 11 10 10 9 8 7 10 12 8 10 9 9 10 10 10 11 13 13 13 13 14 10 14 12 12 9 10 13 15 16 18 22 
22 25 22 26 23 18 23 19 20 22 20 20 21 18 21 20 18 19 19 15 15 14 13 17 15 14 14 16 12 13 13 15 13 12 15 13 15 14 13 12 15 13 12 10 12 14 11 11 11 9 10 8 9 10 8 9 11 10 9 9 10 7 11 12 11 13 13 12 12 9 12 16 15 14 8 16 16 15 17 16 
23 26 23 26 21 25 22 22 18 24 21 18 18 17 19 19 23 19 18 15 14 14 16 18 16 14 17 14 18 15 15 13 15 15 17 13 14 19 14 16 16 12 13 10 12 14 15 13 10 10 9 9 11 8 11 11 11 10 8 10 9 12 10 9 13 12 9 11 10 11 14 15 15 15 15 15 17 14 18 16 
22 26 27 26 23 26 27 21 25 22 22 21 20 20 20 16 19 20 21 18 17 15 17 18 16 17 20 18 17 17 17 17 16 15 18 18 15 17 15 14 17 14 14 12 14 15 13 16 13 10 11 11 11 13 11 11 11 13 9 8 11 10 13 11 14 16 13 13 12 12 12 13 14 16 15 16 20 17 19 22 
23 26 23 24 23 24 23 22 19 20 21 19 20 18 19 19 17 21 18 20 18 13 19 17 17 16 19 19 18 15 15 15 16 16 15 15 16 15 15 14 12 15 14 14 11 12 9 11 8 11 9 8 10 10 11 12 8 10 12 9 7 11 12 10 10 11 11 12 15 10 14 13 17 16 14 17 15 13 20 19 
21 28 24 25 23 23 21 18 19 22 18 20 22 18 19 19 18 18 20 17 18 17 13 16 16 17 18 20 16 16 18 16 19 16 18 15 17 14 12 13 13 12 13 12 10 11 11 9 8 10 11 9 10 8 10 12 6 9 9 10 9 9 8 12 10 12 10 13 12 12 15 14 14 16 14 15 16 17 16 20 
15 22 26 23 26 25 24 21 20 21 20 17 16 17 14 20 17 17 17 18 17 16 17 18 18 18 18 20 15 15 19 14 16 24 31 29 28 13 13 14 12 12 13 9 10 11 10 10 9 11 9 10 9 8 9 11 8 8 9 8 9 7 9 10 15 14 12 11 13 12 15 15 20 16 14 16 17 12 18 17 
15 23 21 24 24 22 23 21 21 21 22 20 15 14 18 18 18 20 17 15 19 16 16 19 16 15 20 13 14 17 17 17 32 52 50 42 33 23 16 15 14 13 15 11 12 7 12 9 8 8 9 10 10 10 11 11 9 9 8 7 10 7 10 12 15 14 15 13 13 13 11 12 15 17 14 16 18 14 14 18 
18 22 25 23 22 23 22 23 22 20 22 17 19 18 21 20 19 23 19 20 18 18 17 19 17 15 22 21 15 19 17 27 57 68 60 56 42 32 19 22 17 12 15 11 10 12 11 10 9 12 10 9 12 11 11 13 10 7 10 9 10 7 9 12 12 14 13 14 15 10 12 14 18 18 17 19 18 12 16 18 
18 17 21 21 16 20 24 23 23 19 21 20 20 19 18 23 22 21 18 19 19 16 18 20 21 14 21 21 18 19 20 45 66 78 71 61 54 40 24 21 22 14 13 10 15 13 11 10 12 13 9 9 11 12 12 10 12 9 10 7 6 7 10 13 15 17 15 13 11 11 17 17 18 16 14 15 17 17 15 16 
19 21 20 18 16 15 20 23 22 21 21 18 21 19 21 26 28 25 22 18 19 16 18 19 20 15 25 19 20 21 29 48 68 81 76 72 65 50 34 24 20 15 12 11 13 12 10 9 11 12 13 12 12 12 11 12 10 9 12 11 11 9 9 12 16 15 14 13 14 11 15 18 18 16 16 14 18 15 18 18 
17 16 22 18 16 18 21 22 20 21 24 18 20 18 26 32 37 36 33 24 21 18 21 17 19 18 20 23 22 25 31 46 70 83 72 72 70 61 42 30 16 13 16 11 12 16 12 10 14 11 12 10 11 12 9 14 12 14 13 10 7 8 13 14 17 15 15 11 15 11 18 16 16 18 17 14 19 18 15 18 
16 19 20 24 16 20 21 21 19 20 19 27 20 17 30 53 68 60 49 39 30 20 19 19 19 17 18 23 24 22 27 49 71 83 83 77 80 77 50 29 19 13 16 13 11 13 15 12 13 15 13 12 14 11 14 12 10 11 11 10 10 10 12 15 17 13 14 13 11 12 17 18 20 18 18 14 18 14 16 16 
17 19 21 17 18 22 16 21 20 21 20 22 22 21 44 63 74 70 68 57 47 31 21 20 18 18 16 20 22 26 32 50 75 89 88 86 90 83 61 30 21 17 12 11 12 14 13 13 13 16 15 10 12 13 13 14 13 14 15 10 12 11 10 12 11 15 12 13 10 12 13 16 17 19 12 13 17 13 19 16 
16 23 18 16 14 17 18 16 19 17 18 21 19 27 45 56 75 82 82 86 70 47 24 17 19 17 19 23 21 25 33 45 75 89 94 90 95 90 64 33 19 17 11 15 14 13 16 14 13 15 14 12 13 13 12 14 12 13 10 10 10 10 10 12 13 14 13 11 15 15 15 13 15 15 13 14 16 17 17 17 
23 22 20 21 15 19 20 22 19 18 19 18 26 27 36 60 73 76 89 92 85 58 31 22 22 19 22 24 20 26 33 48 81 94 97 90 91 88 63 30 17 12 13 14 13 17 17 15 11 12 12 12 15 12 10 15 14 12 13 13 11 11 15 12 15 13 13 12 14 15 17 13 17 19 16 16 17 18 18 20 
21 24 23 22 16 21 22 21 20 19 15 20 19 22 36 50 60 74 79 89 93 75 48 32 24 23 26 26 18 23 32 52 86 99 90 72 95 96 53 28 17 15 13 12 12 13 13 18 10 11 15 10 13 14 14 18 12 12 12 13 12 12 11 9 14 13 13 15 17 12 17 17 16 16 19 14 17 17 19 26 
21 25 26 21 19 22 23 21 21 21 18 21 23 23 31 41 47 63 67 86 95 84 61 40 29 27 27 24 20 25 29 63 90 93 78 84 104 84 45 25 18 14 15 15 15 16 16 15 14 13 15 14 16 12 14 17 11 13 13 12 12 13 16 16 17 15 14 14 16 14 18 16 19 18 18 17 17 14 18 18 
22 27 27 24 21 22 22 23 22 24 25 24 23 20 23 34 46 55 64 83 101 98 84 59 39 26 24 25 21 25 36 58 82 76 90 94 99 75 37 23 15 15 15 15 11 13 11 19 12 14 14 13 15 13 13 14 11 14 14 13 15 13 12 13 13 17 14 14 17 14 14 15 16 15 17 17 18 19 20 22 
19 28 27 28 25 23 24 25 23 27 22 20 23 25 24 30 41 49 60 88 114 113 96 76 53 33 28 26 23 29 36 65 85 86 101 102 93 73 36 19 15 16 14 14 12 13 13 10 15 11 11 12 15 12 12 15 13 16 13 10 13 13 12 14 12 19 14 14 14 16 15 18 19 18 16 15 19 18 20 22 
26 31 27 28 25 29 23 23 25 26 25 26 24 24 23 26 37 39 53 87 110 114 111 90 76 47 39 29 25 26 46 75 88 99 94 98 95 63 26 19 18 11 13 14 12 15 11 13 15 15 15 12 16 12 12 12 12 13 12 14 11 12 15 15 17 19 15 17 17 14 19 19 19 18 18 19 21 16 22 21 
26 28 28 28 26 29 27 27 21 25 26 24 23 22 23 23 26 37 54 79 101 95 98 88 72 60 53 39 32 47 67 81 88 92 90 98 94 58 28 19 14 12 14 10 13 15 15 13 18 15 17 15 13 10 15 17 13 13 13 13 13 16 17 13 18 20 17 14 16 18 17 18 16 20 17 19 21 20 20 19 
29 28 30 26 24 28 27 26 24 28 28 23 23 26 28 28 29 31 49 75 84 94 85 74 75 74 64 53 54 73 86 89 88 85 85 88 82 50 22 16 14 13 13 13 11 15 14 14 13 15 15 14 15 10 13 12 12 14 12 14 9 14 16 15 16 20 17 18 17 14 20 18 18 19 20 19 19 20 19 17 
29 30 28 26 26 27 25 27 27 24 26 23 20 19 26 29 28 38 61 77 83 80 81 77 75 70 76 78 89 94 105 102 95 107 87 79 68 42 19 13 13 14 15 14 9 14 15 12 14 14 15 13 13 12 14 16 16 13 15 11 14 14 18 14 13 18 15 18 17 18 17 18 19 18 16 16 17 16 22 22 
28 30 28 27 28 27 26 25 26 27 25 26 26 19 29 32 43 68 79 88 85 82 83 77 76 74 88 101 101 105 110 105 98 92 83 70 56 27 12 15 16 13 16 13 12 17 14 14 16 15 14 11 12 16 17 15 13 15 12 11 13 14 14 15 15 16 17 17 21 19 20 19 18 17 19 19 20 20 23 22 
31 33 29 29 28 29 23 24 21 23 22 23 22 22 30 49 77 98 111 101 97 84 75 79 82 89 117 119 115 113 106 105 95 94 77 66 41 22 14 14 14 12 16 12 12 17 14 14 15 14 13 13 17 15 15 18 16 15 22 13 15 16 16 16 19 18 17 15 19 18 19 18 19 21 21 21 19 20 22 23 
28 32 31 28 25 28 26 22 25 20 20 24 26 36 53 93 110 118 107 98 95 87 76 83 99 113 122 121 112 113 108 103 95 94 73 52 27 15 15 14 15 15 12 12 13 13 13 11 12 16 12 13 16 14 15 17 13 16 12 13 14 15 17 16 16 16 17 17 17 20 18 19 22 21 20 19 23 19 20 18 
31 35 31 29 28 31 26 26 27 25 28 27 36 63 99 108 115 107 100 93 95 86 84 104 119 115 120 120 117 113 113 108 105 95 63 30 23 15 18 15 15 17 18 14 14 13 15 13 14 16 12 13 14 14 15 16 17 18 18 15 16 13 17 18 17 17 15 16 16 18 20 19 21 19 21 18 23 20 22 21 
34 36 34 34 28 32 28 27 25 26 37 56 86 104 102 108 105 107 107 103 98 96 111 113 123 115 120 123 127 123 118 110 105 79 34 19 19 14 18 14 18 16 16 15 14 15 13 16 14 12 16 13 14 16 16 16 17 19 19 15 15 15 18 17 17 20 18 17 18 19 19 18 18 25 19 16 24 21 23 16 
37 37 39 35 29 32 29 30 31 52 80 104 108 107 105 107 115 116 118 118 119 109 112 119 121 119 131 127 124 129 117 109 87 49 22 19 17 17 15 16 14 12 16 13 14 18 16 13 15 14 15 12 15 15 18 19 17 17 19 14 17 17 17 16 21 20 17 19 16 18 18 22 21 22 22 19 21 20 24 23 
38 43 39 37 37 42 44 47 71 103 113 113 115 108 124 121 127 126 130 127 124 118 119 127 129 131 138 134 133 125 118 98 57 32 17 18 20 18 17 17 15 18 17 18 14 19 17 14 17 17 16 16 17 14 20 20 19 20 19 17 16 16 17 18 22 24 21 19 18 21 23 24 21 22 22 19 24 21 24 24 
43 42 47 49 60 76 76 88 107 119 124 122 124 126 128 131 129 132 127 130 129 126 123 134 131 130 133 135 129 125 108 65 31 25 17 18 19 20 16 16 17 15 21 16 14 16 17 15 21 19 18 16 17 19 18 20 19 16 17 19 17 16 16 19 19 21 22 22 21 22 18 23 22 23 22 21 22 24 23 27 
46 52 64 82 92 97 108 112 115 123 126 121 122 127 129 131 130 132 133 132 141 140 140 135 139 131 133 127 125 110 70 31 20 22 17 17 18 20 19 19 17 20 23 13 15 15 19 21 20 22 20 19 20 20 23 22 22 22 19 16 21 17 17 19 21 20 24 25 21 21 20 22 23 24 23 22 24 20 29 25 
73 92 107 111 115 111 123 122 120 123 124 128 135 136 142 141 131 137 140 145 152 147 147 142 143 133 125 125 110 69 38 25 21 24 16 19 14 22 17 17 18 17 19 18 19 20 22 22 21 21 22 20 20 17 20 21 20 22 19 17 19 18 20 18 20 25 24 20 20 20 22 25 25 23 21 22 26 21 25 25 
111 119 126 127 122 118 114 118 122 124 127 121 130 134 137 143 148 143 140 144 154 146 155 151 144 132 129 119 71 40 25 21 21 20 21 19 15 22 15 17 19 20 21 21 20 22 21 22 23 23 24 21 22 18 21 23 19 21 21 18 19 17 18 18 24 23 19 21 20 20 21 24 24 28 23 26 28 24 26 24 
131 134 134 135 128 124 120 122 125 128 125 121 126 134 139 141 149 160 147 152 143 142 160 154 143 139 119 80 42 37 22 19 16 19 23 16 18 19 15 15 18 20 22 19 21 25 24 19 16 17 17 19 21 26 21 18 20 16 16 18 16 16 17 15 17 22 23 21 20 18 20 21 21 24 24 21 25 18 25 24 


