P2
80 60
296
29 34 39 53 96 102 66 39 73 99 77 46 39 36 39 29 30 28 26 25 24 23 22 18 23 22 25 25 27 27 28 26 23 24 24 22 21 23 22 21 19 20 23 24 22 25 23 20 12 12 11 14 13 15 14 16 21 17 19 22 19 19 24 21 22 19 21 22 19 22 22 19 19 23 24 21 24 24 21 18 
29 36 38 58 97 102 62 38 76 97 72 44 37 34 34 32 26 29 27 25 23 23 24 23 26 26 30 25 26 29 23 23 27 21 22 22 23 21 21 21 22 22 26 23 21 25 26 20 15 14 12 17 14 16 15 16 22 18 23 24 26 23 24 29 20 15 19 21 15 20 20 22 22 23 23 19 23 21 23 22 
30 35 41 61 101 97 54 43 81 97 68 40 37 33 31 31 29 30 24 24 24 20 23 25 26 28 25 28 29 29 23 24 18 19 23 22 25 21 23 20 20 23 21 26 23 28 23 22 21 19 17 17 19 21 21 22 26 27 28 29 31 27 22 25 22 18 16 17 21 22 21 22 24 23 23 19 26 27 24 25 
28 33 40 68 101 93 50 45 88 94 62 39 33 30 31 30 26 27 24 26 27 25 26 27 29 24 25 26 30 30 22 26 22 20 23 22 21 19 22 24 22 24 25 22 22 26 24 29 24 23 25 25 25 27 24 26 26 27 29 28 26 24 23 24 21 18 19 19 24 24 23 22 25 24 26 21 24 23 20 20 
31 37 42 74 107 90 50 46 87 92 57 37 35 31 26 26 25 26 25 22 27 26 24 25 28 26 25 28 31 31 27 24 24 16 22 19 20 20 17 20 19 22 25 22 23 22 25 27 25 24 21 26 22 27 25 27 24 25 23 24 21 22 23 21 21 18 17 20 20 22 22 25 23 22 26 22 24 18 20 21 
28 36 43 84 101 86 48 49 91 91 51 33 30 29 25 24 28 25 25 24 27 26 26 23 24 26 23 24 27 28 26 23 22 21 22 19 19 23 19 20 19 23 22 21 23 23 23 26 24 23 24 24 22 25 24 22 23 22 20 22 23 19 24 22 24 21 15 18 23 23 24 25 23 24 23 24 25 14 20 18 
34 39 41 80 101 82 47 46 93 86 46 30 28 25 28 26 27 25 23 23 26 25 23 23 22 21 24 25 30 29 24 22 25 18 22 21 21 20 22 19 18 23 18 19 21 22 19 22 25 22 24 20 22 23 20 23 25 22 23 23 24 21 20 23 21 20 16 18 19 21 23 24 27 22 24 21 17 22 21 17 
26 33 39 80 99 78 41 44 93 82 43 25 24 24 19 20 22 24 26 21 22 21 20 21 20 20 18 22 22 26 23 20 21 20 17 21 19 19 18 18 16 20 18 21 20 21 18 18 19 20 18 19 18 19 20 19 19 19 21 25 26 26 26 23 19 16 15 15 18 22 21 20 24 21 20 19 17 18 21 17 
19 27 32 81 105 78 40 48 95 83 42 23 23 27 23 23 26 23 22 19 22 20 20 19 24 21 22 22 25 26 25 20 21 19 19 20 21 23 20 19 21 22 21 20 21 21 21 21 19 16 18 18 22 20 20 24 24 24 25 24 29 26 26 25 25 20 17 18 20 22 24 23 22 23 25 22 18 22 24 21 
2 2 13 86 103 73 30 49 102 85 35 21 17 21 19 17 20 20 20 21 20 21 18 23 21 22 20 21 23 27 24 21 20 19 20 21 20 24 21 19 22 19 24 23 19 25 22 24 23 18 14 17 22 15 22 28 29 25 28 27 28 27 24 26 26 20 20 15 18 20 23 26 22 23 24 21 23 24 24 22 
12 4 20 87 105 69 27 51 112 91 26 12 12 13 13 13 19 17 17 17 18 17 17 18 18 20 19 19 19 25 23 17 21 19 19 16 20 21 19 20 21 19 19 24 22 18 19 19 21 19 18 22 24 24 22 26 25 24 25 27 27 24 26 26 21 22 17 12 19 22 22 24 26 24 23 19 22 24 24 21 
24 20 29 96 110 72 28 57 112 90 25 10 9 9 11 11 9 8 13 13 16 15 14 16 17 18 16 18 21 22 20 18 20 18 18 21 19 21 21 20 20 20 21 20 19 21 19 20 23 23 22 22 24 23 25 25 25 27 26 30 26 27 24 26 24 21 19 15 19 22 24 25 22 25 24 20 18 24 26 20 
21 23 25 94 110 70 32 61 111 86 22 9 9 9 8 7 11 7 7 4 2 3 1 5 8 10 8 7 10 13 12 13 17 14 14 18 20 17 18 19 18 20 18 20 17 20 21 23 24 21 22 23 23 21 24 24 25 26 27 26 23 26 22 24 23 23 19 16 20 19 22 23 21 28 23 22 21 21 21 18 
19 20 27 97 96 59 33 66 111 82 21 10 10 12 11 11 9 4 6 6 4 5 5 4 1 3 1 2 4 5 0 2 8 5 15 17 18 18 16 20 19 21 21 20 19 24 24 22 22 22 24 21 24 23 24 26 26 25 29 26 26 29 22 25 24 22 20 17 17 23 24 26 24 30 25 23 21 24 22 18 
19 20 38 95 91 51 30 70 108 75 22 14 12 13 16 11 11 11 9 8 6 6 6 5 5 6 4 7 7 6 3 1 0 4 15 19 18 19 17 18 18 19 25 24 22 25 23 26 27 23 26 24 23 27 25 25 29 28 26 25 28 25 27 25 24 25 23 17 17 24 26 28 25 28 26 28 25 23 24 23 
22 18 39 99 88 47 27 72 101 72 19 13 11 13 13 8 9 6 5 6 2 4 3 5 2 4 3 4 2 7 2 4 10 13 17 19 18 18 14 15 18 20 22 22 21 21 22 24 24 20 20 22 26 24 25 24 24 25 23 26 28 23 23 21 22 23 21 16 16 21 24 25 25 26 23 22 22 18 22 22 
17 19 41 102 84 46 29 72 99 64 19 15 12 10 11 9 9 8 6 8 8 7 8 4 5 3 4 4 3 9 13 17 19 19 18 18 18 17 20 20 19 20 23 21 21 19 21 25 23 22 22 23 24 24 26 25 24 29 26 27 24 25 23 22 25 23 20 17 16 20 24 24 25 25 23 25 25 20 25 19 
20 19 46 100 88 47 24 77 96 63 18 13 16 15 13 14 10 10 8 9 11 9 7 7 9 4 8 8 11 19 19 23 21 19 19 16 22 22 21 17 19 20 22 23 23 21 22 26 25 22 23 24 23 26 23 27 27 26 26 28 29 25 26 28 21 25 24 20 16 20 24 22 25 22 24 23 27 29 24 21 
22 20 47 99 85 44 27 77 96 62 17 16 13 14 15 13 11 11 8 10 11 9 7 8 7 4 5 5 14 19 18 19 15 17 14 19 15 20 18 17 17 17 20 18 23 25 20 22 21 20 24 23 24 24 23 23 24 27 28 26 26 24 21 24 21 25 23 18 10 18 22 20 24 23 22 24 28 26 25 24 
23 18 50 101 86 44 27 82 97 58 18 14 14 14 16 15 14 11 13 10 9 10 9 7 8 8 8 6 10 22 22 20 21 19 17 20 19 19 19 21 18 19 22 24 21 22 22 23 26 25 25 24 23 24 26 27 29 25 28 29 29 26 26 25 27 25 27 24 12 15 23 25 25 26 23 24 26 25 25 23 
25 24 58 106 86 39 31 85 98 56 20 17 17 17 14 16 15 12 14 12 8 8 9 9 10 9 8 11 12 16 22 16 18 16 17 18 19 19 19 20 19 18 19 23 23 26 23 26 24 22 23 25 23 23 23 28 28 27 26 27 27 27 26 26 25 29 24 26 20 16 23 23 27 29 27 26 27 23 29 27 
30 30 70 117 85 40 33 87 98 53 18 15 16 18 12 13 14 13 13 14 10 15 10 10 9 9 11 10 9 13 20 17 19 15 14 21 17 20 19 15 19 20 21 20 23 23 23 22 26 25 25 24 23 26 24 25 25 27 26 28 28 27 28 26 22 23 25 23 18 16 19 27 24 28 26 24 25 25 28 22 
83 77 107 124 83 32 38 90 97 49 19 18 15 13 14 13 11 13 12 14 12 10 11 8 8 8 9 5 8 16 17 18 17 15 18 16 18 20 17 15 17 17 22 20 21 22 21 24 25 26 22 21 24 23 23 22 25 26 25 28 26 25 25 28 23 25 24 23 20 17 17 22 26 27 27 25 22 25 28 26 
110 106 106 102 67 31 39 91 95 54 20 19 17 15 14 16 15 13 12 15 11 15 13 12 8 10 8 12 10 14 21 19 18 18 18 16 20 22 20 21 18 21 22 23 22 22 22 22 25 23 26 25 25 25 27 26 27 27 25 26 26 23 27 26 24 26 23 27 25 24 17 20 24 24 23 26 23 26 30 26 
101 99 92 87 49 29 44 97 96 53 25 20 18 16 17 17 16 13 12 14 12 13 14 13 12 11 12 10 13 15 21 20 17 17 20 19 20 21 22 22 22 21 24 24 21 24 25 25 28 26 25 25 27 28 23 28 25 30 27 27 28 28 26 26 27 27 28 31 27 26 21 17 18 21 25 28 27 27 24 20 
43 46 45 44 25 27 45 102 99 53 20 20 20 19 16 18 16 17 14 14 11 18 14 16 13 10 10 10 17 14 21 20 20 20 20 19 23 23 21 25 22 23 25 25 23 26 22 24 26 27 26 25 26 27 23 25 29 26 28 31 30 25 28 31 28 28 28 30 27 26 29 25 19 17 18 22 22 23 25 18 
32 28 23 23 21 26 49 111 100 54 22 18 20 19 18 19 14 16 15 14 16 15 13 14 15 11 9 13 13 14 23 21 19 18 18 21 22 22 24 20 23 22 24 22 22 25 21 25 26 24 27 24 23 24 25 26 26 24 27 27 28 25 26 24 26 26 26 27 27 26 27 28 24 24 20 20 23 19 25 23 
76 67 58 52 44 48 69 122 98 47 19 19 22 17 19 16 17 15 16 14 15 15 14 18 15 13 13 12 12 14 21 17 19 18 20 23 20 24 23 24 25 24 24 22 23 23 22 24 23 25 25 25 24 25 28 27 26 29 27 27 27 26 25 29 27 26 27 28 25 28 26 28 30 27 27 25 28 24 25 20 
118 110 103 101 93 100 110 112 89 46 19 18 20 18 19 18 16 18 17 16 16 16 16 16 14 15 11 16 16 15 19 26 19 22 21 24 23 26 24 22 23 26 26 25 22 22 22 26 24 26 25 22 24 27 27 25 25 27 28 27 27 27 25 30 25 29 27 30 25 32 29 30 29 29 30 29 30 24 24 28 
102 100 100 100 92 96 95 92 75 30 17 16 18 18 18 17 19 17 17 20 17 14 17 15 14 14 16 11 15 18 22 22 20 18 23 23 22 21 22 25 25 21 23 25 22 25 22 28 24 22 23 27 24 26 26 26 28 26 28 30 29 27 27 30 26 27 26 29 26 27 28 30 30 29 26 29 28 25 28 26 
41 45 45 51 52 57 57 57 38 20 21 18 20 20 21 20 19 19 18 14 17 18 16 16 15 15 17 13 15 18 20 22 22 21 19 21 22 22 24 26 22 25 25 24 23 22 22 26 24 27 25 25 26 25 26 26 27 28 25 28 29 24 28 26 27 26 26 29 26 28 27 29 31 27 28 28 30 25 28 27 
26 23 24 25 20 28 26 25 22 18 21 22 21 21 23 19 25 19 22 16 19 18 18 18 16 15 17 16 12 16 20 22 21 21 20 25 20 25 25 26 24 25 25 22 25 24 25 28 26 24 27 26 28 26 24 28 29 28 28 28 29 28 30 30 28 30 28 33 27 27 28 29 32 28 28 29 30 29 29 28 
26 22 19 24 21 24 20 22 20 19 21 21 22 23 22 18 22 20 18 17 18 21 22 18 16 20 19 18 17 16 21 26 25 20 22 23 23 24 23 27 24 24 25 27 24 24 25 27 25 26 26 25 27 25 29 29 27 27 27 25 30 27 29 30 28 28 28 30 26 30 26 29 31 32 28 24 30 30 31 27 
29 23 23 24 19 23 22 22 20 23 22 22 24 24 26 24 22 21 21 21 21 20 21 24 22 20 20 18 16 16 22 24 25 25 24 24 27 28 27 24 25 27 27 27 26 24 25 29 28 27 27 27 27 25 28 27 28 29 27 29 32 31 28 32 29 30 30 30 28 33 32 32 33 34 32 28 30 32 31 28 
27 27 23 23 20 21 20 23 20 23 23 24 26 25 23 23 24 24 23 22 22 25 24 20 21 18 20 18 17 17 23 22 26 23 25 22 26 22 25 25 25 25 28 27 26 23 25 31 24 25 25 28 28 24 28 29 27 29 28 29 31 30 30 27 28 29 29 30 26 31 29 31 34 31 29 28 31 31 31 29 
31 23 21 24 19 25 21 21 23 20 20 24 22 24 22 24 23 23 22 22 23 26 21 25 19 20 21 21 17 20 22 24 24 24 23 25 23 25 25 27 22 25 24 26 26 23 26 28 26 24 25 26 24 25 24 26 28 30 28 30 29 28 31 29 29 27 31 31 29 31 29 33 34 33 30 29 32 30 32 34 
30 24 25 25 23 20 22 24 22 22 25 24 26 25 25 26 27 24 22 24 24 23 24 21 23 22 24 24 22 20 24 26 25 25 24 26 24 24 29 27 25 26 27 26 25 26 28 28 26 28 25 28 27 30 28 28 28 26 28 31 29 29 32 30 28 30 30 31 27 29 30 31 36 31 32 33 32 33 36 36 
31 27 23 25 20 23 23 24 24 22 23 26 25 23 25 22 25 24 25 24 23 23 23 25 24 22 24 25 20 20 25 27 26 24 27 22 25 20 23 22 24 26 27 28 24 27 27 30 26 26 27 25 26 26 28 28 27 29 27 28 30 30 29 29 32 31 29 33 31 28 32 33 34 35 33 29 33 35 40 39 
32 29 25 26 18 23 26 24 24 23 21 25 25 28 26 28 28 26 26 25 25 26 25 24 25 23 24 27 22 23 21 26 24 25 27 24 27 25 26 26 28 24 27 26 28 28 29 29 28 26 29 28 27 25 28 28 30 27 29 32 29 27 29 29 31 29 30 31 31 30 28 34 38 36 32 30 33 33 45 52 
30 27 25 26 16 27 25 26 22 22 24 25 27 25 25 29 26 26 28 26 26 26 20 25 28 24 25 27 25 22 25 27 27 23 26 28 27 26 26 24 26 30 29 29 25 29 28 27 28 26 29 25 27 25 30 25 27 28 28 30 30 28 26 27 29 32 32 30 29 32 33 31 34 35 34 32 44 49 66 86 
34 28 29 27 21 26 28 28 24 23 25 25 25 27 30 26 31 30 28 28 28 29 28 29 32 28 26 28 25 26 25 27 27 29 29 23 30 28 25 29 27 29 27 28 25 28 29 31 30 26 29 28 30 27 29 27 30 29 31 28 30 30 32 29 30 29 33 34 29 31 35 34 37 38 38 50 61 59 81 160 
32 25 24 34 24 29 28 28 24 21 28 29 26 29 33 31 33 30 31 31 30 32 31 30 32 28 27 30 30 28 28 32 32 28 28 23 28 28 31 29 32 28 30 28 29 27 30 31 30 25 27 25 30 29 28 26 31 31 31 31 31 30 30 30 31 34 35 33 30 34 35 36 39 40 38 43 52 86 178 236 
32 24 27 32 27 25 25 25 28 25 25 28 28 28 28 32 30 29 33 30 32 30 34 33 31 31 28 29 28 26 23 30 31 29 29 26 31 30 29 30 28 30 27 28 28 29 28 27 29 28 30 25 29 28 26 24 29 25 30 30 35 28 28 32 29 35 30 31 31 33 36 38 43 45 51 63 121 209 263 269 
34 26 24 30 26 29 35 30 25 23 24 27 29 29 28 33 32 34 32 35 34 33 36 36 32 31 28 29 31 28 23 31 31 28 30 29 30 29 29 31 28 28 26 29 27 27 28 28 26 27 30 26 28 25 27 28 29 28 27 31 32 31 30 33 30 33 35 33 32 33 48 61 72 102 135 176 236 272 284 283 
31 25 26 28 27 31 30 25 28 23 29 29 29 31 32 31 34 34 34 34 32 34 35 36 34 31 25 26 32 29 24 26 31 28 31 31 31 29 30 30 29 29 28 27 25 28 26 30 31 27 28 28 27 23 25 26 31 25 28 30 30 27 30 32 30 35 33 35 36 50 100 142 179 222 251 263 285 295 280 273 
31 31 28 31 26 31 29 28 28 25 26 31 32 33 35 35 36 32 36 39 37 36 39 36 33 29 27 28 27 27 22 26 30 31 33 31 29 32 32 31 31 29 27 30 27 27 27 29 29 31 27 31 26 27 26 25 29 30 31 30 31 33 30 33 34 33 37 37 45 87 140 219 257 275 278 282 296 282 256 241 
33 31 25 31 28 31 32 26 28 26 32 31 32 35 36 33 35 36 36 39 39 37 41 39 36 34 33 32 31 34 27 27 31 29 32 31 32 30 31 30 31 32 28 27 28 30 28 27 31 29 30 29 28 27 30 26 28 28 31 30 33 31 34 29 35 37 37 41 56 99 148 228 236 233 219 211 207 195 196 201 
32 31 30 31 27 31 37 28 29 29 28 31 31 33 36 36 38 38 36 42 37 38 39 38 41 44 42 41 39 41 33 26 31 30 33 32 32 29 31 31 34 31 29 31 30 27 31 31 30 29 29 29 27 31 29 30 30 27 31 33 33 32 31 33 34 34 38 43 73 105 122 152 151 152 153 157 165 175 190 214 
32 28 26 34 27 30 33 30 27 28 29 31 33 31 33 33 37 35 38 37 39 38 41 40 47 45 44 41 40 38 33 29 33 32 32 37 34 33 31 30 33 35 30 29 28 29 29 31 25 32 29 31 30 28 30 29 32 31 30 32 34 34 32 33 35 35 33 47 78 105 120 130 134 144 152 164 182 198 219 238 
31 28 27 29 26 28 32 30 28 26 29 32 34 38 38 36 39 34 36 37 40 42 38 43 45 47 44 44 42 41 32 28 31 35 36 33 34 35 32 33 31 31 33 32 30 26 29 28 27 30 29 28 31 27 28 29 31 31 33 34 33 32 33 32 34 34 36 49 78 114 136 145 150 165 171 180 198 213 231 243 
32 32 33 29 29 28 33 29 31 31 34 35 35 37 40 37 40 40 40 39 40 44 43 43 46 47 45 47 45 41 34 30 33 30 35 39 34 34 34 35 33 33 30 32 31 28 32 31 30 26 30 33 28 31 35 30 32 33 33 32 35 33 33 34 33 34 37 44 77 113 138 148 155 166 173 184 198 210 234 243 
34 32 33 33 28 34 34 30 33 32 33 32 36 35 37 38 43 40 41 44 45 47 48 45 47 48 47 47 42 43 36 31 35 34 36 37 37 35 36 35 33 32 36 32 32 31 33 30 31 30 32 31 30 36 42 38 37 36 35 34 36 33 33 36 35 35 40 42 71 110 136 149 152 166 170 185 201 213 231 250 
38 37 33 36 31 32 35 36 36 35 34 40 39 37 42 38 45 43 46 44 47 46 50 48 52 48 49 45 48 45 40 34 32 37 38 37 38 38 38 35 35 36 33 33 32 32 30 34 31 30 30 34 35 40 47 45 46 39 38 36 34 35 33 34 37 38 41 41 64 105 129 147 153 165 170 183 195 213 228 241 
40 35 33 38 35 38 39 36 35 37 38 40 43 39 40 44 43 42 46 48 52 48 51 54 53 54 54 47 45 48 39 33 34 35 38 39 39 36 35 34 34 33 36 35 31 33 32 32 33 32 34 35 36 41 58 78 71 50 40 38 37 36 35 35 37 38 41 41 60 99 126 143 152 158 166 177 193 207 228 241 
39 39 39 38 36 40 42 38 40 38 39 42 43 43 47 46 51 47 51 51 53 52 56 57 56 58 57 57 51 50 43 39 36 38 43 43 40 40 35 36 38 36 35 39 34 35 36 33 34 34 37 36 38 61 173 192 126 70 41 39 35 37 38 36 36 38 38 44 59 97 122 139 149 157 165 175 194 206 228 236 
47 47 40 43 39 44 47 42 41 42 43 45 48 48 48 55 56 53 53 56 56 61 61 60 60 60 61 56 54 54 46 42 40 43 44 45 42 42 43 40 41 38 39 39 35 39 39 37 39 39 38 41 44 68 203 202 123 67 47 44 39 36 38 38 39 38 39 45 52 95 122 143 148 157 160 167 182 198 228 238 
50 44 45 46 42 45 49 45 47 43 45 44 49 50 50 52 57 55 58 61 60 62 67 67 64 66 64 59 59 56 49 40 41 42 45 45 43 40 38 41 40 37 38 41 37 40 39 39 37 40 39 36 43 47 82 90 76 53 45 41 39 36 37 38 39 36 39 42 53 86 116 138 147 155 158 160 150 175 222 231 
54 49 44 52 44 48 50 51 48 49 48 48 52 56 54 57 57 58 63 65 65 68 68 70 73 73 70 67 63 57 50 43 41 44 46 45 43 35 37 42 37 41 39 44 42 41 39 39 39 43 38 43 41 41 50 53 52 45 41 41 37 41 39 38 40 39 40 38 46 81 110 133 141 152 155 153 147 185 219 229 
61 61 56 55 49 59 60 52 53 55 53 52 57 58 56 57 63 62 67 67 73 77 80 81 82 82 77 73 63 61 51 47 46 45 50 51 45 44 57 54 42 44 48 49 42 45 42 43 43 44 42 40 40 43 42 44 47 45 44 42 40 42 38 40 43 38 44 45 53 76 109 136 147 154 156 162 176 197 217 226 
78 76 69 65 59 64 63 62 58 57 57 61 59 60 60 66 65 68 73 79 79 84 80 81 88 90 85 74 65 64 55 54 46 50 53 51 51 64 118 84 53 53 50 51 46 46 47 44 44 45 43 42 41 40 45 44 44 47 42 47 45 39 41 42 43 40 44 45 53 73 108 132 145 152 162 167 180 195 222 223 


