P2
80 60
324
307 308 310 314 308 311 308 305 306 308 303 311 309 304 306 306 306 305 303 296 296 287 284 286 285 275 261 253 250 233 237 228 225 223 221 216 215 208 199 196 189 187 179 201 210 186 135 107 95 95 91 87 83 75 83 91 91 92 89 85 71 58 67 73 82 76 74 78 82 86 84 83 84 82 80 78 84 79 74 71 
304 300 307 314 313 312 313 308 305 307 307 308 310 308 308 307 308 311 306 301 299 291 288 285 286 264 259 257 249 244 236 234 228 219 219 216 208 204 200 200 195 190 177 179 194 194 158 107 92 96 93 88 82 88 90 91 93 91 88 80 67 56 73 73 77 77 75 83 82 86 84 82 85 81 82 78 80 81 80 73 
295 299 309 316 320 317 314 309 310 311 311 312 309 313 312 308 305 306 301 293 296 288 288 286 286 270 261 256 253 246 243 237 234 214 210 208 205 201 202 205 203 198 182 176 172 189 173 114 96 94 96 91 88 95 92 91 91 88 90 83 72 65 75 73 73 78 79 84 81 85 81 80 81 78 76 80 78 82 77 75 
288 293 308 312 318 324 321 319 316 317 318 313 314 313 311 306 304 300 292 289 293 287 282 288 284 272 263 261 258 256 248 237 236 220 210 206 209 212 211 210 211 204 190 173 174 178 182 117 96 97 93 95 94 92 90 92 91 90 89 85 83 81 73 72 77 82 83 82 83 81 78 80 79 77 74 70 80 77 74 70 
281 288 297 310 314 318 320 323 323 322 320 318 315 312 313 312 298 299 289 287 285 285 279 282 280 268 266 262 262 258 255 244 237 227 213 209 212 224 229 221 215 211 195 181 180 175 174 119 95 92 95 95 94 93 94 92 91 88 88 84 84 77 72 76 79 83 85 83 85 80 77 77 79 78 71 68 76 76 72 71 
275 278 290 299 309 312 315 319 320 321 315 317 315 314 313 307 301 292 287 283 282 276 275 279 274 261 264 265 261 264 255 248 235 225 218 213 218 237 241 230 228 218 204 186 186 178 172 114 95 95 93 96 94 95 91 93 94 92 88 88 81 73 75 78 81 83 85 84 79 80 78 77 76 73 72 70 77 71 70 65 
269 270 277 288 296 304 308 311 314 316 316 314 313 312 314 309 304 297 284 281 283 276 279 278 270 264 265 268 266 267 266 250 236 224 221 223 232 242 238 236 234 230 209 188 188 184 171 108 93 94 92 94 96 94 92 91 89 86 85 82 75 72 77 79 84 85 82 81 80 78 75 73 75 72 69 73 72 71 66 68 
257 266 271 276 283 296 300 306 311 314 317 317 314 313 316 308 305 300 295 292 288 286 286 282 268 267 272 273 269 274 269 250 235 228 222 231 248 253 242 233 241 232 199 184 187 188 172 114 95 91 95 94 93 95 90 93 89 85 86 80 73 75 81 80 84 85 82 80 79 76 72 73 70 73 70 70 73 71 67 65 
250 252 262 273 272 287 292 299 304 311 312 315 314 316 314 312 311 308 304 297 298 297 293 288 276 279 279 274 270 274 269 252 240 229 232 241 249 245 229 229 240 223 193 188 186 189 179 115 98 95 97 96 92 93 92 86 87 85 79 74 77 76 84 82 85 82 82 82 76 76 71 73 74 73 68 66 65 64 67 62 
246 246 257 264 269 279 287 294 299 303 303 314 314 311 310 312 311 309 302 302 303 304 300 293 286 285 280 277 274 275 266 252 248 231 236 240 244 230 226 227 238 215 192 188 193 190 179 119 98 95 95 97 93 89 84 83 83 82 75 76 79 81 83 84 81 81 81 78 75 73 71 74 68 65 50 41 37 38 37 50 
236 243 250 261 262 278 282 289 296 300 305 311 313 312 313 311 310 309 308 307 311 307 301 294 294 287 285 281 276 270 267 261 246 234 239 241 234 237 236 229 236 206 194 194 199 191 181 111 98 97 96 92 90 94 86 86 82 76 76 77 81 84 86 84 81 79 78 79 74 73 71 71 68 50 28 20 19 24 22 29 
244 247 253 256 263 276 275 281 282 297 300 304 308 309 310 315 312 307 310 308 309 305 294 293 294 292 288 282 277 273 271 256 243 246 241 239 236 242 241 234 225 197 199 196 201 199 175 109 100 95 95 93 92 89 89 86 77 72 74 78 84 81 84 81 78 80 76 75 74 70 70 74 63 29 14 10 14 16 20 19 
243 243 250 252 257 266 269 280 282 293 295 298 303 313 315 310 307 310 307 308 310 300 299 299 299 294 288 282 277 275 260 250 252 251 246 241 238 241 246 234 205 201 200 203 207 208 161 100 95 93 94 92 91 88 87 81 66 73 76 83 87 82 83 82 79 76 75 74 77 73 72 68 50 22 10 2 3 5 15 19 
241 243 246 249 254 263 265 273 272 281 292 297 302 313 312 307 309 313 313 305 309 305 303 305 300 292 284 284 277 267 260 259 258 255 245 240 239 239 231 212 201 209 203 202 210 201 137 103 96 91 92 92 89 91 87 73 68 76 79 86 84 83 85 80 77 75 77 72 74 73 65 67 50 16 10 6 0 5 16 18 
241 238 243 249 253 257 258 267 265 272 282 291 297 302 308 310 306 308 309 305 311 307 309 304 297 291 284 280 270 271 270 265 264 262 247 241 243 233 221 206 213 211 207 204 205 182 114 94 96 91 87 90 87 87 73 70 72 79 83 83 83 81 77 75 74 74 74 72 74 72 68 64 49 14 4 4 6 14 10 18 
247 246 249 255 260 260 257 264 263 266 273 279 285 294 300 303 302 303 308 307 309 306 304 300 295 291 283 277 274 275 278 268 269 263 254 245 244 228 211 221 220 214 205 203 200 148 99 92 89 92 89 90 87 86 76 72 81 83 85 82 79 80 77 72 72 73 75 71 69 71 70 70 61 31 11 14 15 16 18 19 
260 254 258 264 265 268 265 265 272 271 278 280 280 284 293 292 292 296 304 304 302 300 299 297 294 287 283 278 278 278 276 271 268 261 253 245 234 220 224 225 220 212 202 195 159 103 91 92 87 87 87 88 88 86 78 80 83 83 86 84 78 77 74 74 73 74 70 73 69 68 68 71 65 52 30 21 24 27 25 37 
267 267 269 276 275 281 283 281 281 281 280 280 282 278 286 284 283 294 295 290 288 289 290 291 287 285 276 274 275 273 267 267 266 262 249 237 229 226 226 232 224 211 200 173 112 99 91 88 89 87 85 88 87 89 76 80 80 80 83 80 78 76 74 74 71 71 69 70 67 65 65 67 65 61 55 52 40 43 52 56 
283 278 283 281 277 285 286 289 286 285 286 285 280 282 287 287 284 283 282 277 279 284 285 283 279 277 272 269 274 273 266 260 259 253 239 234 238 240 237 226 211 195 184 135 95 92 90 90 87 83 85 88 86 77 77 78 82 83 84 80 78 73 73 73 71 69 72 70 65 66 64 69 67 65 64 65 64 64 62 59 
292 282 282 286 284 297 291 294 293 291 289 290 285 287 285 288 285 284 275 272 275 277 277 278 274 270 266 268 262 256 256 253 250 244 235 234 236 233 223 202 195 193 165 102 95 87 90 91 88 85 87 87 84 78 78 78 79 81 78 80 80 75 77 70 72 71 71 69 67 68 68 65 66 65 65 67 67 64 63 55 
294 283 284 291 290 297 291 295 295 292 295 294 287 284 286 288 286 287 282 277 274 274 272 268 271 263 261 258 251 245 244 240 240 237 231 230 221 215 204 197 207 172 126 91 94 90 89 87 87 86 86 83 78 81 83 81 81 77 76 75 75 75 71 72 71 73 69 69 66 67 66 69 68 68 65 70 67 65 63 65 
289 283 286 289 291 294 293 296 297 292 293 293 286 284 283 284 283 286 285 277 271 270 270 269 271 263 256 248 244 239 239 231 229 227 228 219 212 194 204 217 179 126 99 90 92 91 88 85 86 86 83 79 81 85 84 81 76 75 79 76 72 72 75 73 72 70 70 72 69 70 66 67 67 62 65 66 64 62 58 54 
285 285 285 285 289 287 287 290 290 293 290 288 288 287 285 281 279 283 274 273 273 269 272 268 271 272 265 255 249 246 244 238 233 231 222 214 203 201 219 186 125 94 92 90 91 87 89 89 89 85 83 80 84 86 86 80 78 72 75 74 72 71 70 72 75 70 71 72 71 69 66 67 67 65 69 64 64 65 57 56 
292 289 290 285 281 281 285 282 284 283 284 288 291 288 287 278 272 270 266 266 260 261 258 263 267 267 264 260 254 254 249 246 245 237 223 211 202 206 199 139 97 91 92 87 93 90 90 88 87 87 82 83 83 87 82 80 77 75 73 73 72 71 72 67 60 59 60 71 71 73 70 67 72 67 63 69 70 65 60 59 
291 284 290 284 278 282 280 278 282 279 279 285 285 283 282 281 278 271 267 256 249 243 242 246 249 254 255 253 251 248 244 237 236 230 212 203 209 203 153 98 93 92 83 86 90 86 86 87 83 85 83 81 83 85 79 77 76 74 73 71 68 66 56 34 28 30 37 47 63 69 70 67 69 66 61 65 67 63 61 66 
278 280 287 281 276 281 280 279 281 276 279 284 278 282 285 282 283 282 276 265 259 253 242 242 244 239 240 243 241 237 236 227 224 218 200 214 213 176 116 95 92 91 84 81 88 87 87 88 87 82 84 85 84 82 78 77 76 74 73 72 70 66 29 21 19 23 25 29 44 63 72 68 69 68 66 66 68 65 59 61 
267 266 273 268 274 280 276 282 283 278 278 282 278 281 279 281 283 286 280 274 272 267 255 253 253 247 246 250 245 243 238 230 223 207 199 204 163 115 96 92 91 92 85 81 85 86 89 85 83 79 79 83 80 79 77 77 76 74 74 74 70 55 19 12 13 9 21 30 37 53 67 68 69 70 64 65 67 63 61 57 
254 249 256 248 258 267 265 272 276 280 272 273 276 275 272 277 278 283 283 279 279 272 269 267 264 256 252 255 252 248 242 229 208 171 137 120 104 97 94 94 91 90 87 83 86 86 89 88 84 78 77 78 78 80 76 77 74 73 73 72 69 52 25 15 11 13 18 27 30 53 63 67 66 65 65 61 65 63 55 58 
199 196 199 204 215 226 233 242 247 255 265 269 264 264 263 267 268 276 276 273 272 269 270 267 265 261 253 254 249 235 230 193 140 111 99 99 97 94 94 93 92 94 93 89 89 89 90 90 86 83 77 79 78 80 77 77 76 74 75 72 71 56 28 18 18 17 26 37 35 52 61 67 65 67 65 65 67 65 53 55 
109 106 115 112 125 127 138 157 174 200 220 234 240 245 240 238 244 251 253 246 241 241 232 229 225 219 221 217 212 196 159 119 103 102 95 99 95 95 93 91 91 95 92 89 93 90 89 89 86 84 79 79 78 79 75 77 74 73 73 72 72 65 47 37 28 25 31 39 43 61 68 70 67 66 65 68 66 64 61 60 
96 91 94 93 95 96 96 96 104 105 113 127 134 135 143 146 152 156 154 146 136 131 126 131 160 174 178 190 173 132 108 96 93 97 93 97 96 94 95 87 88 92 91 91 93 89 90 86 86 87 88 80 76 79 79 79 75 75 73 73 71 70 65 54 48 42 47 48 62 69 69 72 68 68 65 66 68 66 53 60 
89 90 91 89 90 91 89 93 94 97 94 97 94 95 98 99 101 97 97 97 97 104 101 101 109 117 128 137 112 98 100 95 95 97 95 96 93 95 89 83 86 89 91 91 90 88 89 86 86 88 89 89 79 78 77 76 78 73 76 74 71 69 68 66 66 63 60 68 73 72 70 70 72 70 65 66 69 63 59 61 
85 86 92 91 88 90 87 89 92 90 91 95 88 92 93 91 93 93 91 92 94 95 97 100 99 98 101 100 99 96 96 95 94 95 95 91 95 92 90 86 87 88 91 89 91 88 88 88 86 88 90 92 90 82 77 73 76 75 75 73 72 70 72 70 72 70 73 71 71 70 73 71 71 68 67 67 68 65 59 61 
87 82 89 88 84 90 88 89 90 90 89 93 90 87 87 88 89 91 91 93 93 97 97 95 96 96 97 94 95 93 93 91 96 97 94 94 93 93 93 87 89 92 91 89 91 87 86 88 89 89 89 91 90 92 82 78 74 79 78 77 73 72 73 70 72 71 72 72 72 71 71 72 68 67 71 68 68 65 59 63 
84 83 83 82 88 88 86 89 90 89 91 88 86 85 86 90 91 91 89 88 89 93 94 94 95 94 91 92 93 94 93 88 92 96 97 90 93 91 91 87 89 91 90 88 92 87 86 90 89 87 89 90 88 92 93 89 79 72 75 79 74 73 71 70 71 70 73 72 67 67 66 69 68 66 66 65 66 62 59 57 
81 79 80 83 84 87 87 88 88 88 86 88 85 88 89 88 88 86 91 89 87 91 94 93 94 91 93 94 94 94 94 92 93 94 92 91 94 89 92 89 89 90 92 90 93 87 87 91 88 84 91 91 92 92 91 94 93 85 75 77 72 76 76 72 69 71 73 70 69 69 67 69 66 67 68 63 67 61 58 59 
81 75 78 83 86 87 88 88 88 86 84 86 84 84 87 84 84 85 91 85 91 89 92 91 89 91 92 93 92 94 93 93 96 95 92 93 91 92 91 89 91 91 92 89 91 90 90 90 89 84 90 90 93 93 90 93 94 91 84 78 75 74 75 77 73 71 74 71 67 68 71 67 66 68 67 66 65 59 53 55 
80 81 80 83 85 89 86 88 89 84 86 84 82 87 86 86 87 86 87 85 88 91 89 90 89 92 91 96 91 97 94 93 94 94 93 96 92 93 93 88 88 88 90 91 94 88 88 90 89 86 87 90 94 93 92 93 96 92 94 88 75 74 72 75 74 74 72 73 70 69 70 70 66 65 66 64 69 64 55 62 
85 83 84 83 85 89 88 87 86 83 80 85 84 83 84 85 88 87 89 86 88 91 91 91 92 91 90 93 94 93 95 93 91 94 94 95 93 92 91 87 89 94 93 89 92 91 90 90 89 86 91 93 91 96 94 94 92 92 94 94 87 73 76 73 73 73 75 74 73 71 72 68 70 67 64 61 68 65 60 64 
83 86 86 88 85 89 86 86 84 83 77 82 83 87 86 86 83 88 88 91 88 90 90 92 94 89 91 91 93 92 92 92 91 92 94 97 95 92 91 88 90 91 94 92 93 91 88 90 90 87 88 92 91 96 91 94 96 95 94 92 92 85 80 73 76 76 75 75 77 72 73 68 69 69 65 65 68 65 65 59 
84 83 85 87 87 86 86 85 85 78 77 83 86 85 83 84 86 84 85 90 89 90 89 91 91 90 89 93 95 94 94 92 94 92 90 93 93 93 94 90 89 90 93 94 94 89 89 91 88 86 86 89 94 94 96 95 93 94 96 95 94 92 91 84 79 74 75 73 72 73 69 66 69 67 64 65 68 64 62 60 
86 80 89 87 88 85 86 86 82 79 76 82 83 84 84 86 83 87 84 86 89 87 89 92 90 90 89 94 91 93 93 91 92 95 92 92 92 94 94 92 90 94 94 91 92 89 89 90 89 88 88 89 90 94 90 94 95 92 94 94 92 93 93 91 88 78 78 77 75 76 71 70 70 69 65 67 68 63 64 65 
84 84 88 88 87 86 85 82 83 80 80 82 84 85 86 80 85 87 87 87 88 87 90 90 89 92 93 90 90 94 93 89 93 95 94 94 93 91 95 94 91 91 92 92 92 91 90 88 89 88 85 89 90 93 96 92 93 92 97 95 93 92 95 92 98 87 88 79 76 75 73 71 71 70 67 65 66 67 58 61 
86 85 88 88 86 85 84 86 86 83 84 83 85 83 84 87 87 88 87 88 88 90 89 90 90 92 89 90 87 92 92 90 92 96 95 94 92 93 94 93 93 94 93 92 93 91 90 91 90 88 87 89 91 95 93 95 94 96 94 97 96 96 95 96 94 92 95 90 77 76 75 74 75 75 69 68 68 66 62 59 
85 82 85 87 88 86 84 86 86 82 82 83 85 85 84 83 84 87 87 86 88 91 89 91 91 88 89 90 87 92 90 91 90 96 92 92 93 94 90 92 93 92 94 92 92 92 88 89 87 85 87 90 92 92 93 93 92 91 93 96 96 92 95 93 93 94 94 94 88 75 74 76 77 76 70 69 71 67 58 61 
89 84 92 86 85 86 84 84 85 82 84 86 83 87 85 87 86 90 88 91 88 92 91 90 93 89 91 91 89 90 92 91 94 94 94 94 93 94 93 92 89 93 94 91 93 94 90 91 89 84 89 90 91 95 94 91 93 93 95 93 94 95 92 95 96 94 95 94 91 88 79 77 75 75 73 72 74 69 65 64 
89 87 86 87 87 88 85 85 87 82 83 82 85 83 85 89 88 89 89 90 91 92 90 90 90 90 89 92 91 90 91 90 92 92 93 93 92 92 93 90 90 93 95 94 92 92 91 88 89 88 91 88 90 94 92 93 89 92 92 94 89 94 93 94 94 94 95 91 96 93 90 85 79 77 73 73 77 71 62 69 
85 82 87 89 87 83 81 81 84 82 80 85 85 85 86 85 87 89 90 89 90 93 88 91 88 86 83 89 90 90 91 91 92 92 94 92 96 90 93 92 90 95 96 92 93 90 89 88 89 87 87 89 90 94 91 92 87 88 88 92 89 92 92 96 93 89 95 94 91 93 89 93 87 79 73 74 76 72 67 66 
82 80 88 89 85 87 82 82 85 79 81 84 84 83 87 85 87 86 91 88 89 90 90 89 86 88 88 89 87 92 92 89 89 92 93 93 92 93 93 92 92 95 96 92 90 90 88 87 90 87 91 89 90 96 92 91 92 87 88 85 89 90 92 94 94 91 95 96 93 90 94 93 93 93 76 76 72 69 66 65 
82 86 85 85 86 84 82 83 83 78 77 84 83 84 86 86 88 91 89 87 90 89 90 92 88 85 87 88 92 91 90 87 91 92 92 91 88 90 92 90 92 92 93 90 91 90 88 88 91 88 91 94 93 99 98 92 92 90 84 85 88 90 91 93 94 96 97 97 97 95 97 98 94 96 90 85 76 69 64 66 
85 84 83 88 82 83 83 83 86 80 81 85 85 80 86 86 87 91 91 89 90 91 92 89 88 88 84 92 91 94 92 90 91 94 93 94 89 93 93 91 94 95 96 91 90 88 89 91 89 93 94 95 91 94 85 66 65 82 90 93 90 90 93 97 94 95 99 98 98 95 94 96 94 94 95 95 89 76 69 70 
89 80 82 85 83 83 82 81 86 81 81 86 83 82 85 88 87 89 88 90 87 86 87 88 89 87 85 87 89 93 95 90 92 91 92 93 91 94 92 93 93 94 95 90 92 90 89 93 95 93 90 88 90 91 81 43 34 53 78 92 93 93 96 95 93 96 95 97 97 98 95 97 96 95 96 95 97 88 82 76 
87 85 83 85 84 88 85 83 86 82 83 84 85 85 87 84 87 87 88 89 89 86 87 89 89 88 89 88 90 92 93 91 90 93 92 90 91 92 93 90 91 95 95 91 94 88 93 95 97 88 89 89 91 91 83 67 44 47 71 85 93 93 95 95 95 95 96 99 98 98 97 98 98 99 96 98 100 92 87 83 
86 81 89 86 85 86 86 86 90 87 87 84 87 87 86 87 88 87 86 88 89 90 88 89 91 88 88 90 92 93 94 91 92 95 95 88 93 92 94 92 93 99 98 94 94 92 98 95 91 89 94 95 91 92 90 82 78 72 76 88 95 95 99 98 98 97 96 97 95 96 95 98 99 99 98 96 97 92 94 87 
88 82 87 90 87 85 86 87 91 85 84 86 87 88 89 87 88 88 89 91 89 91 91 91 91 92 87 91 88 91 93 91 94 96 95 97 93 94 95 92 95 96 97 96 96 98 98 90 90 92 96 91 90 95 95 93 93 89 90 92 96 96 100 96 98 97 97 100 96 96 100 98 99 99 99 99 98 94 94 93 
91 85 89 90 85 88 88 92 91 85 87 88 91 88 89 88 88 86 89 90 90 90 90 93 91 91 88 90 90 92 92 92 93 94 96 96 94 95 94 90 92 93 97 94 98 100 98 93 92 95 97 93 92 97 98 94 97 96 95 94 97 99 103 99 98 98 97 98 98 98 94 100 103 99 102 101 102 99 94 95 
88 84 89 88 87 88 87 86 90 88 86 88 89 87 90 89 88 87 91 90 90 91 92 88 89 89 86 91 91 91 92 90 93 98 98 97 97 94 94 93 91 95 97 95 102 97 97 94 93 89 93 95 96 95 95 97 97 97 96 94 96 99 98 100 98 96 99 99 97 100 94 101 99 102 101 99 104 94 94 93 
83 86 87 88 89 90 84 85 90 83 87 88 88 87 88 86 90 91 93 88 89 94 91 92 93 87 89 90 91 91 94 93 90 98 97 95 97 95 97 92 94 94 96 101 103 97 97 90 96 92 96 96 98 101 101 101 100 99 98 98 98 99 97 103 98 100 99 103 96 102 100 101 102 103 101 101 105 103 95 100 
86 83 85 85 84 88 84 86 89 85 87 86 87 85 90 89 90 90 90 87 88 91 91 91 88 86 85 92 92 91 92 91 93 96 95 95 94 94 95 95 92 92 99 98 98 98 94 91 91 93 93 96 95 101 101 101 103 98 97 98 95 97 97 101 100 101 99 99 100 101 103 97 101 99 100 98 104 100 96 97 
81 85 85 88 84 84 85 89 92 85 85 87 84 86 84 86 86 89 91 86 88 87 93 90 94 86 89 92 89 90 91 88 92 97 94 94 96 100 95 97 93 97 105 100 99 93 90 93 94 93 98 100 98 101 97 100 101 100 97 97 98 96 95 99 104 100 99 96 99 99 99 94 98 99 95 100 98 98 93 96 


