P2
80 60
575
149 181 203 204 194 193 199 190 197 196 195 184 184 192 206 219 218 201 194 186 183 177 181 181 161 96 48 20 17 22 23 21 21 22 24 52 140 196 200 204 206 209 213 248 260 238 217 239 268 250 213 209 212 203 203 198 191 187 180 178 178 182 182 181 185 191 190 190 191 194 195 196 195 196 195 201 200 202 206 203 
136 136 162 205 205 197 199 194 201 194 193 187 188 186 188 205 224 215 215 203 188 170 170 173 164 117 58 27 11 11 24 19 19 14 21 43 119 191 201 204 205 205 217 255 254 218 213 253 261 225 210 211 209 202 194 189 184 177 179 175 178 180 178 183 184 185 187 189 189 189 196 198 195 194 198 199 202 197 202 205 
157 151 154 180 203 209 205 199 201 195 190 188 201 202 188 180 192 205 224 219 214 189 159 149 161 137 84 41 21 6 0 2 0 15 29 50 124 191 201 200 204 202 235 254 235 208 225 260 248 213 207 212 208 199 192 187 182 176 176 176 176 180 179 182 182 185 193 189 194 193 196 198 196 195 199 201 199 196 200 203 
173 177 171 182 189 206 215 216 205 202 195 192 210 196 189 187 183 182 201 214 217 212 181 122 114 163 131 73 38 18 7 6 9 23 41 72 149 190 192 196 200 217 248 251 213 210 249 258 228 204 210 210 206 198 188 188 178 178 178 176 175 179 180 186 181 186 189 193 196 196 199 198 197 201 199 197 197 198 200 201 
176 180 180 185 195 200 206 212 218 209 206 213 201 190 190 192 191 185 180 181 201 200 196 184 150 184 173 127 78 42 22 22 26 46 67 114 166 184 190 192 204 233 253 230 207 217 258 250 208 207 211 208 199 195 186 182 178 177 177 180 176 181 179 185 187 190 194 197 197 194 196 200 195 197 199 198 199 196 200 202 
176 180 182 189 199 200 201 201 208 217 219 212 192 191 196 194 190 192 190 178 177 191 203 195 179 187 183 165 132 90 70 63 73 98 125 161 175 180 191 197 213 248 249 214 208 238 258 230 205 204 209 203 196 188 182 184 181 182 180 179 186 184 184 194 193 198 197 199 201 196 197 196 194 195 195 197 198 194 199 202 
176 186 179 196 198 200 198 194 195 200 210 213 202 195 198 190 192 191 192 188 187 176 192 197 178 175 165 158 146 106 112 126 142 163 175 176 182 187 194 204 233 254 234 203 212 251 257 214 204 208 210 199 190 185 181 184 181 181 186 182 189 187 193 200 196 200 198 204 199 197 198 195 196 194 200 200 198 197 199 198 
179 181 191 203 200 193 193 190 171 160 193 202 209 208 203 189 194 193 191 190 189 182 179 175 171 169 157 153 160 128 102 138 155 175 181 181 180 189 198 215 254 260 215 201 227 260 239 205 204 209 206 195 187 184 181 185 185 184 188 184 192 195 195 200 198 200 199 200 199 197 200 197 194 193 193 197 199 197 196 193 
184 193 202 204 192 193 191 183 148 146 193 198 193 202 209 200 196 193 193 190 192 186 186 189 172 158 170 170 181 181 177 155 156 168 168 176 183 196 201 241 263 246 201 207 246 264 219 204 208 208 204 190 185 181 183 186 185 187 189 194 194 196 198 197 201 199 201 199 199 197 199 195 195 189 196 196 195 195 199 200 
188 207 206 207 193 190 190 173 144 173 209 205 193 199 201 202 206 198 192 189 191 187 188 188 189 184 173 172 176 175 175 181 169 168 158 177 188 202 217 256 262 219 200 230 266 253 206 204 213 204 196 188 184 184 184 191 188 191 198 194 197 198 196 198 200 197 199 198 197 198 199 196 196 193 196 195 199 198 197 200 
203 208 209 202 193 191 189 171 173 205 219 192 201 205 202 200 200 205 203 194 192 188 188 190 189 198 190 174 165 167 170 170 182 189 174 183 194 207 240 265 247 205 208 260 266 225 201 209 211 203 190 189 187 187 186 188 193 197 198 200 200 200 196 198 197 196 197 199 196 195 198 195 196 193 198 195 196 194 196 198 
209 215 207 199 192 187 191 190 207 230 216 205 205 201 196 197 200 196 202 201 201 189 191 188 195 194 189 183 179 163 163 165 175 181 183 187 202 217 255 266 221 203 231 265 256 211 202 210 210 202 193 193 191 191 193 200 196 202 203 200 196 197 194 196 196 197 200 200 196 196 195 199 195 193 197 195 196 193 194 199 
212 208 203 201 195 191 195 199 226 226 214 208 208 202 197 193 199 200 193 193 203 198 193 200 195 189 188 184 186 181 170 151 162 183 185 195 205 243 265 251 205 209 258 271 231 204 207 209 204 200 196 197 196 198 194 199 200 201 202 194 200 196 197 196 199 200 199 199 196 197 196 199 197 195 198 200 196 195 197 201 
214 210 208 203 195 191 198 218 229 216 213 209 209 208 206 193 196 196 191 189 193 192 206 200 187 188 186 186 185 181 178 171 168 190 190 203 214 259 264 222 201 232 268 256 206 204 210 211 204 203 199 202 202 202 200 200 198 199 201 198 197 199 194 195 199 201 196 198 199 197 198 194 197 198 198 198 196 194 198 198 
211 204 212 210 200 197 212 233 224 221 214 212 214 216 219 215 211 199 194 185 188 187 191 192 189 186 190 184 183 184 180 175 179 190 197 205 238 269 252 203 204 257 270 233 207 205 211 210 203 207 204 203 200 200 201 200 198 199 198 198 199 197 195 197 195 198 199 198 198 197 197 196 194 196 197 196 195 195 201 197 
209 205 213 220 216 211 236 227 221 220 215 213 214 221 224 221 216 185 188 185 190 184 186 183 188 186 185 184 184 181 177 174 181 191 200 215 262 270 229 200 224 268 256 210 206 209 213 207 204 205 202 201 202 201 200 199 197 198 199 199 197 200 195 197 198 202 199 197 196 195 197 198 197 195 197 199 196 198 198 199 
208 205 209 219 220 226 234 221 220 217 221 221 219 223 195 198 152 121 164 181 189 186 188 183 185 181 185 181 180 181 178 177 180 199 204 240 273 260 207 202 251 270 234 207 206 211 211 207 205 206 204 205 203 201 199 200 198 198 199 200 198 199 196 197 199 202 198 200 201 197 197 199 196 198 194 196 193 198 196 198 
225 211 210 213 223 232 225 216 219 224 225 219 224 207 198 190 120 85 100 155 181 183 186 181 183 185 182 182 182 181 178 175 184 205 214 261 271 231 202 219 269 262 215 204 208 210 206 204 204 205 205 205 201 200 198 199 196 199 201 197 199 197 195 194 196 202 197 199 200 197 199 196 193 198 195 199 194 193 195 199 
255 246 228 227 236 223 219 214 222 223 222 223 224 206 230 181 118 86 77 99 166 182 185 183 181 182 183 181 180 180 180 173 192 207 239 270 257 206 202 248 270 248 206 205 204 203 204 200 201 203 207 203 201 198 197 199 198 197 199 196 199 197 197 195 195 204 197 198 196 200 199 194 196 194 197 197 199 196 196 201 
268 263 259 255 241 216 216 218 215 223 221 230 208 226 226 186 142 98 76 77 132 176 177 181 182 183 184 182 181 185 177 179 198 219 267 267 230 203 215 263 266 222 204 204 204 202 202 201 200 204 203 201 202 200 200 201 199 200 201 196 202 199 199 197 198 199 200 201 195 199 197 198 198 197 197 197 196 195 199 198 
265 283 279 280 258 233 220 219 221 217 226 222 214 236 210 193 178 157 114 92 131 170 166 173 179 181 181 181 182 185 185 189 200 242 268 251 206 203 241 268 249 209 203 203 202 201 199 202 201 203 204 202 202 203 197 202 200 199 201 197 198 197 197 199 198 201 200 202 199 197 199 197 196 196 197 197 196 198 194 203 
281 302 324 379 301 259 236 223 217 218 230 213 231 220 207 189 181 175 173 145 148 175 172 167 165 175 180 178 182 182 184 194 204 264 261 228 198 215 263 264 225 206 198 199 200 200 202 200 199 200 204 201 199 197 198 198 198 198 197 195 199 198 195 198 196 199 197 199 199 197 197 200 194 194 195 198 198 194 197 198 
301 316 448 575 332 265 230 216 217 232 219 228 225 199 189 183 182 180 182 178 181 185 180 175 166 164 168 176 181 183 192 196 236 283 255 206 199 240 265 247 206 198 197 200 202 201 198 200 198 198 198 200 196 196 195 198 197 195 198 199 198 197 197 197 194 199 197 197 199 194 198 193 196 190 195 193 194 193 198 201 
313 351 510 423 301 249 229 215 229 236 219 239 215 192 190 183 183 182 185 183 189 184 185 184 182 173 166 168 174 183 197 204 260 263 234 198 212 267 262 223 198 199 198 196 197 199 196 198 196 197 201 197 197 197 196 198 196 196 199 196 200 197 197 199 197 197 197 198 197 198 196 197 196 193 194 199 196 196 196 201 
329 442 457 331 273 232 220 221 241 224 238 231 210 193 192 185 190 187 185 187 188 186 182 185 188 188 183 172 166 167 183 216 263 257 212 203 236 271 249 205 198 195 196 197 197 200 201 197 199 201 197 195 194 195 199 199 199 199 201 200 196 197 200 202 198 199 200 196 200 200 197 197 197 198 196 196 196 198 200 197 
393 486 368 301 242 226 221 231 229 226 238 221 204 194 194 186 187 186 190 185 190 187 183 181 182 187 186 186 176 159 166 246 258 241 200 206 259 261 227 196 197 196 194 195 196 198 198 195 195 196 199 197 196 194 196 198 197 194 198 197 196 199 198 199 198 201 200 200 201 201 196 196 202 198 197 197 198 199 200 203 
475 413 323 281 246 228 232 234 221 237 226 202 198 194 196 185 187 186 191 185 189 183 180 180 182 184 189 184 183 178 202 264 251 210 193 229 267 248 203 191 193 193 192 191 193 193 197 195 195 198 199 200 199 198 197 198 196 197 199 196 198 200 197 198 197 201 199 199 198 196 197 195 196 197 198 197 197 196 198 198 
461 347 304 286 273 260 251 227 236 240 213 196 194 191 194 187 187 187 187 190 184 182 177 179 181 183 184 181 185 186 249 264 237 193 190 251 261 226 195 191 190 190 191 188 194 194 196 198 197 197 200 198 196 199 198 196 194 196 196 197 197 198 197 198 198 202 197 198 196 195 199 197 199 197 199 197 194 198 198 201 
387 320 277 280 275 273 275 257 247 216 202 196 196 191 195 191 190 189 193 190 186 182 180 180 181 181 184 183 186 202 273 258 208 186 221 277 251 202 188 188 188 190 189 189 188 194 195 197 200 200 199 199 201 199 199 197 194 193 198 199 195 197 198 195 198 196 199 198 195 198 196 197 199 197 198 200 198 196 199 198 
344 284 239 250 262 274 280 274 272 247 218 202 200 194 197 193 196 190 193 187 184 182 177 181 185 183 183 184 193 249 273 247 194 195 256 282 241 186 179 181 186 188 185 189 191 194 196 200 197 200 199 195 196 198 198 197 196 194 196 194 196 197 193 199 197 200 199 200 201 198 198 198 198 197 200 201 195 191 195 196 
317 263 229 225 227 250 276 277 280 277 262 230 210 199 198 193 193 192 193 184 184 186 182 180 182 182 182 184 207 266 253 216 185 220 279 267 205 180 175 177 179 184 185 186 191 192 195 194 197 197 199 197 198 199 196 197 196 198 195 197 194 196 194 200 200 200 200 197 197 196 198 196 199 201 201 200 192 188 189 202 
301 296 266 237 215 227 254 269 279 280 277 269 250 226 207 195 193 194 187 185 188 181 180 181 184 182 188 187 245 261 241 188 183 251 280 245 189 183 178 176 176 176 179 185 189 193 192 195 192 198 197 200 197 193 195 198 197 198 199 195 197 196 195 198 199 198 199 199 200 199 201 202 199 199 201 196 188 185 190 192 
298 294 288 277 250 230 231 244 248 261 272 274 272 262 244 213 198 198 185 181 190 183 180 180 182 183 188 203 266 255 216 178 204 278 268 214 185 180 178 175 176 171 174 178 183 186 190 192 196 196 198 196 194 195 191 199 192 192 199 196 196 194 198 197 199 197 197 199 198 194 200 200 196 198 195 190 188 184 190 192 
256 272 280 283 274 271 254 261 234 229 235 254 271 276 275 264 243 211 194 187 190 185 179 183 185 184 193 238 268 244 195 182 238 279 248 190 183 181 178 176 180 177 177 175 178 183 192 193 194 193 199 197 193 195 195 197 197 197 195 197 202 198 196 203 199 196 200 198 201 203 200 200 196 201 200 196 191 187 194 198 
229 228 243 264 268 275 284 283 250 224 217 219 235 261 275 273 270 262 234 208 206 186 183 183 186 187 206 264 260 228 186 190 265 271 220 183 184 181 182 184 179 179 175 177 177 177 182 186 189 194 193 197 191 196 192 195 197 195 197 199 199 200 196 199 199 196 197 199 199 200 200 201 200 201 198 199 194 191 194 200 
230 221 222 226 241 268 285 284 281 264 232 215 211 229 250 264 275 279 275 235 215 193 188 183 186 190 236 270 252 205 182 230 267 254 198 180 182 182 180 181 180 179 174 176 177 179 182 181 183 191 194 194 194 195 190 194 194 198 199 195 197 197 197 198 199 200 197 201 198 199 199 203 203 200 202 203 199 196 199 199 
223 221 215 216 217 270 347 289 281 279 276 251 222 219 235 213 240 268 267 241 251 247 214 191 190 205 268 262 236 190 197 257 260 235 188 180 182 182 178 180 177 181 177 176 178 177 179 180 179 180 186 187 188 190 193 196 195 192 197 194 195 196 198 200 196 198 199 201 198 198 200 196 198 201 199 200 201 203 195 201 
224 222 214 218 233 344 368 291 264 276 281 278 269 253 227 204 209 216 230 223 270 277 268 246 216 246 283 260 218 192 226 264 250 209 186 182 178 182 178 180 177 182 174 178 180 183 181 180 179 182 180 180 180 181 187 191 193 196 196 197 197 198 196 198 197 201 200 202 199 200 199 199 199 202 200 202 199 204 198 205 
224 219 215 224 280 383 309 272 234 243 262 273 278 278 268 234 210 209 213 211 240 263 265 271 270 293 286 247 201 203 260 258 232 198 186 183 181 184 182 181 183 183 176 181 181 183 184 183 180 182 181 179 177 173 175 181 189 194 192 195 193 196 193 200 196 203 198 199 200 199 199 200 201 202 198 202 201 204 197 203 
223 218 216 244 304 333 302 271 234 230 243 244 263 279 284 280 264 232 210 199 201 208 241 269 273 275 261 212 199 230 266 251 207 189 183 185 185 181 181 182 184 185 179 179 182 186 183 183 181 181 181 177 179 176 173 176 178 189 191 193 193 193 195 201 197 199 197 200 200 200 200 199 201 197 201 200 200 202 200 199 
221 224 227 277 375 319 297 278 257 247 231 226 223 241 268 279 281 238 225 217 203 192 199 218 244 252 227 197 206 259 262 239 193 188 184 187 181 185 183 180 185 185 180 181 182 181 185 182 181 182 181 180 177 173 178 171 174 175 189 192 191 197 195 198 198 199 201 198 199 197 198 198 199 199 197 197 199 197 201 202 
222 226 240 344 377 295 295 281 262 238 230 226 205 202 217 241 253 240 266 283 255 209 195 196 196 201 197 196 225 266 254 214 183 188 183 182 184 182 180 181 186 182 182 180 181 183 186 182 182 182 181 179 175 177 180 181 184 181 191 188 195 195 194 196 195 201 198 198 197 199 198 197 197 198 197 198 198 200 200 206 
228 233 286 456 346 306 310 287 255 226 222 215 197 195 202 197 219 224 264 285 288 268 239 206 197 196 197 203 259 271 244 193 185 190 183 186 184 185 184 182 181 185 185 184 181 185 183 182 182 181 183 184 184 190 189 191 189 193 193 193 195 195 194 198 195 198 199 199 197 199 197 197 198 198 197 198 197 197 203 207 
228 261 373 442 338 284 284 275 245 222 212 202 194 197 200 203 213 210 218 252 272 277 273 261 234 208 203 225 285 266 223 188 184 194 184 183 184 185 186 185 188 186 187 184 185 184 187 184 186 183 186 188 190 194 191 192 194 196 197 194 194 194 195 197 198 200 199 200 199 198 201 201 201 198 201 199 201 201 209 210 
242 334 500 335 267 269 262 244 222 216 208 197 195 200 196 213 207 202 200 202 220 248 265 272 268 260 246 278 290 257 201 184 184 190 186 186 189 186 185 182 185 187 184 186 183 186 186 184 184 186 186 188 192 196 193 193 195 193 194 197 196 198 197 201 197 202 203 200 200 201 205 202 203 202 205 201 204 202 211 216 
280 493 430 283 251 262 239 224 223 217 205 196 200 194 205 216 209 198 199 196 201 202 220 250 264 271 278 289 279 237 192 182 184 188 186 184 184 188 184 181 186 187 183 183 185 184 186 187 182 183 184 189 191 191 192 191 193 193 193 197 197 197 198 199 200 201 200 202 201 201 204 201 203 202 203 203 206 205 208 218 
357 565 338 256 254 243 224 219 220 217 206 205 207 207 217 220 204 199 198 195 199 194 195 204 224 253 271 274 260 211 188 185 183 192 186 190 185 189 184 184 186 190 184 186 187 186 187 186 185 182 183 189 191 192 194 192 192 194 196 200 198 196 198 200 202 201 203 201 202 204 205 203 203 205 205 206 210 209 207 220 
416 460 308 260 258 224 214 219 218 211 205 202 198 196 200 200 197 200 200 200 193 193 192 199 200 204 224 234 217 195 188 183 186 192 190 188 186 188 188 185 187 188 184 186 187 186 187 186 186 188 185 188 194 193 195 194 194 195 195 194 199 197 199 204 201 206 202 202 203 203 204 202 204 203 204 203 207 210 214 232 
506 384 279 271 253 225 222 217 213 208 202 197 197 194 199 194 195 194 200 192 194 194 193 196 197 197 201 200 197 194 186 184 188 193 187 186 188 189 188 187 190 188 189 184 189 188 185 186 182 183 186 194 189 192 194 197 195 196 195 200 197 198 198 201 204 202 204 202 202 205 203 205 207 203 201 208 207 210 219 243 
431 304 265 271 243 220 222 218 211 209 204 198 197 196 198 194 193 195 203 199 193 196 193 197 195 194 197 196 195 190 187 185 187 193 191 187 189 192 190 188 191 191 188 187 191 190 187 185 184 184 190 196 194 195 195 196 195 192 198 200 197 200 200 199 204 205 203 204 202 203 203 207 206 206 208 208 208 211 218 253 
394 286 271 273 232 223 220 215 212 209 204 194 194 196 197 193 195 200 200 201 195 195 196 196 195 200 197 198 195 194 189 184 190 198 190 189 187 187 189 185 191 191 187 187 185 189 189 184 185 188 196 198 196 199 193 196 195 198 200 201 200 200 202 206 204 206 204 206 205 206 206 206 206 204 208 210 207 214 224 258 
400 297 273 258 225 218 220 213 205 209 205 195 195 195 196 193 195 194 201 198 200 194 195 196 196 199 198 198 195 191 191 186 191 196 191 187 190 189 188 189 191 192 188 186 189 189 188 186 186 186 197 196 196 197 195 199 198 201 203 202 206 202 202 204 205 207 202 209 201 207 204 205 205 207 206 206 207 210 217 252 
468 314 277 255 222 222 222 210 210 211 203 198 197 199 197 195 196 198 201 206 201 194 197 197 204 201 201 198 199 195 190 189 190 197 193 192 191 192 190 189 191 194 190 191 189 191 188 188 185 189 201 203 198 199 200 203 202 201 204 204 209 206 205 208 204 209 207 209 207 205 209 209 210 206 210 210 210 212 213 232 
468 306 272 246 224 219 218 211 209 210 207 199 198 198 197 197 201 201 206 205 200 199 202 203 203 200 202 198 202 195 191 189 192 200 195 192 191 193 192 192 194 196 190 191 189 191 189 185 191 198 204 203 199 199 202 206 202 204 205 206 207 207 207 210 207 210 209 209 210 207 211 208 210 211 210 212 210 215 218 222 
378 296 260 240 221 217 216 213 209 209 206 199 200 200 203 200 202 205 207 203 204 201 200 206 203 203 204 200 200 199 192 189 193 206 199 195 192 193 192 194 196 197 191 191 190 192 192 187 190 198 208 204 203 201 202 205 205 209 209 208 207 207 210 209 209 211 210 211 212 211 213 209 210 213 211 216 214 218 218 218 
310 275 256 240 226 221 218 210 212 212 208 204 203 205 203 202 202 203 210 205 208 201 204 206 204 204 205 204 200 198 193 191 193 207 198 194 198 195 196 196 199 199 195 193 193 196 194 192 195 203 208 208 205 204 205 205 204 211 207 209 213 207 211 211 210 211 208 213 211 210 212 211 210 212 217 215 218 215 223 218 
300 288 260 238 228 214 214 210 210 210 206 201 201 203 200 199 202 201 205 207 208 206 206 204 205 204 206 204 203 198 193 190 194 201 198 197 196 198 195 197 199 196 197 193 194 194 192 191 198 202 206 207 204 204 204 206 205 208 210 209 209 208 208 210 211 210 210 211 212 213 211 212 212 211 213 212 213 215 217 221 
290 298 252 236 218 215 214 209 209 209 207 204 203 203 205 205 205 205 208 208 211 214 205 204 203 206 207 205 203 201 195 192 195 203 200 202 199 199 198 199 197 202 196 196 198 194 197 196 202 207 208 206 205 208 206 205 208 208 212 209 206 208 211 210 211 211 212 213 214 212 215 214 213 212 213 214 215 216 216 221 
290 280 240 235 219 217 214 210 215 212 204 205 205 205 205 204 207 209 212 207 211 213 204 211 205 205 208 208 206 200 197 196 197 207 200 204 200 200 199 201 201 200 199 199 199 197 196 195 207 207 206 209 207 206 208 210 209 209 214 213 211 214 209 211 210 209 213 213 212 214 213 216 215 210 214 216 218 216 215 218 
288 263 244 233 218 217 214 214 214 215 207 206 206 209 208 203 208 206 212 211 208 208 208 203 205 209 207 212 207 207 205 199 196 211 206 205 207 210 205 204 200 203 200 198 203 196 200 201 204 210 208 207 209 208 208 214 212 215 211 210 212 209 211 211 211 215 215 214 215 216 217 212 208 205 207 222 220 218 214 217 


