P2
80 60
256
31 30 31 46 88 113 94 51 62 103 101 60 50 49 43 39 38 37 36 38 35 33 34 30 31 33 34 34 39 44 44 38 37 37 37 35 32 35 33 34 35 33 32 33 39 38 36 32 25 25 22 23 25 25 26 24 28 32 28 29 31 30 35 33 33 28 27 29 32 32 33 30 27 27 27 26 35 28 30 30 
27 31 38 53 92 113 89 52 64 101 98 60 47 46 39 41 39 35 37 36 34 30 33 32 34 37 40 38 36 40 40 41 36 36 36 33 34 36 33 35 35 35 34 36 39 36 36 34 31 29 24 29 29 27 31 29 30 32 34 33 36 35 39 40 39 29 27 30 31 32 30 32 32 33 26 29 32 28 29 30 
29 31 36 49 92 113 81 45 72 107 95 57 43 42 39 39 37 39 36 35 32 32 31 33 32 33 36 36 37 40 41 39 34 33 36 32 32 35 35 35 37 32 33 35 34 37 37 36 33 33 28 31 32 33 33 38 36 37 38 37 35 36 37 36 38 27 28 31 32 31 31 28 30 31 28 27 33 30 28 29 
30 28 36 53 101 107 76 46 73 103 87 52 41 42 38 39 39 35 35 35 34 33 36 35 38 36 37 35 40 41 38 37 35 34 32 30 33 35 34 33 35 37 36 37 35 35 38 35 33 37 36 36 37 36 35 38 35 40 39 38 35 34 34 34 34 29 27 26 31 33 34 31 35 28 28 31 32 30 24 28 
29 36 38 55 108 109 72 47 78 101 87 46 43 38 34 37 35 34 31 33 36 36 36 36 34 35 35 38 39 38 36 37 33 34 33 32 34 34 31 33 33 31 34 35 34 35 36 38 40 37 33 35 35 34 34 34 36 34 36 34 37 33 30 35 33 30 28 28 32 34 33 31 30 30 28 28 30 28 25 23 
28 32 38 63 109 100 74 50 85 103 85 40 40 37 36 33 31 35 32 34 34 35 33 33 32 32 35 34 37 39 39 36 34 33 32 31 33 34 33 30 33 32 34 34 35 35 35 37 32 35 36 35 39 33 33 37 36 34 35 34 34 28 33 33 34 33 24 27 33 34 32 31 31 30 27 31 28 21 20 28 
29 36 40 65 108 102 68 47 84 104 79 39 38 37 35 33 31 32 30 36 35 30 33 34 34 34 35 35 40 41 37 38 34 34 31 29 35 30 32 33 29 32 32 31 33 33 32 32 37 36 34 33 32 32 35 34 34 35 32 31 35 33 37 37 33 33 25 26 30 33 31 32 31 31 30 33 29 20 22 24 
23 30 33 59 107 99 63 44 84 100 71 37 37 32 33 32 30 33 34 37 33 32 26 30 30 30 32 37 36 38 39 37 34 30 32 34 34 32 31 34 33 31 33 33 32 34 30 32 34 31 33 32 36 34 34 34 37 37 35 36 35 36 33 37 36 33 27 24 31 34 32 32 31 29 32 33 30 21 20 24 
19 25 31 53 110 100 58 44 90 97 69 39 30 32 30 31 31 32 33 34 33 29 30 31 31 32 36 34 37 37 37 37 31 34 32 36 39 38 34 32 33 33 34 34 34 35 34 33 32 33 34 27 33 30 35 38 35 39 37 41 36 37 38 36 35 39 30 24 34 33 33 36 32 34 31 33 31 23 21 21 
13 6 0 48 110 98 51 42 97 102 65 32 29 32 30 30 31 32 32 35 30 31 30 31 31 35 31 33 35 38 39 34 36 32 34 32 35 35 34 37 35 31 33 35 36 36 38 35 33 34 32 31 31 34 39 35 38 40 39 38 39 35 39 35 39 38 33 28 33 33 34 33 31 33 35 33 29 25 25 23 
16 9 5 56 113 96 44 36 106 111 55 23 21 20 18 22 24 25 26 30 29 27 29 30 29 32 30 33 30 35 34 34 31 33 31 34 32 35 33 32 30 33 30 35 34 34 33 28 32 30 33 35 36 37 35 37 39 39 39 39 38 34 35 37 37 36 31 28 28 34 34 31 33 34 29 31 26 27 25 24 
20 21 20 67 118 99 42 41 105 110 52 23 21 19 18 18 18 21 23 24 22 25 24 28 29 29 29 31 31 33 35 35 31 33 34 34 30 34 33 34 33 34 34 33 34 33 31 32 34 36 37 37 37 37 40 42 40 37 39 40 38 34 38 36 38 39 32 31 33 35 35 35 36 34 31 31 28 27 22 31 
21 20 21 61 111 94 43 42 102 105 50 15 17 18 17 17 20 16 16 16 14 14 15 16 16 22 22 23 19 23 24 29 29 28 27 31 30 31 33 32 35 30 30 31 32 29 34 33 35 35 35 35 36 36 36 37 37 38 37 36 38 36 33 35 32 37 33 28 27 33 32 32 32 35 33 33 27 24 26 30 
23 23 22 72 110 91 44 47 108 106 47 22 20 18 20 19 20 16 15 16 15 15 13 16 16 15 10 14 17 20 18 13 22 20 25 28 28 32 31 33 32 28 32 33 36 37 36 35 37 36 37 38 36 35 40 40 40 37 40 40 38 38 40 38 40 39 32 30 27 35 32 36 37 37 34 37 34 27 26 31 
21 21 24 80 105 82 39 49 109 97 42 26 24 23 22 24 22 17 18 20 15 16 17 15 13 16 15 16 20 16 16 15 13 13 26 29 32 35 30 30 31 30 33 36 37 36 33 38 40 37 38 38 40 37 39 39 40 40 36 41 36 35 40 36 40 39 34 30 28 36 34 33 36 37 34 36 38 24 25 26 
22 24 24 79 104 79 36 50 108 89 44 23 22 21 23 20 19 18 20 17 18 14 16 15 15 15 18 14 15 19 14 17 21 23 29 30 31 28 27 31 32 32 32 33 35 36 36 33 34 34 36 35 36 37 38 36 38 39 37 37 37 37 35 37 37 41 34 29 27 27 30 34 35 35 32 34 34 26 29 30 
23 23 28 81 102 78 39 54 109 92 40 25 25 24 23 22 22 22 21 21 22 19 22 18 17 15 19 19 20 22 27 28 34 30 33 33 30 31 36 32 29 33 36 37 39 37 37 35 38 36 36 38 39 37 40 41 37 39 37 37 39 37 41 40 40 39 39 34 29 31 39 35 35 36 31 37 33 30 33 32 
23 22 27 91 107 76 35 53 109 89 42 25 26 27 23 25 26 20 23 24 21 21 21 22 18 21 20 23 24 30 33 36 36 34 31 35 33 33 34 35 33 35 36 37 39 38 40 39 39 43 38 38 41 38 42 40 42 39 42 40 42 40 44 37 41 43 39 35 28 26 35 41 37 38 36 36 35 35 32 34 
25 23 29 93 102 75 36 56 109 87 40 22 25 23 27 25 24 25 22 22 22 20 20 21 20 17 19 16 21 30 34 35 34 32 33 29 32 33 34 32 32 34 36 33 37 34 36 35 37 35 38 36 39 39 36 37 37 41 40 37 41 37 41 37 38 42 38 36 27 25 34 37 34 34 33 36 35 34 32 33 
23 24 30 96 106 74 38 57 108 89 39 26 27 27 26 25 25 26 25 22 23 21 22 21 20 22 20 18 22 32 37 33 34 30 30 32 33 34 35 33 33 34 37 34 37 36 38 41 34 36 38 39 41 38 39 38 41 41 39 39 38 43 41 41 41 37 44 38 33 23 31 36 35 36 36 35 38 33 31 34 
27 26 34 101 107 73 38 64 111 87 37 27 27 30 25 29 28 23 24 24 23 22 22 21 23 20 21 23 21 30 34 33 33 30 32 32 32 32 34 33 33 35 34 35 36 37 37 35 41 37 39 38 40 38 38 41 38 42 40 39 40 41 40 41 41 40 41 45 32 25 29 35 37 37 40 39 38 34 31 34 
31 32 45 112 110 71 40 71 112 88 41 27 25 27 25 21 27 28 26 27 24 25 22 23 22 19 21 23 23 25 34 33 32 31 33 31 32 35 35 35 36 35 33 35 38 37 38 37 37 39 41 38 38 39 42 40 39 41 38 38 41 42 42 40 41 41 40 40 38 30 24 37 37 40 36 36 37 35 32 36 
83 77 82 129 115 64 41 75 112 85 34 27 26 26 25 25 24 23 23 23 25 23 23 22 24 22 22 21 21 22 29 31 33 32 31 29 33 33 32 34 35 34 33 34 35 36 36 40 39 39 42 36 37 39 40 37 38 37 40 38 37 42 40 42 39 41 39 42 40 28 22 27 35 38 35 37 37 33 31 30 
112 113 111 117 98 56 39 76 110 83 39 29 28 25 25 21 24 25 25 25 23 22 23 22 21 22 24 23 24 24 30 31 34 29 32 30 30 30 31 35 36 34 33 35 34 37 38 35 36 39 36 38 39 41 41 39 39 37 37 41 39 39 40 42 43 41 40 42 36 34 24 23 28 31 33 37 36 32 35 30 
103 102 101 97 79 44 47 82 112 89 36 28 29 29 28 28 28 25 28 26 23 26 27 25 23 22 23 25 24 26 31 35 34 33 34 34 36 35 34 37 39 39 36 38 40 37 39 40 39 41 39 39 42 41 41 41 39 43 42 40 39 42 43 45 40 44 41 41 40 36 37 30 27 34 34 40 38 37 33 35 
47 49 52 54 43 38 47 85 122 87 36 29 30 29 32 30 28 32 26 28 25 26 25 27 26 26 27 25 25 27 34 36 36 33 38 35 36 39 36 38 37 39 37 38 38 38 37 40 40 40 41 40 42 42 43 42 40 44 41 43 41 43 42 44 46 45 43 43 43 36 39 40 30 26 28 30 34 33 30 33 
36 31 28 31 35 34 43 94 122 86 39 29 29 27 31 29 26 27 26 29 25 25 24 25 27 24 24 24 24 25 30 37 35 35 36 36 37 35 36 37 39 37 37 37 38 38 38 39 40 37 38 40 40 40 41 39 39 43 40 40 41 38 41 42 42 44 41 45 42 37 40 41 37 30 27 29 31 28 32 33 
80 73 57 52 50 56 57 109 127 86 39 31 30 27 29 28 29 30 29 28 26 25 29 26 24 26 25 26 26 25 32 36 37 34 35 37 38 36 38 39 39 37 37 37 38 38 40 39 41 39 40 41 38 42 42 42 39 41 42 44 41 39 44 43 43 43 45 42 41 41 40 42 42 37 38 40 38 29 30 40 
130 121 109 110 108 105 111 122 117 82 36 29 31 29 28 27 29 28 32 29 29 29 24 26 26 26 28 25 28 25 32 36 36 35 36 39 38 36 39 41 36 37 39 39 39 37 39 37 40 40 41 40 39 43 38 39 39 41 42 40 41 40 40 42 40 43 44 44 42 45 39 42 43 39 40 42 43 34 33 37 
109 111 106 110 110 110 112 110 103 67 34 28 33 28 30 30 30 31 33 30 30 29 27 25 26 29 28 29 26 29 34 37 36 33 34 37 38 38 40 39 36 40 35 40 38 37 40 40 37 38 35 40 38 40 42 38 39 41 41 39 40 40 42 44 43 45 46 47 41 41 43 39 42 40 37 39 41 33 34 35 
48 50 49 54 62 68 74 73 65 39 32 30 33 33 31 30 30 30 33 29 30 31 30 27 28 27 29 28 27 30 31 36 36 37 35 36 37 38 42 42 37 39 39 39 42 37 38 40 39 40 39 38 43 40 42 38 40 41 43 43 43 42 41 46 40 44 42 46 42 42 41 43 43 38 37 40 41 38 36 35 
34 31 28 31 34 37 41 34 39 29 30 30 32 31 33 32 32 31 34 31 29 30 31 30 30 28 27 33 28 30 33 38 36 38 36 37 40 37 39 42 38 41 38 35 39 38 38 38 39 41 39 40 40 40 42 42 41 42 43 41 38 42 44 44 42 43 44 44 42 38 43 45 39 38 37 36 41 37 31 39 
30 26 24 24 35 32 36 29 34 30 32 30 36 33 32 30 31 32 32 33 31 29 31 30 29 29 29 35 30 30 32 38 38 36 34 38 38 40 39 38 39 39 39 40 38 37 39 39 39 44 39 41 39 41 40 44 42 42 41 39 43 42 45 46 42 44 45 44 44 42 42 43 43 43 36 38 40 38 32 42 
31 29 28 29 34 31 33 31 33 30 30 31 33 35 32 31 35 35 32 33 32 32 33 30 33 33 32 35 32 31 32 39 38 38 36 35 40 37 40 40 43 38 43 40 41 39 40 40 40 44 42 41 43 42 43 41 43 45 43 41 41 41 45 47 46 46 45 47 46 43 39 44 43 44 40 40 42 39 37 48 
35 29 26 31 34 35 31 32 36 32 30 34 33 34 35 33 35 35 34 36 38 35 36 33 34 34 35 35 33 32 34 40 39 36 39 36 40 39 38 41 39 38 39 38 41 39 40 41 42 41 42 41 41 43 41 42 40 42 45 42 42 46 45 50 47 48 49 44 45 42 43 43 45 40 39 40 42 39 38 40 
34 29 25 26 31 32 35 33 37 31 32 34 36 36 35 36 36 36 38 34 36 36 34 32 36 31 36 35 34 33 36 42 42 37 38 36 37 40 40 38 38 40 38 41 40 39 42 39 45 41 45 42 40 44 43 42 42 43 42 46 43 43 43 47 44 45 44 45 42 45 43 41 46 45 42 42 41 41 40 40 
30 33 27 25 32 30 35 35 32 31 35 34 34 37 34 36 33 38 37 40 35 34 34 36 35 36 40 39 37 34 34 41 41 38 41 37 38 41 42 40 41 36 41 40 43 42 42 42 42 41 44 42 39 44 42 44 42 42 42 41 42 42 42 44 42 44 45 43 43 44 46 38 45 49 40 44 39 38 39 45 
32 32 27 28 30 32 36 35 36 34 30 34 36 37 36 39 36 37 37 36 37 36 29 34 37 37 40 39 35 35 33 41 43 41 39 40 40 40 41 41 43 42 40 42 42 43 41 42 44 41 44 43 41 43 41 43 44 44 40 41 42 43 44 45 45 44 47 44 46 44 44 42 44 45 41 44 43 36 47 48 
34 29 27 31 34 34 37 38 37 30 33 36 37 37 37 36 36 35 35 38 35 36 35 35 37 37 39 38 36 37 34 38 42 38 40 41 41 41 39 41 40 42 39 39 40 41 41 45 42 40 43 44 40 44 40 43 43 43 41 41 42 41 46 43 43 45 46 45 43 45 42 48 44 44 41 43 43 42 51 53 
33 32 29 28 36 35 41 39 36 31 32 31 37 37 37 38 37 40 39 39 37 37 38 37 39 41 38 41 38 37 35 43 43 42 43 38 41 41 42 42 44 40 43 43 43 44 44 40 40 43 43 44 40 45 44 43 45 43 41 43 42 41 43 43 45 46 49 46 43 44 43 44 45 48 43 47 52 57 62 72 
35 30 29 30 35 36 37 36 37 33 33 34 36 38 39 39 39 40 42 43 39 39 40 40 40 40 39 40 41 39 39 39 44 44 41 39 42 42 42 42 42 41 41 44 41 43 43 42 42 43 42 39 45 45 46 45 44 42 43 42 40 43 45 44 45 45 46 48 46 45 45 44 45 43 43 49 60 58 59 110 
33 34 28 33 36 36 38 35 33 33 31 36 37 38 40 38 40 41 40 42 44 41 41 43 43 45 43 40 41 41 39 40 43 42 42 41 43 40 43 42 45 42 41 41 42 44 41 42 41 37 38 41 44 43 42 43 44 40 46 44 45 41 46 47 44 45 46 47 48 44 47 44 48 48 42 49 55 51 70 149 
32 32 27 27 40 35 35 38 37 32 36 35 38 41 39 41 42 41 41 44 41 43 41 42 43 43 43 42 40 42 36 45 44 45 44 40 46 43 42 45 43 43 42 40 42 41 45 41 41 41 42 42 43 42 43 45 40 42 40 43 40 43 45 41 46 47 48 46 48 44 45 46 49 48 47 48 51 48 71 165 
31 29 26 29 37 40 39 44 38 34 37 36 42 41 42 42 41 41 44 45 44 41 43 44 44 44 40 41 40 41 36 41 43 44 45 41 44 42 43 44 45 45 43 40 45 43 43 41 43 40 41 42 41 39 37 40 40 42 41 45 43 41 43 47 44 44 49 45 47 45 48 48 48 48 46 49 56 48 66 153 
32 29 29 30 38 37 37 39 39 32 34 35 40 41 39 40 44 45 46 48 46 46 45 45 46 46 40 38 43 42 36 37 44 43 45 43 42 46 44 42 45 42 42 41 40 39 39 38 40 40 42 40 42 37 40 40 38 40 40 40 42 41 43 45 44 48 49 46 49 47 47 49 50 53 49 67 67 62 66 151 
36 35 28 33 39 40 41 39 38 32 36 37 42 41 40 42 46 45 48 45 45 47 49 49 48 42 43 41 40 37 33 36 43 48 47 43 43 43 45 48 44 42 42 44 39 41 43 43 45 43 43 40 42 40 42 40 39 43 42 40 39 42 44 42 46 50 51 48 49 49 50 64 93 107 120 156 155 112 105 162 
35 35 28 31 39 39 42 38 37 35 39 38 43 43 42 42 46 45 46 46 48 50 51 51 52 48 49 47 48 46 44 39 42 45 44 44 44 43 46 45 45 44 43 44 43 44 43 40 46 45 43 41 43 40 41 43 43 44 47 43 44 43 46 44 46 47 48 50 51 53 76 128 158 172 178 188 171 151 161 190 
35 29 30 31 35 43 43 42 39 37 36 40 43 43 41 46 48 44 46 49 49 47 49 51 51 53 56 51 54 53 47 41 40 47 44 45 44 46 46 43 44 47 46 45 44 43 42 41 43 41 40 40 43 40 42 42 42 43 42 40 42 42 45 46 45 50 51 50 60 79 107 128 142 149 147 160 163 172 186 207 
34 32 29 36 36 42 40 39 39 34 39 42 42 45 46 46 49 44 50 51 47 48 50 51 53 55 59 57 53 51 47 41 39 47 44 49 49 46 46 43 45 44 47 45 44 42 42 40 43 41 40 39 42 41 41 43 45 43 43 42 45 45 46 47 46 45 48 53 75 109 125 135 140 151 153 172 186 201 226 247 
35 30 30 34 35 40 42 40 42 38 39 41 42 43 44 43 47 48 49 49 49 48 49 50 50 56 57 60 54 53 48 43 42 47 46 49 45 46 44 48 47 44 44 44 47 44 43 40 44 43 42 40 44 42 42 41 41 44 39 45 46 45 45 46 46 46 47 53 75 115 141 154 161 170 175 192 207 219 242 254 
38 33 33 41 37 41 40 41 46 37 43 42 45 47 45 49 48 47 51 52 54 50 54 53 53 56 60 57 57 56 54 46 43 46 49 50 50 50 49 46 49 46 46 46 45 45 39 45 45 43 45 42 44 44 45 47 44 41 46 44 45 44 46 46 48 47 51 52 71 114 144 157 164 175 183 195 208 219 240 251 
36 32 34 34 38 41 44 41 43 41 42 41 47 46 46 50 48 49 51 51 53 51 55 56 56 61 60 62 57 58 56 44 45 47 47 50 49 46 49 48 50 48 46 48 44 44 43 43 45 44 44 43 48 50 51 54 46 45 47 48 43 46 49 47 46 48 52 51 66 105 140 155 164 174 178 189 207 220 240 245 
42 40 35 41 43 40 45 42 46 39 44 44 45 49 48 48 49 52 54 51 57 56 55 57 58 62 63 63 56 56 54 47 43 50 53 48 49 48 49 49 48 47 48 47 45 46 47 45 43 43 44 44 44 47 58 62 54 55 51 49 48 45 45 48 50 49 49 51 61 102 134 155 160 170 176 191 207 218 234 250 
37 37 37 39 44 46 47 46 44 43 45 46 47 47 50 51 54 49 54 57 57 60 59 58 60 63 65 64 57 59 56 49 46 48 52 51 50 49 55 50 47 48 48 51 47 48 43 42 42 43 45 46 47 52 64 81 90 71 56 50 49 49 48 50 48 49 52 51 57 98 128 150 158 170 176 188 202 215 238 239 
43 44 39 44 50 48 51 46 50 46 50 44 50 54 52 54 56 55 56 60 63 63 63 64 64 68 69 67 63 64 62 54 50 51 55 53 53 52 53 50 49 48 51 50 51 49 44 46 46 47 49 47 53 60 111 226 164 102 65 52 47 47 52 51 52 53 49 51 55 88 126 147 159 168 169 183 199 214 231 240 
49 46 40 45 48 53 52 49 49 47 50 52 52 58 57 57 60 57 63 65 69 66 69 70 72 72 74 71 67 66 63 57 49 50 59 58 55 54 53 52 56 54 53 50 52 50 49 50 50 48 53 48 56 65 134 256 167 98 63 52 50 49 51 54 53 54 53 55 54 80 119 147 158 165 167 180 193 199 224 242 
52 49 44 47 50 51 53 51 54 52 49 55 55 57 57 61 62 61 63 69 73 74 77 71 74 76 74 71 69 68 63 58 52 56 57 58 58 55 52 54 52 52 50 49 50 52 55 51 51 50 52 49 56 59 78 106 95 69 60 49 45 46 49 50 51 52 52 53 58 77 115 144 155 161 167 172 167 165 216 236 
58 55 52 51 56 58 58 58 57 54 58 55 58 58 62 63 67 65 73 75 76 77 81 77 79 83 84 81 75 69 67 60 51 53 59 56 58 51 53 53 56 55 52 53 53 54 53 52 50 52 51 54 54 53 60 65 66 62 58 50 51 50 54 52 53 54 53 54 57 72 109 137 158 159 164 169 168 180 222 238 
69 65 61 62 65 65 65 61 62 60 63 61 60 67 61 67 67 67 77 79 85 86 88 88 88 92 92 88 79 76 70 64 58 59 60 60 58 59 67 73 61 57 60 57 60 56 57 54 55 52 54 53 54 55 53 60 56 55 55 50 50 54 53 51 55 57 55 56 58 68 110 137 154 165 167 178 186 200 221 230 
96 88 80 73 75 67 68 69 63 63 65 66 64 66 68 72 75 72 82 78 86 87 90 89 90 99 101 90 78 72 70 64 60 61 61 63 65 66 98 136 73 61 65 59 60 55 61 55 54 53 56 54 54 52 57 55 53 55 51 52 52 51 53 52 58 55 55 58 60 64 107 136 151 168 167 176 186 201 221 225 


