P2
80 60
260
18 21 21 22 36 43 84 91 72 42 59 91 84 46 39 31 30 27 24 28 20 25 22 24 25 24 21 26 28 31 33 29 29 27 23 27 27 22 23 24 27 24 27 25 26 24 26 25 27 20 17 21 18 15 16 16 14 17 19 14 15 17 16 19 22 23 22 26 26 23 20 24 21 22 21 20 17 19 16 16 
23 20 23 22 36 46 91 90 66 35 63 94 80 42 34 31 29 30 27 24 24 24 20 24 26 21 22 26 28 28 30 29 27 28 28 25 26 24 26 25 25 26 27 25 25 25 25 29 24 19 16 18 20 15 16 17 19 17 17 16 17 16 20 22 26 26 24 26 26 21 24 23 25 19 20 18 18 18 10 16 
17 22 20 21 36 46 95 90 60 38 67 93 76 43 40 29 27 25 25 23 23 22 23 26 25 23 29 26 28 30 29 29 25 24 26 26 24 25 26 25 23 27 27 25 28 31 26 27 27 22 19 19 22 21 16 18 18 18 20 20 21 23 26 29 26 21 24 22 20 22 22 24 21 24 20 20 20 18 11 10 
18 22 22 28 36 48 97 93 52 38 75 94 68 41 32 28 27 28 25 26 24 23 23 24 25 26 28 25 30 29 30 29 25 22 26 21 24 24 24 27 24 27 26 27 27 26 27 28 28 25 22 24 28 26 26 26 24 25 30 26 26 24 27 29 30 24 23 22 25 19 23 24 25 25 24 19 18 15 10 13 
15 21 18 29 37 58 111 86 52 41 77 91 63 36 30 26 25 27 27 22 19 20 23 28 25 28 22 26 28 29 32 25 25 20 25 24 26 22 23 22 23 25 26 26 25 28 27 29 29 27 28 26 24 29 27 30 24 29 29 27 28 26 30 27 26 26 24 23 24 22 20 22 23 24 22 19 18 12 9 12 
17 20 23 35 39 67 104 80 48 42 85 91 57 41 28 25 26 24 23 22 24 23 26 27 24 23 25 28 27 30 29 28 27 26 24 26 28 24 23 23 21 23 26 31 31 27 26 26 27 29 25 30 29 29 26 29 28 27 29 26 27 28 23 29 26 24 23 21 24 18 25 25 24 27 26 18 21 16 9 15 
15 23 24 32 37 66 104 77 44 44 87 85 55 32 30 27 25 24 26 22 23 23 22 25 24 25 22 27 28 30 31 26 26 25 23 25 23 27 24 22 25 23 25 24 25 26 25 30 27 28 27 28 27 27 27 27 26 23 26 21 25 25 24 24 26 27 22 24 25 24 22 28 23 27 23 20 20 15 12 14 
12 16 21 29 35 63 101 70 41 46 89 84 42 29 23 23 24 21 20 21 20 20 18 20 21 19 21 22 24 27 26 27 24 20 25 23 21 22 26 23 24 24 25 23 24 22 24 24 24 25 29 25 26 27 22 21 24 25 23 18 23 23 22 26 24 21 23 23 21 21 24 24 21 22 21 18 17 16 12 13 
7 10 13 28 27 63 101 67 37 42 92 79 41 23 21 20 21 20 19 21 19 22 19 22 22 21 20 23 25 23 30 24 23 24 22 23 23 24 25 22 25 23 24 26 24 26 25 25 27 26 25 24 24 25 23 24 23 23 23 23 23 28 26 26 28 30 25 26 25 23 24 27 23 24 23 20 20 19 17 12 
4 3 1 5 10 70 98 64 28 45 98 79 41 22 22 19 19 17 22 18 23 18 20 23 24 18 23 22 22 28 28 26 24 23 24 22 28 27 22 25 25 25 26 25 27 28 30 28 26 26 21 27 23 21 24 26 27 23 28 26 27 28 27 27 32 29 26 25 26 24 25 24 24 26 23 23 21 18 13 18 
14 12 10 2 13 74 99 58 26 46 103 81 26 15 12 14 14 14 16 16 18 19 18 18 20 22 19 20 19 21 27 25 20 25 19 21 23 25 25 24 22 23 26 25 28 26 27 23 24 24 24 21 25 23 23 23 29 29 29 27 28 29 29 31 30 27 27 22 26 26 22 26 25 25 23 20 21 20 14 12 
18 16 15 13 22 84 99 55 24 51 99 75 18 10 8 9 5 7 11 13 11 14 16 16 21 19 16 21 19 22 26 20 22 20 21 22 22 24 22 25 22 24 23 25 28 24 24 25 25 22 22 26 26 25 26 24 28 29 29 30 28 30 25 27 26 29 24 25 23 22 27 25 26 26 27 21 20 21 13 18 
16 15 15 17 18 80 94 52 24 56 99 70 15 10 8 9 9 5 8 6 2 4 5 6 10 11 12 17 18 20 23 17 21 20 20 20 21 24 23 24 20 26 23 24 25 27 26 23 23 23 23 27 25 28 29 27 31 26 29 25 28 29 26 26 26 28 28 25 24 21 24 26 25 27 24 20 24 18 14 16 
11 15 16 18 22 88 86 46 28 63 100 64 20 11 11 10 7 9 6 6 4 5 5 5 4 3 2 9 9 7 10 6 15 18 19 19 19 23 24 23 26 27 23 25 28 23 25 27 27 28 28 28 25 29 25 28 28 26 25 29 28 27 27 27 25 30 26 23 24 24 24 27 28 29 27 22 22 19 15 16 
12 16 17 19 35 85 83 44 28 71 94 57 20 16 10 13 13 8 8 6 3 3 4 6 4 4 6 5 8 9 7 5 3 4 0 9 16 24 23 24 22 22 26 23 29 27 26 27 25 26 30 29 25 29 27 28 29 28 28 27 28 30 23 27 30 30 27 28 23 23 26 28 25 23 25 26 23 20 16 19 
13 17 14 15 34 90 84 33 28 78 94 53 15 15 10 12 12 8 10 5 4 5 5 6 3 6 4 2 4 9 8 8 5 1 4 14 16 21 18 21 20 21 20 26 25 26 26 26 28 25 28 27 28 28 29 27 29 28 31 28 31 29 27 26 30 29 28 27 19 23 26 26 26 25 29 22 20 21 11 13 
13 15 16 19 42 89 79 31 25 79 87 47 16 13 12 12 10 10 7 9 6 8 8 7 3 4 7 4 8 10 8 4 7 15 19 19 20 23 22 18 18 23 21 22 24 24 28 26 28 28 27 27 30 27 29 30 26 26 25 27 27 27 30 26 27 30 29 25 23 21 24 25 23 25 28 23 18 23 14 14 
14 14 16 20 44 95 82 35 29 84 86 47 19 18 15 12 12 11 8 8 10 10 8 10 5 8 9 4 9 9 11 15 20 23 22 21 23 22 24 23 24 25 27 24 25 27 29 28 27 29 28 28 31 29 30 30 29 31 32 29 30 30 29 26 26 29 30 25 24 24 27 27 29 26 26 24 24 21 13 15 
14 15 18 19 50 91 75 30 28 83 83 43 15 12 13 13 10 12 9 10 9 8 8 7 9 10 5 7 8 9 16 22 22 21 21 19 22 22 23 22 23 20 25 23 26 27 25 25 25 26 27 27 27 26 27 30 26 29 29 29 30 28 30 31 27 30 28 29 26 23 24 24 26 25 28 24 23 21 18 13 
14 16 17 18 56 92 79 28 30 84 83 40 18 15 14 12 14 13 12 10 9 8 8 10 8 10 11 6 10 13 17 25 21 21 20 19 21 19 21 23 22 23 24 24 25 24 23 26 25 26 28 28 28 28 27 30 30 30 30 28 29 30 30 28 30 28 31 27 23 21 25 25 27 28 25 22 25 20 15 15 
19 23 18 22 68 97 73 31 33 92 85 39 20 16 15 13 15 13 13 10 10 11 9 12 8 11 9 9 9 12 16 20 22 23 21 19 21 20 21 20 22 22 26 26 26 27 24 26 26 27 29 30 28 29 27 26 26 25 31 30 28 29 29 28 28 30 28 27 26 20 25 26 29 24 26 21 24 20 18 17 
42 38 34 36 86 106 80 28 39 94 86 36 16 15 15 12 13 14 10 11 12 12 10 10 10 7 9 7 11 13 12 20 22 20 21 21 19 22 22 23 25 22 27 25 24 26 24 27 29 26 29 30 27 30 30 28 29 29 30 25 29 31 31 33 32 29 29 28 29 22 22 26 27 23 25 23 24 23 17 20 
105 100 94 92 108 107 68 23 47 94 83 36 19 16 11 15 10 12 15 10 11 10 11 10 10 8 10 8 11 10 9 19 21 20 19 14 21 19 18 21 24 23 26 22 22 25 26 26 26 27 27 30 28 27 29 29 30 27 29 26 30 28 29 30 30 29 28 28 25 25 20 25 28 25 24 24 26 21 19 17 
107 105 108 105 100 92 54 29 53 95 82 31 17 13 14 13 11 11 14 13 15 9 12 13 10 7 10 9 12 11 12 18 19 21 20 16 20 21 22 22 22 23 24 25 26 28 24 23 27 26 29 29 28 27 28 27 28 27 31 27 29 29 29 29 32 29 29 31 26 25 25 24 24 25 24 25 26 20 20 19 
59 67 76 84 81 65 36 28 58 99 85 36 22 17 13 17 17 15 13 12 14 12 15 16 16 10 10 9 14 12 14 18 21 21 21 20 23 22 25 22 26 27 27 25 25 26 27 29 26 31 28 31 30 28 27 29 29 29 28 29 31 32 32 31 31 32 30 30 30 27 26 25 26 24 26 21 26 24 16 18 
29 31 28 30 37 27 29 28 59 106 87 37 20 19 17 16 17 17 16 14 13 12 13 16 16 13 12 12 13 14 15 21 22 26 22 22 22 24 27 26 27 27 27 29 29 28 27 27 28 31 30 31 30 30 33 30 31 29 31 30 31 29 29 34 32 31 31 30 30 29 31 31 26 25 25 24 24 26 20 17 
44 44 34 30 26 24 27 32 72 115 85 32 17 17 18 15 15 13 16 14 12 13 15 16 15 15 11 13 14 14 16 22 25 21 24 22 24 24 29 27 25 28 30 27 28 26 27 28 29 29 32 33 29 32 29 29 29 32 31 28 32 33 29 31 32 31 28 33 29 29 32 28 31 27 25 23 24 21 16 20 
107 105 95 87 72 67 63 60 90 112 86 30 17 16 17 13 17 13 17 12 12 14 14 15 16 12 12 13 10 13 14 21 19 20 20 21 24 23 26 26 26 27 25 26 24 26 25 27 28 27 30 26 31 26 32 31 25 28 28 23 29 32 31 29 33 31 30 30 27 25 28 31 29 27 32 29 24 27 19 20 
107 111 109 107 105 99 100 96 108 102 75 23 19 18 17 20 17 13 15 18 15 16 14 12 16 14 14 13 14 13 15 19 22 22 26 25 24 26 29 28 25 26 28 28 27 26 25 30 27 26 30 30 29 27 30 29 28 29 29 27 29 31 29 31 32 29 30 30 30 29 31 31 32 28 29 28 25 25 18 26 
63 69 78 83 86 94 95 93 97 87 57 21 18 19 18 18 19 18 19 18 15 18 17 18 19 13 17 17 15 15 17 20 21 21 25 25 24 26 33 29 29 29 30 28 29 26 26 28 26 28 30 32 31 30 29 27 30 26 30 28 28 30 30 30 33 33 30 32 31 32 35 36 33 30 30 28 26 30 23 24 
26 31 31 27 30 35 44 45 50 43 29 22 17 19 19 19 18 16 16 19 15 21 19 19 16 18 16 17 14 15 14 21 23 23 23 25 22 27 27 26 26 27 30 30 27 29 28 27 28 29 29 32 28 29 29 31 32 29 33 30 32 33 31 31 32 30 31 31 30 30 34 32 32 30 30 27 26 27 24 26 
24 24 22 22 21 21 26 23 26 24 23 22 21 23 19 19 17 18 20 17 19 19 19 21 19 19 16 18 17 21 19 19 25 23 24 23 24 28 27 27 28 30 30 29 30 26 26 27 29 32 29 33 32 31 31 31 29 28 33 31 33 32 33 36 32 34 35 32 31 29 33 35 31 33 27 27 28 27 21 25 
20 20 22 18 21 16 25 22 24 24 23 23 20 21 21 19 21 16 20 19 16 21 18 20 23 18 19 18 19 19 16 22 24 25 25 24 24 28 28 28 29 30 31 28 29 26 29 26 28 29 32 32 30 30 31 31 28 28 30 29 32 31 32 31 30 34 33 33 32 27 29 31 34 31 29 28 27 27 22 25 
20 23 22 21 21 18 26 22 25 26 23 22 21 22 20 20 21 20 21 18 20 21 23 22 22 17 18 17 21 19 16 22 28 22 23 23 26 29 26 27 30 30 32 30 32 29 30 28 29 31 32 33 30 32 30 33 31 28 32 30 31 33 33 34 33 34 33 37 30 27 34 34 35 35 37 31 27 30 26 28 
21 23 18 18 19 21 24 22 26 23 27 22 21 22 23 22 22 21 20 22 20 18 22 24 23 22 21 18 22 18 19 22 26 25 25 26 29 25 27 29 30 30 28 31 30 29 27 27 31 31 31 31 31 31 30 28 35 29 29 29 34 34 33 34 35 35 33 34 33 33 32 32 34 36 35 30 27 28 30 29 
22 27 23 21 19 22 24 19 24 21 22 22 23 24 22 22 24 20 21 20 19 22 21 25 24 20 20 19 22 20 17 21 25 26 27 27 28 27 29 26 27 29 29 29 32 28 28 27 31 34 31 31 32 33 32 32 30 28 31 30 32 33 33 33 37 34 33 31 33 34 33 35 35 34 38 33 31 32 28 34 
21 26 23 25 21 22 27 20 27 23 26 19 22 23 21 21 22 22 23 23 19 21 23 24 24 22 24 22 24 24 21 26 25 29 24 27 27 30 28 29 30 29 30 28 29 32 32 32 32 33 34 31 33 32 32 34 31 31 33 34 30 34 36 36 37 32 31 33 34 30 37 33 32 37 35 32 30 34 33 35 
19 22 24 25 20 23 27 19 28 23 22 20 23 25 23 20 23 25 25 22 23 24 23 23 26 23 24 23 27 21 21 23 30 30 25 26 28 28 29 26 30 30 32 27 29 29 30 32 33 32 30 33 31 35 33 32 34 31 32 29 32 32 33 35 35 34 33 36 33 32 33 33 34 35 35 32 32 33 33 41 
21 22 26 24 18 24 22 21 30 22 22 22 22 24 27 24 25 23 24 26 19 25 23 26 24 26 25 23 28 21 22 20 27 29 28 25 30 28 29 30 27 33 28 28 32 31 28 31 33 31 34 33 33 33 30 33 32 33 33 28 30 34 31 33 33 34 32 33 38 33 35 36 34 35 34 33 36 40 38 49 
26 21 27 23 22 21 24 20 33 23 24 24 23 22 24 23 26 25 26 24 25 26 24 29 25 25 25 26 26 23 25 26 29 29 26 27 26 32 28 28 29 30 32 32 31 31 32 32 33 34 34 32 34 32 31 33 33 29 29 31 32 33 32 32 34 33 37 34 37 31 35 36 34 32 33 37 51 50 44 42 
25 26 24 24 24 22 24 22 27 24 25 23 25 25 25 25 27 25 31 25 26 23 25 29 32 29 27 26 29 26 25 26 30 29 30 26 28 32 29 27 32 33 34 30 32 31 28 32 30 33 34 31 34 34 29 31 31 31 30 30 32 34 31 31 35 35 33 34 34 34 38 38 36 33 33 34 36 37 40 42 
25 23 24 22 25 23 29 24 28 28 26 22 25 26 27 26 26 28 28 27 27 29 27 31 36 30 27 29 28 25 25 22 27 26 28 29 30 29 31 32 32 32 33 33 31 32 33 32 32 31 31 33 32 34 28 33 33 29 35 26 30 32 29 33 34 35 36 34 36 35 35 39 37 35 37 36 39 30 38 45 
23 27 25 26 28 28 25 23 26 23 26 24 31 27 27 26 28 28 30 28 26 28 29 32 32 31 28 29 28 28 25 23 29 29 29 28 29 32 30 31 31 31 34 30 28 30 28 29 30 30 33 32 31 32 28 28 26 31 29 30 32 33 30 35 33 32 32 32 32 33 35 41 40 40 38 38 40 36 34 42 
19 21 25 26 22 24 29 30 28 25 22 27 25 28 26 26 28 30 29 28 28 28 31 34 30 30 27 28 29 26 25 26 29 32 27 28 31 33 33 30 32 33 30 29 29 28 29 28 30 33 29 32 30 30 29 28 26 30 32 28 33 31 30 35 32 32 33 36 33 34 39 43 45 47 56 57 68 80 90 114 
23 26 24 25 23 25 29 28 29 28 24 28 29 31 27 29 31 33 32 29 31 33 35 36 37 32 30 30 25 28 25 25 31 29 31 28 33 31 33 27 31 29 32 32 31 29 30 28 32 31 29 28 28 29 26 30 30 31 33 29 31 33 32 35 33 34 35 35 35 45 66 84 91 104 116 121 137 147 164 192 
22 25 25 24 27 26 30 27 27 26 27 27 32 31 30 30 31 36 34 34 31 34 33 37 39 34 31 28 29 31 26 22 30 29 33 31 29 35 33 30 33 32 28 31 31 29 31 29 33 32 33 32 30 30 31 29 26 36 31 28 30 32 37 34 34 35 38 40 35 64 106 127 137 139 149 154 167 181 198 229 
22 29 26 26 23 24 32 28 29 27 26 27 29 32 32 31 30 32 36 34 34 38 33 35 40 32 31 29 27 29 27 23 24 29 30 33 34 35 34 34 32 33 31 33 32 31 29 30 30 33 33 32 32 33 29 28 29 32 29 30 32 34 33 33 37 37 40 40 43 76 116 151 160 166 176 184 196 212 231 246 
22 26 26 24 31 28 31 26 26 31 30 26 30 31 30 31 32 32 34 33 34 35 37 38 39 34 38 40 34 35 35 31 27 28 32 33 31 33 33 34 35 33 32 32 33 31 28 31 31 30 33 34 30 28 31 30 29 33 33 28 33 33 32 36 37 35 38 38 40 68 119 151 164 175 180 193 206 223 238 251 
23 26 26 27 24 25 33 27 30 31 29 27 29 34 29 36 33 35 34 35 33 34 34 41 42 42 43 44 40 39 37 31 28 32 33 35 34 33 37 34 33 32 35 34 34 30 31 33 30 32 33 35 32 30 28 31 30 30 32 27 30 34 31 34 33 34 36 37 39 64 116 151 167 178 183 193 207 223 238 260 
24 22 24 27 28 26 34 27 29 32 30 26 31 33 33 33 35 38 35 36 35 36 35 42 40 41 45 44 43 40 37 34 30 31 32 31 33 31 31 34 36 34 34 34 34 34 31 32 28 32 33 34 33 30 31 30 31 31 30 30 30 32 35 36 36 36 37 34 37 63 113 148 168 172 182 188 203 220 239 252 
22 27 30 31 28 32 32 24 32 32 30 27 32 34 34 35 34 35 37 38 39 38 39 43 44 41 47 45 43 43 40 32 30 32 34 34 36 37 38 34 35 35 36 33 33 33 31 34 28 33 28 34 32 32 29 32 32 35 33 31 35 36 34 34 41 39 35 40 39 65 113 142 161 175 174 190 199 218 236 257 
25 31 30 28 31 29 35 28 32 35 35 30 33 34 35 36 34 38 40 38 40 40 39 43 44 44 46 43 41 43 42 34 28 30 35 34 34 37 34 36 37 36 36 34 34 33 30 30 32 32 30 32 33 32 35 35 33 31 35 32 31 33 32 36 36 40 37 39 43 58 104 137 158 165 174 188 194 215 231 252 
30 34 32 31 31 33 37 36 36 34 35 33 35 34 36 38 36 39 41 41 43 48 44 45 48 46 49 45 44 43 44 37 29 32 38 36 36 37 36 37 38 37 35 34 35 35 32 34 35 37 34 39 36 37 38 44 40 37 37 36 34 34 35 36 38 40 37 38 43 54 100 138 156 168 174 184 195 211 226 249 
32 36 35 35 36 34 40 33 39 39 38 35 38 37 37 39 41 39 44 43 49 46 48 48 53 48 51 49 46 44 44 37 35 34 39 41 40 38 38 40 36 39 36 39 36 34 34 32 32 33 38 39 37 37 46 46 42 40 39 35 35 36 39 38 40 38 37 39 42 52 96 135 153 167 169 179 180 187 212 248 
34 36 37 37 35 37 43 35 40 37 42 39 40 43 42 41 42 44 45 45 47 51 50 53 53 54 53 52 47 50 46 43 37 36 38 42 40 40 41 40 37 39 37 38 37 35 37 34 36 38 38 37 40 43 48 64 78 64 50 38 35 37 39 37 40 43 41 42 40 48 95 132 151 161 169 174 171 164 206 255 
38 43 40 39 39 39 45 38 43 40 39 38 40 44 45 43 48 47 50 53 53 56 56 55 59 59 59 59 55 55 52 44 39 38 44 43 42 45 43 41 41 43 43 40 39 40 36 36 37 38 42 40 44 46 79 195 167 102 62 44 41 40 39 40 42 42 44 41 45 51 95 130 155 164 171 175 180 195 222 245 
47 45 40 45 41 41 45 41 43 42 45 39 43 47 44 45 52 50 52 54 56 60 61 65 63 60 61 59 59 56 55 44 41 42 46 46 46 43 43 41 41 43 45 37 41 43 40 41 42 40 40 44 46 48 93 240 179 101 59 44 38 43 38 38 42 42 44 43 47 51 91 130 154 165 172 176 192 205 218 233 
47 49 47 50 47 42 50 47 46 49 50 43 47 50 51 50 55 56 56 60 63 65 66 66 69 67 65 63 61 59 54 48 43 43 46 49 45 44 40 39 40 43 41 41 44 42 37 38 40 39 42 42 44 48 62 94 92 68 52 44 41 38 40 38 40 40 40 43 46 47 87 125 151 165 167 177 192 206 220 233 
55 55 57 53 52 53 59 52 53 53 53 49 52 55 55 55 56 61 61 62 64 69 70 78 79 73 79 71 65 60 56 48 44 44 48 50 47 40 39 43 42 43 44 42 47 44 40 44 44 41 46 45 43 46 46 56 56 52 49 42 41 43 41 42 41 41 40 43 45 48 82 125 151 165 173 182 194 207 217 236 
74 73 65 57 54 54 63 54 56 52 52 50 55 59 57 56 59 61 66 70 72 75 75 83 82 83 79 75 66 63 56 48 45 48 50 51 50 48 58 72 47 46 49 49 48 46 44 44 44 45 46 48 44 45 45 49 52 47 47 41 42 43 39 39 44 44 41 40 41 43 74 131 153 168 175 180 196 208 224 238 


