P2
80 60
281
30 35 41 60 97 107 69 47 75 96 78 49 38 32 34 30 28 29 25 25 22 25 22 23 26 24 24 26 27 26 27 30 28 29 27 26 25 29 28 31 27 24 27 24 25 28 27 25 13 15 14 18 16 16 18 18 17 16 20 24 21 22 23 23 26 23 22 19 23 24 24 21 21 22 26 25 26 24 15 18 
29 36 41 63 101 101 63 39 79 97 70 46 38 33 34 32 28 26 26 25 22 27 24 24 26 27 27 28 30 32 28 26 26 25 26 23 26 28 27 25 26 24 29 26 24 25 30 22 19 18 13 18 19 15 19 15 19 18 26 23 24 24 25 28 26 23 22 23 20 22 23 24 21 22 25 26 23 21 20 18 
28 29 45 62 103 97 58 46 82 97 66 42 35 33 27 34 29 28 23 26 23 24 24 25 27 30 26 28 32 28 27 26 22 23 26 24 25 24 26 24 23 26 26 26 25 27 26 24 19 21 18 21 25 22 21 23 25 28 27 27 28 28 25 28 27 18 20 20 24 24 25 23 22 22 24 19 25 28 19 17 
27 29 40 68 105 95 53 46 87 90 60 36 29 30 31 27 28 26 23 26 25 26 25 30 29 26 28 28 30 33 25 24 22 22 23 25 21 23 24 27 24 25 26 24 25 26 27 26 25 25 25 24 26 26 25 25 26 24 28 28 22 24 23 21 22 20 19 22 27 24 25 20 22 20 23 23 23 23 19 19 
27 32 44 78 112 95 54 49 88 91 54 33 31 30 30 26 22 25 25 25 25 25 25 24 27 28 23 29 29 32 28 24 27 20 22 21 21 22 20 25 24 24 23 25 23 26 25 25 27 25 22 25 24 25 25 26 21 24 24 21 20 20 20 20 23 22 21 22 22 21 22 25 21 21 24 23 24 19 15 15 
24 36 44 85 107 89 52 52 93 90 52 32 27 27 25 25 24 23 24 30 30 29 26 23 24 29 25 25 28 31 29 24 23 24 23 23 20 21 22 22 22 26 23 23 26 24 23 24 25 26 22 27 22 24 24 19 21 19 20 21 21 20 25 21 26 23 18 22 27 25 23 26 21 24 25 25 21 19 18 13 
30 35 43 80 105 88 47 49 97 85 45 30 27 24 27 24 23 25 24 25 27 23 25 23 24 26 25 25 30 30 27 24 25 23 23 24 21 21 24 22 22 23 19 22 22 24 20 23 25 24 21 24 22 24 20 25 23 19 22 22 27 25 22 24 25 23 20 20 24 23 24 25 22 20 24 25 19 24 20 18 
22 30 40 79 103 80 45 46 92 80 41 22 19 20 18 19 21 25 25 23 21 21 20 19 22 21 17 23 26 27 23 21 23 24 19 23 19 20 22 22 19 23 21 22 24 20 19 20 19 22 19 20 18 18 21 18 18 18 20 21 23 26 23 23 24 19 18 19 21 23 21 23 24 19 21 19 20 20 18 19 
17 27 33 84 108 79 40 51 95 79 40 22 25 21 23 22 22 23 22 21 22 22 19 19 22 22 25 23 24 28 23 23 24 25 22 24 22 23 21 23 22 24 23 22 26 20 24 22 19 20 19 19 22 21 23 23 22 24 24 23 24 27 26 27 26 21 22 21 23 25 25 26 24 21 23 21 21 22 16 15 
2 0 14 85 108 73 33 51 103 85 32 18 14 16 20 18 20 23 19 21 19 23 19 20 21 22 22 22 23 27 26 21 23 23 24 20 23 22 23 20 23 23 27 25 23 22 24 26 21 19 17 17 20 17 23 26 23 25 27 27 25 26 25 24 25 21 23 19 22 23 24 25 25 22 25 23 22 23 20 17 
11 7 21 92 109 68 28 53 114 89 24 10 11 14 13 13 17 18 15 19 17 18 19 19 19 22 20 21 25 28 29 19 23 23 18 19 23 22 24 25 21 25 19 24 22 18 21 20 21 21 21 25 23 23 24 25 23 24 24 23 24 27 26 26 23 28 19 16 24 23 25 23 27 21 21 23 20 25 18 22 
21 22 29 97 117 72 29 59 111 88 23 10 8 8 6 9 10 9 14 12 12 17 17 16 22 19 19 20 23 25 21 20 22 20 20 20 22 23 26 27 23 24 23 23 22 21 21 22 23 25 23 25 24 25 25 25 26 28 28 28 23 27 24 25 27 22 23 18 21 25 25 25 24 23 24 22 18 22 18 23 
15 19 26 99 115 72 33 62 113 84 24 10 9 6 7 8 8 8 7 6 4 5 3 6 8 10 9 8 10 15 14 16 18 18 16 20 21 21 21 21 24 24 21 21 20 20 27 25 24 24 24 24 24 25 26 24 24 24 27 28 25 26 22 26 26 26 23 19 23 23 23 23 24 20 23 25 24 23 15 20 
13 18 29 102 103 62 31 67 112 78 21 11 9 8 11 11 9 7 6 8 3 4 5 4 2 2 1 4 4 8 0 2 7 9 14 21 18 20 20 20 24 23 22 21 22 22 25 23 21 24 23 25 24 24 24 26 25 24 26 25 23 27 25 24 27 22 22 20 22 23 23 24 25 23 25 25 22 22 15 18 
18 19 36 99 97 52 33 72 106 71 21 13 12 14 15 9 8 10 9 8 9 6 6 6 6 7 6 10 8 9 7 0 3 7 17 22 21 21 21 19 21 25 25 24 24 26 24 23 27 24 26 24 25 25 27 24 26 25 26 26 26 24 29 29 25 24 25 21 21 27 27 29 24 24 25 30 25 24 15 18 
19 16 37 100 93 45 29 75 103 67 19 12 11 10 10 8 9 9 5 5 5 4 3 5 3 5 4 5 5 7 4 4 14 15 18 19 20 19 17 19 22 25 23 23 24 21 24 23 24 22 23 22 23 22 27 23 25 24 23 24 29 22 25 25 24 25 23 21 19 23 22 23 24 22 23 26 21 19 14 15 
16 21 45 104 88 47 31 74 102 62 18 15 11 11 11 11 11 9 7 10 8 8 6 4 5 6 5 6 7 11 16 18 21 18 19 19 20 19 23 24 24 24 25 24 24 23 25 26 24 23 23 27 23 24 26 24 25 29 26 24 23 25 22 23 26 27 24 20 20 25 25 26 23 23 22 26 26 23 20 18 
18 18 45 103 95 45 26 77 101 63 17 13 15 16 12 12 9 8 10 11 9 9 7 8 8 10 9 7 12 23 21 23 24 21 21 19 21 22 22 22 25 23 23 24 26 24 27 24 26 25 25 25 27 26 22 26 25 27 27 24 26 27 26 29 27 26 30 22 21 24 22 23 26 22 24 24 25 28 20 22 
18 17 48 105 90 43 29 80 97 59 20 13 11 13 13 13 13 10 8 9 11 9 11 8 7 6 7 6 16 22 20 19 19 20 15 21 17 22 20 20 20 20 23 21 27 25 21 24 22 21 24 24 25 22 24 24 27 27 29 25 25 25 23 24 25 26 26 22 15 20 24 22 23 22 24 25 25 24 20 22 
19 20 55 106 90 46 30 82 100 56 15 12 15 12 13 15 13 9 13 12 10 11 10 7 8 9 11 9 15 24 23 20 21 20 20 19 21 20 23 24 23 22 22 24 23 24 24 24 23 24 28 27 25 25 28 26 26 25 27 27 26 27 28 27 28 27 29 28 18 20 26 27 25 23 25 26 23 27 20 24 
22 22 61 109 89 42 34 88 103 56 18 14 18 15 14 17 13 15 14 13 10 10 11 12 9 13 8 12 13 18 24 18 22 18 20 20 22 23 22 23 22 21 22 24 29 27 25 27 26 24 27 25 24 25 24 28 25 27 28 28 27 29 25 28 29 30 28 29 21 18 22 22 24 24 29 28 25 25 24 21 
28 29 71 119 90 41 38 91 101 54 14 16 16 14 14 13 15 14 13 17 11 15 9 11 9 10 10 11 11 13 20 18 20 18 16 21 21 20 21 22 21 22 22 24 24 23 23 23 26 28 26 25 25 26 26 25 26 25 26 26 26 25 28 26 28 23 27 27 22 21 19 26 24 24 24 25 24 30 22 19 
79 75 104 125 86 34 42 92 99 52 18 18 14 12 12 16 13 13 14 14 14 13 12 7 10 12 12 8 9 17 18 18 23 21 19 20 20 22 20 19 23 25 23 23 26 21 24 26 25 26 26 24 25 25 26 22 25 24 27 27 27 28 28 30 24 25 27 26 24 19 16 22 23 25 27 25 23 27 22 22 
105 105 111 104 73 33 41 93 95 51 18 17 16 12 14 13 15 16 15 17 12 12 12 10 9 11 11 14 11 15 22 18 20 19 18 16 20 23 21 24 22 23 23 25 24 24 23 24 26 25 27 27 26 26 26 24 25 26 26 24 25 26 26 27 25 28 28 29 27 27 16 19 24 21 23 27 23 30 23 20 
95 97 94 87 52 31 44 99 97 48 19 18 17 13 16 17 15 16 11 16 11 13 15 12 14 12 12 14 16 17 20 21 19 18 20 21 24 24 24 25 26 26 26 25 22 22 25 25 28 28 26 30 26 27 24 26 24 30 26 26 27 27 30 28 29 29 31 31 30 28 24 19 17 19 26 27 27 27 22 20 
41 47 48 47 27 26 48 104 98 48 21 19 16 17 14 19 13 17 14 14 13 17 16 17 12 13 12 11 15 15 22 19 22 24 24 23 25 24 25 27 27 24 27 25 25 25 24 26 26 28 30 27 25 28 24 24 27 26 25 30 28 26 30 33 30 31 30 32 29 29 29 24 22 16 18 21 22 24 20 18 
30 26 28 27 27 27 50 113 101 50 20 18 18 15 19 19 13 16 16 14 15 16 12 17 17 13 11 16 11 15 22 22 20 22 22 22 23 26 27 24 26 26 25 24 25 24 25 27 25 26 29 27 24 27 28 28 25 24 27 27 24 26 26 25 26 30 29 28 30 30 27 27 24 22 21 19 23 19 22 19 
79 67 61 58 49 49 69 123 99 48 17 18 17 17 19 16 15 14 18 15 16 15 15 16 15 15 14 13 12 15 20 19 21 24 23 25 23 24 26 27 25 25 26 24 26 24 24 23 24 26 27 25 25 25 29 26 22 28 27 29 28 25 28 28 30 31 28 29 26 29 27 26 28 24 27 28 31 27 22 21 
115 111 105 107 101 98 112 113 91 44 15 18 18 18 17 19 16 18 19 19 16 17 16 15 15 17 14 15 15 18 22 24 23 26 24 27 24 27 27 25 26 29 28 24 22 23 26 28 26 27 24 25 25 27 28 27 24 26 30 28 26 27 27 29 27 32 29 30 29 33 30 33 26 27 32 30 30 24 20 25 
99 99 100 104 96 96 97 96 77 29 17 16 16 17 17 19 18 20 18 22 19 14 15 15 16 17 16 12 17 16 21 22 22 21 24 25 24 27 27 26 30 26 26 26 23 27 23 26 25 26 24 29 27 25 28 26 26 26 30 29 30 28 26 30 27 30 28 30 30 29 30 31 26 26 30 30 27 23 25 19 
41 45 49 54 55 56 61 59 42 21 19 20 17 19 20 21 20 20 19 16 19 19 17 18 16 19 19 14 18 19 22 23 24 25 22 26 24 26 27 27 26 29 27 27 25 26 28 27 27 28 26 26 28 26 26 30 26 26 27 31 28 26 28 28 30 29 29 29 32 32 24 31 27 27 28 31 30 26 26 24 
25 23 26 27 26 27 29 26 23 18 21 21 19 22 21 21 18 20 20 19 20 24 20 21 18 16 17 17 16 19 23 23 26 26 22 25 23 30 30 28 28 28 27 25 27 24 27 25 27 26 28 26 26 26 26 25 26 26 27 28 29 29 30 30 31 31 29 31 28 30 29 30 27 26 24 28 29 28 24 27 
25 22 21 27 23 23 26 25 24 20 18 20 22 19 22 20 22 20 20 19 20 25 23 19 15 20 19 22 23 18 24 27 25 24 21 26 27 27 29 29 27 26 27 28 26 26 30 26 28 30 27 29 28 26 25 29 25 26 29 27 30 28 30 32 30 33 31 32 30 31 27 29 28 31 29 31 29 29 26 24 
26 22 24 29 26 26 26 21 22 22 19 24 23 22 23 25 22 23 23 21 23 20 19 24 22 22 23 19 18 17 24 26 28 27 26 25 29 28 29 25 28 29 29 28 29 25 25 26 28 29 28 30 29 27 28 26 27 29 27 34 31 33 30 33 33 34 33 33 29 32 33 34 31 33 30 27 29 31 28 28 
24 24 22 26 20 22 22 25 24 22 20 21 21 20 22 21 23 22 23 23 23 22 22 22 22 21 21 19 20 20 25 24 28 24 25 25 26 25 28 29 27 26 29 27 27 28 28 32 26 28 26 27 29 26 28 30 26 26 27 30 28 31 28 30 30 32 30 32 30 33 29 30 34 31 29 30 30 31 28 29 
31 24 22 25 24 26 22 23 25 17 20 22 20 20 24 24 25 22 21 22 22 22 21 25 20 22 22 22 20 20 24 26 30 27 25 28 26 27 29 30 26 29 28 29 27 29 27 29 28 27 26 28 27 26 25 28 29 27 29 31 28 30 31 29 31 30 32 33 31 32 31 31 33 33 29 27 29 33 27 31 
25 22 26 27 23 21 25 25 23 20 21 20 25 23 24 22 24 24 23 27 23 22 24 23 25 23 23 24 20 21 24 28 26 26 23 26 27 26 32 31 27 31 26 26 27 30 27 30 28 29 28 30 26 27 30 29 25 26 28 29 28 28 31 32 30 32 33 32 31 31 32 31 31 30 32 33 31 35 31 36 
27 26 27 26 23 25 25 27 23 18 21 22 23 22 25 24 25 25 26 24 20 24 23 25 25 24 26 28 22 20 25 29 30 28 26 25 27 27 29 28 29 33 30 30 28 28 28 32 30 31 29 29 29 30 29 29 28 29 29 28 29 28 30 31 34 33 35 34 34 32 35 32 32 32 35 30 34 34 32 39 
29 30 27 27 24 24 27 27 27 20 18 23 24 24 25 26 26 25 25 24 24 28 25 26 25 26 26 30 24 25 25 28 27 29 27 25 27 30 29 30 29 33 28 27 29 29 29 31 30 29 30 29 27 28 29 30 26 26 29 33 28 29 28 32 32 35 36 33 35 32 32 34 34 32 33 31 33 32 40 52 
28 31 28 26 21 28 27 28 24 21 22 23 26 24 26 27 27 26 29 27 25 27 21 26 29 25 26 28 27 22 24 28 29 29 28 29 32 31 31 27 28 31 30 30 29 31 32 30 29 29 28 29 28 28 30 27 28 28 29 29 27 26 28 29 30 35 34 30 31 32 33 33 31 30 32 35 45 57 89 119 
28 27 31 29 26 28 28 28 25 20 22 22 25 25 27 27 29 29 31 30 28 29 30 29 29 29 26 28 26 27 25 29 30 32 30 28 30 28 32 32 28 33 28 28 28 30 29 30 29 31 30 31 28 27 30 30 27 30 30 27 31 28 30 27 32 33 33 36 31 35 36 34 32 33 39 53 62 80 167 188 
24 25 27 33 24 27 28 30 27 22 23 25 27 26 32 31 31 31 31 30 29 31 29 30 32 30 28 31 33 28 27 31 33 31 30 28 28 26 33 35 32 32 32 30 32 31 32 30 31 26 28 28 30 31 30 30 28 29 28 29 29 32 29 31 34 35 36 35 34 35 35 34 36 38 42 45 47 70 161 214 
26 21 28 31 29 25 29 30 28 23 22 23 25 28 28 31 32 30 31 33 29 28 32 31 32 33 29 31 32 26 26 31 32 35 28 30 33 34 33 33 32 31 30 31 29 32 29 30 27 30 31 28 32 28 27 25 28 26 30 32 33 29 29 31 32 35 37 36 35 35 35 41 41 44 50 58 60 72 165 243 
29 25 29 32 29 28 38 31 28 21 23 26 27 26 30 33 32 34 30 34 34 32 35 34 32 33 27 28 29 29 28 30 33 31 30 30 33 33 33 35 32 30 32 29 30 28 32 31 29 29 29 29 29 26 29 28 25 27 28 31 30 28 31 33 34 33 37 35 37 39 57 77 86 107 149 155 125 123 220 261 
26 24 27 29 32 30 34 28 29 20 23 25 29 29 30 29 31 35 36 38 33 35 39 35 34 31 28 28 30 28 25 27 31 34 33 37 34 35 32 35 31 33 31 29 30 28 28 32 30 30 27 31 28 26 26 29 27 27 27 29 31 31 30 33 36 36 36 37 45 70 120 164 198 228 256 260 240 240 264 276 
26 30 29 32 31 29 31 30 27 22 23 27 30 29 36 35 36 36 37 38 38 36 36 37 31 32 28 28 28 26 23 27 34 34 34 34 31 33 34 36 32 33 29 33 29 30 29 31 28 32 28 33 26 27 27 25 25 30 29 29 32 31 34 33 36 32 38 41 57 105 139 228 259 276 281 276 267 256 254 244 
32 29 27 33 33 31 34 30 28 24 26 27 31 31 34 32 34 39 37 38 40 37 40 37 38 37 38 34 30 34 28 27 34 33 31 32 34 32 34 36 39 33 30 31 31 30 30 29 29 28 32 30 29 29 29 28 25 28 29 28 32 32 34 31 37 37 38 48 79 119 162 235 237 232 219 206 195 191 193 207 
29 29 29 31 34 31 35 30 30 26 26 29 32 32 37 35 36 38 36 43 39 40 39 40 41 46 40 39 38 41 33 29 34 34 34 35 34 31 33 35 37 38 31 34 33 31 33 29 29 31 29 29 30 29 28 33 28 29 31 34 32 31 34 35 37 35 39 52 89 115 129 150 150 150 152 157 163 178 185 222 
26 26 27 35 31 30 33 28 28 25 26 26 35 29 36 35 36 36 35 37 40 39 41 41 47 47 44 42 40 40 30 31 34 34 32 37 35 36 34 36 35 35 33 33 29 30 29 31 27 33 29 31 28 26 28 28 31 29 30 32 32 34 35 36 36 35 35 52 86 109 123 131 134 141 151 166 178 198 215 239 
26 26 27 32 31 28 33 34 31 26 29 28 32 35 35 36 37 37 39 37 38 40 39 43 43 48 47 45 41 41 34 30 34 39 37 36 35 37 35 38 35 37 35 34 35 31 31 29 29 32 30 31 30 27 29 27 30 30 34 31 31 32 32 35 35 36 38 51 85 118 135 145 151 159 170 182 195 212 226 245 
28 31 32 29 33 30 35 32 35 29 32 33 37 35 39 39 39 41 41 41 41 42 43 43 46 47 45 44 44 41 35 32 35 36 37 40 35 35 37 37 34 36 32 34 34 29 31 30 32 29 33 34 28 32 35 28 30 31 33 32 31 34 34 36 35 35 39 47 82 113 137 149 156 164 172 188 198 215 227 245 
32 32 34 30 30 32 37 34 37 28 31 32 33 31 36 37 41 39 39 44 44 47 47 45 46 46 47 46 44 41 37 31 36 36 36 38 38 36 39 39 36 36 35 33 34 32 33 31 33 31 32 32 30 34 40 37 33 34 31 35 35 33 34 38 35 37 41 43 74 111 136 147 152 161 167 186 196 215 226 247 
32 35 34 37 35 35 41 38 38 33 32 39 37 35 40 36 44 44 46 46 44 45 48 49 48 49 51 48 50 44 42 34 33 40 39 41 40 39 41 39 37 39 35 35 34 34 34 33 33 34 30 33 36 37 48 46 42 38 39 36 33 36 35 35 38 38 41 43 67 106 130 144 150 159 168 182 196 214 221 239 
31 31 34 39 40 37 43 37 37 32 34 36 39 36 36 44 44 40 46 48 49 48 54 52 53 52 55 47 45 48 39 34 36 37 38 41 42 37 40 37 36 39 36 37 34 32 35 36 33 36 34 35 35 40 58 81 66 48 38 35 37 36 37 39 39 37 38 43 65 101 126 141 149 155 166 177 192 209 220 238 
37 37 39 39 38 42 47 39 40 34 36 38 38 39 46 44 49 46 51 53 51 52 53 56 57 57 55 56 49 49 45 38 37 42 44 43 42 40 41 38 41 41 37 37 37 36 36 35 34 38 36 38 39 59 175 192 121 66 43 37 35 37 36 39 38 39 39 46 61 95 123 140 147 154 165 175 193 205 222 241 
41 47 41 45 45 45 46 47 44 40 39 43 47 47 47 51 52 56 52 55 57 62 64 62 63 62 63 58 55 56 47 41 41 47 47 47 46 45 43 41 47 44 43 41 41 40 39 38 37 40 41 42 46 71 200 200 121 65 45 42 41 39 39 37 43 42 41 48 56 95 121 143 145 154 159 171 184 199 223 240 
46 44 46 45 47 45 52 51 49 41 45 43 45 50 50 51 55 56 59 62 62 67 68 69 64 67 65 58 59 57 53 42 41 47 47 47 47 43 43 44 44 41 39 41 39 40 40 40 37 42 36 39 44 46 82 89 70 48 45 42 41 36 38 39 39 41 42 45 51 89 114 135 145 150 158 159 151 172 220 233 
52 49 47 55 46 48 51 53 50 48 48 48 51 52 50 58 60 59 63 67 66 73 72 71 73 76 72 68 63 59 53 41 43 47 50 47 47 37 40 49 43 45 43 43 43 43 41 37 39 45 39 42 40 42 49 53 50 46 44 42 39 42 39 40 43 40 46 43 51 85 111 135 138 150 154 155 151 188 219 226 
57 60 58 58 55 57 59 57 53 49 54 51 54 53 55 57 61 62 68 69 73 81 81 81 81 85 75 72 66 61 53 44 46 47 51 51 47 46 61 55 43 46 50 45 45 44 44 45 44 44 45 41 43 45 43 44 44 41 42 40 42 42 38 41 42 40 43 48 54 78 109 136 145 150 152 163 176 199 215 226 
76 73 71 68 66 62 62 62 60 54 54 59 57 55 57 65 64 66 76 77 80 84 79 76 88 89 85 73 66 63 56 52 49 52 54 55 56 66 121 87 54 56 52 50 47 46 47 46 43 46 40 41 42 41 45 42 41 41 40 44 44 39 42 41 44 43 42 45 53 77 108 135 146 148 157 169 180 197 213 223 


