P2
80 60
257
17 22 20 26 34 43 80 90 71 45 60 91 88 48 39 36 36 26 27 27 28 29 25 21 23 26 25 27 30 32 35 31 30 27 27 29 27 22 24 23 25 26 26 27 25 27 27 26 23 19 14 15 13 15 15 15 15 16 18 18 14 18 18 18 18 15 18 22 22 20 17 20 20 18 16 17 11 11 13 19 
13 19 21 23 34 43 88 96 68 40 65 92 82 43 38 36 37 30 27 22 25 29 27 26 24 23 26 27 30 30 32 30 30 29 27 26 26 25 23 25 25 24 26 27 26 25 27 27 25 18 15 16 12 12 18 16 18 16 17 16 19 18 18 21 22 17 16 20 24 18 21 21 21 14 16 14 15 11 11 11 
15 23 22 28 37 45 93 96 65 43 71 94 77 40 36 33 28 25 29 26 28 28 24 26 23 27 31 29 28 31 31 31 29 27 26 27 26 26 24 26 23 23 24 26 24 29 27 24 25 21 17 18 17 19 16 18 23 19 20 20 21 25 26 26 24 13 16 20 21 22 19 20 17 19 17 20 18 9 12 13 
18 21 21 33 39 46 93 95 55 43 74 93 71 37 34 30 29 28 27 25 28 24 24 25 24 30 32 27 31 33 33 31 27 25 26 22 25 27 23 24 22 24 26 26 27 26 28 27 26 23 20 23 24 24 24 23 25 25 29 27 24 25 25 30 28 18 13 20 18 19 20 21 17 17 19 18 16 10 13 11 
14 23 20 32 38 57 104 91 56 44 78 90 61 34 30 29 27 26 24 23 24 21 27 25 26 28 28 29 30 31 34 29 26 28 25 24 23 22 21 21 25 26 27 25 26 29 22 27 28 27 25 27 22 25 29 30 26 29 26 26 26 26 30 27 21 20 19 16 21 19 20 20 20 19 17 19 17 6 8 13 
16 19 24 35 37 69 101 84 53 44 87 87 59 34 28 29 28 23 23 24 26 27 31 28 25 27 32 29 30 32 32 31 28 26 25 26 27 22 23 25 21 22 28 28 27 28 27 27 28 29 25 27 29 27 26 28 27 29 28 26 25 27 25 25 21 17 16 17 22 18 20 22 18 19 20 16 17 7 11 10 
14 22 25 34 41 67 105 87 46 49 88 85 54 29 31 27 23 25 28 28 23 27 27 28 25 29 26 28 31 31 33 30 29 27 27 29 28 25 25 22 23 22 26 27 26 26 26 31 27 27 29 30 27 29 26 27 25 23 29 26 24 25 26 24 26 17 18 20 23 20 23 25 20 22 21 20 16 7 12 9 
12 14 21 29 35 65 98 75 44 47 87 87 46 26 24 24 23 22 23 24 24 25 23 23 22 24 26 25 25 30 30 29 29 23 24 25 23 23 24 22 23 22 26 24 28 25 23 23 23 25 28 24 23 27 22 23 28 24 27 20 25 23 25 27 24 19 17 17 20 22 21 23 20 18 19 17 8 6 12 11 
5 10 15 24 29 67 102 73 39 47 93 82 43 25 23 22 22 23 21 23 24 23 24 27 21 22 21 25 30 29 32 28 27 26 25 25 25 25 24 22 24 24 24 28 26 26 26 26 25 27 24 23 25 24 24 26 26 24 25 24 26 29 28 27 27 24 19 16 22 19 22 27 22 23 19 16 8 9 16 13 
9 3 4 0 9 70 99 67 29 44 98 81 41 24 22 19 20 17 18 21 24 23 23 22 24 23 27 27 27 29 31 29 25 25 24 21 27 26 23 25 26 23 27 25 27 28 28 28 25 24 22 25 23 22 24 25 30 26 26 28 28 29 31 23 27 24 22 17 20 23 23 27 21 22 19 18 8 9 10 12 
10 12 8 0 13 76 101 61 23 46 104 88 28 14 11 14 14 15 15 19 16 21 19 21 19 23 21 24 23 23 27 28 21 24 24 22 23 23 23 24 22 20 24 24 25 27 26 24 21 24 22 20 23 21 24 24 29 29 28 28 26 28 25 25 26 24 19 15 20 24 23 24 21 18 18 17 14 6 10 11 
13 17 18 16 24 85 104 57 22 56 105 74 19 10 9 12 10 9 12 15 16 19 17 18 21 23 20 25 24 25 30 25 25 23 24 24 24 23 21 26 21 24 24 27 26 24 25 23 25 21 23 25 24 23 26 23 31 31 28 31 25 31 25 26 26 25 23 17 17 19 23 25 22 23 23 18 11 7 11 12 
12 19 17 17 19 80 98 55 22 58 104 71 17 11 6 7 10 4 9 8 6 9 6 11 11 13 18 18 17 22 22 21 21 22 23 22 24 20 21 26 22 23 23 25 24 27 26 21 23 22 24 25 23 26 27 27 28 28 32 24 26 29 25 25 23 27 23 16 16 18 22 24 24 21 20 17 17 6 12 14 
14 17 17 18 22 89 89 47 31 68 105 67 19 12 13 10 10 7 9 8 10 6 7 9 6 7 7 15 10 9 14 12 15 20 21 20 20 21 24 24 24 22 24 25 26 25 23 27 24 27 27 28 24 29 29 30 30 27 28 31 30 29 25 26 25 29 22 19 17 22 23 25 26 20 20 22 15 9 13 12 
13 12 15 20 35 86 84 44 26 78 103 59 20 13 14 14 14 9 8 10 6 11 11 8 5 9 7 12 10 9 12 9 6 7 2 12 19 22 23 22 25 22 27 24 27 28 26 27 25 27 29 28 27 28 29 32 28 27 28 28 28 31 28 27 28 27 28 20 17 20 23 25 26 21 22 22 16 5 12 18 
10 13 16 18 39 89 84 40 28 78 103 55 18 12 14 14 14 8 11 7 8 9 9 10 7 9 9 7 7 11 12 11 6 4 6 14 15 22 20 24 22 20 27 28 28 27 27 28 27 28 28 27 27 28 27 27 30 30 30 28 30 29 31 27 29 28 26 23 15 18 24 26 25 23 23 19 19 12 13 13 
13 15 15 17 44 94 81 36 26 86 93 48 17 12 13 13 13 10 10 10 9 8 12 10 5 10 9 7 12 10 11 9 6 15 20 21 24 23 23 18 20 20 24 25 27 24 28 24 25 28 28 28 29 28 29 30 29 27 27 29 28 28 29 25 27 26 27 21 14 18 24 23 24 21 22 18 21 14 14 15 
14 14 17 19 50 95 82 34 30 88 92 48 20 15 15 15 16 12 13 11 12 13 11 12 7 10 9 8 12 12 13 17 21 26 24 24 26 23 26 22 23 25 27 29 29 28 30 28 26 27 27 30 31 29 28 30 32 31 30 31 29 30 29 26 27 27 29 21 15 18 21 25 28 26 25 21 23 17 14 17 
12 16 18 22 50 90 76 31 29 88 89 43 18 16 17 16 12 11 13 12 12 10 13 12 11 10 6 10 10 12 19 24 23 25 23 20 20 22 22 22 23 22 27 23 29 26 27 24 25 26 31 28 28 31 29 30 29 30 28 28 30 30 29 29 30 29 30 26 17 16 22 27 27 24 29 26 22 17 18 18 
17 18 18 23 61 94 79 30 31 87 89 41 17 20 15 15 15 16 15 13 9 16 13 13 11 11 13 12 13 15 21 28 26 25 19 18 23 22 24 22 20 22 22 26 27 27 27 26 27 27 30 30 28 29 28 29 31 29 31 30 31 33 29 27 30 27 32 27 17 12 17 25 25 25 24 20 24 18 18 18 
22 23 22 23 71 99 79 30 37 99 86 41 20 17 13 15 16 14 14 14 13 15 10 14 11 15 13 15 15 15 19 23 23 25 21 21 21 23 23 19 23 23 27 29 25 28 26 27 25 25 29 27 26 27 26 28 28 28 30 31 30 31 30 29 30 27 30 26 22 13 17 24 27 23 24 20 19 19 18 19 
43 40 35 37 89 110 79 30 39 102 88 37 17 16 17 14 15 14 16 13 12 14 11 13 11 11 11 12 11 15 17 25 23 21 21 22 21 22 23 26 22 24 27 25 26 27 26 28 27 25 26 31 27 28 30 28 28 31 27 29 31 30 31 31 29 26 30 28 24 14 12 25 23 22 22 22 22 20 21 21 
104 102 92 91 112 105 69 25 47 101 85 34 19 14 15 16 13 13 16 13 14 12 15 12 12 10 13 13 14 16 13 20 23 22 21 19 23 21 21 19 22 23 26 26 26 27 27 26 26 27 29 30 29 28 31 27 30 31 29 29 32 29 31 29 27 28 28 28 24 17 14 20 22 24 20 21 22 17 21 23 
104 102 105 107 100 88 53 29 55 100 85 30 17 12 14 16 13 14 15 13 15 14 15 16 10 10 14 14 11 15 15 22 21 21 20 21 25 21 23 22 21 23 26 28 27 29 27 25 28 28 28 29 31 27 28 28 28 30 29 30 31 28 32 30 31 27 30 32 29 21 17 17 21 21 21 24 21 21 16 19 
60 63 77 83 80 64 37 30 61 106 89 33 20 15 16 18 18 16 15 16 15 17 16 18 16 12 16 13 15 15 20 21 25 23 24 23 25 22 24 22 26 24 27 27 29 29 26 28 28 31 28 30 30 31 29 31 30 30 28 33 32 34 36 31 30 29 30 28 27 26 24 19 17 17 19 20 19 21 22 21 
34 27 29 31 32 29 29 29 63 112 92 36 18 18 17 19 18 17 17 16 14 19 16 18 16 17 18 14 17 18 20 22 26 28 25 25 26 27 27 26 24 26 28 33 32 30 28 28 29 31 28 28 29 31 33 31 30 30 29 32 30 31 32 32 30 31 33 31 29 28 30 24 17 13 16 16 16 20 20 23 
47 42 35 30 25 23 29 35 74 117 90 29 16 19 19 17 17 18 16 18 16 16 16 19 14 16 16 15 17 15 17 23 24 24 24 22 24 28 25 27 27 27 29 28 27 25 28 28 27 27 31 30 27 31 31 30 29 31 30 29 27 31 31 31 29 31 30 32 29 28 28 26 28 17 16 16 13 10 18 20 
107 103 95 87 74 66 63 60 95 120 89 32 18 17 19 16 19 15 17 15 16 18 17 18 15 17 16 18 16 16 17 24 23 24 23 23 27 29 26 27 25 26 28 31 28 30 29 28 27 29 29 27 28 27 30 29 31 32 27 26 30 32 31 30 31 28 32 30 31 25 28 31 26 26 24 24 20 19 20 25 
103 106 109 104 100 96 97 96 108 106 82 25 19 18 17 21 17 18 18 18 18 18 16 19 16 16 17 17 19 17 17 22 25 26 26 24 24 26 26 29 25 28 29 30 30 28 29 30 29 27 27 30 29 27 29 27 30 30 29 29 27 31 30 31 31 31 33 30 30 26 30 30 31 26 28 29 24 18 21 20 
59 68 77 81 81 88 92 92 93 89 59 20 18 18 18 19 21 20 18 18 19 18 20 21 17 18 19 21 17 15 19 22 24 24 25 26 25 26 30 30 29 27 28 26 32 28 28 31 28 29 27 30 27 28 29 27 29 27 28 29 27 30 31 32 34 32 33 31 29 28 30 33 30 24 26 24 23 23 23 23 
26 29 32 34 29 33 40 43 50 44 30 22 19 19 22 21 22 17 20 20 22 22 21 25 18 21 22 21 19 18 21 26 26 29 27 25 25 28 27 28 26 28 34 27 30 29 32 30 30 30 30 30 28 30 28 28 32 31 32 31 32 32 32 34 31 31 36 34 29 26 32 34 31 27 26 23 25 25 26 23 
23 22 20 21 23 21 26 23 28 24 25 19 17 21 21 22 17 19 20 19 22 23 19 23 18 23 19 21 21 20 21 23 26 29 26 23 27 26 27 28 28 30 30 30 31 30 29 29 29 32 29 30 33 32 32 32 30 31 32 29 33 33 34 35 31 29 35 33 31 30 29 32 32 30 25 23 22 25 24 24 
22 21 21 19 21 17 27 23 23 24 23 18 18 22 22 22 23 20 21 21 18 21 22 19 23 20 20 20 21 20 18 23 29 26 29 24 24 27 27 28 27 27 29 29 30 26 26 25 29 29 30 31 29 30 32 28 29 29 31 31 31 32 33 30 31 33 31 36 33 26 30 28 35 31 26 25 26 25 25 22 
20 21 21 24 21 16 24 21 24 28 25 17 17 22 26 20 22 24 20 22 24 23 25 21 22 20 23 22 21 21 22 27 29 25 26 24 26 29 28 29 29 28 32 31 30 28 28 30 30 29 34 32 29 30 31 32 30 32 29 32 32 37 36 37 34 35 34 35 32 31 31 32 35 34 33 27 26 26 26 28 
21 24 22 21 22 18 26 24 25 26 27 21 22 21 23 21 25 23 23 25 21 23 27 24 23 25 24 24 24 21 21 26 27 27 28 26 27 23 26 28 28 26 28 34 32 31 31 29 30 33 31 34 30 31 29 30 31 34 31 34 35 32 33 36 37 31 35 33 30 34 28 33 31 33 30 25 25 24 26 27 
22 27 26 21 21 20 25 19 23 24 24 21 20 23 24 23 22 23 20 25 22 26 25 28 23 23 23 25 25 21 21 27 27 29 29 27 28 29 30 29 25 30 29 31 33 31 32 28 32 31 30 31 29 33 30 32 31 34 31 31 33 34 35 32 35 31 35 34 29 33 29 32 32 35 30 27 25 28 29 30 
25 25 26 23 23 20 25 25 30 29 27 22 20 23 22 22 22 24 25 27 23 25 28 29 24 25 27 27 26 24 22 30 30 32 28 28 29 30 30 33 30 28 31 31 33 32 32 31 31 33 34 31 34 32 35 29 32 32 38 34 32 36 37 36 36 32 33 35 30 31 34 35 32 33 29 25 29 26 32 29 
22 21 26 23 22 21 25 25 27 25 25 22 22 25 26 23 22 23 24 27 27 27 24 26 26 25 30 29 27 26 27 26 32 32 28 29 29 29 28 29 31 28 30 29 33 31 33 32 32 33 31 33 30 33 34 33 31 33 36 30 33 36 35 35 35 33 36 34 31 33 29 34 30 31 31 28 29 24 35 37 
22 23 27 22 21 22 24 24 33 25 23 19 22 21 25 26 26 25 27 29 26 26 27 28 24 28 27 30 30 26 26 26 29 32 31 27 29 27 27 30 30 31 27 28 33 33 31 34 33 33 32 33 31 34 32 31 34 33 35 31 32 35 32 31 34 32 33 35 33 30 32 33 33 32 30 27 31 37 40 42 
20 24 25 28 22 23 25 21 31 24 26 23 21 24 27 27 25 24 28 27 30 28 28 32 29 29 30 29 27 28 29 29 33 33 27 28 29 33 29 30 29 26 32 32 33 34 35 32 32 30 32 32 30 30 31 33 31 31 31 33 33 35 30 32 34 32 34 35 35 30 30 37 34 34 31 36 51 48 42 42 
23 25 27 26 25 21 26 23 27 25 25 25 25 24 24 30 26 29 29 28 29 28 33 32 28 29 34 30 29 28 27 30 29 31 29 30 32 30 32 30 31 33 34 32 35 34 32 31 29 33 37 29 32 33 33 30 31 33 31 31 33 32 30 34 33 31 32 35 33 30 33 37 37 32 31 30 38 35 41 38 
21 25 24 26 25 22 29 23 29 25 24 22 24 25 26 28 30 29 30 28 31 30 32 32 32 32 31 32 31 30 29 25 30 30 31 32 32 30 31 31 33 32 32 33 30 33 32 32 34 31 32 32 31 34 29 33 32 32 34 29 30 35 30 37 33 34 35 34 34 31 34 34 35 36 32 33 34 32 39 40 
24 27 27 28 27 25 27 24 27 27 25 23 26 30 26 29 32 28 30 30 29 32 33 33 30 33 32 33 31 28 27 26 33 31 30 30 31 33 30 29 32 31 33 31 30 31 31 31 31 30 32 33 28 32 31 28 29 32 31 32 33 34 34 35 32 34 35 34 32 31 32 40 40 40 33 34 38 35 42 39 
23 25 24 28 23 23 31 29 30 30 26 23 27 28 27 31 30 30 30 30 30 32 35 36 32 31 31 35 30 29 29 29 32 33 31 31 32 32 36 30 33 33 32 35 32 30 32 30 30 32 34 34 28 31 32 27 29 30 32 29 31 35 32 37 30 30 34 34 33 35 37 44 43 44 50 57 67 78 94 113 
21 26 23 28 25 25 32 27 32 31 27 25 26 31 25 33 32 30 33 35 37 34 36 36 32 33 33 32 28 30 29 28 31 33 31 32 35 34 33 30 33 30 33 34 33 32 33 29 30 30 32 29 28 29 28 29 30 31 32 32 34 34 35 35 32 31 39 39 36 46 65 83 91 105 116 121 136 145 168 190 
23 26 30 29 29 27 35 31 30 31 28 29 27 32 31 30 31 32 34 35 36 37 38 39 37 36 35 31 31 32 32 29 30 33 32 33 34 36 33 32 32 31 30 32 34 31 33 32 30 30 32 32 30 29 29 28 28 34 33 32 35 33 36 37 36 31 38 39 39 66 105 126 134 139 147 155 168 183 206 227 
22 25 27 26 25 24 33 26 31 29 27 23 28 28 33 32 33 33 37 36 39 39 40 41 37 35 33 35 32 33 29 24 28 34 31 32 34 32 35 35 35 33 31 34 33 33 31 31 30 31 33 34 30 30 29 28 32 32 31 34 35 35 37 37 34 34 37 37 41 73 115 149 160 162 174 185 197 211 241 245 
22 27 28 26 27 27 33 28 29 30 31 26 31 33 31 33 34 34 34 34 37 40 37 42 39 42 42 43 39 39 38 34 28 35 34 35 35 33 35 34 32 35 33 35 33 33 32 31 32 31 32 33 34 31 31 30 32 33 32 32 33 35 36 35 34 31 38 39 40 67 119 154 169 174 181 191 206 219 243 254 
23 24 28 29 23 26 34 27 32 32 29 29 28 33 32 35 35 35 38 36 37 39 40 41 39 44 46 46 43 41 41 35 30 30 33 35 34 32 34 34 34 35 37 35 35 29 32 31 30 32 33 34 32 30 29 29 33 32 32 29 32 38 36 35 31 32 37 37 39 64 115 154 165 175 183 192 207 218 243 257 
25 23 27 30 26 26 32 27 28 33 34 29 28 32 32 35 34 34 36 34 39 39 38 40 38 43 48 46 44 43 42 35 31 33 37 33 33 34 31 34 33 34 37 35 33 34 32 32 28 32 33 30 32 31 31 29 32 32 35 31 32 36 36 33 31 31 38 35 40 58 109 148 168 171 180 192 202 216 239 257 
29 26 33 34 30 33 30 31 34 33 35 32 28 35 32 35 36 35 40 38 40 40 43 42 43 44 47 46 44 47 41 35 31 32 38 38 36 37 37 35 34 34 39 36 34 33 32 32 28 32 32 32 31 31 31 30 33 32 32 32 35 36 35 33 35 35 37 37 37 61 107 142 159 169 176 188 203 215 236 249 
28 28 32 32 29 26 32 31 38 33 39 31 34 33 37 38 38 38 40 41 42 43 44 44 42 47 49 48 44 46 46 39 32 34 39 37 38 36 37 38 36 34 39 34 34 37 30 32 37 31 32 34 31 32 38 34 36 36 34 33 33 37 36 34 36 34 39 37 41 54 102 139 156 165 174 185 199 212 237 246 
29 30 35 33 32 28 37 35 38 37 34 33 30 34 35 35 39 43 41 42 45 47 46 46 48 50 53 48 45 43 45 42 32 34 38 38 37 37 38 35 41 37 34 36 35 34 30 33 32 32 34 36 34 34 39 41 40 37 35 33 34 32 35 35 36 38 36 39 38 52 101 140 155 162 173 184 195 206 231 241 
32 30 36 34 37 30 37 35 40 40 39 33 37 34 37 39 39 40 45 44 50 50 49 50 48 50 57 52 48 48 48 40 38 37 40 40 40 40 37 40 36 36 37 38 37 35 35 34 34 35 37 36 37 35 46 46 44 44 40 34 33 38 39 36 36 33 35 38 41 51 96 136 155 162 168 175 177 180 217 240 
34 34 37 37 36 33 41 36 42 42 40 38 41 39 41 42 44 46 47 49 50 52 53 54 52 56 57 57 52 51 48 46 41 40 40 43 39 40 40 41 38 38 39 42 40 38 38 34 35 35 37 37 36 42 50 63 79 63 51 39 38 40 37 42 39 38 39 41 39 49 92 134 152 162 166 172 169 163 213 241 
40 40 43 40 39 35 46 40 42 44 42 38 42 41 45 49 48 49 50 53 55 59 60 59 60 61 64 63 58 58 52 47 39 43 44 47 44 45 43 42 42 41 42 40 38 42 37 37 36 40 42 41 42 47 77 196 167 104 63 43 42 39 38 41 41 39 42 42 45 50 90 132 156 164 169 179 178 191 229 240 
44 43 45 49 44 39 50 41 44 47 47 43 42 46 46 48 52 52 54 56 58 62 65 65 64 63 66 62 58 58 55 48 41 43 47 47 48 41 44 42 39 39 46 39 42 41 40 38 38 39 41 43 44 48 95 240 182 105 59 46 40 41 42 38 35 39 42 42 46 51 88 127 151 163 171 176 190 202 226 243 
47 47 51 50 46 46 49 49 51 48 51 43 45 44 51 52 55 54 57 61 66 65 64 66 68 69 75 68 61 59 57 50 44 43 47 49 48 45 41 40 42 40 42 42 45 42 41 40 39 41 38 39 41 46 60 96 93 71 54 43 39 41 42 39 40 38 41 40 44 46 84 124 153 167 164 175 186 201 222 231 
52 55 57 55 53 50 57 51 52 52 51 48 49 52 54 57 56 57 61 65 67 71 76 78 77 76 81 76 66 62 57 53 47 49 48 49 47 42 38 44 44 45 46 43 46 47 40 43 41 40 44 46 43 43 47 55 56 53 47 43 44 43 41 40 40 37 43 41 43 49 81 125 150 161 171 181 191 201 224 225 
71 72 70 56 55 51 60 53 55 49 53 50 53 55 55 58 58 59 65 68 72 73 75 82 82 82 83 79 65 62 58 56 47 50 50 52 51 50 57 71 49 48 52 48 48 48 46 43 42 44 44 44 44 47 43 47 49 46 48 42 43 40 37 40 38 40 42 38 41 42 73 132 149 165 171 179 194 200 223 228 


