P2
80 60
253
14 20 18 27 38 46 77 93 68 46 58 91 85 43 40 34 32 26 26 25 26 25 23 20 25 23 22 27 26 33 33 30 29 27 29 27 29 22 25 23 24 25 27 23 26 23 26 26 24 19 17 17 17 17 14 15 14 16 17 13 14 15 20 20 18 16 20 18 21 21 19 22 21 16 18 14 12 13 12 17 
17 17 20 24 35 46 86 98 67 44 63 91 82 42 37 33 32 29 29 26 25 25 28 26 24 22 25 29 28 31 33 30 29 28 27 26 26 24 25 26 19 23 25 24 23 25 28 27 24 18 15 16 15 16 16 16 17 15 16 17 15 13 17 19 20 18 17 21 24 23 20 23 18 15 17 11 13 10 5 11 
17 22 21 26 37 46 89 94 62 44 68 91 78 40 38 33 30 25 29 26 25 22 22 26 22 25 31 28 27 30 31 33 28 25 26 29 26 25 24 26 20 26 25 24 23 28 27 24 28 21 18 16 22 17 16 19 19 18 18 20 21 23 25 24 24 13 15 17 21 22 17 21 15 18 19 18 14 10 6 5 
21 20 21 29 39 50 95 95 53 42 75 89 71 38 32 29 31 30 28 27 27 24 23 26 23 28 30 27 28 31 33 29 28 25 26 24 25 25 22 23 22 24 24 24 25 28 27 26 27 22 20 21 27 24 22 24 25 24 26 26 23 27 25 30 27 19 15 16 21 19 17 21 17 15 20 17 18 8 6 12 
17 20 20 29 37 56 106 96 53 43 78 87 58 32 31 27 25 27 28 26 23 19 25 23 26 26 27 29 32 32 34 30 26 25 25 24 23 21 22 21 24 24 24 23 26 26 28 28 27 27 28 24 24 28 27 29 24 28 26 27 25 25 27 27 23 20 20 16 22 22 18 20 18 17 17 15 18 5 6 7 
17 18 20 29 36 69 100 85 50 45 84 86 59 31 29 26 28 23 23 20 25 23 28 27 24 25 28 28 29 32 30 30 27 26 25 28 26 22 21 22 18 20 21 26 26 26 24 26 26 27 28 25 30 28 25 26 26 28 27 26 24 28 24 24 21 20 16 17 24 20 21 20 19 19 21 17 17 5 6 6 
16 21 24 34 37 67 103 85 43 49 88 82 52 28 27 25 23 25 26 26 24 23 23 25 25 29 25 27 28 33 35 30 27 26 25 25 27 25 26 21 24 23 21 24 28 25 28 31 27 27 29 28 26 26 28 28 23 24 28 25 23 25 22 24 24 20 17 19 23 21 20 21 17 22 21 16 16 4 6 6 
12 16 19 29 35 68 99 76 40 45 83 83 42 26 25 22 24 21 22 23 24 22 20 20 24 25 25 24 24 28 31 29 29 24 24 25 23 22 22 21 23 25 23 21 25 24 23 23 27 25 27 21 25 29 25 22 22 25 28 21 22 23 22 25 25 21 17 16 20 23 21 18 18 19 20 13 7 6 7 6 
6 9 11 28 28 66 103 75 37 47 92 84 41 25 21 23 23 22 21 21 24 23 21 22 23 23 24 24 27 29 32 29 26 25 24 24 24 23 23 19 22 23 23 26 24 25 30 28 26 28 25 24 27 24 24 26 24 25 25 27 25 25 27 26 25 26 22 16 22 22 21 23 20 19 21 14 7 10 9 11 
9 1 2 0 12 72 100 69 28 48 99 81 40 23 22 21 20 18 17 20 22 23 21 22 23 24 28 26 26 28 30 29 25 27 28 24 25 23 22 21 25 25 25 26 26 28 30 29 26 26 23 23 24 27 25 23 26 26 26 29 26 27 28 25 26 26 20 18 21 23 22 20 20 22 22 16 9 12 10 12 
10 12 9 2 13 77 98 62 20 52 104 86 25 14 11 13 15 18 19 17 17 17 17 20 20 23 22 25 22 25 30 30 23 29 24 23 23 23 23 23 22 22 24 25 25 27 28 26 22 26 23 23 23 23 24 24 26 28 29 29 29 26 27 25 27 25 21 14 22 24 24 21 22 19 19 14 11 9 10 10 
14 16 17 15 22 86 102 61 22 60 103 76 19 10 8 11 9 11 12 14 17 19 17 18 20 22 21 23 24 25 30 27 25 22 21 26 23 23 19 22 20 25 22 23 25 25 27 26 24 22 25 24 27 27 27 25 27 29 29 32 26 29 26 30 26 26 22 20 19 21 22 22 20 20 22 15 11 11 9 16 
15 15 15 15 19 83 95 58 20 63 105 69 14 9 7 9 8 7 8 8 5 8 5 7 12 17 17 14 21 21 24 21 24 22 21 22 22 20 23 26 21 25 24 24 25 24 24 21 21 24 23 26 24 26 29 27 28 25 28 23 26 28 26 27 23 28 23 20 17 19 23 23 19 20 20 16 18 9 11 9 
13 18 15 16 24 88 89 49 28 72 104 66 17 11 13 9 12 8 12 7 9 5 5 9 7 7 7 13 11 11 10 11 19 21 21 20 21 21 24 24 21 24 23 24 25 24 27 26 25 29 26 26 27 29 29 29 27 26 26 29 27 25 26 28 24 28 24 20 18 23 21 24 25 19 21 18 14 8 10 9 
13 15 14 18 34 87 85 46 25 79 102 58 18 12 13 10 14 9 9 9 4 4 6 7 8 8 8 9 9 10 10 8 6 7 3 15 18 19 23 20 22 21 25 24 26 26 24 30 26 27 28 28 29 30 30 30 27 28 28 27 29 29 25 28 27 27 27 18 16 19 21 24 24 21 23 20 17 8 11 14 
11 14 11 17 38 91 83 38 27 81 97 53 18 10 12 13 12 9 14 7 9 7 7 8 8 9 8 5 6 11 9 11 8 2 3 15 16 18 19 21 20 22 22 26 25 26 28 26 29 27 29 30 29 31 29 27 29 28 30 27 28 28 26 24 27 29 28 18 15 19 24 22 23 23 24 20 20 11 9 9 
15 14 14 17 45 95 81 35 23 84 91 48 15 11 15 14 14 11 9 12 11 9 7 7 6 10 9 7 11 10 11 8 11 16 20 21 23 23 23 17 19 21 21 23 24 24 28 23 26 30 28 26 31 28 29 29 27 29 28 29 27 26 29 25 26 27 30 20 16 17 22 21 22 23 24 19 21 14 11 12 
12 13 17 18 49 96 81 33 26 89 95 46 19 16 17 16 17 14 14 10 12 10 11 10 7 11 11 9 11 11 14 19 23 26 25 24 26 22 26 21 21 23 24 24 29 26 30 31 29 29 30 30 32 32 31 29 30 30 30 29 29 28 28 28 28 28 30 22 17 18 22 23 25 21 27 22 20 17 13 13 
13 15 18 18 50 93 71 32 28 88 87 43 13 11 15 15 12 13 15 12 12 10 10 9 10 12 8 12 11 14 20 25 23 23 22 21 20 22 23 21 22 21 26 24 26 25 26 25 25 27 29 28 30 28 31 27 29 29 30 25 30 29 28 29 27 27 30 25 18 14 18 19 22 21 24 20 19 19 18 17 
18 17 16 20 56 92 76 29 29 89 86 39 15 14 14 13 17 15 13 13 11 13 10 12 14 10 12 11 11 15 22 26 25 22 22 20 23 21 23 23 21 23 21 25 25 28 25 24 28 28 32 29 29 31 29 27 27 30 27 29 30 28 24 26 29 26 31 25 17 11 18 22 25 23 21 17 21 20 17 14 
20 22 20 23 69 98 76 31 33 99 85 39 17 14 16 14 16 15 12 13 14 13 8 12 12 16 11 14 13 15 21 26 25 24 21 21 23 24 21 19 22 22 26 26 25 27 26 27 27 27 31 29 28 28 27 26 28 26 27 29 29 32 29 30 29 28 32 27 22 12 18 23 25 23 23 22 18 22 16 21 
43 36 33 36 86 107 75 27 38 99 84 36 15 14 16 13 16 18 14 10 14 14 9 10 11 10 12 11 12 14 17 23 24 22 20 24 21 21 21 22 24 22 24 26 25 27 25 29 31 26 29 26 27 31 31 27 28 28 27 27 30 30 29 33 30 30 31 28 26 15 11 21 21 21 21 21 21 18 15 17 
100 98 90 92 109 106 61 25 45 99 82 32 16 13 14 14 13 14 15 14 16 10 10 10 9 10 13 13 15 16 15 23 22 21 22 19 22 21 20 18 21 24 26 26 27 28 26 25 26 29 33 29 28 27 30 26 28 28 26 27 29 27 30 31 27 30 29 28 25 18 8 16 22 21 22 24 23 18 17 20 
99 100 97 102 99 90 52 30 52 98 83 27 15 10 13 14 12 14 14 15 15 12 12 12 11 10 13 14 11 14 15 20 23 21 21 25 23 21 22 22 22 23 23 27 29 28 28 24 31 28 29 28 29 30 28 26 28 30 29 29 27 26 29 30 30 29 29 31 28 23 12 13 17 21 23 23 19 20 14 14 
55 64 70 79 76 63 34 30 57 106 85 31 18 14 17 18 18 20 15 16 12 13 13 16 15 12 14 13 17 15 20 20 26 24 24 26 26 20 24 23 25 27 27 27 27 29 28 29 28 31 29 29 28 31 27 26 28 28 29 28 29 29 31 31 30 31 30 28 27 28 20 15 17 15 22 19 17 20 17 16 
32 27 25 31 31 28 28 29 61 110 87 33 17 18 18 17 19 17 16 16 14 16 14 16 15 15 19 16 16 17 18 24 25 27 22 23 24 22 28 26 27 27 27 32 29 27 28 30 31 34 32 29 29 30 31 30 29 31 29 30 30 30 31 32 31 30 31 32 30 29 26 23 16 13 16 15 14 18 19 14 
44 41 31 29 24 24 26 35 72 114 86 28 16 19 21 16 16 16 18 15 14 15 16 16 14 17 16 14 14 16 19 25 24 24 24 22 24 26 24 26 25 27 28 26 25 27 27 28 26 29 32 32 30 34 31 30 27 34 30 29 29 33 30 33 29 30 29 30 30 27 28 26 24 17 14 13 11 11 12 10 
105 102 93 84 71 69 65 62 93 122 87 29 17 16 17 16 18 14 19 17 15 15 15 15 17 17 17 18 15 13 16 26 23 24 22 25 28 25 27 28 25 26 27 27 26 29 29 31 28 30 30 27 31 28 32 30 29 31 29 27 30 30 30 30 30 29 34 27 29 29 24 27 29 24 24 22 20 17 17 16 
101 106 104 101 97 96 94 96 105 105 75 23 18 17 17 19 19 19 20 18 18 20 15 14 16 17 17 19 17 17 15 22 25 24 27 26 25 25 26 28 25 27 25 27 29 25 27 29 29 29 29 33 30 28 30 28 27 32 28 27 26 27 30 29 29 31 32 30 32 29 28 29 28 24 25 25 24 19 23 20 
60 63 72 78 79 87 90 91 92 89 59 16 17 18 15 16 17 17 17 20 18 16 16 17 20 20 21 18 16 15 19 23 26 25 28 27 27 26 32 29 30 28 26 27 30 27 28 30 26 29 29 32 28 30 30 29 29 29 29 29 28 27 29 29 31 32 33 32 31 29 29 29 28 27 28 22 21 24 22 19 
24 27 28 26 27 35 41 45 46 43 27 18 17 18 19 19 20 18 17 20 16 20 16 20 16 20 19 21 19 16 19 22 26 27 22 26 27 26 24 26 25 26 32 26 28 29 27 28 29 29 28 29 27 30 30 30 30 30 29 32 31 32 29 33 29 31 31 32 31 28 27 31 27 26 26 21 23 21 22 24 
21 22 19 23 21 20 26 25 26 25 25 18 17 17 18 21 19 21 21 21 21 19 17 22 18 22 18 20 23 18 18 24 29 27 25 25 26 26 28 28 28 31 30 29 28 28 27 30 30 32 29 30 31 33 33 29 29 30 31 29 28 31 32 32 28 29 33 28 31 29 27 30 28 28 27 24 22 20 22 19 
20 22 21 21 21 19 24 23 22 26 22 15 17 19 21 21 24 19 20 20 22 20 17 19 19 23 20 22 21 17 19 24 28 26 28 27 26 26 26 28 28 28 29 29 26 29 29 27 28 31 30 29 31 28 31 29 27 30 29 34 32 30 29 31 29 32 31 32 31 28 30 27 30 29 26 24 26 22 24 21 
20 21 19 23 20 17 23 23 22 27 24 16 17 20 23 20 22 23 22 20 23 22 22 22 20 21 23 22 24 21 21 29 30 27 26 27 27 29 25 27 30 31 31 30 30 29 30 29 30 31 33 30 31 32 35 34 29 32 31 32 30 34 31 34 33 34 34 35 34 30 29 29 33 33 33 22 24 27 24 21 
21 26 17 18 20 20 21 25 24 25 24 19 19 20 21 22 23 25 22 23 22 21 23 23 22 24 26 20 23 19 21 25 27 25 27 27 30 25 25 27 28 28 26 32 30 30 27 27 29 31 30 31 32 34 30 30 31 32 30 34 30 30 30 32 35 31 35 33 33 32 27 32 29 30 28 23 21 24 25 22 
22 24 22 22 20 23 25 22 24 24 22 19 21 23 23 23 23 26 24 22 23 23 25 26 23 24 23 23 26 19 20 27 28 27 29 31 31 27 25 26 27 31 29 27 31 30 31 31 32 30 31 31 34 32 31 30 27 34 30 31 33 30 33 32 35 33 37 33 33 32 27 32 29 30 32 26 26 27 28 25 
21 23 23 23 24 22 23 25 24 28 24 20 20 21 21 22 21 23 25 25 22 24 25 29 24 25 26 22 24 23 21 28 29 31 29 30 30 26 29 28 30 29 30 27 29 32 32 32 33 32 33 31 35 32 34 32 33 34 32 33 31 33 33 34 34 31 33 34 31 32 31 30 30 31 32 25 25 26 28 28 
22 21 25 23 22 20 23 22 26 26 23 21 20 22 25 22 23 27 25 26 27 26 22 25 25 26 28 27 28 24 22 26 31 31 28 28 29 28 28 29 30 30 31 30 29 32 32 32 33 33 33 31 31 33 34 29 34 32 34 29 30 31 32 30 32 31 34 36 33 30 28 29 31 29 30 27 29 26 31 29 
20 21 23 19 18 23 24 22 29 26 22 16 20 21 25 23 27 26 27 27 25 24 26 26 24 28 26 28 29 26 22 26 28 29 32 30 31 27 28 28 29 33 28 28 33 31 30 34 33 29 30 33 33 30 30 30 32 32 31 28 29 30 30 34 32 33 31 34 33 33 31 29 29 32 30 28 30 33 38 37 
20 20 23 25 20 21 24 24 28 26 22 21 22 22 24 27 27 26 29 23 27 28 25 29 28 29 28 30 27 27 27 27 31 31 28 28 29 30 27 29 28 29 30 32 32 32 33 34 33 31 32 30 34 31 32 31 31 31 30 30 29 32 30 30 30 33 33 35 35 33 29 33 32 32 29 34 46 42 41 40 
22 25 23 24 23 23 23 23 27 25 26 22 23 21 26 27 29 30 32 28 27 27 28 27 29 31 33 30 29 26 27 29 30 30 30 30 31 28 29 29 30 35 33 32 32 34 29 32 32 33 34 29 34 33 35 32 30 34 30 31 31 30 29 33 32 33 35 34 35 33 30 32 34 32 30 28 36 33 42 40 
21 22 23 22 24 21 26 25 27 25 25 21 22 22 25 27 29 28 29 30 30 30 28 34 33 34 31 30 29 29 29 28 33 30 29 31 33 28 33 31 32 32 31 34 32 33 32 34 33 29 31 32 34 35 30 32 30 31 33 29 30 32 29 33 32 35 34 33 33 33 32 34 34 34 33 33 35 34 41 35 
23 23 23 23 24 26 25 26 24 28 26 22 25 28 28 28 29 29 28 29 29 28 30 29 31 34 29 33 31 30 25 26 32 31 29 32 33 30 29 30 32 30 32 30 30 30 30 32 31 29 33 32 34 31 29 28 28 33 30 29 30 31 30 31 32 33 35 33 33 33 34 34 36 37 34 34 36 34 35 32 
21 20 22 21 23 24 28 32 29 29 22 23 23 27 26 28 28 29 32 32 29 33 33 34 30 35 33 31 31 30 29 29 32 31 29 32 33 29 34 29 32 32 30 31 29 30 29 30 29 33 32 30 32 32 29 25 26 30 29 29 27 33 31 31 30 31 35 37 34 35 34 40 41 44 51 55 64 79 95 106 
20 23 21 28 21 22 26 31 28 30 26 22 24 27 25 28 29 31 35 33 34 30 34 33 37 34 31 30 28 29 28 27 32 32 31 32 33 30 30 26 32 31 29 32 30 32 29 29 31 31 31 27 30 31 29 29 28 32 29 30 31 31 31 32 30 32 37 34 35 44 63 79 88 104 113 119 132 145 168 188 
26 23 26 23 25 25 28 28 25 28 26 26 26 29 28 27 29 35 33 37 33 34 37 38 37 36 33 30 29 31 30 30 32 30 31 32 32 33 30 31 31 33 27 29 33 32 33 33 32 32 31 31 31 29 28 27 25 32 30 29 33 30 36 33 36 35 37 38 38 64 103 123 129 136 149 154 165 181 202 223 
21 27 23 25 24 26 29 27 24 29 25 25 28 29 31 28 31 35 36 36 35 38 37 36 33 35 33 32 31 33 30 23 28 33 30 34 34 32 31 33 31 34 31 32 33 33 31 32 28 32 31 32 31 28 30 28 28 29 31 32 31 33 34 37 31 36 39 37 40 72 114 146 155 161 175 182 198 214 234 239 
21 24 23 23 26 29 30 29 23 33 29 26 29 30 26 30 34 31 37 35 37 38 36 38 36 40 41 40 36 37 36 35 28 31 33 37 33 30 33 32 31 34 30 32 32 32 30 32 30 30 33 31 29 30 31 28 28 32 30 31 31 33 32 35 32 34 37 38 38 67 116 150 162 173 179 193 202 222 243 246 
24 26 26 30 23 28 32 30 26 32 26 27 28 29 29 32 35 35 37 36 37 36 37 40 41 45 44 46 42 42 39 38 30 32 34 37 32 33 36 35 34 35 35 32 33 30 31 33 30 34 33 34 32 28 29 30 30 32 32 29 31 36 33 35 30 34 39 38 39 64 112 148 163 176 184 191 205 220 240 253 
24 23 28 28 24 25 30 28 25 33 31 25 27 32 30 34 36 36 37 36 37 40 36 39 38 44 49 46 43 42 41 37 31 34 37 33 33 34 32 33 33 37 34 34 33 34 31 32 30 33 31 32 32 30 30 29 32 30 32 30 32 34 33 34 33 32 39 37 41 60 108 142 164 169 182 189 196 217 239 243 
29 28 26 30 29 29 30 29 29 36 32 28 30 33 33 35 36 38 40 39 40 41 40 43 41 44 48 50 41 45 43 39 35 31 35 39 34 35 36 35 36 36 38 34 33 33 30 35 28 33 31 32 34 31 31 32 31 32 36 31 34 33 35 33 38 38 36 37 39 56 105 139 156 168 177 186 196 210 234 246 
28 28 30 31 25 30 28 30 33 39 38 31 32 29 36 38 37 38 40 42 41 43 41 43 44 48 50 47 45 45 44 40 33 33 36 39 38 36 35 39 34 36 35 34 36 37 31 33 34 31 31 32 34 33 36 34 36 34 35 32 34 34 33 35 37 36 39 36 44 53 99 133 155 166 176 185 195 212 236 240 
29 31 34 32 31 32 34 36 34 37 34 32 30 35 40 36 38 40 41 45 47 45 45 44 46 50 53 50 48 43 44 40 35 33 38 39 38 37 35 34 39 37 34 35 35 33 33 34 33 36 35 34 37 34 40 42 37 34 38 35 35 33 36 35 36 37 39 36 40 51 99 138 151 165 176 182 198 208 232 236 
32 31 31 33 32 34 34 36 34 41 39 32 37 34 35 38 39 41 44 46 47 45 45 48 48 52 55 51 46 45 48 39 35 37 39 39 41 40 37 38 34 38 35 35 38 35 35 34 31 33 34 35 38 38 45 48 42 41 38 32 32 33 35 35 37 33 37 38 39 52 95 132 149 163 169 175 180 180 217 237 
35 35 35 34 33 39 38 37 39 42 40 37 38 41 39 41 44 45 46 50 50 50 52 55 53 58 54 54 52 51 48 46 42 37 39 42 41 40 41 39 37 38 35 37 40 37 38 32 35 37 39 37 38 44 49 65 77 60 51 38 36 36 39 37 36 38 41 41 38 49 93 128 148 164 169 171 167 163 210 239 
39 42 36 40 40 35 45 41 39 46 41 38 38 42 42 46 48 50 51 53 54 56 57 56 58 62 59 60 55 60 56 48 43 41 43 47 44 43 41 42 43 39 40 38 39 37 39 38 37 40 40 39 44 46 79 194 169 104 62 43 40 40 40 38 38 41 43 42 44 50 90 128 151 165 170 176 174 190 226 238 
42 40 41 44 42 45 46 43 43 47 45 39 43 45 44 47 53 53 53 57 61 59 63 62 66 64 64 62 58 60 56 47 42 43 46 49 46 42 45 38 39 40 45 38 42 40 40 40 41 39 42 44 45 49 95 241 181 106 57 45 38 40 39 36 35 42 43 46 46 49 84 129 148 160 169 176 189 204 225 230 
49 43 44 45 45 44 47 48 48 46 49 42 45 45 50 49 55 56 58 63 63 64 64 66 69 70 69 65 62 58 55 50 45 45 48 50 48 44 39 41 41 43 44 40 45 42 40 39 40 41 41 39 45 47 63 96 90 71 52 42 38 35 38 36 38 38 43 41 43 47 83 122 148 164 168 174 186 202 220 226 
52 54 53 53 52 52 58 55 49 53 50 47 50 50 52 54 55 59 60 64 67 70 71 77 79 77 80 75 64 65 57 53 47 45 49 50 49 39 40 43 44 45 45 43 44 44 41 46 43 42 46 43 46 47 47 54 57 53 45 43 39 41 41 38 39 39 39 41 44 46 80 125 149 161 171 179 190 204 218 223 
69 69 65 55 56 53 60 55 51 54 52 50 53 54 55 58 56 60 67 69 73 71 74 79 83 82 82 77 66 65 59 56 48 50 47 51 50 50 56 68 46 48 47 46 46 47 44 43 40 44 46 44 45 48 45 47 50 47 45 42 41 36 38 40 41 40 42 40 42 43 73 129 149 163 172 180 190 201 217 222 


