P2
80 60
736
3 1 2 4 9 9 8 7 11 9 12 16 15 16 16 16 22 20 26 31 30 27 29 28 27 31 31 34 29 33 33 35 37 38 40 42 36 39 42 41 38 33 38 36 34 27 22 19 16 24 33 37 38 34 36 34 31 33 28 31 32 30 23 24 23 18 22 23 21 19 17 11 14 12 10 11 9 4 1 3 
3 1 7 6 11 9 6 10 9 6 17 20 16 19 19 20 21 20 28 30 32 30 31 35 32 37 37 34 33 41 38 41 41 41 47 48 48 44 44 45 43 41 40 45 40 35 35 33 33 37 31 37 38 32 33 31 33 31 31 28 31 29 24 29 23 19 23 23 24 19 19 13 13 11 11 9 8 6 4 0 
4 5 2 8 8 11 8 14 12 11 18 18 21 21 18 21 25 26 32 34 40 39 44 44 45 47 49 48 47 50 50 53 50 51 51 56 53 54 55 54 52 51 53 45 48 46 50 45 44 45 39 35 39 35 32 34 35 33 34 30 32 31 30 29 24 23 23 20 24 21 20 14 15 12 10 8 10 8 3 3 
12 9 8 10 12 12 11 12 14 9 19 22 23 21 25 29 31 34 42 48 56 50 52 55 56 55 52 58 54 57 53 56 59 60 58 60 58 59 58 56 57 53 57 52 51 51 52 48 47 48 46 46 44 40 38 39 36 35 37 36 31 31 30 28 29 24 21 23 22 22 18 17 16 14 10 9 10 4 6 6 
42 21 9 11 12 18 13 12 19 16 22 28 30 35 37 43 48 51 57 63 63 57 61 59 61 66 62 63 57 62 57 58 61 60 63 59 63 63 59 58 59 58 59 57 55 57 60 51 54 57 47 51 50 49 43 46 40 43 40 41 35 38 32 29 31 30 27 21 23 22 22 20 16 14 12 12 10 9 7 7 
108 61 31 14 18 22 14 18 21 25 38 45 50 52 54 56 58 61 64 71 75 65 67 64 68 67 64 69 60 65 63 64 66 69 67 62 62 63 60 62 63 60 59 57 61 57 61 56 57 56 60 54 55 52 53 51 52 50 47 48 45 42 43 41 34 33 33 33 28 30 27 22 20 16 15 20 12 8 10 9 
128 99 66 26 23 23 26 33 38 42 46 55 57 57 61 59 65 67 73 73 74 73 72 73 73 75 72 70 69 72 64 66 70 70 69 67 68 64 69 63 66 65 64 61 59 60 65 61 61 66 60 60 55 58 56 56 49 52 51 55 54 52 52 51 47 43 45 44 41 43 42 32 29 26 22 17 16 12 9 9 
120 95 58 33 35 39 40 46 51 50 52 62 63 63 64 65 65 69 75 81 78 74 73 77 73 75 75 74 71 73 69 74 72 70 70 69 66 71 69 69 66 65 67 64 64 63 66 61 64 67 61 61 59 60 58 58 56 56 58 55 55 60 54 54 54 52 52 53 55 51 51 49 46 43 40 29 24 13 12 10 
60 47 48 38 47 47 48 52 53 54 64 67 65 68 71 70 73 75 80 84 80 79 81 78 75 78 79 75 72 75 71 75 74 73 77 76 75 75 74 69 70 68 71 66 66 68 66 67 67 68 63 62 63 62 63 64 63 63 65 61 65 60 59 65 61 61 61 59 59 65 61 58 60 57 54 45 41 31 20 18 
50 44 46 52 51 54 56 60 59 59 66 74 75 74 74 76 79 78 85 86 86 82 85 83 82 79 80 80 78 77 77 77 80 79 81 74 77 76 76 74 74 73 73 72 69 70 73 69 69 71 70 67 65 69 68 67 65 69 73 71 73 68 68 68 68 68 71 71 72 71 67 66 66 61 59 58 56 47 41 36 
46 50 51 54 55 58 58 63 59 59 66 74 71 73 74 78 79 80 82 85 86 81 87 82 85 84 83 83 80 80 78 78 80 82 80 81 78 79 78 76 78 80 78 73 72 74 75 68 77 73 70 70 71 69 70 73 71 73 71 73 74 74 74 74 75 73 76 73 80 75 74 72 73 68 66 61 61 58 53 47 
49 53 55 56 56 57 62 65 64 63 68 72 72 73 76 78 82 83 86 87 88 84 87 85 87 84 84 83 81 86 80 81 84 80 84 84 81 81 83 79 77 74 77 73 75 75 75 73 77 76 75 76 78 74 75 76 74 76 78 79 78 80 80 78 80 79 81 80 79 77 76 77 76 76 69 66 61 61 57 54 
54 55 58 59 61 64 62 66 63 61 69 73 76 75 78 78 84 82 88 91 88 87 89 87 87 89 87 91 91 92 96 95 97 99 101 97 90 87 86 82 82 81 84 77 76 77 79 79 81 83 80 80 81 79 78 83 81 82 85 85 83 90 85 84 82 83 85 82 86 82 82 82 82 79 73 73 67 61 62 63 
58 56 60 62 65 67 66 68 66 69 71 77 73 81 79 81 82 86 90 93 91 91 92 94 96 98 103 111 119 134 144 146 150 150 141 134 123 110 102 94 94 86 89 81 79 82 87 84 86 88 89 86 89 88 85 89 88 91 87 92 92 93 92 89 90 89 89 89 87 86 81 84 83 80 74 72 69 65 65 69 
60 60 61 60 66 68 64 67 66 71 76 80 78 77 78 83 83 85 88 94 92 91 100 112 120 134 158 178 188 190 192 192 193 200 196 190 178 164 151 127 111 99 96 87 85 87 90 89 88 94 92 92 93 91 91 93 90 95 96 96 99 99 97 95 91 90 91 92 89 88 85 85 85 81 78 76 71 75 69 71 
57 63 57 63 64 67 64 71 70 68 76 78 77 80 80 83 86 89 91 94 100 101 127 153 183 199 214 219 215 221 220 224 226 228 222 220 209 199 195 180 161 135 119 97 97 93 95 93 94 94 93 97 96 97 95 97 96 99 97 100 101 99 95 95 92 94 93 91 89 90 86 88 87 81 81 79 76 74 68 72 
57 61 64 63 65 68 66 71 71 73 80 79 82 81 82 85 86 88 93 100 123 147 188 211 222 233 242 257 268 279 284 289 290 292 279 265 251 233 223 205 198 183 164 131 113 100 98 99 100 102 98 105 102 101 101 102 99 102 101 102 102 100 99 98 95 99 98 94 94 93 91 90 88 85 81 80 80 74 71 71 
59 64 65 64 67 71 68 71 73 71 79 79 81 82 88 85 90 89 104 128 172 207 230 244 260 283 310 333 353 384 390 407 409 409 385 374 333 303 268 244 222 204 197 172 150 117 111 105 105 109 103 106 107 106 106 105 102 105 107 105 105 103 101 101 101 96 100 95 92 96 95 89 91 86 84 79 80 76 75 80 
57 59 61 60 65 65 71 71 69 72 76 80 78 76 84 84 92 99 127 181 224 237 261 291 330 377 426 455 492 504 514 549 517 522 513 500 468 431 368 320 274 240 216 199 188 158 132 111 110 109 112 113 113 112 108 107 106 107 106 105 109 103 105 101 102 98 98 97 97 95 91 92 91 87 82 86 84 78 76 79 
59 62 60 63 69 68 65 73 69 71 79 83 83 84 87 88 98 125 183 229 253 276 324 383 445 507 539 561 599 585 616 609 576 584 576 574 573 563 482 431 376 311 262 223 206 192 167 127 117 119 114 115 115 112 110 109 106 110 108 109 110 108 106 102 103 102 102 99 99 99 95 95 92 88 86 83 89 85 76 78 
60 64 63 65 66 70 70 71 72 73 82 84 85 84 89 94 123 177 227 257 291 343 430 503 554 592 637 617 637 626 630 607 643 624 614 624 583 588 556 574 515 420 341 272 234 209 198 159 127 123 119 118 116 115 112 111 113 111 111 109 110 109 109 108 105 105 105 100 98 100 102 96 94 94 90 89 89 85 83 78 
62 64 64 64 69 70 69 72 73 76 82 85 87 87 91 112 160 225 256 302 366 448 527 590 661 633 645 616 637 640 643 640 648 640 632 616 609 628 575 590 560 520 462 357 285 235 210 195 155 129 121 120 119 119 116 117 114 113 112 112 112 111 113 108 109 109 107 105 103 103 102 96 96 94 94 87 86 86 83 80 
64 64 65 63 69 69 69 71 73 72 83 82 87 87 102 145 211 251 290 366 472 573 608 638 659 646 652 639 640 655 641 651 644 632 639 626 606 605 595 628 600 591 547 461 369 275 234 212 198 146 126 120 119 116 116 115 115 118 113 113 117 114 114 112 108 109 108 106 104 103 105 102 98 92 92 89 87 85 85 83 
60 64 62 61 69 69 70 69 76 74 85 85 85 94 127 189 243 281 348 468 562 620 651 658 665 666 658 649 647 647 649 647 635 638 635 624 626 636 616 619 621 620 613 562 466 354 269 226 217 179 130 125 121 119 115 119 117 117 115 115 116 114 115 116 114 116 115 112 108 105 106 102 100 96 95 94 94 89 89 85 
63 68 67 64 70 71 74 75 75 76 84 86 86 111 155 226 267 322 428 550 620 647 663 673 679 686 679 662 654 653 653 644 622 628 621 620 625 632 632 623 626 618 618 588 533 447 332 252 224 210 145 125 123 121 120 120 121 118 118 116 118 114 117 116 116 120 120 116 113 111 111 106 105 105 102 96 98 93 92 88 
64 64 67 64 70 72 76 76 73 75 84 88 91 132 192 254 292 374 506 606 650 656 671 682 697 718 716 699 675 659 644 635 632 627 629 619 620 618 627 629 634 634 611 602 582 531 416 293 235 211 163 132 127 125 122 123 125 124 120 117 117 119 118 117 121 121 117 117 116 113 114 113 109 109 102 102 102 97 95 91 
69 66 65 63 67 70 74 74 73 76 85 91 104 151 223 274 327 441 564 638 665 672 682 695 719 735 731 723 685 654 637 626 630 622 623 623 615 621 616 627 628 625 624 614 617 592 486 360 264 225 203 149 129 127 122 121 125 120 122 118 118 119 117 114 116 118 120 119 116 115 115 112 108 109 107 107 105 104 97 93 
66 67 65 64 68 71 71 74 74 76 85 95 116 173 247 292 377 502 602 656 676 685 706 718 728 731 731 722 692 651 625 636 620 627 624 622 618 606 607 614 629 632 640 634 638 614 538 410 293 252 225 166 135 130 123 123 120 120 120 119 122 118 114 113 117 115 118 119 117 120 114 115 110 108 107 109 108 106 100 107 
61 62 63 62 67 72 70 75 73 75 87 98 129 196 266 314 420 546 635 663 681 703 729 725 721 722 723 717 699 668 643 621 619 616 617 613 614 598 591 599 617 626 640 635 640 616 600 459 333 269 240 187 145 131 124 126 123 126 124 126 122 120 114 114 120 118 119 119 118 116 113 113 112 111 110 110 110 107 107 108 
61 61 66 64 66 72 70 74 75 77 89 103 143 215 280 336 454 570 647 677 700 718 734 723 713 718 717 716 712 693 646 623 622 603 607 605 607 604 593 592 605 621 641 636 637 624 596 504 376 287 256 212 151 133 131 128 128 127 126 122 124 119 115 113 121 119 119 118 119 116 115 114 115 109 109 105 112 108 104 105 
62 62 64 65 69 71 73 76 80 80 89 107 151 235 295 358 489 604 665 689 728 732 734 719 718 717 722 728 724 714 672 631 619 610 607 600 592 601 601 605 603 621 647 643 640 631 608 544 417 311 275 236 163 142 129 132 133 129 127 122 121 118 116 114 120 118 120 120 117 119 115 112 110 110 110 111 109 110 105 103 
61 62 64 67 71 74 74 81 81 83 92 111 155 247 306 388 536 637 668 702 726 726 732 722 719 725 725 728 724 717 695 660 626 606 609 602 591 589 596 599 606 614 628 640 636 636 628 568 454 333 279 246 175 145 135 133 128 126 128 124 124 117 119 121 122 120 119 118 121 116 115 118 115 113 114 111 112 109 105 105 
59 64 66 65 71 74 76 78 83 81 91 112 163 251 312 395 527 619 669 710 730 731 728 721 724 730 729 725 712 711 704 685 635 606 596 601 588 584 586 597 605 606 623 625 635 632 633 576 478 346 291 251 178 149 131 133 131 129 125 123 125 120 117 121 120 120 121 116 120 121 117 113 115 112 112 109 109 108 109 108 
62 67 66 71 71 75 73 81 81 82 91 116 169 258 323 401 538 624 665 708 730 736 730 727 731 734 728 720 704 708 702 693 644 601 592 586 588 588 592 592 598 597 609 620 635 632 626 583 483 361 295 253 185 149 136 133 128 125 128 129 129 122 123 121 125 122 123 120 121 121 114 116 116 116 113 111 107 111 107 110 
64 67 70 69 75 75 76 80 84 84 92 117 171 259 331 407 550 649 660 700 734 733 722 723 730 729 723 714 700 699 695 692 646 628 599 621 585 586 593 592 596 599 615 617 617 627 617 569 477 354 297 251 184 152 133 132 128 129 129 130 130 124 120 120 126 124 123 120 120 118 117 116 114 114 113 109 109 110 108 109 
63 70 67 66 72 72 77 81 82 85 93 117 165 249 329 405 541 639 661 691 729 722 714 728 724 724 717 707 694 689 696 692 671 631 596 588 580 563 580 578 593 596 612 599 619 616 622 564 465 346 294 246 180 147 135 131 133 130 132 131 127 125 118 124 124 123 124 119 120 117 117 115 113 116 111 111 112 110 107 111 
66 69 70 69 72 75 76 79 85 86 95 112 163 237 332 396 512 603 652 687 719 718 718 723 723 716 711 699 690 704 704 697 693 660 623 594 573 568 604 570 595 600 606 611 619 617 602 557 448 339 293 235 177 148 134 135 134 135 133 126 123 120 120 124 124 123 126 123 120 117 120 114 116 114 111 112 117 110 108 106 
66 66 66 69 75 76 79 81 84 87 96 113 147 216 316 387 498 604 649 689 708 712 724 722 716 715 701 689 702 715 707 699 696 682 647 613 580 583 578 582 595 603 609 607 616 620 593 519 417 324 281 214 169 145 131 135 135 137 134 130 122 122 121 124 127 122 127 122 120 118 119 115 116 114 113 112 112 109 108 112 
68 66 66 71 76 80 84 86 90 89 97 111 137 204 303 381 466 589 637 668 693 708 722 719 716 711 701 696 709 714 706 697 692 688 677 627 590 596 585 606 614 600 601 605 607 600 562 497 379 313 266 198 159 137 135 136 134 134 132 129 120 118 117 125 128 124 125 124 124 119 118 118 117 119 113 111 115 113 108 112 
65 65 71 73 76 82 83 86 90 92 97 111 122 185 272 363 438 555 616 670 674 697 718 723 719 715 704 706 712 713 707 701 700 691 693 668 626 611 590 578 592 585 594 594 608 594 553 458 347 301 247 184 150 139 134 139 133 136 129 127 120 120 121 125 123 120 125 124 121 120 118 116 115 117 117 116 117 115 115 112 
71 73 73 74 81 84 85 88 94 91 103 110 119 168 232 341 400 500 587 641 670 683 709 718 719 714 703 706 706 712 702 701 703 700 705 693 659 624 592 579 586 591 601 601 600 580 538 410 323 291 221 173 147 134 136 141 137 133 129 128 124 123 122 122 125 123 122 124 122 120 118 118 120 118 117 117 116 113 116 112 
75 70 71 77 78 85 85 92 92 93 103 111 115 144 195 296 375 452 549 628 658 669 705 719 723 713 704 698 695 700 696 695 701 706 704 686 684 653 613 592 586 595 592 602 590 555 475 360 304 267 192 157 140 135 139 135 134 128 130 124 125 124 122 123 125 121 122 124 121 121 121 118 114 117 116 110 117 113 108 113 
82 78 72 75 79 82 86 91 91 96 104 110 112 129 175 241 345 412 501 583 642 667 697 716 719 710 704 692 691 696 687 681 693 697 695 696 697 680 629 635 612 606 612 605 580 511 407 322 289 224 172 144 136 135 136 128 130 129 128 127 125 124 124 122 122 123 124 121 120 117 117 117 119 115 113 115 120 111 109 109 
83 79 74 75 79 84 88 93 96 96 104 113 112 123 148 205 287 378 444 539 611 652 689 710 716 715 711 700 696 690 687 682 696 700 713 713 715 700 647 626 618 620 619 598 545 446 352 303 250 189 155 137 131 129 129 131 129 125 125 125 121 123 125 122 122 119 122 123 120 118 120 117 121 117 113 116 114 112 111 108 
85 82 80 78 81 86 87 94 98 98 103 111 112 120 134 170 222 320 395 469 553 612 663 689 697 712 717 707 698 698 692 694 712 723 729 725 726 705 654 629 624 619 609 562 468 371 319 272 200 167 144 135 131 129 129 130 127 127 127 128 127 122 122 127 121 120 120 122 121 120 119 118 118 116 114 116 113 116 110 111 
84 84 84 79 84 87 87 92 97 96 101 109 111 121 123 141 188 239 348 415 473 553 630 656 672 686 696 699 697 701 697 707 724 731 732 730 722 690 656 637 624 615 575 480 386 326 286 204 166 147 137 129 128 128 127 126 130 129 128 128 126 126 123 124 125 119 123 127 120 122 118 119 119 116 116 114 115 113 112 109 
83 84 86 83 83 85 87 92 96 95 105 109 111 119 120 125 149 194 253 356 413 468 535 590 630 656 668 674 679 695 701 704 712 719 721 710 685 664 648 629 607 552 477 385 336 288 214 165 148 135 132 126 129 129 132 127 130 132 132 125 125 122 125 123 121 121 122 120 118 120 116 117 118 114 111 111 112 112 106 112 
81 81 83 86 88 89 89 92 94 95 103 108 110 114 118 120 136 151 195 249 342 399 445 499 555 607 631 646 654 669 676 677 675 678 673 673 650 636 616 596 538 445 381 331 284 209 176 150 142 136 135 132 130 131 128 131 132 134 129 127 124 123 122 122 123 118 120 121 119 118 116 117 119 118 113 112 112 108 109 111 
76 75 82 84 85 84 86 87 91 93 101 109 108 113 114 125 128 134 154 195 234 310 379 416 452 508 563 581 613 622 635 630 629 633 624 617 601 564 525 472 413 361 327 263 196 161 154 137 135 132 132 130 131 130 128 129 130 131 127 122 125 125 125 124 123 119 119 118 116 118 115 117 116 116 114 113 112 111 107 109 
64 67 68 74 76 77 83 88 90 89 102 106 108 108 111 117 120 125 134 151 181 204 258 326 380 409 438 468 492 512 531 546 536 535 522 500 468 430 393 362 338 296 226 172 158 146 143 134 136 136 132 130 130 128 125 128 129 132 125 125 121 125 123 121 121 119 119 119 118 118 117 116 111 114 110 109 111 110 107 105 
59 60 62 70 72 74 78 86 87 90 99 101 107 108 111 114 118 120 126 138 143 156 181 208 245 303 352 376 385 394 402 414 405 411 398 386 363 349 326 288 232 180 167 145 141 136 139 132 131 131 134 130 127 127 124 127 126 125 124 123 125 124 122 121 122 121 121 119 118 116 116 113 114 115 110 107 108 106 106 108 
55 57 58 65 68 71 74 79 86 88 98 104 97 103 107 110 114 116 120 125 132 131 142 160 179 191 212 247 282 312 321 328 325 330 322 304 276 240 198 171 158 146 148 139 134 133 133 129 133 133 128 131 126 126 126 127 129 124 122 123 123 126 121 124 120 120 119 116 121 117 114 113 111 111 112 110 110 108 106 107 
54 54 60 64 68 70 74 80 84 84 94 91 99 104 105 110 112 113 117 124 128 124 129 131 134 148 158 165 173 182 188 190 191 190 182 175 165 156 151 144 142 136 141 132 134 130 130 128 130 135 133 132 129 126 123 127 126 130 124 124 122 125 126 120 122 119 118 117 116 116 114 114 112 111 110 111 110 108 103 107 
52 54 58 59 64 67 71 74 76 84 88 93 95 100 103 106 110 110 113 122 126 119 124 127 128 132 135 134 137 144 144 147 145 150 147 145 139 138 141 137 137 133 136 132 130 128 130 130 133 137 133 127 128 128 124 125 123 129 126 122 125 122 124 119 123 117 120 116 116 115 112 112 111 111 110 108 108 107 107 109 
51 55 54 59 59 64 67 72 76 74 87 94 94 98 97 105 107 110 117 123 118 119 122 124 125 128 125 132 130 138 136 136 137 137 144 138 136 134 134 133 135 131 135 133 129 130 131 130 133 135 132 128 127 128 124 126 128 126 129 124 126 125 124 121 122 119 118 120 117 117 113 112 112 110 111 107 108 105 106 103 
53 53 56 55 61 65 68 70 74 76 82 91 91 93 98 101 107 109 114 120 119 117 120 121 124 125 128 126 129 133 130 133 135 134 139 135 132 132 135 133 134 133 133 129 128 128 131 131 129 129 129 129 127 126 128 129 131 128 128 128 123 125 123 123 122 122 121 120 118 115 113 112 112 112 108 109 107 103 104 107 
51 53 56 57 58 61 62 66 70 78 82 90 89 92 95 99 106 104 113 120 118 117 119 119 124 122 124 125 120 130 127 129 130 132 132 134 131 131 132 128 131 128 130 129 126 131 132 130 130 129 128 128 128 126 131 132 133 129 128 127 127 124 122 120 118 120 118 118 114 116 112 106 104 104 100 99 105 102 101 100 
50 51 52 57 59 60 61 67 67 68 77 85 83 89 89 93 103 104 113 114 119 114 118 120 118 122 122 126 121 125 125 126 128 132 132 131 132 132 128 131 130 125 129 128 124 130 126 129 128 131 128 129 129 133 132 133 135 132 128 127 126 125 120 118 121 118 118 118 115 116 112 104 95 96 94 93 97 93 92 96 
50 49 54 55 58 61 61 65 65 68 77 81 80 83 89 94 101 104 107 113 113 114 118 119 119 122 121 123 119 123 121 125 124 129 132 130 129 129 130 128 131 126 132 127 126 127 128 125 128 132 130 130 129 129 130 132 128 132 126 126 127 121 120 120 116 117 113 114 113 113 110 101 97 91 90 94 92 85 84 90 
49 49 58 57 62 63 62 63 64 67 75 80 80 82 85 91 97 103 112 110 118 120 121 122 124 126 125 127 121 123 124 128 124 126 134 130 132 132 132 129 131 129 134 133 132 134 130 130 134 138 138 136 138 137 131 130 132 133 130 126 127 121 121 114 120 115 116 115 117 113 108 102 85 90 85 89 85 78 79 88 


