P2
80 60
255
46 48 50 41 44 41 41 40 43 40 41 38 32 31 30 31 31 28 29 28 29 28 30 30 25 32 35 34 41 36 33 32 36 37 38 46 39 40 38 38 40 37 40 41 39 43 41 42 43 45 43 41 44 43 46 44 41 43 45 45 39 38 44 40 41 40 39 38 45 47 50 48 43 47 43 47 46 42 39 42 
46 46 46 41 42 41 41 40 41 40 37 37 32 35 28 30 28 33 30 30 31 30 34 28 33 28 38 34 35 39 33 38 41 36 38 44 38 40 36 39 37 37 42 42 37 42 43 44 44 42 42 42 42 45 43 45 44 46 44 42 44 45 44 42 42 43 40 38 40 41 44 45 45 46 45 46 44 46 36 36 
41 47 43 44 41 38 40 37 40 40 38 34 31 32 33 29 27 32 32 26 29 31 31 27 28 33 34 34 36 36 34 37 38 36 39 37 36 36 39 38 38 39 41 41 35 42 42 44 44 44 44 44 41 44 43 40 41 41 45 44 42 41 39 42 39 39 36 39 39 38 42 45 43 44 41 46 46 44 45 43 
45 48 47 44 40 40 38 39 39 38 38 33 30 31 28 27 27 26 28 30 29 30 28 31 29 35 31 31 39 38 31 34 37 35 35 40 37 40 36 38 37 38 45 39 41 42 41 40 42 42 41 43 43 40 38 42 40 40 38 39 41 43 39 41 40 41 39 36 38 38 39 44 41 42 37 46 51 42 47 62 
46 51 45 47 45 42 41 40 40 39 41 31 30 32 31 30 24 26 34 28 30 30 27 29 30 34 32 35 36 40 36 39 39 36 38 41 38 40 39 39 38 38 40 40 37 40 42 43 43 46 46 49 43 43 45 44 44 41 41 41 43 44 41 43 40 42 43 41 42 41 43 43 43 44 42 45 47 72 89 101 
42 48 44 44 42 46 42 39 40 41 38 32 29 30 29 28 29 26 28 30 28 30 26 28 30 30 32 35 37 38 35 37 38 39 40 40 38 42 39 38 39 39 44 38 41 42 44 44 45 44 41 45 43 43 44 45 42 43 45 43 40 43 42 43 42 45 43 42 42 42 44 43 41 38 40 42 70 104 120 127 
42 48 40 45 43 41 45 39 42 38 35 32 30 33 29 28 30 31 26 29 30 29 29 30 29 29 30 32 37 36 36 40 36 35 42 42 37 42 39 39 42 44 47 41 40 40 43 38 43 42 43 46 46 44 44 46 45 43 43 44 43 45 44 41 43 41 39 42 41 43 44 42 40 38 40 53 83 100 112 106 
42 47 43 45 47 42 38 39 37 39 34 34 29 30 29 27 28 30 29 30 30 28 30 29 29 32 32 34 36 38 38 37 36 33 37 41 38 42 40 38 38 43 45 41 39 43 39 41 44 40 41 45 44 41 44 46 45 46 46 44 41 45 43 40 42 40 40 39 41 40 39 42 40 40 47 58 81 95 97 101 
43 47 44 44 44 42 44 40 39 36 35 34 32 33 30 26 29 32 30 31 32 30 30 33 31 32 34 35 37 39 38 41 38 41 39 39 43 43 41 43 47 46 49 45 41 44 44 41 44 43 42 44 46 47 43 46 46 46 42 44 48 41 45 40 44 40 41 45 43 43 40 44 39 42 47 55 78 84 94 96 
44 46 44 45 46 44 43 39 39 35 39 36 28 29 28 28 31 32 31 31 31 32 31 34 34 32 34 37 38 38 37 39 37 36 40 39 41 46 62 73 73 68 63 49 43 45 39 43 43 44 44 42 44 42 41 44 46 45 46 48 45 40 42 43 40 36 42 45 42 45 44 44 43 41 45 53 71 82 87 97 
42 45 46 44 42 43 43 40 40 34 36 30 28 28 31 27 29 28 35 33 29 32 33 35 32 32 34 35 40 36 34 40 36 38 39 40 47 58 88 92 88 89 88 80 59 45 43 40 45 45 43 45 45 45 43 47 50 43 47 45 43 45 41 42 39 41 44 45 42 42 43 45 42 43 44 48 58 74 82 89 
43 50 45 41 46 40 39 38 38 38 38 31 28 28 27 29 29 29 29 29 32 31 30 31 33 34 37 33 39 39 35 41 38 39 38 40 45 70 103 102 94 94 104 100 85 63 48 46 49 42 44 43 46 44 48 47 49 47 46 45 44 43 42 41 42 43 41 43 42 42 42 46 43 39 40 42 48 53 64 76 
45 48 43 43 41 42 38 41 38 35 37 34 28 33 30 28 30 26 28 26 32 28 30 33 32 33 33 33 37 38 37 41 43 40 39 40 47 72 103 107 104 107 109 108 109 91 59 47 49 45 45 43 48 44 50 48 47 45 45 47 47 45 40 42 41 40 40 42 45 42 44 44 42 42 42 44 44 42 41 42 
45 44 42 39 42 41 41 39 37 32 36 30 28 30 29 24 33 29 30 27 28 33 32 33 28 34 29 35 36 36 36 38 35 37 39 40 48 62 97 124 120 107 104 105 107 121 88 59 52 44 44 47 45 48 47 48 50 51 47 47 44 42 44 42 40 40 41 38 39 41 40 43 42 39 42 40 38 37 38 39 
50 47 45 45 41 42 39 39 37 33 34 31 31 27 28 28 29 28 28 28 31 34 33 33 31 34 31 34 39 38 37 42 36 39 40 39 44 47 76 112 116 109 111 116 125 127 122 87 60 49 48 49 44 47 46 48 48 48 48 46 44 43 39 40 39 42 38 40 42 43 43 41 42 40 42 41 38 36 34 40 
53 51 55 51 44 43 43 40 34 33 34 31 28 29 28 25 28 28 30 30 31 32 32 35 32 33 32 34 36 37 36 39 38 35 41 40 39 43 61 98 105 127 132 132 118 115 131 105 68 52 49 47 46 46 46 47 46 50 51 46 42 43 40 38 37 39 42 42 39 41 38 41 39 40 37 38 38 40 38 34 
60 60 63 58 49 46 43 42 38 34 34 32 26 28 27 28 28 27 31 34 29 33 33 32 34 35 35 37 41 37 39 38 38 40 40 40 41 42 43 68 112 127 138 142 120 96 117 125 86 57 51 48 48 46 48 50 48 51 50 48 43 43 39 39 40 42 40 42 41 41 41 42 43 40 41 42 40 42 35 37 
65 65 63 64 57 57 51 46 41 38 32 33 28 29 27 27 28 30 29 35 33 38 35 34 33 35 36 34 40 38 37 38 37 39 37 41 38 46 42 59 89 116 133 129 106 90 118 120 111 65 52 50 46 46 46 49 46 48 46 49 45 42 41 41 41 40 35 38 39 38 39 40 39 37 38 41 39 38 31 34 
71 68 71 68 61 57 57 52 48 42 33 29 27 27 26 27 28 29 30 36 38 37 35 34 33 33 35 34 38 41 38 40 37 39 39 38 39 43 39 49 67 100 127 128 100 109 117 127 125 82 50 51 48 47 45 46 45 49 52 50 46 44 44 43 38 40 37 35 37 38 38 39 39 37 37 38 39 36 35 29 
71 73 75 71 63 61 61 57 51 44 38 34 27 26 26 25 28 29 30 33 33 34 33 37 35 40 30 34 36 35 37 39 36 39 37 37 39 42 40 41 54 75 118 127 127 117 119 121 129 100 62 51 52 44 42 49 44 51 46 48 45 44 42 42 40 40 37 34 36 36 39 39 35 31 34 35 30 32 30 24 
74 75 78 72 68 65 63 58 58 52 44 42 36 32 30 27 29 28 35 33 34 36 36 35 36 35 33 36 39 37 33 38 36 38 36 36 40 39 43 40 46 61 104 114 139 140 136 133 126 117 77 54 50 46 46 46 47 47 47 49 43 43 42 43 39 40 37 33 31 36 36 36 32 34 33 36 31 31 29 20 
70 75 72 75 76 71 67 61 60 56 50 46 40 41 38 34 27 28 31 30 36 36 36 34 35 36 37 34 42 35 38 41 38 38 40 38 41 40 39 41 48 59 83 124 149 157 145 151 149 137 93 63 49 48 48 48 47 43 44 45 41 43 42 41 38 36 35 34 28 34 37 36 31 32 32 37 32 30 26 20 
70 70 71 73 71 69 71 67 63 58 56 50 45 47 44 39 38 38 37 34 39 35 36 34 35 35 36 38 38 40 39 38 40 37 38 42 41 39 43 46 45 51 68 115 132 126 113 123 134 142 115 82 54 46 47 46 48 45 44 44 38 41 40 39 37 38 33 35 32 32 35 35 31 34 35 29 33 25 24 29 
67 71 74 70 69 68 65 65 64 60 58 53 50 49 48 45 44 40 39 33 39 38 38 35 37 36 35 36 40 39 40 41 43 39 41 39 40 41 42 44 48 45 62 90 97 114 99 99 101 93 101 101 63 45 44 49 45 45 39 43 39 41 40 37 39 36 35 35 28 29 36 34 31 27 26 30 33 27 27 24 
66 71 73 70 69 69 66 64 65 61 58 52 53 52 50 49 50 49 45 41 42 37 38 36 39 35 38 38 41 48 64 72 65 44 45 46 41 45 44 49 55 51 80 100 100 103 98 102 104 100 94 93 63 47 45 48 45 43 41 40 38 38 40 40 33 37 35 35 34 34 34 33 32 26 23 28 28 32 26 26 
60 67 72 68 67 67 68 64 63 60 58 54 48 49 53 51 52 52 49 44 44 41 36 38 37 39 37 40 51 71 86 93 92 72 49 48 43 48 45 45 52 71 107 116 127 125 120 117 111 109 102 90 63 49 45 46 45 42 39 39 38 43 36 39 36 38 36 34 34 31 29 32 28 27 28 31 30 28 28 24 
54 64 70 64 69 66 70 64 63 60 57 54 53 50 49 51 52 52 49 47 47 42 36 36 35 36 39 43 63 78 93 102 104 90 64 53 45 47 46 49 61 99 124 135 140 140 136 119 126 119 110 93 60 48 51 47 45 44 42 41 38 40 34 38 35 36 36 32 26 21 25 26 25 28 27 27 25 27 26 19 
49 59 64 66 68 67 66 65 67 63 59 55 51 50 50 50 52 46 50 40 43 41 38 37 37 34 38 44 59 74 98 108 116 115 96 63 53 48 49 57 101 139 164 165 162 158 144 133 138 134 129 97 60 53 48 49 45 43 46 40 39 36 33 35 35 35 35 30 25 6 10 24 27 27 29 31 26 22 19 16 
41 46 57 58 63 65 68 62 61 58 57 57 52 54 51 48 48 45 43 41 42 40 38 36 38 38 39 43 57 79 100 101 111 128 134 91 59 55 53 84 158 203 210 194 185 174 158 147 152 144 130 85 50 45 44 49 48 45 41 38 30 32 30 33 31 34 31 31 17 3 8 25 21 26 29 27 20 14 10 20 
36 41 45 50 53 57 63 62 60 59 61 58 55 57 49 48 42 44 39 37 38 36 35 38 39 38 38 42 54 73 93 92 109 131 134 116 69 60 70 162 215 229 232 223 216 198 168 171 166 155 133 74 44 42 43 46 47 48 40 34 20 21 28 30 31 32 35 32 29 25 19 31 25 26 29 24 11 0 11 11 
33 39 43 46 46 51 58 60 59 61 61 63 59 57 47 45 36 33 38 35 36 37 36 40 41 43 37 45 55 71 81 97 99 110 145 134 79 73 135 217 231 233 243 243 233 201 182 184 182 170 128 63 48 44 41 45 45 46 35 29 20 23 23 28 32 34 34 34 33 29 27 37 27 26 28 20 6 9 17 18 
34 38 40 42 42 44 50 51 55 57 58 62 60 55 41 40 37 35 37 35 39 39 38 39 39 44 39 44 50 61 86 95 99 106 121 141 113 143 198 223 229 236 251 244 229 205 205 202 197 179 88 54 45 40 41 41 43 45 42 32 28 23 29 32 31 35 35 38 35 33 33 33 28 28 26 22 18 18 17 17 
33 41 42 42 42 42 44 48 50 57 59 60 49 43 33 37 34 38 34 35 36 38 38 39 38 45 42 46 54 59 77 102 110 119 148 166 185 204 209 222 228 238 242 227 208 213 227 221 204 133 57 49 46 43 41 38 38 40 41 35 31 27 34 33 34 35 34 34 33 35 33 31 29 31 26 26 25 18 18 12 
37 39 41 37 37 38 40 44 49 55 52 50 41 37 34 33 30 33 36 37 35 39 39 39 39 39 43 49 81 102 111 129 142 147 163 172 205 203 202 205 210 211 217 207 213 234 234 220 189 87 50 44 44 46 41 40 40 42 38 38 33 33 36 38 36 37 40 36 35 35 34 37 29 27 30 26 27 25 18 17 
36 43 42 37 45 43 39 47 56 58 49 34 30 33 35 36 34 35 37 34 39 37 39 42 42 42 47 68 154 162 166 173 166 166 174 179 195 196 196 200 209 203 204 202 228 232 232 220 140 62 47 43 41 44 41 42 40 40 42 42 34 31 36 39 36 37 40 36 37 36 33 31 29 30 28 27 25 22 20 16 
37 42 41 39 41 41 40 45 50 42 40 31 30 34 34 35 37 33 36 36 39 40 39 41 41 41 57 135 185 187 191 182 177 179 181 181 176 185 191 193 189 182 184 199 229 233 229 193 87 54 46 40 42 44 42 43 40 42 40 40 31 35 38 35 36 35 39 37 35 34 34 35 32 28 29 27 24 23 18 14 
41 44 41 45 39 40 37 39 38 35 33 30 31 32 32 33 35 35 37 39 40 39 37 40 39 50 92 176 199 201 196 191 190 189 190 178 182 172 180 186 188 174 175 187 207 226 225 141 65 46 47 41 47 45 39 43 40 39 40 39 36 36 37 36 38 38 37 38 36 36 36 34 27 27 29 28 24 23 18 8 
42 46 40 38 37 40 36 37 38 34 34 32 31 33 36 31 35 37 37 37 38 42 38 38 44 57 149 197 198 206 197 194 199 199 191 177 167 168 169 163 174 183 184 199 189 205 191 82 55 48 45 45 45 41 42 43 40 41 39 40 40 42 40 38 38 39 38 37 37 34 33 34 24 26 27 26 27 22 13 5 
43 44 40 40 35 40 35 32 32 33 30 30 29 31 35 37 37 36 37 34 37 39 39 41 45 91 185 204 205 205 198 210 202 202 197 184 171 162 156 167 167 178 195 196 200 218 129 58 50 47 46 46 45 42 40 41 41 41 42 40 38 36 39 37 36 39 41 39 39 37 33 35 28 26 27 24 24 18 9 6 
40 43 43 38 35 38 36 33 30 29 30 32 30 35 35 38 36 35 37 38 35 39 41 46 60 147 200 207 205 214 203 204 207 205 207 196 179 159 157 166 171 187 200 198 215 187 80 54 46 43 44 44 45 43 44 42 43 41 39 38 37 36 37 38 37 38 38 37 37 36 32 33 28 27 25 26 22 20 7 11 
36 43 40 39 37 37 33 32 27 29 30 30 31 33 35 36 37 33 40 39 40 40 44 51 104 195 203 211 219 219 217 204 208 211 206 203 189 173 167 172 186 202 213 213 215 125 59 50 44 44 44 42 45 39 44 41 40 41 39 37 35 38 36 37 38 38 37 38 36 38 33 33 27 26 22 23 25 11 7 12 
39 41 40 37 36 38 38 34 27 30 28 31 30 34 34 36 38 38 39 44 42 42 47 72 174 216 212 222 226 221 216 212 204 216 216 206 201 194 180 188 202 218 222 215 175 73 47 47 46 44 44 45 45 40 40 44 43 41 40 37 33 37 39 41 39 36 38 39 37 37 33 32 30 28 20 26 19 10 8 17 
36 43 43 33 41 36 35 36 29 29 28 31 30 35 32 32 36 41 38 40 41 41 47 107 203 213 223 225 227 225 222 215 219 204 216 197 206 215 202 199 214 229 230 206 102 54 47 45 46 43 40 42 42 39 41 43 44 38 41 38 36 37 38 35 39 38 38 38 39 36 37 34 28 26 18 21 13 8 18 20 
36 45 39 37 36 36 33 31 30 28 30 31 33 31 35 39 34 44 41 43 41 45 59 156 211 225 227 229 233 233 231 226 228 216 209 200 208 220 219 209 207 241 236 155 64 50 45 44 44 41 39 43 41 41 42 42 40 40 40 40 42 41 42 40 37 37 38 38 36 38 36 34 29 26 15 16 14 15 20 22 
39 42 39 39 37 34 33 33 30 33 33 37 32 35 34 38 37 41 47 43 47 53 88 197 220 231 225 231 233 237 237 233 233 223 208 194 203 225 216 225 223 242 180 84 55 49 42 41 46 40 40 41 44 39 39 39 39 39 41 43 42 41 42 38 43 41 36 35 38 38 35 34 26 26 18 18 20 16 23 15 
39 39 40 37 36 34 34 33 34 33 33 33 32 33 35 48 67 86 73 61 72 107 173 218 229 225 234 237 241 241 248 246 246 229 215 193 190 213 219 216 227 185 89 59 45 48 45 43 44 40 39 40 42 40 39 41 41 41 40 42 42 43 42 41 40 40 39 39 38 35 37 35 28 25 23 21 19 14 18 15 
33 40 35 33 36 30 31 31 29 34 31 35 35 39 56 114 144 146 141 129 153 173 208 226 225 234 233 240 243 242 245 248 247 240 222 196 190 200 223 215 199 89 55 53 46 46 43 41 40 39 38 40 41 41 44 38 37 39 37 39 40 44 42 44 40 40 37 38 38 37 35 34 27 21 22 20 21 24 18 18 
37 42 39 36 35 32 35 32 34 35 33 33 36 54 122 163 172 175 175 174 177 206 217 227 230 237 235 242 248 248 250 248 251 246 236 211 197 190 220 217 132 61 55 47 48 45 44 40 41 38 38 39 42 41 43 42 42 42 42 45 41 45 40 47 42 35 40 40 37 39 36 35 29 25 24 20 25 24 22 20 
38 39 39 38 32 32 34 40 39 36 32 37 38 96 166 189 199 197 190 182 182 214 225 230 229 237 239 244 250 249 247 250 250 251 248 228 201 198 207 208 104 58 56 50 43 45 44 39 44 41 42 41 43 41 42 43 42 42 42 42 45 43 44 41 39 40 40 40 39 38 40 36 32 33 23 23 25 26 21 28 
38 37 42 37 35 34 33 36 37 35 34 49 63 153 194 207 210 214 202 182 189 212 232 237 238 236 239 246 248 248 250 250 249 250 252 238 205 202 219 193 84 51 52 48 42 43 45 43 44 42 41 47 44 44 43 44 41 43 40 42 42 44 42 44 41 42 43 40 43 39 39 37 36 29 31 25 26 27 21 24 
38 38 38 36 31 31 33 37 36 35 46 65 137 197 218 220 217 220 207 188 201 218 232 241 236 240 238 241 248 248 252 252 253 255 249 240 209 210 222 155 69 52 52 46 42 49 45 48 43 47 42 44 40 43 44 47 44 43 44 41 38 44 45 45 42 41 47 43 41 40 39 38 31 33 30 30 28 27 19 9 
36 41 36 34 31 30 35 38 41 39 45 105 188 223 228 227 228 220 209 197 218 231 241 240 238 238 240 242 250 253 254 253 252 248 249 233 210 215 209 108 62 49 48 46 42 47 48 48 43 40 39 42 41 44 46 43 41 43 40 41 39 41 45 45 43 41 42 42 42 44 41 37 36 33 33 28 30 25 20 13 
36 42 38 35 35 38 34 40 41 44 64 162 211 228 235 230 220 214 208 214 233 239 239 242 239 238 238 248 254 253 255 253 251 243 239 227 216 216 185 81 60 49 51 49 44 47 47 46 42 39 39 42 44 42 45 48 44 44 43 43 41 40 42 44 40 43 39 42 41 43 41 39 37 34 30 33 30 27 21 21 
39 39 35 34 36 37 44 41 43 55 113 209 228 239 230 231 218 211 220 237 243 244 241 243 237 239 242 245 252 249 251 248 243 238 236 216 217 219 160 71 47 51 52 47 45 44 46 40 42 40 45 41 42 42 42 43 43 42 42 49 44 40 42 42 43 39 42 41 37 41 41 40 37 35 33 31 32 25 17 15 
39 38 35 36 34 35 44 44 48 77 173 236 243 243 231 228 220 227 232 243 246 241 234 229 229 232 244 244 250 245 247 244 240 237 233 222 214 220 138 64 55 50 50 49 47 49 44 42 43 45 40 45 41 43 44 43 46 44 42 47 46 42 44 43 44 41 42 43 41 42 43 40 43 36 31 36 29 20 13 23 
40 39 38 37 32 39 44 45 57 125 217 246 243 242 221 218 211 224 244 250 235 224 207 212 212 223 229 240 247 241 239 240 238 233 228 224 206 212 114 58 54 47 48 54 46 49 44 42 42 43 42 42 42 44 44 46 42 41 42 42 51 47 48 42 40 41 43 43 46 40 39 37 39 34 36 35 25 15 19 26 
39 37 39 36 35 38 48 54 96 203 242 250 240 228 216 204 218 231 237 234 224 214 207 207 203 208 220 228 237 235 228 230 234 230 217 215 222 199 86 53 49 48 56 48 41 45 47 43 45 42 42 46 44 42 42 44 39 43 44 42 47 47 45 44 38 41 44 43 44 40 41 43 41 41 33 26 24 25 33 22 
38 38 39 40 35 43 49 86 187 237 245 241 237 222 214 200 211 216 223 218 209 207 207 204 203 210 211 210 223 215 213 214 224 218 211 215 220 171 75 48 48 50 50 48 44 47 48 40 47 43 43 44 44 42 45 46 42 43 41 40 45 49 46 45 41 46 42 41 41 42 44 44 42 36 26 24 29 28 32 25 
39 39 40 41 38 49 76 167 228 243 243 235 224 213 194 201 206 208 206 207 205 195 190 197 200 202 214 210 207 204 202 198 206 202 203 212 219 135 63 50 49 45 51 45 43 49 44 44 43 43 47 44 48 46 44 46 46 44 43 43 47 48 47 48 42 43 42 41 44 43 45 40 40 32 25 26 32 34 31 28 
39 41 42 44 47 61 135 222 238 249 246 241 224 202 182 194 210 204 208 206 199 191 181 199 199 195 195 192 197 193 192 180 183 185 184 206 202 111 55 51 55 46 49 44 37 41 38 40 42 39 46 42 46 43 40 43 44 45 41 38 48 43 45 47 41 42 40 38 43 40 40 40 39 31 23 26 30 33 31 37 


