P2
80 60
248
27 34 34 35 80 106 85 45 55 100 93 56 46 40 38 38 33 30 31 32 27 27 27 26 26 26 28 29 34 38 33 30 29 29 30 28 26 30 28 31 29 31 30 30 31 35 30 27 23 19 20 16 21 18 17 18 22 27 23 26 25 26 29 32 26 23 29 29 28 30 31 28 26 20 19 24 27 23 17 23 
23 34 37 41 84 108 82 45 56 102 92 58 43 41 36 36 36 32 31 29 28 25 26 30 31 31 29 31 30 33 32 32 31 30 29 28 29 28 25 27 31 29 29 31 32 32 31 28 27 24 22 23 21 21 24 22 27 25 27 29 30 33 32 36 33 25 24 29 29 29 26 27 25 25 22 22 27 25 21 21 
23 34 36 42 87 106 76 45 64 102 90 55 37 34 36 36 32 34 28 29 30 28 27 29 30 31 30 27 34 35 32 29 27 27 30 26 25 28 28 28 28 28 32 32 28 34 30 32 29 28 26 26 28 29 27 28 29 29 30 34 30 33 34 35 31 26 25 28 29 28 27 26 26 28 21 23 28 24 20 19 
25 31 34 44 92 102 70 41 71 104 85 49 38 34 32 33 33 30 28 31 29 29 29 36 32 29 29 31 36 34 33 27 29 25 26 25 23 28 24 29 30 30 29 32 29 30 32 32 32 32 32 32 30 30 30 30 33 33 31 34 31 29 29 29 29 24 23 25 34 30 30 30 27 22 19 25 28 24 20 18 
25 37 36 48 98 108 66 45 77 99 81 43 37 34 29 32 29 29 29 26 30 26 33 31 30 30 30 29 38 32 29 27 28 28 26 24 27 27 24 23 28 30 29 31 29 34 32 33 35 34 31 28 29 32 28 27 30 30 28 27 29 28 27 30 30 27 27 27 32 30 30 28 28 24 19 25 25 23 21 19 
31 36 37 55 99 96 64 45 77 100 79 38 35 31 31 31 25 30 27 27 28 28 30 29 28 28 29 28 34 33 31 28 28 26 26 25 23 28 26 26 25 27 28 31 27 32 29 33 30 32 32 31 30 29 31 30 30 28 29 28 28 25 32 31 26 28 20 24 32 29 30 30 29 23 23 25 23 22 15 19 
26 42 40 56 103 96 59 44 81 101 72 41 34 31 30 27 28 27 30 32 30 26 29 30 31 28 27 29 33 32 29 30 28 26 25 26 28 27 25 28 28 30 29 28 28 29 26 28 34 31 30 30 29 29 30 29 28 28 28 26 32 31 32 32 30 28 23 23 28 30 28 27 28 25 25 28 23 19 14 16 
20 35 33 51 101 96 57 39 80 102 69 34 33 27 28 30 25 28 28 30 30 24 23 26 25 26 27 30 33 33 30 29 27 23 27 29 27 27 24 27 26 27 28 28 29 30 25 27 28 27 30 26 28 28 27 25 30 30 28 32 29 35 30 33 28 30 23 22 30 30 29 27 28 27 24 26 23 19 15 17 
16 30 31 45 103 96 50 38 84 101 66 35 31 25 25 30 27 29 29 28 28 21 24 27 28 26 27 28 33 34 31 28 25 25 25 28 30 29 25 26 31 26 30 29 28 30 31 31 28 30 29 26 25 28 29 30 28 32 32 34 33 32 31 37 29 34 23 24 31 32 29 30 27 28 24 28 23 23 17 22 
11 10 0 41 107 90 42 33 88 106 62 31 27 25 24 26 24 26 24 28 27 25 23 27 25 28 24 27 32 33 33 28 27 27 28 26 29 28 25 26 29 28 32 29 29 31 31 31 29 28 27 29 26 29 32 32 31 33 33 35 34 33 36 30 36 29 26 24 31 31 31 32 31 28 24 30 22 26 20 14 
14 14 7 46 105 90 35 30 94 112 52 18 18 14 14 17 20 20 22 23 24 20 22 24 23 26 21 25 30 32 25 25 24 26 23 26 27 26 22 24 27 29 27 28 28 29 26 25 27 27 28 31 29 30 27 33 31 32 33 30 34 29 28 32 30 30 23 22 25 29 30 29 26 26 26 26 24 24 23 15 
18 22 20 57 113 92 34 35 96 110 50 21 17 14 14 13 12 16 18 20 16 18 21 21 22 24 21 21 27 27 30 24 25 25 26 25 25 30 27 29 26 28 30 27 28 28 26 27 32 29 34 33 34 33 33 36 36 34 31 32 33 32 31 31 32 32 27 23 29 29 28 34 32 27 24 28 24 23 23 20 
16 22 18 54 107 87 35 38 98 110 52 14 13 12 11 12 17 10 11 9 7 6 9 12 13 17 13 14 15 21 19 21 20 21 22 24 24 25 28 28 29 26 26 27 28 27 29 30 30 32 29 32 32 32 29 29 30 30 28 31 31 32 31 31 25 29 27 24 24 30 31 29 27 29 21 26 23 20 18 14 
18 27 21 63 105 84 37 41 104 112 47 21 14 15 16 15 15 12 11 11 11 11 8 8 13 8 7 9 13 14 8 8 15 14 19 21 24 27 25 28 26 25 28 27 30 33 33 34 33 35 33 33 32 29 32 31 31 32 34 34 34 34 37 34 34 32 30 25 24 31 33 32 30 30 27 30 28 26 20 17 
14 23 23 71 101 73 32 42 102 99 43 23 18 18 20 18 17 16 14 12 11 11 8 11 9 8 8 11 17 13 11 7 5 7 21 22 23 24 26 25 27 27 31 32 32 34 32 35 36 35 33 32 30 36 32 32 33 34 32 32 31 32 35 32 34 34 31 27 26 33 33 32 31 32 30 29 30 24 18 20 
18 25 26 70 99 72 30 46 101 94 39 18 18 15 21 18 13 15 14 12 11 8 11 12 10 8 10 9 13 15 6 8 17 16 24 27 25 22 23 27 28 27 30 29 31 32 32 31 32 32 34 31 30 32 33 28 27 33 32 32 31 34 32 34 32 34 32 26 23 25 29 33 30 31 25 30 31 22 21 22 
16 27 26 74 97 73 30 45 104 92 38 23 20 15 15 19 16 16 15 16 12 14 13 11 11 9 8 11 16 16 21 21 27 23 27 28 25 26 27 27 26 28 32 33 34 32 32 31 34 33 34 33 36 33 31 32 32 34 33 32 31 31 32 36 35 33 35 28 23 29 32 32 32 29 23 32 31 31 20 24 
20 23 26 78 103 71 28 48 104 89 35 21 21 19 19 18 17 15 15 17 18 16 14 15 13 14 12 16 19 24 27 28 27 28 28 25 28 27 27 29 28 28 30 32 34 34 35 32 36 36 35 35 34 35 34 34 36 34 35 32 33 34 36 36 35 37 38 33 25 24 34 35 31 28 28 31 30 31 23 26 
18 23 23 81 95 67 28 50 104 86 34 22 19 15 19 20 19 18 17 15 16 13 13 14 14 11 11 12 17 23 31 25 24 24 26 27 27 28 27 28 27 28 33 29 30 30 31 28 31 31 33 34 36 34 29 31 30 31 32 33 36 34 34 32 31 33 34 33 20 20 26 32 28 27 26 31 30 30 20 26 
20 27 29 87 99 65 27 52 103 89 35 23 18 20 20 19 20 20 18 17 16 15 15 15 14 14 11 11 19 25 29 25 27 22 24 25 24 28 27 27 29 30 32 29 31 32 32 32 29 34 34 34 33 34 31 31 34 35 31 34 35 35 34 35 33 33 37 33 24 21 27 31 30 28 26 32 30 32 22 23 
21 28 31 93 96 65 30 56 104 86 32 25 23 21 21 23 23 20 17 21 16 17 17 18 17 15 11 14 17 23 28 25 25 21 26 27 26 26 26 30 28 30 32 30 32 32 34 32 34 33 34 33 34 32 32 33 31 36 32 33 35 38 35 36 35 30 33 34 25 20 23 29 35 31 29 32 33 32 23 23 
24 31 43 107 101 61 31 64 103 85 36 23 20 22 21 17 20 21 20 21 19 18 16 16 15 14 14 16 21 20 26 25 26 24 26 25 27 26 28 28 29 29 28 31 31 33 35 32 32 34 36 34 33 35 34 33 34 34 34 34 33 36 35 36 35 35 35 38 35 27 20 30 32 29 28 28 34 31 22 24 
78 79 79 124 105 55 31 68 108 85 31 22 21 19 18 21 19 20 20 17 21 18 17 15 17 16 14 16 18 17 22 25 26 28 25 23 25 26 27 29 29 27 29 30 29 32 31 35 34 34 34 34 32 34 34 33 32 35 32 33 35 36 32 36 33 35 34 36 37 24 20 25 29 31 32 31 33 31 23 24 
103 112 107 112 93 46 32 72 104 78 32 25 22 18 19 19 22 21 20 17 19 17 18 19 18 17 14 15 19 18 24 22 22 24 25 23 26 24 26 31 30 30 31 31 28 30 32 31 29 35 32 32 33 36 34 32 34 30 29 36 33 37 34 40 36 34 35 39 32 31 23 23 27 30 25 32 31 31 20 25 
99 102 99 93 73 36 35 77 107 82 33 27 25 22 23 22 23 23 23 20 20 19 18 19 17 16 15 18 20 22 23 26 23 26 27 29 27 29 27 30 35 33 32 32 32 32 32 35 34 34 35 35 34 37 37 34 36 36 32 35 37 37 37 39 33 37 36 37 35 34 31 25 23 24 25 30 33 33 24 26 
44 52 50 49 33 31 37 80 112 85 34 26 24 25 26 27 24 24 20 20 21 21 19 24 23 19 20 19 23 20 26 28 28 29 32 28 29 33 32 32 32 36 34 33 35 33 32 35 36 34 35 38 36 35 36 37 35 38 35 36 36 39 36 40 36 35 36 39 37 36 36 37 25 17 20 24 26 33 22 21 
31 34 27 24 26 26 37 86 116 81 35 27 26 23 25 24 19 24 22 24 20 20 19 20 23 18 17 19 20 20 23 27 28 29 28 28 29 29 31 34 31 34 32 33 31 35 34 34 38 33 37 36 34 36 34 35 34 34 34 33 35 35 33 36 36 34 35 39 34 36 33 38 30 23 19 20 28 24 19 24 
74 70 56 45 45 45 49 99 119 83 33 26 24 21 23 25 21 24 22 21 19 20 20 23 21 20 18 20 20 20 24 29 29 27 27 28 31 28 30 33 35 29 33 32 31 34 34 33 36 34 36 35 33 37 35 34 31 34 37 34 36 36 38 35 38 35 37 35 36 39 34 38 36 33 28 33 29 26 21 24 
122 119 106 98 100 97 102 116 108 80 31 29 26 25 23 22 26 24 26 23 22 22 18 22 20 22 18 18 23 19 27 29 28 29 28 29 29 31 32 36 33 34 35 34 33 33 36 34 38 34 37 32 33 32 35 31 36 33 32 34 37 37 32 37 36 38 37 41 36 39 36 36 35 34 34 36 33 33 23 23 
101 106 101 97 101 102 104 106 95 62 30 27 26 22 24 27 25 25 25 23 24 24 20 24 19 22 20 21 24 20 27 30 30 27 30 32 32 31 34 34 34 32 31 35 30 35 34 35 37 35 35 34 33 35 35 37 37 36 32 36 38 32 37 36 36 42 40 41 38 37 38 41 38 32 30 35 34 31 23 26 
43 49 52 49 57 62 67 65 59 38 25 28 29 27 26 25 26 27 25 20 26 28 21 21 20 20 21 22 24 23 26 29 30 29 31 29 31 31 33 35 33 32 34 34 35 34 34 36 33 35 36 36 38 37 34 34 35 38 33 36 37 36 38 38 36 37 37 41 37 38 36 40 36 32 30 33 33 36 23 26 
27 31 25 24 28 29 34 30 31 28 24 28 29 26 24 27 24 28 24 23 22 25 25 26 25 20 22 26 27 25 26 32 33 32 33 30 33 33 33 37 33 35 35 31 37 34 34 34 36 35 36 36 36 37 35 35 37 40 36 36 36 39 39 38 36 39 38 40 37 37 39 42 39 34 30 33 36 35 25 30 
28 28 24 19 28 25 25 23 27 27 26 26 30 29 26 27 25 30 27 22 25 25 26 24 23 21 21 27 27 25 24 29 30 31 27 30 33 31 31 33 33 33 35 34 32 34 33 35 37 38 37 39 34 34 34 36 32 36 35 32 38 39 39 39 34 38 39 39 37 36 36 36 38 36 31 32 32 37 24 26 
28 30 21 26 24 25 24 25 24 30 27 27 29 27 31 27 30 28 28 28 26 24 28 25 26 23 22 24 24 23 24 29 31 29 32 29 30 30 34 34 36 36 36 33 36 36 37 38 35 38 39 36 38 37 34 36 34 37 36 36 36 37 37 39 36 39 39 42 38 38 33 39 39 36 32 33 37 34 28 24 
27 31 24 22 24 24 21 27 26 31 28 29 31 28 28 29 31 31 27 29 29 27 30 28 26 29 26 29 28 28 30 30 32 30 33 31 33 31 31 34 34 32 36 35 35 35 38 36 38 38 37 39 39 34 36 34 35 39 40 34 38 41 37 42 40 40 39 40 39 36 39 37 41 34 36 34 36 35 28 31 
30 34 20 18 21 24 27 30 26 30 26 31 30 31 30 31 29 31 30 28 30 32 30 25 30 26 28 28 29 27 28 30 34 31 33 31 32 31 32 32 35 34 33 36 33 38 37 35 40 38 39 36 37 41 38 36 36 37 36 39 38 38 39 41 37 38 38 44 40 38 35 38 42 39 36 34 35 40 31 30 
26 34 28 18 24 22 25 25 25 32 31 31 32 30 27 30 29 31 26 32 29 30 30 32 27 30 32 31 30 28 25 35 35 33 32 33 34 30 32 37 37 34 37 35 36 36 38 39 37 38 37 37 34 39 35 34 34 37 37 37 38 36 39 40 37 37 39 42 40 43 41 39 37 39 37 35 34 39 31 32 
29 32 27 22 22 26 24 28 29 29 26 30 29 29 30 33 29 33 29 29 30 29 29 29 29 29 32 34 32 28 28 31 35 32 34 35 34 32 32 37 37 34 33 34 35 38 37 41 38 39 38 37 38 39 37 36 37 36 37 37 38 39 38 39 39 40 43 40 42 40 35 39 40 37 31 33 38 34 34 36 
28 30 27 25 27 28 30 32 29 29 29 31 30 32 32 32 30 31 31 33 34 30 32 29 31 31 30 32 32 27 27 32 35 33 33 34 34 32 34 37 35 39 36 35 36 37 36 41 38 37 38 38 37 38 35 38 37 36 35 34 38 37 40 38 37 38 40 40 41 44 38 45 38 36 35 34 38 40 39 51 
27 32 26 26 31 28 30 31 32 30 28 32 32 33 32 35 33 33 33 33 33 30 33 34 34 31 30 33 32 30 28 32 35 35 35 34 35 34 34 37 39 35 39 39 36 39 41 38 39 38 35 38 37 38 37 35 39 39 38 33 37 39 39 38 37 38 43 39 41 40 40 41 40 37 31 37 46 52 50 61 
29 30 29 29 28 28 26 29 28 34 27 28 31 33 32 35 31 34 31 32 32 31 34 32 35 35 30 30 37 33 31 30 37 34 35 33 35 32 35 33 35 37 38 35 35 39 39 39 39 38 37 36 38 39 38 37 38 35 36 35 33 39 41 37 37 39 41 43 42 41 38 40 38 38 35 43 56 54 54 95 
29 33 26 25 30 30 29 32 30 30 24 32 32 37 34 34 34 36 34 34 35 34 36 37 35 40 32 33 35 35 30 33 34 35 36 34 37 34 33 36 38 35 37 38 35 38 36 37 36 35 36 36 38 39 37 36 39 36 38 38 39 38 42 40 40 40 40 41 42 46 41 40 40 38 37 42 49 47 56 125 
25 32 27 24 30 32 26 34 30 31 31 31 30 32 35 37 36 36 36 36 36 38 35 37 36 35 37 33 39 36 31 35 35 37 37 36 36 36 34 39 38 38 37 37 33 37 39 35 37 36 38 39 33 39 36 36 38 37 36 36 37 37 36 36 39 41 41 39 43 41 41 44 43 39 38 45 48 48 58 143 
25 28 24 22 31 31 28 38 30 28 28 32 34 34 37 37 36 38 36 40 38 36 37 39 39 38 33 35 36 33 29 31 35 34 37 33 38 35 34 36 39 39 37 34 36 36 36 37 40 35 34 34 35 34 29 32 34 35 33 36 32 37 38 40 39 36 43 40 42 42 42 44 41 38 38 46 53 46 57 136 
29 33 28 23 33 30 30 34 28 27 28 35 34 31 34 36 40 38 38 38 39 41 38 40 39 41 33 31 34 36 27 29 35 34 36 36 34 36 34 40 37 37 36 36 34 37 37 36 36 37 37 35 36 33 33 34 32 36 32 33 36 38 41 38 39 41 43 40 43 42 42 48 52 61 61 84 99 93 84 146 
26 36 26 27 32 31 31 33 32 30 29 34 34 34 33 37 39 41 41 36 40 42 44 42 41 36 36 33 35 31 25 27 36 41 38 36 37 36 36 39 40 37 38 38 34 38 37 38 38 38 38 35 36 36 35 33 34 37 35 36 36 39 39 38 40 39 43 44 47 45 49 82 122 147 171 203 216 194 154 169 
30 33 28 24 32 33 33 32 30 31 33 35 36 36 38 37 42 39 42 40 42 44 40 45 43 42 37 41 41 41 35 27 31 38 38 37 38 37 36 37 37 40 39 41 39 39 40 35 39 38 40 38 39 34 33 36 39 38 39 34 39 38 39 37 40 40 44 47 44 49 73 117 141 192 192 195 189 180 173 182 
31 32 28 22 29 32 33 34 30 36 30 37 36 34 36 39 40 39 41 42 45 43 42 45 46 46 48 46 45 45 41 35 34 41 41 40 37 38 37 40 39 42 39 39 40 40 38 37 37 37 38 37 36 35 31 36 36 39 35 35 39 39 39 43 41 44 45 47 57 77 99 117 132 145 146 157 163 171 180 203 
29 35 30 26 29 31 33 35 36 35 35 38 37 36 38 40 43 40 41 45 44 43 45 42 46 50 52 52 49 44 39 35 34 38 40 41 42 38 36 40 40 38 40 41 41 39 38 36 38 37 37 36 37 35 34 34 37 38 35 35 37 40 39 42 43 42 43 51 74 105 117 133 137 144 149 169 183 200 216 241 
30 31 27 27 32 30 32 34 36 38 33 39 39 37 38 38 43 42 43 43 44 45 42 46 44 51 50 50 51 47 40 33 35 38 40 42 41 42 37 42 41 39 36 40 41 40 40 36 40 40 36 37 38 38 36 37 34 37 36 36 40 41 40 42 42 39 43 49 70 109 135 149 156 159 171 188 203 216 234 245 
33 36 30 25 29 31 33 34 39 41 38 39 42 37 41 44 45 43 45 43 46 48 48 49 48 52 51 48 49 51 44 40 35 41 45 43 43 43 40 43 42 42 40 39 40 41 35 38 38 38 38 36 41 39 41 39 38 38 39 39 39 40 42 44 44 45 45 47 68 109 137 155 164 168 178 194 201 215 235 244 
31 32 30 23 28 33 34 35 36 41 36 37 40 40 39 46 41 45 46 46 48 46 50 50 49 54 52 52 53 50 46 35 34 40 42 42 41 41 42 41 43 42 42 42 40 40 41 40 38 41 38 38 41 43 47 45 38 40 41 41 39 43 42 44 40 40 48 47 62 101 132 149 160 164 172 185 202 215 225 240 
36 41 32 31 35 35 36 37 38 40 37 38 40 41 40 44 46 50 50 47 51 53 51 51 53 55 54 57 54 48 45 41 37 42 44 46 43 42 41 44 45 45 42 42 39 45 38 44 37 40 39 44 39 45 50 53 48 52 45 41 39 42 44 41 44 42 47 49 58 98 129 151 161 166 171 187 201 214 225 232 
36 42 39 33 35 39 37 35 41 40 39 40 45 40 43 46 48 47 48 51 52 52 53 54 54 57 56 56 51 53 50 43 39 45 46 44 46 44 41 44 46 42 43 44 41 43 39 41 42 42 40 45 42 46 55 76 86 68 49 43 44 44 43 42 45 46 47 48 54 93 126 149 156 166 169 182 196 214 225 233 
41 45 42 38 40 40 41 40 42 43 42 44 46 48 47 50 51 48 55 55 56 57 54 59 60 59 65 59 59 59 54 48 44 46 48 46 47 48 48 44 42 44 47 44 43 45 41 42 43 41 44 46 49 57 110 220 158 96 58 46 46 42 45 47 44 47 46 50 56 87 123 145 155 161 167 181 196 214 218 232 
45 48 39 37 42 48 44 44 44 48 46 47 50 50 55 54 56 55 58 62 65 61 64 65 66 66 65 64 63 64 54 49 44 45 52 49 51 49 47 46 49 49 50 46 49 45 45 45 45 46 46 46 49 58 127 248 162 94 59 48 47 41 47 47 47 49 51 53 52 81 116 144 152 157 164 177 187 202 216 232 
50 49 43 40 45 45 47 45 50 48 47 49 51 50 52 57 53 59 60 61 65 69 71 65 67 69 68 65 67 63 57 49 44 50 51 53 51 50 47 45 49 49 47 46 45 50 46 45 48 43 47 49 49 54 72 97 88 68 55 46 45 45 43 47 46 49 54 54 52 75 114 140 150 157 161 170 164 168 207 231 
55 55 46 44 51 50 53 51 53 58 57 54 56 53 57 60 63 63 66 69 68 70 74 73 77 78 79 76 72 65 61 51 45 48 52 51 51 46 46 46 51 49 49 51 49 50 49 50 47 48 45 51 51 48 53 55 58 54 50 46 48 48 46 46 45 50 53 54 57 70 108 137 152 157 161 166 166 179 210 223 
66 66 60 56 58 59 56 57 60 60 60 61 57 58 59 63 62 65 72 71 76 79 81 84 79 83 82 82 75 68 63 55 51 50 53 55 52 49 58 67 55 51 53 51 51 53 54 51 51 48 49 49 47 48 47 54 52 47 47 47 47 49 46 48 47 49 52 51 55 65 104 134 151 158 156 174 178 199 208 218 
95 92 80 64 67 60 62 64 57 64 59 61 60 61 60 63 66 69 74 75 76 83 83 83 84 90 92 82 76 69 64 56 54 55 55 57 56 57 87 130 66 57 60 55 53 54 55 52 51 51 50 54 48 47 49 48 48 50 46 49 47 48 47 47 51 49 51 52 55 58 106 135 148 161 158 170 180 196 210 220 


