P2
80 60
254
30 29 34 42 81 107 88 49 61 100 95 60 48 44 41 39 36 34 33 36 30 30 29 26 28 30 32 33 34 41 37 34 35 33 34 31 30 33 33 31 33 34 32 32 36 37 36 31 22 22 22 20 21 23 26 22 25 28 25 27 29 29 30 32 31 26 24 26 29 32 33 29 30 27 25 23 27 29 27 15 
27 27 36 49 86 113 86 46 60 100 97 57 46 43 37 36 34 32 35 34 31 29 30 32 32 33 35 34 32 38 35 37 33 35 31 31 32 32 30 31 31 33 32 34 33 35 32 30 28 24 25 27 24 27 31 27 30 30 31 32 35 33 35 37 35 25 22 28 31 32 34 28 32 30 27 23 27 30 24 18 
19 32 35 44 88 109 79 45 68 101 89 55 41 38 38 35 33 34 33 34 31 30 29 31 32 33 36 35 35 38 36 33 33 31 31 30 30 32 34 30 33 31 31 32 32 34 34 34 30 29 29 33 32 29 30 34 32 34 36 36 33 32 33 35 34 24 23 25 30 32 33 28 30 33 26 22 30 31 21 21 
30 27 36 51 94 102 73 41 70 102 84 50 39 36 35 36 35 33 31 35 31 31 32 32 34 33 33 33 36 37 37 34 31 32 29 28 28 32 29 31 31 35 35 32 33 31 35 34 31 35 33 35 32 33 31 32 33 38 33 37 33 34 31 30 31 23 21 23 29 33 31 30 29 28 25 26 29 32 21 19 
24 34 39 53 102 105 70 45 78 97 80 46 40 37 32 33 34 31 29 28 34 32 35 31 31 32 32 33 37 34 37 35 31 29 27 26 32 32 31 29 28 30 34 33 34 31 35 35 35 37 33 32 33 32 33 33 35 32 32 30 30 31 27 26 28 28 23 26 29 30 32 29 30 28 26 23 28 29 21 22 
24 29 35 61 103 96 68 48 80 102 77 40 41 34 33 28 27 29 30 29 32 33 30 30 31 31 33 32 34 34 36 31 32 31 28 30 27 30 30 27 29 30 30 31 32 32 31 30 29 34 32 34 32 31 33 33 34 31 32 30 31 27 30 29 31 29 20 22 29 32 33 32 32 29 27 25 23 24 15 14 
25 32 40 61 105 96 60 45 84 104 73 39 37 35 35 29 30 31 30 33 32 29 29 31 31 32 31 34 35 36 33 34 31 31 29 28 33 27 32 27 32 31 30 28 30 31 29 30 32 34 31 33 30 34 33 31 31 33 32 31 32 33 31 29 31 26 23 23 28 32 33 30 31 28 27 27 25 20 18 16 
21 31 34 58 104 93 57 44 83 102 66 37 34 29 29 28 26 29 30 33 30 28 28 27 28 27 31 34 32 33 34 31 32 29 28 29 31 29 31 28 27 31 29 31 30 31 28 30 29 32 33 29 31 32 30 29 33 33 33 32 34 36 32 33 31 30 26 21 30 34 34 28 31 25 28 24 22 24 18 14 
18 29 30 54 106 95 53 41 89 102 64 36 30 27 28 30 29 30 31 32 30 28 27 28 29 30 30 32 34 36 31 33 30 30 28 33 34 33 34 29 32 30 29 32 30 33 33 31 30 30 28 27 28 28 31 33 33 35 34 37 36 35 33 33 35 34 23 22 29 34 33 31 29 28 28 27 23 23 18 17 
9 5 0 48 105 93 50 36 94 105 63 31 27 27 26 27 25 29 29 30 25 31 27 27 27 30 30 31 33 33 38 32 34 27 31 32 33 34 32 34 34 30 32 30 32 32 34 33 29 29 26 31 29 33 35 32 33 37 36 35 38 32 32 33 35 34 26 24 30 35 35 31 31 30 30 29 26 28 22 18 
12 8 7 52 109 91 37 28 103 114 55 20 19 17 15 20 21 26 23 29 25 26 26 26 26 28 28 30 29 33 31 27 27 26 29 30 30 32 30 28 29 31 30 30 30 31 30 28 28 28 32 30 32 33 30 31 33 35 38 36 38 33 31 34 32 33 25 22 23 34 34 32 30 30 30 24 25 27 23 11 
17 18 22 62 114 92 40 36 105 109 50 20 16 15 16 14 11 18 20 24 17 25 23 24 24 25 21 26 27 29 33 27 29 28 31 28 30 31 30 30 28 32 34 29 33 31 27 29 32 32 36 35 33 35 36 36 35 35 34 39 37 32 32 32 35 35 31 22 25 33 33 32 32 32 32 26 25 27 19 21 
20 19 20 59 110 89 42 41 100 108 49 16 15 15 14 13 17 17 11 13 10 12 11 14 14 18 16 18 17 22 21 24 24 27 25 28 28 28 29 30 31 29 28 31 30 29 32 33 32 34 34 34 36 35 33 33 34 33 33 35 35 33 31 33 30 33 31 24 23 31 34 32 31 30 29 26 27 26 21 22 
18 24 22 64 105 85 41 44 107 109 49 20 19 17 19 14 17 16 12 14 13 13 9 14 15 12 9 13 12 16 16 10 21 15 24 23 28 30 28 31 29 30 29 31 34 35 32 35 34 35 35 37 34 34 37 35 36 33 36 38 37 34 35 34 34 35 31 25 23 34 35 36 33 36 32 33 28 30 26 21 
17 22 22 73 99 74 39 44 108 102 43 22 22 19 20 20 18 16 16 16 13 14 13 12 11 12 12 15 17 14 14 11 9 13 25 27 30 32 29 27 27 30 30 35 36 32 32 33 36 35 37 36 35 39 35 33 37 37 34 36 36 35 34 35 37 35 32 27 26 34 35 33 32 35 35 31 32 27 19 13 
19 20 24 75 100 70 35 46 106 93 42 20 18 18 22 17 15 16 15 16 13 13 15 13 12 13 14 13 14 18 10 13 17 24 27 29 27 25 27 30 29 32 29 32 32 33 33 33 32 34 35 33 32 36 36 32 35 34 35 37 33 34 32 34 35 34 32 25 22 27 33 33 33 30 31 30 31 27 24 23 
19 24 26 77 98 70 33 46 108 92 37 20 22 22 21 22 17 19 17 18 19 19 18 14 16 15 14 16 18 19 25 24 30 32 30 32 29 29 31 31 29 30 29 35 34 36 34 33 36 34 36 35 36 36 34 38 36 36 37 36 34 33 34 37 37 34 34 27 23 30 38 33 31 37 28 31 31 32 26 23 
19 21 28 83 103 71 32 49 108 90 38 20 23 21 21 21 22 18 17 19 19 21 20 18 15 17 16 18 19 25 31 31 32 35 28 28 32 31 33 34 29 31 33 33 35 37 37 37 35 39 36 37 37 35 41 34 38 37 42 39 37 36 36 34 35 39 35 32 23 27 35 34 33 34 36 29 32 38 32 21 
21 17 25 84 98 66 33 53 107 88 38 19 23 20 23 20 19 18 17 19 19 17 17 17 15 14 18 15 19 25 33 29 28 31 30 31 31 31 30 31 31 34 35 35 34 32 35 33 36 36 37 36 36 36 37 32 34 36 38 36 39 36 34 36 36 35 35 34 21 25 34 32 36 33 32 30 31 39 28 28 
20 21 31 89 102 67 31 57 110 87 35 25 23 22 23 24 22 25 22 20 20 21 20 19 17 18 18 17 21 26 36 27 34 26 27 30 32 32 31 30 34 35 34 34 35 36 37 36 33 34 35 39 39 36 37 34 37 38 34 39 39 38 34 36 35 35 36 36 27 24 35 34 38 34 36 33 35 39 29 20 
25 24 31 96 101 67 35 61 112 85 34 24 25 24 25 25 23 23 22 23 20 21 19 19 21 19 18 21 17 24 32 29 29 29 29 30 29 28 32 32 30 33 34 35 37 35 35 35 36 36 39 39 37 35 37 37 37 39 37 36 39 39 36 40 40 38 37 40 27 24 32 33 34 37 37 31 34 37 30 25 
27 30 45 110 102 64 34 67 111 85 38 24 25 24 24 19 23 23 23 23 21 24 20 19 18 16 20 24 24 21 31 30 30 29 28 30 31 32 31 30 31 32 31 34 34 33 35 33 34 37 39 36 34 36 41 35 35 37 38 38 38 37 37 39 37 38 36 38 35 27 23 32 35 35 32 31 34 36 29 24 
79 75 80 128 109 59 38 73 110 84 32 22 22 22 22 22 23 21 22 21 24 22 20 18 20 21 19 19 20 21 27 28 32 30 28 28 29 33 29 34 32 30 30 31 31 32 34 36 34 38 37 35 36 37 38 35 36 36 36 38 35 38 34 38 35 36 35 38 38 26 24 26 35 35 36 34 33 36 29 23 
102 107 111 111 93 48 38 75 108 83 32 24 28 23 21 21 20 23 23 21 23 24 22 18 18 22 20 21 21 21 28 27 30 26 28 27 29 28 30 32 33 33 31 31 33 32 32 32 33 37 36 37 36 37 38 33 36 33 35 39 37 39 39 39 41 35 36 38 35 35 25 21 28 31 33 33 34 37 28 25 
99 98 101 93 76 40 40 79 113 87 34 29 27 24 27 24 24 26 27 26 22 24 22 24 20 19 22 23 20 27 28 30 30 30 30 32 32 32 32 31 35 36 35 34 36 33 39 36 34 39 39 37 36 40 42 37 37 38 39 38 36 39 39 39 35 38 38 38 36 34 35 25 22 28 29 33 34 38 26 26 
44 47 55 51 39 33 41 83 118 87 33 26 27 26 30 30 25 27 24 25 27 26 21 25 21 23 23 24 26 24 31 32 30 31 37 30 32 34 34 35 36 36 36 35 39 35 35 36 37 38 38 38 38 38 40 37 38 41 36 39 37 40 36 42 39 41 39 41 37 37 38 33 28 23 22 27 26 35 25 21 
34 29 29 28 30 29 42 88 120 84 36 27 25 26 26 25 22 25 23 25 24 24 22 22 26 21 21 20 23 22 27 29 34 35 32 32 33 33 34 35 34 37 36 33 35 35 35 36 35 36 38 36 37 36 39 35 36 39 38 39 40 37 36 38 38 39 39 39 40 38 37 39 35 29 25 26 24 28 25 16 
80 71 57 50 49 49 53 103 124 87 36 28 25 26 26 25 25 28 23 27 22 26 25 24 23 24 20 24 23 24 30 33 35 32 32 32 34 32 33 38 37 34 34 34 36 34 38 34 37 35 40 36 35 38 39 37 33 37 40 41 38 37 40 38 39 40 40 36 36 39 41 38 41 38 36 35 32 30 23 16 
127 116 110 103 103 99 106 117 115 80 32 28 25 25 24 27 28 27 26 26 23 27 23 23 22 23 24 22 24 23 29 33 33 33 33 37 34 36 35 37 35 35 35 35 36 34 37 34 38 37 39 37 38 37 36 36 36 38 39 38 41 38 35 40 39 41 40 38 36 44 39 38 38 36 36 35 35 37 27 26 
107 102 102 100 100 103 109 104 99 63 29 25 27 24 27 27 27 29 30 26 27 29 23 24 20 24 26 25 24 24 30 32 32 32 31 33 35 35 37 36 35 36 33 36 35 35 37 35 37 36 35 37 36 38 39 37 36 39 39 36 40 36 39 40 41 42 42 44 38 39 41 36 40 37 35 35 35 36 29 24 
46 46 50 51 59 64 68 68 64 37 26 28 31 28 26 29 27 30 29 26 25 33 24 26 23 22 25 27 25 25 29 36 34 33 34 35 33 34 40 37 36 35 35 36 39 37 36 36 37 39 38 39 42 39 35 37 36 41 37 41 40 37 40 41 38 40 39 40 38 41 39 41 39 35 34 32 37 39 31 25 
32 29 28 28 30 31 38 35 35 28 26 30 32 29 28 30 26 31 29 26 27 31 27 29 27 26 25 29 28 27 31 36 34 35 34 35 37 36 38 39 38 37 36 34 38 38 36 37 39 38 36 41 40 39 39 38 38 42 38 41 39 41 41 39 40 40 40 40 41 37 42 44 39 41 37 32 37 40 29 28 
29 26 23 22 31 30 31 28 32 29 25 28 32 30 31 31 26 30 29 30 28 30 28 28 29 27 28 33 30 27 31 34 35 35 33 32 39 34 37 33 38 38 36 38 37 36 38 37 39 41 40 41 39 38 38 42 38 39 39 37 43 42 41 43 37 40 40 40 37 41 39 41 43 42 37 35 38 43 30 27 
28 26 26 26 30 29 27 28 30 33 28 30 31 32 31 31 29 31 31 30 29 31 32 28 32 26 28 32 29 29 29 37 37 36 35 35 38 35 36 35 41 41 38 39 38 39 39 38 38 39 39 39 39 43 39 38 39 39 41 40 40 42 41 43 42 43 42 43 41 41 38 38 42 42 38 36 42 44 33 32 
33 25 25 26 29 28 27 29 33 32 28 31 29 30 30 31 33 34 30 32 33 32 34 31 30 29 30 34 31 28 31 35 35 34 36 34 39 37 38 36 38 35 38 36 37 39 40 38 39 41 38 41 41 36 41 37 37 40 43 40 41 45 39 44 44 43 42 42 41 43 42 42 44 40 40 37 39 42 33 30 
32 29 24 22 28 29 30 30 32 31 28 30 32 35 32 30 32 34 32 31 33 35 34 28 34 30 32 34 31 29 34 32 37 36 37 33 37 38 34 34 36 37 38 37 37 36 39 36 40 39 41 41 38 42 41 39 38 40 42 43 43 41 38 43 40 41 41 42 39 41 42 41 44 42 40 36 34 45 34 28 
30 29 29 22 30 28 33 28 31 31 32 30 33 33 30 35 32 36 29 37 33 32 32 33 32 33 35 33 35 29 31 37 40 35 39 35 38 37 37 37 39 37 39 39 39 39 40 40 42 39 41 40 38 40 41 40 38 39 42 41 38 39 39 40 40 40 38 44 40 42 43 39 39 42 38 36 35 40 36 33 
30 28 26 22 25 27 30 31 34 30 28 30 33 32 33 34 32 35 31 32 34 33 31 30 33 32 38 36 34 30 31 36 39 39 38 36 36 35 34 36 37 36 38 38 39 40 39 40 41 39 40 41 36 40 41 37 38 40 40 39 41 39 41 44 41 40 40 39 41 42 40 37 40 42 37 35 39 37 40 38 
30 27 27 23 31 29 35 35 35 30 30 33 35 33 34 35 34 33 33 34 33 33 32 33 34 36 36 33 33 30 32 35 37 38 38 37 40 36 37 39 38 41 39 38 37 40 39 43 41 39 40 40 36 39 38 38 41 39 37 38 42 38 41 39 41 43 41 44 41 47 41 44 39 45 39 37 40 44 42 47 
30 29 29 25 31 33 38 34 33 30 29 31 34 32 33 33 35 36 35 33 33 36 37 35 35 35 36 38 34 35 32 37 39 42 38 38 37 37 39 37 41 37 42 41 38 41 43 39 38 39 40 42 39 41 41 39 43 42 39 39 42 39 40 40 42 42 44 43 40 43 43 42 42 42 40 40 50 57 55 61 
29 29 28 27 30 31 34 33 33 31 29 32 34 34 37 33 34 35 38 37 36 37 36 38 39 39 36 36 40 36 35 36 41 42 38 37 41 40 41 39 40 39 41 41 39 41 41 42 41 39 40 40 43 42 40 40 42 40 40 39 39 43 41 39 41 41 42 44 43 45 42 41 42 42 41 45 52 58 60 91 
33 30 25 30 32 32 34 35 33 30 31 33 36 37 38 36 34 38 36 37 40 36 38 38 40 42 40 37 41 38 35 36 40 40 38 38 41 38 40 40 42 41 40 41 41 40 41 38 39 39 40 43 42 40 42 38 42 40 43 42 41 41 41 44 43 42 45 42 44 44 47 40 45 41 42 45 47 54 63 129 
30 28 28 26 36 33 31 37 36 32 31 34 36 35 36 37 40 42 37 41 37 38 37 38 42 40 41 41 40 38 37 39 40 42 41 38 41 41 41 43 39 41 39 40 38 38 39 38 38 40 40 41 37 39 40 40 37 39 40 41 40 40 40 40 39 44 43 44 43 45 44 43 48 44 45 44 46 54 63 143 
32 26 26 28 35 36 36 41 36 32 32 34 35 39 39 39 38 39 39 43 41 38 41 42 41 42 39 40 37 36 34 37 39 41 43 41 43 39 41 41 39 41 41 37 41 39 39 38 38 38 39 39 38 37 34 36 37 39 38 42 42 40 41 45 44 41 46 40 44 43 47 44 45 44 41 45 55 53 61 137 
31 28 28 29 34 37 34 39 36 32 32 33 38 35 38 42 42 43 42 43 44 46 42 42 45 44 38 36 41 37 32 34 42 39 41 42 38 43 42 39 41 41 40 41 41 37 36 37 39 38 43 39 39 35 40 37 37 41 37 39 43 40 41 43 43 42 44 43 42 47 47 46 49 49 48 57 60 58 59 128 
30 29 28 30 36 36 34 35 40 31 33 37 40 40 42 40 41 44 45 43 46 47 45 46 48 41 42 38 38 34 32 35 41 46 44 42 41 41 42 42 42 42 41 42 39 38 40 40 42 37 42 40 39 38 41 36 39 37 41 39 40 39 40 41 43 44 47 45 46 49 52 64 85 95 115 133 125 98 91 145 
32 32 32 33 36 36 40 33 38 34 34 38 42 39 42 42 44 43 43 47 45 48 46 49 49 46 44 46 45 43 40 36 38 44 41 41 42 42 42 43 44 43 39 42 43 40 41 39 41 40 40 40 41 40 39 41 42 42 43 39 41 40 42 40 44 43 45 47 48 54 79 127 151 157 170 176 158 145 158 179 
31 29 31 29 33 38 38 40 37 35 31 39 37 40 39 43 42 44 41 48 46 46 46 46 51 50 51 50 51 47 45 39 37 46 43 43 41 46 43 40 43 44 43 44 41 42 42 40 38 42 40 39 40 39 37 40 39 39 39 41 43 39 39 44 44 48 45 49 59 80 110 127 141 144 146 156 162 173 186 200 
34 33 30 32 33 38 41 38 39 35 37 40 38 40 43 45 45 44 45 49 46 45 50 47 50 51 56 57 50 50 46 38 39 42 43 42 44 44 46 43 43 42 42 44 44 40 38 38 39 40 39 40 42 39 40 42 41 42 41 39 45 42 41 43 44 44 48 50 71 107 126 135 141 145 153 169 184 208 220 242 
32 27 32 36 33 37 38 35 42 39 35 38 40 39 39 40 44 47 45 50 46 49 47 47 47 53 55 54 53 50 43 40 40 46 43 46 45 44 42 45 41 42 40 45 44 42 42 37 39 41 41 45 40 40 40 39 37 42 39 43 44 43 40 43 45 42 45 49 71 110 140 151 159 164 173 188 205 226 235 245 
32 30 30 35 35 37 36 39 42 38 41 39 42 43 44 45 44 44 47 49 50 49 54 51 50 53 62 55 53 53 51 42 39 44 47 46 46 47 48 45 43 45 43 44 44 41 40 40 41 40 40 44 40 42 45 44 43 41 45 43 43 41 43 46 46 43 46 50 69 115 143 159 166 173 182 191 205 225 240 245 
39 31 35 32 37 41 38 42 43 40 38 41 46 45 43 47 44 47 47 53 51 51 53 52 54 54 60 58 53 54 51 41 39 46 46 47 46 44 45 43 47 46 43 45 42 43 40 39 41 43 41 42 46 47 49 54 45 46 46 46 43 46 43 47 45 44 48 48 65 104 137 155 163 172 177 184 204 227 237 241 
40 37 37 36 36 38 37 42 47 42 40 42 45 50 46 47 46 52 53 48 54 55 55 52 59 56 59 59 55 52 51 46 41 49 48 47 47 49 47 42 44 44 45 46 43 43 42 43 42 43 41 46 44 48 56 58 51 55 50 47 46 43 41 47 50 46 48 50 58 102 133 152 159 169 180 187 204 224 230 239 
37 37 39 38 37 43 42 45 45 42 42 46 45 49 47 50 50 49 48 55 56 57 57 55 59 59 60 62 57 55 54 44 42 47 49 49 49 48 49 46 45 46 48 47 44 48 42 41 43 44 42 45 44 50 61 79 87 70 54 47 45 47 44 46 47 49 48 48 57 95 131 151 159 168 175 186 199 219 231 239 
42 40 39 43 42 45 45 41 47 46 46 43 49 51 51 49 54 54 55 61 62 62 62 60 64 65 67 65 61 61 62 52 49 49 53 49 53 50 52 50 49 48 49 47 48 44 44 45 44 46 48 50 50 60 110 221 162 102 65 53 50 45 46 50 49 50 49 51 57 89 126 146 160 168 176 183 193 218 226 230 
47 44 41 44 46 49 52 48 50 49 47 52 51 54 54 59 55 58 60 62 66 64 67 69 70 69 70 69 65 64 59 53 47 48 55 53 55 53 51 49 48 50 49 47 53 47 49 47 45 50 49 50 52 63 132 254 164 96 64 51 54 45 47 48 50 48 51 52 52 84 121 148 160 164 172 181 190 201 223 233 
50 45 45 47 46 47 54 50 56 51 48 52 51 56 53 56 58 60 59 65 72 72 73 68 74 71 74 70 68 64 61 53 50 54 55 53 55 54 50 48 50 50 48 48 52 50 52 48 47 48 47 52 53 58 76 103 91 70 58 51 53 45 46 48 47 51 51 52 55 78 115 140 154 159 168 171 164 173 216 234 
57 51 49 51 52 52 58 53 57 54 51 54 58 55 57 61 67 65 69 70 72 73 80 74 81 79 80 78 74 66 65 57 47 51 56 54 53 48 51 50 52 53 51 54 54 53 50 50 50 49 49 53 51 52 58 62 62 61 57 49 51 48 47 47 50 50 53 50 54 72 108 138 154 158 164 166 164 177 219 228 
67 60 60 58 61 61 62 59 64 56 58 62 59 60 61 63 64 66 72 78 80 85 88 86 84 85 87 84 78 71 65 58 57 55 58 58 54 54 62 70 58 54 55 54 56 52 56 53 50 51 53 52 50 51 49 55 54 53 54 50 50 51 48 50 50 50 51 54 55 65 106 137 150 161 166 173 182 201 217 218 
95 85 81 72 68 62 69 63 64 63 60 64 61 63 63 68 69 70 76 77 83 87 88 88 89 94 95 87 77 73 66 62 59 59 58 62 61 61 94 133 69 59 62 56 59 53 59 54 52 52 54 55 51 50 55 51 49 52 50 50 52 49 50 50 54 52 51 55 54 64 108 137 149 162 165 171 181 201 215 220 


