P2
80 60
298
32 30 42 57 97 104 69 42 77 99 77 49 41 38 36 31 30 29 27 26 24 21 22 20 25 22 24 26 28 27 27 29 25 26 25 25 23 24 22 23 22 24 25 26 25 27 24 20 16 12 13 17 14 15 16 17 18 19 20 21 21 21 24 26 24 23 24 22 23 22 23 20 20 24 22 22 26 25 22 19 
33 33 41 60 100 102 62 40 76 99 73 46 41 37 35 33 27 29 29 27 24 23 23 22 27 26 30 26 28 30 25 27 27 22 23 22 23 22 22 21 24 23 27 22 25 28 24 18 15 17 14 18 16 16 18 17 23 22 24 25 26 25 25 30 22 19 20 22 21 21 19 23 22 23 21 20 27 26 20 21 
32 35 44 65 102 98 54 45 80 97 71 43 40 36 32 31 30 32 24 23 25 21 22 23 27 28 26 26 29 28 23 25 21 23 24 23 25 22 23 20 18 26 24 26 26 30 25 23 23 20 19 21 21 22 21 24 28 28 30 29 31 30 25 26 25 20 18 20 24 22 22 23 23 22 24 21 28 31 24 19 
31 33 41 69 103 94 50 44 89 92 63 42 32 35 31 33 28 28 24 27 28 26 27 26 29 24 26 26 27 30 23 26 24 22 24 23 22 21 23 25 22 25 26 22 25 28 29 31 26 25 26 26 28 25 24 27 26 29 31 28 28 27 24 25 23 22 21 20 27 25 25 23 24 25 24 22 27 25 20 21 
33 36 43 74 109 92 53 50 89 94 59 43 35 31 31 28 26 27 25 23 27 27 25 26 27 25 25 27 27 34 26 26 29 20 24 21 23 21 20 20 21 24 25 24 26 26 27 29 27 27 24 27 25 28 24 26 25 27 26 27 24 23 25 22 22 22 20 24 23 26 24 26 23 23 27 24 25 24 17 17 
30 37 46 85 104 89 52 49 93 93 54 39 31 30 26 26 28 25 25 25 29 27 27 22 24 26 25 27 26 32 29 25 24 26 25 22 19 24 20 22 21 26 23 25 27 26 24 26 26 25 27 28 24 24 25 23 25 24 24 24 26 22 24 24 26 23 20 20 28 25 24 27 24 27 24 26 20 22 20 21 
36 41 46 81 105 87 49 49 95 89 48 33 31 28 27 25 24 27 28 26 27 25 24 23 22 21 25 25 30 30 25 23 26 21 25 24 21 23 23 19 21 24 19 20 21 24 22 24 26 23 25 23 23 24 22 24 28 25 25 24 26 24 24 25 25 25 18 19 21 24 26 25 24 23 26 22 19 24 23 18 
23 33 41 82 104 81 45 47 93 83 43 28 25 25 23 21 24 26 27 22 23 21 20 20 19 20 19 23 22 27 24 23 23 24 19 22 21 22 20 20 17 23 20 21 23 21 19 21 22 23 21 20 19 21 22 21 20 24 24 25 27 28 29 26 23 18 19 15 22 22 24 23 22 20 21 19 20 22 19 21 
19 26 32 85 107 81 41 51 97 83 41 24 26 27 24 22 23 24 24 19 23 20 22 20 24 22 22 24 25 26 24 23 22 21 22 22 22 23 20 19 21 20 21 21 23 23 20 22 20 17 18 19 25 20 22 26 25 24 26 26 29 27 26 27 26 25 20 19 22 24 26 24 22 24 25 23 20 25 24 16 
8 0 16 85 107 76 34 50 104 89 36 23 19 21 19 19 20 21 21 19 23 21 17 23 20 21 20 22 22 29 26 23 21 23 20 21 21 24 22 19 21 21 25 23 20 24 21 26 24 18 18 20 22 16 24 29 27 27 30 28 29 28 25 25 28 24 21 17 23 23 26 26 23 22 23 23 23 28 24 18 
17 6 20 88 109 71 28 53 114 92 26 13 13 13 13 15 18 17 16 18 18 19 19 18 17 18 18 20 19 26 24 20 22 22 20 17 21 20 21 22 22 21 20 24 22 18 20 20 22 20 20 25 24 23 23 25 26 27 26 24 26 26 27 26 24 25 18 15 22 24 23 24 24 24 23 21 21 27 22 18 
27 19 30 98 115 74 30 57 112 90 26 15 11 9 9 9 10 11 12 14 16 16 15 17 17 17 19 20 20 22 20 18 20 21 19 21 19 20 23 23 20 20 23 22 20 22 19 20 25 22 23 25 24 24 27 27 24 30 26 28 28 30 27 27 26 23 21 17 20 25 26 23 21 23 22 19 18 25 21 18 
21 24 24 96 114 73 33 61 112 88 24 11 12 9 9 7 10 7 8 6 2 3 0 5 7 10 8 6 9 13 13 15 19 19 19 20 21 18 20 20 20 21 18 20 20 22 22 24 25 22 24 26 26 25 28 25 25 27 27 27 24 27 22 26 25 27 21 18 23 22 23 21 22 24 23 25 26 25 20 17 
21 19 29 100 102 65 35 68 111 83 24 14 12 12 12 13 10 5 6 7 7 4 4 5 1 3 1 3 3 6 2 4 11 11 18 18 21 20 18 21 20 21 20 19 22 25 25 23 24 24 25 25 26 25 25 25 28 27 30 27 25 29 25 28 26 24 23 19 21 27 22 26 24 26 23 26 24 24 19 21 
23 21 37 98 98 57 32 74 109 76 24 17 16 15 17 12 12 14 10 9 9 8 7 6 5 5 6 7 7 8 5 2 1 7 16 21 19 20 18 19 19 21 24 22 24 26 24 27 28 23 28 26 26 28 27 26 29 30 27 25 28 28 29 29 26 28 25 18 20 27 26 28 23 26 25 28 27 24 19 22 
23 18 39 101 93 51 27 73 101 71 19 17 15 14 13 12 9 7 7 8 4 6 6 6 2 3 4 5 5 8 5 4 12 15 19 20 19 19 16 17 20 23 23 24 23 23 23 26 26 22 23 26 27 26 27 25 26 29 26 27 27 27 27 24 24 27 23 19 19 24 25 24 26 24 24 25 24 21 19 20 
20 21 43 106 90 49 30 73 100 64 21 17 15 12 12 11 12 11 8 10 11 10 7 2 6 4 7 7 4 12 15 19 21 21 20 20 20 18 21 21 20 22 25 23 24 23 25 27 26 22 25 28 27 25 28 26 26 30 29 26 24 26 25 24 27 29 25 19 18 21 27 25 25 25 24 27 28 22 25 17 
19 19 47 104 93 49 27 77 97 64 19 14 16 16 12 14 10 11 11 12 13 9 8 6 9 6 8 10 12 20 20 23 22 19 21 19 24 21 22 20 21 22 23 24 25 24 25 27 28 25 26 28 25 27 25 28 28 28 28 28 28 26 26 29 25 32 29 20 20 21 26 23 26 23 25 25 27 28 24 17 
22 19 46 101 86 47 28 77 97 63 19 15 15 14 14 12 13 10 8 11 12 8 8 6 6 2 5 4 14 20 21 20 21 18 15 19 16 20 18 17 19 20 23 19 22 25 22 23 23 20 25 27 25 24 24 23 25 28 30 27 25 23 24 27 25 29 26 20 12 20 24 21 23 23 23 25 27 29 25 18 
23 18 50 102 88 48 28 85 99 60 18 16 17 15 16 14 13 13 13 12 10 11 10 8 8 5 6 6 11 22 23 20 24 19 19 20 19 19 19 22 19 21 24 24 23 25 25 24 27 24 26 25 26 25 27 27 29 29 28 28 27 27 27 28 29 28 28 26 14 17 25 27 25 26 25 27 25 28 26 19 
25 26 57 106 90 45 32 90 101 58 20 19 20 17 18 17 18 14 15 14 9 12 10 10 10 9 9 12 14 17 24 16 24 18 20 19 21 19 20 21 20 19 21 24 25 28 25 27 26 22 24 28 26 26 25 28 29 29 26 27 27 28 28 28 27 32 28 28 22 19 25 24 29 27 25 29 29 28 27 27 
35 29 70 119 87 42 37 92 97 55 18 19 17 18 15 16 18 16 15 16 11 17 12 11 8 9 12 12 10 14 22 19 22 18 17 22 18 20 22 17 19 21 22 21 23 24 25 24 27 26 28 26 26 26 26 26 26 29 28 29 28 28 31 28 27 26 28 25 23 19 21 27 24 28 26 23 27 30 26 21 
87 78 107 125 85 35 41 94 98 54 20 19 18 16 14 15 13 16 14 14 13 12 11 8 8 7 9 7 9 15 18 18 19 18 20 17 19 21 19 17 18 23 22 23 21 23 22 24 26 24 24 24 25 24 25 23 27 29 29 27 26 28 28 30 27 28 26 26 25 16 18 22 26 28 27 27 25 31 25 22 
113 108 109 103 70 33 41 96 95 54 23 23 20 14 15 15 15 14 14 14 11 15 12 10 8 9 12 14 9 14 21 19 19 19 19 16 20 23 20 22 17 23 24 24 23 23 23 22 26 26 28 26 29 26 27 25 26 27 28 27 27 25 29 31 26 29 27 29 26 25 18 21 24 23 23 26 25 30 23 26 
104 98 95 86 50 32 44 96 98 55 25 22 23 16 18 18 19 17 15 14 13 14 14 11 13 12 13 11 13 15 20 23 20 19 22 19 20 23 23 23 23 22 25 24 21 26 25 26 29 24 27 28 30 28 26 28 26 30 27 27 30 29 30 30 28 31 31 33 28 26 22 18 18 22 26 31 28 26 22 18 
45 46 45 44 28 29 46 103 100 53 22 22 24 19 17 19 18 18 16 15 13 20 13 13 11 10 12 9 13 14 21 21 21 24 23 23 24 21 24 26 24 26 27 25 26 27 23 26 27 28 28 27 28 29 27 26 30 32 29 30 30 28 30 35 30 32 32 31 30 27 30 26 21 19 19 24 25 27 23 16 
36 29 25 26 25 29 50 114 104 56 25 23 21 19 18 19 16 16 18 16 16 16 13 12 16 11 10 14 13 15 23 24 24 23 22 23 22 25 28 23 24 24 25 24 23 26 23 26 31 26 29 27 26 26 26 26 27 27 29 28 28 28 29 27 28 32 30 28 30 29 27 28 24 25 22 21 23 24 25 20 
78 68 60 53 48 52 69 125 100 47 21 19 21 19 21 17 17 17 16 14 16 16 13 14 13 12 14 12 11 15 22 20 23 22 22 24 21 22 24 23 25 25 27 23 24 26 25 24 26 26 26 28 27 25 27 28 26 30 29 29 27 27 27 30 30 30 33 29 29 27 28 28 25 27 28 27 30 29 26 20 
119 112 103 105 99 103 110 114 92 48 20 21 19 18 18 20 16 19 17 16 16 17 12 13 13 15 12 15 16 15 21 24 20 24 23 25 24 26 26 23 24 26 27 23 21 24 24 27 26 28 27 24 27 27 28 28 26 28 28 27 25 30 27 31 29 33 31 28 29 29 31 30 26 28 30 29 31 26 21 23 
103 100 99 99 95 98 98 96 76 31 20 20 20 17 18 16 20 20 19 20 18 15 15 13 15 15 16 12 14 18 21 22 23 23 25 25 24 26 22 25 27 24 24 24 24 28 24 27 29 24 25 30 26 27 29 26 28 28 28 29 30 29 30 33 29 32 30 29 31 28 31 29 26 28 28 29 29 27 28 23 
47 44 45 52 54 60 60 60 40 24 21 23 24 21 22 19 21 18 19 17 19 18 17 16 16 15 16 13 15 18 21 23 24 24 23 23 24 26 26 26 24 27 26 25 24 25 24 26 25 25 25 27 28 25 28 29 27 27 25 28 28 27 29 30 30 32 28 29 31 29 26 29 27 27 27 28 29 28 29 23 
28 25 24 26 24 28 25 26 25 18 21 23 24 24 23 20 22 21 23 18 22 21 21 19 18 16 19 16 12 16 21 23 24 25 24 26 23 28 25 25 26 26 26 24 28 27 26 28 29 24 27 27 29 25 27 26 29 26 29 29 28 28 31 33 32 35 31 31 28 29 27 30 32 27 27 31 30 31 28 26 
28 24 20 25 24 27 23 21 21 23 24 23 22 25 23 20 23 22 20 22 21 22 21 18 16 17 20 18 17 16 21 26 27 25 22 25 23 24 25 27 25 25 26 26 25 26 30 26 28 30 27 28 29 26 28 29 28 27 29 27 31 29 32 33 29 32 31 31 31 32 26 28 30 33 26 29 33 33 28 27 
29 23 24 26 23 27 24 24 24 23 22 27 29 27 25 26 23 23 23 24 23 21 20 22 20 20 21 19 16 17 23 28 30 28 25 25 25 26 29 26 26 29 29 26 28 26 28 28 30 30 29 31 29 27 29 27 30 31 31 29 33 33 31 34 32 35 34 34 32 34 33 31 34 34 31 29 32 35 29 29 
27 24 22 26 23 23 22 26 22 23 23 25 25 26 24 24 25 24 24 22 24 24 22 19 21 18 20 19 18 18 23 24 29 25 26 22 26 22 26 28 27 25 30 25 25 26 27 32 27 27 27 29 29 27 29 30 27 29 29 31 32 31 30 30 30 31 33 33 30 32 29 32 34 32 28 29 32 31 32 31 
32 21 22 24 22 28 20 23 22 21 21 27 25 24 23 25 24 21 22 23 23 24 22 23 19 20 22 20 16 20 22 27 28 26 24 27 25 26 26 25 22 26 24 26 27 26 26 29 29 27 28 29 26 29 27 28 30 31 29 30 30 29 30 30 29 31 34 32 33 33 30 33 33 31 29 29 30 34 30 30 
31 24 25 26 24 22 23 25 22 22 25 26 27 26 26 24 25 27 22 25 26 24 25 23 24 23 23 24 20 21 24 27 27 24 25 27 24 25 30 29 25 27 27 26 28 30 30 28 29 31 28 30 29 30 30 29 28 27 30 30 29 29 30 32 30 33 30 33 30 30 33 33 34 31 30 32 33 33 35 31 
33 29 23 29 24 27 26 27 25 22 23 27 27 25 25 25 25 25 25 26 23 26 25 23 25 21 24 24 20 21 23 28 28 27 28 25 26 23 28 25 27 28 29 31 25 29 27 30 29 26 31 29 27 30 30 30 28 28 29 30 28 30 31 30 32 35 34 35 36 31 35 33 33 34 31 29 33 36 35 36 
32 31 25 28 21 27 27 27 28 24 20 26 26 28 27 28 26 26 27 27 26 28 25 23 26 23 25 26 22 25 22 27 29 29 29 27 28 29 30 28 30 29 27 26 31 30 28 30 32 27 30 31 30 29 28 30 30 29 30 34 29 27 31 33 33 31 32 34 35 31 33 36 34 35 32 32 33 35 42 50 
31 29 28 27 18 32 28 31 26 22 24 27 31 27 26 28 29 25 30 27 26 27 21 26 27 23 25 26 25 20 24 29 31 27 28 28 27 27 27 25 27 31 28 27 29 30 29 29 29 29 28 27 31 28 32 26 28 30 29 30 31 29 28 30 31 34 35 32 33 35 36 35 31 33 34 35 45 52 63 90 
36 28 31 30 25 30 29 29 27 24 26 27 27 32 30 28 29 30 30 28 29 29 30 29 33 27 29 26 26 26 24 29 31 32 31 26 31 28 27 30 29 31 26 28 28 32 30 32 32 28 30 31 32 29 29 29 31 30 32 30 29 30 34 31 32 33 36 36 32 34 37 36 35 35 39 49 62 61 78 160 
32 27 25 33 25 33 29 27 26 21 27 30 28 32 32 31 32 28 32 30 29 31 31 30 31 27 29 29 29 28 25 33 34 31 29 26 28 29 32 30 31 28 31 28 28 29 30 30 30 26 29 28 31 32 32 30 31 31 32 30 30 34 33 31 32 34 38 32 33 32 34 36 35 39 37 45 53 90 177 235 
32 25 30 32 31 27 28 27 28 27 26 30 29 33 31 34 31 29 34 31 32 28 32 32 30 31 28 29 28 24 23 31 32 31 31 27 32 31 28 31 28 31 27 31 30 30 29 26 29 30 30 28 30 29 29 25 30 25 32 29 32 29 32 35 32 33 32 35 34 34 36 40 40 41 51 69 126 216 258 271 
37 26 25 35 31 32 37 31 27 22 26 29 31 31 30 33 32 34 32 35 34 35 35 37 33 31 28 28 29 28 25 30 31 30 30 31 31 31 32 30 28 29 27 29 28 29 29 31 29 27 32 27 29 26 28 28 27 30 29 33 33 30 31 35 32 36 36 35 37 36 43 55 69 96 133 182 242 273 286 283 
35 25 24 29 30 33 33 29 28 25 28 30 30 34 35 31 36 36 33 36 35 35 36 35 36 31 27 26 30 28 23 27 31 29 32 31 31 30 31 30 28 31 31 27 29 29 29 31 33 28 28 31 30 25 29 28 29 26 30 32 32 30 32 35 32 37 36 36 39 50 94 138 171 218 250 266 289 298 282 273 
33 31 30 34 29 36 32 28 28 25 27 32 33 35 37 35 37 35 38 41 38 37 37 36 32 29 28 27 28 28 21 27 33 34 36 33 30 29 33 32 32 30 27 32 31 29 28 31 30 32 30 31 27 29 27 25 29 33 32 32 32 32 31 36 34 35 40 38 45 87 140 217 252 274 281 282 298 287 255 240 
34 30 26 32 29 34 34 29 28 27 31 32 35 37 35 34 36 39 37 40 41 37 38 37 37 36 34 34 31 35 27 28 34 33 34 32 34 31 34 30 33 32 27 29 31 32 28 28 33 27 32 30 31 29 31 26 29 31 33 31 34 33 36 31 36 40 40 40 55 98 143 227 235 232 219 213 206 196 198 205 
35 30 31 36 31 35 36 28 32 30 28 34 32 35 39 36 36 38 36 43 38 40 42 39 42 44 44 41 38 40 33 28 31 33 34 34 33 30 32 32 37 33 32 31 32 30 33 32 32 30 30 31 30 33 29 32 30 29 32 35 34 33 35 35 37 37 42 44 70 105 123 152 148 151 153 157 166 176 192 221 
34 29 29 37 31 34 36 33 31 30 29 32 35 35 35 35 37 37 38 39 40 40 42 41 45 45 45 41 40 38 31 32 33 35 32 37 35 34 34 33 35 37 32 30 29 32 30 32 29 31 30 32 31 28 30 31 32 35 33 33 33 35 35 37 36 39 39 48 81 107 121 132 134 142 151 165 180 201 218 233 
36 30 28 33 28 33 34 35 29 29 33 31 36 39 37 38 40 36 41 40 41 43 39 41 42 47 46 44 40 43 33 29 34 40 37 37 36 36 33 33 33 34 34 33 32 30 30 31 30 31 29 32 32 28 31 32 34 33 37 35 34 33 35 36 35 41 40 49 81 113 136 145 150 164 170 183 199 214 234 247 
36 31 34 30 31 34 34 32 33 30 36 39 38 38 40 38 41 42 41 41 42 45 42 42 46 47 46 45 42 40 37 30 35 33 36 41 35 34 35 34 35 35 32 34 33 31 32 31 33 29 32 34 32 34 36 31 32 33 32 33 36 33 36 35 37 38 41 47 79 115 140 150 159 161 174 188 200 213 234 247 
36 32 35 35 32 34 36 34 34 32 35 35 35 37 37 40 42 40 42 46 47 47 47 43 45 47 48 46 44 43 36 32 35 37 37 38 39 34 38 35 34 34 36 33 33 32 32 32 31 32 33 31 32 39 44 36 37 37 35 33 37 34 35 38 36 39 41 45 75 114 135 149 152 161 171 187 201 214 231 249 
40 36 35 38 34 38 37 37 37 38 35 40 38 39 43 39 46 45 47 45 48 50 48 47 48 48 50 47 47 43 42 32 32 41 40 38 40 39 39 37 36 37 34 33 35 36 31 33 33 31 31 35 37 40 51 46 45 39 39 40 35 36 36 36 38 41 45 42 67 105 131 148 153 159 170 184 197 211 227 241 
40 34 36 38 36 41 41 37 36 34 38 41 44 40 43 44 46 42 46 51 53 52 50 49 51 53 55 49 45 48 37 35 38 37 40 40 42 38 37 37 37 36 35 35 34 34 33 33 33 34 35 38 38 42 59 78 68 51 41 41 38 36 37 38 40 41 42 42 62 99 127 143 151 157 167 178 193 211 228 241 
43 41 39 39 39 46 43 43 40 41 39 45 45 44 48 44 49 47 53 53 54 52 54 56 55 57 56 55 51 50 43 39 41 42 44 44 40 41 37 38 41 39 36 38 35 38 38 34 35 36 41 40 42 60 175 191 124 68 44 40 36 37 41 37 38 42 40 46 62 98 125 141 146 156 163 176 194 207 226 236 
47 49 42 44 42 45 46 44 45 44 43 48 49 48 50 50 54 54 54 59 59 62 62 59 62 61 62 56 55 55 47 44 44 43 47 47 44 44 44 41 43 40 41 39 38 40 39 39 41 41 40 43 48 70 204 202 123 68 48 43 39 39 39 40 39 41 42 46 56 98 119 142 146 157 161 170 185 198 224 236 
48 45 46 44 47 47 50 48 48 45 44 46 49 50 51 51 57 55 60 64 63 69 69 67 65 67 67 58 60 57 49 43 41 46 48 46 44 41 40 41 41 39 38 40 40 42 41 39 41 41 40 38 44 49 83 90 74 52 46 42 41 39 39 41 40 42 45 44 54 87 117 138 146 152 158 159 152 178 221 233 
55 49 47 50 49 51 50 54 49 48 51 50 52 54 55 59 56 60 63 66 69 72 70 71 74 75 71 67 64 59 52 43 43 48 49 46 45 38 39 42 40 43 42 44 44 44 41 40 41 44 40 45 41 41 48 51 51 48 42 43 40 40 40 41 44 44 45 42 51 85 114 135 144 154 153 153 148 190 219 230 
58 62 58 58 51 62 57 56 54 53 56 55 57 59 57 58 64 63 68 68 72 81 81 82 82 85 77 70 65 60 51 47 46 50 52 52 47 46 59 51 44 46 48 44 44 47 43 46 45 44 44 42 42 44 43 44 46 43 45 41 39 43 40 42 44 41 47 46 53 74 113 137 149 154 156 161 179 203 218 227 
75 77 72 69 61 67 62 64 60 58 57 64 58 59 63 68 66 68 75 80 78 83 80 80 89 92 85 74 64 63 56 51 49 53 56 52 54 65 119 84 54 54 50 49 47 47 48 45 44 45 42 42 44 42 46 43 44 48 40 45 45 39 43 41 43 43 46 46 51 73 107 135 146 151 158 169 182 199 218 222 


