P2
80 60
259
23 21 21 26 34 43 85 92 68 40 54 92 87 45 39 33 33 30 28 27 26 29 23 21 24 24 21 23 29 31 32 33 25 27 25 27 26 24 24 23 28 26 26 25 25 26 28 25 26 19 16 17 16 15 15 16 15 18 19 18 19 19 18 17 21 24 26 27 28 27 24 28 28 26 18 21 21 22 19 21 
22 21 21 27 35 47 92 94 62 35 63 96 80 40 36 34 32 28 27 25 25 27 24 25 24 22 23 30 27 27 32 32 26 30 26 25 24 23 26 25 25 26 23 23 25 24 28 30 26 20 14 19 14 17 17 15 18 15 18 17 18 18 18 21 27 26 27 27 26 23 27 27 27 18 18 22 20 23 15 19 
20 22 18 25 37 47 94 91 59 40 68 92 75 42 39 32 28 26 27 26 25 24 24 22 23 25 28 29 25 29 29 33 27 26 26 28 25 27 26 24 23 24 25 23 24 26 27 27 27 21 19 20 21 18 16 19 20 20 23 19 26 24 27 27 27 21 28 28 23 26 22 28 23 25 20 24 18 22 16 15 
21 22 24 32 35 51 97 91 50 39 75 97 72 35 33 32 27 26 26 25 25 25 25 24 26 28 27 27 30 31 31 32 26 23 25 23 25 23 24 24 24 23 25 25 28 26 30 27 30 23 21 24 27 23 25 28 23 26 29 27 28 29 28 28 28 26 25 26 25 21 24 27 25 28 25 25 19 18 16 16 
17 23 20 30 37 58 107 89 48 38 79 90 62 32 34 29 24 22 26 25 24 19 25 24 27 27 25 25 27 30 33 29 26 27 23 24 23 21 22 21 22 21 25 22 25 26 26 26 27 26 26 26 23 26 28 29 25 32 29 26 26 28 29 28 25 26 27 24 25 25 20 23 22 25 18 21 19 17 15 15 
13 19 24 33 34 67 99 82 46 43 86 89 61 32 28 26 25 25 24 23 24 26 27 25 27 25 27 30 27 32 31 31 26 27 25 25 24 21 19 23 21 20 24 27 26 29 27 29 27 28 28 28 30 26 25 27 28 28 30 28 29 29 23 30 25 26 24 25 25 22 24 25 25 26 22 20 24 24 15 17 
19 24 25 35 36 66 102 80 42 42 87 85 50 28 27 26 22 26 27 23 22 24 24 25 24 27 26 24 27 30 32 29 28 28 22 26 25 24 21 21 21 23 23 27 25 26 26 30 26 27 28 29 27 25 25 27 25 24 28 25 25 28 26 26 26 27 26 28 27 28 25 30 23 26 24 22 25 21 16 21 
12 16 19 30 34 65 98 72 41 44 88 87 42 27 23 23 23 22 21 22 23 23 23 20 21 20 25 25 27 26 30 27 27 22 24 24 21 22 23 20 20 24 23 24 26 25 26 23 24 25 25 28 26 27 23 23 24 26 25 24 23 24 27 27 27 26 26 26 25 25 26 27 24 26 24 20 19 19 17 19 
9 15 14 28 27 61 101 70 36 43 88 79 41 24 22 22 22 20 20 21 22 19 22 21 22 22 22 20 25 25 30 27 27 25 23 25 23 22 23 22 24 23 21 25 23 23 27 25 26 25 23 23 23 24 21 26 23 24 25 23 27 27 27 25 27 31 27 28 29 25 28 29 28 25 28 21 19 24 17 20 
6 5 3 0 9 71 100 67 25 45 96 80 37 23 19 20 17 16 16 21 22 18 20 20 23 19 24 22 25 28 30 28 27 26 23 23 24 24 23 22 22 24 24 23 26 27 27 29 27 26 22 25 23 24 24 24 25 26 28 25 29 31 29 25 28 28 28 28 27 27 28 24 24 27 22 25 23 23 15 16 
12 15 10 1 14 74 98 59 23 48 104 85 23 14 9 17 12 16 15 20 18 18 19 18 20 24 21 24 20 23 28 29 23 24 20 23 21 22 21 23 22 23 23 25 25 25 25 27 21 23 23 20 25 24 23 23 24 29 28 29 30 31 28 29 29 26 29 23 28 28 25 29 26 25 22 22 22 26 15 16 
15 17 16 16 19 84 100 53 21 52 98 73 19 9 7 10 8 7 11 16 13 15 16 15 19 19 19 18 20 22 29 24 22 24 21 24 22 22 21 24 22 22 22 23 26 24 25 25 24 21 24 25 27 25 24 24 25 30 28 33 28 31 26 27 27 29 27 25 24 23 26 25 30 28 24 23 26 23 18 24 
12 16 14 15 16 80 94 53 22 57 99 69 14 11 6 7 9 4 7 6 1 3 7 5 10 11 15 15 18 21 23 22 18 21 19 20 19 22 20 23 20 22 22 25 24 24 23 20 23 22 23 25 26 24 27 24 27 26 28 24 30 29 29 24 23 29 28 25 23 23 25 29 24 24 17 22 26 21 19 19 
11 15 16 16 21 85 88 46 28 62 100 64 18 9 8 13 7 7 5 5 5 5 7 6 6 5 7 7 7 9 10 12 16 16 20 21 19 24 22 23 23 25 20 23 25 22 25 27 28 25 23 28 24 27 27 28 26 25 27 28 29 27 26 24 24 28 28 27 24 28 26 31 28 25 22 24 23 25 18 17 
15 17 16 18 32 86 82 44 20 70 93 56 19 14 12 15 12 9 9 5 3 4 4 5 4 7 5 4 7 6 7 6 6 3 2 10 16 23 21 22 23 22 24 25 25 22 24 27 27 25 28 27 27 30 26 28 28 30 28 29 30 30 25 26 30 28 30 30 27 24 25 29 26 25 24 27 27 23 17 20 
10 14 13 13 33 89 84 37 22 74 96 53 19 11 9 13 10 8 10 5 6 7 5 7 6 6 7 3 5 10 7 9 8 0 4 13 19 20 18 20 20 20 20 25 23 24 24 26 28 26 24 26 27 29 28 27 27 27 31 27 30 30 28 27 28 30 26 26 23 27 26 28 27 25 23 24 25 24 17 17 
10 16 17 18 41 89 79 35 21 79 87 48 20 13 12 14 10 8 7 8 5 7 5 6 6 6 7 4 9 9 7 8 8 12 19 20 21 20 18 18 20 23 21 26 23 23 26 25 27 26 26 26 29 28 26 29 28 25 24 30 32 28 30 29 26 31 29 28 26 25 26 29 28 26 24 23 21 24 16 19 
13 18 16 17 46 93 80 31 28 84 87 47 19 16 13 12 15 10 11 10 10 8 11 10 7 8 8 6 8 9 11 19 21 24 22 21 23 20 24 19 23 24 26 24 25 26 28 28 26 27 26 32 32 31 26 30 28 33 31 28 31 27 30 28 26 28 27 28 25 26 28 29 31 24 26 24 25 26 24 16 
16 16 18 19 48 91 74 29 26 82 85 42 17 12 14 16 9 9 12 14 9 9 10 7 6 7 8 8 10 11 17 24 21 22 21 18 19 23 21 22 23 20 25 25 25 25 24 28 25 27 25 30 29 27 26 29 27 28 26 26 33 28 28 30 26 29 27 30 24 25 23 27 25 27 26 25 24 26 22 26 
13 16 18 20 58 94 78 28 29 84 84 41 16 14 15 13 16 13 14 10 9 8 11 12 10 8 9 6 7 17 21 27 23 23 20 19 21 21 20 22 21 21 22 24 24 26 26 27 27 27 30 28 29 28 26 28 28 29 30 31 31 31 27 29 29 29 29 28 26 22 24 27 28 27 25 25 25 24 18 17 
22 24 21 22 68 97 73 30 31 93 86 39 20 13 16 15 16 12 15 12 12 12 12 11 9 12 10 11 11 14 19 23 22 21 21 19 19 21 21 20 23 21 25 25 25 27 25 27 27 27 28 28 29 28 26 26 27 26 29 31 30 31 29 28 28 29 31 31 28 25 27 32 30 26 26 24 25 25 19 18 
41 42 35 36 85 105 79 27 37 95 84 36 15 16 17 13 13 16 15 10 12 12 9 11 10 7 10 7 12 15 13 25 23 24 21 21 18 20 21 21 23 22 25 25 25 28 25 28 32 25 27 29 30 29 30 28 28 29 28 28 32 31 31 34 31 29 31 29 29 26 26 28 29 25 23 24 27 24 21 19 
106 101 94 89 105 105 64 26 44 93 84 37 17 16 13 18 11 12 13 12 12 12 14 10 11 10 10 10 14 12 12 21 22 21 20 17 21 20 19 20 25 22 24 23 23 24 26 28 26 27 27 29 29 26 26 29 27 28 30 29 29 28 32 28 27 28 32 31 29 27 22 27 29 25 22 27 27 23 22 24 
104 106 107 101 102 89 54 29 48 94 79 33 17 11 13 15 13 12 14 15 12 10 11 12 10 10 13 10 12 13 13 20 22 20 19 18 20 23 22 20 23 22 21 27 26 25 25 25 28 26 27 27 28 29 29 29 27 27 30 29 31 30 32 31 31 27 32 31 28 29 25 26 29 23 23 29 26 27 21 21 
59 63 73 82 78 66 35 30 56 98 83 30 17 12 12 19 17 17 14 16 15 15 13 14 14 12 11 11 14 14 16 20 21 21 19 21 22 22 25 23 25 28 28 25 26 28 26 30 26 31 27 29 32 31 26 31 28 30 30 30 35 31 34 32 30 31 30 32 31 28 31 27 28 26 27 24 27 27 21 21 
27 28 30 31 33 28 26 29 58 104 83 31 17 17 17 18 17 14 13 16 13 12 12 13 16 13 16 13 14 17 15 24 24 26 21 21 22 23 26 23 25 25 24 27 30 26 26 26 27 31 29 29 31 29 29 31 30 30 29 29 32 31 32 34 32 31 34 29 31 32 30 32 29 23 26 28 27 31 20 24 
44 43 32 31 22 25 26 33 70 113 83 30 20 18 18 14 16 15 17 17 12 16 16 14 14 16 12 12 14 15 14 24 25 22 23 21 24 24 24 26 26 27 27 27 25 26 27 28 27 28 29 31 29 33 28 30 27 32 31 29 32 31 30 32 31 31 30 31 31 31 32 32 30 27 25 27 24 24 19 22 
107 103 94 87 71 66 64 59 89 112 84 31 19 16 16 15 19 15 17 14 13 13 16 13 15 12 13 15 10 17 15 25 23 20 20 21 26 25 24 26 23 26 24 27 25 27 25 27 28 27 29 25 30 28 30 30 23 28 29 26 28 33 31 31 32 29 32 30 32 32 29 34 32 30 29 29 24 29 27 23 
104 110 106 105 97 96 96 93 102 105 74 25 20 17 17 22 19 17 16 16 17 17 15 13 16 14 18 15 14 17 16 23 23 25 25 24 25 25 26 28 26 28 26 28 28 27 25 31 27 26 28 32 31 31 31 29 28 32 30 28 30 30 31 30 30 32 31 34 32 31 34 32 35 29 28 29 27 31 25 25 
61 69 76 82 83 93 94 94 94 87 57 21 19 15 17 20 17 18 18 18 18 19 17 18 20 15 17 15 15 15 17 22 23 26 25 27 26 27 31 28 30 29 27 29 31 27 28 29 28 30 28 31 29 30 31 29 30 29 32 31 28 32 30 33 33 36 32 34 34 32 31 37 37 30 31 29 26 31 25 27 
24 30 29 30 29 37 40 40 48 40 24 18 17 17 19 18 18 18 17 17 16 20 16 19 17 19 19 19 17 14 17 21 25 26 24 27 23 27 26 25 25 27 28 26 26 26 27 27 27 26 28 29 26 29 28 29 30 29 31 30 32 34 32 31 32 30 33 33 34 32 33 32 35 31 28 27 31 31 24 32 
22 22 21 22 22 20 26 23 27 22 20 19 19 19 20 24 19 20 20 19 18 20 18 18 18 18 18 19 21 19 17 24 27 24 26 24 25 29 26 26 29 30 27 29 31 28 26 29 31 31 27 31 31 31 30 30 29 32 31 30 33 33 34 33 34 32 35 33 32 31 33 35 34 37 29 29 30 34 27 29 
20 22 20 19 23 19 26 23 23 20 21 21 18 17 21 21 20 21 24 20 20 21 19 19 20 20 20 19 20 19 18 22 26 25 25 26 23 26 28 26 30 28 28 28 26 28 27 27 31 29 33 35 31 27 29 31 29 30 31 32 32 32 35 32 33 35 36 35 32 31 31 33 37 36 33 31 33 33 27 31 
20 25 22 26 18 18 25 21 22 25 23 20 19 20 20 21 22 23 22 20 20 20 23 22 21 18 20 17 22 21 18 27 29 23 23 25 26 28 27 28 31 33 29 30 29 30 28 28 30 32 34 33 32 34 32 30 31 30 31 33 35 36 36 34 35 34 36 39 33 34 33 39 40 38 38 33 33 36 31 31 
19 28 20 19 20 21 21 23 23 23 24 22 23 20 22 23 22 21 22 22 21 21 21 21 21 21 22 21 21 18 20 24 23 24 25 28 28 23 24 28 29 33 28 32 29 31 26 28 32 32 30 31 37 37 29 28 33 34 34 30 34 36 36 33 37 34 40 38 35 36 32 36 38 39 35 34 32 34 33 31 
20 27 24 21 20 21 25 19 25 19 22 22 24 20 19 26 25 21 19 22 21 22 24 24 21 23 21 20 23 21 20 24 26 26 27 29 25 27 25 27 28 31 28 28 34 28 28 26 30 31 28 32 34 32 31 31 28 32 31 33 35 35 33 31 36 33 35 35 31 36 32 35 39 35 40 33 33 36 38 37 
24 26 27 24 21 19 26 21 25 25 24 19 22 20 22 23 23 23 23 24 20 22 23 22 22 22 25 22 24 24 21 30 26 28 25 27 26 28 26 28 31 31 28 28 30 31 31 33 31 32 33 33 32 32 32 32 30 31 33 34 36 34 33 35 35 30 31 36 32 36 36 36 36 37 34 34 33 37 40 39 
21 25 24 24 21 25 25 21 27 21 23 24 24 23 24 22 24 26 26 23 24 25 23 23 25 23 24 21 27 23 21 25 32 30 26 27 27 29 27 27 29 29 31 29 31 30 32 33 32 32 28 32 31 33 29 29 32 31 30 30 34 34 33 32 34 32 35 36 33 35 33 36 35 36 35 36 37 37 40 44 
23 23 22 22 19 23 26 21 28 22 23 19 22 22 26 26 24 23 27 25 24 26 23 25 21 28 26 25 28 23 23 23 26 31 30 24 29 25 29 30 28 33 26 28 31 30 31 33 32 31 31 32 32 34 29 30 33 30 31 29 32 34 32 33 34 36 34 35 37 33 34 39 37 33 33 33 34 43 44 50 
22 24 22 24 22 20 24 22 29 22 23 24 23 19 25 26 26 24 32 23 25 27 25 26 26 27 27 27 27 25 26 26 30 29 27 29 28 30 29 28 30 28 28 29 32 29 31 30 31 30 29 33 32 30 31 33 29 30 33 31 33 35 34 31 34 31 38 35 36 34 36 37 36 35 32 38 46 49 45 45 
21 27 24 24 24 25 23 24 27 23 23 22 25 22 25 30 28 26 28 26 28 26 31 27 29 29 30 27 28 26 27 29 30 30 31 25 31 28 29 27 31 33 31 31 30 30 31 30 31 31 33 31 33 35 29 30 30 32 29 31 35 32 33 33 35 35 37 35 36 34 38 37 38 36 34 37 39 43 40 43 
21 21 21 27 21 24 26 23 27 25 23 21 23 22 26 27 27 30 30 29 28 28 29 28 29 29 29 29 28 27 24 25 28 29 26 28 31 29 30 30 31 30 30 32 32 33 32 29 33 29 29 33 32 31 31 33 30 29 31 28 31 33 31 33 36 33 37 34 38 37 36 38 39 36 35 37 42 38 40 37 
21 24 22 22 24 26 28 23 29 24 23 22 23 24 26 28 28 25 28 29 27 27 30 28 33 30 29 29 27 28 26 27 30 29 30 29 29 30 31 28 31 29 31 33 27 31 31 28 30 28 32 31 30 32 29 29 28 32 31 31 29 32 33 35 36 33 35 34 36 34 36 40 43 39 38 38 40 39 38 45 
22 22 22 26 22 23 28 28 29 23 23 24 27 25 26 27 28 31 30 30 31 30 32 32 30 31 31 29 30 28 28 26 31 31 30 29 30 31 33 29 34 33 29 30 29 27 30 29 31 33 29 31 31 30 30 28 28 30 33 30 33 31 32 34 33 34 36 38 37 38 39 45 48 48 56 60 73 84 97 116 
22 27 22 25 26 23 32 30 27 25 24 28 28 27 26 32 31 32 33 32 34 34 35 32 35 32 30 29 26 30 27 25 30 29 29 30 30 31 30 30 30 31 31 30 31 31 29 29 31 31 31 29 29 32 27 29 28 30 33 31 32 35 34 34 33 32 38 38 37 45 68 83 93 106 117 127 138 148 167 190 
19 24 25 23 24 25 33 28 29 25 26 26 30 28 31 31 29 32 32 36 34 37 36 33 37 35 34 29 29 31 28 25 29 31 30 33 29 34 28 33 31 33 28 29 32 28 33 30 31 32 33 31 30 27 28 27 25 34 29 28 34 34 37 33 37 35 37 39 40 65 105 126 135 137 147 157 168 185 201 228 
22 28 23 27 25 24 32 27 27 24 23 27 30 28 33 35 31 32 36 36 35 38 36 37 37 34 32 31 27 28 28 25 30 30 29 34 33 32 32 29 33 33 32 31 33 30 31 30 30 31 32 34 31 33 27 27 28 31 31 32 35 37 36 34 36 35 40 41 43 77 116 151 160 164 174 186 196 217 231 248 
27 27 23 26 26 26 32 27 25 28 29 26 32 30 28 31 33 32 35 33 36 36 36 35 39 36 37 40 36 34 36 31 27 30 33 35 33 32 31 33 33 33 30 31 31 29 32 31 28 27 33 30 29 30 28 28 27 31 33 28 35 33 33 33 33 34 36 41 40 72 117 155 169 176 180 193 207 226 245 250 
24 26 26 31 24 27 31 29 31 29 28 27 31 31 28 35 32 33 35 34 38 35 38 37 41 42 43 45 41 41 41 35 31 30 33 36 33 31 36 33 32 31 32 32 32 27 32 32 28 29 31 33 32 32 29 29 29 32 31 27 36 38 33 35 34 34 38 40 42 66 116 157 169 175 183 196 211 227 242 257 
23 29 25 27 26 23 32 28 26 30 29 28 29 32 28 32 35 36 35 35 36 41 39 40 39 41 46 43 44 41 39 34 32 32 34 34 31 34 32 34 35 35 34 32 32 32 30 32 29 32 31 31 31 30 32 28 30 31 34 32 33 37 35 37 33 32 38 38 41 65 111 151 167 174 182 189 205 223 241 259 
24 29 27 30 27 28 31 26 31 31 28 31 31 34 31 33 34 35 38 37 39 40 41 41 43 42 45 46 41 45 41 35 33 31 34 37 33 35 36 35 33 35 32 35 32 33 28 34 31 30 32 33 31 29 31 29 30 32 33 29 35 34 37 33 36 38 35 39 41 61 112 148 164 168 173 190 203 221 237 254 
27 32 28 29 29 29 34 30 32 33 31 33 33 29 33 37 35 37 43 38 41 43 40 42 45 44 48 45 45 46 42 37 31 30 37 36 32 37 34 35 37 37 33 35 36 34 31 30 32 33 31 33 33 31 36 35 32 34 37 31 35 38 34 36 33 39 39 39 42 57 106 142 162 168 172 190 199 217 236 247 
29 35 28 30 28 31 35 36 29 32 34 31 35 33 35 37 35 39 42 41 47 48 45 43 46 46 50 46 45 43 44 40 31 31 37 37 35 36 33 39 36 37 35 32 37 33 32 31 34 34 32 36 35 36 37 41 37 40 37 35 36 34 34 36 37 38 41 39 42 57 102 139 163 169 172 188 200 214 230 246 
31 33 31 35 33 31 38 30 34 37 36 36 38 33 38 41 41 42 44 44 46 46 49 47 49 49 54 49 49 45 44 37 33 33 40 42 38 37 38 39 34 37 37 39 36 34 35 32 34 36 34 36 38 38 42 45 42 43 39 34 38 37 36 36 39 37 39 41 43 54 98 136 157 169 167 182 185 188 213 250 
36 36 38 36 36 37 42 38 38 40 38 39 45 43 43 42 42 42 43 47 49 51 52 52 52 55 51 51 50 51 47 46 41 37 36 44 40 42 39 40 38 39 37 36 36 37 35 33 36 38 38 40 42 43 49 65 76 65 51 37 40 39 41 39 40 40 41 47 43 56 97 137 160 164 171 175 174 168 215 257 
37 43 39 43 37 36 45 43 42 40 42 36 42 42 44 47 49 47 50 52 54 56 58 55 56 61 60 60 58 55 54 49 40 41 45 46 42 44 41 40 43 41 42 40 38 37 37 39 38 39 40 40 46 47 80 195 168 104 63 46 42 44 41 40 39 41 45 43 47 53 93 132 162 165 171 181 183 198 229 245 
45 46 44 46 40 42 46 41 45 43 47 42 44 44 46 49 53 51 56 54 59 62 68 62 64 63 61 61 58 58 58 47 42 45 44 47 47 46 43 40 43 43 41 40 42 41 40 43 40 41 39 41 44 50 96 242 181 104 59 45 40 43 39 37 38 42 42 45 47 53 91 132 156 165 171 179 195 208 229 238 
49 50 49 49 49 45 51 49 45 48 50 43 47 47 49 55 57 54 58 63 65 66 67 65 68 68 69 66 62 59 58 51 43 45 46 50 46 45 41 39 41 44 42 40 43 39 40 41 40 39 42 41 43 46 61 96 92 70 54 45 41 41 40 40 40 42 41 46 45 49 88 126 155 165 168 182 196 211 226 237 
60 56 57 58 54 51 57 54 49 52 53 51 55 52 53 59 56 60 60 65 67 73 73 78 78 75 77 73 66 62 56 51 47 45 49 49 45 41 40 45 44 46 43 44 43 45 41 44 41 44 44 48 45 44 48 54 57 56 47 44 44 44 43 42 42 40 46 44 47 50 85 126 156 167 174 186 196 215 223 237 
75 73 66 59 54 54 60 54 54 53 51 52 55 55 56 61 56 65 66 69 75 74 79 78 81 85 80 78 67 65 58 55 47 51 48 51 49 48 57 70 48 50 48 49 45 46 45 44 43 44 45 45 45 42 48 52 50 50 47 42 44 40 43 44 44 43 43 42 44 50 75 132 154 171 177 184 196 216 223 243 


