P2
80 60
301
36 32 44 55 102 111 71 50 79 101 84 50 45 43 42 35 36 32 28 29 27 25 24 21 26 25 27 31 33 31 32 32 29 30 27 27 27 28 26 29 26 25 28 27 27 29 27 21 14 15 15 19 17 17 19 19 21 21 22 25 25 24 25 28 28 25 26 28 28 28 28 25 24 25 28 29 32 29 26 24 
32 37 43 62 104 109 66 46 80 104 78 51 44 41 41 37 32 30 28 27 27 27 26 24 29 30 32 30 29 31 30 30 29 24 25 24 25 24 25 24 28 26 28 27 26 28 28 26 16 19 16 20 22 19 21 20 25 25 26 27 26 26 28 32 26 22 23 24 24 23 24 25 23 29 27 28 29 29 24 23 
32 37 49 63 106 104 56 52 85 100 74 43 42 39 36 34 33 33 28 26 24 24 25 24 29 32 29 32 30 31 28 27 27 23 25 24 25 23 27 26 24 29 27 28 27 30 30 22 24 22 20 24 27 26 25 28 30 33 31 30 34 30 28 31 27 23 23 27 26 31 25 26 28 25 28 25 31 33 27 27 
34 37 43 72 108 100 56 54 90 95 69 43 36 36 35 34 31 31 32 33 29 26 32 30 33 25 28 31 31 30 28 27 27 24 28 26 22 24 26 28 27 28 30 26 29 32 29 32 28 27 30 29 28 28 28 31 28 31 35 31 29 30 29 26 24 23 23 25 30 29 26 26 24 28 29 27 30 29 28 24 
35 39 47 76 115 95 53 55 92 97 63 42 39 35 34 29 28 30 28 26 28 28 29 26 29 28 27 31 31 29 28 28 28 21 27 24 25 22 21 24 26 25 26 26 25 29 29 29 29 30 25 29 28 30 29 32 29 30 29 28 27 25 29 22 26 26 23 26 25 28 29 27 28 28 28 27 29 26 24 22 
33 38 49 83 109 96 54 56 96 95 60 39 34 34 34 29 33 30 30 30 32 30 28 25 26 30 25 30 29 29 29 26 22 24 23 24 21 26 24 25 25 28 25 27 27 27 27 29 29 28 27 31 26 30 28 28 28 29 25 24 27 25 26 25 28 25 19 25 30 31 28 28 25 27 31 28 29 26 23 28 
39 42 47 85 108 93 50 55 101 92 53 34 33 33 32 28 28 27 27 29 30 28 27 27 24 25 27 29 31 30 27 29 25 23 25 25 24 26 27 22 26 24 22 25 24 25 24 26 27 25 26 27 26 27 23 30 30 26 28 26 29 26 27 29 29 26 20 23 24 25 27 27 27 26 29 27 25 30 27 24 
28 35 42 82 107 84 43 49 96 86 50 29 29 30 24 25 28 28 28 26 24 23 23 21 21 22 22 25 26 27 24 25 24 24 20 23 20 25 21 23 22 24 23 24 24 21 21 22 22 23 23 23 22 25 25 24 22 25 26 26 29 32 28 25 27 22 20 20 24 25 27 23 29 25 24 23 23 29 27 27 
26 27 36 87 111 85 41 55 100 87 47 29 29 28 26 26 27 25 26 22 25 24 20 22 25 23 26 27 24 27 26 24 23 23 22 24 24 24 22 25 25 24 22 23 25 25 25 22 23 20 20 22 25 23 24 26 28 30 29 28 29 31 31 28 29 28 22 23 26 28 32 27 26 26 26 27 24 29 27 26 
9 0 17 87 109 80 34 53 107 91 40 26 23 25 24 22 23 23 23 25 23 25 21 24 21 22 24 25 25 29 27 25 20 23 23 21 24 23 23 20 25 24 25 27 24 26 25 25 25 19 18 21 24 21 25 32 31 32 30 30 28 29 30 25 29 25 21 21 25 25 28 26 27 25 26 26 24 28 30 20 
17 8 24 88 112 78 28 57 118 93 31 18 14 16 18 17 20 19 18 20 19 20 20 20 19 20 21 21 24 25 25 21 23 24 19 21 23 20 22 23 26 21 19 23 23 21 23 23 23 22 24 25 27 26 26 28 26 29 27 27 30 28 28 27 26 27 21 19 25 25 26 23 29 26 24 25 25 30 24 25 
30 25 31 98 115 77 30 63 116 92 28 15 15 14 11 13 12 11 14 14 16 18 18 19 21 19 21 23 24 24 22 22 22 21 19 22 22 21 22 25 25 24 24 26 22 23 22 24 26 26 28 26 30 28 25 31 28 31 32 33 28 32 28 29 28 27 23 20 22 27 28 28 28 26 26 25 22 26 24 24 
27 26 26 95 116 77 34 69 117 90 30 13 13 12 13 11 14 9 10 7 5 6 4 7 8 11 11 9 12 14 16 16 18 19 18 21 22 22 22 20 24 23 20 23 22 23 25 26 27 24 27 26 30 28 26 29 29 31 31 30 28 32 25 28 28 27 24 24 24 23 26 25 28 26 28 25 27 29 26 24 
24 18 33 97 105 68 36 73 116 85 26 17 13 15 16 17 13 8 10 8 8 6 7 8 4 5 5 5 6 8 3 7 10 12 16 18 21 21 21 23 24 21 26 24 26 27 27 26 24 27 27 26 28 26 25 29 30 29 31 30 28 34 27 28 28 28 23 22 23 25 26 28 30 30 29 32 26 28 23 26 
24 23 41 99 97 59 32 76 111 79 26 20 17 21 19 16 13 12 13 10 10 8 9 9 9 7 8 10 9 7 9 3 5 10 19 20 20 23 20 20 24 24 26 26 25 27 28 28 28 26 30 28 29 30 29 29 30 32 30 29 32 32 31 31 28 30 26 24 22 28 30 29 30 28 30 32 31 28 24 26 
26 23 42 104 93 53 29 79 106 73 25 18 16 18 17 15 13 12 12 11 9 9 7 11 5 7 7 5 6 7 6 6 15 15 19 22 21 21 19 18 24 25 26 25 25 25 24 27 27 27 26 29 30 29 29 30 29 29 29 31 33 28 28 26 27 30 28 22 23 26 28 28 30 27 27 30 30 23 27 27 
24 23 46 105 92 52 32 80 103 66 25 20 18 18 17 15 13 13 10 12 10 11 9 6 6 7 9 8 8 13 17 20 21 19 21 21 20 19 23 24 24 24 25 26 23 26 26 27 26 25 26 28 30 29 30 30 29 33 30 32 28 30 26 25 29 31 27 22 20 25 29 28 29 29 28 33 31 28 25 24 
23 19 47 103 94 53 30 82 101 66 23 19 19 20 14 17 14 14 11 14 11 10 11 10 9 8 12 9 13 22 24 24 23 21 23 21 24 23 23 23 25 24 24 27 26 24 28 29 29 28 27 30 30 29 27 32 31 28 30 28 31 31 28 30 29 31 29 24 23 23 29 26 29 26 26 31 33 33 28 23 
24 22 49 101 90 49 29 81 98 65 23 20 18 18 20 19 17 15 11 13 14 11 12 9 7 5 7 9 16 19 22 23 21 20 18 21 18 24 20 18 22 25 24 22 26 27 22 27 22 24 27 28 27 27 26 27 29 29 31 27 29 30 27 28 29 29 30 25 18 21 26 25 28 28 26 30 32 32 29 29 
25 20 53 104 93 51 29 89 101 64 25 21 19 18 16 18 16 15 16 13 12 12 13 8 9 9 10 7 14 22 26 23 23 23 20 19 19 22 21 23 23 24 22 28 25 27 25 26 26 25 28 27 27 31 30 30 30 32 30 32 30 30 32 30 31 29 31 27 17 21 25 28 30 30 27 31 29 31 29 25 
28 28 63 108 93 48 35 92 103 60 26 20 21 20 21 22 20 17 16 14 11 12 10 11 10 10 12 12 13 19 25 20 23 18 21 22 21 23 20 20 21 21 22 26 28 29 28 27 28 26 28 29 28 29 26 33 29 33 29 31 31 32 32 28 30 31 32 31 25 21 27 26 32 28 32 32 33 31 33 25 
33 36 75 117 89 45 35 96 102 58 24 24 21 20 18 16 19 17 14 16 12 16 13 12 8 11 11 13 10 14 21 21 20 17 18 21 19 21 23 18 22 22 23 25 25 27 25 25 27 30 25 26 26 28 28 30 29 31 30 28 31 29 32 29 30 29 31 29 24 21 20 28 30 30 31 31 29 34 27 29 
84 80 110 125 86 40 43 96 101 55 25 22 20 17 19 18 16 16 17 15 17 15 14 10 12 12 13 11 10 16 20 20 19 18 22 19 19 21 18 18 20 24 23 26 26 25 25 26 25 26 25 27 27 27 28 27 30 30 30 28 29 30 30 31 26 28 28 31 26 17 21 22 29 28 31 30 27 30 33 26 
112 110 112 105 74 38 45 99 99 55 22 22 23 19 18 20 17 18 17 18 12 16 16 14 9 13 9 13 11 16 23 20 21 19 21 16 22 24 21 23 21 27 22 27 26 26 24 26 25 27 30 30 28 30 29 29 29 31 31 31 30 30 30 28 28 31 29 32 30 28 21 23 27 26 27 33 28 33 37 28 
104 99 95 86 52 35 47 104 102 55 28 24 23 20 22 20 19 18 17 18 15 16 16 17 12 12 14 14 17 18 22 26 22 21 20 22 24 23 25 25 26 25 27 28 26 28 28 28 29 28 28 31 31 31 27 30 30 33 30 28 31 32 32 29 31 31 32 34 32 29 27 20 22 24 27 32 33 29 31 25 
44 46 48 43 31 31 48 108 102 55 24 24 22 22 20 25 20 22 17 17 17 19 14 19 12 11 14 11 15 14 24 24 21 24 23 23 27 23 26 26 27 26 26 28 28 27 25 26 29 31 30 27 29 30 28 29 31 31 30 31 33 30 32 35 32 32 32 35 32 32 33 27 23 21 22 30 29 32 27 28 
36 29 29 26 29 34 54 116 104 54 27 25 23 22 21 19 20 19 19 19 18 17 14 17 17 12 14 17 12 14 27 25 22 22 22 22 23 25 27 24 28 26 26 27 26 25 26 28 29 27 30 28 28 30 30 30 31 31 30 30 30 31 31 30 32 33 33 32 31 32 31 32 28 28 23 26 29 28 25 27 
81 69 61 51 48 55 69 128 102 49 24 23 24 22 21 21 19 17 18 14 17 18 15 15 14 14 15 15 14 13 23 22 22 22 25 25 23 26 25 25 28 25 27 27 29 28 25 25 26 25 29 27 28 30 32 31 29 31 31 31 31 30 32 32 32 33 35 34 31 30 32 30 30 30 30 32 34 30 28 26 
123 113 106 101 99 105 113 117 93 48 22 25 23 22 22 24 21 20 20 18 17 17 15 17 14 16 15 15 18 18 22 29 24 27 23 25 26 28 27 24 29 28 28 26 25 27 27 27 27 27 28 28 28 30 30 32 29 30 32 30 30 32 30 33 32 34 34 32 34 32 34 31 31 31 33 37 34 27 27 30 
102 100 100 97 96 100 99 97 78 34 24 23 22 24 22 20 21 24 20 23 21 16 18 15 16 17 17 14 17 16 23 25 22 23 25 26 24 29 25 27 29 26 26 26 26 31 26 28 28 26 26 31 28 31 30 30 31 32 30 30 31 31 32 32 29 32 31 31 35 31 34 31 31 29 34 33 34 29 33 30 
48 48 47 51 55 62 62 62 43 25 27 24 24 24 24 25 27 23 20 19 21 18 18 18 16 15 18 16 17 16 25 28 26 24 24 25 27 26 28 28 26 27 27 26 27 24 28 27 28 28 29 28 31 31 31 34 30 33 28 32 31 29 32 33 32 32 33 31 34 32 30 32 30 33 32 34 35 34 32 30 
30 24 27 30 27 32 32 29 27 20 25 26 25 27 26 23 28 23 24 22 22 22 20 22 19 18 18 20 15 17 22 26 27 23 25 27 25 31 28 28 25 27 29 26 30 28 30 31 29 26 30 29 31 31 28 29 29 29 34 31 32 34 35 32 33 35 31 35 31 32 33 32 34 31 29 35 36 34 33 31 
29 25 25 28 31 31 28 28 25 25 25 24 25 26 27 24 26 22 20 21 22 25 25 19 16 20 22 22 18 18 25 29 29 26 26 27 25 27 30 29 29 30 28 30 28 28 31 27 30 31 30 29 31 31 30 33 30 32 34 31 33 29 37 34 32 36 35 33 31 33 31 31 33 35 31 35 36 35 38 30 
29 24 26 25 28 33 26 30 24 24 26 27 30 30 28 27 26 26 24 21 23 25 20 23 22 21 24 22 19 18 25 29 30 28 26 27 26 29 28 28 28 29 28 30 29 31 27 30 31 30 31 32 31 29 31 31 30 34 31 31 36 34 33 34 33 34 34 35 33 35 34 33 33 36 33 33 35 35 36 34 
32 26 26 25 27 28 25 29 26 25 28 27 28 29 25 26 27 26 23 26 24 25 22 24 23 21 21 21 21 19 26 26 29 27 25 24 27 26 29 27 30 28 30 29 28 28 27 32 30 29 28 29 33 29 32 33 30 31 32 35 31 36 34 32 33 33 34 36 35 35 29 31 37 33 32 34 35 35 38 35 
33 26 25 24 24 31 23 26 25 21 28 29 26 27 26 27 29 28 25 24 26 26 23 26 20 24 24 24 17 22 23 27 30 28 23 25 29 27 30 28 26 27 28 29 30 31 29 32 29 27 31 29 30 30 29 33 31 36 32 33 32 32 33 30 33 32 33 37 34 34 32 35 38 34 35 34 35 38 36 38 
32 26 26 26 28 29 25 29 26 24 26 27 27 30 27 28 29 30 24 26 27 25 29 25 23 24 25 26 20 21 25 31 30 29 27 28 28 29 33 29 29 30 29 29 28 32 30 32 30 31 30 32 29 33 31 34 32 31 32 32 34 33 35 34 34 34 34 36 34 32 34 35 36 33 34 38 37 38 41 38 
33 30 28 25 28 31 26 29 26 24 29 29 26 27 29 28 28 27 27 26 25 26 26 25 26 25 27 28 21 21 27 30 31 29 30 27 27 26 30 26 29 30 32 32 25 30 30 33 31 30 31 31 29 33 32 33 31 34 31 33 33 34 33 31 35 34 36 38 36 32 37 34 37 37 34 38 38 39 41 47 
36 33 28 26 26 32 28 32 29 25 27 28 27 32 31 29 30 28 30 27 27 30 28 27 29 28 31 33 25 23 26 31 34 29 31 26 28 30 30 30 30 30 28 31 33 34 31 34 33 31 32 33 31 32 30 33 33 32 34 40 34 32 34 32 33 35 35 37 37 34 34 37 40 40 38 37 39 38 45 56 
34 30 29 23 23 33 29 32 27 27 28 30 32 29 29 32 30 30 32 31 29 27 24 28 30 25 31 30 28 24 26 31 34 27 28 30 31 30 29 26 30 31 29 31 30 31 31 31 29 31 32 31 30 31 31 30 31 33 31 31 31 30 31 30 33 36 39 35 35 38 35 34 34 36 34 39 50 55 67 96 
37 28 34 29 29 32 28 33 27 26 28 27 29 32 32 31 32 32 34 30 32 32 31 32 32 30 30 28 28 25 26 31 33 33 32 27 30 30 30 31 31 33 31 31 32 32 31 33 31 31 32 34 32 32 32 32 30 34 34 33 35 32 36 32 35 35 36 40 35 38 38 34 36 36 40 58 67 66 83 172 
34 27 28 38 29 35 32 34 28 23 31 32 31 34 35 36 32 33 33 31 30 31 34 32 33 30 30 32 34 27 29 36 36 31 31 27 30 29 33 32 34 30 33 31 32 31 32 30 33 31 31 30 33 34 34 33 31 38 33 33 35 36 34 33 34 39 40 35 35 37 38 39 39 43 44 49 62 100 193 244 
32 25 33 32 34 33 30 33 31 29 27 31 30 34 31 36 32 31 35 33 34 32 34 32 30 31 30 34 32 24 26 33 39 33 32 30 32 35 29 32 34 31 30 30 32 33 32 30 32 30 32 30 34 33 29 28 31 30 34 31 33 32 35 36 35 37 37 38 38 38 40 40 41 44 53 70 144 226 272 274 
33 26 26 34 31 36 38 35 28 26 29 33 32 34 31 38 33 37 34 37 36 34 38 36 35 33 30 29 30 27 26 35 34 32 31 32 32 32 34 32 33 30 31 29 29 31 32 31 29 32 34 30 32 28 30 30 29 32 31 33 34 36 33 35 35 38 38 37 38 37 47 56 68 98 135 188 253 277 290 281 
28 28 29 29 34 38 34 31 32 26 32 33 31 35 34 35 36 36 39 38 38 35 36 36 36 34 29 29 31 29 27 29 34 32 34 32 32 33 32 30 32 33 33 29 30 31 31 32 33 31 29 34 33 30 29 33 31 31 33 32 33 35 33 36 34 38 39 40 40 53 98 133 170 218 251 270 293 301 283 279 
33 34 30 30 34 38 33 33 30 27 29 34 34 37 37 39 39 36 42 39 42 37 38 38 33 33 29 28 29 27 25 29 35 35 34 34 30 32 34 34 34 31 31 34 31 31 33 30 28 34 32 34 32 33 29 29 29 35 33 34 35 36 34 36 36 37 41 40 47 89 139 213 256 276 282 288 298 286 261 248 
35 32 28 30 35 39 34 33 33 29 33 36 36 40 41 39 38 40 42 41 44 40 42 41 37 38 37 37 37 34 30 33 38 35 35 31 35 34 34 34 35 34 31 30 31 34 32 29 34 31 32 33 35 32 31 34 30 33 34 34 36 36 38 34 39 41 41 44 57 100 143 228 238 234 223 216 210 203 205 207 
35 33 31 30 35 40 36 34 32 30 32 36 35 38 39 41 42 40 39 47 42 41 43 40 42 48 42 45 41 41 35 29 35 34 36 34 37 34 36 34 38 34 34 33 34 33 34 32 31 33 33 31 32 35 30 34 33 34 36 38 38 36 37 35 38 38 43 45 72 105 123 150 151 158 156 163 171 179 194 221 
35 30 32 35 38 40 41 34 33 30 31 34 37 37 39 40 41 40 39 41 41 43 44 43 47 49 49 43 41 42 36 35 36 36 35 35 37 35 34 34 37 34 33 31 34 34 32 34 29 35 35 34 32 30 35 35 36 35 35 36 37 38 35 37 36 38 40 52 83 109 124 130 136 146 155 172 186 204 224 240 
35 30 28 31 34 40 41 37 33 32 37 40 42 42 39 43 45 38 44 42 42 43 40 44 42 48 49 46 43 42 35 34 38 40 38 35 38 37 37 37 35 36 36 35 35 34 31 32 31 34 33 34 34 33 32 33 32 35 39 37 36 37 36 35 38 41 42 52 85 117 136 150 155 165 172 189 202 219 240 249 
33 31 36 31 38 39 36 36 36 32 37 41 41 43 44 43 46 44 43 42 42 46 44 43 46 50 50 45 44 41 36 35 40 37 38 39 35 36 37 39 38 37 35 36 37 33 33 31 32 31 36 36 33 36 39 35 34 36 37 36 37 38 37 38 39 41 42 53 84 116 139 152 161 164 176 193 205 219 238 248 
39 33 37 32 37 41 37 37 37 35 40 40 39 41 40 44 45 44 45 48 49 48 50 46 50 49 49 48 45 43 39 36 36 37 38 36 39 36 38 40 37 36 38 37 33 35 33 34 33 37 36 34 36 42 45 42 39 38 36 36 38 38 36 39 40 41 41 49 77 116 138 153 156 165 172 190 203 219 236 250 
40 39 38 39 39 43 38 42 39 38 39 44 42 44 45 43 48 48 49 48 47 49 51 50 52 52 52 50 49 46 42 38 34 41 41 39 39 41 41 40 39 38 37 37 37 34 34 35 35 36 34 38 39 42 51 51 45 44 41 40 39 39 39 36 39 42 47 46 69 108 132 151 157 164 172 185 200 216 232 243 
40 35 38 36 42 42 42 41 41 40 40 43 47 45 45 47 48 47 49 54 53 51 52 53 53 56 54 52 47 48 40 39 41 38 40 41 42 38 39 36 39 37 39 37 38 35 35 39 33 36 37 39 42 45 61 82 72 55 43 39 41 39 39 40 43 42 46 44 64 106 132 146 156 161 170 182 197 214 232 246 
45 40 43 40 41 46 46 46 45 40 45 47 46 45 50 48 52 49 54 54 56 54 57 56 55 62 62 59 53 52 46 45 40 44 48 44 42 41 40 41 44 41 37 40 40 36 41 38 37 38 39 40 44 63 177 195 124 71 44 43 41 40 43 37 42 43 41 52 62 101 126 144 150 158 167 180 198 210 231 245 
51 49 45 48 47 54 47 52 47 46 48 51 53 56 55 56 57 59 56 59 62 62 65 63 66 64 63 57 56 54 48 47 45 49 49 48 48 46 46 43 45 43 44 44 39 41 43 41 40 41 45 44 50 75 207 206 122 72 52 46 46 41 42 42 44 45 43 49 60 99 129 145 152 159 164 178 190 205 232 239 
51 48 50 45 51 55 52 52 52 47 50 50 54 54 55 53 60 60 60 65 63 69 67 70 65 68 69 61 63 57 53 45 42 46 49 45 49 44 41 43 43 42 40 43 40 42 44 41 42 43 41 41 47 52 86 93 73 54 47 45 45 40 41 42 41 44 44 49 54 89 119 141 152 156 160 164 157 180 227 238 
58 54 51 53 51 61 54 56 54 51 57 54 56 57 58 63 62 63 65 66 68 72 72 74 75 76 74 72 65 61 53 46 44 49 53 46 49 42 41 46 42 42 43 49 47 46 44 41 44 45 42 46 42 47 52 57 53 52 47 46 42 43 43 42 44 44 49 47 53 87 116 137 147 155 158 158 154 195 224 233 
64 62 62 60 57 64 61 60 57 57 62 55 61 60 61 64 68 65 69 72 75 83 83 85 80 86 79 75 67 62 54 51 50 49 54 48 49 49 63 58 48 48 51 48 45 45 49 49 48 43 46 43 46 47 46 50 48 47 50 43 42 46 42 44 47 45 48 48 56 79 113 139 152 157 160 170 183 205 220 230 
83 76 72 71 68 68 64 66 63 61 63 66 63 64 68 70 69 72 77 80 78 86 82 80 88 92 89 76 66 63 60 57 53 53 55 53 57 71 122 87 57 56 55 54 48 44 52 48 45 47 46 44 44 43 49 48 44 49 44 49 48 41 45 42 48 46 47 51 56 77 110 135 150 157 162 175 186 203 220 226 


