P2
80 60
254
30 31 33 48 79 106 91 49 59 102 102 61 47 45 40 38 35 34 35 35 33 32 32 32 29 34 35 33 37 42 38 36 36 33 35 31 33 32 32 31 32 31 31 32 33 38 36 29 26 22 22 23 22 23 23 21 25 30 26 32 29 32 31 31 31 24 26 29 28 32 32 30 29 27 29 23 29 28 25 32 
28 31 37 48 85 109 84 48 60 103 99 62 45 46 38 38 37 35 34 34 32 32 31 34 32 36 35 33 34 39 39 37 36 35 31 31 34 31 29 28 34 32 31 33 33 34 34 31 29 27 24 27 24 25 27 26 30 29 32 34 35 36 35 36 35 26 24 30 27 30 30 30 30 32 28 27 30 30 27 27 
31 32 36 52 88 108 81 43 67 103 96 56 41 41 40 37 33 35 33 31 33 32 30 35 33 35 36 34 34 39 35 35 31 33 34 30 31 32 33 31 31 30 34 31 31 36 35 35 30 30 27 33 31 33 32 35 32 32 36 35 35 39 34 35 33 25 26 27 31 29 34 29 32 30 29 25 30 28 24 30 
29 29 35 56 96 105 75 41 72 101 90 55 43 39 36 36 36 34 33 33 34 34 34 35 37 33 34 34 36 39 38 33 33 33 31 29 28 32 33 31 31 34 33 34 33 33 37 35 34 33 34 34 35 34 32 33 35 37 36 36 34 38 30 29 33 27 24 27 33 29 35 33 31 28 27 27 30 28 23 29 
27 32 41 55 103 110 73 45 77 102 87 48 42 35 32 35 33 32 31 32 33 33 37 35 34 36 33 36 38 38 35 34 31 32 32 29 34 32 30 29 29 30 33 34 30 34 34 37 37 35 34 34 34 35 32 32 37 35 33 31 35 33 30 32 32 30 25 29 30 30 32 31 32 30 29 29 26 26 25 23 
26 34 36 66 104 97 69 47 80 101 82 40 37 35 35 31 26 33 33 33 33 36 30 34 33 32 33 31 36 35 39 34 33 31 27 28 28 30 31 26 30 30 31 33 30 32 33 31 31 33 34 35 33 30 31 32 35 31 31 33 32 30 33 30 31 30 21 27 30 31 33 32 32 30 26 27 23 23 21 27 
26 34 41 62 102 99 62 41 82 102 78 42 37 33 36 29 31 31 30 33 34 30 29 33 33 37 31 35 36 40 34 34 34 32 29 29 32 26 29 29 26 31 32 29 31 31 30 30 29 34 31 33 31 33 32 31 31 33 30 28 34 35 34 34 33 28 26 26 28 31 31 31 31 30 30 30 26 20 21 25 
22 33 35 57 103 95 59 40 83 100 70 40 34 30 31 30 26 31 29 31 30 31 28 27 28 33 29 35 33 34 36 33 32 30 28 31 31 28 26 28 29 28 31 30 32 32 24 29 28 30 31 28 33 29 29 30 34 33 33 34 34 35 32 36 31 30 24 24 30 30 31 29 31 29 29 28 26 19 20 25 
19 28 30 53 105 98 54 40 88 96 69 39 31 29 29 30 29 32 31 31 31 27 31 32 29 29 33 33 33 33 34 33 33 33 31 32 34 33 29 27 29 30 32 29 29 34 34 32 31 31 31 30 30 28 30 31 34 37 36 38 36 37 36 34 34 35 25 25 32 34 37 35 33 30 28 28 28 24 20 24 
13 8 0 49 108 95 48 35 93 105 64 34 29 26 29 24 28 31 27 30 29 30 29 32 29 32 30 31 34 35 38 32 33 31 32 31 33 33 31 30 33 28 32 31 31 33 34 32 30 30 30 34 31 31 35 33 36 38 38 37 38 35 37 33 37 35 28 27 31 33 34 35 31 34 32 31 25 28 23 28 
15 9 4 56 107 94 41 33 103 113 56 23 20 19 15 21 24 26 22 27 28 26 29 29 27 30 26 29 31 33 33 29 31 30 29 32 30 32 30 28 29 29 30 32 30 31 31 26 29 27 32 33 33 31 32 34 34 36 36 36 38 34 33 35 35 36 29 27 28 33 34 33 34 32 30 27 25 27 26 25 
19 20 21 64 113 98 41 36 100 109 54 20 18 15 18 16 15 20 20 23 20 25 25 26 27 27 28 27 32 29 35 30 30 32 32 31 30 31 31 31 30 33 32 30 32 29 26 29 32 34 37 36 35 34 36 38 39 38 37 39 36 35 34 35 35 34 30 27 28 31 32 36 37 33 33 29 25 26 24 27 
20 22 19 64 108 91 42 40 99 106 53 16 17 16 16 14 18 17 15 14 13 16 15 17 16 17 19 20 18 21 24 25 28 29 25 28 28 28 31 28 33 29 28 29 28 28 30 32 31 36 34 34 35 33 33 36 35 36 34 35 34 36 35 35 31 32 32 26 27 31 36 34 31 37 31 30 29 24 23 25 
22 25 24 70 106 88 41 45 109 108 53 23 19 16 19 15 17 18 14 15 15 15 13 15 16 14 10 15 17 17 16 11 20 16 22 24 27 28 29 30 32 28 31 31 34 34 33 36 34 36 37 39 36 33 37 35 37 32 37 39 38 36 38 37 39 35 34 27 24 31 35 35 39 36 34 33 29 28 23 27 
20 20 23 78 103 78 37 45 107 98 47 26 23 21 20 24 17 20 15 17 16 16 15 17 14 13 13 16 16 15 15 12 13 13 25 29 32 31 28 28 27 29 31 35 35 32 32 36 38 36 38 37 37 36 36 36 37 39 34 38 38 37 36 36 38 37 33 30 27 35 35 34 35 38 35 35 32 27 24 30 
21 25 23 78 102 74 34 46 104 92 44 23 21 18 23 20 17 17 16 14 14 14 16 18 16 13 14 14 13 16 14 14 18 22 28 29 30 26 27 26 29 29 32 32 34 33 34 33 34 34 37 34 35 36 35 33 37 34 34 36 35 35 36 37 36 38 37 29 26 27 32 36 38 34 31 32 30 26 26 30 
21 24 25 82 99 74 35 47 105 92 41 24 24 20 21 22 19 21 21 19 21 18 19 21 19 17 14 18 18 19 25 26 32 31 32 32 30 29 32 30 30 34 34 35 37 34 34 33 36 35 35 37 39 39 37 37 36 37 36 38 36 36 40 36 38 35 36 32 27 30 38 35 35 38 30 33 31 29 31 30 
25 22 23 86 102 74 34 52 110 89 43 28 26 23 22 23 21 17 18 21 19 23 21 23 18 21 18 20 20 27 31 33 33 33 30 31 32 31 32 30 31 34 34 34 36 35 38 37 38 40 37 39 39 37 39 37 40 39 44 39 40 36 40 35 38 40 39 34 27 26 35 36 39 36 37 33 33 35 33 32 
23 21 26 89 100 71 30 52 106 88 42 24 28 20 24 22 19 19 22 19 19 19 20 22 22 16 17 17 19 27 34 35 30 29 31 28 31 31 29 27 32 36 36 31 32 32 34 34 34 33 37 38 37 36 35 33 35 36 40 36 41 38 38 35 35 41 36 35 23 23 31 36 39 36 32 33 30 34 31 38 
23 24 31 95 100 71 35 54 106 90 39 27 26 25 23 25 20 23 22 20 19 21 24 22 20 19 18 16 20 28 33 31 32 30 28 30 30 30 29 30 32 34 35 31 32 34 33 35 33 34 38 40 39 37 37 35 39 38 38 38 41 39 38 37 36 37 39 39 29 22 31 37 41 36 35 33 38 33 29 34 
22 27 32 99 101 70 36 61 109 88 39 26 25 27 25 31 26 23 22 23 21 21 20 23 22 19 19 21 21 28 32 31 32 29 29 30 28 29 29 29 32 35 33 35 35 37 33 32 37 34 39 38 38 36 37 38 41 40 37 38 43 41 37 38 40 36 38 44 28 24 31 38 38 37 37 33 40 34 33 37 
29 32 42 113 104 69 37 69 110 85 43 29 24 26 26 24 24 25 22 21 22 22 24 20 20 17 21 21 22 22 33 30 29 28 29 29 31 31 31 27 30 33 33 31 34 31 36 33 34 39 39 37 37 37 39 36 36 38 38 38 41 41 41 39 38 39 39 42 36 27 25 37 38 37 36 32 38 31 32 35 
80 77 79 130 111 61 36 71 109 87 37 31 26 24 23 25 20 24 23 22 24 24 22 23 25 21 20 21 20 22 27 30 32 31 31 27 30 30 29 31 31 33 32 30 33 33 34 39 35 38 37 37 35 37 37 37 35 37 39 39 37 41 39 40 37 37 38 42 38 27 23 29 39 39 38 33 33 35 31 34 
107 113 108 116 96 51 37 74 106 82 39 29 28 24 25 22 24 27 24 22 22 22 23 22 21 24 23 20 21 20 30 30 32 29 27 28 31 28 29 32 32 33 32 33 31 35 34 34 36 37 36 36 37 38 38 36 38 36 36 41 40 43 38 41 40 36 41 43 38 33 25 29 29 36 34 34 34 32 34 37 
102 101 98 99 79 39 42 80 110 86 38 30 27 26 26 28 23 23 26 25 25 26 26 25 24 20 22 22 22 26 29 33 30 31 32 32 33 31 34 32 37 36 34 34 35 34 35 38 36 38 39 39 38 38 39 40 42 41 38 39 39 41 41 40 37 40 37 40 36 34 35 33 28 35 31 33 39 36 34 39 
46 48 51 58 40 35 42 83 116 85 38 28 30 27 29 29 25 27 25 26 25 28 26 29 25 24 26 24 24 25 30 33 32 31 35 32 33 35 34 32 36 37 37 37 37 37 34 36 36 37 38 39 39 38 38 40 41 43 39 41 42 41 39 42 42 41 40 42 40 37 38 40 33 29 27 26 31 34 32 35 
35 28 27 32 30 31 40 89 118 85 39 30 28 26 29 26 23 26 24 25 24 27 22 24 27 23 20 23 21 22 30 33 34 34 34 33 34 33 35 33 37 36 35 34 32 36 34 36 36 36 38 40 38 38 37 36 37 40 39 38 40 39 40 38 40 40 39 43 41 36 42 44 36 33 27 26 25 27 31 39 
78 71 58 54 49 53 54 105 124 85 41 33 29 27 29 27 28 28 27 25 23 27 26 28 25 26 21 24 23 25 32 34 36 32 34 36 36 32 34 37 37 35 35 36 35 33 36 37 37 37 39 41 37 39 38 41 39 41 41 41 40 44 43 40 44 44 43 40 41 41 44 41 44 44 41 34 34 28 32 31 
123 119 109 106 102 102 108 120 118 80 34 31 29 30 28 27 29 28 30 30 27 27 25 26 23 27 23 25 25 23 30 34 34 36 34 34 36 35 36 36 35 36 35 36 34 35 37 34 38 38 43 40 38 37 36 37 39 38 37 39 42 40 36 39 40 40 43 44 39 39 40 44 45 41 40 39 38 33 28 32 
104 109 104 108 107 107 107 107 100 66 33 29 29 27 29 28 27 30 31 29 26 28 27 27 23 28 25 25 25 26 31 35 35 34 36 33 36 34 39 35 35 36 33 37 32 34 38 37 35 36 39 40 37 38 38 40 38 40 37 39 41 39 41 41 41 44 43 44 40 39 43 41 44 41 36 36 36 29 29 37 
47 51 49 55 61 66 70 71 62 37 32 34 35 31 30 31 30 31 33 28 30 33 29 30 29 27 27 26 28 27 32 35 32 35 35 33 34 35 39 37 38 37 37 36 36 36 37 37 40 37 38 42 41 38 37 38 40 39 37 39 46 42 42 44 38 41 42 45 41 39 39 46 44 38 38 36 38 37 30 36 
34 31 28 30 32 35 40 34 36 29 29 34 31 28 29 30 31 31 33 30 27 31 32 33 30 27 25 31 27 28 30 35 35 35 36 36 37 36 37 40 37 39 38 31 36 36 37 38 42 39 38 42 40 38 37 40 40 39 38 41 41 43 43 42 41 42 40 42 42 39 44 46 43 40 37 32 35 34 34 40 
29 28 22 27 31 30 31 32 32 30 33 31 36 33 31 31 30 32 31 32 29 31 32 31 31 26 30 33 29 28 32 37 37 37 34 34 35 38 38 34 37 40 40 38 35 35 37 37 38 42 39 43 39 35 39 46 39 42 41 39 45 43 44 46 38 41 41 45 44 41 39 42 47 45 38 35 36 38 32 38 
33 28 24 30 27 31 30 30 30 30 34 34 32 31 33 31 31 32 31 31 31 32 32 32 34 28 27 29 27 28 29 38 37 35 36 37 38 34 35 37 41 40 43 36 37 36 37 39 38 41 42 42 38 39 40 40 41 40 43 41 44 43 43 42 44 43 43 46 43 40 38 43 49 44 40 36 38 39 37 40 
36 29 25 27 29 29 28 31 34 34 33 36 32 32 32 31 32 34 33 33 33 33 36 36 34 33 33 34 31 30 32 36 37 37 39 35 37 35 36 36 38 36 38 39 39 37 38 39 40 41 40 39 41 39 42 39 41 39 43 41 47 46 44 46 43 44 47 45 41 42 43 45 49 42 39 38 39 37 36 45 
33 31 22 28 26 31 31 30 33 32 34 35 36 35 33 33 32 36 34 32 33 36 36 31 37 31 33 33 32 29 32 37 38 37 36 34 36 36 36 36 37 38 38 37 36 38 38 36 41 41 43 40 39 42 41 41 42 40 42 46 45 44 41 46 41 43 42 46 41 40 42 41 44 44 40 38 39 42 38 38 
31 34 27 26 29 28 31 29 31 31 34 35 34 34 32 33 32 35 32 36 32 34 35 36 33 35 37 35 34 33 33 38 38 40 40 37 39 36 40 37 39 35 39 36 37 38 38 38 41 39 44 42 40 41 41 40 39 38 43 39 42 44 41 42 40 42 42 46 43 40 43 42 43 43 41 40 37 39 39 39 
31 28 27 28 27 30 31 32 33 31 32 34 33 36 34 35 32 34 34 35 35 36 32 35 35 32 38 39 33 31 32 37 39 38 38 37 37 35 35 38 39 37 37 37 35 38 39 42 42 40 42 42 41 41 38 40 40 38 39 38 43 44 42 45 43 41 42 42 44 42 43 42 43 42 39 37 41 37 41 46 
32 32 25 35 29 32 32 35 34 31 33 37 34 36 36 36 34 34 31 34 33 34 33 35 36 35 35 36 35 32 31 38 41 39 38 38 39 37 36 38 37 42 38 35 36 39 38 42 40 38 42 42 39 39 38 40 39 37 39 40 44 42 44 40 41 42 44 43 43 43 41 47 42 46 42 37 41 43 47 54 
30 32 27 33 32 32 36 35 33 29 35 33 34 35 36 35 34 37 34 33 36 37 38 41 40 38 36 37 35 35 31 39 41 38 40 37 39 37 39 36 41 39 41 40 36 41 42 38 39 39 41 40 40 41 40 40 43 41 42 42 41 43 44 41 42 43 47 43 43 43 43 44 45 43 42 41 47 54 56 70 
31 30 29 35 32 33 35 34 34 34 35 34 36 34 36 36 36 37 36 37 37 38 40 42 40 38 37 37 39 37 35 37 40 42 40 36 40 38 39 37 36 38 41 40 36 41 40 39 41 39 41 40 41 41 40 39 42 40 39 41 41 43 42 40 42 42 46 44 44 43 41 45 44 44 43 44 55 56 64 109 
31 31 26 35 33 33 34 35 34 35 32 40 37 38 38 35 37 39 38 38 42 38 39 45 42 42 40 38 39 38 36 36 44 40 39 38 41 38 40 38 42 42 41 40 38 39 39 37 40 37 40 42 44 41 41 41 42 37 43 41 44 43 43 44 42 44 46 46 46 44 44 45 47 46 45 45 52 51 71 152 
31 30 27 32 36 33 31 37 35 34 38 38 38 34 39 38 39 38 39 41 41 42 41 42 43 41 41 39 40 38 35 41 40 44 42 39 42 39 38 40 39 41 40 39 39 39 40 38 40 39 40 41 39 39 38 40 40 38 37 40 41 43 40 40 42 44 44 47 44 41 41 46 50 45 47 45 47 50 75 165 
31 29 24 29 33 35 34 42 37 32 37 39 38 38 40 39 39 41 42 41 42 41 43 45 45 43 41 40 39 38 34 36 41 44 42 39 43 37 41 39 40 43 43 38 37 40 38 37 40 38 41 38 39 37 34 36 38 40 39 43 42 44 40 44 41 39 44 45 44 43 46 45 51 47 45 45 53 50 70 157 
34 31 30 34 35 37 34 39 38 35 36 38 38 39 39 41 42 43 44 45 44 45 44 46 45 47 41 37 41 38 35 36 41 42 43 42 41 41 40 40 40 43 40 40 37 38 36 37 39 37 42 41 40 34 36 36 38 38 39 39 43 39 43 42 42 43 46 46 45 44 46 49 50 52 52 62 66 59 68 156 
33 36 28 35 37 37 36 36 37 34 40 42 37 42 42 41 44 45 47 42 47 46 49 48 46 39 39 40 40 34 32 33 41 45 42 41 39 42 40 42 42 42 42 41 36 41 38 39 41 39 42 42 40 40 38 36 38 40 40 42 39 42 43 41 43 45 47 48 48 48 51 67 94 108 128 157 146 105 102 167 
34 34 29 32 38 36 40 36 34 34 40 41 39 39 43 42 45 45 46 46 46 52 49 49 48 48 43 47 46 45 40 34 38 46 43 41 43 43 42 41 44 45 43 42 39 41 39 39 42 41 41 44 42 38 39 43 41 40 40 41 43 43 44 40 46 45 48 51 51 53 74 131 160 169 179 184 165 145 161 191 
34 33 30 33 33 39 39 39 36 37 35 43 40 43 40 42 43 45 43 48 46 49 48 52 51 51 53 48 50 49 45 38 39 44 41 44 43 45 42 39 41 44 42 42 39 42 40 41 38 40 40 41 41 38 37 40 40 42 39 41 43 42 41 45 46 47 46 51 63 80 108 130 142 148 149 157 161 169 185 210 
35 35 29 35 34 38 39 36 38 37 41 43 42 44 44 43 45 44 48 48 47 48 51 50 53 56 56 57 52 47 46 37 38 44 43 43 44 42 43 42 44 41 44 42 41 40 37 36 40 37 39 39 41 40 39 41 43 38 42 38 45 43 45 44 47 46 48 52 71 105 123 135 142 144 155 171 186 204 224 249 
31 32 28 35 32 37 41 37 42 40 40 45 41 41 42 41 45 47 48 49 47 50 48 50 50 55 56 56 53 51 45 40 39 47 45 45 43 44 41 44 45 42 41 43 41 40 39 38 39 40 42 41 42 39 39 41 39 43 39 42 45 45 45 43 46 46 45 51 74 109 137 156 162 170 173 190 205 219 238 253 
36 34 31 38 34 37 39 39 43 38 44 43 43 43 47 48 45 49 52 50 52 52 55 53 54 55 61 55 52 53 49 42 38 46 47 46 45 47 46 44 46 45 46 43 39 41 36 40 42 40 44 45 45 39 44 42 41 43 44 43 48 46 45 46 46 46 49 50 73 111 142 161 167 176 181 194 204 219 242 254 
36 33 33 38 33 40 38 40 41 44 45 45 47 43 44 44 47 49 50 52 53 50 54 57 54 58 58 60 56 54 50 42 41 45 46 46 45 44 44 43 48 47 47 44 40 42 40 40 41 44 42 43 44 46 49 52 44 44 47 45 46 48 47 45 45 44 51 49 65 103 136 160 166 171 178 187 202 218 241 245 
40 39 36 40 38 39 41 38 44 42 45 46 44 48 48 47 47 52 54 50 55 57 55 58 60 60 57 58 53 53 52 46 41 46 50 49 48 44 45 45 46 46 47 43 41 45 40 42 42 45 42 46 44 44 57 58 52 53 48 47 46 45 43 48 47 45 48 53 62 101 133 156 163 170 177 189 203 217 237 243 
40 38 36 40 37 42 43 38 45 43 45 47 46 44 48 51 53 51 54 54 59 59 59 58 59 62 60 62 55 58 55 46 42 48 52 50 49 48 49 45 47 47 47 45 45 47 41 41 43 45 44 47 43 49 61 81 90 69 56 48 45 50 46 49 46 47 51 49 57 96 129 154 161 168 174 183 198 215 235 246 
42 45 39 43 44 46 50 45 48 46 49 48 49 53 49 52 52 53 57 59 61 62 64 67 68 67 66 64 62 63 59 51 50 49 52 50 51 50 49 48 47 48 50 48 43 47 44 46 45 47 47 49 50 59 110 224 159 102 66 53 50 49 51 52 49 52 48 53 56 86 124 154 159 168 172 185 195 214 233 247 
49 47 43 46 43 51 50 46 49 50 52 58 51 58 55 58 57 57 60 63 69 67 69 73 71 70 71 69 64 64 60 53 48 48 56 53 54 54 51 47 52 50 52 47 46 48 46 46 47 48 49 50 55 63 129 253 167 99 65 53 52 48 49 49 52 52 52 56 53 82 119 151 159 163 169 178 191 201 226 242 
54 44 43 50 48 50 52 49 53 54 51 56 57 55 57 56 58 59 62 66 71 74 75 72 74 75 73 69 69 66 61 54 51 56 56 55 56 55 50 50 50 51 52 47 46 49 49 48 48 51 50 51 54 57 74 103 93 70 58 50 49 46 48 48 47 51 53 54 55 75 114 143 155 161 167 172 166 168 215 234 
57 53 50 53 52 55 60 56 55 56 58 62 56 59 61 62 63 68 71 71 76 77 82 78 81 81 84 79 74 67 64 59 50 54 57 55 56 51 52 51 51 52 53 52 51 50 48 51 53 52 50 52 55 52 58 63 64 61 57 48 50 49 52 48 52 50 53 56 55 69 107 141 158 163 164 169 167 179 226 233 
69 65 60 65 62 61 63 59 60 60 68 65 61 62 64 65 64 69 74 78 82 85 89 91 90 91 92 85 78 72 66 64 57 56 59 58 55 55 65 70 59 54 59 55 54 53 54 56 56 53 54 55 52 51 47 55 54 53 53 50 51 52 51 47 51 54 54 56 56 64 107 140 156 163 165 176 183 201 220 231 
96 88 80 77 71 65 67 66 62 63 67 71 63 62 66 67 71 72 78 77 85 86 90 88 91 97 99 89 78 71 67 62 58 59 61 62 62 64 95 135 71 61 65 56 57 54 57 55 55 54 56 54 52 52 53 52 52 55 52 53 52 51 50 49 58 54 52 59 58 60 106 139 153 167 168 173 181 199 222 225 


