P2
80 60
248
23 24 28 39 75 102 88 44 54 94 89 54 41 37 36 32 32 29 27 31 29 28 24 24 23 24 25 29 31 38 33 29 28 27 28 27 24 24 27 26 26 26 26 28 30 32 29 25 17 17 19 19 22 18 19 19 20 23 20 23 23 23 26 26 25 22 16 23 25 25 26 24 21 18 19 20 21 22 19 19 
20 25 32 46 80 106 82 40 55 95 88 52 40 37 35 29 33 30 27 28 28 24 26 26 28 26 28 27 27 34 30 29 28 29 26 24 25 26 24 25 27 25 26 28 29 30 27 24 21 20 19 23 20 22 22 22 24 22 23 24 29 28 29 32 28 19 16 21 23 22 23 19 23 25 19 19 23 24 20 19 
21 26 32 44 81 105 74 38 60 94 84 46 32 32 36 29 30 32 25 28 26 24 25 25 27 25 28 29 30 34 30 29 26 22 26 23 22 26 27 27 28 25 25 29 28 29 30 29 23 21 23 26 27 27 26 29 27 27 28 30 28 28 28 28 27 18 17 19 21 23 25 24 21 23 19 18 23 26 19 22 
24 25 33 47 90 99 70 37 63 97 78 46 33 30 32 29 30 30 26 28 30 26 27 27 29 27 27 28 30 34 31 29 26 25 24 20 21 25 25 25 27 29 29 28 28 26 28 30 26 30 30 30 29 29 26 28 27 31 28 30 27 30 27 24 26 20 16 17 25 24 26 27 20 19 17 20 22 23 15 19 
25 31 37 49 95 102 67 40 71 94 75 40 35 31 29 27 27 28 24 24 28 27 29 26 28 26 27 32 30 31 29 29 25 23 22 20 27 26 26 24 23 28 29 27 25 26 30 31 31 32 29 30 30 30 27 27 29 27 27 25 26 26 25 22 24 21 15 20 24 24 28 21 22 21 20 18 22 22 11 18 
24 26 36 55 98 93 67 42 75 97 73 35 30 29 28 25 24 28 26 23 29 29 26 26 26 25 26 26 28 30 30 27 25 25 24 25 23 26 23 21 24 25 27 27 27 27 26 29 24 29 28 32 31 28 27 28 30 26 28 27 25 23 25 25 27 25 15 16 25 25 25 24 24 22 21 21 18 17 13 18 
21 29 38 56 100 93 59 38 77 97 68 33 29 30 28 24 26 26 25 30 29 25 25 26 26 26 26 29 31 32 28 29 25 23 21 24 28 25 27 21 26 24 26 26 29 26 24 27 27 30 28 29 27 31 28 26 26 28 26 26 25 27 27 22 26 21 17 17 23 22 25 24 24 21 24 22 22 13 11 14 
21 26 31 50 98 89 56 38 77 97 62 30 28 23 25 24 23 27 24 28 25 24 22 23 23 23 25 27 29 29 28 25 23 24 21 25 25 26 25 23 22 24 25 26 26 26 23 23 23 27 26 23 28 28 25 25 28 28 27 28 28 32 24 25 27 27 18 15 22 25 28 26 22 21 24 21 19 16 14 18 
16 24 27 49 103 90 51 37 83 95 60 29 22 24 25 24 25 27 25 25 26 23 23 23 26 24 26 28 29 31 27 25 21 22 23 27 27 28 25 22 26 24 28 25 26 28 28 27 24 26 22 23 25 24 26 29 28 29 29 32 31 33 29 30 26 29 16 16 23 26 31 29 24 25 24 21 19 18 16 16 
7 1 0 43 102 86 48 31 86 99 57 25 18 22 23 21 20 25 24 26 21 24 22 24 22 24 23 25 27 30 32 28 24 23 25 26 27 27 25 26 26 25 29 27 27 26 29 27 25 25 24 26 26 28 32 29 29 30 32 31 33 29 30 29 29 31 20 19 23 28 29 26 27 25 25 24 19 21 17 16 
9 5 5 47 103 88 36 26 99 109 52 15 13 11 11 15 19 22 18 24 24 20 20 23 20 23 22 24 25 28 26 25 22 23 22 23 23 25 23 22 24 25 25 25 27 26 25 23 24 23 27 26 27 31 27 30 33 31 32 32 32 28 26 31 29 28 19 18 19 27 29 28 25 24 25 19 20 18 15 16 
12 16 18 57 109 87 37 33 99 105 47 15 12 11 13 8 10 15 17 21 16 19 20 21 20 20 20 22 21 25 30 24 23 24 25 22 25 25 27 26 24 25 28 25 27 26 22 25 27 27 32 31 32 32 31 35 36 31 29 33 33 26 28 29 32 31 24 18 27 29 25 29 27 27 28 22 20 21 17 23 
14 15 18 54 105 84 40 36 97 102 43 11 10 10 8 8 13 13 7 8 6 8 8 9 7 13 13 12 11 17 16 20 17 21 19 21 22 26 25 24 27 23 24 26 24 24 26 27 27 30 29 30 31 30 29 32 30 28 27 30 30 29 27 30 26 28 23 17 22 25 31 27 21 26 25 23 21 19 19 16 
16 19 19 61 102 80 38 40 100 100 42 16 11 10 12 10 14 13 9 10 10 8 4 6 9 4 3 7 8 11 11 4 14 9 17 18 24 25 22 26 25 23 26 24 26 28 27 29 28 31 30 31 30 30 35 30 34 27 32 33 32 29 31 32 30 31 26 20 17 25 31 31 26 30 26 26 22 21 18 18 
15 18 19 69 96 69 36 39 100 95 36 19 15 16 16 16 16 13 11 11 10 9 8 7 6 7 7 9 12 10 10 7 2 6 17 21 24 29 24 22 23 27 24 30 29 27 24 30 32 30 32 32 31 34 32 32 34 32 31 31 33 31 33 32 32 30 26 22 22 28 30 30 26 30 27 25 29 18 19 21 
16 16 22 71 97 66 34 43 98 86 37 18 12 14 18 14 12 13 10 9 8 6 8 8 7 7 9 7 10 13 6 9 10 16 21 23 22 21 21 22 25 26 25 27 28 29 29 27 28 27 30 30 29 32 33 30 33 29 31 32 29 29 30 32 30 31 27 21 19 22 29 30 28 24 26 26 27 22 20 21 
14 17 23 75 96 65 32 42 102 88 31 18 15 16 17 15 16 15 12 14 12 13 14 10 10 8 9 10 14 15 21 20 25 25 24 26 22 25 24 25 24 30 27 31 31 31 30 29 30 28 31 31 32 33 32 35 32 31 32 32 30 31 31 32 34 29 28 24 20 26 35 30 27 30 25 27 29 26 23 21 
16 15 22 78 94 66 30 44 101 86 33 17 16 16 16 17 18 13 13 13 13 15 16 13 10 13 9 11 15 20 26 26 24 27 24 22 25 25 25 26 26 27 28 29 33 34 32 33 31 33 31 33 35 31 36 32 34 33 35 34 35 32 32 30 33 34 28 26 19 22 33 30 28 28 30 25 27 28 25 24 
19 13 25 81 92 61 30 46 99 84 33 14 16 15 17 16 15 14 13 13 16 13 13 12 11 9 12 11 15 20 27 25 22 23 23 25 25 26 24 24 25 27 30 30 29 27 30 28 30 28 32 31 32 35 31 29 32 30 32 31 35 32 33 29 32 33 28 30 16 18 29 28 28 27 25 27 25 30 23 29 
18 19 30 85 95 61 31 49 103 84 30 19 18 18 19 16 18 20 16 16 17 15 16 14 13 10 12 8 15 23 29 24 25 21 22 25 25 27 25 25 27 29 31 28 29 30 32 31 26 29 31 34 33 35 34 31 33 34 30 35 33 33 28 32 30 30 32 30 22 16 26 29 29 26 31 27 28 28 23 23 
22 21 30 93 95 62 34 54 103 81 30 17 18 19 19 20 21 20 19 17 16 17 15 15 16 15 9 15 14 19 27 23 25 21 24 25 23 23 28 28 26 27 29 30 31 31 30 29 31 30 34 34 37 31 33 34 33 34 32 32 34 33 32 37 35 33 34 34 21 16 25 30 28 28 29 26 32 29 25 25 
25 25 42 105 96 62 34 63 103 79 33 21 16 19 18 14 20 20 17 19 17 19 15 15 15 11 14 14 16 16 24 26 24 23 22 23 23 27 27 27 27 28 27 29 31 29 29 29 30 30 34 32 32 32 35 30 30 32 32 34 35 32 33 35 33 33 34 33 30 21 19 30 29 29 26 28 30 30 26 27 
73 72 76 122 102 53 36 67 104 79 27 20 16 16 15 17 19 18 17 17 19 18 15 14 17 15 15 13 13 14 23 25 25 22 22 22 24 26 23 25 26 28 28 28 27 29 29 30 29 31 33 31 34 34 35 30 31 29 31 32 30 33 30 33 32 32 31 32 30 19 20 23 27 28 30 27 29 28 24 27 
99 104 107 106 90 45 37 71 103 77 29 21 20 20 17 17 18 20 16 17 16 18 17 14 14 16 14 15 14 16 23 24 24 23 23 21 25 25 24 27 28 26 27 28 29 28 29 29 27 31 31 32 34 36 33 28 31 27 29 34 32 34 34 35 37 31 32 34 28 27 20 16 22 27 27 28 26 28 24 27 
97 98 94 90 71 33 40 75 106 80 30 22 22 19 25 19 21 19 21 20 18 19 16 19 15 14 16 17 16 22 23 27 23 25 23 26 27 27 27 28 30 31 28 30 31 27 33 32 30 32 32 32 36 36 36 33 32 33 33 34 34 35 35 35 34 36 32 33 32 26 27 19 16 22 24 28 27 32 25 23 
42 44 51 49 35 29 40 79 112 81 27 23 21 20 23 24 21 22 19 19 22 21 16 20 17 17 17 18 20 19 26 27 25 26 29 25 28 30 28 30 30 30 32 30 33 30 29 31 31 31 33 35 36 34 36 35 34 35 31 35 32 36 35 39 34 35 32 36 34 30 33 30 21 17 17 19 21 28 22 22 
29 26 27 24 25 24 37 84 114 78 31 23 19 20 23 19 20 20 17 20 20 20 18 17 21 15 16 16 18 17 22 27 26 29 26 25 27 28 28 29 31 31 31 30 31 31 30 31 32 29 33 34 35 33 33 32 33 33 32 32 34 33 35 34 33 35 31 35 33 32 32 35 29 22 19 19 20 22 23 24 
79 69 54 47 44 45 52 100 118 82 33 24 18 20 22 20 22 22 20 22 19 19 21 20 19 20 18 18 17 20 25 30 28 28 26 26 28 28 29 32 31 30 30 30 29 29 33 30 31 31 35 33 33 33 34 35 30 33 34 35 33 32 35 34 35 35 36 32 31 33 35 33 33 31 30 31 29 23 21 23 
121 114 105 99 97 96 104 114 109 76 27 23 20 21 19 20 24 21 23 22 21 23 17 19 17 18 20 18 19 17 24 28 27 28 25 30 27 31 30 32 30 32 30 30 31 30 33 30 33 32 36 32 32 33 33 30 33 31 34 32 36 32 31 34 33 34 34 35 31 34 33 32 31 30 31 31 33 28 22 23 
102 104 99 98 98 98 107 102 94 59 26 21 20 19 19 21 23 24 24 23 22 24 19 21 18 19 20 23 18 19 25 29 27 26 27 27 29 31 31 32 29 31 31 33 31 30 33 30 31 32 32 33 32 35 33 36 33 32 32 34 35 32 36 35 36 38 36 38 33 32 37 34 32 30 28 32 28 27 26 24 
45 51 50 50 54 60 67 66 56 33 25 25 25 22 22 23 25 24 24 21 21 27 20 24 20 21 19 20 20 22 25 30 28 29 29 26 28 32 32 31 31 30 33 35 35 32 31 32 31 33 35 36 41 37 31 33 35 33 32 35 36 34 37 37 33 34 33 36 40 36 35 39 34 30 31 30 32 33 26 28 
27 29 27 26 24 28 37 30 29 26 23 26 25 23 25 25 23 24 27 22 23 25 24 27 23 20 17 25 22 23 27 29 28 30 30 30 32 29 31 34 32 33 34 31 34 33 31 32 35 32 33 38 37 34 36 36 35 35 33 35 35 35 37 36 34 35 32 36 39 34 39 42 35 34 32 29 31 31 26 26 
25 23 23 19 24 26 29 22 26 24 24 23 26 25 27 25 23 26 24 24 24 25 24 23 23 20 22 25 26 22 24 28 28 29 28 27 31 30 33 31 33 32 33 34 31 31 32 33 34 38 36 38 35 33 36 38 34 33 33 32 37 34 36 39 34 33 35 34 35 31 37 42 38 36 33 30 30 34 26 25 
24 22 21 21 23 25 23 21 23 25 22 23 23 24 25 26 27 25 26 26 25 26 25 24 26 21 21 24 21 23 22 32 32 28 28 27 29 27 31 32 37 35 32 31 31 32 33 32 32 35 37 33 36 35 34 35 34 33 36 34 35 35 37 38 36 36 35 38 35 35 34 33 37 35 35 29 32 36 30 30 
29 22 23 21 22 23 24 23 26 26 22 25 24 25 25 26 29 27 26 26 27 27 27 26 26 24 25 26 25 26 26 32 30 28 31 27 32 30 30 34 35 30 34 32 32 34 32 32 33 36 33 38 36 33 35 36 33 34 38 36 35 40 35 39 38 39 36 35 34 33 36 37 36 33 35 33 30 32 31 32 
29 25 22 20 21 25 30 24 26 26 24 24 26 28 27 25 28 27 27 25 28 30 28 24 29 23 26 26 25 24 28 28 33 28 29 26 30 32 29 31 30 32 32 33 34 32 32 33 35 34 36 35 35 38 37 35 34 33 35 39 38 36 33 38 37 37 34 37 33 35 37 35 36 36 35 33 32 36 30 31 
28 26 27 20 24 21 29 23 24 25 25 26 27 26 24 26 25 33 25 30 27 26 28 28 27 28 28 30 30 24 25 33 32 27 33 29 32 33 31 31 34 31 33 35 33 33 34 34 36 35 37 35 35 36 36 34 32 33 33 33 35 35 34 35 34 35 33 37 37 36 39 35 33 35 32 34 34 33 32 34 
26 25 25 21 22 21 25 24 26 26 23 27 26 25 28 30 29 31 26 27 30 28 28 27 27 25 31 31 28 26 27 31 29 33 31 31 32 31 31 32 32 29 33 33 35 33 34 37 36 36 37 37 36 36 34 33 35 35 34 35 36 34 35 36 37 36 34 35 39 36 37 33 35 37 32 31 35 29 36 40 
27 27 26 24 24 25 30 30 29 23 28 29 29 28 29 29 31 31 29 31 31 31 27 29 30 29 32 27 28 28 25 32 32 33 31 32 34 32 34 34 35 36 35 33 31 34 34 39 38 35 38 36 35 36 33 37 36 32 34 33 37 34 35 35 36 39 34 37 36 38 37 38 34 36 33 33 35 37 42 48 
26 28 26 25 28 27 30 29 27 26 23 25 26 27 29 29 32 34 31 29 32 32 31 30 32 29 32 31 30 30 27 34 32 33 32 31 34 33 34 32 36 33 37 35 33 36 38 35 34 36 37 37 35 39 40 36 38 36 34 35 35 35 37 35 36 37 38 36 35 34 39 39 36 36 35 36 41 47 53 63 
27 24 27 26 25 27 32 29 27 29 23 27 27 27 30 27 32 31 31 32 34 33 33 34 32 32 30 30 34 32 31 30 37 33 31 30 33 35 34 32 35 34 36 35 35 37 37 37 37 34 33 35 40 41 41 38 39 36 37 35 34 36 37 35 36 37 38 39 38 41 39 37 38 38 34 39 47 50 54 103 
28 27 24 28 27 30 31 28 26 30 27 30 29 31 31 30 34 32 31 33 34 33 35 36 35 38 34 31 35 34 31 33 34 34 32 33 37 33 33 33 36 37 38 35 34 36 35 34 33 34 36 39 40 39 42 37 39 34 39 39 37 35 39 39 38 37 38 37 38 38 42 36 37 34 35 37 45 48 60 136 
28 27 26 22 30 26 28 30 29 25 27 28 29 30 30 32 34 33 32 35 34 35 35 36 35 36 35 34 35 33 32 36 33 34 34 33 35 35 34 37 35 37 37 33 34 34 34 34 33 34 34 35 34 37 36 36 33 35 34 35 34 36 36 34 34 40 38 38 38 37 43 37 40 37 38 39 40 46 60 147 
26 24 24 24 27 31 33 35 31 25 27 28 29 31 34 31 31 35 34 36 37 35 36 37 37 37 35 32 32 29 29 31 33 35 38 35 38 34 35 34 34 37 37 33 36 34 33 35 34 35 33 35 36 33 31 32 34 33 35 36 35 35 37 39 37 37 38 35 39 36 40 38 39 38 35 40 47 43 60 142 
27 26 26 26 26 30 32 34 30 29 26 29 29 31 32 33 39 41 37 38 38 41 39 38 39 37 32 30 35 32 28 29 36 33 35 38 33 39 35 35 35 35 35 35 35 32 32 35 34 34 36 36 38 31 33 32 34 35 33 35 35 35 37 36 36 41 37 36 39 38 41 43 43 44 43 56 56 52 60 136 
25 28 23 28 30 30 34 30 31 27 26 29 30 35 31 35 37 38 40 37 40 40 43 41 40 33 36 32 32 31 26 29 35 39 36 36 36 35 34 36 36 35 35 36 33 33 34 35 37 32 36 35 35 35 37 31 34 34 36 35 37 33 34 34 40 39 38 39 41 40 44 65 84 98 121 146 130 93 90 154 
28 28 28 27 30 30 37 31 29 30 28 32 32 33 35 33 38 38 38 40 40 44 43 43 42 40 38 39 39 40 35 28 31 38 34 34 35 36 35 35 36 38 35 36 38 34 34 34 37 33 36 36 37 35 32 35 38 37 37 33 35 37 39 36 39 40 40 42 38 45 75 128 150 159 171 175 156 140 150 181 
29 26 25 24 26 30 37 35 31 29 27 31 31 34 33 37 37 37 38 42 39 41 40 42 45 45 47 43 45 42 38 32 31 37 35 36 35 39 36 36 38 38 36 37 36 36 33 37 34 36 35 35 35 35 31 34 34 34 32 35 38 35 37 39 39 42 36 42 49 73 106 124 134 138 142 151 158 165 178 198 
31 27 23 29 26 30 37 32 34 29 29 32 32 34 37 39 39 38 39 42 41 39 42 42 45 47 50 48 45 44 41 33 30 36 37 37 39 37 40 37 38 36 38 38 38 34 30 33 34 35 33 34 36 37 34 35 36 34 34 35 39 35 36 38 38 39 40 43 65 99 119 132 133 140 149 164 176 198 213 237 
28 25 26 27 30 27 35 28 35 33 29 34 33 34 38 35 39 39 39 44 40 42 41 42 42 46 50 47 46 46 39 33 34 38 36 38 38 37 37 40 37 37 35 38 38 36 34 34 34 36 35 35 35 37 33 34 32 34 32 37 38 35 36 38 39 38 41 42 64 104 133 145 152 157 168 183 199 216 230 242 
29 26 27 28 28 29 35 32 39 33 34 32 34 35 42 40 41 40 44 42 44 43 47 47 44 48 56 48 49 49 44 35 33 38 40 39 40 39 42 39 39 38 37 40 38 35 32 34 35 34 34 37 39 40 38 39 38 33 36 37 37 38 38 39 40 40 41 42 62 105 134 152 156 168 176 188 196 215 232 248 
32 29 31 28 30 33 38 35 35 36 34 37 37 39 40 41 41 41 43 47 47 44 49 47 49 49 54 52 49 50 46 35 35 38 40 41 40 36 41 40 43 41 38 40 35 38 39 37 35 37 36 37 40 44 43 46 39 39 38 40 40 43 40 42 41 40 43 41 57 97 130 147 156 166 169 182 198 218 234 239 
36 32 32 32 30 34 38 33 36 36 34 37 35 44 41 40 44 44 47 45 49 50 51 48 53 52 54 53 51 48 45 39 35 40 41 41 39 40 41 41 41 39 40 39 38 38 37 38 34 37 36 41 39 42 50 51 45 49 41 41 42 40 37 41 43 42 41 44 52 93 123 146 154 163 170 182 196 213 225 233 
35 34 36 33 31 39 40 36 39 37 37 39 37 39 40 45 46 42 42 49 51 51 52 51 52 53 54 54 51 51 49 39 37 39 44 42 40 41 42 40 41 42 42 42 40 42 37 36 38 37 36 40 41 45 56 72 82 60 45 42 40 42 41 40 41 42 43 41 50 90 123 143 152 160 168 178 192 211 225 233 
38 38 38 36 39 40 43 38 39 40 41 39 41 45 46 46 50 51 50 55 55 58 57 56 57 59 60 58 59 58 55 47 42 43 46 44 44 44 48 46 43 45 43 44 44 39 38 40 40 40 43 44 47 56 106 217 158 96 58 45 44 41 44 46 40 45 43 45 50 81 122 141 151 159 166 177 191 212 222 232 
43 42 38 39 40 44 47 43 42 43 43 43 44 48 50 54 52 52 51 57 61 60 62 62 64 63 64 63 59 59 54 48 42 43 49 47 50 47 47 44 45 46 44 42 46 44 43 43 40 41 46 43 49 61 128 248 161 90 57 45 47 42 43 43 44 43 44 47 48 72 115 139 151 156 162 173 182 194 219 235 
45 41 42 42 43 43 49 42 44 45 43 44 45 49 50 49 53 54 57 61 65 67 68 63 67 67 66 64 63 60 55 48 45 46 47 49 50 48 44 45 44 44 44 43 45 44 46 42 41 41 44 45 48 53 72 98 88 63 51 44 44 43 41 44 43 47 44 45 50 71 106 137 148 156 160 164 158 162 210 224 
53 51 48 44 48 49 52 46 46 47 47 45 49 52 51 54 62 61 64 65 68 69 76 70 73 73 77 74 70 63 56 50 41 43 47 49 49 42 45 45 47 47 46 48 47 46 44 47 44 44 46 49 48 46 52 57 59 53 50 43 45 44 41 41 46 46 45 45 50 66 102 133 147 154 158 160 155 175 214 225 
65 58 58 59 55 55 56 50 55 51 54 54 50 54 57 55 61 62 66 73 77 77 82 81 79 79 82 81 73 66 58 53 49 48 49 51 47 49 56 67 53 50 50 49 50 47 50 49 46 46 48 48 48 45 44 50 51 46 44 44 46 45 44 43 46 45 44 48 49 57 99 129 145 153 156 168 174 193 209 217 
92 84 76 67 64 57 65 57 55 57 56 58 53 58 63 61 66 66 71 73 78 80 82 84 83 91 92 83 74 68 63 57 51 52 51 55 58 55 90 129 66 54 57 54 57 49 53 51 47 45 49 51 49 46 50 48 46 47 44 46 47 45 43 44 51 47 44 49 48 52 102 128 144 158 157 166 172 193 215 220 


