P2
80 60
230
22 20 22 25 18 18 23 22 22 20 23 19 22 19 21 20 24 22 16 14 13 21 21 22 20 22 20 13 19 18 16 18 22 20 23 23 23 26 25 25 23 19 20 18 20 21 20 19 21 18 16 18 17 16 18 14 15 15 17 13 14 7 12 16 12 13 10 20 17 20 18 17 17 16 18 18 10 17 14 20 
16 15 21 19 16 21 22 22 21 18 19 19 18 16 17 18 17 24 18 11 19 19 15 17 19 22 19 12 18 17 17 17 21 17 20 23 21 23 25 24 22 18 19 20 16 18 17 20 21 17 16 17 17 18 16 14 12 13 16 10 10 9 10 13 13 12 14 14 16 17 17 21 17 17 15 17 16 33 42 61 
17 15 17 19 16 19 17 24 21 18 17 19 20 19 20 18 21 19 14 12 15 21 16 16 16 19 19 12 19 19 16 18 19 19 15 19 19 22 21 22 21 21 20 19 16 16 21 17 20 18 13 14 16 18 15 14 10 11 14 15 13 11 10 13 14 11 11 16 15 16 16 20 17 18 14 14 35 61 81 93 
17 14 20 20 18 19 21 21 21 17 21 18 17 22 20 25 27 25 18 16 21 22 18 20 15 19 16 15 20 21 19 17 23 18 21 21 17 21 22 25 21 21 18 18 20 19 18 19 21 19 11 14 14 17 16 14 14 11 12 17 13 14 14 16 13 13 13 13 16 16 13 17 14 16 12 25 50 66 73 80 
15 17 16 21 16 23 19 22 23 21 20 19 21 18 23 29 36 32 19 19 20 22 20 19 20 25 20 14 23 23 20 22 22 22 20 22 22 24 22 20 20 21 19 19 19 19 17 18 18 18 8 15 16 15 15 15 17 15 17 15 13 13 12 15 16 12 12 16 16 15 16 15 14 15 17 30 58 63 69 74 
15 12 18 21 18 20 21 18 22 18 21 17 17 21 20 28 33 42 23 14 20 23 19 22 15 21 19 16 20 21 23 24 22 23 24 24 20 24 21 21 19 24 20 20 22 16 18 15 15 8 5 6 14 15 13 15 15 16 15 15 13 11 12 13 14 15 17 13 14 14 14 15 14 16 15 28 51 55 61 67 
17 13 17 20 12 21 19 14 19 18 19 19 19 16 18 23 26 29 21 18 22 23 21 24 18 24 20 15 22 22 22 23 25 22 24 23 21 23 24 21 22 25 23 21 19 15 17 18 14 10 1 1 11 14 13 15 14 14 17 14 12 12 11 14 13 14 11 14 13 15 16 15 14 14 14 24 41 55 53 67 
12 12 17 21 19 23 21 19 25 19 20 17 17 22 23 19 23 24 17 18 19 24 20 19 21 22 21 16 22 24 21 20 23 22 20 21 23 24 21 22 20 23 18 17 19 15 21 18 18 15 7 7 16 16 16 14 15 15 13 14 13 12 12 14 15 15 12 15 12 15 11 14 15 11 11 16 28 46 64 76 
14 14 19 17 21 22 28 20 29 24 27 23 22 25 25 22 23 25 19 18 19 20 22 22 24 22 25 19 19 22 21 23 25 20 22 23 19 23 24 22 20 20 22 21 21 19 20 20 19 19 17 16 15 13 13 14 12 15 14 16 14 13 12 13 16 12 13 15 17 15 14 19 18 17 15 13 13 24 37 71 
13 17 22 20 21 24 25 25 31 20 25 22 25 24 26 20 26 25 19 19 22 21 22 17 17 24 23 18 24 27 25 21 20 24 22 25 24 22 22 23 21 21 22 23 22 20 20 18 21 18 18 16 12 9 15 14 16 13 15 17 15 11 14 12 13 11 15 19 17 17 15 14 15 17 18 16 12 13 15 20 
15 13 20 27 18 27 27 25 31 28 27 28 29 28 26 25 24 25 22 24 27 28 21 14 12 19 27 20 21 26 22 21 24 22 23 23 24 22 25 20 22 22 23 19 19 18 18 21 20 20 18 14 15 9 16 14 16 15 15 18 13 10 13 13 15 13 12 16 17 16 13 14 14 9 15 16 13 8 2 3 
23 24 20 29 25 35 47 54 55 48 42 39 38 37 30 39 41 33 22 26 28 26 22 8 6 11 26 24 24 27 26 26 23 22 23 25 21 24 26 21 24 21 22 22 23 17 21 20 22 22 16 17 16 9 14 13 16 17 15 16 16 14 14 17 14 12 16 15 15 15 13 16 11 14 9 14 10 7 6 4 
19 24 20 33 48 73 91 98 99 88 75 70 75 66 59 73 82 75 44 32 28 27 25 20 12 20 22 24 22 27 24 21 14 24 24 25 25 25 23 20 21 22 22 18 22 21 22 23 22 20 16 15 17 11 10 10 13 14 14 17 14 12 12 13 13 11 14 16 14 14 11 11 13 13 12 15 12 9 9 7 
20 24 24 55 90 116 134 138 136 122 112 106 113 104 98 102 113 109 101 78 43 37 31 28 28 26 26 24 26 28 25 25 20 19 23 26 25 25 23 23 24 24 23 19 19 19 23 21 20 22 16 14 17 11 13 14 11 15 16 15 15 12 14 14 14 13 15 14 17 13 12 14 13 15 11 10 8 11 8 2 
16 27 33 90 137 152 154 152 154 147 134 128 128 139 135 125 149 157 152 146 104 70 52 35 34 30 27 25 22 24 26 24 21 14 12 20 29 27 25 23 22 24 23 23 19 18 25 19 21 19 21 17 17 16 13 14 13 14 15 16 13 13 13 13 14 13 14 12 15 11 15 13 13 11 10 11 17 10 9 10 
17 28 50 130 163 167 169 165 164 158 153 140 143 149 157 156 171 186 182 188 175 139 104 79 50 37 32 32 26 28 28 28 24 21 15 22 30 30 27 22 23 26 22 22 28 25 24 21 23 21 25 21 17 18 16 18 15 15 18 14 17 15 17 12 16 15 16 17 16 15 12 11 13 14 15 12 14 14 13 12 
18 38 85 148 166 178 188 177 166 158 164 164 158 160 168 173 182 199 207 211 205 194 174 147 100 71 50 39 34 29 35 28 30 26 21 25 25 24 28 22 25 26 35 42 46 38 30 26 22 25 24 19 18 14 16 17 13 15 15 14 13 13 11 13 15 15 13 15 14 15 14 15 12 10 15 14 13 13 12 9 
34 45 119 158 179 189 194 191 176 155 171 176 171 170 174 187 200 205 216 217 215 219 210 191 161 122 86 69 50 41 31 26 30 24 20 25 25 27 29 25 28 39 60 67 70 71 65 44 28 21 20 13 19 17 18 14 15 17 17 16 13 11 13 13 14 12 14 15 12 14 15 14 14 12 12 13 11 12 7 8 
50 82 147 180 192 197 209 202 190 164 167 177 189 174 181 196 216 223 218 220 220 225 221 214 197 166 133 110 91 70 54 43 28 27 25 29 26 28 25 28 36 63 73 79 85 90 94 84 39 23 21 18 18 16 15 15 17 13 15 15 13 12 12 14 13 11 15 13 13 12 10 16 16 13 15 14 11 12 7 10 
91 136 173 194 196 208 215 211 204 183 170 180 192 186 171 187 220 230 220 223 223 227 222 223 210 195 158 137 130 114 91 70 54 43 31 32 29 33 35 28 35 74 77 72 90 108 109 106 65 32 22 20 19 18 18 17 18 19 17 17 16 15 13 14 16 17 15 16 14 15 11 16 15 16 19 19 16 8 5 9 
138 165 186 195 200 214 217 215 203 189 169 173 194 175 170 186 218 230 223 222 217 220 225 220 213 201 180 153 132 137 119 99 82 72 57 44 34 34 33 30 29 51 78 76 91 111 111 112 85 34 24 19 19 17 18 19 17 17 19 14 16 14 15 14 16 15 14 20 15 13 16 13 16 12 16 14 14 9 10 7 
168 182 187 201 200 208 217 213 213 194 167 174 191 177 166 184 205 222 218 217 214 224 222 221 217 208 191 162 143 133 126 117 99 91 77 69 61 54 43 32 28 31 49 69 96 96 111 106 96 38 22 19 19 18 18 16 19 18 22 17 16 15 15 15 14 15 12 12 15 13 15 13 15 13 13 13 7 8 0 9 
182 186 194 202 200 203 211 214 212 197 171 180 191 178 160 181 191 211 210 219 221 223 223 218 217 217 200 178 153 129 133 117 110 92 81 84 85 75 63 50 31 37 57 79 98 98 107 109 101 47 27 18 18 17 19 16 17 19 25 20 17 13 15 14 13 14 14 15 15 13 14 11 15 13 14 10 9 12 7 10 
188 197 193 193 199 199 201 201 203 194 170 181 202 177 149 163 176 192 200 210 213 218 221 224 221 218 208 192 178 143 131 126 117 106 84 77 93 80 68 54 56 56 78 93 101 99 106 111 111 59 27 19 21 18 17 19 16 18 21 25 20 17 12 14 16 11 15 13 16 15 12 16 14 14 15 12 16 11 8 9 
184 184 181 184 181 185 191 190 193 190 170 184 197 181 127 125 140 159 164 183 199 204 214 212 217 217 218 200 183 148 131 129 119 112 95 82 95 97 70 68 58 60 69 108 104 99 101 101 107 68 28 20 18 19 16 16 16 18 19 25 21 19 17 13 14 13 13 16 14 16 16 15 15 13 12 12 17 13 9 11 
175 175 173 173 167 175 175 173 174 164 154 176 193 186 136 103 98 116 113 127 141 159 174 188 202 199 206 195 187 169 140 129 124 119 109 90 85 97 74 68 63 61 64 128 126 105 98 95 99 73 30 20 20 15 19 18 20 20 18 19 19 18 15 13 15 15 15 16 15 14 14 18 19 14 15 15 15 17 11 10 
165 162 154 163 156 154 155 150 143 138 141 166 182 189 134 103 84 79 70 72 73 85 103 120 137 153 165 168 172 166 144 130 125 110 105 96 83 94 71 69 65 63 60 131 142 111 97 97 97 81 33 20 19 18 17 20 18 19 18 18 16 17 15 12 15 11 11 14 14 17 17 16 19 14 16 19 17 14 11 11 
157 152 156 155 149 152 147 135 130 131 134 151 179 191 129 80 61 51 37 35 32 41 47 55 65 77 86 100 109 115 112 101 102 104 104 109 86 91 73 69 70 65 60 124 153 119 104 97 99 87 41 25 15 15 17 15 14 16 17 18 12 13 12 11 13 9 9 15 12 16 14 16 15 14 14 16 11 11 11 14 
152 142 152 152 143 143 132 127 114 119 132 146 172 182 112 43 32 34 24 26 23 31 30 30 27 38 32 39 46 50 53 52 54 65 83 94 85 94 75 72 69 70 67 121 134 109 91 97 100 92 53 21 18 18 16 17 18 17 18 17 19 15 15 15 14 11 13 13 16 17 16 14 14 13 15 13 15 15 11 12 
149 145 155 143 136 132 136 134 123 128 128 146 164 177 121 38 30 30 25 25 21 30 25 25 24 26 23 22 26 30 27 28 27 34 42 64 71 76 75 70 72 71 84 117 119 95 87 95 105 90 57 22 21 20 19 17 18 18 21 18 17 18 16 14 15 15 9 16 16 17 12 17 16 16 14 18 16 14 11 18 
148 154 158 148 134 138 139 134 136 139 133 148 158 166 121 37 30 28 23 21 20 25 23 26 26 27 22 20 19 23 26 22 23 21 27 38 40 46 52 52 59 62 88 118 108 77 82 89 95 86 59 26 22 21 17 17 19 17 22 19 17 16 14 16 16 15 13 14 18 16 17 18 16 15 15 17 15 16 11 10 
150 165 158 147 137 134 135 141 140 137 138 151 161 159 112 38 25 29 21 24 21 25 24 25 26 24 22 20 20 19 19 21 20 19 24 28 24 24 29 23 30 35 49 84 84 47 67 82 80 73 45 26 21 20 20 17 23 18 16 20 18 17 15 16 15 17 18 15 14 18 17 16 15 15 13 16 15 13 11 10 
155 163 162 147 136 135 136 139 142 135 135 151 153 152 112 40 35 31 20 20 19 26 25 24 22 23 20 21 20 18 20 19 17 19 22 22 21 20 21 19 19 20 24 42 52 40 55 65 68 56 35 23 16 20 20 17 18 18 18 17 16 18 14 18 16 16 17 18 15 16 20 18 15 13 14 14 15 9 13 15 
162 158 148 138 134 128 135 134 138 135 143 146 151 143 111 43 35 31 22 16 16 25 24 23 26 21 17 21 24 21 20 16 20 19 20 22 21 18 18 17 20 19 21 29 33 32 37 39 39 36 21 20 16 18 18 17 20 18 18 20 17 15 16 21 17 17 17 17 16 15 17 14 16 14 15 13 14 13 15 9 
154 143 139 134 126 130 132 137 143 141 143 154 150 137 112 56 36 28 22 15 17 21 23 25 19 23 20 21 24 22 23 18 21 20 20 17 21 23 22 20 20 20 19 21 19 22 26 21 25 25 20 16 19 18 18 22 22 22 19 20 20 15 15 16 17 15 15 20 17 12 18 15 17 15 14 16 12 13 9 11 
131 132 127 126 121 124 129 136 143 135 146 151 140 131 112 64 32 26 24 18 18 25 22 22 22 22 20 21 24 22 21 17 17 19 22 19 20 23 21 21 20 20 19 18 17 18 20 16 20 22 17 19 19 18 18 16 20 20 18 21 17 18 16 14 15 14 14 16 13 14 17 16 13 18 15 13 15 13 10 10 
135 128 126 125 123 125 131 131 139 136 147 149 140 130 115 74 35 31 25 17 20 24 21 24 20 24 21 23 23 20 23 22 20 19 20 17 23 21 20 19 19 18 20 20 21 19 18 18 18 20 22 20 20 20 19 19 23 21 19 18 20 19 16 15 16 17 15 21 15 14 14 19 18 13 13 16 15 13 4 10 
137 139 130 136 127 129 135 141 139 130 141 143 132 121 113 84 43 34 25 16 23 26 25 25 19 21 20 20 21 21 17 22 18 20 21 21 20 18 22 20 20 19 23 18 18 19 21 19 19 19 21 18 18 18 19 18 18 19 17 16 19 16 15 15 13 14 18 18 19 16 16 15 16 13 16 16 14 10 8 6 
154 149 147 139 131 138 143 141 142 132 133 133 133 123 113 87 48 35 21 22 25 27 25 27 22 22 17 16 20 20 19 22 17 17 18 21 19 22 20 19 22 18 17 19 20 19 21 19 20 19 21 19 18 20 19 14 17 19 19 17 17 15 17 14 16 13 15 15 17 13 11 17 16 15 9 14 14 14 8 11 
164 159 153 153 145 149 150 143 132 127 133 132 132 119 109 89 54 36 25 21 24 26 25 26 24 21 19 14 16 20 18 18 21 17 22 23 20 22 24 19 22 22 19 20 19 20 22 19 22 23 23 21 20 19 21 21 20 20 17 18 18 18 13 19 16 18 16 17 13 16 14 16 13 14 15 13 16 16 8 12 
166 167 164 159 145 151 148 146 135 127 132 131 127 118 104 92 64 40 26 25 23 27 21 26 23 22 21 15 18 19 18 18 21 17 21 20 19 23 22 20 22 23 22 24 22 19 21 18 20 21 19 19 21 20 21 21 21 19 20 20 18 16 16 16 15 16 16 15 16 16 15 17 17 18 16 14 16 11 8 8 
166 168 166 165 156 159 164 149 138 128 135 137 131 126 107 93 69 49 30 21 24 24 23 22 23 22 20 21 23 22 17 18 20 23 20 21 22 23 25 22 23 24 22 20 21 21 22 22 21 21 20 21 18 19 23 19 20 18 21 22 15 14 16 18 15 18 14 16 16 20 17 17 16 16 13 16 15 13 9 9 
156 164 159 159 154 159 168 156 146 137 141 135 128 119 105 90 77 55 27 20 22 20 22 20 19 20 21 23 25 21 14 14 18 18 20 22 22 24 26 19 24 18 23 19 16 14 21 22 20 21 21 19 17 16 19 17 16 17 17 21 15 14 15 19 16 12 12 16 15 19 18 16 15 15 13 15 13 16 9 9 
151 156 160 153 150 156 161 152 142 142 136 134 129 113 108 92 83 64 28 20 16 21 19 20 20 21 20 23 21 20 18 15 21 18 20 21 20 21 21 21 19 20 18 19 20 18 18 17 19 21 20 16 17 16 15 16 17 14 18 21 17 16 15 17 17 14 14 17 14 18 16 14 18 13 17 13 14 12 10 10 
144 156 152 151 149 152 164 157 157 144 143 132 128 119 105 91 88 68 31 23 18 19 20 22 19 23 21 19 23 21 22 21 20 18 22 24 21 20 18 20 18 22 22 20 20 19 22 21 22 22 19 18 18 19 16 18 17 18 18 20 14 17 17 15 16 13 15 19 17 17 17 16 15 15 13 16 15 11 14 13 
140 153 155 150 150 150 158 162 159 153 147 136 131 118 103 96 84 73 36 24 20 25 19 22 22 22 23 16 22 18 21 21 21 19 22 22 18 21 20 20 19 21 17 20 22 23 19 20 19 20 18 19 19 16 17 18 19 18 17 20 16 17 15 17 12 15 15 15 17 15 15 14 17 15 17 17 14 15 15 13 
134 140 147 150 146 150 156 156 159 152 145 133 127 116 102 87 91 74 37 23 20 22 20 23 19 21 23 19 20 23 20 17 19 17 18 22 21 21 21 21 23 20 20 16 20 18 19 19 19 20 21 16 18 16 18 17 19 18 19 19 14 15 17 14 15 14 16 16 17 14 15 18 14 15 13 18 16 17 13 10 
140 136 144 154 141 150 152 149 151 144 136 127 125 117 99 91 87 73 43 26 20 22 22 26 21 25 22 16 20 20 20 18 19 17 19 18 22 18 22 18 20 19 20 20 20 18 18 20 17 21 18 18 18 19 18 18 16 17 16 17 14 17 14 16 15 15 15 15 17 17 17 17 16 15 15 17 16 15 15 16 
140 146 147 149 144 145 148 152 150 137 137 132 118 108 101 89 85 76 48 30 21 22 19 22 20 19 22 16 21 22 20 18 21 20 21 21 20 18 20 18 22 20 20 19 21 18 20 19 22 19 18 20 18 18 19 23 19 21 18 17 19 16 16 18 16 13 17 15 18 18 16 14 12 16 12 14 15 14 10 5 
142 144 152 146 148 145 148 147 150 144 137 131 127 116 106 94 90 82 51 26 23 25 19 20 19 19 18 19 24 22 21 22 23 21 22 21 21 18 21 18 20 19 21 16 20 17 17 18 22 18 21 23 19 18 20 21 18 21 21 19 17 14 17 17 16 16 18 18 19 21 17 17 17 16 18 17 13 14 16 17 
150 149 156 153 151 152 142 143 142 138 139 134 130 120 107 101 91 85 58 30 22 24 18 21 17 21 22 18 20 23 22 25 21 21 22 21 22 24 22 18 19 20 19 17 20 19 21 19 22 23 20 17 18 20 22 21 22 22 23 18 19 15 18 18 16 16 17 18 17 20 20 18 14 15 16 16 14 16 13 15 
139 149 151 151 151 149 146 139 139 133 139 130 129 123 118 103 95 87 62 28 17 22 19 22 18 18 20 22 21 19 21 20 20 19 18 23 21 20 20 16 19 18 17 17 18 20 22 24 24 18 19 17 19 19 19 18 19 19 20 17 20 14 17 18 19 15 16 16 18 19 16 17 18 16 13 15 16 15 13 12 
139 148 161 156 151 155 144 140 137 136 136 137 132 128 128 116 102 95 66 30 17 23 17 19 20 21 21 22 21 21 19 21 20 18 22 18 20 19 19 19 22 20 20 17 18 17 22 21 19 21 20 15 18 17 19 19 22 17 21 18 21 19 21 18 15 18 16 16 16 17 16 19 16 14 14 13 13 18 10 13 
138 152 162 165 158 155 156 147 147 140 141 133 135 142 142 131 118 98 70 22 15 20 16 21 19 20 18 20 20 22 20 22 19 20 22 21 21 22 19 20 23 17 23 20 20 20 24 18 19 21 18 18 19 19 19 18 22 22 20 18 19 19 20 20 16 15 17 15 19 18 17 16 15 14 14 14 16 13 13 14 
150 149 165 167 161 162 158 152 142 139 139 137 136 148 149 140 127 103 54 24 16 20 19 19 21 21 18 20 19 19 22 21 19 21 19 20 19 20 19 20 18 21 21 18 21 20 24 19 18 21 19 17 20 21 20 22 18 18 22 17 16 20 20 22 18 15 15 16 18 18 16 18 18 15 17 19 18 15 15 12 
149 155 158 162 169 161 162 158 146 142 138 137 141 148 153 143 138 116 47 25 18 19 17 20 21 21 21 18 20 21 24 23 21 21 19 22 19 20 22 24 19 19 20 21 22 23 22 20 19 21 21 18 22 21 19 19 24 19 18 19 18 20 20 19 18 19 16 19 15 15 15 17 14 16 17 18 16 15 9 14 
153 152 163 165 161 163 163 157 149 144 135 136 144 156 158 160 146 103 41 25 18 20 17 19 22 22 19 18 21 21 22 22 22 23 21 21 20 18 22 22 23 22 18 22 23 24 19 22 21 20 21 18 20 19 19 20 20 18 20 22 16 15 18 21 20 17 15 17 15 17 15 17 14 14 16 16 17 15 12 12 
158 157 159 167 165 168 168 161 148 138 136 138 152 159 162 167 141 100 37 23 20 20 16 23 18 23 20 21 21 21 22 24 21 22 22 18 18 21 21 21 20 23 22 23 22 20 21 24 24 23 21 21 20 17 24 20 22 19 18 17 17 12 20 19 21 16 17 18 14 15 16 18 17 18 21 18 19 17 11 16 
157 160 165 157 163 169 173 161 161 148 138 142 150 158 154 158 138 80 28 20 17 20 15 21 22 23 19 21 22 23 23 22 24 21 22 24 18 23 27 24 22 26 26 25 22 17 22 19 24 25 21 17 21 20 24 23 21 19 19 19 18 16 17 20 20 19 15 15 19 16 17 19 19 16 15 18 15 12 11 11 
167 163 157 162 162 174 180 169 157 141 138 146 153 158 153 157 126 59 23 24 18 24 19 21 19 21 19 24 23 17 24 24 23 17 21 21 22 25 24 25 23 28 29 27 22 24 23 23 26 27 27 23 23 23 26 23 24 26 22 19 19 16 14 21 21 24 15 17 17 22 20 18 18 19 20 14 16 11 15 14 


