P2
80 60
260
22 22 21 26 35 45 83 91 73 43 58 93 82 47 42 35 35 32 25 25 23 29 23 23 22 24 21 24 30 30 32 31 29 26 24 27 25 23 23 23 26 24 26 23 24 26 25 25 24 19 15 16 14 16 16 15 13 18 14 18 16 18 17 18 22 21 23 24 24 27 24 25 21 20 21 16 17 17 15 11 
22 22 21 27 35 48 91 97 66 36 65 95 79 45 36 37 33 31 28 25 24 26 23 24 20 20 22 24 27 26 34 29 29 29 26 28 25 24 23 24 24 29 27 24 25 24 25 26 25 22 16 16 15 11 16 16 17 16 14 18 17 18 19 22 22 26 21 27 24 24 26 21 23 17 20 18 13 21 16 14 
23 24 23 27 40 47 93 94 64 41 68 93 74 41 38 33 30 29 28 26 24 28 23 25 24 22 26 26 26 29 29 29 27 26 27 28 23 27 26 24 24 26 28 24 25 29 26 27 25 23 19 16 16 17 14 17 21 19 20 22 24 23 26 25 26 22 22 24 22 25 21 23 19 21 22 22 16 21 14 9 
23 23 18 30 38 50 97 92 52 42 75 96 66 38 34 30 29 27 26 27 25 24 22 23 22 27 27 28 28 29 32 30 27 23 25 22 27 23 25 25 25 24 24 25 25 27 27 28 26 25 22 22 25 24 23 25 22 28 26 25 27 26 27 30 30 25 23 25 24 18 23 22 23 24 24 20 19 18 11 12 
15 24 18 30 37 59 106 90 50 42 77 90 58 36 31 29 25 25 27 23 23 23 24 26 25 24 26 27 27 29 30 26 27 24 25 25 24 24 22 21 25 23 24 22 25 26 24 28 25 30 27 23 24 26 26 26 27 35 27 26 27 27 26 27 25 27 25 25 25 21 18 22 19 24 21 16 18 15 12 13 
16 21 22 32 41 68 100 80 49 44 86 91 57 35 27 25 26 26 26 23 25 27 29 28 23 25 27 29 29 30 32 29 28 27 25 25 28 25 20 24 21 20 24 26 25 25 29 27 26 30 27 26 28 26 25 26 27 33 29 25 27 27 20 28 24 25 25 20 25 21 25 25 21 24 23 18 21 21 12 12 
17 25 23 30 35 66 101 80 46 44 88 87 49 30 34 28 25 24 30 23 24 25 24 23 24 26 23 26 27 27 31 27 25 28 26 25 25 26 26 24 25 22 22 24 23 25 28 31 27 29 28 25 27 26 27 26 26 26 28 23 23 24 25 23 24 24 21 23 26 25 24 26 19 24 25 22 22 22 13 18 
14 18 19 29 38 66 99 72 43 46 88 87 41 28 27 26 26 25 24 21 25 22 23 20 24 21 21 23 23 25 28 26 26 23 27 26 21 23 23 22 20 24 23 22 24 22 24 23 22 26 29 24 23 27 23 20 22 26 25 22 24 21 28 27 25 23 23 25 23 22 23 25 21 22 23 19 16 21 15 14 
6 12 13 26 28 64 102 73 38 47 91 79 40 23 26 22 24 25 23 19 23 20 21 21 20 21 22 21 25 24 28 26 25 24 24 24 24 23 24 21 24 22 23 25 22 24 27 26 24 28 24 24 22 25 22 24 23 23 22 25 24 26 28 26 25 30 27 27 26 20 25 28 23 23 24 19 19 25 18 19 
6 10 2 0 12 74 97 66 27 50 98 80 39 23 23 21 21 20 18 20 22 18 25 21 21 19 25 22 24 27 28 26 26 25 23 21 26 25 23 24 25 24 26 25 25 27 27 27 25 26 22 23 22 23 23 23 25 27 26 26 26 30 30 27 28 25 26 24 22 23 27 25 24 24 26 24 19 23 18 15 
14 16 8 1 14 78 100 59 24 50 106 84 22 14 13 15 16 18 17 15 18 19 15 19 17 20 20 20 18 21 27 25 23 25 22 23 23 23 24 23 24 24 22 23 21 26 27 22 22 24 20 18 22 21 21 22 24 30 26 28 27 28 28 25 27 25 25 22 25 25 25 26 24 22 22 20 23 22 16 14 
17 17 17 19 22 85 100 54 22 54 101 77 17 11 10 10 8 8 16 12 14 15 17 16 17 18 18 20 20 20 27 24 24 24 24 23 23 23 23 23 22 24 21 25 26 23 25 24 25 23 23 24 27 23 25 25 25 29 27 33 25 29 27 25 27 27 26 24 25 23 25 25 23 25 26 23 22 23 17 18 
16 19 19 17 16 82 96 57 25 58 102 72 14 11 8 7 10 7 10 9 3 7 7 6 9 13 14 15 17 21 22 21 20 18 20 22 20 21 23 26 20 22 22 24 24 25 24 21 23 24 25 25 27 25 28 25 27 27 29 27 29 28 28 28 24 29 28 27 22 23 24 27 21 22 23 21 23 20 16 14 
11 16 18 17 23 88 87 47 30 63 100 70 17 11 10 12 10 8 9 7 5 6 5 6 4 4 6 7 9 8 10 10 14 19 21 21 22 23 23 21 24 24 22 25 25 23 23 26 25 27 24 25 25 27 25 27 25 26 26 27 28 27 26 26 27 29 27 27 22 26 27 25 25 24 24 22 22 21 16 17 
16 14 14 18 33 86 83 44 25 73 95 57 17 15 14 13 14 10 8 6 3 6 6 5 1 7 5 6 7 6 6 6 2 3 2 11 16 22 22 21 22 21 24 25 25 26 25 26 25 29 27 26 26 28 26 26 26 27 28 29 27 26 27 28 29 26 28 27 25 23 27 29 26 23 27 24 21 23 16 18 
11 14 12 15 38 90 85 36 26 77 95 56 17 15 11 15 12 10 11 6 5 8 6 6 3 5 6 3 4 8 7 6 7 3 6 16 18 20 17 20 22 21 21 22 27 25 27 25 26 29 25 26 26 28 28 26 28 27 30 25 28 30 27 26 32 27 28 25 23 25 29 27 24 23 25 21 20 24 17 16 
13 17 15 18 44 92 78 34 26 83 88 50 16 14 13 13 13 12 11 8 10 6 10 7 3 3 8 1 8 8 9 7 8 16 19 22 22 23 20 16 19 21 22 22 24 23 27 27 25 29 27 25 28 30 28 27 25 25 25 29 29 28 29 26 27 27 27 27 22 23 29 26 25 21 23 20 19 21 20 16 
15 17 13 20 48 95 79 33 30 86 90 51 17 17 18 14 15 13 12 9 11 10 9 10 10 6 6 7 10 8 14 16 20 24 22 20 23 23 22 23 24 24 26 23 25 26 28 28 26 29 27 28 32 31 30 28 28 29 29 28 31 28 27 27 26 29 28 28 25 24 28 29 28 25 29 24 23 22 18 17 
14 15 16 21 49 91 74 28 29 84 83 44 12 14 15 13 12 12 12 10 10 8 11 6 7 7 6 7 9 8 20 22 20 24 23 19 23 23 24 23 23 20 25 24 25 28 25 25 23 27 26 26 26 27 27 27 26 27 27 26 32 28 30 30 25 31 28 29 23 24 24 25 23 25 26 24 21 24 17 16 
15 17 17 21 58 90 76 28 30 85 84 42 13 17 15 13 17 13 12 11 9 10 10 11 9 9 8 6 10 13 19 24 20 23 19 18 23 21 20 22 21 22 21 22 24 23 25 27 23 27 28 27 28 29 26 25 26 30 28 30 29 28 27 27 30 29 29 27 24 21 25 28 26 23 27 21 22 22 19 19 
20 20 18 24 69 94 75 30 34 96 84 41 18 15 14 14 15 16 15 11 11 12 12 9 9 13 10 10 9 12 17 22 24 23 20 21 21 22 21 21 22 22 23 25 22 26 25 26 25 28 29 25 28 27 26 26 25 28 31 30 29 31 29 28 26 29 27 29 26 22 24 27 26 20 25 20 19 23 17 12 
43 39 34 38 84 104 77 28 39 95 83 38 12 15 17 16 15 15 15 12 12 10 11 11 7 7 10 9 12 14 11 20 23 21 19 23 20 21 22 23 22 22 23 24 24 26 27 26 27 26 27 27 28 27 29 25 25 27 27 25 30 29 28 33 30 31 29 29 28 22 23 24 26 23 24 20 23 25 21 18 
103 98 92 93 108 103 65 25 46 93 82 37 14 18 16 15 11 13 16 12 11 11 13 10 9 11 8 10 11 11 11 18 21 20 20 18 23 20 20 20 23 23 24 24 23 25 26 27 24 26 28 26 30 27 27 26 28 28 25 28 28 28 30 27 28 29 28 29 26 23 21 24 28 22 25 24 24 21 23 20 
104 105 103 104 100 89 54 32 51 94 80 31 12 12 14 15 13 13 15 12 14 12 13 12 9 7 10 9 10 12 10 20 18 19 19 19 25 24 22 23 22 23 23 26 25 26 25 24 28 27 28 27 28 27 27 26 27 29 27 28 28 27 30 29 31 26 27 30 29 26 24 23 25 22 25 24 24 24 22 22 
59 64 73 84 79 65 33 30 57 98 82 32 16 14 15 19 18 16 16 11 12 14 16 14 12 10 10 9 13 12 15 21 23 21 22 20 23 20 22 23 24 25 26 27 23 28 24 29 25 31 27 26 30 28 26 25 27 28 28 25 31 31 31 30 30 28 28 30 29 27 25 23 25 23 27 21 24 26 17 20 
28 30 27 30 32 27 25 28 60 105 86 34 16 20 17 17 18 16 18 16 14 13 13 12 14 11 14 12 13 16 15 22 22 26 24 21 24 23 24 26 26 25 22 30 28 27 26 27 27 30 27 26 30 28 30 26 28 32 28 29 30 29 31 34 31 30 30 31 30 28 31 32 24 21 26 23 26 29 18 22 
46 43 33 29 25 25 25 33 70 113 83 31 16 17 17 15 17 18 17 15 13 13 15 16 11 14 10 11 14 13 16 23 25 23 26 22 24 24 24 26 26 28 28 28 24 25 25 26 25 29 28 31 29 34 26 28 27 31 29 28 29 30 29 29 29 30 28 31 29 29 31 27 25 25 26 24 25 22 21 21 
111 109 94 86 74 66 62 59 92 114 84 32 16 16 18 17 17 16 18 13 13 13 15 15 14 14 15 14 13 15 13 22 22 21 22 21 24 26 26 28 26 26 25 27 23 26 26 28 26 29 27 23 28 28 29 28 23 31 27 25 28 30 30 32 30 29 31 30 30 28 28 29 28 25 29 26 25 26 23 25 
109 113 112 107 107 100 99 94 104 105 78 28 16 18 19 19 19 18 20 16 17 17 15 13 16 13 16 14 15 17 17 21 24 24 27 26 24 26 27 30 26 28 27 27 25 28 26 29 28 26 25 29 28 29 30 29 27 32 31 28 31 29 29 30 29 31 31 33 31 29 31 28 33 23 31 27 25 30 22 22 
61 69 73 82 84 90 95 92 96 86 56 20 14 18 18 19 19 19 15 17 17 17 16 17 16 13 17 17 14 14 17 22 23 23 25 26 24 25 30 27 28 26 28 27 27 27 27 27 24 29 25 29 29 29 29 27 29 28 27 27 29 29 29 29 28 31 31 32 31 29 34 31 30 26 32 24 26 30 24 23 
24 28 28 30 30 34 40 46 50 42 26 22 16 19 22 17 19 19 19 16 17 19 16 20 13 17 15 17 16 16 16 22 25 24 23 25 24 25 26 27 26 27 30 25 25 28 29 26 28 28 25 28 25 27 27 27 29 28 29 30 30 33 29 29 27 30 31 31 33 28 32 31 31 30 28 24 29 30 28 24 
22 24 20 22 23 21 24 26 27 24 23 19 16 19 21 21 19 19 21 18 18 18 20 20 17 17 17 18 18 17 17 22 26 24 25 23 26 27 26 27 27 28 27 28 29 28 25 28 30 32 26 28 30 29 32 28 28 29 29 29 31 33 31 32 29 30 33 32 31 30 33 33 29 34 31 26 29 31 26 27 
22 24 22 19 23 18 22 23 25 21 20 19 13 21 23 22 21 21 21 20 17 21 19 18 20 19 18 17 21 17 15 22 26 28 25 26 25 26 27 25 29 28 29 25 27 26 27 28 26 29 30 30 28 28 32 28 25 28 28 30 29 30 31 29 32 34 32 31 33 29 31 31 30 32 35 28 27 33 30 25 
22 25 19 23 20 16 24 23 23 25 22 18 18 21 23 21 22 24 25 17 20 20 21 19 20 18 20 17 19 20 17 23 27 24 25 24 25 26 25 27 28 28 31 26 29 29 30 28 27 33 31 29 29 28 35 29 29 30 30 32 34 35 31 34 32 33 36 32 32 31 36 34 32 35 37 29 29 36 28 24 
22 25 18 20 20 19 19 24 25 21 24 21 19 20 24 24 23 22 22 22 19 21 24 21 20 22 22 18 21 17 21 24 25 24 25 26 29 23 28 27 30 28 28 28 30 29 27 28 29 31 28 27 30 32 31 27 33 32 28 33 35 34 35 32 32 32 33 33 35 31 32 35 32 33 36 28 28 32 32 32 
21 29 24 22 19 21 22 22 26 21 21 23 20 25 23 23 23 24 21 18 19 22 25 21 20 22 21 20 23 21 17 23 27 26 28 27 28 26 28 28 26 29 28 28 29 27 27 29 28 30 27 29 30 29 30 29 29 32 29 32 34 33 33 32 33 32 34 32 33 35 29 34 32 36 38 33 31 34 32 37 
22 25 25 24 21 21 24 23 25 22 26 22 19 25 21 22 24 23 25 23 20 23 24 23 23 20 24 21 23 22 20 25 28 28 26 27 27 29 27 27 30 28 27 27 30 32 30 32 30 32 33 29 32 30 32 30 31 30 32 32 34 34 34 34 31 29 31 33 31 32 36 33 35 36 37 31 29 36 36 41 
21 24 23 21 20 23 24 22 30 22 22 23 20 25 25 24 24 25 26 24 21 25 23 22 25 21 24 22 26 21 19 25 31 31 26 27 29 30 26 27 29 29 31 26 29 30 30 32 29 30 29 30 30 30 29 31 31 33 30 31 31 34 33 34 30 33 34 34 32 33 34 33 32 32 37 33 33 38 42 48 
22 22 21 20 22 23 22 22 30 21 23 23 20 22 27 28 26 25 25 25 21 25 25 22 23 24 25 25 28 24 22 22 25 29 28 27 30 27 27 29 28 31 27 26 31 29 30 31 31 29 32 29 30 30 29 29 32 32 30 27 29 32 30 33 30 32 33 33 33 34 31 36 32 32 38 31 34 48 46 53 
26 23 24 23 24 22 22 20 31 22 23 24 19 20 26 25 26 25 29 24 26 26 27 27 25 25 26 24 25 22 25 26 30 29 27 29 26 31 28 28 30 28 29 31 29 30 32 33 30 32 31 28 31 28 30 30 33 28 28 31 29 32 32 32 32 32 34 35 35 34 34 35 34 32 35 37 54 57 45 53 
23 28 27 23 24 23 24 23 28 24 24 23 21 22 28 27 30 27 27 25 28 27 31 29 28 31 25 26 28 26 27 26 29 29 31 26 29 30 29 28 30 31 33 31 31 32 31 31 31 32 32 30 31 33 30 27 27 30 29 30 34 30 31 33 31 35 36 35 33 31 36 35 36 33 36 37 38 45 45 65 
23 22 22 26 23 25 27 25 29 27 25 22 24 26 28 29 29 29 28 27 28 30 27 27 27 29 28 29 28 28 24 24 29 28 29 30 30 28 30 30 32 31 31 31 31 32 33 31 31 32 30 31 29 32 30 29 29 28 31 27 32 30 32 33 35 31 33 32 37 37 35 36 33 34 37 35 38 40 48 107 
22 25 23 25 25 27 27 23 26 25 24 23 22 26 27 27 28 28 29 28 25 28 31 29 31 29 28 29 26 29 25 24 30 31 28 29 29 28 31 32 32 30 32 31 26 29 28 29 29 28 31 30 29 30 29 26 25 30 28 28 30 29 32 34 34 33 32 36 32 33 37 37 39 38 41 38 39 45 45 96 
23 24 23 23 23 24 28 31 29 27 21 25 25 28 28 28 28 31 31 30 27 31 30 32 28 30 29 28 29 26 26 28 29 31 29 29 33 30 32 31 32 32 28 29 30 27 29 29 28 30 29 27 30 26 28 24 26 27 29 30 30 28 32 34 31 31 35 35 36 36 39 45 54 65 71 68 82 87 98 140 
24 27 21 25 23 26 30 30 30 26 24 28 22 30 28 32 31 32 34 32 33 34 34 33 33 30 26 29 26 26 26 25 31 32 30 31 34 32 31 28 29 29 31 28 31 28 31 27 28 28 29 25 26 27 25 28 26 31 28 30 29 32 32 33 31 32 34 37 35 46 65 88 103 118 127 130 142 152 164 191 
21 27 25 22 27 29 30 30 29 26 26 26 26 30 32 30 29 34 35 36 33 36 35 34 34 33 30 26 28 28 29 25 30 31 30 32 29 34 30 32 32 32 28 28 30 32 32 33 30 29 28 28 28 28 29 27 25 36 30 28 33 33 35 34 35 34 34 37 37 63 105 125 136 142 151 155 167 188 203 225 
25 32 24 25 27 26 30 27 27 27 22 27 26 32 31 31 31 33 35 36 35 36 35 34 37 31 32 26 27 27 29 23 28 31 32 34 32 32 34 32 33 33 29 31 32 31 29 29 29 31 28 29 28 30 25 23 31 31 30 31 32 34 34 36 32 34 36 38 42 76 116 149 157 162 176 182 196 215 234 245 
25 29 22 25 26 29 32 29 28 30 28 28 29 30 30 30 34 33 34 33 36 36 37 38 37 36 36 38 36 33 36 31 28 28 36 32 33 32 31 32 35 34 30 29 28 30 30 31 28 29 33 28 28 30 26 26 27 32 30 28 33 32 32 35 32 33 34 37 39 69 118 152 166 173 182 193 203 224 244 254 
28 26 25 30 22 27 32 30 31 30 28 28 27 31 31 34 33 37 36 34 35 35 38 38 37 40 42 44 41 37 38 32 31 29 33 36 35 33 36 34 32 32 33 32 32 28 31 31 28 33 32 31 30 28 28 29 28 30 31 27 33 37 32 34 32 33 34 37 39 64 116 152 165 176 185 191 209 224 240 260 
24 26 26 27 30 26 31 28 29 31 30 28 28 32 32 33 36 36 37 38 36 38 37 36 36 41 45 42 43 38 40 32 32 29 35 33 33 31 32 35 33 35 34 33 31 31 29 31 26 30 29 29 31 30 29 26 27 30 30 32 32 34 35 35 33 34 34 36 37 61 108 144 162 170 182 189 201 221 237 251 
24 28 27 27 31 32 30 28 31 35 32 32 28 35 32 36 34 36 40 40 41 42 41 40 40 42 47 45 41 41 41 34 31 32 34 36 37 35 38 35 35 34 36 36 30 31 30 32 30 31 31 30 31 31 31 29 29 35 31 32 34 34 33 34 37 36 35 34 40 56 109 142 157 170 176 187 201 220 236 251 
30 34 28 29 31 29 33 32 33 34 35 33 31 34 36 37 37 39 42 38 42 44 41 40 41 43 46 44 41 40 43 39 33 36 37 36 35 36 34 35 36 34 35 33 34 34 29 31 31 32 31 31 32 32 36 35 33 35 33 32 36 33 33 37 36 40 39 38 39 53 105 139 157 163 175 184 197 214 232 250 
31 35 33 28 31 33 34 37 34 35 35 37 33 36 39 38 35 43 43 42 45 46 44 43 46 47 52 46 43 40 44 39 30 34 39 37 36 37 37 37 37 36 37 33 35 34 34 34 34 34 33 32 35 34 38 41 36 40 36 35 36 32 34 36 38 39 38 39 40 56 103 139 155 167 174 183 195 213 228 248 
34 34 35 36 34 36 38 36 39 38 40 38 37 36 36 38 43 42 47 46 47 49 49 49 46 46 52 49 47 44 46 40 35 34 38 40 39 38 37 40 33 38 37 35 37 34 36 32 32 34 36 37 37 40 44 45 42 46 37 33 38 36 36 34 38 35 34 40 38 52 98 134 152 163 172 179 178 189 211 247 
36 37 35 38 39 39 43 36 41 40 39 40 40 41 46 40 45 46 47 46 48 50 52 53 49 50 50 52 51 49 47 44 40 37 39 41 38 43 41 41 39 38 37 37 38 37 37 35 36 38 37 37 38 42 49 65 78 65 47 38 38 36 38 39 40 39 36 42 41 54 92 133 150 160 167 172 170 166 209 257 
40 42 42 43 38 37 47 41 46 44 41 40 40 45 47 47 50 49 54 50 54 57 58 57 56 58 59 61 55 53 52 46 40 41 43 47 44 48 42 42 42 38 41 40 37 37 36 38 36 37 39 38 43 45 78 193 167 106 61 45 43 40 38 39 42 42 41 39 45 50 93 132 152 161 171 178 181 196 230 243 
45 45 42 47 45 43 45 45 46 46 43 45 41 44 49 49 51 55 55 56 59 61 62 63 61 63 60 61 60 54 55 47 42 44 47 47 49 42 43 40 43 43 44 40 41 41 40 41 40 42 39 41 44 47 96 240 180 105 57 45 39 39 40 37 39 39 41 43 44 52 87 128 151 163 170 177 189 208 228 235 
54 52 46 47 48 48 50 49 49 49 47 46 45 49 54 52 60 58 60 60 62 65 67 63 67 67 66 64 59 56 54 50 44 43 49 49 45 43 38 40 40 45 41 37 42 41 39 40 41 40 40 38 45 42 60 92 93 72 52 42 40 38 40 38 38 41 40 43 43 47 89 122 153 166 168 178 191 210 223 240 
57 59 55 55 53 55 57 56 53 51 52 51 52 54 56 58 56 62 58 63 66 71 72 79 75 75 77 73 66 61 55 51 46 45 50 50 45 42 38 44 43 44 42 43 44 47 39 44 42 42 44 43 43 44 46 53 56 55 46 43 43 44 41 41 40 40 41 41 42 46 83 122 150 165 175 180 192 210 225 230 
77 74 66 60 55 57 60 57 54 54 51 52 53 55 60 59 58 64 66 71 75 74 79 80 79 81 80 75 66 64 57 54 49 48 50 51 50 48 56 72 47 47 50 46 46 48 47 45 41 44 44 43 42 42 48 49 51 52 45 40 42 43 42 40 40 42 42 39 39 44 75 129 151 165 178 181 193 211 221 236 


