P2
80 60
249
27 30 33 40 78 106 88 47 56 98 96 59 49 43 38 38 34 32 30 31 27 26 26 25 23 27 30 25 28 37 34 32 33 29 29 28 27 29 29 29 29 29 31 32 30 31 29 25 20 17 21 19 24 17 22 19 20 27 27 27 23 26 29 29 28 22 24 27 27 25 25 24 21 23 23 24 23 25 26 17 
24 32 38 44 83 111 82 47 56 103 97 61 45 43 35 38 34 31 31 30 28 27 29 29 30 32 35 31 27 34 33 34 30 30 26 26 29 28 25 28 28 28 29 32 29 31 29 26 26 20 19 27 21 20 25 22 25 27 28 29 28 33 34 33 33 23 20 29 28 27 26 25 26 27 22 21 25 25 20 20 
23 33 34 45 89 106 79 44 65 102 92 53 37 36 35 36 32 34 30 28 27 27 25 26 29 29 33 28 31 34 31 30 27 25 28 25 24 27 30 28 29 29 31 31 30 32 31 30 28 25 26 27 31 27 28 27 30 28 32 33 29 32 33 32 31 23 20 26 27 24 25 23 25 27 23 22 26 25 21 20 
26 28 32 50 92 101 72 41 69 103 85 52 40 36 31 33 36 28 28 30 26 28 27 31 31 29 30 31 32 31 33 26 26 25 24 23 22 26 25 27 30 33 29 30 27 28 33 30 28 31 30 32 30 28 29 29 34 35 32 33 29 29 28 26 28 22 21 22 29 25 28 27 25 21 23 21 25 23 18 12 
24 33 37 48 100 108 67 41 73 98 83 44 40 36 30 36 32 27 28 28 27 27 31 29 29 30 30 29 34 29 28 28 26 27 22 22 25 27 23 23 25 29 29 31 28 32 31 30 32 30 27 30 31 29 26 28 29 31 29 25 28 27 26 27 28 24 23 23 28 24 24 23 23 23 24 24 25 22 20 14 
25 31 33 56 102 97 66 42 75 100 79 40 34 31 31 31 25 28 25 28 28 27 28 29 27 27 30 29 28 29 31 27 26 25 25 22 23 27 24 23 24 27 26 27 27 29 26 29 26 29 28 32 31 27 30 30 29 28 29 28 26 26 29 28 25 26 19 22 28 26 26 24 24 24 24 23 21 19 16 13 
24 38 39 59 101 94 58 41 78 99 75 39 34 31 28 26 27 27 27 31 27 25 28 29 30 28 27 27 30 30 29 29 27 27 22 25 27 24 25 24 26 27 28 28 28 26 24 26 31 28 28 29 28 27 28 29 28 27 28 25 28 29 32 27 29 27 20 21 29 27 25 25 26 22 25 25 24 17 18 15 
21 33 32 53 99 92 55 37 78 99 69 35 34 27 26 28 26 26 26 27 25 27 23 25 23 25 28 29 28 31 31 28 27 22 24 28 26 26 22 25 23 28 28 27 28 28 22 26 27 26 29 23 30 27 24 24 29 30 28 30 29 35 28 30 29 30 19 20 28 26 26 24 27 24 25 27 23 20 16 16 
15 27 28 50 102 94 50 37 82 100 65 36 30 24 24 31 27 30 26 26 25 22 23 25 25 25 29 28 29 30 28 28 23 25 22 27 29 28 25 24 28 27 29 29 27 29 28 29 27 27 24 24 25 26 26 27 26 34 31 34 33 34 30 29 28 30 21 22 26 28 26 27 25 26 26 26 22 20 15 11 
9 5 0 40 107 90 43 33 87 104 62 34 27 25 25 25 27 26 22 29 22 24 23 24 24 27 27 27 29 31 30 28 27 26 27 25 27 28 28 27 28 29 31 27 27 29 29 28 27 26 23 27 27 28 31 31 31 32 33 34 33 31 32 27 32 31 24 23 25 27 28 26 27 26 28 28 20 21 17 18 
11 10 6 49 104 90 35 27 97 109 53 22 19 16 15 17 19 20 18 25 24 22 23 23 23 25 23 24 26 30 27 26 23 25 22 26 25 27 23 22 26 31 25 27 26 28 26 24 25 26 23 29 29 30 28 32 29 31 32 29 31 30 26 29 30 30 24 21 22 27 28 24 25 26 26 23 23 22 18 19 
15 21 20 58 112 92 35 33 100 109 49 21 15 13 14 13 11 16 18 20 16 17 21 19 20 21 23 23 25 25 27 25 23 24 26 26 25 27 26 28 26 27 29 25 28 28 25 24 29 29 31 32 32 31 35 34 35 35 33 32 31 32 30 30 32 32 29 22 27 25 25 29 28 24 29 25 23 24 21 16 
14 19 17 56 105 87 34 37 97 107 50 13 13 13 10 12 16 10 8 7 7 6 8 9 11 15 14 13 13 18 18 22 20 21 19 22 22 21 28 25 30 27 25 27 26 23 28 26 29 28 28 30 32 31 30 32 29 32 30 31 29 31 30 30 24 29 29 23 22 26 27 26 25 28 25 24 21 20 20 20 
21 24 21 67 101 84 34 42 102 108 48 24 16 14 16 15 16 11 11 11 10 11 8 8 11 8 6 7 10 11 9 4 13 13 16 21 24 25 25 27 26 26 26 25 28 30 31 30 31 31 30 34 31 30 34 34 31 32 35 33 34 32 33 33 33 30 30 24 23 28 28 30 29 31 30 31 26 25 18 18 
15 23 23 74 99 75 35 43 102 97 41 28 20 17 20 20 16 14 12 12 12 10 9 10 8 7 8 10 13 11 12 7 3 6 20 22 25 24 27 22 25 28 29 33 32 30 30 33 37 31 30 34 32 36 34 33 34 32 32 33 31 33 31 30 33 33 30 24 25 29 31 29 30 32 30 28 28 23 17 18 
20 24 26 72 96 71 30 47 103 90 39 19 19 16 19 16 15 13 12 10 7 8 12 11 10 8 9 9 10 13 8 9 12 17 22 25 24 21 21 25 27 27 27 28 31 30 30 28 31 28 30 29 32 32 34 29 32 30 32 32 31 33 30 31 33 35 30 27 21 22 27 30 28 28 29 29 29 23 19 18 
17 23 22 76 97 72 29 45 102 93 37 23 18 21 16 17 15 14 12 14 12 10 14 12 11 10 10 10 11 14 18 20 25 24 24 25 22 26 25 26 23 28 30 31 32 30 30 27 32 30 31 32 33 32 31 30 30 33 32 33 30 29 31 32 33 32 32 29 22 25 30 28 32 31 25 30 29 28 25 21 
21 22 27 83 100 70 24 47 103 88 36 23 18 21 18 18 17 14 13 16 15 14 13 12 13 13 15 14 15 20 27 27 28 26 26 23 27 26 24 25 27 27 30 33 33 32 33 30 33 33 31 35 34 31 34 32 36 33 36 34 35 33 36 32 35 36 31 30 24 20 29 29 30 29 31 30 30 30 27 23 
21 20 22 86 95 67 27 50 102 88 40 22 20 19 21 21 17 15 15 15 14 13 14 15 13 11 10 12 14 23 30 27 27 23 26 25 26 27 26 26 28 29 33 31 28 27 32 27 31 29 30 34 36 32 32 31 31 30 34 32 33 32 35 32 33 33 32 33 21 19 25 28 30 27 30 31 28 31 25 24 
22 23 29 88 99 64 29 54 103 89 36 26 21 20 18 20 20 19 17 16 14 16 16 14 16 12 14 11 16 26 29 25 25 23 22 23 24 27 27 24 29 30 31 29 30 30 29 30 31 31 32 36 33 33 33 34 35 36 33 36 33 34 33 33 33 33 37 34 25 20 26 30 30 28 31 31 28 30 24 22 
22 25 29 93 98 65 31 60 104 85 31 30 23 23 21 23 21 21 18 21 16 16 15 17 18 14 14 12 14 22 27 24 25 23 26 25 25 26 28 29 28 29 30 31 33 30 32 31 34 31 31 32 35 33 31 35 32 35 31 36 34 35 35 34 33 33 37 39 26 20 21 28 34 31 33 31 35 32 28 21 
28 31 43 105 101 60 30 63 106 88 37 27 23 22 21 19 24 19 17 18 17 16 16 18 15 12 16 13 16 18 26 24 23 21 25 24 26 26 28 26 29 28 27 34 29 29 32 29 29 31 33 34 30 32 34 35 33 35 34 33 34 38 35 35 35 34 34 37 35 24 17 28 32 27 32 29 30 31 25 23 
77 77 77 123 104 54 31 68 109 89 31 25 22 18 21 24 19 20 16 16 18 17 17 13 18 15 13 15 13 15 21 23 25 26 24 20 24 24 26 26 30 29 29 30 29 28 29 32 31 31 31 32 31 31 34 31 31 34 34 31 33 35 33 34 33 34 33 36 34 21 17 23 29 28 32 30 32 31 20 30 
103 112 111 114 92 46 32 71 103 80 35 24 23 20 20 20 19 21 18 17 18 16 18 17 16 16 19 14 18 16 23 22 23 25 23 23 27 25 25 28 30 29 27 31 29 30 28 29 30 31 29 33 32 35 34 31 34 32 34 35 31 37 34 36 35 33 34 37 33 29 19 21 25 27 29 30 31 29 21 19 
98 101 99 94 73 34 34 76 106 86 34 29 23 23 22 22 22 21 22 20 16 19 19 19 17 15 17 17 16 20 23 26 25 27 25 28 27 29 28 28 32 32 31 30 31 30 32 34 32 34 31 36 34 35 37 34 35 35 34 34 35 35 34 38 33 38 35 38 35 30 29 22 21 25 27 29 33 31 26 17 
42 49 51 52 34 29 35 81 112 85 35 25 26 24 28 25 22 24 19 19 19 20 19 22 21 20 19 18 20 18 24 27 25 26 29 27 28 32 32 31 31 34 32 32 33 32 33 33 33 31 32 39 35 33 37 35 32 37 34 36 32 36 34 38 36 37 35 41 34 34 31 31 24 17 19 22 25 31 24 19 
34 30 26 26 26 25 34 86 114 83 35 27 24 22 24 24 17 23 21 20 19 20 18 17 21 18 16 19 18 18 22 28 27 26 26 29 29 28 31 32 32 31 32 32 29 32 32 32 35 30 33 35 35 32 35 35 32 34 34 30 34 33 33 36 35 33 36 40 36 32 30 35 29 25 20 20 25 22 20 19 
74 70 56 49 44 45 49 101 119 84 38 27 24 22 24 24 19 26 20 22 20 20 19 22 20 20 17 18 15 18 24 27 29 29 30 30 30 28 33 33 35 31 30 33 31 31 32 30 35 31 34 37 34 33 36 36 30 35 36 32 35 37 39 35 35 36 37 37 35 35 32 34 32 34 30 32 27 27 23 20 
121 116 106 100 99 98 103 117 109 79 34 29 24 27 22 22 24 24 25 22 21 21 19 20 22 20 20 19 21 17 25 30 27 30 28 32 29 33 32 34 32 32 34 34 32 31 35 32 35 30 35 33 34 33 34 31 34 33 35 34 36 36 33 36 35 36 36 41 32 36 33 34 33 33 32 35 31 31 24 18 
101 104 99 98 101 100 103 103 97 62 30 26 24 20 23 24 24 24 24 21 22 22 19 20 21 20 20 22 19 19 27 29 28 26 29 32 29 30 33 32 33 31 30 32 30 30 34 31 33 32 31 33 33 32 35 35 34 35 33 34 37 32 37 34 35 39 40 41 36 32 34 34 32 29 32 33 31 28 23 28 
44 47 49 50 56 61 65 67 58 38 25 27 26 27 26 25 24 24 25 21 21 26 23 21 20 20 22 20 20 22 25 28 26 28 29 27 30 31 33 33 32 31 34 33 35 31 32 33 35 33 33 37 38 34 33 34 34 35 34 36 36 35 35 38 35 38 34 38 37 36 33 37 32 33 33 31 32 32 26 29 
29 29 25 25 29 29 32 31 29 26 28 27 25 28 27 26 24 26 23 25 21 22 26 26 24 21 21 25 22 23 28 31 29 29 31 28 30 31 34 38 32 34 35 32 35 32 31 34 35 33 34 35 36 36 34 35 35 37 35 36 34 38 38 38 34 37 36 40 35 32 34 40 36 31 34 31 33 32 23 25 
26 25 24 22 27 26 26 23 26 29 26 25 28 27 28 30 25 28 24 23 21 23 24 25 24 23 23 27 24 24 27 32 29 31 28 27 31 29 31 31 32 33 35 34 30 30 32 34 35 36 34 35 34 31 32 40 31 33 33 32 36 37 39 38 34 39 39 41 37 34 33 34 36 40 34 33 33 36 27 23 
26 29 21 24 24 26 22 25 24 31 28 28 29 29 28 29 29 27 26 25 25 25 26 25 29 23 25 24 20 25 26 30 32 29 30 28 29 29 31 33 36 35 37 34 34 34 36 37 33 36 36 35 37 35 33 35 35 37 34 36 35 38 37 38 37 38 39 43 38 37 33 36 37 38 37 35 35 33 27 28 
28 27 23 22 24 24 21 25 27 32 29 32 30 28 28 28 30 30 26 26 28 27 29 28 28 25 25 29 26 26 27 32 35 30 32 28 33 31 32 33 33 32 34 33 34 35 36 35 36 34 33 38 38 34 36 34 34 36 37 35 37 39 36 40 38 41 40 39 38 34 37 35 38 32 33 32 36 33 27 28 
31 30 20 20 23 25 25 29 25 28 28 31 29 32 30 29 28 28 29 27 27 30 28 25 31 26 26 28 24 26 28 31 34 29 30 29 32 32 31 29 33 34 32 34 33 34 35 33 36 34 36 38 36 38 37 35 35 37 35 38 37 37 38 40 36 37 39 41 37 34 34 32 35 34 34 32 36 40 29 31 
28 31 26 22 24 22 27 26 24 30 31 32 33 30 30 30 29 30 26 30 25 28 28 29 26 29 31 30 26 28 28 33 33 31 32 31 32 31 33 32 36 34 36 32 35 34 36 37 35 35 34 34 34 36 34 33 34 38 35 35 35 36 38 38 35 36 37 39 37 37 38 34 32 36 36 35 34 36 30 37 
26 30 25 22 23 24 25 29 27 28 28 28 30 29 28 31 27 31 27 29 27 27 27 28 28 27 31 32 27 26 24 32 34 32 32 31 31 31 33 32 35 34 32 33 33 36 35 35 36 35 35 36 37 38 35 34 36 35 35 36 38 37 36 37 38 39 41 38 37 37 33 33 34 35 37 32 37 31 38 38 
28 26 26 24 25 26 28 31 29 26 27 29 30 31 30 29 30 29 30 31 31 30 30 26 30 30 31 28 27 25 27 31 34 32 31 32 33 30 33 35 34 36 35 34 34 35 32 40 36 33 36 35 36 36 38 37 35 34 34 33 37 35 38 35 35 37 37 38 39 38 33 38 35 36 38 33 37 42 40 46 
28 29 29 27 28 28 27 28 27 28 28 32 30 30 31 33 33 32 30 31 32 31 32 33 35 30 32 33 27 29 27 34 35 33 34 31 33 33 37 38 37 34 38 38 35 35 38 34 37 38 35 37 33 36 41 41 37 38 36 35 38 36 37 35 38 38 41 39 39 36 36 38 37 35 38 38 46 50 49 59 
33 27 27 28 28 26 27 29 28 30 28 29 28 31 32 35 31 33 31 32 31 33 32 35 37 35 31 31 32 30 31 32 35 34 36 33 33 35 40 36 34 38 36 36 34 37 37 38 38 34 36 38 38 36 39 38 38 36 36 35 37 38 38 35 37 39 40 43 39 39 36 37 36 34 37 40 53 55 52 94 
30 30 25 28 30 32 28 30 27 30 26 34 33 35 33 34 33 35 34 33 34 33 36 37 37 38 35 34 32 33 29 32 33 35 34 31 34 34 37 36 37 37 37 35 35 36 35 35 36 33 34 36 39 37 36 34 36 35 37 39 37 38 40 38 40 40 41 40 41 40 38 37 38 38 38 39 47 47 58 130 
28 27 28 26 30 28 26 33 29 32 32 32 32 31 36 39 39 38 34 35 35 36 34 37 35 34 37 33 33 33 29 35 35 36 35 34 35 35 34 35 35 36 35 36 35 34 37 33 36 35 37 39 35 36 39 38 34 36 35 35 35 38 38 35 38 41 40 42 41 38 38 41 41 40 42 44 45 46 62 142 
28 28 25 25 31 32 27 37 29 31 33 32 33 34 36 41 36 36 35 37 36 35 36 37 40 37 36 36 32 34 27 31 36 38 37 34 35 34 36 36 38 38 41 34 35 33 35 34 38 33 34 38 35 31 31 34 33 33 36 35 34 37 35 38 36 35 41 42 42 38 41 43 38 41 40 44 50 48 59 136 
32 30 27 27 32 29 29 36 28 31 29 34 34 34 37 38 41 37 37 38 38 41 38 39 39 40 36 31 34 35 30 30 35 37 35 37 35 35 35 38 37 38 37 36 33 33 34 33 36 36 36 35 36 30 37 33 31 35 34 33 34 37 38 36 36 40 39 42 41 38 39 43 50 57 57 74 86 83 78 143 
25 37 27 29 32 32 29 31 33 30 31 37 34 36 35 39 38 39 40 37 39 42 43 41 40 35 36 34 34 33 25 29 35 39 38 37 36 36 37 40 40 36 36 38 34 36 36 35 36 35 35 37 36 34 34 31 32 36 35 37 34 38 37 36 39 40 42 45 45 43 44 72 108 137 159 194 199 181 141 164 
30 33 28 29 31 35 36 33 30 32 35 34 38 36 39 39 42 39 39 38 40 44 41 43 43 41 40 41 38 39 35 30 30 37 36 38 38 38 39 37 38 38 37 40 38 36 36 34 37 36 37 39 40 33 33 36 36 36 38 32 36 37 36 35 39 40 42 44 42 47 67 110 139 188 189 192 181 174 174 183 
30 31 29 25 28 33 31 36 31 36 34 35 35 36 38 40 39 38 38 41 42 43 42 42 47 46 49 46 43 45 40 33 33 40 38 37 36 40 38 36 39 41 39 37 37 38 34 34 33 33 37 39 34 33 35 37 35 37 35 36 36 37 40 40 39 44 44 44 54 72 95 114 128 144 147 155 159 167 179 202 
30 30 27 29 29 32 35 35 34 35 33 40 38 39 40 43 41 38 40 45 40 41 44 41 46 49 50 50 45 44 38 33 32 36 38 38 39 39 38 37 40 38 39 39 38 36 35 34 36 34 34 37 36 36 36 35 36 36 35 34 36 38 37 40 40 40 45 49 69 101 114 127 133 142 151 166 180 197 216 236 
35 28 27 29 31 29 32 33 35 36 35 37 38 39 38 40 41 41 42 42 43 43 39 43 43 50 52 48 47 45 40 33 34 39 39 39 39 39 39 40 37 41 37 39 38 38 36 33 35 36 35 38 37 35 38 37 33 36 35 37 38 39 39 40 41 40 43 45 67 105 132 145 151 159 171 184 200 215 232 238 
32 34 28 29 33 32 33 34 36 38 38 38 42 40 41 43 42 42 43 41 45 45 46 48 47 50 57 48 47 49 44 38 34 39 41 40 43 46 43 41 42 44 38 37 39 39 35 35 36 33 35 38 40 36 39 39 37 41 41 41 39 38 39 43 42 43 44 45 67 106 133 150 159 167 178 192 200 219 236 247 
32 33 31 29 33 33 34 31 32 38 38 37 40 41 41 45 41 42 42 46 46 45 48 48 48 53 54 52 50 48 45 36 31 38 39 41 41 41 42 40 44 43 39 41 39 37 37 36 35 39 34 38 39 41 45 45 40 38 42 43 36 42 42 42 43 41 47 46 61 97 130 148 158 165 174 183 200 214 231 236 
37 37 33 34 35 36 35 36 38 39 37 40 40 44 42 44 43 48 48 45 49 50 51 49 55 53 55 53 51 47 46 40 36 40 43 45 43 41 40 42 44 41 42 41 37 41 37 41 37 40 37 43 41 41 50 52 47 52 47 43 38 38 40 41 46 43 46 48 58 95 126 148 154 164 175 187 200 213 231 236 
37 37 39 35 37 38 38 38 41 40 40 42 43 41 45 47 46 46 46 51 51 51 54 53 55 57 57 55 50 54 50 41 37 44 45 45 45 44 43 44 44 44 42 45 40 42 38 41 40 41 39 43 43 46 55 76 85 69 52 44 42 43 42 42 43 45 46 45 52 90 124 147 153 164 171 179 193 211 225 234 
41 42 37 40 42 40 41 39 42 42 40 44 47 49 50 51 51 47 51 54 56 56 57 59 61 60 65 59 59 57 55 47 42 44 46 46 46 44 49 47 44 44 45 45 43 43 40 41 42 39 41 44 48 57 111 218 158 96 58 45 44 43 44 44 46 45 46 50 54 85 120 145 154 159 167 179 194 212 222 233 
46 45 39 40 43 47 46 43 43 46 45 49 49 51 52 55 54 53 55 60 63 61 63 63 65 66 66 65 59 60 54 48 43 43 50 50 50 51 49 46 51 48 48 47 47 44 41 44 43 44 47 45 47 58 125 249 161 94 56 48 43 44 44 43 46 47 47 51 52 78 111 141 151 161 168 175 184 197 219 229 
45 47 42 41 50 47 46 44 48 47 45 52 53 53 50 55 54 58 58 61 65 69 69 65 68 68 69 65 63 60 55 51 44 47 49 53 51 50 47 46 48 51 45 45 43 47 44 45 47 44 44 47 49 52 73 99 88 67 55 49 43 44 42 46 47 48 50 51 49 72 111 138 148 157 161 169 162 165 206 229 
56 55 47 46 51 49 54 51 52 53 53 52 53 56 56 61 62 62 64 70 70 71 76 74 77 78 79 74 70 64 60 53 45 48 49 51 50 44 44 45 48 52 47 49 47 48 45 50 46 45 45 49 49 46 54 57 57 56 52 45 46 45 45 47 45 48 50 52 55 67 104 132 148 155 161 165 165 174 215 225 
67 64 61 56 61 58 57 55 57 57 57 60 55 58 61 65 63 63 69 73 74 79 81 85 80 83 84 79 71 66 61 55 51 51 52 56 51 52 61 65 55 52 53 55 51 51 52 50 48 47 48 47 48 46 48 53 49 50 48 46 46 49 47 46 46 49 51 51 54 62 101 129 149 157 163 175 176 196 213 221 
95 89 79 63 67 55 63 62 56 61 58 61 59 59 61 66 67 68 72 75 77 82 86 84 83 94 94 82 71 67 61 55 54 54 54 61 56 57 91 128 64 56 61 58 51 53 54 50 49 50 48 50 49 45 51 49 46 49 47 48 47 48 48 47 52 47 50 52 53 55 103 132 145 159 162 175 179 190 211 215 


