P2
80 60
248
25 29 28 40 74 105 84 40 55 99 90 48 43 41 36 36 32 28 28 32 28 24 27 21 22 25 26 25 29 38 34 32 32 30 31 28 29 28 25 27 26 26 27 26 28 30 28 22 17 18 19 16 20 16 19 17 18 24 20 24 24 24 28 26 24 23 21 25 23 26 27 18 26 24 20 22 22 24 21 22 
19 29 31 41 83 110 80 38 54 98 87 52 41 38 35 33 36 34 31 27 29 24 25 23 27 28 29 28 26 34 34 35 31 30 30 28 31 28 24 26 25 25 24 28 29 27 28 26 23 21 20 21 19 18 22 22 22 25 23 28 29 32 30 31 29 21 21 26 26 28 25 18 24 26 23 20 22 25 17 18 
19 26 32 42 85 110 76 36 60 98 85 48 34 33 34 31 30 32 30 25 28 25 23 22 25 28 29 26 30 32 32 30 30 27 29 26 29 29 27 27 26 26 27 29 25 28 27 28 23 22 24 24 26 24 29 30 28 29 29 30 28 32 28 29 27 21 20 22 28 27 26 22 26 28 22 21 23 24 17 13 
21 25 31 47 91 103 69 34 67 101 80 46 33 34 32 29 32 27 28 28 27 26 26 30 28 28 27 27 32 33 32 28 29 29 26 25 26 28 26 26 28 28 27 28 28 23 31 31 26 27 29 28 30 26 28 28 28 34 29 32 30 30 26 24 26 23 19 20 26 28 28 27 29 23 22 21 21 22 19 18 
22 31 34 45 94 111 67 37 68 93 77 42 31 31 29 35 28 28 28 24 27 25 29 26 25 27 25 29 30 30 28 31 28 26 24 23 27 30 24 23 25 23 27 27 24 27 27 31 30 31 30 26 28 28 26 26 26 26 27 25 28 24 22 25 24 24 20 23 28 31 26 23 25 24 19 20 22 19 17 16 
21 26 34 54 100 99 64 39 72 95 75 35 32 28 30 29 25 30 26 25 28 26 26 25 25 25 25 26 27 30 29 29 28 28 27 25 24 29 24 23 22 26 24 28 24 26 26 28 24 28 29 29 28 24 28 28 27 26 25 28 25 26 27 26 25 27 18 23 29 28 26 23 27 26 22 25 18 18 19 16 
18 32 38 59 100 97 56 36 77 98 68 33 28 27 30 24 26 24 25 28 28 26 25 25 26 25 26 27 27 30 31 32 28 27 26 24 26 23 24 23 23 25 25 26 27 26 23 26 28 26 26 27 25 27 28 28 24 27 25 23 27 29 28 28 28 26 22 21 25 27 26 25 26 24 23 25 19 18 18 20 
17 30 32 49 99 95 55 35 76 95 65 30 28 23 25 24 22 26 24 26 25 25 19 21 21 22 24 28 27 29 30 29 27 25 26 25 24 24 22 23 24 23 24 25 25 28 21 24 23 25 27 24 27 23 24 28 28 29 27 30 29 32 27 29 26 27 21 18 28 28 28 24 28 26 23 24 17 17 12 13 
9 24 27 49 103 94 48 33 79 91 63 33 24 25 25 25 21 26 27 27 24 20 22 21 23 25 25 25 28 29 29 30 25 26 26 28 31 29 25 22 24 24 26 26 25 29 27 26 24 27 24 24 23 24 29 29 26 29 30 34 31 33 29 31 28 30 20 21 26 29 29 27 28 26 22 26 17 21 16 14 
3 4 0 41 103 92 42 25 84 100 59 24 22 20 21 20 22 24 23 24 24 24 22 21 21 23 23 22 27 29 30 27 27 25 29 26 28 27 26 25 25 26 26 25 24 27 28 27 25 25 24 24 24 26 30 29 29 33 33 29 32 29 33 27 31 29 22 22 28 31 33 27 27 26 24 24 15 19 18 16 
4 6 4 45 106 91 34 23 93 110 49 15 15 12 11 19 18 18 17 22 22 19 20 21 19 23 20 21 24 29 25 24 24 24 24 24 27 27 22 21 24 25 24 25 25 25 23 22 24 24 26 28 26 31 27 31 31 31 30 29 31 28 26 28 27 28 20 22 20 29 27 26 24 26 23 23 17 20 17 18 
9 18 18 56 114 93 32 30 94 107 46 16 13 11 12 11 8 13 16 18 14 14 17 18 18 18 17 19 21 24 27 25 24 27 27 24 26 27 24 25 22 26 27 23 26 27 23 26 25 26 31 29 31 32 31 33 32 30 31 30 31 30 29 34 32 33 26 22 25 27 28 29 28 28 30 24 22 20 15 15 
11 16 17 53 107 89 35 34 95 103 47 10 10 10 8 10 15 11 9 9 5 4 4 9 8 14 10 10 11 18 17 22 20 22 21 23 24 25 24 23 24 24 23 25 25 22 26 26 26 30 27 30 29 29 28 33 29 32 28 31 29 29 27 29 26 31 27 22 22 27 27 28 26 28 26 23 18 17 16 17 
11 19 18 62 103 87 35 36 103 104 41 16 14 10 14 10 14 13 11 8 8 10 3 7 10 5 5 7 8 8 9 7 16 14 17 20 24 26 24 23 24 22 23 24 26 29 29 29 29 31 29 32 30 26 33 32 30 28 35 34 29 30 32 30 33 30 30 23 22 26 29 29 29 31 29 27 23 24 17 17 
10 16 21 70 98 76 33 37 102 97 39 21 16 12 18 15 13 9 12 11 10 8 6 7 7 7 5 7 10 8 9 8 6 9 18 23 24 26 22 23 23 24 24 29 31 31 26 31 34 30 31 31 29 33 31 33 31 34 29 32 29 32 31 30 33 32 32 24 23 30 29 29 31 32 30 27 26 22 16 21 
14 19 23 69 97 73 29 39 101 89 38 17 14 14 19 16 11 12 11 11 8 6 8 7 7 6 8 4 9 9 7 10 13 19 25 25 25 20 22 23 23 25 24 26 30 29 27 28 29 27 30 28 30 30 30 29 31 32 32 31 30 32 31 31 32 32 31 26 24 23 28 30 31 26 28 27 25 22 20 19 
13 19 21 72 94 70 30 40 100 87 33 18 16 12 13 15 13 13 12 13 13 11 11 8 8 6 6 8 11 11 18 21 27 25 26 26 24 25 24 24 21 27 27 28 31 29 28 29 31 28 30 29 34 30 31 33 28 32 31 29 31 29 30 34 32 31 31 27 20 25 32 28 28 30 24 28 27 27 22 22 
14 19 22 76 96 72 28 41 102 87 35 19 17 15 15 17 18 14 15 14 14 11 12 13 10 11 10 11 13 20 25 28 30 27 27 26 27 28 23 24 23 25 27 29 30 29 31 29 32 31 29 30 31 30 31 35 31 33 34 32 33 32 34 34 33 35 33 29 23 24 30 28 29 31 29 29 25 30 24 21 
14 15 21 81 94 69 25 45 97 84 33 16 18 12 19 17 17 15 14 13 15 11 10 11 10 7 9 7 12 20 27 25 25 24 25 25 27 26 25 24 23 26 29 27 28 26 31 27 29 28 33 30 32 32 29 30 27 31 32 30 32 31 32 31 31 32 32 29 22 20 27 27 28 32 30 28 26 30 22 22 
14 20 27 85 97 65 25 46 101 83 31 19 19 16 15 18 16 16 14 13 12 13 11 11 13 10 13 7 14 21 27 26 27 22 24 24 24 27 26 24 26 27 27 25 29 29 28 29 25 28 30 30 31 31 31 31 31 33 31 34 32 33 32 32 31 31 36 31 26 22 25 26 29 30 27 27 27 29 21 22 
15 22 26 88 96 67 28 53 101 81 30 19 18 18 20 18 20 18 15 19 15 16 11 11 14 12 10 14 11 18 24 26 26 23 26 25 24 26 24 26 24 29 29 27 31 30 29 28 30 30 31 34 34 29 31 32 29 32 31 31 32 33 31 37 34 32 34 36 27 20 23 28 30 30 31 29 29 29 24 23 
16 27 38 103 98 63 31 59 102 82 33 18 16 16 19 16 20 19 14 17 16 17 13 13 12 10 11 15 14 15 24 26 23 22 23 26 26 27 25 25 26 27 26 29 28 28 29 27 30 32 35 30 31 32 34 32 29 31 32 31 30 36 33 34 33 32 34 34 32 24 17 27 31 30 29 27 31 28 20 20 
70 71 74 121 105 55 31 63 105 82 28 19 19 14 16 19 17 20 16 14 16 16 13 11 14 14 12 12 14 14 20 25 27 28 23 25 24 24 25 26 24 25 28 27 28 28 28 30 30 32 31 32 30 27 29 32 29 31 30 31 30 32 32 34 32 31 34 36 33 21 17 20 26 30 32 31 29 30 27 19 
97 105 105 107 90 46 31 65 99 76 27 18 19 15 18 17 18 17 15 16 13 15 16 13 12 16 14 13 16 14 22 23 24 24 24 21 26 25 24 26 27 26 27 27 25 26 27 27 26 31 31 31 30 34 32 28 27 30 28 33 29 33 33 38 36 32 34 36 31 28 21 18 22 28 28 30 27 26 21 18 
93 97 94 88 74 37 35 73 104 80 30 21 20 18 18 20 19 18 20 16 14 17 15 13 14 11 14 16 16 20 21 25 27 26 23 26 29 28 25 25 29 28 29 29 31 28 30 29 30 31 31 31 32 30 33 31 30 34 32 32 33 33 34 36 33 35 34 34 35 32 29 18 17 26 23 29 28 32 22 20 
40 43 47 49 35 32 34 74 107 81 30 22 21 20 23 24 20 20 21 18 19 19 17 18 17 16 17 15 15 17 22 27 27 27 28 28 28 31 30 30 27 32 30 30 32 32 30 31 29 30 31 34 32 32 35 37 33 35 31 35 31 35 32 40 35 35 37 41 34 32 31 28 24 20 20 23 25 29 20 24 
28 26 23 21 27 27 32 81 113 79 32 22 21 20 22 21 18 18 20 21 17 17 16 15 17 14 14 15 16 15 22 28 27 29 25 28 29 28 28 28 28 31 30 28 29 30 31 31 32 29 35 32 29 31 32 34 30 33 32 31 33 33 30 33 33 35 36 37 35 33 33 33 29 25 20 20 21 22 21 19 
71 66 50 44 41 47 47 95 116 78 32 25 19 21 21 22 19 24 20 19 18 18 16 20 17 17 15 15 16 16 24 30 29 29 29 30 29 27 29 31 32 26 28 29 28 28 30 31 30 31 32 33 31 35 34 34 30 33 36 32 33 33 36 35 38 37 36 34 33 35 35 32 35 35 29 31 27 24 20 20 
116 113 103 98 96 98 98 111 108 76 29 24 21 22 20 22 24 20 23 21 18 21 13 19 18 19 17 18 18 17 25 29 28 31 29 30 28 29 30 30 32 31 33 31 29 30 33 30 34 30 35 32 31 31 31 30 32 33 30 32 34 34 29 37 34 37 37 37 33 38 33 34 33 35 34 33 31 30 24 23 
98 101 97 98 98 99 102 101 94 59 26 22 19 17 21 25 22 23 24 18 21 22 17 25 21 19 18 17 18 18 25 26 26 27 28 32 29 28 31 29 30 31 28 31 27 29 31 31 28 30 30 31 32 31 35 35 31 34 32 32 34 30 36 35 35 39 38 40 33 34 36 32 35 33 30 33 32 27 23 20 
38 45 46 48 52 63 64 61 56 32 22 23 22 22 24 28 22 23 25 20 22 24 21 21 20 19 17 19 18 21 26 29 28 30 29 28 30 31 35 31 30 30 32 29 32 31 32 34 33 31 33 34 35 33 33 33 32 40 32 34 34 32 32 37 33 35 34 38 36 37 34 35 31 32 32 32 31 32 26 24 
24 25 23 23 24 30 32 26 30 23 21 22 22 23 24 23 23 24 25 22 20 21 24 24 21 19 17 21 20 20 25 29 30 30 31 32 29 30 30 32 27 31 32 28 33 32 31 31 32 32 32 33 32 31 34 34 31 37 34 34 32 35 35 35 35 35 36 38 36 31 35 37 36 33 32 29 29 31 25 24 
22 20 19 16 24 25 25 17 23 24 24 21 27 28 24 27 21 23 23 23 21 21 21 21 22 19 20 25 23 22 24 29 30 30 27 27 32 31 30 29 31 32 31 32 31 29 30 31 33 34 35 35 32 30 30 37 33 34 32 32 35 36 38 36 31 37 35 39 36 38 32 33 38 36 31 31 28 33 28 22 
20 25 21 21 22 23 19 20 21 25 24 22 25 27 27 27 23 25 26 24 21 23 23 21 23 19 20 22 21 22 24 30 31 30 31 27 31 31 31 31 33 33 33 29 34 32 32 34 31 32 37 32 33 33 31 34 32 33 34 35 34 38 38 39 36 37 37 42 37 37 32 35 39 37 34 33 29 32 27 30 
24 25 21 19 21 26 21 21 23 26 23 26 23 23 27 26 29 27 27 24 25 24 25 24 24 22 23 25 25 23 28 29 32 30 32 28 33 29 31 31 31 31 33 31 31 32 33 31 33 33 33 35 34 28 35 34 31 36 35 33 35 39 37 40 35 39 37 40 37 37 35 33 37 34 36 31 33 31 30 22 
22 27 17 18 21 26 25 23 25 26 22 23 25 26 25 27 25 27 28 25 26 27 25 23 26 23 25 26 23 25 26 30 33 28 31 29 30 33 30 28 28 32 29 31 31 31 31 32 36 32 36 32 32 34 32 36 31 35 33 36 35 36 34 38 35 36 36 40 35 37 33 34 36 36 34 31 29 36 31 29 
23 26 21 17 22 23 26 22 22 26 28 26 26 25 25 31 27 28 26 29 23 26 24 29 25 28 28 26 25 25 23 33 32 31 32 32 33 30 30 33 32 33 32 33 34 32 35 34 33 34 37 35 32 38 34 32 32 37 33 33 34 35 36 38 36 36 37 39 40 40 38 34 36 40 36 39 31 32 31 33 
21 24 21 20 23 24 25 24 23 25 26 27 24 26 29 28 28 30 27 30 25 25 24 26 25 27 30 30 27 24 25 33 34 33 32 34 29 32 29 34 33 30 32 31 30 30 34 37 36 34 33 36 33 36 32 32 34 33 36 33 35 37 36 37 37 36 37 37 36 36 33 35 35 35 34 33 31 31 37 37 
22 25 22 22 23 28 32 27 27 25 24 29 26 27 26 30 28 30 26 29 28 27 25 25 28 28 28 26 28 24 28 31 34 32 33 34 34 30 33 34 31 36 34 32 33 33 32 38 33 35 38 35 34 34 35 34 34 33 32 31 35 35 37 36 36 37 39 37 38 41 34 39 35 36 34 33 32 39 42 49 
23 24 22 22 27 27 29 26 27 23 24 26 26 29 28 30 30 30 27 28 30 28 29 29 30 28 30 32 30 27 25 31 36 35 35 33 33 33 33 34 33 30 36 35 33 36 37 33 32 35 34 35 33 35 36 36 38 36 35 32 34 35 36 34 37 39 38 39 36 38 35 39 39 38 36 37 42 52 48 53 
22 22 23 27 25 28 28 24 27 27 22 26 27 28 30 30 28 31 28 30 31 30 30 31 30 31 27 28 31 31 28 32 38 34 33 31 35 34 34 31 33 31 35 33 32 34 34 36 34 36 35 34 35 34 38 37 34 35 34 31 33 37 35 34 37 37 38 43 39 40 37 37 38 38 34 41 50 50 53 85 
21 24 22 25 26 29 28 25 25 26 24 29 29 31 32 33 33 35 31 31 34 32 32 34 34 35 33 31 33 33 29 31 37 35 34 33 37 32 37 33 35 35 35 35 33 35 32 33 32 33 34 35 35 35 35 33 34 33 38 37 35 37 38 38 39 38 39 40 41 42 40 36 40 41 40 41 44 48 56 122 
21 24 23 22 27 31 25 26 28 27 29 27 28 29 33 37 33 35 31 34 32 34 32 32 33 32 33 31 34 31 29 35 36 38 37 35 36 36 34 34 34 38 35 33 33 33 36 33 33 32 34 36 34 35 36 34 32 36 33 33 33 37 34 35 36 39 40 43 40 40 37 40 45 38 37 42 40 46 59 136 
22 24 21 23 30 32 30 34 26 28 27 29 30 32 34 37 35 35 34 37 34 34 34 33 34 36 32 32 31 33 27 31 35 37 37 35 38 33 35 34 35 34 36 33 35 35 32 34 35 34 34 33 32 31 30 30 32 34 30 35 33 36 38 37 38 34 39 40 42 41 42 39 41 43 42 45 47 53 59 131 
22 28 23 22 29 30 29 31 26 26 27 29 30 30 33 36 37 37 35 39 36 37 36 36 34 37 33 29 32 34 26 31 36 35 37 37 34 38 35 33 35 34 35 35 33 31 31 34 31 32 35 33 32 30 34 32 31 34 30 33 33 36 38 37 36 39 40 43 43 41 43 43 55 69 74 90 102 102 88 141 
26 28 22 27 30 33 31 26 30 29 26 29 30 31 36 38 38 38 39 36 41 40 41 38 38 34 35 32 32 29 25 27 37 39 38 36 39 37 35 38 34 35 34 36 31 36 33 35 35 33 34 35 32 33 33 30 31 39 35 34 33 35 37 35 37 40 42 43 44 45 48 81 129 165 192 216 216 202 166 171 
25 28 25 24 31 34 33 26 29 29 29 31 30 32 37 36 40 40 42 38 40 42 37 36 40 38 37 38 37 39 33 31 30 38 40 36 39 39 37 36 35 35 38 37 36 35 32 32 35 35 37 36 36 34 31 37 35 38 37 34 38 38 35 35 40 40 43 47 44 51 76 114 149 202 203 197 186 181 178 180 
22 24 25 22 28 32 32 29 30 30 27 32 33 33 34 37 37 40 38 39 39 41 39 41 44 43 45 43 42 43 37 34 32 38 38 38 36 39 36 35 35 38 36 34 35 35 35 34 34 34 35 33 33 33 30 36 34 38 33 34 35 39 37 38 39 41 42 43 53 75 101 116 132 147 148 155 160 170 179 197 
25 27 25 26 26 33 34 30 32 29 31 34 35 35 39 38 39 37 43 42 39 39 40 40 44 46 47 47 44 43 41 35 32 37 39 42 42 39 38 37 40 36 37 35 37 35 33 32 33 34 34 34 35 32 30 34 36 36 33 33 35 40 37 38 41 40 42 48 67 102 118 127 134 142 148 166 180 199 215 234 
22 29 25 27 27 30 30 29 34 35 32 34 34 35 36 37 40 39 41 40 39 41 39 42 41 48 46 47 47 45 39 35 34 42 39 42 38 42 38 39 38 37 36 36 40 35 35 33 37 34 36 35 36 36 33 33 33 38 35 34 39 37 39 38 41 37 41 46 68 109 133 145 151 163 169 185 198 215 234 242 
26 29 25 29 28 33 31 29 33 33 34 34 37 37 39 43 39 40 42 42 44 44 46 46 46 47 51 47 46 49 43 40 34 41 43 40 42 42 43 40 39 40 38 37 36 36 33 33 33 33 35 37 37 36 39 37 36 36 37 34 37 39 39 39 42 42 42 46 67 109 137 150 158 170 182 187 199 216 232 242 
25 28 26 26 28 36 30 28 31 34 35 35 40 37 41 43 41 44 42 45 46 43 45 47 48 50 52 51 50 46 45 38 35 40 40 42 40 40 41 42 41 39 41 41 35 38 38 35 35 36 35 36 37 42 44 45 37 41 39 39 37 42 41 40 42 39 47 42 60 100 130 148 154 169 174 183 199 214 229 235 
31 32 30 31 27 37 37 31 35 38 34 36 37 39 40 41 45 44 46 44 46 47 48 48 51 52 52 52 51 46 45 44 35 40 44 43 43 43 40 41 40 41 41 39 37 39 35 39 35 37 36 38 35 39 51 53 46 48 43 41 39 39 38 40 42 42 44 49 53 95 127 146 158 165 171 184 196 213 225 231 
27 35 34 34 33 38 35 32 37 34 35 38 39 39 42 43 47 44 44 48 49 49 51 50 51 54 57 54 49 51 50 45 38 45 47 45 44 43 43 42 40 39 42 43 38 39 36 36 36 40 37 41 39 44 55 76 85 64 48 42 41 43 42 41 43 43 45 47 53 92 122 146 156 165 170 177 194 210 228 229 
31 41 36 36 37 42 40 34 40 39 40 37 41 45 45 45 48 48 52 51 54 55 55 56 58 57 61 56 56 56 53 47 41 44 49 45 46 47 47 43 38 42 43 39 41 41 38 37 40 40 40 43 44 53 106 218 154 97 58 42 42 41 42 46 44 46 47 49 54 83 120 142 155 164 167 177 191 208 222 234 
38 43 35 36 40 46 43 37 42 41 42 43 46 47 50 53 52 54 55 59 61 59 60 63 61 66 62 61 58 60 50 48 45 43 49 49 50 51 48 44 45 45 45 41 43 45 40 41 40 41 44 45 45 56 125 248 159 94 57 46 43 41 44 43 45 45 45 53 49 79 114 143 150 157 166 174 181 193 217 230 
42 43 40 38 43 45 45 38 47 43 44 45 48 48 50 52 51 56 57 60 65 67 67 64 65 67 65 64 61 58 55 49 45 48 50 51 51 50 44 42 43 46 43 42 44 44 43 45 44 40 42 45 47 52 72 99 88 65 52 43 42 43 40 44 43 45 47 51 50 75 110 136 151 158 161 167 159 161 210 224 
47 51 44 44 46 52 52 45 49 49 49 49 51 51 55 57 59 59 63 67 69 69 71 69 73 75 74 74 67 62 56 54 46 51 52 50 49 45 44 46 46 48 48 46 44 45 43 47 44 44 44 47 46 45 51 56 56 55 51 45 43 44 45 44 46 45 49 52 53 70 105 132 149 155 160 161 160 175 215 225 
57 59 55 57 56 57 55 48 54 54 55 55 52 55 59 60 62 61 68 70 74 77 78 79 76 81 79 80 70 66 59 55 51 51 52 55 51 51 57 65 51 49 51 50 50 48 49 50 47 44 47 44 44 46 45 49 47 50 49 44 44 45 46 45 45 46 52 52 50 65 102 130 149 156 160 170 176 196 212 218 
84 82 74 62 63 60 60 57 54 58 56 56 55 56 56 61 64 66 73 72 75 79 79 80 79 88 90 81 67 65 59 56 52 56 56 58 57 57 87 128 60 54 58 53 51 50 52 49 50 47 46 50 45 45 47 48 46 48 43 44 44 44 47 46 48 47 51 55 51 57 104 132 145 158 158 166 174 193 212 214 


