P2
80 60
101
13 19 17 18 19 17 20 18 19 23 23 22 28 25 29 27 31 29 28 32 33 30 31 32 34 35 36 38 34 42 40 42 40 40 41 39 41 41 42 44 44 40 43 42 39 40 45 45 42 39 38 40 37 38 38 39 41 36 34 31 33 29 29 31 25 26 25 26 25 21 14 17 17 15 10 13 15 26 43 48 
15 18 16 19 17 18 17 20 20 20 23 23 26 25 26 28 31 29 30 31 33 35 34 36 37 37 39 39 38 40 42 41 43 45 42 43 45 42 43 44 42 45 44 44 40 40 42 42 40 41 39 38 37 41 38 37 40 35 35 34 33 31 28 25 26 28 27 25 23 22 19 17 14 15 12 15 13 28 61 62 
13 15 18 17 18 17 18 18 21 21 26 23 26 28 27 27 31 30 32 32 34 35 34 35 35 36 38 39 38 42 39 43 44 41 41 40 44 43 44 45 42 42 42 42 40 39 38 40 40 40 40 40 38 37 37 39 41 34 34 34 30 30 30 30 29 24 26 24 25 20 16 13 16 16 13 14 19 34 53 80 
20 17 17 19 18 17 20 16 23 20 28 28 28 28 27 29 31 33 33 34 39 38 34 39 39 41 38 40 37 42 43 42 43 44 40 41 44 46 43 46 46 43 41 42 41 44 43 41 41 42 40 43 40 39 42 39 38 36 37 35 32 31 30 34 33 25 26 24 22 22 22 18 20 20 13 25 32 40 52 74 
23 23 25 21 23 23 24 22 25 25 28 30 27 30 27 31 36 34 35 35 40 38 39 39 40 38 41 40 41 40 43 43 45 42 43 44 47 47 48 46 47 41 46 44 46 44 44 45 45 44 42 44 40 40 38 40 40 39 35 37 35 32 31 32 30 28 24 26 27 25 21 19 19 18 20 30 38 44 56 67 
21 23 21 24 21 24 27 25 25 28 30 28 29 31 29 33 35 32 36 38 40 40 36 42 41 40 42 43 45 43 44 45 44 47 44 44 48 46 44 47 46 46 46 45 45 46 45 42 42 41 42 41 43 43 39 41 42 39 40 36 36 32 32 32 33 28 29 26 27 25 23 20 20 21 32 35 48 54 70 74 
26 25 25 27 27 26 26 25 28 31 32 32 34 34 35 37 36 38 39 41 39 39 39 46 45 44 45 45 43 43 43 45 43 46 44 47 48 47 46 50 47 49 47 48 45 44 45 46 43 42 42 43 46 42 41 39 39 41 41 38 38 35 37 35 35 29 29 32 31 26 26 21 19 21 33 43 51 63 72 84 
25 25 24 26 26 26 27 28 27 34 32 34 33 38 37 41 38 38 41 39 41 43 40 42 45 44 42 46 45 44 46 46 46 45 50 45 47 49 47 50 46 48 48 47 46 47 49 46 45 40 44 45 44 44 40 42 40 40 42 37 37 37 37 36 34 33 32 31 30 26 28 22 23 29 41 49 61 70 80 87 
29 29 25 27 27 28 30 30 29 33 34 35 38 37 37 37 42 40 41 42 42 44 41 46 45 43 43 49 46 49 46 49 46 48 49 50 51 51 46 49 48 49 51 49 46 48 46 50 46 41 45 45 42 42 43 43 44 44 44 37 39 38 39 38 36 32 33 33 35 30 27 23 25 26 39 48 56 75 83 88 
28 29 26 28 28 31 30 34 32 32 37 35 41 37 38 38 39 41 43 43 44 45 44 47 44 45 45 48 47 47 50 50 50 48 49 52 51 52 49 53 52 49 50 47 51 49 49 49 50 46 45 46 46 48 44 47 43 45 42 41 38 40 39 35 38 36 34 35 32 34 30 28 29 33 44 57 64 75 88 95 
30 30 31 29 30 29 30 34 35 37 38 41 39 41 39 42 43 43 44 46 46 44 46 47 48 47 49 50 48 51 51 55 52 52 51 51 54 52 50 53 53 50 52 54 51 50 49 49 53 46 46 46 49 45 47 47 46 45 44 44 40 40 39 36 38 38 34 35 36 35 32 27 29 31 45 56 66 78 91 98 
32 32 32 32 33 30 36 38 36 40 40 39 40 42 43 43 44 46 46 43 49 47 48 49 47 49 51 49 48 52 51 52 52 53 51 52 53 52 53 51 52 52 54 52 50 53 52 51 50 46 49 50 47 48 47 46 47 44 44 44 43 40 41 42 39 37 36 40 39 37 35 32 32 32 36 49 68 77 84 98 
32 34 30 30 33 35 34 37 38 42 43 39 40 43 43 41 43 46 42 46 46 48 47 49 51 51 52 52 54 51 52 53 52 52 52 54 55 52 51 53 50 52 55 54 53 51 52 51 46 46 50 49 47 45 45 46 46 44 43 47 45 41 41 39 37 37 38 36 36 35 32 31 31 29 31 50 65 76 88 101 
31 33 33 31 35 36 38 39 40 40 42 38 43 44 40 44 43 46 46 46 47 51 49 50 50 52 50 52 52 52 51 58 51 52 52 54 55 52 52 52 50 52 53 53 51 54 54 50 48 47 50 49 49 47 46 47 49 45 45 44 44 44 40 39 39 37 37 40 38 36 33 33 33 32 28 38 55 71 88 99 
36 35 34 36 38 38 39 39 39 40 40 45 43 42 43 43 44 46 47 48 48 51 46 52 52 51 51 51 54 55 55 55 53 52 51 54 54 53 53 56 52 52 54 54 51 53 52 53 52 48 53 49 46 49 49 50 48 49 45 45 44 44 41 39 39 40 40 37 40 37 33 32 33 30 31 31 42 64 78 99 
36 37 35 38 41 39 38 43 41 43 42 44 45 45 45 45 46 48 46 49 52 52 51 53 49 54 53 51 50 55 56 57 53 54 54 56 53 55 52 57 55 54 56 56 52 52 52 53 51 49 51 50 48 50 49 51 47 49 47 47 44 46 42 41 40 38 41 39 37 37 35 32 35 31 32 30 31 56 71 93 
34 35 35 38 40 40 42 41 42 43 45 46 44 47 46 47 50 47 52 50 50 55 52 56 52 55 54 55 53 56 53 57 54 58 55 54 56 56 55 53 56 54 55 56 56 55 52 54 51 51 51 51 52 53 48 54 52 51 50 49 45 44 43 42 42 40 40 39 38 38 39 33 33 33 30 33 34 47 63 81 
36 39 37 40 41 41 43 41 45 45 46 44 49 48 49 47 47 46 50 52 52 54 53 55 51 56 52 55 54 55 58 57 58 56 55 57 55 55 55 55 58 55 55 55 55 54 51 54 49 53 53 51 51 48 50 53 50 50 47 48 45 42 43 43 39 43 40 35 41 39 37 36 32 33 32 33 30 31 45 65 
38 40 38 37 39 40 43 42 47 42 45 45 48 50 50 52 51 50 48 52 53 55 51 54 54 56 52 54 54 53 55 58 54 56 57 57 57 57 57 55 58 54 57 55 56 56 55 54 53 53 52 54 53 52 50 52 51 48 48 48 47 46 46 43 44 41 39 37 39 41 32 41 35 34 31 32 30 31 32 42 
43 44 40 41 40 43 42 41 44 46 50 44 52 50 48 51 51 51 49 54 52 54 53 54 54 57 56 56 55 56 58 56 58 56 56 53 57 57 56 58 54 54 57 57 57 57 56 55 56 52 45 49 52 50 48 52 49 49 49 48 50 47 46 43 43 41 39 41 42 37 37 38 37 34 33 35 32 32 27 26 
41 44 36 40 38 42 41 44 47 48 50 48 46 51 50 50 51 52 52 55 54 55 50 52 55 56 55 53 56 55 55 57 57 56 54 54 56 57 57 56 57 54 56 57 57 55 57 55 54 52 50 50 51 48 50 51 52 51 49 46 45 48 44 44 46 42 40 40 42 40 37 36 36 36 34 34 31 34 25 26 
42 45 41 42 41 43 44 43 47 48 51 46 52 49 48 51 52 50 51 54 53 55 52 58 56 57 54 56 56 58 58 59 55 60 56 55 56 56 56 56 55 54 56 56 57 58 55 55 54 53 54 57 50 51 49 50 51 51 48 49 48 50 48 46 46 45 42 44 41 40 39 37 36 37 33 33 34 31 26 29 
41 40 42 42 41 44 45 47 47 50 50 49 48 51 51 53 48 53 51 54 52 56 49 55 54 56 56 56 57 55 56 56 59 54 56 56 59 58 55 55 53 56 57 56 56 58 55 55 55 53 55 55 54 52 52 52 50 51 49 48 48 50 48 43 43 45 42 42 41 38 38 38 37 36 35 30 32 32 29 29 
45 44 41 45 47 44 46 50 48 52 52 50 50 51 51 53 50 52 49 53 53 56 53 56 55 55 58 56 57 55 59 59 58 60 58 56 57 57 56 57 58 57 57 57 59 58 58 56 56 55 57 54 56 53 50 54 54 52 47 50 49 48 49 45 46 44 43 43 42 44 38 39 37 36 38 34 32 36 27 24 
41 42 39 45 44 43 47 50 49 49 50 51 52 52 46 54 53 52 55 54 53 52 53 54 54 57 55 55 57 56 57 58 56 61 58 59 61 59 57 56 60 59 55 58 55 53 57 56 56 55 56 54 52 53 50 54 52 50 50 49 49 50 50 46 48 48 45 41 42 43 40 38 38 37 34 35 35 32 31 28 
43 42 44 44 44 45 47 52 49 52 48 53 52 51 50 51 51 53 52 54 54 56 51 53 55 57 58 58 60 58 60 58 56 59 59 59 61 59 60 59 59 54 55 59 58 57 56 58 58 57 56 55 55 53 52 55 53 53 52 52 50 49 46 47 46 45 44 41 42 43 41 37 37 36 38 38 33 34 29 35 
42 42 44 43 44 43 44 49 50 48 47 51 52 53 50 51 52 51 51 52 53 56 52 53 54 55 53 59 56 56 55 58 58 58 57 59 61 59 59 59 58 58 61 57 56 57 57 56 60 55 55 51 54 52 51 53 52 53 51 52 51 48 50 49 50 45 44 43 45 44 38 40 40 33 36 36 33 35 30 30 
46 46 47 43 47 46 46 47 50 50 51 50 49 49 52 53 49 53 50 55 56 54 52 55 58 56 57 58 59 56 60 56 59 59 57 59 62 62 61 61 60 56 59 59 59 58 55 57 57 58 56 55 56 56 53 54 52 53 53 52 52 49 48 47 45 45 47 44 44 44 39 41 38 35 38 37 34 36 27 28 
46 45 45 43 45 47 41 48 46 52 50 49 53 49 49 51 52 51 52 52 54 54 54 55 54 57 58 57 56 58 57 58 57 58 56 60 61 62 58 58 57 57 55 59 57 56 52 57 58 58 55 51 54 51 52 51 52 50 50 52 51 48 49 48 44 45 43 42 44 45 43 40 40 38 35 37 30 32 29 29 
41 47 44 44 47 46 44 49 47 51 52 51 55 48 54 50 50 52 52 51 53 55 54 53 56 56 56 56 58 58 62 59 59 57 57 59 62 62 60 57 58 59 57 59 58 58 55 55 58 56 56 53 53 53 52 49 53 50 51 52 48 47 46 44 47 44 46 44 47 43 41 40 40 40 35 33 33 31 26 27 
44 46 44 43 46 46 46 48 48 50 52 51 53 53 52 52 50 48 50 52 50 53 52 55 58 57 57 60 59 56 60 59 55 58 57 58 60 61 58 60 56 58 56 56 56 56 57 56 56 55 57 54 53 54 50 52 51 51 50 49 48 49 49 44 45 47 47 43 44 42 44 36 38 33 33 32 33 30 22 25 
43 45 41 42 41 45 46 47 51 50 49 49 52 52 49 49 50 52 50 51 51 52 53 55 55 54 55 57 58 57 59 59 59 59 59 59 60 60 61 58 59 57 57 60 56 59 58 58 55 56 53 52 54 52 51 52 52 51 49 49 48 46 49 47 47 44 44 43 43 41 39 39 37 34 32 34 33 32 24 25 
43 47 43 44 44 46 47 49 49 55 56 51 52 50 49 51 53 52 52 53 52 53 51 55 55 56 57 58 61 58 58 57 58 57 56 58 60 61 59 60 59 58 58 57 58 58 58 59 57 56 56 53 54 52 50 52 53 51 50 49 53 50 47 46 45 45 42 43 42 41 42 39 35 34 35 30 31 30 25 27 
44 45 41 41 45 43 43 50 46 51 50 50 49 51 53 48 47 50 51 51 51 53 52 55 54 56 55 54 60 57 59 60 59 58 58 57 59 61 61 60 59 62 61 57 57 56 58 59 62 59 53 52 55 52 54 53 53 48 51 49 49 49 47 48 47 45 44 44 46 42 41 40 36 35 33 31 32 30 26 27 
40 41 45 42 41 42 43 44 48 49 52 48 50 48 49 52 51 53 49 50 54 54 51 56 57 55 55 53 59 56 57 58 59 57 56 55 60 55 58 60 60 56 56 57 56 55 56 56 57 55 54 54 53 53 53 51 52 48 49 48 52 49 47 46 44 45 43 40 40 40 37 35 38 32 33 31 31 29 24 28 
40 40 40 38 41 42 43 43 43 49 46 49 48 50 47 49 46 48 50 51 55 54 53 56 56 55 56 55 57 57 55 57 58 57 56 55 58 56 61 58 56 58 58 58 57 55 56 57 55 57 52 52 51 51 49 51 50 48 50 47 46 47 49 44 43 43 42 42 41 40 37 37 35 35 31 32 31 31 26 28 
39 42 37 42 40 44 43 47 44 47 49 47 49 49 46 45 46 50 49 48 53 54 52 56 54 55 54 56 54 53 55 58 57 57 55 55 59 57 55 55 58 59 61 59 59 58 55 56 55 53 54 55 52 50 50 49 51 49 51 47 47 47 47 43 44 42 40 41 38 37 36 38 32 34 32 27 28 27 21 25 
37 40 35 40 38 39 42 42 43 47 47 45 46 46 46 45 46 47 49 52 50 51 55 56 53 54 54 54 54 55 55 57 56 53 57 55 58 57 57 55 57 57 60 58 58 57 57 54 55 55 52 52 51 53 48 48 48 47 47 46 43 44 46 44 42 42 40 42 41 37 35 36 34 32 30 28 30 28 20 18 
38 37 35 40 40 37 43 42 42 44 47 47 48 48 47 48 45 50 50 50 49 50 51 55 55 52 53 56 55 53 54 54 55 53 55 55 57 56 57 56 59 55 56 55 57 54 57 55 57 53 50 51 52 53 49 50 50 50 48 48 45 45 42 44 42 43 41 38 40 38 33 33 33 30 29 28 28 25 23 23 
37 37 35 38 36 38 38 39 42 45 45 43 41 47 47 47 46 44 49 50 49 50 49 51 52 52 52 50 53 55 53 55 58 52 53 54 56 54 56 55 57 57 57 55 58 55 57 54 56 53 53 53 52 50 51 50 48 50 46 44 46 41 41 40 42 42 39 37 36 37 35 35 32 30 30 27 27 25 21 24 
38 35 35 36 36 34 39 40 44 44 43 43 44 43 45 45 45 47 49 50 50 53 51 52 53 53 55 49 56 54 55 55 53 54 53 54 56 57 59 54 55 56 55 57 56 53 55 54 54 51 53 52 53 51 50 49 50 46 46 44 46 39 39 38 41 41 39 40 38 34 33 30 33 28 28 23 25 23 22 23 
34 32 35 36 32 35 38 42 38 41 40 41 40 43 44 43 42 45 45 48 48 48 51 53 51 49 51 50 58 52 54 56 56 53 52 51 57 54 55 55 57 53 55 53 54 54 56 54 52 53 50 50 49 49 47 49 49 46 43 45 44 42 38 40 40 38 39 35 36 33 32 30 31 30 30 22 23 22 17 24 
34 35 29 33 33 33 38 37 37 38 40 43 42 45 41 43 42 41 46 47 49 51 51 50 49 49 49 50 54 50 52 54 56 52 53 52 53 53 54 53 56 54 54 57 53 53 53 54 51 52 48 47 47 47 45 46 46 42 43 42 39 40 41 36 40 37 36 36 34 32 33 29 31 29 23 22 22 23 17 21 
37 36 35 34 35 36 36 38 38 38 40 39 41 43 41 44 42 43 45 46 48 48 48 50 48 52 49 49 56 50 54 55 57 55 51 49 52 49 50 53 57 52 52 51 54 52 53 53 49 52 50 47 49 46 46 45 43 43 43 42 42 42 42 36 34 37 32 32 34 31 30 27 30 27 29 23 21 18 16 13 
29 35 35 33 34 35 37 31 35 37 38 40 40 43 42 42 41 46 45 47 51 49 51 51 47 49 50 50 52 48 50 51 51 49 49 51 49 50 52 50 52 51 54 52 52 50 50 50 48 48 48 46 47 43 42 45 44 40 39 37 40 39 38 31 36 34 32 33 32 31 28 30 29 26 24 22 20 21 13 11 
29 31 32 31 33 30 33 33 34 35 36 35 38 40 39 41 42 43 44 47 47 46 48 44 48 50 50 49 50 48 48 51 51 55 47 51 51 48 51 50 50 52 52 50 53 49 50 50 49 50 46 47 44 42 41 42 43 40 39 41 37 38 39 36 33 33 31 32 31 30 25 25 26 26 20 21 20 18 15 12 
26 29 28 28 26 29 28 31 33 34 37 36 38 37 38 41 43 43 43 45 43 47 44 42 46 47 45 47 52 48 47 50 50 52 50 50 50 52 48 51 46 48 52 49 50 49 50 51 52 48 45 43 45 40 41 44 40 43 40 40 40 38 36 33 29 32 32 31 31 30 25 24 23 27 21 17 16 21 15 11 
29 28 24 31 29 29 29 33 31 33 34 33 36 35 37 39 41 44 41 43 45 46 47 44 46 47 45 47 50 45 50 48 49 51 50 47 47 50 47 51 46 47 49 48 51 49 47 47 46 46 44 44 41 40 40 42 38 41 38 40 38 38 33 29 33 30 28 29 29 29 25 23 23 22 21 18 19 20 13 12 
27 26 25 30 27 27 27 26 28 30 34 31 36 35 38 37 39 39 42 40 45 41 44 44 44 45 44 47 51 45 48 48 50 50 50 51 50 46 47 50 46 47 52 48 49 46 48 49 38 45 43 43 39 38 38 39 38 40 40 40 38 35 34 31 30 29 29 28 27 25 23 18 22 19 20 17 16 16 8 13 
25 26 22 26 26 24 28 28 26 30 33 32 35 34 36 36 37 39 41 40 38 45 41 43 43 44 44 45 46 47 47 49 49 48 47 47 49 47 45 46 49 46 48 47 48 44 48 48 41 45 37 37 37 38 37 40 41 39 38 38 38 34 33 34 29 28 28 25 28 28 22 23 25 19 21 15 15 15 9 12 
23 22 21 23 22 23 24 24 26 28 32 32 33 34 34 35 33 38 37 40 37 39 42 44 39 42 43 45 45 43 48 45 49 49 45 47 46 47 46 50 49 44 48 43 43 36 45 47 39 40 27 27 34 40 39 38 39 38 39 39 39 35 34 31 31 31 26 28 25 23 22 17 21 17 15 13 15 11 7 7 
22 24 20 23 21 24 25 23 25 26 30 30 28 32 35 33 33 35 37 36 37 39 39 40 40 42 41 44 46 42 46 44 46 47 44 44 45 46 45 48 46 44 45 44 43 41 46 46 40 42 35 24 27 40 38 36 39 39 38 38 38 33 34 30 30 30 27 25 24 19 21 16 18 16 16 12 13 12 3 0 
22 24 20 26 21 21 19 22 27 26 27 28 29 32 29 30 34 35 35 36 35 40 36 40 36 40 43 43 44 45 46 46 46 45 43 45 44 47 45 47 45 44 44 43 45 41 42 48 40 42 40 34 33 38 38 38 40 40 37 36 36 36 33 30 33 27 28 26 25 21 19 17 19 18 13 11 14 15 6 4 
22 23 16 21 20 16 20 19 22 25 24 26 29 31 28 31 31 31 34 36 34 36 34 38 37 37 40 43 42 45 42 43 43 43 42 41 42 47 46 44 46 44 41 47 43 44 45 42 46 46 45 42 42 39 36 40 38 36 37 38 34 35 33 30 30 26 26 25 24 21 17 17 16 13 14 10 12 11 12 5 
22 22 17 23 22 18 23 23 25 24 28 27 32 26 28 29 29 30 31 34 33 37 33 38 36 39 36 42 41 39 41 45 43 44 40 40 44 44 47 46 45 46 43 43 44 42 42 46 46 46 45 43 44 42 38 38 41 35 34 36 32 32 29 29 27 25 26 25 21 21 15 16 14 16 15 10 11 9 6 9 
17 22 17 20 17 19 21 23 23 25 27 29 30 29 27 30 33 30 34 34 31 34 37 41 38 38 39 42 40 37 43 42 41 42 43 41 42 44 45 48 44 40 46 43 45 46 52 51 48 55 47 47 45 46 42 45 41 39 35 37 33 31 29 32 29 30 25 23 23 19 18 18 18 12 15 8 13 10 5 5 
24 21 17 18 20 16 17 23 24 24 25 26 26 27 28 29 27 31 31 29 35 31 33 39 36 38 38 39 41 38 41 41 41 47 41 39 41 44 42 46 41 42 47 46 45 49 47 45 45 46 44 45 43 47 43 41 41 40 33 37 32 33 28 27 28 28 24 24 24 21 20 15 17 16 13 12 12 11 7 6 
21 22 16 18 17 19 23 23 25 26 26 26 26 24 29 30 31 29 32 29 31 32 34 37 34 34 38 36 44 37 42 42 43 43 41 40 46 46 43 44 43 41 45 46 44 45 43 47 45 43 43 41 38 43 43 45 46 41 34 34 35 31 28 29 24 28 26 23 23 24 22 16 18 17 12 13 13 12 7 7 
15 21 17 18 18 19 23 26 22 26 23 23 27 27 25 29 28 28 30 30 31 33 31 32 38 36 36 39 41 38 41 39 43 43 41 39 43 47 42 44 44 45 49 48 48 47 49 46 41 38 39 38 38 40 43 42 44 42 40 36 32 32 30 24 24 26 24 23 24 26 25 18 19 16 15 13 15 15 9 5 
17 22 17 22 17 19 22 24 21 20 24 24 24 30 25 27 22 26 31 28 29 31 32 35 37 37 37 40 40 33 42 40 43 40 42 40 39 46 45 48 44 49 49 46 46 47 47 42 41 39 36 37 39 41 40 40 43 41 41 35 32 31 31 26 31 25 25 24 20 24 25 21 19 16 17 12 12 13 7 10 


