P2
80 60
146
12 11 17 19 19 15 19 23 24 22 22 23 25 29 26 30 30 31 30 29 31 35 38 40 41 39 44 49 47 48 46 48 51 47 50 49 52 49 47 52 50 54 49 49 49 51 50 53 51 52 53 52 52 46 48 49 46 43 44 46 43 38 37 38 34 27 26 24 24 23 21 14 13 15 13 10 16 13 8 7 
8 16 17 20 19 19 18 19 25 24 23 21 25 29 28 28 31 32 32 35 32 36 36 39 42 42 46 46 49 50 48 48 52 49 49 48 48 50 51 50 50 54 50 50 48 53 55 57 53 55 51 53 50 51 47 47 48 44 42 44 45 42 40 36 35 29 29 25 24 21 19 19 18 15 13 11 14 13 13 9 
8 19 23 20 23 21 21 18 25 26 25 26 27 33 30 34 33 32 33 33 34 38 38 41 41 44 47 51 54 51 49 49 52 52 52 49 49 49 50 51 54 60 51 54 51 51 56 57 58 54 55 57 51 51 51 51 47 47 46 46 41 42 41 38 37 35 30 27 22 24 19 20 18 13 10 12 14 14 9 8 
16 19 21 21 21 25 20 21 25 29 28 27 30 30 31 34 34 37 36 40 39 39 39 39 42 39 45 50 52 49 50 55 51 55 50 52 55 52 50 49 53 54 52 53 52 54 52 52 52 54 55 57 52 50 52 50 49 49 47 44 46 44 40 39 41 35 34 27 27 24 22 21 21 14 16 7 12 14 10 7 
21 23 24 21 23 21 22 24 27 29 27 28 31 36 34 33 34 40 38 39 38 38 39 40 43 43 44 43 47 45 47 49 53 53 51 52 54 52 49 51 53 57 51 50 51 54 54 54 52 54 54 56 55 50 52 53 51 49 48 47 40 45 38 38 38 35 30 28 28 29 26 22 23 20 14 10 10 12 11 6 
15 26 25 22 22 25 24 26 28 30 31 32 32 34 38 34 38 39 39 37 38 40 46 44 41 44 46 44 47 48 43 50 52 54 50 52 51 53 51 52 52 56 55 52 49 55 57 54 55 54 54 54 55 55 54 51 48 47 49 47 45 44 41 41 39 34 33 29 28 25 24 25 25 22 16 10 6 7 1 0 
13 26 26 23 23 24 29 24 27 29 32 31 33 38 37 37 37 38 38 40 39 37 47 44 41 43 45 47 42 42 40 46 50 52 48 53 53 53 50 52 55 56 54 55 53 55 58 54 54 55 53 53 53 55 51 52 48 50 46 47 45 44 42 41 40 36 35 31 30 29 26 23 23 21 18 10 7 10 8 4 
11 23 22 24 25 25 26 27 33 30 33 37 33 37 37 38 40 41 42 43 40 40 45 45 44 46 45 47 46 44 45 53 51 52 50 51 50 52 50 53 56 55 54 52 49 54 53 54 54 54 52 52 53 53 52 51 47 52 49 50 48 47 49 42 41 40 35 32 31 31 27 26 22 21 16 11 16 6 7 2 
18 24 23 22 24 23 24 26 25 29 32 36 37 45 39 41 41 40 44 41 38 41 43 42 43 46 46 47 47 49 53 69 91 80 65 59 57 53 53 52 55 53 53 53 55 54 54 57 52 52 56 54 51 54 53 52 50 51 51 50 47 48 46 42 41 40 37 36 31 33 30 27 26 23 14 13 10 11 8 3 
17 28 27 25 25 24 28 26 31 30 31 34 36 40 37 42 40 43 45 40 40 44 44 44 48 51 47 49 47 49 51 62 79 92 90 92 69 56 52 54 52 54 52 55 54 57 53 51 54 53 55 54 53 53 49 52 52 50 49 52 53 48 47 46 42 42 39 33 35 30 32 31 27 25 16 17 17 13 9 6 
23 29 28 25 29 26 29 29 30 33 31 32 34 35 35 40 41 41 42 44 44 45 46 44 51 50 47 50 51 52 57 67 70 79 75 82 68 59 60 52 53 55 55 53 54 57 56 56 53 59 55 57 57 54 52 55 51 50 50 50 51 49 48 48 46 38 40 37 36 34 31 33 26 26 23 29 26 14 8 0 
28 31 33 32 34 32 31 36 37 36 34 34 36 33 35 36 36 39 48 43 42 44 48 48 48 51 50 51 47 47 73 67 67 71 75 75 55 57 55 53 54 55 54 55 54 56 58 55 55 57 55 54 53 57 54 54 51 55 54 52 50 49 48 44 47 40 37 37 37 36 33 29 36 39 37 35 37 28 14 7 
29 37 32 33 36 33 35 37 38 40 39 39 36 37 38 36 37 38 44 45 42 48 53 50 53 49 53 51 52 50 61 62 66 70 69 65 57 56 54 53 55 57 55 54 53 57 55 54 56 55 57 56 54 55 54 56 54 58 55 52 50 51 54 47 47 41 40 38 36 33 34 41 44 43 41 40 40 43 36 30 
29 36 38 36 39 37 38 38 38 42 40 42 39 41 40 38 37 38 38 40 41 46 50 52 54 54 54 53 55 55 56 55 58 57 59 63 62 60 56 58 54 57 55 55 56 54 57 53 54 56 56 58 56 57 55 55 55 54 55 53 51 52 49 49 45 46 41 36 37 45 47 41 48 46 48 46 49 52 44 36 
29 33 37 36 39 36 39 38 40 41 42 41 42 45 44 43 42 42 39 40 40 47 47 49 56 54 54 54 64 56 56 60 56 56 58 54 56 55 53 57 58 60 59 57 56 56 59 55 56 54 55 56 54 57 58 56 54 52 53 54 52 51 50 43 46 39 40 47 52 46 55 50 54 53 49 55 56 57 47 47 
30 36 36 40 41 40 36 42 41 36 41 44 46 48 45 44 43 44 44 42 37 42 52 52 51 50 55 53 59 57 56 58 57 58 57 55 57 54 54 53 54 61 56 56 59 56 55 56 56 54 56 59 50 55 55 57 52 55 54 53 51 53 49 46 43 39 48 45 50 54 52 52 59 54 54 56 62 64 55 54 
31 40 38 38 41 41 37 41 42 40 42 48 45 49 51 50 45 45 45 44 44 45 44 49 52 56 54 55 57 57 55 56 57 59 54 53 55 54 51 55 56 59 59 58 59 59 59 55 57 56 58 56 55 61 56 57 53 53 58 57 55 54 48 43 44 48 53 50 53 54 58 60 67 65 64 62 71 70 60 59 
34 40 40 37 42 39 41 47 44 44 43 44 45 49 48 48 47 48 46 51 48 45 49 43 56 55 55 54 53 58 57 58 56 57 57 55 54 55 55 55 56 54 59 56 58 57 58 54 55 55 57 60 58 58 55 55 52 56 54 56 54 54 48 47 50 50 52 54 59 62 63 63 72 73 72 73 78 73 69 65 
35 37 40 38 36 38 37 40 44 44 44 43 40 49 53 56 47 47 48 51 50 49 48 47 49 61 57 51 54 52 52 49 55 56 59 54 54 55 53 55 55 55 56 58 57 60 55 57 59 61 55 56 56 54 57 55 56 59 57 58 56 49 45 45 52 53 59 56 59 64 66 70 78 79 76 80 85 80 73 72 
31 42 38 41 41 42 40 42 43 44 44 47 44 48 51 51 48 51 46 50 52 53 49 47 47 52 56 53 58 54 54 53 55 57 57 54 56 54 53 55 57 59 60 57 56 60 56 57 56 57 53 59 56 60 55 59 56 58 58 54 53 52 46 54 62 57 63 59 69 68 72 77 86 87 89 90 92 88 81 79 
38 44 37 45 46 42 40 39 43 40 41 42 44 45 50 47 42 45 49 54 50 53 50 54 50 46 53 55 59 56 54 53 56 57 56 53 53 55 51 54 59 63 59 55 56 60 58 58 57 58 57 61 55 57 58 60 58 60 56 54 53 51 54 60 63 66 68 70 66 78 81 87 98 96 98 100 105 99 89 86 
29 35 36 38 40 37 34 35 40 37 42 38 40 44 46 45 43 43 47 48 47 47 48 50 50 49 45 53 58 53 54 52 58 57 54 53 55 56 53 55 61 62 58 57 58 57 55 58 54 61 59 61 59 57 59 56 54 58 54 54 56 50 68 66 70 70 78 78 85 83 92 93 109 107 105 107 112 103 95 87 
25 31 30 30 32 33 33 32 40 41 42 40 42 41 43 43 41 43 46 43 44 45 47 49 47 46 46 43 57 57 54 55 58 56 53 53 52 50 54 58 58 57 56 57 57 60 58 59 60 58 56 61 57 63 53 59 59 58 52 53 49 58 69 69 74 76 81 85 91 95 106 106 119 115 112 114 117 115 105 97 
27 34 32 34 33 35 34 37 41 42 39 40 42 42 40 41 44 44 43 42 43 44 47 45 47 47 46 45 54 52 49 55 55 52 55 55 53 50 55 56 55 56 53 52 56 55 57 55 60 59 60 60 57 58 55 60 58 56 51 52 54 70 72 73 80 82 89 92 98 107 110 118 122 126 120 125 124 116 114 103 
29 36 35 38 36 40 40 43 43 41 46 45 44 48 46 43 47 44 47 47 44 44 46 46 45 42 50 47 44 50 51 49 53 54 55 54 53 53 52 54 55 57 54 55 56 60 58 58 60 61 58 56 58 61 59 57 56 52 57 55 65 73 79 79 89 84 96 104 105 111 120 125 130 127 128 129 129 122 114 111 
29 36 38 37 38 38 45 42 45 42 47 49 48 50 48 49 45 48 50 51 44 43 49 46 46 46 46 46 43 48 49 53 53 54 57 54 54 54 52 53 55 55 53 54 54 55 56 58 60 58 60 59 58 61 60 58 56 53 54 64 72 76 82 87 91 98 106 107 110 124 122 130 137 138 131 131 129 123 119 115 
30 44 40 39 42 40 44 44 49 44 46 46 46 51 48 48 49 48 49 48 46 49 47 45 47 46 49 47 42 42 47 49 50 51 56 55 57 54 55 56 56 56 57 57 55 54 55 58 60 61 59 63 59 61 59 58 54 51 72 72 77 83 91 92 98 104 110 113 120 123 129 134 136 132 128 132 127 125 119 113 
33 39 43 42 46 40 42 42 47 49 46 46 45 49 47 47 47 46 46 46 43 48 47 45 46 43 48 47 46 42 43 47 51 52 54 53 55 56 53 57 59 58 56 56 54 57 55 54 58 59 60 62 65 58 56 52 53 60 75 82 87 91 97 97 108 112 119 121 118 117 126 128 133 126 123 121 128 122 116 110 
32 37 41 41 40 40 39 40 45 45 43 44 46 46 47 46 47 47 46 47 43 45 50 45 44 40 45 43 43 42 39 42 49 50 51 51 56 53 53 51 57 57 53 53 53 57 56 57 57 61 57 57 59 56 50 57 64 72 81 83 91 97 102 99 100 98 110 103 92 84 73 63 66 57 50 52 58 59 51 48 
31 38 38 38 41 39 41 40 45 46 45 43 45 49 49 48 46 47 47 46 42 42 40 43 40 40 39 43 40 39 40 44 44 48 47 49 51 49 50 52 55 57 53 54 56 56 59 56 58 59 60 61 59 52 47 56 72 82 83 93 96 105 93 99 92 72 50 42 36 36 31 29 34 29 25 25 25 23 17 27 
31 37 37 37 42 39 41 40 43 46 46 44 42 48 46 44 46 45 45 41 38 37 38 37 42 41 45 43 42 42 40 43 45 44 46 46 48 47 51 55 56 54 52 55 54 54 55 57 60 57 60 58 55 52 55 69 78 86 90 95 100 95 80 57 45 35 36 34 37 36 39 39 42 37 34 36 41 31 22 23 
30 44 41 39 41 38 40 42 48 44 45 44 42 47 48 46 46 42 37 38 39 40 43 42 44 48 49 46 45 42 45 43 45 47 46 48 44 46 46 53 58 58 54 57 56 59 57 58 57 57 57 58 58 63 72 79 86 98 103 93 86 63 46 42 47 45 51 66 83 93 107 114 118 115 107 111 106 96 78 71 
30 39 42 40 41 41 39 45 47 43 45 46 45 47 48 45 44 41 39 38 41 40 47 46 47 44 48 49 49 46 44 44 44 48 42 45 46 44 44 44 53 56 54 55 56 58 59 60 58 55 59 54 66 79 79 89 94 99 95 80 50 42 51 56 81 99 123 126 134 135 138 135 141 135 130 126 128 118 106 96 
28 31 34 36 37 40 40 46 46 44 48 44 44 48 45 47 45 42 36 38 43 43 48 48 52 52 51 50 48 49 44 46 43 45 45 44 42 44 45 45 42 48 50 55 55 57 58 55 60 55 57 69 76 87 83 90 101 90 78 50 42 48 75 106 131 135 141 139 146 144 142 135 142 132 127 129 125 117 99 91 
26 30 34 37 41 41 38 42 45 44 46 45 48 47 40 44 39 35 42 40 41 44 44 49 58 51 52 51 47 49 46 45 46 45 42 41 40 42 41 47 45 46 48 53 55 56 56 57 56 51 64 75 82 85 86 96 89 77 51 44 54 85 117 128 137 141 139 134 138 138 136 136 132 132 124 120 112 103 93 85 
29 35 29 34 40 32 37 39 42 39 42 42 47 45 40 39 38 40 43 46 44 48 48 53 53 51 54 53 47 49 45 44 44 47 46 45 42 41 38 44 45 47 44 49 48 53 52 50 51 62 67 81 81 89 94 90 79 53 48 61 100 115 127 133 135 137 136 128 132 136 135 131 126 126 118 115 109 97 85 76 
31 30 30 33 41 37 37 40 41 42 44 39 40 42 39 39 39 43 39 46 50 51 53 53 51 48 50 49 47 48 43 43 44 52 53 54 49 47 43 40 39 47 45 43 44 41 46 55 62 69 72 79 84 93 89 78 50 49 64 97 120 132 134 134 132 131 129 130 126 127 129 125 124 123 112 108 101 98 79 73 
26 31 29 33 39 41 35 37 41 37 43 40 38 40 36 40 33 40 41 45 43 50 51 51 48 49 51 48 50 50 45 47 43 49 47 56 53 51 50 47 39 40 37 44 47 48 54 63 57 67 70 76 78 90 81 51 45 58 97 113 122 125 134 131 132 128 124 126 124 120 126 116 119 112 102 96 97 83 67 63 
27 30 25 36 38 36 33 36 37 38 38 35 33 36 30 42 38 40 42 43 47 47 49 45 46 49 47 46 51 48 48 43 39 49 51 47 49 49 47 51 51 50 37 48 58 54 48 60 62 63 66 76 78 71 51 41 53 90 107 112 121 126 128 125 123 125 123 121 119 120 115 111 106 102 94 85 82 70 58 54 
27 26 26 33 36 36 31 34 37 35 32 31 32 35 33 35 36 42 41 45 44 47 44 47 45 47 46 46 49 47 47 45 42 45 40 46 47 50 45 49 49 53 46 42 53 55 53 47 59 62 65 68 63 60 43 54 76 98 108 112 116 120 119 118 121 120 119 114 116 112 106 100 100 89 77 71 70 63 54 46 
22 22 30 27 35 32 32 32 34 32 29 32 33 33 35 44 40 39 38 42 42 43 44 45 40 44 45 48 48 48 46 44 45 44 42 40 47 51 45 49 51 50 48 47 45 59 58 49 55 59 64 66 60 49 52 68 88 102 106 108 112 113 116 112 115 114 114 109 109 105 97 97 86 81 68 64 65 56 38 41 
19 23 27 32 31 33 32 33 31 26 32 31 31 31 37 45 38 38 39 42 39 40 42 45 44 39 42 46 51 47 45 44 41 43 40 39 41 45 47 50 49 53 48 45 43 52 50 47 54 61 60 58 52 50 54 74 86 97 103 102 109 109 108 110 109 109 110 99 93 99 91 83 80 75 62 60 55 49 44 36 
16 28 30 28 29 31 28 27 29 33 29 28 30 31 39 42 38 38 37 40 41 43 39 47 48 45 43 45 48 45 44 39 42 42 41 42 41 43 46 46 49 50 48 45 40 45 46 47 53 57 58 55 48 44 64 73 81 91 92 95 99 105 105 104 106 100 99 90 87 83 82 74 72 61 55 52 48 48 38 38 
25 29 30 33 29 28 28 28 28 32 36 32 27 33 35 38 33 38 44 40 40 40 43 43 45 44 45 43 37 43 46 47 42 45 38 41 50 49 49 46 43 48 43 44 37 34 47 53 57 55 55 52 43 48 61 64 73 76 82 86 92 95 98 100 98 93 88 85 81 73 72 68 57 57 52 44 45 44 38 35 
26 30 25 26 30 28 26 25 30 32 32 28 30 29 39 38 36 37 38 40 39 46 45 44 46 45 46 45 38 46 51 45 43 44 43 42 52 51 50 47 48 51 43 41 37 38 45 55 56 55 51 49 43 56 58 63 68 71 81 83 89 90 95 92 87 82 78 74 69 65 65 55 56 50 45 40 41 36 30 29 
20 29 27 26 31 28 25 24 32 30 31 27 27 33 33 40 36 38 35 37 38 41 42 42 48 42 47 41 44 48 52 47 43 42 40 50 50 48 48 50 51 51 47 48 45 42 39 54 55 48 46 44 49 53 56 55 57 68 73 71 75 78 84 80 78 74 74 67 61 60 57 49 51 44 39 37 41 33 33 31 
19 27 29 32 28 26 23 27 29 30 27 26 24 37 38 39 38 37 32 37 36 39 41 43 40 42 44 38 44 46 51 48 44 41 37 42 48 50 49 47 48 51 46 47 47 46 40 49 51 46 42 54 57 61 54 53 55 62 66 62 69 70 71 73 68 65 61 59 54 54 54 46 46 40 34 34 39 37 32 34 
12 18 23 27 25 22 21 27 31 31 27 25 24 34 33 37 32 36 32 32 36 38 41 42 42 37 45 44 47 44 47 44 41 44 37 42 45 48 44 47 45 49 44 46 45 43 40 40 42 40 50 53 53 55 52 48 52 54 57 55 60 61 63 61 57 54 52 48 48 48 48 38 36 34 30 30 31 32 30 23 
13 18 16 18 22 19 19 22 25 26 26 22 23 30 31 34 33 35 30 31 32 35 38 37 36 45 42 42 44 46 46 45 40 44 39 46 44 45 43 42 46 44 40 44 47 44 43 37 37 44 49 50 48 52 44 47 47 49 49 49 53 53 54 54 53 45 44 42 41 42 38 34 32 30 24 25 27 33 28 25 
13 21 16 15 13 16 18 19 25 26 25 23 25 33 35 37 34 29 29 29 33 31 34 33 39 45 47 42 41 44 43 43 41 41 42 49 44 49 42 44 46 43 43 42 41 47 45 43 42 46 52 50 50 48 45 43 46 48 51 51 49 52 47 48 46 41 41 39 36 37 32 30 32 26 22 25 24 27 22 19 
14 16 14 20 22 19 15 14 18 25 19 19 22 29 27 26 34 27 27 28 30 29 31 31 38 42 38 37 39 36 38 37 32 44 48 51 54 50 47 43 44 45 43 40 43 44 48 45 41 44 49 49 46 45 45 43 46 49 46 45 45 45 43 42 42 38 40 36 36 34 28 29 31 22 22 20 20 22 18 15 
14 20 23 23 24 20 15 15 19 18 19 16 21 25 32 29 25 22 28 27 27 28 24 25 29 35 37 35 34 37 38 38 37 44 47 58 53 48 49 46 45 41 41 40 40 45 42 44 47 42 44 45 44 42 46 47 42 42 46 43 42 41 42 41 37 36 34 30 32 30 26 25 24 22 23 19 19 20 15 16 
12 22 12 15 20 19 16 16 18 19 20 16 19 22 24 27 28 27 24 24 22 26 28 28 34 38 32 36 42 41 37 37 34 43 51 52 48 47 43 43 43 42 42 43 41 42 44 41 46 43 45 41 44 41 41 42 41 41 43 42 40 39 40 36 36 33 30 31 27 25 23 21 18 20 15 13 18 16 13 12 
11 15 18 14 17 16 13 14 21 23 23 16 19 22 20 24 25 21 23 19 22 28 34 31 39 36 36 40 44 40 38 38 37 42 47 45 48 46 38 38 42 45 43 42 41 42 39 42 40 44 42 42 42 38 39 40 39 42 45 42 40 35 35 36 32 30 31 28 26 22 22 20 20 15 12 11 15 14 8 12 
21 22 19 17 19 19 20 14 17 15 16 16 19 26 28 25 24 23 26 27 29 30 35 34 40 37 40 40 43 39 41 42 38 41 43 39 42 38 37 39 41 43 42 40 42 43 41 42 41 43 43 43 39 41 39 38 41 41 44 40 37 38 34 35 30 31 28 25 24 24 21 19 20 15 13 13 15 12 9 8 
13 27 24 20 19 21 20 16 13 12 20 15 21 22 20 25 26 29 29 29 32 31 34 34 37 36 40 41 44 43 43 39 39 39 39 40 40 41 38 37 40 42 39 39 40 41 41 45 44 39 43 41 42 43 39 39 42 41 41 39 34 35 32 35 31 32 28 25 24 19 18 24 21 13 9 11 14 13 8 4 
13 25 19 19 18 23 19 20 14 20 26 24 22 28 32 30 29 31 35 33 33 31 38 35 38 37 41 42 41 37 40 38 34 41 38 39 40 41 39 40 44 42 38 39 42 42 43 43 44 42 41 43 41 42 39 39 43 40 42 39 37 32 33 31 31 31 26 22 22 21 21 21 23 14 8 11 14 7 8 5 
15 23 21 19 19 22 17 14 14 18 29 29 21 32 33 31 26 30 31 30 31 35 37 36 39 42 39 41 41 42 36 36 31 44 37 43 42 41 42 40 38 44 38 39 37 44 40 40 40 41 45 41 37 40 37 40 40 41 38 37 35 32 31 29 28 28 23 20 23 21 19 25 23 13 6 9 13 12 11 0 
12 21 25 21 16 18 16 18 20 17 24 23 21 22 29 28 29 28 28 28 28 33 37 34 37 39 36 38 44 36 34 32 29 45 37 38 40 38 38 35 38 42 35 38 37 41 38 39 40 40 40 37 39 35 39 41 36 37 38 35 35 33 30 26 26 24 22 19 22 24 23 15 17 13 6 10 12 16 12 4 
10 27 25 16 12 16 16 17 22 15 17 19 18 21 24 24 26 27 30 27 25 27 35 33 35 40 37 36 35 34 31 31 28 38 39 39 35 34 35 34 35 39 37 37 35 35 35 38 37 36 36 35 39 38 37 37 37 33 36 32 28 27 27 25 27 27 26 22 24 21 17 19 19 13 10 8 18 16 13 1 


