P2
80 60
2076
304 294 283 278 271 264 263 235 160 131 150 184 278 442 403 459 336 229 175 151 137 199 209 176 159 164 134 115 105 96 91 98 95 103 108 116 142 134 118 123 119 115 119 120 119 119 113 117 112 111 108 107 114 135 208 255 343 418 446 448 454 462 447 441 461 495 533 483 381 443 432 389 344 307 285 271 280 309 296 261 
294 290 284 276 272 265 253 182 137 153 202 238 279 304 292 384 303 247 235 251 218 179 154 145 152 160 147 134 123 111 101 101 97 98 105 124 128 118 110 118 117 115 118 125 123 121 118 117 112 108 114 117 130 150 203 334 440 466 461 461 471 461 455 477 513 523 485 384 440 448 418 365 315 264 235 215 209 214 238 233 
298 290 288 280 271 269 246 159 139 196 232 247 250 241 232 229 221 216 198 208 194 239 285 246 159 147 144 131 125 122 119 110 94 105 106 111 109 108 110 117 108 110 124 132 130 137 125 127 116 119 135 147 143 201 285 435 473 477 476 476 482 467 509 523 514 490 408 412 469 426 371 314 238 189 182 171 160 165 163 173 
298 292 286 280 278 275 247 165 146 214 234 241 236 229 228 224 222 219 221 194 148 120 134 156 150 149 155 150 161 146 139 138 100 109 104 110 111 105 110 117 110 107 122 142 144 164 159 146 145 137 150 142 197 346 438 468 474 469 454 475 511 522 528 526 500 435 395 442 411 359 297 231 190 155 148 151 149 158 155 158 
303 289 289 281 284 278 267 191 173 210 239 238 236 228 222 224 218 189 145 126 100 99 98 96 113 119 127 135 151 154 175 169 110 127 120 111 113 122 106 112 111 106 113 120 138 176 174 180 153 138 130 186 336 435 466 464 465 483 498 482 499 498 513 479 425 386 426 402 340 255 204 167 155 141 148 145 152 160 166 181 
296 295 290 286 287 284 279 218 177 191 236 230 230 222 221 228 216 199 175 141 111 100 94 95 98 94 96 108 124 135 161 171 125 150 136 134 159 144 134 135 120 113 111 111 109 143 174 174 137 122 166 298 377 371 368 378 391 422 481 489 479 446 478 422 368 401 366 331 264 196 166 147 141 143 157 169 203 259 336 405 
298 294 290 281 278 261 270 252 198 178 192 184 197 197 209 218 209 198 183 172 160 118 94 91 90 91 91 102 104 100 113 112 109 109 120 134 163 142 156 164 137 109 111 113 110 126 163 142 117 151 266 393 392 378 379 390 355 316 339 413 468 461 459 390 378 344 290 233 197 170 155 145 152 176 250 373 506 626 731 813 
295 289 291 282 248 216 231 270 208 171 162 188 186 174 176 177 166 169 161 156 126 109 97 92 94 91 98 101 104 97 100 105 95 110 104 114 135 148 179 191 142 124 119 116 116 146 152 122 141 248 393 425 402 396 399 385 332 276 242 245 304 354 412 405 362 295 235 193 175 160 159 183 269 426 637 795 836 828 864 889 
292 291 288 242 151 124 136 195 233 172 141 143 168 166 164 150 99 99 105 107 107 108 92 89 96 99 98 100 96 96 105 102 103 110 120 132 137 156 177 165 131 126 115 123 119 138 132 120 211 348 380 408 416 410 406 369 302 243 212 209 215 221 267 307 278 249 211 189 174 180 237 403 639 769 826 884 873 838 840 850 
286 287 243 150 103 93 96 112 177 194 142 133 148 151 149 123 97 91 89 93 93 90 94 95 102 109 106 105 101 100 101 100 98 103 123 133 153 173 170 159 123 135 174 196 184 166 158 128 164 305 372 398 410 404 371 354 299 234 209 210 212 206 217 219 241 256 229 198 206 306 550 787 888 833 751 770 811 835 822 795 
288 263 178 119 102 101 94 91 110 171 162 132 127 134 121 103 90 92 91 90 90 96 98 101 107 113 113 109 103 104 104 99 100 106 122 133 152 166 213 204 157 153 190 229 247 243 212 217 172 164 324 399 389 382 359 388 336 250 208 210 210 206 214 215 235 265 262 259 387 648 844 919 896 773 704 755 790 818 798 725 
291 269 236 150 150 184 179 160 135 132 168 170 189 199 129 122 108 96 94 93 90 94 99 108 118 120 118 121 119 112 108 104 102 111 116 136 146 253 296 230 173 189 229 264 292 315 292 295 291 232 240 342 374 378 337 327 316 292 225 209 210 214 214 222 227 263 352 499 722 862 919 934 862 718 705 756 746 734 701 670 
290 265 246 209 170 192 217 208 178 147 179 185 192 240 197 158 129 123 113 105 97 99 107 122 141 146 131 133 128 120 115 111 109 109 114 127 189 353 370 336 212 219 267 312 346 370 366 410 460 513 192 221 259 241 221 209 213 224 217 207 207 208 220 219 230 251 484 758 871 896 930 915 776 657 680 675 607 618 624 651 
229 186 165 160 138 155 161 156 134 119 159 175 146 112 156 168 182 165 151 159 161 133 135 163 258 355 207 160 138 136 126 126 123 126 131 150 294 376 382 373 251 270 350 391 400 420 305 298 269 410 281 155 187 169 173 179 181 183 184 192 209 215 224 228 229 240 388 740 868 893 919 849 685 645 619 563 563 572 595 667 
130 115 118 119 104 117 111 118 109 86 118 128 125 112 110 142 173 209 199 174 197 205 265 489 967 923 517 289 184 159 152 150 140 142 139 188 291 377 385 389 328 362 404 414 410 304 223 216 216 229 210 128 137 140 149 173 171 177 179 189 201 217 230 234 240 243 281 556 790 861 879 767 633 600 554 548 558 558 580 645 
131 133 189 207 148 123 112 114 98 78 112 124 131 122 124 142 148 188 194 218 279 238 273 496 1040 992 537 537 432 321 213 207 186 177 174 221 247 358 393 405 393 393 408 420 397 259 227 225 217 213 202 148 166 116 129 152 161 161 165 176 191 215 236 242 243 248 256 377 696 810 737 682 634 590 567 574 571 560 559 586 
156 185 296 285 229 189 269 391 275 139 262 232 173 177 203 235 164 150 153 190 240 281 348 593 1083 1049 550 772 671 643 721 488 324 301 282 285 284 366 417 429 427 412 422 440 490 283 237 226 213 210 208 214 178 105 101 109 107 99 100 102 129 189 243 251 253 253 257 316 620 752 666 675 668 588 601 631 632 618 573 547 
187 193 195 134 120 149 229 324 301 147 312 324 230 238 176 210 140 121 119 144 171 230 428 935 1251 889 709 672 546 609 1556 1789 1414 1028 694 516 437 450 463 469 463 455 490 577 657 365 243 225 215 211 210 214 199 132 94 84 82 83 85 84 100 171 247 256 255 259 260 274 473 721 710 690 670 591 639 685 674 649 606 553 
163 151 113 77 110 134 137 146 98 127 92 110 215 295 166 103 113 113 139 145 138 172 288 1060 1244 630 528 523 537 748 1839 2066 2076 2036 1911 1646 1256 883 673 576 542 556 620 688 748 507 266 240 230 220 218 219 215 186 114 90 86 81 82 88 112 181 258 261 258 261 259 265 333 579 704 695 650 590 638 689 675 635 628 603 
118 110 82 66 86 95 97 88 72 115 116 148 192 187 112 122 119 116 125 141 147 146 173 432 588 478 548 580 814 976 1481 1755 1949 2032 2061 2065 2042 1982 1810 1547 1196 924 905 949 970 767 335 261 245 233 229 227 224 211 132 107 99 91 95 107 134 202 267 266 265 261 262 261 276 389 621 653 624 601 624 653 642 631 633 629 
77 86 67 56 69 83 75 63 64 79 109 148 168 123 120 111 112 114 112 122 142 139 151 177 302 340 614 608 479 279 293 418 722 1059 1317 1599 1830 1972 2030 2060 2031 1944 1813 1634 1472 1274 498 302 257 239 235 233 230 221 148 105 95 90 98 106 141 201 266 266 267 265 259 260 265 292 460 618 662 659 626 587 543 561 598 612 
73 77 75 64 66 82 72 69 67 79 89 142 163 171 139 119 111 111 112 126 136 154 208 366 543 609 648 608 308 201 175 221 319 422 465 553 689 899 1216 1574 1842 1969 2059 2075 2066 1993 902 366 284 251 242 243 232 224 172 114 110 100 99 101 125 190 265 278 267 265 263 264 264 268 328 530 614 623 582 484 433 490 546 564 
76 78 80 73 67 74 69 72 71 73 75 82 122 142 161 124 100 99 118 134 153 248 449 596 562 455 404 298 173 144 142 166 251 364 386 434 486 549 638 777 994 1205 1415 1617 1833 2012 1667 719 340 262 243 247 238 231 200 127 141 158 173 235 337 357 298 281 275 271 259 261 266 263 279 418 536 573 536 411 404 460 530 539 
80 77 76 77 75 79 75 77 84 79 77 80 100 129 159 156 123 122 136 181 299 361 337 204 162 143 125 114 112 116 119 121 186 321 350 396 455 514 607 700 828 997 1104 1193 1345 1719 1926 1534 472 285 258 249 244 236 230 197 244 290 299 366 602 525 318 282 275 274 262 264 268 265 271 354 493 526 489 423 410 406 465 545 
79 83 84 79 80 80 79 77 82 86 86 92 120 136 130 134 134 161 255 355 287 183 134 113 112 107 104 101 100 100 97 94 131 236 288 335 403 474 573 679 825 969 1065 1147 1282 1628 1893 1726 546 291 252 250 246 245 243 190 164 180 223 217 272 361 304 291 283 274 269 269 276 273 271 329 458 491 465 458 453 395 399 519 
76 80 80 83 81 79 77 76 83 83 82 102 154 133 128 137 188 350 476 291 138 115 104 99 104 97 94 94 96 85 77 88 126 145 192 227 291 407 515 619 739 918 1034 1120 1239 1465 1734 1024 355 274 254 254 246 245 246 214 142 128 128 131 189 272 298 293 288 282 276 273 279 273 277 304 442 517 467 499 489 432 429 469 
75 79 80 78 80 86 82 82 83 81 92 122 138 122 128 223 463 567 282 131 100 101 95 95 95 92 94 95 85 72 72 93 110 112 147 202 241 319 417 534 628 798 956 1068 1176 1278 953 333 252 271 255 254 250 248 249 249 204 139 123 132 224 293 301 294 297 289 280 280 287 274 285 293 372 480 490 517 515 488 422 396 
82 81 77 78 80 83 84 83 85 91 132 144 126 127 219 444 631 299 126 103 94 103 96 92 96 93 93 87 73 72 78 92 98 109 121 174 228 313 389 477 563 677 837 953 977 678 305 184 217 266 260 254 253 252 256 260 256 240 210 221 284 312 307 303 298 299 288 288 296 290 293 293 354 486 541 550 514 410 313 373 
85 77 79 80 78 84 80 84 84 120 153 128 122 161 341 540 303 132 110 99 97 101 99 92 95 91 89 73 71 77 75 88 93 107 111 129 213 295 353 426 512 584 672 609 397 234 156 124 202 264 262 257 254 250 259 266 269 294 315 319 322 317 313 306 305 299 294 292 302 297 297 296 365 531 583 595 537 384 358 345 
83 83 74 76 75 83 80 80 85 137 136 113 164 308 419 257 148 177 160 141 116 105 108 90 94 92 75 64 78 77 77 81 84 96 98 96 114 167 227 285 315 317 261 206 172 144 112 109 221 265 262 259 253 252 261 266 274 280 317 325 325 315 313 308 305 305 299 302 305 302 303 303 389 555 634 688 652 503 394 298 
80 78 76 72 77 83 81 94 143 147 119 147 270 550 357 138 140 198 158 141 115 106 145 132 97 73 58 78 75 79 77 78 78 86 87 92 92 101 106 116 121 133 200 240 203 161 114 122 233 261 257 262 252 253 263 271 279 282 308 323 324 316 316 312 311 307 299 304 311 307 311 318 453 624 685 739 650 442 352 255 
83 81 81 80 79 82 88 115 163 122 124 210 464 508 165 105 126 135 198 154 104 112 118 119 88 60 65 73 73 78 74 77 72 84 85 87 90 92 90 104 111 103 116 157 202 232 207 220 242 254 257 264 262 261 264 272 280 286 294 314 317 316 317 314 310 309 302 310 314 308 311 335 540 693 735 750 594 357 253 221 
83 83 82 78 84 88 101 161 144 122 165 313 570 274 106 88 83 90 109 100 95 105 104 74 51 55 66 69 73 74 73 77 76 80 81 85 83 90 86 99 104 99 100 94 102 115 117 131 223 256 258 266 265 264 266 277 281 287 300 305 319 318 315 316 309 305 302 315 319 307 315 355 606 731 749 709 618 445 312 253 
82 83 82 85 83 89 126 172 139 139 207 358 311 137 95 92 87 89 90 90 90 92 75 49 57 74 68 68 72 73 74 71 75 78 79 80 81 88 85 96 95 89 90 94 97 104 97 104 204 255 266 269 265 268 274 281 288 290 297 304 312 319 318 314 310 307 311 316 317 309 315 393 642 745 741 682 637 559 457 346 
79 83 85 90 90 101 176 149 122 174 303 558 232 106 94 90 87 88 89 92 88 77 50 55 75 70 69 72 73 71 73 77 74 77 80 80 83 87 87 92 88 87 85 90 90 97 93 98 202 262 269 275 273 275 280 284 296 299 301 306 317 319 324 320 311 312 310 319 320 308 323 424 677 760 737 695 647 549 429 303 
79 82 86 92 93 162 208 135 160 250 434 509 154 96 92 90 87 90 92 90 81 66 58 77 90 81 81 77 78 79 84 80 72 75 77 82 82 89 84 89 87 83 86 92 89 95 89 97 207 267 278 279 279 275 286 297 302 311 306 314 317 320 325 317 314 312 317 322 323 313 327 475 699 754 742 696 592 441 335 228 
79 85 82 88 104 211 179 142 222 315 535 341 118 87 87 92 91 88 93 85 60 61 96 112 107 90 82 86 90 93 93 82 74 80 77 81 82 87 81 82 81 83 90 88 87 87 89 99 210 272 281 290 287 281 296 303 307 311 311 314 324 328 324 318 314 321 323 323 321 311 332 492 699 730 704 656 577 433 289 175 
80 83 84 86 124 234 215 148 253 358 490 225 101 83 87 91 93 91 87 72 64 90 110 115 113 101 94 94 102 98 89 87 79 79 75 74 82 82 76 80 81 81 81 86 83 90 88 111 213 282 290 290 292 289 298 303 308 314 316 319 326 326 325 320 313 323 323 322 319 321 337 489 690 701 637 579 540 398 201 117 
78 84 89 90 154 215 176 160 272 407 502 155 94 79 85 87 85 91 80 79 74 98 110 113 122 110 108 104 102 98 97 92 81 79 74 77 77 77 78 80 81 82 78 79 81 89 96 168 302 288 295 301 296 296 305 309 311 315 323 321 327 332 330 323 322 323 328 326 331 329 350 503 649 620 521 416 398 270 135 113 
79 88 88 101 180 190 160 182 281 459 400 115 90 83 86 84 85 90 83 83 85 92 96 107 123 108 112 107 106 99 91 88 79 82 74 76 74 75 74 83 80 79 74 77 80 93 117 480 409 306 298 305 302 296 305 309 309 318 322 328 331 334 336 326 329 332 334 331 332 338 368 547 609 545 439 316 241 167 117 135 
77 83 90 112 190 218 287 234 266 471 303 110 89 85 83 87 87 87 86 83 76 88 93 103 115 112 110 107 103 95 89 86 80 81 78 76 74 75 70 78 73 77 73 79 83 94 243 775 443 316 307 308 303 299 308 314 320 321 321 325 333 334 340 332 333 338 339 340 334 334 381 575 626 551 477 327 195 154 121 210 
76 81 90 128 184 315 680 483 284 464 232 102 91 81 84 83 85 88 89 79 81 93 91 96 111 110 111 107 105 100 96 90 85 98 107 97 75 75 70 77 75 73 71 83 90 121 574 870 466 322 310 316 308 305 316 321 322 322 326 329 337 341 351 349 346 348 343 334 337 333 383 571 661 612 517 397 248 162 125 301 
69 60 98 142 162 370 1139 1228 400 425 186 100 90 85 85 87 91 87 85 84 88 85 87 94 109 107 107 107 106 100 96 96 103 127 138 96 82 78 71 72 71 74 81 81 92 253 842 842 507 329 311 316 315 317 323 328 330 324 329 333 346 352 354 351 344 346 345 338 337 330 367 544 639 597 496 383 280 165 120 337 
61 57 117 175 162 262 803 1315 522 409 162 92 88 86 88 94 88 85 88 92 90 90 90 94 104 102 106 105 102 102 108 119 121 130 126 92 77 82 70 71 75 76 80 92 115 544 877 809 578 338 315 321 324 321 330 339 337 329 330 332 353 354 360 353 348 351 345 341 335 331 373 536 581 548 430 283 211 140 116 332 
42 63 136 185 145 159 267 567 430 357 140 94 89 86 92 88 87 89 101 88 87 90 93 93 98 97 100 102 104 104 117 122 118 127 109 94 76 79 75 78 76 81 79 98 216 825 896 822 638 365 318 323 307 324 332 339 346 339 336 343 357 358 356 352 347 349 346 347 331 327 357 485 543 521 399 238 150 121 116 322 
8 59 154 167 107 152 224 323 302 333 118 79 84 86 86 90 89 95 88 90 88 91 92 90 91 86 91 96 100 104 106 114 107 121 104 92 78 82 76 78 81 79 87 115 492 936 906 847 612 345 316 322 324 325 338 345 348 348 347 352 358 361 353 350 339 343 344 340 335 327 341 459 524 460 289 187 139 102 102 293 
0 63 155 166 106 106 197 315 317 328 104 58 95 91 87 89 86 89 89 88 88 93 89 69 69 66 67 72 73 75 73 72 72 87 82 81 83 80 78 82 79 74 94 181 750 941 893 752 424 264 297 320 322 323 334 347 346 349 356 357 357 360 362 353 338 345 337 334 331 320 324 423 504 398 202 128 130 100 92 219 
8 73 111 121 99 109 167 235 278 322 110 52 85 99 91 83 86 86 91 88 86 92 72 63 66 59 55 61 72 73 69 67 58 62 59 63 68 72 67 75 74 79 98 393 917 954 910 710 350 193 261 305 318 323 333 348 351 351 357 358 361 356 355 350 337 335 331 333 334 319 312 379 455 314 139 86 100 101 74 142 
17 75 94 92 98 106 152 204 232 319 117 54 90 97 92 85 86 85 85 86 84 85 70 62 64 54 52 51 60 70 71 63 55 57 57 62 60 63 60 64 67 80 153 677 959 925 876 633 281 188 215 282 306 322 337 345 351 350 356 358 358 360 353 339 339 333 334 332 331 315 296 319 322 188 95 67 71 72 64 79 
18 70 90 89 92 98 132 184 202 302 143 67 122 112 96 84 83 83 84 80 82 79 72 61 63 56 52 49 57 63 65 68 52 60 56 54 53 59 55 61 64 92 360 880 971 891 713 455 274 251 218 234 281 311 338 344 354 352 358 356 360 359 350 342 338 333 330 328 330 315 286 232 169 101 78 61 57 57 56 58 
23 66 88 88 91 98 122 167 180 209 178 74 136 122 106 87 86 86 85 88 82 86 71 64 65 54 52 49 54 77 81 67 58 58 56 56 54 57 49 57 74 152 660 893 896 775 563 413 334 306 246 166 210 288 325 345 356 352 353 359 361 359 354 344 336 334 328 328 327 314 282 174 96 71 63 57 51 55 52 53 
21 65 81 85 87 91 118 149 166 251 220 90 117 133 125 125 107 108 109 108 99 82 67 60 58 56 51 53 48 90 126 102 77 61 56 50 48 53 52 63 88 323 792 794 724 665 539 440 379 289 167 105 138 259 310 341 351 355 357 359 355 356 350 340 335 332 326 328 327 320 285 180 91 61 61 55 48 52 49 44 
23 64 83 82 84 92 111 152 168 213 273 110 114 154 220 194 132 125 130 136 117 91 65 60 63 55 51 51 48 93 141 147 138 119 66 50 50 58 57 69 119 545 788 678 546 517 446 370 336 245 158 103 103 217 300 329 348 353 354 353 356 354 346 340 333 329 325 329 326 317 295 209 105 58 54 53 49 48 49 45 
20 64 81 81 87 91 94 132 157 183 281 142 110 164 259 237 142 126 130 133 127 89 70 60 62 58 53 48 47 80 111 125 143 143 84 51 51 60 54 70 188 650 670 523 405 391 357 342 326 284 200 173 112 166 279 320 330 343 342 344 349 340 341 335 334 333 331 334 330 320 298 241 121 58 54 52 48 49 46 38 
12 61 79 84 85 94 89 110 154 165 264 218 118 143 229 216 149 141 129 128 116 90 65 62 65 56 54 49 50 79 115 118 120 122 66 50 50 62 47 80 312 687 551 428 405 385 366 339 295 229 185 155 93 118 241 304 330 340 340 345 347 343 342 333 337 333 338 337 332 325 303 262 135 65 55 54 46 51 48 41 
12 59 83 89 92 92 90 96 131 148 202 205 124 141 201 186 141 132 122 111 105 91 77 66 66 58 59 52 52 73 92 123 131 91 58 46 52 54 59 121 504 654 470 435 428 378 242 138 100 79 68 63 54 82 202 288 324 338 344 347 351 339 344 343 338 338 339 339 335 322 314 280 166 76 57 54 44 51 45 43 
55 73 88 101 104 97 92 91 93 143 176 210 150 129 145 132 107 105 100 99 89 88 77 66 71 60 59 53 51 67 76 101 88 68 55 52 48 56 75 198 572 513 460 470 423 209 76 50 32 30 31 31 31 49 141 272 314 335 340 343 348 337 343 340 337 343 336 339 336 326 322 287 187 91 61 52 42 50 46 44 
100 95 107 128 134 98 93 89 90 131 265 259 240 149 122 109 94 86 92 87 85 84 81 69 72 61 62 58 57 66 73 78 68 75 64 53 56 79 111 264 502 475 462 432 230 79 42 33 21 27 20 24 19 25 87 247 305 332 340 342 346 346 347 344 338 345 339 340 337 327 321 296 232 126 72 58 47 48 49 43 
104 100 113 151 144 113 110 94 87 104 180 289 235 163 123 118 109 90 87 83 77 83 84 77 72 66 61 62 72 82 82 77 72 76 71 76 81 98 127 326 484 462 439 325 92 45 32 31 26 22 23 25 24 25 67 229 312 328 335 341 348 350 347 344 338 341 340 337 336 324 317 303 279 168 85 62 48 46 46 38 
102 95 102 144 146 137 127 113 99 102 142 297 271 145 127 123 109 99 82 82 75 79 72 73 71 65 64 63 77 82 85 73 69 78 69 75 79 91 117 277 332 351 347 173 46 33 19 25 14 20 15 24 22 25 61 212 311 328 332 337 350 350 344 339 338 344 338 339 333 317 312 309 297 200 96 61 43 43 46 40 


