P2
80 60
230
103 109 116 120 122 118 107 104 101 105 107 106 108 111 113 111 112 117 129 142 179 184 147 123 168 188 151 126 129 127 127 127 122 123 117 121 119 122 119 122 123 120 116 116 115 115 116 113 114 121 150 180 206 228 230 216 214 223 206 175 142 123 108 106 99 101 102 106 105 105 105 102 98 100 97 97 89 92 97 98 
104 109 113 118 121 121 122 124 120 116 107 102 103 102 99 105 112 116 127 144 177 183 141 126 172 187 145 124 131 130 129 127 119 122 121 119 122 121 123 119 122 123 114 116 113 115 113 114 114 119 119 130 137 152 167 148 139 128 124 119 115 112 115 109 99 104 103 111 110 112 110 104 99 99 101 94 98 92 93 98 
102 110 111 120 120 121 123 124 122 118 119 116 116 104 97 104 115 120 130 155 186 182 134 131 182 185 136 127 128 131 129 127 124 121 121 120 119 123 121 120 121 120 119 117 114 111 110 110 110 115 115 114 121 129 134 125 118 117 114 117 113 116 114 112 101 101 101 111 114 113 113 111 104 101 100 97 97 95 93 99 
104 106 114 119 123 120 121 126 121 119 121 117 119 116 112 112 118 122 133 164 186 173 133 142 185 181 132 126 127 124 124 124 120 120 119 121 124 125 119 120 123 119 114 113 112 113 113 111 109 110 112 112 115 116 113 114 115 113 112 112 110 110 111 106 98 99 103 104 105 111 113 110 112 106 105 100 96 98 93 88 
112 118 121 121 124 119 126 121 116 119 120 118 121 117 110 112 118 125 137 173 187 156 130 150 187 175 129 126 124 125 119 120 120 119 120 120 119 117 122 116 121 118 114 111 108 108 111 112 112 111 109 108 113 111 112 112 109 111 110 112 110 109 110 105 96 97 97 103 104 102 104 109 112 111 106 103 99 95 97 101 
117 116 125 134 132 132 130 118 115 117 119 118 117 117 111 111 118 127 138 184 190 150 134 160 190 167 127 127 122 124 121 120 120 118 116 118 119 118 117 119 119 118 113 112 111 114 110 111 111 111 111 111 107 109 107 110 108 108 111 110 108 107 110 101 98 97 99 100 103 99 103 103 103 111 108 107 107 99 100 97 
117 112 116 119 124 131 125 117 116 117 115 114 114 116 112 112 117 128 142 183 183 141 133 165 189 158 128 125 122 118 122 120 117 117 113 115 115 115 118 120 119 119 115 111 112 114 110 111 113 113 107 107 108 111 111 112 108 108 110 110 106 110 104 105 97 99 98 104 100 101 100 103 96 98 102 110 106 102 103 102 
115 110 112 113 117 119 116 116 115 117 115 115 114 115 113 113 122 130 150 185 174 132 135 179 189 155 127 123 122 119 117 115 116 112 115 115 113 113 114 115 118 114 110 112 110 112 112 113 109 110 107 110 108 112 107 109 108 109 104 107 105 107 102 102 98 98 98 103 100 101 101 104 99 99 101 105 106 103 105 103 
113 110 107 108 115 119 113 115 112 118 118 113 114 115 116 113 128 130 157 191 170 131 141 183 184 144 123 123 123 117 119 116 114 114 113 113 113 112 113 113 115 113 110 114 109 111 108 112 106 112 110 113 109 110 108 109 106 110 109 110 105 105 102 99 96 97 97 104 98 103 103 104 100 99 100 101 103 100 103 103 
129 87 92 106 114 114 114 109 113 115 111 112 108 114 116 115 127 135 167 190 161 129 147 187 179 137 118 119 118 117 118 116 117 116 113 114 115 114 117 117 120 114 109 109 107 109 110 110 108 108 109 109 109 108 108 108 108 110 104 111 109 106 98 100 97 98 97 100 101 102 100 102 100 98 100 102 100 101 100 107 
98 28 26 52 94 108 112 108 111 115 110 110 111 111 116 115 126 132 181 195 152 126 160 191 171 124 115 120 116 113 112 113 114 113 111 114 115 118 118 118 117 116 113 110 108 107 104 109 106 109 108 110 104 105 108 108 104 110 112 110 109 108 100 101 98 97 97 102 100 103 101 106 102 100 101 104 104 101 106 112 
76 22 3 5 29 78 110 112 106 111 111 110 111 111 116 123 130 143 188 183 144 128 167 193 164 123 117 121 119 114 115 114 113 114 112 117 118 119 117 119 117 117 114 111 109 110 107 106 108 109 110 110 107 107 108 108 107 109 111 107 109 109 103 103 96 100 99 105 105 111 108 108 107 106 109 104 106 107 103 108 
90 35 10 0 3 37 90 98 100 108 105 108 110 111 114 119 129 144 189 178 135 128 174 187 156 122 115 117 115 111 113 115 114 114 111 116 114 117 116 114 114 116 113 110 108 107 109 103 107 108 105 104 103 104 107 109 108 108 111 109 109 111 112 106 98 97 95 108 108 113 111 112 106 105 110 108 107 107 103 104 
111 77 52 30 20 31 76 96 94 92 93 94 99 106 111 118 127 140 191 174 127 123 182 187 147 118 112 113 114 111 112 113 114 115 115 114 115 116 114 116 117 116 112 109 108 112 108 108 108 107 109 105 105 105 103 106 105 109 108 110 107 110 108 109 101 96 97 107 111 111 112 109 108 108 108 107 103 107 109 108 
107 100 98 92 85 80 92 109 109 108 102 95 94 93 92 98 108 141 194 170 122 130 191 184 138 113 110 110 111 110 114 114 115 113 114 114 114 117 112 113 117 118 113 112 112 111 109 112 106 108 108 111 106 105 107 106 105 107 109 109 106 109 112 110 99 97 99 106 110 108 108 108 109 109 105 107 104 108 109 109 
113 109 108 106 105 106 105 112 118 116 113 108 109 105 101 85 90 150 196 165 104 126 195 177 131 111 109 111 110 108 111 112 113 113 109 109 113 114 112 115 115 115 111 113 108 112 109 108 107 107 109 110 109 108 108 110 108 107 105 106 104 106 107 109 100 98 98 105 108 109 108 105 104 106 107 108 110 110 108 108 
112 105 108 113 110 111 109 115 110 112 115 112 117 118 111 107 112 162 198 159 106 135 211 189 121 101 99 108 105 106 109 107 111 111 110 111 115 111 113 112 114 114 111 112 109 110 109 108 107 108 107 112 107 107 106 107 109 109 105 106 104 108 106 107 100 99 97 103 109 107 108 109 108 107 107 108 107 107 106 111 
98 107 110 113 116 115 111 111 113 112 108 112 109 111 112 114 117 177 196 151 104 144 211 175 105 98 96 100 100 99 101 104 107 107 108 111 110 109 113 110 111 112 109 109 106 104 107 108 107 105 109 104 109 110 107 107 107 105 105 107 104 107 105 104 102 102 99 102 106 108 109 110 109 111 107 107 108 107 112 108 
102 106 109 114 113 112 108 111 110 108 110 110 113 111 107 107 116 183 192 146 108 154 209 171 101 99 95 100 98 94 94 94 98 99 100 106 105 107 107 108 112 111 106 107 103 109 107 109 106 108 104 106 107 109 103 106 107 106 104 104 105 106 106 104 99 95 98 98 108 110 111 111 113 107 107 109 106 104 105 104 
102 108 111 116 114 114 112 114 107 111 111 109 109 108 110 108 127 191 183 132 108 166 208 161 104 101 99 99 98 99 97 95 96 95 93 95 98 104 106 107 109 105 104 104 102 106 108 108 107 111 105 106 105 109 111 106 104 108 106 108 106 105 107 106 105 98 98 98 109 111 111 110 108 111 111 108 109 104 104 105 
106 110 113 115 115 117 115 117 110 113 112 113 110 108 108 111 139 188 177 124 108 178 201 149 105 102 101 99 98 93 97 96 96 96 95 96 95 97 95 94 96 94 87 95 96 101 102 104 107 107 106 106 105 106 107 105 107 108 102 107 106 109 110 112 108 101 98 98 107 111 116 113 113 110 112 110 109 104 105 107 
105 107 117 117 118 114 114 111 111 112 112 110 107 107 106 115 146 191 168 119 113 182 196 141 101 101 99 104 101 95 96 94 97 98 94 97 96 97 93 94 91 92 85 86 85 88 91 96 102 103 107 101 103 106 103 103 105 103 105 107 104 107 111 112 108 100 95 97 107 109 112 111 114 111 111 107 104 105 105 108 
101 108 116 117 120 119 116 111 108 111 109 109 107 108 105 111 153 187 164 111 113 192 191 128 103 104 102 98 101 96 98 97 96 98 95 94 97 96 92 94 94 94 84 83 85 85 90 98 100 105 101 102 100 101 98 100 103 104 106 108 104 105 109 111 110 105 97 99 105 109 110 111 111 110 110 110 110 103 106 104 
111 106 113 120 121 121 114 112 114 113 112 108 110 107 108 119 163 184 157 112 123 194 185 120 99 103 102 102 100 100 100 98 98 98 95 97 100 97 95 95 96 94 90 89 87 95 101 104 104 104 104 104 100 101 101 107 107 105 105 108 107 108 110 111 112 109 100 95 99 110 111 113 110 108 108 107 108 108 106 108 
121 121 124 123 124 122 113 113 110 114 117 112 112 107 108 120 178 186 156 113 130 194 182 118 99 101 101 102 99 98 101 100 99 97 98 98 98 96 95 95 100 97 95 100 102 103 101 107 107 107 105 106 102 105 106 107 106 109 107 111 109 108 110 113 113 112 101 99 98 111 111 113 110 111 109 110 113 107 107 102 
166 159 155 146 140 133 121 120 119 120 123 116 113 111 110 123 183 181 149 110 140 191 178 116 102 104 100 101 105 103 100 101 101 102 99 101 102 100 97 97 100 100 101 105 102 106 106 108 108 105 105 109 106 108 108 110 107 108 108 109 109 111 111 110 113 115 101 97 100 109 115 113 116 113 109 109 111 109 105 108 
183 191 196 193 191 185 170 157 142 144 136 121 115 113 117 131 199 183 140 111 149 192 170 112 103 104 100 104 104 107 102 100 101 104 101 101 101 100 97 100 98 99 101 106 103 107 104 105 105 105 104 105 104 108 108 107 107 107 107 108 106 110 108 113 113 115 104 98 96 108 114 111 112 112 111 109 107 107 109 112 
178 186 197 202 201 205 198 203 200 172 159 172 160 141 134 156 214 183 137 117 161 189 167 105 102 106 102 102 102 102 101 100 101 101 100 101 103 104 100 102 98 100 102 106 103 104 105 109 105 108 105 103 104 110 107 108 106 110 108 108 108 108 112 110 114 114 104 99 98 105 117 116 113 109 108 108 107 109 111 109 
134 143 154 169 178 192 198 202 200 173 171 209 205 198 192 204 208 180 125 122 174 192 158 110 102 104 102 104 105 101 106 104 99 105 100 102 103 102 101 101 101 104 100 104 104 104 105 107 106 105 105 105 107 110 109 109 106 109 110 108 110 111 109 112 114 117 108 100 97 105 113 115 112 114 115 109 106 108 107 110 
128 129 133 145 151 147 143 155 159 153 159 189 198 197 197 197 189 163 120 124 183 186 150 108 103 106 105 104 103 104 106 103 103 102 105 105 104 103 101 102 101 101 97 107 101 104 105 108 105 107 105 102 105 110 107 109 108 110 111 111 109 108 109 111 114 116 110 100 96 101 112 115 112 112 108 111 110 108 108 110 
162 159 155 153 160 145 137 129 130 137 131 131 136 149 163 170 162 130 115 128 186 186 148 109 104 107 104 106 106 104 105 104 102 105 103 108 106 103 102 101 102 98 100 104 101 102 106 106 104 107 108 107 105 108 108 112 108 112 110 110 108 112 113 112 115 116 116 102 98 98 109 113 116 112 113 112 108 108 110 109 
187 196 196 199 200 187 169 157 152 140 128 124 120 120 120 120 122 111 118 134 192 181 138 107 106 105 105 105 100 106 105 103 101 106 106 106 105 103 101 105 105 99 101 105 104 105 105 107 104 108 109 105 108 111 109 110 110 108 109 111 108 109 114 118 114 117 114 106 99 100 108 115 109 114 110 112 113 111 108 109 
177 183 195 200 207 208 206 214 197 152 168 174 159 140 127 122 118 113 117 145 203 182 134 109 101 106 104 107 106 105 104 103 104 102 104 106 107 102 104 102 101 100 99 106 104 107 108 107 106 108 108 110 106 111 109 110 110 109 110 110 111 115 115 117 116 117 115 108 100 96 107 110 113 108 111 113 112 111 111 110 
133 142 161 175 181 191 200 206 200 176 197 218 213 205 193 179 167 153 145 177 209 186 133 109 105 106 106 107 110 108 108 107 108 104 103 106 109 105 102 101 104 99 103 104 104 106 111 110 108 109 109 108 107 108 108 109 111 111 111 112 112 115 114 118 115 118 118 112 100 97 101 111 113 114 113 109 107 114 112 104 
130 136 147 145 136 136 141 151 160 150 175 195 199 201 195 196 193 187 190 197 192 173 129 107 106 108 105 108 108 108 108 107 107 110 107 108 105 108 104 100 103 101 103 107 106 107 111 112 113 113 109 109 107 113 109 112 108 111 110 111 114 115 117 117 116 119 116 116 102 99 97 108 113 114 114 113 112 110 110 108 
144 154 141 151 133 121 122 123 135 137 134 134 141 153 165 171 179 180 182 184 173 155 123 108 106 108 106 108 106 105 108 108 109 106 108 108 108 105 105 102 104 100 102 108 108 110 110 112 111 112 110 110 111 110 109 112 109 111 113 111 112 113 114 113 113 116 116 114 105 98 99 108 113 114 113 113 110 112 112 114 
160 152 143 152 127 120 122 123 137 135 126 119 119 121 121 124 123 128 138 140 130 116 118 108 105 108 107 108 109 106 113 108 106 109 109 108 106 104 108 102 103 102 104 108 109 109 110 109 112 112 112 110 110 115 111 112 109 109 111 111 110 114 113 113 115 119 115 118 109 100 96 104 112 111 112 109 110 110 115 112 
163 144 137 139 124 118 124 123 138 132 121 121 116 115 115 116 117 113 115 111 107 113 115 109 105 106 106 111 109 108 108 108 108 110 108 109 111 108 104 104 107 100 105 110 107 108 110 111 113 112 112 113 111 112 114 114 111 111 109 114 113 112 112 114 113 119 116 116 112 100 96 102 114 114 116 113 111 112 112 117 
180 144 135 133 122 122 122 123 141 134 120 122 118 114 114 116 116 112 112 114 106 110 116 109 107 110 111 110 109 110 107 111 110 112 110 111 108 109 107 107 106 104 106 110 110 110 112 114 110 112 111 114 114 114 113 113 113 112 111 113 111 112 111 115 112 120 118 117 115 103 97 101 114 118 116 112 110 111 112 115 
175 144 134 130 120 124 121 127 137 129 119 120 125 118 118 118 116 111 112 114 106 110 116 112 109 112 113 112 114 110 113 109 112 110 109 113 114 109 109 107 104 105 107 111 109 113 115 114 111 112 114 114 113 114 109 114 113 112 110 111 113 111 115 115 116 118 121 118 117 109 99 98 110 112 113 110 112 112 111 113 
156 137 136 132 121 130 126 126 120 121 121 119 124 119 115 117 117 110 111 115 104 110 117 113 109 114 110 112 111 109 109 109 113 111 111 112 112 112 111 109 112 108 112 112 109 112 114 114 111 113 114 113 112 114 114 114 113 113 112 116 115 113 113 115 115 118 122 117 116 113 102 101 104 117 114 112 108 112 113 111 
133 129 138 134 128 127 118 117 118 118 117 118 123 120 115 115 121 111 113 113 106 110 119 112 113 111 111 114 116 110 112 113 111 113 113 114 116 112 110 108 108 107 112 114 112 113 114 113 111 113 116 116 112 116 115 113 112 112 112 114 112 113 114 115 113 123 121 118 116 116 106 100 100 111 111 112 112 113 114 115 
123 128 133 131 127 126 118 116 114 118 115 115 119 124 116 117 117 114 116 113 105 113 118 112 111 111 113 115 115 114 112 115 116 116 116 116 116 114 112 112 111 107 112 116 113 113 114 114 113 114 117 116 116 113 110 113 111 112 113 112 114 117 114 114 116 119 121 119 116 116 111 100 104 108 112 112 116 110 118 117 
120 128 135 130 124 123 118 114 118 114 115 118 119 123 120 117 118 111 116 115 107 113 121 113 114 114 117 113 117 115 113 113 114 116 113 116 116 114 113 113 109 106 111 116 117 114 112 112 114 115 116 117 111 110 110 110 109 115 109 112 109 115 115 114 116 119 122 118 116 116 117 107 101 103 112 116 113 115 113 112 
123 127 136 131 123 126 117 121 119 118 118 119 121 124 121 119 120 115 119 114 107 116 120 113 113 117 114 116 114 115 114 115 113 115 115 118 115 116 113 112 111 108 112 115 114 114 114 113 114 114 116 115 111 112 110 108 111 112 111 114 116 115 116 115 116 119 122 116 119 119 120 112 99 95 107 113 113 112 114 112 
121 134 135 129 123 126 123 121 120 121 119 118 124 124 123 120 120 117 122 120 111 118 119 112 111 115 115 117 116 119 119 117 116 114 116 116 117 119 115 112 111 108 113 113 115 115 112 119 115 115 116 115 113 112 114 110 110 112 111 111 113 117 121 114 116 122 121 120 123 121 118 113 102 98 104 110 114 112 114 116 
119 133 132 124 124 124 120 120 120 119 122 119 120 123 121 125 119 114 123 113 113 115 120 117 113 116 115 120 116 117 121 121 117 118 117 117 116 119 119 116 113 110 114 117 115 115 117 117 116 115 114 113 114 115 113 112 109 111 112 112 114 117 119 117 119 121 124 124 119 119 121 119 113 101 98 108 111 115 117 112 
123 129 135 124 124 123 118 119 118 123 123 122 119 121 122 126 118 114 120 111 111 119 122 119 116 118 118 121 119 119 119 119 120 117 118 123 124 117 118 119 112 108 113 119 113 117 115 118 115 112 116 112 113 111 112 111 111 112 107 115 114 114 117 118 121 123 120 119 117 119 117 123 119 104 96 98 106 114 113 111 
125 131 134 129 127 129 120 120 121 123 122 120 121 122 123 124 121 119 127 114 111 117 124 117 116 118 119 121 121 121 119 121 119 123 120 123 123 120 120 115 115 112 117 118 116 117 117 118 118 117 115 112 112 115 115 112 112 116 112 114 110 115 118 117 121 121 120 118 119 120 118 126 119 118 102 102 103 101 112 111 
122 127 130 127 127 126 123 118 119 125 122 122 119 123 125 126 123 121 123 119 111 118 122 116 117 120 120 120 125 118 123 122 126 124 121 123 121 121 119 118 115 113 115 119 117 117 117 119 115 116 113 114 115 116 111 115 112 111 112 115 115 116 119 116 120 121 122 122 118 121 118 119 118 116 113 105 105 106 106 109 
124 128 131 124 126 128 123 120 126 126 125 122 121 124 121 122 124 119 117 117 111 117 123 118 117 120 120 124 123 124 125 125 124 125 123 121 122 118 119 118 114 111 114 117 115 121 117 118 116 118 117 114 115 119 114 111 111 112 115 117 116 117 118 121 120 123 124 121 116 121 116 123 119 116 118 115 111 104 109 113 
129 134 132 127 128 129 122 123 122 125 126 125 120 120 120 124 124 117 119 115 113 119 127 119 116 122 120 124 124 124 126 126 128 122 124 125 120 118 120 117 115 116 119 119 119 118 117 120 117 116 117 118 115 119 113 113 115 116 115 117 120 118 117 119 118 126 122 122 119 117 119 120 119 116 119 115 113 114 108 108 
133 133 136 126 129 128 125 122 122 123 125 123 122 124 121 126 127 121 119 115 116 119 128 118 119 126 123 126 123 125 126 127 129 129 128 123 121 121 117 113 114 112 114 120 117 117 119 121 120 117 122 118 114 118 117 114 116 118 117 117 115 118 118 119 120 122 123 122 119 118 118 118 119 118 120 115 117 120 115 116 
133 134 134 129 125 126 124 124 124 129 127 126 122 127 124 129 127 124 123 117 114 120 129 121 118 126 124 125 128 125 126 131 133 130 125 127 126 120 117 118 118 116 115 119 117 123 120 120 122 119 120 120 114 117 117 116 114 114 118 116 114 118 122 121 120 121 125 122 122 120 120 122 121 115 118 119 118 119 116 114 
137 137 134 128 127 129 126 128 128 130 127 127 126 125 127 125 127 127 127 119 118 122 130 122 122 128 126 128 130 128 130 134 134 131 132 134 134 133 128 127 128 124 120 121 121 119 120 123 119 121 121 118 117 118 119 117 117 114 116 114 116 118 119 122 121 124 123 126 120 125 121 122 123 120 118 121 116 116 120 122 
141 135 138 136 134 133 131 128 130 133 128 131 131 127 129 126 127 128 127 118 121 126 131 126 126 131 128 130 131 130 132 131 132 134 133 135 139 136 133 128 127 127 122 124 123 122 125 123 123 118 120 121 119 119 123 119 117 116 119 120 117 119 122 121 123 124 125 124 119 125 124 122 119 121 122 120 123 120 124 120 
141 138 136 139 134 134 133 129 130 134 130 127 131 130 129 129 130 128 127 122 120 128 134 126 123 131 127 133 131 131 132 135 134 135 134 140 141 138 133 131 131 125 119 123 124 127 126 129 122 120 125 122 120 120 121 122 118 120 119 118 119 121 123 123 122 125 124 127 120 125 122 126 123 122 121 122 121 122 121 124 
141 141 142 139 136 136 135 132 130 134 130 132 130 133 133 130 135 127 129 124 121 126 133 128 126 132 127 136 137 134 132 135 136 136 135 143 141 137 136 132 130 128 122 126 126 130 128 127 126 125 125 123 119 120 120 120 117 122 118 120 119 120 122 120 120 125 126 124 123 123 124 123 122 124 124 124 121 123 127 123 
140 145 138 142 138 141 130 132 131 137 132 133 134 137 133 134 135 133 131 127 124 133 137 132 132 131 131 136 135 133 137 137 139 141 141 143 145 138 135 134 132 129 124 130 128 130 128 127 125 124 127 127 123 125 122 124 117 120 120 119 121 123 124 122 121 125 127 127 123 124 125 125 124 123 121 121 121 121 124 124 
145 141 138 143 139 142 137 136 136 135 133 132 134 137 135 136 137 132 132 129 125 132 141 133 124 133 130 139 138 140 142 139 140 143 140 149 149 142 138 135 133 127 122 130 129 129 128 125 128 123 126 125 122 123 122 122 122 122 120 120 122 124 121 121 127 126 123 121 123 126 122 126 124 122 119 119 124 119 126 129 


