P2
80 60
301
31 30 40 56 99 107 69 47 79 99 82 49 42 36 39 32 32 32 27 29 26 23 28 24 24 23 28 29 30 29 30 31 26 26 22 25 23 26 24 25 22 23 25 27 26 31 26 26 17 17 14 18 14 16 16 18 19 16 20 23 23 24 27 26 26 20 24 26 25 28 25 29 25 23 26 23 27 30 21 18 
34 31 39 62 103 103 62 43 83 96 76 48 41 36 38 33 31 30 29 25 26 25 25 25 26 29 29 29 27 29 25 25 26 23 22 21 23 22 22 24 22 23 26 24 24 27 28 23 17 18 16 18 18 16 18 18 21 19 24 25 27 25 27 29 24 19 20 24 21 22 23 26 22 28 26 24 29 23 24 24 
30 32 40 61 107 101 56 51 89 96 73 42 38 35 32 31 30 30 28 28 24 24 25 24 30 31 27 31 29 30 28 25 22 20 24 21 24 23 23 23 19 26 24 26 25 31 30 24 25 22 20 23 22 24 24 25 28 26 30 29 33 30 27 27 27 17 21 23 24 27 26 24 27 22 26 22 27 30 26 19 
30 32 38 68 106 97 53 50 92 91 67 38 33 33 33 30 29 31 26 27 29 25 30 28 30 24 27 30 29 29 27 26 23 21 20 22 23 22 23 23 22 24 27 24 26 30 29 32 28 24 28 27 29 27 26 27 25 25 30 29 26 27 27 24 24 16 20 23 27 25 25 26 25 24 25 24 27 26 24 22 
32 35 41 76 114 97 54 52 93 95 62 42 35 32 31 28 29 28 29 24 28 26 30 26 29 28 25 29 31 29 28 26 26 20 22 21 23 22 19 21 23 23 25 25 25 27 29 30 27 29 28 26 26 30 27 26 26 26 28 26 24 25 24 23 23 23 21 23 25 25 26 28 25 24 27 22 27 22 23 24 
31 38 44 86 111 94 53 56 95 91 61 38 32 32 29 27 29 27 30 27 31 28 28 24 25 29 26 27 29 31 29 25 20 23 22 20 22 22 22 23 20 24 22 24 28 31 25 27 29 26 26 29 25 26 25 24 26 23 22 24 24 26 26 27 27 23 19 24 28 29 28 30 27 28 25 29 27 22 20 21 
34 38 40 86 111 90 48 53 99 88 51 32 33 28 29 23 25 26 28 29 28 28 26 25 25 27 26 27 32 29 25 25 24 22 22 22 22 21 23 22 22 23 20 22 25 28 22 27 25 24 25 24 23 25 21 29 27 23 26 24 27 26 24 29 26 25 19 24 25 25 26 28 28 25 28 24 24 26 21 18 
26 32 39 85 105 82 44 50 97 85 48 31 25 25 20 21 25 28 28 26 22 21 20 23 21 24 23 22 26 25 22 24 23 22 19 23 19 19 17 21 18 23 20 22 23 22 20 22 22 26 23 21 21 22 24 22 21 19 25 26 28 28 27 24 26 18 17 18 22 24 25 26 28 25 22 21 26 24 23 22 
21 27 32 86 109 82 39 57 101 83 47 26 27 27 24 23 24 25 25 22 24 21 21 23 25 23 25 25 25 26 27 23 22 21 21 21 24 22 22 21 23 20 20 23 24 26 24 24 22 22 22 19 25 24 24 27 28 27 26 27 28 27 27 27 27 22 20 20 23 28 30 26 23 26 26 25 25 27 26 25 
6 0 13 88 110 77 34 52 106 88 41 23 19 22 23 19 22 23 22 25 21 20 18 23 20 23 24 22 24 28 26 24 21 20 21 21 23 21 21 20 21 21 22 25 22 26 22 25 23 21 21 20 25 18 23 29 27 26 26 28 28 28 28 25 29 22 19 17 23 24 27 29 26 22 24 25 25 26 25 20 
13 3 20 89 110 72 26 57 116 91 30 15 9 15 15 16 19 20 16 18 18 20 18 20 18 22 20 20 23 23 24 19 23 21 18 17 22 20 20 21 22 19 20 22 23 20 22 21 23 22 24 24 24 25 25 25 25 25 25 25 27 26 26 25 23 25 19 19 23 23 25 26 29 24 23 22 25 25 19 23 
27 21 26 96 118 75 28 58 115 91 28 13 12 11 10 10 9 10 13 14 15 16 16 19 19 19 21 19 22 24 20 20 20 19 18 19 21 22 21 22 19 22 22 22 23 23 20 22 24 26 27 23 27 24 26 29 25 27 28 30 27 29 28 28 25 23 22 18 21 26 26 27 29 24 28 20 24 26 25 20 
22 22 22 96 116 74 30 66 115 87 30 14 11 10 9 9 10 9 10 7 4 5 4 7 10 14 11 8 12 15 14 15 18 15 16 19 20 20 20 18 19 21 18 22 19 23 24 25 23 26 27 25 26 26 27 27 27 26 26 30 27 28 23 28 26 26 23 21 22 23 25 27 29 24 26 24 26 25 21 24 
24 16 26 99 103 66 33 71 116 85 25 14 12 12 14 14 9 6 8 6 5 5 7 6 6 7 3 5 5 6 5 4 8 9 13 18 19 19 18 20 20 19 22 21 25 27 26 26 24 24 26 26 26 28 26 28 27 27 28 30 26 32 28 25 26 25 22 19 21 26 26 29 30 27 29 26 29 25 20 23 
24 20 37 99 99 54 31 74 109 74 26 15 14 15 14 12 12 11 10 8 9 6 10 9 6 6 9 7 8 5 5 1 1 6 13 19 19 18 19 16 18 19 25 23 24 27 26 27 28 27 28 26 28 29 27 25 29 29 27 28 29 29 30 30 27 26 23 21 21 26 28 32 26 25 27 28 28 21 22 20 
25 19 36 104 95 51 28 78 107 70 26 15 13 13 14 12 11 9 10 8 7 6 6 9 9 7 5 4 5 6 4 3 12 13 18 20 19 18 17 17 18 20 21 22 23 26 25 26 25 29 23 26 25 27 28 25 26 25 26 29 30 28 25 24 26 28 24 21 21 25 29 28 29 24 26 28 26 18 25 23 
21 18 42 104 91 48 31 78 102 65 25 19 14 12 13 13 10 12 10 9 10 8 9 7 5 6 6 8 7 10 20 18 21 20 20 20 19 17 21 23 20 22 24 23 24 27 27 28 27 26 27 26 26 30 29 26 26 30 30 28 26 29 26 25 28 28 26 21 19 23 27 29 27 26 25 28 26 24 24 23 
21 19 43 102 94 47 27 81 103 62 25 17 17 17 15 13 12 11 11 13 13 10 11 9 11 9 10 10 14 20 21 22 20 19 21 18 20 23 21 20 21 21 22 25 27 26 27 27 28 28 25 28 28 28 24 29 28 27 27 27 29 29 26 29 26 27 28 21 17 21 28 26 31 24 25 28 31 30 21 26 
22 18 46 103 91 46 28 80 98 62 22 15 14 14 16 13 13 13 11 11 13 8 9 9 10 6 6 8 14 18 21 20 17 17 14 19 16 21 18 18 19 22 23 20 24 27 23 25 24 24 27 28 25 26 26 24 26 28 28 27 26 26 23 26 25 30 27 22 15 20 27 26 28 26 25 27 29 28 26 23 
24 20 49 99 92 47 29 85 100 60 24 18 15 16 17 15 17 14 15 11 10 10 10 9 11 11 9 8 12 21 25 18 20 18 17 19 19 19 19 24 19 22 23 24 24 28 26 25 29 26 29 26 23 28 29 29 28 27 27 30 27 27 29 28 27 28 30 26 16 18 27 27 29 26 25 29 30 29 24 23 
27 23 59 108 90 45 32 92 104 57 23 16 20 21 16 18 18 15 14 13 12 10 11 14 9 13 8 12 12 19 24 16 23 17 19 20 22 20 20 21 19 19 23 26 28 28 29 28 28 25 28 31 26 26 26 29 29 30 28 32 29 28 30 28 29 28 28 27 23 20 28 26 31 27 30 31 32 28 25 29 
32 30 70 117 90 45 35 95 101 55 21 20 19 17 13 13 19 15 16 16 12 15 12 13 8 12 10 13 8 13 20 19 20 15 17 20 21 20 21 18 19 18 23 22 24 29 25 23 29 29 25 27 25 27 27 26 27 28 27 27 30 28 31 25 27 25 31 27 23 22 22 28 30 28 26 26 28 29 27 27 
85 73 103 123 83 38 40 92 99 52 26 19 17 18 14 14 14 16 17 15 14 13 11 10 12 15 11 9 11 15 18 17 20 18 19 18 21 22 16 17 18 20 22 22 25 24 26 27 27 26 27 26 23 26 28 24 27 27 29 28 26 29 27 29 28 26 28 28 25 17 21 24 31 26 29 30 24 29 24 24 
112 106 109 105 73 35 44 96 98 53 24 22 20 16 16 16 16 16 18 16 15 15 14 13 10 12 12 11 12 16 21 17 18 17 19 15 21 22 19 22 19 21 22 24 24 26 26 24 26 30 28 30 26 29 27 26 28 26 28 30 27 27 29 29 27 28 27 30 28 26 21 20 29 26 26 30 26 30 25 25 
103 98 90 86 52 34 44 101 101 53 25 23 21 19 19 18 18 17 14 14 16 14 14 15 14 14 15 13 18 17 21 20 19 19 19 19 20 22 24 23 24 24 25 25 23 26 29 26 28 28 27 28 28 28 26 27 27 30 28 27 29 26 29 30 31 28 34 33 32 28 24 20 23 23 26 33 32 27 26 24 
44 45 46 47 31 30 47 106 102 52 24 22 20 22 18 21 18 21 17 15 15 19 18 18 15 14 11 10 13 15 21 19 20 21 21 21 26 22 24 24 27 22 27 27 26 27 25 25 28 32 30 25 27 28 26 26 28 28 29 31 31 28 29 33 31 30 30 32 31 29 31 26 23 20 22 25 26 25 28 27 
34 28 24 25 27 31 51 115 104 52 26 23 18 20 19 20 17 16 18 17 17 15 16 15 17 14 12 17 14 14 23 21 21 20 20 24 20 22 27 23 25 21 26 26 25 25 24 28 27 28 30 25 26 26 28 28 28 28 27 29 28 28 28 30 30 30 30 30 29 30 29 31 27 28 21 25 26 22 25 23 
77 65 56 55 50 53 68 125 103 47 26 23 22 20 20 19 19 16 17 19 17 16 16 15 17 15 14 14 13 15 21 18 24 23 22 25 23 24 24 23 24 26 24 22 27 30 28 29 29 25 29 28 26 27 31 27 26 30 29 29 31 29 27 30 30 30 32 29 30 27 28 31 28 29 31 31 34 27 24 24 
121 110 102 104 99 102 108 113 92 45 22 22 20 20 20 21 19 20 19 18 17 17 16 15 15 18 12 14 17 15 23 23 22 22 21 24 25 27 23 24 27 27 25 25 23 27 25 29 27 29 26 26 26 28 30 27 28 26 30 28 26 30 32 31 29 32 30 29 30 31 31 31 30 29 33 32 31 26 23 25 
100 97 94 97 98 98 94 95 78 32 23 20 19 21 19 17 19 22 19 20 20 15 19 14 15 17 16 13 17 16 22 24 21 21 25 25 24 25 23 24 27 22 24 26 26 31 24 27 28 26 27 29 28 29 31 27 28 29 30 32 29 29 29 30 29 30 28 30 32 29 31 32 31 30 33 32 32 26 26 27 
44 44 43 52 55 59 58 61 41 25 26 24 21 23 22 21 23 22 21 18 22 18 17 17 17 19 19 16 17 16 22 24 24 23 23 23 26 26 25 25 25 24 26 26 27 25 27 25 28 28 26 28 29 29 28 31 28 28 25 29 28 28 29 32 30 30 29 31 33 29 28 31 30 32 28 30 31 28 29 29 
27 23 21 28 26 29 28 27 24 15 24 24 23 25 23 20 21 22 22 19 21 20 19 22 18 17 17 21 14 16 21 24 21 23 22 24 25 28 26 25 23 24 26 24 30 27 27 28 29 27 31 26 27 27 27 29 27 27 29 30 30 32 32 31 31 31 29 31 30 28 30 31 33 29 28 31 34 28 29 28 
29 23 21 26 26 26 22 26 24 22 23 25 25 25 23 21 22 22 21 21 22 25 24 19 17 18 19 20 16 16 22 27 24 23 22 25 26 25 27 26 26 25 26 28 27 28 32 26 29 31 29 27 29 30 30 29 27 27 31 29 31 30 32 33 28 31 30 34 31 29 27 32 34 34 31 29 36 31 33 30 
29 22 23 23 26 28 24 26 24 24 26 26 28 27 24 25 24 26 25 24 24 24 22 23 23 23 22 21 17 19 24 26 28 26 24 24 27 27 28 23 25 25 27 28 30 29 29 27 32 31 29 30 29 29 31 29 29 31 27 32 34 34 30 34 31 32 32 32 34 34 33 35 34 35 31 30 34 30 28 28 
26 23 21 22 23 25 22 27 27 22 27 26 25 27 23 26 24 25 22 25 22 23 22 23 23 21 21 20 20 19 23 23 25 22 23 24 24 23 27 27 25 24 28 25 29 28 29 30 29 30 27 28 31 29 29 30 29 29 30 33 31 36 33 31 29 32 30 32 33 31 32 33 36 32 31 30 36 31 32 32 
32 23 21 23 25 27 23 24 24 19 27 26 24 25 26 25 27 25 23 24 22 25 24 27 20 24 21 22 18 22 24 25 27 23 24 25 24 27 26 29 24 24 26 26 30 28 29 29 29 29 30 28 29 28 27 28 29 30 27 30 29 30 30 30 31 30 30 33 32 33 30 36 39 31 31 28 34 37 30 37 
31 24 21 24 25 25 24 26 27 21 28 25 26 25 25 26 25 27 24 28 25 22 27 24 24 25 23 24 19 21 24 27 24 24 22 24 27 26 31 26 24 25 26 28 29 30 31 30 30 34 31 29 27 31 30 28 30 28 32 32 32 32 31 30 32 30 32 32 30 31 33 36 36 32 31 32 35 38 34 32 
33 27 21 27 23 28 24 27 27 20 26 28 27 26 26 26 26 26 27 26 23 26 26 26 25 25 27 24 19 20 25 27 27 27 28 25 27 25 26 24 27 25 25 29 26 30 29 32 28 31 32 29 31 31 28 31 28 28 28 30 31 32 28 30 33 33 32 33 34 30 36 35 35 33 33 30 35 35 35 46 
34 28 24 25 24 26 26 30 28 23 24 27 25 29 28 28 26 27 26 26 26 26 27 25 27 26 29 28 25 23 22 27 27 27 28 24 27 28 29 28 29 26 25 26 30 33 32 30 31 31 30 31 30 29 28 31 30 27 31 37 30 33 31 32 34 34 33 33 32 30 33 36 39 36 35 31 35 34 40 55 
30 26 23 25 22 28 25 31 26 21 29 29 28 28 27 29 28 27 29 29 28 27 24 27 29 26 25 26 25 21 26 28 28 25 26 27 27 28 27 27 27 28 26 27 28 31 30 29 30 31 30 29 27 29 31 28 28 26 27 29 30 31 29 28 29 34 33 33 33 34 34 36 34 34 34 35 49 53 62 93 
33 26 26 28 29 30 26 32 28 23 27 27 26 29 31 28 30 32 33 28 28 29 30 32 32 27 31 26 27 23 25 25 28 31 31 25 29 28 28 28 28 30 27 28 29 31 30 33 31 30 29 32 28 30 28 30 29 30 34 30 32 32 33 29 31 34 33 40 33 34 38 39 36 34 39 52 68 66 90 179 
33 25 24 34 29 29 28 32 28 24 29 32 28 32 34 36 33 31 34 30 32 32 31 32 33 30 28 29 31 28 27 31 33 29 29 29 27 30 31 30 30 28 32 27 32 30 31 33 33 32 30 28 30 34 31 28 33 31 31 29 30 33 31 31 32 37 37 34 33 34 38 39 41 41 41 46 67 114 205 243 
32 22 26 30 33 32 26 33 33 24 28 29 29 31 29 35 31 32 32 32 31 27 34 33 31 33 29 31 30 23 26 31 30 32 29 27 31 33 28 29 28 28 29 28 33 32 29 30 30 32 31 30 32 32 28 27 31 26 31 32 33 32 34 33 30 35 35 36 34 34 38 39 44 42 51 80 161 239 271 276 
33 25 23 32 34 32 38 34 31 23 29 29 30 30 31 36 32 35 34 36 35 34 38 36 35 33 28 28 30 27 26 30 30 27 28 29 31 30 31 30 28 27 30 28 30 29 32 29 30 32 33 29 31 27 30 31 28 27 32 32 32 31 32 34 32 35 35 35 35 34 43 55 65 93 135 202 260 281 284 275 
31 25 26 28 32 32 31 32 35 23 32 30 32 33 31 33 33 34 36 37 37 34 37 35 37 34 29 28 32 27 25 28 30 30 30 31 31 31 31 30 30 31 31 27 31 29 28 33 34 32 29 31 30 28 28 30 30 29 29 30 31 33 32 36 32 36 36 38 40 48 88 129 163 213 253 276 297 296 271 268 
33 31 27 31 33 36 31 33 29 25 30 32 35 34 33 36 39 36 40 38 38 39 38 39 35 31 27 29 29 26 22 26 31 32 32 31 29 30 32 33 32 28 30 32 31 29 31 30 33 35 31 34 27 29 31 26 27 32 33 33 33 35 31 35 34 36 38 42 47 86 134 206 251 269 283 289 301 284 255 246 
35 29 23 32 33 36 33 33 32 26 35 33 32 38 36 34 35 38 40 38 42 38 40 37 35 36 36 33 32 34 28 28 34 31 33 32 32 31 30 32 33 29 30 29 33 33 32 31 32 33 31 32 32 30 31 27 29 29 30 31 34 34 36 32 35 37 39 40 55 100 139 222 236 233 220 213 210 200 195 207 
33 30 29 33 35 35 35 33 34 29 31 34 35 37 36 38 38 41 39 43 40 41 42 42 41 48 44 42 40 39 33 27 29 31 34 32 31 32 32 32 36 35 30 32 34 31 33 32 31 34 32 32 29 33 29 32 31 32 34 37 35 35 33 35 37 38 39 43 71 104 122 151 153 155 156 160 168 177 191 214 
33 28 28 35 35 38 37 35 33 30 31 32 34 37 37 38 42 39 41 39 43 39 44 42 47 50 48 43 41 40 36 32 33 32 32 36 35 34 32 33 35 34 32 32 33 32 31 34 29 36 33 31 30 29 33 29 35 30 32 33 34 37 35 37 35 36 37 53 84 109 124 131 137 141 154 169 184 200 220 242 
31 29 26 30 32 36 34 37 33 31 35 37 35 41 36 38 41 37 41 41 41 39 40 45 42 47 46 45 44 41 35 30 33 36 36 36 36 35 36 35 33 33 33 33 36 31 29 30 31 34 31 32 32 35 31 32 34 32 36 36 33 36 36 37 36 38 39 48 84 117 139 151 155 163 172 184 203 210 233 245 
36 30 30 31 34 37 37 39 37 31 35 38 39 40 41 37 42 41 42 42 42 44 43 45 46 47 48 44 45 41 37 30 33 34 37 39 37 34 35 36 33 35 33 35 34 33 33 33 34 31 35 36 32 34 38 31 33 33 35 33 35 37 35 37 34 37 41 48 83 115 141 152 160 163 176 189 205 218 233 245 
33 32 31 32 35 38 35 37 38 32 37 36 38 38 38 40 43 44 45 47 46 47 49 45 51 50 47 49 46 41 38 31 36 36 38 37 37 34 37 37 35 32 35 34 34 36 34 34 32 32 34 35 29 39 42 38 37 36 35 34 36 35 35 39 37 40 39 47 76 115 137 152 159 163 171 189 204 213 229 250 
35 35 32 41 37 40 36 41 41 36 38 42 41 39 43 42 45 45 45 45 48 48 50 49 49 53 51 49 49 46 40 38 34 39 41 40 39 38 36 37 36 36 34 37 36 35 34 35 33 35 33 35 34 42 50 49 45 40 40 40 36 37 38 34 38 40 44 46 68 106 133 152 158 162 171 185 200 209 228 245 
41 34 33 39 41 40 43 40 41 36 43 40 42 42 43 46 47 48 50 53 54 52 50 53 52 57 56 52 48 47 40 35 34 38 38 39 41 34 38 34 37 36 36 36 35 35 34 36 32 35 35 38 39 43 62 78 69 52 41 39 39 37 39 42 40 40 42 43 61 105 128 147 158 159 167 179 197 208 228 246 
44 37 37 41 43 44 46 47 43 37 46 45 42 44 48 46 49 50 53 53 56 54 55 58 57 60 57 59 52 52 48 40 38 41 42 43 41 38 38 38 37 38 36 38 38 37 37 36 36 38 38 40 42 62 173 192 124 67 45 40 37 39 40 38 39 39 39 47 61 98 126 144 150 157 166 177 194 207 226 237 
48 44 37 46 46 48 47 49 47 44 49 51 51 52 49 54 55 58 55 57 60 61 63 63 64 62 63 58 55 54 48 43 43 44 46 46 45 43 44 40 39 43 40 43 39 43 40 43 39 42 43 43 47 72 205 204 122 69 48 40 41 40 41 42 42 42 42 48 57 97 127 149 152 157 161 171 187 197 227 240 
50 44 44 44 49 48 50 50 51 45 48 49 48 50 53 53 56 58 62 64 63 66 68 70 66 68 69 60 61 56 50 43 40 44 45 46 43 41 40 43 40 41 39 41 40 42 43 41 42 42 39 38 44 50 80 92 75 51 45 43 44 38 40 40 40 39 41 46 53 90 120 139 151 153 161 162 154 174 219 234 
57 50 45 52 52 56 50 55 54 50 54 53 54 58 54 60 60 63 64 65 68 70 69 73 74 76 72 67 62 58 53 43 43 47 49 47 46 38 38 44 40 41 40 45 48 45 44 42 42 43 40 44 40 46 50 54 50 49 43 43 42 42 39 40 44 41 47 44 51 86 118 138 146 153 156 156 149 188 219 230 
62 58 57 57 57 61 57 58 57 54 58 55 56 58 59 58 63 63 68 70 74 80 81 83 79 82 78 73 66 60 54 47 46 47 49 50 45 46 58 53 42 46 48 44 45 46 48 47 46 45 44 41 43 47 47 48 46 44 44 40 40 46 41 40 43 41 44 49 51 79 114 138 153 154 157 165 178 197 217 227 
79 74 69 66 67 65 62 65 63 56 62 64 59 61 62 67 66 71 75 80 79 82 82 79 86 90 87 75 64 62 56 52 49 50 53 53 54 68 120 84 54 52 50 50 49 46 51 45 47 49 45 42 40 45 47 44 44 45 41 46 48 41 44 43 45 42 46 48 52 74 109 136 151 151 162 171 185 197 211 221 


