P2
80 60
259
106 112 118 116 125 120 110 107 105 108 106 109 111 112 117 111 111 117 134 144 180 186 146 125 171 192 158 128 129 131 128 126 123 120 119 120 119 122 121 122 124 124 118 116 116 115 116 113 115 116 124 146 171 201 225 240 234 251 259 248 208 164 124 112 105 108 104 109 109 112 111 103 96 99 100 97 94 97 99 99 
106 110 114 126 128 124 121 127 123 117 112 109 103 103 104 103 112 117 128 147 179 182 139 127 176 192 150 125 127 133 129 126 122 123 122 120 121 120 125 122 126 125 114 119 120 117 116 116 114 113 115 124 133 146 155 175 165 157 156 142 128 119 118 114 105 106 104 115 114 113 117 108 100 97 101 99 96 93 103 89 
110 111 112 122 128 122 120 127 124 123 122 123 118 114 103 106 115 121 134 154 186 185 132 132 183 187 141 128 128 131 131 127 124 120 122 120 121 117 122 122 124 123 117 118 116 115 117 115 112 114 113 116 115 119 133 145 134 129 119 116 118 121 118 111 103 102 100 113 114 115 115 109 105 101 99 100 97 94 100 90 
107 108 109 117 119 119 120 127 122 119 120 121 122 119 118 113 115 123 135 162 186 175 131 141 189 185 135 127 128 126 128 122 122 116 118 120 124 120 120 122 124 120 115 116 117 114 119 111 111 112 113 110 114 113 117 120 119 117 113 112 116 116 112 109 101 103 101 105 104 112 111 109 109 107 106 101 97 93 98 98 
114 122 115 113 120 122 127 121 117 118 119 115 122 118 113 112 114 125 136 173 189 156 125 148 191 174 131 126 125 127 121 120 117 118 120 117 117 117 120 118 122 119 115 112 113 114 116 115 115 114 110 109 112 112 111 114 111 112 113 111 112 112 114 107 101 99 99 101 103 102 104 108 109 108 107 107 101 95 98 91 
120 117 125 129 130 135 132 120 117 115 120 117 117 118 116 112 117 128 139 182 189 150 130 161 194 168 130 126 122 125 124 118 119 117 118 117 116 118 120 121 121 120 115 116 113 113 114 112 115 110 109 111 112 111 111 113 110 109 112 114 111 114 112 104 101 101 99 100 104 100 105 106 105 111 110 108 105 104 106 99 
118 112 118 118 123 131 124 118 117 119 117 118 117 120 113 112 117 130 144 185 184 141 130 165 193 159 130 126 120 124 122 119 116 117 116 115 116 116 117 120 122 120 120 114 114 117 116 112 114 113 108 110 111 111 113 110 109 109 111 114 112 109 104 105 102 101 100 105 102 104 104 105 103 102 105 111 106 106 106 101 
118 112 112 117 115 119 119 115 119 118 118 117 115 119 118 114 124 131 151 190 174 135 132 174 190 153 130 122 119 123 121 117 116 113 116 115 113 114 115 116 119 117 115 113 115 115 115 115 113 109 109 113 111 113 110 112 110 112 108 109 109 109 104 104 98 102 99 105 103 102 104 106 105 101 100 105 106 106 106 104 
119 112 108 111 118 116 116 115 113 118 116 115 113 115 118 114 125 133 158 191 172 129 136 182 187 143 127 124 122 120 120 117 112 115 115 113 112 111 113 118 118 116 112 117 114 114 113 113 111 113 109 110 110 110 112 111 108 109 111 110 110 109 105 101 99 100 99 103 102 103 104 108 100 98 103 102 103 106 105 105 
138 85 89 104 110 116 120 111 115 112 112 113 111 117 119 117 127 138 170 193 163 126 141 187 181 137 126 120 119 120 120 119 116 116 115 114 112 115 118 117 119 119 114 113 112 109 113 108 112 112 113 108 112 111 110 112 109 109 108 111 110 110 104 99 101 101 99 101 103 104 104 104 101 97 101 103 103 106 105 101 
104 27 20 50 87 108 114 111 110 116 111 113 112 113 118 115 127 137 183 200 157 128 152 190 176 127 120 120 117 117 117 113 114 114 115 115 115 118 117 120 119 119 116 112 110 110 109 111 109 109 107 110 108 106 114 113 108 109 111 108 111 109 104 102 100 100 99 105 102 108 108 106 104 99 102 103 105 107 111 104 
86 23 0 1 24 74 109 112 111 113 114 112 113 115 119 121 130 146 188 188 151 131 161 192 167 126 122 120 117 116 117 115 116 114 114 119 116 118 119 118 119 119 115 112 112 109 112 107 111 112 108 113 111 110 110 111 110 109 111 112 110 111 106 105 100 102 103 107 108 114 113 112 110 109 110 109 109 111 114 110 
100 38 9 1 4 33 88 99 105 110 108 113 116 116 118 120 130 148 193 186 139 128 168 191 162 124 119 119 114 113 115 112 115 114 116 116 115 118 117 116 117 121 115 112 115 110 114 106 111 107 108 110 107 106 110 111 112 110 115 110 113 111 113 107 101 99 100 110 109 115 116 116 115 112 111 112 111 114 111 109 
121 84 57 34 21 35 77 100 98 97 93 101 99 109 113 119 125 143 195 178 130 121 173 186 153 120 115 113 115 113 115 116 115 115 118 115 115 115 119 117 119 120 115 110 114 116 115 112 110 109 111 108 108 106 108 108 111 113 112 112 109 114 111 110 101 99 98 106 113 113 114 115 111 111 111 113 109 112 113 110 
114 106 93 93 86 84 93 106 114 107 102 96 97 96 100 96 103 141 199 179 125 128 184 186 144 117 114 112 113 113 115 116 118 114 116 115 114 115 116 116 119 121 113 112 115 116 116 112 107 109 106 111 110 109 109 111 107 110 107 107 111 110 113 111 101 100 100 108 111 110 109 114 112 109 106 111 108 107 111 107 
120 114 106 107 105 108 111 113 119 117 113 114 110 108 102 88 91 151 199 170 108 121 192 181 135 111 112 110 111 108 113 113 112 111 110 110 113 114 114 115 116 117 114 114 111 113 111 108 109 107 107 110 108 108 110 111 110 108 106 106 107 106 108 112 101 99 100 105 110 112 112 110 105 105 108 110 111 110 112 108 
118 107 106 108 109 111 114 115 113 114 116 116 116 117 112 108 110 164 202 164 105 129 210 193 127 99 103 106 106 109 111 107 109 111 109 111 116 113 115 114 117 116 113 111 113 111 111 108 109 110 107 113 110 110 110 111 109 110 105 106 108 109 107 107 102 100 100 106 109 109 112 109 110 109 108 107 106 110 110 109 
104 106 110 110 113 111 114 114 114 114 111 113 112 111 114 114 116 177 202 157 107 139 207 179 110 97 98 99 100 101 104 105 107 108 109 112 109 106 115 111 113 114 111 108 110 108 111 108 109 107 111 104 113 111 110 111 109 107 107 108 107 108 105 106 104 102 99 106 109 109 111 110 108 109 108 111 111 107 110 107 
102 107 111 113 112 111 112 114 111 111 112 113 110 110 110 107 111 185 197 150 109 150 208 177 106 101 97 100 95 96 97 99 98 97 102 104 108 108 108 109 114 113 108 108 106 107 107 109 108 111 105 109 111 110 110 109 108 107 107 108 106 105 106 102 101 99 102 100 107 112 115 111 115 109 112 108 112 109 110 105 
105 112 113 114 116 113 116 114 110 111 113 114 114 112 112 109 125 194 189 138 108 164 206 166 109 104 99 98 98 101 98 95 95 96 94 93 96 101 106 107 111 109 104 105 105 106 107 108 108 111 106 108 110 109 109 108 108 109 107 108 107 107 105 109 107 98 101 100 108 109 113 110 112 112 112 114 108 110 108 107 
111 109 111 113 115 117 116 118 113 114 114 119 113 112 113 112 135 194 183 128 109 173 199 155 108 105 105 100 102 100 100 95 96 94 94 97 96 98 96 96 98 97 93 95 97 101 107 105 109 109 107 111 109 108 110 110 108 109 104 106 107 109 111 112 110 102 98 101 109 113 116 114 114 112 113 112 110 108 111 111 
111 111 115 117 116 116 116 114 113 113 113 116 112 111 113 114 140 197 174 121 113 180 193 146 106 101 102 102 101 99 98 97 98 97 98 95 98 96 96 96 94 97 88 85 88 91 94 97 103 103 106 104 109 109 104 108 109 108 107 110 108 109 110 114 109 104 99 100 108 111 112 113 114 110 113 110 110 111 106 107 
111 109 115 115 118 119 120 113 114 115 114 118 111 110 112 114 152 194 172 115 114 189 189 135 105 104 104 99 101 101 101 100 98 98 98 98 100 99 98 95 98 96 88 87 88 87 94 100 102 107 104 107 107 104 103 106 108 108 108 111 111 110 112 115 115 107 101 101 105 111 114 113 113 110 113 111 115 109 112 111 
115 110 113 120 117 120 116 111 116 114 113 113 112 110 112 117 160 191 164 116 123 195 181 126 104 104 104 100 98 102 103 99 98 98 99 99 98 99 100 99 98 97 94 89 93 98 107 104 106 106 105 107 106 105 104 111 109 109 108 109 111 110 113 113 115 108 102 98 104 113 116 114 112 110 110 111 112 110 108 108 
129 124 125 125 124 124 120 112 115 115 117 116 113 113 112 121 172 190 161 116 129 193 180 124 103 105 103 105 103 102 103 101 99 100 100 99 97 97 99 99 103 101 98 106 106 106 105 109 108 109 106 109 109 109 108 111 110 111 111 111 112 113 113 114 113 110 103 100 102 113 113 113 112 113 110 113 114 112 106 108 
177 166 162 150 141 135 128 121 122 122 128 119 111 117 118 123 180 186 154 113 140 191 177 117 105 103 103 105 108 106 104 103 102 102 102 102 103 100 98 100 101 107 105 106 107 107 109 107 108 106 109 110 110 110 111 113 109 110 111 111 111 111 114 111 112 116 102 104 102 111 116 115 113 115 110 111 113 111 109 110 
189 192 198 198 193 189 180 165 152 147 138 124 117 117 122 132 194 188 149 114 151 193 172 113 107 105 104 105 105 110 106 104 103 102 105 100 103 99 100 102 102 102 104 110 106 110 109 108 106 108 105 107 111 111 113 111 110 108 108 110 109 110 112 114 114 116 107 99 100 107 119 113 114 113 110 113 109 114 113 108 
180 187 196 202 203 205 204 205 207 176 162 182 166 147 141 155 215 190 143 121 165 188 163 109 104 104 103 103 101 102 103 102 104 98 101 100 101 104 101 100 101 103 102 107 108 107 105 106 109 107 106 107 110 111 109 110 110 112 111 108 110 110 114 111 113 114 106 101 98 107 114 115 114 111 111 111 112 110 112 112 
138 141 147 164 178 192 198 206 204 171 171 210 207 201 196 205 206 177 127 125 178 192 156 111 103 103 103 105 104 105 105 103 103 106 102 104 105 102 103 102 105 105 101 109 108 104 108 109 107 107 107 108 110 113 111 109 111 111 112 110 110 114 112 114 116 117 109 103 100 105 118 114 113 112 115 111 114 112 112 108 
135 131 130 146 154 150 144 155 157 154 156 187 195 197 199 197 189 165 123 127 181 186 147 108 106 107 108 105 104 106 107 104 104 104 107 104 104 104 104 104 104 101 97 109 106 109 108 105 107 107 106 105 109 114 111 112 113 111 110 110 111 111 111 111 114 117 114 103 99 102 115 115 114 115 113 115 114 111 111 108 
171 165 158 154 162 145 138 133 135 137 132 132 135 145 161 166 158 129 118 130 187 186 146 107 107 106 106 106 104 106 105 104 101 105 107 108 104 102 105 103 104 102 101 108 105 107 111 106 109 110 111 109 110 109 111 113 111 109 114 110 113 113 113 113 116 118 116 102 101 99 112 112 115 112 114 118 110 111 112 107 
190 195 198 205 203 193 178 166 158 142 129 130 125 125 123 119 118 114 122 133 195 182 138 109 109 106 106 108 102 109 107 104 105 107 109 105 104 103 102 108 105 101 101 108 106 108 109 109 109 110 110 110 112 110 112 112 110 111 110 111 110 114 117 118 117 120 118 108 100 100 111 113 111 115 114 115 116 111 112 110 
178 184 193 198 205 208 214 215 203 158 171 184 167 152 134 127 117 116 122 146 203 185 131 111 106 109 109 110 105 107 107 103 106 105 106 107 108 101 107 102 104 103 101 106 109 112 111 108 110 110 111 113 109 114 112 115 110 110 111 113 112 116 119 119 118 118 117 112 102 98 111 113 117 115 114 117 114 113 116 110 
135 140 158 171 176 186 201 206 199 174 197 220 216 210 201 188 173 161 154 179 211 185 131 112 109 107 110 107 109 107 109 109 108 105 104 106 107 105 104 104 107 104 105 108 109 112 112 113 109 112 111 112 113 115 113 111 112 114 112 112 112 117 115 119 119 119 122 115 100 97 104 115 115 115 116 113 114 114 115 108 
135 136 148 146 136 134 142 150 160 149 173 192 198 201 200 196 191 189 193 198 193 174 129 109 108 109 110 107 108 109 110 107 105 107 107 106 107 107 106 102 104 105 104 110 112 110 112 113 113 111 111 114 113 115 113 114 112 115 112 113 115 117 118 118 118 120 117 118 105 100 99 111 115 116 112 116 115 112 111 112 
152 152 142 155 136 121 127 127 136 138 134 134 139 149 162 166 172 175 182 186 174 153 118 106 109 111 111 113 106 109 110 108 109 107 109 109 110 105 107 103 106 105 106 110 111 114 112 113 113 113 112 114 114 111 111 113 112 111 114 112 115 117 116 115 114 117 116 115 106 101 99 109 114 114 115 114 114 113 113 108 
166 152 140 151 128 122 122 121 139 139 129 123 120 120 124 123 120 127 135 142 129 118 114 111 109 109 109 111 110 109 113 105 107 111 108 107 105 105 108 105 104 106 107 110 112 112 112 112 114 113 113 114 116 114 114 112 113 111 112 113 114 116 114 117 116 119 122 120 112 100 99 106 113 116 115 113 112 111 120 111 
164 144 136 139 125 121 123 124 137 134 124 124 118 119 119 115 115 117 117 115 107 112 114 108 108 109 110 110 109 108 111 110 108 110 113 110 110 108 105 106 108 107 108 113 108 110 113 112 115 114 114 116 118 116 116 118 113 112 111 113 113 115 116 119 114 121 120 118 114 99 100 105 113 115 116 118 112 114 114 110 
187 147 134 131 120 125 124 124 143 137 125 127 121 117 117 115 114 114 116 116 107 109 111 114 111 110 117 113 111 114 110 110 107 112 113 110 110 110 109 110 110 107 110 114 112 110 115 114 112 113 113 116 116 118 113 114 117 114 112 115 111 114 115 116 118 124 120 120 117 105 101 106 113 116 118 116 114 112 118 110 
179 143 134 130 119 128 124 130 137 134 122 123 125 117 120 115 115 114 115 118 107 111 112 114 113 114 115 114 112 111 112 110 111 111 113 112 111 109 111 111 108 108 113 113 112 115 116 117 115 113 115 116 117 120 114 116 114 115 114 113 115 116 115 117 116 119 120 118 118 112 101 100 112 112 116 116 113 115 114 110 
159 136 136 131 125 132 128 126 122 121 123 121 127 122 118 116 115 114 115 120 108 112 113 112 115 113 112 112 113 115 113 112 112 111 115 111 114 110 113 112 113 111 112 116 113 118 119 116 112 114 117 115 116 114 115 114 113 116 117 116 117 117 118 116 117 118 124 119 121 113 102 102 105 115 116 115 113 116 118 113 
135 132 135 136 127 128 123 120 122 121 119 121 125 123 118 117 116 114 115 116 105 112 118 113 117 112 113 116 116 115 114 116 112 115 116 114 115 113 110 113 111 112 115 117 114 117 119 116 114 114 117 117 117 119 115 118 116 116 115 117 116 118 117 117 116 123 123 119 119 119 107 100 105 114 113 117 113 118 118 113 
128 132 132 128 126 124 124 120 118 123 119 121 125 128 120 120 115 117 119 116 110 112 114 112 115 114 116 115 114 116 116 115 116 114 115 116 116 114 113 113 113 110 117 118 116 113 119 116 117 116 116 117 120 114 114 115 113 115 114 113 116 120 118 119 118 120 121 120 117 119 111 103 102 110 113 116 117 117 116 116 
124 132 131 125 125 122 120 116 122 119 118 121 122 126 123 118 118 116 120 120 108 113 116 111 118 116 117 116 114 115 115 114 115 118 117 115 115 113 114 115 111 108 113 113 115 115 117 115 116 116 117 117 116 112 113 113 112 114 111 115 109 119 116 118 117 120 120 120 119 117 114 107 102 102 115 116 117 114 116 118 
122 126 127 127 124 124 121 119 123 119 122 121 126 124 124 120 116 120 123 117 109 115 114 115 118 116 118 120 114 117 116 116 116 117 114 115 116 115 116 114 113 112 113 116 115 115 118 114 114 119 118 117 113 116 112 113 111 113 111 116 116 116 117 118 120 120 122 118 119 117 120 109 101 100 111 117 118 116 116 116 
124 130 131 128 123 128 124 122 125 125 120 121 125 127 125 119 119 119 126 120 113 118 117 115 116 116 117 119 116 120 119 118 118 116 118 117 117 118 115 114 111 112 114 118 118 117 117 120 117 118 116 115 117 116 115 113 113 115 114 117 115 114 120 117 120 121 120 124 123 121 121 116 104 99 106 114 118 117 124 119 
126 134 131 122 124 124 125 125 126 120 125 120 122 126 128 128 119 116 125 116 115 116 120 118 117 116 120 121 120 121 123 122 119 117 121 118 116 117 119 116 113 115 115 116 117 118 120 120 117 117 117 116 119 117 115 112 113 116 114 117 117 119 118 119 122 122 126 124 121 118 119 120 113 102 104 111 115 117 120 119 
126 130 133 126 122 124 124 122 123 125 122 125 122 127 125 128 118 116 122 114 113 119 119 119 118 120 119 123 120 122 123 120 120 118 118 121 122 116 120 120 115 114 118 117 117 119 118 122 121 116 117 115 118 117 117 115 114 114 115 116 117 115 117 116 124 123 121 122 118 119 124 119 116 105 101 104 110 115 114 112 
129 132 135 129 126 127 124 123 122 124 121 123 126 126 130 127 123 125 128 117 112 119 120 117 121 118 120 121 121 123 124 121 121 123 123 123 120 118 122 120 117 116 119 118 119 122 120 118 118 117 117 119 117 117 118 114 115 116 114 114 115 116 118 117 121 121 123 121 121 122 123 123 120 118 104 106 108 106 111 107 
128 130 133 130 127 128 123 122 122 125 124 125 122 126 127 127 122 122 126 123 114 118 118 117 122 119 121 121 121 124 125 122 126 124 123 123 122 124 118 119 118 116 120 121 121 120 120 119 117 118 119 116 119 118 116 114 117 114 119 116 119 118 119 119 120 122 122 126 121 119 122 120 123 117 117 109 106 106 109 105 
129 130 130 129 126 127 126 121 126 125 124 125 124 126 125 122 123 122 123 122 112 117 118 119 124 122 122 126 123 127 125 125 125 127 125 123 122 119 117 120 120 115 120 121 118 122 120 117 120 119 120 116 118 120 116 115 114 116 118 114 119 116 117 120 123 124 124 124 123 123 121 122 118 118 121 118 111 107 110 112 
134 135 132 126 125 130 126 128 125 124 128 127 125 125 124 122 122 120 123 120 117 116 124 121 123 122 124 123 123 126 130 126 127 123 128 125 122 119 119 120 117 118 121 121 122 119 121 120 121 120 118 119 119 121 117 115 115 117 114 118 119 118 120 122 123 126 126 124 123 121 118 122 117 118 119 121 117 115 119 118 
138 133 134 126 128 128 126 126 124 126 124 129 126 127 127 127 125 122 122 119 117 118 126 120 124 126 123 128 124 129 128 131 129 129 128 125 122 121 120 116 116 115 115 124 119 119 121 120 122 121 122 119 119 118 117 117 119 119 119 120 117 120 120 123 122 124 125 122 122 121 123 119 117 121 122 120 118 122 116 116 
139 136 134 126 125 129 128 128 130 128 128 127 123 131 128 130 127 128 127 123 118 122 121 125 125 125 124 125 127 129 129 131 133 132 128 128 127 122 120 119 122 118 119 125 120 124 122 121 122 118 119 120 119 121 119 119 116 118 122 118 116 118 123 123 121 124 123 123 123 123 121 125 120 121 124 124 120 121 122 118 
146 141 134 128 130 131 129 128 130 127 129 131 128 130 128 127 126 127 129 124 120 122 125 124 127 127 129 129 128 134 133 134 134 131 135 136 136 132 130 129 131 131 122 126 123 122 124 126 124 123 120 123 123 120 121 117 119 119 120 117 121 120 124 125 125 122 125 127 125 124 122 121 125 119 119 123 120 120 125 122 
150 139 136 133 134 132 133 130 134 133 131 133 134 133 131 131 126 130 131 125 122 126 127 128 127 132 132 131 132 134 134 134 134 134 135 140 142 135 132 130 131 131 125 127 128 126 128 125 124 123 121 124 120 123 123 121 117 122 121 121 119 120 123 124 126 127 127 126 124 124 125 121 121 123 125 123 123 121 125 128 
149 142 133 138 137 135 136 133 137 136 134 132 133 133 135 132 129 133 129 124 122 128 131 130 129 132 131 132 131 131 135 135 135 133 138 142 141 141 136 133 132 127 125 126 130 130 128 129 125 123 124 125 125 123 124 123 119 122 122 121 121 122 126 125 125 130 127 128 124 124 123 128 127 125 123 123 126 126 126 127 
147 143 140 141 136 138 137 134 136 136 133 138 131 135 137 133 134 131 133 126 125 128 129 130 129 133 132 135 138 134 135 135 139 138 139 144 140 137 140 133 132 133 130 129 131 129 132 129 128 126 122 123 123 126 123 122 119 123 120 119 123 123 123 124 124 128 125 125 129 126 125 124 122 125 125 126 128 130 131 127 
148 146 139 139 140 141 140 136 136 137 136 138 139 140 138 137 134 136 137 131 129 129 132 135 133 131 137 137 134 137 142 138 142 144 144 146 145 141 138 138 137 131 130 132 132 130 132 127 128 126 127 129 125 126 128 125 122 121 124 120 125 125 127 125 124 127 128 127 123 124 129 125 124 124 125 125 125 127 132 133 
150 144 139 140 140 144 141 138 136 138 134 134 137 143 141 136 137 135 137 132 127 131 134 136 130 136 134 140 138 141 144 142 142 142 141 151 149 142 137 137 135 131 126 133 131 131 131 128 130 126 125 129 127 128 125 123 127 124 122 123 124 124 125 122 129 128 125 127 124 124 127 126 125 126 125 125 129 123 129 137 


