P2
80 60
573
135 170 194 195 194 195 195 191 190 194 189 185 185 190 207 220 221 200 191 183 179 171 180 182 158 91 41 21 22 24 22 27 30 21 31 51 134 192 201 203 204 209 215 248 257 239 216 238 265 247 212 208 212 207 205 201 193 186 179 179 181 183 180 179 185 188 183 186 191 191 189 191 195 197 194 197 198 199 200 195 
127 129 155 198 201 195 191 194 192 193 188 189 189 186 184 209 224 216 212 201 183 165 169 172 157 112 55 27 18 13 23 24 29 16 27 45 118 187 199 202 201 205 215 253 256 216 212 251 260 224 210 210 209 205 195 193 187 179 178 174 178 178 180 181 182 183 183 186 185 189 193 189 194 194 194 197 196 197 195 195 
148 144 144 176 202 206 200 196 193 196 187 193 200 200 185 182 194 205 222 220 209 185 156 148 156 137 80 39 26 9 0 9 8 14 31 49 121 188 199 198 203 205 236 254 234 206 224 258 246 211 205 208 211 204 192 188 183 179 177 176 176 177 182 178 183 185 182 185 190 193 196 195 193 192 195 195 198 198 196 196 
168 168 164 173 188 204 208 209 198 199 189 192 210 196 189 189 183 180 200 214 212 209 183 120 113 157 128 74 40 17 10 12 20 26 43 70 146 188 194 198 198 214 249 251 212 205 247 257 231 202 209 209 207 202 193 184 182 178 177 176 178 180 182 182 181 188 188 194 193 194 197 195 198 198 198 196 196 197 195 197 
170 173 174 180 192 200 201 206 213 209 199 210 201 188 188 195 193 184 176 181 190 198 194 183 146 182 172 126 78 42 23 29 34 43 69 108 166 179 188 194 204 231 251 233 204 213 256 248 208 205 211 206 202 193 191 187 178 179 178 180 178 182 182 183 186 190 195 192 193 193 197 196 193 198 194 193 194 196 195 196 
168 173 173 182 196 196 199 198 205 214 209 211 194 189 192 197 192 187 185 175 170 188 202 193 177 181 184 165 131 91 69 68 78 90 125 161 174 179 187 199 210 247 248 212 206 234 254 229 203 202 210 201 200 186 184 187 181 180 178 180 183 182 184 188 193 195 195 199 199 196 195 195 195 194 194 193 194 192 194 195 
167 176 173 194 197 199 194 190 190 199 205 210 203 192 197 193 193 189 184 185 179 171 191 194 176 174 164 155 150 106 109 132 149 157 175 177 180 183 189 203 232 252 235 204 210 248 251 213 205 205 210 201 192 186 184 181 182 182 185 182 187 186 191 196 195 195 195 199 197 197 197 195 193 194 193 197 188 196 194 190 
169 174 185 195 197 195 194 188 168 158 187 200 208 207 198 194 192 194 186 184 182 180 181 173 170 167 155 151 159 124 100 141 161 167 183 179 179 183 198 210 255 257 214 202 227 256 236 204 204 208 202 193 189 186 182 186 186 186 185 185 188 190 195 196 199 197 196 197 196 197 199 194 193 194 194 194 192 193 191 192 
173 184 197 198 192 192 190 182 142 150 189 200 196 201 207 202 197 194 188 185 183 182 186 189 170 156 164 169 182 179 174 161 161 165 170 173 183 193 199 238 263 245 204 208 251 261 218 204 206 213 203 193 187 183 187 188 188 188 191 195 193 195 197 197 198 197 196 195 196 195 198 197 193 194 194 194 193 193 193 193 
178 196 196 202 191 191 187 175 141 170 204 206 194 198 199 208 208 199 191 186 183 184 187 187 183 180 170 168 176 174 170 187 175 161 159 172 186 200 216 258 261 220 201 230 265 252 204 206 210 205 197 190 185 183 187 189 190 192 196 195 200 199 197 198 199 195 194 198 194 195 197 195 196 195 193 193 192 194 192 190 
194 198 202 198 192 192 182 170 166 204 215 199 202 201 200 202 203 205 200 188 185 185 187 187 186 196 185 171 166 163 166 173 184 185 174 181 193 203 242 264 248 203 208 258 265 222 202 206 208 202 195 188 186 188 188 190 196 197 197 197 202 198 200 198 197 196 195 197 195 197 196 196 195 196 194 192 195 195 192 195 
204 207 198 193 187 189 192 189 203 230 213 208 211 200 197 199 202 198 200 200 192 187 190 188 194 193 185 180 180 162 160 172 183 177 187 187 200 213 260 266 222 205 235 271 252 209 205 213 209 203 197 192 191 192 195 199 201 204 201 201 201 199 198 196 197 196 198 199 194 199 197 199 193 196 193 192 194 194 190 189 
206 200 193 196 192 189 194 195 220 225 212 210 210 203 200 195 197 200 190 194 196 202 192 196 193 188 185 182 185 179 167 159 171 180 187 195 203 236 266 247 202 206 259 270 231 202 205 211 205 202 200 196 195 199 197 200 202 201 201 196 200 197 200 196 196 196 196 196 194 197 196 198 196 193 192 195 193 193 195 196 
204 203 199 197 191 193 197 213 229 217 209 211 211 210 203 198 198 199 187 188 188 191 202 200 187 187 182 181 183 180 175 177 178 187 190 198 212 257 265 222 200 229 270 259 207 201 209 210 206 202 201 203 201 202 201 201 204 198 199 200 199 198 197 196 199 195 194 198 196 197 197 194 197 198 195 194 194 194 193 191 
200 199 205 206 202 198 209 231 222 219 209 212 213 216 221 214 209 197 187 188 184 184 190 192 187 186 185 184 185 183 176 180 186 185 199 205 238 269 256 201 203 257 266 232 204 201 209 211 202 205 204 204 201 202 201 201 199 199 204 200 197 198 200 197 196 199 197 194 195 199 197 194 194 195 193 195 194 196 193 197 
199 199 206 216 216 210 229 226 220 216 211 214 216 223 227 222 218 186 183 185 181 183 187 184 185 181 183 181 185 180 174 178 187 185 203 212 257 270 226 198 223 266 257 208 203 207 210 209 206 203 201 199 203 203 203 202 200 198 198 200 197 196 197 200 198 198 196 194 193 197 198 197 196 193 193 192 193 195 193 192 
199 200 203 215 221 226 232 217 215 215 218 217 220 222 196 201 159 121 158 182 182 180 186 181 187 184 183 182 183 180 176 181 185 197 207 237 271 257 204 204 251 270 234 207 202 205 211 206 204 204 204 202 202 201 203 199 202 201 196 198 198 199 198 195 199 197 196 198 199 195 199 195 196 195 193 193 193 195 192 192 
219 205 204 207 220 232 220 214 216 222 222 217 225 212 198 197 123 88 99 156 178 181 187 180 178 181 178 181 185 176 178 181 192 202 217 259 268 227 199 217 266 262 216 206 204 207 208 205 204 206 205 201 202 203 201 201 201 201 199 199 199 196 198 200 198 200 196 197 198 195 197 195 197 196 193 194 191 195 196 191 
249 239 221 219 232 222 214 213 217 223 216 222 228 205 230 188 119 89 77 101 159 181 184 183 178 182 179 180 179 177 176 179 197 205 240 271 256 207 203 245 268 246 206 205 204 199 202 204 203 202 204 200 200 202 196 202 200 199 199 199 199 198 198 196 196 198 196 193 195 196 198 191 196 196 195 190 195 192 192 189 
259 253 252 245 237 216 212 213 214 220 215 227 210 224 224 193 144 102 78 78 125 174 177 179 178 179 179 176 182 181 174 184 202 214 264 263 232 200 215 264 264 224 204 203 202 200 198 200 197 203 203 202 201 199 200 199 198 200 198 200 201 197 196 194 201 196 199 200 194 194 197 195 194 196 195 193 191 195 195 192 
259 274 270 275 256 234 218 217 216 217 218 221 215 238 211 197 181 159 111 93 120 167 168 172 175 180 178 179 183 185 178 195 207 238 272 251 206 203 241 268 247 210 205 204 201 199 200 203 200 202 202 200 202 199 199 203 202 202 201 199 198 199 200 197 197 198 199 200 197 197 198 198 197 195 196 193 195 192 191 193 
275 295 317 372 300 258 235 221 213 218 225 212 234 221 209 191 185 177 172 144 140 172 172 167 165 175 179 175 184 180 180 199 212 263 264 229 197 214 259 262 226 207 202 200 199 198 199 202 203 201 202 200 198 199 201 200 200 200 201 200 198 200 199 198 198 198 196 199 197 200 198 201 197 196 194 194 196 196 192 191 
292 307 428 573 337 269 228 218 215 232 219 225 228 197 191 188 183 183 180 180 178 183 182 175 164 163 169 176 180 181 190 204 242 276 257 205 199 236 266 248 208 200 197 200 198 196 198 200 197 201 197 199 197 198 198 200 198 199 198 199 200 198 198 199 196 197 198 196 198 200 197 195 196 195 196 193 194 193 191 191 
302 341 503 435 306 253 224 213 224 236 217 240 217 192 191 189 187 185 182 184 181 183 182 184 179 169 164 166 173 183 193 209 268 256 240 197 211 263 262 225 200 202 198 197 197 195 195 199 198 198 198 196 198 200 197 198 199 197 200 198 200 195 198 201 200 200 199 199 194 202 198 195 197 196 197 199 195 197 200 193 
319 437 458 335 273 236 222 221 238 226 233 233 213 192 191 190 191 188 184 184 181 184 183 184 188 185 179 170 167 166 182 222 272 252 217 199 239 267 252 206 200 198 196 197 198 197 200 200 197 203 200 196 195 196 199 198 199 199 201 201 201 198 198 202 201 202 199 195 197 201 199 200 197 199 196 194 198 198 198 200 
373 484 364 300 244 224 218 231 229 225 235 219 210 194 191 192 191 187 187 187 185 183 183 181 183 184 184 180 177 157 162 251 264 237 203 204 260 260 230 196 200 198 193 193 193 194 194 197 200 199 201 198 198 194 198 198 195 199 199 195 198 200 198 200 200 199 196 200 199 199 198 194 199 200 196 191 196 197 196 194 
466 420 320 282 247 227 228 238 219 238 224 205 201 193 193 190 188 186 189 187 183 179 180 179 180 183 180 181 183 177 200 272 256 207 195 226 265 249 204 191 193 192 194 192 191 193 194 196 196 199 196 199 199 200 203 201 197 198 199 194 198 198 196 201 199 200 198 199 197 196 196 196 197 200 196 197 196 195 193 194 
464 346 300 282 275 265 252 228 228 239 210 200 195 192 191 191 187 188 187 190 181 176 178 178 178 179 181 180 185 186 245 268 246 191 191 252 258 227 195 192 191 194 194 190 192 193 197 197 198 199 201 201 197 200 202 199 194 198 199 196 201 197 197 199 201 200 196 196 194 197 200 194 199 195 199 200 195 198 194 190 
386 315 274 282 275 274 276 257 246 219 203 200 198 193 192 197 194 188 188 188 183 179 179 180 180 182 178 178 186 198 270 264 217 184 223 278 250 204 189 188 188 191 190 190 190 193 194 197 202 199 201 198 198 200 199 197 199 197 198 198 199 197 199 202 198 196 198 198 194 201 196 199 199 198 202 197 198 199 193 193 
333 280 234 248 264 274 279 276 268 245 214 205 201 193 193 198 195 193 189 185 181 178 176 181 179 181 181 181 192 243 274 254 203 191 260 282 242 185 182 180 185 193 186 189 190 192 197 199 198 203 199 196 198 198 201 199 199 194 198 196 201 196 196 199 198 199 196 198 197 199 199 195 199 195 198 198 193 191 192 189 
310 258 226 218 230 251 275 278 276 276 257 230 209 200 197 197 193 195 188 183 178 179 180 179 182 181 181 183 206 267 259 225 191 215 283 269 205 180 179 179 179 185 185 186 190 190 191 196 197 198 199 196 197 197 197 201 199 199 197 199 199 196 196 200 202 198 198 195 193 198 198 193 199 199 195 198 191 188 189 186 
293 290 261 231 216 225 256 269 276 280 275 269 254 225 204 197 194 196 186 184 183 177 178 179 183 184 185 186 244 263 243 195 191 249 287 248 190 180 178 176 174 177 180 183 186 192 190 199 195 200 198 199 196 197 197 198 198 196 199 196 200 196 194 201 201 200 198 198 198 196 196 200 200 202 201 192 187 188 189 189 
290 290 284 276 250 229 233 242 247 263 269 272 275 264 246 216 200 199 184 186 181 179 179 181 179 181 185 199 269 256 219 183 205 276 275 216 184 176 179 174 174 173 173 180 184 186 189 195 196 193 198 196 192 197 196 198 196 197 198 197 199 195 201 199 198 197 198 197 198 196 198 197 198 201 199 192 187 189 188 193 
247 266 274 280 275 271 252 258 233 229 230 255 275 276 276 267 246 207 193 190 186 183 180 181 183 182 189 234 272 246 196 186 243 277 255 191 181 181 178 177 181 178 177 179 178 182 190 190 192 195 197 196 193 197 196 198 197 198 196 197 201 199 196 205 200 195 202 199 198 200 198 200 200 201 199 195 188 190 188 193 
226 225 239 261 269 277 281 285 247 226 216 219 238 263 279 282 275 265 235 207 204 186 183 183 185 185 200 264 265 228 185 197 270 270 226 184 181 180 181 181 180 180 177 175 178 176 180 187 192 194 194 195 195 197 197 197 199 199 197 201 199 198 200 201 204 197 198 199 197 201 201 197 202 200 198 196 193 192 190 190 
224 216 215 222 242 270 283 285 278 266 228 212 215 227 249 268 282 285 274 235 208 191 186 183 184 188 230 268 254 204 183 231 273 253 202 181 179 182 178 178 177 179 174 176 178 178 178 181 181 190 194 195 194 194 192 195 196 198 197 196 198 196 197 201 200 197 195 198 196 201 203 200 203 200 201 199 197 199 199 192 
216 216 208 209 216 265 345 288 278 284 274 250 226 219 234 219 240 271 267 239 248 248 215 191 187 202 265 264 240 189 196 260 266 232 191 180 181 181 178 181 178 181 180 180 179 178 180 182 176 179 185 187 188 192 194 195 195 196 196 193 198 196 198 196 197 199 197 202 197 197 200 199 198 201 202 198 197 202 197 195 
216 214 207 213 231 341 373 289 259 274 279 280 276 253 229 209 212 218 226 225 267 277 266 248 218 246 281 260 219 188 223 271 257 207 188 180 179 180 181 179 177 181 177 178 178 177 181 180 182 180 179 179 180 181 189 193 194 197 198 196 197 198 199 200 197 201 196 200 198 198 200 199 202 202 203 203 199 205 201 198 
214 212 209 220 276 386 313 271 229 238 256 272 280 277 271 235 214 211 212 213 240 266 269 269 269 292 284 248 203 198 257 264 239 195 191 181 182 181 184 180 182 184 179 181 177 178 182 184 181 181 181 179 179 177 179 183 191 194 194 195 197 196 197 200 197 200 199 200 199 199 198 201 199 204 198 201 204 204 199 199 
216 211 214 237 302 333 299 269 229 227 236 246 267 275 285 283 266 233 207 200 197 208 244 267 270 275 260 210 198 227 266 262 219 186 188 181 184 181 180 182 183 181 183 181 183 180 182 184 183 180 182 178 178 178 176 177 181 188 194 194 195 195 196 199 200 197 200 200 200 199 201 198 201 198 200 201 200 204 199 202 
216 217 220 268 374 321 295 273 253 249 227 223 227 234 266 282 285 240 219 217 191 190 200 219 244 249 226 196 206 253 265 244 203 186 188 180 183 183 184 180 184 186 180 181 185 181 182 184 182 183 180 180 177 173 175 176 175 175 187 191 194 197 196 198 197 198 199 197 200 198 199 197 202 195 198 195 197 200 199 197 
218 219 235 334 379 299 292 281 257 239 225 229 209 199 217 242 255 243 263 285 249 209 193 196 196 198 195 194 226 269 256 221 191 185 187 182 182 182 184 183 185 182 183 180 180 182 184 184 185 184 182 179 176 181 182 183 187 184 189 189 197 196 195 199 196 200 198 197 198 199 197 198 199 198 197 196 197 201 199 200 
220 226 279 449 352 304 306 287 251 228 216 217 201 194 202 205 223 225 262 288 284 268 239 207 195 192 195 201 259 274 248 200 191 186 190 186 184 186 185 184 183 186 186 184 181 184 183 187 184 186 185 182 190 191 192 189 191 194 192 197 197 198 194 200 197 198 198 195 197 198 200 199 202 198 197 196 197 197 201 201 
221 254 366 437 342 284 279 270 243 220 207 203 197 196 197 203 215 210 219 250 267 276 274 262 234 208 200 222 287 269 225 193 190 190 189 183 183 185 186 183 185 184 186 186 183 183 188 187 184 183 185 186 192 191 194 191 192 194 195 196 193 195 194 195 197 198 199 197 197 196 202 202 200 199 204 201 196 201 199 200 
234 321 498 334 272 270 259 243 218 220 206 198 199 197 197 217 208 199 202 204 220 245 267 269 267 260 246 275 296 261 203 188 191 189 191 184 185 186 186 179 186 185 186 186 184 184 186 187 188 187 187 185 193 194 195 197 196 196 193 199 199 198 200 201 199 200 201 199 201 198 203 203 202 202 208 200 203 201 204 203 
268 476 433 277 255 266 238 225 220 215 202 198 201 193 203 219 211 197 196 196 195 201 221 247 261 272 279 290 282 241 192 190 194 189 192 182 184 187 189 183 187 189 187 184 184 184 185 188 187 188 189 189 191 193 194 193 195 193 195 197 201 199 201 201 202 200 205 205 203 204 207 201 205 207 207 204 204 206 205 201 
340 565 335 254 255 246 222 215 219 215 204 203 207 207 216 220 202 197 196 191 192 192 197 203 219 250 266 273 263 210 189 190 192 188 189 187 186 187 187 184 185 189 187 185 188 187 187 187 189 187 186 188 192 194 197 195 194 197 195 198 198 199 201 201 203 201 202 202 201 205 205 201 205 206 207 206 209 206 204 201 
399 459 307 257 257 226 213 215 214 209 205 203 199 199 199 202 199 199 197 197 190 192 193 196 202 205 222 236 219 193 185 190 193 191 193 184 185 188 188 185 188 186 187 186 187 184 184 188 189 188 187 189 194 198 198 196 198 199 197 195 201 198 199 203 202 200 202 204 199 206 204 203 207 206 205 205 208 209 206 205 
492 387 275 263 251 225 215 217 211 210 202 198 199 194 197 199 198 194 199 195 189 193 192 196 195 195 195 200 199 192 187 189 194 191 193 185 187 186 188 185 188 189 186 184 187 186 183 186 186 187 189 193 196 196 196 200 200 199 197 199 201 199 202 201 203 200 204 202 201 201 205 205 206 203 204 206 205 205 206 204 
428 300 261 263 240 219 220 216 211 207 198 197 197 197 199 197 196 195 199 198 188 192 191 195 193 194 194 195 196 186 189 189 194 192 195 187 189 192 190 190 189 191 188 190 190 187 185 185 187 185 191 196 195 198 198 198 199 198 198 199 204 199 205 201 204 203 205 204 203 203 204 205 207 207 208 208 209 209 211 208 
392 285 264 263 227 219 217 215 204 208 201 195 195 196 197 195 193 196 197 199 194 192 196 197 194 198 193 195 196 191 185 189 196 193 192 190 187 187 189 184 187 187 187 187 187 186 186 186 185 187 194 198 197 200 199 196 199 201 200 201 200 200 201 203 207 206 205 205 202 205 207 204 210 208 208 206 208 208 211 217 
399 295 267 248 220 219 218 208 204 210 200 197 197 194 195 198 197 196 197 198 193 189 193 194 194 196 195 193 196 189 187 188 195 192 195 188 187 188 189 188 186 188 190 187 187 188 187 188 187 184 194 199 198 199 200 201 201 202 202 202 204 203 203 205 206 206 202 206 202 208 205 204 207 207 208 207 211 209 222 246 
469 311 274 238 220 218 217 208 202 211 200 198 198 196 198 197 199 201 201 198 194 188 198 196 200 198 196 195 198 194 189 194 197 196 195 189 190 192 193 186 192 191 190 193 188 192 188 189 186 193 199 199 200 202 202 205 204 205 206 205 206 208 208 207 207 206 205 209 208 203 206 207 209 211 211 211 211 220 249 295 
478 305 268 227 219 219 218 210 206 211 201 196 200 199 198 200 199 200 198 204 198 196 199 198 201 198 197 197 201 195 191 199 202 197 198 192 191 193 195 189 194 194 192 193 188 191 192 187 191 198 201 202 200 203 203 206 203 209 207 208 207 205 207 207 207 210 207 205 208 203 208 210 215 212 213 213 220 259 305 354 
379 292 249 222 220 218 216 207 205 207 204 199 200 199 201 201 202 201 201 203 195 199 199 201 199 200 198 198 199 195 189 195 201 199 198 192 194 194 194 191 192 196 195 192 196 191 192 192 189 201 204 203 203 204 204 206 207 207 206 205 208 209 211 211 208 210 208 210 209 209 211 209 212 213 212 222 242 305 376 414 
306 271 248 232 224 218 217 210 207 211 203 203 203 201 201 201 203 205 205 200 201 198 200 204 199 204 202 201 203 198 193 196 199 198 201 193 194 191 194 195 197 200 196 195 194 198 191 194 193 200 204 201 204 206 207 206 212 212 208 207 212 208 211 209 209 209 208 210 212 210 213 212 212 215 220 242 302 375 415 422 
297 281 259 236 227 217 212 209 208 214 202 199 202 201 203 204 205 204 204 207 203 203 202 203 204 202 204 203 204 198 196 197 201 197 203 198 200 198 196 197 201 197 201 196 197 196 193 194 199 205 207 206 206 206 210 211 212 212 209 209 211 212 211 212 212 211 212 212 212 210 213 215 214 218 239 279 350 403 425 437 
284 296 247 232 218 214 211 211 206 211 204 200 205 205 202 203 207 206 205 206 203 208 205 205 200 206 202 204 207 198 194 201 202 199 201 197 197 196 196 197 199 200 198 197 194 195 196 198 203 205 208 207 207 207 208 205 209 213 213 210 207 207 211 210 212 210 211 212 215 212 213 216 215 227 258 311 377 421 434 427 
283 281 236 235 222 215 213 212 210 211 202 204 204 205 205 205 205 208 206 206 206 206 204 206 202 203 201 203 205 197 195 202 202 207 207 201 201 197 201 200 202 196 202 199 195 194 194 196 207 205 206 206 208 209 211 211 213 208 210 213 215 213 208 215 213 211 211 211 212 217 216 214 220 239 281 344 406 430 430 383 
286 258 233 227 220 214 213 211 209 212 202 204 204 205 202 207 209 207 208 205 201 202 204 201 201 206 202 209 204 204 202 205 201 207 208 202 210 206 205 202 200 201 202 199 200 198 199 206 203 208 208 203 208 209 213 214 213 213 210 212 216 209 214 210 215 207 212 202 204 208 213 209 221 253 298 376 421 442 421 368 


