P2
80 60
257
20 22 20 26 37 47 81 100 71 50 60 89 89 48 40 40 38 32 31 31 33 36 33 23 28 29 27 32 31 35 37 34 31 30 28 29 34 27 26 27 29 31 31 29 32 30 32 30 30 25 19 19 20 20 21 19 16 20 17 18 17 18 20 22 21 18 18 21 25 27 19 21 21 21 22 18 18 16 17 19 
20 23 22 27 35 51 92 104 68 48 68 94 86 47 41 42 36 35 35 29 30 31 32 27 28 25 30 31 33 37 38 32 30 32 31 29 31 30 30 30 27 29 30 32 30 30 35 33 31 24 17 21 17 17 20 21 19 18 19 24 21 18 18 24 24 20 18 26 26 24 22 21 23 18 21 22 22 16 10 15 
20 23 23 27 37 51 87 101 65 47 73 91 79 43 42 39 34 32 34 32 31 31 31 28 28 29 35 33 32 35 38 35 29 27 29 30 30 30 27 30 28 28 29 31 29 36 33 33 34 25 19 20 24 22 20 25 23 21 22 23 24 26 27 26 29 16 17 22 30 26 22 23 20 21 22 25 20 15 14 10 
23 23 24 31 39 50 100 104 58 48 76 92 80 44 39 38 35 32 30 31 31 30 31 28 28 35 33 32 36 35 37 34 30 29 29 28 32 32 30 29 28 28 29 32 34 33 31 30 32 27 24 25 30 27 28 31 29 26 31 29 27 30 29 33 31 20 19 24 25 26 21 23 24 22 23 22 23 15 10 12 
21 24 21 29 40 59 106 101 56 49 81 92 66 41 36 34 30 34 31 28 28 24 32 28 30 33 34 32 34 33 37 33 31 28 30 28 30 26 28 25 28 28 30 28 32 33 32 35 32 33 30 28 29 31 34 35 30 31 29 31 27 31 33 30 28 21 20 22 27 24 22 23 24 25 22 19 24 13 10 15 
22 23 22 33 39 71 105 92 54 49 88 87 67 36 33 33 33 32 29 25 29 33 33 30 27 32 34 33 33 34 36 32 30 31 28 30 32 28 25 28 27 24 30 31 33 35 31 31 34 33 33 30 34 32 31 35 29 33 33 32 28 32 27 29 25 22 17 19 27 22 25 24 24 23 25 21 21 12 11 10 
19 26 25 36 39 70 104 88 44 55 92 88 58 33 35 31 30 29 32 31 27 33 32 28 30 32 28 32 32 33 35 32 32 30 28 29 30 31 28 28 28 27 28 29 30 34 32 34 32 33 32 33 30 30 33 33 29 27 29 29 26 30 26 28 27 18 21 19 26 24 22 25 23 26 26 19 21 8 8 5 
14 19 20 29 39 69 100 80 46 52 90 84 47 29 27 27 30 28 26 29 27 30 30 24 26 28 27 28 29 32 33 31 29 25 28 28 27 29 27 26 29 30 29 27 31 29 29 29 29 30 31 27 27 32 28 26 26 26 28 27 26 25 28 28 28 21 21 19 24 25 24 19 25 24 23 19 12 10 13 7 
9 13 12 30 31 70 103 76 39 51 97 83 47 30 26 28 26 27 26 25 27 32 28 26 27 27 27 29 32 33 33 31 29 28 29 27 26 27 26 27 29 26 28 31 29 32 32 31 29 31 28 29 28 30 28 32 30 28 29 30 29 29 31 28 29 29 22 18 23 26 22 26 24 22 22 22 16 13 13 8 
9 7 1 0 12 74 103 70 31 53 102 84 44 29 24 26 25 24 22 24 30 28 29 27 27 28 30 30 31 32 34 32 30 28 31 27 30 27 26 29 30 28 31 31 32 32 32 32 30 30 25 27 25 28 28 29 29 30 30 31 32 30 32 27 31 26 24 21 24 26 24 22 23 28 22 20 13 16 16 10 
14 14 8 4 13 78 102 68 26 55 110 88 29 17 16 21 20 21 24 23 24 26 25 24 25 27 27 28 29 29 32 32 27 29 27 25 27 28 29 28 26 26 28 29 30 31 31 30 29 28 25 27 26 28 25 28 30 32 30 30 31 29 30 29 29 26 23 19 25 27 25 24 26 24 23 21 17 16 14 14 
11 20 18 17 24 88 104 65 26 66 105 80 23 13 14 18 11 16 19 19 20 25 21 21 24 24 27 28 28 27 32 28 27 24 28 27 28 27 26 29 26 30 28 31 30 31 32 30 31 28 28 29 27 30 28 29 33 32 34 36 30 31 29 31 30 28 23 22 23 24 27 25 26 27 27 22 16 18 14 14 
15 16 14 19 20 83 97 62 26 67 106 72 17 12 10 14 14 13 16 11 8 13 11 12 17 19 24 20 24 24 27 24 27 25 25 24 28 27 27 27 25 30 28 27 29 30 29 25 25 28 25 30 27 29 30 30 33 29 32 27 30 31 28 27 24 28 27 20 18 21 26 23 25 24 25 22 19 10 14 11 
16 19 13 15 24 92 89 52 31 74 105 69 22 14 19 17 13 15 15 11 14 11 10 12 9 8 12 14 14 12 15 16 19 24 23 22 26 27 28 27 28 33 28 28 32 28 30 33 30 32 30 29 30 34 31 33 30 29 30 34 32 31 26 29 27 30 25 22 21 25 24 25 26 25 25 23 20 12 13 9 
15 16 15 19 37 90 85 49 29 83 104 60 25 16 17 16 17 15 12 14 9 12 12 12 10 12 13 13 13 12 14 10 8 8 7 17 22 29 26 27 28 25 30 29 32 30 32 32 30 31 32 33 30 32 32 34 32 32 29 31 34 33 27 32 30 29 31 23 19 24 25 27 26 26 25 23 19 13 14 10 
12 17 13 18 39 94 85 43 28 85 100 54 23 15 15 18 18 13 15 14 14 14 13 12 9 12 14 9 11 15 13 12 10 8 10 16 21 27 24 28 24 27 27 33 31 31 33 31 34 31 29 31 30 32 33 30 33 29 32 32 33 33 30 32 31 31 29 25 19 23 25 25 27 27 27 24 24 20 14 12 
16 18 15 20 46 94 81 39 27 90 96 49 22 15 18 18 18 16 14 15 15 15 15 13 9 12 15 11 15 15 14 11 14 18 22 23 25 30 26 22 24 28 25 29 28 29 32 29 33 32 31 29 33 32 33 32 30 31 31 32 29 31 31 27 27 31 30 25 18 20 21 26 25 27 28 20 26 20 17 11 
16 18 18 18 51 99 82 39 30 95 95 46 22 19 20 21 23 19 18 17 16 17 14 15 11 14 13 13 14 16 16 24 25 28 29 26 29 27 30 26 26 30 31 32 33 34 37 36 33 32 33 32 36 35 34 34 33 32 33 33 32 29 31 29 31 29 32 29 21 22 24 27 30 27 31 26 30 21 20 20 
16 15 18 20 53 95 72 36 29 94 90 43 18 16 19 20 17 16 19 15 17 17 15 14 13 13 12 12 17 17 23 27 27 27 26 23 25 25 27 26 28 28 28 28 34 30 31 33 32 30 32 33 32 32 33 34 30 30 29 30 33 31 31 33 31 31 33 30 22 17 22 24 27 24 30 26 26 24 20 18 
20 21 15 23 61 97 78 35 33 95 91 42 21 19 18 20 22 21 21 17 16 19 15 17 17 14 15 15 15 19 24 31 28 26 26 20 28 26 28 28 27 26 25 29 31 33 32 35 32 31 34 34 35 36 34 31 32 32 32 32 34 32 28 30 34 30 32 30 21 17 22 27 32 27 27 24 26 25 21 20 
21 25 19 23 72 101 77 35 37 104 88 40 22 16 19 20 22 22 19 17 17 18 15 16 14 18 16 16 18 19 22 29 28 29 25 23 27 26 25 25 26 26 30 31 29 32 32 33 32 32 35 33 33 32 31 31 31 30 33 36 32 34 33 31 32 32 32 29 23 14 18 25 27 26 27 25 24 27 21 21 
45 41 33 38 88 110 78 34 43 103 89 38 21 18 19 19 19 22 19 18 17 18 16 15 15 14 17 16 17 18 19 25 27 26 23 26 24 25 25 31 29 26 30 29 29 33 32 34 35 29 33 31 32 36 33 32 34 36 30 31 32 34 30 34 32 32 30 31 28 17 16 25 27 24 26 23 29 24 23 21 
102 100 91 91 109 108 65 30 50 101 86 33 24 22 16 21 19 20 19 17 19 16 18 15 16 16 17 15 17 18 18 25 24 24 24 22 25 26 27 26 28 28 31 30 30 32 31 29 31 32 35 34 32 31 32 32 31 32 32 33 32 31 34 34 30 32 30 32 29 20 12 18 25 25 26 27 27 24 23 21 
101 103 98 102 102 93 56 34 54 103 84 33 22 16 17 21 18 21 19 19 20 21 19 16 15 14 16 14 15 16 18 23 25 24 23 23 26 27 27 29 27 27 26 32 32 32 31 27 34 33 32 30 34 31 31 31 31 31 31 33 31 30 33 32 33 31 33 35 31 25 18 16 22 24 25 26 26 24 17 19 
58 65 71 80 77 67 36 34 62 108 88 34 23 18 21 23 24 23 20 21 17 20 19 19 17 15 20 17 21 19 22 22 27 24 27 25 28 29 29 28 30 30 29 30 32 34 33 35 34 34 31 32 36 34 31 31 34 31 32 33 35 33 35 31 34 30 32 35 30 31 25 15 20 20 22 22 26 25 23 17 
31 33 28 31 35 33 32 36 65 115 88 34 23 20 21 23 24 24 21 22 21 21 20 19 19 20 20 19 19 23 23 27 26 31 26 27 30 31 31 33 32 30 30 35 34 36 35 34 35 36 33 33 35 32 36 34 32 34 34 35 33 32 34 35 35 34 33 33 35 31 31 26 20 16 20 20 21 23 21 16 
48 43 33 33 27 26 30 41 75 121 91 32 22 22 22 24 24 20 22 21 20 21 22 22 18 20 18 19 21 21 20 27 28 31 30 24 29 31 29 33 31 32 33 32 31 33 34 33 33 33 37 34 34 39 35 35 31 34 34 31 32 35 36 34 34 34 33 37 33 28 29 31 28 22 20 18 17 16 17 15 
107 105 95 87 75 70 65 65 96 124 92 32 24 22 23 23 22 23 23 21 21 21 19 19 20 18 19 20 19 17 18 27 27 28 26 28 32 32 30 32 34 31 34 33 31 33 34 32 33 35 33 29 33 34 35 33 30 31 34 32 33 34 33 33 34 31 33 33 36 30 28 29 28 32 31 29 24 23 20 15 
104 107 106 103 96 99 98 98 107 108 79 25 23 23 22 25 23 24 20 23 24 24 20 19 20 20 21 18 21 21 21 25 28 27 30 27 30 29 31 34 31 30 33 33 33 34 32 36 32 32 33 33 34 33 32 31 31 32 31 33 30 33 32 33 33 34 35 35 33 31 32 28 30 28 31 30 29 26 24 19 
60 68 72 80 83 91 92 93 94 92 64 21 22 22 19 21 23 25 22 25 23 24 23 23 20 22 26 21 21 18 21 24 29 27 32 28 29 32 35 33 33 32 31 32 34 33 34 36 30 32 34 33 31 33 34 31 31 31 31 34 31 31 32 31 34 36 34 37 35 30 30 31 31 29 30 26 28 28 24 25 
26 32 30 30 30 36 44 49 51 47 32 21 18 21 24 23 26 22 22 23 24 25 24 26 18 22 21 24 19 21 22 27 29 29 28 29 30 32 30 32 29 33 34 34 34 36 33 32 33 31 31 32 33 32 32 35 34 32 31 35 35 34 33 34 29 33 33 38 35 30 30 32 31 31 30 25 26 28 25 24 
23 27 18 23 19 24 30 31 29 30 30 21 22 22 23 25 24 27 25 24 25 29 25 24 21 24 23 25 23 21 24 27 30 31 28 28 30 32 31 33 34 35 33 34 34 33 32 36 36 36 33 35 36 36 35 36 32 34 35 32 35 33 35 34 32 33 34 34 35 32 32 31 34 33 30 27 26 28 27 24 
23 25 21 21 24 21 29 28 26 30 27 18 21 23 26 26 28 24 24 25 25 26 24 23 24 23 23 25 25 21 21 28 29 29 29 29 29 31 31 33 33 33 34 33 33 34 33 32 34 33 36 36 34 31 35 32 32 32 34 37 33 33 32 34 33 35 35 37 37 31 31 29 36 31 30 29 29 29 28 24 
21 27 20 23 24 21 25 28 27 32 29 19 21 26 30 28 27 30 25 24 26 27 26 25 25 23 26 25 26 25 23 33 31 30 29 30 29 33 29 33 34 35 34 36 35 33 32 35 36 33 36 36 33 35 36 37 34 34 32 36 34 37 35 35 34 36 36 39 36 32 32 34 37 34 36 30 31 35 29 29 
25 28 20 20 24 23 21 29 27 31 27 18 23 23 28 28 28 29 25 26 25 26 29 26 25 26 27 24 28 23 25 28 31 28 31 29 33 29 30 30 34 33 32 37 35 35 32 33 33 36 36 35 33 35 33 32 35 34 32 38 34 35 35 34 36 33 36 36 35 35 30 34 33 36 31 28 26 29 27 28 
24 29 27 22 21 26 28 25 27 28 26 20 23 26 26 28 29 30 27 26 29 29 29 29 27 29 26 28 30 24 24 31 32 31 33 33 33 32 31 31 30 34 34 34 35 35 36 35 37 37 37 32 33 37 35 34 33 35 34 35 35 36 35 34 37 34 37 37 36 35 32 35 32 32 33 29 28 32 29 28 
24 27 24 24 23 22 26 27 27 31 30 24 23 27 27 31 27 30 29 31 27 29 29 30 28 27 30 28 28 28 25 33 33 35 33 33 32 33 33 34 30 32 33 34 33 37 38 39 37 35 37 33 34 35 38 35 36 34 35 36 36 37 37 39 35 33 36 42 36 36 35 34 34 36 34 28 32 33 30 32 
23 24 26 25 22 27 27 26 28 30 29 22 25 25 28 30 28 30 29 31 30 32 28 27 27 31 31 30 32 27 28 31 33 33 31 30 34 33 32 32 34 34 34 34 36 37 37 38 37 37 35 34 32 37 40 35 37 34 38 33 35 36 36 33 35 34 37 39 36 37 32 34 35 35 35 29 34 30 34 34 
22 23 21 23 20 25 26 25 31 28 23 19 25 26 31 32 29 31 30 30 27 30 30 30 29 30 31 31 33 28 28 27 28 31 34 33 35 33 33 34 34 35 32 32 36 37 34 38 37 34 33 35 35 37 35 33 36 33 35 33 31 35 33 35 34 35 36 37 37 33 33 33 32 36 35 28 35 42 38 39 
23 24 23 27 22 25 26 28 33 31 28 26 27 25 28 32 30 31 32 29 31 32 34 32 33 33 32 34 32 30 31 29 34 33 31 32 34 37 34 34 33 35 34 36 37 36 39 37 36 36 36 35 37 34 37 36 36 35 33 35 33 38 34 32 36 35 37 40 36 38 32 35 37 37 34 35 54 50 43 40 
27 29 26 25 26 26 27 27 29 31 29 24 27 25 30 32 34 34 34 32 33 34 35 33 32 34 36 34 35 30 30 30 29 33 32 32 34 34 36 35 37 35 37 36 36 38 35 37 35 37 39 32 37 36 36 33 33 36 36 36 36 36 33 34 35 36 37 40 35 37 35 34 36 34 34 33 41 42 40 44 
25 26 26 26 27 27 28 30 29 31 27 23 28 27 30 34 34 33 33 30 34 36 33 37 36 36 34 33 34 31 31 29 34 33 33 34 36 34 35 37 38 37 35 37 35 38 37 36 39 34 36 38 35 37 37 37 35 34 37 34 35 36 32 36 36 39 35 40 37 36 35 37 37 34 39 39 38 39 41 38 
26 26 25 26 25 27 30 29 28 33 28 25 30 31 32 36 33 33 32 33 34 34 36 34 33 35 31 37 33 31 30 29 35 34 32 34 34 37 33 36 36 34 36 37 35 37 34 36 34 34 35 37 30 33 33 32 30 34 32 34 33 33 35 32 33 35 36 35 37 35 37 37 42 38 40 41 42 42 41 39 
26 26 23 24 24 27 32 35 30 33 26 27 27 30 31 38 32 36 34 36 36 38 36 37 33 39 36 36 34 33 33 32 37 35 34 34 40 36 39 37 37 36 36 38 38 38 34 35 36 38 36 37 33 35 34 31 30 31 34 33 32 35 35 36 34 35 37 41 36 38 40 43 49 47 56 61 72 86 97 109 
25 28 24 30 26 29 31 36 29 36 31 28 30 34 29 39 34 34 36 37 41 37 40 38 39 41 36 36 33 34 30 33 36 35 34 35 37 38 39 36 38 34 35 36 39 39 36 33 35 34 36 34 31 33 35 33 32 32 36 35 34 34 37 34 36 35 40 42 39 45 67 81 96 104 118 126 140 155 172 190 
27 28 24 25 27 29 34 35 30 35 29 29 32 35 35 35 38 40 39 40 39 41 41 39 41 41 38 35 35 36 34 32 35 34 33 35 36 39 36 38 36 37 32 36 37 37 39 38 39 37 38 36 34 32 34 31 30 35 34 31 35 36 38 37 38 36 38 44 42 68 107 126 136 141 152 159 168 187 208 227 
24 30 25 26 27 27 35 32 29 36 31 27 31 34 34 37 38 39 40 39 41 45 43 42 41 40 37 35 35 36 35 28 30 34 34 37 38 36 37 39 38 38 36 37 39 37 36 34 33 35 37 36 33 36 33 32 34 35 34 36 37 36 35 38 37 37 40 43 49 76 118 151 160 167 178 188 201 219 239 242 
25 28 26 26 27 32 34 32 30 38 33 28 34 35 34 35 37 37 43 44 40 41 42 42 39 43 45 45 40 40 42 36 32 33 36 39 38 37 36 37 35 39 37 36 35 37 35 36 35 35 36 37 31 34 34 32 33 35 34 34 35 34 34 36 33 36 39 44 43 73 122 156 168 175 184 197 208 225 245 249 
25 29 23 32 26 31 33 32 34 38 35 28 31 37 33 38 38 40 44 42 42 43 44 45 44 49 49 49 45 42 43 39 33 35 38 38 37 38 40 39 37 34 37 39 39 34 35 35 35 37 36 35 34 33 33 36 35 33 34 34 33 38 36 37 34 34 39 39 41 68 119 152 171 180 184 195 209 225 242 257 
26 26 23 26 27 29 33 33 31 37 33 25 32 36 35 40 42 39 39 40 43 45 44 44 40 46 50 47 47 43 45 38 35 37 39 35 35 38 37 38 38 38 38 41 38 36 35 37 36 37 33 33 32 32 35 33 34 32 37 34 36 38 36 37 35 34 39 38 44 64 115 145 169 175 182 193 203 217 243 247 
28 31 25 30 30 32 30 33 36 42 34 27 37 37 36 40 43 42 41 41 43 46 43 47 45 49 50 52 45 48 45 40 37 34 40 39 38 40 40 40 41 38 40 40 41 37 35 39 32 37 36 37 36 35 35 36 34 36 36 37 34 34 39 37 37 36 41 40 41 61 109 142 160 169 178 191 203 220 237 251 
28 32 30 32 31 34 31 37 36 40 39 33 39 36 40 41 42 43 42 47 46 50 48 47 49 51 54 52 48 49 48 41 34 35 40 37 42 44 40 42 39 37 40 39 42 42 35 37 40 35 36 36 33 35 39 38 39 35 37 36 35 38 38 36 37 39 41 40 46 57 105 139 160 168 180 190 204 217 238 242 
32 35 33 31 33 35 35 43 37 42 36 32 37 39 42 41 44 45 46 46 50 51 50 45 49 50 55 54 50 47 50 42 35 34 40 39 42 42 39 41 45 39 40 39 39 38 35 41 39 37 42 38 37 38 42 45 41 37 37 37 35 36 39 36 41 40 40 41 42 54 103 138 159 166 177 186 201 212 231 240 
32 35 32 35 35 35 39 42 35 43 43 33 44 39 43 44 45 46 49 50 53 52 53 54 52 56 59 55 52 50 52 42 38 39 41 43 43 44 41 46 42 42 41 41 42 38 40 40 41 39 41 37 40 40 49 51 46 45 40 35 38 39 39 38 38 39 38 44 43 55 101 133 158 166 172 179 184 187 217 241 
38 40 33 35 37 40 45 42 42 47 41 41 45 43 47 49 49 51 53 53 54 56 57 57 56 60 58 60 53 53 53 51 44 43 42 46 45 46 45 47 44 43 44 44 44 42 39 39 41 41 41 41 40 47 55 71 81 62 50 44 38 42 42 40 42 40 40 48 44 52 98 130 156 164 170 176 173 167 216 244 
41 45 41 40 39 37 47 44 43 49 43 39 44 45 48 55 51 55 56 55 61 63 64 60 61 65 67 66 59 61 60 50 42 43 46 49 47 50 47 47 48 46 46 45 44 44 43 44 43 46 41 44 46 49 82 199 173 106 66 47 44 42 41 42 42 42 48 45 48 54 93 132 160 167 172 182 181 197 230 241 
47 41 43 47 43 45 51 49 46 51 51 42 46 48 47 52 57 58 58 58 64 67 71 67 69 68 71 66 61 63 58 52 44 46 50 52 52 48 48 45 42 44 49 43 45 47 44 46 44 45 45 46 46 51 100 247 186 108 61 50 44 44 43 37 39 44 45 46 49 54 90 130 150 165 174 180 196 210 228 233 
52 50 49 48 46 48 54 55 51 57 53 44 50 52 54 59 60 59 62 66 68 70 73 71 73 74 74 71 70 63 60 55 49 47 51 54 52 50 44 46 46 49 50 47 50 48 47 47 44 46 45 45 46 52 69 99 95 72 56 48 41 40 42 42 41 43 45 44 46 53 87 127 157 171 174 182 194 210 226 234 
55 57 55 56 52 54 57 59 52 59 56 48 54 57 57 60 62 65 67 68 71 75 80 81 83 79 84 78 69 66 62 57 51 49 50 53 52 45 43 49 47 49 49 47 48 51 45 52 47 45 47 49 49 50 52 56 62 56 51 48 45 43 43 39 41 42 43 47 46 53 83 129 156 165 175 182 197 212 223 232 
73 73 66 56 54 54 62 60 56 60 56 52 59 57 58 63 63 67 70 75 77 77 82 82 86 87 87 83 68 68 64 58 52 51 50 53 55 54 62 79 50 52 51 51 48 53 50 49 46 48 50 48 46 51 47 51 54 50 50 44 48 43 41 39 42 44 42 45 44 49 76 132 154 167 176 182 196 207 225 228 


