P2
80 60
181
42 40 46 46 39 6 27 25 31 31 31 28 31 40 74 85 66 35 33 37 40 39 43 42 46 43 44 45 40 43 44 45 49 47 54 57 50 56 52 52 54 49 49 52 50 53 51 50 45 49 48 50 48 50 45 50 48 46 49 51 47 48 52 53 50 50 50 52 50 56 50 54 50 48 48 49 53 51 35 35 
31 37 47 41 44 4 22 33 29 28 29 30 35 45 69 84 68 38 36 40 42 45 42 43 40 40 45 41 42 41 43 43 47 48 51 51 52 53 51 50 49 47 49 52 48 48 54 49 47 51 52 51 49 53 51 46 49 46 49 48 51 50 53 50 52 52 50 50 53 55 52 49 55 51 48 48 49 51 39 34 
25 35 46 40 39 11 27 31 25 33 30 29 36 46 68 82 67 43 36 41 45 40 39 40 39 41 45 41 40 40 40 43 43 45 53 51 52 53 50 52 50 48 48 50 48 49 54 49 50 48 50 49 47 52 49 46 48 43 47 50 50 49 51 50 46 47 49 51 50 55 50 52 48 43 46 48 47 49 42 37 
24 32 44 47 35 6 19 29 26 34 31 31 29 40 70 82 64 34 34 33 35 40 42 42 40 40 42 43 40 38 38 40 44 46 49 50 48 53 50 48 47 43 46 46 48 48 51 48 45 46 49 49 48 47 43 45 47 44 43 47 52 50 47 51 48 47 48 46 49 51 45 49 45 40 40 50 48 51 38 37 
28 32 45 49 36 9 22 32 27 37 30 30 32 44 75 83 67 38 36 37 37 38 38 40 38 36 42 40 40 38 39 43 43 44 48 47 49 46 49 49 45 45 46 45 50 47 46 47 46 50 48 53 45 46 49 46 48 45 45 48 50 48 49 49 44 52 53 49 48 51 46 48 53 48 47 49 47 51 40 41 
28 27 44 54 31 8 19 27 33 31 28 33 36 42 71 81 65 41 42 37 41 36 43 37 39 42 40 42 39 43 40 40 46 47 48 46 47 51 48 50 48 46 49 45 46 47 51 50 46 47 46 47 50 49 48 46 47 47 48 49 47 50 49 49 48 51 52 49 48 51 46 52 50 48 47 47 49 50 37 36 
28 33 46 64 37 18 22 26 34 36 29 34 37 41 71 86 69 40 38 33 38 39 42 38 39 36 39 36 40 42 43 43 41 44 50 49 46 50 47 50 48 49 46 49 47 48 49 45 46 44 45 47 53 50 46 45 47 49 45 47 46 50 49 50 49 52 47 48 48 52 47 47 48 42 45 47 42 49 33 37 
24 39 49 62 39 13 14 29 42 45 32 34 32 43 69 78 65 44 40 39 38 39 42 35 38 36 39 38 35 40 41 41 41 44 45 45 45 46 46 46 46 48 45 48 44 48 45 46 44 42 45 48 46 46 47 48 47 45 47 51 46 47 46 46 46 51 48 46 52 53 49 47 48 47 45 41 42 48 39 37 
30 45 56 70 40 10 15 29 43 56 35 30 35 46 72 82 70 43 43 39 42 40 41 37 40 38 38 39 37 39 41 40 42 43 47 44 43 48 49 47 45 46 47 45 46 46 45 48 46 45 45 45 45 47 45 46 48 46 44 47 47 45 50 46 47 49 52 49 51 54 49 50 50 48 42 48 40 47 36 37 
37 58 67 70 46 7 13 40 47 67 37 31 37 45 67 79 76 48 40 36 38 39 40 38 41 39 40 39 36 40 42 40 44 46 44 44 46 46 48 47 47 43 45 47 47 47 44 47 42 45 45 48 41 43 44 43 45 46 43 49 49 49 50 47 46 49 48 51 54 54 48 47 50 45 44 43 43 49 37 38 
44 68 77 77 46 9 16 37 59 61 45 32 40 42 66 80 84 52 41 36 38 42 42 41 38 39 39 38 37 37 38 42 41 43 45 46 46 44 44 44 46 43 45 44 45 45 44 47 43 47 46 45 45 47 48 46 45 44 44 46 50 49 49 49 45 50 50 51 51 52 48 51 49 45 46 43 41 48 37 39 
56 83 85 75 49 15 16 39 61 60 28 26 37 44 61 84 91 50 44 36 38 38 39 37 36 34 37 36 36 35 38 38 39 42 43 39 42 46 44 42 44 43 42 43 45 47 45 49 45 46 45 48 46 47 46 45 45 44 45 45 48 47 51 47 48 52 48 50 50 51 47 49 48 42 42 41 42 46 32 37 
67 89 96 70 51 16 17 41 57 59 35 30 36 44 57 82 95 66 38 33 39 38 40 35 36 35 35 35 33 35 35 37 40 40 43 41 41 45 43 43 42 43 42 44 43 45 41 43 43 45 44 41 44 43 43 45 40 42 44 46 48 49 48 47 48 48 46 48 49 49 48 48 50 44 42 42 43 44 31 37 
79 91 93 76 54 22 13 46 50 47 25 28 32 37 56 75 99 62 38 30 32 36 39 37 37 33 34 36 34 33 30 35 37 37 43 40 41 47 44 41 41 41 39 40 42 43 43 45 43 43 43 44 43 45 44 41 41 45 43 44 46 49 48 47 49 50 50 47 46 48 46 46 47 37 41 38 39 42 32 28 
80 99 87 75 51 29 14 45 39 35 30 28 32 36 55 70 98 60 35 33 38 39 37 34 35 34 33 35 33 36 35 38 37 41 44 39 43 42 41 39 42 40 41 40 42 41 41 41 44 43 41 43 38 42 40 43 44 44 43 46 49 47 44 49 47 50 46 47 50 50 46 44 47 39 36 37 39 43 29 36 
91 91 81 73 52 26 22 50 48 41 32 29 31 37 52 68 94 54 33 36 34 37 35 36 35 33 33 33 31 32 33 36 35 40 43 41 40 45 43 43 39 39 39 43 40 41 49 44 42 45 43 41 42 44 42 41 43 44 45 44 49 48 45 47 47 49 51 56 54 53 51 48 50 43 39 36 43 42 31 34 
90 87 72 58 51 20 28 54 57 36 34 32 28 38 52 64 80 52 36 40 34 36 38 38 35 34 33 33 36 34 35 35 37 42 42 39 40 46 42 41 43 39 40 43 41 43 43 45 42 46 47 43 41 43 45 44 45 44 47 47 46 46 46 45 49 52 58 66 61 62 61 56 47 48 45 41 46 47 34 39 
85 71 64 51 51 19 25 57 53 35 30 33 24 37 49 58 70 48 30 34 31 35 35 37 34 33 32 32 31 32 32 35 40 40 38 39 40 44 40 41 39 38 42 42 41 40 43 45 41 43 41 41 40 43 43 44 45 42 43 45 48 49 46 45 46 50 64 73 74 72 68 60 53 46 42 43 42 47 36 36 
81 65 52 45 49 19 23 62 52 37 32 34 21 38 50 60 61 37 30 31 35 35 37 35 35 32 30 28 29 35 32 34 37 38 37 37 38 40 40 36 39 39 38 40 43 40 42 42 41 44 41 43 42 43 41 46 46 43 48 47 52 47 46 48 46 55 81 89 86 90 82 76 67 57 44 42 40 42 32 37 
66 53 45 41 38 19 14 59 46 40 27 32 28 34 51 60 55 32 31 30 27 36 36 34 30 31 29 28 32 30 37 33 38 36 35 34 36 42 38 38 37 39 39 40 42 39 41 42 36 43 41 44 44 43 42 44 44 44 45 46 52 48 51 48 49 54 86 107 100 97 100 95 89 68 53 50 46 42 33 30 
52 40 41 35 33 23 14 52 51 44 27 28 31 31 52 57 55 32 29 32 31 35 34 31 32 30 28 27 30 30 33 35 35 36 36 34 38 42 39 38 40 39 36 39 40 41 41 38 39 42 40 40 42 41 45 43 47 44 44 46 51 49 49 48 45 54 93 112 111 108 101 100 100 91 77 52 40 46 29 32 
43 40 32 34 32 23 11 52 56 53 27 23 27 31 55 59 51 33 32 28 28 29 34 27 30 30 32 33 35 33 33 34 36 36 38 37 38 39 37 39 35 36 36 38 43 44 41 39 39 41 41 42 43 41 44 42 43 43 42 47 45 46 49 48 45 49 85 108 115 116 103 106 104 105 99 67 47 45 33 32 
28 36 38 32 27 19 9 53 57 50 27 30 31 31 51 55 56 40 27 28 30 32 33 30 31 30 30 30 31 33 36 33 35 38 38 36 38 39 38 36 38 36 35 38 37 39 42 38 39 41 39 40 38 40 40 41 44 45 44 47 48 50 45 45 50 48 68 107 120 114 111 116 116 116 116 89 57 49 32 30 
28 32 33 33 30 18 3 46 55 43 26 29 33 33 42 48 56 31 30 32 32 34 29 29 33 29 31 30 31 32 34 31 35 35 38 39 36 39 38 37 34 32 36 36 36 37 38 38 39 40 37 43 41 40 40 42 44 44 46 47 51 51 51 46 46 46 57 96 121 118 117 123 128 121 104 109 66 52 30 39 
25 29 32 33 30 20 4 41 55 40 38 31 40 38 39 52 59 33 27 30 30 33 34 32 30 28 30 29 31 33 33 33 37 35 36 34 38 41 39 39 34 33 33 38 37 35 39 39 36 37 39 38 39 42 41 42 40 45 44 48 49 45 51 47 44 48 48 83 116 120 121 134 133 120 111 113 93 58 32 34 
22 27 32 31 26 23 3 35 50 52 36 33 35 43 39 41 58 34 26 26 31 31 33 33 32 30 32 33 32 36 38 36 36 36 39 35 42 43 43 36 37 36 35 35 38 38 39 40 40 39 38 41 38 38 45 43 44 45 46 48 48 48 48 48 47 47 46 62 102 117 123 132 128 122 104 110 113 65 35 33 
18 26 24 30 32 26 12 29 54 49 35 31 37 40 36 34 59 37 32 31 32 30 34 33 30 30 33 39 35 38 37 37 38 39 39 37 39 42 39 38 36 38 34 36 38 37 39 39 37 40 36 38 37 39 41 44 41 46 49 48 51 51 46 47 45 50 44 52 76 104 123 132 128 121 99 116 115 77 36 37 
16 23 27 30 30 21 9 23 40 46 33 29 39 45 27 28 53 35 32 28 31 33 33 31 35 35 36 38 33 35 38 37 38 38 41 38 38 41 41 38 37 40 36 37 35 37 38 38 35 36 36 39 36 40 44 40 40 43 45 51 50 49 47 45 46 45 47 40 53 93 114 127 130 122 109 112 115 92 38 35 
19 21 23 28 21 22 13 16 29 39 24 30 37 33 16 23 41 30 30 28 31 36 32 32 33 34 38 34 33 35 36 36 39 38 41 39 40 39 37 40 38 40 38 38 38 36 37 33 33 39 37 39 37 41 37 40 42 43 45 47 47 48 47 45 46 43 46 48 46 66 105 125 126 126 114 118 122 103 42 36 
16 19 20 19 26 21 14 16 27 29 21 23 30 25 12 17 29 28 30 30 33 31 31 33 31 34 35 33 35 36 38 38 39 41 38 37 41 41 39 39 35 39 38 35 36 38 38 33 31 39 36 41 38 40 38 39 40 43 44 45 48 54 50 46 47 44 46 42 43 55 83 107 125 122 119 119 118 108 49 37 
17 19 19 20 25 23 15 20 24 31 21 8 13 13 14 19 28 28 33 28 29 33 31 40 35 37 33 37 35 37 41 40 40 39 39 37 39 40 38 37 39 38 36 37 38 39 38 37 32 36 39 38 40 42 40 40 40 42 46 46 50 49 46 46 46 45 47 43 44 53 61 94 114 123 119 120 124 105 54 39 
13 22 24 29 27 29 11 18 27 35 20 12 6 10 11 16 29 22 34 31 30 34 37 35 35 38 37 38 37 38 40 39 39 39 41 36 41 39 39 38 37 36 37 37 38 38 37 34 35 38 39 40 42 37 40 39 42 42 43 44 49 46 46 44 43 45 44 41 46 47 50 79 110 116 110 112 111 110 72 57 
14 20 23 28 29 29 14 14 33 41 29 15 0 5 8 25 28 26 30 30 35 37 35 38 36 44 36 39 40 36 37 37 45 39 39 38 37 38 35 37 37 34 38 36 37 36 36 35 33 40 37 40 36 42 41 37 41 43 45 49 50 48 46 42 46 45 45 42 42 42 44 64 97 104 102 99 103 111 83 74 
24 27 29 32 35 38 14 22 36 47 42 27 10 13 22 26 28 27 29 31 32 35 37 37 39 42 38 37 40 39 38 41 38 41 39 39 38 40 38 35 37 36 34 39 40 36 36 38 37 38 35 40 37 39 41 43 43 42 42 45 46 44 47 45 45 45 41 42 44 44 41 58 82 94 93 101 107 112 99 96 
29 31 37 48 48 50 20 24 44 57 58 43 21 24 33 33 30 32 33 26 37 35 36 37 38 38 41 41 40 39 40 36 38 40 40 39 40 39 39 38 34 38 35 39 38 40 36 38 36 41 35 38 35 41 41 44 45 41 43 47 46 45 44 45 43 45 45 41 43 40 42 46 66 84 87 98 106 117 107 110 
36 44 58 64 60 59 31 30 59 70 70 65 42 39 34 41 37 30 35 31 35 38 40 40 39 37 41 40 41 41 40 41 41 39 37 36 40 39 41 38 35 37 40 36 41 37 35 38 36 38 37 36 35 40 42 45 46 45 40 48 44 45 43 45 46 41 40 43 44 45 40 47 60 81 101 105 111 124 118 120 
46 46 58 81 71 63 46 34 62 70 74 71 61 50 48 38 33 35 39 36 38 39 36 40 38 37 39 41 39 41 38 45 41 40 38 39 38 40 38 37 37 38 39 37 38 36 38 38 38 39 37 39 38 39 43 44 42 42 43 44 45 46 44 45 40 39 43 41 42 42 41 43 53 85 97 111 111 127 124 131 
60 63 69 89 86 74 49 33 63 73 69 72 65 61 51 43 35 33 37 33 37 40 40 40 39 36 41 38 38 40 39 40 37 42 38 37 37 37 40 37 38 38 35 38 42 38 40 39 35 41 37 37 37 40 40 44 42 43 43 42 43 44 45 41 38 40 43 39 40 41 41 43 53 81 103 110 115 134 128 137 
73 74 79 91 88 74 53 34 55 65 65 64 56 51 45 42 35 34 38 34 40 41 39 43 39 42 43 42 41 40 40 41 41 38 36 39 39 39 39 36 37 41 39 40 42 40 39 41 37 41 39 39 39 39 40 42 43 42 42 44 46 44 40 42 39 35 37 40 39 40 41 41 49 75 102 114 124 141 141 147 
81 72 76 83 76 68 51 34 45 58 50 51 48 39 38 34 37 34 37 35 40 39 37 41 41 43 43 41 40 39 40 38 37 41 39 40 39 38 41 38 39 41 39 38 41 39 41 41 41 39 38 40 38 41 41 44 44 42 43 43 47 43 45 45 40 36 33 36 40 41 39 37 45 65 102 120 134 154 155 157 
81 75 69 72 65 56 47 37 42 46 39 45 38 35 36 34 37 32 41 36 41 44 41 39 41 38 41 38 40 40 42 41 41 39 39 40 42 40 41 40 37 40 42 42 40 42 38 41 40 39 36 41 36 39 37 40 43 45 42 42 44 43 41 43 38 34 31 35 37 36 35 36 39 55 90 123 140 163 164 167 
87 72 61 58 53 42 45 38 36 35 29 32 31 34 34 32 38 35 40 37 39 43 43 38 41 40 38 39 41 43 44 41 41 38 40 39 41 40 41 39 38 39 39 42 38 41 40 40 38 40 38 41 39 40 39 41 42 43 42 43 42 41 44 43 37 35 30 37 32 36 32 36 41 45 80 130 146 173 172 181 
74 68 54 45 42 34 41 37 32 28 33 35 36 40 35 32 34 34 44 43 43 39 38 36 38 41 42 42 43 41 39 42 38 40 42 39 38 38 40 39 38 40 40 40 40 37 42 40 40 43 39 42 37 39 41 40 45 40 41 41 42 41 40 42 30 36 35 37 32 36 34 31 41 41 64 120 152 167 172 176 
71 53 48 41 34 29 36 36 31 26 30 30 32 29 27 32 33 35 39 36 38 42 39 37 37 42 38 42 40 41 41 42 44 39 39 42 39 37 39 38 40 39 37 42 42 41 41 44 41 48 46 41 36 41 40 40 42 37 43 41 43 42 41 39 37 35 34 31 29 32 29 30 35 33 50 105 146 171 162 172 
59 46 37 33 38 34 36 36 29 32 34 28 34 32 36 32 37 35 38 34 37 36 39 39 39 36 39 43 40 43 41 44 40 42 40 42 38 40 36 39 38 39 40 39 40 39 39 42 46 51 55 50 40 45 47 49 43 38 41 43 43 39 39 37 38 38 31 32 31 24 21 29 37 37 46 89 141 159 153 150 
49 41 37 32 32 27 36 36 28 31 33 33 35 33 37 35 34 35 37 34 39 40 43 39 39 40 41 39 41 41 44 47 44 43 41 42 38 41 41 38 39 37 40 39 42 42 41 42 47 59 56 66 54 56 56 53 48 42 38 43 40 40 39 38 33 35 34 26 34 30 28 26 35 32 34 74 123 154 141 143 
35 32 32 31 37 30 34 38 31 34 34 33 35 34 34 33 36 32 38 38 40 43 41 40 41 45 40 43 40 40 42 44 44 43 41 41 39 40 40 39 39 40 41 41 42 40 40 41 50 59 73 73 66 81 75 67 54 47 42 40 42 35 33 39 38 33 33 30 31 31 27 27 28 30 36 63 110 136 133 135 
26 32 35 35 36 28 36 35 37 35 36 35 36 35 34 38 35 32 37 39 40 41 40 40 39 42 40 41 40 42 41 42 39 42 43 41 37 43 39 37 39 39 38 39 44 39 44 40 50 66 76 80 76 87 100 96 64 49 46 42 37 32 39 40 32 26 20 19 29 33 30 29 30 32 39 65 105 140 134 138 
28 31 37 34 33 33 34 32 40 34 37 32 34 36 36 36 37 32 39 38 39 44 41 41 37 41 43 40 39 41 42 43 41 46 41 43 41 45 40 42 39 42 40 41 43 39 42 39 47 63 80 83 89 91 112 120 98 65 51 48 43 38 40 38 35 27 21 28 28 31 31 26 28 32 37 73 111 143 134 139 
27 38 38 37 39 35 38 40 34 31 36 32 36 37 38 37 36 33 40 42 42 43 41 42 41 39 44 41 39 44 44 43 43 41 43 44 42 44 38 40 38 40 39 40 44 42 41 42 44 56 70 80 89 98 116 137 127 87 60 49 45 43 39 40 37 29 29 28 31 32 25 26 33 36 54 92 125 144 140 148 
26 32 34 37 36 34 37 37 38 38 34 36 36 38 35 35 39 33 41 40 47 48 42 44 40 42 42 43 43 42 44 49 43 42 43 42 41 41 41 40 42 37 39 41 40 41 41 43 40 49 67 83 86 97 111 144 147 121 88 66 53 48 45 45 38 38 33 31 34 33 25 23 33 38 63 106 131 153 137 150 
27 34 36 37 41 36 38 40 37 36 34 35 39 37 36 37 39 36 42 43 43 45 42 45 44 44 41 40 41 42 44 44 44 42 44 44 44 42 44 42 40 38 38 41 40 41 43 43 39 43 61 72 86 104 104 133 151 139 109 90 73 63 49 46 41 35 38 31 33 33 25 24 36 37 62 117 142 149 139 149 
29 37 37 39 38 41 44 41 38 36 34 37 38 34 38 37 38 35 40 41 46 42 42 47 42 46 42 41 44 44 44 46 44 42 39 44 44 40 41 40 39 37 39 38 42 41 40 41 41 38 48 58 69 87 99 122 142 136 120 100 83 66 62 57 50 39 33 34 35 33 22 28 34 40 65 119 143 148 139 144 
32 38 40 39 42 42 43 46 42 41 37 33 36 33 39 36 39 36 41 42 41 49 45 44 44 45 45 42 42 45 43 46 46 44 43 37 41 43 43 41 40 43 42 41 41 40 42 39 40 37 44 51 55 73 87 112 137 129 118 110 96 82 66 73 57 42 36 35 33 31 23 30 34 41 64 118 140 150 146 147 
36 38 46 50 46 46 50 44 43 37 40 36 36 36 40 39 43 39 42 47 49 49 44 43 44 42 44 45 46 45 46 46 49 44 42 46 44 44 45 43 43 42 43 43 44 44 42 41 43 45 44 46 43 59 70 96 125 117 118 114 108 92 80 70 69 49 43 39 39 33 26 30 40 45 70 113 141 155 142 146 
35 42 46 53 47 52 49 44 39 38 39 34 39 44 42 38 40 41 38 44 45 51 45 43 44 45 45 44 44 46 45 47 46 47 46 46 45 45 40 44 42 39 42 43 44 45 45 44 42 44 44 41 44 52 64 91 110 112 112 105 110 99 82 71 70 53 43 36 37 28 27 34 39 53 69 116 143 157 145 149 
41 45 53 58 54 50 50 45 45 43 39 35 41 42 40 41 43 40 43 45 48 50 48 45 45 45 47 44 50 47 49 45 47 47 47 44 44 45 43 44 41 42 43 42 46 43 45 48 44 42 42 45 43 55 62 83 104 112 113 113 114 109 84 70 64 49 44 40 34 27 31 34 42 51 71 107 140 162 150 154 
41 52 55 56 57 55 47 48 44 41 41 41 41 39 41 39 40 42 41 45 43 53 50 47 44 42 46 44 46 43 47 50 48 49 45 46 46 45 44 41 40 42 44 43 48 45 47 46 44 45 43 43 43 57 70 95 114 114 123 120 126 123 101 79 62 47 41 39 30 30 32 34 47 51 69 100 146 171 157 156 
46 51 58 57 59 50 47 44 41 46 42 41 44 39 41 44 49 44 42 43 44 48 46 45 43 44 47 46 48 47 47 44 47 44 46 42 46 44 41 42 41 41 45 42 44 45 43 45 44 48 45 50 43 59 78 105 128 129 132 131 134 128 108 83 61 48 40 38 30 30 32 38 43 50 58 93 139 165 160 160 
45 53 56 57 51 49 49 47 47 45 42 41 37 39 41 37 38 43 43 39 43 51 43 43 39 45 41 40 44 45 44 44 44 43 39 40 38 46 47 46 42 37 41 45 45 46 40 45 46 48 47 50 45 67 92 111 131 143 141 142 141 133 114 97 67 45 33 29 36 32 32 38 40 40 56 84 137 163 161 152 


