P2
80 60
252
25 28 31 44 76 107 91 46 60 101 98 59 48 45 40 37 38 31 33 34 32 31 32 26 27 31 29 31 36 39 40 32 33 30 33 33 29 32 30 31 34 29 30 35 32 32 36 31 24 23 23 22 25 22 22 21 26 27 22 27 28 28 30 33 27 23 23 27 32 32 29 24 26 23 26 24 24 20 26 20 
28 27 39 53 85 113 87 47 63 100 96 59 46 45 39 40 38 35 35 33 32 30 30 30 30 36 36 32 32 37 38 37 36 33 32 33 32 31 31 34 35 31 31 36 35 35 35 32 28 28 25 25 28 25 26 26 30 30 29 29 33 32 37 37 34 25 24 29 32 31 28 27 27 31 28 25 24 25 26 23 
27 29 36 49 84 112 79 41 68 100 94 55 42 40 40 37 36 34 33 30 32 30 29 31 31 29 34 31 34 39 38 30 28 30 32 33 30 29 30 33 33 29 29 32 31 36 35 33 29 30 30 32 31 29 32 35 34 33 33 33 36 33 34 31 32 24 25 26 32 33 30 24 24 29 27 23 26 25 24 21 
28 24 36 52 94 106 74 42 70 100 86 50 39 40 39 36 37 35 30 31 31 32 33 32 33 31 34 32 35 36 35 32 29 30 29 30 27 32 31 31 33 32 31 34 30 33 36 36 30 37 33 33 33 32 31 34 34 34 31 35 35 33 30 30 30 24 23 22 31 32 30 27 26 25 23 27 27 23 27 27 
26 33 38 49 99 108 67 46 74 96 86 45 37 38 36 35 34 31 28 28 35 34 34 33 32 35 31 33 36 33 33 32 31 29 30 29 30 30 30 28 31 30 32 35 32 36 34 35 39 38 31 31 37 29 34 32 33 33 31 31 37 31 25 31 30 27 22 24 29 34 31 28 26 27 25 23 21 19 21 20 
25 28 35 57 99 98 70 46 78 99 80 42 33 33 35 32 27 31 27 29 32 33 31 29 30 29 31 29 34 35 36 30 28 29 29 28 28 30 30 25 31 30 28 34 31 33 33 32 30 33 31 32 36 29 29 31 35 30 29 30 32 28 29 28 28 27 20 23 28 33 30 26 27 27 24 25 22 16 20 16 
20 29 38 60 101 100 63 41 83 98 74 40 33 33 33 28 29 28 27 31 32 30 31 31 32 31 30 30 34 36 32 33 29 28 27 29 31 24 29 26 29 30 28 30 30 30 26 30 33 33 34 32 31 30 30 32 31 30 29 28 33 30 32 32 31 28 23 24 28 33 27 26 25 29 29 26 20 11 19 21 
16 26 34 56 99 98 58 43 79 97 71 37 32 30 30 30 27 31 28 29 28 30 25 24 27 29 29 33 31 34 34 29 29 29 30 33 29 28 26 30 31 27 28 32 30 32 26 26 30 31 29 28 32 29 27 30 33 31 32 32 34 34 30 33 30 31 22 21 30 35 30 24 24 23 25 26 22 15 18 23 
15 22 30 50 102 98 52 40 86 95 66 37 28 28 27 29 29 31 30 30 28 25 28 29 29 27 33 30 32 34 32 30 25 29 31 32 33 32 30 27 31 29 28 29 29 32 32 31 28 31 31 25 30 24 29 33 32 35 32 37 34 34 34 33 30 33 22 22 31 30 29 30 29 25 26 27 22 20 19 17 
9 7 0 47 105 96 48 37 92 100 64 33 24 26 28 26 27 29 27 29 27 28 26 29 28 31 26 29 33 31 34 30 27 29 31 30 30 31 30 31 32 30 32 33 33 32 35 31 30 32 30 29 30 30 33 32 36 34 35 36 38 33 35 33 33 35 26 25 30 33 31 31 29 28 31 28 22 22 23 14 
13 4 7 50 106 97 42 33 101 109 54 23 18 18 18 22 23 24 23 25 26 24 26 27 27 29 25 28 28 32 29 27 24 26 28 32 30 31 31 29 29 32 29 33 31 32 29 27 31 30 30 33 33 31 32 36 38 34 36 37 38 30 28 37 32 34 27 23 26 34 32 27 29 30 30 27 22 20 24 19 
17 18 19 62 113 98 39 39 104 108 54 24 18 15 18 18 19 20 21 21 17 21 23 25 25 26 24 25 26 29 31 27 28 29 31 32 28 32 31 31 29 33 30 31 30 30 28 32 33 36 35 36 36 34 34 40 42 36 33 37 38 32 33 32 34 35 29 23 30 34 32 32 31 29 31 27 24 21 25 20 
18 17 20 58 104 95 41 38 100 105 54 17 15 18 16 14 18 16 12 11 9 13 12 12 15 17 18 16 19 22 20 25 22 24 26 28 27 27 32 29 34 27 27 28 27 29 29 32 33 34 34 33 35 33 32 35 36 35 32 33 33 31 31 33 30 32 28 24 25 34 32 30 28 32 32 28 22 15 23 23 
19 20 21 67 104 88 40 47 107 108 51 22 17 18 20 16 19 13 13 14 12 14 11 12 15 13 7 13 16 14 16 11 18 16 23 26 26 28 28 29 31 26 27 30 33 33 33 35 35 38 34 40 34 33 36 35 39 32 35 36 36 34 35 33 35 36 33 25 25 32 33 32 31 34 32 32 26 21 25 27 
13 16 23 77 99 78 37 46 107 97 44 26 23 22 23 22 19 15 15 14 13 15 13 12 11 12 11 16 19 14 15 8 9 9 25 29 28 32 27 25 30 29 31 35 35 34 30 36 37 36 37 38 38 34 36 38 37 35 35 37 36 32 31 33 35 37 34 28 27 31 31 29 30 31 32 32 28 18 26 23 
20 16 26 73 100 74 34 45 102 89 45 22 17 20 20 19 19 14 15 12 13 11 12 13 11 12 12 11 12 15 11 12 14 20 29 30 28 26 25 25 31 30 30 32 31 33 34 36 35 34 35 34 36 34 36 30 37 32 32 36 34 35 31 34 31 38 31 25 26 26 29 32 29 30 30 28 25 21 30 25 
21 20 27 79 96 80 37 49 104 92 37 24 22 20 22 24 21 19 17 16 18 18 17 14 15 13 15 15 15 15 24 24 30 29 32 32 27 27 35 32 32 31 35 36 34 34 37 34 36 35 34 36 36 35 34 39 35 34 32 37 35 33 35 36 38 37 34 31 24 30 35 32 28 30 30 32 29 28 29 24 
18 18 24 84 99 75 32 49 110 88 39 22 22 22 20 25 22 14 17 19 19 20 22 20 15 16 16 17 20 26 29 31 30 29 31 31 31 30 31 31 33 30 31 34 33 37 37 35 36 40 35 38 39 34 40 35 39 36 38 34 38 36 37 31 35 37 35 32 27 26 30 32 31 32 32 30 30 29 31 26 
21 17 28 88 98 73 32 51 106 85 40 21 21 18 25 22 22 19 17 16 19 18 16 20 17 13 14 17 18 25 30 30 26 26 32 30 30 30 28 27 30 31 33 32 32 33 37 33 35 35 36 37 37 35 33 34 36 35 36 35 39 34 35 32 34 37 34 34 25 23 30 30 27 31 30 30 30 30 33 33 
23 19 29 91 102 74 32 52 106 85 39 26 24 25 25 24 24 22 20 17 21 20 20 21 21 17 16 16 19 27 34 30 30 26 30 31 30 30 34 32 30 31 33 34 31 32 34 40 35 37 39 35 37 34 36 36 40 36 37 37 39 38 34 35 36 33 41 35 29 24 31 35 32 32 33 31 32 29 35 29 
22 20 33 97 102 71 35 59 110 84 34 24 23 26 24 26 25 19 20 22 21 22 21 18 23 17 16 19 20 23 30 28 29 26 29 32 29 28 29 31 31 32 32 35 34 33 35 31 39 37 41 37 39 36 36 36 39 36 37 38 40 38 34 36 38 35 39 43 30 24 27 33 33 37 36 32 32 28 32 32 
28 28 46 112 102 71 35 68 107 85 41 25 23 25 24 22 25 24 20 23 23 22 18 19 21 15 20 21 23 21 30 27 29 27 28 32 27 33 33 33 35 32 30 35 34 35 37 32 36 40 40 39 38 35 39 39 37 37 37 37 41 38 37 36 36 39 37 37 38 28 22 32 32 36 35 31 31 29 33 30 
80 76 81 130 110 63 38 72 109 81 34 26 24 26 26 25 23 19 19 20 23 22 21 19 23 21 18 18 20 19 26 27 28 28 28 27 29 30 31 30 31 33 28 34 32 35 35 36 35 37 38 36 36 35 36 34 36 33 36 36 36 36 36 38 34 36 36 41 37 27 20 26 31 34 35 30 30 27 33 26 
110 109 111 113 89 54 36 74 109 77 33 26 24 24 25 23 25 23 21 19 22 22 23 19 20 19 19 19 20 18 28 27 27 25 28 26 28 28 30 31 33 29 28 32 31 33 35 33 35 37 34 35 36 38 36 36 37 33 34 39 35 37 36 39 36 38 37 37 35 33 22 20 25 31 34 33 29 28 33 28 
101 99 97 97 72 43 39 79 110 84 36 26 25 27 26 24 26 22 22 23 22 24 24 23 20 18 19 21 22 26 25 29 28 26 32 33 30 31 31 30 34 36 32 36 35 33 36 36 37 40 37 36 38 35 39 38 37 39 39 37 39 38 40 39 34 39 38 37 38 37 31 24 23 32 29 33 32 29 31 28 
45 46 53 55 38 37 39 83 116 86 37 26 27 30 28 30 25 25 22 25 24 25 23 24 24 23 23 22 25 25 29 30 31 29 35 33 32 34 34 34 34 36 36 37 35 34 35 38 39 39 39 40 41 37 38 37 39 41 37 40 40 39 35 39 39 39 37 40 41 37 34 31 24 23 27 25 27 28 31 33 
33 26 27 29 30 36 39 86 121 82 38 29 25 26 27 27 24 23 25 24 25 24 23 21 25 22 21 18 20 23 27 28 29 31 33 35 35 31 35 34 37 34 36 35 33 34 36 37 40 39 38 36 37 35 37 37 39 39 36 37 42 37 37 38 40 39 37 42 41 39 38 37 31 28 25 24 23 21 34 25 
79 66 55 48 44 53 54 105 123 84 39 30 24 23 27 28 27 26 24 25 24 24 24 24 24 22 25 23 21 21 31 31 33 30 34 36 32 32 36 36 39 33 36 33 33 35 37 35 40 40 37 39 38 36 36 39 38 39 40 41 38 37 39 40 38 41 41 37 39 42 38 37 35 35 37 34 28 22 31 29 
125 116 109 106 101 105 109 119 115 78 36 29 25 27 28 27 28 24 28 24 26 28 24 24 23 23 23 23 24 21 28 29 31 30 34 35 33 32 35 37 36 33 33 37 36 35 37 34 39 40 39 39 38 37 36 36 36 38 36 37 39 35 34 39 36 39 40 41 36 42 36 37 37 36 36 35 33 30 35 32 
108 104 103 105 105 112 108 109 102 64 31 27 27 25 29 28 30 28 27 23 27 30 24 23 22 25 24 25 22 24 30 33 30 30 34 35 36 35 37 37 37 37 33 39 34 35 38 36 37 37 35 39 41 36 36 40 40 39 36 37 38 34 38 40 39 41 43 43 40 40 40 36 35 35 36 32 32 27 36 32 
44 47 51 54 59 67 72 71 63 37 31 30 27 31 29 31 31 27 30 25 26 30 29 26 26 24 24 25 25 26 30 33 31 30 34 35 34 36 36 37 36 36 35 36 39 35 37 38 39 39 37 40 42 36 36 39 39 39 38 40 43 36 38 40 38 40 39 42 40 43 37 37 36 36 36 34 35 30 34 34 
29 25 28 28 27 36 36 32 35 27 30 32 29 31 29 30 31 27 28 25 29 27 30 29 30 24 20 31 26 26 30 33 32 32 35 33 36 30 36 38 39 36 36 34 35 37 37 38 38 41 35 40 40 36 35 39 38 39 38 38 38 39 38 40 39 40 40 40 39 40 40 43 39 35 38 31 34 28 37 32 
25 23 21 22 27 33 29 25 30 27 29 28 35 31 31 30 30 29 28 29 27 29 32 29 30 25 25 29 26 26 29 33 30 32 32 33 36 35 35 34 38 36 36 36 34 35 40 37 37 44 37 39 39 35 36 43 39 38 38 37 42 38 41 44 38 40 39 42 41 42 37 38 39 39 36 34 34 32 33 34 
26 23 23 25 25 31 26 27 28 27 27 31 29 32 33 31 32 29 28 29 32 30 32 28 32 27 25 29 28 27 28 33 32 32 33 33 37 34 36 34 39 37 42 37 35 37 41 38 38 40 41 42 42 37 38 39 41 38 39 39 37 38 40 41 39 42 41 44 43 43 36 37 41 39 36 35 36 33 36 35 
30 24 25 25 26 28 27 29 33 28 30 33 29 31 32 31 33 31 29 31 33 34 33 29 28 27 31 30 27 29 30 33 34 32 38 34 35 34 33 34 36 35 36 37 38 37 38 38 39 40 38 38 40 39 35 38 40 36 41 40 40 42 40 44 41 42 46 39 44 41 40 38 40 37 37 36 33 31 35 34 
31 29 22 25 23 34 30 31 34 29 31 31 31 33 35 32 33 31 33 29 34 34 35 29 34 28 31 30 30 25 30 33 35 33 35 34 36 35 39 35 35 35 33 37 38 37 38 37 41 41 40 41 40 41 40 39 39 38 38 44 39 40 36 41 40 39 40 42 41 45 39 36 39 40 41 36 34 34 38 38 
30 27 26 24 26 29 31 26 32 29 32 31 32 35 32 32 30 32 31 31 31 33 32 34 30 31 35 31 31 30 31 35 36 34 37 36 36 40 36 37 40 33 37 39 39 40 37 38 43 37 39 40 38 40 35 39 41 37 39 38 40 38 38 38 39 38 40 40 41 43 39 33 35 42 40 38 35 32 37 36 
27 30 27 24 26 31 27 28 33 28 32 29 30 34 32 36 34 32 32 33 33 34 30 32 31 31 34 32 30 29 28 34 36 35 35 38 37 34 37 36 37 35 36 37 35 37 38 43 39 38 36 40 40 38 37 37 41 39 37 37 40 37 40 40 40 39 41 40 45 41 39 36 36 36 36 36 37 31 46 43 
29 26 27 32 28 31 32 33 34 29 31 34 32 34 35 34 37 34 32 32 35 35 34 34 35 33 33 34 33 31 32 33 35 36 38 37 35 36 36 37 38 39 36 37 36 37 39 43 39 38 36 41 41 39 38 39 41 40 39 38 38 39 41 41 41 42 40 42 42 44 38 40 38 43 40 38 38 38 50 47 
32 26 27 28 30 34 34 33 34 25 27 31 30 34 35 34 35 36 32 33 34 36 36 38 36 36 34 37 32 31 29 36 36 36 38 37 36 38 39 38 40 34 39 42 37 39 43 36 36 39 38 42 40 40 37 39 42 40 38 39 41 40 42 40 41 43 46 43 42 41 40 38 39 41 38 40 45 48 59 69 
32 25 29 26 30 35 33 31 34 29 29 33 31 36 38 36 35 34 34 35 34 38 38 36 38 35 34 34 38 34 33 34 36 37 36 39 37 39 38 38 39 39 40 41 38 40 41 40 40 39 38 39 42 39 42 39 44 40 39 40 40 40 40 37 38 43 44 44 43 45 42 37 40 39 40 42 55 52 63 111 
30 28 25 27 27 38 34 32 32 31 29 36 35 37 39 38 36 38 36 38 40 39 39 41 43 41 40 36 40 36 33 36 39 38 41 40 39 39 39 38 44 37 39 41 38 41 40 37 40 40 38 41 43 39 37 39 42 41 43 40 44 40 41 43 43 43 42 45 47 47 43 38 40 40 41 45 49 45 72 147 
29 22 23 23 31 35 31 33 37 31 36 35 35 39 38 39 40 40 38 40 36 41 41 39 44 42 39 38 37 39 32 41 39 40 41 41 40 42 41 43 44 40 38 41 39 40 40 38 41 40 40 39 39 36 37 40 39 40 39 43 39 40 39 37 39 43 45 43 47 47 39 40 44 44 46 45 45 42 72 155 
30 25 23 29 29 40 36 39 35 29 35 36 35 39 38 38 40 39 36 39 42 41 42 40 43 42 39 37 36 37 32 36 37 40 43 42 41 40 40 40 43 42 38 38 43 40 42 38 41 40 42 39 40 35 33 35 39 36 37 43 42 40 39 44 40 37 45 42 47 44 43 41 43 45 45 44 55 47 69 148 
30 25 26 29 31 37 34 36 34 29 35 34 35 39 39 43 43 42 41 43 42 46 46 42 44 40 36 34 39 38 31 33 37 37 42 42 38 41 41 39 41 39 40 39 38 37 38 36 37 41 43 42 40 31 32 37 38 37 37 38 41 36 40 42 42 42 44 45 50 47 45 44 49 59 58 77 93 90 89 152 
30 26 27 34 31 39 38 33 38 29 37 35 40 42 44 42 43 41 42 41 47 46 49 45 44 39 41 37 37 35 30 32 38 42 43 42 39 39 42 38 41 38 38 45 37 39 40 41 40 39 41 40 39 35 37 36 39 40 38 40 40 39 39 40 42 44 45 47 48 48 51 65 105 129 150 190 212 187 159 179 
32 31 27 29 32 38 37 31 34 34 37 39 38 41 44 43 45 42 43 45 47 49 48 46 49 44 44 44 45 42 38 32 35 42 44 41 41 43 43 39 41 43 44 42 40 38 41 39 42 42 42 40 41 36 35 39 42 40 41 43 45 41 42 39 43 42 43 47 50 52 65 118 144 176 191 190 184 176 181 193 
31 27 28 31 29 41 36 36 39 35 34 41 38 40 42 44 45 44 43 47 45 45 46 48 50 49 52 50 49 46 40 36 37 41 43 41 40 45 41 38 42 42 44 42 39 39 42 40 38 41 43 42 40 34 34 41 40 41 38 36 42 38 38 45 43 46 47 50 59 78 97 119 132 143 151 156 162 169 192 204 
36 31 29 33 28 40 38 37 39 33 40 41 39 43 45 46 47 43 45 46 47 49 50 48 51 53 55 58 51 49 44 36 35 41 44 45 44 44 43 39 41 41 41 42 40 38 37 37 37 41 39 39 39 36 35 43 43 38 39 41 45 42 40 46 43 44 46 52 72 106 120 128 135 145 154 167 186 197 229 241 
32 27 29 31 30 35 39 34 40 37 37 43 39 41 43 42 44 43 42 46 45 47 47 44 45 54 54 53 50 50 43 36 36 42 43 45 41 44 42 43 45 40 40 44 42 40 41 37 39 40 42 40 41 36 36 40 41 38 40 42 44 40 43 44 41 43 44 46 71 107 137 148 155 164 174 186 202 213 241 245 
35 30 33 36 28 38 36 34 44 36 42 40 39 44 45 47 46 45 48 47 50 49 54 49 51 53 58 52 49 52 47 39 34 41 45 46 45 45 45 43 44 42 41 42 40 41 38 44 43 39 41 41 43 40 39 42 42 36 41 41 46 40 41 43 40 42 48 47 70 112 139 154 161 170 182 190 201 213 239 242 
33 28 34 33 28 39 37 37 41 38 41 40 45 46 45 46 46 44 47 47 52 50 52 53 52 56 57 55 50 54 51 41 36 40 46 46 43 42 43 44 47 46 44 44 42 43 40 38 42 41 39 39 44 42 46 49 43 40 45 46 44 45 41 42 40 41 46 46 63 102 129 150 157 167 174 183 200 211 238 240 
38 36 33 35 32 43 38 37 43 38 43 44 42 48 47 46 51 47 51 47 54 55 55 53 56 58 59 57 54 52 49 42 39 42 48 44 47 44 43 43 47 44 45 44 41 42 41 44 38 43 41 43 43 43 53 58 54 52 47 44 46 43 41 46 45 43 48 53 59 99 128 143 155 167 177 187 195 206 241 241 
37 34 37 37 35 42 40 42 42 40 43 44 46 47 50 51 51 47 48 50 54 58 56 56 58 58 60 59 55 58 52 44 37 44 48 49 47 46 47 44 46 46 44 47 42 46 40 41 42 42 43 43 46 49 58 79 89 65 53 47 47 44 43 49 42 48 46 47 57 96 125 146 151 168 175 178 194 205 236 240 
40 35 41 40 36 45 47 42 47 41 46 41 44 51 54 53 55 50 52 55 62 62 61 59 62 64 63 62 60 63 56 52 45 48 52 50 52 51 50 44 44 45 45 48 43 45 43 44 42 46 49 45 52 55 109 222 163 98 61 49 47 44 47 50 47 48 45 51 55 88 125 141 151 163 170 178 191 206 230 235 
49 38 41 41 40 50 48 46 47 41 42 47 50 55 53 58 58 55 58 60 64 67 67 66 68 69 69 68 65 62 55 52 43 46 59 57 53 52 53 47 52 49 46 47 51 48 46 49 44 48 50 48 53 62 127 252 166 94 61 50 52 45 46 48 47 52 48 53 55 81 117 144 152 159 167 174 192 191 226 236 
54 40 43 43 42 49 48 48 53 49 47 50 51 53 56 59 59 60 57 65 68 69 75 69 70 68 69 70 65 66 59 50 46 50 53 57 53 51 48 51 51 49 50 50 49 46 52 47 49 50 49 48 54 57 73 103 93 66 53 48 49 42 44 50 47 50 51 51 57 80 114 136 150 158 161 166 165 157 218 227 
53 48 50 47 47 57 55 51 56 48 56 53 55 57 63 61 65 63 69 72 73 74 79 73 79 79 80 79 72 64 60 54 44 50 54 57 54 48 45 49 55 53 51 51 51 51 49 49 50 50 49 52 54 50 57 62 61 62 55 47 51 45 47 47 48 51 50 51 55 69 107 133 150 155 162 161 161 172 224 227 
66 58 59 55 60 63 60 58 60 57 60 61 56 62 63 65 66 66 69 77 81 84 84 88 86 84 84 85 76 71 63 57 52 54 58 58 52 53 62 70 58 54 57 59 56 54 56 52 53 52 50 51 52 49 51 56 53 53 50 48 52 50 49 47 45 51 51 50 57 66 105 132 149 158 162 171 176 191 217 225 
98 83 79 70 68 66 68 63 61 60 64 64 61 64 69 67 72 71 76 75 83 86 85 88 87 93 96 88 76 71 64 60 55 56 62 64 61 63 92 130 73 58 61 59 58 54 59 54 51 51 54 50 53 50 54 52 49 50 48 50 53 49 47 48 53 51 51 56 58 64 103 131 144 164 162 166 177 192 220 224 


