P2
80 60
75
22 23 20 25 23 25 19 20 21 23 22 22 20 21 23 23 24 25 21 26 28 24 30 24 22 26 24 29 28 27 24 25 26 27 25 27 28 28 26 29 28 27 25 28 28 26 25 24 26 26 25 26 27 30 28 27 30 30 30 30 33 30 30 33 32 30 34 35 34 35 35 34 35 37 38 34 36 36 37 37 
14 18 16 20 24 25 21 21 23 21 21 22 22 23 22 18 26 23 22 22 24 26 24 25 23 25 26 25 28 27 24 24 23 26 27 26 26 29 26 24 24 24 25 28 27 26 24 24 25 25 27 25 28 29 28 27 27 31 29 28 31 32 33 33 34 31 32 33 33 35 36 35 34 37 43 35 36 36 34 37 
12 13 18 20 21 19 19 21 21 19 18 20 22 22 22 21 20 23 24 20 22 25 24 22 20 21 22 24 24 25 25 24 23 23 25 27 24 23 25 24 24 23 24 25 25 27 22 21 25 24 25 26 26 27 27 27 28 28 30 29 27 30 27 31 28 30 30 32 32 31 32 35 35 33 33 36 34 35 34 31 
14 15 15 13 17 18 19 20 23 21 22 19 20 20 22 22 17 20 20 22 23 24 22 24 21 22 25 21 24 24 24 23 28 24 23 23 23 23 26 25 22 23 25 22 25 22 22 24 21 23 22 27 27 25 26 28 26 27 29 30 27 28 28 26 28 28 27 29 33 30 33 31 31 34 34 35 32 33 34 33 
15 16 13 13 17 19 18 19 19 18 20 19 20 20 21 20 21 20 18 20 24 20 21 21 22 19 22 21 23 22 21 24 24 23 28 22 24 25 23 25 23 26 24 21 25 24 23 25 23 24 23 25 27 25 24 29 25 28 30 30 27 27 28 28 30 29 28 28 32 30 31 35 31 31 31 36 36 31 31 32 
16 16 15 16 17 20 19 21 19 18 20 18 21 18 22 23 21 23 19 19 23 22 21 19 19 21 21 20 22 20 24 23 23 23 26 19 24 21 24 24 22 21 26 21 24 23 20 24 23 23 25 27 27 25 23 26 28 28 28 26 26 27 27 28 31 30 31 31 31 27 31 31 33 33 30 33 33 34 32 32 
17 16 16 16 17 21 21 20 20 19 20 19 17 18 20 18 23 22 18 22 25 21 21 23 19 18 25 21 24 20 24 23 21 22 24 25 23 24 22 24 19 21 24 22 24 22 25 24 24 23 25 24 22 26 25 25 29 32 26 28 25 27 29 25 28 29 29 29 26 26 26 30 31 29 28 33 29 28 32 32 
19 17 18 17 17 17 17 20 18 19 19 21 18 19 20 18 24 21 17 24 22 22 21 21 19 18 23 19 21 20 21 21 22 21 23 22 21 22 22 24 21 23 24 20 23 25 24 23 24 24 25 25 25 24 23 27 29 28 27 26 28 28 29 27 29 25 27 25 31 26 28 30 30 29 32 33 32 29 29 31 
20 20 17 21 20 22 21 16 22 19 23 23 20 24 24 19 22 22 19 23 24 22 21 20 18 20 20 19 20 19 21 22 22 24 23 23 25 26 25 23 23 22 23 22 26 24 24 25 25 25 27 27 24 28 27 25 27 29 26 27 29 30 27 25 26 26 26 28 32 29 28 32 29 31 32 32 30 29 33 30 
16 20 17 17 20 19 20 18 18 17 20 20 20 21 22 20 22 18 17 21 25 22 19 22 20 20 20 21 19 21 21 21 22 23 22 22 23 22 24 23 23 24 24 23 23 24 23 24 24 25 25 25 28 26 26 27 26 28 26 30 25 31 28 23 24 27 25 26 28 27 25 31 29 32 31 30 28 30 31 29 
23 17 18 16 19 20 22 17 19 17 21 19 21 23 22 21 20 17 19 23 25 23 23 22 21 22 22 19 23 25 22 21 20 23 23 18 21 25 25 22 24 24 24 24 23 26 24 24 23 25 26 26 29 28 30 27 23 25 24 29 27 28 26 25 25 27 27 25 30 27 32 29 30 30 32 30 35 27 28 30 
20 19 20 19 18 20 20 18 19 18 20 20 20 20 22 19 24 19 18 22 21 21 22 21 20 22 20 21 22 22 21 23 21 24 26 18 22 24 25 24 24 25 24 22 23 25 21 26 25 27 26 27 27 29 28 29 30 26 25 26 27 26 25 26 26 26 27 26 32 27 28 28 27 30 28 32 31 30 31 28 
15 19 17 17 16 19 18 17 20 18 18 17 17 20 21 21 18 17 18 20 22 20 20 20 23 20 20 18 22 22 23 23 23 22 23 20 21 19 21 23 20 23 25 23 20 23 20 22 23 25 26 28 29 28 27 27 30 27 25 25 24 28 24 26 27 25 28 27 30 28 27 28 30 33 30 29 32 29 32 31 
16 15 17 16 16 17 18 16 15 16 17 19 19 17 19 18 22 18 16 18 21 19 18 17 21 18 21 19 20 18 22 22 20 21 23 22 20 20 18 18 20 21 19 21 19 21 21 21 22 23 23 26 30 28 27 29 29 26 25 25 23 26 23 24 25 24 26 25 29 25 27 30 29 30 32 32 30 31 33 32 
15 16 14 14 14 16 13 16 14 15 15 12 17 20 19 17 19 17 15 16 20 17 18 20 16 20 16 16 19 18 20 19 19 22 19 19 18 18 19 22 20 18 19 18 22 21 20 20 21 22 22 27 27 27 24 26 26 26 25 25 24 22 25 20 23 23 25 23 28 27 24 28 27 29 30 32 30 30 31 28 
17 13 13 16 16 13 14 17 16 14 17 15 17 18 20 21 21 20 18 16 19 18 17 19 19 20 16 18 19 19 18 16 21 20 20 18 20 20 16 21 17 18 17 19 19 22 19 21 20 20 21 24 25 26 24 24 26 24 23 24 21 23 21 20 21 22 24 22 24 23 22 27 28 29 28 28 27 28 29 29 
17 14 16 17 14 20 18 16 19 16 15 15 19 19 23 20 23 20 18 20 20 21 20 17 22 20 18 18 17 19 19 16 17 19 19 19 21 16 19 20 16 18 19 20 19 20 19 19 18 18 19 23 23 26 26 24 24 25 21 23 22 22 23 20 22 24 26 23 27 24 23 25 28 30 27 27 27 28 31 32 
19 15 12 17 14 23 13 15 14 14 19 18 16 18 22 19 20 17 18 21 20 18 19 18 18 18 19 17 21 16 15 16 16 20 21 17 19 18 20 19 17 17 18 18 19 18 17 19 20 19 21 23 24 27 24 23 22 22 24 25 21 22 21 20 20 22 21 23 21 21 23 22 27 27 30 32 31 28 28 29 
16 13 14 16 15 18 17 17 19 20 22 19 19 19 20 20 19 19 18 18 21 21 20 20 18 19 21 17 18 18 17 17 16 17 19 16 17 17 17 16 17 15 15 20 19 18 17 21 18 18 17 19 24 24 22 23 19 20 21 20 24 23 22 21 19 18 21 22 25 22 25 25 27 23 27 29 27 27 28 25 
17 18 14 16 14 17 18 17 18 18 20 21 17 19 20 19 23 21 19 18 19 23 22 21 19 20 20 21 20 18 16 19 18 18 20 16 18 17 20 19 15 16 15 15 15 18 19 19 19 19 21 17 22 21 21 21 21 19 19 21 21 22 19 21 21 19 22 22 24 23 25 24 26 24 24 26 28 26 29 23 
17 18 19 14 18 19 18 19 22 23 21 21 19 17 21 22 20 17 17 21 19 20 22 18 20 21 21 19 21 22 18 19 17 19 21 19 19 16 19 16 20 18 16 18 18 17 17 17 17 19 18 18 20 20 20 21 21 22 19 18 21 22 21 19 22 22 21 22 22 24 24 25 26 27 26 28 29 23 24 26 
16 18 20 18 14 17 20 18 24 22 23 26 19 20 22 20 23 20 19 23 21 21 22 20 20 18 19 18 21 23 20 21 19 18 19 18 19 21 20 20 16 18 19 18 18 19 18 21 19 19 18 18 18 20 21 22 22 21 23 20 24 22 23 20 21 17 23 21 21 23 25 25 26 25 27 27 28 26 24 27 
15 16 14 17 18 21 18 19 27 24 28 23 22 22 19 20 21 18 16 21 18 23 22 19 19 19 19 19 18 21 20 19 18 19 21 19 20 17 18 17 19 20 16 19 17 18 17 19 19 19 19 20 20 22 22 21 19 19 19 25 23 22 22 18 20 24 22 21 26 22 30 27 29 26 24 26 32 28 27 25 
16 13 15 15 18 21 20 22 23 22 24 23 22 18 22 17 19 21 18 21 18 21 20 19 18 18 18 18 18 20 20 19 21 21 22 19 20 18 19 18 18 22 20 20 18 17 18 20 22 20 18 20 17 21 21 21 19 20 20 22 22 25 25 24 23 24 24 26 25 25 25 25 26 27 26 29 29 28 26 27 
15 17 14 17 20 18 21 25 22 19 25 23 21 22 21 21 19 19 17 18 18 21 21 22 21 19 17 19 19 21 18 21 22 20 24 22 20 19 21 18 18 18 19 19 16 19 14 16 17 20 19 19 17 20 20 20 21 21 21 22 24 21 24 23 23 24 22 24 27 23 26 25 27 26 25 26 27 25 25 28 
15 13 14 16 18 25 26 25 22 21 23 24 21 19 21 17 16 17 14 19 20 20 21 19 21 18 21 19 17 20 20 20 19 21 20 21 22 18 18 18 21 19 18 19 17 17 15 18 15 20 17 18 18 21 19 22 22 19 19 23 24 20 23 25 23 23 20 24 23 20 25 25 25 23 27 25 27 24 21 26 
13 10 12 20 28 33 33 24 22 21 23 20 20 22 20 18 19 17 18 16 17 16 20 19 18 18 19 17 16 22 18 21 22 16 22 20 19 20 19 19 20 15 17 17 19 18 15 16 18 20 19 15 17 22 20 20 22 23 17 18 20 24 21 22 20 21 21 23 25 23 24 23 22 26 27 25 26 21 22 24 
16 19 24 27 26 30 29 26 22 20 20 16 22 18 21 19 18 16 14 19 18 18 18 19 14 18 18 19 20 18 19 19 23 20 19 18 17 21 20 17 18 17 19 19 20 19 16 18 16 20 19 16 18 17 21 17 23 19 19 21 21 20 20 22 22 22 25 21 22 23 22 24 23 25 27 26 26 23 23 21 
17 28 32 34 30 25 25 22 20 19 20 25 19 20 19 20 21 17 20 21 17 16 19 17 16 19 19 19 20 22 19 20 24 19 21 21 21 21 19 17 19 21 18 18 20 21 19 20 20 17 16 19 19 19 22 18 20 22 20 22 18 21 21 22 21 20 21 22 23 24 23 20 24 24 24 24 29 22 24 21 
30 32 34 42 41 29 25 23 21 22 22 22 18 19 19 20 21 20 17 21 21 19 18 20 18 19 19 21 22 23 21 21 22 23 21 22 19 19 19 16 20 19 20 18 21 22 16 21 17 20 18 19 20 17 18 18 20 17 18 20 19 21 22 22 19 22 19 25 21 20 21 23 26 25 23 25 27 25 21 24 
40 37 34 38 38 32 24 23 24 22 21 23 20 22 21 20 19 20 20 25 24 22 19 20 20 19 21 20 24 21 24 21 24 19 21 21 22 20 21 21 20 21 22 21 22 21 17 19 19 20 18 20 18 21 21 20 21 21 18 22 21 24 22 21 22 18 21 21 23 23 23 25 26 26 27 26 24 24 22 25 
39 37 40 32 33 31 27 24 23 22 24 23 23 21 24 21 22 22 22 27 23 22 23 23 22 20 20 23 28 24 22 25 26 22 23 21 25 22 21 22 23 21 20 21 21 19 22 21 21 23 20 22 22 16 23 22 20 18 20 24 24 22 25 23 21 21 23 19 22 22 25 26 25 25 23 25 27 24 23 17 
44 40 35 31 33 29 30 22 24 26 28 26 23 24 22 25 23 26 25 25 25 22 22 22 24 22 23 24 25 28 25 28 29 25 26 24 23 21 23 22 20 21 21 21 21 22 20 22 21 25 22 21 21 21 22 23 23 21 22 23 22 25 25 25 23 22 23 23 21 23 24 26 24 26 25 23 26 21 26 25 
45 44 40 32 24 28 24 24 24 24 22 23 24 25 24 26 24 24 21 28 24 23 22 23 25 25 27 24 30 29 27 28 28 23 27 24 27 26 24 24 22 19 24 22 23 24 23 23 24 25 22 24 23 22 21 22 23 21 23 26 22 21 25 24 24 22 25 23 24 27 23 24 25 25 22 26 23 26 23 23 
35 39 35 33 25 28 26 27 24 23 22 24 24 24 25 23 27 26 23 26 26 21 23 23 25 27 26 26 32 29 27 27 26 28 27 26 26 24 27 23 25 24 22 20 24 24 25 24 26 25 23 24 23 27 23 24 23 24 23 24 25 26 24 26 23 26 23 27 24 24 27 27 26 26 25 27 29 25 24 26 
32 31 32 31 26 28 26 28 23 24 23 23 23 25 23 22 25 23 23 24 23 22 23 24 24 28 28 26 32 28 27 27 27 30 26 25 24 27 24 27 25 24 22 21 26 24 26 24 24 24 25 25 27 23 27 22 25 23 26 27 27 26 26 22 23 27 25 22 25 25 23 23 25 25 25 25 27 23 24 23 
35 30 30 23 24 24 26 25 24 23 22 23 26 23 25 23 25 23 23 23 23 21 22 25 26 29 28 26 29 28 29 26 28 29 25 26 27 30 23 27 25 26 22 22 24 24 23 24 23 27 25 24 26 27 25 24 27 24 25 28 27 27 26 23 24 23 25 25 26 27 25 29 23 27 25 24 28 27 23 26 
35 33 27 22 23 28 21 23 22 25 22 22 21 23 24 24 22 24 17 22 22 23 24 27 30 29 27 28 29 28 27 28 28 32 27 28 27 27 26 26 24 28 26 26 23 23 24 26 25 24 25 24 27 29 23 26 24 25 24 29 27 26 28 25 23 24 25 27 27 27 28 26 26 28 26 25 27 22 23 27 
36 30 26 27 25 22 26 24 23 24 25 23 27 24 24 22 24 23 20 24 17 25 22 27 25 29 27 26 30 27 28 28 30 29 25 26 28 29 26 26 24 27 27 23 24 27 26 24 23 25 25 23 26 28 26 24 22 23 23 25 26 26 24 26 25 24 26 25 26 26 25 28 28 29 24 27 27 25 25 27 
38 26 24 27 25 28 22 28 24 24 23 25 25 24 25 22 25 20 23 22 22 25 28 25 26 28 30 29 30 27 29 28 29 27 26 25 29 25 29 27 28 28 26 25 27 28 24 28 26 26 26 25 28 29 29 29 27 25 27 25 26 27 27 26 26 29 26 25 25 27 26 29 27 30 26 26 29 23 29 26 
33 28 24 26 26 28 24 27 22 21 22 26 24 27 24 23 22 23 20 26 23 28 30 30 31 28 30 29 30 26 28 24 29 30 29 28 29 30 28 26 25 28 28 26 26 26 25 26 25 26 24 26 27 28 31 28 24 23 22 22 25 28 27 25 27 26 27 23 26 25 24 29 28 31 29 30 27 28 25 27 
28 26 20 24 27 27 25 24 25 26 26 24 27 23 27 24 25 24 21 26 27 30 30 32 30 29 30 31 34 30 27 27 28 31 28 27 31 26 26 27 24 29 26 28 27 29 27 26 24 28 24 26 25 28 26 27 27 23 23 27 28 27 27 30 27 30 30 24 26 25 28 29 29 27 29 29 31 25 27 23 
28 25 23 25 23 24 28 24 24 26 26 25 28 24 25 21 22 22 26 29 32 32 33 31 29 32 29 29 34 32 33 30 30 29 30 24 29 31 26 27 30 29 26 26 26 30 26 25 27 27 25 26 25 23 28 28 25 25 26 25 28 27 28 30 29 30 23 27 26 26 29 28 30 27 28 27 29 30 27 27 
27 25 20 21 27 32 25 27 29 24 29 29 26 24 24 22 23 24 24 32 33 32 33 35 31 29 33 30 35 33 31 31 32 31 28 26 26 28 29 30 30 29 28 28 28 28 26 28 26 29 28 27 26 25 27 26 25 28 26 23 23 29 27 30 29 32 26 26 29 27 30 29 27 27 26 28 26 28 26 27 
26 25 23 24 25 28 29 28 29 29 33 30 27 24 23 26 27 26 34 33 37 33 35 37 35 33 34 32 34 33 32 31 34 32 29 29 27 27 29 29 30 28 28 26 31 29 27 29 32 31 28 28 25 26 28 29 28 29 23 25 25 25 29 29 30 28 29 27 27 27 27 30 30 29 28 26 25 25 26 31 
24 23 24 27 28 29 30 29 33 33 32 28 27 27 28 26 28 30 36 35 35 37 34 35 34 36 34 32 37 37 35 32 34 35 33 34 32 28 31 31 30 31 32 32 30 28 29 31 32 32 31 31 30 29 25 26 25 23 27 26 25 26 25 31 34 31 28 28 29 28 32 33 28 33 30 27 28 27 27 31 
24 29 25 25 29 32 29 33 32 31 32 31 29 29 27 29 33 34 34 38 38 37 37 41 34 34 35 34 37 37 36 35 37 35 34 32 36 33 31 33 32 34 29 30 33 33 33 35 34 35 35 31 33 30 28 28 25 26 25 27 26 25 29 28 28 30 31 30 29 29 31 32 33 30 31 31 28 26 29 28 
18 20 22 23 27 30 30 34 32 30 27 32 31 29 30 31 37 34 35 39 39 37 41 39 34 39 38 36 38 36 36 37 36 38 37 34 36 32 31 35 35 33 33 33 34 35 33 34 32 37 34 36 33 33 32 27 23 26 31 28 29 28 27 28 30 29 30 30 30 30 30 30 33 30 33 31 32 27 30 30 
11 16 18 20 26 28 34 34 31 29 25 24 27 33 34 37 37 37 34 39 39 37 41 41 39 39 35 37 39 36 35 37 36 39 37 37 37 33 34 37 32 35 35 34 33 35 34 36 37 36 36 33 34 32 31 31 30 29 31 30 30 29 30 29 28 29 27 29 30 32 31 31 31 31 29 37 33 30 31 30 
8 9 12 18 24 31 32 33 30 28 24 28 28 31 36 38 37 38 40 39 39 39 40 42 39 42 36 38 43 38 38 35 40 37 39 38 38 35 35 35 37 35 35 33 36 36 38 40 38 38 36 34 38 35 33 32 31 31 34 35 32 30 31 28 29 29 30 33 32 30 32 34 33 34 34 32 34 30 32 34 
8 8 9 15 18 31 29 29 29 24 28 26 29 29 32 36 38 39 36 40 40 40 40 40 42 39 37 40 42 38 39 38 36 40 40 36 39 38 38 36 35 39 38 37 34 38 38 39 39 37 35 34 38 35 36 33 34 33 36 35 34 35 35 28 31 31 32 31 32 35 32 34 33 36 35 36 34 33 32 32 
9 4 5 11 22 26 26 23 25 22 28 29 29 32 30 36 41 40 39 39 39 40 38 44 41 41 39 37 39 37 37 36 37 39 37 38 42 36 38 37 37 38 37 38 42 42 41 42 42 39 35 33 35 33 33 33 35 35 36 36 36 33 32 33 30 29 31 34 36 37 34 36 36 35 38 34 36 34 31 32 
14 8 7 10 14 23 23 21 25 23 26 28 36 45 41 35 37 40 40 41 41 39 41 42 41 43 41 43 40 36 40 37 39 35 38 38 39 36 36 37 38 35 37 38 41 40 42 43 41 38 35 30 33 34 28 33 34 37 33 36 36 36 35 29 30 29 30 33 36 35 33 35 38 36 35 36 32 35 32 32 
16 17 16 14 16 17 13 18 18 25 26 34 47 51 51 49 44 44 41 46 45 46 45 44 42 42 41 43 42 41 39 38 37 37 35 36 41 39 41 38 35 39 38 38 41 42 41 45 40 37 37 32 28 31 31 33 34 32 35 33 34 36 36 35 32 30 28 34 31 35 34 36 38 38 38 36 34 35 35 31 
24 17 22 23 17 17 10 9 19 17 26 43 54 54 54 50 54 52 46 48 44 47 46 49 46 45 42 42 46 40 40 39 40 41 40 39 39 40 38 42 40 41 39 41 42 39 37 46 43 38 36 35 34 33 30 33 31 33 36 34 33 34 35 34 32 33 30 32 33 36 34 37 36 39 38 39 36 36 33 39 
23 23 28 22 21 20 12 14 14 17 40 54 57 58 54 57 60 57 54 57 52 51 49 49 47 45 46 44 45 46 44 40 43 43 42 42 38 38 37 43 40 43 42 45 43 43 39 41 40 39 38 38 38 36 33 30 30 36 38 39 36 33 34 34 33 30 31 34 34 36 37 39 38 40 41 38 38 37 35 33 
27 26 22 24 23 24 22 21 10 19 54 62 62 61 61 58 61 60 55 58 56 54 59 51 49 45 47 46 50 46 45 45 45 47 43 44 44 42 42 41 42 42 47 44 47 46 39 43 44 43 40 38 39 41 33 34 33 36 38 37 35 36 36 34 35 36 35 34 33 40 38 40 41 40 38 41 42 38 38 35 
30 24 22 23 24 23 26 23 25 50 65 64 65 61 62 61 63 61 61 60 63 62 61 60 54 51 52 50 50 53 47 45 49 46 42 42 48 41 43 44 47 47 48 50 48 47 45 45 44 42 40 40 42 37 36 37 38 40 39 39 34 37 37 37 35 37 37 35 35 38 40 40 41 39 42 40 42 37 36 38 
35 26 19 15 17 23 24 23 41 63 71 73 65 68 67 68 66 65 63 64 65 63 64 61 59 58 54 52 53 54 50 51 50 49 47 42 45 40 44 45 46 49 52 53 51 47 44 41 42 42 41 46 40 41 37 39 38 40 44 40 37 39 35 37 38 38 39 40 35 39 39 39 41 39 45 40 42 37 34 40 
35 30 16 0 7 19 26 33 61 69 71 74 71 75 66 70 69 67 66 68 66 62 63 63 61 62 58 56 53 54 54 49 50 47 48 46 43 44 45 48 47 48 53 50 49 46 43 41 40 39 42 39 43 42 40 41 38 39 40 40 33 40 39 36 40 39 37 36 36 37 40 42 42 38 38 41 42 36 38 40 


