P2
80 60
258
19 18 18 23 37 46 80 95 71 49 59 90 82 49 41 37 34 31 30 27 30 28 25 23 23 24 24 29 30 31 35 31 32 29 27 28 28 24 26 26 26 28 26 26 24 25 27 26 23 22 14 17 16 18 15 19 15 17 17 16 16 17 20 18 20 16 17 20 23 23 17 22 19 18 16 16 17 16 16 15 
20 23 21 19 31 47 87 100 66 43 64 92 77 43 38 38 33 32 31 29 30 28 25 25 23 23 26 28 32 29 35 32 29 30 28 25 26 25 26 27 23 25 25 27 26 27 28 28 27 21 17 16 12 15 16 18 19 17 15 18 15 19 17 20 22 19 18 22 23 20 19 20 21 15 17 15 16 15 12 13 
19 25 22 23 38 48 90 97 61 47 69 93 71 44 37 36 32 26 29 28 29 26 25 27 26 25 30 30 33 31 34 33 27 28 27 26 30 28 27 27 24 28 27 27 26 28 29 25 27 24 19 20 20 20 18 20 22 20 20 23 23 24 25 24 24 17 19 18 21 22 20 22 16 18 19 20 20 15 10 11 
18 16 21 25 37 49 89 97 52 44 73 91 68 37 35 29 28 31 27 29 29 25 24 26 25 30 33 28 34 33 33 32 27 27 28 24 28 26 26 27 24 27 26 26 26 27 28 28 28 24 20 24 27 27 24 25 25 24 28 29 26 27 27 27 27 20 18 20 23 18 21 20 17 17 20 17 20 11 8 14 
24 23 19 27 36 61 104 98 54 45 76 91 58 35 31 31 30 24 29 26 25 24 28 26 29 33 28 29 32 31 34 28 27 30 30 27 26 24 25 22 24 29 27 26 27 26 27 28 28 27 29 25 26 30 32 30 27 28 26 28 26 26 29 30 22 20 20 20 24 25 21 21 20 21 17 18 18 10 11 13 
21 20 25 32 38 68 100 88 50 50 85 88 60 36 30 32 31 26 28 25 29 31 32 29 30 30 32 31 32 35 33 32 29 33 32 31 31 26 25 25 23 24 25 30 30 28 27 29 28 32 28 29 31 31 31 31 28 26 28 29 27 27 26 30 25 20 19 19 23 22 21 22 21 21 20 19 19 10 11 10 
23 26 24 29 36 68 99 86 45 50 87 86 51 31 35 32 29 28 32 31 26 28 25 26 28 30 27 27 33 34 35 32 29 29 26 30 27 29 26 22 25 24 24 28 27 26 29 32 29 30 30 28 25 29 27 28 25 25 25 29 24 26 26 25 25 22 22 19 23 24 21 23 19 21 23 21 20 10 9 12 
16 15 18 26 36 66 98 79 43 50 88 86 44 30 25 28 29 25 26 28 29 26 26 22 26 24 23 27 29 31 29 27 26 23 25 26 23 25 25 25 26 26 27 26 30 24 25 26 24 25 29 26 26 30 25 24 27 26 27 23 25 26 27 27 27 22 18 18 20 22 21 21 22 20 21 17 13 9 10 11 
7 7 11 26 26 65 101 76 38 49 91 78 41 26 26 27 24 26 26 27 27 26 24 25 23 26 25 26 31 29 32 29 26 26 25 25 24 24 27 23 25 25 25 26 27 28 26 28 25 29 25 28 23 27 24 27 25 24 24 27 24 27 29 27 28 30 19 20 22 20 20 23 21 22 22 20 11 12 8 10 
8 7 2 0 10 73 98 73 30 50 99 81 39 24 26 24 22 22 24 27 27 25 25 26 26 26 27 29 28 31 33 27 25 28 26 21 27 28 27 26 27 27 28 28 30 30 29 30 28 25 25 31 24 28 28 25 26 28 29 30 29 28 29 26 27 24 21 20 23 24 26 24 21 25 22 24 17 15 6 16 
13 14 12 1 12 80 98 66 23 52 105 85 24 15 13 15 18 19 24 22 21 21 22 21 23 26 23 26 24 26 32 31 25 30 23 24 26 27 27 29 28 23 26 25 26 27 29 26 22 26 24 24 23 25 23 27 29 28 30 30 28 30 28 29 26 23 22 17 22 24 24 22 25 23 20 19 16 16 10 13 
14 16 13 14 21 89 99 62 23 61 105 77 18 11 9 13 11 11 16 18 18 20 20 20 19 24 24 24 26 28 29 27 24 28 24 26 25 26 24 27 26 28 25 27 29 27 28 29 26 23 24 26 26 27 30 29 29 30 30 33 27 32 26 27 28 27 26 20 21 24 23 23 19 23 22 19 18 13 16 17 
14 16 16 12 17 84 93 60 22 63 109 71 17 10 9 8 10 6 12 13 7 12 9 12 15 16 18 20 21 24 25 19 22 25 23 23 22 23 23 27 25 26 24 24 25 26 27 22 23 27 23 28 25 31 27 28 30 27 28 27 28 29 27 26 24 23 25 18 19 22 22 26 21 21 19 21 19 11 13 13 
17 16 15 17 22 91 86 50 31 70 106 66 19 11 13 11 11 12 13 12 9 9 8 12 8 8 11 13 12 10 12 12 16 23 21 22 21 24 27 25 24 25 25 24 25 23 27 29 26 31 26 30 28 32 30 31 28 26 26 29 29 27 27 26 24 27 25 20 18 23 24 27 27 24 24 23 17 14 12 15 
15 15 14 15 34 90 83 48 28 80 104 59 18 14 13 13 15 11 12 14 6 8 10 10 7 10 11 10 11 10 11 10 6 7 5 12 18 26 23 23 27 23 26 24 28 26 29 27 30 28 30 31 29 31 30 32 30 29 29 31 30 30 25 27 27 25 27 22 18 20 23 26 25 24 22 23 20 14 9 10 
14 15 13 17 36 95 81 43 26 83 104 58 20 13 13 15 16 12 14 13 11 8 9 10 9 9 12 7 9 14 11 10 8 5 8 18 19 23 22 24 24 24 24 27 28 27 28 27 29 30 31 28 30 31 31 28 31 31 34 30 31 31 29 27 31 30 29 21 16 19 25 25 23 25 26 23 23 18 10 18 
19 15 16 17 44 94 81 40 26 86 96 50 16 11 16 14 16 15 12 13 13 12 12 8 7 11 11 9 14 13 12 11 9 18 21 24 25 28 25 20 22 24 26 27 25 25 30 26 28 29 31 28 32 30 33 32 30 29 28 30 26 29 31 30 28 30 31 26 18 20 26 25 26 23 23 20 24 20 13 16 
17 15 14 18 52 101 78 41 28 92 93 49 18 16 16 16 17 15 14 14 15 14 14 13 9 12 12 10 13 14 13 18 24 27 24 24 28 26 28 23 27 29 28 27 30 26 30 30 29 29 34 31 32 33 33 31 30 30 31 29 30 29 29 29 26 30 33 27 19 18 25 26 28 23 24 23 25 25 13 18 
16 19 18 16 52 95 74 37 28 91 88 45 17 12 16 15 14 15 16 15 13 11 13 9 12 12 9 13 13 13 21 25 23 25 25 23 25 23 27 24 28 24 26 24 26 27 24 26 27 27 32 29 30 29 31 30 30 30 28 27 32 30 29 32 27 30 30 28 19 17 21 23 26 23 28 23 26 22 13 18 
17 19 19 20 62 98 76 33 34 92 91 44 14 15 16 17 20 15 16 18 11 15 14 16 14 12 14 12 15 17 22 27 25 29 24 20 26 25 27 25 27 27 23 26 26 26 25 27 30 30 31 29 31 35 33 31 34 30 28 29 31 31 27 29 30 28 32 27 18 14 20 25 24 27 27 21 25 24 17 22 
24 22 21 21 72 101 73 35 33 103 90 37 16 14 16 15 21 15 18 19 15 14 16 15 16 17 13 13 15 17 21 23 27 29 24 24 25 25 24 22 27 26 29 27 26 27 29 26 29 28 32 32 29 32 29 29 28 29 32 32 30 30 29 30 29 31 30 27 23 15 17 24 27 23 24 17 23 25 13 20 
45 39 34 38 90 113 74 35 39 101 88 38 15 16 19 20 18 16 17 15 15 17 15 17 15 13 14 13 15 19 18 23 26 26 23 24 26 24 24 26 29 26 27 27 27 27 28 29 28 25 29 33 29 33 33 31 30 30 30 30 29 31 30 34 26 28 31 30 23 14 13 24 24 28 25 20 27 29 12 17 
103 100 89 91 110 107 64 31 45 101 86 32 16 14 16 17 16 15 19 14 16 12 15 14 14 13 14 15 19 16 13 21 26 29 24 21 25 25 24 24 27 28 27 27 25 27 27 27 26 30 30 33 31 27 29 32 34 30 30 29 31 29 33 30 28 31 30 27 24 20 13 16 23 22 23 24 25 24 19 20 
101 101 101 97 102 90 49 36 52 105 85 28 17 17 15 18 16 15 16 17 19 14 15 17 13 11 15 14 15 17 15 21 23 24 25 22 26 25 26 25 28 26 25 31 27 26 28 24 28 27 32 33 32 28 31 29 31 30 29 31 31 31 30 31 34 30 33 32 31 22 13 13 22 21 23 24 25 27 16 21 
59 65 75 79 80 68 31 33 58 107 84 31 20 16 19 22 19 17 18 19 20 16 20 17 19 14 18 15 22 17 17 21 25 26 26 24 26 28 30 23 26 29 28 28 29 30 29 29 30 35 30 34 32 34 29 31 32 32 33 31 31 35 32 33 32 31 32 31 29 27 21 15 19 19 23 23 26 26 21 20 
31 30 29 31 33 31 25 33 63 114 84 34 16 21 18 23 20 18 19 19 19 17 18 19 19 21 18 16 17 20 18 25 27 31 24 25 27 26 30 28 30 29 27 32 31 31 29 29 28 34 29 32 33 32 36 33 29 30 29 31 32 34 32 33 32 32 32 30 32 29 27 28 22 17 19 17 23 24 19 18 
50 40 34 29 27 27 25 38 72 118 84 28 17 19 21 20 20 19 18 21 18 17 21 20 18 19 14 16 17 20 20 27 30 30 26 24 28 30 25 27 32 31 29 30 30 28 27 28 28 30 33 34 28 34 33 31 31 33 31 30 29 32 31 33 31 32 32 31 31 28 29 31 27 20 17 18 22 23 14 15 
110 105 98 87 76 69 61 69 94 119 85 29 19 19 21 22 22 18 20 17 19 20 17 20 17 20 18 18 16 17 18 26 26 28 25 25 29 27 27 26 30 29 28 29 30 29 28 28 28 33 30 29 30 31 31 31 27 33 29 28 30 30 30 32 31 30 32 32 31 29 27 30 29 26 27 25 23 21 19 18 
110 113 109 106 104 98 93 98 104 104 75 24 15 19 20 22 21 19 21 21 20 18 19 17 18 18 19 16 23 19 19 22 29 29 27 28 29 27 29 30 29 32 30 32 29 29 28 32 30 28 29 31 32 33 32 31 32 31 31 31 26 30 27 32 30 31 34 32 34 30 32 31 28 27 26 26 30 23 19 26 
61 66 73 76 83 88 86 93 93 88 56 18 16 20 16 21 20 21 22 23 22 19 19 21 19 20 20 17 20 16 21 24 25 27 26 28 29 27 33 29 30 32 30 30 29 29 29 29 28 30 30 32 28 31 30 29 29 28 28 31 31 31 27 31 32 33 32 30 31 29 32 33 29 26 27 24 25 28 23 24 
28 29 29 26 29 35 37 48 49 46 25 20 18 21 21 20 21 20 22 21 20 24 22 22 17 21 18 21 21 18 19 24 28 30 26 28 26 29 29 30 32 30 32 29 28 28 31 28 29 31 33 33 32 34 28 31 32 32 32 30 33 32 31 33 30 33 34 35 31 31 31 33 28 28 26 26 29 28 27 25 
28 25 22 21 23 21 25 29 29 30 23 18 20 23 23 24 19 23 22 22 24 26 23 23 20 23 20 19 24 23 19 23 29 27 26 27 32 29 30 29 33 33 32 29 32 28 29 28 33 33 34 32 32 32 33 31 31 32 33 31 32 33 33 34 31 35 36 33 33 31 32 33 33 30 29 27 27 32 24 26 
22 22 23 22 22 20 19 28 24 29 21 19 18 22 25 25 25 19 22 24 23 24 21 22 25 22 22 21 26 22 21 23 28 28 28 26 28 29 30 29 34 32 30 30 30 28 28 28 30 33 35 36 31 32 32 31 30 31 33 32 32 35 33 33 30 33 34 34 34 32 27 31 34 33 30 28 31 34 24 25 
25 24 21 24 21 19 20 23 23 28 21 17 17 25 24 26 22 23 22 23 26 25 26 22 24 22 24 22 22 23 21 27 31 29 25 26 29 31 28 30 32 31 31 31 31 30 31 30 31 32 34 33 28 33 33 33 32 30 32 33 32 37 32 35 33 34 36 38 33 31 31 31 32 33 32 28 29 33 29 26 
24 26 20 17 21 22 21 26 22 28 23 16 18 23 23 22 25 22 23 26 26 22 25 23 26 25 23 23 26 21 22 25 29 29 27 28 31 25 28 28 30 30 28 32 30 29 26 28 29 31 32 35 30 31 31 30 33 34 30 32 33 36 35 32 33 34 37 34 33 33 30 32 31 32 31 27 27 28 24 28 
23 26 24 20 23 21 23 22 23 24 23 19 19 21 23 23 26 23 22 24 25 24 26 28 24 27 23 24 27 22 23 25 30 33 28 31 30 27 29 25 29 33 30 30 33 29 30 27 32 35 31 33 31 33 33 33 32 32 30 31 35 33 34 33 32 34 35 36 32 32 29 32 32 30 33 30 30 33 31 33 
25 22 22 19 22 24 20 27 25 29 25 17 18 22 23 25 27 27 27 27 24 27 29 29 27 26 25 25 28 26 21 29 30 33 30 29 29 31 30 30 30 33 31 28 31 33 32 33 32 32 35 33 32 32 34 32 34 33 33 34 36 35 35 34 33 32 32 34 33 32 33 32 30 35 32 30 32 35 33 36 
24 20 24 19 20 25 20 24 25 29 24 22 18 22 26 24 26 27 28 28 27 28 25 28 28 29 30 26 31 27 24 26 31 34 27 30 32 32 30 28 31 32 31 31 31 31 33 32 31 32 33 34 31 35 35 35 32 33 31 32 32 35 35 32 33 33 38 36 34 34 33 29 33 31 33 27 35 30 34 35 
24 19 22 21 20 24 20 28 27 28 22 18 21 23 27 26 29 26 27 28 23 29 27 29 28 29 29 29 32 27 26 27 28 34 32 29 32 31 28 29 28 33 29 30 33 31 32 32 34 29 33 33 34 35 35 31 34 33 31 33 31 33 34 33 32 35 34 35 36 36 32 32 35 34 31 27 35 44 40 45 
27 24 21 23 22 22 20 23 30 31 22 20 20 20 27 28 27 27 30 27 28 27 27 30 30 29 26 30 32 28 29 29 33 33 31 29 30 32 30 29 33 30 32 30 33 33 36 30 31 34 32 33 31 34 36 33 31 34 31 31 32 35 32 31 33 33 38 35 36 34 30 33 33 30 30 35 54 48 39 43 
23 28 24 23 23 25 21 25 28 29 24 20 22 22 23 28 30 31 32 29 30 29 32 29 30 30 32 29 33 31 27 30 29 32 31 29 31 30 32 29 33 35 32 33 35 33 32 31 31 34 36 30 31 33 33 33 32 33 32 32 34 34 33 34 33 35 35 35 35 33 32 34 34 30 31 34 37 41 41 41 
23 23 24 23 23 23 24 25 26 30 22 23 22 24 28 28 30 30 31 29 31 31 30 31 33 32 28 31 32 30 29 25 29 31 30 30 31 32 33 29 34 33 32 34 30 35 34 32 33 29 33 33 32 35 33 33 33 30 32 29 30 34 32 33 34 35 37 37 34 34 34 34 33 34 34 36 39 38 37 38 
28 24 26 22 27 28 24 27 29 30 25 22 20 29 32 28 30 30 32 34 31 30 32 31 32 35 32 32 32 32 29 28 33 34 31 29 32 32 32 31 34 31 32 32 30 31 31 31 30 31 31 34 27 33 31 29 29 32 29 32 29 33 32 34 32 34 34 34 33 34 35 36 37 37 35 36 38 37 38 43 
22 20 23 22 23 25 26 32 28 32 21 22 23 25 27 29 31 32 31 31 31 32 34 37 31 35 32 33 35 29 30 27 34 36 33 30 34 33 35 31 36 34 31 32 32 28 29 29 33 32 31 34 32 32 32 28 27 30 33 28 32 36 32 36 32 32 35 38 35 36 35 39 42 45 52 58 68 82 94 115 
23 21 21 22 26 26 27 32 29 32 25 23 24 28 26 34 31 33 35 33 34 33 36 35 36 35 32 31 29 31 28 28 34 37 34 32 35 32 36 31 34 30 32 31 32 31 32 28 32 30 30 29 29 30 30 32 27 32 33 31 33 34 34 35 33 32 37 38 37 43 63 78 90 103 113 122 134 149 164 196 
26 22 24 24 27 26 27 33 27 31 27 26 26 30 31 30 31 36 36 37 36 38 38 36 38 36 36 31 32 32 29 26 31 34 30 32 33 38 34 31 33 32 31 30 32 31 34 32 34 32 32 32 30 31 32 29 28 34 31 30 33 34 37 33 35 32 39 38 37 65 105 122 133 136 146 156 171 184 202 227 
25 24 26 24 23 28 26 32 28 31 25 24 26 29 33 31 34 33 38 35 37 40 37 37 38 34 33 34 32 33 30 23 32 36 32 33 35 35 36 34 36 31 31 33 33 31 30 30 29 30 31 31 32 32 33 31 33 28 29 32 36 38 35 35 34 35 38 39 44 73 116 147 157 163 174 184 197 216 230 252 
25 25 30 23 28 29 27 30 24 37 29 25 29 30 31 34 35 34 36 38 37 37 38 39 42 38 40 44 38 38 39 33 30 33 35 34 35 35 37 36 33 36 31 32 32 32 30 33 31 31 33 31 31 32 32 31 29 32 32 30 34 34 32 35 31 32 37 40 40 70 119 152 163 174 182 194 205 225 245 249 
27 26 26 25 23 27 30 29 28 34 27 24 28 30 32 35 35 35 38 38 41 38 39 37 40 44 45 45 42 41 42 34 31 34 36 39 37 38 39 35 36 31 33 33 32 29 32 34 32 31 32 32 33 30 32 33 31 33 31 28 34 37 32 33 30 33 37 36 38 67 115 149 166 176 183 190 208 222 239 258 
29 26 25 26 26 29 27 28 28 37 32 26 26 31 30 36 34 36 37 38 38 39 41 37 39 43 49 44 44 39 40 34 31 35 40 34 33 34 36 34 34 36 34 34 33 31 32 32 29 32 31 30 33 33 31 32 32 31 33 31 32 36 35 36 34 33 37 37 39 62 109 146 166 173 180 190 203 219 238 250 
31 28 25 29 26 30 28 31 33 36 30 29 27 36 34 36 36 37 41 41 44 40 40 43 42 46 49 53 45 45 40 35 35 36 36 37 37 37 41 35 34 34 37 36 31 33 33 31 29 31 32 33 35 33 33 35 32 35 32 32 35 35 35 34 36 39 37 38 39 59 110 141 158 169 175 188 203 215 234 250 
31 30 28 28 27 30 28 32 32 38 35 30 30 33 37 37 38 40 42 43 44 46 42 42 46 46 48 47 47 46 44 37 35 36 41 36 38 38 39 36 37 35 36 35 33 37 36 31 36 33 30 32 34 33 36 37 36 34 36 34 32 37 35 35 34 38 40 39 40 55 101 138 155 166 174 186 198 215 233 247 
33 32 32 29 32 32 33 37 35 41 34 31 30 33 39 40 39 43 41 45 47 48 48 45 47 49 56 51 49 46 47 41 35 38 42 40 37 36 38 39 41 38 37 37 35 35 36 35 34 36 35 37 37 37 40 43 40 38 38 36 32 35 36 37 36 38 36 37 39 56 103 138 154 168 173 182 198 212 227 243 
33 32 33 32 36 35 34 39 38 44 39 34 38 35 40 42 43 44 45 50 51 48 51 50 47 51 54 54 50 46 49 39 37 38 40 43 43 42 38 40 38 40 37 39 36 38 37 34 35 33 38 41 37 40 47 48 44 46 38 34 35 37 39 37 35 37 37 39 39 52 95 133 152 165 169 179 181 187 210 238 
38 36 35 33 38 39 39 41 43 46 39 36 37 41 45 43 47 50 47 51 52 52 53 58 55 59 57 59 53 53 53 47 42 41 39 42 43 45 44 42 39 44 41 40 39 37 39 35 39 40 41 39 41 44 52 69 81 68 50 38 38 36 39 40 40 39 43 44 44 54 94 131 152 163 169 169 174 167 211 242 
40 44 40 37 41 41 43 46 43 46 40 38 37 45 46 47 51 53 55 57 56 62 59 61 60 63 63 63 60 60 59 50 42 45 45 49 48 48 47 42 45 46 46 41 40 43 41 38 40 42 46 42 46 50 82 197 169 106 62 47 38 44 40 41 39 40 47 41 47 51 94 131 153 164 171 180 183 198 228 244 
50 48 45 45 45 45 42 46 44 50 45 40 40 46 48 53 53 56 57 61 66 63 65 67 65 67 68 65 62 62 61 48 44 47 51 52 50 49 47 42 44 46 47 42 42 45 42 41 42 44 45 44 46 52 97 243 182 103 59 46 37 42 41 41 41 42 43 42 46 54 91 128 149 164 173 175 199 206 230 240 
56 50 49 47 53 49 45 53 48 54 48 46 45 50 53 53 59 56 59 64 70 68 69 68 73 69 72 69 66 61 58 52 45 48 49 55 50 47 44 43 40 44 43 42 47 44 39 41 42 41 41 43 45 48 62 97 95 72 53 45 40 42 40 41 39 44 43 44 47 48 88 124 150 165 169 177 193 207 218 233 
59 54 56 50 59 54 54 58 52 57 51 50 50 56 56 58 56 61 61 66 70 72 76 82 81 78 79 77 69 63 59 51 48 48 48 50 48 42 43 45 43 48 46 45 47 47 43 44 44 42 45 45 45 47 48 56 57 54 46 45 43 45 40 41 40 42 44 41 44 47 82 125 148 163 173 181 195 209 220 236 
76 72 69 54 60 57 57 55 52 57 52 53 53 56 57 59 58 63 66 72 75 72 78 84 82 84 85 78 68 65 60 55 49 51 51 53 52 51 60 71 48 50 51 49 44 48 47 45 43 47 47 47 43 46 46 50 52 47 45 43 41 39 39 41 40 41 44 40 41 43 74 129 148 165 172 180 194 211 223 230 


