P2
80 60
128
59 63 62 67 59 65 65 64 64 64 61 67 70 72 74 72 72 70 74 76 73 73 72 72 74 76 75 74 76 77 76 80 76 77 78 80 81 78 74 77 77 72 75 78 72 73 70 68 70 73 78 78 75 77 77 77 80 72 73 73 76 76 74 70 69 69 68 67 63 56 57 60 63 64 67 56 55 58 55 56 
57 59 64 64 66 62 63 61 62 65 64 65 69 74 71 69 73 73 74 73 77 74 74 75 74 71 75 75 78 77 76 77 76 77 77 77 78 80 73 76 74 77 73 77 73 72 71 67 71 73 74 74 73 74 76 78 76 75 74 77 72 72 72 74 71 69 70 69 65 63 59 59 63 64 62 56 43 40 52 62 
60 61 63 64 64 62 59 59 64 61 63 67 71 73 68 70 72 74 74 75 73 79 75 75 76 75 75 76 77 77 76 79 76 77 76 76 74 75 78 77 75 74 70 71 72 71 71 68 71 71 74 72 69 76 72 75 78 74 74 73 72 70 78 73 70 68 65 71 69 66 63 64 64 63 61 53 42 39 55 96 
63 63 61 61 60 60 63 62 62 60 62 65 69 71 71 70 74 76 79 79 77 74 75 77 71 71 75 74 76 77 76 72 73 73 71 75 79 78 76 75 74 72 67 65 67 68 67 70 70 72 73 69 67 68 72 76 78 79 76 74 73 69 72 68 69 69 68 68 65 67 63 64 63 61 59 48 54 58 95 105 
66 67 60 64 63 64 62 64 62 62 66 66 70 71 70 70 72 75 79 78 79 79 76 73 76 72 75 74 74 75 75 73 76 72 75 74 75 75 76 73 71 65 55 53 62 65 69 65 71 75 70 65 66 69 73 77 79 77 79 75 74 70 69 65 68 66 67 70 63 67 64 62 60 55 48 39 59 86 102 110 
65 67 64 66 65 65 63 62 63 60 62 64 72 72 71 70 72 75 74 77 78 79 76 76 74 76 73 71 76 76 76 70 77 71 73 71 73 73 70 73 71 67 53 54 62 64 64 67 69 69 72 71 68 72 76 78 76 79 77 76 74 74 71 68 73 68 71 70 67 66 67 67 62 56 40 47 70 96 107 111 
65 63 62 68 63 67 65 60 65 62 65 62 72 73 75 74 76 79 80 80 77 81 78 77 76 71 71 68 71 73 71 71 71 71 72 74 74 71 75 73 73 66 59 55 62 66 65 65 69 72 70 75 72 77 79 81 76 79 76 74 77 71 73 68 67 71 71 70 65 63 62 61 56 57 47 49 75 96 110 117 
66 65 62 67 65 64 65 63 64 66 66 68 71 73 73 72 75 76 77 77 80 79 75 74 72 66 65 61 61 67 64 68 64 66 66 70 71 65 66 72 70 66 66 64 63 67 63 60 59 65 69 68 70 75 75 74 80 77 77 76 74 72 70 68 67 64 68 66 65 62 56 53 56 47 43 50 76 102 115 122 
61 63 68 69 67 70 67 65 67 66 68 73 74 75 75 72 73 72 72 70 70 66 68 66 66 64 60 58 62 64 64 65 63 66 65 67 69 68 66 66 63 64 68 68 66 69 64 59 48 65 68 69 69 77 77 76 78 77 77 75 76 75 71 69 67 66 65 68 63 62 52 53 51 49 54 57 76 102 126 128 
69 70 65 70 67 67 69 67 65 66 69 71 78 75 72 70 73 72 71 71 70 67 66 66 66 69 67 67 71 70 69 67 67 69 71 72 67 69 64 66 65 65 67 68 68 65 66 67 57 67 70 72 72 75 76 79 77 77 78 77 73 75 73 70 69 68 69 68 65 60 51 54 53 59 60 63 68 77 103 118 
70 67 68 68 70 67 69 68 66 70 68 72 74 72 68 71 71 72 69 70 71 67 69 72 76 73 72 70 72 73 74 72 73 73 73 75 77 73 70 76 73 70 73 72 72 73 71 66 73 73 76 74 73 74 75 77 79 77 76 76 73 77 77 74 74 71 69 67 66 63 57 60 58 56 66 67 68 64 66 74 
67 68 66 68 69 68 69 66 69 68 68 70 71 67 67 67 69 70 73 70 71 71 70 75 74 73 72 72 71 75 73 70 75 74 74 76 75 74 74 77 73 71 76 75 73 73 73 73 72 72 79 84 85 77 75 74 75 75 77 73 77 75 70 70 74 68 70 69 66 64 61 65 64 66 69 65 64 59 57 53 
64 71 65 71 69 68 71 69 70 67 69 69 66 66 69 67 69 71 70 71 72 69 70 74 74 75 69 69 71 75 73 76 72 75 75 74 76 74 76 76 76 74 76 74 75 73 74 74 76 77 78 82 83 80 74 76 75 76 78 74 66 69 57 62 69 70 66 67 65 65 64 65 68 70 69 68 65 59 56 55 
70 67 67 68 74 70 72 67 66 69 69 67 67 65 69 65 68 66 67 67 65 65 69 71 72 70 72 71 72 72 71 72 74 75 74 75 72 73 75 79 75 74 78 74 73 75 74 73 78 78 78 77 86 84 75 77 72 74 75 70 64 44 42 54 67 67 67 66 67 68 68 69 70 70 72 66 58 58 57 52 
67 68 68 70 71 71 71 69 71 71 69 69 68 68 68 69 71 67 65 65 64 62 67 68 68 68 68 69 70 68 68 70 71 72 72 72 73 75 75 73 74 73 77 76 77 73 75 76 78 80 79 73 83 85 78 69 65 70 73 72 67 49 46 51 68 67 66 64 69 71 69 72 74 76 73 66 62 63 59 54 
67 66 67 71 71 71 72 71 71 71 71 71 69 68 68 67 65 63 64 66 64 63 65 65 66 65 65 66 67 66 65 72 71 70 69 70 69 70 71 74 69 70 75 74 73 73 72 76 79 79 78 73 77 83 74 60 59 67 71 73 70 65 60 56 68 69 67 66 71 70 69 74 74 72 70 69 64 64 62 57 
67 71 69 69 69 73 76 72 70 72 72 69 69 64 64 64 63 64 65 67 67 66 68 68 67 67 65 66 65 66 68 68 67 64 67 67 72 70 73 76 67 67 72 73 73 73 75 78 77 78 78 73 79 80 73 55 60 68 69 75 76 71 70 71 69 75 73 74 74 74 74 74 74 73 71 66 66 64 68 60 
70 72 74 75 72 73 75 71 71 74 71 72 67 63 65 63 63 60 63 66 66 64 65 70 66 65 63 65 67 63 67 63 68 66 68 70 71 69 69 69 70 65 69 69 72 71 73 74 78 78 79 76 76 74 72 61 62 68 75 74 74 76 75 76 72 75 78 75 74 79 76 74 75 72 74 69 68 67 70 67 
74 73 72 73 74 75 74 74 72 75 77 73 70 67 65 64 61 65 66 62 55 47 51 67 68 66 64 65 62 65 62 63 64 66 68 66 67 70 67 70 71 69 72 70 72 70 76 72 79 82 80 75 76 80 70 67 67 70 74 77 78 77 75 76 75 76 77 76 75 75 77 76 75 72 74 72 72 70 73 62 
72 71 71 75 73 73 75 73 74 74 75 75 68 67 69 66 60 62 59 47 23 18 27 48 63 65 63 63 61 65 61 61 65 63 63 61 59 63 64 73 72 68 69 68 70 70 74 75 78 81 84 75 76 77 69 68 71 72 75 77 81 78 74 75 76 72 75 76 75 75 76 74 71 72 73 69 75 72 73 68 
72 73 66 74 70 73 75 72 74 75 76 72 70 68 63 61 61 60 51 22 14 12 16 28 55 62 65 60 62 63 61 60 64 60 47 35 23 25 40 63 69 69 69 69 71 67 72 75 79 81 82 71 74 73 68 70 72 72 74 75 74 81 78 77 76 75 73 77 76 75 72 73 72 72 72 69 72 75 75 67 
72 70 70 72 72 72 75 75 77 74 75 72 70 65 65 58 60 61 45 23 15 14 10 23 46 59 64 62 59 63 62 59 60 50 26 8 8 10 18 32 60 67 67 66 67 67 70 72 80 79 80 71 73 73 70 72 73 73 75 76 77 76 78 79 78 72 75 74 73 74 74 71 69 70 69 67 64 70 68 63 
69 68 70 72 71 71 71 73 77 78 74 71 69 63 63 63 57 59 46 29 22 18 17 20 39 56 60 58 57 60 59 58 58 33 9 2 0 1 8 20 49 63 69 63 66 70 70 72 74 77 80 68 72 68 73 73 73 71 73 72 73 75 77 76 75 71 72 73 73 71 73 69 71 67 64 62 63 61 64 56 
69 67 70 67 69 69 72 72 76 78 70 71 65 64 61 61 58 58 51 36 28 23 26 35 43 62 59 62 58 60 60 57 58 25 10 4 4 0 7 18 36 62 66 64 64 65 70 72 76 78 78 55 63 65 64 71 73 71 70 72 73 75 78 81 74 70 73 70 71 72 73 72 70 65 51 39 42 47 54 47 
69 67 64 69 64 67 73 76 77 76 78 74 69 65 62 63 59 60 63 53 37 31 33 37 57 63 63 61 61 59 60 61 59 40 20 15 15 12 19 25 39 63 68 68 68 65 70 73 73 79 75 45 57 68 68 75 72 73 73 77 76 78 76 77 75 69 71 68 73 72 73 74 71 67 49 38 35 36 37 36 
65 64 65 67 70 68 71 75 76 73 78 76 67 61 62 64 62 59 61 61 58 50 44 58 58 64 62 60 61 61 62 61 62 51 31 21 22 20 23 30 48 62 66 67 67 67 70 72 73 80 70 39 55 68 70 75 72 75 76 75 73 77 76 78 75 69 67 67 74 70 74 70 72 69 60 50 43 40 40 31 
65 61 55 53 60 63 68 70 73 71 77 75 68 63 63 63 61 58 61 65 63 61 61 60 61 62 59 60 59 61 62 60 60 60 47 30 21 24 31 36 58 65 64 68 67 66 68 72 72 77 67 37 53 69 70 70 72 72 77 73 76 74 77 76 78 69 63 63 72 71 72 72 71 71 68 61 55 45 39 26 
67 58 35 27 49 57 64 68 73 69 75 75 65 63 60 61 60 62 61 59 61 63 62 60 60 60 60 59 59 59 60 60 59 59 63 52 44 45 48 61 67 64 64 66 64 68 68 71 74 80 68 39 58 64 67 77 69 73 76 73 75 76 79 75 77 66 64 63 68 71 68 72 71 77 71 63 60 54 38 26 
63 56 26 19 44 57 62 64 69 73 75 73 67 64 63 57 63 59 62 60 63 61 63 62 62 59 59 58 59 59 57 60 60 62 63 63 65 63 66 67 69 63 65 66 65 65 67 68 73 76 66 57 60 66 67 73 72 70 72 73 70 72 79 76 76 68 64 60 68 70 68 74 69 74 72 60 55 50 43 38 
63 57 39 29 42 57 63 66 69 72 77 73 68 64 61 63 61 60 58 59 59 62 59 60 64 57 60 56 58 59 59 57 58 60 62 64 65 61 62 66 63 62 62 64 63 65 69 67 69 76 67 59 66 67 68 68 68 69 73 70 70 75 76 71 77 70 70 65 69 69 70 71 70 65 67 58 47 46 49 40 
67 59 56 46 57 63 66 69 73 71 76 75 64 64 63 61 62 56 59 59 62 61 58 63 59 59 61 59 61 59 58 60 60 58 64 63 61 61 61 62 64 60 63 64 64 65 67 69 70 72 64 59 66 66 61 70 69 68 69 67 70 70 72 70 75 72 74 71 75 72 65 70 66 68 65 59 43 37 43 35 
71 66 64 59 63 65 67 70 73 78 75 72 65 64 63 59 61 59 59 61 62 64 60 63 63 60 61 57 57 59 59 59 60 61 64 66 66 62 64 63 62 62 66 65 66 65 69 68 74 75 68 65 65 66 65 72 69 70 68 70 62 65 72 73 76 75 72 74 75 71 69 69 64 60 63 53 52 39 31 27 
72 68 69 69 68 71 70 72 74 78 77 74 66 64 60 61 59 58 60 59 61 63 63 60 62 57 64 63 60 59 60 59 61 61 61 60 63 63 61 64 62 63 67 66 65 65 69 71 76 72 69 64 64 68 65 70 69 69 72 63 59 65 72 70 75 75 70 75 71 75 65 68 51 45 56 54 50 34 22 25 
72 68 71 71 68 72 70 73 70 75 74 76 71 64 62 63 59 57 59 59 61 62 62 64 61 61 60 59 63 63 57 58 59 60 58 61 61 61 58 61 61 62 64 62 62 63 70 70 73 77 70 64 65 62 69 69 67 69 69 61 64 67 73 73 77 71 74 74 71 69 63 59 47 36 47 55 56 48 34 29 
69 73 72 71 72 71 72 69 74 74 75 75 70 62 65 61 59 57 59 59 59 61 59 64 60 59 63 61 61 56 58 56 60 58 61 62 61 60 62 58 58 62 62 59 57 61 67 69 74 73 67 65 69 64 66 69 66 66 65 68 71 72 75 74 78 74 72 73 73 71 69 63 52 47 53 57 56 59 52 45 
72 69 69 73 73 69 71 72 74 73 75 73 68 64 61 61 57 57 57 58 61 60 62 61 58 61 59 61 59 57 58 56 56 54 57 60 56 59 61 60 62 57 59 51 52 58 65 68 72 73 64 67 63 65 64 69 70 68 68 68 70 70 72 73 77 71 72 71 69 66 67 66 62 58 62 61 63 62 62 58 
70 66 71 73 73 72 72 72 75 74 76 74 68 63 62 57 56 56 60 57 56 60 60 61 59 55 59 61 58 56 58 56 59 54 56 56 60 57 58 60 59 58 56 46 49 56 63 67 72 77 54 57 61 63 64 68 67 63 68 66 70 70 76 75 77 75 73 76 69 68 70 70 68 67 68 65 64 63 63 56 
70 67 67 70 72 66 72 71 72 74 76 70 69 59 58 55 59 58 58 55 58 58 57 58 59 57 55 58 58 57 53 55 60 54 57 55 57 57 57 59 58 53 54 52 49 58 64 68 72 69 32 50 54 63 60 62 62 63 66 65 69 68 71 74 75 71 72 72 74 72 72 73 68 70 72 64 66 61 65 59 
70 65 66 70 71 70 71 71 73 74 74 73 68 59 60 59 59 55 61 54 58 58 60 60 58 57 58 58 57 59 57 56 54 56 57 58 55 55 57 58 59 56 56 54 56 60 65 68 74 67 33 55 55 63 59 55 50 60 61 65 64 68 72 69 77 72 76 77 72 73 71 70 72 69 70 67 68 67 65 64 
68 69 70 68 72 74 71 68 68 68 73 73 66 57 59 57 54 57 59 56 58 58 59 61 56 57 58 57 58 58 57 57 57 57 54 56 56 56 58 56 57 55 54 52 53 59 65 65 73 62 43 51 55 57 53 47 39 54 58 66 62 66 72 71 69 71 71 69 73 73 69 71 70 65 69 67 65 68 67 64 
68 70 66 68 70 70 68 68 72 71 72 69 66 58 57 56 55 52 56 53 58 56 58 57 56 55 56 58 59 61 56 56 57 55 57 56 56 54 53 59 56 56 54 51 53 55 62 65 72 65 50 60 60 61 58 52 37 45 54 65 65 69 72 72 74 72 71 70 71 71 68 72 69 67 73 68 66 66 61 61 
67 68 67 71 66 69 69 69 71 67 68 68 68 60 58 53 56 56 54 53 58 56 57 56 56 55 54 60 58 60 52 56 56 55 59 57 56 56 56 58 59 58 56 47 49 57 64 63 69 56 47 55 59 61 62 57 52 51 59 62 70 70 71 71 73 68 69 68 70 69 67 67 70 66 68 68 66 63 64 63 
66 69 68 71 69 71 66 70 65 68 71 69 66 57 57 58 56 54 54 53 54 55 56 54 54 56 55 61 57 61 54 53 50 50 54 54 57 54 58 60 60 57 57 57 56 57 63 63 69 55 42 54 60 61 59 59 57 58 59 62 66 68 69 71 68 70 69 68 68 66 67 68 68 67 67 62 65 64 65 59 
65 62 69 68 68 67 70 68 71 68 68 68 67 58 57 55 58 56 56 52 54 55 55 54 54 59 58 57 54 56 53 52 49 48 51 52 55 54 57 57 57 59 56 62 59 62 66 64 68 48 52 56 55 60 58 62 60 63 59 61 66 72 69 72 71 68 67 69 65 68 70 68 68 64 63 61 63 62 63 63 
67 65 65 72 68 68 69 68 66 66 69 70 69 56 56 55 53 55 55 53 54 54 56 56 53 56 55 54 56 59 51 49 49 46 52 51 54 54 54 54 55 57 59 63 67 62 59 65 71 35 50 54 55 60 59 62 61 64 65 63 68 68 70 69 70 72 71 68 65 65 63 68 64 65 64 61 62 62 65 60 
68 67 68 70 67 71 67 68 70 67 70 72 68 61 57 56 58 53 53 55 53 55 57 56 55 56 55 53 54 53 53 49 48 48 50 53 56 51 52 55 55 53 59 63 64 68 66 64 71 36 48 53 56 61 63 65 62 66 64 64 66 67 67 71 73 70 72 72 72 69 64 68 62 64 63 60 63 65 67 55 
66 67 68 72 71 70 70 68 73 71 68 69 68 62 58 60 54 56 55 53 54 56 54 56 55 55 54 55 54 55 55 52 50 49 51 53 54 54 54 57 56 55 59 65 65 68 66 69 71 48 52 56 60 62 64 66 65 66 68 65 66 71 69 70 70 68 70 71 68 67 64 67 68 65 63 62 62 66 65 57 
67 67 69 70 67 68 68 66 70 70 69 74 73 58 56 58 53 51 58 54 55 52 53 51 51 49 51 50 53 53 50 51 51 49 52 53 52 50 53 54 55 54 56 65 69 70 68 68 68 55 56 56 60 64 62 70 63 67 67 69 65 68 68 66 68 69 71 66 67 66 67 67 65 65 65 65 64 60 64 62 
66 66 70 70 69 69 68 66 70 66 71 70 69 56 56 56 51 53 55 50 55 54 52 49 47 43 44 50 48 51 53 51 48 47 51 53 50 51 51 54 50 57 59 62 66 65 68 67 66 36 51 56 61 65 63 65 67 66 68 68 67 71 70 66 68 67 66 65 67 65 66 64 63 62 65 67 63 62 62 60 
63 64 66 67 67 64 66 63 70 69 67 66 70 60 54 53 55 54 53 46 50 50 49 49 44 40 40 49 48 47 41 46 47 49 50 51 54 52 51 52 57 54 58 64 64 63 66 66 39 30 47 54 62 65 63 65 64 67 66 64 68 69 67 67 71 62 68 67 67 65 66 66 62 61 67 60 64 63 62 57 
65 65 63 69 66 68 68 64 68 72 67 67 67 60 54 55 53 52 51 51 51 49 49 47 39 37 40 44 40 33 31 42 46 47 50 52 50 54 54 55 58 56 60 61 66 66 67 62 25 37 52 56 63 68 69 68 66 66 71 68 70 69 68 65 69 64 66 66 65 65 62 62 62 64 68 64 61 58 60 54 
66 63 64 67 66 64 65 63 67 71 72 65 69 58 53 54 49 53 51 47 49 45 45 46 37 36 34 36 32 20 9 27 43 44 46 48 52 53 54 56 56 57 59 63 64 65 67 52 36 40 55 55 61 66 71 69 69 66 68 67 67 70 67 67 67 63 62 64 64 64 61 68 64 64 67 61 58 57 57 50 
64 59 65 65 69 65 68 67 67 68 66 68 71 61 56 53 55 52 50 48 53 49 49 45 39 35 38 36 29 5 1 19 37 45 48 47 51 50 50 53 58 57 63 63 64 66 67 56 42 50 55 61 65 70 70 69 70 69 68 68 64 68 67 69 66 67 63 65 65 67 63 66 64 64 63 60 58 61 63 52 
62 62 62 67 67 64 67 64 64 70 64 68 68 58 55 51 56 47 52 50 49 50 45 48 42 36 39 38 28 16 2 23 41 42 46 47 49 46 47 56 54 57 63 66 66 65 66 56 44 50 63 63 66 71 70 66 73 68 69 64 55 57 66 66 68 69 65 65 64 65 61 66 65 61 64 62 61 60 61 55 
65 66 68 69 68 66 65 66 67 65 67 67 68 64 54 50 52 55 54 47 52 48 51 49 47 38 41 39 39 32 23 31 39 45 47 47 49 50 50 53 58 58 61 66 66 66 67 68 61 67 72 71 72 73 71 69 72 68 65 55 52 54 65 67 71 65 63 65 65 65 64 63 66 66 67 64 63 60 62 52 
67 64 69 67 65 66 66 68 68 65 65 68 72 65 56 54 54 50 52 48 51 51 50 53 50 46 43 44 47 39 40 41 44 46 48 50 50 51 55 56 56 60 63 64 62 67 75 70 65 71 74 80 80 74 77 77 71 70 70 66 59 59 62 68 67 64 63 67 69 65 65 65 66 68 68 65 63 61 63 56 
67 68 67 71 69 68 71 65 69 71 68 68 74 67 54 53 53 54 49 52 52 51 50 56 50 49 48 48 46 49 45 45 48 47 49 49 54 53 52 58 60 61 63 64 72 77 75 63 55 64 66 73 78 80 82 77 76 72 72 68 66 68 67 67 68 65 63 68 64 69 65 68 64 62 66 67 63 59 62 56 
68 65 70 68 70 68 67 64 71 70 64 68 71 65 56 55 55 53 51 50 50 49 48 48 50 48 53 48 49 48 44 47 49 48 49 49 52 52 52 56 56 59 64 73 74 73 66 51 29 54 61 70 71 69 76 76 75 71 71 69 69 67 71 68 67 65 66 62 62 61 61 63 64 65 66 62 61 61 65 57 
68 66 64 70 71 66 67 67 67 66 68 68 70 69 60 56 54 54 55 49 51 51 51 51 51 51 52 52 52 49 46 49 56 52 50 53 53 52 54 58 59 58 78 79 76 70 61 49 40 57 61 67 64 67 73 75 78 73 72 71 71 72 72 69 68 66 66 61 58 56 57 58 61 63 62 63 64 63 60 57 
69 68 72 68 68 69 69 65 66 69 66 64 70 67 59 59 60 52 55 50 50 50 50 51 52 50 52 53 47 51 47 49 55 52 51 57 55 55 53 55 59 63 81 76 76 72 62 51 47 57 63 71 65 68 71 72 76 75 75 73 70 71 72 69 69 67 65 63 55 53 58 56 63 63 63 60 63 60 62 57 


