P2
80 60
261
22 17 22 23 41 48 85 97 76 48 58 93 87 50 43 38 35 30 29 29 29 30 27 25 27 28 27 31 31 35 38 37 35 31 30 30 30 29 29 30 34 32 30 27 30 28 30 30 26 25 18 20 18 19 19 19 15 21 19 18 17 20 21 23 21 21 19 22 25 27 25 25 22 20 18 19 18 15 17 13 
23 23 24 24 37 49 93 102 74 44 65 95 85 48 40 38 37 34 32 30 30 29 30 30 28 25 27 32 35 36 36 33 32 33 30 31 28 31 28 28 27 30 29 29 29 28 29 31 29 24 17 19 19 19 19 21 20 18 20 22 21 17 20 23 24 23 19 26 30 27 27 24 23 19 20 18 19 15 18 16 
19 24 22 26 39 49 95 99 69 46 70 95 78 46 42 36 31 30 33 30 29 29 27 30 27 29 34 32 32 34 35 38 32 29 30 30 29 33 32 29 28 31 30 26 28 32 32 29 33 29 23 23 25 24 20 22 23 21 21 23 25 27 31 28 27 18 19 19 29 26 25 25 21 20 21 24 24 14 17 13 
24 24 25 31 45 51 97 102 60 46 74 93 76 41 36 33 30 32 29 32 31 29 27 29 27 33 31 31 35 35 37 36 32 30 28 26 30 31 31 28 29 28 29 28 30 30 29 30 30 27 25 25 31 28 27 28 28 28 32 29 29 29 29 31 29 23 18 20 26 26 25 25 22 19 23 23 25 13 15 15 
21 23 26 32 42 57 111 98 59 45 77 91 62 37 35 30 28 29 30 27 26 24 31 29 29 33 28 33 35 35 38 36 32 31 28 29 28 26 27 26 28 32 27 29 30 31 31 32 31 33 29 29 29 33 32 33 28 30 30 32 28 29 29 28 28 23 22 19 26 26 25 25 21 22 20 21 24 9 12 10 
23 19 25 34 40 70 106 87 56 48 86 92 63 38 33 30 30 29 30 26 28 31 34 32 28 32 34 34 32 38 35 37 33 31 30 34 29 30 27 30 27 25 31 32 32 30 30 32 30 35 32 32 35 34 28 31 29 32 32 31 28 30 26 28 25 25 17 20 29 23 25 27 23 26 21 25 24 11 15 16 
20 25 26 35 39 68 106 90 49 50 87 87 55 34 33 29 27 30 31 31 27 27 30 30 27 32 26 32 34 35 36 34 31 31 28 30 30 30 29 27 28 28 29 28 29 27 32 33 28 33 32 33 31 31 28 30 27 26 32 29 28 27 24 28 28 25 20 22 26 26 26 26 22 25 23 22 19 8 12 18 
14 18 24 30 40 69 103 79 47 51 87 91 46 29 29 28 29 26 26 30 30 26 29 25 28 28 28 28 29 32 34 34 33 27 29 29 27 27 29 28 29 29 28 29 30 27 28 28 28 30 32 28 27 31 26 26 28 28 29 26 26 29 30 30 31 24 23 21 26 27 27 27 24 21 21 21 12 10 13 14 
12 11 17 29 32 69 105 76 44 49 92 85 45 29 27 25 25 25 27 26 28 26 26 27 28 26 25 29 32 33 35 32 29 29 29 30 28 28 30 28 31 29 27 30 29 29 30 28 29 30 25 29 28 30 27 30 27 27 28 29 26 29 28 30 30 30 23 20 25 24 25 27 23 23 20 23 15 13 14 16 
12 6 4 0 17 75 105 71 32 51 98 86 45 30 25 25 21 21 21 26 27 26 26 27 26 26 29 30 29 33 32 33 31 29 29 27 32 30 29 28 31 32 30 27 29 32 32 33 28 29 25 30 27 29 27 25 28 29 30 32 30 30 32 28 30 28 22 20 24 30 24 26 26 25 22 21 14 16 18 14 
16 15 9 5 16 81 105 66 28 51 104 92 29 19 14 16 20 19 23 24 20 24 25 26 24 27 26 27 28 29 32 34 26 31 25 26 28 30 32 29 28 27 28 29 29 28 31 28 25 28 27 26 26 28 26 28 30 33 31 32 31 31 29 28 32 28 25 16 24 29 27 27 25 23 22 20 18 13 17 16 
16 18 22 16 27 89 109 64 28 59 105 82 23 15 14 16 12 14 15 20 19 22 22 23 24 26 25 30 29 28 32 34 29 25 27 29 26 29 27 28 26 31 30 30 30 28 31 33 29 27 27 29 33 32 30 28 31 32 32 35 30 31 27 28 30 29 25 21 25 26 27 28 26 24 24 22 18 16 16 11 
17 18 17 16 22 87 101 62 26 63 106 79 20 14 10 9 13 10 14 11 10 13 10 14 14 21 24 21 24 23 29 27 25 24 25 27 27 27 29 31 28 31 29 29 29 29 31 27 27 28 29 28 31 33 31 29 32 31 34 27 31 32 29 29 28 31 26 23 24 25 30 28 25 24 23 24 20 16 14 15 
18 21 17 18 27 91 92 51 36 71 104 70 22 16 17 13 12 11 14 9 14 8 11 13 11 12 11 16 15 13 15 16 18 22 24 23 25 27 30 29 29 29 26 28 28 29 27 32 32 33 30 31 27 33 31 32 32 31 29 32 31 30 29 30 28 30 26 24 22 26 28 28 27 24 22 27 18 11 14 19 
17 15 18 18 39 91 92 47 31 81 103 61 23 17 16 16 17 13 14 13 8 10 12 9 7 10 11 13 13 14 15 15 9 10 8 16 22 28 28 27 29 27 31 29 30 29 28 34 31 33 32 32 32 32 30 33 30 33 31 30 31 32 29 30 31 29 31 22 22 24 27 30 29 24 24 26 21 13 15 18 
14 16 14 17 40 93 87 43 30 83 102 61 22 18 15 18 16 13 14 10 12 11 12 12 11 11 11 9 9 13 12 14 10 5 8 18 22 27 24 27 25 28 27 30 27 26 29 28 32 33 28 32 32 35 32 30 33 30 36 31 32 31 28 27 32 32 30 24 19 24 28 28 28 27 25 25 22 17 15 14 
17 16 16 18 48 94 84 39 27 87 92 55 19 16 16 14 16 14 12 13 13 13 14 12 10 12 12 10 15 15 14 13 12 17 24 27 26 29 30 21 27 27 27 28 25 25 30 28 30 33 30 33 35 32 34 33 31 30 32 33 32 30 30 29 30 30 29 27 20 20 28 29 26 24 23 24 25 16 17 20 
16 17 21 20 54 97 85 38 32 92 92 53 25 22 20 17 19 15 18 15 16 14 15 13 12 13 12 12 13 16 17 22 28 30 28 29 30 28 31 26 28 31 32 29 31 29 35 34 32 33 33 34 37 35 33 31 33 35 35 33 34 30 30 31 29 33 31 28 22 21 28 27 30 29 28 27 26 22 20 19 
17 16 22 19 55 93 77 36 31 90 90 46 19 18 20 18 15 15 17 16 15 13 17 13 14 15 12 12 14 17 23 28 29 27 26 23 25 26 29 27 28 26 28 27 29 28 29 31 29 31 31 34 34 32 31 33 30 30 31 31 35 32 33 32 31 30 33 30 23 18 26 27 29 25 27 27 25 20 24 21 
22 18 20 21 66 97 84 32 34 89 90 44 19 20 17 15 21 18 20 16 12 16 16 17 15 15 16 15 15 17 23 30 28 28 24 22 27 26 27 28 27 27 25 27 28 30 29 30 31 32 32 32 36 38 31 30 31 31 33 36 33 32 28 29 34 29 32 30 21 17 23 27 31 26 24 24 27 23 24 25 
23 23 24 23 74 100 81 35 40 102 87 44 23 19 18 17 19 19 17 18 16 18 15 16 15 17 16 16 16 18 23 30 29 30 24 25 27 30 28 25 30 27 30 31 28 29 31 28 30 31 31 35 31 33 29 31 31 30 33 31 33 32 31 34 32 33 36 31 26 19 23 27 30 25 27 26 25 24 24 22 
46 36 36 38 91 109 82 32 44 102 89 41 20 18 19 17 16 20 19 17 15 17 15 16 14 13 16 15 15 20 20 28 28 25 25 27 25 26 28 31 29 27 30 32 28 30 29 31 33 31 31 31 31 33 33 29 33 31 30 32 31 32 32 32 33 32 32 31 29 20 15 25 26 27 22 24 28 25 21 26 
104 103 95 94 113 108 69 30 52 102 85 40 22 21 16 15 15 17 20 18 17 17 18 15 15 14 15 16 17 20 17 24 25 25 26 23 26 26 26 24 30 29 32 27 29 29 30 27 28 33 33 34 31 32 31 30 33 30 31 31 32 31 33 32 31 34 31 30 31 22 15 21 27 26 26 29 27 22 22 22 
102 104 101 103 104 91 58 33 57 103 84 32 20 15 20 17 17 19 17 17 19 18 18 18 13 13 18 18 15 18 18 26 26 24 24 25 27 28 28 27 28 28 28 32 27 30 31 27 32 32 32 33 32 29 30 30 31 31 33 33 33 31 33 31 34 31 32 35 31 29 18 17 22 24 24 29 25 23 20 24 
61 66 77 83 83 70 39 32 64 109 87 36 21 18 20 22 21 19 19 18 20 17 18 19 20 14 19 16 21 20 21 25 31 27 28 28 28 27 30 29 33 32 29 29 29 33 31 33 30 34 33 35 33 33 30 32 32 31 33 33 33 36 38 35 31 32 33 33 33 32 28 20 22 19 23 24 25 22 23 24 
32 30 29 33 36 32 33 34 69 116 89 39 22 22 21 20 22 19 20 19 20 21 19 20 18 18 21 20 21 22 21 29 29 32 26 27 28 28 33 30 33 30 31 34 34 32 31 32 33 34 33 33 33 35 36 33 31 34 33 35 34 35 34 37 35 36 36 34 33 33 32 28 19 16 19 20 21 22 25 20 
49 45 35 30 31 26 32 38 77 120 89 35 22 23 22 19 22 19 21 19 20 20 21 21 16 18 19 19 20 19 21 29 29 30 29 26 28 31 30 32 32 32 33 30 28 29 30 32 30 31 32 36 33 39 33 33 30 37 34 32 33 34 34 36 36 34 33 34 31 33 32 31 30 21 17 19 17 15 21 17 
108 103 95 84 77 70 69 64 98 122 91 36 24 22 24 19 21 17 23 20 18 22 21 20 20 18 18 20 20 18 21 30 26 29 26 27 31 32 31 34 31 30 32 34 30 30 31 32 31 34 32 30 33 33 34 33 31 33 33 31 32 34 32 32 35 31 35 31 34 33 33 31 30 30 28 29 27 23 22 23 
106 109 109 103 105 102 101 99 110 109 78 30 24 24 24 24 24 21 23 23 22 22 19 18 21 20 21 20 22 20 20 27 30 30 31 30 29 31 33 33 30 33 33 33 33 30 32 33 32 31 33 37 35 34 33 32 31 33 34 32 30 32 34 32 35 36 34 35 36 33 36 33 33 29 29 32 30 23 28 25 
63 71 78 79 86 92 95 94 98 91 59 22 23 23 22 21 25 21 22 23 23 23 21 24 22 21 23 22 22 19 22 26 30 28 30 30 30 31 36 33 36 33 30 31 32 29 33 33 31 33 32 34 34 34 32 33 32 31 33 33 31 33 35 33 34 36 34 37 35 33 37 36 33 31 30 28 28 27 28 28 
27 30 33 31 37 40 45 49 52 46 32 24 21 24 24 22 25 21 22 24 24 25 24 26 20 21 24 26 24 20 22 29 31 32 27 29 30 34 32 33 30 32 34 31 33 32 34 32 33 34 31 33 32 36 33 34 34 34 34 32 35 36 34 36 34 36 35 36 37 32 35 34 33 32 30 26 26 26 28 28 
25 24 23 22 28 25 34 28 30 26 27 26 22 24 21 24 24 26 24 24 28 28 24 25 22 23 21 24 24 24 24 31 32 32 29 29 32 33 34 33 36 38 34 35 33 32 33 33 35 37 31 35 37 36 37 34 32 33 32 34 35 35 36 37 34 36 36 35 36 37 35 33 33 35 29 27 29 26 28 28 
25 22 23 21 25 21 31 28 28 29 26 23 23 24 26 25 28 23 26 26 24 25 24 24 24 24 24 24 25 23 21 27 33 31 33 32 29 32 33 34 35 32 34 34 32 30 32 32 30 35 34 38 36 35 34 33 34 34 34 35 35 36 32 37 31 36 32 37 38 35 35 34 37 33 29 31 27 27 32 30 
26 23 22 25 28 22 28 26 28 30 27 21 23 25 29 24 28 26 26 25 28 25 26 27 23 23 25 24 26 26 26 33 32 31 31 30 30 34 32 35 35 35 34 35 33 32 32 33 31 36 36 36 35 37 38 34 32 34 33 34 33 41 35 38 38 37 38 40 36 37 34 35 37 35 34 30 29 32 30 31 
25 26 22 19 24 23 27 26 29 26 27 21 24 25 25 27 25 26 29 29 25 24 26 27 24 26 27 23 29 24 22 30 31 33 31 31 33 29 33 34 34 33 31 37 33 33 31 32 32 35 34 35 35 39 31 32 34 34 33 35 37 35 35 37 40 38 39 36 36 35 33 36 35 35 30 30 26 27 32 32 
26 29 27 23 25 28 30 24 29 26 24 25 25 28 27 26 26 27 26 29 25 28 30 30 27 28 28 29 31 24 24 33 33 33 31 33 34 31 32 34 31 37 33 35 36 34 36 33 36 39 35 36 37 38 35 34 32 36 35 35 38 36 35 36 39 33 40 37 39 38 35 36 34 35 31 33 31 31 33 35 
27 28 26 24 26 23 29 29 32 28 26 29 23 26 26 27 25 28 30 31 27 29 29 31 28 27 28 28 31 27 26 35 33 36 33 32 34 32 35 36 35 35 36 33 34 36 37 36 36 38 36 36 39 38 36 32 37 36 37 36 36 36 36 36 38 34 34 39 38 35 38 35 35 34 32 29 35 30 36 37 
27 23 29 26 25 23 30 28 33 26 26 25 25 27 30 26 25 30 28 29 29 29 27 28 29 30 31 30 32 29 26 33 34 35 32 32 33 33 32 33 38 35 35 33 33 35 39 34 33 39 34 37 35 38 38 34 38 36 37 32 35 37 37 35 35 34 36 37 36 37 37 35 35 33 34 32 35 29 38 36 
25 20 26 25 23 24 28 28 35 29 24 23 27 25 30 27 28 27 31 28 25 31 30 30 30 31 30 31 33 30 26 30 32 35 34 32 35 33 33 35 33 37 33 32 35 35 35 35 35 36 35 36 35 36 35 34 35 34 34 30 30 36 34 35 36 35 35 34 38 38 38 33 36 36 31 30 38 38 39 49 
26 24 26 27 26 24 29 27 33 26 26 25 27 27 30 29 30 28 33 28 31 31 31 33 30 32 32 35 32 31 33 31 36 36 31 33 33 38 33 35 33 34 36 35 36 35 38 35 34 33 38 36 37 35 36 36 33 34 34 35 33 38 32 33 35 36 38 39 41 38 36 38 34 37 30 38 54 46 44 51 
27 29 27 28 28 26 29 27 32 27 27 26 26 29 30 33 31 31 35 34 33 32 34 32 33 33 37 31 33 31 30 34 35 35 35 34 36 35 36 34 36 38 38 36 38 37 33 34 34 38 40 33 36 35 36 34 33 38 35 34 37 34 35 36 38 36 40 38 39 34 38 37 39 35 31 34 39 40 46 42 
26 25 27 26 28 24 32 26 33 29 26 25 26 27 30 29 31 32 34 33 34 34 34 35 36 38 34 33 35 32 30 32 38 33 34 36 37 35 36 36 39 38 37 37 35 36 36 35 36 33 35 35 36 35 35 35 34 35 37 31 34 36 31 37 36 39 39 37 38 37 37 38 39 35 33 37 40 38 42 40 
29 25 26 25 31 27 31 26 33 31 26 26 28 35 33 33 34 33 32 35 32 33 34 36 35 36 31 35 34 33 29 34 36 36 33 36 35 36 37 36 37 36 36 37 35 35 35 34 36 32 34 36 33 34 31 32 31 38 33 33 34 36 34 35 35 38 36 36 39 35 38 41 41 40 34 41 43 40 44 41 
27 20 27 24 28 28 35 36 34 31 26 28 28 30 32 32 30 34 34 35 33 36 37 38 34 37 35 38 34 36 33 35 37 38 35 35 35 35 39 36 37 38 37 40 33 34 34 33 33 34 36 35 34 36 34 30 31 32 35 33 32 37 34 36 35 37 37 38 38 40 42 45 46 48 53 61 74 84 102 113 
26 26 27 29 28 29 34 33 34 32 29 29 27 34 28 33 36 35 38 37 38 38 39 38 40 39 36 35 35 33 29 32 36 36 36 35 37 38 39 33 37 36 34 38 36 37 35 32 36 35 36 34 33 34 33 34 33 34 37 35 36 37 37 36 35 36 41 40 40 49 71 85 93 106 118 126 138 151 173 197 
25 28 28 25 30 30 35 34 35 32 28 29 31 34 32 32 35 37 41 39 38 41 43 41 41 40 38 37 36 37 33 33 36 36 38 38 36 39 40 37 39 39 33 37 35 36 36 38 34 37 37 37 39 36 33 32 31 37 34 31 36 38 39 36 39 38 38 43 42 68 112 128 138 142 149 162 175 186 210 229 
27 29 27 28 29 29 36 32 32 32 27 31 32 35 35 35 37 38 39 41 38 47 43 42 39 39 37 39 36 36 33 31 33 36 35 38 38 38 38 40 40 40 36 41 35 36 35 36 33 35 36 38 37 38 34 30 33 36 34 35 37 36 37 39 37 40 42 44 46 78 121 150 160 167 174 191 206 216 239 251 
28 28 26 28 33 31 37 35 33 36 31 34 36 36 33 34 40 36 40 40 41 43 44 43 42 42 46 48 40 41 42 39 33 36 36 42 39 38 40 38 39 39 35 39 38 36 36 35 34 35 38 36 35 37 36 32 34 35 37 36 36 36 35 40 36 39 40 42 43 75 122 155 167 175 181 200 211 227 250 256 
30 29 28 28 29 32 36 34 35 36 30 36 34 36 34 37 37 38 41 41 39 43 42 45 45 50 49 53 45 45 43 39 34 36 37 40 37 37 40 40 38 40 37 39 37 33 36 35 35 36 35 38 37 34 31 33 33 34 34 32 34 41 38 39 33 38 40 41 43 68 119 154 170 178 185 196 214 224 244 261 
30 28 32 30 32 32 36 30 35 35 33 30 34 35 34 38 38 39 39 39 43 43 42 44 42 48 53 50 47 44 43 40 36 40 39 39 37 37 37 41 39 42 39 39 35 38 37 35 34 38 36 36 35 35 34 34 33 33 34 35 35 37 39 37 35 37 40 41 45 63 114 150 166 176 183 196 204 221 244 257 
31 30 31 33 31 33 35 33 37 38 32 34 35 39 37 38 39 40 41 44 45 46 43 46 45 47 53 51 47 47 45 41 37 37 41 41 38 42 45 42 40 41 41 42 36 35 35 36 31 36 38 36 40 37 34 36 34 35 36 34 37 38 37 35 39 40 42 40 44 62 112 145 161 172 178 191 200 216 242 252 
32 30 34 31 29 32 37 34 39 41 39 37 36 36 39 41 40 44 44 44 47 49 48 48 48 51 52 51 46 48 48 42 36 37 42 40 42 41 43 42 40 39 39 40 37 41 36 36 38 34 34 36 36 38 38 38 37 36 36 37 38 38 37 39 40 37 41 41 49 58 105 141 159 168 177 189 202 216 240 253 
33 33 33 31 35 34 42 38 39 39 35 35 36 40 40 40 41 47 45 47 51 51 51 47 51 50 55 53 50 47 48 43 37 39 41 41 42 42 41 42 45 42 40 41 39 38 36 35 36 38 39 38 40 40 42 45 42 37 36 38 39 38 38 40 40 42 41 42 45 58 105 141 158 168 175 185 201 211 235 246 
35 34 34 34 39 35 40 39 42 44 40 38 41 38 41 42 44 45 49 50 52 54 52 52 53 54 59 55 49 51 51 45 40 41 42 44 43 44 43 45 43 44 41 40 39 37 40 38 36 39 39 40 42 43 49 50 47 47 43 37 36 38 39 37 40 41 39 43 45 57 101 134 155 170 170 178 185 184 222 246 
41 36 38 39 42 40 45 42 45 45 42 42 44 47 46 44 48 50 51 53 56 54 57 60 56 60 56 60 51 55 51 50 44 42 43 49 44 47 46 46 44 46 43 42 41 39 43 36 39 41 41 41 43 49 54 68 82 67 55 41 41 40 42 42 41 44 42 44 45 53 101 137 156 165 170 176 177 165 219 248 
41 42 41 43 41 41 51 45 44 48 44 42 43 47 48 51 52 52 54 56 58 61 62 64 60 64 64 65 62 60 58 52 48 45 47 49 48 49 48 46 49 47 46 44 43 43 44 41 42 43 46 43 47 49 81 197 170 107 64 46 46 42 43 41 43 44 47 46 50 53 95 135 158 165 172 182 182 194 231 247 
48 42 45 47 46 51 50 48 51 48 47 44 46 50 48 48 55 56 60 59 66 65 67 69 66 65 67 64 61 63 59 52 47 47 51 53 49 48 49 44 46 46 48 45 46 42 44 44 44 44 44 47 47 52 97 243 186 108 62 46 42 43 42 39 40 46 46 48 52 56 93 132 156 162 170 181 196 206 227 238 
52 48 50 50 50 49 53 53 52 51 50 51 49 52 54 51 58 58 62 65 67 68 72 72 71 71 73 69 66 61 59 57 48 48 51 55 52 50 46 43 45 49 49 45 48 43 45 43 45 45 43 43 44 50 66 99 95 74 57 45 42 40 42 41 42 42 43 45 46 51 89 126 154 168 167 179 191 206 222 237 
55 52 57 55 57 54 64 58 57 57 54 53 53 57 59 57 62 62 66 69 70 74 78 82 81 78 82 78 69 67 61 56 53 51 52 54 53 48 45 49 47 51 51 48 47 49 46 48 47 45 48 49 49 51 53 56 62 56 50 49 42 45 41 43 38 42 44 44 45 53 87 130 154 165 172 184 197 207 223 234 
72 69 69 56 58 54 63 59 58 56 53 56 57 60 62 59 62 63 70 73 77 76 79 84 86 85 87 82 71 67 61 60 52 54 52 54 56 56 61 75 51 54 51 51 47 52 49 46 46 51 51 50 48 53 49 50 53 51 51 46 46 42 43 41 41 44 47 44 45 49 82 137 155 167 172 182 195 207 225 234 


