P2
80 60
260
21 21 24 25 33 50 81 95 75 45 59 89 87 47 41 37 32 30 27 25 27 26 24 26 24 27 25 27 31 34 34 31 31 29 29 31 30 26 25 26 29 27 29 28 26 30 29 28 26 24 17 19 18 18 19 17 18 18 19 18 19 22 22 21 27 23 24 23 27 26 22 23 23 20 19 19 19 16 18 14 
25 27 21 26 34 54 87 98 66 40 65 95 84 43 38 37 33 31 27 27 27 27 25 26 25 22 25 26 30 31 34 30 31 34 29 27 26 28 28 29 25 29 28 27 25 27 30 29 29 19 18 17 18 18 17 18 20 17 17 20 21 18 20 22 26 24 24 25 28 23 24 24 21 17 19 19 18 18 13 16 
19 24 22 26 35 51 92 94 61 45 67 92 77 42 41 33 29 28 29 26 26 26 24 27 24 26 29 29 29 32 32 32 29 26 27 31 28 31 30 29 28 30 28 25 27 31 30 30 29 25 22 20 21 20 17 19 21 20 20 26 24 25 28 27 31 24 23 22 22 23 22 26 19 20 19 24 18 21 11 11 
17 23 21 30 33 49 94 97 53 46 75 95 72 40 33 31 28 31 28 26 28 27 25 26 24 29 28 29 33 31 32 31 28 27 29 27 28 25 28 24 25 27 25 26 29 29 29 28 28 26 24 24 27 23 26 26 25 27 28 31 30 28 30 30 30 30 22 20 26 19 22 27 23 26 20 19 16 19 13 11 
15 24 22 32 38 63 105 96 55 42 78 93 65 37 31 31 27 26 29 23 24 22 27 30 26 28 26 32 32 29 36 30 29 26 28 28 27 23 27 26 26 29 29 26 28 31 28 30 29 31 29 27 29 30 32 32 30 31 28 33 29 30 33 30 27 26 24 25 28 26 20 24 21 24 18 21 21 14 10 20 
16 19 25 33 37 71 98 88 50 48 85 91 60 34 28 27 27 25 26 26 27 26 28 28 25 27 26 30 31 31 33 32 29 30 29 29 30 26 27 29 22 24 28 28 29 30 30 29 31 32 28 28 31 28 27 29 31 30 29 29 28 29 24 30 25 25 24 21 25 22 22 25 21 25 19 18 21 18 20 12 
15 25 26 36 35 70 100 85 46 47 86 87 54 30 30 29 26 26 28 25 23 24 24 28 24 29 24 25 31 30 32 29 29 29 27 27 28 28 28 28 26 25 27 26 26 27 29 28 30 31 29 30 28 29 30 31 28 25 30 28 27 27 28 28 29 26 28 25 26 27 24 27 20 25 24 21 20 15 15 15 
8 15 21 30 33 70 97 76 43 46 87 83 45 27 25 24 23 22 25 24 22 22 23 22 23 22 23 23 26 27 30 28 28 25 27 26 24 25 28 24 26 28 30 24 27 23 24 25 23 27 28 26 28 29 27 24 24 25 28 23 28 25 29 27 27 24 24 23 24 25 24 25 21 20 21 21 18 13 15 18 
8 12 14 28 26 68 99 72 40 47 92 82 45 27 22 25 22 23 22 22 26 26 20 24 21 21 21 24 27 28 32 29 27 27 27 26 26 24 28 26 27 27 27 28 26 26 27 27 27 28 23 26 27 25 27 27 26 26 26 27 27 28 31 29 30 29 27 24 26 26 24 29 24 22 23 19 17 18 18 18 
4 5 2 0 10 73 95 67 35 51 99 83 43 26 23 25 18 20 19 23 24 23 23 22 25 23 27 27 27 28 30 27 27 30 30 27 26 26 28 28 29 29 30 28 28 30 29 29 27 26 24 28 25 26 27 26 26 30 30 30 30 32 30 29 35 28 28 20 27 26 28 27 23 27 23 22 19 19 20 17 
11 16 10 2 14 80 98 62 30 55 105 83 28 15 12 18 14 19 19 21 21 20 20 20 21 21 26 24 23 26 29 29 23 26 27 23 24 26 25 27 25 28 27 28 27 28 28 25 25 27 27 21 27 26 23 27 27 28 30 32 31 33 30 30 29 26 28 22 26 29 26 26 23 24 18 20 19 19 19 20 
14 19 18 16 18 89 100 58 25 58 101 75 21 12 10 12 6 12 13 15 16 19 20 21 22 21 20 21 23 23 31 27 27 28 25 25 24 24 25 29 26 27 27 28 27 28 28 26 27 23 25 28 29 28 27 27 28 29 32 38 30 33 29 32 30 29 27 24 23 25 25 29 24 25 23 22 20 21 17 18 
13 16 17 17 16 84 93 59 27 61 102 70 17 13 9 13 11 8 8 7 5 8 7 11 11 17 18 18 19 22 25 23 23 23 23 22 25 23 27 25 26 28 26 28 25 27 28 24 24 29 24 30 28 29 30 28 28 29 28 28 31 32 29 30 30 31 27 23 23 23 25 27 23 24 20 19 23 18 19 17 
12 14 18 16 22 90 87 50 31 72 102 67 24 13 13 9 10 9 9 7 9 7 7 8 5 7 7 12 9 9 13 11 18 22 23 20 23 24 28 23 29 30 25 25 25 25 24 28 31 30 29 29 28 29 30 29 28 27 29 30 30 31 30 30 30 32 28 21 24 26 29 28 25 26 24 23 22 19 17 17 
11 15 18 18 33 89 78 47 28 79 98 59 22 13 15 11 14 9 9 8 6 6 5 5 5 8 7 10 9 9 12 9 7 8 8 14 19 24 26 24 27 23 29 27 25 28 28 31 27 30 31 32 31 33 30 28 28 30 29 29 32 31 27 28 32 30 28 24 25 24 26 31 27 26 21 25 22 18 18 11 
12 16 16 15 34 92 80 39 29 80 95 57 21 12 14 13 14 13 12 8 9 8 6 11 7 10 9 4 6 10 8 9 8 7 8 18 19 24 23 25 22 24 26 27 25 28 28 28 29 27 29 28 29 30 32 31 31 30 31 30 31 30 31 28 30 31 31 24 21 26 25 29 28 27 25 24 23 22 15 21 
11 17 17 17 41 95 75 36 27 84 90 52 20 12 15 15 12 12 11 11 8 10 10 10 10 6 7 5 12 11 10 9 10 20 22 22 25 27 23 20 22 27 25 25 26 26 30 27 28 29 28 30 32 32 30 29 29 29 27 32 30 32 32 28 28 30 31 27 25 22 27 26 25 24 24 22 23 22 20 19 
17 16 18 20 45 98 77 35 28 89 86 47 22 18 17 16 14 13 14 12 12 12 10 14 10 9 11 7 11 12 14 18 20 29 26 22 26 24 27 23 26 31 30 28 28 27 30 30 29 31 31 31 34 31 31 32 31 31 33 32 35 32 31 30 28 30 31 27 26 25 29 28 28 24 27 25 24 24 19 20 
13 16 20 19 45 91 66 30 29 88 81 43 18 13 17 14 12 11 15 11 11 11 10 11 8 10 8 11 10 11 19 23 23 24 25 22 25 25 26 26 25 24 29 27 28 30 28 26 28 29 28 30 31 30 29 29 26 30 31 31 32 30 32 32 30 30 32 29 24 21 21 25 26 26 25 25 26 23 21 20 
16 16 18 19 58 96 71 31 31 87 83 43 19 14 14 15 18 15 16 12 12 11 12 12 14 11 11 11 11 15 20 29 27 27 22 21 26 24 26 25 27 26 22 24 27 26 27 28 29 28 30 30 33 29 30 30 29 29 31 34 31 31 28 30 32 29 32 26 25 20 25 26 27 27 26 24 29 26 19 21 
18 23 22 23 71 101 72 34 36 96 82 40 22 15 17 17 17 15 15 12 12 11 13 13 12 15 11 13 13 16 20 25 26 28 23 22 23 25 23 26 28 26 27 29 27 29 29 30 30 30 31 30 31 30 28 29 28 28 32 31 31 33 32 32 32 33 32 30 26 23 23 29 30 25 25 24 25 26 26 23 
44 39 36 38 86 105 74 28 42 99 80 37 18 17 19 15 16 17 17 12 14 14 12 13 10 10 11 10 14 15 16 21 25 25 22 23 23 25 24 27 28 26 28 28 28 29 26 28 31 27 29 31 33 31 32 29 28 30 31 28 33 33 32 34 30 31 31 29 29 25 19 25 27 25 22 23 27 25 21 18 
100 97 91 89 106 107 60 27 48 96 80 36 18 17 14 14 14 13 14 15 14 12 13 13 10 12 11 12 13 14 14 21 26 24 25 20 24 26 24 22 28 29 29 28 26 29 29 30 28 28 31 33 30 28 29 29 29 28 29 30 32 29 32 33 30 33 32 29 27 24 20 26 27 24 24 24 26 25 24 22 
99 100 103 103 100 96 51 31 55 98 79 30 18 13 16 17 14 12 17 15 15 15 13 13 11 9 13 14 13 16 13 22 24 23 23 22 24 25 24 25 27 27 27 29 29 29 27 27 31 28 31 30 32 26 30 29 31 32 31 31 34 32 32 29 34 30 33 31 29 27 23 23 25 26 21 26 26 23 21 22 
56 65 76 83 76 69 35 30 62 105 80 31 23 16 17 19 19 16 18 17 15 16 17 16 17 12 14 13 15 14 19 21 27 24 26 28 29 25 28 27 29 28 29 28 31 30 29 32 31 32 30 32 32 31 30 28 30 31 34 33 35 34 35 32 33 32 33 33 31 30 27 25 25 23 26 25 27 28 25 23 
27 31 30 30 29 29 26 31 64 107 83 34 20 19 19 20 20 20 18 17 18 16 16 18 18 17 17 16 16 16 18 24 26 29 26 27 27 27 28 28 30 29 28 32 31 30 27 30 30 33 33 31 32 32 34 32 32 30 32 33 34 33 32 37 33 35 34 31 31 34 30 30 27 21 21 24 26 29 22 20 
41 44 35 33 23 27 26 37 73 113 83 32 20 20 21 19 20 15 19 18 15 17 20 20 16 16 14 14 15 17 17 25 29 27 27 26 24 29 28 29 31 30 31 29 27 27 29 29 29 30 32 33 30 33 32 31 29 32 32 32 33 34 32 33 32 35 33 32 32 34 32 29 27 26 20 22 25 21 20 22 
109 111 99 90 75 72 63 65 93 119 85 29 22 20 22 17 19 15 20 16 13 14 16 20 17 17 16 17 14 17 17 25 27 26 25 25 25 28 28 28 28 29 28 30 28 30 27 30 30 31 31 29 34 30 33 31 27 32 30 31 32 33 31 33 34 29 36 31 32 30 27 31 30 29 25 28 27 28 23 25 
104 114 113 108 100 101 95 98 109 105 78 25 22 19 19 21 20 19 22 20 17 17 17 18 17 14 19 16 17 17 18 22 28 26 29 28 27 28 30 31 30 31 30 31 30 28 31 31 33 28 33 32 32 31 33 30 29 31 30 30 31 32 31 32 35 33 34 31 33 34 33 33 30 28 29 30 28 30 23 27 
58 69 76 79 77 92 88 93 97 89 57 21 22 19 20 19 21 18 20 19 18 21 19 21 19 18 20 17 19 17 18 22 26 28 32 30 27 31 32 31 33 31 30 30 31 30 30 29 30 31 31 33 31 32 34 30 32 31 32 31 33 34 34 32 35 35 36 34 35 33 35 34 34 30 30 27 28 29 27 29 
24 28 36 29 29 38 39 45 51 43 27 21 19 20 21 20 20 19 22 20 23 23 20 20 17 21 18 20 19 18 18 25 29 27 27 28 28 32 32 29 30 31 34 31 29 30 31 30 32 32 32 34 31 30 31 29 33 31 32 32 36 35 33 35 32 32 34 31 36 32 33 33 29 29 27 25 28 28 29 29 
22 27 24 23 22 26 24 28 29 29 25 21 21 23 21 22 22 22 20 18 22 21 20 22 21 21 18 20 22 20 21 25 32 26 30 26 27 31 33 30 33 33 31 32 32 31 29 29 33 37 34 35 35 33 33 30 30 31 34 33 36 33 37 36 34 33 37 34 33 34 33 35 33 35 30 29 32 32 28 25 
18 24 26 23 20 23 23 27 26 29 23 21 21 20 24 23 24 22 22 24 21 22 23 23 21 19 23 25 22 18 20 26 29 29 29 30 26 28 31 27 30 32 32 30 30 30 30 29 29 34 34 35 35 31 34 31 31 30 33 34 35 35 35 34 33 36 34 33 36 33 29 32 31 34 32 31 31 33 29 31 
17 24 26 25 20 22 22 22 26 28 22 21 22 23 24 22 23 25 25 22 24 25 26 25 24 22 20 22 23 23 20 27 31 27 29 26 29 33 30 30 35 32 33 32 31 30 30 30 30 36 36 32 30 31 35 32 30 31 33 35 35 40 35 36 35 35 34 36 35 34 36 36 36 35 37 30 34 34 32 31 
17 26 23 21 17 23 23 26 25 25 26 23 22 21 24 24 23 24 25 27 22 24 25 24 23 24 22 23 24 19 22 26 28 29 30 30 31 29 29 31 33 31 30 34 31 29 28 30 33 37 36 33 36 34 33 31 32 33 31 36 39 38 34 35 35 34 34 35 34 37 31 35 39 34 35 30 30 31 30 32 
20 29 29 25 19 26 22 23 28 25 24 22 22 25 27 25 25 23 23 24 25 27 22 28 22 23 22 24 26 23 20 27 29 34 31 31 31 29 31 29 31 33 30 33 32 30 31 30 33 36 33 34 35 34 35 31 31 33 33 36 37 35 35 33 37 37 34 34 34 36 33 35 34 35 39 33 32 34 35 38 
22 25 28 23 20 24 21 27 31 32 25 21 23 25 24 25 25 25 24 27 22 23 24 27 24 23 22 24 27 24 25 29 31 33 31 31 33 31 32 33 35 33 32 30 31 34 34 37 33 34 36 34 36 33 35 32 36 34 34 34 38 36 37 37 37 33 36 36 32 35 35 37 33 36 35 30 31 36 36 38 
19 23 28 26 20 26 24 25 30 28 23 24 24 24 26 23 25 26 28 27 26 27 24 27 28 27 27 27 29 26 23 27 33 32 31 30 33 33 30 33 34 33 37 32 32 33 32 36 35 39 35 34 33 36 35 31 34 34 34 33 35 36 36 35 35 32 36 35 35 37 33 38 33 32 35 32 34 36 38 44 
20 22 26 25 21 26 21 24 32 25 24 21 23 25 26 27 27 26 27 28 24 28 27 28 27 28 26 27 29 25 24 28 30 35 34 29 32 30 31 32 32 36 33 31 34 33 32 33 33 34 34 37 34 33 34 32 33 33 33 34 34 35 36 35 35 34 36 32 35 34 34 35 34 35 33 33 38 41 43 49 
22 21 26 25 21 26 23 24 31 25 21 24 21 22 27 27 28 27 29 28 26 28 27 31 29 28 27 29 30 26 30 29 33 34 31 31 30 33 35 31 33 34 36 34 33 34 34 33 33 33 34 35 34 34 34 34 36 32 33 36 32 37 38 31 36 35 38 37 36 35 34 36 35 32 33 37 45 48 44 47 
19 26 25 25 21 28 23 25 29 28 25 25 23 24 29 30 31 28 30 27 30 29 29 31 33 29 30 28 30 27 27 30 34 32 33 31 31 34 33 31 35 37 35 32 33 36 33 34 34 35 35 31 35 35 34 32 33 37 31 36 36 35 35 32 35 35 36 34 35 35 35 38 34 33 34 34 37 38 42 41 
23 25 24 27 24 26 24 25 29 31 25 26 26 28 29 28 30 31 30 30 32 31 30 32 30 31 29 29 30 27 26 27 35 33 33 33 33 33 36 34 35 36 35 35 32 37 35 33 35 31 33 34 34 36 33 33 33 34 35 33 38 34 32 36 36 35 35 34 38 38 34 40 37 35 33 37 38 38 42 42 
20 25 24 26 26 30 26 29 30 28 24 24 27 28 29 31 27 29 31 30 31 29 33 31 31 33 30 30 33 30 29 27 33 35 32 33 33 33 32 33 34 35 35 35 31 34 30 33 33 31 34 36 31 33 30 30 30 32 30 30 33 33 32 35 36 32 36 31 36 33 38 40 39 37 38 40 39 41 44 43 
20 23 25 27 22 30 28 31 31 31 24 25 27 29 29 30 27 33 33 31 33 32 34 37 32 33 31 33 33 30 29 28 36 37 34 33 33 34 36 34 36 36 33 31 31 31 31 31 35 34 34 33 35 31 31 26 28 30 32 34 36 36 33 35 34 35 36 37 37 37 39 43 45 47 53 55 68 80 97 113 
21 26 25 25 20 30 29 31 29 31 26 28 30 32 29 34 29 35 32 30 36 32 35 33 36 34 32 33 29 29 29 28 33 35 33 35 37 36 35 35 36 34 33 32 35 33 31 29 33 34 34 30 29 29 33 31 30 32 34 35 37 35 35 36 37 36 39 38 38 46 68 83 95 104 113 124 136 147 168 193 
21 28 27 25 27 30 30 32 29 30 28 26 31 30 33 32 32 34 33 35 35 37 36 40 38 36 35 30 31 34 30 28 34 34 36 35 34 38 35 34 38 36 30 34 35 34 32 34 33 37 35 32 33 32 34 29 28 35 33 34 38 35 37 37 39 38 38 39 39 66 105 123 136 140 146 157 163 185 204 226 
22 27 27 28 23 28 28 29 30 30 25 28 30 35 32 33 31 35 37 36 39 40 34 38 38 35 35 32 31 32 31 26 31 34 36 35 35 35 36 36 37 35 36 35 34 34 34 33 32 35 34 33 34 32 31 29 32 32 34 34 36 36 35 36 35 35 42 41 43 76 117 149 158 163 173 183 198 215 235 250 
23 25 28 25 29 33 28 30 29 32 28 26 30 32 32 32 33 34 36 35 37 36 40 40 40 38 39 41 38 36 37 33 33 34 34 38 35 34 35 36 38 39 36 34 32 34 32 34 33 31 32 33 33 31 31 29 29 32 33 32 34 36 33 35 32 34 39 39 37 71 119 152 167 176 182 194 206 226 247 255 
23 27 29 28 21 32 30 30 33 34 27 30 33 33 30 38 35 35 39 37 38 37 38 38 42 45 43 46 43 40 40 35 35 37 37 36 35 35 41 38 37 36 36 37 34 32 33 34 33 33 32 33 36 29 30 33 32 31 32 29 35 40 37 35 35 35 39 40 41 67 114 151 166 176 182 189 209 222 241 255 
24 24 26 27 25 30 29 29 30 35 29 29 31 31 36 34 34 35 37 37 38 41 37 41 41 44 44 47 43 41 40 36 32 32 38 36 34 37 36 37 37 39 34 36 33 34 33 32 31 35 35 31 34 31 34 32 32 32 32 33 35 39 36 35 35 36 38 37 40 64 110 148 165 173 181 189 201 220 237 253 
27 29 30 31 27 31 29 31 33 37 29 30 31 35 33 36 35 36 39 38 41 41 42 42 41 42 48 48 46 48 41 35 36 36 40 38 37 38 43 40 38 40 38 36 35 35 35 32 32 34 31 32 35 34 34 34 32 33 36 32 37 37 36 36 39 39 40 41 39 62 110 141 159 170 175 190 201 218 235 252 
25 29 33 31 28 33 30 31 38 39 35 31 32 36 37 37 37 39 40 39 41 44 41 44 44 45 50 46 45 44 42 37 34 36 40 37 38 40 38 40 40 39 37 35 35 38 34 32 36 34 31 34 35 33 36 34 36 33 35 35 37 37 36 38 35 39 40 39 45 57 103 137 159 164 171 187 198 218 234 247 
26 34 34 32 28 37 33 37 36 37 34 30 35 34 40 38 38 42 43 43 48 50 46 47 47 45 51 51 48 45 45 40 35 36 42 41 40 39 39 41 42 41 36 37 38 34 34 34 35 36 36 37 37 37 40 43 40 37 38 39 36 36 36 37 39 39 41 35 43 52 100 138 158 166 173 181 196 209 229 248 
29 36 35 34 34 36 36 37 40 40 39 36 40 38 41 39 40 41 47 45 48 50 51 51 50 50 54 52 53 48 47 41 37 39 44 42 41 42 41 42 40 40 37 39 37 36 38 35 37 35 37 37 39 42 47 48 42 44 40 37 38 40 39 38 42 38 37 38 39 55 97 135 153 163 168 178 180 185 215 249 
34 38 36 39 36 41 40 39 41 40 39 40 42 43 44 43 45 47 47 50 52 54 53 55 53 53 54 56 54 52 50 44 40 39 43 44 42 42 43 44 43 43 42 38 40 37 41 35 39 38 38 39 41 44 51 67 78 64 50 41 42 39 42 40 44 44 42 45 43 52 96 133 156 161 166 171 170 164 214 260 
33 42 42 41 36 42 43 45 44 43 41 38 43 46 46 48 49 49 52 52 56 58 60 57 58 60 60 61 58 56 55 47 46 44 45 50 46 48 46 46 47 47 46 43 41 41 40 39 40 41 42 42 45 45 80 195 168 105 62 47 46 43 42 41 46 45 46 40 46 52 93 131 155 164 170 178 186 196 227 247 
41 45 44 48 40 46 43 44 44 49 48 42 45 45 47 52 49 53 57 58 61 62 64 64 65 63 62 63 60 61 56 47 44 48 51 50 48 46 49 45 45 44 49 41 42 43 42 41 42 43 41 43 44 48 96 242 181 104 59 46 45 44 42 41 42 43 50 46 49 55 91 129 152 167 170 177 192 205 224 239 
47 49 50 49 48 51 49 52 47 54 51 47 49 49 52 52 54 57 61 64 65 67 65 65 70 68 67 64 64 59 56 49 46 47 50 55 49 48 45 42 45 47 47 41 45 42 43 41 43 43 42 42 45 48 64 97 91 70 53 46 45 42 42 40 43 45 48 43 44 51 88 125 155 166 169 178 191 210 223 241 
54 57 62 57 52 57 55 57 53 55 55 50 56 53 57 55 56 61 61 63 66 72 73 80 80 74 77 76 69 62 57 52 48 50 54 51 50 45 44 45 49 49 46 45 45 45 44 46 45 45 43 46 44 46 49 56 57 55 50 46 45 43 41 42 40 43 43 43 44 50 81 126 152 163 175 182 192 211 224 234 
74 73 70 60 53 59 57 60 55 59 52 50 60 57 60 59 58 63 69 73 76 76 81 84 82 85 84 77 69 64 59 56 49 51 54 56 53 54 61 75 53 50 54 49 49 48 50 46 47 50 49 45 47 47 49 51 51 50 47 44 47 42 43 44 45 45 44 42 43 46 74 134 152 168 172 182 195 212 227 238 


