P2
80 60
221
104 110 119 118 122 118 109 108 103 107 107 108 109 113 116 111 112 120 134 143 179 187 146 129 171 192 154 127 129 133 131 129 123 123 119 121 121 123 122 124 123 123 122 118 118 117 116 115 111 117 136 169 189 203 203 193 190 205 190 159 137 118 110 105 100 102 107 107 106 105 101 101 95 98 98 99 96 90 95 96 
108 104 115 119 118 123 123 127 120 118 111 105 103 102 101 102 114 120 131 145 182 181 139 130 175 191 150 127 130 134 130 128 122 124 123 119 122 122 125 122 122 127 117 122 119 116 113 115 112 113 115 122 130 137 149 139 127 126 123 117 116 112 115 111 99 104 104 113 114 110 108 103 100 100 100 96 97 92 94 96 
105 108 113 120 122 120 122 127 122 120 121 116 116 105 98 103 115 123 134 157 189 180 133 133 183 188 138 130 131 134 130 126 126 120 123 120 121 121 121 124 122 124 121 117 115 114 113 111 110 115 110 111 114 119 124 118 114 116 116 115 115 115 116 110 101 103 101 112 114 113 109 107 104 103 98 99 98 91 95 95 
108 107 110 115 122 122 122 127 121 119 120 118 118 117 117 115 115 125 139 164 185 170 129 143 186 183 134 127 128 125 126 125 121 120 121 123 126 124 119 121 124 122 116 118 116 114 114 111 111 113 115 111 112 111 107 114 114 111 114 114 114 111 112 109 100 99 104 107 106 112 113 109 111 108 105 104 100 95 97 95 
118 116 121 117 121 116 130 121 115 118 118 116 121 116 113 115 119 129 139 174 188 154 129 152 192 177 133 128 125 127 122 122 120 121 121 119 122 119 122 120 123 121 119 114 112 110 113 109 110 112 110 110 113 109 110 113 112 110 110 110 112 110 112 106 99 99 103 105 104 103 107 108 113 112 107 104 103 97 98 102 
122 115 129 130 131 137 135 122 117 117 118 119 115 116 115 114 119 132 141 185 191 149 129 160 192 171 129 130 126 126 124 122 122 122 119 117 117 119 120 122 122 124 115 115 114 115 112 109 112 111 111 113 110 110 108 111 111 110 110 110 114 111 110 103 98 100 100 103 103 100 103 106 105 109 108 110 109 104 101 100 
119 114 121 121 125 133 129 118 114 121 117 118 117 119 115 115 124 137 150 186 185 142 132 170 194 161 132 129 122 125 125 123 122 122 117 118 117 118 121 125 120 121 119 116 114 115 113 111 113 111 110 111 113 110 111 110 110 107 113 113 111 110 104 104 99 100 103 108 103 104 101 105 102 103 105 113 109 105 102 108 
118 109 115 114 116 120 121 118 115 118 116 116 115 118 120 117 128 138 156 193 176 131 135 182 191 158 130 125 123 125 125 118 120 116 114 117 116 114 116 117 122 121 119 116 113 114 113 113 110 113 109 109 112 112 108 109 109 110 109 111 108 109 103 103 97 101 100 105 101 101 102 106 102 101 101 105 111 106 107 106 
119 111 112 113 115 118 117 114 113 119 121 116 114 114 118 117 130 138 163 193 174 128 139 187 187 149 127 125 123 123 122 118 116 116 117 116 114 115 114 116 119 121 116 118 112 111 113 113 108 115 111 112 114 109 108 111 109 106 111 111 108 106 101 101 97 98 102 109 101 102 101 105 100 99 104 108 108 106 108 106 
136 84 95 112 115 117 119 115 114 116 114 112 111 114 119 118 130 143 175 196 165 127 145 188 178 142 123 122 120 120 120 118 119 122 117 118 116 118 118 120 122 120 113 113 110 113 109 110 110 110 112 111 110 110 108 107 109 107 109 111 112 109 100 100 98 99 101 102 103 102 100 104 99 100 101 105 105 102 108 107 
103 23 25 56 94 108 120 111 112 115 113 111 111 114 116 117 128 140 187 199 155 128 155 192 173 130 118 121 117 119 116 115 115 119 116 115 117 117 118 121 122 124 119 113 110 111 109 110 109 109 110 110 107 106 110 111 105 111 110 112 112 108 101 99 98 100 101 106 103 103 102 106 102 102 103 104 107 106 106 100 
80 21 3 5 32 82 113 116 109 111 112 111 111 113 120 122 132 149 194 184 148 129 164 196 164 129 120 121 121 118 118 116 117 116 116 120 119 121 119 121 119 126 117 114 110 111 109 108 107 110 111 112 108 106 106 108 110 107 110 110 111 109 108 105 97 102 99 107 107 112 108 108 107 110 108 108 110 110 109 105 
93 34 10 0 5 38 94 103 101 111 107 109 112 112 116 124 134 150 193 182 138 127 170 191 157 128 117 120 114 116 117 115 117 117 116 118 117 117 118 118 117 121 120 112 111 108 113 108 109 108 107 112 108 106 107 107 111 109 113 109 109 110 109 106 100 98 99 110 110 113 114 114 109 110 110 115 110 112 107 107 
117 78 55 32 20 35 80 100 96 97 95 98 101 107 115 123 127 149 200 178 129 121 178 188 148 122 118 115 116 114 115 114 115 120 116 113 120 118 117 120 119 121 117 110 112 114 109 110 108 109 108 111 110 104 103 105 106 108 110 111 110 113 111 108 101 94 101 109 112 113 113 117 110 111 109 114 114 108 107 106 
112 98 96 92 88 86 98 112 110 106 104 94 96 95 94 101 106 144 197 175 123 126 187 186 143 117 111 112 112 116 115 118 120 119 117 112 117 118 115 114 118 123 117 117 112 111 111 111 109 109 109 110 107 103 107 107 105 107 110 108 111 110 111 108 100 98 101 108 108 107 109 108 107 107 105 112 108 104 107 108 
119 108 107 104 105 109 108 112 116 116 114 110 110 105 101 85 93 156 198 167 107 124 192 179 132 115 112 111 113 113 113 115 115 112 112 111 115 116 113 116 119 121 116 115 110 114 108 107 108 111 107 109 109 108 107 108 108 107 107 108 108 108 110 110 99 98 102 106 109 110 109 107 107 107 107 112 110 106 107 105 
117 103 110 107 109 111 114 118 109 115 117 113 117 114 111 111 113 168 201 163 105 132 209 192 121 104 102 107 106 110 110 112 113 115 112 112 114 113 113 114 117 118 116 116 111 110 111 105 108 108 109 114 109 106 107 106 111 109 108 107 108 108 106 106 101 98 101 106 111 109 109 109 108 108 109 109 107 109 107 108 
103 108 111 110 113 112 113 115 113 115 114 113 111 109 114 117 119 181 202 156 109 142 209 180 109 104 100 102 102 105 107 110 110 110 113 111 111 108 116 114 116 118 114 110 109 109 110 109 107 109 109 106 115 111 107 109 107 105 109 109 111 107 106 105 103 100 101 107 108 107 109 109 110 113 109 112 111 109 107 106 
104 105 109 114 113 114 115 117 109 112 115 110 110 109 109 108 118 189 197 148 109 151 208 174 105 102 100 102 99 99 100 102 100 101 104 107 107 110 111 112 114 117 111 110 107 111 109 108 106 108 106 108 109 108 103 108 108 105 108 106 107 107 108 105 101 97 101 99 110 113 114 112 115 113 113 114 111 106 107 107 
103 107 111 117 115 117 117 118 107 114 111 111 111 108 112 109 127 197 185 136 109 166 208 165 106 106 101 101 98 104 101 99 100 99 98 96 102 107 110 110 112 110 108 106 105 107 108 108 108 111 107 106 108 109 108 107 108 108 108 109 109 106 106 106 107 99 101 102 110 111 111 111 113 117 115 112 113 108 110 107 
110 108 115 117 115 120 120 121 109 113 113 115 110 111 110 111 139 196 178 128 111 174 201 154 107 109 106 102 101 102 100 100 98 99 97 98 97 99 97 97 100 99 94 95 97 103 104 106 107 108 108 108 105 107 107 106 110 108 105 108 110 107 108 111 110 103 99 99 110 113 115 115 114 113 115 115 112 110 109 113 
110 106 116 116 117 118 115 117 115 113 113 112 110 109 112 116 145 196 173 122 114 180 198 145 104 106 104 106 102 101 99 99 99 102 97 97 98 97 96 97 96 99 90 89 87 90 95 100 104 105 108 104 105 108 104 107 108 106 108 110 108 109 111 113 112 104 98 101 106 111 113 112 113 112 113 111 110 109 106 108 
113 110 116 117 119 122 119 116 112 112 113 111 111 112 111 114 155 197 169 116 114 189 190 131 105 107 103 101 103 103 101 100 100 102 98 98 101 96 98 99 98 99 92 88 89 84 91 99 102 107 104 105 103 101 100 103 109 105 110 110 110 108 112 112 112 104 101 103 105 108 110 110 112 111 111 112 116 110 110 105 
112 105 115 119 117 120 119 114 114 111 113 109 111 107 113 117 164 193 162 115 122 193 183 126 105 106 105 101 101 104 103 101 101 99 99 100 102 98 98 99 99 99 95 93 92 97 103 104 106 107 106 106 103 103 103 109 110 108 107 110 111 110 113 113 115 110 102 99 103 111 112 112 112 113 113 109 112 110 110 109 
129 120 126 124 123 122 121 116 114 115 117 113 111 109 113 120 177 194 159 117 131 193 182 123 102 104 105 107 103 106 104 102 102 102 99 100 100 102 97 99 102 102 99 107 103 105 103 109 107 108 108 108 108 107 106 109 107 109 108 111 112 114 113 117 113 112 106 103 103 112 112 110 112 113 112 111 114 106 106 110 
170 157 156 148 138 134 126 123 119 123 124 115 112 111 115 124 184 190 156 114 141 191 175 119 103 109 105 105 107 108 105 106 102 106 102 103 105 104 100 100 103 107 106 107 107 109 107 107 107 107 109 111 111 109 108 111 107 108 110 110 108 114 112 112 113 115 106 103 104 110 115 113 111 115 110 111 112 112 108 114 
189 191 196 193 188 186 176 161 147 145 141 120 116 114 117 132 197 191 147 115 151 192 169 113 107 108 103 105 106 113 107 107 104 107 101 100 105 101 99 104 101 105 106 109 105 110 108 108 103 108 107 110 109 109 109 109 111 108 110 111 108 112 109 114 114 116 106 102 98 106 113 110 112 112 113 112 110 109 114 110 
185 184 198 201 202 205 202 205 202 171 162 176 162 139 136 155 218 191 142 121 163 191 162 107 102 110 106 104 104 105 107 104 104 104 103 102 104 105 103 105 104 105 106 110 107 107 109 107 106 109 109 106 111 110 108 108 111 112 110 109 111 112 113 111 114 114 108 101 99 106 112 118 113 115 111 114 110 109 111 109 
138 141 154 169 181 195 202 207 203 172 174 208 205 199 196 206 210 183 127 125 175 190 156 111 103 110 105 107 103 106 107 106 104 109 104 105 107 104 103 103 105 107 105 108 106 107 107 106 107 107 107 105 111 111 107 110 113 109 111 112 114 114 111 114 116 115 115 103 101 107 113 117 114 115 114 118 112 112 110 110 
134 128 135 145 154 149 146 159 159 154 161 191 200 199 199 202 191 169 124 129 181 186 150 110 106 111 108 108 107 110 109 107 106 106 107 106 106 106 107 108 105 105 101 112 105 109 107 105 108 108 107 105 107 110 107 110 108 108 111 111 112 110 111 113 113 118 117 102 97 100 114 116 114 115 110 113 116 110 112 111 
171 158 157 153 165 148 142 134 133 138 134 133 138 149 164 174 163 134 120 132 188 187 146 111 107 110 108 108 107 109 108 108 104 106 108 109 105 105 107 107 103 105 105 108 106 107 109 108 108 110 112 108 106 108 109 113 110 113 113 112 110 112 117 114 117 117 121 104 98 98 111 114 116 114 116 116 112 112 112 107 
191 196 198 201 203 191 177 163 152 141 133 127 124 122 120 122 120 114 120 136 196 182 137 110 107 109 108 110 105 111 106 107 106 107 107 106 106 104 104 107 107 104 104 111 108 106 108 108 105 111 110 110 109 109 111 110 108 111 110 112 113 113 116 118 116 117 115 109 97 96 108 115 111 114 116 117 116 110 111 111 
182 181 195 199 207 210 213 214 200 155 170 178 159 141 129 125 119 120 121 147 203 182 133 110 107 110 108 109 105 108 107 107 107 107 105 108 107 103 107 104 106 102 103 106 109 109 108 109 108 111 111 112 108 110 109 111 109 111 110 112 112 114 115 116 117 116 117 111 99 96 105 111 112 113 116 115 115 111 111 110 
137 139 162 174 183 194 203 208 200 176 200 221 210 206 197 183 168 158 153 179 212 184 131 113 107 112 111 108 111 110 111 111 111 108 106 107 110 107 104 105 106 106 106 108 108 109 111 111 108 110 114 109 110 110 109 110 110 111 111 114 114 115 115 119 118 119 121 113 99 98 102 114 113 116 115 112 114 113 111 113 
134 132 148 145 136 138 146 152 160 153 175 196 199 201 200 200 195 194 194 199 194 173 126 112 108 112 110 108 108 111 111 110 108 112 109 109 108 107 105 104 103 106 105 112 109 110 111 111 111 114 110 113 110 113 111 111 110 111 112 116 115 115 116 118 119 119 120 120 103 99 97 110 114 115 113 113 117 113 112 111 
147 150 142 151 132 123 126 125 136 139 136 136 140 151 167 172 179 183 187 188 175 151 118 108 109 112 110 111 106 109 111 113 111 110 109 108 111 107 108 105 107 107 107 109 109 115 113 112 112 115 112 114 113 110 112 111 110 113 114 111 114 115 112 115 117 117 119 116 107 98 100 111 116 117 116 115 115 115 109 110 
165 149 145 152 127 121 124 124 140 137 130 122 119 119 123 125 125 135 139 145 130 113 117 112 108 113 110 111 114 111 115 111 107 113 110 111 109 108 110 105 105 106 110 109 112 115 113 113 112 111 113 113 112 114 112 109 110 111 114 112 113 116 115 115 116 123 121 121 112 103 98 108 113 115 117 115 117 111 113 110 
167 141 140 140 125 120 126 123 140 133 126 122 118 115 121 117 120 119 121 116 107 111 114 111 107 113 108 113 111 111 112 112 111 114 112 112 110 110 106 109 108 106 109 112 110 110 113 113 113 114 113 116 114 112 112 114 111 114 113 115 115 115 113 116 116 119 121 119 116 102 96 105 114 113 116 117 115 113 113 115 
185 140 139 133 122 124 124 125 142 137 125 125 117 115 119 119 119 119 118 118 107 110 115 114 112 115 116 113 113 114 110 114 113 115 113 114 111 110 109 112 110 107 112 115 115 111 115 112 110 113 111 114 115 114 112 113 113 114 114 115 112 115 113 115 117 120 122 124 120 106 97 101 113 119 115 117 113 115 114 111 
178 141 137 129 120 126 123 131 139 135 127 122 121 118 123 117 117 121 117 118 109 111 117 114 112 117 115 113 115 115 115 117 113 113 115 118 115 111 110 114 109 111 114 114 112 112 115 113 112 113 115 117 115 117 111 114 112 114 117 114 117 116 115 114 118 121 127 122 117 112 103 100 112 114 114 117 115 114 111 109 
162 134 137 132 124 134 129 129 121 123 124 120 126 121 118 119 117 118 115 119 108 108 117 115 114 119 114 114 114 113 111 115 115 113 115 115 115 113 117 114 114 113 116 116 113 113 115 115 111 114 118 116 113 114 116 115 114 115 116 116 118 117 114 117 116 117 125 120 118 114 102 102 104 118 117 113 114 117 114 112 
136 127 141 133 130 128 125 123 121 122 122 119 126 121 120 116 119 118 117 115 109 113 120 116 118 114 115 120 118 117 115 116 115 117 116 117 117 114 115 115 112 112 117 118 114 115 118 113 111 116 114 117 116 117 115 115 115 114 113 115 115 117 117 115 115 120 122 121 118 117 103 101 102 114 114 117 116 119 114 114 
126 126 136 132 128 127 123 123 117 122 120 119 122 126 121 117 118 119 120 117 110 112 116 113 113 115 119 117 116 115 116 119 120 120 117 119 120 113 115 115 113 113 116 118 114 116 117 115 115 118 117 119 119 115 113 115 114 116 111 113 115 120 115 116 113 124 123 121 118 117 109 101 101 110 115 116 118 118 114 110 
123 125 136 127 124 125 122 119 120 119 119 120 119 124 126 117 119 117 122 119 107 111 118 115 116 118 117 115 118 118 116 117 117 118 116 116 118 115 115 117 113 112 118 117 116 114 116 113 114 114 115 118 112 111 110 111 111 113 113 112 113 116 116 115 115 118 127 121 118 117 115 106 99 104 115 118 119 114 117 116 
124 124 133 128 124 127 119 122 120 119 120 120 122 123 129 121 120 122 122 121 112 117 118 116 118 123 117 119 115 117 118 119 118 119 116 118 118 117 115 116 114 115 118 115 116 117 118 116 113 117 117 118 114 114 110 111 110 116 113 115 117 118 118 118 117 119 125 120 119 119 120 109 98 101 111 116 121 115 116 112 
124 130 135 127 123 129 124 125 120 127 123 123 123 124 125 119 122 122 126 121 114 118 117 119 117 121 116 118 118 122 120 119 119 119 120 120 120 119 115 116 114 116 117 116 118 118 114 122 117 119 119 119 117 113 113 111 112 112 113 116 115 118 119 118 119 123 124 123 122 117 116 113 104 99 107 117 121 119 116 109 
124 130 134 123 124 125 122 124 122 126 126 122 119 122 126 124 121 119 126 118 116 115 121 120 116 120 120 122 119 122 124 125 122 121 119 120 122 119 118 118 116 116 120 119 120 118 119 118 119 119 117 115 117 114 113 112 110 115 115 117 117 119 118 120 121 120 126 125 118 117 117 118 111 105 104 113 114 115 113 108 
126 128 134 122 124 122 124 125 119 123 125 121 119 122 124 124 120 120 125 113 114 117 123 121 118 124 120 122 120 123 123 123 122 121 120 121 121 116 119 120 115 114 121 120 119 119 117 119 118 117 119 118 115 112 115 112 112 113 113 119 116 116 118 119 123 122 121 119 117 116 119 118 115 105 102 100 109 115 113 106 
128 126 136 127 125 129 125 125 122 124 121 120 122 123 124 126 125 124 129 116 111 119 122 118 119 123 120 122 120 124 124 125 120 125 124 125 120 118 120 121 117 117 119 119 120 117 116 115 117 119 118 117 114 114 115 112 114 115 110 116 115 117 118 117 119 120 120 120 119 119 116 120 118 118 104 107 103 104 107 106 
128 129 133 128 126 126 125 120 120 123 130 127 122 124 122 127 123 127 128 121 112 120 120 119 121 126 122 121 123 125 126 126 125 125 126 124 124 123 121 123 119 117 121 123 119 120 119 119 116 118 118 117 116 116 113 112 114 112 118 116 118 116 119 115 120 123 126 126 120 121 117 120 118 116 116 113 104 106 110 109 
131 129 131 124 128 126 125 123 123 125 127 128 120 124 123 124 125 125 122 120 114 115 122 120 121 123 123 124 123 128 126 125 128 130 125 123 123 120 121 121 116 114 120 120 120 119 119 116 115 121 121 115 118 117 112 112 111 113 115 115 117 121 117 120 121 126 129 126 115 118 115 121 121 117 119 118 114 107 114 110 
136 131 137 130 127 130 125 127 124 125 130 124 123 120 124 125 124 123 126 119 118 120 125 123 120 126 124 124 125 128 129 129 128 129 131 126 122 121 123 121 119 119 123 124 122 120 117 119 120 120 119 121 117 119 113 112 113 117 117 117 120 119 121 119 120 125 126 125 122 118 119 124 118 120 121 123 120 117 110 115 
137 131 137 128 127 129 130 128 124 127 128 124 124 126 127 130 129 128 124 120 118 118 128 125 121 129 125 127 125 131 130 132 130 130 130 125 122 121 118 120 117 116 121 123 122 117 119 117 120 119 124 119 117 116 116 114 115 117 116 115 118 121 123 119 122 124 124 125 120 116 118 120 122 119 126 120 121 120 114 115 
141 133 135 130 126 128 128 130 127 131 131 125 125 125 128 128 127 132 126 125 117 119 130 125 120 129 129 126 127 130 129 134 132 136 130 129 127 122 122 120 119 120 122 125 121 122 121 119 122 123 124 122 117 120 117 117 113 116 117 117 117 120 123 122 122 124 125 126 125 122 121 122 118 119 122 121 123 119 119 116 
143 137 136 131 129 133 130 129 129 130 135 128 128 127 131 128 130 132 133 126 119 123 127 125 123 133 129 131 131 135 135 137 135 136 136 137 136 131 130 130 130 132 127 124 126 120 122 124 121 122 123 122 120 120 118 116 118 115 117 117 122 123 122 123 126 125 124 127 121 124 121 123 124 121 121 131 124 120 124 123 
148 137 137 136 134 136 134 132 131 137 134 132 130 129 134 133 131 135 132 125 123 127 129 127 125 135 131 134 134 136 134 134 134 136 136 139 142 135 136 134 131 132 127 130 126 126 128 125 126 123 124 122 125 121 120 118 117 117 121 122 120 123 123 122 126 127 129 128 125 121 126 123 120 124 131 127 130 125 122 123 
146 139 134 136 136 137 136 131 130 140 135 129 132 129 131 133 134 134 132 126 125 127 132 129 126 134 131 136 137 140 137 138 136 137 138 144 143 140 137 136 135 131 127 128 130 130 127 127 123 125 126 124 124 121 121 121 118 120 121 121 120 122 124 123 125 127 127 129 123 121 123 127 123 123 125 127 125 126 127 123 
146 140 141 140 137 140 138 135 132 138 139 136 131 133 137 133 136 137 132 127 123 126 131 131 128 135 131 138 139 137 141 139 139 139 137 144 142 138 138 136 136 134 131 128 129 130 132 127 126 126 124 125 123 123 120 122 121 120 120 122 124 122 125 123 122 125 127 127 125 125 123 123 125 127 127 130 125 128 126 126 
150 142 142 141 141 143 136 136 132 140 141 135 135 137 137 136 136 139 137 130 126 129 136 135 132 133 139 140 137 138 143 141 141 147 145 149 147 142 139 138 139 134 132 132 132 133 130 127 126 127 128 127 126 123 123 123 120 120 122 121 124 125 124 123 126 130 132 128 123 124 125 127 124 126 128 122 126 125 128 130 
151 141 141 143 142 146 141 139 136 139 139 134 136 137 139 136 137 141 138 133 128 132 138 138 131 138 136 140 142 145 146 143 143 146 143 155 153 144 140 139 136 132 127 131 132 133 129 125 129 126 129 130 125 123 121 124 123 121 122 121 121 125 122 125 129 126 129 126 126 127 123 126 126 130 126 125 127 122 127 128 


