P2
80 60
254
20 22 27 27 38 51 80 97 72 42 56 96 85 47 42 34 32 30 29 26 24 27 24 23 23 26 25 30 30 30 34 31 29 30 29 30 27 27 26 28 28 27 29 28 25 26 25 28 26 23 15 22 16 18 18 17 19 19 19 21 21 19 18 21 25 25 22 25 26 26 23 25 23 20 21 20 15 19 19 18 
23 26 25 27 35 54 88 95 65 36 64 101 82 43 38 38 34 31 29 27 27 26 23 22 23 22 25 28 31 30 35 31 31 32 30 27 28 26 27 25 23 26 26 26 25 28 29 28 27 21 18 21 14 15 17 19 20 21 18 23 21 18 20 24 27 27 26 26 28 24 25 23 23 18 20 20 19 18 18 10 
23 23 21 27 40 54 92 93 61 40 69 95 75 42 39 32 30 27 30 26 26 26 23 23 23 25 33 31 30 29 31 32 29 27 28 27 25 25 27 28 27 27 26 26 25 30 29 28 30 23 20 21 22 21 20 21 22 21 22 25 23 25 27 27 33 27 25 21 23 24 23 24 19 22 20 22 21 15 14 11 
22 22 23 30 41 57 94 94 49 41 74 97 71 37 33 30 30 28 27 26 30 25 23 24 22 28 31 27 30 31 34 32 28 25 26 25 28 25 24 24 25 26 27 26 29 29 29 28 27 24 23 26 26 23 25 28 27 28 30 30 27 28 28 31 32 28 25 24 27 22 25 25 20 24 22 19 19 14 13 12 
17 23 19 33 42 65 105 91 49 38 78 96 61 33 31 30 24 24 27 23 23 21 26 26 26 29 26 28 30 31 35 31 30 26 27 25 24 23 24 25 25 27 27 26 25 29 28 30 27 28 27 30 24 29 31 31 31 31 30 31 30 30 31 28 27 30 29 24 25 23 23 24 18 24 20 21 18 13 13 11 
18 20 24 33 38 72 98 84 46 43 84 93 59 35 30 25 28 23 24 23 25 26 30 26 26 27 29 30 28 29 31 29 29 28 27 29 30 26 24 26 23 25 29 29 29 28 28 29 26 31 29 31 29 28 26 30 31 31 30 32 29 30 24 28 25 27 24 23 27 21 28 24 19 23 20 18 19 17 16 11 
17 24 26 36 37 73 99 83 43 43 87 89 52 32 30 28 27 28 31 25 23 26 24 26 24 26 27 27 31 31 32 30 28 29 27 26 26 31 26 25 25 24 25 25 27 26 28 31 31 30 30 31 28 28 30 30 30 29 30 30 28 27 25 26 27 27 26 26 29 26 26 26 21 25 24 21 21 14 14 9 
11 16 21 30 38 69 96 75 40 45 87 91 43 28 24 23 24 21 23 24 23 23 23 21 22 21 23 26 23 28 28 28 27 27 26 27 22 23 26 25 24 27 28 24 28 24 25 24 25 28 31 27 26 28 27 23 27 28 28 26 28 26 26 29 28 26 25 24 24 26 25 25 20 21 22 17 17 19 18 14 
6 11 15 30 29 69 98 70 36 45 91 84 41 25 24 24 22 22 22 21 23 22 21 20 24 21 24 24 27 26 32 27 27 26 27 26 25 24 24 25 23 25 25 27 29 27 28 25 26 27 24 27 24 28 23 28 28 27 28 29 29 29 29 28 33 32 28 27 26 24 24 26 21 23 23 21 15 19 17 16 
7 3 4 0 14 76 93 66 27 46 98 85 38 24 24 22 20 19 18 20 22 20 22 20 24 22 27 26 27 28 31 29 27 29 26 26 29 25 24 26 26 26 28 27 28 30 30 27 26 27 22 26 23 26 27 28 28 26 31 31 30 28 28 28 30 28 30 27 25 26 25 25 24 24 22 22 17 19 17 15 
12 14 12 2 15 81 96 61 20 49 103 88 26 14 12 14 14 16 17 18 19 17 19 17 21 23 24 24 22 25 30 27 23 26 26 23 22 25 25 24 23 24 26 27 25 26 26 23 25 26 22 22 25 26 25 26 29 31 29 29 31 29 30 28 30 28 29 22 25 28 24 27 23 23 24 19 22 19 18 21 
19 17 19 16 24 92 98 59 21 55 98 78 22 9 11 9 6 10 13 15 16 16 17 17 22 20 21 23 21 24 30 26 26 28 26 25 22 26 24 26 23 26 23 26 25 27 24 25 25 22 24 28 28 28 28 27 31 30 30 35 27 32 29 27 27 31 28 25 24 25 26 28 22 25 25 20 23 16 23 16 
16 16 17 17 17 87 93 59 23 54 100 73 16 9 8 8 11 4 9 7 5 3 7 7 12 14 16 17 18 23 24 22 23 23 22 23 20 25 24 25 23 25 23 25 25 26 27 22 24 25 24 27 25 27 30 29 29 29 30 29 32 30 28 28 28 31 28 25 27 22 27 24 25 23 20 21 23 17 21 16 
15 15 19 17 24 91 82 47 27 65 100 68 22 11 11 10 9 8 8 5 7 6 6 4 6 6 4 12 10 8 11 12 15 23 21 20 20 21 26 26 25 26 24 26 25 22 24 27 28 29 27 29 25 30 27 30 29 27 29 31 30 30 28 28 29 31 28 24 24 24 29 27 25 25 22 21 20 20 20 12 
13 14 19 19 36 91 80 43 23 74 98 61 23 14 15 10 13 8 11 7 5 5 8 5 5 8 7 10 10 10 11 7 6 7 5 14 19 25 23 25 24 23 26 27 27 27 26 31 29 30 30 31 26 33 30 31 29 32 29 32 31 29 28 30 29 28 29 24 25 25 26 28 24 26 21 27 20 18 19 18 
13 15 16 20 37 92 81 37 25 78 94 59 19 11 12 14 12 10 10 6 9 8 7 7 7 8 8 5 8 10 11 8 8 5 6 19 19 23 20 26 22 22 22 27 25 25 28 27 30 29 29 29 27 32 31 29 34 32 34 32 34 30 29 28 31 31 30 28 24 25 27 27 22 27 25 24 20 21 18 16 
11 16 18 18 42 95 76 34 21 80 87 53 19 12 16 14 12 9 11 9 9 9 8 6 7 5 9 9 11 10 11 8 8 18 22 21 23 24 23 21 19 25 23 25 25 23 29 26 28 29 29 29 32 31 29 29 29 31 26 31 31 32 31 29 27 29 31 30 27 25 28 26 21 24 24 23 22 21 20 16 
15 17 19 22 46 100 76 35 25 88 86 50 21 17 15 13 14 12 10 10 11 10 10 9 10 8 9 11 12 11 14 18 23 27 25 23 25 24 26 24 23 28 29 26 26 26 32 31 28 29 30 32 32 31 32 31 35 33 34 32 34 30 31 30 28 29 31 26 26 26 28 27 25 23 25 25 22 26 18 16 
14 14 21 21 49 96 72 32 25 84 82 44 16 12 16 15 11 11 15 9 9 8 10 10 9 9 10 9 10 10 20 24 24 25 25 20 22 23 24 22 23 22 26 27 27 28 25 26 27 28 30 30 29 29 29 30 29 31 34 31 32 30 30 32 26 31 32 28 25 23 24 27 25 26 27 24 24 22 22 16 
17 17 18 21 59 99 78 29 25 84 85 46 17 14 17 14 19 14 16 9 12 11 11 11 11 10 11 10 13 15 21 29 23 25 22 20 24 22 24 24 24 25 22 24 27 27 26 27 27 26 30 31 30 30 30 30 30 29 30 33 32 30 30 30 30 31 30 27 25 22 26 27 26 27 24 24 24 23 21 18 
20 22 21 25 70 101 73 30 32 93 85 44 18 17 16 15 18 14 17 12 12 10 12 9 10 12 11 12 13 12 20 24 23 26 22 21 22 22 25 21 23 23 26 28 26 29 26 28 30 28 30 30 28 28 28 29 31 29 33 33 31 31 32 31 30 33 30 31 26 22 25 27 26 26 25 24 24 23 26 16 
43 39 37 38 85 111 75 30 38 95 83 39 18 15 18 14 18 16 16 11 13 12 12 9 9 8 12 10 12 16 18 21 24 25 22 21 22 23 22 23 25 26 26 28 26 28 26 29 30 26 31 31 29 32 31 29 31 29 31 29 32 30 31 33 32 33 31 31 27 23 23 25 25 22 23 26 26 24 24 21 
102 99 94 93 110 111 65 27 43 95 83 39 19 17 15 16 12 15 16 12 12 9 11 12 11 9 11 14 13 13 14 22 24 21 25 22 22 23 22 21 24 24 24 27 23 26 28 29 26 30 31 30 29 28 29 29 31 31 30 32 34 29 32 30 32 34 33 29 29 23 24 26 26 25 25 24 25 25 24 14 
103 103 104 103 101 96 52 31 49 94 78 37 18 13 15 15 13 10 14 14 16 11 13 10 10 10 13 14 11 14 14 22 22 21 23 23 24 21 23 21 24 24 27 28 26 29 24 24 27 27 29 29 30 29 30 29 29 31 30 32 30 29 33 29 32 31 32 32 28 27 25 24 23 24 22 26 22 23 19 17 
60 65 77 83 81 68 32 29 56 100 81 33 20 15 18 19 15 17 14 14 13 13 16 14 16 12 14 15 13 14 19 21 25 23 25 26 24 23 26 24 25 28 28 28 27 29 29 31 27 32 29 32 32 29 27 30 30 31 33 33 33 36 36 30 33 34 32 31 29 27 27 25 25 24 26 23 23 27 21 15 
31 32 28 30 34 31 25 31 61 106 80 38 18 18 17 18 18 16 16 15 16 14 13 15 19 16 18 16 17 17 17 24 24 29 24 25 24 25 26 27 29 30 27 32 30 29 27 29 29 31 31 31 31 32 32 31 32 33 34 32 33 34 36 34 33 33 35 32 33 31 30 29 23 23 24 23 23 28 22 19 
49 44 36 31 26 28 26 33 71 113 83 34 20 18 20 16 17 14 18 17 14 16 15 15 13 16 14 18 17 16 17 27 27 26 27 26 25 25 27 27 27 28 29 30 24 26 28 29 29 30 30 34 29 33 31 31 31 33 33 34 32 35 34 35 32 34 33 32 31 29 31 29 27 24 22 21 22 23 24 18 
110 108 101 91 78 73 63 66 91 114 86 34 22 17 19 17 17 16 15 13 12 14 16 17 16 18 18 18 14 17 17 25 24 24 23 27 27 26 25 27 27 28 29 29 28 29 27 28 26 31 29 31 30 29 31 30 29 32 33 30 32 35 30 31 34 32 36 31 31 30 29 32 29 27 28 27 27 27 26 27 
108 111 111 110 105 102 97 95 104 100 73 26 21 17 18 19 18 16 18 16 17 19 15 13 14 18 17 15 16 16 17 22 27 26 28 26 26 26 29 28 27 27 28 28 29 27 26 32 31 29 31 32 29 30 30 31 30 34 31 33 30 34 34 31 31 34 35 30 30 30 32 29 28 27 31 27 26 26 26 22 
59 68 77 80 83 92 87 91 91 84 57 23 19 18 18 17 17 17 19 17 17 17 17 17 18 14 18 16 15 14 19 22 24 25 25 24 26 25 30 29 29 30 29 30 30 27 30 28 26 28 29 31 29 30 30 29 31 30 29 32 29 30 30 31 33 35 33 33 32 30 32 36 29 28 28 26 23 28 24 23 
26 30 32 31 30 40 39 46 51 40 26 24 20 19 19 19 19 17 19 17 17 20 18 19 15 20 18 21 18 17 19 22 27 27 26 26 27 27 27 30 25 30 31 29 28 29 31 27 30 30 31 31 29 28 28 28 32 32 31 33 33 34 33 33 31 33 35 31 33 30 32 30 30 29 28 23 27 27 29 18 
25 26 25 24 25 29 26 26 25 21 23 24 22 21 20 19 19 21 20 17 19 21 18 20 19 19 16 20 20 19 19 23 28 27 27 25 26 27 27 27 29 31 27 31 31 28 29 28 29 32 28 32 32 33 34 30 31 33 35 33 34 34 34 35 33 34 37 32 32 33 33 34 29 33 29 30 30 30 28 28 
25 26 25 21 22 25 22 26 23 20 20 22 19 20 22 22 23 17 19 20 18 22 20 18 22 19 19 21 23 18 17 23 27 29 28 28 24 28 27 28 28 30 30 29 28 28 28 27 29 31 32 32 30 30 31 32 30 32 32 35 36 36 34 34 33 36 33 35 31 29 31 29 30 30 30 31 28 33 28 23 
24 25 24 24 21 21 22 25 23 24 20 24 22 20 23 21 24 24 23 18 20 20 22 21 21 20 20 21 21 21 18 26 29 27 26 26 25 30 27 29 29 28 31 31 29 29 27 29 28 32 33 31 29 30 34 32 30 32 31 36 34 39 34 36 33 36 36 36 34 29 33 34 35 35 36 29 34 34 27 31 
22 25 25 20 21 25 21 25 21 21 23 22 21 24 22 21 23 23 24 22 19 21 24 22 23 23 20 22 24 19 21 23 28 27 28 28 29 26 28 28 29 31 29 32 31 30 27 28 29 33 32 33 32 35 30 29 35 35 31 36 35 35 36 36 34 34 36 36 34 33 32 33 29 37 33 28 27 29 30 32 
26 26 28 23 22 29 23 22 22 22 24 27 22 24 24 24 26 21 24 21 23 23 23 24 21 21 22 22 24 23 19 23 29 30 28 31 29 29 28 28 28 32 29 29 32 29 30 29 32 35 30 33 32 33 32 32 33 34 30 36 35 36 35 35 36 35 37 36 35 33 34 35 34 34 36 33 33 32 37 30 
22 24 25 25 22 26 23 24 25 25 24 22 22 23 23 22 25 23 25 25 20 22 23 25 24 22 27 26 25 23 24 28 28 32 30 31 29 28 30 28 32 29 30 28 29 33 33 34 32 34 35 33 34 32 33 33 35 33 34 36 39 38 34 36 36 32 35 36 34 33 35 34 32 33 33 29 31 33 34 36 
20 25 30 25 22 31 22 25 25 23 23 26 22 21 24 24 26 25 29 24 26 24 23 22 26 25 27 29 29 25 22 27 32 31 29 29 32 31 30 27 32 32 31 32 31 32 32 32 32 35 32 32 31 35 32 33 33 34 32 33 33 35 36 34 36 36 35 36 35 34 31 34 31 33 35 32 34 34 37 38 
23 23 23 25 22 27 21 23 28 20 20 22 25 22 26 23 27 24 27 25 23 24 24 25 25 26 27 26 27 24 22 24 29 32 32 27 33 27 28 29 29 34 28 28 32 33 31 34 33 31 33 33 34 34 33 32 35 31 34 33 32 34 32 34 33 34 35 36 36 33 34 31 32 37 33 32 35 40 42 46 
24 22 24 25 21 26 21 23 29 21 21 25 21 21 25 25 26 26 30 23 24 23 26 28 27 24 25 28 27 25 27 28 32 33 28 29 28 30 30 28 32 29 32 32 32 31 34 32 31 30 32 30 32 33 32 32 33 31 30 34 33 36 34 32 34 34 37 37 36 33 35 35 33 33 32 33 41 43 45 40 
21 27 25 27 27 30 24 24 25 22 24 27 24 23 28 29 27 26 28 24 27 23 28 28 31 29 28 30 28 26 27 27 33 31 33 29 29 30 29 30 32 34 33 33 32 34 30 30 32 34 35 29 34 34 31 32 33 35 31 33 36 35 33 33 34 34 38 36 34 33 35 35 32 33 35 32 35 37 45 41 
24 21 24 27 26 32 24 25 26 25 24 27 23 25 25 27 29 30 29 30 27 29 28 31 31 31 30 31 28 26 26 25 33 31 31 32 32 30 32 31 32 32 30 34 31 36 34 31 32 30 33 34 31 35 32 34 33 34 34 31 35 33 32 34 34 36 38 34 38 35 35 38 36 35 37 34 36 35 40 37 
22 24 25 26 28 34 26 23 26 23 25 28 28 29 29 28 28 29 31 29 25 28 30 31 30 31 32 33 31 28 26 27 33 32 31 31 27 32 32 32 33 31 33 33 28 32 30 29 28 29 31 31 33 32 33 30 29 32 32 33 34 33 30 34 33 34 34 34 36 34 38 39 37 35 37 35 37 38 38 41 
25 22 25 24 24 28 29 30 27 25 25 29 27 28 29 29 29 29 33 31 30 28 32 32 29 31 31 30 31 28 29 29 33 36 31 30 30 34 34 34 32 33 32 32 29 31 30 30 29 30 33 31 33 32 33 27 28 31 33 33 35 34 35 37 34 34 36 37 36 36 39 43 43 44 51 56 68 81 94 108 
23 26 25 28 25 28 27 32 28 29 25 32 28 27 27 32 30 30 33 30 32 30 36 33 33 32 31 31 27 31 30 28 31 34 32 32 34 32 33 32 33 31 32 31 31 32 30 27 31 31 32 29 29 31 30 31 32 31 33 33 36 34 36 35 36 35 40 38 37 45 64 81 90 104 115 121 134 149 166 188 
26 26 25 25 26 33 29 30 26 26 26 30 29 30 28 27 30 34 33 35 31 35 34 34 35 36 33 30 30 32 31 27 33 35 36 35 32 34 34 33 32 33 31 31 34 32 31 33 31 32 33 33 31 33 32 31 30 35 31 32 36 36 37 37 37 39 39 40 37 65 106 124 130 139 146 154 164 186 202 226 
27 27 28 29 24 31 29 30 28 29 26 29 29 31 32 32 33 33 37 36 36 40 34 38 38 33 31 33 30 32 30 26 28 34 33 33 34 32 34 34 35 37 32 33 33 31 32 29 30 31 33 33 33 31 31 28 33 33 32 34 35 35 35 37 36 37 40 42 44 74 117 149 157 167 175 182 197 214 233 246 
26 25 27 26 29 35 28 27 24 28 30 30 32 31 30 30 33 31 36 32 38 35 37 38 40 39 41 42 37 36 37 35 30 35 36 40 33 31 34 33 34 35 34 33 34 31 31 33 31 32 35 31 31 33 29 29 30 33 32 32 38 37 32 37 32 38 38 40 38 70 121 151 165 175 181 194 203 222 244 251 
27 28 28 29 27 32 30 30 26 29 29 31 31 35 31 36 32 32 38 34 37 35 37 38 40 43 46 45 44 40 40 34 33 33 35 38 36 34 38 35 33 33 34 37 35 31 33 32 30 35 31 35 31 30 29 32 33 34 32 32 39 38 34 35 33 37 41 37 40 64 116 153 166 179 182 190 212 222 246 254 
30 26 30 28 31 31 33 29 26 32 30 31 33 32 34 36 35 34 36 35 36 40 38 40 40 41 45 48 42 42 41 35 32 31 39 32 33 36 35 35 34 36 32 36 34 34 33 30 28 35 32 33 30 31 33 31 34 35 35 33 36 40 35 37 35 37 38 39 40 63 113 146 166 174 180 190 202 222 241 248 
29 31 32 34 30 34 29 29 30 32 30 34 31 39 36 34 36 36 38 38 40 41 41 40 41 43 48 48 42 43 42 38 35 34 37 37 38 37 36 37 35 37 39 36 34 34 32 32 29 32 33 34 32 35 32 34 33 38 37 35 38 37 37 34 38 39 40 39 41 62 110 141 159 168 177 192 200 218 241 251 
29 32 34 34 31 34 32 33 33 34 35 34 32 35 36 37 35 39 42 40 41 43 41 42 44 46 47 48 44 45 44 42 34 34 40 37 36 36 36 38 39 38 36 35 34 37 32 32 34 32 32 33 33 33 36 37 39 34 36 34 39 37 35 36 40 42 41 42 46 55 105 137 156 163 177 191 201 215 233 244 
38 32 38 34 34 39 36 36 32 36 35 36 36 34 39 39 37 41 43 42 45 46 44 44 47 46 52 50 43 44 46 42 34 36 41 40 39 35 37 37 38 36 35 39 38 33 31 34 34 35 35 37 36 37 40 42 40 40 42 39 39 38 38 41 39 43 42 40 42 53 104 136 154 166 177 186 199 213 228 245 
38 37 39 35 40 42 40 36 36 36 38 37 40 34 39 39 43 39 46 43 46 48 49 49 48 51 55 51 48 46 49 44 37 38 40 44 41 39 38 41 36 38 38 40 35 35 37 33 35 36 38 39 38 40 47 48 44 42 41 38 39 37 38 40 40 41 40 40 41 56 102 133 151 165 170 180 181 187 214 253 
37 37 41 37 37 42 39 38 40 39 40 42 40 40 44 43 47 45 48 47 50 52 53 53 53 54 54 55 51 52 53 46 42 39 42 45 41 41 40 41 39 43 40 40 38 37 38 34 37 39 39 40 37 45 52 65 80 65 52 42 42 40 42 40 43 41 43 46 44 53 98 133 152 164 169 174 172 163 214 250 
41 43 49 44 41 43 43 43 43 41 41 44 42 47 45 47 50 51 52 51 53 58 57 57 59 58 62 61 57 57 56 51 45 43 45 48 45 47 44 44 44 42 43 40 39 40 39 38 38 39 42 39 43 48 81 196 171 109 66 50 46 45 42 40 44 42 46 41 46 54 95 132 152 165 173 183 185 196 230 243 
47 51 47 53 45 50 45 44 43 45 46 45 43 45 47 47 53 54 56 55 60 60 64 63 65 65 62 63 60 59 55 49 44 47 49 50 49 46 45 45 42 44 46 43 43 42 41 42 41 41 41 42 43 49 96 241 181 108 64 48 43 42 42 43 42 45 46 44 50 55 94 129 150 166 176 180 190 208 232 239 
53 48 52 54 52 53 49 52 48 49 52 52 47 50 51 50 56 56 58 62 63 64 65 67 71 68 68 65 63 60 56 52 47 47 50 54 48 45 46 42 42 44 45 43 47 43 41 41 42 40 39 42 42 49 61 96 94 72 54 47 41 42 42 39 42 44 45 45 45 50 88 125 150 167 175 178 194 211 229 238 
57 58 58 60 58 62 56 56 50 51 52 57 54 52 55 56 57 60 62 62 67 71 75 79 77 75 77 77 69 65 58 52 50 50 53 53 50 44 44 46 44 46 46 45 49 46 42 46 44 44 44 46 43 47 49 55 59 56 53 46 45 43 43 42 40 45 44 42 45 49 84 128 150 164 176 182 192 213 227 235 
79 75 73 62 62 67 60 58 51 53 54 57 57 58 59 58 59 62 68 70 72 73 80 83 81 83 82 79 70 68 60 56 49 50 50 57 55 52 61 73 49 49 53 49 49 47 46 47 42 46 47 46 44 47 49 51 52 49 49 43 48 40 46 42 44 49 45 42 43 46 78 134 151 171 177 183 192 212 225 235 


