P2
80 60
254
23 20 22 29 34 45 83 92 70 40 55 91 82 44 40 33 32 30 25 24 25 27 22 23 23 24 20 22 30 28 31 30 28 28 25 27 24 23 22 22 22 21 24 22 25 26 28 23 24 15 14 16 14 14 14 14 12 14 18 16 11 15 17 17 21 20 21 23 23 26 24 22 20 22 19 17 15 17 16 9 
19 20 22 27 34 47 90 95 63 36 61 95 78 43 35 32 31 30 25 24 24 24 22 23 19 20 20 23 25 26 34 28 28 28 27 27 26 22 22 24 21 26 24 21 23 23 24 25 24 18 12 14 15 10 14 15 13 13 15 16 14 15 17 20 24 25 21 26 24 25 26 20 23 16 18 17 15 19 14 10 
21 20 22 28 38 47 93 92 62 40 66 93 74 41 37 31 30 27 26 26 23 27 22 23 23 21 25 26 25 29 29 30 27 24 28 28 24 25 25 24 22 24 24 23 23 28 25 25 24 20 17 15 16 17 13 15 17 15 20 20 20 21 26 25 25 22 22 24 24 27 20 21 20 21 20 22 13 20 12 9 
21 23 21 35 37 48 97 92 50 42 71 94 68 38 34 28 26 24 23 26 27 24 22 22 22 27 25 26 27 30 30 31 26 23 25 23 24 20 22 23 22 23 22 25 25 26 26 27 26 23 20 23 24 22 22 24 22 23 28 24 23 23 26 30 27 24 21 24 24 19 23 19 21 24 22 20 18 18 13 11 
15 22 25 34 36 57 106 91 49 40 73 88 57 36 31 28 24 20 24 22 23 21 23 24 22 25 24 25 26 26 29 26 25 23 27 24 25 22 21 19 21 23 23 22 23 24 23 26 26 27 24 22 23 25 26 26 22 26 26 25 23 23 26 24 22 25 24 21 26 20 18 18 18 22 19 18 17 15 14 8 
18 20 24 35 37 66 101 82 49 45 81 89 57 32 26 23 24 25 22 22 24 25 27 25 22 22 24 25 28 30 29 29 27 27 25 25 27 25 19 23 18 19 25 26 24 25 25 24 24 25 25 24 27 24 24 25 25 23 27 25 23 24 21 28 24 23 23 19 22 20 21 23 20 24 20 16 18 20 15 0 
13 21 22 35 35 65 101 80 45 43 84 83 48 30 27 23 23 23 26 24 21 23 23 21 22 25 21 24 26 28 30 29 25 28 27 26 25 24 21 21 21 22 21 23 23 24 25 29 25 25 25 23 27 25 25 25 23 21 26 22 20 20 23 22 24 24 22 23 27 25 22 24 21 25 25 21 18 18 13 10 
12 12 19 34 37 65 99 74 41 43 87 82 43 30 23 21 24 22 24 22 22 23 21 20 20 19 19 20 24 26 29 25 25 22 28 27 23 20 22 22 20 21 22 21 23 21 23 22 21 22 25 24 24 28 22 21 22 21 23 20 22 19 24 26 24 21 21 21 25 23 23 20 20 23 20 19 15 17 10 9 
4 8 13 31 27 61 101 72 35 42 86 77 42 23 22 21 20 22 22 20 25 19 21 20 18 21 19 19 22 23 28 25 24 24 24 24 24 21 21 22 21 20 21 21 23 23 25 25 22 25 21 22 21 24 20 22 21 21 23 24 22 24 25 22 24 25 25 24 25 23 26 23 22 22 21 20 17 22 13 6 
6 5 4 4 10 70 95 67 24 44 93 78 40 26 21 19 20 18 18 20 22 18 20 19 19 19 22 21 24 27 28 28 26 24 24 22 25 23 21 23 23 21 24 22 22 25 25 27 24 24 20 22 22 23 22 22 24 25 28 25 26 24 28 26 26 24 24 24 23 27 26 20 24 25 20 22 17 20 14 12 
9 13 10 1 13 75 98 61 22 46 101 82 23 13 11 14 15 16 14 15 18 17 16 16 17 21 17 22 18 20 27 25 23 25 23 24 23 23 20 23 21 21 22 20 21 24 25 21 22 22 20 19 23 20 20 20 25 27 27 27 20 23 25 25 26 21 24 21 25 28 24 20 23 23 20 20 19 19 12 13 
14 14 18 20 20 83 100 55 20 53 96 73 16 8 6 8 6 7 9 8 13 14 15 16 16 18 15 18 19 20 28 23 23 23 24 25 23 22 21 22 19 22 21 22 24 22 23 24 23 19 19 23 27 22 23 23 23 26 26 32 24 27 25 24 25 26 24 22 24 22 23 23 22 25 26 22 21 21 11 10 
14 14 17 20 16 82 96 56 23 57 98 67 15 10 5 7 7 5 7 7 2 8 6 7 8 13 12 14 16 21 21 23 20 19 20 21 20 19 22 25 16 21 20 21 19 23 20 18 21 21 21 26 27 24 26 24 26 25 28 26 25 26 26 25 22 24 23 23 22 22 24 25 22 24 21 18 22 19 15 13 
11 12 16 17 20 86 87 46 25 63 96 64 17 9 9 11 5 7 5 6 5 6 4 5 3 3 2 5 7 6 8 11 14 19 22 20 19 21 21 22 22 23 20 21 23 21 21 23 23 24 22 23 25 25 25 26 24 23 28 26 25 26 25 23 23 26 23 22 22 25 25 23 23 22 21 22 23 20 17 15 
14 14 16 17 31 86 84 45 22 72 92 55 16 13 12 11 11 8 8 5 3 5 6 1 2 4 3 4 5 5 5 6 1 3 2 10 15 22 20 21 20 19 24 22 24 26 24 26 22 26 23 26 25 27 25 24 25 25 29 28 26 27 23 25 26 25 26 23 24 22 24 26 25 21 25 23 20 21 16 14 
11 13 12 18 37 90 86 36 23 77 93 53 17 14 9 11 11 9 9 5 5 9 5 7 3 4 5 3 5 8 6 7 6 3 5 16 17 21 15 20 18 22 21 20 25 24 26 24 24 24 23 26 26 25 26 24 26 24 32 26 27 25 26 25 29 27 26 24 21 24 26 25 27 24 26 22 22 23 18 14 
13 12 14 20 40 90 78 35 24 79 86 45 15 13 13 12 10 10 9 9 9 6 8 7 3 4 6 2 7 7 9 5 7 14 18 21 20 22 20 18 15 20 21 20 22 23 26 24 23 26 24 24 27 25 25 23 25 23 25 28 24 24 28 26 23 25 25 26 22 23 26 23 26 23 23 22 21 18 19 13 
17 14 13 21 46 95 81 35 26 85 86 48 16 17 16 12 12 9 11 8 8 11 9 9 7 4 6 5 9 7 12 17 19 22 22 21 22 23 21 21 21 23 25 22 25 24 27 26 24 24 26 26 30 27 28 27 28 27 29 26 28 24 29 27 23 26 24 27 25 26 27 28 28 24 26 24 22 21 17 14 
12 15 17 21 48 89 74 30 26 84 82 41 14 14 14 12 9 10 11 9 9 7 10 6 3 7 4 8 7 8 17 23 20 24 22 19 21 21 21 21 20 19 24 22 24 26 23 22 22 24 25 25 26 25 27 26 26 26 27 25 27 25 27 27 24 25 25 27 21 22 21 23 24 24 24 24 23 24 16 12 
14 16 19 20 57 89 76 28 28 84 79 41 13 16 14 12 15 10 10 10 8 8 9 9 7 7 7 4 8 12 18 25 20 21 19 17 21 19 19 21 19 21 18 20 24 22 24 25 24 22 26 25 27 26 26 24 27 25 30 29 26 26 26 26 30 27 25 25 24 19 24 25 26 25 25 21 24 23 16 13 
21 21 20 24 69 93 76 31 32 93 81 38 18 14 14 12 14 14 11 11 9 9 9 9 8 12 8 10 8 11 19 25 23 23 21 20 20 20 19 21 21 21 22 25 23 26 25 23 25 24 27 28 28 25 26 26 25 27 32 27 26 29 26 27 25 27 26 25 24 23 25 27 26 21 26 22 23 20 17 15 
44 39 34 39 83 101 76 27 38 94 80 35 11 15 15 12 14 16 13 10 12 11 10 10 6 7 8 6 9 13 12 22 23 22 20 22 18 20 19 20 21 20 23 22 22 25 25 24 28 22 26 30 27 25 28 22 23 24 27 25 26 25 28 29 28 28 25 26 29 23 22 24 25 23 22 20 22 23 17 17 
104 99 92 92 105 100 63 24 45 93 81 32 13 18 13 13 10 10 14 11 10 10 10 9 9 8 6 8 11 11 11 19 21 21 22 18 19 20 18 19 19 21 22 22 21 25 25 25 25 24 26 28 29 23 26 24 24 26 26 27 26 25 28 27 25 26 25 24 23 25 19 25 27 22 24 22 25 20 21 16 
107 105 105 106 98 87 55 30 49 94 77 30 13 11 13 13 12 13 13 12 14 10 10 10 7 6 7 8 10 11 10 19 16 20 20 19 23 22 21 22 19 21 21 24 23 27 24 23 27 23 27 25 28 24 25 25 24 25 28 27 24 26 29 29 28 23 27 27 27 27 23 24 26 22 23 24 25 23 20 17 
58 61 75 86 78 64 34 28 57 97 77 30 15 13 14 17 16 16 13 13 13 13 15 13 11 9 9 8 15 12 14 20 22 21 22 21 22 20 21 23 22 24 23 28 22 27 24 28 23 28 26 26 29 28 25 25 25 26 27 25 28 28 32 29 29 28 27 27 28 27 25 23 25 23 24 20 24 23 20 18 
25 28 31 34 31 27 25 28 59 105 80 32 16 17 16 17 17 15 13 14 13 13 12 13 11 10 11 12 14 16 13 21 21 25 22 20 24 21 23 24 25 23 21 27 27 27 25 26 28 29 26 27 29 27 28 24 28 28 27 28 29 27 30 31 29 27 28 30 30 30 30 31 24 21 24 22 23 25 19 19 
47 42 33 31 24 24 28 32 69 110 81 30 16 16 16 14 16 17 14 13 11 14 15 13 11 14 10 9 12 13 15 23 25 23 26 22 23 21 24 25 24 25 27 26 23 25 24 26 23 26 27 31 28 31 28 26 27 29 30 27 27 28 28 29 26 30 27 31 28 31 29 25 25 24 26 24 25 20 23 16 
110 106 97 87 72 65 63 60 90 113 81 29 17 14 17 13 16 13 17 13 12 14 12 13 12 12 12 11 11 13 11 23 22 21 22 20 24 23 22 23 21 24 23 25 23 26 25 27 27 25 25 23 27 26 27 26 24 27 28 24 25 26 27 27 27 26 29 27 30 28 25 26 27 28 27 27 23 25 22 18 
107 110 113 108 102 101 98 93 103 103 73 24 15 19 18 18 18 17 18 16 14 17 13 10 13 11 13 11 14 15 14 21 24 23 27 26 23 24 25 26 24 25 26 24 23 26 25 27 24 23 26 31 26 28 27 25 25 28 30 26 29 28 27 27 27 28 28 30 27 29 30 27 29 22 28 25 24 27 26 19 
60 68 76 83 83 89 95 92 93 84 52 15 15 16 15 19 17 16 14 17 14 16 15 17 14 12 16 15 13 13 16 21 21 22 24 25 22 24 28 25 25 25 25 26 26 26 25 26 23 27 26 29 28 27 26 24 26 25 26 26 24 25 28 29 29 30 29 28 29 29 34 29 29 29 31 24 24 28 22 22 
22 26 29 31 29 35 39 46 48 38 21 20 14 19 19 17 18 17 17 17 15 20 16 18 12 16 15 15 15 14 16 22 24 24 22 24 22 23 24 23 22 25 30 23 24 26 28 24 25 24 24 28 26 24 25 26 25 24 28 26 25 27 27 29 26 27 30 29 31 30 31 30 30 31 28 24 29 28 22 27 
22 22 21 23 20 19 24 24 28 23 20 17 18 18 19 20 18 18 17 17 17 17 19 19 15 15 12 15 17 16 16 22 25 22 24 22 23 25 24 24 26 25 25 27 27 26 25 26 26 27 26 27 31 28 29 27 28 27 29 28 27 30 31 31 29 27 32 28 30 29 33 31 29 32 28 25 28 28 21 24 
18 20 19 20 21 16 22 23 23 20 19 17 12 20 22 19 20 20 18 16 15 20 17 18 19 15 16 14 20 16 14 21 24 26 25 24 23 24 25 26 28 26 27 25 24 25 26 26 25 25 28 29 28 24 29 25 25 26 27 31 24 25 30 28 30 30 29 31 29 29 30 29 30 32 30 27 25 30 25 22 
20 23 19 23 19 15 25 22 24 24 19 16 17 22 21 21 20 20 19 16 19 18 20 18 20 18 20 15 18 19 17 23 26 24 25 25 25 26 25 27 26 27 30 26 29 26 26 25 27 28 27 27 29 27 29 27 28 28 30 31 28 29 29 32 29 29 32 31 31 30 34 33 31 33 33 29 29 32 29 33 
21 23 20 20 18 17 21 24 24 20 21 20 19 19 22 23 22 20 19 20 18 18 21 21 19 20 18 16 21 16 18 23 23 24 25 25 28 23 25 27 28 26 27 28 29 28 23 25 28 28 28 27 30 31 28 26 29 29 27 31 31 31 32 32 31 30 32 30 31 31 31 33 32 35 31 29 27 30 33 28 
23 27 25 23 18 21 22 22 23 20 20 19 21 24 21 21 23 23 19 18 19 20 21 21 21 19 19 17 21 18 16 22 25 26 28 27 27 24 24 24 25 28 27 25 28 26 26 27 27 28 27 29 28 29 27 27 26 27 28 31 30 29 31 32 33 29 31 30 33 34 29 30 31 33 36 34 29 33 35 28 
23 24 25 26 21 20 23 24 23 22 21 17 19 24 20 20 22 21 22 22 20 22 21 22 21 17 22 20 22 22 19 25 28 29 28 26 27 28 26 26 28 29 26 25 27 31 29 31 28 28 32 29 31 29 31 29 28 29 31 31 30 31 32 33 29 28 31 31 33 32 35 31 32 35 35 32 29 33 35 33 
20 21 22 23 19 21 25 21 28 21 19 19 21 23 24 20 22 24 22 22 21 24 22 21 23 20 22 23 26 22 18 25 32 30 25 26 26 26 25 25 26 29 29 24 26 28 29 30 30 28 28 30 29 29 29 29 30 31 29 29 28 29 31 32 29 32 33 30 30 33 35 31 31 31 36 32 32 33 36 42 
20 19 21 21 21 21 22 23 27 19 18 16 18 21 24 24 23 24 22 23 21 25 24 21 22 25 22 23 28 23 21 22 25 29 28 26 29 25 26 28 24 30 25 24 28 29 28 31 29 26 29 30 31 29 29 27 28 29 29 26 27 29 29 32 28 29 29 30 32 34 32 35 35 32 34 29 33 43 43 44 
23 21 22 26 24 19 26 19 28 21 18 21 19 19 24 23 24 27 28 22 24 23 24 26 23 23 24 24 24 21 23 25 30 28 27 28 27 29 26 27 28 27 28 29 27 29 30 31 28 27 29 29 29 26 29 28 28 25 28 29 27 31 30 30 31 27 33 32 35 34 35 32 35 32 33 35 55 54 49 47 
20 26 27 25 24 22 27 22 25 23 22 21 20 23 27 24 29 28 27 25 28 27 28 28 28 29 26 24 27 26 25 27 31 28 31 27 29 27 29 27 29 30 31 27 30 31 28 30 28 29 31 29 31 31 29 26 25 29 28 30 30 26 28 28 30 32 33 33 33 30 36 33 34 34 35 35 39 41 43 64 
21 27 22 26 22 24 29 26 27 26 21 21 24 27 28 26 29 29 28 27 27 28 26 29 26 29 26 27 26 26 21 25 31 28 28 31 29 26 30 28 28 29 27 30 31 33 30 28 29 28 28 30 29 29 30 29 26 27 34 26 28 27 28 31 33 29 34 30 37 37 37 34 32 35 34 35 39 35 45 104 
21 23 22 26 23 26 28 25 26 23 21 20 20 27 26 26 27 26 27 28 27 27 29 28 29 27 26 26 26 28 23 24 31 31 29 31 29 27 30 29 30 30 31 29 25 28 28 27 28 26 30 31 28 29 28 25 24 27 27 28 25 28 29 32 33 30 33 33 32 32 37 35 37 36 39 38 41 43 42 92 
20 20 26 25 22 23 28 32 26 24 18 24 23 25 26 27 27 30 28 28 27 30 29 32 27 30 28 27 29 27 23 25 29 31 27 28 32 29 30 30 29 32 28 27 29 27 27 27 29 28 28 29 29 25 25 23 23 26 28 29 25 28 31 34 27 28 32 32 35 36 39 42 52 62 66 66 81 83 98 130 
20 26 23 28 23 25 30 30 30 25 20 25 23 26 27 31 29 30 31 31 32 32 32 32 33 31 26 27 27 26 24 25 30 31 29 31 31 30 31 27 28 28 31 26 29 27 29 25 27 26 26 26 27 25 24 28 26 27 31 28 25 29 30 31 30 29 33 35 36 48 66 83 100 118 123 129 144 149 169 188 
22 25 28 26 27 29 31 32 28 26 24 25 26 30 32 30 28 31 33 35 33 36 34 32 35 34 31 27 27 30 28 24 30 31 30 31 30 33 29 31 30 31 26 29 31 30 30 32 30 29 29 29 30 28 30 27 23 32 31 28 28 31 33 32 33 33 34 34 36 61 106 124 135 142 150 156 163 185 203 222 
21 27 26 27 26 26 32 31 27 26 22 23 27 31 31 32 32 32 32 34 36 36 34 35 35 33 30 27 29 27 27 22 27 32 33 33 32 32 30 30 30 31 28 31 30 30 27 28 29 29 26 31 29 28 27 24 27 28 29 29 28 31 33 35 32 34 36 37 43 73 116 148 157 163 175 182 198 215 233 240 
24 26 26 25 25 27 30 31 27 29 26 25 29 29 29 30 32 34 33 33 35 35 36 36 36 36 36 38 35 34 35 31 27 27 35 31 33 30 30 33 31 31 28 27 27 30 30 29 27 24 30 28 29 30 24 25 25 28 30 29 32 30 31 33 32 32 32 37 37 69 117 151 166 175 181 194 205 224 244 246 
25 24 28 32 21 24 32 29 28 28 25 27 27 30 27 32 33 35 33 34 36 35 37 35 36 40 40 42 39 37 37 33 29 28 32 35 33 33 33 32 31 29 31 30 32 28 32 30 27 26 30 31 30 27 27 27 27 27 30 26 29 33 32 32 32 31 33 35 38 62 115 151 166 177 185 192 208 223 241 253 
24 25 26 32 27 24 30 27 28 29 24 25 26 33 30 31 35 36 34 34 37 39 38 35 36 38 45 39 41 38 39 32 30 28 34 32 32 31 29 34 31 32 32 30 30 30 28 29 24 26 28 30 30 29 29 26 25 30 30 31 29 33 34 34 32 31 33 34 38 62 110 144 163 171 181 189 203 219 238 250 
24 28 27 32 29 28 29 30 30 32 27 26 29 35 32 33 32 37 37 37 40 39 40 38 41 41 45 43 39 42 41 35 31 31 33 36 35 34 36 33 31 33 34 32 30 30 29 30 31 27 28 30 31 29 29 27 26 30 31 30 31 33 33 34 35 33 34 33 40 60 109 142 157 170 178 187 200 219 232 242 
30 34 29 34 27 27 32 31 32 33 31 29 29 31 35 35 36 40 40 39 43 44 42 40 42 42 45 43 40 40 42 39 34 37 37 36 34 35 33 35 33 32 35 30 31 32 28 30 30 28 28 30 31 31 34 32 30 29 34 30 31 30 34 35 32 34 36 39 42 55 105 138 155 165 174 186 196 212 230 245 
32 32 34 34 28 30 34 39 33 33 31 28 32 33 35 37 35 41 41 41 45 46 44 42 44 45 51 44 42 40 42 40 30 35 41 38 37 34 35 36 36 33 36 32 35 31 32 33 33 31 31 33 34 32 36 37 35 34 35 34 31 31 33 35 35 36 36 39 42 56 104 138 154 167 173 183 195 211 227 246 
31 35 34 36 35 34 38 39 37 37 35 33 37 36 35 37 40 40 44 45 48 48 47 48 48 48 51 47 45 41 45 41 35 34 39 44 40 35 36 41 31 36 36 35 36 33 35 32 32 31 35 36 35 35 42 44 41 38 38 31 32 33 36 35 36 34 35 39 38 55 99 132 153 165 172 178 179 185 212 243 
36 39 35 39 37 38 43 39 35 36 38 38 40 40 44 40 44 44 45 45 49 50 50 52 49 51 51 50 49 48 46 45 39 36 39 42 40 42 39 38 36 38 37 36 37 37 37 33 37 36 36 37 38 41 46 64 75 63 48 37 34 35 36 38 40 37 36 41 41 56 94 133 150 161 167 171 169 163 212 254 
40 42 41 45 37 34 45 42 40 43 37 37 40 45 45 45 47 47 50 49 52 57 55 54 54 58 56 59 53 52 52 47 40 42 42 45 43 44 42 40 39 38 40 38 36 37 35 36 34 34 35 37 42 45 78 192 167 103 61 44 38 38 38 37 41 40 41 37 43 50 93 130 153 163 169 177 179 192 229 242 
46 42 43 48 44 40 42 44 44 44 40 39 40 43 47 47 51 51 53 52 57 59 62 61 61 60 60 59 58 54 55 47 42 44 46 46 45 41 41 40 40 40 41 39 38 39 39 39 39 37 36 40 44 46 95 236 179 102 58 43 37 38 38 35 38 38 39 42 43 50 88 127 151 164 169 178 195 204 225 233 
50 48 50 52 47 44 49 49 48 48 46 45 45 50 50 50 55 56 58 61 63 65 66 64 66 66 65 64 58 55 54 49 43 43 46 49 46 44 38 39 37 42 40 37 40 40 39 40 39 35 38 37 43 42 59 91 90 70 52 40 36 35 38 36 36 39 40 41 39 44 85 121 153 165 166 178 192 209 222 235 
61 56 60 61 52 54 58 55 51 50 48 50 50 56 54 55 54 60 57 62 66 71 71 77 74 75 75 72 66 60 54 50 45 44 50 49 46 41 38 44 41 44 40 43 43 46 37 43 41 39 40 41 42 43 45 52 53 50 46 43 37 39 38 39 38 38 41 39 42 46 83 122 148 164 174 180 191 209 222 228 
76 72 70 63 56 57 60 57 52 52 49 48 54 56 59 58 55 62 65 70 74 75 77 78 80 81 79 74 65 62 57 53 48 48 50 51 49 46 55 72 46 46 49 46 45 46 45 45 39 39 43 41 41 40 46 47 47 45 45 39 39 36 39 40 38 40 40 37 40 47 73 128 151 166 178 182 193 208 217 232 


