P2
80 60
272
173 171 152 149 141 145 145 139 153 156 151 145 108 96 94 95 95 97 92 94 94 98 97 90 93 92 94 91 87 88 91 89 86 83 82 88 85 89 89 87 87 82 82 81 83 85 87 90 89 88 92 91 93 89 93 87 90 94 92 91 91 91 94 97 96 97 94 93 98 97 96 95 97 95 95 91 95 83 83 76 
188 182 159 159 145 136 141 142 149 147 148 143 106 99 91 92 91 94 95 88 94 96 95 95 96 94 94 94 93 94 92 89 89 83 85 86 85 89 88 86 87 82 82 85 81 80 86 87 89 88 87 89 90 93 91 88 86 89 90 93 90 92 91 96 93 88 93 96 93 96 96 98 94 95 96 90 92 81 81 72 
192 188 164 168 140 142 141 142 147 139 139 121 98 94 91 88 93 93 93 89 95 95 95 94 94 95 92 94 92 98 94 93 93 87 84 87 85 94 92 90 85 83 79 82 70 75 85 85 89 86 88 89 88 89 87 87 87 88 85 92 92 93 94 93 93 92 92 90 93 94 98 97 90 94 94 88 88 76 76 68 
181 170 176 171 144 138 137 125 126 124 114 101 94 92 92 90 89 88 93 90 92 94 96 92 91 95 95 92 92 97 96 95 99 88 93 90 83 88 90 87 85 78 73 65 66 73 81 83 84 86 84 84 82 87 87 86 88 83 84 86 92 91 92 98 91 94 89 95 92 94 100 97 95 90 91 86 85 80 78 62 
160 157 155 143 124 121 113 106 98 104 96 90 90 95 94 92 87 84 89 87 93 94 94 92 93 97 93 91 93 95 95 96 95 96 96 95 94 89 92 82 82 76 58 53 60 73 83 80 86 84 81 86 87 81 80 81 82 78 82 86 87 93 94 98 96 94 95 94 93 92 96 93 97 94 93 88 88 87 88 80 
150 134 118 105 99 97 92 84 91 91 90 95 104 113 110 100 89 90 90 88 91 91 94 94 92 94 93 92 93 98 97 95 96 94 97 94 94 96 94 84 84 77 60 63 71 78 81 84 83 83 86 89 86 83 83 78 81 75 76 80 89 95 92 95 94 100 98 97 93 99 97 94 95 94 91 90 90 91 86 86 
120 106 94 94 91 87 93 86 94 89 88 105 133 135 129 113 103 87 88 86 88 92 88 93 93 91 93 93 93 94 95 93 92 94 98 99 91 92 93 82 82 83 73 75 77 79 80 82 83 81 84 88 86 81 82 78 73 76 81 82 92 89 93 93 94 94 94 92 95 93 99 97 89 90 88 89 91 88 92 95 
102 90 86 88 89 90 92 91 90 90 91 129 145 152 136 125 116 91 89 83 87 94 88 91 93 92 91 98 91 92 95 94 97 91 95 97 94 94 88 84 83 81 79 78 77 76 79 80 83 79 83 83 85 83 83 79 78 78 86 83 89 91 92 97 96 97 96 91 95 93 97 92 92 88 86 86 85 88 90 94 
91 85 88 89 88 86 87 87 88 90 100 142 151 154 146 135 121 95 89 86 88 87 90 89 89 93 89 94 90 91 92 95 92 92 93 91 89 93 86 84 77 76 76 81 79 79 79 80 82 79 78 83 82 83 81 79 80 78 82 86 88 91 92 96 95 94 95 92 92 94 94 92 88 84 89 88 85 78 80 79 
86 88 88 89 89 88 86 86 89 91 105 158 158 158 155 140 130 105 91 88 89 88 88 88 88 91 86 91 90 92 97 93 94 95 93 93 89 89 84 83 80 80 82 85 84 78 78 76 74 72 77 81 80 77 79 79 79 76 81 78 89 88 89 92 94 91 94 92 92 92 92 88 85 87 88 85 88 82 78 88 
89 88 91 88 84 89 86 86 90 87 115 156 164 159 150 151 136 110 91 87 89 89 88 88 85 88 91 93 90 94 94 96 96 96 92 91 91 87 83 83 78 79 78 78 79 75 76 68 68 59 65 78 79 74 77 73 74 74 81 80 82 88 86 88 95 91 93 93 90 92 86 83 84 85 89 86 87 80 79 85 
89 89 88 91 87 86 87 85 89 88 130 160 163 161 155 159 153 113 90 92 90 88 87 88 92 88 93 94 90 94 92 93 95 96 90 91 84 82 84 79 83 80 77 82 77 74 77 64 55 60 73 76 79 69 75 66 64 71 76 79 84 84 82 90 90 92 92 92 89 85 78 70 72 83 85 81 91 83 84 84 
92 86 85 88 84 89 87 85 86 95 142 174 164 170 162 170 164 118 93 92 91 90 88 86 89 89 89 92 86 91 91 91 91 96 91 87 86 83 81 80 81 75 77 79 76 72 73 62 55 68 72 71 77 69 67 55 60 68 76 77 77 80 82 84 84 87 89 86 75 64 66 54 62 78 82 86 90 83 83 86 
89 87 91 86 89 90 88 86 87 105 148 180 179 171 168 176 167 114 93 91 93 87 91 85 88 91 88 90 91 88 90 88 88 86 87 89 86 82 82 79 74 78 76 77 71 70 74 68 69 75 74 72 77 67 60 57 64 69 70 74 76 78 79 81 82 83 84 75 77 62 58 57 63 76 81 87 88 83 88 87 
93 90 88 90 88 89 89 84 87 109 158 177 174 167 177 182 170 110 90 90 92 90 90 89 85 88 87 89 89 88 87 87 86 87 86 85 85 85 78 79 77 75 71 76 77 71 72 72 74 72 76 74 73 69 67 65 64 68 72 73 72 80 79 82 79 78 81 71 75 74 64 71 73 83 84 87 91 87 88 94 
129 111 99 94 91 89 89 84 95 123 165 165 158 142 171 180 160 100 104 92 92 91 92 89 88 89 86 86 88 86 87 85 84 81 84 82 85 81 77 75 76 74 74 75 76 74 75 74 73 70 70 73 71 64 66 61 63 65 74 74 77 80 73 76 75 77 75 79 79 71 73 77 82 83 88 88 90 87 87 95 
188 168 141 134 116 109 108 102 103 147 168 162 145 150 180 179 141 97 102 94 93 92 94 89 89 89 85 86 83 85 89 87 85 85 85 86 79 80 83 75 74 75 74 76 77 70 76 75 78 70 70 68 69 61 65 65 69 69 80 80 80 82 81 81 78 60 69 73 82 86 88 88 86 89 88 89 93 88 89 91 
221 228 217 207 180 160 148 141 136 153 161 153 162 166 172 169 125 93 99 90 92 96 94 86 87 89 85 85 82 84 83 83 81 82 82 83 80 80 76 75 71 70 75 73 73 71 74 72 74 71 62 65 70 59 75 69 69 78 78 77 86 83 93 90 73 62 66 76 77 83 88 87 86 88 86 90 88 86 91 93 
223 255 250 256 227 195 176 162 150 152 156 166 169 168 173 159 105 88 91 77 83 95 95 90 85 87 83 84 83 83 84 86 82 80 80 84 77 78 76 70 75 72 71 72 74 73 74 75 73 73 71 72 69 71 71 67 71 75 73 76 90 94 98 98 82 71 74 74 78 86 85 85 87 91 88 89 92 86 89 89 
223 246 266 270 251 219 187 172 157 151 145 160 169 171 173 147 105 79 82 75 76 89 95 85 84 85 84 82 86 82 84 86 86 81 81 79 76 77 76 73 74 70 68 67 68 70 71 74 73 69 72 70 73 67 71 66 71 71 69 79 80 84 97 95 96 79 79 76 74 85 85 90 88 91 92 90 95 85 91 93 
219 238 248 263 254 227 196 177 163 154 148 152 160 169 160 123 94 81 80 78 82 90 88 82 84 88 86 85 81 84 84 86 81 76 75 72 71 75 73 70 72 68 73 73 74 69 72 70 66 67 68 74 71 62 60 58 66 72 73 73 78 80 80 98 91 86 81 81 82 85 87 86 87 91 90 90 93 87 92 94 
215 215 231 247 229 219 199 184 169 153 150 150 153 159 151 111 91 81 80 83 87 91 91 85 87 89 85 84 81 86 85 84 77 75 72 73 71 74 70 67 65 70 70 64 67 65 72 67 72 68 67 64 64 62 67 71 72 75 79 79 79 82 83 89 86 84 82 82 83 88 89 87 87 90 87 90 90 87 88 93 
224 211 228 231 234 217 196 183 171 152 148 146 144 155 149 104 92 87 86 85 88 90 88 87 87 83 82 83 80 87 80 80 75 72 75 73 68 70 72 62 64 63 59 66 65 61 62 62 67 64 60 67 70 69 77 75 74 77 80 80 79 80 82 79 81 83 82 82 81 86 88 88 87 87 88 87 90 89 91 88 
227 220 246 261 261 237 203 188 174 159 143 142 143 150 137 96 92 83 88 85 87 91 88 83 86 86 86 81 83 85 81 80 74 74 68 60 63 65 59 59 65 65 63 65 60 61 65 65 74 72 78 80 78 75 78 80 82 82 80 82 79 85 82 81 82 82 81 80 86 86 90 88 91 87 89 90 89 85 85 90 
231 224 258 272 268 237 202 191 171 152 143 133 137 138 110 93 87 86 91 88 90 90 89 87 88 85 84 81 85 85 82 80 71 67 64 66 60 68 64 63 61 60 62 70 67 72 77 75 79 82 79 84 81 78 78 76 77 83 80 80 82 86 84 86 81 81 81 80 84 87 87 87 87 87 87 87 92 89 86 88 
235 242 259 272 263 225 192 175 158 148 131 127 124 113 97 85 90 85 89 90 89 91 85 88 90 86 83 80 83 78 79 70 73 68 66 65 65 65 67 63 65 69 74 73 76 75 79 77 79 83 81 78 82 77 78 78 81 78 81 81 84 87 85 87 82 82 81 78 78 87 86 88 88 89 92 90 91 88 89 87 
248 256 253 249 228 194 169 151 140 121 114 108 99 90 88 89 87 89 89 88 90 86 89 89 84 93 82 81 75 70 70 72 69 66 62 71 75 78 80 75 75 75 75 74 75 74 73 75 79 79 82 82 79 76 78 77 74 77 81 80 85 88 82 82 83 79 80 81 83 84 89 87 89 87 90 90 94 89 89 94 
210 204 187 174 146 132 117 114 102 92 93 91 91 90 89 89 86 84 90 86 85 89 87 88 89 83 73 74 69 71 68 73 67 68 73 77 76 76 76 76 73 73 72 75 72 72 79 76 79 78 76 77 79 77 78 74 72 75 80 79 78 84 85 81 80 81 81 81 82 83 85 86 89 86 90 88 89 85 88 92 
122 118 105 106 100 95 95 93 93 91 85 90 87 88 86 86 81 84 90 88 88 89 85 88 82 80 75 76 74 76 74 76 73 77 78 82 81 80 75 75 75 72 73 78 74 77 77 75 76 71 79 76 76 74 77 74 74 77 82 78 80 82 83 87 86 75 82 78 82 79 86 85 86 85 88 87 87 85 86 87 
82 91 90 89 85 85 91 86 86 87 84 85 87 86 86 86 85 83 88 91 87 94 85 84 82 79 75 75 77 74 77 75 73 73 73 80 76 78 77 74 71 76 71 75 72 71 77 72 75 72 77 75 76 73 73 68 68 72 76 81 77 82 82 83 85 79 76 80 77 78 89 85 85 84 87 82 83 80 82 89 
85 85 85 88 83 87 83 83 84 86 85 85 86 82 82 83 84 84 86 86 88 88 87 85 81 80 78 76 69 72 75 75 73 71 76 78 77 74 79 73 70 69 74 73 69 70 69 73 73 75 75 76 74 73 69 68 68 68 73 76 75 77 81 81 86 77 76 74 75 79 81 79 79 77 80 75 76 80 87 89 
85 84 86 88 85 83 87 84 88 86 84 86 86 81 81 87 88 86 86 89 86 89 88 83 80 82 79 79 77 75 75 75 72 74 78 77 76 77 75 68 67 69 68 68 68 67 74 68 72 71 74 74 75 69 72 67 68 69 70 74 77 80 76 83 82 75 76 70 62 77 80 77 74 71 79 72 82 84 85 84 
86 86 87 84 86 85 87 85 89 87 85 86 88 84 86 86 91 84 84 84 85 88 93 82 78 76 78 75 74 71 73 71 72 74 74 74 72 75 69 68 64 68 67 68 66 66 70 72 68 67 72 72 72 69 72 65 70 68 71 68 72 80 79 81 82 74 76 65 60 66 82 82 79 75 75 76 87 83 88 90 
84 85 86 85 87 86 82 87 87 87 86 86 85 83 83 90 89 85 85 84 87 87 90 82 77 77 74 74 73 71 69 71 70 70 74 73 73 70 70 63 68 67 62 68 63 63 70 68 69 74 70 65 67 56 55 57 64 66 72 71 69 76 79 79 82 81 84 61 56 64 79 79 83 79 78 77 79 85 84 92 
83 81 85 81 84 84 85 85 88 83 86 87 85 85 87 88 90 86 86 87 86 86 92 86 75 79 76 76 73 74 70 69 68 70 68 74 68 73 66 65 66 65 63 66 67 68 70 68 69 74 65 44 30 26 33 44 50 62 70 71 77 80 74 83 85 84 82 64 64 65 79 78 84 82 83 80 88 87 87 94 
80 84 81 83 83 86 85 85 87 87 86 88 88 88 88 91 91 86 90 86 85 89 88 83 78 74 75 74 69 72 71 68 68 68 68 67 67 69 69 66 64 65 57 66 60 64 67 66 71 65 36 24 11 6 13 22 39 51 64 70 74 78 73 80 85 80 79 74 63 74 82 80 80 80 83 82 86 85 87 89 
81 83 86 83 83 86 85 83 90 88 88 84 87 87 86 91 90 88 90 86 84 88 88 81 74 74 74 75 67 72 74 71 65 72 70 66 65 63 65 61 63 65 62 64 63 66 64 68 69 55 21 7 5 0 7 13 30 44 60 69 73 75 74 76 82 83 77 77 74 70 76 75 78 83 80 82 85 82 92 91 
84 83 85 86 83 83 84 84 87 89 89 86 87 85 89 89 86 88 92 85 88 87 87 83 76 71 71 70 73 70 72 69 65 66 57 45 41 44 53 62 64 66 61 63 64 65 62 69 64 47 22 14 6 1 9 15 22 40 59 66 76 72 72 79 82 84 78 76 75 71 76 75 77 72 77 75 79 81 86 87 
84 83 87 80 82 82 81 83 84 84 85 86 88 86 89 89 88 87 93 89 89 89 87 85 80 76 73 72 72 70 71 70 64 62 30 17 21 22 35 46 61 61 55 65 60 63 70 66 63 56 30 21 14 8 16 18 20 40 58 66 70 71 71 75 78 82 78 79 80 72 71 71 67 65 66 71 76 74 80 86 
84 86 83 83 81 84 80 84 85 83 84 86 87 86 86 88 87 87 89 87 88 89 85 85 85 78 74 69 71 70 68 70 62 44 19 16 12 14 28 33 60 60 62 64 64 62 68 66 67 62 43 33 26 18 25 21 33 51 66 68 71 69 65 73 76 82 78 79 75 77 75 58 61 52 59 70 77 83 83 80 
83 87 83 85 81 83 80 80 84 85 84 88 85 85 86 90 85 85 88 87 86 86 88 88 84 82 72 67 64 71 66 70 58 42 23 17 15 14 28 29 44 58 63 65 64 63 68 66 67 67 54 50 40 26 35 37 53 61 68 67 70 70 70 72 75 78 80 78 80 76 72 63 51 57 72 71 76 78 85 84 
84 85 85 82 88 85 86 83 87 84 85 86 85 84 84 86 84 87 87 88 91 86 86 88 86 82 71 70 71 67 68 71 62 54 38 25 20 29 32 28 46 62 64 62 65 63 68 69 68 65 61 61 57 47 54 55 61 65 62 67 70 70 66 70 75 78 74 79 78 78 74 70 61 67 69 72 83 81 83 88 
82 83 83 83 82 82 81 84 84 84 86 82 87 86 84 84 81 82 87 87 89 86 84 86 82 84 80 73 70 68 70 73 62 61 45 35 30 32 34 32 55 58 62 65 62 58 67 65 68 69 66 66 64 61 69 63 63 67 71 66 69 70 72 68 73 73 77 75 78 78 78 72 72 73 75 75 86 85 89 87 
84 87 85 85 85 85 86 84 85 88 85 89 88 86 83 78 78 75 82 82 83 87 83 87 86 84 89 80 73 70 71 74 70 67 59 49 41 38 44 51 62 62 63 64 65 65 67 67 66 68 73 68 70 62 63 63 64 63 69 73 70 75 67 71 74 76 78 77 77 79 78 67 75 77 85 77 84 86 87 89 
84 84 82 88 84 85 84 84 86 88 86 85 86 86 83 74 62 59 68 81 80 81 86 87 83 90 86 79 71 71 71 71 69 70 65 60 56 55 62 61 63 63 63 64 63 63 68 67 67 67 70 65 68 61 67 67 64 63 63 67 70 68 70 71 71 71 72 76 75 76 67 62 72 80 85 85 87 86 89 90 
83 88 86 86 85 85 84 84 85 88 86 86 83 82 79 59 38 45 64 77 76 82 91 89 85 87 93 83 73 70 69 72 66 67 68 67 63 69 67 65 65 61 62 65 64 65 68 70 67 68 68 68 69 64 67 64 65 62 63 60 67 67 68 69 66 66 74 81 78 80 62 56 78 84 85 88 92 89 87 93 
85 86 88 87 87 88 88 83 84 90 89 88 82 86 80 63 35 41 60 72 80 83 90 88 85 89 90 88 79 75 72 71 68 68 70 69 68 69 68 68 66 62 66 61 65 64 69 68 71 69 69 65 70 63 67 65 63 63 64 63 63 62 64 64 58 57 66 79 80 81 64 67 68 84 87 87 92 92 90 92 
85 87 86 86 86 90 89 85 87 89 87 89 83 84 84 72 55 54 66 79 82 86 91 89 88 89 92 88 82 74 73 71 71 68 69 69 69 68 68 65 68 66 64 70 62 67 73 77 76 75 71 68 66 66 67 64 62 63 59 63 66 64 60 56 53 64 69 76 75 79 69 69 74 83 88 87 90 87 86 94 
87 88 89 86 86 88 85 85 88 87 83 88 86 86 84 82 70 67 77 79 85 88 91 88 86 89 91 89 86 78 75 72 69 67 69 71 67 65 65 66 66 64 66 71 71 71 81 85 83 79 79 76 73 66 64 66 63 63 58 63 67 65 63 59 58 59 68 72 78 78 67 70 67 81 86 87 86 91 87 87 
91 88 93 87 85 89 85 88 86 89 86 86 83 88 86 87 83 79 74 88 85 91 92 90 84 86 87 90 88 79 77 73 69 69 71 73 67 63 65 62 65 63 68 74 77 84 83 80 84 84 86 86 79 70 70 65 63 62 61 59 64 62 59 60 58 61 63 65 76 73 70 68 71 78 87 89 90 89 87 87 
87 87 89 85 86 88 87 86 86 87 84 86 83 89 84 87 83 82 85 85 87 91 88 90 86 87 91 88 86 84 76 70 70 67 71 67 64 67 67 60 65 66 72 82 82 74 75 78 68 68 70 83 87 82 70 62 63 65 58 61 58 63 57 59 61 56 55 59 74 75 75 66 62 76 86 86 88 86 84 91 
86 88 87 85 82 86 85 86 86 90 89 89 90 88 86 90 86 88 89 88 88 90 89 90 88 86 91 90 87 87 82 72 68 68 69 66 69 66 65 60 69 71 83 79 69 61 67 68 67 68 67 66 72 85 86 72 65 64 66 66 62 63 55 57 57 53 52 56 76 76 77 70 59 76 84 88 87 89 87 84 
84 90 91 86 88 89 89 88 89 88 86 90 86 89 88 91 91 85 94 89 91 94 92 88 88 87 91 92 84 83 81 75 74 67 69 67 71 69 65 67 73 80 75 71 69 64 69 67 68 68 67 67 69 71 85 86 71 65 67 64 64 71 64 62 58 58 61 66 77 79 81 64 68 76 87 86 90 87 88 87 
84 86 92 90 85 91 85 84 90 86 88 89 87 92 89 95 91 90 95 93 93 93 96 89 93 93 91 94 93 86 89 83 73 71 72 68 67 71 66 73 78 80 71 72 63 65 69 65 67 68 68 65 67 68 67 81 81 68 68 65 66 69 70 66 64 66 70 68 78 80 81 71 72 76 87 88 94 93 88 88 
88 93 92 90 90 92 89 86 87 85 85 92 89 94 91 97 88 92 98 92 91 94 94 93 93 93 89 94 90 94 90 85 79 69 71 70 71 69 73 73 92 69 68 70 63 65 69 70 70 69 66 69 66 65 67 72 85 78 69 66 67 68 68 70 69 70 72 76 84 84 86 80 71 63 75 92 94 92 86 93 
89 89 90 93 88 91 89 88 88 85 86 89 91 96 91 95 92 92 95 90 96 94 95 92 92 95 88 94 90 90 96 94 76 73 72 72 68 71 76 85 79 68 66 66 65 66 71 72 68 68 68 70 69 63 66 69 82 81 74 62 67 68 67 67 66 73 73 76 85 85 89 81 68 70 85 89 93 94 91 92 
89 91 92 90 90 89 85 88 86 90 87 89 91 97 95 98 95 91 95 95 97 94 97 89 93 94 94 90 90 91 93 91 83 76 76 72 68 75 81 87 72 63 65 64 63 67 71 69 66 65 64 69 67 57 64 64 71 84 78 67 65 69 63 67 70 71 75 79 84 83 89 81 70 74 79 86 87 87 91 92 
94 87 90 88 92 90 86 85 89 89 88 92 91 93 93 95 92 92 98 94 100 96 97 94 96 97 95 90 91 92 98 92 85 80 73 69 74 80 88 77 71 65 67 67 64 65 71 68 69 67 66 69 64 60 62 58 66 79 86 69 70 67 67 65 71 70 74 77 81 84 90 86 71 77 79 83 91 88 84 87 
89 92 90 87 84 86 89 84 85 89 89 88 91 91 93 94 94 93 98 94 96 99 93 94 95 96 97 92 92 95 100 99 90 86 77 78 84 87 89 72 68 66 65 69 67 63 67 68 72 69 70 67 68 61 63 57 64 73 85 74 69 68 68 69 72 73 76 75 80 84 85 89 80 84 83 78 88 83 86 93 
89 87 93 86 86 88 86 87 86 86 82 87 86 90 89 96 94 96 96 95 97 97 95 92 93 98 96 98 98 95 95 97 84 91 82 77 88 93 87 70 70 72 67 68 68 64 67 69 70 69 70 73 72 62 64 61 68 74 82 80 71 68 70 67 71 74 71 74 80 83 87 86 85 83 83 82 87 85 83 92 


