P2
80 60
256
20 20 24 28 37 45 83 89 70 39 56 93 86 48 41 33 30 29 25 26 23 30 22 23 22 21 24 28 29 30 32 29 25 26 23 28 25 24 22 23 21 22 23 24 24 26 24 23 27 18 14 16 13 15 17 17 17 17 17 18 16 17 17 19 23 23 22 24 27 30 25 25 24 22 19 20 16 19 15 10 
19 22 21 26 38 49 92 94 66 35 63 95 80 46 35 35 29 30 25 23 24 26 21 24 23 20 23 26 27 27 33 29 27 31 25 27 26 23 25 25 24 24 23 24 23 22 26 24 27 20 15 16 15 15 16 17 19 15 16 16 18 16 16 23 25 25 23 25 26 26 26 23 27 19 19 19 16 18 15 14 
22 23 19 27 46 51 92 90 63 40 65 92 71 41 37 32 27 27 29 28 26 25 24 23 25 25 29 28 27 30 30 30 26 28 25 29 23 25 28 25 24 26 23 22 25 27 26 25 26 21 17 17 17 19 15 17 21 20 21 21 23 23 28 25 25 20 23 25 23 27 25 23 20 21 21 23 20 20 13 12 
18 21 22 34 44 53 97 91 51 38 72 94 69 39 32 29 26 27 24 25 24 27 23 23 22 26 28 27 31 30 30 32 26 23 23 21 24 22 25 24 22 22 23 23 25 25 26 24 28 25 21 23 26 24 23 26 23 29 27 26 26 26 29 29 28 27 21 24 25 21 24 23 24 22 22 20 18 14 10 7 
16 23 21 34 41 61 106 90 49 40 77 88 59 36 31 27 23 24 24 22 21 22 23 24 26 26 26 27 28 29 31 29 27 23 22 23 23 21 22 20 21 22 25 21 24 25 25 28 26 28 27 25 21 25 27 28 29 31 28 27 27 27 27 26 24 27 24 24 26 24 21 24 21 22 19 21 19 15 10 14 
14 19 23 37 40 69 103 78 48 42 84 90 57 35 27 24 23 24 23 21 23 26 26 26 25 23 29 29 26 30 32 28 25 26 25 26 25 24 20 24 20 19 23 25 24 25 24 26 25 28 26 23 28 28 25 28 28 29 27 27 27 28 23 31 25 26 23 22 26 24 26 26 22 26 21 19 22 21 14 11 
15 23 23 35 37 68 102 78 44 43 85 84 48 29 29 24 23 23 28 23 24 25 22 25 25 27 25 25 26 27 34 29 26 27 25 26 26 25 23 23 24 23 22 24 23 24 26 28 26 27 28 25 26 26 28 29 28 25 27 25 25 24 25 28 22 26 22 24 28 27 25 29 24 25 24 21 22 18 13 14 
14 17 20 31 40 68 98 73 42 45 86 86 41 28 22 23 23 23 23 20 21 22 23 20 24 21 21 23 22 27 31 28 26 22 24 24 22 21 23 23 20 23 22 22 24 21 21 23 22 24 27 24 24 29 24 22 26 25 25 23 23 23 26 28 26 23 22 25 25 24 23 23 24 23 23 20 18 21 16 12 
3 10 13 29 29 65 102 71 36 45 88 79 39 25 22 21 21 20 20 20 23 20 21 20 22 20 25 22 25 25 29 25 27 24 24 23 24 24 24 22 23 24 23 25 24 27 25 24 25 24 23 23 23 24 22 27 24 23 21 25 26 28 28 27 24 27 26 24 27 25 21 28 24 23 26 22 18 23 19 16 
6 6 1 1 16 72 97 65 25 44 93 79 37 24 22 19 17 18 18 18 22 18 22 19 23 20 24 24 25 28 30 24 25 25 24 21 24 24 22 23 23 22 23 24 24 26 28 26 24 24 21 24 20 24 23 24 28 26 26 26 27 30 28 29 28 24 24 25 25 28 27 24 24 24 22 23 20 19 19 17 
12 16 9 2 17 75 98 58 22 47 102 82 22 14 12 13 11 17 16 13 18 19 16 16 18 20 20 22 20 23 27 26 20 24 22 23 22 23 24 24 23 22 23 22 20 25 26 23 23 21 21 20 21 24 22 22 27 27 27 28 28 27 27 29 28 24 26 24 28 28 27 25 25 23 22 17 21 19 15 17 
16 16 15 17 24 86 99 52 22 53 97 75 17 11 9 10 6 8 12 11 13 15 15 16 16 20 19 19 19 22 27 25 22 22 21 24 22 25 21 24 20 23 20 25 25 23 25 23 25 23 22 24 26 28 26 26 31 30 28 32 26 29 28 26 25 29 25 24 25 26 28 27 26 26 27 23 22 22 16 13 
14 17 15 20 19 82 95 54 25 56 100 71 15 11 6 5 8 4 5 5 2 7 5 4 9 12 14 15 16 23 23 23 19 19 19 22 20 21 22 24 19 23 21 23 23 25 23 19 23 23 23 23 24 26 27 26 30 27 26 26 28 27 26 26 23 26 27 24 24 24 27 29 25 24 20 21 22 18 19 16 
14 14 14 19 23 87 88 45 26 60 96 66 17 10 7 8 5 6 6 5 4 3 3 4 4 4 7 8 7 7 12 10 13 18 19 21 21 22 24 22 22 23 19 24 23 21 20 26 25 24 23 26 23 27 27 29 29 23 25 33 27 24 26 25 24 28 24 23 26 30 27 27 27 23 23 22 23 22 17 15 
16 15 16 21 38 87 85 42 22 72 91 56 17 14 11 11 10 8 10 4 2 4 6 3 4 7 6 5 7 8 8 6 5 3 0 10 15 23 22 23 21 20 23 25 24 24 24 26 26 26 27 26 25 30 28 27 29 28 26 31 30 28 25 28 30 27 29 25 25 27 26 28 26 22 26 25 22 21 18 15 
11 15 14 18 38 88 87 34 25 76 93 55 17 13 8 11 10 8 9 4 5 6 4 8 5 7 5 4 6 9 8 9 5 3 4 12 15 19 20 21 21 20 19 23 23 23 25 25 26 25 24 27 26 28 29 26 31 26 31 30 29 29 27 25 32 28 26 24 24 27 27 27 26 25 26 24 20 25 15 14 
11 16 17 20 47 92 81 32 21 79 88 49 19 13 10 12 8 11 10 7 9 8 7 6 5 4 7 2 7 9 10 6 7 15 17 21 22 21 22 19 17 22 21 22 23 22 25 23 25 25 27 25 27 28 28 29 29 26 25 30 29 27 29 28 26 30 27 27 25 26 27 29 30 24 25 21 21 21 17 12 
12 15 15 20 49 95 80 33 27 85 88 48 19 19 14 12 13 11 12 9 11 10 7 9 9 6 9 7 8 12 12 17 20 23 21 21 23 21 22 24 21 23 25 24 24 27 26 27 26 26 28 28 31 30 29 30 31 29 29 29 31 28 28 27 26 28 27 27 25 27 29 30 30 26 27 23 22 23 19 17 
14 15 18 20 53 91 76 29 27 83 82 41 14 12 12 13 11 12 12 9 11 8 8 7 7 8 6 8 9 10 18 21 20 22 22 19 21 20 22 23 22 20 24 24 26 25 24 24 24 25 25 27 27 28 27 30 31 28 27 27 30 27 28 30 25 31 27 28 26 28 24 24 24 24 27 24 24 23 20 20 
15 16 17 23 61 91 79 28 30 84 84 40 14 17 14 13 17 13 11 11 9 9 10 10 11 9 10 7 9 14 21 26 22 21 18 19 23 22 20 22 21 20 20 23 25 24 25 24 24 27 29 29 29 29 29 30 33 28 28 31 29 29 27 28 30 28 29 26 26 25 26 27 29 25 26 20 24 22 19 16 
21 24 19 26 71 95 77 30 32 93 83 37 16 14 12 13 13 14 14 11 10 12 11 11 11 13 8 12 9 14 19 22 24 22 20 20 20 21 21 22 23 22 22 24 23 27 24 25 26 27 27 26 29 30 27 28 34 30 30 29 29 29 27 29 28 29 28 29 27 26 28 29 30 22 24 24 22 22 19 17 
43 36 34 39 87 106 77 27 39 94 81 36 13 17 16 12 14 15 13 12 11 13 10 10 9 8 11 8 11 16 13 20 21 21 19 22 18 21 21 21 21 22 23 23 22 25 25 26 27 26 28 27 29 29 29 27 30 28 28 28 28 27 28 32 30 29 28 27 28 26 25 27 28 24 23 21 23 26 18 19 
103 99 91 92 111 104 62 23 46 94 82 34 16 16 10 14 12 11 12 10 10 12 13 10 10 10 10 12 12 12 11 20 20 21 20 17 20 20 21 19 24 24 23 22 23 24 24 26 25 25 27 26 26 28 30 29 29 27 27 28 28 28 32 28 26 30 27 26 25 25 22 26 28 23 24 25 25 22 21 17 
104 105 105 107 105 91 52 29 51 93 78 31 14 12 13 13 11 11 12 13 12 12 12 11 9 9 13 10 11 12 13 19 18 18 20 18 23 21 22 23 22 21 21 24 24 25 23 24 27 26 28 26 26 27 30 30 27 27 28 31 29 29 31 29 30 29 29 29 30 26 26 25 27 25 23 27 24 25 24 19 
60 63 74 87 88 68 35 29 57 97 80 30 16 14 14 16 15 16 13 10 12 13 16 13 11 11 11 12 12 14 16 19 23 21 20 20 22 19 25 22 26 26 24 25 24 27 25 29 26 30 28 28 30 31 30 29 29 29 30 29 34 31 31 29 31 30 28 30 32 28 28 28 27 24 25 22 25 23 19 18 
26 30 28 33 36 29 26 28 58 103 84 31 18 19 15 17 14 15 14 16 14 14 15 11 15 14 15 13 12 19 17 24 22 25 22 22 23 22 25 25 26 25 22 27 28 26 26 26 28 28 29 26 28 31 31 30 29 30 29 31 32 28 31 35 31 33 31 31 34 31 33 33 26 23 27 26 25 28 18 22 
43 43 34 31 27 26 27 32 70 111 81 29 15 19 15 16 14 14 16 14 12 14 14 14 12 13 11 10 12 14 16 23 24 23 22 20 23 24 26 26 24 28 27 27 24 23 25 27 27 26 28 31 26 32 28 30 28 30 27 30 31 30 29 31 30 32 30 30 32 31 31 30 27 26 27 23 25 23 23 20 
108 105 95 86 74 67 62 56 90 112 83 29 15 18 17 15 15 15 17 12 12 13 13 14 17 14 14 14 12 14 14 22 18 21 20 20 25 25 23 26 24 24 24 26 23 25 24 26 27 26 27 26 28 28 31 31 27 29 25 27 29 29 29 29 31 28 31 28 32 31 30 28 28 27 30 29 25 28 24 19 
105 110 108 107 104 100 97 92 101 102 74 23 17 18 16 19 16 16 15 16 15 15 15 13 13 13 19 15 13 18 16 20 22 22 24 23 24 24 26 28 25 27 25 25 26 25 24 29 29 26 28 31 29 29 30 30 32 29 31 28 29 29 29 29 28 30 29 31 30 34 33 32 32 25 29 27 26 27 26 18 
60 70 77 83 85 92 93 92 95 83 54 21 15 17 17 16 15 18 16 15 16 16 16 16 18 14 17 15 13 14 17 21 22 22 24 26 23 26 31 28 27 26 27 27 27 25 25 26 26 28 27 30 27 28 28 28 32 27 28 28 28 29 30 29 31 33 31 31 33 33 34 35 33 27 31 25 29 29 25 22 
24 28 29 30 32 36 40 41 49 39 24 18 16 19 19 18 17 16 17 14 16 19 16 19 16 18 15 19 14 15 18 23 23 23 21 25 25 25 25 27 24 27 27 24 25 25 27 26 29 28 27 28 26 27 27 29 33 27 28 30 31 30 31 31 29 33 32 32 34 32 34 32 33 30 28 24 31 28 25 22 
22 25 22 24 24 20 25 25 27 23 21 18 18 18 17 22 17 18 18 17 18 18 18 19 17 17 16 16 17 19 18 22 27 25 25 23 25 26 27 26 27 27 24 25 28 26 26 26 30 30 27 28 30 30 30 30 30 31 29 29 31 32 33 33 30 30 33 29 30 34 34 34 32 34 31 27 31 28 26 23 
20 22 20 23 25 19 23 21 23 21 20 18 14 18 21 20 21 16 19 18 17 19 19 18 21 18 18 17 20 17 17 19 23 26 25 25 23 27 27 27 26 28 26 23 25 24 26 26 26 28 29 31 28 27 30 31 29 27 28 31 31 30 32 32 31 32 29 33 35 30 31 31 33 34 31 28 27 30 26 25 
20 23 21 25 21 20 24 18 20 26 21 18 15 20 19 19 20 21 21 15 20 19 21 19 22 18 21 16 20 21 17 24 26 24 24 25 27 27 24 30 28 27 29 27 28 27 29 27 30 32 29 30 28 30 32 31 31 29 29 33 33 34 32 33 34 32 34 33 31 34 34 35 34 36 38 31 29 33 28 27 
18 26 19 20 24 20 20 21 23 21 20 20 16 20 23 19 19 20 18 20 19 20 21 21 21 21 20 19 21 18 19 23 23 23 26 29 30 24 26 28 28 26 23 27 27 28 25 25 29 29 30 28 29 33 33 31 32 33 28 32 34 32 34 32 32 30 31 32 35 37 31 34 33 35 36 29 29 29 31 25 
18 27 25 23 22 23 22 21 23 19 19 19 19 24 20 22 22 21 20 20 20 22 23 21 21 20 21 20 23 22 19 22 23 24 27 28 28 27 25 26 26 28 25 26 28 24 26 27 29 29 28 31 31 34 34 33 30 32 29 32 33 32 32 36 32 32 33 31 33 35 31 33 33 35 39 33 32 33 34 31 
21 23 25 22 24 21 24 22 24 22 21 20 19 22 22 22 22 21 24 21 19 26 21 23 23 20 25 20 23 23 20 26 28 26 25 27 27 29 27 26 30 29 28 27 27 31 30 33 32 31 33 29 31 31 32 32 32 29 31 33 34 32 33 35 33 31 30 34 33 34 35 34 34 35 37 30 31 37 37 36 
21 23 24 26 23 24 24 20 24 21 21 21 21 23 24 21 22 24 23 23 22 24 21 24 23 21 24 21 25 21 20 24 29 29 27 27 28 30 26 27 28 29 28 25 28 30 30 30 30 29 27 31 28 33 30 30 33 31 29 32 31 34 33 35 33 34 33 34 32 33 34 33 34 33 36 34 34 36 38 42 
22 22 22 26 24 24 23 18 30 19 19 20 20 22 24 24 23 24 25 22 22 25 23 23 23 26 25 26 28 24 23 23 26 28 28 25 29 27 27 28 25 30 27 25 31 29 31 31 31 28 31 30 32 34 31 31 35 32 31 28 29 33 31 33 31 33 32 32 34 35 35 37 34 31 34 32 35 43 47 49 
22 23 23 25 25 24 24 20 29 20 19 22 19 20 23 24 23 23 27 22 25 26 25 26 25 24 26 27 24 24 28 24 29 28 26 28 28 31 28 27 28 27 28 31 28 29 31 30 28 30 31 29 31 32 32 34 32 29 30 29 31 33 32 33 30 31 34 35 36 37 34 37 36 31 35 37 51 52 46 42 
24 25 25 25 26 24 24 21 27 20 21 20 22 24 26 25 27 24 27 25 29 27 27 26 27 28 27 25 27 27 26 26 28 28 28 27 29 29 29 29 31 31 30 31 30 30 30 28 29 30 32 30 30 33 32 32 32 30 29 32 33 31 31 33 33 34 34 34 34 33 37 36 36 33 33 36 37 41 39 32 
20 22 22 27 26 25 26 22 27 25 21 22 23 26 26 25 26 27 28 27 27 29 27 28 29 31 27 29 28 27 25 23 27 27 26 29 30 28 30 30 31 29 29 30 30 32 31 28 31 28 30 31 29 33 31 31 33 28 32 30 31 30 30 33 34 33 33 35 39 39 37 37 36 36 34 35 37 35 42 55 
22 24 24 26 28 29 29 20 24 24 22 20 21 27 26 26 26 25 29 26 26 28 31 30 31 29 28 29 24 29 25 27 30 28 27 29 30 29 32 31 28 26 31 29 27 30 26 28 29 26 30 32 30 33 30 26 30 30 30 30 31 31 31 34 33 33 34 34 35 37 38 37 41 37 38 36 37 40 47 115 
20 22 24 24 29 30 29 28 28 25 18 21 23 28 27 27 25 29 28 28 29 32 30 32 31 31 32 29 28 26 29 27 30 31 30 29 35 32 32 31 30 30 27 29 28 27 27 27 29 31 30 29 31 30 29 27 31 28 29 31 31 31 30 33 31 30 35 36 35 37 40 43 46 44 54 59 68 82 103 169 
22 25 21 27 27 28 31 29 29 25 22 24 23 28 26 31 30 30 33 31 37 35 32 35 36 30 30 30 26 27 26 24 29 30 30 30 32 31 31 29 30 30 29 28 31 29 28 25 27 29 28 26 29 30 26 31 31 33 29 31 32 36 34 31 33 31 37 36 38 48 68 83 91 105 118 124 137 150 167 197 
23 25 27 25 31 30 33 28 28 24 22 23 25 31 29 29 27 31 32 34 32 39 34 34 38 35 32 29 28 29 27 24 28 30 29 33 29 34 32 32 30 32 28 30 31 31 30 32 31 32 30 31 31 34 30 28 29 34 29 28 33 36 36 37 37 36 35 38 40 67 106 124 134 139 150 158 165 185 200 227 
20 27 27 30 30 29 33 25 27 24 21 26 26 30 29 33 28 31 34 36 37 38 36 37 37 35 33 28 28 28 27 23 26 30 30 34 32 32 33 31 31 33 29 31 32 30 28 29 31 30 28 31 31 32 28 28 34 29 30 33 33 37 34 34 31 37 37 37 43 77 118 149 158 164 175 183 196 219 232 246 
24 25 23 28 31 28 29 25 28 29 27 25 28 29 27 29 31 31 34 32 35 38 37 37 39 37 39 40 35 36 35 31 26 28 33 33 33 33 31 32 33 31 31 30 29 29 28 31 28 29 33 30 28 30 30 27 33 34 32 27 33 33 33 35 33 34 35 40 38 72 117 152 167 174 182 193 206 226 244 248 
23 25 26 33 29 28 32 26 30 31 25 25 26 30 28 35 32 35 35 35 38 35 37 36 39 39 43 44 40 38 38 33 31 30 33 36 34 32 37 34 30 31 31 32 33 27 29 30 27 30 30 32 31 30 29 30 34 29 30 31 32 37 33 35 32 34 34 37 38 70 118 154 166 175 185 190 208 225 241 256 
24 26 26 28 34 28 32 27 30 31 28 27 31 34 32 33 33 34 34 36 36 40 36 36 36 41 48 42 43 38 38 30 30 32 34 34 34 32 32 32 33 33 32 30 30 30 29 30 28 30 31 30 31 29 30 29 31 29 32 32 33 32 39 37 34 34 34 39 40 69 118 148 163 172 180 189 202 221 239 254 
25 29 28 31 31 31 29 25 31 30 29 29 26 40 32 31 33 33 37 37 41 43 39 42 41 42 47 46 41 43 39 33 30 31 33 36 37 33 38 35 33 34 35 35 32 31 29 30 30 30 29 32 30 30 31 29 31 31 32 33 35 35 35 34 35 38 36 38 43 73 114 143 159 167 175 187 202 217 237 250 
30 31 28 30 31 31 33 27 31 34 31 31 29 34 33 37 33 37 40 38 42 43 42 41 43 43 46 46 43 41 43 38 31 33 37 36 37 35 32 36 32 34 34 33 32 32 28 31 31 31 31 30 31 32 34 35 33 31 35 35 32 33 34 36 34 39 36 40 45 66 109 141 157 165 176 187 195 214 234 248 
29 31 31 33 34 36 33 36 33 34 33 31 31 35 36 36 37 40 42 41 44 47 45 44 47 47 52 46 46 41 44 39 29 33 38 37 40 37 36 37 35 34 35 35 35 34 29 33 33 34 32 32 33 35 38 41 38 36 36 35 36 32 36 36 37 41 35 39 43 63 103 138 154 166 175 185 197 213 231 245 
31 34 34 38 41 37 37 34 35 38 36 33 35 37 36 38 38 39 45 44 48 48 51 48 49 48 53 48 47 44 45 37 32 34 39 42 40 37 37 39 32 37 35 36 36 34 32 32 33 32 35 37 37 42 43 46 45 43 37 35 36 37 36 36 39 39 37 41 40 55 97 136 154 168 169 177 182 189 215 243 
36 37 36 40 41 42 43 34 37 38 37 37 40 44 43 39 42 43 44 45 51 52 52 54 53 55 54 56 51 50 47 44 38 35 38 43 40 41 41 39 37 38 36 37 34 36 34 32 36 38 37 37 41 45 50 68 79 64 47 37 40 36 40 40 40 40 38 44 45 53 96 134 157 162 167 172 172 167 215 255 
36 42 42 44 43 42 47 38 42 40 39 39 39 44 43 45 47 45 51 50 56 58 58 54 58 58 61 61 54 54 54 48 40 41 42 45 42 46 44 41 40 40 41 41 38 36 35 35 37 36 39 39 44 47 80 198 172 104 61 46 42 40 40 38 39 41 40 40 46 53 94 131 157 164 169 178 181 197 227 245 
42 43 44 49 45 45 43 42 43 42 41 43 41 45 48 46 49 52 52 52 59 61 64 62 61 61 61 62 57 57 55 45 40 42 46 46 47 44 45 38 39 41 42 36 38 39 37 38 39 38 37 42 44 48 97 241 183 106 58 45 39 39 40 36 37 41 41 41 47 54 90 127 152 164 172 177 192 204 221 241 
48 48 49 50 50 48 51 47 49 47 45 44 42 49 49 51 56 54 57 60 64 65 65 65 67 66 67 65 60 59 54 49 40 42 49 48 47 43 40 36 37 44 40 37 41 38 37 39 41 37 39 38 41 44 61 94 95 72 52 46 39 37 38 37 39 40 37 43 46 49 87 124 151 164 167 179 190 208 221 239 
56 55 56 59 55 55 56 52 51 52 52 50 51 55 54 57 54 58 60 62 67 73 72 79 78 76 79 73 67 62 56 50 44 45 50 50 47 41 36 43 38 41 42 43 44 44 37 44 42 40 43 43 42 45 48 56 58 52 47 43 42 44 42 41 40 39 41 45 44 51 87 125 151 165 172 182 193 209 222 230 
74 73 69 63 58 56 61 56 53 54 50 50 55 57 57 59 58 61 66 70 75 74 77 79 80 86 82 77 65 62 57 52 47 48 48 49 50 47 57 68 46 46 49 46 45 44 42 44 41 44 46 44 44 45 48 52 50 49 45 42 39 39 42 44 42 42 43 40 43 48 76 133 151 167 172 181 195 212 220 233 


