P2
80 60
250
30 31 33 44 81 107 89 47 58 98 99 63 46 44 41 33 34 29 33 31 32 30 28 28 27 27 30 31 34 40 37 32 32 34 32 31 30 30 29 30 29 29 28 29 30 31 31 29 21 20 23 24 19 18 19 18 23 24 22 24 28 25 28 25 26 22 24 29 29 30 28 25 24 22 24 21 29 25 24 29 
27 31 35 49 87 110 82 44 59 96 96 59 42 41 35 33 34 32 33 31 28 27 27 28 30 32 32 30 30 35 34 34 31 31 31 28 31 29 29 27 29 29 29 31 33 29 28 29 25 22 19 23 22 21 24 23 24 26 27 27 29 29 33 33 33 24 23 26 27 28 26 24 27 27 22 24 26 27 22 22 
23 26 33 49 91 105 76 41 64 97 90 53 36 38 35 33 31 32 30 29 30 30 27 30 29 30 30 30 30 35 33 33 28 28 31 26 26 29 30 28 32 25 29 29 29 31 30 31 27 25 23 26 27 25 26 29 29 31 31 32 30 30 30 29 32 22 23 25 29 27 28 23 26 28 23 22 27 24 22 18 
23 25 31 50 97 103 70 41 68 95 83 47 39 37 32 32 33 30 29 30 31 31 31 31 34 32 31 30 34 35 32 32 29 28 28 26 26 28 29 28 32 29 31 31 31 27 34 30 28 32 30 31 29 30 28 32 28 33 32 31 31 30 27 28 27 22 23 22 28 29 28 27 29 24 22 23 26 24 22 25 
24 28 35 51 104 106 66 41 74 95 81 43 37 32 28 32 31 29 26 27 31 32 30 32 30 31 29 33 32 31 31 31 28 27 28 28 29 31 26 25 27 25 27 29 29 28 29 33 33 32 28 29 30 28 27 27 30 28 29 29 30 27 24 26 28 25 23 24 27 27 28 27 25 27 21 22 23 24 23 21 
24 27 36 59 103 94 67 43 80 95 80 35 36 32 30 27 24 30 27 28 32 33 29 30 28 28 30 29 30 32 32 31 29 27 26 25 26 29 27 26 28 27 28 28 30 29 30 31 26 30 30 29 31 27 27 28 29 25 27 29 29 24 27 26 28 28 17 21 28 29 25 25 27 26 21 25 22 16 17 13 
22 33 37 58 104 94 60 38 80 95 74 36 35 33 32 27 27 27 28 30 32 28 27 30 31 30 30 30 34 34 30 33 29 29 26 26 29 25 26 28 24 28 27 27 28 26 26 27 29 30 28 29 27 27 29 28 28 27 25 25 31 30 31 29 29 27 21 23 28 29 25 26 25 24 24 27 24 14 17 23 
21 31 30 54 102 92 57 37 78 93 67 35 32 29 26 28 24 27 28 28 26 28 23 26 27 24 25 30 29 32 32 31 27 26 26 27 28 27 26 27 25 28 26 26 27 30 23 27 27 26 28 26 31 27 27 27 31 29 29 29 31 31 26 30 31 29 22 21 28 27 27 27 25 24 23 26 24 17 19 17 
12 23 28 48 104 93 52 36 84 94 66 37 27 27 26 26 25 27 28 27 27 26 25 28 26 25 29 28 30 32 31 31 27 28 27 32 33 32 29 26 25 27 28 26 28 30 28 29 29 27 28 23 26 24 27 29 29 33 31 35 33 32 31 30 30 36 24 20 29 31 30 33 28 26 24 25 23 20 16 19 
10 3 0 43 106 90 46 36 89 98 62 32 28 25 25 23 24 27 25 29 26 27 23 27 26 28 24 26 30 32 34 29 30 28 28 27 29 31 30 29 28 28 27 30 28 31 29 30 28 27 26 27 26 28 32 30 33 35 31 33 37 30 31 28 32 31 28 22 29 29 30 31 29 28 26 27 24 20 20 17 
13 6 2 52 108 92 36 30 100 107 52 19 17 16 14 18 19 20 19 24 25 23 25 24 24 25 23 26 24 30 28 26 25 28 26 27 27 30 27 27 26 29 25 28 28 29 27 23 25 24 27 30 29 29 30 31 33 31 32 33 33 29 29 30 34 33 24 22 25 28 32 29 29 26 25 23 23 21 21 24 
19 17 17 60 112 95 36 36 99 106 51 19 16 14 17 13 12 17 18 19 17 23 20 23 25 24 21 24 24 27 29 27 26 29 28 27 25 29 29 27 27 31 28 28 30 27 24 28 28 32 33 32 31 31 33 34 35 32 32 35 35 31 31 31 36 34 28 25 28 31 29 34 31 30 28 26 23 20 20 23 
17 17 18 59 104 89 37 36 97 101 48 11 13 12 13 9 16 14 10 8 9 12 9 13 12 15 14 15 14 18 19 24 23 21 21 24 25 27 28 25 30 25 25 26 27 23 26 29 28 30 30 29 31 30 28 29 31 31 30 32 34 31 28 30 28 30 28 24 25 26 30 27 27 30 25 25 24 19 22 22 
17 21 18 67 102 84 37 42 104 102 47 21 18 15 16 13 13 12 12 11 12 10 8 10 15 9 5 8 12 11 12 8 17 14 21 23 24 27 28 27 26 25 24 26 31 31 29 31 30 33 31 33 31 30 33 32 35 30 33 35 34 32 31 33 36 35 30 26 23 29 31 32 33 31 29 29 26 26 21 22 
16 17 21 74 98 75 33 43 105 90 41 23 20 19 18 19 14 13 14 13 13 13 12 11 11 12 9 10 13 10 11 8 7 10 23 26 26 30 27 25 25 28 28 32 31 30 25 33 34 33 33 34 32 32 34 32 33 34 30 34 31 31 32 31 34 35 29 27 25 30 31 28 30 31 28 33 31 23 20 24 
20 18 23 74 99 72 30 45 102 85 41 18 20 16 20 16 13 13 15 11 11 10 11 12 12 10 12 8 9 13 8 11 15 19 28 27 28 23 23 25 24 27 27 30 33 31 28 30 31 29 30 29 29 30 31 29 32 30 29 34 32 31 30 32 32 37 31 25 23 21 28 32 32 28 26 29 29 22 28 24 
21 22 27 76 98 74 33 47 104 85 36 21 22 19 19 17 17 17 15 14 17 14 15 16 14 12 13 13 13 14 21 21 28 27 30 29 25 25 33 28 25 28 30 33 33 32 30 29 31 30 30 33 34 30 32 33 31 32 29 32 35 31 34 32 34 35 35 30 24 26 36 29 30 29 25 31 30 24 28 25 
21 20 24 85 104 74 29 46 104 85 37 20 19 18 18 19 18 15 16 18 17 18 17 19 14 17 13 15 17 23 27 30 30 31 31 28 28 30 30 29 26 27 33 32 34 35 35 37 33 37 32 33 35 32 34 34 36 33 35 33 37 32 35 30 34 38 35 31 24 24 31 32 31 31 32 30 33 31 28 29 
21 19 24 89 103 69 28 49 105 81 35 19 18 17 20 18 17 18 16 16 15 15 16 16 16 11 14 10 15 23 28 30 29 28 27 26 27 27 29 26 27 29 30 29 32 31 32 30 31 31 32 31 34 34 32 31 30 32 34 32 36 32 34 29 32 37 33 32 22 20 28 30 29 28 28 30 31 32 28 28 
21 22 26 91 100 68 32 50 105 83 35 21 20 19 21 20 20 20 19 17 16 17 19 17 17 16 15 12 17 25 30 28 29 25 25 27 29 29 30 29 28 29 32 28 31 32 32 35 30 32 34 35 33 32 33 34 36 33 34 35 36 34 32 32 35 34 37 34 26 19 28 30 32 32 32 28 35 32 27 26 
21 24 30 97 101 69 33 56 107 83 33 22 23 24 21 23 23 21 20 19 17 17 17 16 19 16 15 17 14 22 27 27 28 26 28 27 28 25 30 29 29 30 27 31 33 31 32 31 36 32 35 34 35 34 32 32 34 35 33 37 36 36 30 35 37 38 37 40 28 22 26 31 34 33 32 32 33 30 29 30 
30 28 43 111 105 66 33 64 107 83 36 23 21 25 23 18 22 21 22 20 19 20 18 17 19 14 17 17 18 18 27 27 27 26 28 27 28 30 32 28 30 29 29 30 33 29 32 32 32 35 37 34 33 33 36 33 33 35 32 33 36 35 35 35 38 37 37 40 35 24 20 32 34 32 32 30 35 32 28 26 
78 74 78 125 110 57 33 68 107 80 30 23 22 22 19 20 20 19 17 19 20 20 18 16 19 17 17 16 16 17 24 25 27 29 28 24 26 26 29 31 29 28 28 28 30 29 29 35 32 34 35 32 30 32 32 31 32 32 32 34 33 35 33 35 34 35 35 38 36 23 17 21 29 31 31 33 33 30 28 30 
108 110 109 113 93 48 33 70 105 76 32 25 22 21 19 17 19 20 19 19 19 19 18 17 19 18 19 16 17 17 25 24 27 23 27 25 26 25 27 31 32 28 27 30 29 29 30 30 28 32 31 33 33 32 32 31 34 30 29 35 34 34 35 36 37 35 33 36 33 29 21 19 26 26 27 32 31 27 29 31 
102 101 98 94 80 37 40 76 108 82 32 27 26 22 22 21 20 19 23 20 20 21 21 20 21 16 17 19 19 21 25 29 28 28 28 30 30 30 29 30 34 33 29 32 34 30 33 34 33 35 35 34 35 35 33 34 34 37 34 35 34 37 36 37 35 38 37 36 35 33 33 24 21 26 28 32 36 32 28 29 
45 45 50 52 40 34 38 78 115 81 33 26 27 26 24 25 22 24 21 22 21 23 21 22 22 22 22 21 21 22 29 31 31 27 33 29 29 34 31 32 31 33 32 33 35 32 31 35 33 34 36 37 35 35 35 35 36 36 33 37 35 37 35 39 39 40 39 40 38 33 34 32 28 21 21 22 27 29 26 28 
32 29 28 27 30 28 36 87 117 81 36 28 23 24 23 21 21 21 22 22 22 21 20 20 23 17 18 18 19 20 24 31 29 30 30 31 32 30 31 33 32 31 30 31 31 33 33 32 33 33 34 36 33 34 34 34 33 35 35 34 36 31 32 34 37 38 37 38 42 36 37 36 34 24 22 21 24 23 27 31 
78 69 53 51 46 50 51 104 122 81 36 29 21 23 24 24 23 25 24 24 22 22 23 23 22 22 20 20 19 19 27 32 33 29 30 30 33 31 32 34 33 32 31 31 32 31 34 33 36 34 36 37 32 37 35 35 34 34 35 39 35 35 35 36 38 38 38 36 40 38 37 38 38 33 34 34 32 25 29 29 
124 121 107 104 102 99 106 115 112 74 34 26 26 24 22 24 26 22 28 23 25 23 20 21 21 21 21 19 22 19 26 31 32 31 31 32 33 32 34 34 32 34 31 33 32 30 33 31 34 34 35 35 32 36 33 32 34 35 33 36 36 35 34 35 36 38 41 39 36 36 34 38 38 35 36 34 36 29 28 29 
104 108 103 106 106 105 106 103 96 61 30 23 25 21 25 25 24 26 29 25 23 25 22 20 23 24 23 23 21 22 29 32 32 28 29 31 33 32 35 33 29 35 30 35 32 31 34 34 32 34 31 35 31 32 36 32 34 35 33 35 36 34 37 37 38 42 41 41 37 38 39 34 36 33 29 32 36 29 30 26 
44 48 46 51 59 62 67 67 60 35 26 25 27 26 23 26 25 26 28 23 27 30 26 22 25 20 23 23 22 22 26 33 31 31 32 31 32 33 37 35 32 34 31 32 35 30 31 35 34 35 33 36 37 33 32 33 34 34 34 37 38 35 35 39 34 38 38 41 40 37 40 41 38 32 31 34 34 34 31 29 
30 28 26 27 27 31 34 28 35 23 25 27 26 26 28 27 27 25 29 24 24 28 27 24 28 23 21 27 23 24 27 32 32 34 33 32 33 30 34 37 34 34 33 29 34 33 33 35 36 36 34 37 36 33 33 36 35 34 34 37 34 36 38 37 36 39 39 39 40 34 40 41 36 35 32 30 34 31 29 34 
25 25 21 22 28 26 28 22 28 24 26 25 32 28 28 28 26 28 26 25 24 28 27 27 27 25 23 27 24 24 26 34 34 32 29 31 34 35 35 33 35 33 34 35 33 32 34 35 34 38 36 36 34 34 33 39 36 36 34 33 39 37 39 40 37 39 40 41 39 38 36 40 41 36 31 31 32 33 27 30 
27 24 23 25 28 25 27 24 28 25 27 27 29 28 31 27 29 29 29 26 25 27 26 28 30 28 24 26 24 24 25 33 32 32 31 30 32 32 36 35 37 35 36 32 36 33 34 34 33 37 36 38 36 35 35 34 35 35 37 36 39 37 38 38 40 39 39 43 40 38 36 39 41 38 35 33 36 34 33 37 
30 27 22 20 27 27 26 26 31 25 28 29 28 29 31 28 28 29 29 29 30 30 30 29 32 28 28 27 25 25 27 34 34 31 33 32 34 34 33 32 33 33 33 32 35 34 35 33 36 35 35 37 37 35 33 35 33 35 39 40 38 40 39 42 41 42 42 41 41 38 39 40 41 35 34 35 36 32 33 33 
28 27 20 23 26 25 29 27 30 25 29 31 31 28 30 29 28 30 31 27 30 31 30 27 32 25 29 29 28 25 28 35 35 33 33 32 33 33 35 33 32 37 32 34 36 32 38 34 38 36 37 39 34 37 34 37 36 35 35 40 37 38 35 39 39 41 40 42 38 39 39 37 40 37 37 37 36 36 31 32 
27 30 27 24 30 25 28 27 28 26 31 29 29 31 29 30 29 31 29 30 31 31 31 33 30 30 33 31 27 27 28 36 36 34 36 33 34 34 36 34 37 33 34 31 38 35 37 37 37 36 36 36 34 38 34 34 35 35 36 37 37 36 36 37 37 41 38 41 41 40 42 36 37 38 34 39 35 36 36 35 
27 24 23 23 25 26 28 28 32 27 27 31 30 29 30 33 28 31 30 29 31 31 29 31 33 29 33 33 27 29 27 37 36 35 35 36 34 35 35 33 36 35 33 37 36 35 35 40 38 37 37 39 35 37 35 35 36 35 34 35 37 38 38 39 40 38 39 39 41 42 38 38 36 38 32 37 37 32 41 40 
29 25 23 27 27 28 28 30 32 24 26 29 31 32 32 32 30 30 31 31 30 31 32 30 34 31 34 32 30 27 27 32 36 33 36 35 34 32 33 34 35 39 34 33 34 34 34 40 37 35 38 38 34 38 34 37 36 36 34 35 38 35 38 36 39 40 41 40 40 41 38 41 37 38 35 35 36 38 44 48 
30 25 25 27 31 29 34 31 30 24 26 29 33 31 33 32 31 31 30 30 32 32 34 34 35 35 32 34 31 31 28 35 36 37 35 33 34 33 36 35 40 35 36 36 34 37 37 35 34 36 36 38 35 37 37 37 36 38 35 37 36 35 37 36 40 41 42 41 38 40 38 38 38 39 35 40 46 49 55 61 
31 26 26 28 32 26 29 29 31 26 27 29 35 33 34 32 33 31 33 33 33 35 35 35 36 35 33 33 34 32 30 34 35 39 37 34 36 35 36 36 34 35 34 35 36 37 37 36 35 36 36 35 38 38 38 37 39 35 36 36 35 38 39 35 38 39 40 42 41 41 39 37 39 36 35 42 54 50 56 104 
28 29 24 32 32 30 33 32 29 26 28 33 34 34 36 33 33 36 33 34 39 37 35 40 39 38 36 35 35 35 31 34 38 36 36 36 36 32 39 36 40 37 34 36 38 37 36 36 36 35 35 38 38 36 37 34 39 34 37 38 41 38 39 37 40 42 41 43 46 39 43 39 43 39 37 43 49 48 67 146 
29 28 25 29 36 30 28 33 31 28 33 31 34 34 34 36 35 36 34 38 36 37 36 37 40 37 37 35 35 36 30 39 37 41 39 34 38 36 38 38 38 37 34 35 38 36 37 37 36 34 36 38 35 37 36 38 34 36 32 35 36 37 37 33 40 43 43 42 42 41 40 43 42 40 42 43 44 44 68 154 
28 26 24 25 33 36 33 36 35 29 31 32 35 36 37 38 36 38 37 36 41 38 38 40 40 39 35 36 34 34 29 33 37 39 39 37 41 36 39 38 39 39 38 34 37 38 37 36 39 34 36 38 36 34 31 33 33 35 33 39 36 35 37 39 39 38 43 42 47 42 44 42 47 41 42 42 51 46 64 153 
27 26 26 28 34 31 32 34 32 27 29 29 35 35 34 37 39 41 40 41 42 41 41 40 42 40 34 29 36 35 31 31 38 37 39 40 38 37 39 37 39 38 35 37 37 33 36 35 34 34 36 36 36 31 32 34 33 35 32 34 36 36 38 39 39 41 43 42 45 42 40 46 48 48 47 59 65 55 60 148 
29 31 25 29 33 31 32 32 33 24 31 32 36 36 38 36 41 40 41 38 41 44 45 43 43 36 34 33 33 30 27 30 38 43 42 39 36 37 38 40 36 36 38 39 34 37 38 39 36 37 36 37 35 35 35 34 34 36 35 35 35 35 36 36 39 43 44 45 45 45 46 64 96 104 123 155 147 102 92 156 
30 29 26 28 35 34 34 33 32 27 32 32 36 37 37 36 42 40 41 39 41 47 45 46 45 41 41 40 40 40 37 32 35 40 40 39 39 37 40 37 37 38 35 38 39 38 38 37 37 36 36 36 36 32 31 36 37 36 37 37 39 37 39 36 41 42 45 44 47 49 74 128 156 166 175 182 165 141 154 183 
27 26 25 29 33 36 36 35 34 30 30 35 37 37 35 39 43 39 41 43 45 47 44 46 49 47 50 43 47 48 40 35 35 41 38 40 38 42 42 38 38 40 39 38 39 37 37 37 35 34 35 38 37 32 34 36 35 34 34 35 38 37 39 39 40 44 45 46 57 77 104 125 135 142 142 155 157 168 182 202 
31 29 26 30 32 35 33 33 36 29 36 37 38 40 40 41 42 40 44 44 42 45 45 47 48 51 53 51 47 46 43 36 34 42 40 41 42 40 42 39 40 38 41 38 39 37 37 36 38 35 35 34 36 35 35 37 38 35 35 37 39 40 41 39 42 44 45 49 72 104 120 133 138 138 147 165 183 198 220 240 
28 28 26 30 31 36 34 32 37 32 34 39 36 37 38 38 40 43 45 44 44 47 41 46 47 49 50 52 49 46 42 36 36 45 41 41 39 39 39 42 40 38 37 37 41 37 40 38 37 37 36 35 37 34 36 35 35 37 33 39 39 38 39 39 44 41 42 49 72 107 137 151 157 161 168 187 201 215 236 244 
33 28 30 33 35 37 34 33 40 33 39 36 40 42 41 44 42 41 46 44 47 46 50 48 50 48 54 49 49 48 48 41 35 43 44 44 42 44 43 42 42 40 39 38 38 39 36 39 38 36 37 35 38 35 39 41 40 35 38 38 40 37 39 40 42 41 46 49 73 111 141 157 160 168 176 189 203 217 238 244 
32 30 27 30 36 39 35 34 39 35 38 37 45 42 42 43 44 43 45 46 48 47 50 53 54 54 55 55 50 50 50 39 39 42 41 44 42 40 42 42 44 42 41 42 39 41 39 37 38 39 35 38 42 43 43 46 42 38 41 40 39 39 43 42 42 41 49 48 65 100 132 152 161 166 171 184 200 217 235 240 
35 36 31 35 39 38 37 35 42 34 38 41 39 46 46 44 44 44 48 46 51 51 52 52 55 54 54 55 49 49 47 42 36 44 46 45 43 41 41 42 41 42 44 40 40 39 41 39 37 36 37 39 40 39 51 53 49 49 43 42 42 41 39 42 46 44 48 48 59 96 128 150 157 161 171 186 201 213 235 241 
34 34 34 34 37 39 39 37 41 37 38 42 42 41 46 46 47 44 48 50 51 54 55 55 56 56 56 59 51 53 51 42 41 43 46 45 45 43 47 44 42 42 43 42 40 42 37 35 38 39 39 41 40 46 56 74 85 63 48 44 42 44 42 44 44 48 50 45 54 90 124 145 154 164 168 181 195 210 231 236 
38 38 37 38 43 42 45 38 45 39 44 39 45 50 47 49 52 49 54 54 56 58 58 59 60 63 61 60 57 58 55 47 44 46 48 48 49 47 48 46 41 43 45 46 44 42 40 42 42 42 44 43 47 53 107 218 158 97 56 47 45 43 45 43 46 48 45 47 55 85 119 144 153 163 165 178 194 208 228 234 
46 41 39 42 46 49 46 43 45 42 46 47 47 53 53 52 53 52 57 58 65 62 66 65 67 65 66 64 62 61 54 51 44 45 53 53 49 49 48 45 47 47 45 44 46 41 44 43 43 42 47 44 49 58 126 250 161 93 56 48 47 44 42 44 46 47 49 54 53 78 115 141 152 158 164 172 187 196 221 237 
51 43 42 45 49 48 46 46 49 46 47 50 51 53 53 52 54 57 57 63 67 70 71 68 70 71 67 66 64 62 55 52 46 51 52 51 50 48 48 47 46 46 46 41 44 46 46 45 45 45 43 47 50 51 72 99 90 62 50 46 46 41 42 43 43 48 48 52 54 74 111 135 147 157 163 168 163 162 215 230 
56 50 46 48 52 51 52 51 53 46 51 52 54 54 57 55 62 61 66 67 70 73 76 72 77 75 77 75 69 62 61 53 45 47 53 52 52 46 47 46 48 49 46 47 46 47 45 46 44 45 44 49 48 45 53 57 62 53 49 46 45 43 46 43 45 48 49 50 53 66 103 133 150 155 161 166 163 173 222 229 
65 61 57 61 61 63 61 56 59 56 59 59 56 59 59 62 64 63 67 74 80 80 83 86 84 82 83 80 73 68 64 59 51 53 56 55 53 53 62 68 55 51 54 51 53 52 51 52 50 47 50 48 47 48 46 52 53 48 47 47 46 47 43 45 48 52 52 52 56 67 105 132 149 157 160 174 183 196 222 223 
95 89 77 70 72 61 63 62 59 58 61 63 59 60 63 63 69 66 74 72 81 83 86 88 87 92 94 82 74 66 64 60 54 56 59 58 59 60 93 132 67 56 59 53 53 51 55 52 49 48 50 51 47 45 50 50 47 48 48 47 48 45 43 44 49 50 51 56 55 60 98 129 148 161 160 171 180 196 217 223 


