P2
80 60
259
22 24 22 26 32 46 80 92 70 40 58 90 87 42 37 33 31 30 27 25 23 24 21 20 22 22 21 24 26 28 32 30 27 24 26 25 25 23 22 23 23 20 25 22 24 23 25 24 25 20 15 17 17 15 16 17 15 15 17 15 14 14 16 15 20 23 20 22 23 24 22 23 24 24 21 18 17 16 13 18 
20 23 23 24 35 49 89 97 65 39 62 95 83 43 36 33 30 28 27 24 23 21 20 22 22 18 22 23 25 25 31 29 26 29 26 25 28 21 23 23 22 24 25 23 23 24 28 26 25 21 14 17 14 13 15 16 15 16 18 15 19 13 19 22 22 25 23 28 24 24 24 20 22 18 18 19 18 18 13 17 
18 24 20 28 36 50 91 95 61 40 67 93 77 41 37 30 27 27 28 25 26 24 23 24 25 22 26 26 25 30 31 30 26 25 26 25 26 24 25 25 23 25 22 23 26 28 26 25 29 23 20 18 17 18 17 18 20 19 22 22 23 22 27 25 26 23 23 21 23 22 23 22 20 23 20 21 22 20 12 17 
19 21 23 32 39 50 93 96 51 42 74 93 72 40 32 28 26 25 25 25 28 23 23 23 24 25 27 25 27 27 29 31 25 22 25 21 26 24 21 24 24 23 22 25 27 26 26 25 29 24 22 23 25 23 28 24 23 24 27 25 26 24 28 29 28 27 23 26 24 21 24 21 19 24 23 19 19 14 9 13 
14 24 21 32 40 61 105 94 50 41 76 91 62 32 30 29 23 23 26 25 23 21 25 24 24 25 24 27 28 29 33 27 26 23 27 23 28 22 22 22 21 22 24 21 25 25 24 28 28 28 27 25 24 23 29 31 26 29 32 27 24 25 28 24 22 25 26 23 28 25 18 23 21 24 23 17 19 14 9 11 
16 23 23 32 38 70 99 83 46 44 84 86 59 31 30 24 28 23 24 23 24 24 26 25 25 25 28 28 26 29 28 27 24 28 27 23 28 25 21 24 23 20 24 23 25 25 27 27 28 28 26 28 29 27 26 28 29 27 29 27 24 25 21 27 23 26 23 21 25 21 25 24 22 24 23 18 21 18 11 15 
15 23 27 31 37 69 100 82 45 44 86 83 52 28 31 22 22 24 23 26 23 24 23 25 23 26 23 25 30 27 32 27 24 26 26 26 26 25 22 24 23 23 22 23 23 23 27 26 28 29 29 28 26 26 28 28 26 23 29 23 23 21 26 24 24 24 25 25 25 25 23 25 22 26 26 23 21 17 11 17 
11 17 20 30 36 68 98 74 41 47 86 83 46 26 21 24 22 23 24 20 21 21 20 20 21 21 21 23 21 25 27 25 25 21 26 22 22 22 23 21 21 22 23 21 24 21 22 22 22 26 24 26 26 26 25 23 24 23 25 20 22 21 26 27 24 24 24 24 23 23 26 21 24 23 22 21 15 16 10 20 
7 9 13 28 26 65 99 71 36 45 90 81 47 25 22 22 22 21 21 19 22 22 20 24 21 18 23 24 23 25 28 24 26 22 24 24 24 22 22 21 24 22 20 21 25 25 24 24 25 26 24 25 25 23 22 25 23 25 23 25 24 26 27 25 25 28 26 25 27 24 25 25 23 24 20 22 18 19 17 15 
5 6 5 3 12 71 96 71 30 44 96 80 40 23 24 21 20 19 19 19 22 19 21 21 23 21 23 24 22 27 26 25 24 25 24 21 28 21 23 24 24 23 23 22 25 27 24 27 24 24 21 24 22 22 24 24 26 26 25 28 28 28 28 29 29 27 27 24 25 26 26 23 24 24 22 25 18 16 15 18 
13 16 10 3 15 78 97 61 22 46 105 82 29 14 11 11 12 16 18 17 18 19 17 16 21 21 21 22 20 21 25 26 23 24 21 21 22 23 22 20 23 20 23 23 25 27 26 23 23 25 22 23 24 20 22 23 26 28 29 26 26 26 28 27 28 25 29 22 25 28 25 25 24 25 19 21 22 18 17 18 
17 18 17 15 23 85 98 58 19 54 100 73 23 9 11 8 9 9 10 12 13 15 13 16 18 19 15 17 19 21 27 25 20 22 22 22 24 22 22 23 19 21 20 19 27 23 24 25 25 20 20 25 27 25 25 26 27 25 30 30 27 30 26 26 28 28 27 25 25 23 27 24 22 25 25 23 21 19 18 13 
13 20 18 18 15 82 92 55 25 58 102 68 18 8 6 6 8 6 8 8 2 4 6 7 10 12 15 15 15 21 22 19 17 18 19 19 21 20 22 22 18 20 18 22 23 25 23 22 22 24 24 27 25 25 25 26 26 25 28 27 27 28 26 26 24 25 26 22 26 24 25 25 24 25 21 21 23 16 15 17 
10 15 15 17 24 88 85 44 29 68 99 63 21 10 10 6 7 8 7 6 4 5 4 3 4 0 4 9 6 6 7 10 11 19 21 17 22 21 24 21 24 23 22 23 23 23 23 26 28 28 26 26 26 30 26 31 27 24 25 27 27 26 25 26 25 29 28 24 24 26 27 28 25 27 24 23 23 21 15 15 
12 16 17 18 34 91 81 47 23 76 96 57 20 11 11 11 12 6 9 8 6 6 6 6 3 2 3 6 7 7 7 5 5 4 2 9 15 23 21 20 20 19 23 23 24 24 25 28 27 28 28 28 26 30 27 30 28 28 26 30 28 28 25 27 29 26 28 26 24 24 25 27 24 26 24 25 22 22 12 14 
10 16 17 18 34 90 80 36 23 78 94 52 18 12 10 12 9 9 9 5 6 6 5 5 4 6 3 4 1 5 7 5 3 1 4 12 17 19 17 21 18 17 19 25 24 24 26 25 29 25 26 26 27 29 28 27 28 26 30 28 26 30 27 25 29 28 27 23 20 25 27 25 23 25 26 23 22 21 13 16 
10 14 16 20 41 91 74 34 24 83 90 48 17 9 14 13 10 8 9 8 9 9 8 6 5 4 4 3 6 8 8 5 7 14 20 17 23 21 20 18 17 19 21 20 23 20 26 26 26 27 28 25 28 26 27 28 29 25 25 28 28 27 31 25 25 28 26 26 22 22 27 24 25 25 25 25 21 21 14 20 
15 16 17 19 45 96 74 36 24 86 87 47 18 14 16 13 13 9 10 10 11 9 9 8 8 6 6 4 6 8 10 15 19 24 22 20 25 21 24 21 21 24 23 20 25 24 28 25 29 29 27 28 31 28 30 31 29 27 29 27 29 26 27 27 25 25 28 25 23 24 28 27 28 24 24 24 21 21 15 16 
14 15 19 18 48 92 67 32 26 84 81 43 18 12 13 12 10 11 11 11 12 9 9 7 8 7 7 6 7 8 18 20 21 21 22 20 21 19 23 22 21 19 22 23 24 24 23 24 26 26 26 28 29 27 26 28 26 29 28 27 28 28 30 29 25 27 26 26 25 24 25 22 26 24 26 26 22 21 17 17 
16 20 19 22 57 92 70 29 28 86 81 39 16 14 14 11 14 14 13 11 12 8 10 10 10 8 10 5 9 12 18 24 21 22 20 17 23 21 22 23 20 21 19 20 24 23 25 26 26 27 28 28 28 27 26 28 27 28 31 32 28 31 28 27 29 29 29 25 24 23 24 26 25 24 26 24 23 21 16 20 
16 23 20 24 68 99 69 31 34 95 79 37 22 14 17 15 15 13 13 11 11 11 9 10 9 11 12 9 10 12 18 24 20 21 19 19 19 20 20 19 21 19 22 24 22 26 25 28 25 26 28 27 26 27 29 27 27 27 30 30 27 30 29 29 27 28 28 25 25 24 26 27 27 26 23 23 24 22 17 18 
42 40 37 35 85 103 71 28 36 93 80 33 17 16 13 14 12 17 14 12 12 10 10 9 10 8 10 7 9 11 15 18 20 19 21 20 21 20 19 21 23 21 23 22 23 24 27 24 29 25 28 29 26 28 28 27 27 26 28 26 28 28 30 32 27 29 29 27 31 25 22 25 26 26 22 22 24 24 17 17 
102 103 93 89 105 100 58 28 45 94 79 33 19 15 13 15 11 13 14 11 13 10 11 9 11 9 9 10 12 10 15 17 20 20 20 19 23 19 20 17 23 21 24 21 24 26 26 24 27 26 29 27 26 28 29 29 28 26 28 30 31 27 30 30 27 29 26 26 25 25 23 24 28 26 25 24 25 22 17 25 
105 106 101 101 103 88 50 29 51 96 79 29 19 10 15 11 15 13 12 12 13 12 11 11 9 10 10 9 10 11 12 18 17 19 19 19 22 20 21 20 21 20 24 25 26 27 24 24 28 28 27 27 27 29 28 27 26 26 28 28 28 28 30 31 30 30 31 28 29 25 26 25 27 26 22 27 26 23 17 23 
59 67 74 80 78 67 31 30 57 97 78 29 20 15 15 18 17 15 12 15 14 12 12 13 16 10 11 11 12 10 16 17 22 23 20 22 22 20 23 23 26 25 23 25 26 25 26 30 27 29 28 28 29 29 27 29 26 25 27 26 31 31 31 30 32 31 28 29 29 30 27 27 24 25 27 26 26 22 15 27 
27 28 31 34 32 28 24 30 60 106 80 32 18 17 16 16 15 16 14 14 15 12 13 15 15 12 13 9 12 15 16 19 20 24 20 21 22 22 24 23 25 24 23 26 29 27 26 26 30 31 28 28 29 27 28 29 29 29 28 30 28 27 30 33 33 30 31 28 29 29 29 29 26 23 24 24 26 28 17 25 
43 43 34 31 24 27 23 32 70 111 81 29 16 15 16 15 16 15 15 17 14 12 13 12 11 13 10 10 9 13 15 21 23 22 22 21 24 25 24 24 25 25 27 23 26 24 27 27 27 28 27 30 26 32 28 31 26 28 28 27 30 29 28 31 28 32 32 31 29 29 28 28 27 25 24 23 25 20 16 23 
108 107 99 88 76 71 61 61 90 116 80 28 18 16 16 16 17 14 19 12 11 14 13 12 13 11 14 12 9 10 15 18 21 22 19 19 25 26 24 25 23 23 23 24 24 24 24 26 27 29 26 26 28 26 29 28 25 26 26 25 28 28 29 27 30 28 34 28 33 28 28 30 27 28 30 26 26 26 20 24 
105 112 113 109 104 102 95 93 100 100 72 22 19 19 16 16 16 15 15 17 15 16 13 14 14 11 13 12 14 12 16 19 25 21 25 23 25 24 26 26 25 26 25 23 26 24 25 29 28 26 29 29 27 29 29 29 27 29 27 30 30 27 28 28 28 29 32 30 29 28 32 32 31 27 29 28 27 27 21 26 
57 69 75 81 83 90 90 91 91 84 55 15 17 16 16 17 16 14 15 16 14 16 15 15 17 12 16 13 12 13 15 19 22 20 26 23 23 24 31 29 26 25 27 24 25 25 26 25 26 30 30 29 28 27 30 27 28 26 28 29 30 27 28 29 31 32 31 30 31 31 33 34 32 29 28 27 28 29 25 27 
20 29 30 29 29 36 37 45 48 42 26 20 16 17 19 18 18 16 20 17 16 18 16 18 15 18 16 18 13 14 16 19 24 23 23 24 26 26 26 27 24 25 30 23 28 24 27 27 28 28 28 29 27 27 26 30 29 27 31 28 32 30 29 29 28 31 29 30 33 30 30 31 29 31 32 26 29 30 25 27 
19 24 26 21 20 24 21 24 28 23 24 19 20 17 18 19 16 17 16 17 18 16 18 21 19 17 15 15 14 13 15 17 25 23 26 23 24 26 26 25 25 25 26 28 29 27 25 26 32 32 28 28 30 29 31 29 28 29 31 30 30 31 30 32 28 29 32 30 33 32 31 34 32 35 31 30 29 29 22 29 
20 23 26 18 20 20 22 25 22 23 20 16 19 17 22 20 19 20 19 18 17 22 18 18 21 17 19 16 19 15 16 21 25 26 25 26 23 25 28 26 26 26 27 25 26 25 27 27 27 29 30 30 29 26 33 31 28 27 30 33 30 32 32 30 31 32 30 33 33 31 30 29 34 33 29 30 30 30 26 28 
18 24 22 24 22 21 23 23 22 24 22 18 17 18 20 22 18 21 19 18 22 18 22 20 23 19 19 17 16 17 15 24 27 24 24 23 24 26 25 26 27 26 28 27 28 28 28 28 29 33 30 29 29 26 32 28 28 26 30 32 30 35 33 33 34 33 35 34 32 31 33 33 34 35 35 30 31 32 25 30 
21 26 25 19 19 21 18 27 23 21 23 20 19 18 22 24 21 21 21 23 23 19 24 20 21 19 22 22 21 15 19 22 23 25 25 25 28 22 25 28 30 30 28 27 30 29 27 27 32 32 31 29 32 31 28 28 31 30 28 32 34 33 31 32 33 32 35 33 33 31 30 32 33 37 37 30 31 31 27 33 
19 27 22 22 19 23 22 22 22 22 21 21 20 21 23 21 22 21 19 19 21 20 20 23 20 20 19 18 20 18 18 22 24 27 26 27 27 26 26 26 27 29 27 26 30 26 27 28 29 32 29 30 30 28 31 29 31 33 29 32 33 32 30 32 34 33 32 32 31 34 30 32 33 34 36 33 33 31 32 31 
21 26 25 24 22 23 21 23 26 26 22 20 22 21 24 22 22 23 23 22 21 23 21 23 20 20 22 20 22 21 21 24 26 30 27 27 30 27 28 26 29 29 26 26 28 32 28 32 31 31 34 30 31 30 31 31 30 29 32 30 33 34 33 34 34 30 31 34 30 32 33 32 32 37 35 32 30 33 33 41 
18 22 24 20 22 25 22 23 26 23 21 19 22 19 23 21 22 22 23 23 23 23 19 23 22 22 23 23 25 18 19 21 28 28 23 25 28 29 26 26 31 28 29 26 29 27 29 30 32 31 30 30 29 31 27 31 33 31 32 31 29 33 33 31 32 33 35 32 33 32 33 32 31 35 36 33 35 32 37 43 
20 20 22 22 21 26 20 24 28 23 21 18 22 21 26 23 24 22 23 26 21 25 21 26 23 25 24 24 27 20 21 21 26 32 30 27 30 26 27 28 30 32 27 24 29 30 28 31 33 30 30 30 29 30 32 31 32 29 31 27 28 30 30 32 29 31 30 32 36 33 33 36 32 31 35 31 35 42 44 54 
24 23 25 25 25 24 22 22 29 21 22 21 23 20 22 24 25 25 25 24 25 26 21 25 26 23 25 27 24 21 24 22 27 27 28 26 27 28 29 30 29 27 27 29 30 29 31 31 32 31 33 30 34 29 31 33 33 30 29 28 31 32 30 30 32 32 34 34 36 35 36 36 32 33 33 37 55 55 47 49 
23 27 26 23 25 23 22 23 26 23 25 20 25 22 26 26 27 27 27 24 27 24 27 27 28 28 29 26 26 24 26 24 28 28 29 27 29 28 28 29 30 31 30 29 30 30 30 32 30 29 34 30 31 33 29 32 31 32 29 30 33 31 31 31 32 35 32 32 33 32 35 33 34 35 32 37 40 41 39 68 
23 23 25 22 25 23 27 27 26 26 22 22 26 23 25 24 27 27 25 26 30 28 26 29 30 27 25 27 26 26 23 22 28 28 29 27 30 28 29 30 31 27 28 31 31 32 34 28 31 29 28 32 30 33 31 32 30 29 34 29 33 31 29 32 34 34 34 32 36 35 33 36 33 37 35 35 42 34 42 96 
22 24 26 22 29 30 24 25 24 25 22 19 25 25 26 26 25 25 29 26 28 26 29 29 31 29 28 29 26 27 25 23 28 28 29 29 30 30 30 29 31 28 30 27 28 28 29 29 30 28 32 33 26 30 31 28 27 30 29 30 31 31 32 34 33 33 35 32 33 35 35 37 42 41 39 42 40 39 39 89 
19 24 27 28 24 29 26 31 26 26 22 21 27 24 26 28 27 32 30 31 29 30 30 31 31 29 29 27 27 26 26 25 28 33 28 29 31 32 31 32 31 31 30 29 30 28 29 26 28 31 31 30 32 26 29 28 29 29 33 29 29 30 33 35 32 30 35 34 36 35 40 47 62 68 68 71 78 80 92 134 
18 25 24 25 24 27 27 30 27 28 25 24 30 27 26 30 28 31 30 31 34 30 32 34 35 29 29 27 22 25 26 23 29 30 28 28 33 30 32 27 30 27 31 28 28 30 28 27 29 31 31 27 29 29 28 29 27 29 33 31 31 31 33 31 34 34 36 35 37 45 66 88 108 119 122 131 139 147 162 190 
22 25 29 25 28 33 28 30 26 27 24 23 31 29 29 30 28 33 32 37 33 36 35 34 39 33 32 29 27 29 28 24 27 31 31 31 30 34 28 32 31 32 29 28 33 32 33 31 33 33 32 29 29 28 30 29 27 34 31 29 31 32 35 34 33 34 34 37 38 65 103 124 134 141 149 156 168 187 198 225 
23 29 26 27 28 28 29 28 26 26 26 26 33 31 33 33 31 31 33 36 35 35 34 36 39 31 30 26 28 29 28 21 25 31 30 33 34 32 32 31 34 31 28 31 31 30 30 29 34 32 30 30 31 30 29 28 30 29 31 33 31 33 33 35 34 34 37 41 43 74 118 147 157 164 175 183 199 213 228 249 
26 28 26 24 28 29 29 29 26 30 28 24 32 26 32 32 30 33 34 32 36 38 36 37 39 35 38 39 34 33 35 31 28 28 33 34 34 32 31 35 33 32 30 30 32 29 33 31 31 28 33 27 31 26 27 30 28 33 32 29 32 33 31 33 33 34 34 37 39 74 119 152 164 176 181 193 206 221 237 253 
25 27 29 30 27 30 30 30 30 31 26 26 32 33 32 33 33 35 35 36 36 35 37 38 38 40 45 41 36 35 42 31 29 31 32 35 33 32 35 32 31 30 31 31 31 28 32 31 30 32 29 31 28 30 28 30 30 29 32 29 36 37 34 32 31 34 36 38 41 73 116 151 165 176 182 193 208 221 236 259 
22 25 27 27 27 29 28 26 29 31 31 24 30 30 32 33 34 33 33 38 38 37 37 36 37 39 45 42 41 39 37 32 31 29 36 30 33 34 32 34 31 33 32 33 28 32 29 31 27 31 29 29 30 28 29 28 28 28 31 31 33 31 36 33 33 34 33 37 40 65 110 144 164 173 181 188 201 217 232 251 
24 31 27 33 30 31 29 28 29 32 30 29 30 35 34 34 33 35 39 36 39 38 39 41 41 40 46 47 40 42 40 37 32 32 35 36 37 33 39 36 33 31 32 34 31 35 31 30 28 32 31 33 30 29 33 30 31 33 32 31 34 33 35 32 36 37 37 37 41 61 110 143 159 170 177 191 201 216 231 250 
25 32 29 30 32 33 28 30 31 35 34 30 33 32 35 36 35 38 39 39 41 40 41 44 40 44 47 43 40 43 42 36 31 33 38 32 34 35 34 36 33 32 34 36 33 33 29 29 32 31 31 34 30 32 36 34 35 33 32 30 35 33 34 35 35 36 39 41 44 54 104 136 154 163 175 186 199 215 231 245 
30 34 33 31 32 34 32 38 34 35 35 29 35 31 38 36 37 41 40 43 44 46 44 43 45 46 49 46 43 43 44 38 31 33 38 34 38 38 36 35 36 36 33 35 35 32 34 31 33 35 32 35 34 35 40 39 36 36 34 34 34 33 35 35 37 39 38 36 41 55 103 136 155 171 174 183 197 209 227 247 
30 34 35 34 36 38 36 36 37 38 38 36 40 33 37 38 39 40 44 44 45 49 49 48 49 48 52 49 46 43 45 40 32 34 38 39 38 35 37 38 34 38 34 34 36 33 33 34 32 33 35 36 36 39 44 46 43 42 38 35 35 37 37 37 39 36 39 39 41 53 97 133 152 164 168 178 181 182 207 245 
34 37 37 35 38 40 39 35 37 38 36 35 41 39 43 39 40 42 43 46 48 48 49 52 51 52 51 52 49 47 47 43 36 37 36 40 41 40 38 38 38 37 36 34 36 36 35 32 38 37 39 37 38 39 50 68 76 61 46 38 35 35 36 39 38 41 36 41 42 51 92 129 150 160 165 171 171 162 206 257 
38 46 43 41 44 42 44 45 41 41 39 37 42 43 46 45 47 47 50 52 53 55 57 54 56 57 60 60 54 51 52 47 37 42 45 45 42 45 40 41 42 37 40 39 36 37 36 39 37 38 42 39 43 46 78 197 170 107 59 45 41 41 39 38 41 41 41 40 45 53 93 130 157 165 169 179 181 193 225 248 
44 46 44 43 44 50 42 46 44 43 44 41 44 44 47 46 51 51 51 54 60 61 62 59 63 60 62 59 58 54 52 44 40 44 45 48 45 41 43 39 43 38 42 37 39 40 39 38 41 41 41 40 42 47 98 239 181 106 60 44 38 37 38 37 38 42 41 43 45 53 88 128 151 164 171 175 193 204 223 238 
47 50 52 47 52 47 47 50 46 48 51 45 49 46 51 49 54 56 58 60 62 66 65 65 70 67 65 64 60 58 54 47 41 43 48 48 45 44 40 39 38 41 39 37 41 42 41 38 45 39 41 42 41 45 63 95 93 70 52 43 39 38 40 37 40 40 40 43 44 50 88 122 152 167 166 178 194 207 221 241 
55 53 58 56 54 58 55 55 52 50 53 49 53 52 55 55 56 59 60 63 66 71 74 78 79 72 75 72 63 61 53 48 46 47 48 50 48 39 41 45 42 40 43 44 43 45 40 46 43 42 44 42 41 42 48 53 58 51 47 43 42 45 39 39 42 42 40 42 45 48 85 123 150 164 175 181 198 209 220 235 
71 73 69 58 58 57 56 57 55 54 53 50 57 56 60 57 55 61 67 72 75 75 77 78 83 80 82 74 67 61 59 50 45 48 48 51 51 46 57 70 46 44 48 46 44 47 44 45 41 45 46 44 43 41 47 49 49 47 47 41 41 39 41 41 40 45 39 41 42 47 74 128 151 170 178 184 196 209 219 241 


