P2
80 60
323
293 293 298 301 302 299 297 295 296 300 302 298 300 306 300 296 297 299 300 304 304 305 307 309 312 311 316 305 303 296 294 295 297 300 293 293 295 314 319 323 320 321 321 315 311 308 310 309 306 300 279 200 110 55 42 63 116 166 166 103 37 18 6 16 19 17 19 21 18 24 29 25 30 37 34 27 29 30 30 36 
292 293 298 301 299 302 295 296 297 299 301 299 301 299 299 300 302 300 301 308 305 308 308 308 305 309 313 301 300 296 293 294 296 293 294 293 302 313 313 319 316 312 314 310 308 307 308 307 298 270 165 92 63 77 123 193 255 290 288 244 94 33 17 21 20 21 22 26 23 26 32 30 37 40 32 30 34 31 30 33 
292 296 297 300 303 303 300 297 296 300 297 299 301 299 301 298 302 307 309 307 305 308 308 309 307 303 304 302 298 291 291 290 289 291 291 303 308 312 315 318 315 307 310 306 305 309 304 295 240 143 67 72 125 205 265 295 313 318 310 294 194 49 26 24 20 21 25 23 29 31 31 28 37 39 29 24 26 25 24 31 
291 293 295 298 297 297 297 295 297 297 298 298 299 298 300 301 301 311 308 310 311 306 309 310 305 306 302 297 300 291 291 287 286 289 297 309 311 310 313 319 313 308 305 301 302 302 286 214 115 73 105 185 249 295 314 317 317 317 308 303 243 70 29 27 24 23 25 24 27 26 27 25 39 35 27 24 25 22 22 21 
291 290 294 299 297 296 297 297 297 298 297 299 297 299 299 304 301 311 309 312 312 308 309 309 307 302 300 298 298 293 294 284 285 292 303 310 310 309 309 310 308 306 304 302 297 281 196 87 99 166 232 283 301 314 316 318 319 312 310 302 245 73 32 26 26 28 28 27 24 24 25 25 29 24 22 23 19 20 20 22 
285 289 292 295 297 300 295 298 300 302 300 304 305 303 300 302 298 303 305 309 311 309 311 309 308 306 301 296 297 295 290 288 287 304 310 313 308 312 309 305 302 302 302 301 290 178 139 156 214 272 300 314 312 316 316 312 317 309 306 292 210 61 30 26 26 23 29 24 19 23 25 22 25 26 21 21 19 20 17 21 
294 289 295 296 301 304 300 300 300 303 303 302 302 299 300 304 298 303 303 305 306 305 312 310 305 304 303 298 302 299 297 291 296 312 313 313 315 309 303 302 302 297 301 300 284 209 222 269 292 299 313 315 312 315 314 312 309 302 299 271 134 47 28 29 27 26 20 21 16 19 25 21 19 23 20 24 18 20 15 20 
294 295 299 301 304 302 300 306 304 304 304 301 302 304 302 303 303 304 306 307 303 300 305 306 308 306 306 306 306 299 298 299 310 313 313 315 309 307 304 303 301 295 298 296 291 276 296 307 310 313 314 308 310 312 309 309 307 299 282 195 75 36 29 30 24 18 15 18 15 22 18 19 22 18 21 22 23 22 20 24 
294 294 297 298 301 305 303 306 303 305 302 306 306 301 301 303 303 306 305 305 302 304 304 303 304 305 307 304 307 301 302 310 313 311 312 312 313 309 306 304 300 294 295 300 304 302 309 314 316 312 312 313 311 311 312 306 305 282 212 102 42 30 25 25 20 16 15 14 10 10 14 13 15 18 24 23 24 27 20 25 
299 298 301 303 302 303 301 305 304 307 303 303 304 305 297 305 302 305 303 308 306 298 301 298 301 301 306 307 306 303 304 309 311 313 311 310 309 304 296 301 294 292 304 305 310 310 315 312 313 312 314 310 310 313 307 304 291 219 108 45 28 25 14 14 9 15 12 13 14 15 14 19 17 22 25 25 28 26 29 28 
301 304 302 306 307 306 308 307 304 307 306 308 305 303 302 305 304 305 308 308 309 299 297 296 298 301 304 307 308 302 304 305 311 312 308 309 303 296 298 292 292 294 307 309 315 313 314 312 309 311 312 311 307 311 308 285 215 103 38 23 17 14 10 8 14 11 9 12 9 19 21 21 25 26 28 26 30 28 27 29 
294 302 303 306 304 305 308 302 303 301 304 305 303 303 302 306 303 303 307 305 305 303 301 297 298 299 303 302 305 302 305 307 308 305 301 297 296 294 292 288 292 300 311 310 314 312 315 308 307 306 307 308 302 303 279 187 93 32 19 16 7 11 0 5 17 19 15 18 20 25 28 25 24 28 28 26 31 28 28 27 
297 301 303 307 305 308 304 305 305 304 303 304 305 303 303 302 303 302 306 308 306 301 304 299 296 300 302 300 301 302 302 307 306 302 297 294 291 291 289 294 293 306 316 308 312 312 309 305 302 303 303 300 282 240 151 68 33 12 10 7 9 9 5 9 21 27 21 22 24 28 27 31 30 29 27 27 28 28 27 29 
301 301 305 307 308 306 307 308 305 307 306 305 301 302 303 305 303 305 308 306 306 301 299 297 298 295 296 297 298 300 300 303 307 299 291 293 293 288 289 289 303 312 319 308 310 304 304 305 300 299 287 252 178 96 40 17 15 9 8 9 8 11 7 17 24 27 26 24 27 24 28 24 28 29 32 29 31 29 27 30 
298 298 302 305 306 303 302 305 301 304 305 306 301 300 297 299 303 306 304 303 301 298 297 296 296 294 294 295 299 299 300 302 302 297 294 293 290 286 286 297 307 302 311 307 304 300 298 301 299 288 232 122 49 21 14 11 12 11 12 16 16 17 21 24 23 24 27 25 26 26 23 27 27 28 28 28 29 28 24 26 
299 302 304 302 304 306 302 305 300 303 307 304 302 303 299 299 303 304 307 304 300 295 298 296 296 293 295 297 302 301 301 297 302 298 293 290 288 289 294 311 305 309 312 302 303 298 296 293 289 254 130 32 11 7 10 10 15 14 17 20 20 24 22 19 25 25 25 26 26 26 24 26 26 25 29 26 31 26 24 25 
301 299 303 306 304 303 300 303 300 300 302 301 301 303 299 301 302 304 303 301 298 295 295 296 297 294 295 297 301 300 298 300 297 295 290 294 290 295 304 312 309 306 312 302 300 301 291 283 253 146 44 16 6 6 7 15 15 21 22 19 20 22 24 23 20 26 24 23 24 22 27 24 24 27 27 25 26 26 25 24 
303 298 305 305 304 302 303 298 298 301 305 303 302 300 301 302 301 305 301 299 296 295 297 296 293 293 294 298 301 302 300 297 297 291 285 292 292 301 307 312 305 299 302 299 298 294 285 255 146 45 13 13 12 14 17 23 24 21 22 22 24 24 22 24 24 23 23 24 27 24 21 24 23 25 26 25 24 24 24 25 
305 303 301 303 302 303 300 296 299 301 304 304 303 303 300 302 302 303 300 298 296 294 297 298 295 297 298 303 303 305 303 301 300 290 290 295 295 305 310 311 307 301 297 299 295 282 244 142 45 20 21 18 19 25 26 25 22 24 22 23 22 27 25 25 23 25 22 22 27 27 25 25 24 26 26 24 26 28 25 25 
307 300 303 300 300 302 299 298 296 300 304 303 304 304 300 306 303 300 299 297 294 294 299 294 295 298 297 300 304 304 301 301 300 294 288 290 299 304 307 307 305 297 295 292 285 232 120 43 21 27 26 23 25 24 21 23 23 26 23 23 23 23 24 26 24 23 24 26 22 25 25 26 26 24 24 23 29 25 27 21 
305 300 298 298 296 298 298 298 298 300 304 301 307 302 304 304 303 303 298 298 292 295 299 292 294 296 298 304 306 305 300 300 297 290 288 293 300 303 306 307 300 293 291 284 228 112 46 27 30 27 26 24 26 25 26 25 25 23 24 22 23 26 24 27 23 26 25 25 24 24 24 23 25 26 25 23 25 23 23 25 
304 299 295 300 298 297 300 299 296 298 303 304 305 303 306 304 304 304 302 297 290 293 295 293 295 298 300 303 305 307 303 301 298 294 289 288 301 302 302 301 296 291 282 237 111 47 33 26 31 26 29 29 25 24 24 25 26 25 21 24 25 23 25 24 22 24 21 22 25 21 22 27 23 23 24 24 23 23 22 27 
300 294 299 296 295 298 299 296 297 298 302 299 303 301 305 304 307 305 292 290 293 293 293 291 294 298 299 301 305 303 301 300 294 292 290 288 295 299 296 297 294 288 276 165 53 32 29 29 29 29 26 27 25 24 25 27 25 21 24 23 27 25 23 23 23 24 24 27 22 21 22 23 21 24 25 24 22 23 23 21 
298 295 293 294 296 298 295 299 297 297 300 301 304 302 302 299 302 303 294 290 293 292 294 295 294 297 303 302 303 304 300 300 294 292 291 291 296 301 296 292 289 284 257 109 38 31 27 29 27 26 29 25 27 24 22 25 24 24 24 24 24 25 23 23 22 22 23 26 25 23 25 23 25 23 21 25 24 23 19 24 
296 294 292 296 293 296 295 301 294 295 298 296 302 300 301 301 300 295 292 290 294 291 290 291 291 297 297 298 299 299 297 298 295 288 289 292 293 294 291 286 280 278 203 65 36 28 31 26 26 27 27 28 26 27 23 26 25 26 25 23 26 23 24 26 25 24 27 26 22 26 23 22 22 23 23 23 27 24 21 23 
293 287 287 292 292 291 292 299 298 294 292 291 295 297 297 299 297 292 288 290 292 290 289 290 292 295 291 296 298 299 299 295 290 289 288 293 290 292 291 282 280 262 135 46 31 30 29 26 28 23 25 25 24 25 24 25 25 24 22 25 25 24 25 24 19 24 25 21 22 22 21 23 23 20 21 22 24 21 21 21 
289 289 289 291 294 295 297 299 299 297 293 296 299 298 300 298 293 290 289 288 290 290 288 289 292 294 296 297 298 297 297 294 291 290 293 290 292 288 287 285 280 221 78 35 32 28 29 28 24 22 24 26 24 27 23 24 23 26 21 25 25 26 23 22 23 22 24 23 22 24 22 22 24 21 23 25 22 19 20 25 
290 287 292 289 293 293 298 301 300 296 297 295 299 297 296 298 291 289 289 294 293 291 293 291 293 295 297 295 297 298 297 292 290 291 290 289 290 288 292 284 268 146 49 32 32 31 30 29 27 26 26 25 26 25 27 24 25 25 21 25 24 22 22 23 22 23 27 20 24 23 25 20 22 22 24 25 22 21 23 24 
288 290 291 288 291 295 298 301 296 295 294 295 295 294 299 298 292 288 289 291 292 288 288 288 291 294 295 296 293 296 292 289 288 290 293 289 287 286 287 282 214 76 40 32 31 30 28 28 25 24 25 26 24 24 22 22 23 22 21 21 23 23 19 23 19 25 24 26 20 24 26 21 22 24 24 19 21 22 21 21 
294 288 290 289 296 297 297 297 297 296 294 295 295 297 300 297 290 286 288 293 290 286 288 292 293 294 296 293 294 292 293 291 291 291 292 291 288 281 285 260 128 48 40 31 30 27 28 29 25 25 24 25 26 27 21 23 26 24 23 22 22 23 22 22 22 23 20 24 20 24 26 21 23 25 24 22 19 20 17 22 
293 291 291 288 293 294 296 302 298 292 296 296 297 301 300 293 291 289 289 291 287 288 287 289 293 292 294 291 294 290 293 292 292 294 292 294 286 273 279 205 71 38 33 31 27 26 27 26 24 26 23 26 24 24 25 23 25 22 23 21 21 20 23 25 20 21 22 26 21 24 27 23 27 24 23 22 24 21 19 19 
296 290 297 291 294 296 298 297 295 292 295 295 298 297 297 293 289 284 287 289 289 289 287 289 290 289 291 289 288 289 290 291 291 293 294 291 283 268 248 129 50 36 37 31 26 25 27 24 25 26 26 23 24 25 23 25 26 21 24 22 22 23 23 24 21 21 21 23 22 24 24 24 22 24 28 20 20 16 13 23 
293 292 293 293 293 297 299 297 294 296 293 295 296 296 294 290 288 289 289 289 287 288 285 286 290 289 287 285 289 290 292 294 296 297 293 292 286 268 203 77 45 33 28 30 27 25 26 26 26 25 24 24 25 23 26 23 26 26 24 24 23 22 23 25 24 25 21 25 24 26 26 24 26 23 25 22 22 22 20 22 
294 293 294 294 292 294 296 294 292 292 293 291 290 293 289 288 286 286 285 284 285 288 289 287 283 286 284 284 289 289 292 293 297 294 294 291 285 266 166 50 38 29 29 25 30 24 29 25 28 26 24 25 25 26 26 23 25 24 23 26 26 25 27 24 24 24 21 23 22 21 21 24 25 25 27 23 22 21 18 21 
298 291 295 292 296 293 293 295 294 291 293 287 287 292 286 288 287 285 287 288 286 288 287 283 284 286 282 283 289 293 292 294 297 299 295 292 283 272 159 43 31 31 31 27 28 29 26 25 28 26 24 27 24 27 28 26 26 26 28 26 27 24 26 26 22 27 22 21 23 27 25 26 24 25 27 22 23 20 22 20 
299 295 297 291 291 293 290 291 286 288 293 283 288 286 284 284 283 285 286 284 285 287 287 285 283 284 285 288 291 294 295 294 296 297 295 290 279 265 137 44 34 30 32 29 28 27 30 28 27 29 27 26 25 25 29 26 24 24 27 28 27 22 23 24 22 24 22 24 27 24 23 27 25 25 23 23 27 20 20 21 
300 298 295 291 290 293 290 287 286 285 288 285 285 283 283 286 287 286 284 286 288 286 287 288 282 282 286 286 290 293 295 295 297 295 299 287 284 257 117 46 34 30 31 29 31 29 26 26 29 25 30 27 26 25 27 29 26 26 27 29 30 26 25 25 25 25 23 23 23 26 26 28 25 27 27 26 24 21 21 26 
298 295 295 291 289 290 287 288 283 286 285 284 284 282 285 288 287 285 289 284 288 289 285 285 285 285 286 288 293 297 298 293 295 300 295 288 284 247 90 40 32 32 31 26 28 28 28 26 25 25 24 29 26 29 29 28 27 26 24 25 28 24 24 25 23 25 24 29 26 22 25 29 27 31 27 26 22 23 21 21 
300 298 299 292 289 289 288 288 285 285 284 281 285 284 282 285 284 286 289 284 286 288 290 286 285 285 287 286 294 294 294 294 295 297 294 287 276 228 74 39 32 29 30 23 27 30 26 27 26 25 25 28 25 28 27 30 26 24 24 26 25 24 25 23 28 25 27 26 26 25 25 26 28 27 28 26 23 22 22 23 
298 298 300 297 289 288 288 288 291 287 281 281 283 282 285 288 288 288 290 288 292 287 287 287 288 286 290 291 299 294 292 293 294 294 290 289 278 202 61 37 31 29 32 28 27 27 27 27 25 27 24 23 23 26 29 28 27 26 24 24 26 23 28 23 22 26 25 24 27 27 25 27 26 24 32 26 27 24 23 26 
299 297 300 300 296 293 289 291 293 288 283 277 280 280 285 287 288 286 289 287 286 287 288 292 290 293 293 296 301 296 294 291 295 295 298 291 275 158 49 32 31 29 30 28 28 28 25 27 26 27 25 24 23 25 27 29 25 21 24 27 26 24 24 24 23 26 26 25 28 27 24 24 27 25 30 29 29 29 21 23 
294 298 301 297 300 299 289 289 292 292 284 279 282 281 283 284 290 289 294 291 291 288 289 289 292 296 295 297 297 293 294 291 295 294 297 283 261 115 40 35 30 28 29 27 25 26 26 24 23 24 24 27 24 25 25 27 24 27 24 25 25 27 23 23 22 24 27 29 29 27 22 27 26 25 27 27 26 27 23 22 
302 303 302 300 300 300 293 295 294 291 285 278 282 282 284 287 290 293 294 292 293 292 290 292 294 297 298 299 302 296 294 293 296 296 294 289 244 84 39 33 32 31 31 29 27 25 25 24 24 28 26 25 26 26 25 26 22 24 25 27 23 23 21 25 23 27 29 28 29 26 28 28 27 29 27 28 27 25 19 20 
307 305 306 308 306 307 293 291 292 296 288 281 286 286 287 289 294 293 298 295 294 292 293 294 298 304 297 302 304 296 295 295 300 298 295 287 206 63 35 32 30 31 29 31 29 27 27 25 27 28 24 28 24 28 26 27 26 26 25 28 25 26 23 29 25 27 29 29 29 28 30 29 28 30 33 30 27 27 18 24 
306 308 302 306 305 304 299 297 294 294 289 281 284 284 287 291 289 296 298 295 298 294 295 298 298 300 301 299 304 299 294 297 300 293 292 276 159 47 35 34 30 30 34 31 28 30 26 28 25 29 26 25 25 26 24 28 25 25 25 28 23 25 24 26 26 26 29 27 26 30 28 30 26 25 33 28 29 27 23 21 
310 308 303 305 306 307 302 300 298 295 291 284 286 288 289 294 295 296 299 294 298 295 296 296 298 300 301 298 302 300 297 298 304 298 287 241 96 39 36 36 31 31 29 31 30 31 29 26 27 31 27 23 28 26 26 27 22 26 26 27 26 26 27 29 25 30 28 27 27 32 27 25 25 26 27 28 26 28 26 22 
311 309 304 303 307 307 300 300 298 295 293 288 291 290 291 295 294 296 296 296 296 298 297 299 300 300 302 298 299 300 300 300 302 295 282 183 60 35 37 38 32 32 33 28 29 31 29 30 30 29 29 27 26 30 26 26 25 32 27 27 26 28 23 27 28 27 29 27 29 29 29 29 30 28 26 30 28 29 25 28 
309 310 303 302 302 305 301 303 302 299 294 286 292 294 293 296 295 296 299 295 296 297 300 301 300 298 301 297 302 300 299 302 302 293 254 115 48 40 36 38 34 31 34 28 32 30 32 32 29 30 29 31 26 31 31 31 26 27 27 29 28 27 28 27 30 25 27 28 29 28 29 28 30 29 27 30 28 33 25 27 
312 304 306 301 297 300 297 305 303 302 298 287 293 291 292 293 297 297 296 295 298 297 298 301 304 299 302 300 302 302 301 301 299 287 183 70 41 40 37 39 36 33 36 31 33 31 32 35 34 30 30 31 33 32 33 34 30 28 29 29 32 29 29 30 28 25 25 27 26 28 30 30 30 30 34 31 28 29 23 29 
314 306 307 299 296 301 298 302 305 304 302 291 294 297 293 294 296 295 298 297 298 295 305 301 302 300 301 298 307 304 302 301 290 249 110 56 42 41 45 40 36 38 36 34 32 33 33 35 33 33 31 30 30 29 33 34 30 30 30 28 33 27 30 31 27 28 28 29 31 34 32 32 30 29 30 31 31 30 25 29 
312 305 307 302 302 302 301 299 304 305 303 293 291 293 295 298 295 297 299 297 298 298 302 301 301 300 300 302 304 308 301 300 285 209 79 46 38 41 38 40 35 37 34 33 35 35 32 35 30 35 32 31 30 33 34 33 31 30 32 33 33 32 28 25 31 33 30 29 36 33 33 32 33 30 35 33 30 32 30 28 
309 304 310 306 305 299 299 299 303 305 307 303 295 295 294 297 300 298 297 297 299 298 302 300 302 300 301 304 307 303 303 298 272 155 57 44 40 42 41 39 39 37 33 33 34 33 34 35 34 34 34 33 32 32 35 35 36 35 32 31 32 31 27 32 30 33 31 31 33 34 31 31 31 29 32 29 28 32 31 28 
304 296 303 311 309 305 300 300 302 307 310 304 305 297 298 298 299 299 300 299 300 301 301 302 303 302 301 304 307 307 302 290 239 109 53 45 42 42 39 41 39 36 38 35 35 35 34 32 33 32 35 36 35 36 38 36 34 35 32 30 33 33 35 33 34 34 31 35 33 36 34 33 32 30 31 30 31 32 29 33 
297 301 303 313 313 310 301 302 301 304 310 304 301 300 297 297 297 300 296 299 299 302 304 300 301 303 304 306 308 304 294 278 186 77 51 41 41 42 41 41 40 38 38 39 34 36 36 34 36 34 35 36 38 36 36 34 35 36 31 34 32 32 32 33 33 32 34 35 35 34 32 33 33 32 35 32 33 33 31 30 
304 301 305 312 314 308 300 300 303 304 305 301 304 301 302 298 295 298 298 298 301 299 300 303 305 303 302 305 303 301 289 261 126 60 43 40 40 40 42 43 41 38 40 33 34 34 34 31 35 32 33 34 34 37 37 38 40 36 33 32 32 33 31 30 31 32 31 34 34 34 33 34 31 32 33 30 32 30 31 30 
306 302 301 307 317 311 305 298 297 301 305 301 302 299 297 293 294 297 297 302 300 302 301 301 304 305 306 306 303 303 287 215 80 55 42 37 40 42 39 41 41 37 45 37 32 36 35 34 32 32 32 34 35 31 36 37 38 35 36 34 32 31 30 32 34 33 35 34 35 36 34 31 30 30 30 30 34 32 33 32 
310 305 304 312 320 312 311 303 303 303 301 302 299 297 298 295 293 296 300 308 304 306 308 305 304 308 305 302 302 293 266 152 65 49 43 40 41 37 40 44 39 43 41 38 33 34 34 35 35 33 36 36 34 34 39 39 36 35 32 33 36 32 34 32 34 33 36 36 36 36 31 33 33 32 33 34 35 31 28 30 
310 306 305 311 313 312 309 308 305 303 299 298 301 302 303 302 296 298 300 304 305 302 303 306 306 307 306 304 299 286 231 103 57 43 42 40 42 41 41 43 37 38 39 37 34 36 35 38 38 34 35 37 37 34 37 35 38 41 35 35 33 35 36 37 35 36 35 34 36 35 35 31 35 32 33 32 33 35 31 31 
311 304 305 304 308 310 312 311 310 307 299 302 301 303 301 306 301 301 301 305 304 304 304 308 307 307 307 303 298 273 173 71 48 44 43 43 41 41 42 43 41 40 42 39 36 37 37 36 37 35 37 38 36 36 38 36 40 37 35 38 38 37 35 32 36 34 36 37 37 36 37 36 36 36 34 34 34 32 33 34 
308 308 307 304 306 309 309 312 309 305 304 302 306 308 303 303 302 298 302 305 303 303 306 307 311 310 307 305 290 235 110 64 50 45 41 45 42 45 41 44 42 45 43 40 35 40 39 39 37 39 39 38 36 43 44 45 42 43 40 40 35 40 39 38 37 36 40 36 35 37 42 40 38 38 38 40 38 37 36 36 


