P2
80 60
253
26 31 41 59 96 104 62 41 83 93 71 44 39 39 36 35 33 29 28 29 27 24 24 21 30 25 28 31 34 33 33 33 30 28 28 29 25 27 27 27 27 26 29 26 29 29 28 23 17 17 18 20 18 19 21 21 22 21 21 26 24 26 28 27 23 19 21 31 27 28 26 24 28 25 26 22 23 18 17 22 
27 33 44 62 100 101 56 46 87 93 68 42 39 38 38 36 30 33 30 27 25 25 25 26 29 28 34 29 30 33 28 31 33 26 27 24 26 26 27 27 29 27 28 29 31 28 31 24 19 21 18 22 23 21 22 24 28 26 31 29 30 32 33 33 25 19 19 28 27 27 32 23 24 31 24 23 24 21 17 17 
27 32 44 68 101 96 50 47 91 91 64 41 37 36 34 31 29 32 27 25 28 26 25 27 30 28 28 31 33 32 28 29 28 26 28 27 26 27 29 24 24 29 28 30 31 31 30 28 28 23 24 25 28 29 28 29 31 30 33 30 33 33 26 28 25 18 16 24 27 25 28 23 28 23 26 21 24 20 18 22 
26 33 44 75 102 93 46 51 93 87 61 39 33 34 35 30 31 33 25 30 29 27 30 30 31 26 31 28 33 35 29 27 30 24 25 24 24 26 30 29 26 26 28 26 35 30 31 31 28 28 31 29 35 30 30 31 31 31 34 34 29 29 27 29 23 21 21 23 30 27 31 26 23 28 25 23 23 18 20 19 
26 33 46 79 107 90 48 55 96 90 54 38 32 32 31 31 30 29 28 28 29 26 30 26 29 27 26 33 35 32 30 30 32 26 25 26 27 25 23 23 26 28 26 29 29 33 29 31 31 31 28 28 32 32 31 31 28 30 30 28 27 22 26 23 24 24 19 26 26 28 30 31 24 26 26 24 23 13 19 18 
26 34 50 85 103 84 46 54 99 85 51 34 32 34 28 28 31 29 27 33 31 31 26 25 26 27 28 27 32 31 31 29 29 31 28 25 24 26 24 25 22 29 26 26 27 30 28 28 29 29 30 29 27 29 30 27 28 27 26 25 27 27 28 28 29 24 18 24 30 30 32 32 26 30 25 24 19 12 15 16 
30 35 50 88 99 80 46 57 100 82 43 31 29 29 33 26 27 29 26 29 28 27 27 26 26 26 29 30 35 31 28 30 31 27 26 26 25 26 27 25 22 27 24 23 25 28 26 27 29 29 28 27 28 29 24 30 28 30 28 26 29 29 29 27 30 23 20 22 27 26 29 28 27 26 26 21 13 17 16 22 
20 35 42 87 97 75 42 56 98 77 40 26 22 26 24 24 25 27 27 26 25 23 23 25 23 22 25 27 30 30 26 29 32 28 26 26 26 25 23 24 25 24 24 27 30 23 22 23 26 27 25 24 24 25 25 24 29 27 26 29 28 31 29 28 27 21 18 20 28 27 28 27 28 27 26 20 13 18 18 18 
17 27 39 90 99 73 38 62 100 78 39 25 24 23 27 24 22 29 25 24 25 23 23 24 25 26 28 26 31 30 27 27 27 28 23 26 26 26 26 27 25 26 27 27 29 26 26 27 24 23 23 25 29 26 28 32 30 35 28 30 30 31 28 28 26 26 22 20 26 29 31 31 28 27 25 22 18 23 23 23 
4 0 21 89 100 67 35 62 109 79 32 23 21 24 26 20 24 29 23 23 25 26 21 26 23 27 26 28 29 33 27 27 28 27 28 23 24 25 28 27 26 28 30 31 30 27 26 28 25 25 23 26 27 24 28 32 35 33 30 30 28 29 32 28 31 25 23 20 24 30 32 31 27 26 22 21 17 25 23 23 
13 4 26 92 100 57 26 63 117 80 24 10 11 17 17 16 20 23 20 20 20 18 21 23 20 23 21 23 23 27 26 26 28 26 23 23 23 26 27 28 28 26 27 30 29 26 25 26 24 26 26 28 31 30 29 30 29 29 27 28 31 29 31 30 30 29 21 19 29 27 30 28 27 26 21 21 20 23 20 25 
24 20 34 100 104 60 29 70 118 79 23 12 13 13 12 13 12 14 15 18 16 18 20 22 24 22 23 24 25 27 23 27 28 24 25 25 25 28 27 25 26 25 28 30 27 25 26 26 30 31 31 31 32 31 32 32 31 34 33 34 32 32 32 29 31 25 24 20 26 29 32 30 30 27 27 23 18 22 22 29 
19 20 31 101 105 59 33 72 118 75 21 14 11 12 12 12 13 11 10 11 5 7 5 10 12 12 15 11 16 18 17 23 25 23 22 25 25 23 24 26 23 26 22 30 29 25 30 29 27 30 30 30 32 30 28 30 31 30 33 36 29 30 29 28 32 30 24 22 28 27 30 29 31 27 28 23 18 25 22 24 
21 16 36 99 95 54 33 82 117 67 22 16 12 13 14 15 14 11 10 11 8 7 10 10 8 8 7 13 11 13 6 9 15 16 18 23 24 25 26 25 26 25 26 27 31 28 30 29 29 32 30 32 32 29 30 31 35 32 32 32 29 32 29 29 31 30 25 20 23 29 31 35 32 26 30 28 21 22 23 27 
18 21 45 98 88 48 31 80 109 64 21 14 15 16 16 13 13 15 13 13 11 7 9 11 9 9 11 11 12 12 8 8 9 16 23 25 26 25 25 24 24 27 32 29 31 31 30 31 32 31 33 33 31 35 30 31 35 31 29 33 33 29 33 33 32 29 27 23 25 31 33 34 31 32 29 30 23 19 22 23 
19 20 47 102 83 42 30 86 104 60 21 14 12 14 16 12 12 11 11 10 10 7 8 8 3 4 8 10 9 12 10 11 20 20 23 25 26 22 20 27 25 28 28 30 27 26 30 30 27 29 26 32 30 33 29 32 35 31 31 31 31 28 30 28 28 32 27 21 19 26 30 33 28 28 25 27 23 17 18 24 
16 18 49 102 80 42 31 85 99 53 20 17 16 15 16 12 12 14 10 14 9 10 11 10 8 9 10 9 10 16 20 23 28 23 25 24 24 23 27 29 25 28 29 29 30 27 31 29 29 28 30 36 31 35 29 31 32 35 29 31 28 33 32 29 32 30 29 23 18 28 33 29 27 27 25 29 24 22 22 19 
18 16 53 103 83 39 32 91 102 54 19 16 18 18 14 15 13 15 12 15 14 12 11 10 9 12 12 13 17 27 24 27 28 25 23 25 26 23 26 25 26 27 27 30 31 27 30 28 30 29 30 31 34 31 28 36 35 31 33 29 32 31 31 32 29 35 32 24 20 25 30 28 28 26 29 26 26 28 21 23 
19 18 55 100 80 37 32 90 96 51 20 16 16 17 19 16 13 15 10 15 13 12 11 11 9 10 10 12 18 25 26 28 28 23 22 24 23 27 21 24 27 24 29 25 30 27 28 29 28 26 29 32 34 31 29 28 32 33 31 30 29 27 29 27 31 32 30 25 15 23 32 27 26 28 27 26 28 28 22 25 
22 18 60 99 87 41 33 94 99 48 21 18 17 16 20 17 22 18 16 13 13 13 13 11 14 10 11 13 16 25 27 25 31 24 22 26 26 26 22 26 27 29 26 32 30 29 30 28 31 30 31 33 32 30 30 31 34 33 34 33 34 31 32 32 30 31 33 30 20 23 30 31 29 28 28 26 31 30 27 22 
20 23 67 102 79 36 36 97 102 46 22 19 22 19 20 16 18 19 16 19 15 15 14 16 11 13 13 17 19 23 26 25 28 22 24 24 26 26 23 25 26 27 26 30 33 31 29 31 31 29 33 33 34 31 29 33 34 34 32 30 31 32 33 32 32 34 32 32 21 21 27 29 33 29 31 28 28 28 25 27 
28 29 79 114 78 35 41 98 102 44 20 19 17 18 16 17 21 18 16 16 18 16 12 15 12 13 15 17 16 18 24 26 29 24 21 24 25 23 26 25 23 26 27 25 29 28 32 27 31 32 31 33 33 33 29 31 34 32 33 33 30 33 33 29 30 29 32 30 25 25 22 31 31 31 28 25 21 26 25 24 
80 75 110 119 76 34 44 101 101 42 18 21 17 18 19 18 15 20 16 17 18 14 15 12 13 15 14 12 15 21 23 25 27 25 26 25 24 23 23 26 25 25 27 27 30 28 30 29 29 32 31 30 32 32 29 31 33 33 33 31 31 32 32 34 30 33 33 31 28 21 22 25 30 29 30 29 22 26 25 25 
105 106 112 100 64 32 46 100 96 44 22 22 18 19 19 17 18 19 20 19 14 16 16 16 11 14 15 16 16 20 29 24 27 27 25 22 28 30 23 30 26 27 27 29 30 28 30 27 31 30 31 32 32 30 28 30 32 31 31 31 32 33 34 33 30 32 32 35 32 30 23 22 26 29 26 30 23 27 27 27 
97 96 93 83 46 33 49 103 99 44 22 23 22 19 22 20 20 19 16 19 19 19 19 17 18 16 16 20 21 21 26 26 27 25 26 26 26 28 28 31 28 29 33 32 32 28 32 31 34 35 32 35 33 34 30 33 34 34 33 34 33 34 36 33 32 36 37 37 33 34 29 20 20 22 28 31 28 28 28 23 
44 47 47 40 28 29 53 110 100 48 25 25 21 22 23 22 21 23 21 17 16 19 18 20 17 16 19 14 20 22 28 26 27 30 30 29 30 28 29 33 31 30 31 31 33 28 30 31 32 34 33 34 35 34 30 33 36 35 35 35 33 33 38 38 35 37 36 39 37 34 38 33 24 22 20 22 20 22 24 25 
32 23 28 26 25 30 60 119 102 44 24 22 20 22 21 21 20 20 20 17 19 18 16 18 20 17 17 16 16 19 25 31 30 27 27 26 29 26 30 28 29 28 31 30 32 30 29 33 32 33 35 32 32 31 31 35 33 31 31 34 29 31 33 33 36 33 34 34 36 36 36 34 30 28 25 24 25 20 22 22 
76 63 59 52 45 48 73 127 101 45 24 23 21 23 24 20 19 18 21 19 20 18 19 19 17 17 17 17 21 19 26 27 30 27 29 31 29 30 29 29 31 29 29 28 31 29 30 30 31 33 33 30 31 34 32 34 32 35 33 32 31 32 32 32 37 35 36 33 33 34 36 35 32 29 30 31 28 24 21 25 
114 108 103 100 92 98 111 113 91 43 19 23 22 22 22 20 21 24 21 20 18 19 18 20 17 19 17 18 21 18 27 33 29 27 26 31 29 29 29 33 33 31 29 31 28 29 29 30 32 32 32 31 34 32 33 32 31 34 32 33 32 35 33 33 36 34 36 37 33 38 37 33 33 29 33 32 33 28 27 25 
99 99 99 99 91 99 99 98 77 30 22 23 20 22 22 21 21 25 21 22 20 19 20 18 18 20 20 16 21 23 24 29 30 28 29 29 31 31 31 33 32 29 27 31 30 31 30 30 32 30 31 33 34 35 33 33 34 34 34 33 32 35 32 34 33 32 35 35 34 35 40 36 34 32 31 32 29 26 27 31 
45 47 48 51 54 61 64 64 45 21 23 23 23 24 26 24 25 24 22 21 22 21 22 22 22 22 25 18 23 21 28 29 32 29 29 29 29 30 32 29 30 31 30 33 33 30 33 30 33 32 33 34 32 32 31 34 33 33 32 34 34 33 36 32 35 35 33 35 35 36 33 33 33 33 31 32 31 30 28 34 
26 22 24 23 25 29 30 29 26 20 22 24 24 27 26 24 25 25 24 22 24 23 21 24 21 20 21 20 21 21 27 31 33 30 29 30 30 32 32 30 32 32 31 30 32 29 31 34 33 34 34 34 34 32 31 31 35 33 35 35 33 35 38 35 36 36 35 35 34 34 36 34 38 34 30 33 34 33 30 31 
25 23 25 24 26 25 27 29 27 19 24 24 24 29 29 24 26 24 24 24 24 26 26 24 21 22 25 23 24 22 29 30 33 30 30 30 32 31 32 36 30 32 32 34 32 30 34 31 33 37 33 35 33 35 34 36 35 35 32 36 35 33 37 36 37 37 39 38 38 38 34 35 38 34 32 32 33 33 31 36 
27 21 27 24 24 25 23 28 26 23 24 24 25 29 28 26 26 30 25 25 25 23 24 27 26 26 23 21 24 25 29 33 32 33 30 32 33 32 33 31 31 35 33 34 34 33 33 35 35 35 33 36 36 32 35 34 35 36 32 37 34 36 38 40 38 37 35 38 40 41 37 38 37 37 32 30 31 33 30 37 
26 21 23 25 23 26 23 30 25 21 27 26 27 27 30 26 28 28 26 26 28 27 24 23 25 24 25 24 26 23 30 30 33 31 31 29 31 32 34 32 33 32 34 35 32 34 32 35 32 33 31 35 36 35 32 35 33 33 32 36 35 35 36 34 35 32 37 39 34 38 38 36 36 33 32 32 35 32 35 34 
28 22 25 23 20 28 22 25 27 18 24 25 24 26 27 26 28 30 28 26 27 25 28 26 24 24 25 26 24 26 28 33 32 31 29 31 30 31 30 31 29 33 32 34 31 33 36 34 32 34 33 35 35 36 30 34 36 36 33 37 35 34 35 35 36 35 36 39 38 36 38 38 38 33 31 32 34 35 35 32 
27 24 24 23 22 27 23 28 27 21 26 26 24 26 32 25 27 30 27 26 26 25 30 27 26 28 26 26 26 24 27 34 32 28 30 33 34 31 32 35 31 31 31 30 32 35 35 31 33 37 36 35 36 37 35 35 35 32 32 36 33 35 35 35 35 33 36 37 35 34 36 40 37 30 34 31 31 35 36 39 
26 27 25 24 24 25 23 28 25 19 27 27 26 26 31 30 30 29 29 28 27 26 29 26 31 25 28 30 28 26 31 35 35 32 34 31 30 31 32 31 32 34 32 36 30 33 33 35 35 34 35 32 35 35 31 32 33 37 30 34 31 36 37 32 36 36 36 39 38 37 40 38 37 33 34 30 35 34 38 38 
26 29 26 25 22 27 26 32 29 22 23 26 28 27 31 29 30 30 29 28 27 29 32 30 28 28 28 34 28 28 28 35 34 33 34 32 33 34 30 34 33 33 31 32 35 35 34 34 34 34 35 36 34 35 31 35 36 31 34 37 34 35 35 34 35 35 36 37 37 36 39 36 39 38 34 33 31 33 37 36 
26 27 26 21 19 29 25 32 25 22 26 30 29 30 31 31 30 30 34 30 31 29 30 32 32 28 30 28 32 27 31 35 34 32 31 33 34 34 31 33 33 33 36 33 34 38 32 34 34 34 35 34 36 34 33 31 36 34 33 34 34 33 36 33 34 39 38 37 35 40 39 38 33 37 32 30 33 32 33 35 
27 27 28 28 24 31 27 31 28 22 28 27 29 32 34 30 34 35 33 31 33 32 34 33 33 32 31 32 32 31 32 35 38 34 34 32 35 32 34 35 34 36 33 33 34 34 35 35 35 36 34 35 36 34 33 35 37 37 37 31 36 34 37 32 38 38 40 39 33 39 42 38 37 37 41 40 39 39 35 37 
28 22 24 24 24 29 26 33 26 20 27 29 28 32 34 34 33 37 35 33 32 33 36 34 32 32 31 32 34 32 30 37 41 36 36 32 34 34 35 38 37 35 37 35 35 35 34 33 36 36 35 36 37 35 35 34 37 37 35 36 34 36 32 36 37 40 42 40 38 39 43 39 38 39 39 40 42 37 41 39 
25 25 31 29 30 27 26 31 31 23 26 27 29 32 31 35 33 35 38 36 33 32 33 36 33 33 32 38 38 29 31 36 40 38 34 33 38 36 34 35 36 32 33 32 36 32 35 34 34 32 34 34 37 35 32 30 35 31 36 34 35 33 33 36 34 41 42 39 37 38 41 40 41 37 39 41 44 37 36 39 
24 23 28 28 26 31 34 36 27 22 25 29 30 29 34 34 33 38 32 40 35 37 40 39 35 36 31 33 33 32 31 36 36 34 34 35 36 36 37 38 37 33 32 33 35 35 33 34 35 37 39 34 36 33 33 31 34 31 34 34 33 34 34 35 37 38 40 37 40 38 42 39 40 39 39 41 40 41 40 42 
23 23 28 25 28 34 33 33 31 22 26 29 31 30 35 35 35 39 36 40 39 38 39 39 39 34 32 34 34 33 30 35 37 35 38 35 38 36 37 37 33 36 35 31 34 34 31 34 36 33 33 37 34 31 31 33 35 32 31 33 32 34 35 37 35 40 42 39 41 40 41 41 41 35 38 43 44 42 46 47 
26 32 28 27 31 35 27 34 30 26 25 31 33 36 38 36 39 39 40 41 43 38 39 42 37 34 31 32 33 32 28 35 40 40 37 36 36 34 37 38 36 35 34 36 37 33 36 33 35 40 33 33 32 36 32 32 34 36 34 37 35 36 35 37 38 40 43 42 40 43 43 47 44 46 49 53 69 76 91 115 
28 28 23 29 32 31 35 33 29 25 31 31 34 38 40 37 38 42 40 40 44 38 41 42 40 39 38 37 38 39 33 34 38 38 38 37 38 38 36 36 36 35 36 34 34 37 34 35 35 34 35 36 34 33 34 34 34 34 35 35 36 36 38 33 39 40 44 43 45 47 55 62 75 88 99 117 129 135 158 181 
28 29 28 31 31 33 35 33 31 26 28 34 37 36 38 38 40 40 40 45 43 42 40 42 45 49 46 45 45 46 39 33 39 39 37 39 37 33 37 40 41 37 34 36 36 37 36 35 33 37 34 33 36 36 30 40 37 34 35 36 38 37 35 36 40 40 46 47 68 85 99 111 116 126 131 141 155 168 187 228 
26 30 28 30 32 35 33 37 32 28 31 35 35 37 39 40 40 42 41 41 42 42 44 43 49 48 49 46 47 44 37 36 39 40 36 38 41 40 39 36 41 39 36 37 36 35 36 35 33 37 36 37 35 33 32 34 39 36 37 36 37 37 38 37 43 41 40 52 87 109 125 130 133 142 154 169 184 202 225 241 
26 27 27 29 29 28 33 35 32 28 34 34 34 41 40 40 42 39 42 41 43 40 41 46 44 49 46 47 47 46 39 34 40 40 40 39 41 39 39 36 38 37 37 39 38 33 35 33 34 37 34 35 38 32 37 35 34 37 38 37 36 35 38 38 40 42 42 51 87 119 139 151 156 165 173 185 199 212 238 250 
30 28 30 29 29 31 34 36 36 28 36 34 40 43 44 40 43 44 40 46 43 48 48 46 46 52 49 49 49 44 39 36 42 39 41 46 41 39 40 40 38 39 35 40 39 33 37 35 35 35 39 39 37 38 39 35 35 38 38 33 35 38 38 37 40 41 43 52 87 121 148 153 161 167 173 188 199 216 235 247 
32 31 32 34 30 35 34 36 39 30 34 34 38 40 41 44 43 43 44 48 47 50 52 50 50 49 51 51 49 47 41 37 43 41 41 40 43 39 42 40 41 38 39 38 39 37 39 36 36 37 39 38 39 44 45 44 40 40 39 39 36 39 39 43 40 41 44 49 77 118 142 152 159 167 173 187 199 212 233 253 
34 34 35 40 36 34 37 42 41 36 36 40 42 41 51 45 48 50 48 49 50 49 51 52 54 54 53 52 55 48 44 40 39 46 46 44 43 45 44 43 40 42 39 40 40 37 39 39 37 37 38 40 41 46 51 53 52 44 42 41 39 40 40 41 42 43 46 48 72 114 140 152 161 167 173 186 196 213 231 247 
38 33 37 37 39 40 39 41 43 31 38 39 44 43 46 48 45 46 49 52 53 50 50 54 56 56 55 52 50 51 42 40 42 42 44 43 45 42 43 41 39 38 39 40 40 38 39 38 37 39 40 39 42 50 70 93 82 58 44 40 38 38 41 42 40 42 43 45 67 108 132 149 156 163 169 176 197 209 228 246 
40 37 39 39 38 41 43 45 41 36 42 43 43 46 49 45 51 52 55 53 56 56 58 58 59 61 63 59 58 53 49 45 42 48 47 48 47 43 42 42 44 44 41 42 43 40 41 38 40 39 42 44 48 71 196 204 130 73 46 42 38 42 42 39 42 43 45 50 65 103 131 146 154 159 169 183 193 205 226 243 
44 43 43 42 41 47 47 50 46 41 46 47 49 51 56 56 55 57 58 58 62 63 65 66 66 62 66 61 62 59 50 48 47 49 48 52 47 44 45 44 46 44 44 46 43 44 47 40 42 44 46 47 53 73 197 192 116 70 49 45 41 40 42 43 43 46 45 48 60 99 129 149 152 157 164 175 179 194 224 239 
46 49 45 45 43 47 48 53 50 41 45 48 49 55 58 52 58 58 63 67 65 68 69 72 65 70 68 64 64 59 54 47 48 52 51 50 52 45 43 48 44 44 47 44 45 44 44 44 44 46 44 43 48 52 75 86 74 58 47 46 41 42 45 45 44 45 46 48 55 93 123 140 151 155 163 163 147 175 219 235 
53 47 47 47 47 50 49 60 57 48 51 54 55 59 60 61 64 65 66 69 70 74 73 78 76 78 77 72 70 64 54 49 53 51 54 51 47 45 42 50 45 45 47 51 50 49 48 42 48 48 46 47 46 48 51 54 57 50 45 47 42 44 43 45 45 48 49 48 52 91 124 139 149 154 160 160 159 192 221 234 
59 58 54 56 56 58 58 58 56 50 55 55 57 63 67 61 66 67 68 70 77 84 82 83 85 87 81 76 70 63 58 54 53 50 54 56 48 53 67 61 46 50 54 48 51 50 51 47 51 50 50 45 45 53 46 49 49 48 45 44 46 45 43 46 44 48 51 50 55 84 116 141 153 156 159 168 178 197 221 232 
78 73 69 64 63 60 61 67 58 55 54 64 56 60 65 69 65 72 75 79 82 85 84 81 90 92 89 75 69 64 60 57 56 57 57 57 59 69 127 90 58 57 57 55 52 49 52 47 51 51 47 48 45 48 47 47 49 51 45 46 45 44 45 47 44 48 49 53 53 79 117 139 153 157 161 169 182 199 219 231 


