P2
80 60
254
17 18 19 32 41 46 82 96 71 39 52 88 84 44 37 33 30 27 24 25 22 25 20 19 20 24 22 24 29 31 34 29 27 26 23 24 27 21 22 21 25 24 27 23 24 24 24 24 23 19 13 16 16 12 16 15 13 17 16 14 15 15 17 21 22 21 18 25 26 24 21 22 21 19 19 16 14 18 14 14 
19 22 20 26 33 47 92 91 62 33 60 92 80 42 33 32 31 31 27 25 26 23 22 21 22 19 19 23 25 27 29 29 26 28 25 23 25 24 25 23 21 26 24 20 23 24 24 27 25 18 14 14 13 13 15 17 17 17 17 15 17 15 17 20 23 22 22 24 26 22 24 21 19 16 18 17 16 20 14 9 
14 22 19 24 41 47 92 89 63 34 62 90 73 41 37 30 27 24 24 23 24 22 21 22 20 21 28 25 24 30 30 29 27 24 24 25 23 26 26 23 22 23 26 22 26 29 27 26 27 22 17 17 17 18 14 18 18 16 20 21 21 22 25 29 26 19 22 21 22 22 22 21 19 19 19 22 15 16 15 12 
16 22 21 32 37 48 95 91 51 37 68 89 70 36 28 28 25 25 23 22 24 23 20 21 18 26 26 22 28 29 31 31 29 22 25 20 24 25 21 23 23 24 23 22 26 28 27 28 27 23 21 21 25 23 24 24 24 25 28 26 23 23 26 28 27 22 22 20 26 20 23 18 20 19 19 17 16 15 12 3 
15 20 19 30 38 57 104 87 49 38 75 88 59 33 28 25 22 24 26 22 21 20 21 22 22 26 22 23 26 29 31 29 27 20 22 22 23 20 24 20 23 25 24 21 23 27 25 27 27 25 26 24 23 25 27 29 25 28 27 26 28 25 27 25 24 24 22 22 24 21 21 20 18 20 17 17 15 13 7 11 
12 20 22 37 41 65 101 80 46 41 82 85 57 35 27 24 22 23 24 21 24 24 25 24 22 24 28 26 25 30 30 28 28 24 23 23 25 24 22 24 20 22 24 28 28 24 27 27 25 27 26 27 27 26 25 29 27 28 27 27 27 25 21 25 22 23 23 23 26 21 26 19 19 21 21 17 20 16 10 14 
13 21 22 38 40 66 102 78 42 41 86 85 51 28 28 25 21 23 26 21 22 23 21 23 22 24 24 23 27 30 30 27 27 26 22 23 25 26 23 23 24 23 21 22 23 25 26 31 25 28 27 26 24 25 27 27 25 23 25 21 27 24 24 25 25 24 21 23 26 27 22 24 20 23 23 20 20 14 13 11 
10 14 19 31 37 65 98 72 42 44 86 83 42 24 19 23 22 20 21 21 20 20 18 16 18 19 21 20 21 30 28 24 27 21 23 22 22 21 22 21 22 23 24 21 23 20 22 23 23 24 29 23 22 25 22 20 25 24 24 21 22 21 23 28 22 21 21 21 22 24 24 22 19 20 20 17 16 17 11 15 
7 10 12 31 28 60 102 72 35 41 89 77 42 22 21 21 19 20 21 17 22 22 19 17 21 18 18 19 25 27 28 24 23 24 22 23 26 23 22 22 23 21 22 24 23 26 26 25 25 25 23 24 22 25 22 25 25 22 24 25 25 27 26 26 25 26 23 24 23 21 27 25 20 22 22 18 16 19 13 10 
3 4 0 4 12 69 97 65 27 44 95 80 39 23 21 19 16 18 18 18 21 21 21 20 21 19 21 21 23 28 26 25 25 24 21 19 26 23 22 23 23 24 24 22 26 26 26 25 26 26 22 24 21 21 23 25 26 23 26 28 26 26 27 24 27 26 24 21 24 25 25 22 22 23 20 20 16 16 16 12 
10 10 7 4 14 72 98 57 24 45 100 82 24 13 9 12 12 14 16 18 17 17 17 16 18 20 19 19 18 21 23 26 18 24 17 22 23 24 23 22 22 21 23 23 26 25 27 23 23 23 22 19 23 22 24 24 26 29 27 29 27 28 27 28 26 23 26 22 24 27 22 25 21 21 19 19 18 21 21 13 
13 14 15 16 22 82 100 56 25 51 96 75 17 10 6 6 4 7 13 10 13 14 15 16 18 16 18 19 19 20 26 23 21 21 18 24 21 23 20 24 21 24 22 24 25 23 22 25 23 21 22 25 25 24 25 25 26 30 29 31 25 26 25 29 24 28 26 22 23 21 24 26 23 23 21 21 19 21 11 11 
11 13 13 18 18 80 94 52 22 53 98 68 14 10 5 7 7 6 7 6 2 3 1 3 9 10 12 13 18 21 22 20 19 18 18 21 22 24 25 23 22 25 24 22 23 25 25 21 21 23 22 25 22 26 31 25 29 25 28 27 27 28 25 27 23 25 28 22 23 23 25 24 22 22 20 19 19 18 14 14 
9 15 14 20 23 82 87 46 26 59 99 64 18 9 7 4 5 7 5 2 6 3 5 1 2 1 4 6 8 8 10 7 12 16 16 19 19 25 23 22 25 25 20 22 24 20 23 24 27 25 25 25 22 25 26 28 29 25 25 27 27 27 24 27 23 28 22 23 21 24 25 25 24 23 21 19 23 20 14 9 
11 13 14 22 36 86 84 43 24 69 92 57 19 12 8 10 9 7 7 4 3 6 5 3 3 5 4 5 7 8 7 4 2 2 0 7 16 23 22 23 21 23 23 20 24 24 24 28 25 26 27 27 27 27 29 28 30 28 28 27 26 27 23 31 29 26 26 24 23 25 24 28 24 22 25 23 20 18 17 12 
11 15 13 19 37 88 84 35 25 74 93 55 17 12 8 11 10 9 7 3 6 7 5 7 2 6 2 0 5 7 6 6 4 0 2 15 17 23 16 20 20 20 21 25 23 24 26 25 29 26 28 25 27 28 29 26 29 29 31 29 31 27 24 27 30 26 25 26 21 25 26 24 24 26 25 23 19 19 13 15 
10 13 15 19 43 90 79 33 23 79 84 48 14 12 10 11 10 8 8 8 6 8 5 4 4 0 4 4 8 9 9 5 6 15 18 20 24 23 19 17 19 21 21 21 24 23 27 25 26 25 25 24 27 26 28 27 29 25 26 27 30 27 28 26 23 26 27 25 24 22 26 25 22 24 23 21 19 20 13 13 
14 16 13 22 46 93 79 34 26 85 86 45 18 17 12 11 13 10 8 8 10 10 7 10 4 7 7 1 8 11 11 14 22 22 23 22 23 23 25 22 23 24 27 24 27 24 28 27 26 27 27 26 31 28 29 30 32 30 33 28 30 28 29 27 26 25 27 24 23 26 26 25 27 23 26 22 21 22 15 9 
14 12 16 21 49 89 69 29 26 82 83 41 14 10 10 11 9 12 12 8 10 7 8 6 6 7 4 4 6 8 19 20 21 20 20 19 23 20 22 20 22 19 24 22 25 25 25 26 23 26 26 26 28 25 25 30 26 28 29 29 28 26 25 30 25 28 24 27 26 23 24 23 22 25 27 23 20 19 18 13 
13 13 16 22 59 91 75 30 28 82 81 40 15 12 10 10 15 13 12 9 11 7 8 10 8 7 8 4 8 13 18 24 22 20 16 18 22 20 19 21 23 23 22 23 24 23 25 24 25 25 27 26 27 25 24 29 27 27 28 28 29 28 29 29 27 26 27 25 22 21 24 23 25 24 24 22 22 21 14 13 
16 23 18 25 70 98 74 30 34 91 83 40 16 12 13 11 13 12 12 11 10 9 6 8 6 11 6 8 9 13 17 21 23 21 18 18 21 23 22 21 20 22 24 26 24 28 26 26 25 24 24 27 26 26 27 27 27 26 30 30 26 28 28 29 28 28 27 26 24 20 25 22 28 21 25 21 20 22 17 19 
44 38 35 38 85 108 78 26 39 95 84 35 15 14 11 14 10 15 14 10 13 13 8 9 8 9 9 7 9 12 14 20 22 21 18 20 19 22 19 25 24 22 24 25 23 23 24 26 27 26 28 26 27 30 31 27 26 28 30 28 28 27 28 32 29 27 28 29 28 22 25 24 25 23 22 21 22 22 17 14 
102 101 93 92 108 105 66 24 46 92 82 34 15 16 10 15 9 11 12 9 11 10 8 8 8 7 9 9 13 10 10 18 21 20 18 16 21 21 18 21 22 21 24 22 22 25 27 24 23 28 28 28 28 26 28 28 28 25 27 25 26 25 28 27 29 28 29 29 25 22 21 22 27 21 25 23 23 18 18 18 
105 104 105 105 105 92 53 30 53 96 81 30 14 9 12 11 9 11 14 12 12 9 9 9 8 8 9 7 9 13 11 18 19 20 17 17 21 23 21 20 23 23 24 26 25 25 26 23 28 24 26 28 27 27 26 27 27 28 26 29 28 25 27 27 29 25 30 31 26 25 23 22 22 24 21 25 23 19 16 17 
57 66 73 86 83 66 34 28 56 98 81 31 19 15 11 16 14 15 13 13 14 13 13 12 15 12 9 7 12 11 15 18 22 20 20 20 22 22 23 21 26 26 26 24 25 25 26 30 25 30 27 28 28 30 25 27 27 28 28 29 33 33 32 31 28 29 29 28 30 27 26 24 24 23 23 20 21 24 16 17 
27 27 26 31 34 27 25 28 59 106 82 32 17 18 16 14 16 15 16 12 14 12 12 12 13 12 12 11 13 15 16 21 25 25 20 21 22 24 23 25 27 25 27 29 30 27 26 26 27 28 28 28 30 28 32 30 29 27 29 31 30 29 30 33 28 28 29 31 29 30 30 28 23 21 21 23 23 24 16 19 
42 40 33 34 26 24 26 32 69 110 84 31 17 17 19 15 14 17 16 17 13 15 13 13 14 15 11 10 13 18 14 23 26 21 22 19 24 24 25 27 26 28 28 27 27 25 27 28 27 27 30 31 27 30 30 30 28 31 29 32 29 30 31 32 30 30 31 30 28 29 29 27 28 26 21 21 23 19 15 17 
105 103 94 89 76 68 64 62 91 112 84 33 20 16 17 14 17 14 17 13 13 18 13 14 14 12 14 11 11 14 14 20 21 19 19 20 26 25 23 26 25 25 26 27 25 25 24 26 27 26 29 25 29 27 31 31 25 29 29 26 29 30 30 31 32 27 29 27 29 28 28 30 27 27 26 27 26 27 18 18 
106 112 109 109 103 99 98 96 104 99 76 24 20 16 14 18 14 14 16 15 15 18 13 11 15 14 15 13 14 15 15 20 26 23 23 22 25 26 26 28 26 27 27 26 26 26 25 29 27 25 30 29 30 29 32 28 27 28 29 28 28 28 28 31 28 28 30 28 33 27 33 30 28 28 31 25 26 24 21 20 
59 69 77 88 84 92 93 93 96 86 53 20 17 19 14 16 17 17 18 17 18 16 14 18 16 15 15 13 15 14 17 17 23 20 23 23 25 26 30 26 28 28 29 26 27 25 25 25 28 27 27 28 30 29 28 28 29 27 28 28 26 28 26 31 29 29 30 30 32 28 32 35 30 27 28 26 23 27 23 19 
23 30 31 31 32 34 38 44 49 40 26 20 16 21 17 17 19 17 15 17 15 19 17 18 12 17 15 16 15 16 16 21 24 23 20 21 23 25 28 27 27 26 28 28 25 27 28 25 29 27 28 28 27 29 27 28 33 29 31 29 31 32 29 30 29 29 29 29 30 29 32 32 27 27 26 25 28 26 21 26 
22 23 21 28 25 20 24 22 25 20 20 19 20 21 16 19 20 22 18 15 18 19 17 18 17 18 14 15 18 20 16 20 28 21 20 22 25 28 27 25 28 29 26 29 27 25 26 27 28 31 25 28 30 29 31 31 29 29 31 30 31 30 33 34 31 30 33 29 32 30 33 31 29 29 26 23 26 25 23 21 
18 20 24 25 23 16 21 22 21 20 20 19 17 20 20 19 20 20 18 17 16 21 17 17 19 16 18 17 19 19 15 20 25 24 22 23 24 26 28 27 28 27 27 25 26 26 26 25 29 27 31 29 29 27 32 31 28 27 30 30 30 28 30 31 31 31 29 33 34 27 29 30 30 28 28 27 29 29 23 24 
18 20 24 31 22 18 26 20 22 24 23 19 19 21 19 21 20 22 20 16 21 21 20 20 21 17 18 17 19 21 17 23 27 24 21 22 26 28 25 28 29 28 29 27 31 28 30 28 32 31 30 30 29 28 32 31 33 27 31 32 30 34 33 35 36 32 32 37 34 31 37 34 32 36 34 30 30 31 24 27 
22 23 19 20 18 19 22 22 22 20 23 21 19 20 21 21 22 23 19 20 17 19 21 20 21 21 21 16 21 18 18 23 26 23 25 24 28 24 25 26 31 27 27 30 27 27 27 27 29 31 30 30 27 30 29 28 33 31 28 32 33 33 33 32 34 30 32 34 33 31 33 30 31 33 32 29 29 29 29 30 
20 26 23 22 18 20 23 22 21 21 21 20 20 22 20 21 23 23 20 21 21 22 20 21 20 20 19 19 21 20 19 21 25 24 27 28 27 26 26 23 27 31 29 28 30 29 29 28 29 29 28 31 31 29 31 30 31 30 29 32 31 30 30 33 35 31 32 31 31 32 32 31 34 32 34 31 32 30 29 34 
21 25 24 25 22 18 22 20 25 21 21 19 22 23 22 22 24 23 22 22 17 21 20 21 21 21 23 20 25 23 20 25 26 27 24 27 28 27 26 27 30 30 28 28 27 30 31 32 30 30 32 31 30 32 33 32 33 30 32 32 31 33 34 35 33 28 32 34 29 31 35 33 30 33 34 32 32 36 32 34 
18 22 24 25 23 21 26 20 25 22 22 18 24 26 24 21 23 24 23 23 23 26 20 23 23 21 24 21 26 22 20 23 29 30 23 27 28 29 26 26 29 29 30 25 30 30 31 31 33 30 29 31 30 34 31 32 34 29 30 31 29 33 33 33 32 28 34 33 34 34 33 34 31 33 34 31 33 35 33 40 
20 20 22 26 21 24 22 20 31 23 18 21 22 22 25 23 26 24 25 23 19 25 22 24 24 26 25 23 27 23 23 21 26 29 28 27 30 27 29 30 28 32 27 24 31 30 28 30 33 29 30 31 29 32 28 31 34 31 31 29 30 32 30 32 30 32 31 34 34 36 36 34 30 34 32 33 35 39 38 43 
23 19 24 25 23 20 23 22 30 21 20 23 19 22 27 23 28 25 27 23 24 24 22 25 25 25 25 26 27 25 25 24 29 30 25 29 27 31 26 30 29 27 30 31 30 29 32 31 30 31 31 30 32 31 30 31 32 29 30 30 30 34 30 33 33 31 33 33 36 34 34 33 35 31 30 35 47 47 42 40 
18 25 24 25 26 24 24 21 25 22 20 22 21 23 25 25 26 26 27 26 26 23 24 28 30 26 27 25 27 27 26 23 29 28 27 28 30 30 29 29 31 30 30 28 30 30 29 31 29 31 32 29 31 31 30 30 30 30 29 28 31 29 31 31 33 34 32 33 32 34 37 32 33 33 33 33 36 37 37 35 
18 19 22 27 25 22 28 24 26 23 24 22 23 26 27 24 29 29 25 26 27 27 27 28 30 27 26 27 27 27 23 21 28 27 27 30 31 30 32 31 30 31 30 31 29 33 33 30 32 28 30 31 30 32 29 32 33 30 32 27 29 31 28 33 32 32 37 33 37 37 34 35 36 35 34 37 37 33 36 37 
20 23 22 25 27 26 24 23 26 22 23 24 24 26 26 25 27 29 27 26 25 27 30 32 28 29 26 27 27 27 23 24 34 30 29 29 28 30 30 29 32 30 31 29 27 29 30 30 30 27 31 32 33 33 28 29 28 30 29 30 28 29 30 32 32 32 33 33 34 33 34 39 37 36 37 39 38 41 36 39 
20 21 21 26 22 22 29 29 27 23 21 24 22 27 24 27 26 30 29 29 26 30 28 33 33 30 27 26 31 29 24 27 31 34 27 28 31 32 32 29 32 31 29 28 27 27 29 29 29 29 31 30 31 28 27 27 28 30 32 29 31 30 31 35 31 30 33 35 35 34 37 41 42 42 51 57 71 82 91 107 
20 23 25 29 24 26 28 31 28 28 21 25 26 29 24 29 29 32 31 30 33 32 34 33 36 31 28 25 26 30 26 25 29 32 28 28 32 30 32 27 30 29 31 28 31 28 29 29 31 29 30 27 27 27 27 29 31 31 31 29 30 31 32 35 32 31 34 36 36 44 66 80 88 103 113 120 135 148 166 192 
18 22 26 25 27 27 29 29 25 25 22 26 29 28 27 27 30 32 31 32 30 34 32 34 37 33 29 26 28 29 26 20 30 30 29 30 30 36 29 30 30 30 29 30 30 29 30 29 30 31 30 30 30 29 31 29 26 32 30 30 30 33 34 35 34 31 34 39 35 62 104 121 133 137 144 152 163 182 197 228 
21 24 25 29 24 26 30 28 27 24 25 25 29 31 29 30 28 30 33 34 33 37 31 34 35 33 29 26 26 30 26 22 26 30 27 33 31 32 33 31 32 33 31 30 31 30 30 27 30 30 31 29 31 32 30 26 29 29 29 33 34 33 33 37 33 32 36 38 41 75 115 143 156 161 170 182 196 213 232 244 
22 23 26 27 26 28 30 28 27 28 27 27 30 28 26 30 31 28 35 32 34 34 34 38 39 37 36 38 34 36 36 33 27 28 29 32 32 32 32 33 34 32 30 30 32 31 28 31 28 27 33 29 29 29 28 28 30 30 28 27 33 30 32 35 30 32 36 37 37 69 116 149 162 171 179 191 202 222 238 250 
20 22 28 31 26 24 33 26 29 28 24 25 29 32 27 34 32 34 36 35 35 35 33 37 36 40 42 41 40 42 40 33 30 30 31 33 34 35 37 32 31 30 34 30 31 28 31 32 29 29 28 30 31 31 27 29 31 30 31 25 31 34 32 33 30 32 34 36 36 62 117 147 163 176 179 190 204 220 237 252 
24 22 26 28 27 27 32 29 30 28 31 24 31 32 31 32 34 33 35 35 35 39 35 38 37 39 43 41 40 42 35 33 30 28 30 30 31 32 33 33 33 34 35 32 32 31 29 29 28 30 29 32 31 28 29 31 32 30 30 31 29 33 35 37 32 33 35 35 38 64 114 145 161 169 178 188 199 217 237 254 
25 29 28 30 30 32 32 27 32 31 28 27 29 37 30 34 37 35 35 37 39 40 38 39 39 43 46 44 40 42 38 35 31 31 32 34 34 36 36 34 36 35 36 35 33 33 30 31 28 32 29 31 29 31 32 31 31 35 33 31 33 35 33 34 36 35 34 39 40 65 115 139 159 167 174 188 197 215 235 250 
28 29 29 29 28 30 31 28 30 31 31 30 31 32 35 34 37 36 37 38 38 42 37 39 41 46 46 42 41 43 42 36 32 30 36 34 34 37 33 36 35 34 36 34 33 32 29 29 31 31 30 32 32 31 35 33 35 32 35 31 31 36 34 38 34 34 36 38 43 56 105 137 153 162 174 187 193 211 230 246 
28 32 33 34 30 30 35 36 33 33 32 33 34 32 35 35 37 41 40 39 45 47 41 40 44 45 49 43 43 43 42 42 31 31 37 35 36 38 33 36 36 37 34 33 34 32 30 33 33 33 34 34 35 34 37 41 38 36 36 35 34 32 32 34 34 37 36 37 39 53 102 132 154 164 171 181 192 208 226 242 
28 33 33 37 37 32 37 34 35 36 35 33 37 34 36 36 40 41 41 43 48 47 46 44 45 46 51 46 45 45 43 38 37 32 37 40 41 38 37 38 35 35 35 36 33 34 34 32 32 32 34 37 34 37 44 46 41 40 39 35 34 35 37 38 38 32 35 39 38 54 96 129 148 165 168 176 178 184 209 245 
31 34 37 40 36 38 42 37 39 37 39 37 41 42 42 39 42 45 43 45 48 50 49 51 51 50 53 50 48 51 45 41 38 33 37 39 40 42 38 40 37 40 35 36 35 36 35 32 35 35 35 33 38 41 48 64 77 62 49 38 39 36 37 38 38 36 39 43 41 50 94 128 149 161 166 173 169 162 207 252 
34 41 39 42 39 37 41 40 39 39 40 36 40 43 40 45 47 46 49 50 53 57 56 54 54 56 57 57 56 54 50 45 41 38 42 44 42 42 40 40 42 40 42 39 38 37 36 34 37 36 39 39 42 45 77 194 168 104 61 45 41 38 37 36 40 40 40 40 44 50 93 128 152 163 166 178 179 192 225 241 
39 44 42 47 43 42 43 41 41 41 43 40 43 44 44 49 53 53 51 54 59 58 59 61 63 60 60 61 56 57 53 45 42 42 44 44 44 45 43 41 38 40 40 38 40 41 38 38 40 39 41 40 43 48 93 237 181 103 58 44 39 39 38 37 38 39 42 43 45 51 89 124 150 161 171 176 190 202 217 234 
43 45 47 53 49 43 50 48 45 46 49 43 46 52 47 50 55 56 56 60 62 66 64 64 68 65 66 62 62 58 53 47 46 43 44 47 45 46 41 39 37 42 42 38 44 41 37 38 40 39 39 37 44 46 60 96 92 68 52 43 38 37 37 38 38 38 40 41 43 45 87 119 149 164 166 180 195 206 220 234 
52 53 55 60 54 54 58 56 50 50 50 47 50 53 52 53 55 58 59 61 65 69 69 74 76 72 75 70 65 59 55 53 47 46 46 47 46 41 40 42 43 44 46 42 44 44 40 43 43 42 42 45 42 45 49 56 55 53 48 42 41 41 39 40 36 40 39 42 41 48 83 122 147 162 173 181 193 207 219 230 
73 73 64 62 54 55 60 56 53 51 51 48 52 57 56 54 56 61 66 70 73 73 75 78 79 80 79 74 67 63 55 53 46 49 47 50 49 49 58 71 47 46 52 47 45 43 43 44 41 43 45 44 42 43 45 48 51 46 45 38 42 41 38 40 41 43 40 38 39 41 73 128 147 168 173 180 193 207 223 232 


