P2
80 60
261
23 23 21 25 37 48 86 93 71 40 63 95 87 49 40 37 34 31 28 27 25 29 23 22 23 24 22 24 28 32 33 34 27 31 27 28 27 24 24 23 26 25 28 27 27 26 28 27 28 21 18 18 17 16 17 18 17 21 19 19 20 19 21 20 24 25 27 27 27 29 25 27 22 25 22 23 23 21 17 19 
24 24 23 28 39 52 95 97 68 38 68 99 84 45 40 37 35 34 30 27 25 28 25 26 24 23 24 30 28 28 34 34 28 33 28 27 28 25 28 26 26 29 27 26 28 28 30 32 29 23 16 18 15 18 20 17 20 17 20 20 19 19 21 24 29 27 29 28 27 26 28 26 26 20 20 24 24 23 14 24 
20 24 20 25 41 52 94 97 63 43 72 95 76 46 40 35 33 28 30 28 26 26 26 24 24 24 26 29 27 31 32 35 29 29 28 31 28 29 27 26 26 28 28 24 27 31 28 31 30 24 21 18 24 20 19 20 23 22 24 23 27 26 30 29 29 23 28 29 25 28 25 27 22 25 21 26 19 22 13 15 
23 24 23 29 40 55 97 94 55 42 79 98 73 37 36 32 30 30 27 27 26 26 24 25 26 28 27 30 32 32 32 33 29 26 26 23 27 25 26 26 24 25 28 26 30 30 29 30 33 26 23 24 29 25 27 29 25 28 30 30 28 31 29 31 31 28 26 28 26 24 26 29 24 29 26 25 21 19 11 19 
16 24 20 30 39 61 108 90 52 41 81 90 64 34 35 31 30 26 27 24 23 19 28 23 27 27 26 26 28 30 32 31 28 28 25 24 25 23 25 23 23 23 27 24 27 27 25 28 29 28 29 26 25 28 30 31 27 33 29 27 28 28 30 31 27 27 30 26 26 28 23 23 22 27 19 23 21 19 12 18 
15 20 19 30 37 71 100 83 47 46 87 92 60 34 30 28 28 26 23 24 24 27 29 25 26 25 29 31 30 31 31 32 28 29 27 27 27 25 23 26 23 22 26 29 28 30 27 30 29 31 30 29 32 27 26 29 29 30 32 29 30 30 25 30 26 27 26 26 27 25 26 25 24 28 23 23 26 23 15 18 
20 26 26 32 37 69 103 81 45 45 88 88 52 30 29 28 26 28 28 26 23 25 24 25 25 28 27 25 27 28 31 30 29 30 26 27 27 26 24 23 23 25 25 29 27 28 27 31 28 29 30 28 28 27 29 28 26 26 30 26 26 28 26 27 27 28 28 29 29 28 26 30 23 28 28 25 27 21 13 21 
12 15 22 28 38 67 99 75 44 47 91 88 44 28 26 25 26 24 22 24 23 21 23 21 22 21 25 25 27 25 28 26 27 24 26 25 23 23 25 22 22 26 24 26 28 26 27 24 25 27 27 28 28 29 27 25 26 27 27 25 23 23 28 27 27 26 27 26 24 27 26 27 23 25 25 24 20 20 14 24 
8 13 14 27 28 66 102 71 37 45 90 82 43 25 24 24 24 22 23 22 22 20 23 22 23 22 23 22 27 25 29 26 26 27 24 25 25 24 25 24 25 24 23 27 24 26 28 25 27 27 24 25 24 26 24 28 24 26 26 26 27 27 29 27 29 32 29 28 27 26 27 29 27 24 28 25 21 24 17 21 
8 5 4 0 13 74 101 68 28 45 98 80 40 26 23 23 22 21 19 20 22 19 22 21 23 19 25 23 27 28 30 27 29 27 26 26 27 26 26 24 23 25 26 25 27 28 28 29 27 28 24 27 25 26 27 27 28 29 30 29 28 33 31 27 31 31 30 30 28 29 29 27 26 27 26 27 26 24 15 21 
16 16 9 2 17 76 100 60 26 49 106 86 25 17 13 18 17 19 17 18 18 19 20 19 20 21 21 25 22 25 28 29 25 26 23 24 24 22 23 26 23 25 26 27 26 27 26 26 23 26 26 21 27 26 25 25 27 31 30 31 31 33 30 29 30 27 31 25 30 29 28 28 25 26 24 24 26 25 16 21 
19 19 18 13 21 87 103 55 24 55 99 76 20 13 12 11 9 10 14 14 12 16 17 17 19 20 20 20 22 23 30 24 24 26 24 26 24 25 23 25 23 24 24 25 26 25 26 27 26 24 26 26 28 28 28 27 29 33 30 36 29 31 28 28 29 31 29 29 27 27 29 27 25 29 27 27 26 24 16 23 
14 17 17 15 19 81 95 57 26 59 104 74 17 13 9 7 11 9 8 8 2 4 7 6 11 12 17 17 18 22 23 23 20 24 21 23 21 24 23 24 21 24 25 25 24 26 25 23 25 24 25 27 26 26 30 26 30 28 30 26 32 30 30 28 27 31 30 28 26 26 29 30 22 24 21 23 28 21 16 24 
13 16 16 13 23 90 90 47 29 64 104 68 20 14 12 13 10 10 7 8 6 4 8 7 6 4 7 9 10 9 10 12 16 18 20 22 21 26 24 23 24 27 24 26 26 25 26 29 30 28 25 28 26 28 30 29 29 28 29 32 32 27 29 27 27 31 31 28 25 30 28 31 30 28 26 26 25 26 17 22 
16 19 18 18 35 90 84 47 25 72 97 59 20 18 15 14 15 11 12 7 5 5 5 5 4 7 8 7 9 7 9 7 5 5 5 11 18 25 23 23 23 24 28 25 28 26 26 28 28 28 31 29 28 33 29 30 30 30 31 32 32 31 29 30 31 29 32 31 28 26 26 30 27 27 28 29 28 25 21 19 
14 17 15 14 37 91 84 37 25 77 98 56 19 15 11 14 12 10 11 7 7 8 7 8 5 6 7 6 5 9 8 9 8 4 6 15 21 21 20 21 21 21 21 26 24 27 27 26 31 28 28 29 28 30 30 29 29 29 33 30 31 30 29 28 30 31 29 28 23 29 27 29 27 27 26 27 26 27 18 21 
12 16 17 18 44 91 78 34 25 79 89 50 20 14 14 15 11 13 9 9 6 8 6 7 6 6 8 4 9 9 9 8 7 16 20 21 24 23 21 21 21 24 23 25 24 26 28 27 29 29 28 28 29 27 28 30 30 27 27 32 33 29 31 31 28 32 31 31 27 26 28 30 28 28 26 25 23 25 18 24 
16 16 18 17 48 97 80 34 29 86 91 49 20 18 17 13 17 13 11 10 10 9 11 10 9 9 9 7 9 10 10 18 21 26 25 24 27 24 26 21 24 26 28 25 26 28 31 30 29 29 28 31 32 33 28 31 31 33 34 32 32 29 31 30 27 30 29 30 26 29 29 30 31 25 29 26 30 27 17 19 
14 16 20 17 50 94 75 31 30 84 87 44 17 14 16 16 12 13 13 14 9 9 11 7 7 8 9 8 10 12 19 24 22 24 22 20 22 22 22 23 25 21 27 25 27 28 27 29 27 28 27 30 30 29 28 31 29 32 27 29 34 29 30 31 28 31 29 31 26 29 29 29 26 29 32 27 27 26 19 26 
14 18 18 18 58 96 78 29 30 84 86 43 18 15 16 14 18 16 14 11 11 9 12 11 11 9 10 8 8 16 21 26 23 25 22 20 24 23 21 23 22 21 23 25 26 27 27 27 28 28 31 27 29 30 28 29 30 31 30 32 31 33 29 29 29 30 29 29 27 26 26 28 28 29 28 25 25 24 17 21 
22 24 18 21 69 99 75 30 32 94 88 42 22 14 16 14 17 15 15 11 11 12 12 11 8 13 11 13 11 13 17 24 23 25 21 19 22 21 22 22 24 21 25 25 26 27 26 28 28 28 30 27 30 29 28 27 29 28 30 29 28 31 31 29 28 30 32 32 28 27 29 29 29 25 27 26 26 24 21 22 
43 41 34 34 87 106 80 28 38 96 86 38 15 17 19 15 16 18 14 11 12 11 10 10 8 7 11 9 12 14 11 24 25 25 22 23 20 22 22 23 25 23 27 25 26 27 27 28 30 27 28 28 31 30 32 28 30 31 31 28 32 32 31 34 31 30 33 30 30 27 27 28 27 25 26 26 29 26 19 23 
107 100 93 89 107 108 65 27 46 92 86 39 17 17 17 17 15 15 16 13 10 12 14 9 11 10 11 12 14 12 12 22 22 22 21 18 24 22 21 22 26 24 26 26 24 26 28 29 26 28 29 30 30 28 28 31 29 30 31 30 31 28 33 30 28 30 33 32 30 28 25 29 28 26 25 30 29 24 19 22 
104 107 108 101 102 91 54 29 52 96 81 35 19 14 16 15 16 14 14 15 13 12 14 11 8 9 14 12 12 14 13 20 22 21 20 20 23 23 24 22 24 22 25 28 27 29 26 26 31 28 29 28 30 31 30 32 29 29 29 31 32 32 34 33 33 30 33 33 29 31 28 27 28 25 25 32 28 27 19 22 
61 66 75 84 80 67 35 30 59 99 87 35 20 17 15 21 19 21 15 15 17 18 15 15 14 11 12 12 14 14 16 21 22 24 21 24 26 25 26 25 27 26 29 29 28 32 29 31 29 33 28 31 34 33 28 33 29 33 32 31 36 31 36 33 32 33 33 33 32 30 32 28 28 26 29 27 28 27 20 27 
29 30 30 30 35 30 26 30 61 107 86 37 21 20 18 19 20 17 15 17 13 15 14 14 16 12 17 15 15 17 15 24 25 28 23 23 25 25 26 25 26 26 25 28 31 29 29 29 29 32 30 31 32 32 31 32 32 32 30 31 32 32 34 36 34 32 33 33 33 32 33 33 28 24 30 29 29 31 20 22 
46 43 33 29 24 28 27 34 75 115 85 33 19 20 20 15 18 18 19 17 12 17 17 15 15 14 13 13 14 15 14 24 26 24 26 24 26 25 27 28 28 28 29 28 27 26 28 30 28 30 31 32 30 34 31 32 28 35 32 30 30 32 32 33 31 33 33 32 33 34 34 32 29 26 26 28 25 23 19 24 
110 107 95 86 73 67 64 59 92 116 88 35 21 18 19 17 19 18 19 15 13 13 17 15 15 13 13 15 11 16 14 25 23 24 24 23 28 27 26 27 24 27 27 28 26 29 28 28 29 30 30 26 30 29 33 32 27 30 31 29 29 34 34 32 32 30 34 32 33 32 32 33 29 30 31 32 28 31 23 24 
105 115 109 105 102 101 97 95 104 104 77 28 20 19 19 23 19 18 18 17 16 17 15 13 17 16 19 14 16 17 16 22 25 26 27 25 27 25 28 27 27 28 30 30 28 29 28 32 29 29 30 32 32 32 32 31 29 31 31 29 31 31 32 31 30 33 33 34 32 34 35 32 34 29 31 34 30 30 21 26 
62 72 78 82 86 94 94 95 97 88 59 21 19 18 18 21 20 20 20 17 17 18 18 17 19 13 17 17 15 15 18 24 23 26 25 28 28 29 31 28 31 30 29 31 30 28 29 29 29 32 31 32 31 31 32 32 32 30 30 32 30 31 30 34 33 35 32 34 33 32 36 36 35 29 35 32 29 33 25 23 
28 33 31 29 31 38 42 42 51 43 26 21 19 20 21 20 20 20 19 17 16 21 17 20 16 18 17 19 16 14 18 23 25 28 25 27 24 30 27 27 25 28 30 27 26 30 28 29 30 28 29 29 28 30 30 32 34 30 33 32 33 34 34 33 32 31 35 33 34 34 37 33 34 32 29 31 30 30 24 25 
24 27 22 24 24 22 25 26 30 23 23 22 21 21 22 24 19 21 20 18 18 21 20 19 19 19 17 15 20 19 18 26 29 27 26 26 26 32 29 27 29 31 28 29 32 31 29 32 33 33 30 32 33 34 33 33 32 31 33 32 34 34 35 35 33 33 36 34 32 34 36 35 36 36 31 30 30 34 23 27 
22 25 22 20 25 20 24 25 25 22 22 21 19 20 24 23 23 21 22 17 18 21 19 20 21 20 19 19 19 18 18 22 27 28 26 27 24 28 29 28 30 27 30 28 28 30 29 29 33 30 32 33 32 29 32 33 31 32 31 33 33 32 35 33 33 35 36 35 32 34 34 33 35 35 33 33 32 36 27 31 
21 26 23 23 21 20 26 24 25 27 24 20 20 21 22 24 23 23 21 19 20 20 22 22 21 19 21 17 21 20 18 28 29 27 25 26 28 29 29 29 31 31 30 31 30 31 29 30 31 34 32 29 30 34 34 32 33 29 32 32 36 37 37 36 34 32 36 39 32 35 35 40 34 35 38 36 35 38 27 33 
21 28 22 18 21 21 21 26 25 24 26 23 25 22 25 24 22 24 24 24 20 23 21 22 22 23 22 22 22 18 20 24 23 26 28 29 30 24 26 29 30 31 28 32 31 31 27 29 34 34 31 32 36 37 31 31 36 34 33 32 35 35 37 34 37 35 37 36 34 38 32 36 35 35 37 36 33 33 30 31 
19 28 25 20 19 23 25 22 26 21 22 23 25 23 23 26 26 24 20 22 20 23 25 24 23 22 21 21 24 22 20 26 27 29 29 29 28 27 26 28 26 29 28 29 34 28 29 29 32 33 30 32 31 33 33 34 31 30 32 34 36 34 34 33 38 35 36 36 33 37 32 35 37 35 41 37 33 36 34 37 
23 28 27 21 24 22 26 24 28 28 27 22 24 22 24 26 27 25 23 25 19 22 23 23 22 23 27 23 24 25 18 28 28 31 27 29 30 29 28 30 30 29 30 29 32 33 32 34 33 34 34 34 32 34 34 34 33 32 35 35 35 33 34 37 36 31 34 38 34 37 37 35 35 36 38 37 37 36 33 37 
21 26 27 21 23 29 25 21 28 22 24 26 26 25 26 24 27 27 27 24 23 25 23 23 24 23 26 23 27 22 19 25 31 33 26 30 29 31 28 29 29 30 31 30 32 31 32 35 35 34 30 34 31 35 31 32 35 34 31 33 33 33 34 34 36 34 37 38 33 36 36 34 34 36 40 38 36 36 38 44 
21 23 23 21 22 29 23 23 35 25 23 20 22 24 28 27 26 28 28 26 23 26 25 25 21 27 26 25 28 22 23 24 28 33 31 28 32 28 29 31 30 34 27 29 32 31 32 35 35 32 32 33 32 35 31 34 35 32 33 31 32 33 34 35 36 38 35 35 36 36 35 38 34 33 37 35 40 45 41 50 
25 25 24 25 24 21 26 24 31 23 23 25 24 20 27 27 28 26 30 22 27 26 26 27 26 26 27 28 27 25 26 27 31 32 27 29 30 32 29 29 31 29 30 31 33 30 32 32 33 33 31 31 32 32 33 33 32 32 33 34 33 34 36 33 35 33 38 35 35 35 36 38 35 34 34 40 51 54 44 47 
24 30 27 22 25 25 23 25 29 23 24 25 24 24 25 32 31 26 29 24 29 25 32 28 29 28 29 27 29 26 28 27 31 31 31 26 30 30 31 28 31 32 32 32 32 31 32 32 32 32 34 30 32 37 30 32 32 34 31 33 35 33 34 35 37 36 37 35 37 34 37 37 38 36 36 39 39 42 39 40 
23 26 22 24 23 25 27 24 29 24 26 24 24 25 28 27 30 30 29 29 27 30 27 29 29 29 29 29 28 28 22 25 30 30 29 29 33 30 32 31 32 29 32 33 33 35 34 31 33 31 31 34 31 33 32 32 32 31 34 32 30 33 32 35 37 35 37 35 37 39 37 38 36 37 36 38 41 38 37 36 
22 28 25 22 26 29 26 25 29 25 24 23 26 27 28 29 29 27 29 29 27 28 31 29 33 29 30 30 27 28 23 26 32 33 30 31 34 31 33 30 31 29 32 34 28 33 33 30 32 30 34 33 31 33 30 31 30 32 32 32 30 32 35 36 38 34 37 35 37 35 37 39 41 39 39 40 40 37 34 43 
22 22 23 25 25 24 28 32 30 27 28 26 26 27 28 29 30 33 30 29 29 30 31 32 27 31 31 31 32 27 29 26 32 35 33 32 32 33 34 30 35 33 30 31 30 30 33 30 33 34 31 32 31 30 32 30 30 31 34 32 32 33 34 36 34 36 36 38 37 39 39 45 46 47 57 60 73 84 93 109 
22 28 24 24 28 25 30 31 31 27 24 27 29 29 29 33 33 34 33 32 34 32 34 32 35 32 31 30 26 30 27 26 30 31 31 31 33 32 31 31 31 31 30 30 33 32 32 29 31 32 32 29 28 33 29 31 31 32 34 34 33 35 37 35 35 34 39 40 39 47 70 85 91 104 119 127 138 149 165 194 
19 25 25 23 27 28 33 29 30 28 28 28 32 30 33 31 31 34 34 36 33 37 35 33 37 34 33 30 29 31 28 24 31 33 32 35 31 36 30 35 33 32 28 31 34 30 34 32 33 33 31 32 29 28 29 29 29 37 32 31 34 34 38 34 38 36 39 41 41 68 107 128 134 137 149 159 170 186 197 230 
23 29 25 26 27 27 33 31 29 25 28 29 31 30 35 35 33 35 39 38 35 37 35 36 37 33 31 30 28 29 27 24 31 31 30 35 35 34 33 31 34 35 32 33 35 32 32 32 32 31 31 33 31 34 27 29 34 35 33 35 35 35 38 35 35 36 41 42 43 79 118 151 159 164 176 187 200 218 230 255 
26 26 25 22 28 28 33 29 27 31 31 30 34 32 30 33 35 35 36 35 36 36 37 36 38 38 38 41 38 35 36 32 29 32 35 36 35 34 33 34 34 33 31 32 34 30 33 33 31 29 35 31 29 32 30 30 30 33 34 31 35 34 35 35 35 35 38 43 41 74 119 155 167 177 184 196 209 227 243 254 
25 26 27 30 25 29 34 31 34 30 30 29 32 33 32 37 35 37 38 37 38 36 38 38 40 42 45 46 40 42 42 35 34 33 35 38 34 34 38 33 34 31 32 35 34 30 33 32 29 33 34 34 31 32 31 32 31 34 33 30 36 38 36 38 35 36 40 42 43 70 117 155 168 176 186 197 213 224 240 261 
25 29 26 27 28 27 32 30 32 31 32 30 31 35 32 36 38 37 39 36 37 41 39 40 37 42 47 44 44 40 39 34 33 34 36 36 34 36 33 36 36 37 35 35 34 34 32 33 29 35 32 31 33 30 34 31 30 33 33 35 34 37 37 39 35 33 41 41 41 65 112 149 165 175 185 191 205 223 237 258 
25 31 28 29 29 31 31 27 36 36 32 33 31 39 34 35 37 37 38 38 40 40 41 40 41 43 44 47 40 44 41 36 35 34 36 39 36 37 37 35 33 36 34 35 32 33 29 36 33 34 33 34 33 31 33 30 33 34 34 33 35 35 38 35 39 38 36 41 41 63 113 147 159 172 176 192 203 222 238 257 
29 34 31 30 30 31 33 31 38 35 34 34 35 34 36 39 39 39 44 37 42 43 41 42 45 43 47 44 45 44 42 38 32 35 38 37 34 39 35 37 36 38 35 37 35 35 33 32 35 36 33 34 35 32 38 34 36 35 37 32 35 37 38 37 36 39 40 41 43 58 108 140 159 167 176 191 200 221 234 251 
32 36 30 29 30 33 35 38 34 35 34 35 34 36 38 41 39 42 42 42 46 47 45 43 46 46 50 46 46 43 45 41 35 36 39 37 38 38 34 41 37 37 34 34 36 35 35 34 35 36 36 38 37 37 40 43 40 42 38 38 37 34 36 39 38 39 40 41 42 58 104 138 159 168 176 188 201 215 227 246 
33 35 32 34 35 36 38 34 37 39 41 38 40 36 39 41 45 45 46 44 47 49 49 48 48 48 55 50 49 46 45 39 36 36 41 44 41 39 39 40 34 39 38 40 36 36 40 37 36 37 36 37 38 40 46 49 45 44 40 36 38 37 38 38 39 39 41 40 41 55 98 136 151 168 171 185 183 190 214 244 
39 41 38 35 39 40 42 38 41 43 42 42 45 45 44 43 45 47 47 48 51 53 52 52 52 54 52 54 51 51 49 47 41 40 40 46 42 43 41 41 39 41 39 36 38 40 38 35 38 40 40 42 42 45 51 69 78 65 51 39 40 39 42 41 41 41 42 44 41 54 98 135 152 164 174 177 175 167 209 257 
43 42 41 41 41 38 45 41 43 41 45 39 43 43 47 50 51 50 52 50 56 57 58 56 57 60 62 63 57 56 52 50 42 44 47 49 44 48 42 42 44 43 44 42 41 40 39 40 39 40 41 41 46 47 83 196 172 103 67 48 44 44 43 41 42 42 46 43 45 56 95 132 157 165 173 183 183 199 227 250 
45 47 44 45 43 45 45 43 48 44 50 46 44 47 49 48 55 55 57 53 59 62 66 62 63 62 61 61 58 56 56 48 44 47 45 50 49 45 44 42 44 45 43 41 41 43 41 44 41 42 40 43 46 51 98 244 184 108 63 48 40 43 41 39 41 42 44 47 48 56 94 132 154 165 176 180 194 207 228 244 
49 47 50 47 52 46 52 51 50 50 52 44 47 52 51 54 58 56 62 63 65 66 66 64 69 65 70 67 63 60 55 50 42 48 47 51 48 45 41 41 42 44 43 41 44 42 41 43 42 41 43 42 44 48 63 97 94 75 54 47 42 42 41 40 40 44 42 47 45 51 89 125 151 166 171 185 196 212 225 240 
58 60 57 56 55 54 58 57 54 54 54 52 58 57 56 60 59 61 62 66 68 74 72 78 77 75 79 75 67 62 56 52 47 49 52 52 51 42 40 46 44 47 44 45 45 49 44 46 45 45 45 48 46 45 51 56 60 59 49 47 45 46 45 44 42 43 47 44 46 52 85 128 153 168 177 186 198 213 223 242 
76 74 67 59 57 57 62 57 57 53 53 53 58 62 60 63 59 66 67 70 77 75 79 79 80 84 81 79 68 67 59 54 47 52 51 56 52 50 58 72 49 50 49 49 47 53 46 46 44 46 46 45 44 44 49 52 52 53 48 44 45 41 45 45 41 43 44 42 44 51 76 134 154 172 178 188 199 215 223 240 


