P2
80 60
310
31 28 37 51 91 105 68 43 77 93 75 44 37 35 35 29 27 29 26 24 23 23 23 22 25 24 26 26 32 31 31 29 28 27 23 24 26 24 23 25 20 22 23 25 26 26 25 17 15 13 14 17 15 13 15 16 19 17 17 21 20 21 24 23 20 22 24 23 22 24 25 24 20 20 23 20 22 22 16 22 
28 30 44 58 99 105 64 40 78 95 67 41 38 34 34 32 25 26 24 26 23 27 26 23 26 27 30 29 30 30 28 26 27 25 24 24 26 24 25 24 21 23 24 22 24 23 25 21 17 18 15 17 19 16 18 20 20 19 22 24 23 22 25 28 21 22 22 24 22 22 22 25 22 23 22 19 22 24 21 19 
27 28 45 61 96 99 53 40 84 93 65 39 37 29 27 28 27 27 23 25 25 22 20 25 26 28 29 28 32 31 26 26 25 21 26 23 28 21 22 20 20 24 23 23 22 27 28 23 21 23 20 22 21 24 21 28 25 31 27 27 27 27 28 24 23 18 18 20 22 23 23 24 24 21 20 18 22 23 22 17 
25 30 41 64 100 97 53 45 91 90 61 35 34 29 29 26 26 24 25 23 25 25 28 29 32 25 30 28 31 33 28 25 26 23 21 20 23 19 25 26 23 24 25 23 26 27 25 26 25 26 27 26 25 24 26 28 26 28 28 31 23 26 24 24 20 18 19 21 26 26 27 24 23 19 22 22 20 22 19 21 
27 31 44 73 108 93 53 48 92 91 56 33 33 28 27 26 24 24 24 22 24 27 28 27 27 26 25 30 32 30 29 26 30 22 22 20 23 22 20 24 23 23 22 23 23 24 25 26 27 27 23 28 25 27 24 29 23 25 25 25 23 22 23 20 22 23 18 23 23 23 25 27 22 20 23 25 21 20 20 23 
26 35 47 82 103 89 49 48 96 87 51 30 27 31 23 24 25 22 23 25 28 29 26 24 27 28 26 25 28 30 28 27 25 24 24 23 22 22 22 21 20 26 24 25 24 24 24 24 26 24 24 27 23 24 26 24 25 21 21 23 22 22 26 22 25 23 20 20 27 24 26 27 24 23 21 21 20 20 18 20 
30 35 46 79 103 85 49 46 99 84 46 29 28 24 25 25 22 20 22 23 24 26 27 24 24 23 28 27 34 29 28 25 24 25 23 24 24 21 24 19 19 23 20 21 21 23 21 23 24 24 23 23 21 26 21 25 25 22 24 22 26 26 22 25 25 24 18 20 24 24 27 29 25 24 24 21 18 23 19 20 
22 32 41 78 99 80 41 45 96 78 40 26 21 24 21 19 22 24 24 22 20 20 19 19 23 23 19 24 26 30 22 23 23 24 20 22 20 20 20 22 20 23 19 19 22 20 18 18 18 25 20 20 20 21 24 21 23 20 22 23 23 26 25 23 23 18 16 18 22 24 24 22 22 20 18 17 16 20 19 26 
16 24 35 82 104 83 37 51 101 79 38 22 21 23 21 23 24 22 22 20 22 22 22 20 23 22 24 25 26 28 25 25 24 26 22 20 22 25 22 23 21 21 22 23 23 23 22 21 20 20 20 19 23 19 21 24 26 25 26 24 27 28 28 26 23 23 20 19 24 24 27 26 22 21 21 20 18 23 21 20 
4 0 17 83 102 73 31 48 107 85 34 17 16 16 18 17 18 22 17 23 17 21 20 23 21 22 22 22 24 28 27 22 22 23 23 22 21 22 23 21 23 21 24 22 22 23 20 25 20 19 15 18 22 18 24 27 29 27 26 30 26 27 26 25 26 22 21 17 25 23 27 24 25 18 21 18 19 22 19 18 
13 5 22 85 104 69 29 51 116 90 22 10 11 11 12 13 15 16 15 18 18 18 18 19 16 21 23 22 22 24 27 21 24 23 20 19 22 21 20 20 20 21 21 23 24 19 20 19 20 23 22 22 26 22 22 25 26 25 24 24 27 25 26 25 22 26 17 13 23 23 25 25 27 25 21 19 18 25 19 21 
21 21 31 94 112 69 29 55 115 84 21 9 9 8 7 9 7 6 10 11 12 15 17 19 22 17 20 22 25 23 21 22 23 22 20 21 22 22 22 25 22 22 23 23 21 21 20 21 22 25 25 26 27 25 26 28 27 27 32 27 25 31 26 28 24 22 20 16 21 25 26 26 26 23 23 20 19 26 22 23 
20 20 28 93 111 73 34 61 114 83 20 8 9 6 6 6 6 6 6 4 1 6 5 8 9 11 11 11 14 13 17 20 19 18 19 21 20 20 20 17 18 21 19 20 21 21 23 22 22 23 23 26 26 26 26 27 28 26 26 28 25 27 24 24 26 25 22 19 22 24 27 25 26 20 22 22 21 25 23 20 
20 16 32 97 98 65 32 69 114 79 19 10 9 10 11 11 7 2 7 3 3 6 7 5 4 2 1 5 6 8 3 6 10 11 17 20 19 19 22 19 23 20 24 21 23 24 24 24 24 25 26 27 26 25 25 30 28 25 29 28 25 27 27 25 25 27 23 19 19 27 25 28 25 22 23 24 21 22 19 19 
17 18 40 96 92 57 32 73 111 71 21 13 14 14 15 9 7 8 7 6 9 6 8 8 7 7 7 10 9 7 7 2 2 11 19 22 20 20 20 20 20 22 27 24 25 25 24 26 27 24 28 28 24 28 27 27 31 25 27 28 28 28 30 26 25 26 25 20 20 25 28 30 25 25 21 26 22 22 20 22 
21 16 40 98 90 48 27 74 105 70 19 10 11 11 14 9 7 7 8 5 5 8 3 9 4 3 6 6 7 10 9 3 15 18 22 22 19 17 18 18 21 21 23 23 24 21 25 26 24 24 23 26 23 27 27 27 25 26 25 26 31 25 26 25 24 28 25 18 21 25 28 27 25 24 22 24 20 18 18 18 
19 19 46 100 86 48 30 74 102 62 17 19 14 8 10 8 8 11 8 10 10 11 8 8 9 6 8 8 7 13 18 19 21 20 21 21 21 20 21 23 23 25 24 23 25 23 23 25 27 24 24 28 24 28 29 28 26 30 27 26 25 26 26 24 27 27 24 18 19 25 29 28 25 24 22 24 22 25 21 20 
21 18 47 102 90 45 28 76 102 62 17 16 17 17 11 12 8 11 8 13 11 10 10 9 9 7 10 11 14 22 25 24 25 22 23 21 22 23 22 20 20 23 22 24 26 24 26 23 29 27 28 26 27 28 26 29 28 26 30 30 29 27 29 29 26 28 28 20 20 24 29 26 26 23 21 24 26 28 22 27 
20 16 50 101 85 44 30 77 99 59 15 14 12 12 12 12 11 12 8 9 12 11 13 10 8 7 9 11 18 20 22 23 23 17 18 20 18 24 19 17 19 22 22 21 26 24 21 24 24 24 26 25 26 24 26 26 27 27 26 27 26 24 26 27 25 27 26 21 16 22 28 24 25 23 23 24 22 27 23 26 
20 17 54 101 84 45 29 84 101 58 17 13 17 14 13 15 15 11 13 10 12 11 12 11 10 8 9 9 15 24 25 21 23 21 19 19 22 21 20 22 23 25 24 25 23 23 25 27 26 24 27 26 25 25 32 29 28 28 25 27 27 29 28 29 29 29 29 25 17 18 27 29 28 23 23 25 23 27 24 23 
23 24 61 107 86 43 32 88 104 55 17 15 18 14 17 14 14 14 14 11 9 13 12 13 9 13 13 13 16 20 26 20 26 20 21 19 20 23 22 23 21 21 21 24 26 26 25 27 25 25 27 26 28 24 28 29 28 28 26 29 28 31 27 30 28 32 28 29 23 22 27 29 30 25 27 25 24 26 25 27 
30 27 75 115 87 41 36 90 101 52 16 17 16 16 13 11 13 13 13 16 11 16 12 14 8 9 13 14 14 15 23 21 19 19 21 23 20 22 22 19 21 22 23 22 23 23 24 23 26 28 28 28 27 25 27 27 27 28 27 26 29 31 30 30 27 26 27 27 22 21 22 29 25 26 26 21 24 27 24 25 
81 76 106 123 83 36 40 92 98 50 15 18 16 13 13 14 11 15 14 17 13 15 13 10 12 12 14 10 12 17 21 21 22 20 22 20 20 22 19 19 21 20 21 23 24 22 24 24 24 26 26 23 27 28 28 25 28 25 27 25 28 28 29 33 23 27 26 26 26 20 21 22 28 25 24 23 24 27 27 24 
112 107 111 101 70 35 41 93 98 52 16 19 16 14 15 13 14 14 16 15 12 17 15 13 11 10 12 15 13 17 26 21 21 21 20 16 22 25 19 23 22 22 22 22 24 26 24 24 25 29 25 30 26 26 28 29 27 28 28 26 28 28 28 30 27 30 28 27 28 30 22 21 26 24 23 27 24 29 25 28 
101 97 96 87 48 31 45 97 100 51 20 19 20 15 17 18 16 17 12 15 15 15 18 13 16 14 16 14 18 20 21 23 20 22 20 21 21 23 23 24 25 22 26 24 24 27 28 26 29 31 26 29 28 27 27 29 26 32 26 28 29 30 31 31 27 30 31 32 32 27 25 16 21 23 24 27 29 28 26 22 
41 44 48 43 24 30 47 102 100 50 19 19 21 16 16 19 16 19 15 13 15 18 18 17 14 11 14 13 16 17 25 23 23 24 23 23 27 23 26 27 25 25 28 26 26 25 25 26 28 28 28 28 29 29 25 26 28 29 27 29 29 29 31 34 31 33 31 38 31 30 33 27 19 19 18 20 22 26 23 26 
34 26 29 25 23 28 52 110 105 49 18 22 20 17 19 19 14 14 14 15 15 17 17 17 17 12 15 15 15 15 25 24 25 25 22 24 24 23 26 23 26 25 25 26 25 25 23 25 27 28 29 26 27 29 31 28 28 29 27 29 26 28 28 27 27 30 28 30 30 30 32 27 25 24 21 23 22 23 24 25 
78 67 62 52 48 51 70 119 103 48 19 19 20 19 18 17 17 16 16 16 16 17 18 19 16 14 16 16 15 16 24 24 25 23 23 27 25 25 26 26 27 25 28 23 26 27 26 25 26 28 28 26 25 28 28 30 26 29 29 29 28 28 29 31 32 32 31 31 30 31 31 30 28 26 29 29 31 28 24 22 
117 112 109 102 97 101 112 110 95 44 16 19 19 18 17 20 14 17 15 19 15 20 17 16 17 17 16 16 19 17 26 26 23 23 24 26 25 26 29 23 28 28 28 27 23 26 26 25 26 30 27 26 28 26 27 29 24 27 30 28 26 32 29 30 29 35 31 31 29 31 32 29 26 29 28 29 27 28 24 25 
101 98 99 98 92 97 96 95 80 30 16 18 18 17 18 17 17 20 18 18 16 15 18 14 14 18 19 16 17 18 24 25 24 24 25 24 27 25 26 26 29 25 24 25 27 30 23 26 26 27 28 28 28 28 30 28 30 29 30 30 30 30 29 32 27 33 31 32 35 30 33 28 29 25 30 29 29 28 26 25 
41 43 48 50 51 58 61 58 44 22 17 19 17 18 20 19 18 20 22 17 20 18 20 19 19 17 22 19 20 17 24 27 26 24 25 26 28 26 25 27 27 25 25 27 27 25 26 26 27 27 27 28 26 26 30 29 28 31 26 31 29 28 30 28 28 33 30 30 34 30 30 30 26 29 27 27 29 29 28 28 
27 24 29 24 26 29 29 24 29 17 18 22 22 21 22 21 20 22 23 17 20 21 21 21 19 20 20 19 17 17 24 27 25 27 24 28 27 28 27 29 27 26 27 25 28 26 25 28 29 28 32 28 29 29 30 30 27 30 32 30 27 30 33 31 31 33 30 34 29 31 33 33 34 29 24 28 30 31 30 28 
25 22 23 27 22 24 25 22 23 20 19 22 22 21 23 21 21 18 20 19 22 25 27 21 18 20 23 21 22 16 26 27 27 24 25 26 29 26 28 29 28 26 28 26 28 25 26 24 28 30 29 29 30 27 31 30 28 30 28 31 32 32 34 33 31 32 34 33 34 33 32 30 34 32 29 27 29 32 29 31 
25 24 26 24 20 26 24 24 25 23 19 25 25 24 24 22 20 23 22 21 23 23 22 22 24 23 24 20 19 19 25 28 28 27 27 26 28 27 29 28 27 29 29 28 29 26 27 30 30 30 29 30 33 29 30 30 31 31 28 32 31 34 33 33 30 32 31 34 33 34 34 35 32 33 29 26 29 33 32 30 
25 24 23 24 19 24 22 22 24 21 21 21 23 24 21 24 22 23 23 22 21 24 23 24 21 21 25 22 23 21 26 25 27 26 26 25 27 24 27 27 26 26 27 27 28 28 29 29 26 28 28 31 32 28 30 29 26 27 26 31 30 34 30 28 31 30 33 32 32 34 30 31 35 31 30 27 28 33 32 32 
29 24 24 20 20 27 22 23 26 17 21 22 22 24 22 24 24 23 23 22 23 26 25 27 21 25 24 23 22 23 25 27 29 28 26 27 27 28 29 31 25 27 26 29 29 29 31 29 29 29 27 28 29 28 30 29 31 29 28 32 29 33 34 29 31 30 33 34 34 33 34 36 36 31 27 29 29 34 33 34 
29 23 25 23 21 27 23 25 28 20 21 21 25 23 24 24 22 24 23 23 26 26 30 24 25 24 25 26 22 22 27 29 29 29 26 27 26 27 30 30 25 29 27 29 29 30 31 28 28 32 29 31 29 30 32 29 30 29 30 32 29 31 34 32 31 33 31 32 33 31 33 35 35 27 30 33 32 34 36 40 
31 30 26 26 20 29 27 27 28 17 21 25 26 21 25 23 26 22 23 24 24 24 27 28 25 25 28 29 25 23 26 31 30 27 29 27 28 26 28 26 28 26 28 29 27 28 29 29 30 32 30 29 30 30 29 31 29 29 30 29 30 33 32 29 35 33 35 34 35 31 38 35 34 28 30 26 31 32 37 43 
29 29 26 26 22 27 26 27 32 22 21 25 28 24 26 26 24 25 27 24 26 30 29 28 27 29 29 30 25 25 29 31 28 28 32 25 29 30 28 29 29 29 26 29 32 32 32 30 30 31 34 32 31 30 30 30 33 29 28 33 28 30 31 32 33 34 35 34 35 34 36 34 36 33 33 31 34 35 46 55 
27 28 27 23 19 31 27 28 27 23 23 25 30 22 25 25 26 23 27 26 27 27 25 28 26 27 28 30 26 25 26 32 30 28 29 29 31 29 30 29 27 31 29 28 29 30 28 29 31 30 30 30 29 29 31 28 30 28 28 30 29 32 30 29 30 34 35 30 33 37 37 34 34 31 35 34 46 60 93 131 
30 27 30 28 26 31 27 29 29 22 21 23 25 28 28 26 30 29 32 29 28 31 31 33 32 30 30 29 29 28 28 33 32 33 35 28 33 29 31 33 30 31 29 28 31 33 32 32 30 31 30 33 30 30 31 31 31 30 33 29 31 31 34 32 32 37 35 37 32 37 36 37 36 36 46 53 59 84 176 226 
32 25 27 32 25 29 27 28 27 21 25 28 28 29 30 27 28 29 35 29 29 35 32 33 34 30 30 32 34 28 29 35 36 31 34 28 29 31 33 32 31 31 34 28 31 30 31 31 31 29 29 28 32 35 32 31 32 30 31 30 29 33 32 32 34 36 38 34 35 37 39 39 39 46 53 61 94 172 250 265 
29 22 30 28 28 29 27 25 31 21 22 26 25 27 27 32 31 29 32 31 31 28 34 33 34 31 31 33 32 26 26 33 33 35 33 30 33 32 29 32 30 28 28 30 32 32 29 28 30 31 30 31 33 32 28 26 31 30 32 30 32 31 35 33 30 36 36 34 36 35 37 39 44 72 119 179 231 273 281 277 
30 24 30 30 29 31 38 33 30 21 21 25 25 28 27 36 30 33 31 34 36 36 40 35 35 33 32 33 32 29 26 32 32 31 30 32 32 32 33 33 28 29 32 30 30 28 28 28 29 31 31 30 29 27 30 30 28 30 30 29 29 32 33 32 33 36 38 33 39 36 40 46 71 187 253 278 294 295 281 259 
28 23 28 26 29 31 31 29 33 21 24 26 28 30 32 31 33 32 37 38 37 35 38 38 36 33 29 32 33 30 25 30 31 33 35 33 35 33 32 31 29 31 31 28 30 31 29 31 31 29 28 33 30 28 28 31 31 27 30 30 30 33 32 34 33 40 38 36 40 37 55 76 145 258 298 308 301 240 192 229 
27 30 31 30 29 33 31 30 29 24 22 29 31 31 32 34 34 34 38 38 41 40 38 36 34 32 33 31 32 31 23 30 33 36 37 34 34 33 34 33 33 32 28 34 31 29 30 30 29 31 32 34 27 31 30 26 27 31 31 32 33 34 33 34 36 37 41 40 45 66 116 171 238 294 310 307 296 224 203 235 
31 30 29 32 28 33 33 29 31 27 26 31 31 34 35 33 35 39 39 38 40 37 43 40 39 39 36 35 35 36 31 30 35 38 35 33 34 34 35 34 35 34 29 29 32 31 30 31 34 31 31 33 31 30 30 33 31 31 32 31 32 34 35 32 39 39 38 42 57 99 146 220 251 266 261 246 225 188 191 204 
32 29 33 30 30 33 36 29 33 28 25 31 33 32 34 35 34 37 37 41 38 42 43 41 43 46 43 45 41 42 35 29 32 35 35 35 34 33 35 35 39 35 29 35 34 31 30 30 31 33 31 30 33 33 29 34 32 31 33 34 34 34 34 34 36 40 39 49 73 108 129 151 156 169 171 165 174 180 193 221 
28 27 30 32 28 33 34 31 34 25 27 28 34 30 33 37 36 37 36 38 41 41 43 43 50 48 47 44 44 41 33 35 33 37 32 37 37 36 33 35 34 34 31 33 31 32 30 32 28 34 32 33 31 28 30 30 31 33 33 33 36 36 37 35 35 38 39 51 86 114 127 132 136 143 157 167 181 200 221 238 
29 26 31 31 29 31 34 32 36 27 31 30 35 37 35 37 36 35 41 39 42 44 42 43 42 46 45 46 43 44 35 32 36 39 36 36 37 37 36 35 34 34 36 36 33 31 31 27 30 34 31 34 31 27 31 30 33 30 35 33 33 33 34 35 34 40 42 51 86 117 139 145 153 161 170 182 194 215 232 248 
32 30 34 30 30 31 34 33 36 30 31 34 37 38 38 37 39 41 41 40 41 45 46 44 48 49 47 46 45 43 37 33 36 35 39 41 38 36 37 37 34 36 32 34 33 32 33 30 34 29 36 33 32 34 37 32 33 32 35 34 31 37 34 34 33 38 40 49 85 115 140 151 158 163 171 183 197 215 235 246 
35 30 36 33 30 33 35 33 37 30 29 31 36 35 35 39 41 40 42 45 45 49 50 45 48 48 46 48 46 43 38 36 37 38 40 38 37 35 40 41 34 36 36 34 33 31 34 31 32 34 34 34 32 36 41 42 37 34 33 35 35 37 34 38 38 41 40 45 73 112 138 151 155 165 170 183 197 213 232 244 
33 35 35 39 34 35 38 39 42 34 30 40 37 38 39 39 43 43 46 45 48 49 55 52 54 49 53 49 52 44 43 37 34 43 41 40 39 39 40 39 37 38 35 37 34 33 34 34 34 34 33 35 38 42 47 50 47 42 39 38 33 37 37 36 38 43 43 45 67 108 133 149 155 163 170 182 193 213 228 237 
38 33 36 39 34 36 41 34 39 36 31 37 43 39 39 42 43 42 46 51 50 52 52 53 54 54 56 49 49 49 43 37 39 40 40 39 42 38 41 37 37 38 36 36 34 32 34 34 34 38 35 38 40 43 61 84 72 51 39 40 38 40 40 40 38 40 41 41 64 102 129 143 154 159 164 179 193 210 229 243 
39 40 41 42 38 42 43 41 44 34 34 42 44 41 44 46 49 47 50 53 55 56 60 58 60 59 59 54 53 52 47 41 37 43 46 45 42 42 40 39 39 41 37 40 39 37 37 33 35 36 39 40 43 63 178 198 124 68 43 39 35 41 39 41 37 40 42 46 61 98 128 141 151 159 165 175 189 209 227 239 
43 45 44 42 41 48 45 43 45 42 38 45 48 47 46 49 51 54 52 55 60 64 65 63 65 61 65 56 57 56 48 42 41 46 48 48 47 41 44 43 44 42 41 41 40 41 39 37 39 41 45 46 45 70 203 207 123 68 47 43 41 43 38 40 40 45 42 44 57 97 123 148 149 156 157 170 183 199 227 238 
46 43 48 44 43 48 49 47 54 39 40 44 46 49 50 51 53 54 59 62 63 69 66 67 66 66 67 60 62 58 51 44 42 48 48 47 45 43 40 43 42 40 39 41 42 40 39 38 40 42 40 40 41 47 79 90 74 50 44 39 39 38 38 39 40 41 42 44 55 86 119 136 147 154 157 156 147 174 223 235 
52 46 47 48 43 53 51 53 57 49 45 49 50 55 55 58 55 59 62 67 69 70 73 73 76 76 75 68 66 60 55 44 42 49 49 48 45 38 40 42 42 44 42 46 44 44 41 40 40 44 44 43 40 42 49 55 51 47 41 42 40 44 42 39 42 43 46 42 51 86 114 137 144 152 155 151 149 188 219 230 
60 58 60 56 48 61 59 55 58 50 50 51 53 57 56 56 61 62 66 65 74 79 85 84 84 83 78 74 68 62 56 49 47 52 51 52 46 46 63 56 43 45 48 45 45 47 45 46 46 45 46 43 42 46 42 46 45 42 43 39 40 45 40 43 47 43 46 46 53 80 112 137 148 153 155 161 176 197 218 230 
79 72 71 67 62 64 62 61 61 54 55 60 57 59 59 65 63 68 75 77 79 85 81 81 90 89 89 76 68 64 58 54 48 54 53 55 54 67 121 85 54 54 52 52 48 49 47 45 45 46 45 44 41 44 45 45 43 46 43 42 44 39 45 43 46 45 46 50 53 77 109 135 147 151 159 169 180 196 218 222 


