P2
80 60
284
25 30 41 53 93 102 65 46 79 94 76 46 41 38 38 30 32 31 26 30 28 22 25 22 27 26 29 31 33 30 36 35 29 28 27 29 26 26 31 29 27 27 30 29 30 30 30 22 22 20 21 21 20 23 21 25 24 25 22 30 31 29 31 32 29 25 26 28 27 23 26 25 25 27 21 22 22 17 19 15 
25 31 41 57 97 96 56 41 82 97 72 46 42 34 36 35 31 30 27 32 26 25 24 23 29 29 31 28 31 30 31 30 31 27 27 26 28 28 28 25 27 27 31 28 30 30 30 27 21 23 21 24 27 23 26 27 30 25 31 29 31 30 32 34 32 24 27 25 25 29 28 26 25 25 22 23 23 21 22 19 
25 30 44 62 99 93 52 41 85 99 68 42 40 36 33 32 31 30 26 26 26 24 26 27 28 30 29 30 35 32 28 29 27 25 26 25 27 27 28 26 25 31 28 29 32 30 34 29 28 27 27 26 31 31 29 31 33 34 33 36 38 34 32 31 31 25 23 26 25 26 27 25 30 21 23 19 23 21 19 25 
27 30 41 72 100 92 49 47 90 90 64 40 32 32 34 33 34 32 26 30 28 25 31 31 33 27 32 30 33 34 30 30 29 27 24 26 23 26 29 27 27 27 33 26 34 30 31 32 28 32 33 32 32 32 34 34 32 33 31 34 29 31 32 30 27 24 25 25 32 30 28 26 26 24 23 21 25 20 20 26 
26 34 44 75 108 89 48 50 91 94 57 39 33 34 34 32 28 28 27 27 28 28 30 29 29 30 27 32 34 32 30 29 31 27 29 26 26 24 24 25 26 28 30 27 28 31 32 31 33 30 30 31 32 33 30 34 29 33 30 30 29 26 29 26 29 28 27 25 27 28 28 28 26 24 27 22 25 18 22 26 
26 35 49 85 104 85 46 53 92 94 55 32 33 32 30 30 29 29 24 29 31 30 26 23 26 31 27 27 33 34 30 28 29 29 27 25 23 27 28 26 24 28 29 29 30 32 29 29 31 28 32 32 29 32 31 32 30 30 26 26 26 27 31 27 34 26 24 27 28 28 28 29 28 27 23 26 23 16 18 23 
31 37 46 81 101 83 49 54 98 87 49 33 31 28 29 28 24 27 26 31 29 27 27 26 26 28 29 30 31 33 31 31 28 26 26 25 24 27 29 28 26 26 26 23 26 27 27 30 31 28 29 32 30 32 28 32 29 30 28 29 31 31 30 31 30 28 23 27 26 30 28 30 28 26 25 23 22 17 20 26 
21 33 45 85 99 77 41 51 94 83 44 28 24 25 26 25 26 25 27 27 23 22 23 22 24 23 25 25 28 28 25 30 28 24 22 24 23 27 23 25 23 29 25 24 27 25 24 25 25 29 26 26 28 26 29 28 28 29 28 30 30 31 31 31 31 25 23 25 26 31 28 25 29 25 24 19 23 19 19 25 
17 27 35 88 102 73 38 55 97 85 42 29 24 26 27 25 26 28 24 23 23 22 21 21 24 24 27 25 26 29 31 28 29 26 27 27 27 25 27 26 27 26 28 28 28 28 27 26 27 27 24 26 30 27 29 33 34 33 28 33 31 31 31 33 30 27 27 27 27 29 31 29 27 26 24 23 23 19 21 22 
0 1 17 92 101 67 31 52 107 86 36 24 20 24 25 22 25 25 23 24 22 24 23 23 23 24 24 27 27 30 31 27 25 26 27 25 24 26 27 25 27 28 30 30 25 29 29 30 29 23 25 25 30 27 31 33 35 33 33 33 32 32 33 29 32 27 29 26 26 30 31 30 30 24 27 23 22 21 19 27 
10 5 24 89 104 64 25 57 115 89 27 14 14 16 15 16 21 20 20 19 18 19 21 21 20 24 21 23 23 25 27 25 28 28 20 22 26 26 23 27 29 27 27 30 28 24 27 29 27 26 26 29 31 31 30 30 33 33 29 30 32 31 32 31 29 29 24 24 28 28 30 28 28 27 22 24 22 18 19 24 
21 22 30 99 109 67 29 63 115 86 28 16 10 14 10 13 15 12 15 15 14 17 20 17 22 20 23 24 23 24 27 26 24 26 22 28 26 26 25 28 26 24 27 28 26 24 25 27 29 31 31 30 34 32 34 35 34 34 35 34 32 34 31 36 31 30 26 25 26 30 33 29 28 26 26 22 23 22 19 27 
17 21 26 96 109 66 32 71 113 86 27 14 11 10 9 11 14 11 11 8 6 7 6 10 9 13 14 10 15 13 17 21 23 22 21 23 24 24 24 26 26 25 25 26 25 26 31 31 29 30 28 30 33 30 34 32 34 33 31 33 31 30 30 28 30 31 28 29 27 30 30 28 30 28 22 25 23 21 20 24 
18 18 35 102 97 59 31 78 114 80 23 14 12 12 13 16 15 10 12 10 9 9 9 10 8 9 7 8 8 10 6 9 14 12 17 24 23 22 22 26 25 27 28 26 28 30 29 29 29 29 32 30 34 33 34 34 33 31 33 35 31 33 32 33 34 29 29 26 28 29 29 31 31 25 30 27 26 20 22 26 
19 18 43 98 94 51 31 79 110 73 24 20 17 17 17 15 13 14 13 10 10 9 10 10 11 8 9 12 12 10 11 4 7 14 21 24 25 23 22 22 24 26 29 31 28 30 29 31 32 31 37 33 33 35 35 34 37 35 33 35 34 30 36 32 35 31 33 28 28 31 32 34 30 31 27 28 29 19 22 33 
19 18 46 99 89 44 28 79 105 69 24 14 14 15 16 12 13 12 11 11 8 8 7 9 10 8 9 8 11 10 8 11 19 21 24 27 24 21 19 24 25 27 25 28 28 28 29 30 29 29 30 30 30 34 32 31 33 34 32 31 34 31 30 31 29 29 28 26 26 32 32 32 30 28 25 27 25 16 19 23 
19 19 50 105 88 45 29 81 102 65 23 21 16 14 15 14 12 14 13 15 11 11 11 9 10 12 11 9 10 14 21 23 26 27 25 24 24 24 24 27 27 28 29 30 27 27 32 33 33 32 34 35 31 35 35 34 33 38 33 31 31 32 31 33 32 33 29 27 26 29 33 30 29 27 28 28 26 23 21 24 
19 20 52 106 92 42 29 82 102 63 22 17 19 20 17 16 14 16 14 15 15 12 12 13 13 11 11 14 18 23 25 28 26 25 26 25 24 24 27 27 29 28 28 29 30 28 33 31 30 32 34 32 33 35 32 33 35 35 33 34 33 33 34 34 31 30 32 26 26 30 31 28 30 27 26 28 30 22 23 24 
17 18 53 104 87 40 27 80 101 63 22 16 16 16 18 15 14 13 11 16 13 13 12 13 10 9 9 12 17 24 27 28 23 22 21 24 21 26 23 24 26 26 28 27 29 29 27 32 28 28 32 33 34 30 32 32 32 33 32 31 32 30 31 31 32 32 31 27 22 25 31 27 29 27 25 26 26 24 26 26 
22 21 59 103 89 40 32 87 102 61 22 20 20 16 18 18 20 17 16 15 13 14 12 11 13 13 13 11 19 25 27 22 27 24 21 24 25 25 26 26 28 27 29 29 28 28 30 32 31 30 33 35 35 34 34 34 35 35 32 34 33 32 34 35 37 31 32 30 22 26 31 29 29 30 26 25 28 25 26 28 
24 26 66 107 86 38 36 93 107 57 22 20 22 16 20 21 23 19 16 16 14 16 15 17 11 15 11 17 17 21 27 25 27 23 23 24 27 26 26 26 27 25 26 30 31 30 28 34 32 29 35 34 35 35 35 34 35 33 33 34 32 36 33 35 36 32 32 36 27 29 29 29 33 30 29 30 25 22 26 29 
29 30 80 117 88 36 37 94 108 58 23 20 19 18 18 15 22 18 15 17 15 16 14 14 13 11 14 14 16 18 25 26 24 23 22 23 24 24 27 25 25 26 29 27 28 30 31 30 31 32 31 32 35 36 34 34 34 35 33 33 33 35 36 32 35 32 32 32 25 28 27 30 30 31 29 26 25 26 30 27 
82 77 111 124 84 33 43 97 104 57 21 22 19 15 17 19 19 19 18 17 17 15 15 14 15 15 15 15 14 21 24 24 26 24 25 22 24 25 23 24 28 26 26 27 28 30 32 30 29 32 35 32 34 34 32 30 33 31 33 34 32 34 33 38 32 31 32 32 28 27 25 25 30 29 30 27 24 23 25 32 
107 109 113 102 71 30 43 97 100 56 24 25 21 20 19 19 20 18 20 19 15 18 19 16 12 16 15 14 15 20 28 24 24 24 25 21 28 30 25 27 27 25 28 29 29 30 30 31 32 32 35 35 36 32 33 33 33 36 34 31 33 33 33 34 34 33 31 35 31 33 24 27 29 27 26 30 26 24 24 26 
96 99 98 87 51 28 45 106 106 57 27 25 22 20 22 20 20 21 16 19 16 18 19 16 19 16 16 16 18 22 26 27 23 26 24 26 29 27 27 27 29 27 30 30 30 29 32 34 34 33 31 37 35 35 33 38 32 37 32 35 34 35 37 37 34 33 35 37 35 33 29 24 24 26 28 31 31 24 24 22 
45 48 50 43 27 25 50 108 106 53 27 26 24 20 23 23 23 22 19 21 16 21 19 19 16 18 17 12 20 19 27 26 29 27 25 24 30 28 29 31 31 30 32 30 31 30 30 33 32 35 36 35 38 36 31 36 37 36 34 35 37 33 37 41 36 37 38 38 35 33 36 31 26 25 23 27 25 27 24 25 
31 27 28 26 26 25 54 116 106 55 24 27 20 21 20 23 21 20 17 20 20 19 20 18 20 15 14 16 14 19 27 27 26 28 24 27 29 29 31 26 32 28 34 29 29 30 30 33 34 32 39 39 37 36 34 37 37 32 34 35 32 33 34 35 34 34 34 35 34 36 33 33 30 28 24 24 29 26 23 28 
78 70 62 57 46 45 71 127 104 51 25 26 23 24 24 20 21 21 20 22 19 20 21 20 17 20 16 15 17 19 25 29 26 28 27 27 27 29 30 29 32 31 32 29 30 30 30 30 32 32 38 33 34 37 36 37 32 36 32 33 32 36 34 38 36 35 36 35 33 36 34 31 32 30 31 31 31 24 21 28 
112 110 107 104 98 100 112 117 93 49 23 21 23 22 23 24 20 24 21 21 19 20 17 20 20 19 18 18 21 18 28 33 26 29 28 30 28 32 30 31 32 33 32 32 29 31 32 30 33 33 33 32 33 34 39 37 34 33 35 33 35 39 33 36 37 34 38 37 36 37 36 32 31 31 32 30 32 23 26 28 
96 100 98 100 95 96 102 102 79 34 23 24 22 22 25 25 24 25 20 23 19 20 20 18 18 20 18 16 20 17 24 28 28 27 28 29 29 30 30 32 33 29 31 30 30 32 30 34 34 31 33 34 32 35 37 35 35 36 37 33 32 36 36 39 36 32 35 36 36 37 36 31 31 31 31 30 29 22 23 30 
40 49 47 52 51 56 64 62 43 26 25 25 22 22 25 26 26 25 23 22 24 21 19 22 20 21 25 19 21 20 28 30 28 29 29 28 29 32 30 30 31 31 32 34 33 32 33 32 33 32 35 33 34 34 34 37 35 36 33 36 35 34 35 39 34 35 35 37 36 35 33 32 34 32 30 32 31 26 24 32 
23 26 26 27 23 24 30 27 28 20 23 26 25 28 25 25 28 24 25 24 23 24 22 25 22 20 21 23 17 20 26 32 28 31 29 30 29 33 33 33 33 31 32 33 31 30 32 34 32 33 35 34 35 34 33 36 34 32 34 35 34 37 39 37 37 37 36 37 36 36 35 36 37 31 30 32 34 28 29 33 
22 25 25 28 24 25 28 28 25 24 27 24 27 28 28 25 29 25 24 26 25 27 29 24 21 24 25 25 23 20 30 31 31 31 29 31 29 31 32 35 31 29 32 33 32 32 32 33 33 35 35 34 34 37 37 38 35 37 35 36 35 35 39 38 38 36 37 38 38 37 34 38 36 39 32 30 34 31 34 35 
25 25 25 28 23 22 27 28 26 27 26 29 31 29 30 29 29 29 26 28 26 26 25 26 27 25 24 22 24 20 30 30 31 32 30 32 31 32 34 31 33 32 35 34 33 33 34 35 36 36 36 36 36 37 39 37 36 38 36 36 36 38 38 41 37 38 38 39 39 39 39 37 38 38 35 33 34 31 33 32 
25 24 28 26 25 24 23 28 27 25 29 28 28 27 28 28 30 29 26 29 28 29 26 27 26 25 26 26 24 23 33 31 33 30 30 33 33 31 31 31 31 31 34 32 32 33 34 37 35 35 38 37 37 34 38 38 35 36 34 37 37 38 40 36 37 35 38 38 37 39 38 39 41 39 37 32 34 31 32 34 
27 27 28 24 21 23 24 26 26 21 25 27 28 27 28 28 31 29 27 28 29 28 27 28 26 26 28 29 24 24 30 33 31 33 30 35 30 32 32 32 31 33 33 34 35 34 36 33 35 33 35 38 36 36 36 36 39 38 36 36 37 35 39 35 37 35 38 40 38 39 39 39 41 36 35 34 35 33 34 40 
28 25 26 26 22 20 24 25 25 24 27 29 28 27 29 28 30 31 26 30 27 28 29 27 30 27 29 29 24 24 32 36 31 30 28 32 29 32 32 35 31 32 33 33 33 33 36 37 36 39 36 37 34 38 37 35 38 36 35 36 35 37 37 38 36 36 38 38 36 37 39 38 39 33 38 36 37 37 35 44 
23 30 27 26 19 22 24 28 26 22 29 30 28 29 28 29 30 27 28 30 27 29 26 29 30 27 28 31 25 23 30 33 35 31 31 32 30 30 30 30 33 30 36 35 32 33 33 36 35 36 36 33 36 36 36 38 36 37 34 34 34 37 36 37 39 36 37 40 40 37 41 38 38 36 40 35 37 36 39 51 
28 31 30 27 21 23 28 29 30 27 26 31 29 28 32 29 30 32 31 31 27 33 31 28 31 32 29 34 27 28 30 36 31 32 34 31 34 33 32 33 35 34 32 34 36 34 36 36 39 37 39 38 37 38 36 38 38 34 35 41 38 36 37 41 38 38 36 39 39 38 38 38 36 38 35 37 36 34 47 71 
26 26 28 24 19 26 27 30 24 26 28 29 32 30 29 33 34 30 33 33 30 30 28 32 30 30 30 30 31 27 32 33 32 32 32 33 32 33 34 30 34 33 36 32 34 34 34 36 37 35 39 37 37 38 37 34 37 36 34 34 37 34 36 35 36 40 42 38 37 40 39 40 39 39 39 39 52 58 92 131 
27 29 30 29 27 27 30 29 30 25 28 28 30 30 33 34 35 35 34 34 33 33 35 35 34 32 33 30 35 31 34 34 34 36 35 32 37 32 35 37 37 37 36 34 35 36 36 37 37 36 35 38 41 38 37 39 38 38 39 36 39 38 40 36 38 38 40 40 40 40 43 42 39 39 44 52 58 56 118 196 
27 28 26 33 28 26 32 33 28 28 28 30 31 34 33 37 35 36 35 35 35 36 35 35 35 36 32 32 36 31 30 35 38 34 36 32 35 35 36 38 38 33 38 34 34 36 37 35 39 34 39 35 39 39 38 39 38 40 35 37 36 39 40 37 41 40 40 40 39 40 44 43 39 42 44 47 52 58 136 238 
28 23 31 30 27 22 27 33 31 26 25 31 30 33 32 39 37 35 35 35 35 35 37 36 34 35 33 34 35 28 29 36 35 38 36 34 37 38 36 37 37 35 34 33 34 35 35 34 35 37 38 36 38 38 34 32 37 35 37 35 37 37 39 38 37 36 38 39 41 40 43 42 40 43 42 48 69 128 223 268 
32 27 28 30 25 26 37 32 28 25 28 31 30 33 34 38 33 38 35 39 38 37 40 38 39 38 30 36 37 32 31 37 35 33 31 35 36 35 36 36 36 36 36 33 35 35 35 34 37 38 37 37 35 33 34 36 36 36 36 38 33 36 39 41 37 38 37 41 42 38 46 50 55 54 58 83 167 234 265 282 
27 27 28 25 28 29 34 32 32 27 32 33 31 36 38 37 41 39 40 41 39 40 39 41 40 36 32 34 36 31 30 34 36 37 37 41 36 37 38 34 35 36 34 33 32 34 34 36 37 38 36 39 40 32 34 36 35 34 34 35 38 38 39 43 36 39 40 40 46 49 72 101 110 128 166 208 254 275 284 277 
29 31 33 34 26 28 27 31 30 27 32 34 33 38 40 38 43 40 43 42 42 42 41 41 38 35 34 34 32 31 27 34 37 40 40 38 37 35 38 39 38 35 35 37 38 36 38 40 35 40 40 38 36 39 36 36 36 40 36 39 38 36 40 40 40 40 44 46 49 78 136 195 222 238 249 255 272 256 241 238 
29 27 29 33 30 30 33 30 31 30 35 35 33 39 40 38 38 45 41 43 45 44 43 46 41 44 38 41 40 39 35 37 39 41 39 38 37 36 38 37 38 37 39 36 34 37 36 35 38 38 39 38 36 37 38 35 35 37 36 40 37 36 43 39 40 41 42 47 67 110 157 223 228 227 207 207 203 185 191 211 
28 32 30 33 29 33 36 30 31 31 32 36 36 36 37 39 41 41 38 47 43 44 43 42 44 52 47 47 46 45 40 31 35 38 39 40 37 36 36 41 41 38 39 38 37 38 39 37 36 38 40 35 37 39 35 39 38 38 37 41 41 35 38 42 41 40 44 55 94 112 131 147 152 157 155 159 170 173 194 228 
26 33 31 30 33 30 36 30 32 35 31 34 38 38 42 41 42 42 40 42 44 44 43 45 52 52 51 47 47 42 40 39 40 42 38 40 41 40 38 40 41 41 38 39 36 36 36 36 39 40 41 40 37 36 38 39 40 39 38 39 41 40 44 42 43 41 41 59 95 119 132 138 139 150 158 172 191 198 225 246 
26 31 31 29 30 26 34 32 33 33 35 35 39 41 38 41 43 40 45 41 44 44 44 46 47 49 49 47 48 45 39 36 40 42 41 41 41 42 40 39 41 40 39 40 37 36 36 36 37 37 37 37 39 37 39 37 38 38 40 40 39 37 41 42 42 42 44 60 96 122 144 151 158 166 173 186 199 210 234 252 
27 33 35 31 29 29 37 34 37 33 35 38 41 43 42 39 46 45 49 45 44 46 48 46 51 51 49 50 49 44 42 38 38 41 40 44 41 42 39 41 40 41 39 40 37 35 38 36 38 37 40 41 36 41 44 39 40 39 38 41 39 42 42 42 44 44 44 53 88 119 144 156 162 166 175 189 201 213 234 252 
33 31 36 32 31 30 35 34 38 34 36 37 37 40 40 41 44 45 44 49 49 53 51 47 52 54 51 50 47 43 42 37 39 40 43 42 44 40 42 42 39 37 41 40 39 40 37 38 40 41 38 39 41 48 50 46 45 42 39 42 40 39 43 42 42 43 44 51 78 115 139 153 158 165 171 189 202 211 229 254 
33 40 37 41 33 35 38 39 40 41 38 42 42 41 47 44 51 48 49 51 50 51 54 51 55 54 57 53 53 50 47 40 37 44 45 44 46 45 43 44 42 41 40 40 38 39 39 39 38 38 38 40 42 50 56 55 55 47 45 43 42 44 42 43 44 42 49 47 71 112 135 154 157 166 170 183 197 209 226 248 
34 35 36 37 33 37 40 38 38 40 39 43 46 44 43 45 49 47 49 54 54 52 53 57 56 58 57 53 50 50 45 43 41 42 44 44 45 41 44 40 41 41 43 39 39 38 39 39 39 41 40 42 44 52 71 97 84 58 47 42 40 41 44 44 48 42 48 44 68 106 133 146 157 158 168 181 196 206 230 247 
40 39 40 40 37 37 42 41 40 38 40 46 46 46 48 48 50 51 55 55 57 56 60 57 59 64 63 60 55 53 51 45 41 45 47 49 48 46 45 41 47 45 41 43 41 42 40 40 41 41 44 45 49 67 194 209 138 77 49 44 44 44 46 44 45 45 44 51 65 101 129 144 156 159 165 177 195 204 225 248 
43 44 43 43 43 41 47 47 44 42 43 52 52 51 50 53 56 56 57 57 63 64 65 64 64 65 67 61 59 58 51 48 46 52 51 49 49 47 47 46 48 48 44 45 45 46 44 45 43 46 49 47 53 75 198 200 126 71 54 47 45 45 45 46 44 46 46 50 58 98 129 148 154 158 162 170 183 190 223 241 
49 46 49 48 44 43 49 48 49 45 49 49 51 52 53 55 57 58 63 65 66 69 73 73 67 70 69 66 64 61 56 50 45 52 52 49 52 47 46 49 49 45 46 49 45 44 45 47 44 46 48 45 50 53 77 89 77 60 51 47 46 42 44 47 49 43 47 48 58 90 123 140 149 155 159 160 149 170 220 239 
54 49 49 49 46 49 52 54 55 57 55 53 57 58 57 64 61 65 63 69 68 73 75 76 80 80 78 73 66 64 56 51 48 51 53 53 49 44 47 49 46 49 48 53 48 50 48 45 47 49 47 51 48 50 54 56 59 53 50 48 44 47 48 43 51 45 50 46 51 87 119 139 147 154 160 160 157 184 220 231 
56 60 60 57 49 56 57 57 56 56 57 57 58 59 57 63 67 68 66 70 76 84 83 85 85 89 82 77 71 66 58 52 53 52 55 55 51 52 68 63 50 52 53 52 50 53 50 51 50 49 52 48 49 52 50 52 51 51 50 46 48 48 47 46 50 43 50 53 58 79 112 140 152 156 156 166 177 193 216 232 
73 76 70 69 60 58 61 67 57 61 59 65 60 61 65 69 70 74 76 79 81 86 83 83 89 95 91 80 72 66 61 60 56 58 58 56 58 66 126 98 62 57 56 58 51 55 51 51 50 50 52 50 46 50 48 51 48 52 47 51 50 45 48 46 50 47 52 53 55 76 114 140 152 153 161 171 180 196 217 227 


