P2
80 60
88
17 18 18 19 17 20 24 21 20 22 20 23 24 17 23 21 20 22 22 21 22 18 21 17 19 17 25 23 18 21 22 22 21 20 19 19 21 18 22 20 21 18 21 21 23 19 22 22 19 25 19 22 20 21 22 26 26 27 25 25 27 28 25 25 30 31 27 29 32 29 28 33 30 31 33 29 32 34 37 31 
20 17 15 17 19 23 20 21 19 22 20 24 21 24 20 20 19 18 20 18 17 18 18 17 18 21 21 20 19 15 18 19 18 20 18 19 17 19 18 18 20 19 18 20 19 18 19 20 20 22 19 20 19 20 21 23 21 24 27 25 25 22 25 23 25 28 27 28 24 25 30 26 32 28 30 29 30 30 32 34 
15 14 17 15 17 20 16 20 17 19 17 20 20 17 16 17 18 22 17 18 20 17 16 15 17 17 19 18 16 17 18 18 16 20 14 18 19 17 18 16 19 17 17 18 18 16 17 16 19 18 18 17 17 18 19 19 19 20 26 23 22 23 24 21 26 24 21 22 24 24 26 28 24 27 28 23 28 26 29 24 
18 22 12 18 18 19 18 17 16 19 18 19 20 18 20 18 15 20 19 16 17 16 17 17 15 18 18 17 16 15 15 15 17 17 17 19 16 17 17 17 17 17 19 19 18 15 20 18 13 16 18 20 20 19 19 18 21 22 23 24 22 22 23 22 24 24 24 23 24 24 22 25 23 29 25 21 29 27 26 25 
19 19 14 15 17 16 21 16 13 19 18 20 20 23 19 24 19 15 16 16 19 19 12 14 20 14 16 17 16 15 15 14 18 18 20 17 16 17 15 17 17 15 18 20 13 16 19 20 15 18 16 19 16 20 20 21 23 22 22 23 18 21 21 21 24 25 24 22 19 23 26 27 22 22 22 24 28 27 22 28 
18 22 15 17 16 18 19 16 14 14 17 16 18 18 14 17 18 17 20 17 18 15 14 15 19 14 17 15 14 16 17 18 17 15 17 14 15 15 18 15 16 17 21 18 17 16 20 16 15 14 18 16 19 17 21 17 18 21 22 18 21 22 20 19 19 22 23 22 20 23 26 25 24 25 22 25 26 25 23 30 
19 23 13 17 18 21 19 18 16 15 15 17 19 17 17 16 15 19 17 16 19 16 17 17 18 13 20 17 17 15 16 16 16 15 14 16 16 15 20 14 14 15 18 19 16 13 20 22 18 16 15 20 22 19 20 19 21 26 24 21 21 18 22 22 20 23 23 25 19 20 22 24 24 26 25 24 27 30 26 19 
19 18 15 15 17 22 20 19 15 16 16 14 16 21 17 18 15 15 18 16 17 14 14 15 17 16 19 17 17 16 16 17 15 13 14 13 15 17 18 15 17 17 15 18 18 17 15 19 15 16 14 16 19 18 20 15 20 21 23 19 20 21 24 19 22 23 22 22 19 23 25 25 22 23 25 22 28 23 23 29 
18 17 18 22 18 23 20 16 18 18 14 22 21 17 19 18 18 19 17 17 15 15 16 16 19 16 19 19 17 17 15 21 13 17 15 16 18 16 17 14 16 15 15 18 14 19 19 17 17 16 14 18 21 20 20 18 21 20 24 21 22 19 23 22 22 22 23 22 19 21 22 22 24 21 26 23 27 20 25 24 
21 23 19 20 20 20 19 20 17 14 18 19 18 17 19 18 19 17 17 17 18 14 14 16 19 17 20 18 16 18 15 17 15 17 13 16 16 15 17 16 16 19 21 19 18 19 17 15 17 18 17 16 18 19 20 18 21 22 22 21 18 18 23 19 17 23 19 21 22 25 23 22 23 21 22 24 23 24 24 22 
21 22 19 16 21 20 18 15 14 16 18 20 17 16 18 20 21 15 15 19 17 19 16 16 15 14 16 16 15 16 19 17 14 16 15 17 17 14 16 15 20 15 15 15 15 16 19 16 15 16 17 19 18 20 18 19 22 23 21 20 22 21 21 20 20 23 21 20 18 20 21 25 24 21 26 23 22 25 23 25 
20 20 17 15 20 18 17 16 11 18 15 18 17 19 16 19 17 20 17 17 19 16 17 19 20 15 20 17 17 18 18 15 18 18 16 15 17 19 16 19 16 17 16 18 16 18 17 17 16 14 20 15 19 19 19 21 18 22 21 22 20 22 23 21 19 21 22 22 20 24 22 29 24 22 25 24 25 26 26 24 
19 17 21 21 21 20 17 16 14 16 17 17 18 17 14 20 17 21 19 21 20 17 16 16 18 17 20 13 14 13 16 16 15 17 16 12 18 16 17 13 15 16 17 15 16 18 18 21 17 16 14 17 18 23 17 21 24 21 20 21 21 21 21 22 21 22 21 20 20 23 19 25 24 24 25 24 25 24 25 25 
17 17 19 17 17 21 17 13 14 18 15 17 15 15 16 15 19 17 18 19 20 14 18 15 18 16 18 16 12 13 13 15 12 17 16 15 15 13 18 12 15 18 17 17 14 15 17 15 17 15 15 16 17 16 19 20 22 22 20 19 20 20 20 18 20 21 23 22 18 22 22 23 21 24 22 22 21 27 21 20 
20 20 18 17 19 18 21 15 13 13 17 17 16 16 16 18 20 19 17 21 21 18 13 16 18 15 18 13 17 15 16 16 16 13 16 16 16 13 15 14 12 15 13 15 15 14 15 18 18 13 15 17 18 18 18 20 19 20 20 18 19 21 21 17 16 19 21 17 21 18 22 25 19 20 21 22 24 24 19 20 
19 17 20 13 16 15 17 15 12 12 13 16 15 14 12 15 20 18 17 18 20 17 10 13 14 13 15 13 13 12 14 13 12 13 12 11 14 12 10 10 14 10 13 12 12 14 14 17 14 15 12 10 11 14 14 15 19 16 14 17 18 19 14 17 18 18 19 19 18 16 21 21 18 20 21 19 25 23 20 25 
20 23 21 19 17 19 17 14 19 17 14 18 19 21 17 21 22 20 19 19 17 20 15 13 18 15 18 15 12 18 14 14 17 18 11 18 15 15 15 12 17 17 14 16 14 14 14 18 14 15 13 16 17 16 18 19 20 18 22 17 19 21 19 20 18 20 22 19 16 21 24 23 20 24 25 20 26 24 25 24 
22 22 17 21 19 19 16 17 18 18 20 23 25 20 24 24 19 21 17 18 20 20 15 14 14 16 13 14 14 13 16 12 13 14 14 15 14 12 16 12 14 13 16 15 13 14 18 14 13 14 17 14 19 19 15 18 21 17 20 16 14 20 19 19 17 19 20 20 19 18 17 24 20 25 23 20 22 24 21 22 
19 17 21 19 19 19 18 14 16 18 22 24 23 23 24 25 21 15 18 16 21 18 17 18 20 14 18 16 16 12 17 14 13 12 11 13 11 13 15 13 16 12 14 15 12 14 16 14 14 13 16 17 13 16 16 22 20 19 16 17 17 15 18 17 18 22 19 19 17 17 19 21 21 20 25 21 23 24 24 23 
19 19 20 16 20 18 23 17 19 18 23 27 28 28 25 21 23 19 14 19 18 19 19 15 17 15 15 15 14 13 14 14 13 12 17 16 12 13 13 15 14 13 15 13 12 12 15 12 13 14 15 17 17 14 15 16 17 20 15 18 15 18 18 17 19 19 19 18 15 16 17 21 21 21 21 18 22 22 20 24 
20 20 22 20 22 22 21 20 20 21 25 27 28 29 22 24 19 18 18 15 16 20 16 17 16 17 17 16 15 13 15 15 15 14 12 12 9 15 12 9 14 13 14 14 13 10 15 14 15 12 12 17 14 15 14 13 17 16 16 15 15 16 18 18 15 16 19 18 16 18 18 20 21 22 22 18 23 25 21 21 
16 16 18 17 18 18 22 22 20 24 26 24 27 31 24 20 18 16 18 20 17 17 13 14 15 17 16 12 16 14 15 16 15 14 14 13 13 15 16 13 16 13 11 16 12 13 16 16 17 13 15 16 16 15 17 14 18 17 16 18 15 16 18 19 17 17 19 19 17 16 19 22 17 19 19 19 20 22 24 22 
18 19 20 17 20 24 22 23 21 24 28 26 25 27 25 23 21 18 19 17 18 19 16 17 17 14 17 17 14 16 16 15 13 13 17 16 13 14 14 14 14 13 17 12 13 16 14 15 17 16 14 16 16 15 18 14 18 18 17 15 17 18 19 21 19 18 20 18 17 21 21 22 20 22 22 20 26 22 20 25 
15 14 13 14 24 27 30 23 22 28 28 29 23 21 22 20 17 15 18 18 16 14 15 16 17 13 14 17 12 13 17 13 17 12 12 10 13 14 14 16 14 12 14 13 9 14 12 11 13 11 13 16 15 16 13 14 16 17 14 17 18 18 15 18 19 22 19 16 22 19 23 21 19 18 20 17 23 24 23 20 
21 15 20 30 29 29 30 29 30 32 31 29 29 23 23 18 15 20 18 18 17 17 16 14 16 15 17 15 11 12 14 16 15 13 14 16 15 16 16 12 14 16 16 15 13 11 15 11 12 11 15 18 15 13 17 13 17 23 21 16 18 18 19 20 20 19 23 21 20 19 19 25 23 23 18 22 24 24 18 16 
21 21 26 31 35 35 33 33 33 37 36 29 26 24 15 17 18 20 15 14 16 16 14 13 16 12 16 13 14 16 13 13 14 15 16 15 15 15 18 13 16 15 17 16 12 13 16 16 13 14 11 17 12 12 15 16 16 18 16 20 21 20 23 19 19 19 22 22 21 18 18 21 22 23 22 21 25 23 17 19 
23 24 24 32 35 39 34 32 31 37 33 29 22 18 15 18 19 16 17 16 17 21 18 11 14 15 16 15 13 13 13 13 16 14 16 16 15 17 18 15 19 18 16 16 15 14 15 13 14 13 11 13 13 16 14 14 17 19 17 17 20 17 18 17 20 20 20 21 20 21 20 19 19 19 23 21 24 18 19 23 
31 31 31 32 33 39 39 36 32 36 27 27 19 20 16 15 16 20 15 16 13 16 16 15 14 11 15 14 15 13 12 12 14 14 16 12 15 15 13 15 16 17 16 14 13 13 13 14 16 14 14 13 14 14 14 16 16 16 17 19 16 19 14 16 16 21 21 19 17 19 20 21 21 21 21 21 19 21 21 19 
33 34 34 36 32 35 35 37 35 31 29 21 23 19 17 18 20 18 18 15 17 16 15 14 16 16 16 14 15 14 13 14 14 17 19 16 14 16 17 15 18 16 16 16 9 14 16 13 14 15 15 13 14 15 14 16 19 18 17 17 16 15 15 18 17 18 21 20 19 16 18 19 19 21 19 23 19 21 18 19 
39 36 37 39 38 38 32 38 40 30 23 23 19 18 18 16 18 18 16 14 16 18 19 16 17 14 17 18 14 12 16 16 17 17 20 16 15 19 21 18 18 18 14 15 15 15 17 15 16 15 14 17 15 15 17 16 17 19 20 17 19 19 19 18 19 20 18 19 20 19 24 22 22 22 19 20 23 20 20 20 
43 43 38 38 37 42 39 33 34 31 22 24 24 21 19 20 20 18 16 16 16 19 16 17 17 18 19 21 19 13 16 16 16 19 15 17 16 18 19 19 16 19 18 16 17 16 17 14 14 20 18 18 17 20 16 17 16 20 16 21 19 20 19 22 19 19 20 22 21 20 21 20 19 22 23 24 22 23 21 20 
38 42 41 44 36 42 37 36 34 26 25 23 21 21 19 20 19 20 18 17 18 21 17 17 18 14 17 15 16 14 17 19 21 17 19 19 17 22 23 21 20 18 18 16 15 13 15 15 15 17 16 18 15 19 17 18 20 20 18 21 21 20 24 23 22 18 20 19 19 19 23 21 19 24 25 20 23 23 19 18 
41 38 42 44 41 42 36 32 28 31 25 23 21 21 21 20 19 20 20 21 17 22 22 22 19 18 17 19 15 15 20 18 21 20 19 21 20 19 20 17 19 18 16 14 17 13 15 15 15 19 17 19 21 20 16 18 18 20 18 18 21 17 22 21 17 19 21 22 18 22 22 25 21 22 20 26 23 18 16 19 
46 42 40 42 46 45 42 33 28 25 24 25 22 22 16 22 22 22 21 23 20 20 22 19 22 16 17 17 18 17 21 21 22 20 18 22 19 21 21 19 17 18 18 19 17 14 18 18 20 20 19 19 22 21 21 21 20 20 20 21 19 20 26 22 23 24 22 26 20 21 23 25 22 24 18 25 25 24 20 19 
49 40 39 36 32 40 35 29 24 24 23 25 20 21 17 21 21 22 20 20 21 21 17 21 20 18 19 16 19 19 20 21 22 24 23 21 24 22 21 19 19 18 21 22 19 19 18 18 16 20 21 21 20 19 21 19 23 21 26 21 21 21 23 21 23 22 24 22 21 22 21 24 22 23 21 23 24 21 21 23 
50 42 37 38 30 31 32 29 22 24 23 24 21 21 19 17 20 22 19 20 22 18 19 16 17 17 20 18 20 22 22 26 23 21 22 23 21 25 21 23 22 22 21 19 20 18 20 19 19 19 23 20 19 19 20 25 23 25 25 21 22 22 24 23 20 23 22 20 21 22 22 23 22 26 23 21 21 21 20 20 
54 53 43 36 34 30 30 25 24 20 25 22 20 22 17 21 21 25 21 18 20 20 14 15 17 20 21 21 23 23 22 22 22 25 21 23 23 23 23 23 21 26 24 22 21 18 21 19 21 17 20 21 19 21 22 24 25 25 24 22 20 20 23 23 27 22 23 22 22 21 25 25 25 25 22 23 21 25 19 17 
53 50 52 37 32 35 26 26 23 21 21 22 19 20 18 20 23 25 21 21 20 20 18 18 21 18 21 24 22 24 22 21 22 24 21 21 20 25 24 24 22 23 25 22 18 22 23 16 19 20 20 20 20 21 22 21 26 25 24 22 23 20 25 27 27 23 21 23 21 21 22 27 25 22 25 22 22 21 21 20 
57 48 47 47 32 32 27 26 23 21 21 21 21 21 20 22 26 25 22 21 21 16 17 16 17 19 23 23 25 21 27 26 23 20 19 24 22 25 23 24 24 26 23 21 23 22 20 20 20 19 21 22 21 23 24 25 27 27 24 23 25 21 22 25 26 25 26 29 22 22 22 27 23 24 24 23 25 24 24 22 
59 57 47 45 32 30 28 22 20 19 17 20 24 23 17 20 23 24 23 20 20 18 20 15 21 19 26 22 24 27 27 26 23 23 23 22 22 24 24 23 26 24 26 24 25 26 23 21 22 23 21 22 22 23 25 25 26 25 27 23 21 18 22 23 24 27 24 26 27 25 25 25 26 24 23 29 25 24 22 21 
65 61 50 35 30 29 24 23 26 25 22 23 24 20 20 26 24 25 24 20 20 19 19 19 21 25 28 31 25 25 28 28 27 22 28 23 26 25 26 22 25 25 26 25 22 25 21 24 20 21 23 24 25 22 26 26 24 28 24 24 24 18 25 24 24 25 29 29 25 26 26 27 23 22 27 27 27 27 23 24 
68 61 44 34 28 33 25 23 27 27 22 21 24 22 21 26 28 28 20 21 22 19 20 20 26 26 31 26 26 26 29 25 27 28 25 23 27 24 28 26 26 25 30 24 24 25 23 24 23 22 22 24 25 25 26 25 25 28 27 25 25 23 22 20 26 27 30 28 25 30 27 29 27 25 27 27 28 31 24 24 
71 65 44 31 28 29 27 24 24 26 24 24 27 24 25 28 26 25 23 23 19 22 17 24 28 29 34 31 28 28 30 27 29 29 30 26 26 26 26 22 29 28 31 26 27 27 25 24 20 24 26 25 27 24 27 24 26 27 26 25 24 24 23 24 22 26 31 30 30 27 31 30 23 26 21 27 28 29 20 21 
77 60 36 28 25 27 30 26 26 24 20 29 24 22 23 26 25 21 22 19 20 21 22 28 28 31 29 27 28 29 29 27 29 30 26 24 26 27 27 24 25 24 28 28 27 28 27 25 25 23 24 25 26 28 27 24 25 31 25 27 23 25 26 24 24 27 29 29 26 28 30 31 24 29 29 23 28 27 25 25 
88 48 32 27 26 30 26 28 28 23 24 30 27 26 26 24 24 27 25 22 24 23 29 29 33 30 32 30 28 30 28 29 33 31 29 31 31 25 27 25 28 25 25 27 26 26 29 22 25 27 27 27 26 27 29 26 25 27 28 28 25 27 24 30 27 26 30 30 27 30 26 29 26 25 30 26 27 26 24 27 
72 39 31 28 27 32 27 27 31 30 24 31 31 31 26 28 28 27 24 24 27 30 31 30 35 34 35 32 33 33 37 30 32 32 29 31 30 32 33 29 30 28 30 29 30 31 31 24 29 28 28 28 32 30 27 32 29 30 27 26 30 24 25 29 27 30 32 32 29 33 30 31 28 29 34 28 32 30 28 24 
53 31 25 30 29 25 30 25 28 28 27 27 31 32 32 29 28 30 29 27 31 32 32 34 34 33 34 34 33 33 35 33 30 32 32 31 32 32 32 29 32 28 30 28 27 29 31 29 27 30 26 33 32 29 30 31 30 30 30 25 25 28 26 25 25 32 31 29 33 29 30 32 30 28 30 30 27 30 27 23 
31 23 25 25 22 26 29 26 25 26 28 29 32 28 26 26 30 28 23 28 33 30 33 33 37 34 36 34 30 31 33 30 33 35 29 31 31 35 33 29 32 29 30 30 29 27 31 31 27 29 31 30 31 33 35 31 28 30 27 25 25 24 26 27 29 30 27 29 27 29 29 32 29 27 29 28 28 31 27 26 
24 16 17 17 16 20 25 21 23 23 28 31 35 29 24 23 27 30 28 32 34 36 37 32 34 37 38 37 34 34 34 31 32 34 29 33 34 33 34 32 34 30 35 36 31 30 33 32 32 32 32 34 36 31 36 34 33 31 32 27 28 28 29 30 29 27 25 27 28 31 30 30 32 28 28 27 30 26 29 25 
20 20 12 5 7 12 19 19 22 24 32 31 31 27 22 19 30 29 29 36 34 35 33 36 34 38 37 33 33 35 39 35 33 36 27 32 35 35 36 32 33 33 33 33 31 32 33 33 35 34 31 33 36 35 33 35 35 28 31 30 32 31 30 31 30 30 27 29 28 32 30 30 31 29 30 33 30 31 28 30 
20 17 6 2 5 13 13 17 20 26 29 26 28 24 21 26 26 30 30 37 36 38 35 35 35 36 38 36 33 30 37 38 32 35 36 35 33 33 35 30 35 30 34 33 31 33 34 31 32 33 39 39 37 35 34 35 34 31 33 32 32 33 29 31 35 31 28 28 27 31 27 38 29 31 31 27 29 32 31 29 
24 19 11 14 8 7 9 14 22 29 31 27 26 21 20 28 27 28 30 32 36 39 35 33 36 37 39 34 35 31 35 33 34 36 34 31 33 33 35 31 34 33 35 33 32 35 34 34 37 38 41 41 38 32 32 34 34 31 34 36 36 35 31 29 36 31 33 28 26 30 32 35 32 33 33 31 35 32 31 30 
26 23 20 14 16 11 14 14 18 22 21 20 21 24 25 26 36 37 37 33 32 41 40 39 39 40 39 38 37 35 39 40 34 35 31 36 34 32 31 33 34 34 35 35 33 34 34 36 34 40 37 41 37 36 32 29 34 32 33 34 32 34 34 31 34 38 36 32 28 28 32 35 33 37 33 30 35 31 32 32 
25 24 23 19 17 18 17 15 14 14 13 20 18 23 21 28 45 49 48 45 38 42 41 42 42 38 47 38 37 36 36 42 41 32 33 35 31 34 32 30 36 37 39 37 34 35 35 36 38 39 43 38 41 38 32 26 30 35 31 31 32 33 31 33 32 36 35 32 29 28 27 35 37 34 36 35 31 33 38 34 
21 25 19 21 24 25 26 24 16 14 8 14 18 20 22 44 54 56 53 54 50 51 49 43 46 42 46 45 43 38 35 40 36 38 38 39 35 34 35 33 37 36 37 35 37 36 36 38 37 38 40 41 40 38 35 35 32 30 31 30 34 35 36 34 32 31 32 34 35 32 32 39 36 35 37 32 35 33 36 31 
26 28 22 23 19 22 32 24 21 13 9 11 14 17 31 57 56 55 57 58 52 55 52 50 47 46 46 46 43 43 39 40 39 41 37 39 36 37 36 31 32 37 39 37 36 39 40 37 41 36 32 43 41 38 38 37 37 38 31 28 29 31 34 32 32 34 31 34 31 29 29 35 38 35 37 34 37 37 34 36 
25 28 25 26 27 28 29 24 21 18 17 16 16 20 49 62 60 59 55 59 57 59 54 55 52 52 54 44 49 47 43 44 42 43 40 40 39 38 40 34 40 40 36 39 38 40 41 44 41 43 41 42 42 40 40 37 35 37 36 34 32 36 39 34 35 32 36 34 32 30 33 32 36 36 35 35 37 36 35 37 
27 26 23 26 26 24 25 21 17 18 22 17 19 47 59 65 61 58 59 61 61 60 57 60 58 59 59 53 49 47 47 48 45 47 41 43 41 38 40 38 37 42 38 41 39 39 44 47 45 46 39 35 40 39 37 35 41 41 36 35 34 38 36 34 35 37 39 37 32 34 36 32 33 37 35 37 37 38 35 34 
29 29 31 34 29 24 19 16 16 19 23 25 44 68 69 64 67 66 62 65 63 65 64 63 60 59 63 62 63 54 56 54 54 51 47 48 46 46 45 44 43 41 43 42 42 47 48 50 45 49 45 40 38 37 43 39 44 40 38 39 42 40 40 38 42 40 41 38 41 38 38 40 40 36 39 38 41 39 41 35 
27 31 30 33 34 28 16 0 11 16 26 35 66 72 67 73 70 72 68 70 66 66 67 63 64 67 63 63 67 60 61 57 54 52 53 52 48 48 50 45 45 46 43 44 47 50 52 49 49 46 44 43 40 39 44 44 42 44 43 38 39 42 41 41 44 44 41 45 42 41 38 39 40 38 41 41 45 41 40 41 


