P2
80 60
257
19 18 18 23 36 44 83 92 73 40 58 89 83 48 40 33 32 29 26 27 25 24 21 19 21 23 23 24 30 29 31 27 28 26 23 27 26 23 22 25 25 24 26 25 24 27 27 24 26 21 15 19 16 16 18 16 17 18 18 20 16 20 22 20 24 26 23 26 27 26 21 23 22 19 20 20 16 18 15 15 
21 24 18 22 32 45 90 93 65 35 63 93 79 41 36 34 31 28 25 25 26 25 22 21 22 20 22 26 27 27 30 28 28 27 27 28 27 23 24 26 26 26 25 23 25 27 27 29 25 20 16 16 15 15 17 19 22 21 18 19 19 17 22 24 25 26 26 26 29 24 24 24 25 16 17 19 16 17 15 7 
18 20 18 22 37 45 95 91 63 39 68 90 75 41 38 32 29 27 24 24 25 25 24 23 22 25 29 27 28 28 30 31 26 24 25 26 25 26 24 25 24 24 25 24 29 28 28 27 29 23 19 17 19 18 18 24 23 19 22 23 22 24 29 30 30 25 25 21 21 25 23 24 20 22 20 22 19 18 15 10 
23 20 22 30 36 50 97 89 54 40 73 92 66 37 30 29 28 27 25 26 25 22 25 21 20 26 28 23 30 28 30 32 27 22 25 20 26 23 21 28 24 25 24 29 27 25 27 28 27 26 22 25 26 24 26 28 28 27 31 27 27 27 26 31 32 25 25 24 28 22 24 23 22 24 22 19 17 15 14 11 
16 20 17 28 38 57 108 88 49 39 78 90 58 34 29 27 26 23 24 22 22 19 24 23 25 28 26 28 28 28 31 27 25 22 23 22 26 23 24 23 23 23 25 23 23 25 28 30 29 28 27 26 24 29 29 31 27 29 29 28 27 29 29 27 26 27 27 25 25 25 20 22 22 21 18 21 18 15 13 11 
18 18 20 33 39 68 101 81 47 42 86 89 54 32 28 28 25 23 24 22 26 23 27 24 22 23 27 30 26 29 29 27 27 27 25 25 25 24 24 26 22 21 25 27 28 27 28 29 27 30 26 27 29 28 29 31 32 29 32 29 30 31 24 30 25 25 24 22 25 23 24 25 21 25 21 21 20 17 14 12 
19 24 22 32 36 66 100 80 44 44 86 81 49 28 27 25 26 24 26 23 24 25 23 24 24 25 23 26 27 29 32 28 25 25 22 26 24 26 24 22 26 22 23 24 24 25 27 32 29 29 28 26 27 28 29 29 29 25 28 27 27 28 26 28 26 28 24 26 27 29 22 24 22 23 24 22 22 17 13 13 
11 16 17 27 33 64 99 73 42 51 89 83 41 25 23 23 25 21 21 24 23 22 20 17 17 20 20 23 22 25 27 27 26 22 24 24 23 22 23 23 23 24 26 24 26 22 23 24 23 26 28 24 25 29 26 24 26 26 27 22 26 24 26 28 26 25 22 25 24 27 22 23 21 18 22 19 18 19 12 18 
5 11 12 26 28 63 100 71 38 43 91 78 40 24 20 21 20 21 20 22 23 23 18 19 20 20 19 22 24 23 29 26 25 25 22 23 25 25 23 23 25 24 23 28 24 27 26 26 26 26 24 22 24 25 23 27 27 26 24 25 25 30 31 28 28 31 26 26 27 25 24 26 23 22 24 21 22 20 17 16 
5 3 1 0 9 70 97 66 28 43 100 76 36 24 20 20 19 17 17 20 23 19 20 19 19 18 22 22 23 30 29 27 24 24 24 21 26 25 21 24 25 25 24 24 24 26 27 29 25 27 20 26 23 23 26 27 30 24 27 28 27 30 30 27 30 28 28 25 27 27 25 23 21 23 22 23 23 19 14 20 
13 13 8 0 12 73 97 59 24 46 103 80 24 14 11 15 15 15 15 17 19 19 19 15 18 21 20 21 20 23 29 26 21 24 20 20 24 24 24 21 22 24 22 25 24 25 27 23 25 24 24 19 26 24 26 25 29 29 29 29 29 29 31 31 29 28 29 22 27 31 24 27 28 25 23 22 22 19 15 13 
18 19 16 16 21 84 99 54 23 52 97 74 18 9 10 9 6 7 13 14 14 15 16 16 18 19 16 20 20 22 27 22 22 19 20 22 22 23 21 25 21 24 21 25 25 24 26 26 24 25 24 26 27 27 28 27 29 30 31 33 29 30 28 29 28 32 27 26 24 26 27 26 27 23 27 22 21 22 18 14 
16 17 15 15 16 80 94 54 24 57 99 68 15 10 9 11 10 6 7 8 4 4 6 5 9 16 13 17 18 21 24 19 22 18 19 21 23 24 23 24 21 24 22 24 23 26 24 22 22 24 22 26 26 28 31 29 30 26 30 28 30 30 29 29 27 31 29 26 24 25 25 27 23 23 22 20 24 19 15 13 
14 14 14 16 21 85 87 47 30 63 100 65 17 11 11 9 7 9 8 6 4 5 7 4 3 4 2 6 8 7 11 8 16 18 17 20 19 21 22 22 28 25 22 26 24 22 26 27 28 28 24 27 25 29 30 31 27 25 27 32 28 27 28 28 26 30 26 23 25 26 24 24 27 26 26 22 22 20 16 16 
12 17 13 17 31 87 82 43 27 71 95 58 18 13 10 13 13 10 8 8 7 3 4 4 1 6 5 5 8 8 7 6 3 5 0 10 17 24 23 24 23 23 26 25 26 26 26 28 27 27 29 29 26 30 29 32 30 28 28 30 30 31 24 30 30 31 29 29 25 26 26 27 26 21 24 26 24 22 17 14 
13 16 14 16 35 90 83 34 27 76 95 52 13 14 11 15 12 10 10 6 4 6 6 7 1 7 4 2 5 9 8 8 6 2 4 16 17 22 20 21 20 21 21 26 24 24 27 26 28 27 28 27 28 29 30 29 30 29 32 31 32 28 28 29 30 31 30 29 23 26 25 24 24 26 26 25 20 21 12 14 
13 13 13 18 41 87 77 31 23 79 86 49 15 12 13 12 11 11 9 9 8 8 7 5 2 4 7 4 8 10 8 5 7 15 19 21 22 23 23 18 19 22 23 24 25 23 28 26 28 30 28 26 30 28 30 31 30 29 24 29 28 28 32 28 29 31 30 27 24 23 25 25 23 22 26 22 21 23 15 12 
14 14 13 20 45 96 83 33 31 85 88 47 17 16 14 13 16 11 9 10 11 11 9 8 5 8 9 5 10 7 10 17 20 24 22 22 25 23 25 23 24 25 25 27 26 27 30 29 29 29 29 29 33 31 28 33 33 32 32 30 31 32 30 29 27 31 30 28 25 26 27 28 29 24 25 26 25 22 17 15 
16 16 18 17 48 89 76 27 28 82 84 45 15 11 13 13 11 12 11 11 11 10 12 5 5 8 7 9 9 10 18 23 22 21 21 18 21 24 23 24 24 21 25 24 25 27 26 25 27 28 29 30 28 27 28 30 28 29 29 29 31 30 32 32 27 31 28 30 28 24 26 26 26 25 29 26 24 24 20 16 
15 16 17 18 57 92 78 26 33 84 84 43 15 14 14 13 16 13 14 11 10 9 11 10 8 8 12 7 10 13 21 25 21 21 19 19 23 20 22 24 23 22 21 24 24 25 26 29 26 30 32 29 30 28 28 31 31 32 30 31 30 30 30 29 33 28 30 27 26 24 24 26 27 24 25 23 26 20 18 18 
20 24 17 23 69 98 73 30 33 92 85 39 17 13 14 14 15 12 13 10 11 12 10 11 8 10 9 9 12 13 19 20 23 21 20 19 21 22 22 22 23 21 23 25 25 28 27 27 27 28 32 31 27 30 27 29 27 28 33 32 29 30 31 29 31 30 29 30 28 23 25 25 29 23 24 26 25 22 20 17 
43 37 33 34 84 106 80 27 38 95 85 36 13 14 16 12 13 13 12 12 14 13 11 9 9 7 7 8 12 13 13 21 22 20 20 23 20 22 21 22 24 20 26 24 24 24 25 26 30 30 29 31 27 30 32 29 30 30 30 28 28 32 31 35 32 30 29 30 30 26 21 26 28 24 22 22 24 25 18 14 
103 101 93 91 106 107 67 25 46 93 84 34 17 15 12 16 12 11 13 12 13 11 11 10 8 9 11 10 12 10 10 18 23 20 19 16 22 19 20 20 24 23 27 23 23 24 28 27 26 28 31 30 29 29 30 32 32 28 29 30 32 30 31 32 31 32 31 30 27 26 20 24 27 22 23 25 26 20 22 20 
106 106 107 104 102 91 56 30 54 94 83 33 15 9 13 13 13 12 12 14 19 11 12 11 7 9 11 9 12 11 11 19 20 20 18 18 22 22 23 22 24 23 25 26 27 29 25 26 28 28 29 29 29 29 29 29 31 30 28 30 31 29 31 32 33 30 34 34 27 29 25 23 25 24 23 27 25 22 22 16 
57 64 74 84 80 66 32 27 58 99 84 32 17 14 15 17 15 16 13 14 15 14 12 12 12 10 11 9 15 12 16 18 21 18 21 21 23 21 24 22 25 25 28 26 27 29 27 30 27 32 28 30 30 29 28 29 30 30 32 32 33 31 34 34 33 35 30 31 30 28 28 25 26 24 26 23 24 24 22 21 
27 26 27 29 30 24 25 27 61 105 85 32 15 18 15 16 18 18 18 14 13 13 12 14 13 12 12 11 13 14 14 20 24 26 22 21 24 23 26 26 26 26 25 28 28 27 28 28 28 32 31 31 30 29 32 32 32 30 31 32 29 30 32 34 32 33 33 31 31 30 27 29 24 22 22 25 24 26 23 16 
45 42 31 28 23 23 26 33 71 112 85 29 15 17 18 16 17 12 17 15 13 15 16 12 13 15 10 11 14 14 16 23 25 20 23 21 25 24 30 27 26 28 27 27 25 25 27 27 28 30 30 32 28 32 31 32 30 33 32 31 31 31 32 32 31 32 30 33 32 31 30 28 27 25 22 25 22 22 17 18 
107 103 95 87 73 65 62 61 93 113 86 31 17 16 19 15 17 14 17 14 13 14 14 14 14 14 12 15 13 13 16 22 21 22 22 22 25 23 28 26 26 25 25 27 24 26 26 27 27 27 29 26 31 29 35 30 28 31 29 28 30 32 33 31 33 34 32 31 32 29 28 30 29 27 28 29 25 27 19 16 
107 112 108 106 103 99 97 94 105 101 77 25 17 17 19 21 19 15 15 17 16 16 13 12 14 14 16 13 15 14 16 19 24 22 26 25 23 25 31 28 25 28 29 28 27 28 26 29 28 28 30 30 29 31 32 32 29 31 29 29 31 33 31 30 33 31 32 32 30 31 31 30 30 25 28 29 25 28 22 22 
62 70 75 83 84 90 96 90 99 86 56 20 15 17 15 20 17 18 17 17 16 17 15 17 17 14 15 17 17 16 17 20 23 22 25 27 24 25 30 27 28 28 29 28 28 25 26 28 27 30 29 31 29 31 32 28 32 27 31 29 29 30 30 31 33 33 32 33 32 30 32 34 33 27 30 26 26 29 24 22 
25 29 29 27 29 34 41 43 49 42 26 18 16 19 20 20 17 16 16 18 16 21 18 17 16 20 17 17 14 14 14 21 24 23 23 27 22 26 26 26 25 24 30 29 25 29 29 26 29 30 28 32 28 31 31 31 32 30 33 31 33 35 33 33 30 31 32 32 31 33 30 30 31 27 29 26 26 29 22 25 
23 24 20 22 22 22 26 24 28 21 22 21 17 20 22 21 19 18 20 17 20 19 20 18 18 17 15 16 19 21 18 20 26 23 24 24 25 29 28 27 29 30 26 30 30 27 27 28 32 33 30 31 31 32 33 32 32 32 34 33 33 33 33 35 33 32 36 33 31 31 33 33 32 29 28 27 28 27 24 24 
20 21 22 18 19 18 27 22 23 22 21 16 14 17 22 20 23 19 20 20 17 20 19 16 18 18 18 17 18 20 18 22 24 25 24 25 24 27 27 26 29 28 27 29 26 25 28 26 29 30 31 31 30 31 33 33 29 30 30 32 33 32 34 35 34 35 33 34 31 30 30 29 31 32 29 28 30 30 26 26 
21 24 20 23 18 18 25 20 24 23 21 19 14 20 20 22 22 21 21 18 21 20 21 18 19 16 21 16 21 19 18 23 29 22 23 23 27 29 26 27 30 28 29 29 30 28 29 30 31 31 32 32 28 32 32 31 33 30 32 36 34 37 35 38 35 36 34 37 32 33 35 33 35 34 34 30 31 32 31 28 
22 24 17 15 16 21 24 24 27 22 25 21 16 21 24 22 21 20 19 23 21 20 21 18 22 21 22 18 22 18 22 23 25 22 25 26 29 24 26 29 30 29 29 31 28 29 28 28 31 30 30 31 30 33 32 30 34 31 28 32 33 35 35 33 34 34 36 35 33 36 30 33 32 35 35 29 29 29 32 30 
22 27 23 22 19 22 24 19 25 22 22 20 18 22 23 26 24 24 21 20 20 22 22 22 18 20 19 19 23 21 18 21 24 27 24 28 29 25 29 28 27 28 28 29 31 27 31 28 30 32 30 31 32 35 33 34 33 30 30 35 33 34 34 32 36 35 33 32 34 34 31 33 34 34 37 33 31 33 31 35 
24 25 23 22 21 21 26 22 28 23 24 19 20 20 23 23 21 23 22 23 21 20 23 23 21 21 25 21 25 23 18 25 26 28 25 28 29 29 27 28 30 29 29 29 27 32 34 33 30 32 34 32 33 31 35 34 33 31 33 35 31 34 36 37 35 33 30 33 33 33 33 32 35 33 34 30 31 35 35 34 
19 23 25 21 21 26 26 20 28 23 22 19 21 23 24 22 24 24 24 22 23 24 23 22 24 24 24 23 28 21 20 23 30 28 24 28 29 28 29 26 28 30 31 26 29 31 31 34 33 33 30 34 31 33 32 31 35 31 30 31 33 34 35 34 36 35 34 35 33 34 35 31 33 33 36 33 34 33 39 47 
23 20 20 23 19 23 24 22 31 21 19 21 20 20 26 25 24 24 23 25 19 25 23 24 22 26 23 25 30 22 22 21 26 30 27 26 31 28 29 29 26 34 29 27 30 32 30 32 31 31 30 31 32 34 33 33 34 32 32 31 32 33 32 34 33 35 34 34 36 35 33 34 35 34 35 34 34 41 41 49 
25 20 22 23 20 22 23 20 32 22 21 23 19 21 24 23 25 25 26 24 24 26 25 25 24 24 24 26 28 24 25 24 29 30 26 30 28 31 27 27 30 28 31 32 31 29 31 33 32 31 32 31 31 32 34 33 34 29 29 34 34 34 33 34 33 33 37 33 35 35 35 32 31 31 33 40 50 52 44 42 
22 25 23 25 26 24 24 22 28 20 23 20 21 22 26 26 26 25 29 27 28 24 25 30 28 31 26 25 28 26 26 26 31 29 28 27 30 30 27 28 31 31 31 30 31 30 30 31 29 33 34 28 33 33 32 31 31 34 29 32 34 34 33 34 34 36 35 35 35 34 34 36 34 33 32 34 37 39 40 38 
22 22 21 24 21 23 30 23 30 24 25 22 21 25 29 25 26 27 27 28 28 28 25 27 29 28 27 26 28 25 25 22 29 26 27 34 31 30 30 30 32 32 32 33 31 32 34 31 31 31 30 32 31 38 31 35 33 32 34 29 31 31 33 36 34 34 36 34 37 38 31 36 37 35 33 36 38 32 36 34 
23 25 21 23 25 26 26 21 26 23 26 22 22 27 29 28 29 26 28 30 26 27 29 27 28 32 28 29 26 28 25 23 32 30 29 30 30 30 30 31 32 31 32 30 27 31 29 30 29 31 33 32 33 34 30 32 29 30 28 33 33 34 35 34 33 35 36 34 36 32 33 37 40 37 37 38 40 37 35 40 
22 20 24 23 21 23 25 28 29 24 24 23 23 26 28 27 28 30 30 29 31 28 31 29 27 32 29 29 30 25 27 26 30 32 30 28 31 32 32 30 33 32 29 29 28 28 30 29 30 32 30 31 32 33 30 30 29 30 32 33 31 32 34 36 32 34 35 37 36 37 38 41 44 43 54 57 69 82 89 109 
22 24 23 27 22 23 31 30 29 28 22 26 24 29 26 31 31 31 30 30 33 36 36 33 32 33 31 30 26 28 26 25 30 29 33 28 35 31 30 27 32 29 31 31 31 30 31 29 30 31 31 29 30 29 29 33 32 31 34 34 33 35 36 36 34 35 38 38 36 48 64 82 91 103 117 122 135 149 165 190 
21 22 24 24 24 29 30 28 26 24 24 26 26 27 29 29 29 32 33 36 33 35 35 32 35 33 31 29 29 30 28 23 30 30 33 30 30 34 33 31 32 32 27 30 31 30 33 31 32 32 32 33 29 29 33 31 29 34 32 31 32 35 36 35 37 37 36 40 36 66 102 124 134 138 146 154 166 183 200 224 
23 27 25 24 24 24 34 26 29 27 26 25 27 31 28 32 32 31 34 38 36 38 36 33 35 33 33 29 30 30 28 22 26 30 29 32 34 33 33 32 33 31 31 32 33 31 31 30 30 31 31 32 31 32 32 29 32 32 31 32 34 36 38 36 37 38 41 40 41 74 115 148 158 162 172 185 198 212 230 245 
25 24 23 25 28 28 33 25 28 30 30 26 29 26 29 33 34 32 33 32 37 35 36 34 36 34 39 40 37 37 36 32 28 29 33 34 33 32 32 33 33 33 31 33 33 31 29 33 31 28 32 31 29 28 31 31 33 32 33 30 36 36 37 37 34 39 38 39 40 71 118 150 167 173 181 196 203 220 241 250 
26 24 25 28 25 24 33 28 29 31 28 28 28 31 29 34 34 36 35 35 34 34 34 37 39 41 43 44 41 40 40 32 31 30 33 36 37 32 39 33 32 30 31 33 33 32 31 32 30 34 31 31 31 31 30 33 32 34 33 29 35 38 35 36 32 37 38 36 38 68 117 153 164 175 183 192 207 221 240 257 
26 22 24 23 26 25 33 27 28 30 30 25 29 34 32 31 34 37 34 36 35 37 37 40 37 39 45 43 42 41 37 32 30 32 33 32 34 32 33 36 35 34 32 34 31 35 32 30 28 33 31 30 33 30 33 31 32 32 33 33 32 35 38 38 36 35 38 34 39 66 113 146 164 170 180 190 201 218 240 254 
27 28 28 30 29 31 31 26 33 32 31 30 28 33 33 34 33 37 36 36 41 40 40 40 39 39 46 47 44 44 41 33 32 32 34 35 37 37 37 36 37 34 36 33 32 33 32 33 29 35 30 34 31 33 31 33 33 36 33 34 37 37 39 36 37 40 37 40 42 64 111 144 160 170 175 192 203 218 238 250 
30 29 28 28 27 29 33 31 34 36 33 30 30 35 36 38 35 40 40 38 40 42 40 40 43 43 48 45 41 42 42 36 30 31 36 34 36 35 35 38 37 35 34 37 35 35 32 31 32 31 30 33 33 33 38 36 38 35 37 34 36 35 37 38 39 40 39 40 43 58 105 136 157 164 172 193 199 212 232 251 
33 33 31 30 30 31 34 39 36 35 34 30 32 34 35 38 38 41 41 42 45 46 44 43 46 45 53 45 44 43 43 39 32 32 39 38 40 36 35 37 39 34 35 36 34 34 36 37 35 36 35 35 36 38 41 44 42 40 40 38 37 35 36 39 39 42 39 37 43 56 101 139 154 163 173 185 197 211 229 242 
31 33 34 32 32 34 38 32 41 37 40 33 36 35 38 39 41 39 47 44 48 47 46 48 45 47 55 49 46 44 45 37 35 34 37 40 42 40 36 42 36 38 34 37 35 35 38 35 33 34 37 37 34 39 47 47 44 43 40 36 39 39 39 38 40 38 40 39 42 54 96 134 152 162 168 179 180 185 214 251 
34 36 37 35 33 36 39 34 42 35 40 35 39 40 42 41 43 46 46 47 48 51 52 53 51 52 53 52 49 49 48 42 39 36 38 42 41 40 41 41 38 39 38 39 34 38 36 34 36 38 37 37 40 45 51 68 79 64 49 40 40 40 42 40 41 42 43 44 41 51 95 129 152 159 169 173 170 162 210 254 
37 42 41 40 39 37 44 40 42 41 41 39 39 43 43 46 49 49 50 53 54 55 55 52 55 59 59 60 56 53 53 44 40 39 43 43 44 46 43 43 43 43 42 40 38 40 38 36 36 38 42 40 44 45 80 198 170 103 62 49 44 43 40 40 44 44 44 40 48 52 93 128 155 161 170 177 180 192 228 242 
44 46 39 42 39 43 47 41 43 42 45 41 39 44 45 47 51 53 51 56 57 60 62 61 61 61 62 59 57 55 54 44 41 45 45 48 47 45 43 43 40 42 43 38 40 42 40 40 42 42 42 41 45 50 96 244 184 105 60 47 40 41 41 38 42 44 46 42 47 54 91 127 152 161 172 177 190 205 222 237 
48 47 46 47 48 47 53 49 47 47 48 45 43 47 50 51 56 54 56 61 64 65 66 61 67 66 65 64 60 58 55 46 42 42 46 50 46 45 41 39 40 43 41 40 44 42 40 40 42 41 40 41 43 46 64 96 97 70 52 46 41 40 42 39 41 44 42 44 44 47 87 121 151 164 168 177 192 206 219 234 
57 54 58 54 51 54 60 52 53 51 52 52 51 53 54 56 57 59 60 63 66 71 71 76 75 73 77 70 65 60 55 49 45 46 47 51 47 38 39 44 40 43 44 43 43 45 40 44 44 43 43 44 45 48 50 56 57 54 48 44 43 44 40 44 41 43 44 45 44 52 83 123 151 164 173 183 196 209 219 234 
75 71 65 57 53 57 65 54 54 52 54 53 56 55 58 58 60 63 65 70 75 77 76 79 80 81 82 74 69 63 58 50 46 48 50 51 50 48 58 73 48 48 52 48 45 46 45 46 44 45 45 46 48 49 48 52 53 50 45 43 44 41 41 43 42 42 43 43 42 44 74 127 151 166 176 181 198 211 224 235 


