P2
80 60
174
44 45 56 59 67 68 69 63 66 59 43 44 43 45 45 52 66 76 86 88 93 95 93 78 71 61 51 49 44 47 43 44 42 54 53 55 58 69 70 82 90 98 116 120 122 126 126 127 129 128 125 123 115 110 100 94 82 76 67 63 57 55 54 38 34 29 24 19 15 14 18 15 8 4 11 3 9 6 0 7 
44 45 60 68 64 72 72 61 54 53 48 41 35 44 47 55 62 74 81 95 94 102 99 83 78 64 49 48 45 47 46 47 45 59 52 58 62 72 83 88 98 109 119 123 123 130 134 132 139 135 130 132 124 118 110 104 87 81 74 72 57 58 49 42 35 33 31 18 13 14 13 16 5 8 9 5 6 5 0 4 
46 46 62 59 65 77 79 76 65 59 52 52 44 43 45 56 69 82 86 92 94 102 95 83 81 67 52 50 47 50 50 51 55 66 69 67 72 82 90 104 111 118 127 131 135 139 139 137 140 142 138 141 134 130 120 117 105 98 85 77 69 71 61 51 47 39 34 22 18 17 19 13 11 6 7 6 10 8 1 3 
47 48 56 61 66 74 90 81 77 70 56 52 44 48 47 63 75 81 87 88 96 98 92 85 78 66 58 55 48 54 55 55 61 68 70 71 77 90 100 109 114 121 132 138 138 142 143 148 142 148 142 140 138 139 127 122 112 106 95 88 73 73 66 54 48 40 41 26 22 18 13 19 9 5 11 5 9 11 0 6 
48 54 54 60 68 82 96 95 89 76 62 55 45 52 49 65 71 85 91 98 98 103 89 82 75 69 56 60 54 65 63 66 63 75 75 78 82 92 98 111 117 122 134 139 144 144 146 145 148 147 148 147 146 139 136 132 124 116 110 100 80 77 70 63 56 47 44 30 22 17 16 20 14 11 9 8 11 9 5 12 
50 52 55 54 71 82 92 99 94 92 75 67 50 52 54 64 71 84 94 102 100 99 88 81 76 66 61 60 58 67 62 71 69 80 75 81 82 91 96 110 116 124 134 137 141 149 146 154 149 154 149 153 149 144 141 141 130 122 113 108 91 87 75 71 61 57 46 36 31 22 21 19 15 14 15 11 11 8 2 10 
53 53 53 59 67 74 92 95 95 85 81 72 57 54 53 73 77 87 92 106 101 103 94 78 77 69 69 59 70 78 80 78 81 84 86 90 89 99 98 106 113 123 135 138 139 148 152 153 155 159 159 154 153 155 146 142 138 129 122 120 103 101 91 77 72 62 55 45 39 25 20 20 15 16 16 15 16 16 9 8 
51 55 55 53 61 59 71 76 83 79 80 75 64 58 57 73 76 85 93 108 103 106 91 81 75 75 77 81 79 87 89 88 85 91 91 89 87 92 102 104 113 122 135 140 145 150 149 154 158 156 161 160 161 155 154 149 144 134 131 125 119 113 102 87 82 75 59 46 41 34 22 21 21 13 18 17 15 15 9 17 
53 55 61 62 62 63 64 61 67 63 58 65 64 66 58 70 74 79 86 91 96 102 92 81 80 81 84 92 97 103 104 102 100 98 97 95 92 97 101 105 114 122 132 140 142 150 151 154 160 160 160 162 159 162 155 154 149 146 134 134 124 123 108 96 90 77 66 57 51 38 27 24 19 11 17 19 21 16 11 12 
66 74 80 76 83 75 75 68 66 59 60 59 64 68 74 74 82 82 89 82 83 82 88 86 85 94 96 102 108 116 122 112 114 116 106 104 100 106 103 109 113 118 129 136 143 152 157 157 162 163 166 163 160 161 158 157 154 149 142 140 129 126 117 104 101 88 80 68 56 42 37 28 24 19 20 16 18 17 15 18 
84 88 96 91 87 91 84 73 70 61 58 58 62 69 74 84 85 97 96 97 84 74 74 83 91 102 108 121 122 128 135 130 127 130 122 117 110 114 110 115 114 121 130 139 144 152 158 165 164 165 167 166 164 164 158 157 153 151 144 146 144 137 123 111 107 98 92 79 66 53 46 33 25 21 18 16 18 17 19 10 
108 109 118 107 107 100 85 81 70 61 59 56 60 66 79 87 95 98 108 111 96 87 77 75 90 105 112 129 131 145 142 141 134 139 135 129 121 120 121 116 117 115 130 138 139 148 155 161 161 170 166 165 163 161 161 157 151 150 149 145 138 135 127 116 112 99 93 83 70 60 53 46 27 24 18 17 19 21 18 16 
122 128 129 126 114 107 95 86 68 61 56 52 60 75 87 97 104 107 115 117 108 94 82 83 91 107 120 137 144 151 154 150 150 145 148 137 128 132 126 122 121 123 129 136 144 149 153 158 159 164 162 161 159 162 160 157 152 151 147 149 138 133 134 122 118 103 98 83 79 68 56 55 33 21 21 16 18 23 23 18 
138 135 133 127 120 115 103 84 60 50 45 49 61 80 91 108 117 120 121 122 115 108 94 90 95 108 126 139 145 158 158 158 152 154 159 152 143 142 135 129 126 126 135 137 136 145 147 153 156 155 161 161 161 164 165 163 158 149 152 153 146 143 135 124 116 110 106 93 86 75 66 55 39 31 22 17 20 23 20 21 
131 133 132 126 121 107 97 78 67 58 53 61 73 91 105 116 126 129 131 132 121 113 101 95 98 111 129 142 145 160 162 161 156 166 164 157 157 154 152 139 136 136 134 136 135 138 144 149 152 159 162 164 161 160 160 160 158 152 153 153 146 141 133 120 114 107 104 94 91 80 72 63 44 36 27 21 20 22 21 21 
139 137 132 123 110 101 91 82 70 65 62 72 82 102 118 129 143 147 137 140 124 114 101 95 100 110 130 146 151 161 165 164 160 169 171 166 162 162 160 155 147 143 141 139 136 136 140 146 156 158 160 158 158 160 157 159 157 154 155 152 146 144 135 125 119 109 104 99 94 90 76 74 54 44 36 19 21 21 21 24 
109 114 114 103 99 88 83 69 71 63 62 78 90 113 130 136 148 149 145 139 124 115 100 94 98 116 130 143 150 160 160 160 163 166 167 166 163 169 165 161 154 149 147 143 140 137 140 147 153 154 157 161 152 156 153 155 157 155 150 151 145 143 133 126 121 107 104 104 96 88 81 69 58 45 36 25 20 28 22 22 
106 101 105 98 88 83 77 69 64 62 70 79 93 114 134 151 151 155 150 146 127 111 102 93 102 111 129 144 151 162 160 159 163 166 171 166 170 166 169 166 161 157 153 153 142 141 142 137 149 151 151 153 153 152 153 152 153 154 150 151 148 145 140 131 126 112 110 102 100 90 83 79 57 54 41 30 25 27 24 25 
119 107 95 82 77 79 74 76 73 76 67 77 89 115 140 156 158 157 151 139 127 114 99 87 94 105 125 139 146 162 157 159 162 167 168 166 165 168 170 170 165 162 162 159 146 149 143 140 145 143 147 148 150 153 149 151 151 146 149 148 145 144 138 128 125 114 110 100 100 91 85 76 61 51 42 28 27 25 26 31 
118 107 92 81 80 80 83 89 84 85 80 90 91 108 133 154 164 160 151 144 124 110 95 82 88 102 116 132 147 158 160 158 159 167 162 169 162 163 170 166 167 165 167 163 153 145 144 142 144 148 148 148 148 153 145 152 152 147 150 148 140 144 137 132 126 122 116 107 100 95 82 78 63 51 44 30 33 26 27 32 
105 97 92 84 84 90 89 93 100 106 106 105 101 111 118 147 155 154 153 140 122 111 94 82 82 91 107 125 141 155 153 157 163 163 167 168 166 168 165 167 168 164 165 161 157 154 147 140 143 144 142 146 147 145 154 150 146 147 145 146 142 144 140 135 130 126 118 108 106 102 93 82 70 56 49 35 35 30 30 35 
101 95 88 79 83 88 100 105 113 122 126 126 121 123 123 130 146 152 143 131 119 110 92 79 77 78 96 120 132 149 156 155 162 163 163 163 165 174 166 165 169 161 166 164 162 155 150 146 148 143 142 141 144 146 150 153 149 146 142 148 143 144 137 134 133 130 123 116 111 103 92 86 68 60 51 33 35 27 29 38 
95 84 85 84 91 95 106 106 109 121 130 148 148 148 144 145 131 133 137 128 112 99 89 76 72 73 85 105 122 136 144 152 159 161 162 165 161 169 166 165 166 166 164 161 157 158 155 148 149 143 141 143 143 144 144 148 143 146 142 142 142 139 140 136 131 130 126 117 113 99 91 82 66 60 43 32 32 27 30 37 
77 80 86 85 87 101 109 109 116 116 121 133 155 164 161 160 161 141 117 110 101 98 88 74 69 71 75 92 111 128 140 150 156 164 161 164 163 170 163 166 165 167 166 164 161 161 156 149 149 148 142 143 138 140 142 144 142 142 140 138 136 135 136 133 131 132 129 118 107 100 90 79 63 55 47 37 32 29 34 36 
73 81 90 88 90 106 113 112 117 123 123 128 139 156 170 164 158 152 131 105 93 87 80 73 65 67 70 76 94 110 130 141 144 157 165 161 167 167 168 164 164 163 165 159 160 157 158 150 156 149 142 139 136 138 131 131 134 135 133 136 128 137 132 132 130 124 115 115 106 93 87 71 57 56 41 38 31 26 31 35 
68 77 87 88 103 112 112 117 123 125 125 128 138 143 158 168 160 147 132 116 89 83 76 68 69 69 65 70 74 94 118 132 139 153 156 159 163 167 166 168 166 167 167 161 159 158 154 154 155 151 142 138 131 125 113 115 114 110 114 128 132 133 127 127 126 115 112 104 95 86 76 63 50 40 42 35 33 30 28 35 
66 80 88 97 105 114 118 119 125 128 130 138 134 135 145 161 155 144 121 114 96 85 73 67 67 66 62 63 64 81 103 117 135 144 154 156 162 169 165 165 169 164 164 159 158 156 156 150 148 140 130 127 121 120 110 116 116 107 99 111 120 130 125 121 121 114 107 98 82 75 70 55 44 41 38 36 35 32 30 30 
71 78 96 105 112 119 126 121 124 128 132 134 134 141 135 146 146 143 121 102 89 88 71 68 67 66 61 58 55 59 83 99 120 137 152 152 157 163 165 168 166 164 165 164 158 155 153 139 134 127 126 126 122 126 122 122 118 111 103 92 100 120 118 114 109 100 95 85 74 59 58 46 34 32 36 32 36 32 27 32 
75 86 103 104 114 118 131 122 126 129 133 132 138 140 133 140 131 124 115 97 81 78 72 65 65 65 60 56 47 44 57 83 101 121 133 142 151 159 159 165 162 164 163 159 155 152 141 127 128 126 123 122 127 125 123 118 115 111 111 101 77 107 105 105 99 97 88 69 63 57 42 42 28 24 19 22 26 28 25 32 
74 90 105 110 117 127 134 128 128 133 131 137 137 138 130 133 117 108 103 92 78 73 69 67 64 62 56 55 53 54 51 55 78 104 120 135 144 152 154 158 162 162 157 155 148 142 131 127 129 129 128 131 124 129 127 126 125 113 110 105 78 83 94 90 85 81 70 59 55 50 44 38 26 20 21 18 24 27 22 25 
78 93 107 114 126 130 137 138 136 134 134 131 131 134 133 126 114 100 89 87 75 75 67 62 63 58 53 55 50 57 52 57 59 86 102 119 124 141 151 155 155 152 153 151 139 127 127 122 131 134 125 133 132 128 128 124 114 112 108 102 88 72 81 78 75 60 65 55 53 47 40 38 31 31 30 21 19 20 23 29 
83 98 110 119 133 134 142 138 141 139 138 134 128 129 128 117 105 94 80 76 73 74 66 59 58 53 52 52 55 55 58 50 56 71 84 101 112 126 145 143 146 149 149 140 124 123 127 124 134 123 128 130 119 123 123 116 117 106 100 94 83 68 68 66 60 56 52 49 47 47 42 40 33 29 29 25 32 31 24 29 
87 102 119 125 134 140 145 145 141 139 130 136 130 126 116 108 97 81 75 71 68 66 63 58 56 51 52 51 52 61 54 54 52 60 69 82 89 106 121 131 139 139 133 127 121 122 122 123 115 129 121 131 124 115 114 108 103 91 85 79 69 65 60 51 54 45 49 44 43 40 38 39 31 29 33 26 27 36 28 32 
102 115 124 135 142 143 148 140 141 145 135 139 132 123 110 106 93 79 70 66 68 68 60 57 51 49 52 50 52 53 56 55 60 58 69 67 72 88 100 113 119 127 121 122 114 116 121 111 104 121 118 117 112 105 105 99 89 79 77 66 64 62 56 51 55 51 44 43 39 37 38 36 29 32 31 29 32 33 35 35 
114 127 136 136 141 145 149 146 142 138 137 140 127 110 94 87 79 71 69 59 60 59 54 51 49 51 51 51 52 59 56 60 57 63 65 63 60 64 81 93 101 108 114 107 108 102 110 111 111 108 101 101 99 89 82 83 78 68 65 64 61 57 58 47 46 41 46 40 41 38 36 37 30 27 36 31 36 35 40 38 
122 135 141 139 142 141 151 146 145 143 134 138 119 99 82 67 63 62 65 53 47 52 50 48 51 50 50 54 49 55 56 56 59 64 58 61 60 64 67 72 82 91 92 95 94 93 91 92 90 87 84 82 76 77 68 67 66 57 56 59 54 57 53 51 46 43 40 39 44 36 34 32 27 32 36 33 37 40 43 40 
128 136 143 142 144 142 145 148 145 140 136 128 117 100 74 54 43 46 52 48 42 41 40 49 49 53 50 53 49 55 55 60 56 63 61 62 54 62 62 68 76 76 80 78 76 74 72 74 73 69 62 66 64 66 63 60 61 57 49 54 45 51 54 47 44 40 39 33 38 31 34 35 31 33 43 35 39 41 41 42 
136 139 144 143 144 139 147 144 144 140 131 131 113 101 79 52 37 33 36 43 39 43 42 42 45 52 53 56 52 58 57 56 55 58 59 59 58 64 64 70 72 72 73 68 67 69 68 67 63 57 51 50 52 57 58 54 56 56 46 49 48 49 57 48 46 42 38 34 38 34 39 38 34 41 45 40 43 46 42 40 
140 145 153 146 143 147 146 144 143 139 135 122 106 98 83 59 41 27 22 26 39 38 42 44 45 51 55 61 57 58 58 52 51 57 53 50 45 57 58 66 62 71 67 64 60 59 59 58 54 54 46 44 46 47 46 56 54 50 50 50 41 54 50 43 42 43 38 35 38 34 42 45 40 44 47 44 45 51 40 41 
136 148 150 152 144 141 145 142 139 131 132 104 90 74 62 55 45 28 22 25 27 38 42 44 40 54 52 59 56 63 57 47 52 57 52 44 39 52 59 73 64 70 67 67 60 66 57 55 51 51 45 39 40 43 48 52 48 47 49 47 43 48 52 42 39 39 35 35 41 43 46 53 45 52 51 45 48 42 43 41 
146 145 152 142 140 144 140 137 140 133 120 104 82 65 51 41 33 32 20 22 19 24 30 31 32 39 42 47 42 47 51 52 60 58 51 42 42 56 58 65 65 69 64 66 61 58 55 50 54 51 45 44 47 45 47 46 46 43 41 45 47 51 48 39 34 37 38 42 47 48 51 53 52 49 53 50 51 49 43 42 
147 148 148 145 143 142 139 137 135 132 117 106 84 65 47 38 31 29 23 22 18 26 25 24 23 29 32 33 37 39 39 41 38 49 49 51 47 56 62 66 73 67 63 60 61 51 51 53 51 51 44 53 46 42 42 45 43 44 40 43 47 44 47 43 39 43 48 45 50 51 53 61 59 56 53 51 48 50 40 42 
142 147 149 147 148 144 141 140 137 131 116 99 85 72 64 47 40 28 24 25 21 31 35 26 28 27 29 38 34 33 31 35 28 39 40 50 54 58 68 69 73 60 63 58 52 56 56 54 57 52 47 48 48 52 46 46 50 47 44 42 42 50 55 47 51 51 56 55 60 63 65 69 58 64 60 56 54 57 44 41 
127 146 143 141 143 145 138 139 135 126 114 97 78 67 56 52 44 35 35 32 32 40 40 40 40 42 39 39 34 46 42 39 37 44 45 51 50 63 66 71 59 54 59 52 57 52 52 53 54 49 49 47 43 49 45 44 48 46 45 49 45 53 52 51 53 55 58 58 62 62 72 69 64 62 61 56 50 50 39 38 
134 136 135 133 138 141 140 139 136 127 115 99 84 68 53 53 48 41 38 42 41 51 52 54 57 50 55 57 52 53 49 51 46 53 50 50 62 62 69 66 59 58 60 60 53 56 55 53 54 51 54 53 51 55 55 55 60 51 57 59 53 58 62 62 65 62 68 69 74 75 82 75 73 68 64 58 52 46 44 42 
128 133 132 125 125 129 133 131 131 123 114 100 80 71 56 56 49 43 41 41 47 52 57 60 57 58 57 60 58 58 59 49 57 60 57 62 67 67 65 63 56 60 58 56 53 55 56 55 57 60 56 61 57 63 65 68 62 65 69 70 58 68 67 71 66 67 73 81 79 80 84 85 69 69 67 55 55 46 39 38 
130 125 132 125 115 120 119 123 124 123 114 96 83 71 57 55 49 45 42 42 43 48 58 58 61 55 57 59 56 63 56 62 52 62 54 66 66 67 71 50 55 59 54 54 53 53 57 60 65 63 63 66 73 75 73 73 82 76 80 77 68 74 74 78 79 77 83 86 85 85 86 82 77 73 68 52 54 50 38 33 
124 128 122 117 116 114 116 118 114 121 109 93 80 75 56 57 52 45 43 43 42 44 46 51 58 59 62 61 57 66 62 62 53 65 68 69 69 61 69 51 57 55 57 62 59 61 61 58 69 68 71 78 79 89 91 94 94 90 94 88 79 85 86 88 85 86 90 88 92 94 89 93 82 71 72 62 55 50 39 42 
126 124 126 121 116 109 108 108 112 116 100 88 75 66 56 56 50 36 43 46 44 43 41 40 48 55 58 60 60 67 67 64 60 69 69 71 63 71 60 54 55 56 59 64 58 60 65 65 67 74 79 83 85 93 97 100 106 101 96 90 86 103 95 98 99 93 95 95 95 96 88 91 78 74 71 67 55 49 41 38 
130 131 124 121 112 112 104 102 103 108 101 91 76 60 51 50 49 43 44 44 43 45 41 42 41 45 50 57 52 58 59 59 58 65 67 67 65 61 51 54 56 51 59 61 58 63 69 69 72 75 82 88 90 98 102 101 110 106 100 91 91 109 104 102 102 104 102 96 94 95 92 93 81 77 74 59 55 47 37 37 
136 130 132 124 119 110 110 109 108 104 93 86 73 62 54 51 47 41 42 42 45 45 41 44 37 30 36 54 54 54 57 58 59 65 71 61 57 55 57 56 54 59 61 63 65 68 68 67 76 77 93 89 97 108 102 108 111 113 94 97 105 110 112 106 109 105 102 105 99 96 93 90 81 82 75 58 58 51 39 38 
139 133 134 128 120 114 116 113 106 102 93 85 69 62 52 51 44 40 41 41 44 50 42 42 37 29 29 37 46 49 54 51 57 60 66 67 54 52 57 57 56 54 59 60 63 67 70 70 75 82 84 96 96 107 108 112 114 103 93 104 108 114 113 106 109 107 105 99 96 91 92 89 85 81 73 64 53 52 40 31 
138 141 136 127 121 112 117 110 110 100 90 78 64 59 46 43 45 43 44 42 45 49 43 43 37 29 26 33 39 44 58 53 54 54 64 66 51 57 55 59 60 60 64 65 62 67 71 72 80 82 86 98 94 101 106 109 112 96 97 110 113 117 115 109 106 106 100 96 95 90 89 92 81 75 73 62 57 54 41 37 
139 138 136 119 120 116 118 113 109 103 90 75 59 57 46 48 47 40 43 40 41 43 45 38 42 36 26 26 31 37 44 50 51 60 64 63 54 55 53 58 61 60 65 66 65 69 72 72 75 81 87 90 90 101 106 112 102 90 100 113 111 111 109 107 103 100 99 89 90 87 85 83 74 75 68 59 56 48 44 38 
140 139 127 129 121 117 119 114 107 100 90 70 65 50 46 43 46 39 40 40 43 43 44 45 42 38 26 30 28 39 46 50 47 61 65 60 52 53 53 63 64 62 69 66 67 68 76 75 72 77 84 88 92 105 105 103 95 88 99 112 109 107 109 103 101 98 99 96 89 85 81 79 72 76 69 57 56 47 41 45 
140 133 132 125 119 114 121 118 110 99 86 65 56 46 37 46 36 33 39 41 45 50 47 45 45 40 31 28 29 34 43 45 48 59 69 55 47 54 53 61 64 65 69 60 63 68 69 74 81 75 83 83 92 96 98 99 92 92 97 104 112 107 101 94 91 91 88 85 85 79 77 74 70 67 67 57 51 54 44 46 
128 135 136 124 121 118 115 116 109 98 81 66 49 46 40 40 40 39 38 37 41 45 47 43 44 39 32 33 27 32 39 47 55 59 62 50 47 53 56 60 59 64 67 65 61 65 69 74 78 74 83 86 87 90 89 90 87 87 98 104 102 97 94 85 88 87 86 86 79 75 75 70 69 66 69 55 54 54 43 46 
132 131 129 129 115 109 115 116 107 100 81 63 46 38 40 41 35 31 39 37 39 44 43 44 45 41 36 35 27 30 37 44 55 60 60 49 47 49 51 57 59 66 63 63 60 63 67 65 75 72 80 81 86 86 84 81 84 88 98 100 97 94 87 84 80 75 78 75 70 74 71 71 67 60 61 60 53 55 47 51 
132 137 133 125 121 115 117 121 108 97 82 66 47 37 35 39 35 30 33 29 34 38 38 43 50 40 35 36 33 33 38 47 52 64 60 51 43 49 51 51 60 60 65 70 62 66 69 64 72 75 77 86 88 85 78 80 81 94 92 93 88 92 82 77 78 76 74 69 73 72 73 71 66 65 66 65 60 60 52 52 
119 137 133 123 122 113 115 115 105 94 79 61 45 40 25 28 31 29 27 28 25 34 35 34 40 37 31 33 36 30 41 44 51 58 57 44 43 51 52 47 56 59 61 66 66 62 63 65 70 77 76 81 83 82 74 80 81 90 86 92 82 86 74 70 74 69 68 65 70 70 68 68 61 64 65 60 66 70 63 75 


