P2
80 60
87
15 20 22 22 18 19 23 19 21 24 20 24 23 22 23 20 21 23 22 21 20 21 19 17 20 20 22 20 23 23 23 24 21 21 22 22 24 20 22 22 21 22 22 23 23 22 23 23 22 25 22 23 24 25 24 28 25 30 30 25 29 29 28 28 31 30 30 27 34 32 32 29 35 32 36 32 33 31 32 32 
16 17 19 19 16 20 21 21 22 20 20 22 18 27 22 24 18 18 21 18 19 22 19 17 18 20 20 21 19 15 21 22 21 23 22 21 19 20 22 21 20 23 23 23 23 23 19 25 24 22 21 23 23 23 23 27 25 23 27 24 24 25 29 31 26 28 26 27 28 27 32 28 32 30 30 30 34 29 28 34 
17 16 14 19 19 18 19 18 21 19 21 22 22 19 20 20 19 23 19 20 21 18 17 18 18 17 21 18 17 20 19 22 21 20 18 21 20 17 19 18 17 21 21 20 22 18 18 17 21 20 18 19 21 23 22 21 22 23 27 25 24 25 29 25 26 30 28 25 29 28 26 26 29 29 30 27 34 26 29 35 
17 15 15 16 16 19 18 16 17 18 17 21 18 17 23 17 16 20 21 20 15 18 15 18 16 16 18 17 18 16 20 18 18 20 20 19 17 18 19 19 19 19 22 20 22 22 19 19 16 20 20 20 22 22 22 23 22 24 24 25 23 22 26 20 24 26 24 22 23 24 22 25 26 25 28 28 32 26 25 32 
20 19 13 19 17 17 19 22 15 17 17 22 17 22 21 23 18 20 18 19 18 19 15 18 17 18 16 16 16 20 18 20 21 19 19 17 18 20 18 18 18 18 20 20 17 17 19 22 21 22 18 22 24 21 21 23 25 27 28 23 25 23 27 23 28 25 26 25 22 25 27 28 25 24 29 28 33 26 23 27 
16 18 16 17 13 16 18 17 18 15 19 19 17 19 17 17 17 18 19 17 18 17 16 16 20 16 16 16 17 17 22 21 19 17 20 16 16 17 19 17 18 18 21 18 18 21 20 19 18 16 22 17 21 21 22 20 20 21 24 21 23 24 23 22 22 24 24 24 23 24 23 21 24 27 28 25 27 21 19 30 
20 21 16 19 18 19 19 17 17 15 18 16 21 18 17 20 16 18 19 18 20 20 18 17 17 18 19 13 19 20 20 21 19 19 17 18 17 17 20 20 16 18 22 19 19 20 20 26 19 20 19 18 22 22 21 22 21 25 23 24 21 21 23 23 20 24 24 26 23 21 25 24 24 30 30 27 30 27 22 27 
18 21 17 18 16 16 19 17 17 16 16 16 18 19 22 17 18 17 20 17 18 17 17 17 17 18 18 17 20 17 17 18 18 19 19 17 16 18 18 19 19 21 16 19 21 20 20 20 21 21 18 18 21 23 21 23 21 23 24 23 21 22 24 21 20 24 23 24 25 22 27 26 23 25 27 26 31 21 21 26 
17 21 19 19 17 21 21 19 17 19 16 21 23 21 21 19 19 19 18 20 18 19 21 18 19 17 19 19 22 18 18 23 14 20 18 19 17 18 19 20 17 18 22 19 20 23 22 21 25 22 18 22 22 22 23 21 22 22 24 22 23 23 25 24 23 25 22 23 24 24 24 24 27 28 30 27 29 21 22 23 
19 20 16 20 21 18 19 19 21 15 19 19 18 18 23 17 20 18 22 20 20 17 16 19 22 16 21 19 15 18 19 20 17 19 18 20 19 17 20 20 19 22 25 19 22 19 21 19 21 25 23 21 18 21 21 20 21 23 24 25 24 20 22 23 19 24 21 22 25 24 27 25 24 24 26 27 31 24 24 24 
20 22 18 17 20 20 20 17 20 22 20 20 20 16 19 19 22 17 21 19 16 18 19 18 17 19 16 18 18 19 18 20 17 15 17 19 18 16 18 20 19 17 17 19 20 21 22 20 20 19 20 22 19 24 22 22 22 24 22 22 23 24 22 23 23 26 24 21 23 22 26 24 25 28 29 27 29 24 22 22 
20 18 19 19 23 18 18 18 17 19 16 19 15 22 18 19 21 22 23 21 23 17 18 21 20 17 18 17 19 18 19 19 20 21 20 17 19 21 18 21 17 18 20 21 21 23 19 18 20 20 21 19 20 23 22 25 24 22 21 23 21 23 25 24 22 22 24 26 22 25 26 27 23 25 26 25 30 22 19 22 
15 18 18 19 17 20 17 18 17 18 18 19 18 19 17 19 17 18 22 22 21 17 18 16 16 17 16 19 18 16 18 19 19 19 18 20 19 18 17 18 19 17 19 17 17 19 20 19 19 21 18 19 21 25 18 21 24 24 20 22 23 21 20 23 22 24 24 23 21 25 24 23 22 24 26 28 29 25 21 18 
18 20 19 17 18 19 15 18 18 19 15 16 17 17 20 15 19 22 22 23 21 20 20 14 16 16 16 15 15 16 17 17 18 19 19 17 18 16 20 17 16 17 19 19 19 18 18 17 21 19 19 20 18 17 20 21 22 22 23 23 21 20 22 24 22 21 22 24 22 24 24 21 22 28 26 27 25 24 18 20 
21 19 17 20 19 17 19 16 17 17 21 17 14 17 18 17 20 21 19 20 19 19 17 18 16 15 17 15 19 18 20 20 19 19 19 18 19 16 17 21 15 16 15 16 18 18 15 19 20 16 18 22 20 22 20 21 21 20 19 23 22 21 23 20 18 22 25 17 24 20 22 26 22 20 26 25 27 24 22 21 
20 16 15 16 15 14 16 17 14 15 14 18 15 17 16 20 20 18 21 21 20 18 14 14 14 15 14 15 16 14 19 15 17 17 15 15 17 14 15 13 17 13 14 14 14 19 16 15 18 18 17 14 17 20 16 20 20 18 19 20 20 16 18 21 22 20 19 21 22 21 21 19 23 22 26 23 28 21 20 22 
20 20 19 15 18 18 16 20 22 20 17 20 23 23 22 22 23 24 20 20 19 20 19 18 19 16 17 16 15 17 16 20 18 18 16 16 16 16 16 16 15 16 17 16 15 15 17 20 18 17 17 20 20 21 18 22 21 17 20 22 22 21 21 22 20 23 22 21 20 23 26 17 22 26 26 22 30 25 23 22 
20 21 18 25 20 18 18 20 22 22 24 27 27 27 26 27 20 20 22 21 23 20 16 18 15 16 15 16 18 14 19 18 17 15 17 18 15 16 15 13 16 13 18 15 18 18 15 17 17 18 18 17 20 20 16 18 19 20 21 17 19 22 20 22 20 22 22 21 21 20 20 21 22 31 24 26 30 24 20 21 
18 21 20 19 19 18 19 17 19 23 27 27 29 24 28 22 23 20 20 20 22 19 19 20 18 18 17 16 18 16 17 16 15 13 16 14 16 16 14 16 16 14 16 17 17 16 19 14 17 14 17 17 15 15 17 20 18 20 17 18 21 18 19 20 17 21 19 20 21 22 22 21 22 24 24 23 28 24 22 27 
21 20 22 20 21 17 22 21 23 23 28 30 30 33 26 21 20 21 18 22 18 20 20 17 17 16 15 16 16 14 16 17 17 16 19 17 14 14 14 18 16 16 17 15 17 14 16 14 16 17 16 15 18 15 17 15 17 20 17 18 20 19 19 20 18 20 22 20 22 20 23 22 25 19 24 22 24 23 20 21 
18 20 21 21 21 19 23 23 23 26 26 29 30 32 26 23 19 20 21 17 19 21 17 19 18 18 19 15 14 13 17 17 13 16 16 15 13 17 12 13 16 18 15 16 17 15 14 17 20 16 16 16 15 17 17 17 18 17 19 15 15 17 21 21 16 20 22 21 19 19 20 22 25 23 24 24 25 24 20 22 
20 16 18 20 17 19 24 24 26 28 29 27 31 32 28 23 20 20 19 20 18 21 15 17 17 17 16 15 20 16 17 16 17 18 15 18 13 13 17 19 17 13 16 17 16 13 17 18 20 18 17 15 18 16 18 17 19 16 19 21 20 19 19 21 19 22 20 19 17 19 19 23 21 22 25 23 23 23 20 20 
15 14 16 21 18 24 25 23 26 29 31 31 26 30 29 24 21 19 22 23 16 20 16 19 17 16 18 15 17 16 17 16 17 19 19 18 15 15 17 15 15 15 19 15 17 17 13 16 17 17 17 16 18 18 17 16 18 18 20 19 20 20 21 24 19 20 21 19 21 23 24 24 23 21 23 22 30 22 20 22 
17 13 15 17 26 29 30 27 25 36 30 32 23 23 25 21 19 19 20 16 18 18 18 18 17 14 14 19 15 16 18 14 17 17 14 14 16 15 15 17 17 15 15 16 12 16 13 17 15 16 15 16 18 16 16 19 20 17 16 22 20 21 18 20 19 23 21 19 26 23 24 25 22 17 22 21 28 23 19 21 
21 20 23 35 32 32 35 35 35 41 35 30 30 25 24 22 20 18 21 18 22 18 19 15 17 17 15 16 15 17 14 19 18 19 17 20 20 17 17 17 14 17 18 19 16 17 16 16 16 17 18 19 18 20 20 16 19 22 20 23 21 20 24 23 24 22 25 23 24 23 21 21 27 24 24 25 27 29 19 21 
22 26 27 35 35 34 39 38 38 41 37 32 25 25 21 16 17 20 19 16 18 18 15 15 14 13 17 15 16 18 17 18 19 17 21 19 15 17 19 17 17 17 19 17 17 16 18 19 20 15 15 16 17 15 18 18 18 18 19 23 23 22 26 22 21 19 24 21 22 21 25 21 23 25 24 26 28 24 21 20 
28 30 29 36 38 38 37 38 36 41 35 31 24 22 19 18 19 18 19 19 19 20 19 15 13 16 17 19 15 19 16 14 23 15 22 19 18 19 21 20 20 18 18 18 19 19 16 18 18 18 17 15 18 19 19 17 19 20 21 21 22 22 22 21 24 22 23 26 25 24 24 20 20 27 25 26 32 20 21 20 
36 34 34 36 37 40 40 40 37 39 31 29 19 20 21 16 18 20 20 19 16 17 16 17 17 16 15 17 17 16 15 15 19 18 20 18 16 18 17 18 18 18 19 19 17 17 14 20 20 16 19 19 16 18 17 21 18 18 21 21 23 23 21 23 20 23 22 22 23 22 23 23 22 25 28 24 27 21 21 17 
37 37 38 38 36 37 40 41 39 32 30 25 23 18 18 19 21 16 21 17 20 19 16 17 14 16 18 19 17 16 17 17 21 20 22 20 16 19 22 20 20 18 21 19 15 18 19 17 19 19 20 16 19 21 16 19 22 21 19 22 17 22 21 25 22 25 22 23 20 20 21 22 25 25 24 23 29 24 22 22 
42 37 40 42 41 38 37 39 44 32 22 23 20 19 21 18 17 19 21 20 21 19 21 16 18 15 17 17 16 15 20 19 20 19 22 18 20 20 23 20 17 19 18 20 18 17 21 19 18 19 19 18 19 18 19 20 18 21 20 22 22 23 24 25 20 24 22 21 25 23 24 21 23 26 25 22 26 19 21 21 
46 45 45 40 41 40 40 36 36 32 23 23 26 21 19 19 19 19 19 19 18 19 17 19 17 18 17 20 20 17 17 20 21 21 20 20 23 20 23 18 19 21 20 20 19 20 19 21 19 21 22 21 21 21 19 21 17 20 21 20 21 22 21 25 19 25 23 21 24 23 23 21 22 26 25 26 27 22 21 22 
41 41 43 44 38 39 40 37 36 29 27 23 21 22 22 22 21 21 23 21 20 21 17 22 20 17 16 18 17 17 20 20 21 22 22 19 21 21 22 22 19 18 20 19 19 19 18 20 19 21 18 20 19 20 17 20 20 20 21 22 23 25 24 25 23 22 23 25 24 20 24 22 22 25 26 23 28 20 16 20 
44 42 46 49 42 41 41 34 31 30 26 24 23 24 22 21 22 22 22 24 19 21 21 23 18 19 18 20 19 18 21 21 23 25 22 22 28 22 22 21 19 16 21 19 20 16 18 19 17 21 22 19 22 20 19 20 19 23 21 21 22 22 23 22 23 21 23 25 24 24 23 23 24 25 26 28 28 19 16 18 
45 44 41 43 47 40 43 36 29 28 26 24 22 24 22 25 22 21 22 23 21 21 22 20 21 18 15 19 22 20 21 23 26 25 24 24 24 22 20 24 19 20 20 20 20 19 20 19 21 21 23 22 23 23 25 24 23 24 23 21 23 23 27 26 24 23 23 23 23 25 23 23 24 26 25 27 28 22 18 21 
47 44 40 36 34 38 37 33 27 29 23 26 21 25 25 22 21 23 23 22 22 22 19 22 22 20 20 19 21 22 23 24 25 27 25 24 28 24 24 22 21 22 20 23 21 23 21 22 22 24 21 23 23 21 23 24 24 23 27 25 23 24 26 24 24 26 28 24 26 28 24 23 26 26 24 24 28 21 18 19 
53 47 39 40 31 30 33 28 24 28 24 26 22 23 23 21 21 22 21 21 24 19 20 17 18 18 19 18 22 26 22 28 26 25 26 27 24 23 26 24 25 22 24 21 22 21 23 21 20 23 23 21 22 24 21 27 25 27 25 25 26 23 28 26 24 23 24 25 23 25 26 25 29 27 24 24 26 21 18 19 
55 56 43 36 35 31 29 27 26 24 26 25 20 24 20 22 20 24 24 21 22 21 16 16 18 21 20 23 26 27 25 24 25 27 24 25 25 25 27 26 26 28 24 23 24 22 25 22 23 24 22 23 25 22 22 28 28 27 26 26 23 25 25 24 26 28 26 24 22 23 27 25 29 29 25 25 28 22 19 15 
52 53 51 37 31 32 27 28 25 24 24 23 19 25 20 20 22 22 23 24 22 23 17 18 21 18 20 24 24 25 26 23 28 25 25 26 24 26 25 27 25 24 25 25 23 23 22 20 24 22 23 23 24 26 24 26 27 24 25 25 25 24 27 28 26 25 26 27 26 23 25 26 23 28 28 27 28 21 20 23 
59 51 45 47 33 29 27 27 24 24 25 20 21 24 23 22 25 27 25 21 24 19 14 15 18 21 22 24 25 25 29 28 28 23 24 26 27 29 25 28 26 27 25 23 26 25 25 26 24 23 23 24 24 24 25 26 28 28 26 25 23 26 26 27 27 27 27 29 24 26 26 28 27 30 29 28 31 23 23 20 
62 60 46 46 31 29 29 26 22 24 23 21 23 23 20 23 25 26 27 21 21 19 21 17 20 21 27 25 28 26 29 28 27 26 27 27 28 28 27 26 25 25 28 27 28 28 27 26 25 26 25 26 25 24 29 28 29 27 28 29 24 25 25 25 24 28 30 28 29 27 28 25 26 28 28 27 31 23 23 24 
64 64 54 36 32 30 25 26 27 26 24 27 24 23 24 27 22 25 27 23 22 23 20 23 21 27 28 27 28 26 26 29 30 27 30 26 31 29 28 26 29 26 29 27 25 27 24 27 24 25 26 25 24 26 27 27 28 30 28 30 26 22 27 27 26 29 30 30 30 30 27 27 26 29 32 29 33 27 24 23 
71 68 44 32 27 29 27 25 28 29 26 22 22 24 24 26 24 26 26 20 21 23 21 22 27 27 31 29 29 27 26 28 29 31 29 27 28 27 27 27 27 26 31 25 28 27 26 27 26 26 26 29 27 26 26 26 28 30 31 29 31 25 26 27 26 32 30 30 28 31 28 28 27 29 30 31 31 29 20 24 
71 68 46 34 28 25 27 23 27 27 26 25 26 24 27 26 25 22 25 21 20 24 20 25 28 28 31 28 28 28 30 30 30 33 33 27 25 27 28 26 27 29 31 28 28 28 26 26 25 27 28 26 29 24 29 27 26 28 30 26 25 24 23 25 25 33 31 30 33 29 32 29 29 27 27 31 30 27 17 26 
80 58 35 28 24 25 28 29 26 23 24 26 25 25 25 25 23 22 25 24 21 21 20 29 27 31 28 29 30 31 32 31 32 36 29 28 29 29 28 26 27 27 28 28 30 29 30 28 25 29 27 28 29 28 28 27 26 28 28 30 26 26 28 27 25 28 29 28 31 30 29 31 28 29 30 25 31 26 23 23 
87 48 33 27 27 28 26 27 30 24 27 28 29 25 26 26 24 24 26 23 26 26 29 30 32 33 28 32 29 31 29 30 35 32 33 33 31 28 29 27 29 26 29 28 30 28 30 26 28 31 31 28 30 30 30 31 27 30 30 29 27 30 28 34 27 31 32 33 32 32 29 30 28 29 31 25 31 27 22 24 
73 38 31 27 28 28 28 28 30 31 31 33 30 31 28 26 28 27 27 26 27 32 33 31 34 33 33 34 32 33 36 30 35 34 35 34 33 33 35 30 29 29 29 31 32 31 32 29 30 31 31 30 34 31 28 34 31 31 30 30 31 28 29 31 28 30 33 35 31 36 31 33 30 32 33 32 38 28 27 27 
49 31 25 31 26 24 32 24 28 29 30 30 31 32 32 28 29 28 31 28 29 35 33 35 35 35 34 34 34 35 36 35 32 35 36 33 34 33 31 33 33 32 32 30 31 30 32 32 30 30 27 33 35 33 31 36 31 33 31 28 30 32 27 28 29 31 33 32 34 33 33 31 31 32 33 33 33 29 26 32 
31 21 27 25 22 24 28 23 26 28 30 31 33 30 29 28 25 27 27 28 34 34 32 36 35 37 34 35 36 34 38 34 35 36 34 34 36 38 35 34 30 31 30 34 33 34 32 34 34 33 35 33 34 39 36 34 31 32 29 26 27 28 26 32 33 29 29 31 31 32 32 30 31 32 32 29 36 31 27 27 
24 18 18 14 16 17 27 21 27 28 29 28 32 28 26 22 28 29 31 34 34 38 34 34 36 36 37 35 35 35 36 36 36 36 32 36 36 36 34 36 33 33 35 35 34 34 34 35 34 33 32 34 38 34 37 35 35 33 34 31 29 29 30 33 32 32 29 30 31 32 27 31 34 29 32 31 35 26 26 35 
22 22 12 7 10 10 20 20 24 25 32 29 30 27 28 23 26 28 36 35 35 36 33 37 34 38 35 35 34 33 38 36 35 39 32 34 34 37 35 38 36 35 36 36 34 37 35 36 37 38 36 38 38 34 37 36 34 30 34 30 32 33 30 34 32 30 31 31 32 34 34 30 33 30 32 32 36 29 27 31 
21 16 4 2 4 12 17 16 21 29 31 28 27 24 26 25 26 28 35 37 38 40 35 35 36 38 35 37 36 36 39 36 37 36 39 36 36 37 36 35 34 31 35 31 33 37 34 35 35 35 39 40 41 39 40 36 34 34 35 34 33 35 32 35 33 33 30 27 29 32 30 33 34 33 34 34 35 31 26 26 
23 18 10 16 7 4 8 17 22 32 30 26 24 24 23 23 28 29 31 34 39 41 37 36 36 38 36 36 37 35 37 38 36 37 36 34 36 39 37 35 36 34 37 33 33 34 36 35 38 40 42 44 41 34 32 33 35 31 36 36 37 37 36 34 36 35 34 29 30 33 35 31 33 35 34 34 36 29 27 29 
26 23 18 16 13 8 11 13 19 23 21 21 23 26 25 27 33 42 39 36 37 43 42 39 39 40 38 39 39 39 38 38 37 35 33 36 34 34 35 33 36 35 36 38 36 36 34 41 37 43 41 43 41 38 34 34 35 33 35 35 37 36 36 33 35 35 36 33 33 27 32 32 34 38 39 33 39 34 26 29 
22 25 21 15 16 16 19 17 16 18 18 16 21 23 23 24 46 51 50 49 40 42 39 45 41 41 42 39 38 36 38 42 39 35 36 36 34 33 34 35 36 35 37 37 36 39 35 37 37 41 44 40 45 36 35 29 33 33 33 36 35 35 33 34 36 37 35 35 31 31 29 36 32 38 36 36 38 32 28 34 
22 27 18 19 22 21 22 23 14 13 10 13 19 19 23 41 53 56 54 56 50 53 46 44 42 42 44 43 45 37 38 38 38 39 39 42 39 35 34 36 35 37 38 39 40 40 37 41 39 36 43 43 44 37 37 36 31 32 33 33 36 36 36 36 34 34 35 33 36 34 30 34 33 35 35 33 39 31 31 33 
21 23 19 19 19 21 29 24 20 16 11 10 16 16 32 54 57 56 55 57 54 54 49 49 47 46 44 44 43 44 41 41 41 41 39 38 41 38 37 36 35 38 40 38 37 37 41 41 39 36 36 42 42 40 41 38 36 38 32 31 29 30 34 37 32 35 34 32 31 31 28 32 36 38 37 38 40 36 31 33 
25 27 23 24 24 25 25 26 20 19 16 16 13 16 54 60 59 58 59 61 58 58 55 56 55 53 51 47 48 49 42 44 43 43 42 43 41 40 40 36 40 41 39 40 43 43 43 43 43 45 38 43 44 42 40 39 36 39 35 37 36 37 40 37 37 34 35 37 34 33 31 32 36 34 42 36 40 35 35 33 
24 26 23 26 23 21 26 23 20 22 20 14 16 45 58 63 59 60 62 62 58 57 55 57 57 60 58 53 49 47 47 51 49 47 43 44 42 40 41 40 38 41 42 40 41 42 47 48 48 47 41 34 38 39 40 39 44 42 39 36 37 37 38 41 36 37 39 37 34 39 36 31 37 38 39 38 42 37 33 37 
30 27 28 33 28 21 20 17 17 19 24 24 44 64 70 66 68 66 62 62 65 64 65 62 62 61 63 61 61 56 54 56 52 53 49 51 46 46 44 43 43 42 45 41 44 48 54 50 50 48 42 40 42 39 44 38 45 41 41 43 44 41 39 40 42 38 43 39 44 39 38 37 40 40 41 37 43 39 35 35 
24 30 30 35 31 25 13 0 13 18 26 35 67 69 69 72 67 69 71 69 71 66 68 63 62 68 63 64 66 65 63 59 55 57 55 58 49 48 52 49 47 47 46 44 46 51 54 50 54 48 47 40 42 38 42 42 44 45 46 43 43 40 41 44 43 43 42 43 42 42 40 39 41 43 45 41 46 39 35 33 


