P2
80 60
256
52 49 51 54 53 53 53 55 52 46 48 49 49 50 45 43 46 43 39 45 40 40 42 41 34 37 37 36 35 36 35 37 39 35 41 35 36 36 35 34 32 35 31 33 32 31 31 34 35 39 35 39 39 41 38 41 42 40 42 40 42 44 43 44 41 38 41 41 45 43 45 46 47 43 48 47 47 44 41 41 
52 51 53 57 55 57 53 51 50 49 49 45 46 48 46 46 44 42 40 38 39 39 39 40 36 40 37 39 39 35 38 37 36 37 39 39 38 34 35 37 35 36 35 34 34 33 33 37 36 37 34 39 39 39 40 41 41 43 43 41 43 42 46 45 39 41 40 42 39 41 39 46 46 45 45 45 45 42 40 42 
53 46 52 53 51 54 49 50 48 50 45 50 46 46 47 45 42 41 36 40 38 40 40 39 38 35 38 39 39 34 36 36 37 37 36 37 36 34 35 37 35 35 32 33 36 36 33 37 37 40 37 36 37 41 41 42 41 43 40 41 42 40 44 44 42 38 42 44 41 41 43 43 47 48 45 49 48 42 41 42 
46 51 55 54 50 51 51 48 47 46 51 49 48 47 43 44 42 36 39 35 36 38 42 39 38 36 37 38 37 40 39 39 38 35 39 37 38 38 35 35 34 35 33 30 33 33 35 37 37 39 38 35 38 39 39 40 43 42 43 40 43 39 41 43 43 41 44 45 40 40 40 43 46 46 45 42 47 46 41 44 
51 44 51 54 50 49 47 46 46 51 50 48 44 47 42 45 39 38 33 36 40 38 41 40 37 35 38 37 40 37 36 36 37 38 36 37 35 37 34 37 33 37 33 34 35 32 32 36 36 39 38 39 40 40 39 40 39 43 41 40 44 40 42 42 42 42 42 42 39 40 44 45 44 49 48 43 44 43 40 35 
45 43 49 49 49 51 47 50 45 45 50 51 46 46 42 45 36 33 37 39 36 38 40 39 36 38 36 40 34 38 38 37 34 39 39 39 38 37 33 36 35 32 34 33 34 33 34 32 36 37 38 38 39 39 41 41 39 38 40 42 41 42 41 43 44 45 44 43 43 38 39 46 43 48 47 44 44 43 37 37 
45 38 43 45 46 47 49 52 48 47 49 50 46 41 43 40 41 35 37 36 36 34 41 39 39 37 41 37 36 38 37 34 39 37 38 41 37 36 35 36 36 38 34 34 34 30 36 38 39 37 38 37 39 38 41 38 39 40 39 42 42 42 39 40 42 39 40 43 40 39 41 41 46 44 46 43 45 40 38 45 
41 41 43 43 45 44 48 53 47 45 48 45 41 41 39 38 38 36 36 35 34 37 39 39 39 38 40 38 39 36 35 35 40 37 38 40 40 35 38 35 36 36 35 35 36 34 35 35 38 36 38 37 41 40 42 40 40 38 40 38 41 39 43 42 40 42 44 39 44 40 45 44 46 45 42 44 44 41 39 43 
39 38 42 42 44 46 47 47 47 45 48 43 38 40 40 39 37 37 36 37 37 38 40 42 39 40 43 40 39 37 34 36 36 39 36 36 37 37 38 38 41 36 34 35 36 34 36 36 37 40 42 39 39 41 40 40 40 41 41 40 44 40 41 42 44 44 45 45 42 42 44 44 47 44 45 43 42 41 40 41 
38 35 40 40 41 44 43 44 45 45 42 41 39 38 39 43 37 41 35 36 34 37 39 40 40 38 39 41 37 39 35 38 35 38 38 38 39 37 38 40 36 36 37 35 37 36 36 37 40 39 38 36 39 42 43 40 43 40 41 43 43 42 42 44 42 46 44 45 44 42 47 47 49 44 45 42 42 44 42 45 
38 35 39 42 39 42 41 43 39 41 40 38 39 42 40 41 39 41 39 38 37 36 38 42 40 39 40 42 38 38 35 39 39 37 36 39 39 38 39 39 37 38 36 37 38 38 38 38 40 39 36 41 39 40 40 37 42 39 40 40 44 40 43 42 40 44 45 43 43 42 44 45 44 43 43 42 46 42 38 44 
34 32 33 39 36 41 38 44 39 43 40 43 40 41 44 44 39 40 39 37 37 37 36 40 37 40 37 39 37 36 38 39 39 41 36 37 40 36 40 42 40 37 37 35 37 35 36 38 38 42 40 39 39 42 42 37 43 39 41 41 43 43 40 44 44 45 45 42 45 43 48 44 47 46 45 46 45 47 40 45 
32 24 30 35 35 40 42 45 38 43 40 39 39 37 39 44 40 39 37 38 35 34 37 41 38 36 38 36 38 38 36 39 39 41 36 38 37 36 39 39 38 37 34 38 35 35 38 40 40 43 39 39 39 40 37 40 39 39 40 40 42 42 40 42 45 45 46 43 43 45 44 43 45 41 43 43 45 46 43 39 
26 22 30 35 33 42 38 43 42 40 37 36 39 38 38 39 39 38 36 35 38 34 37 40 36 39 36 39 35 40 39 40 37 38 36 39 39 39 40 41 37 36 36 38 34 38 37 39 38 38 38 41 42 40 39 40 39 39 37 42 42 41 40 44 44 44 42 46 44 44 43 42 43 43 43 41 45 46 47 43 
27 20 29 32 35 38 44 43 41 39 40 41 38 37 35 39 40 38 38 39 39 35 36 37 40 40 38 40 39 38 36 41 38 40 39 38 37 39 40 40 38 35 38 37 38 39 39 39 38 44 41 38 41 39 40 38 42 41 40 42 42 42 42 46 44 41 43 43 42 43 43 44 44 44 44 45 47 48 43 46 
26 21 27 35 40 41 43 43 40 39 39 39 36 39 38 36 38 35 34 34 38 35 35 37 36 39 40 38 34 39 37 39 40 37 37 35 35 39 40 39 39 37 39 34 37 38 38 40 40 36 40 38 38 40 37 37 39 39 39 38 38 41 41 42 44 40 42 42 40 44 42 42 43 45 43 43 45 46 41 40 
26 18 26 43 48 48 46 43 41 44 40 41 40 39 36 36 39 37 36 38 37 40 39 39 37 39 38 40 38 37 39 38 39 38 36 40 35 40 44 41 36 40 41 38 39 37 41 39 39 39 41 37 42 37 36 41 41 40 40 41 44 44 41 44 45 42 46 46 43 44 44 41 44 44 46 43 46 46 42 46 
19 20 24 39 51 53 51 50 41 44 44 42 40 38 39 38 40 39 37 38 37 41 40 42 42 38 41 40 40 38 39 40 40 40 37 37 36 41 40 42 41 39 42 38 40 40 39 39 38 40 39 39 40 41 41 40 43 39 42 43 43 39 42 44 46 46 46 44 43 42 45 44 42 43 47 44 49 50 44 43 
21 19 25 40 46 51 51 55 48 44 40 42 40 35 39 37 37 40 38 38 39 38 43 37 39 42 44 44 38 38 38 39 38 39 39 40 40 40 39 39 39 38 40 40 39 37 39 39 40 40 42 40 43 43 40 41 42 41 40 42 46 41 43 47 48 45 46 46 46 43 43 44 42 45 47 47 51 48 42 41 
17 11 22 36 43 49 56 50 45 44 41 43 46 40 39 38 39 39 37 40 37 38 39 41 42 43 42 40 42 37 37 41 41 38 38 39 40 39 37 40 41 42 40 38 36 41 41 40 41 38 41 42 42 44 42 42 43 41 40 41 45 43 46 46 48 47 45 43 46 43 43 41 44 46 45 45 48 48 46 43 
18 14 21 30 35 40 53 48 41 42 44 44 49 45 40 38 41 35 38 37 38 36 39 41 41 39 42 40 36 40 38 45 40 37 40 40 41 39 40 42 40 40 42 39 42 40 42 39 43 42 41 42 41 43 44 45 44 44 44 42 41 42 46 47 50 48 47 47 47 43 45 42 47 46 46 45 50 49 44 43 
18 14 22 25 29 33 44 44 39 39 48 47 52 46 44 42 41 39 35 36 42 39 38 39 45 41 40 42 44 38 38 39 42 40 39 39 37 42 41 45 42 42 44 38 40 41 42 42 43 45 43 46 42 44 44 42 46 47 44 43 43 44 49 50 47 47 47 44 46 43 45 46 41 47 46 48 48 47 42 42 
15 14 17 23 25 29 34 38 38 42 47 47 49 53 43 43 40 37 36 38 40 44 39 40 41 40 39 41 42 41 38 40 41 41 40 42 40 41 43 42 42 41 38 40 44 41 40 43 43 42 45 45 46 44 43 43 42 44 44 42 47 49 49 47 46 46 46 46 46 43 45 42 45 44 45 47 47 49 44 44 
13 9 18 17 17 25 25 34 37 41 45 43 45 54 43 42 37 34 36 34 38 42 42 41 39 40 45 40 41 36 38 41 40 38 38 40 39 44 40 41 41 40 40 41 40 38 41 39 41 42 42 43 42 44 41 43 45 43 43 43 47 47 49 48 48 47 45 46 43 45 41 42 46 44 47 47 47 46 43 40 
8 10 19 15 18 22 28 32 32 37 44 43 45 54 46 43 33 32 34 34 38 39 43 40 40 44 44 44 43 44 45 42 41 41 44 45 42 43 44 42 42 42 41 42 43 42 44 42 44 45 43 49 47 46 48 44 49 48 49 45 48 47 49 49 46 47 46 43 44 42 46 44 48 50 50 49 48 48 43 39 
6 5 13 19 15 22 28 29 34 34 48 49 46 46 42 42 37 33 34 37 35 39 40 43 43 45 43 44 46 44 45 45 42 46 48 45 42 45 43 44 44 46 43 42 43 43 44 43 45 45 48 47 47 49 51 48 52 45 47 48 49 49 50 53 52 48 50 47 46 44 51 47 48 48 48 49 49 48 42 39 
6 0 7 19 13 22 27 25 28 36 48 55 50 41 33 38 36 32 34 36 38 38 40 42 45 44 43 44 44 43 44 44 41 47 43 45 43 42 42 45 41 40 41 44 45 44 46 46 44 47 47 48 50 51 51 46 50 47 52 48 49 50 47 51 50 48 47 48 47 40 45 51 49 50 49 47 47 47 44 45 
10 5 5 11 14 17 21 23 26 40 44 56 49 37 30 37 33 35 36 38 38 38 39 43 45 44 45 42 44 42 44 46 43 43 41 42 42 45 44 47 45 39 42 39 44 43 44 45 47 46 47 49 50 52 50 48 51 50 49 49 51 49 51 51 53 51 48 49 47 49 49 48 52 51 53 47 50 51 47 45 
9 6 9 8 9 15 16 21 25 36 41 42 34 37 33 31 33 30 31 35 38 37 39 43 44 42 42 44 47 45 41 45 44 44 41 43 44 46 44 46 44 43 45 44 46 47 47 46 48 50 49 52 51 53 53 51 53 50 50 48 50 50 48 49 52 50 47 46 45 49 47 50 48 49 49 48 49 47 44 39 
12 6 13 6 2 13 17 20 23 35 32 30 29 35 33 32 34 34 33 33 36 38 39 41 41 42 45 44 47 47 44 46 45 43 41 45 43 47 48 52 49 44 47 48 50 48 51 47 47 48 48 48 52 52 51 53 55 55 51 48 50 51 52 52 54 50 48 46 48 47 49 50 51 51 49 47 48 48 43 44 
10 7 13 11 7 12 14 19 21 23 24 28 24 28 30 32 36 36 34 33 36 41 37 41 44 43 43 41 42 48 48 45 45 45 48 49 49 50 49 51 49 50 50 51 52 50 52 53 52 50 50 54 52 53 52 54 54 54 55 54 53 50 52 52 56 49 49 50 48 49 50 51 53 46 50 51 50 49 40 49 
6 8 11 10 5 9 9 13 17 18 25 22 24 23 24 28 29 34 33 32 37 41 39 37 41 40 43 42 45 45 45 44 44 44 43 49 51 52 54 53 48 49 50 54 56 55 55 57 55 51 50 51 55 54 53 51 55 56 56 58 54 54 55 56 54 51 51 51 47 50 47 49 49 49 51 50 48 46 45 43 
5 7 9 14 9 10 10 10 16 15 19 19 26 25 24 25 29 31 32 31 32 39 39 42 42 44 42 40 43 48 45 44 45 47 48 52 53 55 58 54 53 50 53 54 54 56 58 57 58 55 55 51 54 60 56 53 56 55 55 56 56 54 54 56 52 51 50 50 51 53 47 48 50 51 47 50 46 49 47 48 
4 1 8 11 9 9 8 10 12 15 18 17 24 25 19 27 26 32 33 31 31 37 41 40 40 43 45 45 47 48 47 48 49 50 58 60 61 62 60 62 56 58 58 59 56 62 59 59 59 60 57 53 55 57 58 59 56 58 57 59 55 55 59 57 53 52 54 52 50 50 48 53 54 51 51 49 49 47 44 44 
8 1 4 7 4 5 4 13 7 12 19 16 20 21 20 21 22 27 29 32 31 33 43 44 40 45 45 47 49 51 47 53 53 58 65 66 68 67 66 66 63 59 59 62 59 59 62 63 62 60 60 58 58 58 55 57 60 58 58 58 61 58 56 57 51 52 50 50 52 52 55 50 51 51 52 45 48 46 42 49 
12 11 3 6 9 5 5 9 8 12 11 14 15 22 19 21 24 24 31 34 32 34 35 44 38 43 48 47 52 53 54 61 59 63 68 64 67 67 68 68 66 68 63 64 62 62 63 62 62 60 61 59 61 62 60 62 58 56 60 60 57 56 56 58 54 53 55 53 50 51 51 47 52 55 52 48 53 49 49 46 
14 7 10 5 8 10 6 5 6 10 12 9 13 19 19 19 22 22 29 37 31 32 35 41 45 44 48 50 58 56 58 64 66 67 70 67 70 73 73 72 69 69 68 68 69 64 67 65 63 62 61 61 63 63 64 59 62 60 60 57 59 60 59 57 54 52 55 52 53 54 52 52 56 53 52 49 49 51 49 45 
13 12 11 9 4 6 6 7 3 7 10 7 9 15 18 20 19 21 25 32 34 32 35 40 43 45 47 53 57 58 60 68 67 69 72 70 70 72 74 73 73 72 70 69 70 69 69 67 68 67 67 57 62 63 67 62 63 60 62 59 58 57 56 57 55 53 56 56 53 55 53 52 52 55 55 50 48 47 48 45 
10 10 13 15 10 7 5 7 6 7 5 7 9 11 12 19 18 19 23 30 32 27 32 41 43 43 47 50 58 60 63 64 69 74 76 74 74 72 76 75 74 75 73 75 74 74 72 71 71 70 66 64 61 62 69 64 67 62 61 64 59 59 60 58 58 55 52 54 52 54 49 55 52 55 53 50 50 54 47 46 
12 13 15 15 10 3 6 8 4 5 6 7 9 8 12 17 18 20 20 27 32 31 33 43 44 40 50 51 57 62 67 69 68 69 77 76 78 77 77 76 77 74 78 77 78 80 76 73 73 71 70 66 61 66 67 66 66 63 60 64 61 62 62 56 57 57 57 55 53 56 54 52 57 54 52 52 50 53 49 46 
12 10 19 16 6 4 6 9 6 6 3 9 7 10 10 19 18 16 21 23 31 33 30 38 42 42 46 53 64 64 68 72 75 72 77 79 81 80 82 83 80 77 81 82 82 80 81 77 74 75 76 69 66 63 67 68 68 67 66 63 64 62 64 62 62 59 57 57 52 52 53 56 56 58 56 54 53 53 48 46 
4 10 16 11 3 8 2 6 9 7 3 5 6 5 11 15 18 14 17 20 29 31 31 35 46 44 45 48 60 66 71 73 74 75 75 80 79 81 84 86 85 84 87 90 84 78 82 81 76 75 76 73 70 63 67 69 70 67 63 64 66 66 62 65 65 60 56 57 56 56 58 59 59 57 57 54 54 55 49 51 
17 6 10 6 6 3 4 4 4 2 6 5 8 9 10 12 17 15 15 18 21 31 29 32 43 47 46 50 54 62 69 77 76 76 77 84 83 82 85 88 85 91 88 91 88 81 81 84 78 82 80 78 71 66 66 68 70 66 67 67 63 64 64 65 62 62 62 58 55 56 57 56 59 58 57 54 53 53 49 49 
26 8 6 9 8 5 7 0 0 4 4 8 6 5 9 9 13 14 15 17 18 22 29 33 34 48 45 49 51 58 71 77 77 80 77 84 87 87 88 95 89 89 81 90 91 89 86 81 77 77 76 77 75 69 66 67 71 66 70 70 65 64 63 63 62 63 60 57 58 54 57 57 58 57 60 56 55 54 52 50 
24 17 19 12 8 4 4 4 1 4 4 3 7 6 9 9 11 13 16 18 18 18 30 28 28 40 52 53 49 56 70 82 82 81 80 84 88 89 90 93 94 92 87 91 94 87 86 74 72 71 76 73 75 72 70 73 69 67 68 67 67 66 66 70 66 65 63 61 63 61 56 57 58 57 56 57 54 51 51 59 
24 22 26 13 9 5 8 4 3 3 3 5 10 8 7 9 11 8 13 17 19 22 26 25 25 35 49 51 48 53 65 77 83 82 80 87 94 93 88 95 95 93 96 93 94 85 79 77 70 75 76 75 75 73 72 71 73 72 69 70 67 66 70 66 63 63 65 60 60 58 59 58 57 58 56 54 59 57 53 53 
25 26 32 26 11 8 8 8 5 5 5 5 8 10 7 12 9 9 14 17 16 19 21 25 25 34 45 56 53 52 59 74 85 88 82 88 95 92 92 96 94 98 99 100 96 90 84 80 77 77 77 79 79 74 74 75 74 75 70 70 70 70 71 69 67 66 65 62 59 61 61 59 58 55 56 56 59 58 53 59 
21 20 30 38 29 13 7 8 4 6 4 5 7 10 10 11 13 8 9 14 14 16 21 24 23 29 41 51 57 53 57 73 80 87 84 83 95 95 95 93 92 97 98 94 90 85 83 81 80 82 79 76 79 75 74 75 74 72 70 71 71 68 68 70 68 66 65 65 62 62 63 61 58 61 60 57 57 61 52 55 
21 25 32 41 40 26 12 9 8 7 10 7 17 30 18 15 10 8 9 10 14 15 18 20 22 24 35 43 50 58 53 70 81 89 87 81 96 98 93 96 91 93 96 92 89 84 84 82 83 83 79 79 80 77 74 76 75 76 68 66 71 72 68 67 65 65 61 64 63 64 59 62 63 62 61 59 58 58 54 54 
30 20 30 43 42 44 26 12 8 12 14 34 68 79 76 52 27 12 9 11 11 12 13 23 24 24 26 39 42 52 52 63 75 86 86 75 88 94 97 93 92 86 90 92 84 86 81 81 84 82 80 80 81 78 76 75 74 72 70 64 71 69 68 68 66 62 67 66 61 65 58 60 61 63 61 59 60 60 55 60 
34 26 35 43 42 49 45 22 13 18 57 82 98 102 101 104 96 67 35 20 19 16 15 21 24 23 26 36 39 46 48 58 66 80 87 76 85 97 95 94 92 91 89 89 86 83 85 83 83 83 82 81 80 79 76 78 74 72 65 64 70 71 70 68 68 67 67 66 62 65 62 64 63 62 63 63 58 58 55 56 
32 32 38 46 47 51 51 43 28 72 97 105 111 120 118 118 117 115 104 86 48 21 15 21 20 22 25 33 33 43 43 51 60 69 77 72 81 87 95 91 92 92 89 88 86 82 85 85 87 85 84 85 83 79 80 75 73 72 69 69 71 72 68 67 67 67 66 67 66 65 62 63 62 64 60 59 61 61 55 64 
36 32 42 46 46 49 53 61 81 116 122 125 130 131 130 129 133 131 127 127 124 86 29 18 27 24 23 29 34 36 41 47 59 64 70 69 81 93 96 88 92 91 94 91 90 86 89 86 92 88 87 85 84 82 83 77 73 72 70 73 72 69 69 68 71 68 69 68 64 66 61 65 64 63 65 62 62 60 56 62 
42 32 44 52 45 55 73 92 102 130 138 139 145 141 144 141 144 141 141 148 147 134 70 24 19 27 24 24 31 31 37 42 55 65 65 67 79 91 93 93 95 93 92 96 91 90 91 90 85 87 87 87 85 84 82 79 72 71 73 72 73 67 68 72 72 71 68 67 64 61 64 64 65 66 64 61 62 63 58 58 
44 36 49 54 57 83 103 108 107 143 151 149 153 155 151 157 156 153 162 163 160 154 134 57 23 26 24 30 28 35 37 38 54 57 59 68 75 84 92 91 100 101 95 92 98 93 98 94 89 89 91 92 91 90 83 78 73 76 73 74 77 71 72 72 71 71 68 67 67 67 65 66 67 67 64 67 64 67 60 61 
56 48 48 63 85 108 110 124 137 152 159 160 160 167 166 164 172 175 178 179 176 173 161 131 35 24 25 29 28 34 35 43 49 66 63 64 71 78 91 96 98 105 103 97 98 100 100 98 96 92 96 94 93 93 89 82 80 76 78 74 78 73 72 73 73 74 71 70 66 66 64 65 67 67 64 64 67 67 62 61 
60 55 72 100 105 117 130 145 149 159 167 165 167 173 174 179 192 190 190 191 190 184 178 168 105 31 25 23 25 28 34 42 53 72 65 62 67 75 89 97 105 103 106 105 102 106 106 104 101 99 99 95 97 92 83 79 78 78 74 72 73 76 73 71 69 73 70 71 68 67 69 68 68 65 66 67 66 63 63 61 
76 77 107 114 117 144 153 156 158 163 173 167 177 180 184 196 209 204 207 208 209 200 194 187 165 78 33 25 29 29 39 65 123 141 118 89 71 71 86 96 102 103 111 111 110 109 117 107 103 104 101 96 100 95 88 84 81 80 79 79 74 75 74 73 70 75 73 69 67 72 70 69 68 70 69 68 69 70 64 63 
97 103 115 127 139 153 160 167 162 166 170 174 182 188 190 198 213 224 224 223 221 212 207 204 196 169 114 61 36 37 82 140 159 163 155 153 134 115 96 90 100 107 106 116 117 117 116 113 111 109 105 106 103 95 94 88 87 83 84 82 79 77 80 76 77 73 74 71 67 71 71 73 72 73 71 67 72 71 69 63 
109 110 132 138 149 157 161 163 164 163 173 177 181 186 196 202 209 223 242 256 236 230 218 221 202 196 176 173 122 104 155 158 164 168 166 162 156 153 141 133 113 102 109 111 118 122 124 122 119 110 112 112 104 99 97 95 92 89 86 87 85 78 81 80 80 77 77 73 72 70 67 72 74 72 70 70 69 67 67 64 


