P2
80 60
254
18 17 20 26 34 44 81 92 72 47 55 91 88 44 38 34 31 27 24 27 22 23 22 19 19 23 20 23 27 29 32 28 26 26 26 28 27 23 24 24 23 23 27 25 24 26 24 24 24 19 11 16 15 12 15 14 14 14 15 16 13 16 16 19 21 21 23 26 23 23 22 26 19 19 21 21 15 13 11 10 
20 20 20 24 32 47 91 92 65 40 62 92 81 41 34 34 31 31 25 23 24 23 22 21 21 19 19 24 27 27 30 28 25 29 28 24 25 23 25 24 23 25 24 21 23 24 26 27 24 18 13 14 13 13 13 17 16 15 18 16 16 14 17 20 24 23 20 25 24 23 25 21 21 14 18 20 19 15 10 14 
16 18 17 24 37 47 93 89 62 42 66 93 74 38 36 29 27 23 24 23 22 21 21 23 20 22 29 25 25 31 28 26 23 24 25 25 23 26 25 23 21 23 26 22 24 28 25 27 25 22 17 17 16 17 13 17 17 16 20 18 21 20 24 28 27 21 22 21 21 23 21 23 14 20 22 21 17 13 7 11 
14 19 20 30 35 50 96 91 51 39 72 90 71 35 28 28 24 24 22 22 24 22 21 21 23 26 25 24 29 28 28 27 27 23 25 20 22 23 20 23 21 23 22 24 27 28 26 26 26 20 22 19 24 22 24 24 24 24 28 27 23 24 24 27 27 24 23 21 23 16 20 23 21 20 20 19 18 12 7 10 
15 19 18 29 35 57 106 87 50 43 75 92 60 31 27 26 23 23 25 21 20 20 22 24 21 25 23 24 27 28 30 26 25 21 25 22 22 20 23 20 21 24 22 23 25 29 26 27 25 25 26 23 22 25 27 28 24 27 26 27 26 26 28 25 26 25 23 22 22 23 17 23 17 20 19 20 16 10 6 7 
17 18 21 34 38 66 102 79 49 42 84 87 58 31 27 25 22 21 21 20 22 23 26 23 21 23 27 28 25 29 28 26 26 25 26 23 25 23 23 22 19 22 22 26 28 25 27 25 25 26 25 27 27 27 26 26 25 27 29 27 26 25 21 26 22 23 23 21 26 21 23 22 20 22 21 20 19 14 5 9 
14 21 21 32 35 65 102 77 42 44 87 86 52 27 29 25 21 22 25 21 21 22 21 22 22 25 24 24 25 29 29 26 26 26 24 24 24 25 23 22 24 21 22 22 22 24 25 29 25 28 27 26 24 24 28 26 25 23 25 21 24 24 24 24 26 25 23 22 25 25 22 25 21 23 22 23 20 13 10 15 
8 13 19 28 33 64 98 71 41 48 87 84 44 24 21 24 21 19 22 21 20 20 18 18 18 19 22 21 21 28 27 24 26 22 24 22 21 21 24 21 21 23 24 23 25 21 20 20 22 23 28 22 23 26 24 20 24 24 24 21 22 22 23 27 25 23 21 23 20 23 23 23 21 20 20 21 16 17 9 13 
4 7 11 29 27 64 100 70 35 47 90 81 42 20 21 21 19 21 19 17 22 21 18 16 19 20 21 21 24 26 27 24 22 24 25 24 25 22 23 24 25 21 22 27 23 24 24 23 23 23 22 24 21 23 25 24 23 22 23 26 26 27 26 26 26 30 23 24 25 22 24 28 18 21 23 23 16 20 12 14 
1 2 1 2 9 72 97 64 27 47 98 79 39 21 20 18 16 17 17 18 21 20 20 19 21 20 25 23 23 28 26 25 24 25 22 19 25 22 22 24 24 23 26 23 26 27 26 25 24 25 20 23 21 20 23 25 25 23 26 28 28 29 27 25 30 26 25 22 24 24 24 24 21 23 22 21 17 18 10 19 
9 10 7 1 12 73 97 57 24 46 102 82 25 11 9 14 12 13 14 17 16 16 16 14 18 20 22 21 18 21 23 26 20 25 19 21 21 23 23 23 22 21 22 23 24 24 25 22 22 21 22 18 23 22 23 24 26 26 27 29 28 28 27 27 27 23 26 22 24 27 23 27 20 22 20 23 20 19 13 18 
13 16 17 14 19 83 97 56 24 54 97 75 19 9 7 7 6 6 10 12 13 13 13 15 17 17 19 20 19 20 27 21 20 22 21 23 19 22 19 24 21 24 23 25 26 23 23 25 24 20 22 24 25 22 24 24 25 31 29 30 24 28 25 26 25 28 26 23 23 21 24 27 24 23 24 23 20 17 9 12 
12 12 15 17 14 80 94 54 24 58 100 71 15 8 6 7 8 4 8 6 3 3 3 5 10 12 13 16 16 20 23 18 20 22 19 20 19 23 23 23 21 23 23 25 24 24 24 21 21 23 22 23 22 24 28 25 27 25 28 27 29 27 25 26 24 28 30 21 25 22 26 26 23 22 18 24 22 16 10 10 
9 11 15 18 21 85 86 44 27 65 99 66 19 8 9 7 4 7 8 4 4 3 4 2 3 3 7 7 7 7 8 7 12 19 19 19 19 23 22 22 22 23 21 25 26 21 24 24 27 25 25 25 22 25 25 27 27 24 24 28 29 28 24 26 26 29 22 23 22 24 26 26 26 24 22 25 21 16 14 14 
10 12 13 18 32 85 83 42 24 73 93 57 18 11 12 11 10 7 7 5 0 5 4 3 3 5 4 4 5 8 7 6 1 3 2 7 15 23 22 22 21 22 23 22 25 24 26 28 25 24 26 25 26 28 28 27 28 27 27 27 27 30 22 29 29 30 28 25 22 24 25 31 22 22 22 25 22 17 14 10 
10 14 13 14 33 88 82 33 27 77 92 54 17 10 9 10 10 9 9 4 3 6 3 7 2 5 5 1 2 7 5 6 4 2 4 15 15 21 16 22 19 20 20 25 23 25 24 24 28 25 27 25 27 27 29 26 28 28 31 27 28 25 25 26 31 29 26 25 20 24 25 27 23 25 23 24 22 18 8 15 
8 12 12 15 39 89 79 34 22 83 85 49 14 11 12 12 9 8 8 8 6 7 5 4 4 3 4 3 7 8 8 4 6 16 19 20 23 22 18 17 18 20 19 20 25 22 27 22 25 26 25 24 27 28 28 27 27 25 25 25 28 26 26 25 24 29 31 25 23 23 23 27 23 23 21 24 21 17 11 9 
12 14 11 18 45 95 79 34 27 87 87 45 18 15 15 12 11 8 7 5 8 7 7 9 4 5 5 3 7 10 10 14 20 22 22 22 23 22 23 22 22 24 26 24 26 25 28 27 26 27 27 25 29 25 28 28 31 27 31 29 27 27 28 27 26 27 29 25 22 26 26 25 25 21 25 23 23 19 10 11 
11 12 14 18 46 88 70 28 25 84 83 41 14 8 11 11 8 11 10 8 8 6 8 6 5 8 5 4 7 8 17 20 20 20 20 19 23 19 22 20 21 18 22 23 25 24 25 26 23 23 26 24 26 25 25 28 24 26 28 28 27 26 25 30 27 28 26 26 24 22 24 24 22 24 25 23 23 16 10 12 
12 11 15 19 55 90 74 27 27 83 83 39 15 10 11 12 14 10 10 8 7 6 8 10 7 7 9 5 8 13 18 24 22 21 19 17 21 20 19 21 21 22 21 23 23 23 24 23 23 25 28 26 27 25 24 26 25 26 27 28 29 28 27 29 27 26 28 25 18 21 23 27 22 22 23 22 22 20 11 14 
17 17 16 20 67 97 74 29 34 96 84 40 15 13 12 13 13 12 11 8 8 8 6 7 6 10 8 9 8 12 16 20 22 21 19 17 21 22 21 21 19 22 24 26 23 26 23 24 24 22 26 25 26 25 26 26 25 25 29 29 26 27 27 27 29 28 28 27 25 20 23 25 24 21 25 22 21 22 13 12 
40 35 33 35 82 106 78 27 39 100 83 36 16 15 12 12 12 13 12 8 10 11 8 7 8 10 10 7 9 11 11 20 21 21 19 20 18 22 18 22 22 20 23 24 21 23 25 24 27 23 26 26 26 26 30 25 25 27 29 25 30 28 28 30 29 28 27 29 26 21 22 26 24 21 23 23 23 20 13 16 
99 98 91 89 104 109 64 23 45 96 81 35 17 15 12 13 9 10 11 8 10 8 8 7 9 7 9 7 13 9 10 18 21 19 20 16 20 20 17 19 21 20 24 24 21 25 26 24 22 26 27 26 26 24 25 27 28 25 27 26 27 26 27 25 29 31 31 27 24 22 20 27 24 20 23 25 24 16 14 17 
103 102 104 101 97 93 54 30 51 98 79 30 15 9 12 11 9 10 14 11 11 6 9 9 8 7 10 9 8 12 11 18 19 20 19 17 20 22 20 18 23 23 25 27 25 26 25 24 28 25 26 28 26 25 25 26 26 26 26 29 28 27 26 27 32 30 30 31 25 24 22 25 21 21 20 28 22 17 14 15 
55 63 73 82 75 67 34 27 58 104 81 31 20 14 13 16 14 13 13 12 13 12 12 13 15 9 9 9 11 11 14 18 20 21 23 20 21 21 24 22 25 25 26 25 26 25 27 29 25 32 28 27 27 28 25 29 27 28 28 29 30 33 31 30 29 33 31 29 29 27 27 27 23 23 24 22 22 23 13 17 
25 24 27 28 28 27 25 28 61 109 83 34 16 16 14 15 16 14 15 11 13 12 12 12 12 13 13 12 12 14 14 21 23 25 22 22 23 23 23 25 26 24 26 28 28 25 25 25 27 28 27 28 29 27 31 30 30 27 29 29 28 28 30 32 29 29 33 30 29 29 27 28 23 21 21 24 23 23 15 18 
41 42 32 29 22 22 28 32 69 112 82 30 15 14 18 15 13 14 15 15 12 14 13 13 12 12 11 12 12 17 14 23 25 21 24 20 24 23 24 26 25 27 27 26 26 25 27 27 26 26 29 30 26 29 29 30 26 30 29 31 29 29 30 32 30 30 32 31 27 29 28 29 27 26 23 22 22 17 11 15 
103 103 93 85 71 69 64 61 92 116 84 32 19 14 16 14 16 13 16 13 9 14 11 12 12 12 14 13 11 13 15 18 21 19 22 22 25 25 23 26 24 24 26 27 24 24 25 26 25 26 29 25 29 27 30 30 24 29 28 27 29 30 29 30 31 27 32 30 30 28 27 32 27 26 27 27 24 26 16 13 
105 109 108 101 100 99 98 95 105 105 74 26 20 16 16 18 17 12 16 15 14 17 13 10 15 13 15 12 14 15 15 19 25 22 25 24 25 24 25 30 25 26 26 26 26 25 24 30 28 26 29 27 29 29 32 27 26 28 28 28 26 29 27 30 30 30 29 28 33 26 32 30 27 28 29 27 27 22 14 19 
58 66 75 81 78 92 95 93 95 86 54 21 18 16 15 16 17 16 18 16 16 14 14 15 17 14 15 14 14 14 16 17 22 20 26 25 24 25 29 26 27 25 27 27 27 25 27 25 27 27 27 28 29 28 28 25 28 25 27 29 27 29 25 31 32 31 31 31 31 28 31 36 30 27 28 27 25 27 18 22 
21 28 29 29 27 34 40 45 50 43 26 21 18 18 18 17 17 16 16 18 15 20 16 18 13 17 16 16 14 16 14 20 23 23 24 23 24 26 26 28 25 25 27 28 27 27 28 27 27 26 28 28 26 28 26 28 31 27 30 29 31 32 30 32 30 30 33 32 29 29 32 31 26 27 27 27 29 24 18 20 
22 20 20 24 20 21 26 26 27 23 22 19 19 20 17 21 16 18 19 17 20 19 16 18 17 20 15 15 17 19 16 21 26 25 26 23 25 28 26 24 27 28 26 29 29 26 26 26 27 31 26 28 31 29 30 30 28 27 30 31 31 32 34 32 30 32 36 31 31 31 32 35 31 32 27 24 27 24 19 27 
18 20 22 19 18 16 22 22 23 23 20 18 17 19 19 19 19 17 18 21 16 18 17 17 19 19 18 17 18 18 15 20 23 26 27 23 23 27 27 27 26 26 27 26 28 26 27 24 26 27 29 30 30 24 30 28 25 27 30 31 33 29 31 31 31 30 30 34 33 27 29 33 33 28 29 29 29 29 22 24 
16 19 21 25 17 18 29 22 22 26 23 19 18 19 20 20 18 20 19 19 21 19 20 19 20 19 19 17 19 20 17 23 26 24 23 23 26 28 26 28 27 27 28 27 30 28 28 26 29 30 32 28 28 28 31 30 31 27 31 32 30 36 33 34 34 32 32 36 31 31 35 37 33 35 35 30 29 28 22 29 
18 21 17 18 16 20 23 21 22 23 24 20 18 18 22 21 21 20 18 21 18 17 22 20 20 21 22 16 20 16 19 23 25 24 25 24 27 24 25 28 29 26 26 28 26 28 26 27 29 32 32 29 28 28 28 25 32 31 27 32 32 33 34 32 34 32 32 32 29 31 32 31 30 33 34 30 28 25 24 24 
18 24 22 20 19 22 24 20 23 25 21 22 19 22 19 21 21 20 19 19 18 19 20 21 19 19 19 20 22 20 17 21 25 27 29 28 26 25 26 25 24 28 28 28 29 29 28 26 27 29 27 29 31 29 28 28 27 28 28 29 31 31 30 32 35 32 33 31 29 33 30 35 30 32 34 32 32 26 24 32 
20 21 22 23 18 19 25 22 28 28 23 21 23 20 21 23 21 21 21 22 16 20 20 20 21 20 27 22 24 21 19 25 26 28 29 25 28 27 27 27 27 28 28 28 27 30 30 30 30 29 32 30 30 31 31 29 31 30 31 32 34 34 32 34 33 30 34 34 30 32 35 39 30 32 34 33 33 32 29 34 
17 21 22 21 18 22 24 19 27 25 22 20 24 23 23 21 23 23 25 22 23 24 19 22 22 22 24 21 25 21 22 22 28 30 28 26 28 28 25 26 28 30 30 27 33 31 30 30 30 30 29 31 30 34 31 32 31 30 31 30 31 32 32 33 33 32 33 35 30 32 31 37 32 32 33 32 34 31 30 38 
19 16 21 22 18 24 23 20 29 25 19 23 24 20 24 22 25 23 26 23 17 24 21 22 25 26 25 23 25 21 22 22 26 30 28 26 29 27 27 30 26 32 27 25 31 30 30 31 33 28 30 30 29 32 30 31 30 30 30 28 30 32 31 32 33 33 33 35 33 35 34 37 30 31 32 35 36 37 35 43 
26 18 22 22 19 22 24 19 30 23 22 24 22 21 26 23 25 23 26 22 24 23 23 26 24 24 23 26 25 23 25 24 28 30 26 28 25 30 26 27 27 27 31 31 33 30 34 30 29 30 31 29 32 29 30 31 30 27 28 30 30 35 29 32 33 32 36 37 36 31 34 36 34 28 30 38 50 47 40 42 
20 22 22 24 22 24 23 22 25 25 25 23 23 22 25 25 26 26 27 26 25 23 24 26 29 26 27 24 25 26 25 24 30 28 28 28 28 30 29 28 30 30 31 29 31 31 28 29 28 30 32 28 31 30 29 29 28 30 28 29 33 31 32 31 33 34 34 34 32 30 36 35 35 30 30 37 38 35 35 40 
22 20 20 23 22 22 28 23 26 28 23 23 22 24 27 25 28 27 25 25 27 27 26 26 29 28 27 27 25 25 23 23 29 30 28 30 30 29 31 30 30 30 30 31 31 33 33 29 31 27 30 30 30 30 29 31 33 31 33 27 30 32 27 33 32 35 35 33 36 35 32 36 35 33 34 35 39 32 34 39 
24 20 19 22 24 26 24 23 26 25 22 20 22 26 25 26 25 26 27 27 24 27 27 30 27 30 28 29 24 26 22 25 34 31 30 28 27 30 30 28 31 29 31 29 27 29 28 26 29 26 31 31 29 30 28 29 26 29 29 30 29 31 30 32 34 34 33 33 33 32 34 40 38 35 35 38 37 36 30 44 
17 18 20 21 18 23 29 29 29 26 21 23 21 24 24 29 24 30 27 28 26 28 26 31 29 29 29 27 29 26 23 26 29 33 27 29 30 30 32 28 31 31 28 29 28 26 29 28 29 29 30 29 29 27 28 27 24 28 31 29 32 31 30 36 32 33 34 33 31 34 37 42 43 43 51 57 70 77 85 108 
21 20 22 26 21 26 29 31 29 29 25 26 26 28 26 30 28 31 30 29 31 31 32 31 34 30 29 27 26 28 26 24 28 31 28 28 30 29 31 24 29 28 29 28 30 30 27 27 28 28 28 25 25 23 25 28 28 30 32 28 30 31 31 33 31 35 38 36 34 44 64 80 86 103 113 122 134 144 159 187 
19 22 24 23 23 25 31 28 25 27 25 26 29 26 26 29 29 30 32 33 30 33 30 34 36 33 30 29 26 28 27 22 30 31 30 30 29 35 30 28 30 31 27 30 32 30 32 28 27 30 29 29 29 25 28 27 25 32 29 29 29 33 34 34 35 34 38 38 34 62 105 121 132 135 143 152 166 178 192 228 
21 23 24 23 20 28 30 28 28 30 24 25 28 28 30 31 28 30 34 34 33 36 31 33 35 32 28 27 27 28 26 23 25 33 29 31 30 32 32 30 30 33 30 30 32 29 30 28 28 30 30 28 29 29 27 26 28 28 29 32 34 32 33 36 35 33 39 39 39 74 113 147 155 161 170 184 197 208 226 241 
20 21 21 22 23 29 31 27 26 31 27 26 30 26 27 29 30 28 35 31 33 33 34 38 38 36 36 38 32 34 36 32 26 29 32 32 31 31 30 32 31 32 29 30 33 30 30 29 27 26 32 28 26 27 28 28 29 30 29 28 31 31 30 35 32 33 36 37 37 67 115 151 166 171 180 193 203 220 235 248 
20 21 24 28 21 26 32 27 29 31 27 27 29 30 28 33 31 33 34 34 34 35 31 38 36 39 43 43 38 40 38 31 28 31 34 35 33 33 35 31 31 30 33 30 31 28 30 30 27 29 26 31 29 27 28 29 29 30 31 27 33 36 32 33 31 34 35 38 37 64 114 147 163 175 179 192 207 220 233 254 
23 20 24 24 23 26 37 27 29 29 29 27 31 31 31 33 31 31 34 34 35 39 35 38 36 38 44 42 39 40 34 32 28 28 35 32 30 30 33 32 31 32 34 32 32 28 29 28 26 29 30 32 30 28 28 30 30 30 29 33 30 34 34 36 35 34 39 37 40 65 112 146 163 170 177 189 200 215 233 251 
23 28 27 28 24 30 30 25 32 35 30 29 30 35 30 34 35 34 36 35 38 39 37 40 39 40 46 44 39 41 37 35 30 32 34 35 33 33 36 33 34 33 34 34 34 34 30 30 28 31 28 32 31 31 32 30 27 32 32 31 34 36 33 33 37 37 39 39 40 63 112 143 157 166 172 189 198 213 229 248 
26 26 28 27 23 30 32 31 33 35 32 31 33 29 36 35 35 36 38 37 39 41 37 40 41 43 44 42 38 42 42 34 30 29 39 35 33 35 32 36 34 34 34 33 33 32 29 28 30 30 29 30 32 29 35 33 33 31 34 31 31 33 33 35 36 40 38 38 42 56 105 137 153 161 173 188 197 210 227 248 
26 31 31 32 24 34 35 37 33 36 34 33 32 30 37 37 35 39 39 39 44 47 41 42 45 45 50 44 42 41 38 39 31 33 38 36 35 38 33 37 34 35 34 34 35 31 29 30 32 34 32 33 33 33 37 39 37 35 36 33 35 32 32 34 35 38 37 36 39 55 101 137 153 162 171 184 197 207 222 244 
27 33 31 30 31 35 38 32 35 39 36 34 35 31 36 36 39 39 41 44 44 44 46 44 46 47 50 46 44 44 42 38 35 34 41 40 39 36 36 38 33 36 35 37 34 33 33 33 31 31 34 35 36 36 45 46 40 38 38 35 34 37 37 37 38 35 36 39 39 52 96 135 151 163 166 179 178 184 205 244 
31 34 36 36 31 36 41 39 40 40 38 40 40 40 42 40 42 45 44 47 47 48 46 50 51 51 55 52 46 51 46 42 36 35 41 40 39 39 39 39 37 39 36 37 36 37 34 32 33 35 36 34 39 40 48 64 75 61 48 37 37 36 38 37 38 39 37 43 40 49 93 132 150 159 163 172 170 161 203 253 
33 40 38 39 37 38 46 41 42 45 40 37 41 42 39 46 47 46 49 51 52 56 56 52 55 57 57 59 55 53 50 45 39 38 44 44 42 42 39 40 42 41 43 40 39 39 38 33 36 35 39 37 42 45 78 193 167 103 59 44 41 38 38 37 45 41 41 40 41 50 92 131 151 162 168 179 180 192 222 241 
41 42 41 44 41 45 45 41 44 44 45 42 44 44 44 50 51 52 51 53 58 58 60 62 63 61 60 61 55 55 52 45 39 42 47 46 43 45 43 41 39 40 41 39 41 41 38 38 39 37 41 39 42 47 93 237 181 101 56 44 39 38 39 38 39 44 42 43 45 51 92 129 148 161 168 177 191 199 219 235 
43 45 47 47 44 43 51 48 45 47 50 43 46 49 47 51 55 56 57 60 61 65 64 63 66 64 65 62 62 59 53 46 42 42 46 51 44 46 41 39 36 41 41 38 44 40 36 37 40 38 37 38 43 45 60 94 90 66 51 45 38 37 38 37 38 43 40 43 41 45 87 125 149 165 165 178 192 202 217 237 
53 54 54 55 48 53 56 55 52 52 50 49 50 51 53 54 55 58 59 60 65 69 70 76 76 73 77 72 64 59 54 52 43 47 48 48 46 40 40 42 42 43 45 42 44 44 41 43 43 41 40 43 41 43 48 54 54 51 47 42 39 41 40 41 36 42 40 41 43 50 84 126 149 163 173 183 194 205 211 232 
71 73 64 59 52 54 62 56 54 54 52 49 54 56 56 56 57 61 67 69 73 72 75 80 79 81 80 74 66 63 55 52 45 48 51 51 48 48 58 70 47 45 51 47 47 44 45 41 42 42 44 42 42 42 44 46 49 45 44 38 43 39 39 42 41 43 41 38 42 44 75 132 146 167 171 182 193 206 216 233 


