P2
80 60
256
16 18 17 23 34 43 78 94 69 46 54 86 82 45 39 35 33 27 29 26 29 28 26 21 23 24 24 27 27 31 35 32 30 27 24 28 27 22 24 25 25 26 25 24 24 22 26 24 24 19 15 15 16 16 15 18 15 18 17 17 15 17 20 20 20 15 17 20 24 25 19 19 19 15 12 14 12 9 16 11 
16 17 17 18 31 46 88 95 66 41 61 87 79 43 37 35 30 30 30 26 28 25 23 27 25 22 25 27 29 29 34 31 28 27 26 22 26 25 24 23 22 23 25 26 23 25 27 28 24 20 15 17 13 13 14 18 18 16 17 18 16 16 15 20 22 19 19 22 26 22 20 21 20 17 15 13 14 13 11 12 
19 20 20 21 37 45 90 94 61 48 65 87 70 39 35 33 29 26 28 26 27 24 24 26 24 25 30 29 30 29 32 33 27 23 25 25 28 25 26 24 21 26 26 26 25 28 29 25 27 24 19 16 21 19 17 19 23 20 20 23 22 22 24 23 24 17 17 18 20 23 21 21 16 19 18 18 14 12 13 9 
17 16 19 25 38 50 90 92 51 45 71 85 67 39 32 30 27 29 25 29 27 22 25 24 26 29 31 27 32 31 34 33 27 25 25 24 26 24 24 24 23 24 27 26 25 27 27 28 29 25 20 24 27 24 25 26 27 25 28 29 25 24 26 27 26 19 14 19 21 20 22 19 17 18 20 14 17 9 10 10 
17 19 19 28 36 60 104 92 51 43 74 85 57 35 30 29 26 25 27 26 24 21 27 25 27 30 26 27 31 29 32 29 26 27 23 21 24 21 21 19 23 24 25 24 24 25 26 27 27 27 28 24 25 26 29 27 27 28 27 28 28 25 28 25 21 19 17 17 22 22 21 22 19 19 16 14 14 9 13 11 
19 16 21 30 40 65 99 84 48 47 81 83 55 32 29 25 26 25 26 23 25 25 28 26 26 27 30 28 30 31 31 29 26 27 24 26 25 23 22 23 20 19 25 27 27 25 26 26 27 28 27 28 31 25 28 28 25 29 29 29 28 25 23 28 21 20 15 15 23 21 22 24 19 20 19 17 14 8 10 13 
18 21 22 30 37 66 99 83 44 50 82 80 48 28 30 25 23 25 25 28 23 24 24 27 27 31 26 27 30 32 31 29 29 27 22 25 25 26 25 22 23 20 22 22 23 24 27 30 27 28 29 29 26 24 28 27 23 23 25 28 24 24 24 24 24 21 19 17 25 25 23 23 20 21 20 18 14 6 9 10 
12 12 17 28 37 65 95 76 42 48 84 81 42 27 23 24 25 21 21 25 25 23 22 20 22 23 24 23 26 29 29 27 25 22 23 22 19 22 24 21 22 21 24 25 26 19 23 22 23 24 27 23 26 29 23 23 26 26 27 24 24 23 26 27 24 19 17 17 17 21 23 21 19 19 20 15 8 7 9 10 
6 5 10 23 25 67 100 73 37 49 88 76 37 25 22 24 20 21 24 20 22 23 24 23 22 25 24 23 26 26 30 28 25 26 25 23 20 23 25 21 20 21 23 26 23 25 24 25 24 25 21 25 24 25 23 27 23 23 24 25 24 25 29 26 26 27 17 19 23 20 24 24 19 20 15 15 8 10 8 10 
6 4 0 0 10 74 97 70 29 48 98 80 37 22 24 21 18 19 19 21 24 22 24 25 24 25 27 27 26 27 31 28 25 26 24 21 24 23 23 25 25 24 26 26 26 28 26 29 24 24 22 25 24 25 25 25 27 28 28 30 28 24 29 25 26 24 18 17 22 23 25 23 19 24 18 18 11 12 11 17 
12 13 5 1 11 78 97 63 23 51 102 81 23 11 10 14 15 17 18 17 19 18 20 19 22 25 23 25 23 24 27 27 22 25 22 22 22 22 25 25 22 21 24 23 24 25 27 22 21 25 23 21 22 23 21 26 28 29 29 31 27 29 27 27 25 22 19 15 22 25 24 20 23 19 16 15 11 6 11 10 
13 15 10 12 20 88 99 61 23 59 100 72 18 8 8 11 10 8 15 14 15 16 18 18 20 22 22 20 24 25 29 24 21 22 19 23 24 23 21 24 23 23 24 24 28 25 26 28 24 22 24 26 27 26 28 27 28 30 28 32 27 31 24 26 27 23 22 20 20 24 24 24 19 21 22 18 13 11 13 9 
13 14 17 13 16 83 93 60 26 61 104 69 16 11 9 8 8 5 9 8 5 9 6 10 13 16 17 17 19 23 25 20 20 20 21 21 20 20 23 26 19 20 24 24 24 24 25 22 22 25 25 26 24 26 26 27 29 28 30 25 27 27 28 23 25 23 24 15 19 21 23 26 20 20 18 17 17 6 9 10 
16 13 14 15 25 89 87 50 29 69 102 63 20 10 10 12 8 8 9 9 7 9 7 8 5 5 8 11 10 10 11 10 12 20 19 19 19 22 25 24 23 22 25 23 25 22 24 28 26 29 26 28 26 29 26 30 26 29 28 31 29 27 27 26 24 25 23 20 18 22 23 27 22 21 20 21 13 10 12 14 
12 13 13 15 34 89 83 46 27 77 100 55 17 10 9 12 12 9 8 11 5 8 8 6 4 9 8 8 10 10 10 8 6 6 1 10 16 23 20 21 22 20 25 23 25 26 26 26 29 27 26 29 28 27 29 30 27 28 29 30 29 29 26 27 27 24 24 20 17 20 22 23 23 23 19 22 15 11 11 10 
12 12 11 15 37 96 81 42 26 81 100 52 18 12 11 13 12 10 10 10 9 8 8 8 7 8 8 5 6 10 9 8 6 4 4 15 17 20 18 20 20 20 22 26 25 25 25 25 28 27 27 26 28 29 29 27 29 30 32 28 29 27 27 26 29 26 25 20 16 18 23 25 21 24 23 18 17 13 11 14 
13 11 13 15 43 93 82 38 26 83 90 46 17 9 13 14 12 13 9 11 9 9 12 8 7 8 7 6 10 9 11 6 8 15 17 20 22 23 21 18 20 21 22 23 25 23 25 23 28 27 27 26 30 25 29 31 27 27 27 29 28 28 29 27 24 25 27 21 16 18 26 24 23 22 20 16 18 15 16 13 
14 12 14 15 48 100 77 37 27 90 89 44 17 16 14 14 14 11 11 10 13 11 12 11 10 11 9 8 12 11 14 16 22 24 23 22 24 23 26 22 25 24 26 25 26 24 28 28 29 26 27 31 32 29 30 32 29 29 31 27 27 28 28 24 25 26 27 24 19 18 25 26 26 24 23 21 20 19 14 16 
13 14 18 15 51 93 73 34 28 90 87 39 15 12 15 14 12 13 12 14 13 9 12 9 11 11 8 10 11 12 19 22 21 24 19 20 23 21 23 23 23 23 24 24 27 26 24 24 25 26 29 29 32 27 27 28 27 27 27 29 31 30 29 30 24 30 28 26 18 16 21 21 23 22 25 18 19 18 19 17 
16 15 16 19 62 95 76 28 29 89 87 37 14 14 14 13 16 14 12 14 10 11 10 12 12 12 11 10 13 14 22 27 24 24 19 17 25 21 23 23 22 23 22 22 26 23 22 26 28 28 30 29 28 29 26 27 28 28 28 29 31 30 27 27 29 27 29 26 17 13 20 22 24 25 25 18 19 18 20 17 
22 20 14 20 72 100 72 30 33 100 86 35 17 15 14 14 15 13 16 14 12 12 11 10 12 15 11 10 13 13 20 25 24 25 21 18 22 23 22 19 23 24 26 25 25 25 26 24 27 26 28 30 26 27 27 27 27 26 29 32 30 30 29 26 28 27 27 27 20 13 18 22 25 21 23 19 17 21 21 16 
45 36 29 34 86 109 76 29 37 99 85 32 15 14 15 16 14 15 16 11 12 15 12 11 11 10 13 10 13 16 17 23 22 23 19 21 21 21 20 23 23 20 23 24 22 26 25 28 27 25 28 28 27 30 31 30 28 28 28 28 28 31 26 31 29 26 26 28 23 14 13 22 20 21 19 18 21 18 16 18 
102 98 87 90 108 102 63 28 45 98 82 30 15 13 13 14 12 14 20 13 13 9 13 11 11 10 12 13 14 16 13 20 20 22 21 16 24 20 20 20 21 22 25 25 23 23 27 26 26 29 26 31 29 27 29 28 30 26 29 31 30 28 33 28 28 27 23 28 24 19 15 16 23 23 18 22 21 20 18 13 
100 97 98 98 98 86 49 34 51 103 83 26 16 12 15 16 12 13 15 16 16 12 14 12 10 11 14 10 15 14 14 22 21 20 19 18 22 20 21 20 22 23 20 28 25 25 27 23 28 28 29 29 28 27 30 27 25 28 27 32 29 30 28 29 32 28 30 29 29 22 17 14 21 23 20 22 20 20 17 20 
58 62 71 79 77 63 32 30 56 106 82 27 19 15 15 18 17 17 15 16 18 13 18 15 17 11 14 13 16 14 18 21 25 24 20 22 23 23 25 21 25 25 24 25 26 27 26 28 29 31 28 28 32 29 27 31 32 30 30 31 33 35 33 31 30 29 29 29 29 25 21 17 17 18 19 18 21 21 15 15 
28 27 24 27 29 29 24 30 62 112 83 31 18 20 18 19 17 17 17 19 19 16 15 17 17 15 16 17 16 16 18 25 25 27 22 21 22 24 27 28 28 26 26 30 30 29 26 29 26 31 28 28 32 28 32 32 29 29 28 31 33 35 32 32 30 32 28 31 32 27 28 24 17 17 15 16 16 18 18 19 
46 39 31 26 23 24 25 33 72 116 82 24 17 17 18 17 15 15 17 17 17 15 18 16 13 18 11 12 15 16 17 25 24 25 22 20 23 25 24 25 26 25 27 27 26 25 27 28 25 29 28 33 27 31 29 31 28 31 31 31 29 32 30 31 28 29 30 30 29 28 27 26 22 18 14 16 14 15 16 13 
105 104 95 85 73 66 58 65 95 119 81 27 18 17 16 19 18 15 17 14 15 14 15 17 17 16 15 16 13 13 15 25 23 23 22 20 26 25 24 25 26 24 26 27 26 25 27 28 27 29 27 27 29 27 30 29 25 32 27 29 29 31 30 29 31 27 29 28 30 28 27 29 26 23 22 22 18 18 17 20 
106 110 108 103 102 98 94 95 105 103 73 20 14 18 19 20 17 17 18 19 17 18 15 14 17 17 18 12 19 17 16 20 26 25 25 22 26 24 27 29 26 28 26 29 26 25 26 31 28 27 28 30 30 30 31 31 30 31 30 29 27 31 26 29 28 29 28 29 32 28 31 30 26 26 23 24 23 20 22 23 
59 64 70 75 83 88 85 92 92 87 54 14 15 20 15 17 20 19 19 21 19 18 18 20 19 19 19 17 19 13 18 21 20 23 22 25 26 27 30 28 28 26 28 29 28 26 28 27 25 30 27 29 28 28 29 28 29 29 30 32 30 31 28 30 31 32 29 29 30 30 31 33 28 25 25 23 20 25 20 23 
25 26 29 23 28 36 37 45 49 43 25 17 17 19 20 18 19 19 18 20 18 21 20 22 18 21 17 19 16 18 16 25 26 28 23 25 24 27 27 27 27 26 29 27 26 25 30 27 29 28 31 30 30 29 29 32 31 30 32 30 31 31 30 31 30 30 32 31 29 30 32 31 27 27 26 23 24 22 23 18 
23 18 17 19 20 20 24 23 26 26 20 16 16 18 18 21 19 22 21 18 21 22 22 22 18 20 18 19 21 20 21 22 27 26 24 23 28 25 28 27 28 31 30 27 30 26 26 26 30 32 28 30 31 29 30 30 29 32 33 31 31 32 31 33 29 32 33 31 32 30 31 31 28 29 26 22 21 26 24 24 
21 17 20 16 19 17 20 28 22 29 20 17 13 20 21 22 23 19 21 22 20 22 21 20 22 22 19 18 22 22 19 22 27 26 26 22 26 26 28 28 27 27 30 28 26 27 26 27 29 29 33 33 32 30 30 30 29 30 32 33 32 33 32 32 30 32 30 33 33 31 29 29 30 29 27 24 27 27 24 24 
22 22 20 22 21 17 20 23 23 27 19 15 16 21 23 23 21 22 22 21 22 23 26 21 22 20 22 19 20 21 18 23 26 27 24 24 26 30 24 27 28 28 29 31 29 27 27 29 31 31 32 31 30 31 33 32 31 27 31 35 34 36 31 33 33 34 34 35 32 28 32 32 28 31 30 24 25 28 27 31 
20 22 19 14 21 20 21 24 22 25 21 15 18 23 22 21 22 22 22 24 21 20 24 23 24 25 23 21 25 20 20 26 25 26 26 25 27 24 25 25 26 27 27 31 29 27 26 27 29 30 31 32 31 31 30 29 32 33 27 34 33 35 32 32 32 33 33 33 33 32 29 31 30 31 27 24 21 25 28 26 
20 24 21 20 20 20 24 22 23 24 21 15 17 20 22 22 24 22 21 21 24 24 22 26 23 24 21 24 25 21 21 25 28 28 25 28 30 25 25 24 27 28 29 30 32 28 30 28 30 33 30 31 30 30 32 32 30 32 31 32 33 32 34 33 33 32 32 34 31 32 29 32 29 29 30 26 26 27 30 29 
23 22 22 21 20 23 18 23 27 28 22 14 18 22 23 25 24 23 24 25 20 23 25 27 25 23 24 23 26 24 21 28 28 31 25 28 27 28 27 28 26 29 29 28 29 31 31 31 31 30 33 31 31 29 32 31 33 33 33 33 33 34 34 34 34 30 31 33 31 31 33 31 29 32 30 26 24 28 31 32 
23 20 22 22 19 24 21 22 25 29 22 18 19 22 25 22 24 26 26 26 27 24 24 25 28 26 28 25 28 23 22 26 30 31 25 25 29 30 28 27 30 30 30 27 30 30 32 30 30 31 30 32 32 32 32 33 31 33 30 31 33 34 34 31 32 32 33 34 32 32 32 31 29 29 32 24 27 28 34 37 
23 17 21 20 20 23 22 26 28 29 19 17 20 23 27 23 25 23 26 29 23 25 27 27 25 28 28 27 30 24 24 26 29 32 29 28 30 28 28 27 26 30 27 30 33 29 29 33 31 29 32 32 32 32 32 29 32 32 31 32 31 32 33 32 32 32 31 33 34 33 32 33 30 31 30 27 32 39 39 45 
20 20 19 20 19 21 24 23 30 25 19 18 18 20 25 27 25 24 29 30 27 24 27 29 29 27 26 29 28 26 27 28 33 32 25 29 29 30 27 28 29 27 31 30 30 30 33 29 30 31 29 31 31 31 29 31 29 31 29 31 33 35 31 30 31 29 32 33 33 33 31 33 30 30 29 34 48 43 38 39 
23 24 22 19 22 25 20 23 27 26 18 18 22 22 23 28 27 28 30 33 31 27 30 29 30 29 29 26 30 28 25 29 28 31 29 28 33 28 30 28 32 34 31 32 33 29 32 29 30 33 32 29 33 31 31 31 30 31 29 31 34 36 31 32 32 33 33 35 35 30 34 35 31 31 29 30 34 36 40 39 
22 18 22 24 21 22 24 24 28 29 21 20 22 23 27 25 26 26 28 29 29 30 28 30 32 31 28 30 30 30 26 23 29 29 26 30 31 31 31 29 33 31 31 33 28 31 33 30 33 30 32 33 32 34 32 32 31 29 34 30 30 35 31 31 32 34 34 32 33 34 34 35 32 34 30 31 35 35 39 38 
23 21 23 21 26 25 24 25 28 28 22 18 19 28 30 27 28 30 30 32 26 28 30 30 32 35 30 33 32 30 26 28 31 32 28 28 32 30 31 32 33 29 32 32 27 29 31 29 30 30 32 32 29 29 29 29 28 32 28 32 30 33 31 32 31 31 33 32 33 33 34 38 37 34 33 35 36 35 38 38 
22 19 25 20 23 23 28 31 27 30 19 20 21 26 27 28 31 31 33 31 32 31 31 36 32 35 31 33 34 29 29 27 32 34 30 28 32 31 34 31 36 33 30 31 30 27 29 28 30 33 31 33 32 30 30 27 27 30 33 30 32 35 31 34 30 30 34 35 34 38 36 42 42 44 52 56 64 79 97 112 
23 20 21 23 25 26 27 31 29 33 24 21 23 27 28 36 32 32 34 36 35 32 35 36 35 34 31 32 30 30 28 27 32 31 29 31 35 30 33 32 33 31 31 30 33 30 30 27 31 30 32 27 28 27 27 32 29 32 33 31 35 35 33 33 32 30 37 40 41 44 64 80 91 103 113 119 132 147 168 191 
24 22 22 23 27 25 29 30 28 30 26 25 26 30 31 30 30 34 38 39 38 37 37 37 40 35 36 34 31 31 29 25 29 30 27 31 33 35 32 32 32 33 31 31 31 30 33 31 34 32 31 31 30 28 29 29 27 33 31 29 33 37 37 32 34 33 38 41 38 64 108 123 133 136 143 152 167 182 208 227 
24 22 26 23 24 28 27 30 28 30 24 23 27 30 32 30 32 33 36 37 36 38 37 38 37 34 33 33 31 33 29 23 28 32 30 30 34 32 33 32 34 32 31 32 32 29 30 28 29 31 30 31 31 29 30 29 30 27 29 32 36 38 34 35 33 35 38 37 42 73 116 147 155 163 174 179 195 213 231 244 
23 22 24 21 26 28 28 30 26 35 26 23 30 29 30 33 33 33 36 35 36 37 37 39 40 38 38 41 35 36 38 32 28 32 33 33 32 30 34 34 32 34 31 31 31 30 29 31 29 31 31 31 29 29 30 29 28 32 32 31 32 33 32 35 30 33 36 37 38 68 120 150 162 170 178 193 202 218 244 253 
26 21 22 23 25 26 30 29 28 32 24 23 30 30 30 34 33 34 37 37 36 36 42 37 39 42 46 45 41 41 41 32 29 30 31 35 35 32 36 32 32 30 32 33 32 28 31 31 30 29 31 32 30 27 28 33 30 30 30 28 33 37 32 33 30 31 35 35 36 65 115 147 164 174 180 187 202 219 242 256 
26 24 24 25 26 28 26 29 28 35 27 24 28 29 30 36 34 35 36 36 36 39 41 39 41 43 48 45 43 40 42 33 30 31 34 32 34 32 33 33 36 36 34 34 31 31 31 31 27 33 31 30 32 29 30 31 31 32 32 30 33 36 35 35 34 34 34 35 38 58 109 146 162 172 180 188 199 216 242 254 
27 24 27 28 29 29 29 30 33 37 30 29 28 36 32 36 36 36 40 40 40 40 41 40 47 45 48 47 44 46 44 35 32 32 35 35 37 34 39 36 36 34 37 36 32 32 31 29 29 31 32 34 34 32 32 34 30 31 33 32 35 34 34 33 35 38 38 35 40 57 110 140 159 170 174 186 199 215 237 251 
29 29 28 31 32 29 28 32 34 37 33 30 30 33 36 38 37 40 41 41 43 46 43 44 44 46 47 44 47 44 44 36 32 34 36 32 37 35 36 36 36 33 36 34 35 37 32 30 35 30 30 33 34 28 36 37 35 31 35 35 33 34 35 36 36 37 37 38 42 52 103 136 154 166 172 184 195 212 233 246 
30 28 30 29 30 30 33 37 35 38 31 29 30 31 38 38 37 41 39 45 45 45 46 45 47 47 54 50 45 45 45 39 30 35 37 35 36 35 35 36 37 35 34 37 36 33 33 33 33 35 34 37 35 32 37 41 38 38 37 36 32 33 34 36 35 38 34 34 39 54 101 136 154 167 174 179 195 207 229 239 
34 32 31 32 36 34 34 38 38 41 35 31 38 37 37 40 39 41 43 47 49 47 47 48 48 51 52 51 47 46 48 38 34 34 37 39 39 40 38 38 36 37 36 35 36 35 35 33 32 35 37 37 35 39 47 48 44 46 39 36 35 38 37 36 33 36 37 39 39 51 97 132 150 161 167 175 179 183 214 240 
38 34 33 34 36 40 39 39 38 43 38 35 37 40 43 43 43 46 46 50 52 51 55 58 52 56 54 54 50 52 51 44 39 39 37 39 40 40 42 37 38 39 39 36 37 37 36 33 37 38 38 37 40 43 50 68 79 64 46 41 39 36 37 38 37 36 38 42 43 50 93 132 151 162 165 167 167 164 211 244 
38 37 41 40 37 39 43 44 41 46 40 37 39 44 43 44 47 48 50 54 56 58 60 59 57 60 61 61 58 56 56 46 40 42 44 45 44 44 42 39 42 39 42 39 39 40 37 35 38 40 41 38 44 45 77 197 169 103 61 47 42 43 38 35 39 40 43 41 47 51 91 128 152 161 169 176 179 194 225 238 
48 40 42 43 40 43 45 46 44 46 41 37 39 46 45 48 50 51 55 57 60 61 63 65 66 64 65 64 59 57 56 44 39 45 46 46 49 43 44 41 41 42 46 41 42 42 42 39 41 42 40 42 45 49 95 239 181 104 57 47 39 43 37 37 37 41 41 41 48 53 89 129 149 163 170 174 190 203 224 239 
50 45 48 46 48 45 47 53 51 51 46 41 43 49 50 50 56 54 58 62 65 65 68 66 71 69 70 68 64 59 55 48 43 45 46 50 46 45 41 41 38 43 42 40 43 43 37 39 42 40 40 40 44 46 60 95 92 72 53 47 41 42 36 35 37 41 40 42 49 48 88 126 149 166 165 175 189 206 222 235 
59 52 54 51 55 52 56 58 51 55 49 46 49 55 54 57 55 59 59 65 68 72 74 79 81 77 78 75 67 62 57 49 45 49 47 49 48 41 41 43 42 45 44 45 44 44 41 44 44 41 45 46 45 46 48 54 56 53 47 46 41 43 38 37 38 39 42 39 45 46 83 125 147 163 171 178 193 204 217 231 
73 69 65 54 57 54 56 54 52 55 50 50 54 56 56 59 56 62 65 70 73 71 76 80 81 82 80 77 68 64 59 53 46 49 48 50 52 49 57 71 47 48 49 48 44 47 45 43 43 45 47 44 42 43 44 47 50 47 45 45 41 37 38 38 38 39 40 40 40 42 75 130 149 165 171 176 190 203 221 228 


