P2
80 60
258
18 21 21 25 31 43 82 95 70 40 55 91 85 44 36 34 32 27 25 25 22 26 21 18 20 21 23 24 29 30 31 29 28 26 22 24 26 20 21 20 22 21 28 22 23 24 25 23 25 19 13 16 13 12 14 15 16 18 19 16 15 13 13 15 20 22 20 24 24 24 23 23 23 19 20 18 21 17 17 17 
16 25 23 21 31 48 87 96 62 38 60 95 80 42 33 35 32 29 27 24 23 25 20 23 22 21 23 27 28 25 31 27 28 27 24 23 26 23 22 23 23 26 26 25 23 22 25 25 25 20 15 17 12 11 12 15 18 16 16 15 16 13 17 22 23 24 21 25 23 21 25 22 21 14 19 18 18 17 15 9 
15 21 21 26 36 49 91 94 59 36 67 92 72 38 35 30 30 28 26 26 25 25 22 21 22 24 27 27 29 28 28 30 27 25 23 22 23 26 25 23 22 23 27 22 26 26 25 26 26 24 18 15 19 17 14 16 19 17 17 21 24 20 24 24 26 20 22 21 21 20 22 22 21 19 20 21 22 18 13 13 
16 20 22 28 33 49 93 95 50 38 71 95 67 36 30 28 24 27 24 25 24 23 22 23 22 27 24 27 27 30 30 30 27 23 23 21 23 21 23 22 22 24 25 25 25 25 25 25 29 25 20 21 24 21 21 25 24 23 27 23 27 22 25 29 26 23 19 24 23 19 26 22 22 22 25 20 20 17 13 12 
12 21 18 32 35 59 103 92 48 40 76 91 61 34 29 30 24 22 25 22 22 20 21 22 23 25 24 26 28 27 31 26 27 22 22 22 22 21 22 18 21 23 24 22 24 26 23 26 25 27 24 23 22 24 23 26 26 28 27 26 25 26 29 23 26 24 26 21 24 23 21 22 20 21 20 18 21 14 14 10 
13 21 22 35 36 68 99 79 46 39 80 90 59 34 30 26 23 25 23 21 23 22 26 25 22 26 26 28 25 28 28 28 26 27 22 23 24 22 22 22 18 21 24 25 22 26 24 25 27 27 25 26 27 25 25 25 27 26 28 26 24 23 20 30 25 26 22 19 24 24 25 25 22 20 24 17 23 19 15 11 
13 23 22 34 33 64 100 80 42 42 83 84 50 29 28 26 24 24 24 25 20 23 21 21 23 28 21 25 29 26 32 28 25 27 25 26 26 23 24 20 22 23 22 22 22 22 24 28 25 27 24 24 21 25 23 26 26 22 24 22 23 22 23 26 23 25 22 22 24 26 23 26 21 23 25 22 21 19 13 15 
10 14 17 28 32 66 100 73 38 41 84 84 43 25 23 23 22 21 22 24 22 21 21 17 19 23 21 22 25 25 28 23 25 19 23 23 19 20 21 19 20 24 24 23 23 22 21 21 23 23 26 24 22 26 22 21 25 22 25 22 24 22 25 27 23 24 21 23 22 22 25 22 22 23 21 20 18 16 14 10 
7 8 16 28 25 63 100 71 34 41 87 79 42 22 21 22 21 19 19 19 23 20 18 19 18 19 19 22 25 23 26 25 26 23 23 21 24 21 23 21 21 24 24 23 26 24 25 25 26 27 21 22 19 23 20 24 26 22 23 25 25 24 27 24 25 27 25 25 24 24 28 26 23 22 25 21 17 18 16 15 
6 6 1 0 6 73 95 66 23 43 97 80 37 21 20 19 19 19 18 20 21 16 20 18 21 19 21 23 25 27 25 25 23 23 23 21 25 23 21 24 22 24 25 23 26 25 26 27 25 24 20 24 20 22 22 23 27 25 24 26 27 26 28 25 28 25 25 25 24 25 27 25 23 23 21 21 22 18 15 16 
12 15 9 0 12 76 96 59 20 45 102 84 25 12 14 13 13 17 16 18 17 18 15 15 18 21 19 19 19 21 26 24 22 23 21 21 21 22 23 19 22 19 23 24 23 26 26 22 22 24 20 19 22 19 19 23 24 28 27 28 27 27 27 25 29 24 24 21 24 27 26 24 24 22 21 20 24 19 18 15 
11 18 18 14 19 86 99 56 19 52 97 73 17 6 9 10 9 8 12 12 13 15 12 14 16 19 15 17 20 21 25 22 22 21 20 24 21 21 23 23 18 22 25 23 25 23 22 24 23 20 19 24 25 24 22 22 27 27 28 31 25 29 25 25 24 27 26 24 23 24 25 25 24 24 23 25 25 23 19 9 
11 16 15 18 12 82 92 56 21 54 100 69 15 8 4 9 8 5 8 6 1 5 5 4 9 12 14 16 19 18 19 20 18 18 18 18 20 19 23 23 16 21 21 24 21 24 21 19 21 21 21 24 24 22 23 23 28 23 27 26 28 26 27 24 24 26 24 22 22 25 26 26 23 23 20 24 25 19 18 12 
5 14 16 12 20 88 86 46 25 62 97 64 18 8 8 8 7 6 7 4 3 2 3 2 1 4 3 8 8 6 8 8 13 18 19 17 18 20 23 22 22 24 20 23 22 21 23 23 25 26 22 24 24 24 25 24 24 23 25 28 28 26 25 25 24 28 26 24 23 24 25 25 25 22 22 23 24 22 17 14 
7 15 16 12 32 88 80 42 21 70 94 55 18 9 10 12 12 7 10 6 2 4 1 1 2 3 4 6 8 6 3 5 2 3 1 10 17 20 21 18 18 18 24 23 24 26 24 26 25 24 26 28 23 28 25 25 26 27 24 30 31 25 24 25 27 25 26 24 23 22 26 27 25 22 24 24 22 20 17 15 
6 16 13 15 33 88 79 37 23 75 93 53 18 10 8 12 10 9 8 4 6 5 5 6 1 6 5 3 6 7 7 6 4 0 1 14 16 18 16 18 18 21 21 25 22 23 26 24 26 25 24 24 25 26 28 22 28 26 28 28 29 27 27 25 27 27 26 25 21 24 27 25 25 26 26 26 22 23 16 13 
6 15 15 16 41 93 76 33 22 80 84 49 16 10 12 13 8 11 8 7 5 5 5 5 1 3 6 3 7 8 7 5 5 13 17 18 21 20 19 17 18 18 22 24 21 21 24 27 27 27 25 25 25 25 25 24 27 22 22 27 30 26 28 25 25 28 25 27 20 21 28 24 26 23 23 19 22 21 14 17 
11 13 12 15 44 96 74 33 22 83 84 47 16 15 13 14 13 8 10 7 8 7 8 6 5 3 6 5 9 7 9 15 20 21 21 19 21 19 21 21 20 23 24 23 22 25 28 27 27 24 25 25 28 27 27 26 29 26 27 27 29 25 26 27 24 28 24 25 22 24 28 27 29 24 25 22 25 25 15 15 
10 13 17 13 46 89 69 30 26 82 79 42 14 11 14 12 9 8 13 9 9 5 10 4 4 4 4 7 9 8 16 20 21 21 21 17 18 19 21 18 20 19 21 21 23 25 23 23 25 25 25 28 26 26 24 26 23 25 26 27 27 24 24 27 25 29 26 26 22 24 23 24 24 24 25 25 25 24 18 14 
11 16 17 17 56 92 72 26 26 82 79 38 16 13 13 11 15 11 11 10 9 5 7 7 7 7 7 5 8 12 18 23 20 20 17 16 20 17 20 21 18 19 21 22 23 24 22 24 26 25 26 24 25 24 24 25 28 25 27 27 28 27 24 26 26 25 27 28 24 23 24 25 24 23 23 23 22 20 18 17 
17 21 18 20 66 96 73 27 31 92 79 39 17 14 13 13 15 11 12 10 10 10 7 7 7 12 8 8 9 11 16 22 22 22 19 16 18 19 20 20 18 22 25 25 25 25 24 24 27 27 27 28 27 24 24 24 27 27 30 28 27 27 28 28 26 27 27 25 24 22 26 26 27 22 23 24 23 24 18 18 
39 39 34 34 83 104 75 25 35 91 81 35 13 14 13 12 14 16 14 9 11 9 8 7 6 9 8 7 9 11 11 20 21 17 17 18 18 18 21 21 19 20 24 24 22 24 23 24 31 25 26 27 25 24 26 23 28 26 27 28 27 27 28 30 29 28 28 27 28 21 24 25 25 22 22 23 27 22 18 22 
101 99 90 88 103 105 60 25 43 91 79 33 16 15 12 16 12 10 12 11 12 11 10 7 9 11 8 8 11 10 10 21 21 18 20 17 20 18 19 20 20 22 23 23 23 22 24 26 25 23 25 29 24 25 26 24 28 27 25 28 27 27 31 29 26 30 26 29 25 24 20 23 25 21 24 24 28 20 23 16 
99 105 105 102 99 90 51 29 49 95 77 32 15 11 12 13 12 13 14 13 12 10 12 10 9 8 11 9 10 11 12 20 18 20 19 18 22 20 22 21 19 22 23 28 24 25 24 25 29 26 27 27 26 23 26 26 26 26 26 27 28 29 31 30 30 26 29 30 28 29 26 26 25 23 22 27 28 24 18 17 
58 64 72 82 77 64 34 29 57 95 80 29 18 15 12 15 17 15 12 12 11 11 12 11 14 11 12 9 13 12 14 20 21 24 25 19 23 19 23 23 24 24 25 29 24 25 25 30 28 30 26 27 29 29 25 26 27 28 27 28 30 30 32 29 32 30 30 28 28 29 30 24 24 22 26 24 27 23 18 20 
22 29 30 29 29 27 25 28 59 103 82 33 17 15 15 17 15 16 14 16 12 10 11 10 14 12 13 12 12 15 14 22 23 24 20 21 22 21 23 23 24 26 24 28 27 27 24 26 27 30 30 28 30 27 29 25 30 29 29 30 29 28 33 33 32 31 29 28 28 30 32 32 24 23 26 25 26 30 17 16 
39 42 33 32 23 26 28 32 67 110 81 32 19 17 15 15 17 16 19 15 12 14 14 9 14 16 12 11 13 13 13 23 23 23 24 22 22 24 26 26 21 25 28 27 23 26 24 26 28 29 29 30 28 29 29 29 27 30 28 28 29 29 27 29 29 31 29 30 31 29 30 30 25 25 26 25 30 22 16 22 
106 107 95 88 71 68 60 59 89 113 81 32 18 15 15 16 16 15 19 15 13 16 11 12 14 10 15 13 10 12 13 21 22 22 22 20 24 24 25 24 22 24 24 28 23 27 25 25 28 27 27 22 26 26 28 27 23 27 26 27 29 31 29 28 30 30 30 29 30 29 29 28 27 26 28 28 26 26 22 20 
105 112 112 108 102 99 95 95 100 100 74 23 18 15 17 19 19 16 18 17 14 18 13 10 14 13 17 14 13 15 14 21 24 22 28 23 25 23 27 25 24 26 26 26 25 27 26 28 26 25 30 29 28 26 26 27 26 27 30 29 30 29 27 29 28 29 28 29 30 28 31 28 30 22 29 27 28 26 23 19 
59 68 74 80 81 92 92 91 91 82 52 17 19 15 13 20 19 18 17 17 15 17 16 15 15 14 16 15 16 13 16 18 22 23 23 24 26 27 30 26 25 25 26 27 27 28 26 23 26 26 28 30 29 28 29 26 27 27 30 27 28 29 27 29 33 31 28 31 30 28 35 32 31 28 33 27 29 31 28 24 
20 29 29 29 26 37 39 44 45 37 22 20 18 17 20 17 20 17 18 18 15 20 15 16 14 19 15 17 16 14 15 20 25 25 23 22 24 25 27 23 23 23 29 26 25 26 26 24 29 27 26 29 27 27 24 26 28 25 29 29 31 31 30 30 32 29 31 30 33 29 32 33 28 30 28 26 29 29 24 24 
20 26 23 22 19 20 21 25 25 20 21 18 19 20 20 21 16 19 17 19 19 18 19 17 16 18 16 16 18 17 16 19 26 24 24 21 23 27 28 25 26 26 26 29 30 26 27 26 30 29 27 30 30 29 28 29 30 30 32 31 30 33 31 31 31 29 34 28 31 30 33 33 33 33 29 28 31 30 29 28 
17 21 21 20 18 20 21 22 22 18 19 18 17 17 20 20 21 18 20 18 16 19 17 16 19 18 16 17 20 16 15 20 23 26 23 24 22 25 27 26 25 28 30 27 28 25 26 27 29 29 29 28 28 25 30 28 26 27 27 30 29 30 29 28 31 33 30 31 32 29 33 31 33 32 32 30 28 31 28 24 
16 23 24 22 17 17 21 21 21 22 21 16 17 19 18 21 22 19 20 17 21 20 19 17 20 17 21 18 19 20 17 22 26 22 25 24 26 26 25 28 26 27 30 27 31 26 27 26 28 29 28 28 28 27 31 28 30 27 29 33 33 33 32 32 33 31 34 35 32 32 35 35 34 32 33 29 31 34 29 25 
17 24 21 16 17 19 19 23 22 20 21 21 20 19 20 21 23 20 21 21 20 19 19 19 18 22 19 20 22 17 18 21 24 23 24 23 28 22 26 25 26 26 26 29 28 28 27 27 29 29 28 28 29 31 27 26 32 31 28 32 33 33 32 30 31 31 34 30 34 32 30 34 32 35 32 32 33 32 31 32 
19 28 24 22 16 24 21 21 22 19 19 20 21 20 22 21 23 23 20 19 19 22 20 19 21 21 22 18 21 19 17 23 25 27 27 27 25 25 25 23 24 28 28 27 30 25 27 27 29 31 27 31 29 29 29 28 29 31 31 33 32 30 31 29 34 32 36 32 31 33 31 33 32 33 37 32 35 34 34 39 
20 24 25 20 19 20 23 21 22 22 22 19 21 21 20 19 22 23 23 22 19 22 22 22 22 20 22 21 22 22 21 25 28 29 25 26 27 26 26 25 27 29 28 27 26 31 31 32 30 30 31 29 30 30 32 29 29 28 32 31 33 32 31 33 34 30 29 33 30 30 35 36 33 36 35 31 34 35 37 40 
18 25 23 21 18 22 23 20 25 19 20 18 25 22 21 22 22 24 25 23 22 23 21 20 24 21 21 22 24 21 20 22 31 28 24 25 25 28 27 24 26 28 30 25 28 27 30 31 31 31 29 31 29 30 29 30 30 31 30 30 31 32 32 31 30 32 32 33 31 33 34 33 31 30 37 34 37 34 40 46 
16 23 21 21 18 23 21 22 26 19 20 19 23 20 25 24 24 25 24 25 20 23 20 23 22 24 22 23 26 22 21 22 25 29 27 26 29 25 29 29 24 31 27 25 29 29 29 31 32 30 31 31 30 31 30 26 31 27 31 29 29 31 31 32 32 30 30 32 32 34 33 36 34 33 35 33 38 44 47 50 
19 23 21 22 20 19 22 20 25 21 19 20 21 17 21 23 24 23 25 20 23 24 22 24 23 24 23 24 26 22 22 20 27 27 23 27 26 28 26 26 25 26 29 29 29 29 29 31 28 31 29 30 30 27 30 29 31 27 27 28 27 32 31 30 31 31 33 33 35 33 33 36 34 29 35 39 56 53 49 52 
20 27 22 22 23 23 19 22 22 21 21 21 20 21 24 26 25 24 28 23 28 26 26 24 28 26 27 25 27 26 23 24 29 26 28 26 29 26 28 26 27 32 31 30 29 28 28 31 30 29 32 28 29 30 28 27 31 28 27 29 34 29 30 31 32 33 32 31 32 32 36 34 33 30 33 37 40 39 46 64 
22 22 23 24 18 23 25 23 25 24 21 21 23 23 24 25 28 28 28 27 29 26 26 26 28 32 26 27 28 25 22 22 27 25 26 28 31 27 30 28 27 29 28 31 29 32 31 28 28 27 30 30 27 29 28 29 34 29 31 28 32 30 29 32 33 32 32 31 35 34 37 35 34 34 33 35 41 34 47 97 
18 23 24 22 22 27 24 24 25 23 20 19 21 26 25 26 27 27 28 29 26 27 27 30 29 29 26 28 27 27 22 25 30 28 26 28 29 27 31 28 26 27 30 30 24 28 29 29 27 27 30 31 26 27 25 28 25 30 26 28 32 29 29 31 31 31 31 33 32 34 39 37 38 37 38 40 41 43 45 86 
20 20 23 25 19 26 25 29 23 24 20 21 22 24 26 28 26 30 27 29 27 27 28 32 26 29 29 27 30 25 25 24 29 32 27 30 31 29 32 29 27 31 28 28 29 27 28 27 30 30 27 28 28 24 26 24 25 28 30 32 30 30 30 32 28 30 34 34 31 36 40 45 61 65 70 72 82 82 97 131 
20 23 25 25 20 25 25 27 24 23 22 25 22 26 23 31 29 31 31 31 35 34 30 31 35 32 27 26 25 27 22 23 28 29 29 30 33 27 34 27 29 29 30 27 30 28 26 26 29 30 27 26 25 25 28 27 27 31 29 30 32 30 32 34 31 34 35 38 36 45 66 89 107 117 126 130 144 149 166 194 
20 27 28 23 24 28 29 29 26 23 26 24 28 27 29 30 31 32 33 34 34 36 31 30 34 33 33 29 28 29 26 25 29 31 30 31 31 32 30 30 29 32 28 29 31 31 31 31 32 31 30 29 28 28 26 26 28 34 31 30 34 33 34 32 33 35 35 38 36 65 104 125 134 140 149 157 171 187 201 227 
21 27 26 23 22 26 28 27 24 23 22 25 27 30 30 33 33 34 34 35 35 37 34 34 34 33 30 28 27 29 28 22 26 32 29 31 31 29 31 30 31 31 29 31 30 29 29 29 31 29 28 29 28 28 24 23 32 28 31 30 32 33 32 35 32 34 38 38 39 74 119 148 155 161 174 183 198 214 233 247 
24 26 26 23 24 29 28 26 25 26 27 25 29 28 29 32 33 32 36 31 36 36 35 35 37 34 36 37 35 35 35 29 26 29 33 32 32 29 31 33 30 32 30 30 30 28 30 30 28 28 31 32 27 30 24 26 26 29 31 29 34 32 32 33 32 32 33 38 36 69 118 151 164 174 180 192 207 223 244 249 
22 25 27 29 23 26 27 28 26 28 25 27 28 29 28 34 32 35 35 34 34 32 35 36 37 42 42 44 41 37 39 31 27 29 33 33 35 30 35 32 31 30 34 30 32 26 32 30 28 29 29 33 30 27 26 27 30 30 30 28 32 36 34 32 32 33 35 35 39 66 116 153 164 174 182 191 209 222 240 251 
21 29 26 30 24 26 28 26 25 28 28 27 27 30 28 34 34 34 34 36 35 37 37 36 39 41 45 42 41 40 37 31 29 31 35 30 31 30 30 33 30 32 34 31 31 31 28 31 27 28 31 28 29 27 29 26 27 28 29 31 31 34 34 34 33 33 33 35 39 61 109 146 161 169 181 188 204 218 239 252 
25 31 30 31 27 31 28 29 29 32 28 32 31 35 30 34 33 37 36 39 39 39 38 39 40 44 46 44 42 41 39 32 33 33 36 36 36 34 38 34 33 31 35 34 32 32 30 33 31 31 31 31 30 29 29 28 28 32 30 32 35 33 33 33 36 37 35 35 40 60 114 143 157 166 175 189 203 216 236 246 
26 30 29 31 27 29 29 30 30 33 31 31 31 30 32 37 35 38 39 39 41 44 38 38 44 45 46 44 41 43 40 36 30 34 35 35 33 36 35 35 33 33 36 34 34 33 29 31 31 32 30 30 32 29 35 32 33 28 33 31 32 33 35 33 33 35 38 39 42 55 107 137 156 163 175 187 200 215 237 248 
27 32 31 31 27 35 31 39 31 32 33 32 33 34 33 36 37 40 39 43 43 45 43 40 46 47 51 46 45 40 42 36 30 32 36 35 35 35 34 36 35 33 35 33 35 30 32 30 34 35 32 34 33 32 38 37 38 38 32 34 36 34 33 34 36 37 38 38 40 53 102 138 157 166 175 182 200 210 227 246 
28 34 34 35 33 36 36 37 35 36 37 36 38 33 35 38 39 40 44 44 46 47 50 45 46 49 51 49 47 43 44 38 33 35 39 39 39 35 37 39 34 37 35 35 34 32 35 33 32 31 34 38 33 36 43 43 42 41 36 34 34 36 35 35 37 37 38 41 40 54 98 135 152 164 172 179 184 187 211 248 
33 39 32 35 34 38 39 37 39 36 39 37 40 37 42 42 44 45 47 47 47 51 50 51 51 54 50 53 49 50 45 42 40 35 38 42 44 40 41 37 34 40 38 38 33 35 36 32 37 35 35 35 36 42 48 66 77 61 47 38 37 34 35 37 39 39 37 44 42 49 93 131 151 162 166 173 172 165 210 258 
36 43 44 43 34 37 44 41 41 42 38 37 41 43 45 48 47 45 48 49 53 58 57 53 54 60 58 61 56 53 51 47 41 43 42 44 45 43 41 41 38 39 42 40 36 38 35 34 38 36 38 38 41 44 74 194 169 101 61 46 38 38 35 39 41 43 41 39 44 51 94 128 154 162 170 180 183 195 226 244 
42 45 45 43 41 42 47 42 42 42 41 41 43 41 45 47 49 50 55 52 57 60 61 60 63 62 62 60 58 56 54 48 42 45 44 46 45 41 42 40 39 41 45 40 38 40 39 38 40 40 38 40 43 46 93 241 181 105 56 43 39 38 38 37 39 42 41 43 44 52 91 128 152 164 172 176 192 205 223 236 
48 47 50 46 46 46 48 47 46 48 46 43 47 47 48 49 54 55 57 61 64 65 64 63 68 67 67 62 59 58 52 49 41 42 44 48 43 43 39 39 36 41 42 37 44 41 37 38 41 36 40 40 43 44 60 92 93 69 51 41 40 38 37 38 40 40 37 43 42 48 89 123 154 167 169 177 194 208 225 234 
52 54 58 51 51 53 55 53 50 51 50 51 52 50 51 55 56 60 60 62 65 72 72 72 76 74 76 73 66 62 53 48 42 44 48 47 45 41 38 41 42 43 43 42 44 44 37 43 41 39 41 46 43 44 45 52 55 51 46 44 41 42 40 39 40 41 42 41 42 49 86 125 150 163 172 179 196 209 225 229 
70 71 68 57 51 56 59 55 51 51 50 49 54 55 55 57 57 62 64 72 73 72 75 76 81 83 82 74 66 61 55 50 48 48 48 49 50 46 57 67 45 47 50 47 42 46 44 45 40 42 43 45 42 42 46 47 50 46 46 42 41 38 40 40 40 42 40 39 41 45 76 129 151 166 174 179 199 212 220 228 


