P2
80 60
733
15 8 10 12 8 12 13 15 20 19 28 23 25 30 28 34 31 33 36 42 43 41 43 42 42 45 42 43 45 46 44 39 32 26 25 33 46 50 48 50 48 49 51 54 54 51 48 47 48 50 51 49 49 50 50 44 41 39 39 41 36 32 33 33 31 29 28 29 24 26 18 25 21 15 16 13 8 9 3 6 
9 5 10 5 10 10 11 11 24 21 28 27 31 35 34 34 34 35 39 38 45 42 39 43 44 46 44 40 43 44 32 33 26 25 30 38 48 49 49 53 49 52 52 56 54 50 50 48 49 49 47 49 47 45 48 42 44 41 39 39 41 32 32 33 32 27 29 28 23 27 21 19 19 13 13 10 8 8 0 4 
9 3 10 13 11 8 19 25 31 31 35 36 43 42 41 46 43 42 49 47 46 49 49 50 52 53 51 43 48 47 45 40 35 32 35 44 47 48 49 50 48 53 53 53 53 50 50 47 49 51 47 47 51 48 41 43 44 46 39 35 39 37 36 35 35 30 26 23 28 26 23 22 15 13 14 7 8 8 4 8 
15 13 25 29 27 30 34 40 47 41 53 52 53 49 53 56 54 50 58 57 62 61 59 59 58 61 60 59 54 56 52 54 50 46 42 48 49 45 49 55 51 51 54 54 55 52 52 53 51 52 51 47 49 49 45 48 46 43 38 43 39 35 34 33 34 28 26 27 24 27 22 21 19 16 13 10 5 3 1 2 
35 37 43 46 43 48 51 49 57 58 62 60 62 63 59 63 62 63 62 63 63 64 64 63 67 66 63 63 66 61 56 60 56 54 57 55 54 51 53 52 52 50 54 54 52 52 55 48 53 54 50 50 53 55 47 46 45 49 43 44 40 35 38 36 36 37 32 30 30 28 25 24 18 18 17 14 13 12 4 7 
47 44 55 52 51 53 56 54 67 63 66 62 73 66 67 72 69 68 68 71 70 70 65 69 68 67 67 68 68 65 65 67 61 62 65 61 63 61 56 60 60 57 58 53 55 51 55 49 53 50 56 53 53 49 54 50 51 52 45 45 41 37 37 35 38 32 36 36 31 32 30 28 25 17 19 20 11 14 11 10 
48 47 58 55 55 57 61 59 67 66 70 68 73 71 69 70 74 72 76 72 72 74 69 71 71 71 75 68 71 70 64 70 66 68 66 69 71 62 67 64 62 62 59 60 59 53 56 53 54 56 55 61 54 56 55 52 47 47 48 48 44 40 39 39 44 37 39 36 33 34 32 27 24 23 20 19 15 13 11 13 
50 53 61 59 57 59 67 64 73 72 72 75 79 74 74 75 72 72 77 75 76 77 71 77 74 76 75 71 74 73 67 77 70 68 73 71 73 70 71 71 67 70 67 66 65 62 64 62 60 63 62 59 54 59 57 53 53 48 49 45 44 44 41 39 41 41 37 38 35 32 30 31 29 25 24 22 18 13 11 9 
63 59 67 66 64 64 74 72 80 74 82 81 82 80 80 84 82 77 83 83 83 84 77 79 78 76 77 73 79 76 75 76 74 76 79 79 76 76 78 77 76 75 81 74 75 77 70 74 70 72 68 72 69 66 64 56 57 53 54 48 47 48 47 49 49 42 41 41 36 37 36 34 31 28 29 19 26 21 14 11 
63 64 71 71 65 71 72 76 82 77 80 85 85 86 82 89 84 83 85 86 85 85 78 84 80 81 81 79 84 80 78 82 76 82 79 80 78 79 80 85 78 82 83 83 82 82 83 81 82 84 81 88 81 84 83 74 67 65 61 54 48 46 48 43 48 43 41 43 41 42 37 36 34 28 26 26 23 20 21 15 
67 67 72 71 71 74 77 80 79 79 80 85 86 89 84 92 85 85 87 84 87 85 85 86 84 86 84 83 84 82 80 81 78 83 80 84 83 84 81 84 85 91 88 88 87 88 89 87 91 88 91 97 88 91 92 89 86 84 73 58 52 46 46 46 46 46 45 42 44 40 39 37 35 33 33 27 24 22 21 20 
70 62 76 69 71 72 79 79 83 83 83 87 92 88 88 91 93 90 93 88 93 93 90 91 89 90 85 85 84 86 83 84 82 78 83 84 86 85 88 89 88 90 91 93 94 93 95 92 97 95 99 98 97 97 96 89 96 92 91 78 65 57 51 49 50 47 44 43 42 40 40 41 36 33 31 30 25 25 21 19 
70 67 73 71 74 78 80 80 85 82 87 91 96 92 96 105 114 111 121 123 119 119 106 100 94 92 91 86 89 87 86 87 85 86 90 87 89 90 93 91 95 96 96 101 96 101 104 101 103 105 104 106 104 101 103 98 100 97 95 90 80 76 66 55 50 48 47 45 43 42 40 44 39 35 34 31 26 26 21 25 
70 62 74 73 77 80 86 83 91 86 95 103 114 126 148 171 184 189 195 197 194 189 172 152 132 114 99 95 91 94 93 95 91 95 95 92 95 96 99 103 101 101 101 106 109 112 109 106 109 108 111 113 111 108 108 107 108 102 99 96 92 81 84 74 60 56 49 49 46 44 46 45 39 34 36 32 29 29 24 25 
73 68 74 71 75 80 88 82 93 102 118 140 181 202 226 237 241 244 246 245 244 242 226 221 201 175 139 114 104 99 96 101 94 98 101 101 101 101 105 105 104 111 110 112 111 111 111 114 109 110 113 113 114 112 113 111 106 108 108 104 101 93 90 86 75 63 55 53 49 48 45 45 44 39 36 34 28 33 27 29 
77 69 72 73 75 82 89 93 105 131 176 218 244 260 269 285 297 305 315 306 303 295 276 255 244 229 208 176 133 105 100 107 100 104 106 104 106 109 111 112 113 115 115 113 115 116 115 113 116 113 113 117 112 117 117 112 114 110 105 106 104 98 94 90 86 81 67 59 47 50 48 47 46 39 40 35 33 34 27 27 
76 73 78 76 79 82 90 108 150 206 245 265 296 323 354 386 404 424 436 424 414 396 362 325 296 268 241 221 192 152 116 110 106 107 112 113 112 114 117 118 114 119 120 121 123 117 115 116 118 114 118 116 118 117 116 119 113 109 109 107 104 100 97 94 93 88 82 77 62 52 52 47 43 45 42 39 37 36 31 30 
73 73 79 82 80 89 112 154 227 268 299 339 401 462 505 535 557 573 615 572 550 535 504 462 394 336 281 242 224 205 153 122 111 113 114 116 116 114 118 118 119 123 124 122 127 120 122 120 123 120 120 119 121 117 119 116 115 114 113 108 105 105 101 99 97 88 87 84 73 65 53 51 49 43 45 36 37 34 32 32 
75 72 85 86 84 100 152 222 268 309 377 458 533 592 605 627 649 638 660 637 623 622 611 607 521 447 372 298 246 222 198 158 119 117 118 120 121 123 122 121 122 123 125 126 124 125 124 121 121 120 121 121 126 122 117 118 114 115 115 113 113 108 102 100 99 97 91 87 83 75 64 58 46 44 42 45 39 37 30 36 
78 76 81 85 93 141 214 272 326 403 503 574 641 650 657 671 664 672 669 678 672 661 645 646 605 594 511 405 308 247 217 200 147 120 124 124 129 129 127 126 127 124 123 130 128 130 125 127 126 122 123 121 122 123 117 117 116 118 114 117 109 107 103 103 99 98 94 95 91 80 75 67 55 43 41 46 50 51 41 41 
78 78 85 89 122 194 274 321 418 522 611 640 665 673 685 673 679 683 680 682 674 669 657 657 635 647 590 522 416 308 241 220 184 133 125 128 129 127 128 127 131 127 127 129 131 129 127 126 125 125 123 125 126 127 125 123 121 118 114 112 111 110 109 106 100 100 98 97 89 86 82 74 63 51 47 57 69 76 63 59 
81 75 90 106 159 251 312 406 526 602 649 657 677 699 703 692 686 690 681 676 668 669 666 659 654 658 634 602 530 403 290 239 213 171 128 129 130 128 129 127 125 130 129 133 130 127 130 130 129 125 128 126 126 129 125 127 122 121 115 118 113 109 107 105 107 101 100 100 94 92 88 79 70 57 48 46 63 84 80 66 
80 79 97 133 201 296 370 496 606 640 645 663 684 713 725 717 691 684 678 664 661 665 660 671 669 663 646 623 601 503 372 268 221 200 138 131 129 130 129 129 132 132 131 129 129 133 132 133 135 132 131 130 128 125 126 127 125 122 114 114 113 111 114 113 104 105 102 101 96 93 92 84 76 66 55 48 46 70 74 67 
82 85 102 152 250 327 444 562 641 661 666 688 704 722 729 722 691 673 661 658 658 656 659 662 665 664 649 631 619 576 467 327 235 207 154 128 134 129 129 130 128 134 131 132 130 131 132 137 136 135 131 130 130 128 127 125 125 123 118 115 114 113 111 108 109 106 103 104 98 98 93 88 83 66 58 49 46 50 49 57 
89 85 126 182 293 379 512 611 656 676 702 714 722 724 723 718 694 670 668 647 654 656 649 659 654 661 647 639 633 613 542 397 268 214 189 143 134 133 133 133 134 131 133 131 132 134 138 138 140 140 136 138 135 136 129 130 129 124 120 120 118 114 115 116 114 108 111 107 100 101 97 93 85 76 70 58 45 45 38 48 
88 88 138 214 321 425 562 632 665 689 724 729 729 726 718 718 703 670 657 651 654 657 650 646 653 655 650 646 644 639 583 460 305 240 223 160 137 137 138 137 135 130 132 132 134 134 139 137 140 143 137 136 135 136 133 135 129 130 127 123 118 116 114 117 118 115 109 107 102 101 100 99 94 84 72 61 54 51 43 44 
89 95 152 247 351 474 586 656 686 716 733 733 730 724 724 729 717 684 658 651 650 654 655 649 643 650 648 639 644 642 609 528 353 254 231 177 142 138 140 135 137 136 139 137 135 135 138 144 143 142 143 140 143 141 136 134 139 132 132 129 123 121 122 113 115 113 108 111 104 107 99 101 92 88 77 70 60 57 44 45 
91 102 166 271 373 513 611 665 698 730 730 729 725 719 725 729 721 701 681 665 648 650 647 650 638 648 648 640 640 642 614 540 396 274 244 193 144 140 139 137 141 142 137 137 132 133 139 142 143 142 141 140 142 140 138 136 133 140 133 127 127 127 128 119 116 114 113 114 109 110 105 103 98 93 86 76 67 61 53 45 
93 100 171 275 381 522 612 664 706 725 728 727 726 720 726 729 724 716 702 669 648 642 638 640 635 636 643 638 643 640 619 581 437 290 257 213 154 140 142 143 141 140 140 139 135 136 142 140 143 144 142 145 142 140 137 141 136 136 136 137 132 130 129 124 122 120 114 117 112 113 104 101 99 98 89 81 72 65 58 47 
91 107 173 289 392 529 615 665 709 724 730 723 719 720 725 732 724 725 716 672 639 629 621 630 624 629 633 636 644 641 623 584 460 302 263 219 159 145 146 145 143 143 139 136 137 140 143 140 143 145 141 142 138 143 143 138 141 140 137 132 136 131 136 130 130 125 122 119 113 117 111 110 107 97 94 84 73 70 62 54 
93 108 176 287 400 547 625 655 707 724 722 717 718 718 718 724 725 722 721 681 659 637 615 612 619 621 627 631 643 644 623 587 466 315 276 218 158 146 146 144 141 142 141 139 139 140 147 143 145 147 143 145 142 145 137 141 140 138 136 133 136 131 129 130 130 128 126 126 125 125 115 114 107 104 97 91 84 83 69 60 
95 107 172 281 397 533 608 647 689 712 718 716 714 709 717 723 719 721 717 699 661 624 612 605 607 618 628 636 643 634 622 579 460 317 278 217 157 145 143 142 143 144 145 140 140 143 145 145 144 144 144 142 144 142 143 140 138 140 141 137 134 130 132 132 130 126 124 127 123 126 118 121 117 108 107 97 92 88 76 65 
99 109 168 262 381 511 594 630 680 709 716 709 704 706 714 715 717 716 717 716 681 633 601 600 622 612 626 635 637 640 622 583 442 315 277 203 155 147 146 143 145 141 141 140 142 144 146 147 148 144 146 145 140 146 140 143 143 138 136 135 137 134 131 134 129 128 127 125 124 125 120 119 119 113 114 104 104 92 80 74 
103 112 160 235 356 480 585 623 662 698 703 697 698 709 710 710 716 712 707 719 695 642 611 613 609 620 630 637 639 635 616 554 409 305 269 189 153 145 145 145 145 146 143 139 141 146 145 145 143 146 142 145 141 144 143 142 140 135 140 137 135 134 133 134 132 133 129 128 125 123 117 117 118 113 117 112 105 103 94 75 
106 113 154 213 332 445 567 606 641 672 695 694 693 701 703 705 705 704 697 709 696 660 628 621 612 640 635 631 628 617 584 509 369 300 248 174 151 145 144 145 148 141 145 141 140 146 143 145 145 146 140 141 144 143 140 140 138 140 138 135 135 136 134 133 135 129 124 127 123 122 124 114 115 116 112 108 104 104 102 97 
109 115 139 190 281 393 508 582 616 650 689 695 691 697 697 697 692 692 687 695 700 693 659 632 615 620 620 621 614 611 558 466 335 293 223 166 150 144 147 146 143 144 142 141 145 145 143 144 145 145 145 146 143 142 143 143 142 138 141 138 140 135 134 134 130 130 128 125 122 125 125 115 112 109 106 105 104 103 99 99 
113 116 136 172 227 347 455 556 606 638 683 698 690 692 693 693 684 687 687 692 697 694 677 632 606 606 613 613 606 590 535 411 317 268 191 154 153 149 146 147 148 146 145 143 140 147 147 147 146 147 146 141 143 146 142 143 144 142 139 136 137 132 134 132 132 129 128 125 122 124 123 114 110 105 105 100 102 99 92 93 
109 114 137 152 191 280 400 496 580 620 670 698 689 692 691 696 696 693 696 697 701 692 677 637 610 598 602 597 599 554 463 355 304 226 173 150 151 148 148 152 145 143 144 141 141 146 146 149 146 149 145 142 143 145 144 139 142 144 138 137 140 135 136 134 134 131 130 129 124 123 120 114 111 103 104 97 101 94 90 89 
108 116 127 146 165 214 331 435 536 596 647 668 684 687 689 690 696 699 695 694 695 690 680 646 607 600 608 604 580 506 383 322 265 187 160 152 149 151 149 145 146 145 141 140 143 148 147 146 147 146 144 147 143 143 142 142 145 141 139 136 134 131 132 130 133 127 130 131 124 126 117 110 110 106 102 98 97 96 91 93 
106 110 130 135 148 180 244 363 459 550 608 627 656 679 686 685 693 693 692 689 689 689 676 644 606 606 607 587 525 413 337 287 203 165 149 149 150 151 148 144 146 147 146 146 147 149 149 146 150 147 144 141 143 141 142 143 145 141 140 138 135 132 134 133 130 130 127 126 122 124 122 114 109 103 102 99 99 99 95 94 
108 110 122 131 141 156 191 257 377 461 549 588 618 647 677 682 679 676 682 679 681 682 663 626 607 606 598 535 423 346 295 214 171 147 146 147 145 146 149 146 144 146 145 149 147 145 148 144 145 147 145 144 148 141 142 142 142 142 139 138 136 133 134 134 129 124 128 129 126 128 122 116 109 105 104 102 99 98 96 94 
106 108 115 125 131 148 160 194 252 360 434 511 567 607 634 655 655 656 656 659 662 652 623 606 596 585 511 408 350 294 209 173 148 142 148 142 145 147 146 145 150 152 149 147 148 148 143 146 145 146 141 143 145 147 143 139 141 140 141 134 136 133 131 131 133 129 130 128 126 126 120 114 105 105 102 98 96 94 96 98 
102 104 113 117 129 135 150 167 188 225 320 395 473 538 573 602 611 608 607 612 607 601 571 556 542 473 390 338 272 198 168 153 143 144 142 142 145 146 148 149 150 154 149 147 149 146 147 144 145 145 139 144 144 143 142 136 142 139 138 141 133 133 133 129 130 132 127 126 126 123 115 113 109 103 103 102 98 93 91 95 
99 95 108 113 118 127 136 148 159 171 199 254 348 397 444 483 502 518 540 533 525 505 473 432 388 357 303 229 182 162 144 148 138 143 141 140 143 143 147 148 149 151 149 149 146 149 148 141 143 149 145 145 140 139 138 135 137 139 136 134 130 128 129 130 129 127 129 127 122 120 123 111 105 106 101 101 97 95 91 94 
97 98 105 109 110 117 131 135 147 153 165 177 197 236 299 341 369 380 388 390 382 370 355 322 282 223 182 163 155 146 143 145 141 140 139 140 144 143 145 147 145 146 146 145 149 146 143 143 144 146 146 144 142 137 137 138 135 139 133 130 135 131 132 132 127 127 123 125 123 121 116 110 103 101 104 101 101 96 96 94 
100 94 103 105 108 115 120 126 134 134 145 148 161 164 176 190 211 223 246 245 238 230 197 185 170 162 153 146 147 141 140 141 140 142 141 141 142 142 147 149 145 143 144 148 149 148 150 144 142 148 144 143 142 143 137 137 135 138 136 135 136 132 132 132 134 126 126 128 124 122 115 110 106 102 104 101 100 102 95 98 
94 94 101 102 104 107 117 117 123 124 133 135 143 145 146 154 153 157 163 159 159 159 151 155 151 147 147 137 141 143 140 144 139 142 140 144 142 141 148 149 143 142 146 146 148 147 147 146 145 144 144 142 143 143 140 139 138 141 138 134 135 129 131 127 131 127 127 125 123 122 113 109 104 104 98 101 98 99 98 97 
92 93 99 98 102 106 109 112 118 119 126 129 135 134 137 141 142 141 145 143 145 145 137 142 143 145 143 137 139 142 141 141 141 144 141 143 143 146 145 145 140 138 144 147 146 146 147 146 145 146 146 146 144 145 141 146 142 141 138 136 136 131 129 129 129 125 128 126 125 119 115 112 108 104 100 99 93 99 97 99 
91 88 97 93 101 102 109 110 112 113 124 126 130 132 133 139 140 135 142 141 141 142 136 140 137 138 140 137 141 140 138 143 140 142 140 141 141 138 142 142 140 146 148 147 147 147 150 148 149 147 145 146 146 146 141 143 144 143 137 133 136 133 134 131 131 128 126 127 125 121 117 109 104 103 101 99 96 95 94 107 
86 83 90 90 94 99 105 107 114 113 118 124 129 124 129 133 131 131 135 135 137 135 134 136 136 135 139 133 138 139 138 142 139 140 138 139 139 139 143 144 144 143 145 148 149 146 149 145 148 147 144 142 145 144 140 140 141 141 141 139 136 131 131 129 128 127 126 130 126 119 111 107 103 101 100 95 96 100 94 101 
83 82 89 92 93 98 105 105 114 111 121 121 129 124 125 125 128 129 134 135 135 133 133 137 134 136 137 138 138 137 135 144 137 137 140 138 137 142 144 147 145 147 147 147 147 145 148 147 148 148 146 142 142 147 143 141 142 143 142 137 139 132 135 132 132 130 129 131 126 123 114 112 106 108 103 97 94 96 93 96 
79 81 86 88 88 94 100 101 110 110 117 114 118 121 124 124 122 122 126 130 131 131 130 133 133 133 135 130 135 136 133 140 138 134 136 140 140 141 146 146 145 147 145 146 145 147 146 144 147 149 142 145 141 144 139 141 143 144 140 139 137 135 134 134 132 128 129 127 129 119 120 118 112 107 108 96 96 94 95 95 
77 77 87 88 89 90 101 101 108 107 110 112 120 120 120 124 123 123 128 130 133 131 127 130 129 132 132 133 134 135 136 139 131 136 142 142 142 146 147 144 144 146 147 144 147 145 143 145 147 148 147 146 140 142 141 141 139 145 146 141 137 135 131 138 135 131 126 130 124 129 127 125 120 118 112 111 104 107 101 103 
75 74 82 83 88 91 98 98 106 106 109 112 114 116 115 117 117 119 122 127 129 128 124 130 128 131 132 129 132 132 132 138 134 135 139 141 141 142 142 144 146 144 148 146 143 144 144 140 142 149 141 139 136 138 134 135 137 135 135 134 134 135 137 133 133 130 130 126 125 125 125 124 121 120 119 117 110 112 108 108 
76 78 78 82 87 87 95 97 99 100 105 109 112 112 112 119 119 116 125 124 128 125 126 128 125 132 130 129 134 134 133 136 135 135 142 142 143 141 145 145 146 147 147 149 145 146 145 147 146 147 145 139 128 126 128 125 124 122 126 127 132 130 129 128 130 130 126 129 128 128 127 123 122 117 121 116 117 112 112 109 
77 74 81 80 85 89 94 95 100 100 105 110 111 111 110 119 116 116 123 123 127 128 125 133 129 131 132 129 136 134 135 138 135 139 143 142 142 140 143 144 147 147 150 146 147 148 144 142 145 147 146 139 133 129 129 129 126 121 119 127 122 116 123 126 124 123 122 126 126 121 123 125 121 121 120 115 115 111 111 108 
76 74 80 81 86 88 93 97 99 103 104 107 114 109 112 114 117 113 121 123 124 123 121 130 127 127 130 128 134 136 133 139 135 139 141 143 142 142 143 146 149 148 150 148 146 146 145 145 147 147 144 144 145 145 142 135 122 121 123 130 132 122 127 131 123 119 125 126 120 123 122 124 119 116 117 110 110 109 106 107 
76 75 83 83 83 88 94 99 104 99 104 107 108 110 110 113 113 113 119 121 124 124 122 130 125 127 131 132 135 132 133 139 138 140 140 139 143 144 145 149 148 146 149 147 147 148 145 145 149 147 146 145 145 146 142 136 128 123 126 136 146 143 141 137 127 125 127 123 124 123 122 125 120 117 118 110 107 107 97 108 
74 76 85 82 87 92 99 97 104 104 106 107 110 111 109 112 112 116 116 124 123 126 123 131 129 133 133 131 131 133 135 138 136 138 141 143 144 146 148 152 155 152 153 153 150 149 149 147 150 153 150 145 141 146 144 141 136 135 134 144 151 149 148 137 132 128 133 129 129 127 134 132 131 131 128 122 120 116 112 116 
64 70 84 85 89 100 104 106 114 112 112 108 120 113 116 123 122 119 121 128 132 137 131 132 133 140 140 135 141 141 143 145 142 146 146 152 153 155 157 161 160 159 158 160 157 159 156 153 157 160 153 143 141 138 137 139 142 145 148 148 151 150 153 151 148 148 148 150 143 146 152 152 147 146 141 138 136 129 122 118 


