P2
80 60
253
18 18 20 23 38 38 80 90 73 48 57 91 82 50 39 36 33 31 27 23 29 28 26 18 25 25 22 25 30 32 35 32 28 28 29 28 26 22 24 24 28 28 27 22 25 25 25 26 23 20 15 17 15 16 15 19 13 17 20 17 14 16 20 17 18 17 18 21 22 23 15 19 18 22 18 15 11 10 13 14 
20 21 27 22 35 42 90 96 70 44 64 93 82 45 38 38 36 31 30 25 27 27 26 24 25 22 25 29 31 33 33 29 29 31 28 28 26 24 26 28 23 25 27 24 23 25 28 27 26 19 14 16 14 17 18 20 16 18 18 18 18 15 17 19 20 19 19 24 27 22 22 25 22 17 18 17 15 12 13 13 
20 22 22 23 36 44 91 94 66 44 68 94 75 42 39 37 30 27 28 25 28 26 25 26 24 27 30 28 29 33 32 30 30 28 26 28 25 26 24 24 25 28 26 24 24 29 28 25 29 23 19 17 23 21 17 19 22 18 21 20 21 23 26 26 23 14 17 20 22 21 20 23 21 19 19 21 19 13 17 13 
23 23 21 28 39 46 95 93 56 44 75 93 71 37 33 31 30 30 26 26 25 25 24 25 23 30 30 25 30 32 33 31 28 25 28 24 27 26 25 25 26 26 26 25 27 27 28 26 27 22 21 21 27 25 24 26 27 26 27 26 25 24 25 28 25 20 17 21 20 20 19 24 21 23 21 19 17 9 14 10 
23 24 23 33 37 54 106 92 56 44 73 89 59 34 33 32 28 29 25 24 24 21 27 26 28 29 25 28 29 33 34 30 27 27 26 26 23 21 23 23 27 26 25 25 26 28 25 27 26 28 26 24 23 28 30 31 26 30 26 29 27 28 28 25 24 23 20 17 22 21 20 22 23 22 20 18 20 8 9 10 
23 19 26 33 39 67 102 83 53 44 82 87 60 35 31 27 28 27 27 24 26 27 29 27 27 31 30 30 29 32 34 31 28 27 25 28 29 25 23 26 21 24 26 27 28 26 25 27 27 29 29 29 32 28 27 32 26 28 31 28 25 28 23 25 23 21 16 19 23 18 22 26 23 24 22 19 19 7 8 9 
23 22 28 33 38 63 103 83 48 50 83 84 53 31 30 29 26 29 29 27 24 26 24 25 26 29 26 29 30 33 33 33 30 27 25 28 28 25 26 22 23 24 25 24 23 27 29 32 27 28 29 31 28 31 27 31 26 24 28 25 27 25 22 24 26 21 18 19 23 22 21 23 22 24 24 20 15 7 7 10 
16 15 22 28 36 65 100 72 42 48 84 88 46 27 26 23 28 24 23 22 26 22 23 20 22 25 25 23 24 31 30 30 28 25 28 27 24 22 25 24 23 25 28 26 25 25 26 23 25 28 27 24 24 29 27 23 23 24 28 23 24 25 26 26 25 21 18 18 22 23 23 23 23 20 21 16 10 9 12 9 
8 6 18 27 26 65 101 72 42 48 90 80 42 28 24 24 21 24 24 20 23 23 20 22 22 24 25 26 30 31 33 29 28 26 25 27 25 24 26 23 25 23 24 28 26 26 27 26 26 25 23 22 24 28 26 27 26 25 25 24 26 26 25 25 27 28 21 19 23 21 20 26 20 22 21 21 12 12 11 11 
11 4 8 0 11 71 100 66 28 48 96 81 41 26 24 22 20 19 19 21 24 21 23 22 24 23 26 26 26 31 31 28 26 29 28 23 27 25 25 26 28 25 27 24 26 29 29 29 24 28 22 24 23 26 23 27 28 26 26 27 29 28 29 25 30 27 21 21 22 23 23 24 22 25 21 21 10 14 10 11 
15 15 11 1 12 73 103 59 27 51 101 87 26 14 12 17 17 19 17 18 16 18 20 21 20 25 22 24 21 28 30 30 22 27 22 23 24 25 26 27 23 25 24 25 23 24 26 26 23 29 23 21 25 24 24 26 29 28 30 27 28 28 25 24 29 26 22 18 23 25 24 22 21 20 19 16 15 10 13 11 
13 17 22 16 22 83 103 55 26 59 100 76 20 11 11 14 12 11 12 14 16 19 18 17 20 22 22 22 23 26 30 26 25 24 23 24 22 24 22 25 22 28 26 24 25 27 27 26 27 24 24 25 28 27 27 27 33 30 29 30 27 30 25 27 25 25 24 21 18 21 24 25 23 24 23 17 13 12 11 13 
18 15 18 14 17 80 96 52 25 61 102 71 16 8 9 8 9 8 11 8 6 11 7 9 12 16 18 18 19 23 27 22 23 22 23 24 23 22 27 27 23 27 25 22 24 25 26 23 23 26 24 26 26 26 28 27 30 29 30 25 28 27 26 25 24 29 26 21 19 18 24 25 23 21 21 18 15 10 15 12 
16 19 18 15 24 88 89 46 32 68 102 66 19 12 13 11 11 10 11 9 9 5 7 8 10 8 8 13 12 13 14 14 17 21 20 22 21 24 26 25 24 25 23 24 25 23 26 27 27 29 27 27 26 31 27 32 28 25 28 31 30 28 28 26 26 30 24 20 18 24 25 27 25 21 22 22 13 9 12 10 
17 16 18 17 37 87 84 42 26 79 100 61 17 14 14 16 18 13 11 8 6 7 9 6 6 9 9 9 10 12 13 11 8 6 5 14 18 23 27 23 25 24 26 23 26 27 26 27 27 28 29 27 28 29 27 32 31 27 30 31 27 30 26 27 29 29 28 20 17 20 24 29 28 24 23 23 16 8 13 13 
14 17 17 16 39 89 85 40 27 84 99 57 19 13 16 17 15 16 13 9 11 11 9 7 9 10 9 6 8 13 13 12 9 3 8 15 18 21 19 23 22 23 25 27 26 26 28 29 31 28 27 26 30 30 27 28 32 28 33 30 29 29 29 26 30 30 28 22 17 22 25 28 27 27 23 23 21 17 12 18 
18 16 15 16 47 93 82 35 25 90 92 53 17 12 14 13 13 16 15 12 13 11 10 9 10 10 9 6 14 12 10 10 10 16 22 24 24 24 25 19 22 25 24 25 26 25 29 26 27 29 27 28 30 27 31 32 32 29 28 30 28 26 29 26 26 29 29 22 16 19 23 26 24 24 24 22 25 15 14 16 
21 17 22 15 51 94 80 35 26 90 90 49 20 16 18 17 17 15 16 12 13 12 11 10 9 11 9 10 10 14 13 16 24 26 24 25 27 24 28 25 25 26 26 26 26 27 31 32 27 29 27 31 32 30 30 32 32 31 33 32 30 27 29 26 28 30 31 24 19 18 26 26 31 28 26 22 22 20 16 19 
19 14 21 16 50 91 74 31 30 90 83 44 15 13 15 17 14 17 16 11 13 11 15 10 12 11 9 10 10 14 23 24 24 25 24 22 22 25 25 25 25 24 25 26 28 27 26 26 28 27 30 29 27 27 28 31 30 30 31 28 32 29 27 30 30 29 32 27 20 13 23 26 28 27 28 27 23 21 22 19 
21 19 20 21 61 95 76 29 33 88 85 41 18 17 13 15 20 21 17 11 10 16 13 14 13 13 14 11 15 17 24 28 27 26 21 20 25 23 24 25 22 25 24 25 26 29 25 27 29 29 30 29 29 29 29 30 30 29 31 34 32 31 27 25 31 28 30 28 17 12 18 24 28 28 24 21 23 23 22 20 
26 24 24 21 72 96 78 30 36 100 85 41 18 16 17 17 20 21 15 15 14 15 12 13 14 16 11 16 14 19 21 26 25 28 22 21 20 24 23 22 25 23 26 29 26 27 26 27 27 27 29 29 29 30 28 29 30 29 32 31 30 31 31 29 30 30 31 28 24 12 19 23 27 25 26 22 21 24 20 24 
48 38 38 36 86 107 77 30 39 99 85 40 18 15 16 16 14 19 15 12 12 14 12 12 14 11 13 13 12 17 17 22 24 24 21 23 20 24 24 27 23 25 28 26 24 28 26 29 31 30 25 26 28 31 30 30 31 31 28 31 31 30 30 28 30 30 29 31 24 15 11 24 24 25 23 20 23 23 21 19 
104 99 95 92 107 104 65 24 48 101 83 38 20 16 14 16 15 17 17 12 14 12 14 10 16 11 12 11 16 17 13 23 23 23 21 21 23 22 22 21 25 25 26 26 24 29 25 27 27 29 30 29 29 27 29 28 32 28 30 29 30 28 29 27 29 31 29 29 27 17 15 21 23 25 22 23 25 20 19 22 
107 100 104 103 101 87 53 28 57 99 82 31 16 12 15 15 14 15 13 13 16 14 13 12 12 11 15 14 12 16 15 23 25 22 19 24 24 23 25 24 24 25 25 29 26 28 25 24 30 29 30 28 31 26 28 30 27 30 30 32 31 27 31 28 32 31 31 33 29 22 17 20 19 25 22 24 23 23 17 16 
65 63 78 82 80 64 36 27 62 108 82 34 20 15 16 20 19 19 19 15 16 17 17 17 17 12 15 13 17 16 20 20 25 23 25 26 26 23 26 27 30 27 28 27 27 29 27 30 28 31 30 30 31 32 28 31 31 29 32 32 29 33 36 30 31 30 31 30 30 26 25 15 18 19 22 19 20 25 22 21 
33 26 30 29 32 26 29 28 63 113 83 38 17 20 17 20 20 22 20 15 15 19 15 16 18 17 18 16 17 18 21 25 24 27 24 25 25 27 29 27 28 28 26 32 32 29 27 29 31 31 29 29 31 32 33 31 28 30 31 33 31 31 30 33 30 35 35 33 30 28 29 24 17 16 18 17 18 19 20 21 
46 42 37 26 25 23 28 33 76 118 87 30 16 19 21 18 20 20 19 17 15 16 15 19 13 15 13 16 17 17 20 27 27 25 26 25 24 27 25 28 27 29 30 28 25 27 28 27 28 29 31 31 30 35 31 31 30 32 32 28 29 32 29 30 31 31 29 35 29 30 29 26 27 20 16 17 13 15 19 17 
107 100 95 79 73 63 64 61 96 119 87 31 18 19 19 19 18 17 22 14 14 18 16 16 16 16 16 17 16 17 18 26 24 25 24 25 28 27 27 27 27 28 28 30 28 28 27 28 28 30 29 25 32 29 29 30 28 29 30 28 29 30 30 29 30 29 31 30 32 27 27 31 27 28 27 26 23 20 19 18 
107 107 108 100 101 95 99 94 109 106 74 28 19 18 19 21 21 22 19 19 19 19 15 13 17 18 18 17 18 20 18 24 28 27 28 26 25 27 26 29 27 33 29 29 30 27 27 31 29 29 31 31 33 32 29 28 30 30 30 30 29 29 30 30 33 32 32 31 33 27 32 30 30 29 31 29 25 21 22 21 
63 66 76 76 83 85 92 89 93 88 56 21 19 19 19 19 22 21 19 20 19 23 19 20 19 17 19 18 17 17 20 22 25 26 27 27 25 27 31 32 29 29 29 26 30 25 28 29 29 29 28 29 31 29 28 30 30 28 30 28 28 28 31 28 32 34 33 33 31 27 29 34 31 26 26 26 23 24 24 27 
27 29 31 30 32 33 41 44 51 47 29 21 20 20 22 21 23 21 19 21 19 22 20 20 16 18 21 20 20 18 19 25 28 29 27 25 24 27 27 29 28 30 32 26 27 30 31 29 31 29 30 29 30 32 30 32 34 29 30 32 31 31 29 33 31 34 33 33 32 29 31 31 28 27 28 23 26 26 26 22 
27 20 23 20 25 22 26 21 30 26 21 19 18 19 20 23 20 24 23 19 22 24 21 21 19 21 18 20 20 22 20 25 28 29 26 25 27 25 30 29 29 30 31 29 31 28 28 29 31 35 29 31 34 32 33 30 32 31 31 30 32 33 31 31 30 34 33 32 31 30 32 31 31 32 27 24 25 25 24 24 
26 21 24 20 21 15 26 22 23 25 19 18 17 21 24 25 24 21 21 23 22 23 21 19 23 20 18 19 23 23 19 23 27 27 29 29 25 28 30 29 29 26 30 28 30 27 28 28 28 31 31 31 32 30 31 32 29 30 31 33 31 31 31 32 29 35 31 34 32 28 29 29 35 31 26 26 25 27 24 27 
25 23 22 23 23 16 24 18 26 27 23 19 19 20 23 22 24 26 20 21 27 23 23 22 24 20 22 21 21 23 23 28 30 30 27 27 27 29 27 31 32 32 34 31 30 28 29 30 28 31 32 32 31 31 33 34 29 30 32 31 31 34 33 36 32 34 34 38 33 29 31 32 32 34 32 26 27 28 28 26 
29 24 26 19 23 16 22 23 27 25 21 19 20 20 24 25 24 25 25 24 23 22 23 22 22 26 23 22 25 24 22 25 28 30 30 28 29 25 27 27 30 32 30 33 31 31 30 28 31 32 31 33 33 31 29 31 33 33 31 32 35 33 34 35 36 33 38 35 34 32 29 34 31 33 31 27 24 26 26 27 
27 28 28 22 21 19 25 18 26 25 22 20 21 24 23 25 25 27 24 24 23 26 25 25 26 25 23 24 26 24 24 30 29 29 31 30 31 29 30 30 27 33 31 30 32 29 30 29 31 34 31 30 33 35 32 34 32 33 32 32 35 32 33 32 34 32 35 36 35 34 31 36 35 34 31 32 26 30 33 31 
29 26 27 24 25 18 24 22 29 30 24 24 21 22 23 27 27 28 26 26 24 25 27 26 28 26 26 24 25 28 26 30 30 33 27 29 31 28 29 32 31 32 31 29 31 31 31 32 31 34 35 31 39 32 33 33 35 34 36 36 33 34 34 36 34 31 33 37 33 31 35 35 34 33 30 28 27 29 33 34 
28 23 29 24 21 21 26 21 30 26 22 23 23 22 25 24 25 28 26 24 27 26 25 22 26 26 28 27 28 25 24 26 31 30 30 28 27 30 27 30 32 32 32 29 31 30 34 35 33 35 30 31 31 34 33 35 33 31 33 30 32 33 34 32 33 33 35 35 32 32 32 35 33 33 30 28 29 25 34 34 
25 23 27 21 21 22 23 21 34 30 19 19 22 22 26 29 29 27 28 26 25 27 27 26 27 28 27 28 29 30 25 24 26 32 30 30 28 28 30 30 30 37 32 29 31 32 33 35 34 31 31 33 33 33 32 33 35 31 34 28 30 32 30 32 33 34 34 34 36 34 33 32 35 37 31 28 32 39 40 43 
23 21 26 25 24 20 25 20 33 26 24 24 21 23 28 28 30 28 29 24 27 27 25 28 30 28 28 28 30 29 30 27 34 34 30 32 30 33 31 31 29 32 35 31 32 31 36 32 31 30 31 32 32 31 33 37 32 32 30 31 32 34 32 32 32 34 33 38 38 34 32 37 32 34 30 37 51 47 41 42 
23 25 26 24 26 20 26 20 30 23 22 22 24 24 27 30 28 34 29 29 27 27 30 29 28 32 31 26 30 27 27 29 29 34 31 32 31 33 33 31 32 37 33 32 34 34 30 33 31 32 34 29 34 32 34 35 30 35 32 32 35 31 32 32 33 35 36 36 35 30 32 38 34 34 28 30 35 38 43 39 
23 22 26 23 27 20 28 18 29 26 19 25 22 23 28 28 29 31 30 28 30 31 29 29 33 34 29 29 33 30 28 27 30 31 31 34 32 30 32 33 35 34 33 33 30 32 32 31 34 30 32 32 32 33 31 35 32 30 36 27 31 33 29 33 31 35 34 34 35 33 31 36 35 35 32 36 35 36 39 41 
26 26 26 21 27 23 27 22 29 26 25 25 22 27 29 30 29 32 29 31 30 32 30 32 30 34 29 31 31 32 27 28 34 32 31 33 32 32 32 31 33 33 31 30 28 31 31 31 31 29 32 32 30 32 28 30 28 32 31 30 31 32 32 34 31 35 33 36 36 31 33 38 38 38 36 36 40 39 40 38 
27 21 26 23 25 22 31 29 33 28 22 23 24 24 27 30 30 34 31 30 29 33 33 36 30 33 31 32 31 32 29 31 34 33 31 33 31 33 37 34 33 34 30 34 31 30 30 29 32 31 30 30 31 33 30 27 28 30 33 30 29 32 32 34 28 32 35 37 35 36 35 44 44 47 50 55 69 83 96 116 
25 22 23 25 27 23 30 27 30 29 23 23 23 31 27 33 35 33 33 34 34 35 35 33 34 35 33 30 29 31 28 28 32 32 33 32 35 34 33 32 34 33 30 31 30 32 31 28 31 31 33 29 28 28 30 31 28 31 35 32 33 30 35 33 30 34 40 38 35 43 66 82 91 105 114 120 137 150 170 193 
27 25 30 22 27 24 33 33 31 28 24 25 28 30 31 31 31 37 36 35 34 38 36 36 36 36 34 31 32 34 29 30 30 33 34 33 33 35 32 34 34 34 29 30 34 29 32 33 31 31 32 31 31 31 30 29 27 33 32 30 33 34 37 33 33 34 36 39 39 64 103 124 133 137 148 156 169 183 206 230 
28 28 28 24 26 23 32 28 31 32 24 24 26 29 34 33 34 36 39 36 36 38 37 37 36 34 32 32 30 33 29 26 29 35 31 34 35 33 34 37 37 35 31 30 31 34 31 31 30 32 32 31 30 31 32 30 32 33 32 32 35 33 35 35 31 34 38 41 42 71 117 150 156 163 174 185 198 215 238 246 
27 25 26 24 28 26 30 28 29 32 26 26 29 33 31 34 36 36 37 36 36 38 35 38 39 40 42 40 37 38 38 33 28 33 33 37 33 32 34 34 34 36 32 37 31 33 32 31 30 32 33 31 29 33 32 31 30 32 32 32 33 32 34 33 32 34 36 42 42 67 120 153 167 174 182 194 207 223 245 249 
27 24 29 26 26 26 33 26 32 32 27 28 27 32 31 35 34 37 40 35 36 38 37 38 41 43 46 45 42 42 37 36 32 32 35 36 34 33 34 35 36 38 34 35 31 30 35 32 33 31 31 32 34 31 28 30 32 30 32 30 32 36 35 34 33 34 36 39 40 62 114 153 166 176 183 193 204 221 240 253 
27 24 25 28 26 23 29 26 33 33 30 28 30 33 31 36 37 39 36 35 38 39 39 38 39 43 49 44 43 44 41 37 32 36 37 35 36 33 33 37 35 37 35 31 33 35 31 31 30 34 32 31 34 31 32 30 32 31 34 32 32 34 32 31 31 33 39 39 41 59 108 146 164 175 181 191 201 217 242 249 
35 28 31 31 28 27 30 28 36 38 31 29 30 37 33 36 35 41 40 37 39 39 42 40 42 44 48 46 43 47 43 40 32 32 36 39 36 36 40 38 37 37 39 36 34 34 33 32 27 33 33 34 36 33 31 34 32 31 33 32 35 35 35 33 34 38 38 38 41 57 108 142 160 169 179 194 199 214 238 247 
33 32 32 31 29 27 31 30 39 37 34 32 31 32 36 39 36 41 43 39 42 45 45 43 42 46 50 47 43 46 48 41 34 33 38 38 39 35 37 40 38 36 36 34 33 38 33 31 37 33 32 31 38 35 36 36 36 33 35 36 34 35 36 36 35 35 39 40 44 54 100 136 156 163 174 188 196 213 239 244 
32 31 36 32 32 28 37 33 37 37 33 32 30 35 37 38 38 46 43 41 47 45 46 44 45 46 54 50 46 45 46 41 33 36 38 38 37 37 37 37 40 40 36 36 35 35 32 32 34 34 33 34 36 35 38 44 40 37 36 37 35 31 37 35 37 40 38 39 41 52 101 137 156 164 172 183 195 207 233 242 
34 30 36 33 38 30 38 33 40 40 35 32 36 35 38 39 42 43 45 44 47 49 46 47 51 49 54 50 48 49 51 40 39 37 39 40 40 40 38 42 37 40 36 37 35 35 37 35 35 33 35 35 37 38 44 47 44 43 40 33 33 36 37 35 35 35 38 40 39 51 97 134 152 164 167 175 182 183 216 242 
37 34 39 34 39 36 42 36 43 41 35 39 39 41 42 43 46 49 47 47 50 50 52 54 50 58 51 54 49 51 50 48 41 40 38 43 41 41 40 40 40 41 39 37 38 38 37 33 36 38 37 36 38 43 51 66 80 62 51 39 40 36 39 37 40 40 38 42 39 48 94 132 151 162 166 173 172 162 212 241 
41 40 41 40 39 33 49 40 42 48 44 39 39 41 48 55 48 52 55 52 55 60 60 56 59 60 61 62 58 57 56 49 40 42 45 47 43 46 43 44 44 44 41 40 38 40 38 38 40 42 41 38 40 47 79 197 170 104 62 45 41 39 39 39 40 42 42 43 47 50 93 133 159 165 171 180 179 194 230 240 
49 39 45 43 41 38 48 40 47 50 46 41 41 46 48 51 58 57 55 56 61 63 67 65 63 64 62 61 60 60 56 52 41 42 49 47 50 44 46 43 43 43 45 40 39 41 40 39 40 40 41 42 47 49 95 243 183 104 59 45 41 42 43 35 37 41 43 44 47 50 89 130 154 162 171 178 191 206 230 235 
54 45 51 45 47 42 47 47 51 51 48 47 43 48 53 50 59 59 57 61 65 67 69 67 69 70 72 66 62 58 57 53 46 43 48 54 48 45 41 43 43 47 44 41 45 42 39 40 39 42 39 39 42 49 62 97 91 71 56 43 38 37 38 39 38 41 41 43 44 47 86 129 152 166 168 178 190 203 224 235 
58 55 57 52 56 50 57 51 54 55 47 51 50 54 56 57 56 60 61 63 67 72 76 75 76 75 78 73 66 65 60 55 46 48 47 52 48 42 41 46 46 49 46 43 46 44 42 46 42 43 44 43 45 46 47 57 60 53 47 47 40 40 42 39 36 40 42 45 47 48 82 133 150 163 172 180 194 205 223 229 
78 70 69 53 56 54 59 52 53 56 54 57 57 58 59 60 60 62 66 68 73 73 82 81 81 81 84 78 68 66 62 57 48 50 47 53 52 50 57 73 48 52 51 46 46 47 45 44 41 45 44 44 45 47 44 50 51 48 51 42 42 37 42 40 38 42 42 42 44 45 76 137 153 167 173 181 194 206 223 229 


