P2
80 60
172
10 19 18 20 19 24 15 12 16 16 15 11 15 12 16 18 18 18 16 16 21 16 20 17 18 18 17 13 14 16 14 18 15 15 17 14 14 14 16 15 14 14 12 13 12 9 12 10 12 12 12 16 17 15 15 13 14 16 16 14 14 8 10 14 12 12 11 13 14 15 14 18 14 14 18 15 17 16 12 12 
10 13 11 11 18 20 16 12 13 13 14 14 11 10 15 15 18 20 20 17 16 14 17 15 13 17 14 15 16 12 13 17 12 13 14 14 13 12 15 15 13 10 14 15 11 8 10 9 10 11 10 14 16 16 16 13 14 15 16 12 13 14 11 13 13 12 12 10 13 15 16 16 14 13 16 15 12 16 13 12 
7 15 14 17 14 21 12 11 13 12 12 12 14 11 14 16 16 18 18 19 19 17 18 11 14 17 14 16 13 13 12 14 15 11 10 12 11 14 14 17 18 12 11 14 12 9 11 9 12 14 13 17 14 15 17 11 12 13 16 17 14 12 11 10 12 10 10 15 12 13 14 15 14 14 17 15 14 12 15 11 
14 16 14 17 16 14 13 10 14 15 10 12 11 10 16 19 16 17 18 19 24 17 15 13 13 17 11 15 15 14 13 12 14 11 14 13 11 11 12 18 16 14 10 11 10 8 10 8 10 9 10 10 14 15 17 8 11 13 14 18 11 14 9 13 12 13 13 10 10 14 13 15 11 15 15 14 18 15 14 12 
9 14 14 15 15 19 13 11 17 15 13 14 12 10 15 16 14 17 20 26 22 16 18 15 14 17 13 16 14 14 14 16 14 13 15 16 14 13 13 15 12 14 10 12 11 10 13 7 12 13 9 14 15 15 12 3 6 14 18 13 14 13 13 13 13 13 14 15 16 16 14 16 15 12 18 16 19 17 13 16 
9 10 14 17 15 20 16 12 16 13 14 12 12 12 12 16 16 17 20 19 19 16 16 16 13 16 15 15 15 16 16 14 16 16 15 14 12 14 14 13 14 14 14 13 14 8 12 8 11 12 11 12 13 11 4 0 2 10 15 14 12 13 13 14 17 14 16 12 16 17 15 16 14 18 19 16 19 13 20 14 
10 11 8 17 15 21 11 9 13 12 13 13 13 10 14 18 19 18 24 25 22 19 15 18 16 17 15 17 13 14 14 15 15 14 13 15 12 11 15 10 12 14 13 14 12 8 8 8 9 11 10 11 11 7 8 1 0 8 15 12 12 14 12 14 13 13 12 15 15 15 16 15 16 16 23 28 19 14 10 11 
10 8 16 12 16 16 11 10 14 14 17 13 11 12 15 16 16 20 23 24 25 22 17 17 16 15 18 14 13 15 14 14 13 11 12 13 14 15 14 14 11 13 10 13 10 10 13 9 13 10 10 12 14 12 12 10 8 14 12 13 14 12 13 13 16 15 14 15 14 14 12 12 16 18 22 18 19 14 16 15 
8 9 13 16 17 20 12 8 14 12 13 11 13 13 14 20 20 19 22 23 20 19 18 17 17 16 17 15 14 12 13 12 14 10 13 14 8 15 13 14 13 10 11 12 14 15 11 10 12 12 11 16 13 13 17 11 13 12 11 11 16 14 11 12 13 11 14 13 14 13 11 13 15 15 18 17 14 15 18 8 
8 14 14 14 15 13 11 9 14 9 10 12 11 14 16 17 15 18 18 19 18 17 17 17 16 15 21 15 10 16 14 14 12 11 16 16 12 15 13 14 14 11 13 14 11 10 10 8 14 12 12 14 13 10 17 14 16 13 12 13 16 13 12 12 12 11 14 12 15 14 14 10 12 14 18 18 14 17 14 7 
8 10 12 14 14 13 11 10 14 10 8 11 15 12 14 16 16 15 19 20 17 16 18 17 20 18 19 12 7 14 14 15 15 12 14 15 16 15 15 13 12 16 12 14 13 11 12 10 12 15 10 14 13 13 16 15 15 16 14 13 13 9 12 13 14 13 15 16 13 13 13 11 15 11 16 14 16 12 11 6 
6 13 13 15 15 12 14 12 12 11 13 14 15 12 16 18 18 19 19 24 19 17 17 16 17 17 18 12 7 12 14 15 14 14 14 17 16 14 16 16 14 12 13 13 12 9 14 13 17 15 14 16 16 13 17 14 13 13 14 11 11 15 11 13 12 14 15 10 14 14 12 14 10 13 11 14 12 12 11 8 
7 10 15 15 13 14 8 12 13 11 9 11 13 12 15 14 17 17 17 20 17 18 16 16 16 18 12 4 2 10 12 13 14 17 14 17 14 15 15 15 13 13 14 12 16 13 14 13 14 13 9 12 15 17 12 15 12 9 11 6 9 13 11 13 12 14 15 15 11 13 12 8 11 12 12 16 13 12 13 6 
4 9 10 14 11 10 10 13 13 11 13 12 10 9 15 16 19 18 20 22 19 18 19 15 16 16 13 11 8 12 13 11 14 15 15 14 14 12 12 14 14 12 12 9 11 12 14 13 15 13 12 10 15 14 17 14 10 11 9 8 6 9 12 11 11 11 12 8 13 11 13 8 8 13 11 14 12 13 17 11 
6 6 10 14 14 15 12 12 15 15 11 13 14 14 17 17 16 17 20 20 20 19 19 18 18 21 17 16 13 15 16 15 13 15 13 12 16 17 9 11 16 13 14 14 18 15 15 13 16 13 13 12 16 17 15 14 15 12 13 13 9 10 11 10 12 13 11 10 12 15 11 10 11 9 13 10 15 10 11 12 
3 9 9 13 14 16 12 11 15 15 11 14 13 11 15 19 15 16 15 20 19 18 17 17 17 16 16 17 17 14 14 19 13 14 13 12 15 15 3 5 11 15 11 14 16 13 17 10 16 12 15 13 14 17 16 15 17 14 15 12 15 13 13 10 10 10 11 12 11 13 10 11 10 11 14 14 10 13 11 11 
5 5 9 16 13 17 15 13 13 13 14 13 14 16 15 17 18 17 20 23 20 20 20 21 19 23 18 17 16 19 17 13 16 15 13 16 14 14 9 5 12 12 13 16 20 16 15 12 17 17 14 17 20 18 18 18 17 18 15 16 14 14 10 12 13 14 13 11 12 14 12 12 14 12 11 14 11 13 14 12 
4 7 9 12 13 17 15 16 13 16 14 14 12 13 14 17 17 18 18 20 21 19 23 20 18 18 18 18 17 18 15 19 15 14 16 12 15 13 13 15 14 12 14 19 16 14 15 14 16 15 12 14 19 19 22 16 19 18 16 19 15 12 11 14 14 11 14 12 12 14 11 12 16 10 12 14 10 10 10 15 
4 7 11 8 13 14 16 13 16 17 12 13 14 14 16 18 17 19 16 21 17 17 21 21 19 19 17 15 18 16 19 19 16 16 14 17 12 14 13 16 16 15 14 14 16 18 16 16 16 17 15 18 20 20 20 19 20 18 19 20 16 15 14 12 14 11 13 12 10 12 12 9 17 12 12 11 10 14 8 7 
6 10 11 9 7 15 14 15 22 19 13 15 14 14 15 15 19 20 18 19 17 17 20 20 17 20 15 14 20 17 18 17 14 15 14 15 13 15 16 15 15 12 13 13 16 14 18 20 17 19 21 21 22 21 21 19 20 21 21 24 19 14 15 15 13 14 15 11 8 11 10 16 13 14 14 18 14 11 8 6 
6 13 13 8 10 12 13 16 17 15 14 12 11 12 16 17 18 19 18 17 17 18 18 17 19 24 19 19 17 16 13 19 16 14 13 14 13 16 18 16 13 14 14 17 18 15 19 15 18 16 20 18 16 18 21 21 20 22 20 22 19 18 15 13 14 14 14 16 10 12 14 11 14 11 12 14 11 13 12 9 
7 14 11 9 12 17 14 14 20 18 14 15 14 12 16 16 19 18 18 17 19 18 19 17 18 22 15 17 16 14 17 14 13 15 15 12 13 16 16 15 13 18 14 17 17 13 19 14 20 16 17 17 18 21 23 21 20 20 22 21 19 17 16 18 18 16 18 14 13 14 12 12 14 12 14 16 10 11 9 5 
7 13 13 8 13 14 10 18 20 20 16 17 18 18 14 18 19 19 18 17 19 17 18 15 20 19 16 19 16 17 14 12 14 14 14 13 15 15 14 16 13 14 14 16 13 15 18 15 17 16 19 19 19 20 23 21 21 21 21 20 19 21 17 18 19 23 24 18 13 12 11 9 14 9 14 13 13 11 9 8 
10 12 14 12 13 11 13 17 19 20 17 18 16 16 19 19 20 17 19 17 19 20 18 15 18 19 19 15 17 14 17 14 16 14 14 10 15 15 12 14 13 13 12 16 16 15 16 12 20 20 18 17 19 19 20 19 21 22 20 23 16 17 18 17 23 23 23 20 14 14 12 12 10 13 14 14 16 12 12 8 
7 10 13 15 9 14 12 17 21 19 15 18 17 20 19 22 18 20 18 18 18 19 17 17 18 17 18 17 17 16 18 15 16 16 14 14 14 15 14 16 13 14 14 15 16 15 19 17 20 20 20 18 19 19 20 18 21 22 20 26 17 21 19 15 17 16 18 18 14 16 13 13 13 11 13 12 11 13 12 8 
9 10 14 15 11 13 8 13 20 18 17 17 21 17 17 23 20 21 21 20 15 17 20 18 19 18 18 19 17 14 19 15 17 17 16 16 13 15 14 16 14 15 15 14 19 17 17 15 21 22 21 20 19 18 21 19 23 24 24 25 20 19 17 14 14 14 17 13 13 12 14 15 12 12 13 12 15 14 16 11 
11 13 14 14 9 15 11 12 18 21 18 17 19 17 18 24 20 20 21 18 20 18 18 20 17 17 18 19 20 16 16 15 18 16 16 17 16 14 16 17 15 15 13 17 17 16 18 14 20 17 20 18 19 19 20 22 20 22 23 24 19 15 14 15 15 13 14 12 14 12 14 10 14 12 15 13 15 14 16 9 
12 17 17 15 14 15 10 13 21 19 15 19 18 16 23 24 21 22 23 21 22 18 16 18 18 17 17 19 18 16 20 17 16 16 14 15 16 16 18 19 18 14 13 19 19 14 22 17 19 18 17 22 19 19 23 23 21 21 19 24 19 17 16 15 15 13 15 13 12 14 14 11 13 11 15 15 10 12 15 12 
15 16 17 13 14 16 10 16 20 18 16 18 21 20 22 25 22 20 24 23 20 18 18 17 16 18 18 18 18 17 18 16 13 15 19 15 17 15 17 21 17 15 15 14 19 16 19 19 17 16 20 21 21 25 22 19 22 24 26 25 24 19 21 18 15 13 14 11 13 14 11 12 13 12 14 12 11 13 17 9 
13 12 20 15 15 19 12 13 14 19 15 18 18 18 18 25 20 23 24 23 21 18 18 17 18 18 18 18 18 16 19 15 14 16 13 17 16 16 17 19 15 17 16 16 18 16 24 15 19 20 20 22 24 22 23 17 21 23 25 26 24 21 20 16 20 17 13 16 10 12 12 13 11 12 16 19 15 17 12 16 
14 15 17 16 14 21 14 11 15 17 15 16 18 18 14 21 20 21 20 26 19 17 16 18 18 21 15 18 15 16 17 17 15 15 14 16 19 16 17 18 17 15 16 16 16 18 20 17 21 20 22 20 22 22 19 18 20 23 22 25 20 16 19 14 13 15 13 14 14 9 12 14 12 11 15 18 18 15 13 5 
14 14 17 15 16 18 14 13 16 13 15 20 19 17 16 20 23 21 22 22 19 18 19 17 18 20 17 19 20 17 14 19 17 17 18 16 19 17 19 14 16 17 14 17 17 14 19 16 19 21 22 22 23 20 21 19 20 22 20 27 18 18 16 13 14 13 12 12 12 11 13 9 13 14 14 16 15 17 12 6 
13 18 20 18 18 20 11 12 14 14 11 17 18 17 16 22 23 25 18 20 17 19 19 20 18 19 15 16 18 12 18 15 18 16 18 18 17 17 17 16 17 17 14 15 17 18 18 19 18 21 20 22 22 23 21 19 19 25 23 20 20 17 15 15 17 16 15 13 13 11 14 14 12 9 13 18 17 12 11 12 
14 16 24 18 19 18 15 14 17 15 14 15 16 18 19 22 20 25 19 19 21 18 21 20 23 19 19 18 19 18 19 19 18 18 19 17 19 14 16 15 17 18 20 17 18 19 20 16 19 22 20 21 21 23 24 21 21 21 21 25 19 14 16 21 21 17 17 15 14 15 15 10 15 11 15 21 19 16 15 8 
15 18 22 19 14 22 16 14 18 18 13 15 16 17 21 23 24 22 21 21 20 19 20 21 21 18 19 18 18 19 19 17 18 18 17 19 21 18 16 15 18 19 17 20 20 20 15 19 18 19 20 20 20 19 22 22 23 22 20 24 24 18 18 18 21 15 16 17 13 12 15 13 15 11 15 19 15 19 17 7 
18 19 24 20 20 23 17 15 18 19 17 15 16 15 21 24 22 25 26 25 19 18 21 18 19 17 18 19 19 22 20 17 16 17 20 17 17 17 18 21 19 17 18 20 20 21 24 15 21 24 19 22 18 21 22 20 21 28 21 29 25 20 17 19 22 17 16 14 13 13 13 14 11 13 14 17 17 14 14 14 
17 20 21 20 22 23 16 15 17 18 17 19 15 14 21 24 25 23 23 20 20 19 20 19 17 17 19 21 19 19 19 22 17 19 18 19 16 17 16 13 19 18 18 17 20 23 19 19 17 18 20 20 18 16 27 24 26 37 33 38 33 24 22 17 20 16 15 16 12 13 13 16 15 13 15 16 16 13 11 11 
19 18 19 19 21 21 15 14 20 17 15 18 14 9 22 22 25 26 25 24 23 19 20 20 16 15 17 20 21 19 20 24 21 18 19 19 20 17 18 19 20 15 19 18 20 23 23 21 23 24 21 20 21 17 25 26 38 58 61 69 52 32 24 19 20 20 18 18 14 12 17 13 14 15 16 16 15 13 12 7 
19 20 23 19 19 20 16 14 21 17 17 17 17 12 18 24 24 26 24 24 21 17 21 21 18 20 18 15 21 17 19 17 18 15 19 21 19 18 18 17 17 13 18 20 22 22 21 20 23 25 23 24 19 20 26 25 47 84 88 82 68 47 32 21 23 24 19 15 17 12 13 15 14 16 14 20 13 16 17 8 
22 23 24 18 20 23 15 13 18 17 18 21 13 11 15 17 25 26 26 21 23 20 20 23 21 19 16 21 20 19 18 19 22 19 22 18 16 17 20 18 21 20 20 20 23 27 26 24 26 24 25 23 22 23 29 32 58 90 90 83 76 59 40 29 22 23 19 20 13 16 14 15 15 18 19 13 16 19 16 7 
23 20 24 23 21 22 15 14 19 18 17 18 15 15 16 21 21 23 25 24 20 19 20 21 21 21 15 21 16 21 21 20 21 18 22 23 20 19 20 19 21 24 24 22 25 24 28 26 25 25 23 23 19 27 30 41 74 98 103 98 82 66 48 29 23 18 18 16 15 15 19 15 17 21 21 20 15 14 11 9 
20 21 24 18 21 25 19 16 19 20 14 20 18 11 13 18 20 24 24 25 20 19 18 18 20 20 19 21 23 21 18 19 22 24 22 28 33 32 30 22 21 21 19 21 22 23 26 25 27 22 24 25 20 27 33 52 88 97 100 102 87 71 55 32 26 20 16 17 18 19 16 15 15 18 18 15 15 15 11 12 
21 24 20 18 21 22 20 17 18 21 15 13 15 11 14 15 17 22 24 18 19 18 19 20 19 20 19 27 25 20 21 17 22 22 22 34 46 62 53 41 29 19 21 21 21 20 20 23 21 21 19 20 15 23 33 56 85 87 82 85 84 80 58 26 19 15 13 17 16 14 15 13 13 10 16 15 11 15 8 7 
21 21 24 22 24 22 19 17 21 19 15 15 17 13 16 16 18 16 18 19 18 17 16 19 21 21 21 22 19 21 24 20 23 23 28 47 59 70 82 66 56 33 23 23 24 22 25 21 21 24 20 22 17 23 32 65 94 102 100 101 89 89 60 32 24 19 15 17 18 16 19 15 13 14 18 19 17 16 18 11 
22 26 26 22 21 21 21 18 21 19 15 13 17 17 20 18 15 16 17 18 19 19 17 18 21 24 23 25 21 19 24 25 25 20 27 48 57 74 83 98 76 52 32 26 25 21 23 24 22 22 21 22 22 21 31 65 91 113 117 113 108 96 61 25 24 22 19 18 19 16 18 18 16 14 15 22 16 16 18 14 
21 23 28 27 24 20 20 17 20 21 21 18 20 16 14 19 17 18 18 18 18 21 18 18 22 22 25 23 23 21 22 21 24 26 27 44 61 77 83 98 108 94 48 30 27 21 27 22 21 26 18 19 24 25 42 73 98 115 111 110 97 87 53 30 21 21 19 18 17 17 17 18 18 16 18 21 15 17 15 18 
24 24 27 26 20 22 22 23 23 22 23 20 22 17 17 16 19 19 19 20 18 16 21 21 21 20 22 21 20 26 18 25 20 21 25 38 59 74 72 89 109 113 72 35 31 27 27 20 22 22 17 17 24 24 48 80 97 112 104 92 86 75 49 24 25 22 20 19 19 17 16 18 14 16 20 19 17 20 21 7 
26 26 28 27 23 25 23 21 18 23 17 18 18 18 17 23 14 19 20 17 20 19 21 19 20 22 24 19 19 23 20 20 20 19 26 30 52 66 74 77 111 115 99 49 32 28 26 24 24 23 17 25 23 29 44 75 95 113 86 83 85 62 35 26 20 18 20 16 16 18 19 14 16 16 19 19 18 17 17 12 
23 26 28 24 25 24 22 23 25 20 16 21 17 18 18 21 19 17 20 15 18 18 21 18 20 20 21 18 17 20 17 20 24 18 22 29 39 62 70 75 88 112 113 66 38 27 28 22 21 20 18 22 26 33 55 73 89 102 85 93 86 46 32 22 19 18 18 18 17 18 19 16 12 16 12 14 15 15 17 13 
24 26 26 22 24 24 23 22 23 19 17 19 22 16 21 24 19 20 24 15 16 17 20 17 19 16 21 22 18 23 21 23 22 23 18 22 31 47 67 79 85 112 127 103 57 32 26 21 23 19 18 24 23 38 65 88 96 107 102 94 64 34 28 22 22 16 18 19 19 20 16 14 16 13 18 18 11 15 14 12 
26 25 27 23 25 24 23 21 23 21 20 21 22 18 20 27 19 22 26 17 16 22 25 18 19 20 18 19 18 18 19 23 21 18 20 23 27 30 53 75 82 106 130 124 87 44 30 23 24 21 21 21 24 35 46 54 66 92 94 85 47 29 26 19 20 18 18 17 16 19 19 15 17 16 18 17 12 15 16 12 
24 29 30 23 24 27 22 23 25 27 22 26 21 18 22 22 26 26 21 21 13 18 23 18 23 13 18 21 19 20 21 19 22 18 18 20 26 30 39 64 83 112 129 127 116 74 42 28 23 21 22 23 34 48 66 56 46 57 68 64 37 24 23 20 23 18 17 15 17 19 17 15 18 14 18 17 14 17 16 15 
25 26 29 26 27 27 24 22 26 27 22 23 26 24 23 28 27 26 20 20 20 17 20 20 22 19 20 22 19 18 21 22 22 18 23 25 23 24 28 46 80 94 117 110 113 94 62 31 25 28 24 28 48 66 79 80 76 64 48 46 32 22 20 21 20 16 19 18 19 17 19 14 17 15 16 19 18 18 13 6 
27 23 29 28 26 28 26 22 29 24 22 23 23 21 23 29 27 27 25 23 19 17 16 18 20 17 21 22 19 20 23 22 25 19 20 26 24 28 25 38 61 80 94 89 84 80 70 35 26 28 27 35 60 83 90 93 90 85 64 43 34 24 22 18 18 19 19 18 17 17 14 14 15 12 16 22 17 18 11 18 
24 27 29 29 27 31 28 21 29 22 19 22 23 19 25 29 27 29 31 24 20 15 18 20 19 21 17 17 19 17 22 25 24 22 25 24 25 27 29 40 57 73 77 90 82 70 52 36 32 29 32 59 81 95 98 101 97 98 73 51 33 24 22 20 22 19 21 18 19 19 17 19 18 17 20 22 23 19 16 12 
29 31 33 34 33 31 28 28 25 29 23 22 26 25 29 32 29 28 33 23 22 16 17 21 21 17 18 22 21 21 23 23 25 24 29 30 22 32 39 60 73 76 79 77 77 55 41 33 38 33 52 80 97 105 109 110 105 96 69 53 29 24 24 20 21 20 20 20 20 17 18 19 16 19 21 25 22 20 17 12 
29 31 36 30 32 33 27 25 29 29 27 24 31 27 28 36 34 30 28 22 23 17 20 16 19 15 18 17 21 21 20 20 24 23 25 29 31 46 65 77 85 85 87 82 67 44 46 38 33 36 69 97 112 122 131 123 114 100 70 51 29 26 22 25 22 19 19 17 16 18 17 18 17 17 19 22 23 22 20 16 
28 31 35 30 32 34 27 26 28 29 24 26 32 31 31 33 29 30 30 26 21 21 21 17 20 22 19 20 21 17 22 24 26 30 25 32 49 74 90 97 98 97 94 85 53 50 47 37 40 60 96 121 146 158 161 148 131 111 68 43 28 27 26 22 25 20 23 16 16 16 18 20 21 18 26 24 16 19 21 16 
31 28 37 33 32 35 31 26 25 30 26 25 27 26 31 34 34 35 31 25 20 19 20 20 19 20 14 18 18 21 25 20 23 31 31 54 73 94 107 109 111 101 101 73 45 52 40 32 46 82 116 140 159 168 172 162 138 113 67 41 28 23 25 24 23 23 19 17 19 19 19 20 21 19 19 20 13 20 17 18 
32 31 33 32 32 36 31 25 31 29 29 29 27 27 25 27 35 33 23 20 17 18 18 21 13 14 12 19 17 19 23 21 27 32 53 82 104 129 129 121 118 113 106 63 62 61 53 55 80 113 136 152 157 167 170 166 159 119 62 40 29 23 23 26 26 26 18 21 17 18 19 19 17 23 25 20 24 17 17 17 


