P2
80 60
162
86 92 97 91 74 59 63 59 54 49 50 43 42 39 30 31 30 24 18 20 21 22 20 18 21 16 23 18 19 18 18 20 20 29 58 97 117 113 100 74 25 12 15 12 13 16 17 13 13 13 15 14 10 14 12 12 11 12 11 13 11 10 14 12 11 10 12 9 7 10 8 10 7 10 11 7 7 12 4 8 
105 112 113 120 105 87 93 90 84 86 83 77 72 63 56 51 48 42 35 29 26 26 23 18 30 19 22 20 22 19 24 22 24 30 62 101 112 109 102 74 28 12 15 16 13 11 15 16 13 14 15 15 10 14 11 11 8 13 13 12 7 10 12 13 12 8 10 9 11 9 9 12 12 12 7 8 9 9 7 11 
113 124 122 135 133 121 123 119 116 115 120 119 109 101 92 83 77 71 66 52 46 46 39 29 30 24 24 23 20 24 22 25 28 42 77 97 109 104 106 80 32 14 16 16 11 13 20 17 15 15 11 15 13 13 10 10 10 10 12 11 11 13 11 11 11 8 9 9 9 10 12 13 7 11 12 7 7 9 9 11 
126 135 133 134 148 143 141 147 145 143 147 144 133 125 118 109 105 102 91 89 85 77 69 58 55 47 40 29 24 30 23 26 46 73 88 100 108 106 104 92 37 18 14 11 11 13 14 16 17 11 8 12 10 11 11 10 9 8 9 9 11 14 12 10 9 6 8 7 8 9 7 9 5 10 10 6 14 7 6 10 
136 141 138 148 151 155 152 161 159 156 152 147 137 135 130 119 111 104 102 100 92 89 76 75 70 74 66 53 53 44 35 33 72 84 94 102 101 108 105 87 40 21 17 18 15 17 17 11 15 14 9 14 13 11 11 8 8 9 12 10 12 11 10 8 10 8 8 8 7 9 9 9 8 8 9 7 13 8 6 5 
140 136 140 146 153 156 156 158 156 156 157 146 146 138 134 125 117 111 102 101 94 93 83 75 69 73 73 53 61 51 54 68 86 99 100 100 105 105 95 94 46 18 20 15 16 11 16 13 8 14 14 13 13 12 12 9 8 9 10 11 12 10 10 12 10 7 12 8 9 10 10 8 8 8 10 6 10 8 8 12 
135 137 129 137 147 156 162 158 158 154 152 145 148 148 137 127 127 117 103 98 99 97 84 81 71 67 78 67 58 59 56 61 77 124 131 110 95 96 95 88 56 22 20 19 13 10 10 10 13 11 11 11 13 9 11 10 7 11 12 9 11 12 10 11 10 10 9 9 9 13 12 9 9 5 10 7 11 7 5 7 
141 131 125 130 146 148 156 154 154 146 149 150 148 145 138 135 124 116 107 101 99 99 87 83 71 69 75 69 57 52 56 59 76 124 154 122 99 95 93 90 56 31 20 16 15 12 12 12 15 11 10 9 13 10 11 8 9 7 11 8 13 11 9 10 11 6 10 11 7 11 7 9 10 8 11 6 10 7 13 9 
131 114 120 115 131 135 140 147 146 144 148 149 143 138 139 137 132 121 114 107 98 103 92 86 82 65 70 74 58 51 58 61 71 125 154 124 103 99 99 95 63 29 23 17 14 14 16 15 14 12 9 11 11 11 11 8 7 10 13 13 13 11 11 10 9 9 12 10 7 11 10 8 10 7 13 9 9 9 7 7 
124 97 90 91 95 109 111 123 125 130 130 129 131 134 134 130 126 123 121 111 102 98 92 86 84 74 72 67 59 57 60 64 76 119 132 116 97 99 97 91 68 34 22 17 17 14 13 10 13 13 12 13 10 8 11 9 9 7 10 12 12 9 9 10 9 7 13 12 11 12 10 10 7 11 9 9 10 10 7 11 
112 81 70 68 69 71 82 89 90 96 107 110 111 117 112 117 116 114 113 104 105 96 92 82 78 74 78 69 50 61 64 66 85 108 121 100 94 90 93 89 59 33 20 17 13 14 13 11 11 14 10 10 10 9 10 10 11 8 9 11 9 6 12 9 10 7 11 14 13 12 8 8 7 7 12 9 10 8 2 5 
91 61 48 42 40 41 47 51 57 51 65 68 69 71 75 75 80 82 81 77 76 71 65 59 66 65 67 64 59 62 66 67 91 110 103 85 77 86 88 77 61 32 20 16 13 9 13 13 14 14 10 10 10 8 12 8 10 12 8 10 8 11 7 7 7 8 9 10 10 12 9 6 4 10 8 8 9 8 8 10 
65 50 33 24 25 17 26 23 27 28 30 31 28 32 32 32 33 32 30 33 37 34 30 25 28 33 43 47 44 42 46 51 68 75 65 65 63 70 71 66 51 27 16 12 13 11 15 12 15 17 11 12 14 13 10 8 9 8 10 9 9 9 8 8 8 5 10 13 8 9 10 5 5 10 7 6 6 7 6 9 
51 33 21 19 15 14 17 15 19 20 26 20 20 21 19 17 24 18 23 21 20 19 20 15 18 12 20 24 26 23 27 27 33 34 39 40 52 55 49 50 32 19 14 11 15 10 15 9 13 14 11 11 11 10 10 10 6 9 8 8 8 6 6 7 9 3 12 6 8 7 9 8 5 9 9 6 8 7 6 6 
35 23 18 17 20 18 18 18 19 20 22 17 23 22 19 17 14 14 15 19 20 19 21 16 18 17 17 15 20 20 20 20 24 27 24 30 37 40 28 27 21 18 15 17 15 15 11 10 15 15 17 14 12 14 8 11 9 13 11 11 11 11 10 9 8 8 11 12 11 6 6 6 8 11 8 4 7 12 12 9 
30 19 22 17 19 19 18 15 17 16 17 16 22 18 17 19 16 20 15 17 22 21 21 20 20 21 20 16 17 19 21 19 14 13 10 16 27 21 20 20 19 17 13 14 15 14 16 12 14 17 13 14 10 12 9 12 12 10 12 9 12 12 16 9 10 8 12 13 14 13 9 6 5 10 10 7 8 12 13 9 
27 19 14 19 19 18 18 13 14 14 17 18 17 22 16 16 15 15 17 16 17 23 21 19 21 14 17 16 15 17 19 17 18 17 14 19 21 19 22 17 13 12 15 13 15 13 11 13 15 14 13 15 11 10 11 12 11 12 12 12 7 11 8 10 8 10 11 11 9 11 8 9 9 9 10 7 10 11 8 9 
21 15 16 18 17 16 20 15 13 16 16 15 16 20 16 17 16 15 12 13 14 21 19 18 20 20 17 15 15 17 17 13 18 14 12 15 24 16 17 12 13 9 12 12 11 10 10 11 13 12 11 11 14 9 14 11 8 11 14 9 7 9 7 5 10 9 9 9 5 11 7 6 7 11 7 10 9 10 7 10 
18 17 16 22 17 16 15 14 13 12 14 11 17 19 16 14 14 15 14 10 15 19 15 17 21 18 19 13 16 17 20 18 16 13 11 16 15 13 13 13 12 11 9 11 11 11 11 11 11 14 13 11 11 10 10 7 8 13 10 8 7 11 10 7 10 4 9 9 7 9 8 8 8 8 8 8 8 7 6 5 
18 18 18 15 17 19 20 20 17 13 13 13 14 14 18 12 14 15 12 14 15 19 17 14 17 17 11 13 15 15 18 18 19 13 9 11 14 14 15 11 14 11 10 10 11 12 9 13 11 15 15 12 14 10 10 8 10 9 10 10 11 9 9 10 11 7 9 8 6 7 6 10 5 9 10 8 10 8 9 9 
19 19 18 18 18 18 19 14 15 12 14 12 11 12 13 12 14 12 12 12 14 17 14 16 15 14 16 16 12 14 18 18 13 12 9 11 15 14 13 13 14 12 12 12 12 11 12 10 11 14 13 15 13 11 12 11 9 10 9 10 11 12 13 8 10 11 6 9 8 8 11 7 6 9 11 9 7 8 8 1 
18 17 20 19 15 22 19 16 17 10 13 13 10 15 13 13 13 12 14 12 14 17 16 9 16 15 10 9 13 12 16 16 12 12 8 7 14 11 13 12 8 11 13 13 10 11 14 9 10 9 9 10 11 12 11 12 12 7 11 12 11 13 11 9 10 7 5 8 8 12 11 7 9 8 10 7 6 4 8 7 
17 16 18 16 15 15 15 15 15 13 14 12 11 16 10 13 13 15 11 10 12 12 12 10 12 11 11 13 9 11 15 10 9 10 10 10 12 10 13 12 10 8 12 9 9 8 9 10 7 10 12 10 8 10 10 9 10 11 9 7 11 10 9 8 8 6 7 9 7 9 11 4 6 8 9 7 6 9 0 4 
13 12 17 14 14 14 15 15 15 14 16 14 14 15 13 13 14 11 11 8 11 12 13 11 12 10 13 7 11 11 13 12 11 10 5 7 11 13 9 11 10 10 11 12 10 4 10 8 11 11 7 9 9 10 7 10 9 9 7 10 7 10 8 9 11 5 5 7 9 8 5 7 5 5 8 6 10 4 1 6 
8 5 11 13 13 12 18 16 13 15 18 14 13 16 14 13 12 13 13 12 15 17 13 12 13 13 11 7 12 14 15 12 11 11 8 13 12 11 11 9 9 10 10 15 11 10 10 10 8 14 10 14 9 10 11 12 8 9 11 9 9 10 12 9 8 7 6 9 10 11 8 11 6 5 7 8 9 7 6 4 
5 8 8 11 12 15 12 17 16 17 17 12 17 15 15 13 16 13 11 14 15 16 11 13 15 13 11 9 11 12 16 11 11 11 9 12 11 10 12 13 12 11 11 10 15 9 12 10 10 12 13 11 12 10 14 10 12 12 10 11 10 13 11 9 8 7 10 8 8 7 12 14 7 7 10 6 8 8 4 6 
4 7 6 14 13 11 12 14 14 15 15 13 12 16 11 14 16 17 14 14 14 17 15 15 13 12 14 11 14 18 15 14 16 11 9 12 14 13 12 11 12 12 10 11 13 11 10 11 12 13 16 13 9 12 10 9 8 12 10 8 10 11 10 8 11 8 8 8 10 9 9 10 5 9 9 7 10 7 3 9 
10 8 5 6 10 13 13 15 14 14 14 15 16 15 12 13 14 14 13 13 11 17 14 11 13 9 12 11 12 14 17 15 11 12 10 13 14 13 15 12 9 9 5 14 12 11 13 12 14 14 13 14 10 13 11 9 8 10 11 9 7 14 13 8 10 10 10 11 9 10 9 7 8 8 8 7 6 6 5 8 
8 7 5 6 9 11 15 14 16 13 14 17 18 14 13 12 13 13 14 13 15 12 13 14 12 11 13 9 12 15 14 13 10 12 10 12 15 12 12 15 10 7 8 12 10 9 10 10 11 11 11 13 10 12 10 9 9 11 11 10 12 9 11 12 11 7 9 9 8 11 6 7 7 8 7 5 5 7 6 10 
5 2 4 2 5 5 12 17 12 10 13 12 14 14 10 10 14 14 15 13 14 17 12 12 10 9 15 9 10 12 15 12 6 13 7 13 14 13 12 11 10 9 8 7 8 8 10 12 11 11 9 12 11 12 11 12 8 6 10 12 8 11 8 9 10 10 6 10 8 11 8 9 8 9 9 8 4 8 3 6 
7 4 3 3 6 5 10 11 16 10 11 13 13 11 11 9 14 14 12 16 13 16 15 11 12 13 13 12 9 9 14 10 9 7 10 12 15 12 12 11 9 8 9 7 13 10 8 9 12 12 11 11 9 10 6 10 6 6 12 10 10 8 8 8 9 9 6 9 7 7 9 10 5 7 8 6 5 6 4 9 
5 8 6 8 6 7 9 15 15 12 12 16 15 10 8 7 14 12 11 13 15 13 12 14 9 11 10 9 9 13 10 10 11 10 11 12 15 13 13 10 8 9 10 8 11 8 12 9 10 11 11 11 8 11 10 6 6 9 8 10 12 14 11 9 9 10 9 11 9 11 10 8 8 9 9 8 8 6 3 5 
9 7 8 6 10 7 8 13 16 13 11 13 13 10 12 12 14 15 13 16 17 16 14 12 11 9 13 11 8 8 11 10 12 11 10 12 14 12 10 13 6 7 10 8 12 8 11 12 13 13 13 11 8 11 12 9 11 10 10 9 12 13 10 10 10 10 13 11 7 12 12 10 12 13 10 8 9 7 7 5 
9 10 5 8 7 9 10 10 15 15 13 12 12 12 11 13 13 12 13 12 14 14 17 14 14 12 10 9 11 12 9 9 11 8 8 12 13 10 13 10 9 7 11 9 10 10 11 11 10 15 10 11 10 13 9 13 8 5 12 10 8 8 8 12 10 8 13 8 11 10 8 10 13 13 12 7 3 5 7 7 
6 11 6 4 12 8 9 8 12 14 13 13 9 10 12 13 15 12 12 11 14 15 17 16 14 12 12 8 11 13 16 12 15 9 7 12 13 13 14 14 10 9 10 11 10 11 10 9 13 11 10 9 10 13 13 11 8 8 9 9 13 10 12 11 9 9 11 13 10 10 9 12 12 13 12 6 4 7 6 6 
8 12 8 10 10 11 9 10 8 5 13 12 12 13 11 13 13 10 14 14 14 15 14 16 17 11 11 11 11 14 14 13 11 9 8 9 14 12 14 15 11 11 8 13 10 9 11 8 13 11 11 11 9 8 10 9 9 12 10 11 15 13 10 11 12 8 12 10 13 11 14 14 9 10 10 3 6 6 4 4 
9 10 10 9 10 10 10 11 6 10 11 11 13 11 9 11 13 14 13 12 15 16 12 15 11 15 15 11 8 14 11 13 9 10 10 9 11 12 13 14 7 7 12 11 15 13 9 10 14 12 13 12 8 10 12 13 12 13 11 9 12 14 10 9 10 8 14 12 11 10 9 13 8 11 9 8 7 6 4 2 
9 14 9 6 13 9 9 9 11 11 10 14 9 9 11 13 13 15 14 15 15 17 17 16 16 15 10 13 13 14 13 12 11 13 7 14 16 10 9 15 9 8 13 13 11 8 10 12 13 12 15 11 11 10 9 11 10 14 11 7 10 15 11 10 9 7 10 14 11 10 13 13 11 13 12 7 9 6 8 9 
14 13 12 10 13 8 14 11 10 12 10 13 11 10 14 16 15 14 15 17 16 14 14 16 14 15 11 12 15 13 15 15 13 12 10 13 15 14 13 13 12 8 12 9 11 11 12 12 16 16 13 15 12 11 12 9 10 14 15 9 11 13 15 8 12 6 14 12 13 11 9 13 10 11 10 6 5 8 7 5 
14 14 12 8 11 10 11 15 10 10 12 9 10 12 14 13 15 11 15 12 13 16 14 15 15 14 14 12 14 13 14 12 14 10 11 12 16 12 16 12 13 13 11 13 14 14 18 12 14 14 14 14 12 11 14 14 13 18 14 10 13 13 12 11 10 14 14 13 10 14 10 12 13 12 9 8 7 11 6 8 
16 16 11 16 12 15 12 11 11 11 11 9 8 11 13 16 15 14 13 15 13 15 13 15 16 14 12 12 13 16 16 13 12 12 12 11 14 12 14 14 10 14 11 15 12 13 16 16 16 18 13 15 13 16 13 14 13 18 17 14 13 11 13 9 11 12 16 13 14 11 12 10 16 16 12 6 7 4 9 6 
18 13 13 16 13 16 13 16 12 12 12 13 9 12 11 17 16 16 15 13 15 14 14 15 16 14 12 16 17 12 14 13 14 13 11 12 13 15 13 13 13 12 14 11 12 10 11 14 14 15 11 13 11 13 16 11 11 13 10 7 13 10 10 9 12 10 12 7 8 14 9 12 11 16 9 9 8 7 7 3 
19 15 15 11 14 15 16 16 9 10 11 11 11 12 15 14 13 16 15 14 15 13 15 12 11 15 16 17 19 17 16 13 14 13 12 13 15 15 15 13 14 12 13 11 11 8 12 13 12 12 12 13 12 9 15 11 9 8 10 10 8 9 11 12 11 6 8 8 11 13 8 10 8 9 11 6 6 9 4 7 
17 19 10 12 7 15 16 15 11 15 11 13 11 14 11 18 16 19 15 15 13 12 13 14 17 12 19 18 17 16 16 15 14 15 16 13 17 13 12 12 10 13 11 14 12 17 12 11 13 16 17 12 12 11 11 12 12 10 14 14 12 15 10 12 9 10 14 9 10 16 12 14 11 13 12 6 8 8 9 3 
19 17 18 18 13 14 15 15 16 14 15 11 12 13 14 15 20 16 17 15 15 14 14 13 13 16 19 17 19 16 19 15 13 17 14 12 15 11 14 15 12 11 15 15 15 12 15 14 15 12 14 12 13 11 9 14 10 9 15 14 12 11 12 10 12 9 14 10 9 11 10 12 9 13 17 7 6 12 8 10 
14 16 14 19 18 14 13 15 13 16 15 12 12 13 14 13 15 18 18 18 15 15 17 17 15 14 18 18 19 18 16 19 12 16 16 13 13 13 14 16 10 12 13 12 13 16 17 14 13 14 12 13 11 9 11 12 6 11 11 12 12 13 12 11 9 8 12 9 9 13 10 8 8 14 13 7 4 11 8 10 
16 16 16 14 19 14 19 13 15 15 14 16 12 12 15 18 15 17 21 19 18 18 17 15 17 14 16 18 18 18 15 17 17 16 15 15 16 11 17 15 12 12 13 11 11 12 14 15 13 14 16 12 13 11 19 14 12 10 10 11 10 14 14 10 9 8 12 8 10 12 9 9 8 12 14 9 7 9 14 7 
21 17 13 16 14 14 16 16 14 11 13 10 10 12 13 18 16 19 17 18 18 15 16 14 18 14 15 16 19 20 15 15 17 15 11 14 16 14 14 15 12 14 13 16 12 12 14 16 11 15 13 15 14 15 16 14 13 13 11 8 11 12 9 11 6 8 10 9 9 12 14 7 8 9 13 8 8 8 8 5 
17 19 19 18 18 14 20 19 13 13 18 15 16 14 18 17 21 21 19 18 18 21 15 16 16 15 15 17 23 21 18 16 18 16 13 15 15 16 15 15 13 15 15 15 16 16 20 17 15 16 21 19 17 14 14 15 13 15 14 13 15 16 11 10 11 9 10 13 11 11 8 10 6 10 9 8 7 10 7 4 
22 21 20 20 14 16 19 17 19 14 16 17 16 15 15 19 19 22 17 20 21 23 23 18 17 16 14 14 16 14 17 17 20 17 16 16 18 15 13 12 14 14 18 14 14 13 15 15 13 17 16 15 12 12 14 12 9 15 10 11 16 10 12 12 10 7 9 12 12 11 10 8 7 10 12 10 5 8 8 7 
21 23 18 17 16 18 22 23 17 15 20 17 19 19 15 17 21 22 20 17 20 27 18 18 14 18 19 15 14 17 16 18 18 16 13 18 20 18 15 15 13 13 14 14 16 14 19 14 16 15 12 16 14 15 12 13 10 18 16 18 13 13 12 8 8 11 13 11 9 12 11 10 12 12 14 8 6 9 6 5 
21 20 17 18 19 19 23 23 18 17 21 19 17 15 20 20 22 18 19 18 21 20 21 19 15 15 17 17 13 19 19 16 16 12 15 16 19 14 14 17 13 15 17 14 13 16 19 18 16 12 13 9 10 14 12 14 12 17 15 15 13 16 12 11 9 12 10 8 10 12 11 10 10 11 12 6 7 9 9 6 
18 20 21 18 22 19 23 22 24 17 22 17 17 18 17 18 21 19 23 21 21 20 19 17 17 14 17 14 15 16 19 16 20 15 13 17 20 18 18 15 13 14 17 15 12 16 23 15 12 11 14 16 15 12 12 11 11 14 17 17 10 16 12 11 9 7 10 10 9 11 11 9 8 9 11 5 6 11 3 6 
20 22 23 22 21 23 23 26 24 23 21 18 19 20 21 20 20 21 25 25 21 21 21 19 20 17 19 18 16 17 19 20 19 16 17 18 20 16 17 19 15 12 17 17 16 19 22 15 19 16 17 12 13 13 10 13 14 13 14 15 14 18 17 14 12 7 12 13 14 19 11 10 8 10 9 6 7 8 5 1 
25 25 23 19 22 25 28 18 28 29 20 25 20 22 25 21 21 21 21 19 22 20 20 22 19 20 20 15 16 21 17 18 21 17 14 22 23 18 20 18 15 13 15 16 20 18 18 17 19 20 15 14 15 16 15 15 12 13 12 14 15 16 16 14 11 10 8 11 16 12 14 7 11 10 12 7 11 11 6 4 
23 25 21 23 21 22 27 27 25 15 18 21 25 25 22 21 21 20 16 18 23 24 20 17 23 21 17 18 18 18 21 21 18 19 18 20 24 19 17 22 15 13 18 15 19 17 19 18 15 21 18 16 14 13 12 11 12 11 11 12 12 15 10 13 16 9 11 9 11 9 11 8 5 9 13 6 9 12 11 12 
22 25 22 27 20 23 26 26 26 22 23 22 22 24 23 23 25 22 18 21 21 21 21 19 22 15 19 18 17 20 24 20 19 20 17 20 23 19 20 22 15 14 17 18 16 16 18 19 16 18 19 16 16 11 14 15 11 12 10 15 11 14 14 14 17 13 8 8 8 12 10 8 9 11 9 11 11 11 6 8 
26 23 22 20 23 24 24 27 28 20 28 25 25 25 22 20 25 22 20 22 22 23 21 17 19 17 20 19 15 19 22 22 18 13 14 19 22 19 18 20 26 19 18 15 17 16 19 16 18 20 17 16 12 12 12 15 11 14 10 13 12 16 13 12 17 14 10 9 9 12 11 8 9 9 9 8 10 12 7 11 
24 20 20 20 24 22 27 25 27 24 28 25 22 25 15 18 20 21 20 18 20 20 21 20 21 20 18 16 16 20 25 22 21 17 13 15 21 20 17 21 24 20 19 16 15 17 17 15 18 19 17 12 13 14 16 17 13 16 10 14 13 11 11 12 14 14 7 5 10 6 8 11 10 9 7 6 5 10 8 6 
25 24 20 19 23 26 23 22 28 19 22 24 24 25 21 20 18 19 19 18 20 20 21 18 20 13 21 18 15 20 22 18 20 15 13 11 20 21 21 22 23 19 17 19 18 14 14 16 18 18 20 17 13 18 17 14 15 17 10 11 13 13 14 12 13 16 7 10 12 10 11 8 9 10 7 7 7 10 9 9 


