P2
80 60
86
45 44 41 52 50 55 50 49 43 35 35 43 45 31 18 18 15 12 22 42 50 48 50 53 56 53 50 38 31 21 21 21 27 44 57 61 60 63 65 65 66 70 70 72 72 72 72 67 59 72 72 67 59 64 66 64 65 65 70 68 63 63 60 59 58 58 60 62 62 58 54 49 45 35 39 38 35 43 49 45 
41 35 41 51 56 58 54 48 41 41 40 42 38 43 28 23 24 17 31 46 53 55 54 52 54 54 53 36 27 15 13 13 20 42 57 60 62 65 70 68 67 70 66 69 73 71 70 70 62 69 73 72 58 60 63 63 64 66 67 71 60 49 48 55 62 60 57 61 60 58 55 49 43 41 42 44 40 47 39 47 
42 29 41 50 53 54 54 48 41 39 40 44 45 40 33 32 24 26 28 42 51 57 55 57 55 54 52 37 23 13 12 10 17 29 54 58 61 65 63 66 68 72 67 68 74 76 72 65 62 63 69 72 57 64 62 56 61 63 64 66 60 47 42 45 55 62 59 58 62 58 58 52 45 46 43 45 45 45 53 37 
35 21 32 49 46 52 47 48 40 38 36 39 47 42 34 32 30 31 35 47 50 56 51 56 51 57 50 30 17 7 4 0 8 24 53 61 64 66 66 65 67 66 63 67 69 72 65 67 66 65 64 67 56 56 52 52 58 63 64 64 63 39 37 39 53 62 59 57 59 59 56 55 51 44 45 51 49 50 52 45 
37 23 27 48 51 56 44 50 41 40 43 41 45 44 40 37 38 39 44 48 49 57 50 50 49 54 54 36 13 11 9 7 14 30 51 58 66 65 68 66 69 67 69 69 72 70 67 66 69 72 65 62 55 54 53 52 61 64 64 68 63 51 42 39 51 59 59 58 57 58 58 54 51 50 51 55 55 50 58 44 
37 26 30 48 52 51 49 48 38 41 37 41 46 45 42 46 45 37 45 53 53 57 53 53 51 47 52 41 27 12 21 14 18 32 53 61 63 62 60 65 71 70 66 71 72 64 60 67 65 65 65 63 58 61 60 58 58 64 62 66 61 58 52 46 53 55 59 58 58 57 57 58 55 58 61 59 54 55 50 43 
41 27 34 47 54 53 48 44 41 39 39 41 45 43 40 44 45 43 47 51 50 53 54 57 52 53 55 45 35 25 25 24 28 35 45 54 62 62 65 65 74 71 68 65 66 56 56 66 65 70 62 63 56 64 61 55 60 64 69 63 69 56 58 52 59 63 58 62 60 61 63 60 61 61 64 61 55 47 54 46 
40 31 40 49 55 51 46 46 38 43 38 44 41 43 44 49 43 50 53 57 56 51 57 54 53 54 55 51 41 35 34 36 37 40 56 58 63 62 66 67 70 71 68 68 60 50 56 66 63 65 60 58 58 64 55 57 66 71 70 75 71 68 68 62 63 61 60 62 60 61 63 63 68 65 63 61 56 52 53 48 
47 38 39 49 54 53 49 46 40 39 40 42 45 43 48 48 48 44 51 53 53 52 52 58 53 53 53 49 47 46 41 44 45 47 57 60 60 66 69 67 71 69 69 70 55 50 55 64 65 64 57 61 57 66 63 64 67 70 72 75 74 71 70 68 67 64 64 61 62 64 67 63 65 62 60 54 66 60 55 51 
59 49 49 55 55 54 50 47 41 40 47 41 47 48 52 50 49 45 53 57 52 49 54 56 55 56 57 51 57 48 50 45 52 52 59 62 63 70 68 71 71 73 67 67 53 49 55 64 66 64 59 62 62 64 63 68 67 75 79 80 74 69 71 70 68 71 74 65 66 68 69 64 65 62 60 65 62 63 55 51 
53 54 46 55 51 53 45 48 40 43 39 45 48 47 49 48 49 48 54 52 51 53 51 55 58 62 59 53 52 56 53 53 55 53 61 56 62 73 71 73 73 69 72 60 55 49 56 65 63 64 54 61 62 62 63 72 73 74 71 76 71 71 69 72 71 74 74 73 65 68 65 70 63 62 68 64 68 60 64 60 
63 59 54 62 51 50 42 42 40 41 40 47 49 46 48 48 47 48 46 53 54 53 53 58 57 56 55 54 51 58 57 54 57 59 61 64 63 69 75 74 73 68 66 64 51 53 58 64 61 59 59 61 62 64 66 63 70 71 71 72 73 73 71 67 74 74 76 71 66 69 69 66 66 65 65 73 66 63 68 65 
55 61 58 62 50 48 44 44 42 40 39 41 45 44 49 54 55 54 54 56 58 62 53 57 56 61 57 55 58 57 56 56 58 60 60 55 65 70 73 72 74 68 67 59 57 55 60 54 60 60 62 62 57 65 63 67 68 67 72 75 69 75 73 68 65 72 70 64 68 69 66 63 63 66 68 66 68 65 67 60 
58 57 59 61 51 47 40 45 40 44 45 40 45 47 49 52 57 52 55 56 56 56 55 60 58 58 59 56 59 58 59 58 61 59 63 57 64 71 70 71 70 69 67 58 59 65 59 56 56 63 61 60 60 68 69 72 72 69 72 74 73 75 72 69 67 68 68 70 71 70 68 65 60 64 66 69 69 65 69 66 
59 60 61 57 52 53 47 47 42 40 40 40 47 47 50 55 55 51 54 55 54 52 53 56 55 58 58 57 56 58 57 60 59 62 57 63 65 71 72 72 71 69 63 63 63 66 58 59 54 58 59 60 61 67 68 71 70 76 74 73 68 69 71 67 62 68 68 70 71 70 68 63 60 65 69 66 72 70 69 62 
57 59 56 58 53 51 48 43 43 40 47 44 48 48 49 52 53 50 52 58 60 54 56 55 55 57 57 56 60 57 54 58 59 56 56 61 65 72 72 71 71 74 57 60 65 69 61 58 51 58 61 62 62 66 70 69 75 74 71 71 70 70 70 62 65 68 70 71 72 72 71 67 62 59 59 67 71 69 71 66 
59 62 59 53 51 48 47 43 45 42 46 41 48 48 49 52 48 48 53 56 59 56 56 57 59 56 58 58 59 58 61 57 62 57 57 56 64 69 79 73 65 68 62 65 68 70 61 58 53 55 60 64 64 68 69 71 72 72 73 73 75 67 67 66 62 67 68 71 68 68 71 60 55 40 51 62 64 66 61 61 
61 63 63 64 53 52 49 43 41 42 43 46 48 49 48 51 53 49 55 57 59 58 60 59 60 60 60 57 59 55 57 59 59 56 57 56 64 67 74 72 68 64 59 63 70 72 63 55 53 54 58 63 64 64 71 70 70 71 72 74 73 69 65 61 65 64 74 70 68 77 68 58 50 36 40 46 52 59 59 61 
61 62 63 62 54 52 44 45 41 45 44 46 52 51 51 53 53 53 55 57 56 57 55 57 61 60 58 53 54 57 57 57 56 55 56 59 60 69 68 68 70 61 60 67 73 66 67 52 55 59 57 62 64 72 66 67 71 66 72 75 70 72 65 61 64 67 69 67 70 72 70 61 50 38 37 40 47 54 53 50 
61 58 61 58 52 51 39 44 45 44 47 40 52 49 52 53 50 51 55 56 52 58 57 58 60 58 56 55 53 57 54 56 55 54 57 59 64 68 68 71 63 56 58 68 70 66 59 59 58 55 61 61 65 67 64 66 71 72 72 74 74 67 66 65 63 64 62 67 68 67 71 65 60 50 40 37 42 40 42 43 
63 65 62 58 49 52 49 44 44 49 43 46 49 51 51 51 54 51 52 54 55 56 53 57 56 55 56 54 56 56 56 55 55 56 51 54 63 69 70 68 57 50 60 63 69 63 58 58 64 57 64 64 62 66 65 68 66 69 72 71 69 75 67 68 62 63 65 71 70 67 69 65 63 55 45 41 35 32 34 29 
63 58 62 57 50 49 41 47 43 45 45 44 49 47 50 51 51 48 51 54 55 56 51 54 55 56 59 57 53 59 57 52 50 55 56 56 61 65 68 64 54 42 57 59 66 59 55 56 63 54 58 63 61 68 64 65 66 62 72 71 72 70 72 67 66 63 66 68 68 69 70 63 64 55 47 38 27 29 26 27 
61 62 60 57 46 49 46 46 47 49 43 42 46 46 47 51 50 45 52 54 55 53 54 51 54 54 54 53 55 55 53 57 56 55 53 54 61 66 63 62 52 43 53 58 62 61 49 57 61 61 63 65 62 64 62 60 61 62 67 68 70 71 70 66 70 67 65 65 67 65 66 59 53 52 45 44 35 27 22 30 
66 59 65 56 53 47 45 47 47 48 47 43 46 42 46 52 50 48 50 52 54 50 54 55 55 57 53 55 56 56 54 56 57 57 54 61 65 66 63 59 58 47 48 59 60 58 56 56 60 59 62 63 64 65 63 60 69 65 66 70 73 71 72 73 73 69 67 63 63 65 63 62 48 38 46 48 38 34 28 29 
63 62 61 60 47 56 51 52 48 52 49 49 48 43 44 53 51 47 53 57 56 56 54 55 58 56 56 57 58 54 52 58 56 56 57 60 67 71 62 59 58 56 49 59 60 54 59 60 58 59 60 67 63 67 66 71 69 65 71 74 76 73 76 72 72 68 66 60 54 57 59 60 51 40 43 41 48 46 42 38 
63 64 63 59 47 49 51 50 46 47 44 46 47 41 45 50 51 52 54 56 57 56 52 56 55 58 56 55 55 57 58 59 55 56 62 64 69 71 61 58 62 57 58 59 58 60 60 60 57 57 60 62 63 72 66 71 74 70 73 78 74 71 75 69 71 70 66 53 46 50 63 60 52 39 32 40 47 52 52 47 
60 62 60 56 50 53 46 46 45 47 45 46 45 42 39 48 51 42 50 55 53 55 52 51 55 59 56 56 58 57 59 59 58 62 63 67 69 65 60 55 55 55 59 60 61 58 58 60 53 48 59 62 59 64 70 67 75 70 72 78 75 69 71 69 72 69 65 52 46 48 49 57 48 30 26 35 51 51 57 57 
64 64 56 56 47 51 46 46 48 43 42 44 36 35 38 42 42 39 47 52 53 53 51 52 53 56 55 53 57 54 56 60 64 65 70 67 70 63 52 52 60 60 59 52 51 56 57 59 53 42 54 56 60 66 68 68 70 71 75 76 78 74 73 68 70 68 64 58 51 46 58 59 54 40 31 31 45 51 59 63 
62 63 59 56 49 49 40 44 41 40 41 40 35 32 34 30 33 29 42 51 51 48 49 50 54 54 55 53 54 55 53 60 64 67 75 66 69 59 54 49 61 60 60 58 50 54 57 52 55 46 45 55 58 63 68 67 67 72 75 75 75 74 74 68 68 68 66 62 61 55 50 54 55 50 45 37 44 52 60 63 
61 64 59 55 49 51 42 46 43 43 44 40 32 33 35 34 30 23 34 46 51 51 50 52 50 53 57 54 57 55 57 57 64 64 76 69 65 56 51 48 55 61 55 56 51 55 59 55 50 55 48 53 60 71 65 69 68 70 75 77 72 70 74 68 71 65 65 65 63 60 60 61 59 52 49 57 53 58 60 61 
63 60 58 56 50 49 40 48 43 44 47 45 35 36 36 34 32 20 36 45 52 54 52 51 51 51 59 51 55 55 59 62 66 69 75 69 63 57 58 51 60 59 58 59 55 60 61 61 54 53 51 54 65 67 64 68 69 71 70 73 74 72 70 69 69 68 70 68 68 68 69 68 63 60 59 59 64 64 64 58 
61 61 51 51 46 50 39 43 41 42 48 39 38 33 31 34 27 21 27 41 50 55 50 53 52 51 55 54 54 58 60 62 67 72 72 60 58 57 62 58 55 56 54 57 56 58 63 64 62 62 59 57 61 68 68 69 70 67 69 71 72 74 73 69 71 71 67 63 69 65 65 69 60 62 65 59 63 62 64 52 
66 61 57 53 45 44 47 47 43 47 42 41 38 38 32 39 35 15 29 42 45 49 49 47 55 53 56 53 57 55 60 62 67 68 61 53 56 55 60 62 55 59 55 56 59 61 65 67 68 64 66 62 65 71 75 72 74 71 72 73 70 71 76 72 71 70 66 65 66 69 67 66 66 64 65 67 62 65 66 60 
62 59 56 48 43 44 40 44 44 41 46 41 40 33 33 36 36 20 29 37 41 48 47 50 51 54 53 54 56 63 56 66 67 66 60 41 47 54 53 59 57 60 52 54 59 63 68 66 70 67 67 65 65 70 73 72 73 70 68 67 69 69 75 72 73 66 70 66 63 66 64 64 65 67 62 60 67 66 65 62 
62 58 51 52 43 45 44 42 45 45 48 41 45 42 39 41 36 27 29 40 50 50 52 52 55 52 54 56 63 60 62 62 72 63 58 45 42 56 59 58 52 56 54 57 65 67 65 71 71 71 70 68 73 71 73 76 73 73 73 68 68 71 72 73 73 68 69 69 68 65 67 64 64 63 59 62 70 69 67 57 
64 57 53 48 39 44 43 44 45 43 44 44 43 44 37 38 39 37 32 36 47 50 50 54 52 54 52 55 59 59 64 67 66 57 55 47 42 52 56 58 56 53 50 57 65 68 71 73 69 72 71 75 72 69 74 73 72 73 74 72 70 71 71 71 75 68 68 69 68 68 64 67 67 63 65 62 70 66 63 59 
65 55 50 48 45 42 40 44 45 46 45 43 46 44 40 40 41 39 36 42 44 48 46 56 57 55 54 54 55 61 68 69 71 60 59 51 40 54 59 58 62 63 52 60 67 74 72 71 73 75 69 70 75 77 73 75 74 70 75 74 72 67 70 74 72 73 69 67 69 69 66 69 68 66 64 65 66 67 65 62 
62 51 45 49 41 45 36 43 39 39 46 45 45 41 40 38 43 37 40 42 44 49 44 51 52 54 50 54 60 63 66 67 69 59 53 47 46 56 60 58 57 60 53 61 65 69 71 69 71 73 69 70 66 70 73 74 74 72 74 71 71 70 67 70 70 67 72 66 65 67 70 69 64 62 65 66 67 62 62 60 
58 51 47 44 43 37 40 47 39 43 38 39 42 44 41 40 43 40 41 45 43 45 46 50 49 52 53 57 62 65 65 65 59 59 51 48 53 57 55 52 54 59 61 64 73 72 78 73 74 71 67 73 68 72 73 73 75 72 76 73 65 68 65 63 68 64 70 68 65 66 65 67 62 61 63 62 65 64 60 65 
57 53 49 42 42 41 42 39 40 35 39 37 39 42 42 41 42 43 43 46 49 47 49 44 48 50 52 59 64 68 67 65 58 52 48 50 54 57 54 52 59 61 64 68 69 70 74 69 70 67 71 72 68 73 69 71 72 68 73 74 68 67 70 65 62 63 63 61 66 67 66 65 65 63 64 64 63 64 66 64 
58 51 47 41 39 40 37 39 35 39 31 36 43 40 43 41 41 40 42 47 47 48 50 45 50 51 55 55 67 66 67 67 59 49 48 50 57 58 51 58 57 61 64 69 72 72 76 71 65 71 67 68 69 68 73 70 73 73 73 74 69 71 71 66 68 62 62 62 65 66 62 66 66 62 62 63 61 65 63 64 
55 49 47 43 37 40 35 36 37 38 36 39 43 41 42 43 46 42 44 49 48 48 49 45 46 51 57 58 64 65 64 62 63 50 46 50 54 60 57 57 63 65 67 66 70 75 76 74 68 70 63 70 64 72 68 68 68 68 69 73 69 69 71 67 66 65 65 65 66 66 65 67 63 57 64 62 63 61 60 60 
51 49 44 37 36 42 31 38 34 36 40 40 41 39 42 46 43 44 41 48 46 48 47 45 51 53 55 58 66 67 66 62 58 47 42 44 55 58 61 57 65 61 67 68 70 73 72 72 64 67 66 67 69 70 68 66 63 68 68 67 68 64 68 64 65 64 65 65 66 63 65 62 57 62 62 62 65 60 58 59 
55 41 45 46 37 45 40 42 37 33 35 40 40 42 39 46 47 46 43 47 52 50 48 47 53 56 60 59 64 65 68 63 57 55 49 52 55 55 55 60 68 65 65 73 73 78 74 70 66 64 60 65 65 71 70 70 70 67 67 71 68 69 67 65 65 63 67 65 66 66 65 66 62 62 61 64 64 57 61 64 
52 48 43 49 34 43 37 40 35 34 38 37 45 38 43 45 42 45 45 43 48 47 44 50 51 53 59 57 63 69 65 58 53 52 52 49 52 51 54 59 61 61 64 66 72 71 70 68 68 69 65 63 60 68 69 72 71 67 69 69 73 66 66 65 65 62 68 68 63 61 61 60 57 59 56 60 64 59 61 62 
49 52 40 40 29 34 33 36 34 32 33 35 40 40 41 46 46 46 48 42 47 45 41 49 44 51 53 59 63 59 63 54 47 50 50 53 55 49 59 58 64 59 57 68 71 71 68 67 66 64 62 60 58 64 63 64 68 65 69 70 67 66 66 62 64 63 66 68 65 62 62 62 57 57 58 56 59 60 57 57 
40 44 39 41 29 21 24 31 35 33 32 35 36 41 41 44 40 47 47 41 47 48 48 48 51 54 57 55 58 59 58 56 48 46 48 55 49 54 58 58 62 61 60 61 64 66 69 74 66 68 62 63 57 66 59 61 64 64 68 68 69 66 66 64 62 63 65 66 61 66 60 58 59 60 58 57 57 57 58 54 
46 42 40 40 25 18 11 24 31 36 35 35 40 38 38 43 39 41 47 46 47 44 43 48 46 49 51 57 56 57 57 56 50 42 48 54 57 56 63 64 65 68 60 62 64 73 66 69 70 67 65 66 62 67 65 68 62 69 65 69 65 66 67 64 62 64 66 66 61 60 62 62 60 58 57 59 60 54 54 49 
46 39 46 35 28 19 10 14 24 33 36 34 36 36 39 44 46 44 47 43 49 44 43 44 45 52 51 54 55 57 57 55 52 51 52 55 52 62 65 69 70 69 63 66 66 69 74 71 68 72 68 71 67 70 69 65 70 64 68 67 68 66 68 67 66 66 67 63 59 62 59 61 60 54 54 59 56 60 56 57 
45 44 38 41 29 18 6 10 18 33 34 34 39 35 38 40 42 42 46 43 45 44 42 45 45 50 50 57 60 58 55 58 55 55 57 54 55 65 65 68 71 66 65 66 66 73 76 71 70 71 71 69 72 69 69 67 62 70 70 71 66 70 67 66 66 66 64 62 62 61 63 62 57 52 57 55 56 52 54 55 
45 42 40 42 35 26 8 5 17 32 34 37 36 36 35 41 40 42 42 42 47 46 44 45 44 48 53 52 55 48 53 55 58 56 54 54 58 62 72 72 70 74 67 66 63 70 69 65 66 69 70 72 68 72 64 63 60 67 66 65 73 71 71 64 68 62 64 63 62 60 57 55 56 58 54 55 51 50 51 52 
49 44 39 38 36 34 18 19 12 30 36 33 36 36 28 34 36 41 42 44 46 44 43 47 47 49 53 54 51 50 56 57 58 59 54 56 62 69 70 72 71 69 65 68 70 72 73 74 74 69 65 69 65 71 71 68 65 64 67 65 64 72 70 66 63 62 61 62 64 61 61 61 54 52 54 54 53 49 53 53 
53 48 44 43 41 35 28 29 19 23 31 36 36 34 26 28 33 38 44 43 47 47 44 41 47 52 53 54 49 56 58 55 58 62 58 58 63 67 72 73 77 70 72 72 77 84 77 73 78 73 68 71 67 75 70 67 67 70 68 64 64 69 69 65 61 63 64 60 59 62 61 61 60 55 48 57 53 56 54 53 
53 54 47 45 50 38 33 25 21 24 27 28 37 29 18 18 13 20 37 40 43 43 43 37 49 48 54 49 51 51 52 57 58 56 57 64 65 70 67 66 70 73 72 71 74 74 72 69 68 70 69 70 73 75 71 65 65 68 69 63 60 63 65 64 62 65 60 60 57 60 61 59 61 55 54 53 58 56 52 53 
56 58 52 51 46 42 37 33 27 30 33 36 38 36 23 11 14 12 26 48 46 45 51 42 52 53 60 50 50 51 53 59 61 64 68 70 73 74 77 68 74 76 75 73 82 73 73 72 71 73 73 71 72 73 69 69 70 69 71 65 63 62 67 64 67 64 65 61 67 60 60 60 58 56 57 55 59 60 55 49 
59 58 58 51 49 41 43 48 32 36 37 31 40 39 24 21 8 2 13 36 46 47 45 49 55 57 56 52 52 51 54 61 62 65 70 67 67 70 73 71 79 75 75 83 79 75 76 72 70 73 77 76 70 73 72 74 72 69 74 67 69 69 68 64 66 65 66 69 67 66 64 62 60 60 60 60 60 59 56 62 
54 59 59 57 52 52 50 49 40 38 35 39 41 42 38 26 15 3 13 31 47 46 46 51 58 59 58 56 53 53 59 54 65 72 72 71 74 77 79 75 79 83 79 78 76 73 73 68 73 71 72 75 73 79 76 76 77 71 71 68 67 67 63 60 61 66 65 62 64 64 64 60 58 59 56 62 55 59 57 54 
58 55 59 57 57 55 54 56 48 47 42 45 39 43 38 39 26 13 16 20 36 44 44 53 55 60 62 55 61 53 54 58 71 71 75 75 70 75 79 82 79 80 77 73 75 81 79 77 75 73 68 72 70 75 72 69 73 69 70 70 69 66 66 63 58 58 57 59 59 64 61 59 54 55 60 57 61 55 55 56 
56 59 59 56 56 55 56 55 46 47 47 48 42 42 42 43 34 24 20 19 30 46 50 54 57 61 54 60 55 55 58 63 68 72 72 77 72 78 84 81 79 76 76 79 76 86 80 76 78 73 72 72 68 75 78 73 73 72 70 73 70 68 66 59 61 58 61 58 59 63 64 60 57 59 57 58 65 60 56 62 
58 58 57 59 57 57 56 53 49 52 51 50 48 48 43 46 47 38 33 28 33 45 48 52 62 60 56 56 56 62 63 68 71 70 77 73 75 76 82 80 82 76 74 81 83 84 79 76 79 75 72 73 73 78 75 73 71 71 72 69 69 67 68 61 62 57 58 57 59 57 63 62 60 61 58 58 62 56 57 60 


