P2
80 60
265
32 29 25 29 42 50 83 95 75 51 62 96 90 49 44 39 35 33 29 33 32 33 30 25 25 26 26 28 32 38 38 37 36 34 31 33 30 27 29 28 29 30 30 29 29 34 34 30 25 23 19 19 20 20 21 21 19 22 27 20 19 20 24 24 24 20 21 22 25 29 25 24 23 22 20 23 19 17 19 17 
29 27 27 25 39 50 91 98 70 44 69 97 85 46 41 36 36 35 33 31 34 32 28 28 27 25 26 29 32 34 38 36 34 36 32 28 28 29 29 27 26 30 28 27 29 30 33 32 27 23 17 19 19 18 21 21 23 21 22 21 22 20 19 23 25 22 20 24 24 25 28 27 25 18 19 20 18 18 19 20 
28 30 28 27 43 54 92 94 63 50 72 95 79 43 40 38 33 32 34 32 35 35 29 30 26 29 32 32 35 36 34 39 35 32 31 32 29 29 31 28 27 30 29 28 29 36 34 32 29 26 21 21 23 21 21 23 25 24 23 23 23 28 30 28 29 20 20 22 25 27 28 27 22 22 24 28 21 15 16 21 
28 28 24 32 41 53 95 93 60 49 79 96 73 40 37 32 30 32 30 35 34 31 28 30 27 30 31 30 35 39 36 37 31 29 30 27 29 27 28 28 29 28 28 30 28 32 32 30 31 27 24 28 30 28 28 29 33 29 34 31 28 29 29 36 31 25 21 22 25 23 28 24 23 24 24 19 19 14 16 16 
29 27 26 33 40 62 106 93 55 45 82 96 67 38 35 34 31 29 29 28 27 28 31 29 28 32 29 30 36 36 37 33 32 29 31 27 29 26 27 22 29 30 30 26 28 32 30 34 29 30 29 29 28 29 33 32 33 37 37 33 29 30 30 30 26 26 23 25 25 27 27 25 27 24 23 20 20 14 13 13 
33 27 28 35 45 72 102 87 53 47 87 91 63 35 34 29 29 28 29 30 31 32 34 31 30 30 31 30 32 35 35 35 33 34 31 29 30 26 29 29 25 26 31 31 31 31 33 33 31 30 30 32 32 30 32 33 33 37 38 35 29 31 28 31 27 24 19 22 25 24 28 26 27 24 26 20 21 12 14 17 
25 27 29 35 43 71 102 88 47 51 89 88 56 31 34 31 30 31 30 34 28 35 32 31 29 32 29 29 33 38 37 33 32 32 28 31 29 28 28 27 26 27 28 26 28 32 35 36 30 31 32 31 27 29 31 33 31 29 36 30 29 30 27 28 29 26 22 24 27 25 27 26 26 29 28 25 21 13 14 19 
22 20 24 34 41 72 101 82 47 53 90 90 47 32 29 28 29 27 27 30 31 29 28 26 27 25 26 24 31 33 32 33 32 28 30 29 26 28 27 27 27 27 29 26 31 28 27 29 27 27 31 27 29 33 30 27 30 33 33 26 28 28 28 32 29 24 17 21 24 24 28 24 26 24 24 22 13 14 19 20 
13 14 18 28 32 70 103 77 42 51 92 84 47 28 27 27 28 27 26 25 28 31 24 26 25 26 25 26 30 31 34 32 29 28 31 28 27 27 29 27 25 25 26 27 26 31 30 29 28 32 25 29 27 29 28 30 30 30 33 26 28 27 31 31 32 31 22 21 25 24 28 29 25 23 21 22 14 15 17 16 
16 9 6 0 13 77 101 73 31 49 101 87 44 27 27 25 23 23 22 26 28 26 28 23 27 25 27 26 29 31 33 31 32 32 29 29 28 29 27 28 28 30 29 28 28 33 31 32 26 28 24 29 26 27 29 28 29 33 32 34 30 32 31 28 30 30 23 21 26 27 26 27 25 23 24 23 16 15 12 13 
23 19 14 3 19 82 100 67 27 52 109 91 32 15 17 16 18 22 23 22 24 24 25 23 24 28 26 26 27 28 32 31 27 30 26 26 26 26 30 29 24 24 27 30 26 31 32 28 27 30 28 25 30 26 27 28 31 31 32 32 31 31 29 30 31 28 24 19 26 26 28 26 28 23 23 23 19 15 14 16 
22 25 21 17 26 92 105 63 25 62 110 80 26 15 12 17 12 13 19 20 20 21 25 21 23 25 26 24 28 29 35 31 28 29 27 27 26 27 27 27 26 28 27 27 31 32 32 31 30 25 25 29 30 31 28 30 31 35 37 35 32 35 28 31 29 32 24 21 23 23 28 29 27 25 27 23 17 15 17 19 
24 22 20 16 20 87 95 63 27 62 111 80 19 14 12 15 13 12 13 13 11 14 13 11 16 17 19 19 22 24 27 25 24 26 26 28 25 26 26 29 24 26 27 27 29 32 31 28 26 27 25 31 30 27 29 33 34 33 33 29 30 31 30 28 27 30 27 19 22 23 27 28 26 24 21 24 20 12 16 17 
23 20 20 18 26 91 91 50 32 70 107 72 26 13 17 15 13 13 13 14 12 11 11 10 7 10 11 13 14 13 17 15 19 25 27 24 25 27 28 26 29 30 26 29 28 29 29 31 28 30 28 31 28 31 33 33 33 32 31 33 30 31 31 32 26 31 28 21 22 27 30 27 28 23 23 28 20 14 15 15 
22 21 20 20 39 93 87 48 29 78 106 65 24 17 16 18 18 14 15 13 11 11 11 10 10 12 11 12 13 12 14 13 13 12 8 15 21 28 26 26 28 25 28 26 29 32 31 32 32 30 31 31 29 33 30 33 34 32 34 36 33 33 28 32 31 31 29 23 19 24 27 31 28 25 23 29 22 15 14 15 
20 20 20 21 42 96 85 44 28 80 104 62 23 14 17 17 17 14 15 12 11 12 11 12 8 11 10 6 11 17 12 13 13 7 10 21 21 25 23 26 25 25 27 30 28 33 32 31 32 32 29 30 31 33 33 30 34 34 39 31 32 33 30 31 31 32 32 23 20 22 32 32 31 27 26 26 20 20 14 20 
21 22 21 21 47 98 84 38 29 88 98 56 23 17 18 16 16 16 15 15 14 15 15 11 10 10 9 10 13 15 15 13 15 21 23 25 24 27 26 22 21 24 27 27 30 30 34 30 29 33 31 31 32 32 33 31 35 30 31 35 33 32 32 32 30 32 31 26 20 20 29 28 28 24 24 26 24 19 15 16 
23 19 21 23 54 103 82 41 31 92 95 51 24 22 19 17 19 16 15 15 17 16 15 16 13 11 14 10 15 16 18 20 27 29 28 29 28 26 29 25 28 30 28 29 28 31 35 32 31 32 32 32 32 33 33 32 34 33 36 32 33 31 33 30 29 32 33 28 20 23 31 30 31 26 26 28 27 23 18 23 
21 25 25 22 56 99 77 39 30 90 92 46 20 19 19 18 15 15 19 17 17 14 17 13 16 12 12 14 13 16 21 28 26 28 29 27 26 27 29 28 26 28 26 27 29 32 29 28 29 32 31 32 34 31 32 33 32 32 33 33 34 32 31 33 30 31 32 28 24 20 27 26 33 28 28 26 25 23 22 23 
23 22 19 23 65 99 79 32 34 91 94 45 22 16 20 16 21 17 19 15 13 15 17 15 16 13 15 10 15 20 25 30 30 28 25 23 28 28 25 25 28 30 24 26 30 30 29 31 29 29 32 31 32 33 32 35 34 35 34 32 34 34 31 32 30 32 32 28 20 19 24 27 30 30 26 25 25 25 24 20 
27 29 23 25 77 101 75 33 36 101 92 45 23 18 18 20 21 18 18 15 16 17 14 16 17 17 14 13 16 18 24 28 30 28 25 25 26 28 28 23 26 27 30 29 28 29 31 30 30 29 30 32 31 31 32 31 30 31 36 35 32 35 34 32 33 32 30 30 26 17 22 28 30 27 26 25 24 24 26 23 
54 45 39 38 92 113 75 30 42 101 91 41 20 18 20 19 18 20 20 15 15 18 15 16 14 13 13 11 14 19 18 28 27 28 25 26 23 26 26 27 28 26 28 30 28 31 31 32 32 28 31 32 32 34 36 31 33 34 32 32 34 33 32 34 34 31 32 34 26 17 18 28 28 25 25 27 27 24 22 26 
111 101 94 93 112 108 64 30 47 103 89 41 22 19 16 19 20 18 23 15 17 16 16 15 12 14 16 13 17 18 17 27 28 26 26 25 26 25 26 24 26 24 27 29 28 29 31 33 28 30 30 33 32 31 34 31 33 31 35 31 33 32 32 33 32 33 31 32 27 21 19 22 28 25 25 28 30 23 23 26 
109 104 102 101 102 90 51 36 54 104 86 35 20 15 18 19 17 16 19 19 19 18 16 18 12 14 16 14 16 18 20 25 26 27 27 25 27 27 27 25 25 27 28 31 29 32 29 29 30 30 32 32 33 30 34 34 33 32 36 36 33 31 32 32 34 31 33 33 33 26 21 18 24 23 24 28 26 25 24 24 
65 68 78 81 81 70 33 34 61 106 89 39 25 18 19 24 21 22 21 21 21 19 21 18 18 15 15 15 19 19 21 25 30 27 27 26 27 26 28 27 31 29 30 28 29 32 30 33 31 36 30 32 33 34 33 32 35 35 36 34 37 35 38 35 34 32 32 34 33 29 27 20 21 19 23 23 25 24 22 26 
39 36 31 32 35 32 27 34 65 114 89 40 23 21 19 22 24 21 22 20 20 19 21 22 21 19 19 15 19 22 24 27 29 32 28 29 29 28 29 29 31 29 28 33 32 31 30 32 28 35 31 34 35 33 36 35 36 34 37 34 34 33 32 37 36 34 33 33 34 33 32 30 24 17 21 21 21 25 22 25 
56 48 36 34 29 28 28 37 73 120 90 35 22 24 22 20 21 19 21 23 21 21 21 22 20 18 14 17 19 20 23 28 32 29 27 26 28 30 30 31 30 31 30 31 28 30 29 31 28 32 32 36 29 36 34 34 34 34 37 33 33 36 36 36 34 34 32 36 33 30 32 31 27 20 18 25 19 20 20 21 
115 112 102 91 80 72 65 67 98 122 89 35 23 22 23 18 22 21 23 18 20 20 19 20 18 16 18 17 16 19 19 30 29 26 27 25 30 29 30 31 29 29 31 31 29 31 30 31 29 32 30 29 31 32 35 33 30 34 33 31 32 34 33 34 33 32 35 34 32 31 31 34 30 27 28 27 24 23 21 23 
115 117 116 106 106 102 96 98 107 108 77 30 25 21 23 23 22 21 21 21 24 23 21 18 22 19 21 17 20 22 22 24 33 29 32 29 28 30 32 33 29 34 31 32 31 30 29 34 31 30 32 34 34 34 35 32 32 35 35 34 31 33 31 33 34 33 34 36 35 32 35 30 32 27 30 32 30 25 23 24 
68 72 80 81 83 91 89 93 95 89 60 27 24 21 22 22 24 24 24 26 28 22 23 23 23 21 21 19 22 18 25 27 29 30 32 30 31 30 34 32 32 33 33 31 33 33 32 32 31 32 30 34 31 34 36 33 36 31 33 34 33 34 33 33 37 36 34 36 33 32 36 36 35 31 30 26 26 29 23 29 
31 35 35 30 33 38 42 47 50 45 29 25 23 21 25 22 22 22 22 23 26 28 23 25 20 24 19 21 21 21 21 28 30 32 29 30 28 30 33 30 28 31 32 30 31 35 34 31 32 32 30 33 32 33 31 35 36 35 37 34 35 35 33 36 34 32 34 35 36 35 35 34 32 29 28 27 29 29 27 26 
32 29 24 22 25 25 25 28 30 27 25 23 23 23 22 24 25 24 26 26 26 25 25 24 25 22 20 22 24 25 22 26 31 31 29 28 32 31 33 31 32 33 33 33 34 32 30 33 32 35 30 35 34 32 33 35 34 36 38 32 33 34 34 35 34 33 35 35 35 33 35 33 34 33 30 27 27 31 27 27 
27 27 28 24 27 24 25 27 25 29 26 22 22 23 26 28 27 24 25 25 25 28 23 25 26 24 23 24 24 25 23 26 34 30 31 31 29 30 31 33 30 32 34 32 32 31 30 30 32 33 35 34 34 31 35 34 33 35 38 36 36 34 37 35 35 34 34 36 36 32 33 34 36 32 32 30 30 32 26 30 
30 28 25 27 26 23 22 25 27 29 26 24 24 25 27 26 25 26 25 25 28 28 28 27 26 23 24 24 24 27 24 31 34 31 29 30 32 32 30 31 33 35 32 33 33 33 32 33 33 35 35 34 31 35 37 36 36 34 37 39 36 39 36 36 37 37 36 39 33 32 34 37 37 36 36 29 29 31 32 34 
27 29 26 20 25 22 21 27 26 28 27 24 24 25 26 26 26 28 26 28 29 26 28 25 27 29 25 24 29 24 24 31 32 30 31 31 33 28 30 30 33 31 29 34 34 33 30 30 33 34 33 34 34 35 32 33 36 37 34 36 36 38 36 38 38 36 38 36 35 38 33 36 37 34 32 31 28 27 29 36 
29 31 30 23 26 24 24 25 28 25 25 25 24 24 27 28 28 27 26 27 30 30 29 29 27 26 24 24 26 26 23 29 33 32 32 33 30 32 30 28 29 33 32 32 33 32 33 34 34 35 31 35 34 35 36 33 34 35 35 36 35 35 36 39 37 35 33 34 34 35 36 36 37 35 35 31 29 32 31 39 
30 29 29 25 27 24 26 29 31 30 28 25 25 26 28 27 29 29 27 29 29 30 29 30 27 26 26 26 30 28 24 33 36 33 32 34 32 32 34 32 33 34 33 33 33 36 36 38 34 35 35 34 35 33 38 35 36 35 37 37 36 39 37 38 36 33 33 37 34 34 39 35 37 39 34 30 34 34 37 41 
30 27 31 24 27 29 26 26 30 29 25 27 28 26 29 26 28 32 30 31 31 31 30 30 29 29 30 28 32 29 27 31 36 36 33 31 34 35 32 32 34 35 33 31 33 35 37 39 34 35 34 35 32 37 37 36 35 39 37 37 36 39 38 38 39 35 36 39 36 38 38 35 37 39 38 33 35 33 41 39 
32 27 26 24 25 31 23 28 33 28 26 25 27 26 31 30 30 29 29 32 28 31 29 30 28 33 31 31 32 28 28 31 33 36 36 34 34 30 32 32 32 35 30 33 34 34 35 37 36 32 34 35 36 35 36 34 38 37 38 33 34 37 33 38 35 35 35 38 39 37 39 38 38 37 33 32 37 41 42 50 
30 28 27 24 29 25 25 21 33 27 27 27 26 23 29 31 30 29 32 31 32 33 32 32 32 31 30 29 30 31 33 33 37 34 32 34 33 34 35 33 35 31 31 33 34 35 36 35 34 34 35 32 35 33 34 36 36 36 33 33 36 38 34 34 36 35 35 38 38 35 36 37 36 35 34 40 49 47 43 48 
33 30 27 30 32 26 25 24 32 29 26 27 27 26 27 33 30 33 34 31 33 32 35 31 31 34 32 29 32 33 34 32 34 35 34 32 33 34 35 30 37 36 34 34 35 37 36 35 34 33 36 31 36 35 37 33 35 36 33 36 38 36 34 36 36 38 34 39 37 33 38 38 35 33 35 36 38 38 42 43 
32 26 28 28 31 27 29 25 32 28 27 28 29 27 33 32 32 32 33 32 35 35 32 34 35 33 35 32 33 33 30 30 37 35 32 33 36 32 36 33 36 35 36 36 33 39 37 36 37 34 34 35 34 35 35 38 37 32 36 35 35 36 34 37 37 38 37 38 36 38 36 39 37 39 38 40 41 40 39 44 
33 29 30 27 30 33 29 25 32 29 30 28 28 29 33 32 33 32 33 35 36 35 36 34 35 36 34 34 34 37 32 31 37 36 35 34 34 36 35 33 34 30 38 34 32 37 36 36 33 32 34 34 35 36 34 31 33 35 32 35 32 36 35 37 38 35 38 36 37 32 40 40 43 44 39 41 42 43 43 45 
28 28 28 25 28 31 32 36 30 32 27 31 29 31 30 31 31 37 34 35 36 37 37 39 35 36 34 33 37 34 31 34 37 39 34 36 35 37 37 36 36 38 34 36 32 31 32 35 32 33 35 35 35 33 33 31 35 35 36 36 36 35 37 38 33 34 36 41 36 41 40 45 49 45 55 62 71 83 100 117 
29 28 26 27 27 29 31 36 34 34 27 33 31 33 30 36 33 36 36 36 40 38 38 40 40 36 35 31 33 33 31 32 36 36 35 37 39 36 37 33 34 34 33 36 34 35 36 32 33 32 33 32 34 32 33 35 35 34 36 36 34 37 38 36 35 36 37 40 38 46 71 83 98 104 114 127 140 152 170 193 
32 31 31 27 30 32 31 32 32 32 31 31 33 35 35 36 35 39 40 42 40 43 41 40 42 40 36 33 35 36 33 32 35 36 35 37 34 40 38 37 34 37 32 32 36 36 38 35 36 32 34 36 34 36 35 32 32 38 36 33 37 37 37 38 37 37 38 42 39 68 110 127 135 139 150 157 173 187 204 228 
30 30 31 28 28 33 31 33 31 35 31 31 33 35 36 36 38 38 40 39 41 44 41 40 41 38 34 33 34 36 35 28 33 40 34 36 36 36 37 35 38 37 34 37 36 33 37 35 33 33 34 34 36 34 35 30 35 35 37 34 36 35 38 39 35 38 41 42 45 77 121 154 161 167 179 185 201 216 236 251 
32 30 30 26 31 31 32 30 28 34 33 31 35 34 33 37 37 36 40 40 40 42 40 41 43 41 43 43 40 39 41 38 33 36 38 41 38 36 36 38 37 39 34 37 34 34 36 35 33 34 36 32 32 35 36 32 34 35 35 35 38 38 34 37 35 38 38 45 42 70 122 155 169 179 184 197 206 221 245 256 
34 32 31 29 29 32 33 32 34 34 31 31 36 36 34 39 37 39 41 43 42 42 41 41 43 46 48 48 45 44 47 38 35 36 36 40 38 38 40 36 38 36 35 39 35 34 36 36 34 34 34 34 35 35 36 36 37 38 35 32 36 40 38 37 36 36 40 41 42 69 121 153 172 179 186 195 210 222 244 265 
37 29 29 31 33 31 31 31 31 36 33 32 36 34 35 39 40 38 41 41 41 47 45 42 42 45 50 45 48 46 44 38 36 35 39 36 37 36 37 39 38 39 36 36 35 37 37 37 31 34 33 36 34 35 34 36 36 33 36 33 34 38 38 38 38 37 37 39 42 64 116 150 166 172 183 193 204 222 245 251 
37 32 31 37 36 32 31 35 34 39 33 35 35 39 38 38 39 43 45 45 46 45 47 46 46 45 52 50 48 51 46 40 41 37 40 42 39 41 42 39 39 37 40 39 36 37 36 35 31 36 33 37 37 35 35 39 35 37 39 35 36 39 37 39 39 41 40 41 41 63 113 147 162 171 180 193 203 218 238 255 
40 38 36 34 33 33 32 36 37 41 36 36 37 36 43 41 42 44 46 47 48 50 50 47 48 48 50 49 50 49 50 42 38 37 43 41 40 41 39 39 41 39 38 38 38 40 37 36 36 33 33 35 36 37 41 39 39 40 40 37 38 38 39 40 39 39 40 41 45 58 111 140 160 166 177 191 202 216 238 250 
38 37 36 32 35 37 32 38 39 43 38 39 39 36 40 41 42 44 45 49 50 51 50 48 48 50 57 50 49 50 52 46 39 39 45 42 40 40 40 39 42 38 38 38 38 37 36 35 36 38 38 38 38 37 43 45 44 41 41 41 38 37 39 38 40 39 38 39 41 59 107 140 162 172 179 184 199 209 234 248 
40 39 40 38 41 36 37 41 43 45 41 37 46 38 39 45 43 45 48 50 54 54 53 53 52 52 56 53 52 51 51 40 39 40 43 48 45 43 44 41 40 43 39 40 38 39 40 38 36 35 39 43 41 43 48 52 51 47 43 37 37 40 42 41 39 38 38 43 40 57 104 139 157 167 170 180 182 187 216 244 
45 41 42 41 42 41 42 39 43 46 42 43 48 42 49 45 49 50 51 53 54 56 57 57 59 58 58 55 56 56 55 48 46 45 44 48 44 47 46 43 40 44 41 41 40 40 41 40 40 38 40 40 42 47 53 68 83 69 53 45 39 41 42 39 40 40 44 44 43 53 101 136 156 166 170 170 173 167 216 248 
47 49 49 45 46 44 46 48 48 52 50 45 48 47 48 50 51 56 57 57 60 63 64 61 61 64 65 64 62 61 58 53 47 46 49 53 47 48 47 44 46 45 44 43 42 42 42 43 42 41 42 43 47 49 83 201 173 109 67 52 45 46 43 42 45 42 47 43 51 55 99 133 158 167 173 183 182 199 234 244 
58 53 49 49 49 49 47 48 50 56 52 48 49 50 52 52 55 60 61 62 65 66 68 70 69 69 68 65 65 63 60 52 46 49 51 53 52 50 48 45 44 44 48 42 42 46 44 44 45 47 44 45 48 52 101 246 186 114 64 53 44 47 43 41 44 44 43 43 51 58 97 131 152 167 177 180 198 212 232 236 
64 58 56 53 55 53 52 55 55 56 57 54 55 54 57 57 60 60 65 73 73 71 70 72 79 76 73 68 70 66 60 54 51 52 56 57 50 50 48 45 44 48 47 43 49 47 44 47 45 46 44 43 48 53 67 100 98 78 60 48 46 43 42 43 42 48 46 47 49 57 93 128 157 174 171 185 194 211 227 243 
71 64 60 55 63 60 58 58 57 59 59 58 61 60 60 63 60 68 68 73 75 77 79 85 87 82 81 79 74 69 60 56 53 58 56 55 50 47 46 48 45 51 44 46 48 49 45 50 48 46 46 47 51 50 54 59 64 62 55 48 45 47 46 42 42 47 44 46 48 52 91 130 156 170 177 184 199 210 226 235 
85 76 72 60 62 57 59 57 61 58 53 60 63 64 64 61 62 68 67 79 81 81 82 86 89 87 84 80 73 70 64 60 54 56 55 58 56 54 62 76 49 52 51 50 48 51 50 50 46 50 49 47 49 50 49 52 55 57 50 44 43 40 43 42 46 44 46 46 46 48 81 133 157 170 175 183 193 209 224 234 


