P2
80 60
143
12 18 18 24 23 17 19 20 22 25 24 25 27 29 30 31 32 30 36 34 35 33 38 37 39 37 41 44 43 44 46 51 50 50 52 52 58 54 50 53 52 55 53 56 53 54 52 54 52 53 53 49 53 52 52 51 51 50 44 44 42 38 38 36 39 32 34 33 27 23 19 15 12 14 14 12 11 12 10 11 
11 22 19 25 20 19 20 20 22 24 25 24 28 32 28 27 33 31 34 38 35 39 38 40 42 41 42 43 43 46 48 49 51 49 49 52 50 54 54 52 52 51 55 52 48 54 55 55 53 54 52 54 50 54 51 50 51 50 47 44 43 42 40 34 41 36 34 31 31 25 21 18 18 14 15 13 11 12 12 11 
7 26 22 22 19 21 20 18 22 23 22 24 28 32 32 33 35 33 37 32 34 37 43 41 40 41 43 46 43 48 49 48 49 51 52 49 52 53 49 54 53 55 55 55 54 53 53 55 54 53 52 56 55 59 54 50 51 51 49 48 47 43 40 39 41 36 35 33 32 26 22 18 21 16 15 10 12 14 11 4 
7 21 20 25 18 22 21 20 24 29 24 28 30 31 35 36 36 34 34 37 39 42 41 41 43 39 45 46 44 45 49 48 51 52 51 51 54 53 50 51 54 51 54 54 55 54 53 55 53 53 54 54 54 57 56 52 52 51 46 48 47 47 42 40 47 36 35 30 32 27 24 22 20 19 17 12 13 12 12 5 
10 17 18 27 23 20 22 24 25 29 25 29 29 33 37 36 35 37 36 40 41 40 43 40 41 45 45 46 47 45 50 47 50 51 51 50 51 51 50 52 56 52 54 52 54 56 56 55 56 56 56 56 55 57 54 56 56 54 48 49 49 47 42 45 45 42 39 34 33 30 25 23 23 19 22 18 12 18 14 8 
11 17 19 25 21 25 24 25 26 27 27 31 32 35 36 34 35 37 41 39 39 38 43 43 44 44 44 45 48 48 47 50 52 52 51 54 54 55 52 52 55 54 57 56 52 55 55 58 56 56 56 59 57 59 58 51 52 53 51 49 49 46 49 47 46 42 39 36 33 31 26 25 26 22 24 19 14 11 9 7 
15 16 16 26 22 24 25 24 23 30 30 30 34 37 36 37 41 38 41 40 42 40 44 42 43 46 44 46 48 48 49 47 52 51 52 52 54 57 54 55 56 58 55 56 55 56 59 58 55 56 55 58 56 57 54 52 52 54 47 50 50 52 50 48 45 38 37 38 34 32 26 26 26 21 21 17 15 12 10 12 
19 22 15 19 27 27 28 29 32 31 31 33 35 35 36 37 43 41 43 44 43 43 45 44 45 50 46 48 47 46 47 49 46 48 51 51 55 55 52 53 60 56 56 54 55 58 57 54 59 56 56 55 58 58 56 53 51 55 50 52 50 49 49 48 45 42 37 35 35 31 29 25 29 26 24 18 17 12 10 3 
23 31 21 21 30 29 29 29 29 34 34 38 38 40 41 43 42 41 46 43 42 47 47 43 45 47 46 49 48 48 47 50 48 51 52 54 51 55 55 55 57 56 57 57 57 56 57 58 56 55 57 56 55 60 57 53 54 55 53 54 52 51 51 49 50 42 40 37 36 33 30 29 27 25 24 20 18 12 11 13 
21 32 20 21 26 27 27 31 32 33 31 34 36 40 41 43 43 44 46 42 48 45 48 45 49 50 48 49 45 48 50 51 53 53 51 53 51 61 55 56 54 54 55 60 59 59 56 56 59 56 56 57 58 54 53 53 55 54 54 50 52 49 48 49 46 41 40 40 38 31 30 29 28 23 26 20 15 15 15 17 
23 30 21 22 27 28 28 30 31 33 35 34 37 38 39 39 44 42 44 44 46 48 47 47 50 48 49 53 50 49 52 53 52 51 53 53 53 76 76 66 60 58 60 54 57 57 57 59 58 57 58 61 60 57 55 53 54 54 55 54 52 53 47 50 45 39 41 40 38 35 35 36 32 30 26 27 19 18 19 23 
22 28 17 23 26 25 27 33 31 33 32 33 36 36 38 40 42 38 43 45 46 45 48 46 50 52 52 51 49 48 54 53 53 54 57 55 53 68 74 77 85 69 60 58 56 57 59 58 60 59 57 58 58 60 55 54 57 56 55 53 51 48 49 48 46 41 42 40 41 36 36 33 32 33 31 30 22 27 19 14 
19 28 19 26 29 31 29 30 33 38 35 38 34 36 36 38 41 39 40 42 42 47 47 48 53 49 50 50 52 51 54 53 57 56 54 57 60 67 74 75 85 78 62 57 57 62 60 58 61 59 58 58 57 57 56 57 57 57 53 53 51 52 51 50 48 43 43 43 42 38 37 37 36 30 31 32 25 21 20 23 
18 28 20 33 34 34 35 38 40 39 39 38 36 37 36 37 41 41 40 43 44 42 47 48 52 49 52 49 55 54 54 53 58 52 57 58 61 69 75 73 76 70 57 58 57 59 60 56 59 56 58 56 57 57 57 55 57 56 54 54 53 52 51 47 46 44 43 44 39 41 38 32 31 30 26 28 21 25 32 32 
17 23 29 37 37 35 36 37 40 42 41 40 39 44 42 42 43 41 41 44 42 43 44 40 46 51 52 50 55 55 54 57 58 57 59 61 71 69 69 69 76 64 59 59 60 59 63 59 59 57 56 53 55 57 58 56 56 55 56 54 53 53 50 46 47 45 42 45 41 41 33 32 31 29 26 32 34 35 35 40 
18 31 34 38 40 39 38 43 41 42 44 45 43 44 46 44 47 46 46 45 44 45 46 44 43 44 50 50 54 57 60 57 57 57 58 61 63 64 65 55 64 65 57 61 59 59 59 58 58 54 57 58 55 55 57 59 55 56 56 56 53 51 52 48 46 46 45 43 40 36 31 30 29 35 40 41 39 43 46 46 
21 35 33 39 36 37 38 39 41 42 44 49 47 46 48 48 49 51 52 49 49 48 46 47 46 46 47 54 57 57 59 58 61 60 59 60 60 62 60 55 60 57 58 61 61 60 59 61 57 56 60 57 57 57 57 60 55 54 56 53 52 51 53 48 50 46 43 45 37 35 32 38 47 40 45 49 45 51 51 49 
26 40 38 43 41 39 43 45 42 44 42 45 43 46 49 47 49 51 50 54 52 52 51 47 45 47 46 50 53 57 60 61 60 57 61 63 59 60 58 55 60 58 62 62 59 60 65 61 59 56 58 59 59 61 55 59 55 54 53 55 51 52 52 50 52 48 42 37 35 34 39 46 47 43 47 50 52 50 54 47 
28 39 37 41 39 40 41 42 42 43 42 46 43 48 53 51 47 48 48 54 50 55 55 54 50 48 47 44 50 55 56 56 58 58 59 58 60 62 57 57 59 56 60 62 60 64 60 61 60 60 58 59 58 54 57 56 56 58 57 54 52 51 51 52 52 46 44 42 32 43 43 49 51 50 51 56 58 60 62 61 
33 41 35 43 39 39 42 44 43 46 43 48 45 51 51 52 49 47 50 52 53 57 55 55 56 53 46 48 45 53 55 55 57 60 60 61 59 58 58 60 60 61 63 64 61 63 65 62 57 59 57 60 54 59 57 57 56 59 56 53 56 55 51 52 50 45 39 35 45 48 47 52 55 54 59 62 66 73 73 69 
37 42 38 44 42 43 42 41 44 46 42 47 45 51 50 49 47 46 47 53 51 55 53 54 57 56 51 50 46 49 53 58 59 58 55 59 58 58 57 58 59 62 60 62 59 62 61 61 61 57 59 58 55 56 60 58 59 59 56 54 55 55 53 53 49 47 38 42 50 56 51 55 62 65 68 68 78 81 88 79 
35 43 39 42 42 43 44 40 47 45 48 47 47 48 49 49 48 43 48 49 52 51 53 53 55 56 56 53 48 44 47 52 56 58 56 55 60 58 60 57 61 61 60 60 58 58 58 62 58 60 58 60 56 59 57 59 56 59 55 55 57 55 54 54 52 44 38 51 54 53 57 63 66 72 71 81 84 88 93 86 
33 38 35 35 39 38 37 41 44 47 45 46 43 41 44 44 41 41 44 48 48 50 50 50 53 48 53 57 52 49 45 47 54 59 54 58 58 58 59 59 60 58 58 59 58 60 60 63 63 57 58 61 54 59 56 58 57 59 56 56 55 53 57 52 45 38 49 58 59 61 65 72 75 76 84 91 95 99 103 96 
24 34 31 36 37 35 36 35 41 41 37 38 36 43 41 42 42 42 45 45 44 45 49 47 47 48 51 49 54 49 45 44 47 52 54 56 57 58 58 60 58 57 57 56 57 59 58 58 60 61 59 59 57 56 58 59 59 56 56 54 57 57 56 45 44 51 61 65 66 65 70 80 82 92 96 99 103 108 116 106 
29 36 30 32 31 37 37 34 34 38 35 40 37 39 37 41 42 43 44 48 48 45 48 46 46 47 51 48 50 52 49 48 44 51 55 60 58 59 58 58 59 57 57 56 59 59 59 61 60 58 58 56 57 60 59 60 57 57 59 58 59 56 54 42 50 60 62 69 68 69 78 88 92 98 100 109 115 123 122 115 
31 39 37 40 35 38 39 36 38 40 37 39 44 43 45 49 45 45 50 51 48 46 47 47 47 49 47 51 48 53 52 51 46 47 56 59 58 61 57 55 59 54 58 58 59 59 57 60 60 59 61 62 58 62 60 58 58 60 58 56 62 58 58 44 59 69 72 72 73 81 87 97 107 110 115 121 122 128 124 120 
30 44 42 43 36 36 38 39 43 41 43 45 44 48 44 47 49 49 53 50 46 46 48 46 49 51 49 49 46 49 52 47 46 45 54 54 58 58 55 58 57 56 59 56 57 55 59 62 58 58 59 61 59 58 60 56 60 61 61 59 60 51 49 53 67 73 75 80 81 93 99 107 114 113 124 128 129 128 129 124 
34 43 39 42 34 39 39 39 39 45 45 48 44 50 46 50 51 47 51 53 47 54 53 49 49 48 49 44 48 47 49 48 48 45 49 53 56 57 56 57 56 55 58 59 55 58 58 57 59 58 58 59 58 59 57 56 56 60 59 60 47 49 51 66 70 77 82 90 93 101 107 116 122 126 129 130 135 134 133 129 
31 38 37 46 37 38 38 40 42 43 44 46 44 46 46 46 49 50 51 51 51 50 52 50 51 49 50 46 45 45 48 48 51 49 51 50 56 57 55 52 58 55 57 58 56 58 58 58 57 61 58 58 56 57 56 56 61 60 61 49 50 45 68 72 76 84 89 95 99 107 110 121 129 130 133 139 137 136 135 130 
31 34 35 37 40 41 43 41 44 47 45 47 45 47 47 52 47 50 47 51 50 52 49 52 51 48 45 44 45 44 47 50 52 44 48 48 51 53 52 51 57 55 56 55 57 56 61 59 62 59 61 60 59 58 54 58 59 57 54 45 49 68 76 78 88 95 93 107 110 115 125 130 130 140 137 140 138 139 140 130 
31 37 34 38 39 39 40 40 42 44 47 44 44 43 43 47 45 48 45 49 47 50 49 48 48 45 42 42 44 43 43 48 47 47 48 50 49 49 52 52 55 55 52 56 56 55 54 58 60 56 58 61 58 59 57 57 59 58 55 47 64 77 79 89 95 100 106 114 117 122 131 133 134 137 143 142 139 142 138 130 
26 37 38 42 40 37 39 42 42 45 46 43 40 43 43 47 47 47 46 49 51 49 48 47 43 42 42 43 41 42 46 45 46 46 48 52 46 48 49 51 53 54 55 56 57 58 59 58 58 55 56 60 59 62 58 59 59 51 54 59 72 83 88 97 104 111 112 119 125 128 133 137 139 134 137 140 137 135 135 125 
27 39 37 38 38 39 42 44 45 44 46 45 45 46 48 47 47 45 46 49 49 47 47 43 42 39 43 42 44 48 49 47 49 49 47 51 46 46 48 48 52 52 51 53 54 57 59 58 58 56 58 62 58 58 62 57 52 57 65 73 88 90 96 103 109 115 119 118 107 102 79 74 69 59 59 64 62 71 67 64 
27 38 34 40 39 39 38 41 40 46 45 42 44 46 45 49 44 45 45 49 49 48 45 40 39 42 43 47 49 48 52 50 51 52 50 50 49 47 47 47 48 47 47 49 49 54 58 56 59 58 57 61 58 57 55 49 51 72 80 85 92 100 105 107 114 105 75 54 41 43 34 32 33 29 29 32 25 27 25 17 
29 36 37 37 38 37 35 33 39 45 44 43 46 44 45 48 42 46 49 47 49 46 38 42 44 46 47 49 49 51 57 53 50 52 52 49 47 49 47 49 48 48 48 48 48 53 53 56 55 54 57 57 57 48 53 48 70 79 89 88 95 100 105 104 74 48 35 36 38 40 40 49 50 54 51 48 40 34 26 24 
27 37 34 36 34 29 32 36 35 40 42 41 44 45 46 44 46 49 44 51 43 40 39 46 47 46 48 49 47 52 58 53 52 49 48 52 46 49 47 48 46 45 43 49 47 48 51 50 55 56 55 53 42 47 52 64 73 81 92 94 98 103 89 54 40 41 40 64 90 109 113 119 125 118 120 116 111 102 98 77 
27 31 30 32 34 35 34 35 34 34 39 38 40 43 44 46 44 43 47 46 41 37 46 40 46 45 46 48 50 52 53 53 52 52 51 52 46 49 50 51 50 45 43 44 47 43 51 45 47 52 45 48 51 45 62 65 79 84 90 98 102 88 49 41 39 78 103 123 123 124 126 127 128 125 124 118 113 111 110 91 
27 34 35 36 34 40 37 37 32 31 40 39 39 42 45 44 42 44 42 40 35 36 43 41 44 43 49 47 54 56 54 52 50 51 48 50 46 50 55 55 53 52 49 45 44 46 46 46 44 48 47 45 47 58 64 69 77 87 95 96 81 49 46 56 98 117 121 126 127 127 123 129 127 123 118 113 112 108 99 84 
29 34 33 38 33 36 35 35 27 32 39 39 40 39 44 43 43 43 37 41 32 39 41 40 45 43 52 51 53 52 55 50 49 50 50 44 47 48 47 53 54 53 52 51 49 45 44 46 48 41 45 49 60 60 64 67 75 81 87 69 42 45 57 98 113 124 119 128 127 126 124 122 120 116 114 106 101 95 90 72 
32 34 31 35 35 34 33 32 28 30 38 37 38 41 40 40 41 37 38 34 35 39 41 41 44 47 49 49 50 48 51 51 51 52 49 50 45 46 43 45 48 53 54 56 52 47 43 47 53 54 49 52 55 59 64 64 71 76 68 43 41 54 88 110 117 118 118 118 123 123 116 119 117 110 104 101 94 85 79 64 
25 31 29 33 32 32 32 25 29 32 35 36 39 36 39 37 36 37 37 34 34 41 44 44 43 47 48 48 45 45 52 46 52 50 51 50 47 46 44 43 45 50 52 56 55 53 48 43 49 53 51 53 55 56 61 60 67 62 48 41 53 87 105 108 109 115 117 118 116 115 110 110 108 102 95 81 82 69 67 52 
21 27 32 35 30 31 32 23 30 30 32 34 34 39 37 38 38 40 38 35 38 43 43 44 47 47 47 43 46 43 44 45 50 50 53 50 49 44 48 44 40 50 51 52 54 53 50 43 44 47 51 50 52 54 58 57 58 46 45 38 76 89 99 105 105 109 114 110 103 106 104 101 99 89 83 78 66 64 60 50 
18 25 28 33 28 28 24 24 31 34 32 35 36 38 39 33 40 36 33 32 40 44 42 44 45 44 46 46 51 51 47 47 52 50 48 46 42 43 49 44 42 44 49 53 50 50 50 47 39 41 45 49 51 51 59 53 48 39 36 60 75 86 95 101 103 108 104 107 99 97 95 88 86 75 68 60 54 56 52 43 
21 27 25 32 29 25 23 28 33 29 34 32 34 35 33 34 37 34 32 31 41 43 41 41 45 45 44 46 47 50 47 46 45 50 42 43 44 46 50 48 44 48 48 49 46 48 48 46 39 39 46 45 46 49 51 50 42 36 46 58 73 81 88 90 92 98 97 100 92 89 81 78 72 66 64 54 52 47 42 42 
20 24 24 28 27 25 25 27 32 33 32 29 35 30 32 38 36 36 31 36 40 42 41 43 43 46 44 46 47 49 50 50 46 45 40 45 48 44 48 44 44 50 49 50 49 49 47 45 42 36 36 44 46 52 48 45 38 36 51 58 67 71 78 82 84 86 83 87 80 77 71 69 65 56 51 51 44 41 40 35 
18 27 26 26 21 22 26 28 30 29 30 29 30 30 32 39 38 38 29 33 38 41 39 41 46 42 45 45 49 47 51 45 43 43 43 53 48 42 43 43 50 48 49 50 49 45 46 49 48 42 36 46 46 50 40 39 35 47 54 54 60 65 70 74 73 75 71 71 67 64 58 61 57 48 43 40 38 38 38 31 
18 25 27 26 16 19 26 25 28 31 29 30 29 30 33 37 35 32 26 35 37 40 38 42 41 42 45 45 45 49 48 45 39 44 47 48 50 41 45 42 46 51 50 51 48 50 51 50 51 45 40 43 48 45 43 36 44 46 53 51 56 58 59 64 61 58 57 58 59 53 50 47 48 41 37 34 32 36 33 28 
14 21 23 23 17 23 23 26 25 25 31 29 26 31 34 36 39 31 26 33 38 40 37 39 38 36 39 43 47 43 46 38 46 45 50 46 47 42 45 45 48 50 49 51 50 49 46 48 50 47 41 38 43 40 36 34 46 47 51 48 50 49 52 51 50 56 52 50 51 47 46 45 43 31 35 33 28 33 27 25 
15 18 21 19 21 21 20 22 21 22 24 25 23 29 32 33 35 33 24 31 36 39 36 36 38 39 38 42 43 44 38 43 50 45 45 50 45 40 46 46 49 48 49 47 48 49 48 48 49 47 47 39 42 40 36 40 45 46 49 49 51 47 47 49 48 47 46 43 38 40 41 36 36 32 29 30 27 29 28 26 
9 21 23 20 18 21 17 20 20 21 22 23 23 26 33 30 33 24 24 31 34 36 34 34 35 36 35 37 33 38 41 46 45 42 42 44 44 39 48 52 53 50 50 47 43 47 46 46 46 46 45 39 37 38 39 41 45 47 46 45 46 47 44 43 46 44 41 37 36 37 37 33 34 26 26 27 19 24 21 16 
8 18 18 22 21 18 14 16 20 27 23 25 23 22 27 29 29 22 21 32 31 33 35 35 35 35 32 31 35 32 43 43 39 42 42 43 39 37 47 51 54 54 49 46 44 47 49 44 45 45 44 44 40 40 42 45 45 47 44 42 42 42 39 44 42 41 37 38 35 36 30 32 30 24 22 25 24 21 14 10 
4 17 18 22 21 16 16 18 24 23 24 26 19 17 24 26 28 23 25 28 30 32 30 29 31 32 32 33 32 37 38 37 40 38 41 40 40 37 48 53 57 53 48 43 44 44 44 46 47 47 46 43 46 41 45 40 42 45 44 43 43 44 43 39 41 40 36 36 29 30 29 27 28 22 25 18 16 19 16 13 
5 17 12 14 17 17 14 16 21 22 20 25 23 18 18 22 29 22 21 25 28 32 31 28 29 30 25 30 35 44 45 40 42 41 41 42 41 37 46 53 54 49 42 45 48 45 46 46 48 45 45 44 45 42 42 42 41 44 42 41 40 40 41 37 39 35 32 32 26 24 24 29 23 22 23 17 15 16 14 10 
7 11 10 12 17 19 17 18 24 26 19 19 25 24 21 25 26 24 22 25 27 29 29 27 30 29 31 37 41 46 47 45 45 45 42 45 45 39 43 48 47 44 44 44 44 44 42 46 42 44 43 44 45 41 43 42 41 44 43 39 40 38 39 41 36 34 32 31 28 27 23 23 23 21 19 12 10 13 8 3 
8 11 9 14 18 21 24 23 25 28 25 21 23 22 27 18 25 22 22 28 30 28 31 30 31 33 37 40 39 45 42 42 42 46 43 48 45 36 43 41 45 44 46 41 44 44 43 44 46 42 43 42 42 40 41 38 41 41 41 37 36 40 40 35 33 29 30 32 26 23 19 23 20 18 17 16 10 9 14 6 
6 12 11 18 19 24 24 23 25 24 28 31 22 21 24 27 25 26 21 26 29 27 31 34 37 35 38 38 40 45 45 44 46 45 42 40 43 40 39 39 43 40 44 41 42 43 45 45 45 39 42 41 41 41 42 40 43 41 37 36 36 36 34 33 34 32 27 30 26 24 20 22 19 17 19 13 10 10 11 7 
10 12 12 14 20 22 23 23 23 22 24 29 27 23 27 30 32 27 23 26 27 30 34 36 37 37 40 40 40 41 42 43 46 47 40 41 38 37 38 37 44 42 45 43 41 42 44 48 44 45 42 41 41 41 41 40 43 39 39 36 36 34 36 34 32 29 26 22 27 25 19 23 18 15 17 17 10 10 8 10 
13 19 9 11 18 20 23 20 22 22 24 23 22 22 19 27 30 29 24 29 31 32 36 35 37 40 38 38 41 44 42 43 44 43 41 40 37 35 40 39 42 42 42 44 40 41 42 42 40 40 41 41 38 41 39 40 40 39 37 33 35 36 34 29 31 27 22 27 25 22 20 23 17 17 13 13 8 13 9 4 
14 26 16 13 13 17 23 22 22 21 18 19 23 27 23 25 27 26 24 25 30 34 34 35 37 37 37 39 39 40 41 40 43 44 39 36 32 34 43 39 43 40 42 41 41 41 42 41 41 38 40 40 41 42 45 41 36 37 37 34 36 33 32 29 30 28 22 22 24 25 18 17 19 15 15 11 9 13 14 2 
14 33 20 15 10 10 20 21 25 12 18 23 26 28 26 25 20 28 21 20 27 29 30 33 34 38 35 37 38 36 38 38 39 39 35 32 31 35 42 39 39 40 42 42 38 41 41 41 38 36 37 39 39 42 41 38 37 37 37 30 30 31 33 25 29 27 26 24 27 25 22 20 21 17 21 14 13 15 14 0 


