P2
80 60
247
25 29 29 37 76 105 85 43 55 99 94 54 47 42 35 36 33 26 30 31 26 27 29 24 24 26 27 27 29 38 32 31 31 27 30 27 27 29 26 26 27 30 27 29 30 32 31 25 20 16 18 17 20 17 20 20 20 25 21 24 24 23 27 29 28 20 22 25 27 27 28 23 27 19 22 21 24 26 20 19 
20 30 34 45 83 110 80 43 55 99 91 52 43 40 35 34 33 30 30 28 28 26 27 26 28 28 30 29 28 33 32 32 31 29 28 27 28 28 24 24 29 27 26 30 30 29 31 28 25 22 19 21 20 19 21 23 25 25 27 28 27 30 28 36 33 20 21 26 28 27 26 23 25 27 22 21 24 26 18 20 
19 27 37 44 89 108 76 39 61 100 87 50 37 36 34 34 31 31 29 28 27 28 27 27 27 29 30 28 33 33 31 29 28 25 28 25 27 28 29 27 28 27 28 31 28 33 30 29 25 22 25 25 28 26 27 28 29 29 30 31 28 28 29 30 30 21 21 26 29 27 26 24 28 26 22 21 27 24 17 17 
22 25 31 44 91 103 71 36 69 98 81 48 36 36 31 31 32 28 29 28 26 26 29 31 29 29 28 31 33 31 32 27 27 27 24 26 25 27 25 26 27 31 27 31 27 27 32 33 27 29 31 30 32 28 28 28 30 36 31 32 30 29 24 25 25 21 20 21 30 29 27 29 27 23 23 23 26 23 15 18 
22 30 34 47 100 111 70 42 72 97 80 40 36 32 28 33 28 28 27 25 29 26 31 27 27 28 27 31 33 31 27 29 28 26 24 23 27 30 23 22 25 30 28 30 28 30 31 31 33 31 28 27 28 32 27 28 29 30 29 26 27 24 24 25 25 23 20 23 28 27 25 25 26 24 21 22 22 22 18 17 
21 29 35 56 100 102 67 41 74 99 76 39 35 30 29 29 24 30 26 26 29 29 27 26 29 26 27 27 29 29 29 29 29 26 26 24 24 30 24 22 24 26 28 28 25 28 28 28 26 29 29 29 30 27 29 30 30 27 28 26 26 24 29 27 26 26 18 21 29 30 27 26 30 24 22 23 22 20 17 19 
20 35 39 57 102 98 59 40 77 99 70 35 36 32 30 25 26 25 27 30 28 24 28 25 27 27 25 27 28 29 29 31 27 25 25 25 27 24 24 23 25 28 24 27 27 25 25 27 30 29 28 28 27 28 29 28 28 29 28 23 27 29 30 30 30 26 23 21 28 27 26 26 26 25 25 23 20 18 15 16 
15 29 30 49 99 97 55 35 78 97 64 32 31 26 26 26 21 25 25 26 24 23 22 23 21 23 24 29 28 29 30 28 28 24 27 26 27 25 24 22 27 26 25 26 25 28 22 25 27 27 28 26 29 25 24 26 30 29 28 29 28 33 27 30 27 27 21 19 30 28 26 27 28 27 24 25 20 17 14 16 
11 26 26 49 104 96 51 33 82 98 62 32 27 24 24 24 22 27 27 25 24 20 25 24 24 25 25 27 29 28 27 30 27 26 26 28 30 30 26 23 29 25 28 27 28 29 29 30 26 28 25 23 25 25 29 29 27 30 32 32 31 32 28 30 28 30 21 20 26 29 30 29 26 26 24 25 19 19 16 16 
7 5 0 41 104 93 42 30 87 102 60 26 25 23 24 23 22 24 23 23 24 25 25 24 23 25 24 26 29 30 31 27 29 26 29 26 28 28 26 26 26 26 28 27 26 28 32 29 29 27 24 25 25 26 30 31 30 33 34 30 33 29 32 29 32 30 23 22 28 31 33 29 30 28 26 25 14 20 18 18 
7 7 5 46 106 90 34 25 95 111 53 18 17 15 12 17 18 19 19 20 22 19 22 23 21 24 21 24 26 30 26 25 26 24 23 25 27 28 22 24 25 27 25 27 25 25 27 24 29 26 28 29 30 29 28 32 31 31 35 30 32 28 27 30 28 31 21 23 22 29 28 27 26 25 24 22 17 19 18 20 
11 19 21 57 113 92 34 33 96 109 50 19 15 13 13 13 9 15 17 18 15 17 20 19 20 21 20 22 24 25 28 27 24 26 27 25 27 28 26 26 23 27 28 25 27 26 25 26 30 28 31 30 33 32 32 34 35 33 31 31 30 30 30 34 32 31 26 23 26 28 26 32 31 28 28 27 21 22 19 19 
15 18 18 55 106 91 38 37 97 105 49 10 13 13 11 11 16 10 11 6 6 8 7 10 10 13 11 14 13 19 17 22 20 21 20 23 24 26 26 23 26 23 25 27 26 24 26 27 30 31 28 30 31 31 28 30 32 33 30 31 29 30 28 31 26 30 27 24 24 28 28 30 24 27 26 25 21 18 19 21 
14 21 19 63 103 87 36 37 104 106 46 19 18 14 15 13 14 11 9 8 8 9 7 7 11 7 6 8 10 9 9 5 14 13 17 20 25 26 24 25 23 24 27 25 30 30 30 32 31 33 30 32 31 26 33 32 33 33 36 35 29 30 31 33 33 30 30 24 23 29 29 33 31 30 29 28 28 23 20 18 
12 17 21 70 99 74 33 41 102 100 43 21 20 17 19 16 14 11 11 10 11 10 6 8 8 6 5 8 11 8 10 6 3 6 19 21 25 26 22 22 23 26 30 31 32 31 28 34 35 33 31 33 29 32 31 33 31 32 31 33 31 31 32 30 33 32 32 25 24 30 29 31 31 31 29 28 30 21 17 20 
15 20 21 68 98 74 30 43 100 92 39 19 17 18 20 15 12 11 12 9 5 7 11 9 7 7 8 5 11 10 6 8 13 17 24 27 26 20 23 23 24 25 27 28 29 30 28 29 32 29 30 29 31 31 31 30 31 31 31 32 30 31 30 32 32 33 30 26 23 23 27 33 31 27 27 27 28 21 20 25 
14 19 23 74 96 72 31 42 102 89 34 20 20 16 14 16 14 12 12 15 12 10 15 10 10 8 7 9 14 11 19 20 26 25 26 27 24 24 25 25 22 26 29 31 32 30 30 27 35 30 31 29 35 31 32 32 30 34 31 32 32 29 29 36 34 31 33 28 22 25 32 31 30 29 25 28 29 25 23 23 
18 20 23 77 100 73 26 44 102 88 33 18 20 19 16 18 18 14 13 14 14 13 15 13 10 13 10 15 17 21 27 28 30 26 27 24 28 26 25 25 25 25 29 31 32 31 32 29 34 35 30 32 32 31 33 35 35 34 37 32 34 32 36 38 36 34 33 30 25 24 29 33 30 31 30 29 28 28 25 27 
18 19 23 80 94 69 28 47 102 85 34 17 19 16 19 18 17 14 15 13 14 12 13 14 10 8 10 10 14 20 31 26 26 23 24 25 26 26 26 24 25 27 29 29 27 29 32 27 31 30 32 30 35 33 30 33 29 32 33 31 31 30 31 30 33 33 33 31 22 19 26 31 29 27 28 28 28 29 23 25 
19 23 28 88 98 66 28 49 105 85 33 21 21 19 18 18 18 18 16 15 14 16 15 13 13 12 13 10 16 23 29 25 28 23 24 23 24 28 26 23 26 29 28 26 31 29 31 30 29 29 30 31 30 32 32 32 33 34 33 34 32 32 31 33 33 31 38 32 25 20 25 30 32 29 29 30 29 28 23 25 
23 22 29 91 96 70 31 54 102 86 32 21 23 22 20 20 20 19 17 17 15 18 15 16 16 14 11 15 12 17 26 25 26 22 25 26 26 27 25 26 25 30 29 29 32 29 34 30 33 32 31 33 33 30 32 35 30 34 32 33 35 35 33 37 35 33 36 36 26 20 23 31 33 32 31 30 31 28 27 26 
24 26 40 104 101 63 31 61 105 85 37 21 20 21 21 18 18 19 17 18 16 18 15 14 13 11 12 13 15 15 25 26 22 23 26 26 25 27 26 25 28 28 27 31 29 29 32 30 31 33 34 32 31 31 34 35 33 34 33 32 33 35 35 35 34 33 37 36 32 24 17 30 34 30 30 29 29 30 27 27 
76 72 74 123 105 55 31 66 108 84 31 22 23 19 16 21 19 17 14 15 18 16 15 14 15 13 12 14 15 13 21 22 25 28 23 23 25 24 25 26 26 27 28 29 29 29 28 31 31 33 30 33 30 30 33 33 31 32 34 33 33 34 32 34 32 34 35 36 36 22 16 24 29 31 33 30 30 31 26 21 
99 104 105 113 94 48 32 68 103 77 29 21 24 19 16 18 20 19 18 15 17 15 17 17 16 16 16 14 14 13 26 24 24 25 24 21 27 26 25 25 28 26 27 29 29 28 30 29 29 31 31 31 31 34 32 32 31 29 30 34 31 33 33 38 35 33 36 38 35 30 21 21 25 31 31 33 30 28 23 24 
95 99 97 93 73 37 35 76 106 83 32 23 23 21 18 19 20 20 22 18 16 20 18 17 15 14 16 17 17 19 22 27 25 26 25 26 29 28 26 27 31 32 29 30 32 31 32 32 34 34 34 33 33 34 35 33 31 37 34 32 34 34 35 36 31 35 34 36 36 32 29 25 19 23 25 29 33 31 26 21 
41 45 49 51 34 32 35 76 110 83 34 25 26 23 22 25 22 21 21 19 20 21 20 20 20 16 19 17 18 18 23 27 27 27 29 28 28 32 32 27 28 34 31 32 34 32 32 34 32 32 34 35 34 33 36 37 34 37 35 35 33 36 34 39 36 34 38 40 37 35 32 32 26 21 21 23 24 29 22 27 
28 27 21 23 25 27 33 83 117 80 34 23 24 21 21 23 18 20 22 20 18 19 18 18 19 16 14 17 18 17 23 28 27 29 25 28 29 28 29 29 30 33 30 33 28 31 33 32 34 30 32 33 31 31 33 34 32 34 34 33 34 32 30 34 33 36 36 38 37 36 31 34 34 29 24 21 24 21 21 23 
70 66 52 45 42 44 48 98 119 81 33 24 22 20 22 22 19 23 21 18 18 18 17 20 17 18 16 16 18 15 24 26 28 28 27 29 30 26 29 32 34 28 29 30 31 32 32 30 32 32 35 33 32 36 34 35 31 33 37 33 34 32 34 36 34 35 35 34 36 36 34 35 37 35 34 32 26 24 20 21 
118 114 103 98 98 97 101 113 108 79 31 25 25 23 22 23 23 20 26 21 18 22 16 19 18 18 19 18 18 16 23 30 27 30 27 29 28 29 31 31 32 33 33 33 32 31 38 30 37 33 36 33 32 32 31 29 35 33 35 34 34 34 29 36 33 36 38 40 36 41 34 33 35 35 34 32 33 30 26 20 
97 104 96 98 100 102 104 104 94 63 30 23 25 19 23 25 20 24 23 19 21 23 19 25 17 19 20 19 22 17 24 27 27 27 28 32 30 27 33 28 32 30 28 34 31 33 34 33 33 33 33 32 33 32 33 36 33 34 33 34 34 30 36 37 34 37 39 41 37 36 35 34 37 32 30 34 31 28 23 24 
41 47 47 48 56 63 66 63 59 34 24 22 29 25 23 25 24 23 23 20 21 26 20 20 18 18 20 21 17 20 26 27 28 29 30 27 29 30 33 30 29 30 31 35 35 33 33 33 33 32 33 36 37 34 33 33 36 37 32 35 34 33 34 38 35 35 37 36 36 36 34 37 36 29 33 31 32 32 23 26 
25 28 23 22 27 29 32 30 29 25 23 22 28 26 24 27 26 25 24 23 22 23 25 23 22 18 19 24 23 19 25 29 31 32 33 29 31 29 30 33 31 32 31 31 36 31 31 32 33 33 34 33 34 35 34 36 36 36 35 35 35 34 35 39 35 39 38 38 37 32 37 38 38 35 33 31 31 32 26 32 
21 24 23 19 25 25 26 22 26 25 25 22 28 29 26 26 27 27 24 28 24 23 26 23 22 19 21 27 23 22 24 30 30 31 25 29 33 30 31 30 33 34 33 35 33 32 33 33 36 36 34 36 35 33 34 39 35 36 34 32 37 35 36 39 34 40 39 38 39 36 36 39 38 37 34 32 31 35 31 26 
25 26 18 23 24 26 22 22 23 29 24 26 28 28 28 26 30 26 24 26 25 23 27 26 26 20 20 23 20 20 25 31 32 30 30 26 31 31 32 31 34 34 35 32 35 34 37 36 35 34 38 34 37 36 32 36 36 34 37 34 35 35 37 41 36 37 40 41 38 37 34 40 38 36 36 34 33 32 29 27 
26 23 20 18 25 27 20 23 26 29 25 28 28 27 26 26 29 26 24 25 26 26 28 27 25 24 25 26 24 23 28 29 31 31 30 29 32 29 30 30 32 31 32 33 32 33 36 35 36 37 34 36 37 33 34 33 32 35 37 34 39 40 36 39 34 39 39 39 40 37 38 37 41 35 34 34 34 33 30 31 
25 26 19 19 23 26 26 26 25 26 24 28 30 29 28 29 26 26 26 27 28 30 29 25 31 24 25 28 24 24 27 30 33 31 30 29 30 32 31 29 29 33 29 35 34 35 35 35 38 36 36 34 35 37 35 35 33 35 35 38 37 35 34 40 35 35 40 39 37 37 34 37 37 36 39 29 31 37 31 35 
26 30 22 20 26 24 25 24 23 29 31 28 31 29 26 30 27 28 27 31 26 30 29 33 27 30 30 28 25 23 26 32 33 32 30 32 31 31 34 36 35 32 33 33 34 34 37 38 36 38 36 38 35 36 35 35 35 36 36 36 37 34 36 38 36 37 40 40 40 38 39 37 35 36 37 33 32 34 35 32 
26 28 25 21 22 26 23 26 28 29 26 27 30 28 27 28 29 30 26 29 30 25 27 26 26 27 29 32 26 25 25 31 35 34 31 32 30 31 30 34 34 32 30 34 32 35 34 38 37 37 34 35 36 37 35 36 37 35 38 36 36 36 35 40 38 39 42 41 41 38 34 39 37 35 34 32 36 31 38 35 
25 25 25 23 24 26 30 28 28 26 28 29 31 30 30 30 28 29 29 32 28 28 29 26 30 29 29 27 30 24 27 30 33 32 32 31 34 29 33 32 31 36 32 34 34 33 34 39 35 36 38 35 35 35 35 36 35 34 36 33 35 34 36 37 37 38 40 39 41 42 35 41 37 37 36 33 35 39 42 47 
23 27 24 22 30 28 30 28 26 25 28 29 30 31 30 32 32 31 31 28 30 29 30 31 31 31 29 33 30 27 26 31 34 34 35 33 34 32 33 35 33 32 35 37 34 36 38 36 34 37 34 35 35 36 36 36 39 36 37 33 36 35 35 36 38 38 43 42 37 37 37 40 39 37 37 39 44 52 51 56 
27 27 25 27 28 29 28 28 32 30 28 27 31 31 32 33 30 32 31 31 32 31 32 31 32 34 29 31 34 34 29 31 37 35 33 31 35 34 35 31 34 36 35 36 35 37 38 39 38 37 35 34 37 37 39 36 38 36 37 35 36 37 37 37 37 38 40 44 40 40 37 40 41 37 37 42 52 51 50 93 
25 26 23 27 31 30 29 31 29 30 25 31 33 33 31 33 35 33 33 32 33 33 36 37 33 38 35 33 34 34 30 32 36 37 35 32 35 32 36 33 37 34 35 36 37 37 36 38 35 35 34 37 38 38 36 33 37 34 39 37 39 38 39 40 39 38 42 41 42 41 37 42 42 39 36 41 45 47 59 126 
24 28 26 25 31 33 25 28 29 31 29 31 32 32 32 35 34 34 32 35 32 36 34 35 34 34 36 33 34 31 30 36 37 38 37 34 36 36 35 32 34 37 35 35 35 35 37 34 35 32 36 37 35 36 36 36 35 36 34 36 34 38 34 38 37 42 43 42 43 38 41 42 42 38 40 46 42 47 62 139 
23 25 22 23 30 34 31 37 31 27 31 28 31 36 34 37 35 36 34 37 36 35 38 37 36 35 33 34 34 32 29 30 37 37 39 35 36 33 34 34 36 37 36 34 35 36 34 35 36 35 35 35 33 31 30 34 33 34 32 36 33 36 37 39 39 35 41 40 43 43 42 43 42 40 43 48 50 52 65 134 
26 28 26 25 32 30 30 33 28 31 31 29 33 30 35 38 39 38 36 38 37 42 40 38 37 38 33 31 33 34 29 29 35 36 37 39 36 37 36 34 34 37 35 35 36 31 34 35 34 35 36 35 33 31 33 32 33 37 32 33 35 36 40 37 38 39 41 42 43 42 44 50 62 71 79 98 108 105 95 150 
25 30 26 27 34 33 34 30 32 29 30 33 35 36 36 38 41 40 40 35 41 42 43 42 41 34 36 32 33 29 27 29 37 40 39 37 37 37 37 38 37 36 37 38 36 38 36 38 38 35 36 36 36 33 34 34 34 37 36 36 36 36 37 38 38 40 42 43 46 47 52 87 132 169 199 220 223 208 179 174 
30 28 24 28 32 34 32 30 29 33 30 32 35 36 38 37 42 39 40 39 41 44 42 41 43 39 39 40 38 39 36 32 31 38 39 36 38 38 39 34 36 38 37 38 38 37 36 34 38 35 37 37 38 33 33 35 38 39 38 34 38 37 37 37 41 40 47 46 44 52 79 120 151 202 204 200 188 183 183 188 
28 27 25 21 31 34 33 30 29 35 30 33 33 39 34 36 39 38 38 39 42 43 42 43 44 42 46 45 44 43 41 34 33 41 39 39 37 42 36 35 36 38 37 36 38 38 37 35 36 35 37 35 35 33 32 38 38 38 35 35 36 38 37 39 40 43 44 46 55 79 104 119 133 146 149 157 162 171 185 206 
29 30 28 28 31 33 34 32 35 33 34 33 39 38 40 40 42 38 43 45 42 41 45 41 45 47 51 50 46 44 40 34 33 40 41 42 41 41 37 37 38 35 39 40 39 36 37 36 37 36 36 35 37 34 35 38 40 37 36 34 36 40 36 41 43 41 47 48 71 104 117 132 138 146 153 168 182 200 222 241 
25 29 28 29 31 32 33 30 34 34 33 35 39 38 37 37 41 40 42 44 42 44 43 44 43 50 46 49 47 45 39 34 34 42 39 42 40 41 38 38 37 37 35 39 40 38 39 35 39 37 36 36 37 37 33 39 36 40 36 38 40 38 38 42 42 37 43 46 67 109 133 151 161 160 173 186 203 216 236 246 
29 35 29 30 32 33 32 34 39 37 36 37 44 40 42 44 42 40 44 43 45 46 49 48 45 49 53 48 47 47 43 38 35 40 46 42 41 42 42 40 40 40 39 40 39 38 37 39 39 36 36 38 41 37 41 39 40 37 38 41 41 36 43 45 45 43 47 48 69 109 136 158 162 171 179 190 200 216 238 247 
33 29 30 28 31 36 33 31 35 38 38 37 43 43 41 47 41 44 42 45 46 45 48 50 46 52 52 52 51 46 48 36 36 40 42 41 39 40 41 40 41 43 41 42 38 41 40 39 38 40 37 38 41 42 45 47 38 40 41 42 40 42 40 45 42 40 48 45 61 101 132 156 162 169 176 183 203 217 236 243 
33 35 30 31 31 39 36 35 38 40 37 38 41 44 43 41 44 44 47 45 49 49 49 49 52 53 53 54 51 47 45 41 37 41 44 44 41 42 39 40 43 42 41 42 38 42 37 41 37 39 38 41 39 45 51 53 48 51 45 42 40 38 39 43 45 44 46 49 56 97 128 154 160 166 174 186 196 214 232 240 
33 33 34 34 37 42 38 35 42 38 38 40 44 43 43 46 49 44 45 49 53 54 53 53 52 55 56 56 49 50 48 42 40 45 47 45 46 42 44 43 43 42 42 45 41 43 39 42 43 40 38 43 43 45 56 76 84 65 50 44 43 44 42 43 44 44 45 46 53 94 123 148 159 164 172 180 195 212 229 231 
37 42 35 39 40 41 40 38 43 45 42 38 47 48 46 51 52 47 49 54 60 58 57 59 60 58 61 59 60 55 53 46 40 44 49 47 47 47 47 46 40 43 45 42 43 42 42 44 45 41 43 47 47 55 109 219 157 96 58 46 46 42 41 47 45 47 46 52 55 85 120 145 158 161 170 178 193 212 225 239 
41 44 37 39 42 47 43 41 45 44 45 44 50 54 52 55 57 51 55 61 63 60 63 64 64 66 65 64 60 61 53 46 44 44 52 49 51 48 46 44 48 48 45 45 46 43 43 43 45 46 45 43 49 55 125 247 161 92 57 49 51 43 43 44 44 46 46 54 51 81 113 143 154 155 170 176 185 194 223 234 
43 43 39 42 46 46 48 44 50 47 45 47 54 53 53 58 54 58 58 63 66 67 69 65 64 68 66 67 64 60 56 49 44 49 51 52 51 49 44 43 44 48 45 50 47 46 44 44 47 44 44 46 47 53 72 98 88 64 55 48 46 42 41 43 44 47 49 53 53 77 111 140 153 158 163 168 165 162 210 230 
53 50 43 45 49 51 50 48 54 52 51 51 51 54 57 59 63 60 63 68 72 71 75 73 75 74 77 75 69 62 59 51 44 49 54 51 49 45 44 44 47 48 47 52 48 47 47 48 46 45 45 49 50 48 56 56 58 55 50 45 48 47 45 45 46 49 53 53 56 69 106 135 154 156 167 166 162 178 220 226 
62 61 59 56 57 61 54 54 58 57 58 59 60 59 60 62 64 62 69 70 77 78 82 85 79 82 81 83 72 66 62 55 51 51 55 56 51 52 59 64 53 51 53 54 51 51 55 50 48 47 49 47 49 46 47 52 51 51 48 48 47 48 46 47 48 52 53 52 54 67 102 133 151 155 160 173 174 198 213 224 
89 83 82 67 67 61 63 60 60 63 59 63 61 60 60 65 67 66 75 73 77 81 85 85 84 90 94 84 72 68 62 55 53 55 58 58 56 59 89 128 64 55 59 57 55 53 54 52 50 48 50 52 47 47 49 48 48 51 47 50 48 48 47 47 54 51 54 54 55 58 105 136 147 156 164 170 176 196 215 214 


