P2
80 60
395
217 240 275 318 356 381 383 357 270 214 216 213 195 169 129 96 91 99 95 99 105 126 179 226 228 233 232 235 244 233 233 233 228 231 228 218 226 235 230 228 217 209 217 230 229 232 223 212 214 213 199 203 208 218 199 125 96 95 96 96 90 91 93 91 85 84 86 82 87 89 89 87 85 93 92 97 102 117 122 122 
237 261 311 362 379 389 390 371 299 224 222 231 220 199 177 137 107 110 128 162 175 212 251 254 240 246 246 251 258 256 252 245 234 225 214 220 223 219 225 230 232 236 242 239 239 238 240 230 225 232 228 208 205 215 203 147 107 95 97 94 92 90 93 87 88 87 85 84 85 85 88 88 90 90 93 95 105 119 120 120 
259 316 362 373 388 393 392 378 328 241 227 233 239 218 206 190 158 176 216 250 266 269 274 270 257 247 254 257 265 261 260 261 249 249 236 225 221 213 216 227 230 235 240 248 246 237 237 246 241 233 235 241 218 214 224 186 111 95 93 92 90 88 89 86 84 87 85 78 83 84 85 88 89 85 93 97 97 115 123 121 
278 325 371 381 388 395 391 388 341 243 229 233 233 230 222 229 244 240 247 264 270 277 271 262 252 256 259 269 273 279 275 279 270 264 250 243 229 219 215 224 228 232 243 249 256 249 253 249 253 253 243 247 252 228 223 213 114 92 91 90 87 90 83 88 85 83 83 81 81 82 84 87 85 85 89 92 99 101 116 122 
336 351 365 378 367 369 378 382 355 258 223 229 229 236 251 267 272 261 250 261 273 272 273 265 252 261 271 281 286 274 272 274 267 261 242 234 233 227 221 222 234 239 254 258 263 265 262 264 258 258 257 257 257 256 239 207 114 89 92 90 91 86 88 86 81 81 86 84 85 83 81 84 88 85 88 89 92 92 101 103 
354 350 344 326 311 306 310 334 349 254 222 225 234 247 269 280 269 249 248 269 281 283 280 275 266 261 261 269 281 275 271 278 270 271 251 245 235 227 218 220 230 241 257 262 267 270 271 268 267 269 260 258 258 260 244 198 111 88 88 89 85 84 87 82 84 83 86 85 82 86 84 81 85 87 89 92 96 88 93 95 
325 314 318 316 312 304 298 273 289 255 229 227 241 261 271 273 267 251 249 270 289 290 290 284 275 263 261 258 277 273 271 277 265 262 249 253 244 225 216 217 230 248 259 264 272 269 268 261 262 262 258 257 260 252 220 141 92 81 81 87 82 84 86 83 85 82 86 80 82 82 85 84 84 85 89 92 89 88 90 86 
295 313 320 317 314 311 298 273 257 250 246 246 257 274 278 278 271 252 252 273 287 293 289 276 287 272 254 250 253 254 266 271 260 253 245 252 248 238 227 223 226 241 249 257 266 266 263 258 259 257 262 257 249 211 141 100 86 77 81 85 84 83 84 81 85 84 83 81 81 83 77 80 84 85 89 85 88 86 86 81 
292 306 310 308 310 314 306 296 274 272 272 280 276 283 285 282 272 254 247 262 288 289 284 276 285 278 254 243 242 240 237 251 261 259 229 236 240 244 236 231 232 240 249 255 262 264 264 254 256 255 246 241 200 129 98 81 81 77 79 84 84 79 84 81 82 84 86 85 80 79 77 76 79 82 84 85 81 84 76 78 
283 299 303 297 304 308 307 305 305 306 303 299 287 290 289 288 281 260 246 254 276 288 270 268 275 279 263 241 243 246 231 230 242 247 235 223 229 241 246 236 231 239 245 255 261 258 256 251 242 241 224 184 120 93 82 76 80 80 79 82 82 81 81 81 77 82 86 84 82 79 72 73 76 79 82 82 86 82 79 86 
283 289 294 295 296 308 311 310 316 316 309 297 294 294 296 287 282 271 252 253 257 278 266 250 256 275 265 239 245 252 226 215 212 235 235 228 226 236 249 234 233 240 251 255 255 252 253 245 236 215 161 112 90 80 79 76 81 77 79 82 81 78 76 80 78 83 82 86 79 80 74 77 75 75 80 77 80 80 80 78 
273 286 293 286 299 310 311 310 307 312 306 293 290 298 299 296 288 276 264 249 247 259 263 246 235 255 270 247 248 245 240 215 210 215 233 228 219 213 226 230 232 245 250 252 251 244 245 237 206 152 101 90 85 79 83 80 78 77 77 80 77 77 77 79 81 84 82 83 79 81 76 78 78 74 77 75 76 76 78 79 
271 282 284 279 296 313 309 310 308 310 294 291 293 304 303 293 290 284 270 246 241 241 259 242 225 234 252 260 244 240 244 221 208 208 241 238 218 206 204 216 228 238 244 246 244 234 225 186 123 91 85 85 83 79 80 79 77 73 73 74 77 80 81 78 80 79 83 81 84 82 78 77 73 77 77 75 79 78 75 79 
264 277 286 275 297 311 311 311 308 308 306 297 298 305 307 293 288 287 282 252 233 237 244 250 236 224 230 242 251 239 241 229 203 212 224 243 239 208 203 212 227 236 237 237 234 219 167 108 86 77 73 82 79 80 81 77 73 70 63 72 78 81 83 79 79 81 83 77 81 76 74 73 72 73 74 77 72 75 73 71 
258 274 283 277 295 308 310 309 306 310 308 303 302 307 306 295 293 291 281 260 238 230 232 242 245 234 221 232 227 239 239 241 210 201 198 230 245 232 215 209 216 228 230 231 220 180 120 81 71 72 75 79 79 82 79 74 69 53 44 65 76 76 79 75 74 79 77 75 76 76 69 69 69 70 75 75 72 73 75 74 
259 278 292 286 296 314 313 311 310 316 311 303 302 308 306 298 293 287 279 275 250 230 230 234 244 253 246 228 230 230 230 235 223 206 195 213 237 245 229 213 215 223 232 215 192 164 110 85 73 78 76 79 82 82 79 76 70 58 43 62 77 76 80 76 74 73 76 73 72 70 63 58 60 67 71 71 72 73 70 70 
262 283 297 290 302 312 317 314 310 312 310 310 305 303 304 291 293 287 282 277 256 234 227 232 231 249 263 253 236 225 229 233 227 223 197 201 201 221 229 225 217 223 207 191 184 162 106 86 81 80 77 81 82 81 80 78 76 67 66 74 77 76 76 75 71 70 68 69 71 70 63 53 55 59 71 69 70 74 69 74 
258 281 298 293 302 320 322 321 316 313 308 305 301 301 296 288 285 285 280 279 267 250 232 225 220 237 257 268 263 250 234 229 217 234 214 205 193 208 218 231 214 198 195 191 183 143 98 88 85 87 80 86 83 84 82 80 77 73 73 76 81 77 77 74 62 52 54 65 65 67 67 64 59 62 74 74 70 70 68 70 
257 278 290 295 304 319 320 320 317 314 315 311 302 299 298 288 287 282 280 280 276 262 244 228 217 216 236 260 276 282 266 249 236 230 234 226 215 206 214 225 200 193 191 198 181 114 94 87 87 89 84 87 86 84 81 80 79 77 82 81 81 79 78 71 61 46 49 64 68 69 63 69 65 67 69 68 71 64 70 73 
254 281 289 298 308 319 316 318 310 312 313 313 305 293 289 289 282 282 277 276 276 264 246 235 211 212 214 238 259 281 281 280 260 253 237 252 241 221 209 206 191 198 197 195 177 100 89 86 88 90 89 85 88 80 77 79 77 78 79 81 83 80 78 71 70 59 58 64 69 68 62 66 64 64 67 72 71 71 74 78 
258 274 289 294 302 316 312 312 311 309 308 311 300 294 286 279 280 279 272 271 274 266 259 241 224 213 207 215 235 257 272 281 275 278 263 246 236 218 209 202 208 204 202 199 187 107 90 86 89 89 88 86 85 75 75 76 81 80 78 79 83 81 74 73 73 72 67 68 66 69 68 64 62 62 68 73 75 75 77 78 
257 274 282 288 301 304 306 309 309 303 306 304 293 292 288 275 275 271 268 268 269 265 264 247 230 218 208 207 219 230 249 263 271 277 259 233 217 209 217 220 222 212 197 202 200 115 97 88 84 88 86 86 88 81 81 79 79 79 78 79 84 81 79 78 75 71 70 71 70 67 64 57 61 62 72 73 75 79 79 92 
253 264 283 282 294 295 298 304 302 301 300 297 296 286 283 277 271 272 261 264 262 264 265 253 237 224 206 202 205 213 228 234 244 265 239 225 153 167 229 239 229 214 200 194 200 123 93 88 89 86 84 84 82 78 77 78 77 78 76 80 75 77 76 73 72 70 73 70 69 60 53 54 60 65 74 72 76 77 76 78 
250 259 276 279 290 288 289 298 298 295 293 299 293 286 283 280 273 270 268 267 262 262 259 253 238 227 211 202 207 199 218 243 252 248 222 202 116 114 238 243 232 215 202 194 199 136 96 88 83 85 80 84 82 80 78 82 79 76 80 79 76 80 79 73 74 70 71 69 60 54 56 61 67 68 72 75 74 74 73 70 
242 256 267 272 286 290 292 294 293 292 293 293 288 286 286 287 285 272 267 269 267 262 263 251 237 228 215 204 203 205 231 248 251 236 228 203 164 227 247 242 231 220 206 194 195 151 100 85 79 82 81 83 79 80 78 78 79 79 78 77 78 75 79 74 70 69 68 62 60 59 61 64 70 68 74 73 73 73 69 69 
238 253 264 267 283 291 288 290 290 285 280 287 286 287 285 284 282 279 274 269 272 266 266 262 244 242 227 214 208 210 232 247 244 245 238 247 221 231 241 227 220 217 204 191 188 159 100 82 81 82 80 81 82 83 80 79 81 77 78 80 81 79 76 72 67 66 66 64 68 65 65 67 69 73 79 72 70 70 71 67 
233 246 254 267 281 291 293 294 295 281 282 283 283 283 285 284 285 287 282 276 278 279 276 275 260 257 240 224 214 210 222 240 238 249 251 267 249 207 193 192 194 200 182 173 177 163 110 85 82 83 80 81 82 81 81 84 81 80 78 79 79 81 76 73 69 68 68 71 71 69 65 68 70 70 71 63 61 68 68 77 
230 235 250 259 279 287 291 290 284 277 279 284 284 285 285 282 287 285 286 282 286 287 283 278 274 270 254 231 219 216 217 229 231 255 263 268 249 189 169 159 152 143 154 162 186 168 122 85 79 82 79 80 80 81 80 81 79 78 80 81 76 78 76 68 63 65 69 67 69 71 62 64 66 66 58 61 64 68 69 69 
227 239 251 260 275 283 288 289 287 282 283 287 284 286 286 285 283 289 286 284 286 288 284 277 269 274 261 240 227 216 219 232 232 255 259 262 251 209 164 151 150 147 177 190 197 174 134 88 85 88 82 81 79 81 79 77 82 83 81 82 78 73 73 65 67 68 73 75 75 71 67 64 64 54 57 59 69 73 68 70 
227 234 243 251 272 283 284 284 286 287 287 287 286 287 284 279 283 285 283 286 292 288 287 279 267 265 254 239 235 229 236 235 227 251 252 248 241 223 175 159 154 196 204 205 209 190 140 90 84 82 78 83 80 77 78 79 80 79 75 76 74 70 70 70 70 71 73 70 74 69 64 62 55 50 57 73 73 74 73 74 
227 233 243 247 270 276 282 283 289 286 290 286 283 280 279 278 276 276 277 283 285 289 286 281 262 256 246 238 242 244 247 245 235 246 244 241 239 237 219 174 206 237 226 215 213 190 121 91 83 83 81 83 79 79 79 77 77 76 74 72 72 72 74 71 71 71 73 71 67 61 59 63 55 52 68 72 73 74 74 74 
233 236 240 249 264 274 280 287 288 290 288 290 286 283 281 274 277 275 277 279 285 280 280 270 253 250 235 237 242 242 244 238 223 236 235 237 240 244 256 234 211 216 213 227 221 181 113 85 84 88 82 85 82 77 80 77 76 75 74 70 72 73 76 69 69 71 75 69 60 61 57 63 60 71 74 75 72 75 73 71 
234 235 241 247 261 266 277 281 288 288 290 291 287 283 280 275 276 280 277 281 280 268 257 253 239 232 230 231 237 229 222 215 211 222 229 229 234 236 239 238 214 192 181 195 224 165 105 83 82 87 81 81 82 79 79 77 77 69 70 64 68 73 72 68 71 71 69 61 62 60 64 65 70 74 75 75 78 75 74 71 
228 232 242 248 259 270 280 282 284 291 292 290 288 278 281 276 277 281 280 281 271 261 245 239 226 225 229 220 220 213 200 197 194 206 216 222 220 221 229 216 201 187 173 181 208 144 94 91 83 84 81 81 80 79 78 77 75 71 69 70 69 74 71 72 72 70 65 63 61 64 69 74 70 74 80 78 75 72 70 70 
236 237 240 246 264 270 277 281 287 285 287 286 286 284 282 278 279 283 280 277 270 254 247 237 226 226 220 214 209 196 186 186 187 200 208 211 213 209 212 204 190 181 173 169 183 122 92 86 84 86 79 79 78 79 76 80 76 71 72 78 74 73 73 73 62 63 65 60 65 72 72 73 76 72 79 77 72 70 67 65 
247 243 241 242 260 270 276 276 281 284 282 287 280 282 281 280 277 278 278 277 268 256 248 244 234 232 228 217 215 196 186 189 183 195 203 206 211 208 199 193 181 178 169 165 147 101 89 87 86 86 81 83 79 79 78 81 80 74 73 77 76 72 67 62 63 59 59 66 73 73 71 75 76 74 76 76 74 68 62 65 
260 252 249 242 252 260 272 273 278 278 283 279 277 277 281 275 276 276 272 272 269 261 260 252 242 242 234 232 220 208 197 196 195 202 201 208 207 198 193 186 181 175 169 159 113 88 90 87 86 83 84 80 81 79 79 82 77 74 75 76 72 68 65 60 61 63 70 74 73 75 76 76 78 74 72 74 69 62 61 61 
260 263 257 241 246 256 265 270 275 272 276 273 273 270 274 273 272 269 265 264 263 264 265 256 246 244 237 232 224 219 211 206 204 206 200 205 200 191 188 183 181 175 169 153 102 87 91 87 85 84 80 84 81 81 77 81 78 74 75 76 67 64 63 60 67 69 78 74 73 71 74 75 71 71 71 69 67 65 58 60 
258 260 265 247 244 251 255 268 266 269 271 269 268 262 268 259 262 258 257 259 261 258 260 252 250 242 228 227 224 215 207 206 202 205 200 195 189 184 183 185 182 175 165 152 104 86 89 86 83 85 83 84 85 78 81 78 76 76 76 76 65 65 66 66 72 74 74 76 72 74 71 72 67 66 68 65 69 63 56 52 
245 255 261 259 258 254 253 254 266 264 268 267 264 258 262 256 249 247 242 250 248 252 251 255 241 236 232 224 220 216 211 208 199 201 191 191 192 185 185 181 178 167 164 149 102 87 89 84 82 87 79 81 83 82 81 77 73 72 76 69 67 66 72 74 71 76 77 72 74 70 69 62 65 64 66 67 67 63 46 37 
225 239 253 257 263 263 254 253 260 265 267 267 263 260 261 256 252 247 234 236 234 235 236 238 229 237 229 227 225 218 213 207 191 200 191 195 198 200 191 184 176 166 165 139 99 86 87 85 83 82 79 77 81 78 84 76 78 72 67 64 61 68 73 74 72 71 77 71 67 70 64 62 67 66 66 60 64 51 18 8 
182 218 239 245 263 261 264 258 258 258 264 260 262 259 259 256 255 255 244 236 233 225 222 227 220 224 221 224 221 206 199 200 193 197 195 199 206 196 188 179 172 169 163 120 93 84 85 85 83 84 77 80 78 77 74 76 71 63 63 68 67 73 77 78 74 72 76 73 69 65 65 62 69 64 61 63 57 34 7 0 
108 161 204 224 245 254 258 261 259 250 259 260 260 256 258 251 262 259 250 244 233 225 225 224 217 222 225 217 210 197 196 198 196 204 203 203 207 184 183 170 166 162 145 106 92 82 87 83 81 83 76 76 78 72 73 71 62 62 68 68 73 73 76 78 76 69 71 70 65 67 65 61 62 60 62 61 55 30 1 3 
88 98 143 190 218 231 247 250 260 248 247 253 256 253 255 251 250 247 243 245 237 235 232 230 224 226 218 213 205 199 201 202 200 203 202 203 188 176 173 161 155 137 104 91 88 86 87 85 83 86 77 79 77 76 73 62 64 67 72 73 74 79 78 76 77 70 68 70 64 65 62 61 64 60 63 59 60 38 18 9 
81 79 90 109 158 200 215 229 244 235 246 242 247 250 249 249 247 244 242 239 241 233 233 229 222 223 218 213 203 200 197 203 200 202 194 191 179 161 146 126 106 93 86 87 88 85 83 83 84 82 78 80 83 75 69 66 69 71 73 74 76 74 76 71 74 69 70 66 65 65 64 62 59 67 63 59 65 51 33 23 
80 81 87 85 100 126 165 197 211 212 223 229 235 243 243 242 243 236 234 234 232 228 225 219 216 215 213 207 203 200 200 208 205 199 180 163 138 115 102 93 91 85 84 91 88 90 88 85 88 84 82 84 83 78 75 70 76 71 77 79 77 74 75 71 73 72 68 70 65 64 64 61 61 62 66 66 65 59 55 53 
82 82 78 79 85 94 104 123 160 174 193 203 212 217 228 228 231 229 222 221 219 220 217 213 206 210 206 204 201 195 193 190 174 149 123 109 97 94 87 87 87 84 84 89 90 89 87 83 82 84 83 83 84 79 79 76 73 75 78 77 78 76 73 68 68 68 70 67 67 67 64 65 62 63 65 67 64 64 60 56 
81 80 79 80 85 85 85 86 100 105 118 146 161 169 189 200 209 208 203 205 207 205 201 201 193 196 191 190 181 167 144 123 107 105 97 90 91 83 88 87 85 81 85 86 88 83 86 81 81 82 80 81 83 78 79 77 73 75 74 76 75 74 72 67 67 62 66 62 61 62 62 67 64 65 62 63 65 60 59 63 
77 78 82 81 83 87 87 85 85 79 82 93 97 103 119 123 133 139 143 148 145 135 133 137 122 122 123 116 108 107 94 98 90 92 89 83 87 87 88 87 84 82 84 88 84 83 85 82 84 82 82 81 85 80 73 74 75 75 73 75 73 74 74 63 63 54 54 39 36 43 55 59 65 65 59 60 57 57 55 56 
81 81 80 76 82 84 84 87 85 74 82 82 83 84 85 87 90 94 94 96 94 92 94 94 83 92 88 86 87 90 89 90 86 91 85 84 86 82 85 86 82 84 84 91 86 86 86 85 84 83 82 85 81 82 74 73 71 73 71 74 71 74 69 65 60 38 24 13 17 25 35 45 58 64 66 61 61 59 55 58 
84 79 78 77 82 83 81 81 83 72 77 81 80 79 81 79 85 83 83 84 82 83 84 86 78 80 84 80 84 89 86 89 86 91 84 83 88 86 83 84 86 85 82 87 86 88 84 85 80 84 81 87 82 85 85 81 77 78 77 72 69 70 67 66 50 26 18 7 14 23 24 39 53 63 63 60 64 59 55 57 
82 84 78 78 78 87 80 79 81 77 78 76 82 80 79 81 86 86 86 85 85 80 87 84 84 82 83 84 85 86 87 89 88 86 83 84 86 87 85 87 87 85 85 87 90 88 88 87 84 84 87 87 87 86 87 83 79 77 81 76 71 74 69 64 56 36 26 17 23 26 30 38 53 65 68 65 70 59 58 55 
82 84 80 79 80 86 83 79 82 75 77 80 80 80 79 80 83 85 83 84 84 80 83 83 80 84 84 83 90 87 87 90 82 86 82 83 83 81 86 87 85 86 85 88 88 83 90 88 89 84 82 82 86 83 81 86 83 75 77 80 77 70 72 65 58 49 36 25 27 30 37 50 57 66 65 68 69 62 62 63 
88 81 82 78 81 86 82 81 83 76 79 78 80 80 77 79 83 84 80 86 83 85 84 84 82 83 83 84 87 86 85 87 83 88 80 81 85 84 85 83 85 87 87 87 86 84 88 87 85 85 84 83 84 80 83 86 84 80 75 81 81 75 73 68 65 61 51 39 40 44 49 56 69 67 67 66 65 59 60 63 
79 82 84 82 84 83 86 84 84 73 79 78 81 79 79 81 83 86 81 86 83 85 84 82 82 87 85 85 89 81 84 88 85 88 81 85 82 84 85 86 86 87 84 88 91 89 88 86 86 85 82 83 82 83 83 85 84 81 78 83 78 83 83 72 70 65 62 65 62 66 64 66 66 67 68 68 67 60 62 59 
81 80 85 83 84 83 83 85 82 77 83 84 85 81 82 79 84 81 82 82 81 84 85 82 79 86 86 85 90 86 85 88 84 88 84 85 84 85 82 87 87 84 82 90 92 91 93 90 84 85 85 80 81 86 86 87 87 87 83 84 78 83 85 74 67 66 67 65 67 67 66 70 67 65 69 69 67 59 60 65 
84 80 84 80 85 85 83 80 82 76 83 84 85 81 80 82 86 84 83 86 85 86 83 83 85 87 83 83 88 88 85 89 85 91 83 87 86 86 83 88 86 83 85 89 93 92 92 89 85 81 82 80 85 81 85 83 85 87 86 87 86 84 85 80 72 68 70 64 66 64 63 65 67 70 68 71 69 67 62 60 
84 82 84 76 83 85 81 78 82 76 78 80 85 80 81 82 83 85 85 86 86 84 88 86 85 83 85 85 90 83 86 87 83 91 82 84 85 85 85 88 85 83 83 90 95 91 91 86 89 84 80 78 81 78 83 81 84 85 84 86 86 88 88 83 76 72 70 69 66 62 61 68 68 69 71 69 68 66 61 62 
88 85 85 79 81 89 85 82 82 80 82 81 82 81 84 82 87 85 82 85 85 82 85 82 85 83 84 84 87 85 81 86 83 89 80 85 84 84 86 87 88 85 89 93 95 93 88 86 85 84 82 70 71 75 76 79 85 84 85 87 88 88 89 89 81 76 74 70 66 66 69 69 69 64 69 69 70 66 60 67 
84 85 80 81 86 84 87 82 86 79 81 78 80 82 81 79 85 84 84 81 81 80 86 84 83 84 88 85 84 83 84 83 85 88 81 84 81 88 88 85 88 89 92 95 95 87 85 84 82 80 72 57 46 49 65 77 77 87 84 85 89 87 87 87 84 71 71 65 65 64 61 61 65 65 62 66 63 63 63 59 


