P2
80 60
32
14 11 12 12 15 11 13 11 18 17 16 13 12 18 21 18 19 17 19 20 25 23 22 22 25 24 22 23 24 20 23 22 21 24 26 23 27 22 22 22 26 24 24 24 25 24 24 22 20 21 23 21 22 23 20 21 22 20 20 17 17 17 18 15 15 12 15 13 14 12 14 13 12 9 9 13 13 11 8 8 
15 11 12 12 16 14 13 12 14 14 17 16 14 16 17 21 21 20 22 23 21 21 26 20 22 21 22 26 26 20 23 25 24 22 24 23 21 24 22 23 22 23 25 22 23 23 24 22 23 20 21 21 24 23 22 22 21 20 19 21 19 16 14 15 14 13 15 15 15 13 9 13 13 12 15 13 18 15 10 7 
12 11 12 13 13 18 13 13 14 16 14 14 13 17 18 18 21 19 24 22 22 23 27 24 22 22 25 26 25 24 24 27 25 26 27 23 24 23 24 24 22 24 24 23 24 25 24 20 22 20 23 23 23 22 22 19 21 21 21 20 17 18 16 16 17 18 12 14 16 17 12 13 11 11 11 10 10 11 13 10 
17 17 13 14 15 13 14 16 16 16 16 13 15 18 19 19 20 21 26 22 20 23 27 22 19 25 21 25 25 24 26 25 26 24 27 24 23 25 26 23 20 23 24 22 21 24 25 23 20 23 23 24 22 25 23 21 23 26 22 19 19 14 17 17 14 18 17 14 17 14 13 17 14 13 16 12 12 15 15 9 
16 13 12 19 17 18 14 15 14 16 13 13 15 16 20 20 19 19 22 23 22 25 21 22 24 23 21 25 23 24 24 26 26 25 24 23 24 23 24 23 24 23 24 24 23 23 25 22 23 23 22 22 23 25 22 23 24 26 21 18 16 17 18 14 13 16 17 19 16 16 12 13 15 17 11 13 14 17 12 9 
16 17 14 15 17 14 16 14 15 16 18 16 15 21 20 22 19 20 21 24 24 22 26 22 24 20 25 24 26 22 22 23 24 25 26 24 24 24 22 23 24 27 22 24 22 23 25 21 24 21 22 23 24 22 23 24 22 25 18 16 18 19 16 17 17 17 18 15 16 17 14 17 22 14 17 18 18 16 18 17 
19 15 13 16 14 15 13 13 18 16 16 14 14 20 20 22 20 19 23 24 24 23 24 25 24 26 25 29 24 24 26 24 22 26 27 25 29 24 24 23 22 27 22 23 22 25 28 24 25 22 22 22 23 28 23 24 21 23 19 19 20 22 17 16 17 20 19 19 16 15 19 17 17 18 14 14 12 15 12 15 
16 16 12 18 16 14 12 14 17 16 16 15 17 19 21 22 19 24 24 24 22 25 24 23 23 26 25 27 24 25 27 25 26 26 26 25 26 26 22 25 22 24 24 26 22 24 26 25 22 23 23 20 24 25 24 22 20 19 21 20 18 18 17 16 17 19 15 18 16 17 19 16 18 16 14 18 21 19 16 14 
17 13 17 19 17 15 18 16 19 16 14 18 18 18 22 25 22 23 25 26 25 25 24 26 23 25 25 28 26 25 29 26 27 26 27 27 27 25 25 23 22 23 26 26 23 26 26 27 24 23 27 24 23 24 26 22 21 22 22 22 22 21 19 17 15 16 20 17 19 17 18 17 19 17 18 19 21 18 11 11 
16 14 19 18 20 17 17 18 15 17 18 19 22 21 24 21 20 26 24 23 26 25 24 25 24 26 24 24 24 26 26 25 27 27 32 26 26 25 26 29 25 23 25 26 27 25 25 25 29 24 22 26 27 25 24 25 24 23 23 22 20 21 18 19 20 20 19 18 20 20 20 18 17 17 15 19 20 19 13 14 
16 17 17 15 18 18 20 16 19 19 17 19 22 19 21 25 25 22 27 23 21 25 23 25 24 27 23 26 23 27 24 25 25 26 27 26 27 26 25 27 27 20 26 25 25 25 24 27 24 24 24 23 25 21 24 25 21 21 23 22 19 23 19 21 16 18 20 20 18 19 19 20 17 17 19 14 18 18 13 16 
18 18 15 18 17 21 19 17 21 21 23 18 20 23 23 24 22 27 24 23 27 27 25 26 24 26 26 25 26 26 26 24 24 26 27 25 26 26 23 25 24 22 26 24 27 27 25 25 23 25 25 24 24 22 23 22 22 25 26 24 20 21 22 17 20 21 20 17 16 20 19 19 17 17 17 17 15 23 17 15 
17 16 18 19 18 21 21 17 21 21 22 21 17 21 23 25 22 24 24 24 24 27 24 23 25 25 25 25 25 27 24 29 25 30 24 28 26 27 26 25 24 24 25 26 23 23 25 26 25 24 26 23 23 22 22 24 22 23 24 24 15 22 18 19 18 19 19 18 17 17 16 16 20 16 16 16 16 18 16 19 
21 19 17 21 20 16 17 19 21 21 22 21 19 23 24 23 24 26 24 24 21 23 26 28 26 23 27 26 28 27 26 28 25 24 25 25 25 27 28 26 25 24 26 24 23 27 27 25 24 24 23 23 24 22 25 25 22 23 24 19 22 23 21 18 21 22 18 18 17 19 22 19 19 18 16 15 17 20 17 17 
18 20 18 18 18 18 17 20 22 21 23 21 21 21 25 26 21 23 23 23 25 26 27 27 24 26 24 26 26 24 30 28 25 29 28 24 27 27 27 26 25 24 26 25 26 28 26 27 27 22 24 23 24 24 25 27 21 24 23 23 20 21 18 17 18 18 20 20 17 19 21 20 17 19 16 15 19 21 17 20 
19 21 18 17 19 18 18 18 23 21 22 18 21 20 23 23 24 22 21 7 12 27 28 25 27 25 24 27 25 26 26 27 29 30 29 26 27 26 26 28 27 25 27 25 25 25 24 28 24 26 23 25 24 25 24 25 24 23 23 22 22 22 19 19 20 17 18 20 19 19 17 15 18 17 20 15 20 19 15 17 
19 21 22 22 20 21 21 24 22 23 24 19 20 20 25 27 27 23 17 0 12 23 27 26 28 25 25 27 26 24 28 28 29 27 27 27 29 25 27 27 24 25 27 24 26 27 26 26 21 26 26 27 25 24 28 25 23 22 23 21 23 21 20 20 19 21 21 21 20 22 19 21 22 18 17 19 18 20 17 20 
22 21 20 25 25 22 22 22 25 25 24 21 24 22 26 28 28 25 18 1 9 24 30 28 27 27 28 26 28 26 28 28 31 28 28 30 28 27 30 26 28 27 27 26 26 27 27 25 23 24 27 27 25 25 26 25 24 27 25 24 20 22 21 20 20 21 21 23 19 20 20 19 21 18 18 17 18 18 17 23 
23 22 18 25 25 20 24 23 27 27 24 23 23 27 26 28 25 25 26 26 26 25 29 28 31 24 28 25 27 26 27 25 27 27 29 25 26 27 24 27 28 27 25 29 26 30 25 23 25 25 26 25 27 26 24 23 26 23 22 22 22 22 21 21 21 21 20 22 20 21 18 21 20 18 18 20 15 18 18 18 
21 21 22 25 23 22 23 23 28 27 26 25 25 25 24 26 24 29 31 26 30 27 29 28 28 27 26 28 27 26 27 29 29 28 27 29 24 28 27 27 27 26 28 27 31 27 28 27 25 26 26 26 27 28 25 28 24 23 24 22 22 21 19 21 22 20 20 21 20 19 21 20 23 16 21 21 19 17 17 16 
22 25 18 24 25 25 23 25 25 27 26 23 23 26 27 24 27 24 29 28 27 30 31 27 29 25 26 26 25 25 25 27 25 29 26 26 27 25 28 28 24 26 23 26 25 26 24 25 24 27 27 24 29 26 25 24 22 23 23 21 20 21 22 19 18 22 21 21 19 20 20 20 18 18 17 17 21 17 18 18 
19 24 18 19 26 26 20 25 24 28 26 23 22 26 26 25 25 23 26 27 28 27 29 26 28 26 26 27 24 26 27 26 27 28 29 27 26 25 24 26 25 27 27 23 20 26 23 26 25 25 28 25 26 27 27 25 23 21 22 22 23 20 21 18 19 19 23 21 20 21 21 15 16 19 17 17 16 19 19 20 
22 19 17 21 22 22 25 25 24 28 25 26 24 24 27 26 26 24 26 29 28 30 30 27 25 25 25 27 28 26 24 23 29 25 29 28 27 25 26 25 26 26 27 25 23 23 25 24 25 26 25 25 25 23 24 25 18 22 21 21 19 20 20 19 22 22 23 21 18 19 15 16 18 17 15 17 15 18 16 16 
22 22 23 24 22 21 23 26 25 27 27 26 24 25 25 25 25 30 28 29 28 30 30 30 25 23 24 28 28 24 25 24 27 27 27 24 26 25 26 29 25 27 24 24 22 25 23 26 25 25 28 24 25 21 21 25 23 24 21 22 22 23 20 23 18 22 22 19 16 18 22 18 14 18 17 18 16 17 16 17 
23 19 23 24 23 23 24 22 26 28 26 28 22 26 28 27 26 26 27 29 29 28 32 29 27 26 26 30 26 28 27 27 28 26 28 28 29 28 26 28 23 27 23 27 25 23 29 24 23 28 25 26 25 23 23 26 25 21 24 22 23 25 21 22 25 23 21 19 16 21 19 21 18 21 19 18 17 19 15 14 
20 18 23 23 23 23 23 24 25 27 29 26 27 27 27 32 24 29 28 27 31 28 30 29 27 25 25 27 26 27 29 29 29 27 30 28 29 29 26 29 28 29 28 28 27 28 29 24 29 30 27 27 28 26 23 28 21 23 25 22 21 22 21 22 22 24 24 17 20 17 21 17 19 21 22 17 19 17 15 19 
20 21 25 22 22 22 26 25 28 27 27 25 25 28 25 30 25 26 29 27 27 28 29 27 28 25 26 30 26 27 29 26 29 27 29 27 28 28 29 28 27 30 26 30 25 26 28 26 25 29 27 27 25 23 26 21 17 19 25 21 22 19 20 22 25 25 21 18 20 21 17 18 20 17 19 20 21 20 16 16 
19 23 25 25 25 23 23 26 28 26 26 26 25 24 26 27 27 27 30 28 24 29 26 29 26 26 24 26 26 26 22 29 28 27 28 28 30 27 28 30 30 29 27 28 25 28 27 28 26 26 27 25 22 22 23 24 20 21 23 20 20 24 23 19 21 19 20 21 21 19 19 16 17 19 17 24 19 20 15 20 
21 25 25 21 27 22 22 25 26 22 23 23 26 24 29 28 27 26 28 27 27 25 26 29 27 27 27 27 27 26 27 27 28 26 28 26 29 29 30 26 29 27 28 29 26 25 26 23 25 27 26 24 25 26 21 22 20 21 21 21 20 20 23 21 21 19 20 21 17 22 18 20 19 17 18 17 15 21 15 17 
22 20 24 23 25 19 22 24 26 26 24 24 25 25 27 28 27 26 26 26 25 27 27 26 29 24 26 28 26 25 27 28 27 29 30 30 30 27 26 29 27 26 25 27 24 24 27 24 23 28 27 23 25 22 24 24 19 22 24 18 19 20 20 22 18 19 21 18 17 17 17 17 20 15 17 16 19 21 18 20 
19 18 21 22 22 22 22 24 24 25 28 24 24 26 24 27 27 27 28 28 26 31 28 26 26 25 25 22 27 28 27 28 25 28 30 27 29 29 27 27 26 30 27 28 25 27 27 21 24 22 29 24 26 25 23 25 20 22 22 19 23 20 21 20 21 22 21 20 17 18 16 18 16 16 17 18 16 15 16 14 
20 23 20 26 21 23 20 25 25 22 26 23 27 26 26 28 28 26 28 28 28 30 28 29 28 28 27 30 29 27 28 28 25 29 30 28 30 28 29 25 30 27 29 30 27 26 29 27 25 23 27 25 29 28 24 27 23 22 22 22 22 20 23 20 22 22 22 18 18 22 21 18 19 17 18 16 14 19 17 17 
23 23 19 24 23 23 23 20 25 24 26 25 24 23 26 25 27 26 27 29 26 28 29 27 25 27 26 30 29 23 27 29 27 29 30 27 30 29 27 30 31 27 25 31 27 26 27 26 24 24 25 24 27 28 23 22 19 21 22 21 22 21 21 21 20 19 18 19 15 21 22 20 18 18 19 16 17 17 18 21 
21 18 24 26 24 23 25 22 26 26 25 26 25 26 26 28 28 25 27 28 30 29 27 28 27 26 26 28 29 26 28 26 27 29 28 29 25 30 28 29 26 28 29 27 27 24 29 26 24 21 24 24 24 22 24 23 22 23 23 20 24 22 23 21 24 19 21 22 18 17 16 18 17 19 17 17 19 18 16 16 
21 23 23 24 25 23 24 19 27 27 25 26 27 25 27 27 26 25 29 27 29 32 28 29 28 24 24 28 26 24 26 27 28 29 30 27 27 27 26 29 27 26 27 25 27 28 28 27 27 26 25 22 27 23 25 23 22 22 23 22 21 22 22 22 24 21 21 19 18 19 18 16 14 16 15 18 17 20 16 25 
25 23 22 23 23 20 23 25 28 27 25 26 27 25 26 27 28 27 30 28 32 27 30 27 28 26 26 28 24 26 27 27 27 29 29 27 26 28 30 26 26 28 28 27 26 28 30 27 28 27 29 26 26 26 25 23 25 22 22 21 22 22 24 23 20 21 22 16 18 19 20 17 15 17 16 17 18 20 17 19 
28 22 20 21 20 20 20 25 24 26 26 25 23 24 25 28 28 26 28 29 28 27 26 28 28 27 26 29 28 25 25 27 25 26 28 27 28 27 27 28 25 29 26 27 26 27 30 27 23 26 27 24 27 26 26 22 20 22 24 21 22 20 20 21 18 20 20 18 18 18 18 19 18 18 18 16 17 19 17 15 
21 22 20 19 23 23 20 25 25 25 24 24 24 25 24 28 29 28 31 27 28 30 29 28 28 25 27 31 27 27 25 26 31 27 28 27 27 26 29 28 29 29 28 24 29 29 28 28 25 26 27 23 26 26 26 23 26 24 22 22 23 23 21 21 20 20 19 19 19 20 19 20 17 16 19 14 14 17 17 19 
22 22 19 20 21 22 21 25 21 23 20 24 23 23 23 26 23 29 29 27 29 25 29 25 26 27 28 30 27 29 27 28 28 27 30 28 27 26 27 29 28 29 30 28 28 26 28 26 24 24 27 23 25 26 28 28 22 25 23 21 18 20 21 16 21 16 19 20 15 21 15 16 16 16 20 14 17 20 13 17 
21 20 17 22 22 20 20 20 23 23 23 23 20 25 23 27 25 26 29 25 26 28 27 30 25 24 26 29 26 28 30 28 24 26 30 27 27 26 28 25 29 29 29 28 25 27 27 26 26 23 28 24 24 23 23 25 21 25 23 21 19 16 21 20 18 19 16 16 17 19 13 17 16 18 17 17 17 17 12 12 
20 21 19 19 21 20 19 18 21 21 21 20 22 26 25 23 27 25 28 30 25 30 26 28 25 27 27 30 28 26 29 30 29 30 27 27 29 26 26 27 28 27 30 28 28 25 32 27 24 24 26 24 23 22 24 23 25 24 23 21 19 20 18 20 19 18 18 15 17 20 18 19 16 12 14 17 13 18 13 15 
21 17 18 20 18 21 21 18 22 21 20 19 22 23 25 26 26 25 30 29 28 26 29 26 25 26 26 30 29 28 26 29 28 26 27 26 29 29 28 28 29 30 31 25 26 28 28 24 26 25 24 24 24 22 23 23 20 21 19 20 21 18 20 22 21 19 18 18 16 17 15 17 17 11 17 16 16 15 14 13 
19 18 20 20 19 20 20 17 17 17 22 20 19 22 25 24 26 28 26 27 27 30 28 29 26 28 27 30 28 25 25 29 25 26 28 27 31 27 27 31 27 27 27 27 24 26 27 26 24 22 24 22 24 23 19 23 16 19 17 18 18 18 17 18 15 17 17 19 19 18 17 16 17 14 16 14 17 15 15 14 
18 17 19 20 20 20 22 18 20 19 22 19 21 24 22 25 28 26 29 26 26 27 28 24 30 27 27 28 29 29 29 27 24 25 26 24 26 26 25 28 27 28 26 27 27 26 28 23 24 24 23 24 25 20 17 20 17 20 18 18 16 17 16 16 16 16 16 17 17 17 18 19 15 14 12 12 16 11 9 18 
19 15 19 19 19 17 23 18 19 17 20 18 18 20 24 24 25 26 28 22 25 26 23 26 28 25 24 24 28 26 25 27 23 24 25 25 23 26 22 24 22 22 24 27 26 26 25 22 22 23 22 20 18 18 17 18 16 16 16 15 16 14 14 18 15 15 15 15 15 14 14 17 11 12 9 10 16 11 10 9 
18 17 16 22 18 17 16 18 19 20 20 17 21 24 23 27 24 24 24 24 23 26 26 27 23 30 25 28 27 24 26 24 26 25 26 26 23 25 21 27 23 25 25 27 24 25 23 22 25 21 24 24 19 18 17 22 15 17 18 17 18 17 12 18 17 16 15 16 17 12 15 15 15 12 11 13 14 16 11 11 
19 19 18 16 15 15 14 17 20 17 20 18 20 22 22 23 22 25 25 23 25 24 25 27 24 26 25 25 28 26 27 26 23 24 27 24 22 25 20 28 24 25 26 26 22 22 25 25 24 24 25 23 18 19 19 21 12 16 13 16 17 16 13 19 16 13 17 18 15 15 12 14 13 16 9 11 12 13 9 14 
17 17 20 17 18 15 18 15 14 19 20 17 18 19 22 24 21 22 30 28 23 24 25 25 22 24 22 24 26 24 26 22 25 28 23 26 25 24 22 26 27 23 24 25 25 24 24 26 22 19 24 18 20 21 16 18 15 15 16 19 17 16 16 13 14 15 15 14 13 12 12 16 16 13 10 10 15 12 12 11 
13 16 13 13 14 16 15 13 16 17 17 15 17 21 22 24 21 24 27 25 26 24 25 25 23 20 21 24 22 23 24 23 22 24 23 22 25 24 23 23 22 28 24 25 25 23 24 22 22 22 22 18 21 16 17 17 20 17 18 17 14 15 13 16 16 14 16 16 11 11 12 13 13 10 10 13 12 12 7 7 
17 15 13 15 19 14 14 16 15 18 15 19 19 17 19 18 22 26 24 24 19 22 21 23 23 23 22 27 20 23 24 23 23 22 24 25 24 22 24 24 23 23 23 23 22 22 23 24 24 22 23 20 18 19 16 19 18 19 18 17 16 18 13 14 15 13 13 14 14 14 12 13 7 7 12 10 10 10 10 9 
17 16 13 18 16 17 16 14 17 19 17 16 16 18 21 21 19 23 21 24 19 23 22 21 23 21 24 25 24 23 21 23 23 23 22 25 25 25 27 24 25 23 25 23 23 23 21 22 17 21 19 21 20 19 16 20 16 19 20 19 17 16 15 15 16 13 14 14 13 13 12 7 10 9 10 10 8 7 7 6 
15 14 11 15 16 13 16 18 17 18 18 15 17 20 19 20 18 22 24 24 22 21 20 23 22 21 20 25 22 24 23 23 25 22 22 23 23 24 25 22 23 23 25 22 23 22 23 25 21 20 20 21 23 21 19 19 18 17 14 13 15 17 14 15 13 12 12 12 13 11 11 11 12 9 8 12 11 8 8 5 
14 11 13 13 18 14 14 14 17 17 16 17 16 17 20 23 20 22 23 22 19 24 22 19 24 19 20 23 22 23 25 22 23 22 24 22 23 25 28 22 24 22 24 24 21 19 22 21 21 22 20 19 21 22 21 23 18 18 18 18 16 17 17 16 14 12 15 11 12 14 9 11 12 8 8 10 10 12 5 6 
12 11 13 12 13 11 12 12 16 14 14 12 17 17 20 20 19 21 22 23 23 21 20 21 21 20 18 25 23 26 23 23 24 23 22 21 26 27 24 21 24 23 23 23 22 21 22 23 20 19 19 17 19 22 20 23 19 17 18 16 13 16 13 17 13 13 13 16 13 11 8 13 10 8 11 12 10 9 7 7 
15 14 13 14 19 18 14 16 16 17 16 16 17 18 21 19 19 22 20 21 20 21 24 22 22 23 21 21 21 24 21 24 23 26 27 22 20 22 23 22 23 22 28 24 19 20 20 23 21 22 20 18 19 20 17 15 18 18 18 17 16 18 16 18 14 13 12 14 13 13 10 10 11 9 9 6 9 11 7 10 
18 15 18 13 16 16 21 14 17 17 18 15 15 20 18 22 18 20 23 21 25 24 24 27 22 24 21 26 25 23 26 24 24 23 25 24 23 26 24 24 25 25 28 24 21 20 21 19 20 23 21 22 21 23 20 18 15 18 20 18 17 17 16 19 14 15 15 12 15 15 12 12 12 10 9 10 12 11 8 15 
16 14 17 21 18 15 22 16 18 19 17 19 16 19 22 20 21 22 23 21 25 24 25 25 21 26 24 23 22 23 27 23 24 24 23 22 23 25 25 28 25 28 27 24 25 20 24 23 26 22 25 22 25 27 27 19 18 20 17 17 17 19 17 16 16 18 13 12 16 13 12 16 12 10 10 13 10 9 10 13 
17 11 14 15 19 13 16 17 19 16 15 17 19 19 20 21 21 24 23 22 24 21 26 23 24 24 22 27 22 24 23 17 23 19 20 24 25 26 23 28 27 24 25 22 23 25 23 23 24 25 25 24 21 26 20 21 21 21 16 17 16 15 18 17 15 15 14 11 13 14 14 13 12 12 10 12 14 10 9 10 
20 14 17 15 19 13 14 20 19 16 18 17 17 21 22 20 19 23 25 21 22 25 24 25 23 25 23 28 23 20 21 20 17 20 24 22 25 26 23 27 24 23 23 22 26 24 24 21 25 22 25 22 25 24 22 21 22 22 16 19 16 16 19 17 14 14 16 12 13 13 10 14 13 13 13 13 15 11 8 7 
20 17 20 13 18 14 14 20 17 18 18 18 16 15 19 22 19 23 22 20 19 22 23 24 24 21 25 24 24 26 21 22 15 19 24 29 29 27 25 26 24 24 23 28 26 23 24 24 26 24 24 22 26 26 22 22 22 20 17 19 16 18 16 13 13 14 17 9 13 12 11 13 14 12 10 12 9 15 13 10 


