P2
80 60
249
22 27 31 40 76 99 84 42 52 91 90 51 47 41 34 35 32 28 29 28 24 25 25 22 21 23 26 26 30 36 32 29 28 27 28 26 26 27 26 26 25 25 27 25 28 29 28 23 16 16 16 13 18 18 20 15 18 21 18 22 21 22 25 26 24 19 17 20 24 26 25 22 23 20 20 18 24 25 18 15 
22 26 34 43 82 106 81 41 51 92 90 54 41 39 34 31 31 30 27 27 25 24 25 27 23 29 27 28 26 32 29 31 30 28 25 25 26 26 25 25 26 25 27 27 30 27 26 23 23 18 17 18 17 19 23 21 25 24 23 25 27 29 30 32 29 20 17 24 23 22 22 21 23 26 21 17 22 23 16 17 
20 25 35 42 85 104 72 39 57 94 85 47 38 35 34 32 29 32 26 25 25 26 25 25 24 25 26 28 29 31 29 28 26 25 26 25 24 26 26 26 25 26 27 26 24 30 27 27 24 22 21 24 26 26 26 30 28 27 30 29 28 30 29 28 27 19 18 18 23 24 23 19 24 27 23 16 23 24 16 18 
22 21 35 43 89 100 69 34 62 92 78 43 36 34 31 30 31 28 25 26 26 23 24 26 27 27 27 26 30 32 30 26 26 25 24 21 22 25 28 25 26 28 29 27 27 27 29 29 27 29 28 28 27 27 27 24 32 30 29 31 26 29 25 23 25 19 16 18 23 28 24 22 28 24 19 18 26 25 15 14 
22 28 37 47 94 103 64 39 67 91 74 39 33 33 27 30 28 25 24 25 27 27 29 26 27 27 26 29 33 31 30 29 25 25 23 23 24 26 23 24 25 24 28 26 24 28 30 29 29 28 26 25 30 26 26 25 30 29 27 28 25 27 23 25 24 19 17 16 25 27 25 22 25 23 24 19 21 17 11 9 
22 28 32 56 101 91 62 39 73 93 74 33 33 29 28 26 25 27 27 23 28 27 25 24 22 24 25 24 29 29 29 26 28 24 23 23 24 24 25 21 26 23 25 27 26 29 30 27 24 25 28 26 27 28 28 30 29 25 26 29 27 21 25 24 23 22 14 17 22 27 25 22 29 25 21 22 20 17 11 12 
20 29 38 56 100 91 54 36 76 92 67 33 31 28 29 24 26 28 24 26 26 22 24 24 24 26 24 28 31 30 27 28 26 24 23 25 26 20 24 21 24 24 26 23 25 24 24 26 24 26 25 23 26 28 29 23 25 25 24 23 26 26 27 26 26 22 17 17 22 25 24 21 24 23 24 21 20 12 12 15 
18 27 32 48 96 87 52 34 74 90 58 32 31 25 26 24 21 24 23 24 23 22 19 20 20 22 23 26 26 28 28 26 28 25 25 23 24 25 24 22 21 23 22 23 25 28 21 22 23 24 25 19 26 23 26 22 26 27 28 27 28 33 27 29 24 24 14 12 23 27 23 22 24 22 24 20 21 14 9 18 
12 25 29 44 100 88 49 36 78 91 60 27 24 26 23 24 24 25 27 23 23 19 20 21 23 24 26 27 28 29 26 27 24 24 22 25 28 27 25 22 25 23 24 24 26 27 29 26 26 23 22 21 20 23 26 26 27 29 31 32 30 30 29 28 29 27 15 13 26 25 26 26 26 24 21 21 19 17 11 16 
6 3 0 40 104 86 42 27 83 95 57 25 24 22 24 20 23 24 22 24 23 20 19 22 20 23 22 23 25 27 30 26 27 23 25 26 27 26 26 27 26 25 26 27 26 28 29 26 24 24 22 22 24 25 30 27 30 31 33 29 33 29 31 26 31 26 21 17 26 28 27 27 27 25 26 25 22 22 16 11 
9 6 5 50 104 85 35 26 96 103 49 14 17 13 11 17 19 19 20 22 21 20 20 22 20 23 21 23 24 28 25 23 23 23 22 24 23 25 24 22 23 25 22 27 24 26 25 20 24 22 24 24 28 30 28 29 32 30 31 31 30 27 28 29 27 30 20 16 20 26 27 24 26 26 26 22 18 21 15 21 
13 16 17 56 107 90 37 30 93 100 44 12 12 12 12 13 9 14 18 18 12 16 18 19 18 18 17 19 21 25 24 23 25 26 24 24 25 25 26 26 23 27 26 22 25 26 23 25 24 27 31 28 30 32 30 31 32 32 33 33 30 30 29 27 30 28 23 16 22 25 24 27 30 26 24 25 19 22 14 19 
14 16 17 54 102 83 34 33 91 97 40 9 10 13 10 8 14 9 7 8 6 6 7 7 7 13 13 11 8 13 15 20 20 20 18 22 20 21 24 22 28 23 22 24 21 22 24 26 27 28 25 25 27 29 28 29 29 29 27 28 31 25 26 26 25 26 23 16 18 24 26 24 25 25 24 24 20 19 12 10 
16 20 21 60 101 80 35 38 100 98 40 15 14 12 13 12 12 12 8 9 7 6 3 7 6 5 5 6 8 8 7 5 14 11 17 18 22 23 25 24 25 20 22 22 25 29 31 27 30 32 28 31 29 32 31 31 29 25 33 33 31 28 30 29 31 29 25 19 15 25 26 30 29 30 26 28 23 22 14 18 
15 18 21 70 99 72 33 37 100 92 35 17 16 14 17 20 14 13 9 12 9 9 8 5 5 7 6 7 9 8 9 8 7 8 20 22 25 25 23 20 23 25 25 29 28 28 28 33 34 30 30 30 33 33 32 31 31 32 30 32 31 28 31 30 33 30 26 21 21 30 30 26 29 29 29 27 27 20 15 15 
15 19 23 70 95 70 26 39 97 83 34 14 13 14 22 15 13 10 10 7 9 6 8 6 7 6 9 4 7 10 5 7 13 17 25 24 25 21 18 22 23 22 24 25 27 28 30 28 28 26 27 28 28 31 30 29 30 28 29 30 29 30 28 28 30 29 27 19 20 20 26 29 29 24 26 24 26 25 19 20 
16 19 24 73 94 69 31 42 99 84 32 14 18 17 15 16 14 14 12 13 12 11 12 10 8 7 8 8 13 14 18 21 26 23 24 24 23 21 26 24 25 23 26 27 29 28 30 28 31 27 28 27 33 31 31 32 30 30 28 32 30 30 31 30 31 28 30 23 18 24 31 25 26 29 22 28 27 25 19 16 
16 18 26 78 97 66 27 46 101 82 30 14 19 18 16 16 17 9 12 14 12 14 14 12 7 11 9 10 14 19 24 24 27 26 24 23 26 25 26 26 25 24 26 26 30 29 31 31 31 32 28 30 30 30 32 31 31 30 36 31 34 30 34 29 31 31 30 23 21 22 27 29 30 28 30 25 29 29 20 21 
18 16 22 81 92 65 24 48 97 82 31 14 19 14 19 15 17 13 15 13 12 13 12 10 10 9 12 8 14 20 25 24 24 21 25 22 24 25 25 24 25 27 29 26 27 27 29 26 27 27 31 29 31 31 30 30 28 27 31 30 33 31 32 30 31 31 30 27 16 17 23 28 29 28 25 28 28 26 23 21 
19 20 29 85 95 63 26 48 99 81 28 18 19 19 17 17 17 16 18 11 13 15 13 12 11 10 10 8 13 21 28 24 24 23 21 23 24 24 24 24 24 27 29 23 26 28 29 29 27 28 30 29 31 30 34 28 31 31 30 32 33 31 30 29 30 30 33 29 21 20 23 27 29 29 28 26 32 29 21 16 
18 22 28 91 94 63 30 56 102 81 26 20 18 22 19 19 21 17 15 14 15 17 13 14 13 13 10 13 15 18 24 24 24 21 22 26 23 23 24 24 24 27 27 29 27 27 29 27 31 28 31 30 35 29 31 28 32 34 29 30 33 33 32 32 34 31 31 33 21 17 23 26 31 32 29 27 29 28 23 21 
25 26 40 103 98 60 28 60 103 77 30 19 17 19 19 13 19 18 16 15 15 17 12 13 11 10 12 12 13 15 24 23 24 22 22 22 22 24 26 24 24 26 25 25 27 27 30 28 28 29 32 28 29 29 36 29 32 30 29 32 32 32 32 33 32 30 30 34 30 24 15 26 30 30 27 26 30 30 23 27 
75 74 77 123 105 56 31 64 102 75 24 20 19 18 15 16 15 17 16 15 18 18 15 12 13 15 12 13 11 13 21 22 24 23 23 21 25 24 24 24 23 24 24 26 28 28 30 29 28 29 31 28 30 30 31 30 31 29 31 32 32 32 31 34 30 31 29 33 30 20 17 21 27 31 28 27 32 32 23 24 
101 105 109 108 87 45 29 66 99 72 27 20 23 17 18 17 17 17 16 15 16 15 15 13 12 15 14 13 12 13 20 21 23 23 22 21 25 23 22 25 26 26 26 27 26 29 29 26 27 30 28 27 31 33 32 27 30 29 28 35 30 33 33 35 31 30 29 32 30 29 18 16 21 26 28 28 30 27 23 22 
99 97 97 90 73 35 35 74 104 75 27 21 23 25 20 22 22 18 20 18 16 17 17 15 15 11 14 15 15 18 21 28 25 24 22 24 26 26 27 25 28 30 28 27 30 28 32 31 29 31 31 29 31 33 38 31 32 34 33 33 34 34 35 35 32 34 30 32 33 28 29 19 18 24 25 29 36 31 25 22 
41 45 51 51 35 30 35 77 107 75 27 21 23 23 23 24 25 22 21 19 19 17 17 20 17 17 17 18 18 18 24 25 27 24 29 27 28 32 29 28 29 32 30 29 31 29 29 29 32 29 33 32 35 32 35 32 34 36 31 34 33 35 33 38 34 33 32 32 34 33 31 27 21 19 19 21 24 28 20 19 
30 28 26 24 24 24 31 81 108 76 27 23 23 21 21 23 21 20 20 19 20 17 17 15 17 13 14 15 15 15 22 24 26 24 26 26 29 28 30 30 30 28 28 28 27 29 28 30 30 27 29 30 31 32 32 29 32 33 32 33 32 33 32 32 34 33 33 33 34 32 32 30 30 25 19 21 24 23 19 17 
75 68 57 48 42 44 46 97 118 77 29 23 20 22 23 26 25 25 21 18 19 21 20 18 16 20 16 16 16 15 25 27 32 26 26 28 27 26 29 32 32 29 29 30 30 30 31 28 33 29 31 33 31 34 34 32 31 30 34 35 32 34 35 34 33 36 34 30 34 35 35 32 35 33 32 31 29 22 18 21 
124 116 107 99 96 95 99 112 106 72 26 23 23 22 19 21 25 22 23 19 19 20 16 16 16 17 18 16 17 17 23 27 28 29 26 31 28 29 31 31 28 29 30 31 30 28 32 28 31 29 32 30 30 31 32 30 33 31 31 32 33 34 29 35 30 35 34 33 30 38 32 31 34 33 31 31 33 28 22 19 
103 104 102 99 101 100 102 100 93 56 26 18 21 19 22 23 24 20 25 20 22 21 18 17 15 18 19 17 18 17 24 25 27 27 27 29 29 29 31 30 30 32 29 30 26 29 32 31 30 29 30 31 30 32 34 33 30 30 32 32 33 30 33 36 32 36 34 35 34 34 34 32 33 33 29 29 33 24 20 23 
41 45 48 49 54 63 63 63 57 29 21 19 27 26 23 24 24 24 27 19 20 25 19 18 18 20 19 19 19 20 24 27 28 24 27 29 27 29 32 31 31 30 32 30 31 31 31 30 32 31 32 32 34 33 31 32 31 33 29 34 33 34 34 36 33 33 33 35 35 34 32 31 32 32 31 28 31 30 23 19 
25 27 26 25 23 28 31 29 28 22 20 22 26 27 24 25 24 23 25 20 18 22 23 22 22 18 17 23 21 21 23 28 29 29 29 30 28 28 30 33 28 31 32 27 32 33 32 29 30 29 30 32 33 32 33 34 34 31 32 35 35 35 34 33 35 35 32 34 34 31 33 37 34 31 31 28 31 30 26 24 
22 23 22 18 22 25 24 23 25 22 19 21 28 27 25 26 25 26 22 21 23 24 23 23 20 19 20 24 20 20 24 30 30 30 27 27 29 29 32 28 30 32 34 30 29 30 29 33 32 33 32 32 33 31 33 36 30 31 32 30 36 34 40 37 34 36 37 37 33 34 33 33 36 35 31 29 34 34 24 27 
23 23 21 25 25 24 22 21 20 23 20 24 26 27 29 26 26 25 24 26 24 24 24 24 26 23 22 24 23 22 23 29 30 30 28 28 29 27 31 31 34 33 34 31 31 31 32 32 29 34 35 32 34 35 31 30 33 33 35 34 33 35 37 36 36 33 36 36 39 36 31 35 37 36 33 31 32 33 27 26 
26 24 23 20 26 24 21 23 24 23 19 24 25 25 27 25 28 26 26 25 28 27 29 25 26 22 25 25 25 24 26 29 31 30 30 27 31 29 30 32 30 31 32 29 29 33 32 33 34 32 34 35 35 31 33 33 31 32 36 36 35 39 39 40 37 36 37 35 35 36 35 34 39 35 32 31 33 34 25 29 
27 26 21 17 20 23 26 23 24 22 21 24 27 28 28 28 27 28 27 24 26 28 27 24 26 22 25 25 26 23 28 29 34 28 29 29 29 31 30 29 30 31 31 31 30 32 34 31 36 33 34 33 33 35 34 32 31 33 35 36 33 36 36 37 35 34 34 36 32 35 35 30 37 38 37 29 31 35 28 32 
24 28 23 20 23 21 26 22 22 24 23 24 28 28 26 30 28 31 27 28 26 27 26 25 26 25 28 29 25 24 24 31 32 30 33 29 31 29 33 32 32 29 34 31 31 35 35 35 34 32 36 32 32 38 35 32 33 34 34 35 34 35 36 36 35 31 34 35 35 39 36 32 35 38 35 31 33 33 30 40 
25 26 26 22 22 21 26 25 24 22 22 23 29 27 28 29 27 28 26 26 27 27 22 27 26 27 30 30 27 24 25 31 33 31 31 31 31 31 32 30 33 30 31 31 32 33 35 36 33 34 34 33 33 34 34 33 33 33 35 34 37 35 37 36 36 35 34 33 37 38 33 33 35 35 33 31 35 31 36 40 
25 26 24 24 21 25 26 28 25 21 23 26 29 29 30 30 30 29 26 29 28 28 27 28 28 28 30 27 27 26 23 29 31 32 31 30 34 30 32 32 31 35 32 32 32 34 33 37 36 34 36 32 33 34 34 32 34 34 33 33 34 34 36 33 37 35 35 35 35 38 33 38 35 37 34 31 35 36 42 51 
25 27 25 25 28 27 29 26 24 21 22 25 27 31 29 29 31 31 30 27 30 30 32 32 30 29 29 30 28 27 26 32 37 34 32 30 33 32 33 34 35 32 35 33 30 36 38 36 32 33 34 33 32 36 36 34 37 37 36 35 35 34 37 35 37 34 36 35 36 38 36 40 35 38 36 36 44 50 50 62 
26 25 25 27 27 27 30 30 24 24 19 25 29 31 32 31 32 30 32 30 31 32 33 33 31 30 28 30 31 31 28 31 38 34 32 30 35 34 33 32 32 33 34 33 32 36 36 36 34 32 33 32 36 36 38 34 35 35 36 35 34 37 37 34 34 35 37 38 37 39 35 35 36 35 36 38 51 49 56 95 
25 27 25 28 28 29 28 25 22 25 22 29 29 34 32 31 32 34 32 30 35 33 36 35 33 35 33 31 32 34 30 32 37 33 33 33 34 32 34 32 36 34 34 34 34 34 36 35 33 31 32 35 36 38 39 33 36 34 36 38 38 36 37 39 36 37 37 36 41 39 37 36 38 39 38 38 45 46 63 139 
26 25 28 22 30 25 25 28 26 23 26 26 31 33 32 35 36 34 33 35 32 33 34 35 34 33 35 32 32 33 28 38 36 36 34 34 37 32 34 35 36 33 35 32 33 32 36 30 34 31 34 33 33 35 36 34 33 37 36 35 34 36 37 35 36 39 37 37 37 38 36 37 41 39 38 39 42 46 66 154 
25 23 26 24 29 31 28 33 29 25 24 28 31 33 35 35 33 33 33 33 36 35 34 33 35 34 33 32 30 30 29 31 38 38 35 33 37 35 35 34 36 35 35 32 32 35 32 34 34 31 33 32 32 31 32 29 31 33 32 34 35 34 37 40 38 34 41 35 39 39 39 40 39 39 39 41 47 46 58 143 
25 27 24 26 29 30 28 30 29 25 24 27 34 34 35 38 39 38 38 38 35 38 34 37 37 37 31 28 34 33 26 30 35 35 35 37 36 35 35 36 37 34 36 31 34 32 34 31 34 29 35 32 34 28 32 31 33 37 31 35 36 33 37 37 37 36 39 38 40 41 40 41 42 46 46 55 64 66 65 145 
28 28 26 24 30 31 29 30 28 23 24 27 34 36 33 37 43 38 40 36 41 40 42 41 39 33 34 31 35 29 24 27 34 38 37 38 34 37 36 40 35 34 35 34 32 34 33 34 35 31 34 33 32 32 36 30 32 34 33 36 33 35 37 36 39 37 40 39 42 42 42 52 76 92 103 141 163 143 110 157 
29 30 29 24 30 30 32 29 25 26 27 29 35 35 35 37 41 39 38 36 39 42 40 41 39 38 37 37 37 39 33 31 32 37 35 36 37 39 37 37 37 37 36 35 35 35 34 32 35 33 34 33 34 31 34 35 36 35 33 35 36 36 38 33 41 38 38 42 40 44 54 100 134 149 163 172 171 162 157 183 
27 25 28 23 29 36 33 33 28 29 24 29 35 35 34 40 39 39 38 40 41 41 39 42 42 42 45 41 42 41 37 33 33 38 38 38 36 37 39 37 36 38 37 33 34 34 36 36 33 33 32 33 35 32 35 36 33 35 32 35 37 35 37 37 39 39 38 40 50 72 92 116 127 138 142 149 161 171 179 206 
28 26 27 27 29 33 33 31 30 27 29 33 37 37 39 39 42 39 40 40 39 40 43 41 42 46 49 48 44 43 41 35 32 39 37 37 39 36 41 38 37 36 38 37 35 34 33 32 34 31 32 31 34 33 34 35 35 34 33 34 38 40 39 38 38 37 41 43 66 101 115 126 134 139 150 162 182 199 216 239 
27 26 24 27 28 28 32 31 32 29 28 32 36 34 36 34 41 38 41 43 40 43 42 40 40 46 49 48 46 44 38 31 35 40 37 40 38 38 37 39 37 35 34 35 37 35 34 33 33 32 33 32 35 33 34 32 33 37 34 35 39 37 39 37 40 38 37 41 66 106 132 142 152 162 168 185 197 212 227 243 
27 29 31 30 28 30 32 31 34 29 32 32 39 39 40 39 40 40 42 41 43 44 46 45 44 46 53 46 46 45 44 36 34 40 39 39 42 42 42 38 38 39 39 38 35 37 33 36 36 31 35 33 38 36 39 37 35 36 37 37 38 40 40 39 39 38 40 41 65 107 135 151 160 168 176 186 199 214 230 241 
31 30 32 27 29 31 31 35 35 33 34 33 42 41 41 41 42 42 42 44 46 44 48 49 47 51 52 49 48 48 45 35 37 37 39 40 41 38 40 40 41 41 38 39 36 37 38 34 34 36 34 33 37 40 42 44 37 37 38 41 36 41 40 41 38 37 43 41 58 98 128 147 160 167 172 182 198 217 230 242 
33 33 33 31 31 33 35 33 36 33 32 34 38 46 40 39 45 45 45 44 50 48 49 48 54 52 52 53 48 46 44 39 37 39 43 41 42 39 40 40 42 41 40 39 38 39 36 38 36 34 34 38 35 42 51 51 43 50 41 42 38 40 38 40 41 39 41 43 51 95 125 149 157 165 168 183 198 214 226 236 
32 35 38 32 35 36 36 32 37 34 34 37 42 40 42 46 48 44 43 47 50 52 51 49 51 53 54 55 50 50 47 39 39 40 45 42 43 42 41 43 42 40 40 42 37 42 36 35 35 37 35 39 38 45 55 75 82 62 47 42 41 45 40 43 41 42 41 40 51 92 119 145 156 163 168 177 195 211 226 237 
36 41 38 37 41 40 39 36 38 39 40 39 44 49 46 47 49 51 50 52 53 56 55 56 57 59 60 59 57 56 52 45 43 42 44 43 48 45 47 43 41 42 41 43 39 42 39 38 40 38 38 40 45 55 105 216 156 95 57 44 40 41 41 46 42 45 42 44 50 83 115 141 153 161 166 175 192 211 221 235 
44 43 40 40 41 45 43 40 39 39 38 42 47 52 51 54 50 54 52 57 60 58 60 63 62 62 63 61 57 59 52 47 44 42 49 48 47 47 48 43 45 44 42 43 43 43 43 42 39 42 42 41 47 58 127 249 159 89 58 45 44 40 44 42 46 43 43 48 46 77 113 139 151 158 162 172 185 198 221 235 
46 41 40 43 41 43 44 41 45 41 41 45 48 52 49 51 53 56 55 60 65 65 66 63 65 67 64 65 62 58 53 48 44 47 48 48 50 47 44 43 43 46 43 42 44 47 43 41 44 41 42 47 47 53 74 96 85 66 50 44 43 40 42 43 41 42 46 46 49 71 109 132 149 154 162 165 164 162 208 228 
50 49 46 45 44 47 49 47 45 43 44 47 53 56 54 56 61 60 64 69 68 69 72 69 72 72 75 71 67 60 59 50 44 47 49 48 50 42 44 44 45 46 45 47 47 48 43 45 45 41 40 46 47 45 52 52 56 56 53 44 44 44 46 44 45 43 45 44 50 64 102 130 148 153 161 162 164 177 216 222 
63 58 57 55 55 58 55 53 54 50 51 56 55 60 57 59 61 60 67 73 74 78 80 80 78 79 80 80 71 66 58 54 50 48 51 54 51 48 56 66 53 47 51 47 51 49 49 48 45 42 45 41 45 48 47 50 46 47 46 44 46 45 44 45 44 47 45 45 50 59 103 128 147 152 157 170 178 195 212 217 
91 82 76 65 65 59 61 59 54 54 53 58 57 58 58 63 64 64 72 71 77 81 81 81 82 89 91 82 72 66 60 57 52 52 54 57 56 55 88 126 63 53 59 51 52 52 51 49 46 43 49 47 46 51 51 46 43 46 45 45 46 45 45 47 48 48 44 47 50 54 101 130 145 158 154 165 176 196 213 214 


