P2
80 60
257
24 22 22 25 37 44 86 90 69 42 57 90 84 44 39 38 32 30 25 28 27 28 24 23 24 27 23 27 30 32 34 33 29 28 27 29 25 25 24 25 25 25 26 24 25 26 27 25 25 20 15 18 16 15 18 19 18 19 17 19 19 20 19 21 21 24 21 24 26 28 24 25 22 20 20 20 21 20 19 17 
24 22 21 26 39 50 94 92 65 37 64 94 78 43 35 37 30 32 28 27 26 26 22 26 23 22 23 27 29 30 33 32 27 30 27 25 25 24 26 27 24 25 25 26 26 24 28 29 27 22 19 21 15 15 16 18 20 17 18 18 20 16 19 24 26 25 24 26 25 25 24 23 25 17 18 23 19 19 16 15 
23 24 20 25 44 50 93 90 60 41 68 92 70 40 37 33 31 29 28 30 27 27 24 23 25 28 29 28 28 30 32 33 28 27 27 28 26 27 28 26 26 26 26 26 26 30 28 27 28 24 20 19 19 18 18 19 22 20 20 22 23 25 27 27 28 22 25 24 24 27 21 25 20 20 21 24 22 22 14 8 
20 21 23 30 42 55 95 92 51 41 75 97 68 38 32 31 29 29 26 27 26 23 25 22 26 29 28 28 32 32 31 35 27 24 25 23 26 23 26 25 25 24 25 24 27 26 26 26 30 25 23 26 26 26 24 27 25 29 29 27 28 27 29 30 29 26 23 24 25 22 22 23 24 23 26 22 20 20 14 13 
18 24 20 31 40 62 106 90 49 41 78 91 60 34 31 33 25 26 27 25 23 20 22 25 26 29 24 27 30 28 33 29 26 26 25 25 26 23 22 21 26 25 24 22 25 27 27 27 28 29 27 27 25 28 28 29 30 31 29 29 27 27 29 29 25 28 26 23 26 25 20 24 23 21 21 21 22 18 15 15 
19 21 22 35 40 70 100 79 46 43 86 89 57 34 28 28 28 24 25 25 25 23 27 27 25 24 28 31 28 29 33 28 24 28 27 27 27 25 21 25 23 22 22 26 26 27 26 28 30 29 29 28 31 29 28 28 29 28 27 28 27 29 22 30 23 24 22 23 25 22 24 25 22 25 21 20 25 25 16 12 
16 25 20 34 40 68 101 79 42 43 87 84 48 30 29 27 25 25 26 26 23 26 23 26 26 27 25 26 29 28 34 29 27 30 26 27 26 26 24 24 24 24 21 25 24 26 26 30 29 30 30 29 28 27 30 28 28 26 27 25 26 29 25 28 24 27 25 27 29 28 23 29 23 24 24 22 27 22 15 10 
13 16 20 30 41 67 100 73 42 45 87 87 41 27 21 25 25 23 23 23 22 21 24 21 23 20 24 24 28 30 31 27 27 25 24 25 22 22 23 24 23 23 24 23 25 25 24 24 24 27 28 27 26 28 26 22 27 26 27 22 25 24 29 28 27 24 24 24 23 27 24 24 23 22 24 22 22 23 17 11 
6 12 14 29 28 67 100 69 37 45 89 81 40 24 21 22 24 23 22 23 24 21 22 21 22 22 23 22 27 26 29 26 27 25 27 25 24 23 25 24 25 27 22 24 23 26 26 26 27 29 23 25 24 25 25 27 24 25 22 26 25 30 28 29 30 30 26 24 27 26 26 27 26 21 25 20 24 26 21 17 
8 6 1 0 15 75 99 65 25 46 97 80 37 24 21 21 20 19 17 22 23 20 23 21 25 21 24 22 26 28 29 26 26 26 24 23 27 22 24 25 26 25 25 24 26 28 28 28 28 31 23 25 24 25 25 26 30 25 26 28 27 31 29 30 30 28 27 25 24 27 26 25 26 23 21 25 26 22 18 10 
14 15 8 4 17 78 101 56 20 47 104 83 23 14 12 17 15 18 16 17 20 20 20 19 19 23 20 24 20 25 26 28 21 26 22 22 23 25 24 24 25 25 22 24 23 27 28 24 23 26 24 24 24 26 23 25 27 30 26 29 29 29 27 29 29 26 28 23 28 28 26 24 25 18 22 21 27 25 16 16 
19 18 16 17 25 88 102 52 24 54 98 75 17 12 7 10 8 12 14 15 15 17 16 18 20 20 21 20 22 24 27 26 24 24 23 26 23 23 23 26 22 26 20 26 27 25 25 24 26 23 24 26 28 29 27 27 31 29 27 35 27 31 28 28 28 27 25 24 25 26 29 27 27 22 26 24 26 26 18 16 
17 17 14 19 18 83 95 53 23 59 102 71 15 11 8 10 10 6 8 7 4 4 8 7 13 13 14 16 19 22 23 23 20 22 21 24 21 22 23 25 22 24 22 25 24 25 25 20 24 25 26 27 27 27 29 28 30 27 29 28 28 30 27 28 27 26 28 25 24 23 27 29 26 21 20 25 28 20 20 18 
12 15 15 19 24 88 88 44 26 64 99 65 18 10 10 13 8 10 7 6 8 4 7 6 5 6 8 11 10 9 12 10 13 19 20 21 22 23 25 25 26 27 21 24 24 23 25 27 28 27 26 29 26 28 30 29 29 25 25 31 31 28 28 28 24 29 25 26 24 30 25 26 27 22 23 24 29 26 18 13 
16 16 17 19 39 91 85 43 24 74 96 58 17 13 12 16 11 9 11 7 6 4 6 4 5 8 8 8 10 8 9 6 5 5 2 13 17 22 22 23 25 24 25 25 27 26 26 27 27 27 30 31 28 34 30 28 31 28 28 30 31 32 27 29 30 29 30 29 26 27 25 30 26 24 25 27 29 26 18 17 
11 14 14 16 38 89 87 33 25 76 95 54 17 12 8 15 12 9 10 8 8 9 6 8 6 7 9 5 6 11 8 9 6 2 6 16 18 19 20 20 23 22 21 25 25 25 26 26 30 28 30 31 29 30 30 27 30 28 31 30 29 31 28 28 33 29 26 26 21 26 26 28 26 24 26 27 25 26 18 17 
12 16 17 18 49 92 82 31 22 81 89 49 16 12 11 16 12 11 10 9 9 8 9 7 5 6 7 3 8 9 9 6 7 13 19 21 24 23 22 19 21 24 21 23 24 25 27 25 29 28 29 27 28 28 29 29 32 28 26 30 29 29 30 28 25 27 28 29 23 28 27 28 29 24 27 25 24 25 18 17 
15 14 15 20 49 97 79 34 28 86 88 48 16 17 14 15 14 11 13 10 12 9 9 13 8 8 10 9 9 12 11 17 23 24 22 23 25 22 23 24 22 26 25 24 25 27 29 29 26 28 29 31 32 33 28 27 31 30 30 28 31 29 28 29 25 31 29 29 23 28 27 29 29 21 28 26 28 26 19 19 
14 16 18 19 52 94 77 31 27 85 84 42 16 11 13 16 12 14 15 12 12 11 10 9 7 8 6 8 10 11 19 24 21 24 24 21 22 22 22 23 26 22 25 25 26 26 25 27 25 29 27 29 29 28 28 30 31 29 27 28 31 29 29 32 26 32 27 29 24 29 23 26 25 25 27 24 28 27 21 18 
17 15 18 23 60 95 78 27 30 85 86 41 15 13 14 15 16 13 15 12 10 10 11 12 10 10 10 7 9 15 20 26 23 23 20 18 24 22 21 25 22 22 23 23 25 24 26 26 26 29 30 29 29 29 27 30 30 29 29 33 30 30 27 29 30 28 28 26 25 25 24 28 27 24 28 23 28 24 20 18 
23 22 20 25 71 101 75 29 33 94 84 39 16 14 13 15 16 13 14 15 12 12 11 10 11 15 10 13 11 15 19 22 24 22 21 21 21 21 22 22 26 23 24 25 26 26 25 27 27 27 30 29 30 28 28 28 32 30 32 31 31 31 29 30 27 28 28 30 27 26 26 28 30 21 25 24 27 25 19 19 
44 38 34 40 88 109 78 27 36 94 84 38 13 16 17 17 15 16 14 13 12 12 12 10 9 9 12 8 12 15 14 23 23 21 20 23 19 20 20 22 25 22 25 24 24 25 26 26 30 27 28 31 30 29 32 27 29 28 30 29 30 30 29 31 32 29 28 28 29 27 22 27 26 20 23 24 29 27 23 21 
103 102 91 95 111 107 65 24 45 96 83 38 16 16 12 17 14 15 15 14 11 11 13 12 11 14 11 12 13 12 13 18 23 22 21 19 22 21 22 21 26 24 27 23 23 26 26 27 26 28 29 32 30 29 30 30 32 28 28 30 31 31 33 29 29 32 28 27 27 27 23 26 27 21 24 27 30 26 20 22 
105 106 105 105 104 93 53 28 52 95 79 34 15 12 15 17 14 14 15 16 14 14 14 13 12 10 13 11 12 14 15 20 19 20 22 20 26 23 23 23 25 23 24 26 26 27 25 24 28 29 31 30 28 29 31 31 28 28 29 32 32 32 34 31 30 28 31 27 30 29 25 27 26 21 25 29 29 29 22 18 
60 63 74 85 84 69 35 27 55 100 85 33 17 15 14 19 15 17 14 14 15 15 15 15 13 11 11 12 13 14 16 19 24 21 22 22 26 21 25 24 27 27 27 25 26 29 28 29 27 33 30 32 32 31 29 29 29 30 30 31 34 33 32 30 32 33 30 28 29 29 28 26 26 23 26 23 28 27 20 21 
27 31 28 32 35 28 26 29 59 104 85 32 16 19 16 19 18 17 15 17 17 13 14 13 15 14 15 14 13 17 18 24 23 27 23 24 24 24 26 25 27 26 23 28 29 26 26 28 30 33 31 31 30 31 31 30 30 30 29 30 32 30 32 35 32 33 33 29 32 31 32 32 25 23 27 25 27 30 21 19 
46 42 33 32 28 25 29 31 69 113 81 32 15 17 17 16 18 17 16 18 13 16 15 16 15 17 13 11 15 15 16 23 24 24 25 22 25 25 27 29 26 29 28 27 26 25 26 27 29 30 29 32 30 34 30 30 28 34 29 31 32 32 30 34 31 31 31 31 30 31 30 29 28 24 25 26 29 25 18 20 
108 106 96 86 74 68 63 57 89 114 83 30 16 16 17 17 18 15 19 15 13 14 15 15 17 14 15 14 12 13 16 24 21 23 23 22 27 25 24 26 24 27 25 26 26 26 27 27 30 29 31 27 31 29 31 30 26 29 28 28 31 32 31 30 33 29 32 29 31 31 28 29 28 27 28 28 28 33 24 19 
104 111 108 106 104 98 96 92 103 105 76 23 18 18 16 23 18 17 18 17 16 16 15 13 17 15 17 16 15 17 16 23 26 23 26 25 26 25 27 27 27 29 26 26 28 27 27 31 28 29 28 34 30 30 30 29 29 30 30 28 32 32 30 30 29 32 33 33 30 31 33 31 34 23 33 30 28 30 24 22 
62 71 74 85 87 94 96 91 95 86 56 21 16 17 15 21 17 20 17 19 18 16 18 17 18 16 16 16 15 16 17 21 23 23 27 27 24 25 32 29 30 29 29 28 31 28 27 26 27 33 30 33 30 30 33 29 32 30 29 31 31 31 30 31 32 34 32 34 33 31 32 34 31 28 32 29 31 33 26 22 
23 27 28 32 32 36 42 42 49 41 26 20 16 18 19 21 18 18 18 18 18 19 17 19 19 19 17 18 18 16 19 22 27 25 23 26 24 26 25 27 26 29 29 25 26 24 28 27 29 30 29 32 29 29 29 31 33 30 28 30 31 34 31 32 30 33 32 30 33 31 32 30 34 29 29 27 30 33 28 26 
24 24 21 24 24 23 25 25 27 24 23 20 17 18 18 23 19 20 18 20 18 19 18 20 19 18 17 17 19 18 18 22 31 25 26 24 25 26 27 26 29 30 28 27 29 26 27 28 32 34 27 33 33 31 32 30 32 32 31 31 30 34 34 34 31 32 33 27 30 32 33 34 31 33 28 29 33 33 27 24 
23 21 21 20 26 22 25 24 26 22 21 21 13 18 23 22 21 20 21 21 18 21 19 20 23 22 21 18 21 16 17 19 25 27 24 26 24 26 28 27 29 30 28 26 26 27 28 27 32 31 31 33 32 27 31 33 29 30 30 32 32 32 32 33 32 34 32 31 32 31 30 33 33 31 30 31 32 35 28 31 
22 24 19 23 22 20 26 20 22 24 22 19 16 17 21 23 20 24 23 20 20 20 23 21 22 20 21 19 20 21 16 25 29 23 25 25 28 28 26 29 31 30 30 29 30 28 29 28 30 31 32 32 30 30 33 31 31 29 28 33 35 34 34 33 34 33 35 34 32 34 32 38 34 33 35 31 36 37 30 29 
20 26 18 20 23 22 21 24 23 22 24 20 17 18 23 23 22 22 21 22 20 20 23 22 21 22 22 20 21 18 20 24 24 23 27 29 31 24 26 28 29 28 27 30 27 31 29 28 31 33 30 31 30 33 30 30 32 33 29 33 35 34 36 33 34 32 35 35 33 36 31 37 32 34 34 32 34 34 31 28 
21 25 24 22 21 23 21 21 23 21 22 22 20 23 20 25 25 23 21 21 22 20 24 24 21 24 21 21 23 22 19 22 26 27 28 29 27 28 25 28 28 29 26 26 30 26 28 29 29 32 32 33 33 33 33 32 30 33 29 35 34 32 35 36 34 34 34 32 32 35 32 34 34 34 42 36 36 37 34 37 
23 26 26 24 25 20 25 22 27 25 22 20 21 22 22 24 24 24 22 24 22 22 22 23 25 22 25 23 24 24 22 26 30 31 27 28 29 30 27 28 31 32 29 26 29 33 32 32 31 32 34 33 33 32 33 32 32 32 32 35 35 36 33 36 33 31 32 36 31 35 35 33 35 34 37 33 37 39 35 40 
20 23 25 24 23 27 26 20 26 22 21 22 22 21 22 23 24 28 23 24 25 27 22 25 26 23 24 23 25 23 21 24 32 31 26 28 29 30 27 30 30 31 31 26 29 29 31 29 32 32 29 34 30 34 31 33 33 30 30 32 32 36 32 33 33 35 33 36 32 34 33 34 35 32 37 35 39 38 38 43 
25 22 23 25 25 24 22 20 31 23 20 21 21 21 25 25 26 25 26 26 23 25 24 25 24 29 25 27 28 26 23 22 28 29 29 27 30 27 28 31 30 34 25 26 30 30 31 33 33 33 33 34 32 33 32 32 36 29 32 30 32 34 31 33 32 33 34 33 34 34 32 37 35 30 36 33 36 45 45 47 
25 24 23 26 27 22 24 19 30 24 22 24 20 20 23 26 26 26 29 25 27 27 25 27 26 27 26 27 27 25 29 24 31 29 28 29 29 31 29 27 31 28 29 30 29 30 32 31 32 34 31 30 32 33 33 35 31 30 31 31 33 34 33 33 32 31 36 35 36 34 33 36 33 31 33 38 54 54 45 41 
22 27 24 25 28 26 24 23 28 23 24 21 22 22 24 29 29 26 28 26 29 28 29 28 31 29 29 26 27 28 27 25 29 30 31 29 28 29 30 29 34 31 31 32 32 31 29 28 33 33 34 31 32 34 31 31 31 32 29 32 36 33 31 35 35 33 34 34 34 34 37 36 35 32 34 39 43 44 38 37 
21 21 23 26 26 24 27 23 27 26 24 22 22 22 24 27 28 29 28 28 30 28 27 29 31 30 29 29 30 28 25 24 31 29 28 31 30 29 31 31 34 32 30 32 33 34 31 28 31 31 30 35 30 34 32 32 33 30 31 30 32 32 32 34 33 34 34 35 38 39 37 36 35 35 35 37 43 39 38 31 
21 24 24 25 27 27 29 20 26 26 25 22 20 23 25 27 30 28 30 28 28 30 31 31 32 30 29 31 28 30 25 27 31 31 29 30 30 30 33 30 30 30 32 31 28 31 29 28 31 28 32 34 32 34 31 28 32 31 28 31 30 32 33 35 34 33 34 32 34 38 36 37 40 35 37 39 42 43 45 70 
22 21 23 24 24 24 28 29 30 25 19 24 23 24 24 29 28 32 29 31 30 31 30 33 30 32 30 30 31 28 29 27 30 33 31 30 36 31 31 31 32 31 29 30 29 29 29 29 30 31 31 31 32 31 29 29 29 28 29 31 33 32 32 33 31 31 35 34 35 38 39 42 45 44 52 58 73 85 100 153 
23 25 21 25 26 27 30 27 29 27 23 26 24 28 27 32 31 32 34 33 35 33 34 34 36 33 29 29 27 29 27 25 29 30 30 31 33 32 31 29 31 30 30 30 31 30 29 27 29 30 31 28 30 30 26 31 29 32 31 30 30 37 33 32 32 32 37 35 36 49 66 82 90 103 114 124 142 152 168 198 
24 24 26 23 31 28 33 27 26 25 23 25 26 30 30 33 30 35 33 34 32 37 35 36 37 36 34 30 29 30 29 24 28 32 30 33 31 35 32 34 32 33 29 30 31 31 32 31 30 33 32 32 31 33 31 29 29 35 28 30 32 37 34 35 37 34 35 38 39 66 106 125 133 136 147 158 170 187 203 227 
21 29 26 26 30 29 32 26 28 27 23 24 28 31 31 34 31 33 36 38 37 38 35 38 38 35 32 30 30 30 29 23 29 32 30 35 34 33 33 32 33 35 30 31 32 32 30 32 31 32 30 32 32 33 30 28 33 29 31 33 33 37 34 35 32 36 37 37 43 76 118 150 157 161 175 188 202 221 233 246 
28 26 24 27 29 28 31 27 26 30 28 24 28 30 30 35 35 34 34 33 36 38 36 37 37 39 38 41 37 37 36 30 26 30 34 35 35 32 32 34 35 33 29 30 30 30 32 32 33 30 35 32 30 32 28 28 30 32 31 29 35 35 33 36 34 34 37 38 40 73 118 152 167 174 182 195 208 229 244 249 
25 24 25 32 28 27 32 26 30 31 26 25 26 29 28 37 35 37 36 36 39 34 38 38 39 42 44 45 42 40 39 33 32 30 34 36 35 32 37 36 32 32 33 30 31 31 31 29 30 33 31 34 33 31 29 31 32 29 30 28 36 40 33 36 33 34 36 38 37 69 115 154 166 174 184 192 210 226 241 255 
28 25 25 27 31 26 34 29 29 31 28 28 30 30 31 35 35 39 33 38 37 39 36 42 37 42 48 42 43 42 37 32 31 32 37 35 36 33 31 34 35 34 34 31 31 30 30 30 29 33 31 32 32 30 31 30 32 31 31 33 34 36 37 37 35 36 35 38 38 63 111 147 163 172 182 192 208 223 239 255 
26 30 27 31 29 30 29 25 32 33 30 29 28 32 31 38 33 37 39 39 41 41 40 43 42 43 46 46 43 44 41 33 32 32 36 37 36 34 38 37 35 35 38 34 33 32 29 32 31 34 31 35 31 32 32 31 33 32 32 32 35 37 36 34 37 38 36 39 40 64 113 143 158 165 175 190 205 221 236 251 
30 32 27 31 28 30 34 26 31 35 33 31 30 30 32 36 36 38 41 42 43 43 42 42 44 45 47 46 44 42 42 37 32 34 38 34 36 37 33 36 36 35 34 35 32 33 30 30 33 32 33 34 33 34 36 36 35 31 35 35 33 36 34 36 33 39 39 37 40 57 107 140 156 165 173 187 203 218 235 248 
31 32 32 29 32 34 32 36 32 37 35 34 32 32 34 38 38 41 43 44 45 48 44 43 48 47 53 46 46 44 44 39 32 34 38 36 37 36 36 39 39 37 36 35 36 35 32 33 34 34 35 35 35 36 39 42 39 38 36 36 36 36 35 36 38 41 37 36 41 61 104 139 154 165 173 185 199 217 230 248 
33 33 33 37 38 37 40 32 36 41 38 35 36 35 35 41 40 39 47 44 46 49 50 49 50 49 54 48 48 43 46 37 35 37 40 42 39 38 38 41 33 38 37 36 34 37 35 36 34 36 39 40 36 42 46 47 44 42 38 37 37 37 38 39 38 38 36 37 38 55 100 136 152 165 170 180 184 192 209 248 
38 36 34 38 38 40 41 34 38 40 39 39 40 41 42 41 45 44 50 47 50 51 51 53 53 54 54 54 51 52 49 45 42 38 40 44 42 42 41 41 37 40 37 39 35 37 36 36 37 39 41 39 40 44 50 67 78 65 48 39 38 39 39 42 40 44 40 43 41 53 96 132 152 160 171 175 176 168 211 257 
38 43 41 42 40 40 47 37 41 43 40 38 41 42 44 45 50 49 51 54 56 57 56 55 58 62 62 61 55 55 55 49 42 45 45 48 44 45 45 42 44 43 42 38 37 38 38 38 39 39 42 41 46 47 82 197 171 104 61 48 43 44 41 40 40 40 42 39 45 52 93 129 155 161 171 183 184 197 230 246 
45 43 42 47 45 45 43 41 45 45 45 41 38 41 47 52 51 53 52 54 59 59 64 63 63 64 61 65 58 55 56 46 42 47 47 49 48 44 43 41 42 43 43 37 37 40 41 41 42 43 40 42 43 47 98 241 181 105 60 47 38 42 41 37 39 42 41 43 45 57 89 126 152 160 172 178 198 207 227 239 
50 48 50 48 49 49 51 48 48 49 48 43 43 47 49 50 57 55 58 65 64 65 66 66 68 69 67 67 62 57 55 52 42 44 48 51 46 44 41 38 39 45 42 38 40 41 39 41 43 41 40 40 44 47 62 95 93 70 53 44 41 40 40 38 40 41 38 42 44 48 86 121 152 162 167 178 196 211 224 236 
57 55 56 58 55 54 57 52 50 51 52 49 51 52 52 57 57 59 64 62 68 72 72 78 75 76 77 74 66 62 56 48 47 49 49 50 46 40 39 43 45 43 43 43 42 43 40 44 45 43 44 46 45 44 49 54 58 53 47 44 42 44 45 40 42 39 42 42 42 50 83 124 150 162 175 180 199 213 224 235 
74 70 66 62 56 57 60 54 55 53 52 48 51 54 54 60 58 62 67 69 75 75 78 78 81 84 80 76 67 65 57 53 47 50 48 50 51 48 58 70 47 48 49 45 45 45 45 45 43 44 47 45 43 42 46 52 50 49 44 42 41 42 44 42 42 41 42 39 42 47 74 131 149 165 175 185 198 214 221 237 


