P2
80 60
153
29 30 28 32 32 30 34 30 30 32 33 36 34 40 38 36 43 45 44 45 47 48 51 49 49 53 52 52 55 55 59 59 57 57 55 53 55 51 55 61 66 66 60 66 63 65 61 64 61 65 67 62 63 66 60 64 67 62 64 56 58 59 53 49 49 35 37 37 28 26 28 25 18 21 20 22 20 19 26 24 
20 30 29 29 28 27 27 28 31 33 31 34 34 40 39 37 45 48 47 48 45 52 51 51 52 54 55 54 54 55 59 60 60 57 57 55 53 52 61 55 71 67 65 63 60 63 60 61 61 65 63 62 62 69 67 64 66 60 61 57 58 57 47 41 40 38 35 34 24 26 33 33 30 28 33 39 44 45 52 50 
31 39 37 31 30 33 30 34 35 36 36 39 39 41 43 46 49 49 51 47 49 51 51 52 53 58 56 55 54 56 63 57 58 59 58 55 53 55 55 58 66 67 64 68 67 63 63 65 63 64 63 64 63 68 67 62 65 63 68 59 57 49 43 39 39 41 40 40 29 33 36 38 44 48 58 59 65 73 76 85 
36 35 39 40 32 35 36 33 37 43 43 43 37 45 48 47 50 54 48 53 53 59 55 53 57 58 51 56 55 54 61 58 57 58 54 56 55 54 56 55 66 62 61 69 65 63 61 66 64 67 62 66 66 71 69 63 66 62 60 48 53 50 50 40 41 49 43 42 35 41 51 57 63 62 69 78 76 83 99 101 
38 39 34 40 38 35 34 40 41 46 40 45 43 50 50 48 49 53 51 49 54 53 57 59 58 59 56 56 58 53 55 58 55 58 55 55 59 56 59 59 62 64 62 60 66 65 65 65 64 67 70 70 70 71 70 62 65 61 52 43 48 52 48 50 47 54 47 42 38 48 66 73 70 78 80 84 95 97 110 113 
37 46 34 41 38 41 39 41 40 43 46 45 49 53 53 51 56 55 53 54 56 55 54 59 58 56 53 54 57 57 57 56 56 58 55 59 58 55 58 59 60 60 59 61 60 63 64 64 63 66 73 69 66 76 75 61 63 56 47 46 52 54 52 58 53 54 45 45 54 61 72 75 85 87 93 101 104 110 120 121 
34 39 35 42 39 46 40 42 41 47 45 48 46 52 53 54 57 57 55 57 62 56 64 61 61 61 54 60 55 57 55 57 59 60 57 59 60 59 59 60 61 61 62 63 59 62 63 63 62 71 69 76 70 74 69 62 59 57 53 52 55 58 61 61 57 52 50 56 59 71 84 83 89 93 100 103 111 118 133 130 
30 35 42 43 44 43 45 46 48 49 47 52 52 57 52 56 59 56 54 63 62 61 64 62 62 61 55 55 57 54 57 58 57 59 60 59 64 62 59 58 63 62 65 61 58 59 61 60 63 65 68 74 69 79 71 60 56 60 59 60 59 65 63 58 55 53 55 62 70 75 88 91 99 101 111 116 120 128 132 137 
38 44 44 46 44 45 43 46 47 57 47 52 53 58 53 58 59 56 60 58 62 58 62 61 58 59 55 56 58 56 61 59 59 62 62 63 62 63 62 58 64 59 61 63 59 60 59 62 62 66 68 71 70 76 68 57 60 61 57 62 66 67 62 57 61 67 70 75 76 87 92 101 103 112 115 118 125 130 140 142 
41 45 47 43 47 44 48 48 53 48 50 52 53 53 54 60 59 61 60 57 60 62 63 60 57 56 56 58 56 56 63 60 64 65 64 63 63 63 60 58 62 59 61 63 59 61 64 60 60 64 69 68 72 71 62 63 62 58 64 63 71 64 59 62 65 70 79 86 85 91 106 108 111 112 116 126 137 136 143 140 
44 46 44 52 50 50 46 51 53 53 52 52 54 57 60 55 62 60 60 62 67 70 64 58 61 58 58 59 61 59 62 66 64 69 69 69 63 64 65 57 60 60 64 62 62 64 66 67 62 60 69 69 73 72 61 63 58 64 68 66 64 62 63 68 72 80 84 90 97 97 111 119 114 123 124 136 135 137 149 142 
42 44 44 47 53 52 49 49 50 55 51 54 56 56 58 58 61 62 61 65 64 62 60 56 60 63 60 61 62 61 64 65 67 70 74 69 69 67 69 66 63 61 62 61 63 62 68 68 65 65 65 68 67 66 62 61 59 65 64 61 63 65 73 72 79 88 88 96 101 110 113 121 122 129 131 140 139 142 153 148 
45 45 48 47 48 49 51 49 52 54 50 55 55 57 56 59 62 63 63 59 60 61 60 60 63 63 60 59 60 63 68 70 69 74 72 69 69 66 69 70 66 65 65 61 61 61 60 64 66 65 66 66 64 63 66 64 60 63 59 64 66 74 82 84 91 93 99 106 105 106 119 123 124 133 134 133 141 145 147 142 
41 51 50 53 52 52 53 53 54 57 61 57 52 57 56 60 65 64 64 61 61 56 58 61 60 63 59 57 63 65 72 69 72 70 70 67 69 68 66 71 68 67 63 64 62 63 63 62 63 65 67 68 67 66 65 61 64 60 64 71 79 84 86 90 96 105 103 115 112 113 122 130 121 131 136 142 146 148 147 146 
40 48 49 48 52 47 51 52 54 52 52 61 55 63 58 57 62 64 65 65 59 59 61 61 62 63 58 61 66 69 72 72 73 73 72 71 70 68 68 69 72 70 67 65 65 66 66 63 62 65 63 68 64 68 65 62 61 65 71 74 77 83 86 90 99 105 110 114 112 118 124 127 129 130 135 137 143 145 145 136 
42 47 47 56 48 49 50 50 51 55 56 61 58 59 57 61 64 62 63 63 60 58 60 61 62 61 60 61 67 70 72 73 72 73 72 75 71 68 69 71 71 74 68 66 67 67 66 67 65 64 65 69 66 67 63 63 63 69 71 77 80 83 95 100 103 104 106 116 115 121 127 128 130 134 138 136 142 141 146 134 
44 47 47 49 49 54 51 53 50 51 54 62 56 62 60 61 64 67 62 61 62 62 63 60 61 64 63 66 72 71 75 72 76 73 71 71 71 67 68 74 78 69 68 70 65 70 69 67 67 69 69 63 63 67 62 64 65 65 73 75 81 86 93 95 102 104 108 112 116 116 123 131 129 131 132 138 139 139 133 127 
44 48 52 53 49 50 52 53 52 55 53 54 59 63 61 62 63 68 59 63 59 60 63 63 68 67 63 68 68 72 77 75 76 76 74 75 72 69 72 72 75 68 68 69 69 68 73 69 71 71 72 67 63 67 64 66 66 65 70 77 79 85 92 93 103 100 109 112 114 118 124 128 127 128 134 132 138 136 132 127 
47 52 48 56 50 52 46 50 52 55 56 58 56 63 65 66 67 65 60 61 60 61 63 62 66 71 64 68 69 70 71 73 75 77 71 70 73 70 77 74 71 65 68 69 68 71 72 72 71 73 75 74 62 62 61 64 66 71 68 78 82 85 88 94 98 105 110 112 110 112 122 125 129 131 130 135 136 132 130 124 
48 59 49 56 58 55 53 55 56 58 60 62 59 65 66 64 66 64 54 63 63 66 62 65 66 69 65 67 69 71 72 71 74 73 73 72 74 68 70 69 69 66 68 69 67 74 73 75 75 73 70 71 71 68 62 70 67 73 72 79 84 88 85 89 95 101 103 106 112 113 123 126 127 129 132 130 132 127 131 126 
51 54 57 55 56 55 54 55 56 58 59 62 60 64 62 62 62 60 61 65 63 65 62 63 66 67 67 64 68 70 70 72 74 70 72 72 73 71 68 67 69 70 67 67 67 70 72 72 74 74 72 72 70 74 70 69 64 66 70 75 80 82 91 91 90 94 97 109 106 111 120 124 121 127 128 125 125 123 125 124 
53 57 52 54 56 58 53 56 55 59 60 59 63 61 62 62 62 62 62 63 62 64 64 62 69 68 67 68 69 72 72 69 70 72 72 73 73 69 69 69 70 68 67 72 68 69 69 70 71 72 74 72 71 70 65 68 65 65 72 72 80 79 81 83 91 90 99 108 104 107 117 121 120 123 121 121 122 115 119 110 
54 54 54 55 53 53 55 56 60 63 62 62 61 59 59 61 62 63 60 65 62 63 62 64 67 68 67 71 69 71 75 76 73 72 70 73 71 66 67 70 70 69 66 71 68 72 75 74 73 71 72 72 65 71 67 69 66 68 68 74 75 79 86 90 88 92 93 100 104 108 114 114 115 117 120 119 115 113 117 104 
55 56 55 60 55 56 55 56 56 64 62 59 63 63 62 61 64 65 59 61 61 64 63 61 67 69 66 68 71 72 69 75 72 71 70 69 66 66 72 72 72 72 68 67 68 71 70 69 70 75 73 74 71 75 74 69 68 71 68 67 76 82 80 81 82 88 87 95 100 97 105 110 116 112 112 111 111 105 105 104 
50 54 56 54 53 58 59 58 59 59 61 64 59 61 62 61 65 68 64 62 63 63 65 67 70 72 71 68 71 69 73 70 73 77 72 70 69 66 72 72 76 73 71 70 72 70 71 73 72 77 76 72 71 76 77 72 71 75 70 71 79 76 80 83 80 82 84 89 87 93 95 110 105 108 109 105 103 97 97 89 
53 53 51 54 55 57 63 60 59 59 57 62 63 63 60 64 63 61 63 67 62 64 65 66 67 72 67 68 69 72 74 73 74 73 70 71 70 70 70 70 75 76 69 73 69 69 70 71 72 72 76 76 74 76 76 71 67 71 71 69 75 82 84 81 81 82 85 90 86 91 98 98 103 102 105 101 101 96 88 84 
51 58 56 56 56 59 60 58 59 60 59 60 60 63 64 64 64 62 65 62 63 63 65 64 68 69 69 67 67 72 74 75 75 70 68 74 73 70 73 74 76 75 75 71 68 68 73 73 72 76 76 82 79 78 75 71 73 72 70 70 74 80 80 76 74 78 82 82 78 83 92 93 91 91 97 93 88 86 83 76 
52 60 56 60 54 59 59 57 61 66 61 63 60 65 60 61 64 63 63 63 62 67 67 66 67 68 67 69 71 70 72 72 72 69 72 72 73 77 75 80 78 77 75 68 68 66 73 73 74 74 77 72 76 77 74 71 73 70 74 68 75 76 75 75 73 72 75 82 80 83 84 88 84 87 88 86 81 79 80 75 
55 59 57 62 56 59 60 57 62 65 60 63 63 61 60 61 65 61 63 62 64 65 68 67 69 67 67 72 72 69 72 74 72 72 75 76 76 77 77 80 80 75 71 73 67 69 74 75 75 81 77 74 70 74 73 72 72 68 72 69 70 73 78 75 69 73 74 74 71 73 81 81 85 83 81 80 79 78 73 74 
52 58 56 56 57 58 58 57 60 62 59 61 61 59 63 65 62 63 63 63 62 64 68 66 68 66 64 64 70 68 71 66 68 72 73 81 78 75 76 74 77 71 69 67 67 68 73 71 74 74 78 78 72 75 71 70 75 69 70 70 65 75 71 69 69 72 68 69 65 70 75 73 73 72 69 73 71 70 71 65 
52 52 51 57 59 59 60 60 58 63 59 61 58 63 61 63 67 63 61 60 65 65 65 65 69 67 68 67 69 70 67 70 70 72 77 82 79 75 78 74 74 72 66 70 66 71 74 77 79 80 73 77 78 74 75 71 74 72 72 68 72 73 70 71 70 69 69 71 66 65 70 68 65 59 65 67 69 61 61 55 
51 53 53 59 57 55 59 58 58 61 58 64 57 60 63 64 67 65 61 59 62 64 67 67 65 70 64 65 69 66 66 69 69 75 75 79 72 73 73 73 75 73 68 70 69 76 80 80 79 76 74 76 76 75 72 70 72 70 67 66 69 68 67 66 71 62 65 67 65 69 65 61 62 60 61 63 61 59 63 56 
47 49 54 54 56 55 59 57 61 60 59 65 63 63 60 63 65 63 59 60 62 65 66 66 69 67 66 66 66 64 69 69 71 74 69 74 70 71 74 72 71 70 71 72 73 74 78 77 75 75 77 70 71 73 72 69 69 68 69 65 67 69 68 70 68 67 67 62 62 61 64 61 62 62 62 62 60 58 55 53 
50 55 54 57 59 62 60 57 57 60 63 64 63 61 60 62 64 64 58 57 64 63 68 67 67 68 66 66 67 69 69 70 71 72 73 75 72 72 73 72 74 73 73 71 73 77 81 79 72 75 75 77 75 74 71 68 70 68 70 68 70 71 71 71 69 66 63 63 62 61 62 63 62 59 59 60 56 51 52 55 
55 56 57 55 58 57 56 60 60 63 63 61 60 62 59 61 63 60 63 57 64 65 64 67 66 65 65 67 68 69 70 73 71 72 71 74 72 73 75 75 76 75 70 73 74 78 79 80 76 73 72 77 73 74 72 70 71 68 72 71 71 69 70 66 65 62 64 56 64 63 63 59 60 57 60 52 56 51 52 42 
52 54 50 57 55 55 58 57 55 59 56 61 59 62 60 59 63 64 61 62 60 64 66 67 66 66 70 66 68 67 71 68 71 74 71 74 74 77 70 73 75 76 71 72 73 73 77 80 76 71 71 76 73 71 73 69 72 68 70 67 67 70 65 64 59 63 59 57 60 58 59 56 56 58 58 58 52 51 56 51 
51 54 51 53 54 56 55 57 59 56 57 58 56 56 58 58 64 64 62 61 65 65 66 66 67 67 64 65 62 68 69 71 71 73 74 77 75 78 71 74 75 77 74 73 72 69 74 72 74 71 71 76 72 71 68 69 69 71 70 63 62 68 68 65 64 65 53 60 56 53 58 55 59 56 63 53 54 49 54 45 
47 54 55 54 53 58 53 54 52 54 54 58 56 58 55 60 59 63 56 58 56 65 67 61 65 67 67 64 66 67 68 73 74 71 73 75 72 72 75 76 77 74 69 67 68 73 74 71 70 71 69 70 69 73 69 68 67 67 66 61 62 60 64 70 64 61 57 53 52 55 57 51 57 54 53 49 46 47 50 47 
50 54 55 52 52 54 52 56 52 56 54 59 56 58 59 56 60 58 57 52 53 57 63 63 64 64 67 66 69 67 70 69 70 74 72 73 75 75 72 76 75 72 69 67 72 73 72 72 72 71 70 72 74 70 71 69 68 67 62 61 63 63 65 62 56 63 56 56 56 52 55 55 57 54 51 47 50 44 49 40 
49 50 46 46 51 53 55 52 56 54 53 58 58 61 56 58 61 62 55 57 51 56 61 61 65 65 66 65 69 70 75 72 73 77 72 75 77 73 68 72 73 69 69 71 69 70 71 72 72 74 75 72 73 74 72 68 69 68 68 62 66 66 63 63 60 61 56 57 55 54 49 53 52 54 56 50 46 45 43 43 
46 50 46 46 48 54 53 53 56 57 54 58 59 60 57 60 62 61 61 58 57 60 65 66 67 64 69 67 68 69 73 73 79 74 75 73 73 72 70 71 73 67 68 68 69 72 72 69 68 69 70 72 71 76 69 68 67 68 69 62 64 62 60 53 56 60 56 54 53 55 48 47 54 51 50 44 45 41 46 42 
43 45 46 51 51 52 50 48 53 51 52 56 55 60 57 59 59 62 61 63 57 59 62 67 69 67 68 67 70 69 70 73 73 73 72 72 71 72 73 70 73 67 65 66 67 71 72 73 68 69 72 74 71 75 71 68 67 68 66 63 60 60 56 56 54 55 60 51 48 56 50 49 52 48 47 43 42 38 47 38 
40 47 44 47 51 47 49 49 50 56 50 54 52 54 57 55 62 61 62 61 59 60 63 64 70 66 67 67 71 71 72 72 72 70 70 74 67 70 72 72 69 64 60 65 67 69 68 71 68 68 67 70 68 70 70 61 69 64 62 59 60 61 59 60 55 53 53 49 47 49 53 46 47 42 40 42 43 40 47 39 
39 46 44 49 53 51 51 53 51 49 55 54 54 53 51 55 60 58 59 60 62 58 61 62 67 65 61 64 65 73 72 71 70 71 69 70 71 71 70 70 68 62 58 65 66 64 67 69 65 69 71 70 66 67 66 61 63 61 58 55 59 61 58 55 53 58 50 51 48 49 50 47 44 46 46 43 39 37 43 37 
44 42 43 44 50 51 50 51 54 54 54 53 57 52 51 57 60 60 58 62 58 60 60 66 65 65 65 64 69 69 73 69 69 72 68 68 68 69 66 71 67 62 61 66 67 67 67 68 64 69 67 68 67 67 63 60 61 61 60 59 60 61 56 58 58 54 49 51 49 51 49 46 43 42 43 45 37 33 41 33 
37 43 40 46 49 50 52 54 53 51 51 51 56 57 55 54 59 61 60 61 61 59 63 63 70 66 65 65 68 69 70 69 71 70 66 72 69 67 68 68 65 60 61 64 68 65 65 68 66 67 64 66 65 64 63 59 64 62 63 61 59 59 63 62 56 54 49 50 50 53 48 43 48 39 44 39 37 37 36 35 
45 45 42 44 46 52 49 46 50 51 46 53 57 58 57 60 59 60 59 59 61 59 60 62 64 63 65 62 65 66 72 69 72 71 67 69 69 65 69 62 61 61 61 67 67 67 66 70 69 66 68 69 68 61 64 61 63 64 63 58 58 61 58 59 56 51 50 46 48 49 48 43 41 41 35 36 32 39 35 37 
41 45 38 41 40 49 48 49 47 50 52 54 52 57 56 58 60 57 57 58 59 61 57 63 65 61 62 65 68 64 71 69 68 69 66 66 68 67 63 63 61 59 62 63 64 63 63 67 67 66 66 65 63 65 63 61 60 63 61 54 57 58 55 52 56 51 48 40 40 48 44 40 41 38 34 37 36 33 34 35 
41 43 40 41 43 50 47 47 42 50 50 51 51 57 57 56 59 58 54 59 56 57 58 59 62 66 60 63 66 67 70 70 66 69 70 70 70 63 62 59 61 58 61 61 64 65 65 65 64 65 62 64 63 64 61 59 58 59 57 58 59 59 54 52 51 46 45 42 39 41 38 37 37 37 34 29 32 34 32 27 
42 46 40 40 31 40 43 44 44 48 47 52 53 55 56 54 56 55 51 49 59 56 54 56 61 67 60 63 64 68 67 67 67 64 65 70 68 65 58 57 61 57 62 62 60 62 63 64 62 62 66 70 65 63 62 56 57 58 62 58 56 59 52 53 49 46 49 42 40 40 37 37 42 35 38 30 36 30 26 24 
40 44 44 40 38 29 31 37 41 50 47 51 52 51 54 53 55 54 54 50 55 53 51 57 63 68 64 64 65 65 68 70 66 69 70 66 65 56 55 56 61 61 59 61 66 63 64 67 62 69 66 64 63 61 61 56 57 63 59 56 57 57 51 51 47 48 46 42 43 41 41 38 36 33 37 33 36 29 28 25 
47 42 43 45 45 29 31 31 40 50 43 47 49 53 54 53 54 52 54 56 54 51 52 54 62 60 63 60 61 69 69 67 70 64 62 58 58 59 57 58 64 65 64 62 63 63 64 67 63 68 65 65 65 64 64 60 59 62 61 57 59 56 57 54 46 50 47 43 41 41 38 34 37 32 35 32 31 33 27 21 
43 44 41 42 49 45 34 24 39 49 42 48 48 50 50 53 59 56 55 54 49 58 54 56 62 64 60 60 63 65 65 62 64 66 62 63 60 55 56 55 62 66 65 67 65 64 63 65 63 64 65 63 63 66 65 59 60 61 57 59 58 57 59 54 48 50 47 43 39 38 40 37 31 32 34 32 30 30 22 22 
42 45 47 45 45 47 43 30 34 39 44 42 47 47 51 52 56 59 59 53 54 53 52 56 61 60 65 62 63 62 67 68 66 63 61 56 55 57 59 63 67 65 66 67 62 59 62 66 63 65 66 61 65 61 64 63 65 65 60 54 58 57 55 55 49 48 47 46 37 32 34 32 34 30 31 28 26 24 22 25 
44 44 45 43 43 46 44 43 40 36 36 40 46 45 44 52 55 51 59 56 56 54 55 56 62 63 61 60 61 65 68 68 64 64 57 57 57 59 65 66 70 63 66 67 67 64 63 66 64 66 66 61 63 65 60 62 61 60 60 54 56 58 54 54 50 45 42 43 36 35 35 33 33 32 33 30 22 26 25 23 
42 43 43 43 46 46 43 43 44 34 34 35 43 45 43 47 52 56 57 56 60 58 56 56 59 60 64 59 60 60 64 66 62 59 58 62 63 68 65 69 70 68 66 68 68 65 65 69 69 65 67 68 58 67 64 62 65 66 55 60 60 53 55 51 54 42 42 45 38 34 37 36 35 32 28 31 24 17 25 18 
41 48 47 46 42 46 45 44 43 39 40 39 39 43 42 46 47 56 56 54 55 64 60 61 61 66 69 60 63 60 67 62 58 59 57 65 64 66 65 64 67 64 65 67 68 68 70 73 68 70 71 66 66 70 70 67 68 69 67 58 64 62 60 54 53 51 40 48 44 34 37 34 32 33 31 21 23 20 27 21 
40 44 42 42 40 43 42 41 40 40 39 39 34 38 35 42 48 49 47 52 55 58 61 59 58 65 58 58 61 61 61 60 61 60 56 61 70 64 68 66 66 68 67 67 68 68 74 73 74 73 77 66 66 75 71 70 67 65 62 59 64 63 62 55 50 49 45 45 41 38 32 32 30 27 25 27 24 19 17 7 
37 41 48 41 39 46 39 43 40 42 39 43 34 35 41 39 44 44 46 43 51 52 52 52 58 57 56 59 60 58 56 55 58 57 57 65 64 65 66 66 68 66 65 68 68 71 69 71 76 79 80 73 74 77 76 73 72 75 72 66 73 68 66 65 62 52 49 50 38 40 35 33 29 21 23 27 15 6 8 2 
36 46 39 41 40 47 43 41 40 40 39 40 33 37 44 42 48 45 46 46 48 48 53 52 56 57 56 57 59 59 54 55 57 61 60 63 64 63 63 65 66 66 65 68 66 69 69 72 78 78 75 81 81 85 81 78 79 79 80 75 76 78 74 68 64 61 58 54 46 41 39 37 33 29 31 23 19 10 4 0 


