P2
80 60
345
14 9 10 13 15 15 18 18 22 22 20 23 35 44 59 58 63 66 73 75 70 61 57 50 48 38 40 36 31 33 33 33 35 37 38 39 36 33 36 36 34 27 25 31 30 38 36 36 35 32 30 32 28 32 27 25 27 27 30 24 21 22 24 21 20 27 22 23 19 16 14 8 12 7 15 13 49 147 209 260 
12 10 11 11 17 16 15 16 19 21 22 22 29 37 43 46 51 53 51 58 54 51 47 41 37 35 37 33 32 33 32 33 36 36 32 33 36 35 35 35 30 29 24 27 28 30 36 37 36 31 27 29 29 29 32 26 23 27 24 18 20 24 24 25 21 20 23 21 16 14 8 7 8 12 10 36 161 276 301 304 
14 6 12 16 20 15 17 17 22 23 26 25 27 35 39 40 42 48 50 51 53 46 42 38 37 35 36 39 39 37 40 40 40 40 38 38 37 34 35 34 31 31 26 24 29 34 33 31 31 34 32 29 32 28 27 27 24 25 22 18 17 26 30 25 25 22 21 21 17 17 12 10 8 13 20 87 252 324 328 322 
13 12 14 16 21 20 19 22 24 19 33 31 27 29 34 37 40 42 50 51 50 47 38 35 34 33 38 45 42 40 45 44 47 43 43 41 44 35 30 32 29 29 25 28 25 31 30 31 31 32 34 28 30 30 28 24 24 25 28 22 20 22 26 26 25 22 23 18 16 14 10 15 10 9 22 131 285 337 335 335 
16 14 14 17 24 22 25 24 23 21 23 28 30 31 36 39 43 44 46 49 51 45 37 37 37 34 43 47 46 43 43 45 48 47 44 46 41 38 35 33 28 31 27 31 29 30 33 37 32 33 33 34 33 34 28 26 21 28 26 22 21 21 25 23 24 22 25 21 16 11 11 12 11 12 26 144 293 340 342 330 
16 16 16 18 27 25 29 24 23 21 28 28 30 34 36 38 41 43 45 46 45 42 42 39 35 36 40 44 48 42 44 47 47 48 48 42 44 38 36 34 34 39 32 32 33 30 29 33 33 33 36 31 33 31 32 27 25 29 26 22 21 25 24 22 23 22 23 26 21 17 16 13 12 12 26 137 288 338 340 338 
20 14 16 17 27 23 25 25 23 24 30 27 35 38 38 38 38 39 39 39 40 41 37 40 38 38 37 39 41 41 39 45 50 49 48 48 44 37 39 39 41 44 35 37 35 32 29 33 33 33 32 32 30 35 36 25 25 28 30 21 25 28 27 28 28 28 27 24 26 24 17 13 15 13 21 103 271 336 345 337 
22 19 18 14 28 22 28 25 27 27 30 34 39 40 36 36 36 34 37 37 38 37 33 39 35 37 38 43 37 41 38 43 50 48 51 47 47 41 38 37 41 46 36 37 37 37 31 30 30 33 33 29 27 28 29 27 24 27 28 27 22 24 31 30 28 24 29 28 27 26 23 18 17 17 20 72 225 318 335 340 
24 19 19 22 27 23 26 24 27 26 32 37 41 40 37 35 36 38 36 44 43 41 37 42 38 38 43 44 42 41 42 43 47 48 48 53 51 42 43 41 37 42 33 38 32 36 34 38 32 34 36 33 30 30 33 25 29 27 30 27 26 27 24 26 28 32 25 28 28 26 24 21 19 20 19 34 126 271 314 327 
28 19 20 24 27 22 28 29 34 33 38 37 40 40 36 37 36 38 37 43 44 43 38 43 43 42 44 50 45 46 47 48 49 52 49 50 45 41 42 41 41 38 31 36 36 36 34 39 36 41 39 36 31 38 38 33 31 28 32 34 33 33 27 26 28 28 24 29 25 26 26 23 23 20 18 25 46 150 252 287 
28 20 23 31 30 24 31 29 35 35 35 36 45 42 38 35 38 36 42 43 42 43 41 43 44 43 46 50 46 45 47 50 51 54 52 55 48 41 39 36 38 36 31 38 36 37 35 36 37 38 37 37 34 40 39 36 34 27 30 32 35 31 29 26 27 30 28 27 24 21 25 25 21 19 25 20 21 43 86 128 
32 25 19 24 30 25 34 34 37 36 40 43 46 49 43 40 38 42 43 43 43 43 41 48 46 44 50 52 47 50 50 49 50 52 57 58 54 47 44 40 37 40 39 38 38 37 40 42 36 39 38 38 39 43 42 38 35 31 33 33 34 34 29 28 29 28 29 29 26 27 26 23 20 23 23 24 20 23 17 58 
27 24 22 27 32 31 35 36 36 38 41 44 51 52 48 44 44 43 47 54 51 50 43 49 45 48 49 50 49 53 52 54 54 57 56 60 56 52 48 44 42 39 39 41 41 44 41 43 38 40 42 38 40 43 43 38 37 32 35 32 30 28 30 33 28 30 31 30 27 27 23 21 23 30 24 25 21 17 13 16 
29 26 27 30 36 36 38 39 39 35 41 42 51 52 51 49 46 43 45 52 55 55 50 56 54 55 57 64 57 58 59 56 57 56 57 57 53 48 52 54 54 48 44 44 42 41 42 43 42 47 46 39 40 41 44 36 35 30 37 35 31 33 33 33 32 32 31 31 31 29 25 26 27 29 30 28 23 19 15 12 
31 29 29 35 41 38 38 38 36 36 40 41 44 53 51 48 46 46 49 51 51 54 56 60 58 61 58 62 64 60 58 55 52 56 52 52 50 47 46 49 51 52 46 46 43 43 39 41 41 45 47 44 41 39 35 35 33 36 36 34 33 33 33 35 33 32 33 29 33 31 24 27 29 29 28 27 21 25 13 15 
35 29 28 36 41 38 33 36 39 38 42 40 43 49 49 47 46 47 48 54 54 58 56 53 53 53 53 55 59 57 57 58 57 55 52 52 48 48 46 47 52 60 48 50 43 43 39 40 43 42 42 41 43 45 40 34 36 39 47 39 35 34 33 33 32 35 33 33 31 30 30 30 34 28 26 26 23 17 14 14 
35 33 30 33 41 40 38 40 40 42 42 45 45 46 45 47 48 47 49 57 56 57 57 59 54 52 50 51 54 56 55 53 56 54 53 52 52 48 49 49 51 53 53 49 46 42 40 44 44 40 42 41 45 45 44 38 33 44 45 41 34 31 34 31 31 31 34 30 26 31 29 27 28 30 24 27 20 20 14 16 
36 33 32 36 41 35 35 43 45 47 46 44 45 47 53 48 49 48 51 54 58 61 57 57 53 54 54 53 55 53 53 52 55 51 55 53 51 48 50 53 55 52 53 48 49 44 45 44 40 46 44 42 43 46 45 42 37 40 45 40 37 34 36 31 30 32 33 33 32 29 29 27 29 27 27 23 18 16 12 15 
41 36 33 33 37 36 37 46 48 49 47 48 47 50 48 48 51 50 52 55 57 58 59 59 52 55 59 56 55 53 53 54 55 56 53 54 52 56 62 62 79 54 48 52 47 45 48 46 44 47 47 45 45 47 45 37 37 36 34 36 40 36 38 36 32 33 33 31 30 32 29 32 34 28 25 26 16 16 13 12 
38 36 33 39 39 39 40 46 44 51 47 47 50 50 52 50 49 51 55 58 61 60 58 56 54 52 53 59 59 53 49 50 52 56 52 49 50 55 62 96 126 89 59 49 46 45 46 48 44 48 52 46 42 47 45 41 36 38 35 37 38 37 38 36 34 35 35 34 30 31 32 31 31 29 24 26 20 16 14 16 
39 39 34 38 41 43 44 50 51 52 51 47 52 52 54 50 51 50 53 56 60 61 57 56 57 51 55 63 60 56 54 55 56 55 53 53 56 56 74 144 156 154 104 61 50 48 51 49 47 52 49 46 45 47 43 39 39 37 37 37 35 43 43 40 38 38 33 33 29 31 31 30 32 31 30 30 23 21 16 18 
39 39 39 38 42 40 45 46 48 51 54 52 50 54 53 50 50 47 54 54 60 58 56 57 56 55 50 60 60 57 54 56 52 55 49 56 57 66 137 154 144 151 153 73 54 54 52 53 50 51 51 47 43 43 43 42 43 39 41 39 41 45 46 44 40 36 37 33 27 34 32 31 32 30 31 25 25 22 17 15 
42 39 36 37 43 44 47 44 46 52 57 55 51 54 52 52 49 48 55 53 53 56 53 53 56 55 52 57 59 56 57 57 61 61 60 60 75 127 169 157 149 140 157 127 96 65 62 58 65 57 54 47 44 45 47 43 39 39 36 39 42 49 45 44 40 35 35 35 33 30 33 31 35 31 27 26 23 20 15 16 
42 43 39 40 44 44 45 50 51 60 59 54 51 53 54 49 47 54 56 58 55 57 53 56 57 54 52 56 58 58 57 60 60 63 66 71 100 163 180 162 151 150 149 151 152 133 100 105 125 79 60 50 47 46 46 45 46 41 38 38 39 46 45 47 41 37 39 33 34 35 34 33 34 37 30 29 19 20 18 14 
49 45 42 41 41 43 45 49 55 59 58 51 47 52 57 52 47 52 55 63 59 58 55 52 54 58 57 55 56 59 58 57 63 66 68 78 138 173 170 146 153 150 165 174 160 155 147 150 160 130 77 68 53 51 51 47 47 47 49 41 36 47 47 41 43 39 39 37 37 37 35 31 33 35 36 29 27 24 18 17 
47 48 44 42 45 46 48 54 53 57 59 52 51 54 56 51 48 54 61 64 58 56 51 55 58 59 57 56 61 56 55 53 60 61 64 102 157 172 146 152 153 161 189 186 178 165 155 152 156 150 128 99 68 55 51 48 48 45 51 42 38 40 44 45 40 42 38 37 33 32 36 33 33 32 34 33 24 26 21 20 
48 51 47 53 51 43 51 53 56 56 60 58 56 58 54 54 49 53 56 61 61 54 54 58 58 60 59 63 60 56 57 56 59 62 66 100 136 153 143 146 155 174 190 193 186 183 170 159 156 155 157 165 134 75 60 50 50 47 49 45 44 43 49 40 41 37 39 39 32 35 34 35 38 30 29 33 29 30 26 25 
49 59 79 81 60 48 49 51 49 51 55 59 57 56 52 54 50 50 56 59 59 57 56 57 59 60 60 58 59 54 57 55 57 57 62 82 100 122 133 147 158 177 188 189 190 190 185 179 166 156 154 149 174 154 84 60 48 48 51 46 47 52 46 39 41 37 39 34 33 39 36 35 33 31 35 33 28 33 26 26 
66 109 155 162 76 47 48 51 49 54 56 56 49 53 48 54 52 50 54 58 58 57 54 60 65 61 68 67 64 60 57 58 58 62 64 71 77 108 128 131 146 172 177 187 183 188 188 188 179 169 159 148 153 168 152 97 75 67 59 54 55 52 49 42 41 41 39 36 32 37 34 32 34 36 40 39 36 38 26 26 
119 192 205 177 109 53 46 50 49 54 55 51 51 53 52 57 53 55 55 60 62 65 69 73 84 92 113 113 86 73 66 57 58 61 62 68 74 96 117 122 137 151 164 179 185 191 190 191 186 183 177 156 146 162 162 144 130 114 81 56 59 56 48 44 46 44 43 39 37 37 36 33 37 39 37 41 47 45 34 43 
188 239 245 206 133 63 48 49 53 58 56 51 51 50 53 56 55 53 53 63 71 79 109 133 179 173 212 222 194 111 71 60 57 56 58 61 72 77 97 119 125 133 149 164 174 184 192 179 182 189 185 174 154 150 146 146 139 134 117 82 69 61 53 51 48 46 42 41 39 40 32 35 34 32 38 44 47 58 69 118 
226 253 203 131 81 57 54 50 58 61 59 55 51 49 51 53 55 58 65 78 112 143 181 185 204 209 207 212 200 126 75 63 60 60 59 62 64 68 77 92 113 124 129 140 153 170 175 129 133 190 197 188 172 172 160 150 143 138 134 115 97 83 75 66 56 49 43 42 44 39 39 39 34 40 41 45 50 87 153 221 
170 245 166 78 58 48 53 52 53 60 61 57 52 52 55 51 54 61 70 128 175 176 190 187 172 137 117 113 114 86 73 63 61 58 60 62 64 65 71 76 89 108 116 127 133 147 157 123 156 201 207 197 184 187 184 170 154 149 145 137 126 116 108 77 63 53 44 41 42 45 45 49 43 38 37 39 54 122 216 263 
203 214 110 54 50 44 49 46 50 56 59 57 50 55 53 51 57 74 119 195 172 97 130 125 116 94 83 79 81 93 101 67 57 57 56 56 59 63 66 66 73 83 96 112 120 131 148 152 172 195 204 201 201 198 199 187 173 163 159 145 139 137 128 108 78 63 49 48 42 45 49 44 43 37 34 36 48 156 249 273 
258 161 70 46 46 40 48 51 51 58 61 54 55 51 56 54 61 103 169 174 149 96 111 91 70 63 63 61 58 65 78 85 63 58 58 56 56 57 63 64 69 72 76 88 106 123 135 147 161 182 197 201 204 207 204 205 189 180 175 160 160 152 145 130 117 94 71 60 55 54 51 44 36 35 32 38 46 167 258 275 
220 118 61 48 48 43 50 51 55 58 54 51 48 50 54 54 73 145 190 187 141 100 77 69 58 56 63 60 56 59 56 58 60 55 56 55 55 60 64 65 63 65 69 76 83 102 116 131 144 158 177 191 202 211 211 210 203 199 190 176 169 161 154 145 133 116 97 82 68 55 55 47 40 33 34 36 57 177 271 284 
169 90 50 44 45 45 48 51 56 54 52 47 51 49 51 59 98 174 204 181 122 75 59 58 57 54 55 54 55 57 56 52 54 54 53 53 53 55 61 66 62 65 65 68 69 81 96 119 135 146 161 173 184 203 212 214 217 211 207 192 189 174 166 156 130 120 124 114 89 72 60 50 45 37 40 46 82 218 268 280 
142 75 49 40 44 41 42 45 52 53 55 46 45 47 52 67 132 182 197 129 90 66 58 57 53 52 54 54 50 53 53 54 51 50 50 55 54 52 55 62 57 62 59 65 64 70 79 96 119 131 146 157 165 183 197 207 215 222 217 205 199 189 179 170 155 142 145 132 120 96 78 63 50 38 45 70 147 226 257 277 
126 72 45 39 45 44 46 45 49 52 49 48 45 46 50 71 144 177 156 111 73 64 57 56 52 53 55 56 51 52 52 56 51 52 48 58 52 51 54 57 57 55 56 59 57 62 66 79 91 109 129 139 147 161 178 189 207 221 226 212 208 201 187 179 170 163 152 146 132 116 104 85 69 56 56 81 131 194 224 254 
111 71 48 39 40 43 43 44 44 49 49 48 45 43 50 79 140 166 126 89 71 70 65 57 51 51 53 61 56 53 49 52 54 49 50 59 54 53 52 48 52 55 51 56 51 52 60 69 79 88 116 123 134 140 157 168 187 212 229 222 217 203 199 193 183 173 167 155 145 132 127 113 103 89 81 77 90 133 167 218 
112 74 43 36 39 37 38 41 43 49 45 47 44 42 53 70 124 136 105 75 68 70 69 56 53 49 49 53 55 52 52 53 48 48 49 64 54 51 51 48 46 51 49 58 51 54 51 55 63 67 84 98 118 127 140 151 161 181 209 220 214 210 208 205 191 181 181 167 156 149 142 138 136 116 99 79 73 86 115 175 
105 78 45 37 36 34 37 41 41 45 47 43 42 44 49 62 90 78 80 72 53 56 61 55 52 48 45 51 53 52 51 51 50 47 50 60 53 50 52 50 52 47 49 50 52 53 48 49 51 60 61 72 86 108 123 129 140 159 177 189 208 212 212 211 206 201 193 184 164 162 150 149 142 130 104 86 77 75 82 137 
96 81 52 38 38 33 31 35 38 45 47 40 44 45 48 59 72 67 77 73 56 48 49 52 49 49 50 49 54 51 52 52 52 47 47 51 49 47 50 53 55 52 44 48 50 47 51 53 53 58 58 65 64 79 91 106 123 138 153 162 183 195 208 214 215 211 208 192 181 171 165 157 146 134 115 95 79 76 73 113 
79 80 62 46 39 32 36 32 35 38 39 40 41 41 47 56 75 91 98 78 58 55 54 55 50 49 46 51 51 52 49 54 49 49 49 45 45 42 43 46 53 54 46 49 43 44 46 48 48 54 60 58 56 56 66 75 96 121 135 141 155 171 186 203 216 218 210 200 192 184 179 163 153 135 122 99 85 82 78 88 
57 65 62 52 41 38 35 34 34 37 41 39 43 47 47 56 70 106 108 82 64 58 50 53 54 55 50 53 51 48 47 51 48 48 50 49 48 44 42 39 45 49 47 44 42 45 49 52 47 54 58 50 47 43 49 60 73 94 120 122 143 156 169 182 198 214 214 211 202 194 184 175 163 142 122 107 94 96 85 75 
50 53 50 44 42 35 34 36 35 38 36 38 43 41 46 46 58 91 105 86 78 60 79 71 56 53 52 52 48 50 47 47 46 49 46 47 46 43 41 41 39 45 42 44 41 46 46 47 43 46 46 38 35 31 37 43 54 78 96 106 120 135 147 160 161 184 202 210 209 201 191 180 171 145 120 111 99 102 94 58 
77 66 66 53 46 35 30 30 35 35 37 36 37 44 43 43 51 68 88 90 90 78 84 88 56 51 50 50 49 47 47 48 45 45 42 47 46 42 36 38 39 41 42 41 40 41 45 46 39 40 41 36 33 34 29 36 42 55 78 87 108 116 132 139 147 160 175 191 207 206 196 182 170 146 122 111 101 104 98 51 
126 106 98 83 70 52 38 34 37 33 38 39 36 42 41 42 44 49 71 91 95 81 78 71 56 56 53 58 53 67 75 54 47 45 42 41 42 43 42 42 34 40 38 44 39 41 43 42 42 43 45 39 34 36 33 32 37 49 62 68 88 99 115 126 128 138 153 161 174 196 198 190 167 140 125 116 106 114 69 32 
166 159 142 130 120 93 67 54 40 36 37 39 38 41 41 40 37 43 56 73 88 81 77 77 82 79 75 74 83 82 85 60 49 47 42 44 43 45 46 44 40 42 41 43 36 37 40 41 39 43 45 41 35 36 32 32 34 43 51 53 71 83 95 113 120 128 138 143 146 164 178 169 157 140 130 122 117 100 32 19 
206 196 185 176 158 138 124 105 85 72 66 69 52 48 52 55 43 41 41 48 66 68 69 75 78 82 84 85 80 71 60 50 48 49 45 44 44 43 44 42 39 41 42 39 42 38 38 41 41 45 41 39 38 40 34 30 27 37 46 52 62 66 80 94 105 120 129 134 133 138 136 143 140 140 133 128 119 67 15 16 
234 222 217 204 198 185 169 153 143 133 122 109 96 89 78 73 62 59 44 47 49 58 57 64 69 74 68 59 59 52 45 47 49 49 49 47 43 39 39 40 37 41 43 40 35 37 34 41 41 44 40 36 39 42 34 28 29 30 42 45 52 55 64 74 89 102 112 121 120 119 119 121 127 140 136 128 88 32 10 15 
245 239 234 225 228 213 210 194 185 182 173 162 145 137 130 117 105 87 76 74 61 49 48 50 57 60 59 54 53 48 48 50 49 49 45 45 43 34 37 38 33 39 37 39 39 41 38 43 41 37 37 35 33 37 36 33 36 32 35 41 45 49 52 64 72 82 92 99 106 102 107 111 114 116 109 97 36 20 5 13 
260 250 241 241 238 232 226 225 213 216 207 202 185 180 168 158 142 134 123 117 103 81 71 64 58 57 53 54 50 49 52 51 50 46 48 49 47 39 37 35 35 37 39 39 39 41 37 39 40 38 40 32 34 35 34 35 36 33 38 31 40 44 47 50 54 65 71 80 88 93 92 97 95 100 81 47 15 15 7 1 
267 255 251 252 250 242 242 240 234 232 235 231 222 215 207 191 185 171 163 155 146 130 112 105 100 85 80 67 56 52 53 53 50 46 44 46 47 42 37 37 34 38 38 38 39 40 39 42 35 39 38 36 32 32 33 31 36 32 32 28 34 38 41 40 47 44 55 68 70 74 81 87 82 71 39 24 17 11 5 3 
267 260 255 258 258 251 250 244 245 242 242 241 239 236 227 225 219 210 203 197 187 179 162 147 142 131 118 106 87 70 70 59 59 57 50 48 47 42 42 37 37 40 37 40 42 42 39 41 42 39 40 36 33 36 36 30 33 31 35 26 31 29 35 36 41 40 40 45 57 62 64 60 54 39 26 18 11 11 3 4 
271 263 267 259 264 259 255 250 247 251 253 255 250 247 251 243 240 240 232 233 229 212 203 192 187 176 161 155 140 127 109 107 100 84 80 73 60 48 43 35 39 40 36 44 40 38 40 41 44 44 43 39 39 40 41 37 34 34 34 27 27 28 31 35 33 34 32 37 43 46 43 37 28 23 14 14 12 9 10 0 
276 269 270 266 273 268 264 260 260 261 258 259 258 263 262 259 256 257 253 259 254 242 242 232 228 214 205 195 184 171 163 156 144 129 118 112 100 73 50 40 39 43 42 42 40 43 41 43 45 48 46 45 41 40 33 35 35 32 32 29 28 28 29 29 29 31 31 34 35 37 31 27 22 20 23 18 15 8 9 11 
277 275 267 270 279 264 269 263 267 261 269 271 261 271 270 271 259 263 263 270 264 255 255 256 255 244 236 233 224 212 202 197 182 174 162 153 141 100 59 47 42 41 43 47 45 49 44 46 44 49 50 47 43 40 36 31 33 33 33 30 30 30 28 27 28 31 30 32 29 31 29 26 22 22 18 19 10 9 6 5 
279 271 272 270 273 269 269 265 266 269 269 269 270 276 274 273 268 272 269 276 274 269 262 263 257 255 260 253 246 240 232 226 220 214 202 200 187 127 66 54 48 48 58 79 78 68 68 60 55 54 56 49 42 42 38 33 30 33 37 32 35 33 30 31 26 32 33 31 30 28 27 28 22 24 21 13 11 15 9 15 
281 277 274 273 275 271 272 269 267 268 269 273 274 276 271 272 274 271 276 286 276 273 265 263 263 261 267 259 257 253 244 249 244 241 233 224 212 144 63 44 46 47 96 139 128 119 109 95 90 80 76 67 54 52 37 31 34 33 42 37 34 33 34 23 25 32 32 30 24 25 23 23 24 23 18 17 11 17 11 5 


