P2
80 60
249
16 18 19 23 38 44 79 90 71 44 57 88 82 46 42 34 36 27 27 23 28 27 23 18 22 24 21 26 26 29 30 30 29 27 27 25 27 21 27 26 27 26 29 21 25 23 26 23 24 18 13 15 13 16 15 13 10 16 11 13 10 13 14 15 13 13 14 16 20 19 15 15 12 14 16 16 12 13 11 1 
14 18 23 23 33 48 86 93 64 43 63 87 78 41 38 36 33 31 29 23 28 27 23 23 21 19 25 25 28 27 32 28 32 30 28 26 25 24 27 28 25 26 27 27 26 23 25 27 25 18 13 15 12 12 14 16 16 12 12 16 14 14 13 17 15 18 12 22 21 18 16 16 13 12 12 15 15 16 5 6 
16 19 20 24 38 48 86 91 59 40 64 89 72 39 37 36 26 28 31 27 31 28 23 23 22 24 28 24 26 27 30 31 28 25 27 27 24 23 26 29 23 26 28 23 26 28 27 25 28 18 15 16 21 14 14 17 16 14 15 18 17 19 20 22 21 11 12 16 23 18 17 17 12 16 16 20 18 15 6 6 
16 17 19 28 38 48 89 91 53 42 71 88 68 37 34 32 27 29 27 25 30 24 24 25 21 28 26 25 27 29 31 30 26 23 27 23 27 22 24 25 24 24 24 26 27 26 25 24 27 20 21 22 26 21 24 23 21 25 23 24 22 20 21 25 24 14 16 15 22 15 18 13 14 10 16 18 17 12 5 5 
16 20 19 29 39 59 104 92 52 42 77 86 59 33 31 28 22 29 29 23 24 21 24 24 24 27 27 27 27 28 33 28 26 26 26 24 26 22 22 22 23 26 25 22 25 25 26 30 27 25 24 26 24 28 27 28 25 27 25 28 23 25 26 22 22 17 15 13 20 20 21 19 14 17 16 15 16 8 4 6 
17 17 21 31 37 68 101 83 47 44 83 85 57 30 32 27 27 26 25 22 26 28 26 28 24 24 29 29 27 30 30 30 27 28 27 25 25 23 24 27 20 21 27 26 26 27 25 28 28 27 27 26 29 25 26 26 25 27 26 24 24 23 20 21 20 15 12 14 22 15 20 18 18 18 18 16 16 9 2 6 
17 23 26 32 37 71 100 81 42 48 84 85 48 28 29 26 25 28 29 25 24 26 23 25 24 27 28 26 27 29 31 27 27 27 24 25 25 26 25 24 24 24 22 23 22 26 27 34 27 27 28 27 25 25 28 26 26 23 27 22 22 22 23 21 21 18 15 13 21 17 19 17 18 19 21 18 14 6 4 5 
13 14 16 26 37 69 97 74 39 48 85 82 40 26 23 23 24 21 23 24 25 24 20 20 21 22 24 22 25 25 30 27 28 24 26 26 23 21 23 23 24 24 26 24 23 22 23 23 24 24 25 25 25 28 21 20 21 22 23 19 22 20 23 22 21 18 15 13 19 19 20 16 15 16 18 15 9 7 4 3 
6 7 11 26 28 66 97 66 35 46 91 80 39 24 22 19 21 20 23 21 25 23 20 20 20 20 21 23 25 26 31 26 23 23 25 26 24 23 24 24 23 21 22 25 23 25 25 24 24 26 19 23 23 25 21 24 23 22 22 22 22 25 22 21 25 23 17 15 16 18 20 20 17 16 14 15 11 12 7 10 
6 0 2 0 12 72 97 64 26 46 99 79 40 24 22 20 19 18 20 20 25 23 22 19 22 21 24 25 24 27 28 26 26 27 27 23 24 25 23 27 24 24 27 27 25 28 26 26 25 25 19 23 21 22 23 22 24 25 25 26 24 22 26 22 28 23 18 18 18 20 21 16 16 19 17 15 9 11 10 12 
9 13 6 0 12 76 96 59 21 49 103 82 21 12 9 12 14 17 18 17 19 18 19 18 20 20 23 20 21 22 28 28 22 26 24 22 22 25 24 23 21 22 23 25 24 25 26 22 23 21 19 21 23 24 22 21 22 26 25 24 24 24 23 24 23 23 18 12 17 20 23 17 19 14 15 15 12 10 7 8 
12 16 16 12 22 85 98 56 21 57 98 73 15 9 8 12 8 10 12 13 13 18 14 16 18 20 22 22 20 21 26 23 25 20 24 23 21 23 21 25 23 25 24 27 25 26 25 25 25 21 22 26 25 27 25 25 26 26 26 28 23 28 22 22 24 22 18 15 17 17 21 20 18 21 19 14 12 10 7 5 
14 14 15 16 16 82 94 52 20 62 102 67 11 7 8 9 8 8 11 6 5 10 5 5 10 14 18 16 17 18 24 19 21 21 20 22 23 21 22 25 22 27 22 23 22 25 23 20 22 23 23 23 24 24 26 25 27 23 25 25 24 23 25 22 19 24 21 14 14 18 20 18 17 18 19 18 15 9 7 8 
12 15 16 16 22 90 84 45 26 69 99 62 16 9 13 10 7 10 12 8 9 6 4 4 2 4 6 8 7 7 9 10 13 18 20 18 21 22 24 24 27 25 23 24 22 22 24 25 27 26 25 26 24 27 27 28 25 25 24 26 24 25 21 24 22 26 20 17 15 18 21 18 20 18 19 19 15 11 8 6 
9 12 14 16 35 88 83 42 23 76 95 55 17 12 12 12 14 12 8 8 3 8 6 3 4 4 6 7 6 7 5 9 6 5 3 11 18 22 22 24 22 21 23 22 26 25 24 26 27 25 25 27 26 28 25 28 25 23 23 24 24 24 23 23 26 23 25 16 12 15 19 20 20 18 20 18 16 10 6 9 
8 14 11 16 36 91 81 35 23 79 95 52 15 11 12 13 12 10 11 6 6 9 5 4 4 5 9 2 4 8 7 9 8 6 7 12 15 21 19 22 19 19 23 26 25 24 27 26 28 24 25 26 27 29 27 25 26 24 28 27 25 26 25 22 26 28 25 16 10 17 22 20 18 19 20 20 18 17 6 10 
13 12 14 16 44 93 78 31 23 83 89 46 16 9 15 12 13 14 14 10 10 13 8 4 5 6 8 5 7 9 12 9 8 16 18 21 22 23 22 19 19 21 24 24 24 23 27 26 27 27 27 26 29 27 25 25 25 27 25 27 25 24 27 21 23 24 23 18 11 14 21 19 21 21 24 18 21 18 11 9 
10 11 15 18 49 95 74 28 26 87 89 42 10 15 17 14 16 14 14 11 10 13 9 8 4 7 7 7 7 9 10 17 22 27 24 20 24 23 26 24 22 24 25 24 27 26 32 30 31 25 29 28 32 31 29 29 28 25 27 25 26 24 26 23 24 24 28 20 12 14 22 21 24 22 23 23 23 19 8 13 
11 10 18 18 51 91 68 27 24 88 85 39 13 9 14 15 13 12 15 10 9 10 10 7 6 6 8 7 8 11 16 25 22 24 21 20 22 20 23 24 23 19 23 22 27 24 24 26 26 24 28 27 27 27 27 27 25 25 24 25 27 26 24 26 26 28 27 24 17 13 16 16 23 19 23 22 21 20 13 17 
15 17 16 20 59 93 73 26 28 88 83 36 13 13 13 15 16 16 16 12 11 10 9 9 9 9 10 8 8 13 19 28 21 24 23 18 24 20 23 24 23 23 21 24 26 28 26 26 25 25 27 27 26 28 27 26 28 26 26 27 25 27 21 23 28 24 25 24 15 10 17 21 21 20 19 18 22 20 13 14 
18 18 17 19 67 98 73 27 32 101 82 37 16 12 14 16 19 17 14 10 12 12 9 9 9 12 10 9 12 14 17 25 24 26 21 22 21 21 23 24 21 22 25 27 25 25 25 26 26 25 27 29 27 27 26 25 25 25 27 29 29 28 26 25 26 26 26 25 19 8 18 20 21 20 20 17 19 21 17 16 
39 36 31 35 86 104 75 24 36 99 81 32 15 11 18 14 13 16 16 9 13 14 11 9 8 7 10 7 13 12 13 21 22 22 20 23 22 20 23 25 25 22 26 24 24 26 27 27 26 23 26 27 28 28 29 26 27 28 23 24 26 27 24 25 25 25 26 26 22 11 11 18 19 19 18 19 22 21 15 14 
99 95 89 90 107 104 60 24 43 97 78 31 14 13 13 16 14 12 14 11 13 11 12 7 9 9 10 9 13 13 12 18 21 23 21 20 21 21 21 20 23 22 24 24 23 25 26 24 24 25 29 30 26 25 26 25 26 26 25 26 25 25 27 26 23 27 26 27 23 13 9 13 19 19 19 20 24 21 13 15 
95 98 99 99 99 89 48 27 51 100 81 27 14 10 15 18 14 14 14 12 15 13 12 10 9 8 13 8 9 14 12 20 20 22 21 20 21 23 25 21 22 23 23 25 25 25 26 23 29 30 27 27 26 26 26 26 25 28 26 27 27 24 26 27 28 28 25 29 25 20 16 7 16 17 19 21 21 23 15 14 
53 60 71 81 79 65 33 23 57 104 79 29 16 12 18 18 16 21 15 16 15 16 14 15 12 8 15 11 14 11 18 18 23 24 22 22 23 21 26 26 26 25 25 24 27 26 28 29 30 28 27 28 30 30 26 29 27 27 28 27 28 29 29 28 27 27 28 28 26 24 20 8 14 13 18 19 20 20 16 17 
26 27 24 32 29 29 24 27 58 111 80 30 16 18 16 17 16 20 17 16 15 16 12 15 11 15 17 13 14 17 15 22 23 28 24 24 22 22 28 27 27 27 24 29 30 28 28 26 29 30 28 29 27 27 30 28 29 28 24 29 25 28 26 28 29 31 32 31 28 23 27 21 12 8 13 15 15 20 15 18 
43 40 31 30 23 26 25 30 71 115 83 28 15 18 19 20 19 17 19 16 16 16 14 13 11 14 15 12 14 12 17 24 24 25 24 22 26 25 25 28 28 27 26 26 26 25 27 29 29 29 31 30 26 31 30 28 26 33 26 26 26 28 28 27 29 28 26 32 25 24 23 24 19 13 10 14 12 15 9 14 
103 100 93 83 71 70 63 58 92 117 82 29 18 18 19 18 18 20 20 14 16 18 13 13 16 15 13 13 12 11 16 24 21 24 22 22 27 25 27 27 29 26 27 27 25 27 27 28 28 29 28 25 30 27 27 29 25 27 25 27 26 29 24 25 27 27 29 26 28 27 23 24 24 23 21 22 19 20 14 14 
99 107 106 103 97 99 92 91 101 102 74 22 16 19 17 19 19 19 17 17 20 21 13 13 13 14 15 11 13 14 15 20 26 25 27 25 25 24 28 29 25 25 29 28 27 26 27 31 28 24 29 33 29 29 28 26 26 27 26 28 25 27 25 27 29 26 30 30 28 26 27 26 24 22 24 25 24 23 16 13 
56 64 73 78 79 87 85 83 90 86 56 16 15 17 19 21 19 20 17 17 17 21 16 17 17 15 16 13 15 13 16 21 24 24 26 25 25 26 31 31 29 26 27 27 26 25 26 28 29 29 26 29 28 27 27 28 24 26 26 26 25 26 24 25 31 30 29 28 28 25 28 28 27 24 23 22 24 26 17 17 
22 26 28 29 30 35 37 41 47 41 27 17 12 19 23 19 20 18 20 19 19 22 20 20 13 16 18 19 15 13 18 22 25 25 23 24 24 27 26 26 25 27 33 26 28 28 28 31 30 28 28 29 27 28 28 28 28 27 26 29 27 31 28 30 29 31 28 32 28 24 28 26 26 23 24 21 25 24 18 21 
20 22 19 22 21 22 24 22 25 25 22 18 15 18 20 22 17 21 20 16 21 22 18 18 16 17 16 18 16 17 17 21 28 26 26 24 26 27 28 28 29 30 29 28 30 26 25 27 31 30 27 30 29 31 29 28 27 27 30 26 28 28 29 29 29 29 32 29 27 28 27 27 27 28 24 23 20 23 19 22 
19 19 20 20 21 19 23 20 20 23 22 15 15 18 23 23 20 19 20 21 18 19 19 16 19 17 19 18 18 18 16 21 27 27 26 26 25 25 28 26 30 27 30 27 29 26 28 29 28 26 29 28 28 28 29 29 26 26 28 28 28 28 29 27 26 32 30 29 27 25 28 24 26 26 25 23 24 25 21 19 
18 22 19 25 20 18 22 17 22 24 22 15 16 20 26 22 22 23 23 20 23 23 20 21 18 19 21 17 22 19 18 24 29 27 26 25 27 29 28 32 31 29 28 30 27 26 26 30 30 26 30 30 29 29 32 31 27 27 27 29 29 31 28 29 28 32 32 32 29 27 28 29 30 28 28 24 25 28 23 21 
20 23 20 19 22 20 19 20 21 23 20 14 17 18 24 27 22 22 24 23 23 21 20 21 20 21 22 16 20 19 18 23 25 26 26 26 29 22 29 28 28 27 24 30 26 29 27 28 28 30 29 29 29 30 29 26 31 29 27 29 30 30 29 30 30 30 32 31 26 30 26 27 28 28 26 22 25 25 22 21 
21 24 26 21 23 24 22 18 22 22 22 18 16 21 23 23 26 25 23 23 24 24 23 24 22 22 22 22 21 17 19 26 26 27 29 30 28 26 26 27 24 30 27 29 31 27 31 27 32 30 28 30 28 28 29 28 28 30 27 30 28 29 29 28 30 29 32 33 30 30 26 26 27 27 28 27 26 30 23 28 
21 23 25 23 25 21 19 19 25 26 22 16 17 22 24 26 21 24 25 24 24 23 25 23 21 21 24 23 21 23 21 27 31 32 27 29 29 26 30 32 27 30 26 28 29 29 31 33 33 30 32 31 31 30 33 29 30 31 28 31 29 31 32 31 32 28 31 34 29 28 31 27 28 31 28 23 26 28 25 29 
21 22 26 24 23 24 23 22 26 25 22 19 18 22 26 26 23 26 28 24 26 28 23 21 24 25 26 24 24 21 21 28 32 31 27 29 29 28 27 31 31 32 30 28 31 30 32 31 32 30 30 32 31 32 33 29 28 31 28 28 28 27 29 27 32 30 32 33 31 31 30 27 28 30 27 24 28 28 31 32 
20 21 24 22 23 24 22 19 27 26 18 17 18 20 26 27 26 26 28 25 26 27 26 24 23 27 24 25 25 20 20 26 30 30 30 30 29 26 30 33 28 33 27 28 31 31 29 31 33 29 30 32 32 31 32 31 31 29 29 26 25 29 29 31 32 30 30 31 33 27 30 25 28 27 27 23 33 38 40 45 
20 20 22 24 23 23 21 17 27 24 21 20 18 22 27 28 22 26 30 26 28 29 26 27 27 25 29 27 25 26 28 26 31 30 27 28 27 33 32 33 31 31 30 32 31 31 33 32 33 29 31 29 31 30 31 32 31 28 26 28 29 30 28 26 29 30 32 33 32 30 31 30 28 28 26 31 50 46 38 43 
20 24 22 23 23 24 23 20 25 24 23 20 20 21 25 28 28 28 30 27 31 30 29 27 28 30 31 26 28 24 27 29 31 31 28 28 29 28 32 32 34 33 29 32 33 30 29 31 33 30 31 28 31 32 31 30 29 31 28 28 28 29 27 31 30 31 34 31 32 31 32 28 28 26 28 28 35 35 36 39 
23 21 22 22 26 24 24 21 25 26 20 21 19 21 26 32 28 29 29 25 28 31 25 29 32 30 29 29 25 26 27 26 32 29 29 30 30 30 32 34 33 32 31 32 29 30 31 30 33 28 31 34 31 32 30 31 30 29 29 27 29 28 27 31 29 34 34 31 34 32 31 29 31 31 32 31 36 35 33 35 
22 25 22 25 25 28 26 24 25 30 22 19 22 27 26 29 29 32 28 28 29 29 28 29 29 33 28 29 27 27 25 26 32 31 28 29 31 30 31 32 31 30 30 31 30 30 30 29 30 28 30 33 29 31 31 27 24 29 25 31 27 26 30 30 29 30 32 30 32 29 30 31 34 32 35 34 40 36 35 34 
18 20 22 20 23 26 25 27 25 28 20 23 21 24 26 31 27 32 30 29 29 31 31 32 27 30 30 31 30 27 27 29 33 34 29 32 30 30 35 33 34 34 28 31 28 29 29 29 29 30 31 31 28 29 30 27 26 27 27 27 27 31 29 30 27 32 31 32 32 34 33 36 40 45 49 55 66 81 93 110 
19 23 22 25 26 28 26 27 26 30 25 23 23 27 26 33 32 31 33 32 35 34 36 32 32 34 34 29 26 29 26 25 31 34 31 33 31 32 37 30 34 31 28 32 31 31 29 26 28 28 29 27 27 29 26 29 27 26 30 28 29 29 29 30 30 28 35 34 34 41 60 77 89 101 110 119 139 149 165 188 
22 24 25 23 28 27 28 26 28 30 25 26 25 27 30 30 30 34 34 35 33 37 35 34 34 33 31 28 26 29 29 27 30 32 31 33 33 34 32 34 34 33 28 28 31 28 31 30 31 30 32 29 30 28 27 26 24 33 27 26 29 31 33 30 32 29 34 35 34 60 103 119 128 133 146 155 165 186 200 219 
18 26 23 26 26 26 28 24 26 29 25 25 26 29 31 32 31 35 37 34 36 43 36 35 35 32 35 30 27 30 28 21 26 33 30 32 32 30 33 35 35 35 31 32 32 33 29 28 29 31 31 32 30 30 29 28 30 29 28 29 32 31 31 35 31 32 35 36 37 69 114 144 154 158 172 182 197 213 230 244 
20 23 22 26 27 29 28 23 25 33 27 24 30 29 28 32 37 35 37 31 36 37 37 36 33 36 40 37 33 34 36 33 27 31 32 34 33 30 33 35 32 36 31 30 32 30 29 28 30 28 31 32 29 28 28 27 27 29 28 31 29 29 30 32 29 31 36 36 36 67 118 152 158 169 178 192 206 222 242 244 
22 23 24 29 25 28 28 25 25 31 24 26 27 28 29 37 36 35 38 34 36 38 39 38 39 41 44 43 37 39 40 37 30 30 34 37 32 32 37 36 35 33 32 34 33 29 30 30 30 30 29 29 30 29 26 31 27 28 29 27 31 34 31 32 30 32 35 35 35 59 114 147 160 171 180 188 206 221 235 249 
21 23 24 26 25 28 27 24 26 32 28 25 26 29 33 34 32 36 35 35 37 42 37 39 36 40 46 41 41 38 40 34 29 33 36 34 32 34 35 36 33 36 31 32 33 33 30 29 29 29 29 29 28 27 30 29 28 27 29 27 30 29 31 30 30 30 35 34 39 57 107 142 163 171 177 187 201 219 234 245 
25 24 28 29 31 29 26 26 29 33 29 25 26 33 32 36 36 38 39 38 41 44 39 39 39 41 48 46 39 42 41 34 33 33 37 36 34 35 41 38 35 36 36 35 32 30 30 31 28 30 30 31 30 31 31 29 27 31 29 29 30 30 31 29 33 34 35 36 38 55 105 136 155 162 171 187 200 215 234 245 
25 30 27 29 28 32 27 25 31 36 33 29 29 32 37 37 37 38 42 39 44 43 42 41 42 43 49 46 40 45 44 37 31 35 37 35 36 37 40 42 36 36 36 33 34 36 30 29 35 32 29 30 32 33 34 33 32 31 30 32 29 33 31 31 33 36 33 36 41 51 98 132 151 161 172 183 197 215 234 239 
25 31 31 28 32 35 30 31 31 38 32 31 28 35 37 37 36 43 44 43 45 49 44 43 44 47 54 48 41 41 45 39 33 33 38 38 37 36 36 41 39 39 35 35 33 32 32 33 35 31 32 34 36 36 37 38 37 35 34 35 33 30 34 30 34 36 32 34 37 53 99 133 151 162 170 182 195 213 230 238 
27 32 34 32 34 35 34 32 36 40 36 30 35 36 38 40 40 41 45 44 50 50 46 46 48 50 53 51 42 44 46 36 33 35 37 41 38 39 37 43 38 39 35 36 35 35 34 34 35 34 34 36 38 39 47 46 40 42 36 34 32 33 34 33 33 33 32 36 34 47 97 126 149 159 167 176 181 181 211 240 
32 36 37 34 37 38 36 32 36 41 38 36 35 41 44 42 45 46 49 50 50 52 50 53 48 53 53 54 48 46 48 44 40 39 39 42 40 38 43 44 38 40 38 37 37 34 36 31 36 35 35 37 38 42 49 63 75 59 45 36 35 33 36 32 34 37 35 42 37 45 95 126 145 158 166 170 168 165 209 236 
35 43 42 41 36 37 42 38 37 43 37 37 36 40 47 49 47 48 49 50 54 60 56 55 55 56 58 58 54 53 52 47 40 38 45 46 43 44 42 44 46 41 39 37 39 40 36 38 39 39 40 39 41 45 76 193 164 99 60 41 37 35 34 35 37 39 40 39 42 47 89 125 151 162 165 175 177 194 220 237 
41 41 42 43 39 42 44 41 41 48 42 37 38 41 46 51 54 52 53 54 62 61 61 62 63 60 62 59 53 55 55 46 39 41 44 46 47 42 45 42 41 43 43 40 40 41 39 38 40 40 39 44 44 46 93 239 179 102 56 42 35 36 36 30 36 36 38 43 43 50 84 122 142 155 165 172 188 203 222 233 
47 43 47 46 47 49 46 47 44 47 45 42 43 45 51 55 58 57 61 61 64 64 65 65 67 68 69 67 57 53 54 50 44 46 44 51 47 46 42 43 43 44 42 39 41 40 38 40 42 38 39 40 42 46 61 94 90 66 50 41 37 33 35 33 38 39 37 39 39 46 85 119 147 162 164 176 190 206 215 230 
50 55 53 50 51 54 56 53 48 53 47 45 48 51 53 54 56 59 61 64 69 72 71 74 76 74 78 73 61 62 57 53 45 47 47 48 48 39 40 45 43 48 43 43 43 46 39 44 42 39 41 43 42 43 48 52 55 48 45 43 38 36 36 34 35 39 39 44 40 44 81 123 144 159 169 177 194 208 217 226 
68 70 66 55 55 54 57 54 49 50 51 48 49 53 57 60 62 64 63 69 74 75 74 79 81 80 82 77 63 60 58 54 47 50 50 50 50 49 57 73 47 49 47 45 46 48 44 43 44 43 43 46 41 49 45 44 48 43 43 40 42 35 32 36 38 39 39 37 40 40 73 127 148 162 170 179 192 205 216 228 


