P2
80 60
259
20 22 26 25 37 50 78 95 72 43 54 90 86 47 43 35 33 31 29 24 27 27 24 23 24 24 23 25 30 28 35 30 29 28 25 27 31 25 25 26 25 25 26 25 24 29 24 28 25 20 14 18 16 17 16 15 16 16 20 17 16 17 20 22 21 21 22 23 28 24 18 24 19 23 21 21 18 17 14 14 
21 25 20 23 34 52 87 98 65 40 60 93 83 44 38 37 30 31 26 26 26 27 26 24 22 20 25 25 28 27 35 29 28 30 28 27 25 24 26 26 23 26 25 24 24 27 28 28 27 17 15 15 13 15 14 18 20 16 17 18 17 15 17 21 23 22 25 26 27 20 20 22 19 17 22 20 20 15 13 7 
16 23 20 25 38 51 89 93 60 43 64 94 75 41 40 35 29 27 30 26 26 25 24 27 24 25 29 26 28 29 30 29 26 25 26 27 26 28 25 29 26 27 26 24 26 30 29 29 30 22 20 17 20 17 16 17 22 20 22 22 23 22 26 26 27 23 23 22 22 22 19 22 17 21 19 23 18 16 12 19 
19 24 22 28 36 50 92 95 50 44 72 93 74 41 34 30 28 30 27 26 29 26 24 25 24 27 28 27 33 30 30 29 27 25 28 24 28 27 22 24 25 25 23 25 28 28 27 27 28 25 20 20 23 21 26 26 26 27 29 27 28 26 29 27 28 26 22 21 26 18 17 20 21 26 22 19 16 12 9 10 
16 25 21 29 38 63 102 94 50 39 75 92 67 36 33 31 27 25 28 23 25 21 27 28 25 26 25 29 29 29 33 28 28 24 26 26 25 23 24 23 24 24 26 26 25 32 27 28 28 28 25 27 27 28 31 31 30 31 31 30 26 30 30 27 24 23 20 24 26 25 18 21 18 23 20 23 18 9 11 12 
15 22 24 32 37 70 97 84 48 45 83 91 58 35 30 27 26 24 25 26 27 28 30 26 24 28 24 28 29 30 30 29 27 29 28 26 27 27 23 25 22 22 26 26 27 29 30 28 27 29 26 26 30 26 28 28 31 29 29 27 27 28 22 27 24 25 20 20 26 21 20 24 20 25 20 18 18 15 12 19 
15 25 27 35 37 70 98 82 43 45 85 87 53 31 32 28 26 25 29 25 23 24 24 27 25 30 25 25 28 29 33 27 29 28 27 26 25 28 25 24 26 22 23 25 25 27 29 30 29 30 29 28 28 29 30 29 29 25 29 24 26 24 26 25 26 24 26 23 27 26 22 24 19 25 24 23 21 14 17 16 
8 16 21 29 35 69 95 74 42 45 85 84 44 27 26 23 23 21 23 23 23 22 21 21 23 22 22 23 25 26 30 26 27 25 27 26 23 23 24 24 26 22 26 22 25 22 25 25 23 24 26 24 26 28 24 22 25 23 30 23 25 21 25 27 25 24 22 21 24 24 20 25 20 22 20 20 15 13 14 11 
6 13 15 27 27 65 95 72 37 44 88 82 44 27 23 23 20 22 21 20 25 24 22 21 24 20 22 23 25 28 30 25 23 24 25 23 24 23 23 25 25 24 24 25 23 25 28 27 26 26 22 25 24 25 25 26 25 24 26 25 24 26 29 26 28 29 26 23 26 26 19 24 23 22 24 19 16 18 17 14 
6 5 3 0 11 73 93 65 30 45 95 83 43 27 25 23 20 20 19 21 22 23 22 19 23 22 26 23 24 27 28 26 23 25 26 23 25 25 24 26 27 27 30 27 27 27 28 28 24 25 21 25 23 25 27 25 28 30 27 28 28 29 30 26 27 24 28 22 26 23 21 23 22 27 25 23 18 15 17 16 
11 18 11 2 15 81 95 61 22 48 101 84 29 15 14 16 16 19 17 19 20 20 19 19 22 21 23 22 21 23 27 28 22 24 23 23 22 24 25 24 22 26 26 27 25 28 27 25 23 23 24 21 24 25 24 26 26 30 31 27 30 29 29 27 29 26 27 24 26 26 22 24 25 23 22 19 19 16 19 21 
15 22 20 16 22 89 96 57 24 55 97 75 22 11 11 11 7 10 12 15 15 19 19 22 18 19 20 20 23 22 28 24 24 25 23 24 24 24 21 26 24 26 24 27 26 27 27 27 26 23 23 24 27 27 26 25 27 31 31 34 24 30 27 28 27 28 27 27 24 22 24 26 24 26 23 23 20 16 15 22 
12 17 17 15 17 84 91 57 23 58 99 69 17 13 10 11 9 8 9 7 4 7 5 8 9 16 16 16 18 19 24 21 21 20 20 22 24 24 23 26 24 24 24 25 23 27 27 25 22 25 24 26 25 27 29 27 28 28 28 27 29 27 28 26 24 29 29 24 25 21 23 24 22 22 22 21 22 16 17 18 
13 17 18 14 24 90 84 49 29 64 98 67 24 12 13 8 9 8 9 7 10 7 7 6 5 6 8 10 9 8 10 10 13 21 19 19 23 22 26 22 26 26 22 25 25 25 22 26 29 27 27 27 25 29 30 28 29 26 30 29 29 27 27 28 27 30 28 22 24 24 24 25 26 27 23 22 21 17 17 21 
11 15 18 16 35 89 78 45 25 71 96 59 21 13 16 11 13 9 9 7 8 5 7 5 5 7 6 7 8 6 10 6 4 5 4 11 17 21 22 22 25 21 27 27 27 29 27 29 27 29 29 29 28 31 29 28 28 29 28 29 29 28 27 27 28 29 28 24 26 23 23 29 27 26 23 26 22 16 15 18 
10 17 15 16 37 92 80 39 26 77 93 53 20 11 15 15 14 12 11 7 9 9 6 9 6 9 7 2 4 7 7 7 5 3 6 17 18 21 20 25 20 24 25 26 23 27 28 27 27 27 27 26 28 31 30 31 29 30 32 29 29 28 28 26 30 31 27 25 21 23 23 24 24 27 26 25 22 19 17 19 
9 17 19 19 42 96 76 36 22 82 88 51 19 13 16 17 12 11 9 10 8 10 10 8 4 6 8 4 9 9 9 6 8 16 20 21 24 25 23 19 21 23 23 23 25 26 31 26 26 28 27 29 31 30 30 29 28 29 27 31 28 30 30 27 25 29 29 27 24 19 25 26 24 25 26 22 24 21 17 20 
16 16 16 20 45 99 77 35 25 88 85 48 22 20 17 17 14 13 14 11 13 10 11 11 8 7 9 7 10 12 10 16 20 26 24 22 23 24 26 23 23 27 28 26 27 26 30 29 29 29 29 30 33 30 29 31 30 31 33 30 30 29 29 28 27 30 32 27 25 24 27 27 28 25 28 25 24 21 18 19 
13 15 20 18 48 92 66 30 26 85 80 42 18 15 17 15 11 11 14 11 11 10 10 10 7 8 7 9 11 9 17 21 20 22 25 19 22 24 25 25 23 21 26 26 28 28 27 26 27 28 26 30 30 29 30 28 25 29 29 29 31 28 29 30 26 30 31 29 23 19 21 24 25 27 28 24 27 20 17 19 
13 19 17 20 59 95 70 26 27 83 82 40 17 16 15 15 17 14 15 11 11 10 11 12 13 9 10 8 11 13 19 27 24 24 20 18 22 20 21 26 24 25 20 23 25 25 26 29 27 28 28 28 31 27 31 29 30 29 29 31 28 30 26 29 27 28 28 27 24 19 22 24 24 26 26 23 25 21 18 21 
17 23 20 22 69 99 70 30 34 94 80 39 22 16 17 16 16 14 14 13 11 10 9 10 11 11 10 10 9 13 20 23 22 25 20 20 21 23 20 24 25 23 25 27 25 28 28 29 27 27 29 27 29 27 29 28 27 27 32 29 28 30 32 29 30 31 30 30 25 19 20 27 26 24 24 22 20 21 22 21 
39 37 35 36 85 105 72 27 38 95 80 35 18 17 18 13 15 15 17 11 13 13 12 11 9 10 10 8 12 13 15 20 25 22 21 20 19 23 21 24 24 23 23 25 24 28 26 27 28 26 27 28 30 30 30 29 27 31 29 26 31 29 31 31 26 31 31 30 29 21 17 24 24 25 24 23 23 22 16 18 
99 99 91 89 107 107 59 27 45 93 76 35 18 17 14 15 13 11 13 13 15 12 12 11 8 10 11 11 12 12 12 19 23 21 22 19 22 21 21 21 23 25 25 26 24 27 29 28 27 27 29 30 28 27 28 26 29 27 28 28 30 27 30 31 26 33 32 28 27 21 17 24 25 24 25 25 27 22 22 20 
97 100 104 101 102 94 51 29 54 95 75 31 18 13 16 17 12 11 13 14 15 13 12 11 10 8 13 12 9 13 12 19 20 19 19 21 23 23 21 23 25 26 26 28 27 28 27 25 29 28 29 26 30 26 29 29 28 29 30 30 31 28 32 26 31 29 33 34 28 25 21 22 24 26 21 26 23 19 17 24 
55 65 75 84 78 68 34 29 58 100 78 31 22 18 17 19 18 15 16 16 15 14 16 16 16 11 15 11 14 15 15 18 25 24 22 25 26 25 26 28 29 26 27 28 29 31 29 30 28 31 30 28 30 30 28 27 28 30 32 32 34 33 34 30 32 32 32 32 31 26 25 23 23 26 28 24 25 25 22 23 
25 30 28 31 33 30 27 32 60 104 79 33 21 21 20 19 18 18 18 16 18 15 15 15 16 17 16 15 17 17 17 23 25 26 24 25 24 25 27 28 29 28 25 29 30 29 26 30 30 32 29 29 31 31 34 32 31 30 33 33 33 31 32 36 32 32 32 31 33 30 29 30 25 24 23 23 22 23 19 21 
43 45 35 33 23 27 25 34 70 111 82 29 20 20 21 17 19 15 18 17 15 17 15 17 12 15 15 12 14 15 15 25 29 24 25 25 23 27 27 27 28 26 28 27 25 26 27 29 28 28 31 31 28 33 31 29 29 31 32 31 30 33 31 32 32 33 30 31 29 28 30 30 26 27 23 22 22 18 18 20 
108 112 98 90 75 71 63 62 91 115 83 29 21 19 20 17 18 15 19 15 14 15 15 15 18 16 16 15 13 14 16 24 22 23 21 23 26 28 27 28 27 27 26 28 24 27 27 28 29 29 30 26 31 29 32 29 26 31 30 28 30 33 31 30 33 28 33 32 30 26 26 30 27 32 28 28 25 24 21 21 
104 112 111 107 102 101 97 94 104 104 75 26 21 18 18 20 19 17 18 17 18 17 16 15 18 15 16 14 16 15 17 21 26 24 27 25 26 25 29 28 27 29 27 29 26 27 27 30 32 26 30 30 31 30 31 30 29 29 33 28 29 31 32 29 32 31 33 31 29 29 31 32 31 29 30 30 26 24 23 27 
58 69 76 81 80 91 89 93 94 88 54 21 21 22 19 18 19 17 18 18 18 20 19 19 20 18 19 16 17 14 20 20 24 26 27 26 26 28 33 31 30 30 28 26 26 28 31 28 28 31 29 29 30 32 32 30 32 30 30 29 30 30 32 30 33 32 33 32 31 30 30 33 31 29 31 26 27 28 24 28 
22 29 32 29 31 38 39 46 48 42 23 22 20 22 22 19 19 18 21 19 21 21 19 21 16 19 19 19 17 17 17 23 24 25 23 26 26 28 28 27 28 29 30 28 27 31 31 29 30 29 28 30 29 30 31 30 32 31 33 33 35 32 32 33 31 33 32 32 33 29 31 31 27 27 27 24 27 26 31 29 
21 26 22 22 22 24 24 26 25 23 20 22 21 23 21 21 21 21 20 17 20 21 20 20 20 21 17 17 20 19 19 22 29 26 28 21 26 26 30 29 31 29 28 29 31 31 29 27 30 34 30 29 31 32 33 30 30 33 34 32 33 31 34 33 33 33 36 34 34 33 30 33 31 34 32 27 27 27 25 28 
17 25 23 22 19 22 22 24 23 24 19 20 22 21 23 23 22 19 19 20 21 21 21 20 20 19 22 19 19 17 18 22 26 28 27 28 24 28 29 28 29 30 28 28 29 28 28 28 27 29 30 32 30 29 33 31 30 31 33 31 32 32 34 32 32 35 33 31 34 29 27 30 30 35 31 28 29 29 27 30 
18 25 24 23 21 21 21 24 24 25 18 20 21 23 24 22 23 23 21 20 23 24 24 22 21 20 20 18 19 20 18 26 28 26 27 27 25 31 28 29 32 30 30 29 29 29 30 30 30 32 32 31 28 31 33 31 31 31 33 33 31 35 33 36 33 37 34 34 33 31 30 34 34 37 35 31 30 32 29 31 
18 26 22 18 18 22 19 23 23 22 22 23 21 22 24 21 24 23 20 25 21 23 24 22 22 23 21 21 22 16 19 24 28 25 26 29 29 26 27 30 32 28 28 32 29 29 28 30 32 35 31 30 33 33 31 29 32 33 30 34 34 33 33 34 33 34 35 33 32 33 28 33 35 35 33 29 26 28 30 26 
20 29 28 22 20 24 20 20 24 22 20 22 24 25 25 25 25 22 21 23 24 26 23 25 22 23 21 22 23 19 18 25 27 28 27 28 28 28 28 29 27 32 28 29 30 28 31 29 29 32 30 31 32 30 32 30 31 33 32 34 33 32 33 34 34 36 34 34 33 33 30 35 34 35 37 32 33 30 34 36 
20 25 26 22 21 21 22 24 25 25 21 19 25 24 25 24 26 25 22 27 23 24 24 25 23 21 23 24 23 22 23 27 30 28 27 27 31 29 31 30 30 30 29 27 27 34 33 33 32 32 33 30 34 30 33 31 35 33 33 33 35 32 36 34 33 31 34 35 31 33 33 33 31 35 37 29 30 32 33 41 
17 25 26 23 19 26 23 22 27 26 22 22 24 25 27 25 25 26 25 25 26 26 21 24 28 26 25 24 27 23 21 25 31 29 28 29 30 33 27 32 31 31 31 29 30 32 31 33 30 33 31 32 32 34 31 31 33 34 32 32 32 33 34 32 31 34 35 36 34 34 29 34 33 33 36 34 34 32 35 46 
20 21 24 22 20 27 21 21 29 23 20 23 25 24 26 26 26 25 26 25 22 27 26 24 24 25 25 26 26 24 21 24 27 31 31 27 31 29 29 30 29 33 27 28 30 31 33 34 32 30 32 33 32 32 32 30 33 33 35 32 31 33 33 34 34 33 34 33 36 32 29 31 32 35 35 33 36 38 40 50 
22 22 24 23 21 23 21 23 30 23 18 23 24 24 26 27 27 26 28 26 25 27 26 26 26 26 26 28 28 25 28 24 31 32 28 29 29 31 30 31 30 29 30 32 31 32 33 30 31 32 32 32 33 30 31 31 35 30 31 33 32 34 34 30 34 34 34 36 35 34 32 35 32 32 34 37 43 45 42 41 
20 27 24 26 25 28 22 22 27 27 21 22 25 25 29 29 28 28 29 26 30 27 28 27 29 28 30 28 29 26 26 28 31 30 31 29 28 31 31 30 32 35 30 31 32 33 30 33 31 33 33 29 32 32 31 32 33 33 32 33 34 33 33 30 34 34 35 34 34 32 33 36 33 33 35 36 34 35 42 44 
20 24 23 23 23 25 23 25 26 24 22 24 26 29 28 27 29 28 29 30 32 30 29 30 30 31 28 28 30 25 26 25 32 31 31 30 31 29 32 33 32 34 30 33 31 35 33 32 33 29 32 31 32 35 32 33 32 33 34 33 33 33 30 34 34 35 36 33 37 37 31 37 36 36 32 37 36 34 37 43 
18 25 24 25 25 28 24 25 27 25 22 25 27 29 28 29 27 28 29 29 31 28 30 30 28 32 29 29 29 27 26 25 32 31 29 31 31 32 29 30 32 32 32 31 29 32 28 31 33 27 30 32 30 32 30 29 29 31 31 31 31 32 31 34 33 32 33 31 34 31 34 36 37 37 37 37 37 37 37 38 
20 22 26 24 22 27 27 30 29 26 20 25 26 29 30 29 27 32 31 30 33 32 31 34 30 31 29 32 29 26 27 28 34 34 30 31 32 31 33 34 32 32 30 31 29 29 31 29 31 30 30 29 32 31 31 26 26 30 33 32 32 31 33 35 31 31 34 35 37 35 36 41 41 47 51 58 69 77 94 110 
18 26 25 24 23 27 28 30 29 28 22 28 28 31 30 33 29 32 29 29 36 33 35 32 35 32 30 31 28 27 25 25 32 31 29 32 35 32 32 30 32 29 31 31 32 32 29 27 31 29 31 29 27 29 33 32 30 31 32 30 33 32 32 33 34 35 38 35 38 44 63 79 91 105 114 123 136 145 165 190 
21 29 28 24 24 29 29 29 26 26 25 27 31 30 33 32 31 34 33 34 36 38 35 38 36 35 35 29 29 32 27 26 31 32 32 34 33 35 32 33 35 32 28 34 31 31 32 33 32 35 34 32 33 31 34 30 28 33 31 31 35 34 36 36 35 34 39 37 37 64 99 122 131 139 147 156 167 184 202 230 
22 28 26 26 24 28 29 29 27 28 23 27 31 35 32 34 31 34 37 35 40 41 33 37 38 34 34 31 30 30 27 24 29 30 32 35 33 34 33 35 36 36 30 32 34 32 33 31 30 32 31 30 33 30 31 29 31 31 32 33 32 34 32 35 34 34 39 39 45 75 113 148 158 161 174 183 199 211 232 249 
23 24 28 21 27 31 28 28 25 28 25 27 31 33 32 32 32 33 34 33 38 35 38 40 39 35 38 41 37 35 35 31 29 30 33 35 31 32 34 34 35 34 32 32 32 33 31 31 31 29 30 29 31 29 30 30 26 31 33 30 32 32 32 35 30 33 36 38 36 69 117 151 165 176 183 195 204 221 242 253 
23 28 29 26 22 29 29 30 29 32 25 27 33 34 33 38 35 34 36 35 37 37 36 38 40 43 44 46 42 38 39 34 32 33 35 36 33 33 38 37 33 34 32 35 32 33 32 33 32 31 31 31 34 29 29 33 31 30 32 28 35 37 37 34 33 34 38 36 39 63 112 152 164 176 183 191 209 219 239 258 
24 26 26 24 24 25 27 28 27 34 27 27 33 33 39 34 34 35 37 36 38 41 38 39 38 43 44 45 40 40 39 32 29 32 35 33 35 35 32 35 34 37 33 35 31 34 33 30 29 32 33 29 33 31 32 31 30 32 33 31 33 36 36 34 35 34 37 34 41 61 107 147 162 174 182 192 202 218 239 252 
25 30 30 29 27 32 26 29 29 31 27 29 32 37 35 36 35 35 38 37 42 42 42 41 39 41 48 46 44 45 39 34 31 32 34 36 38 36 37 37 35 36 34 35 31 34 33 32 28 30 30 31 33 32 32 33 30 34 35 29 34 33 36 34 34 38 37 37 39 61 107 140 158 169 175 193 199 214 233 251 
28 30 30 29 29 34 27 30 34 36 32 32 34 35 37 38 37 39 40 39 42 44 41 43 44 45 48 46 43 43 40 37 31 34 38 36 36 35 35 38 38 37 35 36 33 36 32 31 35 30 30 33 35 33 36 33 36 33 36 32 35 34 34 36 35 38 39 38 45 55 101 135 155 162 173 186 195 212 232 251 
27 35 35 29 29 36 32 37 34 37 29 31 36 34 40 38 38 41 42 44 49 48 43 46 47 47 53 48 45 43 42 39 34 34 38 38 39 38 38 38 40 39 33 36 35 33 34 32 35 31 35 36 36 36 41 41 39 36 39 37 34 33 35 40 38 38 42 37 42 51 98 136 158 166 172 182 197 206 228 247 
30 37 36 30 35 37 35 35 38 38 36 34 40 37 40 41 41 41 46 44 48 50 50 49 49 51 54 50 48 44 45 39 36 39 40 42 40 39 39 40 41 38 34 37 37 35 37 35 36 32 37 37 39 40 47 49 42 41 40 37 37 38 38 40 38 36 39 39 42 55 96 134 150 164 169 180 180 184 214 249 
36 38 36 36 37 38 38 37 40 38 37 39 43 43 45 45 44 45 47 49 52 52 52 54 53 55 58 55 53 50 48 43 39 37 40 44 42 41 43 43 40 40 38 38 38 36 40 35 40 37 37 36 39 42 52 67 78 64 52 38 39 37 41 38 38 40 42 44 42 52 94 133 155 162 170 173 168 161 212 259 
34 43 42 41 38 42 40 43 41 41 37 38 46 49 47 47 50 49 52 51 56 60 59 57 59 58 62 63 55 54 52 47 41 41 44 48 45 46 43 44 44 44 41 42 39 41 40 39 38 39 39 40 44 44 79 196 170 106 63 44 43 41 42 41 42 41 44 41 47 51 92 131 154 164 170 184 184 194 222 247 
41 43 42 46 42 45 41 43 44 43 44 42 47 50 50 51 50 54 54 56 62 63 63 63 66 63 65 60 60 59 54 46 42 45 47 50 46 45 45 44 42 42 44 41 40 41 39 41 40 39 41 42 43 48 94 241 183 105 61 45 40 41 42 40 37 44 45 46 49 52 88 128 149 168 173 178 192 203 222 240 
48 50 49 47 48 49 48 51 47 49 48 44 47 53 52 51 56 57 60 63 64 67 65 65 68 67 67 64 60 57 57 49 44 47 47 52 48 44 43 41 42 42 43 38 43 41 41 40 40 40 40 41 44 46 64 93 91 70 54 45 39 38 40 37 40 42 41 43 46 49 86 125 152 167 171 180 193 207 219 239 
52 57 59 54 52 55 53 56 51 51 50 50 55 53 57 56 56 60 59 61 69 71 73 77 76 73 77 75 66 59 55 50 45 48 49 48 48 42 42 44 45 44 42 42 45 45 43 46 45 43 39 44 43 44 49 54 55 54 51 45 43 41 40 39 37 42 42 43 43 49 81 124 148 163 177 183 192 207 224 234 
72 74 67 59 54 57 55 59 52 55 48 52 59 61 62 59 57 62 66 71 76 76 78 81 80 84 82 78 67 62 58 54 47 48 49 54 53 51 58 73 48 48 51 48 48 47 49 48 46 46 44 45 44 46 48 50 51 50 46 41 44 40 42 41 42 43 42 43 44 45 71 128 150 168 175 183 194 208 225 239 


