P2
80 60
242
185 189 203 210 211 216 219 218 222 219 222 220 215 218 211 206 206 203 208 213 219 218 212 215 212 215 214 219 220 217 221 221 216 218 215 216 215 212 205 195 189 183 184 180 148 155 175 131 116 112 126 111 91 78 110 142 126 126 87 74 132 142 137 84 77 83 126 90 101 74 69 85 70 86 83 81 95 74 66 56 
193 194 206 213 216 217 217 221 222 223 217 219 214 211 210 204 204 207 208 212 212 217 208 208 212 213 211 213 217 217 218 217 217 213 213 215 211 209 204 199 189 188 197 189 148 145 133 130 123 122 99 95 91 84 94 141 151 137 76 63 101 146 108 84 107 92 82 71 80 57 80 121 98 94 91 85 101 81 57 56 
202 206 213 219 221 222 223 229 225 223 222 218 217 212 207 206 204 209 214 215 214 217 213 213 211 213 219 216 219 220 223 221 217 218 215 218 215 211 210 202 197 199 185 166 156 147 146 133 138 118 123 136 139 91 87 112 130 103 84 68 72 81 75 72 127 133 77 94 118 80 76 134 126 81 76 80 84 64 61 48 
207 208 217 223 226 226 225 221 228 226 220 218 212 209 206 208 212 214 215 215 220 218 216 213 215 215 215 220 221 218 220 219 222 217 216 219 218 214 211 207 197 189 179 169 168 179 182 158 129 122 141 175 175 142 82 81 82 85 71 109 91 75 94 111 95 99 74 68 75 61 64 87 82 76 86 90 79 76 61 52 
217 217 222 227 227 231 226 222 225 225 224 215 214 211 210 211 216 221 215 219 217 220 219 217 216 217 216 221 218 218 221 219 221 219 219 217 216 213 214 207 202 199 190 177 174 188 176 148 134 125 125 174 175 131 88 84 82 86 79 127 115 78 118 104 77 85 81 98 80 57 83 75 63 89 82 74 112 119 75 50 
217 220 225 228 227 228 223 223 224 223 215 215 216 210 212 217 220 221 222 225 218 218 214 214 217 216 215 219 221 221 220 222 219 222 220 218 217 215 215 208 209 205 199 182 176 169 164 158 162 125 132 131 113 103 113 135 133 88 83 97 110 79 76 75 79 98 86 101 78 74 121 118 71 90 71 76 85 70 52 49 
220 220 233 230 230 232 229 228 225 222 217 215 215 214 220 220 226 228 225 226 220 221 220 217 219 216 221 219 220 218 222 219 224 220 221 222 221 214 216 211 211 206 202 194 191 181 173 172 171 148 137 138 116 106 132 163 146 139 90 82 77 71 126 124 112 86 76 74 72 60 113 122 66 74 71 116 118 57 66 81 
223 225 229 232 229 230 225 228 228 221 212 217 216 219 224 225 226 227 226 229 225 222 221 218 219 216 220 221 223 225 225 227 224 220 219 221 217 217 220 212 211 208 201 197 195 188 184 177 162 160 167 193 167 116 123 173 164 119 86 106 92 75 121 146 143 79 93 118 117 59 69 62 57 115 102 85 82 51 67 108 
228 228 235 233 228 229 226 227 222 219 216 217 217 223 231 231 233 231 229 228 223 223 222 218 215 215 216 221 223 220 223 223 222 221 221 221 221 217 215 213 213 209 207 201 199 201 194 192 173 168 186 187 162 112 108 120 110 92 91 86 76 89 84 137 106 84 91 139 126 55 50 92 68 70 58 67 58 62 51 47 
229 225 233 228 228 226 222 224 220 220 217 216 226 231 232 233 232 231 232 227 225 220 219 218 215 214 217 217 221 218 223 221 225 221 221 218 218 216 214 215 211 211 207 201 200 200 204 197 188 180 170 154 129 132 125 112 105 93 112 131 95 88 85 83 78 76 69 89 87 53 75 127 122 90 59 104 88 43 53 67 
228 230 234 231 228 227 224 225 221 222 222 225 225 231 233 235 232 234 228 227 224 222 221 214 217 215 218 220 223 220 222 220 223 221 222 222 217 218 215 214 212 212 206 203 202 208 207 208 198 183 170 161 138 125 119 109 100 107 164 160 140 91 112 94 100 122 90 63 72 51 66 120 143 73 57 72 78 40 74 130 
231 228 234 228 223 225 220 224 224 224 227 232 233 233 235 236 234 233 231 226 226 222 223 219 216 217 216 219 222 221 220 222 223 218 218 218 216 214 219 215 213 211 210 203 202 203 209 208 202 187 180 192 181 136 146 119 101 99 162 164 153 98 91 78 108 132 92 80 109 76 60 71 71 53 45 40 39 66 52 71 
227 224 229 228 223 226 221 222 229 233 231 231 237 234 237 237 234 233 229 226 221 222 222 218 218 217 217 218 219 219 221 218 221 217 218 218 216 219 215 215 213 210 210 205 203 205 212 209 207 195 184 181 163 132 149 118 103 99 124 156 114 88 91 99 78 73 72 75 126 85 57 62 51 52 62 69 59 67 51 36 
224 223 226 225 223 227 226 228 230 236 232 238 235 238 237 238 232 233 229 226 225 222 218 218 218 216 215 213 219 219 223 220 220 219 218 217 217 216 219 217 215 210 209 206 207 205 209 209 208 194 181 170 159 144 132 132 139 112 97 89 91 80 89 79 73 75 73 74 106 74 86 98 54 41 107 104 86 34 36 65 
225 221 222 223 230 233 230 231 235 234 231 236 233 233 235 237 234 230 222 227 220 220 217 219 215 216 215 213 218 218 222 218 218 216 218 215 216 218 218 215 215 218 213 207 204 202 204 209 204 199 196 185 163 143 138 143 172 153 98 90 97 97 89 79 80 69 116 105 73 64 84 99 56 56 111 116 100 36 44 103 
222 222 228 227 231 233 233 239 238 235 231 234 231 236 235 234 232 231 225 220 220 220 220 216 219 218 219 219 218 217 216 219 218 217 216 217 217 220 220 216 213 215 212 207 201 203 203 208 208 204 193 180 166 162 144 156 156 122 93 94 123 126 121 80 69 63 96 121 76 75 79 57 65 59 69 120 81 53 38 91 
224 228 235 234 233 237 236 237 242 239 236 235 235 235 236 235 230 230 228 221 218 217 218 219 218 219 218 218 220 220 220 218 218 215 217 216 216 220 220 219 217 217 213 210 206 205 200 209 206 212 202 192 178 166 146 130 115 110 97 90 97 139 121 77 75 65 78 70 68 77 68 84 96 68 47 62 45 34 53 42 
228 231 238 237 239 238 239 238 240 239 238 233 235 235 236 233 232 228 226 220 219 215 218 219 220 218 217 215 220 220 216 218 219 216 214 219 218 219 218 219 219 218 214 213 207 199 203 208 208 211 208 200 183 156 153 172 126 100 91 82 73 96 82 65 70 66 73 58 71 55 57 70 66 56 65 60 43 75 88 58 
232 229 240 236 237 239 238 238 239 237 231 233 232 234 232 229 227 227 225 221 215 213 216 217 221 218 219 217 218 219 217 217 219 218 217 216 216 219 220 221 219 217 217 215 208 202 200 205 211 214 208 204 187 163 154 147 112 96 100 100 105 75 59 54 115 120 115 117 71 50 97 94 51 56 116 80 45 54 109 61 
234 235 239 238 235 238 233 237 240 235 231 232 230 233 232 230 228 223 222 218 215 213 215 219 218 219 219 218 218 216 216 218 218 217 215 217 215 220 218 220 217 219 217 218 213 204 201 209 214 213 212 200 193 185 149 122 115 141 119 114 148 139 64 71 127 129 128 124 118 81 94 125 61 56 51 60 51 35 36 31 
241 236 241 236 234 239 234 233 236 232 230 230 230 230 230 227 230 225 217 216 213 211 221 221 221 223 223 221 220 216 218 215 215 215 213 217 215 218 218 218 219 218 219 213 214 211 203 206 211 213 211 210 194 172 157 131 144 149 124 146 164 166 93 63 132 129 136 134 125 56 60 90 59 82 68 38 47 41 25 29 
234 233 233 231 237 237 231 227 235 228 228 226 233 229 229 221 223 220 216 210 212 212 219 218 221 219 219 219 219 217 216 216 213 215 215 214 215 214 219 217 218 215 216 220 214 208 205 205 211 212 211 203 195 182 189 142 152 161 171 175 164 162 89 58 117 133 141 144 112 47 55 53 51 61 38 62 108 92 90 45 
234 231 239 229 234 232 228 229 231 227 227 223 226 223 226 227 222 219 213 209 210 216 219 215 224 224 220 218 216 220 215 216 215 211 215 217 216 215 218 217 218 221 217 216 218 212 205 208 208 211 217 208 197 185 185 151 157 178 179 172 160 137 74 60 70 121 150 110 66 64 103 62 70 68 34 84 109 105 105 55 
237 234 236 233 231 230 232 225 235 224 225 223 224 222 226 224 223 219 211 214 212 216 222 223 222 221 221 218 218 218 216 216 214 213 213 217 218 215 219 217 218 220 220 219 220 212 207 209 209 215 215 219 205 190 180 163 149 141 169 175 124 86 68 63 67 62 65 64 63 86 100 73 59 57 35 68 122 123 116 59 
238 230 241 231 229 230 229 226 229 224 223 220 220 222 223 222 219 215 210 210 211 217 217 222 222 220 217 219 218 215 214 215 218 214 218 218 212 216 215 218 217 219 219 218 217 217 204 210 206 214 217 213 215 201 204 171 162 130 128 113 96 87 112 135 80 66 88 71 97 69 66 66 59 64 85 39 59 92 73 22 
232 230 236 230 230 233 227 223 224 223 221 222 218 226 222 223 218 214 211 212 211 220 222 223 221 224 216 220 216 214 215 213 214 211 215 214 212 215 217 220 220 222 218 219 220 218 209 210 208 213 218 220 216 214 201 192 179 149 146 130 97 97 131 127 83 109 115 74 89 54 64 100 64 67 60 48 27 18 7 15 
231 230 234 229 230 231 229 222 228 222 222 223 219 220 223 221 218 214 209 207 212 219 223 223 223 224 217 219 217 217 214 210 210 207 211 215 211 214 216 216 220 221 220 222 221 219 214 209 208 214 221 222 219 216 208 198 184 165 188 169 109 100 111 79 68 76 76 67 85 48 130 137 112 54 38 40 44 36 0 33 
230 229 234 229 228 230 227 226 229 226 221 223 224 221 222 221 217 213 205 205 210 221 226 222 224 224 219 217 221 217 219 212 214 212 211 212 207 212 217 215 219 221 218 221 226 221 216 209 204 206 222 222 224 219 211 208 194 181 170 146 132 121 80 76 94 101 68 88 82 52 102 138 115 57 73 101 44 20 47 101 
227 226 231 225 223 221 219 223 225 219 220 217 219 221 219 213 213 203 202 202 207 214 223 221 223 222 218 216 215 218 216 211 211 209 212 213 211 212 214 216 221 218 218 219 221 221 217 211 208 203 218 224 223 222 218 216 207 188 170 156 134 130 91 112 144 142 95 63 59 46 40 69 59 49 48 65 30 22 93 91 
227 224 230 224 224 228 225 221 224 218 219 218 219 217 219 216 209 208 200 202 208 220 221 223 224 222 219 215 215 214 214 213 215 208 211 214 212 214 216 218 216 220 219 220 222 222 218 212 207 205 219 222 221 224 225 218 216 207 189 163 134 112 103 113 140 147 100 61 77 69 44 64 45 47 54 42 36 46 91 79 
229 225 231 230 227 226 224 218 224 219 221 218 216 219 220 213 207 202 199 203 213 216 221 223 222 221 220 217 218 217 215 215 216 214 211 213 211 215 219 215 219 221 219 224 224 223 220 215 207 204 212 222 223 227 225 225 221 209 197 176 165 150 102 91 119 111 64 61 90 58 57 49 35 44 39 63 49 32 96 91 
226 220 227 226 227 225 221 218 220 220 219 213 209 214 218 215 208 199 198 207 213 219 222 221 220 224 220 220 217 216 211 218 216 214 214 218 215 214 215 217 218 218 218 220 218 222 218 215 205 201 206 216 223 225 229 224 219 213 205 183 169 155 110 91 85 70 61 49 51 47 36 37 87 129 105 48 35 35 67 95 
223 221 226 221 222 225 221 217 222 216 214 215 212 209 211 207 206 198 201 205 211 218 220 220 222 222 220 214 212 215 213 216 220 213 213 214 212 216 215 217 217 215 214 218 220 221 216 211 203 196 203 211 219 223 226 222 221 216 202 183 163 140 120 121 83 68 93 124 95 45 52 91 128 126 122 84 50 30 29 105 
223 221 223 222 223 225 222 219 224 219 220 209 213 214 214 208 204 201 199 206 213 215 217 222 218 220 216 214 211 214 216 214 216 215 213 212 212 213 216 216 218 217 215 216 216 218 219 213 200 196 198 207 217 221 226 227 222 211 210 196 175 152 137 151 98 108 158 156 140 49 46 104 121 121 117 88 49 33 57 35 
217 217 227 222 223 224 220 215 222 215 216 216 210 218 215 207 202 195 197 203 210 216 216 218 219 216 214 212 210 214 216 214 214 210 210 208 212 211 213 212 213 213 212 214 213 213 213 208 197 192 194 200 211 215 220 219 220 217 209 199 184 164 142 121 101 100 152 172 134 44 37 94 105 98 106 59 52 60 87 54 
217 215 222 221 222 221 215 217 219 215 213 213 213 209 213 207 202 194 193 202 211 211 217 218 217 216 209 213 211 210 212 211 211 212 206 210 207 210 212 213 209 205 208 213 213 207 206 205 194 190 192 197 206 212 220 221 220 217 210 209 192 175 162 140 119 107 102 120 77 48 43 58 96 105 73 55 75 63 49 65 
214 215 221 219 219 222 219 214 221 218 211 211 211 205 207 204 199 195 191 200 206 214 213 216 215 212 212 209 209 211 207 213 216 210 206 205 210 208 207 210 216 208 205 209 207 206 206 204 195 188 189 193 203 212 218 222 220 218 214 205 193 184 166 151 133 109 99 85 67 70 62 52 42 48 43 74 72 64 71 58 
208 212 218 217 218 219 214 210 218 213 213 211 209 207 209 206 197 195 195 204 206 211 215 214 213 211 207 208 209 210 207 207 212 210 205 207 208 204 205 205 207 206 203 205 206 204 199 196 192 184 185 190 199 210 215 217 215 218 216 210 195 189 176 157 141 125 109 88 110 136 131 62 50 55 60 62 73 60 100 63 
207 209 218 218 214 217 218 216 217 215 215 212 208 207 204 202 198 196 197 202 207 212 214 212 211 210 210 208 206 204 205 208 210 206 206 207 205 208 206 206 201 201 198 197 203 199 198 195 183 181 183 193 201 207 212 216 219 213 215 209 195 187 179 162 144 146 129 91 114 140 119 69 56 93 80 69 74 72 65 71 
201 206 216 216 214 217 216 216 218 213 210 208 207 207 202 199 198 192 195 204 205 209 208 212 208 207 209 207 203 202 200 205 206 209 208 207 203 203 201 200 198 194 196 198 197 194 189 190 181 176 182 190 195 198 211 215 216 215 212 209 199 189 177 166 148 130 116 98 108 97 74 69 58 75 57 66 70 72 64 62 
198 203 214 214 216 217 215 213 217 212 209 210 205 206 204 199 196 190 196 204 202 208 210 208 204 210 208 207 206 202 201 199 202 200 201 202 200 200 201 199 198 196 195 193 191 189 190 186 180 176 178 187 200 199 205 216 211 211 210 208 196 189 177 165 155 131 150 158 107 87 77 116 110 66 66 132 127 66 105 75 
192 202 210 211 212 216 212 209 213 214 209 207 206 201 201 197 195 190 192 201 201 209 211 205 207 208 205 202 203 203 202 201 200 198 199 199 198 199 197 195 193 194 189 190 189 186 185 182 173 175 180 187 198 197 209 206 208 206 206 199 189 189 178 167 155 148 159 163 116 88 111 144 124 67 94 144 127 80 55 56 
186 193 205 208 209 209 212 210 213 209 210 204 199 205 204 195 195 195 195 197 200 206 207 205 205 208 204 201 201 201 202 198 201 195 193 194 195 195 196 189 190 191 190 189 187 180 184 175 172 173 178 186 193 194 202 200 203 198 200 197 183 188 182 177 164 153 149 128 126 104 119 135 88 73 71 139 110 52 68 63 
175 183 199 204 207 207 208 208 210 210 207 203 198 198 200 193 194 194 195 200 201 205 206 204 204 203 201 201 200 198 197 199 197 194 195 193 191 192 191 188 189 190 188 187 185 181 179 173 166 173 174 184 190 192 194 198 198 194 196 192 188 191 189 183 180 171 163 144 143 128 104 96 80 72 59 69 72 48 86 57 
167 176 193 196 204 205 206 207 209 207 206 204 195 195 196 192 196 194 194 196 199 201 205 201 199 203 201 195 199 197 196 196 195 192 190 192 192 193 187 189 186 185 184 180 181 178 174 169 168 175 180 184 185 186 189 192 192 195 193 195 195 195 192 193 188 182 174 158 163 139 130 142 129 77 73 75 58 50 49 62 
158 169 186 192 200 204 204 206 206 205 201 196 195 195 194 199 194 196 199 198 200 199 200 201 202 200 196 198 197 197 196 195 196 195 188 190 189 192 189 188 183 186 183 182 177 176 179 169 167 171 176 179 184 184 184 189 192 192 194 204 198 200 199 198 193 190 188 181 172 156 144 133 103 96 143 155 117 50 95 138 
158 168 182 185 194 199 201 201 200 201 198 193 193 191 197 195 194 192 192 198 197 199 201 201 198 198 198 193 194 193 196 193 194 190 189 190 187 186 188 185 187 182 179 176 177 172 175 170 166 169 174 176 180 185 190 194 193 198 202 201 197 201 201 198 197 197 193 182 183 164 156 137 97 117 148 150 97 55 113 127 
170 175 170 180 190 194 195 196 199 194 193 192 191 195 193 195 197 194 189 194 196 200 197 197 196 196 193 192 193 192 190 189 189 190 186 188 185 185 183 183 182 176 179 173 175 175 174 174 172 176 182 181 186 187 188 197 197 198 200 205 195 199 202 198 199 200 196 187 186 165 160 144 110 120 108 114 57 59 73 100 
151 152 170 171 188 193 196 196 195 195 192 191 186 192 195 194 197 196 195 194 193 201 199 198 194 197 191 192 194 191 193 192 191 189 188 186 184 181 182 179 177 178 176 177 177 180 182 183 184 185 184 185 190 192 194 193 202 202 200 203 200 202 203 201 202 203 197 192 184 173 166 147 128 102 77 77 65 48 50 43 
136 138 164 167 178 188 191 194 190 188 190 182 185 191 196 195 194 196 194 195 191 196 196 195 193 194 194 190 191 195 192 186 185 185 182 184 181 179 176 175 176 177 177 176 182 185 189 191 189 191 190 193 193 194 194 199 198 204 204 205 196 198 200 201 200 203 199 191 187 171 167 154 127 106 119 125 75 65 53 55 
133 142 154 165 175 180 184 188 189 184 184 183 184 188 193 194 195 195 193 193 190 195 196 195 190 191 192 190 189 187 190 189 185 185 183 179 175 175 173 172 174 180 176 179 184 188 192 191 192 195 197 194 193 195 196 199 201 206 205 205 197 201 202 198 201 205 201 196 188 172 170 157 129 121 145 139 72 88 64 38 
128 136 147 165 167 178 183 182 181 176 176 180 179 188 196 194 197 195 191 193 191 198 195 197 192 191 189 187 190 188 188 185 184 181 181 177 174 174 173 174 179 181 179 182 190 192 194 197 198 199 193 196 197 195 199 202 204 204 202 208 199 203 203 201 205 204 202 193 192 174 171 167 137 124 128 92 67 68 49 76 
135 131 156 153 164 169 178 174 176 177 174 175 184 190 194 198 196 195 188 191 188 192 192 192 189 188 186 184 185 184 186 182 178 179 177 177 170 177 173 177 180 180 178 180 188 191 195 198 198 200 197 197 200 197 198 202 200 204 205 208 202 205 203 204 207 204 201 194 191 177 176 164 135 118 93 86 78 56 50 64 
119 134 149 145 161 167 171 169 171 172 173 177 184 190 195 194 199 192 188 192 189 194 193 191 189 184 186 184 185 181 180 178 180 176 175 173 173 174 178 184 185 184 179 183 189 194 200 200 202 199 204 200 203 202 202 203 204 205 206 210 206 208 207 204 204 204 203 193 194 179 174 166 140 125 140 100 72 100 85 37 
140 131 129 147 151 163 161 164 165 167 172 180 184 187 187 193 192 193 191 187 188 189 190 186 184 183 184 181 181 177 177 176 174 172 174 179 176 176 178 179 184 183 179 183 190 192 199 199 201 200 201 195 199 201 204 203 203 200 204 208 203 206 204 203 202 204 201 190 192 180 174 169 142 128 110 88 99 126 114 36 
134 116 133 137 151 157 158 159 166 171 171 181 182 186 189 192 192 192 187 187 186 189 188 184 181 182 183 178 178 180 178 180 181 179 182 184 177 181 184 187 186 187 181 178 193 193 197 205 201 197 204 202 204 197 204 204 205 208 205 209 203 202 197 201 202 202 203 193 194 179 174 169 146 125 111 82 87 90 61 29 
100 108 131 142 146 156 169 168 166 170 172 177 178 180 185 187 190 184 184 185 183 183 184 182 181 184 183 181 183 181 182 186 187 188 183 187 183 181 181 187 188 184 177 182 188 193 196 199 200 201 204 205 200 203 201 203 205 206 207 205 200 202 198 202 198 200 198 191 189 177 173 167 146 128 119 123 72 49 39 39 
96 119 131 139 146 158 166 169 174 173 171 173 173 176 180 180 186 186 187 185 183 186 189 187 184 187 186 186 184 187 188 188 187 191 186 190 188 185 186 188 189 181 177 179 184 190 194 199 203 203 202 201 205 204 201 206 205 204 205 203 201 198 197 198 196 194 196 188 192 177 172 172 151 132 110 98 85 102 51 33 
121 148 144 143 142 170 168 169 181 178 173 174 172 171 179 182 185 191 186 189 187 189 192 192 188 195 191 189 192 192 191 192 192 191 189 190 188 188 189 187 190 187 183 181 183 186 192 197 199 206 206 203 208 204 204 210 205 205 207 209 198 196 196 197 196 197 191 187 189 177 172 166 146 134 116 106 80 83 42 29 
121 152 151 133 148 174 179 181 191 191 187 179 174 185 185 196 197 201 202 199 202 205 206 205 203 206 204 203 206 204 203 200 200 202 201 199 198 199 201 195 198 199 189 186 185 188 195 202 208 211 215 212 216 210 211 212 211 212 211 213 203 197 200 199 200 199 191 191 188 182 178 169 154 141 115 102 92 61 53 27 


