P2
80 60
1566
921 948 1007 1044 1087 1130 1200 1264 1329 1401 1450 1479 1493 1521 1544 1534 1533 1533 1535 1529 1517 1481 1445 1441 1449 1458 1469 1455 1435 1422 1418 1426 1413 1403 1408 1428 1450 1453 1427 1451 1461 1457 1453 1481 1500 1506 1488 1483 1474 1448 1438 1455 1429 1399 1399 1425 1440 1446 1441 1423 1436 1437 1439 1433 1445 1464 1475 1455 1425 1367 1304 1220 1151 1097 1039 1013 968 908 855 827 
924 966 1017 1070 1111 1160 1239 1308 1369 1438 1475 1489 1500 1537 1551 1546 1536 1535 1535 1522 1502 1470 1440 1429 1436 1433 1442 1429 1427 1423 1418 1412 1412 1408 1402 1409 1437 1454 1429 1435 1457 1442 1454 1480 1492 1495 1483 1478 1461 1442 1427 1435 1419 1398 1379 1393 1407 1412 1427 1438 1439 1442 1449 1451 1452 1464 1478 1470 1457 1411 1350 1287 1197 1135 1076 1041 997 938 880 830 
948 991 1052 1098 1148 1207 1287 1345 1407 1469 1486 1498 1514 1543 1557 1547 1539 1530 1519 1511 1489 1454 1435 1432 1419 1409 1414 1425 1402 1419 1418 1417 1423 1409 1398 1403 1426 1450 1433 1421 1428 1424 1436 1462 1476 1473 1463 1461 1451 1425 1413 1417 1397 1392 1392 1399 1403 1416 1424 1435 1451 1451 1461 1465 1461 1466 1480 1486 1478 1445 1402 1336 1244 1170 1111 1074 1020 969 906 856 
974 1020 1077 1128 1186 1246 1330 1390 1442 1492 1505 1516 1530 1544 1557 1555 1537 1517 1508 1494 1470 1453 1452 1437 1405 1404 1422 1427 1421 1424 1430 1433 1430 1418 1406 1415 1431 1451 1439 1417 1413 1414 1441 1463 1461 1454 1435 1427 1427 1413 1400 1390 1380 1385 1377 1391 1402 1413 1426 1432 1448 1453 1455 1465 1458 1466 1481 1494 1498 1472 1439 1384 1293 1216 1143 1094 1050 1002 930 878 
990 1038 1097 1156 1212 1285 1362 1424 1464 1512 1516 1525 1530 1544 1548 1537 1522 1507 1493 1474 1475 1482 1477 1451 1399 1387 1417 1436 1411 1439 1447 1443 1433 1425 1426 1433 1448 1454 1442 1422 1403 1414 1441 1452 1456 1450 1430 1417 1410 1394 1386 1386 1370 1378 1377 1381 1399 1403 1418 1426 1441 1444 1452 1461 1458 1459 1478 1504 1503 1496 1478 1420 1333 1260 1178 1121 1061 1017 953 904 
1011 1067 1116 1177 1244 1319 1391 1456 1491 1525 1518 1517 1512 1526 1529 1516 1498 1477 1458 1470 1478 1495 1497 1477 1430 1402 1415 1418 1390 1417 1438 1440 1443 1440 1441 1454 1459 1460 1442 1428 1421 1433 1456 1461 1467 1468 1440 1414 1400 1383 1378 1373 1364 1366 1366 1385 1394 1403 1411 1420 1433 1439 1443 1451 1447 1456 1461 1483 1507 1505 1496 1452 1379 1307 1214 1141 1092 1048 980 918 
1033 1074 1143 1199 1273 1347 1422 1492 1506 1520 1509 1507 1500 1504 1495 1476 1462 1451 1457 1468 1497 1502 1508 1502 1469 1434 1432 1413 1385 1387 1422 1434 1455 1437 1444 1452 1457 1451 1425 1423 1435 1440 1457 1460 1471 1480 1452 1409 1382 1379 1378 1375 1363 1367 1368 1387 1394 1402 1407 1422 1429 1437 1437 1438 1442 1444 1455 1469 1503 1510 1513 1482 1416 1345 1256 1167 1105 1067 999 943 
1047 1106 1165 1237 1307 1380 1452 1499 1505 1513 1512 1501 1494 1496 1486 1474 1467 1453 1467 1483 1497 1502 1518 1508 1494 1469 1458 1430 1398 1403 1407 1423 1445 1431 1427 1445 1437 1432 1421 1442 1446 1445 1452 1462 1478 1481 1460 1412 1382 1380 1383 1372 1367 1369 1374 1387 1399 1401 1410 1426 1437 1439 1437 1429 1436 1439 1449 1466 1495 1508 1515 1503 1444 1380 1288 1204 1136 1085 1028 962 
1066 1121 1184 1252 1329 1401 1474 1506 1503 1520 1518 1517 1505 1502 1495 1483 1475 1463 1473 1481 1493 1496 1510 1499 1499 1492 1476 1451 1421 1412 1414 1412 1431 1436 1416 1416 1429 1430 1441 1456 1458 1460 1466 1479 1482 1478 1446 1405 1394 1400 1399 1392 1375 1385 1381 1392 1401 1405 1413 1428 1435 1444 1443 1432 1440 1437 1440 1456 1486 1508 1520 1509 1472 1408 1316 1236 1148 1101 1045 973 
1070 1128 1201 1279 1352 1422 1483 1505 1507 1522 1522 1516 1506 1504 1502 1496 1488 1472 1466 1466 1484 1495 1502 1500 1490 1477 1466 1446 1425 1418 1412 1398 1416 1422 1428 1427 1438 1446 1456 1462 1477 1472 1480 1474 1477 1460 1427 1405 1407 1407 1408 1398 1385 1391 1381 1387 1400 1399 1403 1420 1430 1436 1444 1431 1428 1435 1441 1454 1475 1500 1523 1516 1488 1426 1349 1262 1172 1120 1057 984 
1086 1157 1224 1299 1378 1446 1501 1512 1521 1529 1526 1522 1517 1512 1515 1503 1493 1476 1470 1466 1491 1495 1501 1488 1485 1467 1452 1439 1419 1413 1412 1393 1411 1417 1418 1440 1448 1452 1457 1473 1483 1480 1477 1474 1464 1447 1422 1417 1426 1426 1426 1415 1404 1403 1392 1394 1396 1406 1403 1414 1425 1436 1444 1431 1427 1434 1449 1455 1468 1482 1524 1533 1507 1461 1379 1289 1202 1148 1083 1011 
1104 1170 1248 1325 1401 1462 1504 1526 1528 1537 1535 1527 1519 1519 1509 1488 1478 1462 1462 1475 1495 1491 1491 1476 1471 1456 1446 1425 1401 1409 1410 1399 1389 1420 1416 1423 1436 1441 1437 1459 1465 1461 1465 1454 1444 1424 1420 1427 1445 1444 1437 1417 1405 1407 1397 1398 1393 1396 1397 1403 1426 1431 1434 1419 1415 1428 1445 1460 1462 1479 1510 1533 1519 1485 1407 1316 1227 1160 1096 1026 
1119 1179 1252 1336 1408 1469 1507 1531 1539 1546 1544 1532 1515 1505 1496 1486 1474 1455 1453 1473 1481 1474 1477 1462 1457 1442 1434 1417 1389 1390 1418 1398 1387 1396 1416 1415 1432 1436 1424 1435 1436 1442 1443 1432 1422 1414 1428 1442 1450 1443 1436 1419 1408 1402 1393 1391 1377 1377 1381 1395 1410 1420 1417 1397 1402 1420 1443 1458 1469 1476 1504 1519 1520 1509 1419 1338 1250 1175 1100 1041 
1127 1194 1272 1353 1425 1476 1517 1536 1533 1546 1544 1522 1503 1498 1495 1480 1454 1454 1458 1474 1470 1461 1460 1450 1441 1434 1420 1399 1381 1374 1410 1408 1397 1389 1403 1421 1428 1430 1423 1427 1421 1413 1417 1422 1410 1406 1417 1432 1442 1435 1423 1409 1397 1393 1378 1374 1361 1362 1368 1387 1400 1407 1397 1387 1398 1427 1453 1470 1483 1493 1501 1510 1518 1514 1442 1359 1269 1191 1112 1054 
1133 1196 1278 1362 1425 1479 1519 1530 1525 1525 1520 1509 1496 1491 1483 1455 1436 1443 1467 1489 1490 1489 1498 1478 1460 1432 1419 1400 1384 1383 1405 1420 1417 1398 1413 1438 1454 1447 1425 1418 1423 1412 1397 1393 1402 1391 1404 1415 1421 1408 1393 1375 1372 1383 1390 1398 1382 1369 1365 1379 1385 1389 1376 1384 1407 1433 1456 1477 1493 1499 1513 1511 1513 1515 1451 1367 1281 1193 1123 1070 
1148 1210 1299 1375 1446 1499 1509 1516 1505 1514 1511 1501 1479 1476 1463 1445 1439 1448 1478 1495 1493 1518 1535 1522 1495 1469 1446 1413 1401 1398 1408 1418 1432 1415 1414 1452 1473 1469 1452 1439 1431 1423 1408 1373 1382 1391 1389 1383 1384 1393 1388 1384 1375 1377 1385 1407 1402 1388 1376 1377 1383 1377 1378 1404 1429 1448 1464 1480 1495 1503 1514 1519 1507 1511 1457 1376 1291 1211 1130 1075 
1152 1214 1299 1379 1448 1490 1499 1513 1514 1519 1510 1502 1475 1477 1467 1452 1442 1454 1479 1483 1493 1519 1542 1539 1517 1487 1461 1437 1405 1407 1418 1418 1437 1425 1416 1454 1478 1476 1459 1451 1453 1439 1408 1380 1380 1391 1374 1381 1389 1409 1429 1437 1429 1432 1411 1403 1392 1397 1398 1393 1406 1391 1389 1422 1432 1456 1475 1483 1499 1499 1514 1516 1509 1504 1458 1375 1296 1223 1136 1071 
1155 1227 1312 1389 1459 1485 1507 1526 1527 1533 1526 1506 1485 1486 1483 1468 1446 1465 1484 1495 1504 1524 1538 1540 1525 1502 1481 1453 1427 1422 1421 1421 1438 1428 1413 1445 1476 1480 1472 1471 1458 1444 1411 1402 1393 1384 1373 1386 1414 1430 1444 1445 1440 1455 1447 1440 1418 1395 1394 1405 1405 1395 1412 1433 1438 1453 1474 1496 1497 1494 1507 1518 1510 1500 1450 1383 1308 1222 1146 1072 
1158 1227 1314 1389 1453 1490 1519 1542 1534 1539 1527 1518 1489 1494 1493 1483 1464 1475 1485 1510 1527 1539 1541 1537 1526 1507 1490 1471 1453 1441 1410 1414 1433 1431 1420 1433 1468 1474 1472 1478 1468 1447 1409 1400 1391 1379 1385 1410 1425 1435 1440 1437 1427 1440 1438 1440 1439 1417 1401 1394 1379 1390 1415 1433 1432 1446 1476 1490 1491 1489 1501 1510 1513 1505 1446 1385 1306 1224 1145 1071 
1156 1228 1321 1390 1450 1489 1519 1536 1528 1536 1530 1512 1491 1494 1495 1485 1480 1474 1476 1507 1530 1538 1540 1536 1522 1504 1501 1492 1464 1442 1426 1418 1430 1428 1421 1419 1444 1463 1462 1465 1464 1441 1413 1390 1380 1380 1402 1424 1436 1438 1438 1431 1425 1419 1422 1435 1437 1434 1422 1397 1390 1383 1397 1415 1418 1432 1463 1478 1482 1481 1487 1502 1507 1494 1447 1384 1301 1220 1143 1067 
1166 1225 1319 1391 1449 1485 1517 1533 1521 1526 1520 1511 1490 1496 1495 1493 1487 1476 1474 1494 1515 1525 1534 1531 1525 1508 1511 1493 1470 1453 1459 1459 1450 1429 1425 1410 1418 1444 1456 1474 1466 1441 1407 1375 1369 1383 1409 1431 1446 1449 1445 1437 1425 1421 1416 1420 1431 1431 1433 1422 1408 1378 1379 1395 1411 1420 1445 1468 1470 1469 1473 1496 1497 1490 1446 1383 1302 1221 1134 1064 
1162 1235 1313 1390 1460 1497 1513 1531 1519 1521 1511 1506 1492 1497 1503 1496 1490 1465 1468 1479 1504 1516 1528 1515 1509 1502 1502 1492 1470 1463 1483 1486 1476 1455 1435 1409 1397 1411 1440 1466 1470 1446 1417 1377 1365 1386 1414 1435 1455 1459 1456 1450 1441 1437 1422 1420 1426 1431 1426 1425 1422 1401 1386 1392 1410 1421 1433 1454 1459 1451 1467 1491 1496 1483 1445 1383 1303 1219 1128 1058 
1170 1233 1314 1384 1455 1499 1527 1528 1514 1514 1507 1507 1492 1499 1499 1491 1477 1450 1449 1482 1506 1519 1519 1502 1494 1494 1495 1492 1468 1478 1496 1483 1472 1451 1433 1422 1402 1402 1422 1454 1470 1448 1423 1381 1360 1380 1410 1443 1464 1468 1469 1467 1448 1453 1431 1426 1426 1423 1434 1436 1436 1422 1411 1407 1426 1441 1434 1447 1451 1455 1468 1493 1498 1490 1452 1385 1301 1216 1128 1056 
1156 1223 1313 1387 1451 1504 1534 1525 1513 1512 1501 1497 1484 1490 1489 1477 1452 1457 1464 1491 1510 1505 1497 1482 1482 1470 1466 1470 1477 1494 1488 1469 1444 1413 1400 1403 1402 1404 1416 1432 1458 1452 1426 1392 1360 1364 1385 1422 1447 1462 1470 1467 1449 1450 1421 1417 1409 1417 1431 1438 1445 1440 1439 1437 1427 1436 1439 1443 1454 1452 1477 1490 1504 1497 1452 1380 1288 1210 1121 1047 
1143 1212 1300 1372 1449 1508 1528 1521 1505 1507 1493 1491 1476 1478 1473 1457 1452 1462 1482 1497 1504 1482 1477 1475 1466 1441 1463 1484 1490 1488 1468 1428 1413 1394 1391 1396 1408 1416 1424 1431 1433 1427 1412 1404 1378 1361 1364 1387 1421 1440 1445 1435 1430 1425 1406 1398 1396 1399 1421 1430 1453 1452 1454 1453 1450 1447 1455 1459 1459 1464 1475 1481 1494 1489 1447 1371 1282 1197 1109 1039 
1137 1207 1295 1368 1443 1504 1537 1524 1511 1514 1500 1492 1472 1471 1463 1463 1462 1484 1495 1496 1486 1469 1473 1460 1439 1435 1459 1481 1477 1472 1432 1396 1390 1402 1411 1402 1407 1426 1435 1448 1436 1407 1402 1421 1400 1370 1347 1356 1380 1387 1410 1416 1417 1425 1421 1419 1405 1393 1403 1426 1450 1455 1462 1463 1460 1464 1463 1466 1474 1483 1484 1485 1487 1490 1443 1361 1263 1186 1095 1028 
1136 1202 1279 1361 1437 1509 1547 1534 1524 1519 1503 1492 1463 1459 1455 1463 1468 1486 1485 1470 1466 1456 1458 1444 1424 1434 1446 1454 1441 1429 1403 1376 1379 1401 1413 1397 1400 1434 1443 1456 1446 1410 1396 1415 1392 1378 1361 1346 1355 1367 1391 1414 1425 1447 1456 1457 1440 1419 1405 1420 1445 1461 1468 1472 1474 1474 1478 1483 1487 1488 1499 1495 1495 1497 1438 1353 1250 1162 1081 1002 
1124 1189 1268 1354 1431 1514 1549 1543 1531 1530 1513 1482 1451 1446 1456 1469 1457 1472 1471 1464 1456 1462 1462 1448 1428 1432 1449 1448 1442 1430 1395 1371 1378 1410 1435 1436 1436 1446 1445 1447 1435 1405 1382 1395 1405 1401 1398 1394 1383 1391 1406 1427 1438 1460 1458 1465 1455 1443 1426 1421 1441 1453 1474 1481 1486 1482 1486 1481 1489 1491 1502 1509 1511 1497 1432 1335 1231 1149 1055 991 
1114 1181 1256 1338 1414 1490 1543 1547 1538 1525 1509 1476 1448 1442 1468 1461 1441 1447 1464 1474 1494 1484 1481 1461 1432 1434 1456 1457 1447 1438 1408 1393 1388 1406 1426 1452 1458 1456 1446 1431 1428 1427 1394 1407 1415 1410 1416 1413 1412 1407 1415 1427 1428 1455 1459 1465 1458 1452 1440 1434 1435 1445 1468 1475 1486 1487 1485 1485 1491 1492 1507 1522 1520 1489 1416 1309 1211 1123 1041 972 
1102 1162 1234 1314 1398 1478 1535 1538 1526 1521 1501 1467 1440 1453 1470 1456 1446 1466 1486 1503 1503 1480 1479 1467 1447 1422 1445 1453 1449 1445 1416 1412 1406 1404 1416 1428 1442 1439 1423 1422 1466 1466 1426 1423 1420 1402 1390 1393 1401 1408 1413 1425 1426 1447 1457 1460 1456 1450 1440 1436 1433 1434 1456 1475 1480 1482 1482 1486 1488 1502 1520 1532 1517 1482 1387 1281 1180 1100 1027 962 
1091 1149 1224 1301 1376 1453 1522 1527 1523 1522 1488 1461 1443 1462 1466 1447 1452 1478 1488 1494 1496 1482 1480 1469 1464 1443 1434 1434 1431 1439 1424 1422 1430 1420 1408 1404 1403 1409 1400 1422 1478 1491 1470 1434 1415 1398 1387 1414 1432 1433 1423 1428 1427 1446 1453 1459 1449 1443 1433 1434 1435 1431 1443 1461 1475 1477 1484 1487 1503 1518 1539 1536 1513 1452 1349 1242 1150 1076 1008 936 
1071 1133 1202 1277 1349 1424 1488 1514 1504 1508 1484 1461 1443 1460 1460 1433 1443 1456 1457 1454 1464 1463 1474 1469 1469 1464 1446 1427 1433 1433 1412 1409 1435 1442 1441 1427 1410 1399 1384 1412 1468 1489 1492 1473 1445 1424 1405 1441 1457 1461 1450 1439 1439 1450 1448 1453 1444 1432 1420 1407 1418 1421 1438 1448 1471 1482 1496 1505 1515 1529 1540 1530 1491 1414 1314 1208 1120 1050 982 909 
1055 1116 1182 1250 1316 1394 1466 1490 1478 1480 1476 1468 1446 1452 1447 1428 1434 1438 1439 1434 1446 1450 1460 1465 1465 1462 1453 1418 1415 1413 1402 1389 1411 1424 1436 1445 1446 1440 1432 1430 1450 1468 1490 1486 1467 1443 1423 1458 1480 1480 1470 1462 1452 1454 1451 1447 1429 1409 1414 1421 1431 1432 1445 1459 1480 1506 1510 1512 1519 1521 1535 1513 1458 1380 1278 1173 1085 1019 949 880 
1041 1100 1163 1222 1289 1356 1429 1462 1460 1469 1480 1470 1445 1444 1445 1431 1438 1445 1442 1430 1432 1436 1453 1456 1457 1454 1456 1423 1397 1395 1385 1372 1390 1406 1412 1411 1417 1418 1414 1431 1446 1452 1459 1472 1472 1441 1429 1459 1484 1483 1485 1474 1465 1463 1459 1437 1419 1420 1444 1461 1465 1450 1465 1485 1501 1519 1517 1521 1512 1518 1523 1496 1430 1335 1231 1138 1054 978 911 842 
1017 1074 1130 1189 1257 1323 1384 1433 1451 1471 1491 1467 1447 1448 1447 1445 1466 1469 1466 1440 1427 1432 1441 1446 1452 1445 1443 1422 1395 1389 1382 1372 1392 1404 1409 1416 1432 1425 1428 1433 1425 1430 1442 1458 1460 1441 1438 1463 1474 1484 1486 1478 1464 1462 1452 1434 1422 1447 1475 1494 1502 1478 1479 1507 1512 1526 1518 1522 1517 1512 1508 1474 1395 1293 1198 1100 1021 945 880 819 
1005 1048 1109 1169 1217 1284 1354 1398 1434 1467 1482 1465 1455 1460 1449 1461 1488 1494 1484 1453 1432 1428 1425 1424 1430 1433 1436 1431 1401 1396 1398 1395 1401 1411 1413 1422 1426 1427 1433 1450 1434 1409 1424 1450 1451 1451 1445 1463 1474 1478 1474 1468 1460 1459 1442 1434 1448 1471 1494 1512 1517 1498 1495 1509 1527 1528 1518 1528 1527 1519 1497 1455 1351 1255 1154 1071 986 915 845 791 
980 1025 1084 1140 1191 1256 1328 1374 1424 1474 1478 1473 1458 1473 1473 1464 1485 1500 1486 1464 1441 1421 1413 1406 1403 1408 1419 1422 1415 1403 1386 1397 1402 1408 1414 1412 1422 1411 1421 1443 1453 1431 1425 1437 1444 1460 1461 1466 1471 1471 1471 1464 1451 1441 1433 1448 1474 1492 1512 1523 1520 1502 1502 1514 1514 1526 1524 1532 1529 1517 1492 1413 1308 1208 1122 1040 960 892 817 781 
962 1021 1064 1111 1161 1224 1292 1355 1414 1468 1475 1475 1475 1497 1500 1478 1467 1481 1475 1463 1440 1427 1432 1430 1408 1399 1403 1393 1383 1393 1377 1375 1398 1398 1395 1393 1393 1389 1400 1431 1452 1450 1440 1439 1458 1463 1465 1460 1462 1466 1465 1453 1442 1443 1455 1478 1494 1511 1520 1519 1522 1505 1500 1505 1517 1533 1537 1544 1527 1507 1453 1372 1273 1187 1094 1020 935 872 796 742 
950 1000 1050 1078 1133 1182 1246 1319 1369 1448 1480 1479 1480 1503 1502 1496 1481 1476 1457 1451 1449 1450 1462 1453 1424 1397 1403 1391 1375 1373 1362 1374 1381 1360 1361 1353 1357 1362 1372 1398 1429 1443 1458 1452 1465 1480 1484 1477 1456 1459 1458 1446 1447 1464 1477 1500 1512 1518 1518 1516 1518 1503 1499 1509 1525 1545 1549 1541 1516 1481 1413 1326 1228 1144 1067 991 911 835 764 721 
919 968 1022 1063 1107 1149 1216 1280 1342 1415 1467 1478 1475 1490 1491 1487 1488 1489 1482 1479 1480 1480 1481 1466 1447 1412 1406 1398 1383 1382 1379 1371 1374 1360 1358 1356 1353 1361 1359 1387 1406 1421 1438 1454 1467 1477 1479 1485 1483 1461 1462 1460 1456 1475 1494 1512 1515 1507 1511 1500 1504 1495 1502 1528 1551 1561 1557 1538 1510 1445 1365 1286 1189 1117 1035 950 891 810 748 708 
890 941 1000 1036 1079 1121 1189 1246 1299 1376 1435 1481 1473 1476 1476 1471 1482 1490 1491 1497 1506 1505 1501 1485 1462 1430 1414 1411 1397 1397 1398 1387 1385 1379 1371 1369 1370 1369 1367 1383 1406 1397 1416 1441 1455 1469 1470 1469 1472 1469 1472 1465 1456 1480 1496 1512 1508 1498 1499 1500 1503 1501 1518 1538 1561 1566 1552 1524 1478 1391 1321 1236 1149 1079 991 926 860 799 738 687 
861 914 972 999 1046 1089 1152 1201 1250 1334 1393 1459 1471 1476 1478 1480 1480 1481 1490 1504 1514 1518 1520 1496 1471 1445 1427 1422 1404 1424 1427 1419 1417 1393 1376 1380 1389 1383 1373 1383 1391 1397 1423 1432 1443 1448 1450 1453 1454 1452 1458 1455 1449 1474 1485 1505 1505 1502 1512 1516 1516 1519 1525 1538 1549 1555 1535 1495 1424 1344 1267 1193 1106 1037 969 894 833 783 720 663 
845 890 942 978 1009 1061 1120 1160 1213 1285 1340 1409 1453 1480 1501 1494 1480 1476 1482 1503 1521 1531 1520 1502 1480 1449 1435 1435 1428 1441 1446 1445 1436 1419 1396 1402 1414 1408 1386 1387 1390 1396 1419 1434 1444 1457 1454 1448 1446 1457 1463 1455 1443 1468 1481 1502 1507 1513 1517 1521 1527 1530 1530 1539 1555 1551 1513 1451 1380 1301 1221 1141 1069 1011 929 867 801 755 692 642 
815 871 922 950 993 1027 1083 1128 1169 1240 1297 1355 1398 1461 1501 1503 1493 1475 1478 1496 1523 1534 1526 1503 1483 1463 1460 1446 1441 1457 1468 1459 1451 1425 1411 1417 1427 1429 1400 1388 1394 1390 1395 1415 1427 1436 1438 1443 1451 1457 1470 1464 1464 1484 1493 1503 1513 1517 1516 1526 1535 1536 1537 1532 1543 1523 1464 1399 1327 1250 1179 1104 1032 973 908 837 781 733 669 617 
785 835 879 918 960 996 1044 1091 1132 1196 1247 1306 1349 1414 1477 1493 1500 1490 1479 1494 1514 1531 1525 1515 1495 1486 1479 1464 1457 1463 1483 1473 1469 1444 1426 1437 1448 1447 1424 1416 1405 1393 1394 1401 1416 1433 1441 1457 1464 1475 1473 1478 1488 1505 1498 1512 1517 1518 1532 1539 1543 1541 1541 1518 1505 1468 1406 1344 1270 1197 1138 1071 1001 944 872 808 763 709 639 588 
752 808 855 897 929 968 1013 1059 1097 1152 1201 1249 1299 1364 1418 1468 1496 1505 1485 1490 1512 1525 1527 1513 1503 1503 1500 1479 1467 1477 1483 1486 1482 1455 1441 1451 1461 1461 1440 1434 1425 1413 1408 1410 1414 1430 1445 1464 1477 1481 1493 1498 1508 1527 1518 1526 1531 1532 1546 1546 1550 1545 1533 1497 1448 1402 1348 1279 1209 1147 1096 1035 964 905 845 796 729 682 622 528 
712 771 829 870 906 938 975 1017 1056 1111 1144 1196 1244 1309 1372 1418 1458 1498 1491 1494 1507 1519 1528 1525 1518 1519 1522 1496 1474 1485 1485 1484 1488 1472 1457 1462 1472 1471 1461 1453 1450 1433 1429 1427 1429 1441 1446 1464 1482 1492 1504 1510 1516 1539 1544 1551 1550 1553 1550 1547 1549 1535 1512 1453 1404 1354 1290 1224 1161 1100 1051 996 925 877 820 763 708 653 585 502 
667 736 785 827 871 903 944 985 1014 1068 1105 1152 1185 1249 1311 1357 1403 1451 1495 1502 1506 1519 1528 1535 1528 1526 1529 1505 1481 1490 1499 1489 1485 1478 1477 1474 1478 1475 1473 1475 1472 1454 1449 1437 1447 1450 1455 1457 1475 1486 1501 1512 1521 1538 1542 1555 1555 1556 1545 1541 1533 1505 1461 1402 1349 1290 1229 1171 1117 1063 1010 955 890 846 794 741 686 628 539 499 
595 684 750 795 820 878 910 946 976 1031 1057 1103 1136 1190 1245 1289 1341 1385 1430 1482 1499 1502 1516 1521 1519 1515 1519 1500 1489 1504 1505 1507 1501 1478 1479 1478 1480 1482 1479 1483 1481 1470 1459 1460 1460 1462 1466 1466 1473 1475 1493 1503 1507 1533 1538 1545 1547 1547 1537 1523 1485 1438 1386 1335 1283 1225 1175 1123 1070 1015 963 918 850 822 759 708 660 588 513 491 
559 611 706 759 799 838 879 908 935 985 1020 1058 1086 1140 1193 1231 1277 1334 1367 1422 1471 1487 1497 1498 1500 1508 1513 1510 1503 1511 1519 1520 1518 1499 1478 1471 1476 1482 1479 1491 1494 1479 1472 1468 1469 1480 1476 1484 1490 1490 1498 1506 1506 1528 1544 1552 1549 1534 1505 1462 1423 1372 1324 1270 1223 1179 1131 1075 1029 973 929 882 831 795 744 696 619 546 506 475 
515 574 639 709 745 792 848 872 895 932 971 1013 1043 1085 1137 1174 1205 1263 1308 1354 1403 1438 1468 1478 1487 1508 1528 1518 1517 1512 1524 1529 1532 1520 1494 1472 1467 1478 1482 1491 1500 1488 1481 1482 1479 1484 1492 1499 1508 1509 1510 1518 1515 1531 1538 1542 1518 1479 1436 1395 1353 1308 1256 1207 1160 1121 1079 1029 975 925 898 848 803 761 709 656 566 531 492 410 
445 534 580 641 715 762 803 840 857 899 924 965 995 1045 1090 1120 1158 1195 1235 1285 1334 1372 1412 1432 1455 1472 1505 1530 1529 1524 1522 1532 1542 1536 1517 1486 1472 1478 1482 1484 1497 1495 1488 1485 1482 1488 1500 1507 1512 1513 1509 1508 1511 1518 1509 1489 1441 1411 1364 1329 1287 1241 1194 1154 1115 1073 1028 986 937 890 856 814 769 732 682 595 542 508 449 228 
288 469 536 573 638 718 762 804 824 857 882 923 952 987 1039 1065 1090 1132 1171 1221 1251 1293 1337 1368 1387 1417 1458 1484 1505 1520 1529 1526 1534 1527 1510 1495 1498 1501 1488 1498 1497 1489 1488 1491 1483 1487 1499 1505 1497 1493 1480 1483 1478 1461 1433 1410 1372 1331 1285 1255 1222 1172 1138 1089 1056 1018 975 934 900 852 821 777 735 689 615 553 524 474 278 60 
101 331 481 542 574 633 712 760 790 825 848 880 908 950 989 1016 1044 1087 1114 1148 1190 1222 1266 1299 1328 1355 1388 1418 1448 1479 1503 1512 1519 1518 1520 1517 1518 1522 1510 1513 1517 1509 1504 1505 1504 1505 1492 1479 1466 1445 1437 1424 1403 1389 1356 1334 1290 1259 1223 1199 1160 1111 1079 1037 996 973 939 897 860 816 792 749 694 634 571 532 489 325 98 41 
45 113 355 479 534 565 632 705 744 798 823 843 863 909 945 971 991 1029 1057 1089 1119 1154 1187 1211 1250 1281 1317 1350 1361 1392 1420 1443 1472 1481 1484 1488 1498 1497 1475 1482 1494 1487 1490 1477 1474 1468 1451 1431 1410 1392 1377 1351 1323 1310 1281 1253 1223 1189 1155 1131 1095 1056 1020 990 956 924 891 846 811 774 750 708 630 579 537 499 340 114 47 25 
23 36 122 354 476 532 558 618 681 744 783 809 818 860 892 918 940 972 1002 1030 1057 1092 1114 1149 1173 1199 1232 1264 1283 1315 1338 1348 1377 1396 1398 1411 1418 1427 1404 1422 1432 1423 1421 1402 1404 1394 1375 1365 1343 1320 1298 1272 1240 1236 1197 1175 1150 1120 1093 1065 1045 999 972 944 905 878 848 809 771 734 700 634 570 545 500 359 123 54 25 17 
14 19 40 121 346 470 531 558 601 675 729 773 787 811 846 868 891 921 948 973 1004 1028 1063 1083 1106 1130 1161 1183 1204 1230 1252 1265 1298 1311 1315 1320 1324 1334 1326 1340 1336 1337 1327 1323 1318 1311 1288 1277 1259 1234 1221 1193 1168 1154 1130 1111 1084 1067 1033 1005 981 942 913 882 855 828 799 760 730 677 616 576 535 507 353 117 52 34 16 2 
8 14 20 37 102 324 465 521 548 586 656 715 752 785 817 825 844 871 897 921 948 977 1004 1022 1044 1064 1091 1114 1129 1155 1177 1180 1205 1219 1230 1235 1241 1246 1238 1250 1258 1244 1243 1237 1229 1224 1212 1198 1184 1162 1148 1121 1102 1095 1073 1055 1034 1003 972 946 927 895 866 843 817 788 754 723 671 602 572 544 497 333 125 57 32 29 10 3 
6 3 17 20 31 90 297 449 506 542 567 633 677 730 772 787 802 820 844 866 893 911 941 960 980 994 1028 1048 1066 1082 1100 1101 1131 1133 1147 1149 1160 1162 1152 1168 1164 1161 1160 1150 1148 1143 1130 1118 1105 1093 1077 1057 1037 1036 1015 994 973 943 914 899 874 845 823 797 772 746 704 643 585 558 537 486 299 102 60 33 13 12 9 0 
2 5 8 13 20 32 89 254 432 505 541 561 590 662 720 752 758 797 809 831 853 870 898 903 937 935 980 982 984 1025 1027 1027 1067 1074 1071 1076 1077 1077 1077 1087 1086 1083 1072 1068 1067 1060 1053 1045 1034 1024 1015 996 989 984 951 937 923 896 855 855 817 811 770 760 716 693 635 582 567 531 469 263 104 57 47 26 15 16 1 3 


