P2
80 60
254
19 19 18 22 36 45 80 94 72 46 58 92 84 50 39 36 34 31 28 28 30 34 29 25 25 26 26 28 31 31 38 32 33 29 29 29 30 27 26 27 27 28 26 25 25 25 26 25 24 22 15 18 16 18 17 19 16 18 20 17 14 16 18 17 19 16 17 22 22 24 20 24 21 21 17 20 22 15 15 14 
18 23 21 21 31 48 86 97 65 44 66 92 79 43 38 37 34 34 33 28 32 30 27 26 26 23 27 30 31 30 37 32 30 31 29 27 25 26 26 28 23 25 26 28 26 27 27 26 25 20 16 15 13 15 15 18 19 18 18 19 15 19 17 22 21 19 19 21 23 21 22 22 22 15 18 19 20 17 12 18 
19 22 19 19 35 49 90 97 62 47 68 92 72 42 36 34 33 28 32 29 31 30 27 28 26 25 33 30 32 31 36 33 28 28 27 27 29 28 27 28 23 28 28 28 28 29 28 24 26 24 18 19 20 19 16 20 22 19 21 22 21 23 22 24 23 16 19 17 21 22 22 26 19 20 18 21 24 15 14 10 
19 21 18 26 36 48 89 94 54 45 73 91 70 37 32 30 28 31 29 32 34 29 27 26 25 31 34 29 35 33 36 36 29 27 29 25 28 26 24 26 24 27 28 29 29 28 28 28 27 24 20 23 25 26 26 27 27 25 29 29 25 26 27 27 27 22 18 22 24 19 23 24 21 21 21 19 23 13 9 12 
23 22 18 28 35 60 105 99 54 46 77 93 60 35 31 31 28 27 31 29 34 26 30 27 27 32 29 29 30 33 36 31 29 28 27 27 25 27 26 22 24 28 29 27 30 27 28 28 27 28 29 26 25 28 31 31 27 29 30 31 25 26 26 26 21 22 21 20 21 22 23 26 23 23 19 20 21 10 11 10 
18 19 23 30 37 67 99 88 52 50 84 87 58 34 28 29 27 26 28 26 31 30 32 30 28 30 33 32 30 33 36 31 30 30 29 29 29 24 25 26 24 23 25 31 31 30 27 29 26 31 27 29 31 29 28 29 30 28 28 28 25 26 25 27 22 23 18 18 23 22 22 26 22 22 21 20 21 11 3 11 
19 24 24 30 36 66 99 87 46 52 87 84 50 29 32 27 27 28 32 30 27 31 27 28 27 31 29 28 30 32 35 32 29 27 25 29 26 30 27 23 24 25 24 25 26 26 29 30 29 31 30 31 25 28 28 32 27 25 29 27 23 24 25 25 25 21 19 19 25 22 23 25 22 23 23 20 22 9 9 15 
14 14 20 26 37 66 98 80 44 51 86 87 45 28 24 25 27 25 28 27 32 28 26 24 27 24 25 26 28 30 31 30 30 25 25 27 24 25 25 25 26 27 26 24 29 23 25 24 25 26 27 24 26 30 27 24 28 26 27 26 24 23 26 26 25 23 19 19 21 22 24 23 23 23 20 19 16 10 12 12 
8 8 12 26 24 66 99 76 39 50 93 80 43 26 24 26 23 26 26 25 30 27 29 26 23 28 25 26 31 29 35 29 27 28 27 28 24 25 27 22 25 26 25 26 26 27 26 28 25 29 22 26 23 26 24 27 26 24 24 26 24 25 28 28 27 30 19 19 22 22 24 29 21 23 19 23 19 16 11 12 
12 9 3 0 9 74 101 74 32 52 100 86 40 22 25 24 23 24 22 27 30 27 28 26 27 26 29 29 27 32 35 30 27 31 27 23 28 29 26 26 28 28 29 27 29 29 30 31 28 26 23 28 24 27 28 26 26 29 29 30 26 28 27 26 28 28 21 20 23 24 26 25 22 28 24 24 20 15 13 19 
17 17 12 2 13 79 100 66 24 51 107 90 26 15 13 16 19 22 23 24 25 25 25 23 25 28 26 27 24 29 34 29 27 29 26 26 27 26 25 28 27 25 28 31 26 27 30 25 23 28 24 23 22 25 27 29 30 30 31 30 29 32 29 27 27 26 24 16 25 27 25 25 27 25 20 21 20 15 16 15 
18 18 18 14 20 88 101 63 26 62 106 81 19 12 10 14 14 12 19 18 23 23 23 24 24 25 26 26 26 29 36 30 25 26 26 28 26 27 24 27 23 28 29 28 29 27 27 26 27 26 24 29 27 28 31 30 33 32 31 35 31 33 27 28 30 30 25 20 23 25 28 31 26 27 26 25 22 15 15 15 
16 18 17 14 17 83 94 61 25 63 110 72 17 11 9 8 10 7 11 11 8 13 9 11 15 17 20 19 21 24 27 24 24 24 24 23 25 24 24 28 22 26 24 26 26 25 27 21 22 26 22 28 25 28 29 28 32 28 30 28 27 29 27 26 25 25 25 20 20 21 25 29 22 23 20 23 22 11 11 12 
18 16 12 16 21 91 88 51 30 71 105 70 20 10 12 13 11 11 12 11 11 10 8 11 7 9 10 13 13 9 16 13 19 23 22 23 23 25 27 25 25 26 25 25 26 24 25 28 25 29 26 28 26 30 28 33 28 26 28 29 29 26 26 26 24 28 26 19 21 23 25 28 25 25 23 23 19 13 9 14 
14 14 15 16 34 91 84 48 28 81 104 59 20 15 14 14 15 13 12 13 9 11 12 10 9 11 10 10 11 11 13 10 7 6 6 13 20 25 23 24 28 24 26 24 28 27 28 28 29 29 30 29 27 30 30 33 30 27 30 30 30 28 25 27 29 27 28 22 19 20 24 28 24 24 24 23 21 13 13 11 
13 16 16 16 35 94 81 41 27 84 102 59 18 11 14 14 16 12 14 11 11 9 11 9 10 10 11 6 11 14 12 10 8 5 6 19 18 21 22 25 23 23 25 26 28 26 27 28 28 28 29 27 28 28 31 29 31 29 32 32 27 28 27 27 29 31 29 21 14 20 24 27 24 25 24 25 25 17 12 12 
16 14 17 14 43 94 79 42 26 88 94 48 17 12 15 14 12 16 12 13 12 12 14 10 7 10 10 9 13 11 13 9 10 17 21 25 26 24 25 19 22 25 25 24 27 25 28 26 28 27 29 27 32 27 31 32 30 27 27 31 29 30 29 28 27 30 28 23 19 17 26 27 25 22 25 24 25 18 14 14 
13 14 15 18 47 97 77 39 28 92 93 49 19 19 17 14 17 17 14 14 15 15 14 12 10 14 11 9 13 12 16 18 25 25 25 25 27 26 28 24 24 27 29 25 28 28 29 27 26 26 31 30 33 28 31 30 31 29 31 28 29 31 27 28 25 28 28 25 19 16 28 26 29 25 23 24 26 23 14 16 
13 18 19 16 51 94 74 34 27 93 90 45 15 14 17 17 13 15 16 13 14 12 16 11 14 14 8 12 13 13 23 25 23 25 25 25 26 22 26 22 23 23 27 24 29 28 23 23 23 26 31 28 30 28 29 29 29 27 28 27 31 30 27 32 26 28 29 25 20 18 22 25 25 24 26 24 27 24 14 16 
15 20 17 19 59 97 75 34 32 94 90 42 17 15 17 16 18 15 17 17 12 15 15 15 13 14 13 12 15 15 24 28 23 25 23 22 27 24 25 24 24 24 23 25 27 26 23 26 26 28 29 28 30 31 31 31 31 30 30 30 30 31 26 29 30 29 32 27 20 14 20 26 25 25 25 24 26 24 16 19 
22 22 19 20 71 100 72 34 32 102 88 39 17 16 17 16 20 16 16 16 17 15 14 13 13 16 13 13 14 16 23 25 26 27 23 22 23 25 24 19 24 25 29 27 25 29 28 25 27 27 30 31 28 29 29 29 28 27 32 30 30 31 28 30 29 31 30 30 22 15 19 25 26 24 22 21 26 23 16 23 
44 39 33 36 88 109 72 33 38 102 87 37 13 15 19 17 16 15 16 13 16 18 16 14 13 12 12 13 15 17 19 23 24 24 22 24 25 25 24 25 24 25 26 27 28 28 27 29 28 25 28 31 28 32 33 30 30 27 28 28 29 31 29 30 28 28 29 31 24 15 15 25 24 24 21 23 26 25 16 19 
104 101 88 90 105 105 62 28 45 102 84 35 15 15 15 17 17 19 18 15 16 14 15 13 12 12 16 15 16 16 13 22 24 22 22 20 24 24 21 22 25 23 26 25 25 27 27 28 28 29 30 32 30 28 29 30 31 29 28 27 29 29 30 29 26 30 29 28 25 19 15 19 24 22 21 25 28 24 19 19 
102 102 102 98 99 88 48 38 55 103 84 30 15 16 16 17 15 18 16 15 19 15 16 14 11 10 16 14 13 16 17 22 22 23 24 22 24 23 24 24 27 24 24 29 27 27 29 25 29 28 29 30 31 29 31 29 29 28 28 31 28 31 29 31 33 30 32 33 28 23 20 17 23 22 23 27 27 25 17 24 
59 63 73 77 76 66 30 35 59 108 85 33 19 15 19 21 19 20 19 17 20 16 19 18 19 14 19 15 19 17 22 22 24 25 26 23 25 27 29 23 27 28 26 28 28 29 29 29 30 35 30 29 31 34 29 32 32 32 30 29 28 33 31 31 32 31 30 33 29 27 25 16 19 17 23 22 27 24 16 18 
30 28 25 28 29 29 25 33 62 114 86 37 20 20 17 21 19 20 19 18 20 17 19 19 19 20 18 15 17 18 22 27 26 30 25 26 27 25 30 27 28 27 26 32 30 31 29 30 28 33 28 30 32 31 34 32 29 31 30 30 28 33 30 33 33 31 33 31 32 29 27 26 19 16 17 16 23 23 16 17 
49 40 34 28 24 25 24 36 72 121 85 31 18 18 20 19 20 20 19 19 18 18 20 21 18 19 14 17 17 19 21 27 29 28 26 24 29 31 27 28 28 31 30 28 29 27 28 28 30 28 30 33 28 33 31 32 30 35 31 30 28 33 30 33 30 32 32 33 30 29 31 30 26 20 14 18 21 21 15 19 
106 105 97 85 74 68 61 67 97 122 87 31 20 19 20 21 21 19 21 16 17 22 18 21 18 18 19 19 16 17 18 28 23 27 23 25 29 27 27 30 27 28 27 29 29 28 27 29 29 32 29 27 31 30 29 30 28 32 30 27 30 31 32 31 30 30 35 30 30 29 28 31 29 26 25 25 25 22 17 25 
109 111 110 104 101 97 93 98 107 107 77 27 18 19 20 21 20 21 23 21 23 20 20 18 19 19 21 18 23 19 20 21 26 27 27 27 28 28 30 31 29 28 29 30 28 28 26 30 31 27 28 30 32 34 32 30 31 32 30 32 27 29 28 30 28 31 33 32 34 28 33 33 30 26 26 27 31 22 20 23 
61 70 74 76 81 89 87 93 94 89 56 21 17 19 18 22 21 21 23 22 23 22 21 23 21 19 21 18 19 16 21 24 25 27 27 28 29 28 34 30 29 29 28 28 30 30 29 29 28 29 27 31 29 32 30 30 30 29 29 31 29 31 29 30 31 34 33 32 31 28 31 33 32 28 29 28 28 29 18 22 
25 30 30 26 29 36 40 50 50 47 26 21 18 19 20 22 21 21 23 21 22 25 22 26 19 21 19 21 21 18 22 26 28 30 26 28 27 28 31 28 29 29 32 28 28 31 32 27 30 31 31 32 31 34 30 33 34 31 35 31 31 32 32 35 29 31 33 36 31 30 33 34 31 28 27 26 31 29 23 28 
25 21 22 20 24 22 25 29 30 30 24 20 18 22 21 24 21 24 23 22 25 26 24 26 22 22 22 21 23 23 22 24 32 26 26 27 30 30 31 28 31 32 32 29 33 29 29 28 33 32 30 30 32 33 33 32 31 33 33 32 32 32 34 36 30 34 36 35 33 31 33 33 31 30 29 26 28 29 21 25 
22 20 22 21 22 21 21 27 24 31 22 19 17 21 22 25 25 22 23 23 24 25 23 23 24 22 21 22 25 22 24 23 29 28 28 25 28 30 31 28 32 32 29 29 31 28 29 28 31 31 32 34 32 33 32 31 32 31 34 33 29 32 33 34 30 32 33 36 34 32 26 32 32 32 27 27 32 31 23 30 
25 25 23 23 21 22 19 25 25 30 24 20 19 24 25 27 24 25 25 25 28 25 28 25 27 22 26 22 23 24 22 29 31 29 27 27 30 31 29 30 31 31 30 31 32 30 31 29 32 34 33 30 29 33 34 32 33 30 33 32 31 34 32 36 33 34 34 39 34 31 34 33 34 34 33 29 30 31 24 29 
24 26 21 17 19 21 21 27 24 31 24 19 20 23 24 24 27 25 26 28 27 22 28 26 26 26 23 22 26 21 26 26 27 29 27 29 31 25 30 29 30 31 27 33 31 30 27 30 30 32 31 33 30 32 31 31 32 33 30 32 32 34 35 33 34 34 36 34 32 35 31 34 32 32 30 27 29 30 24 27 
23 27 25 18 22 21 22 23 26 26 24 21 20 23 24 23 23 24 25 25 26 25 28 31 25 28 24 23 28 23 24 26 28 30 29 32 30 28 29 26 29 32 30 30 34 31 31 27 31 35 30 34 31 34 32 32 30 33 30 32 32 32 35 32 33 33 35 35 31 30 29 32 34 30 30 28 31 33 30 28 
27 24 24 21 24 24 20 29 28 30 26 19 20 24 24 25 27 28 28 28 25 29 29 29 28 26 27 27 26 26 25 30 30 32 28 31 30 32 30 29 31 33 30 30 32 33 31 32 33 32 33 32 35 32 35 32 35 32 34 33 35 33 35 37 32 32 32 36 33 30 33 34 32 36 32 31 32 34 33 29 
26 25 26 22 20 24 20 26 28 29 24 25 21 22 29 26 25 30 29 28 29 29 27 29 28 29 32 28 32 26 27 27 33 34 28 31 32 34 30 31 33 34 32 31 33 31 33 33 33 33 30 33 32 36 35 34 33 35 33 30 32 35 34 32 33 34 35 37 32 33 34 31 34 33 31 29 37 30 33 36 
25 24 25 21 22 24 21 29 30 31 23 19 21 25 30 27 30 30 29 30 26 29 30 28 31 30 29 30 31 26 27 27 31 34 33 29 32 30 30 29 29 34 29 30 35 32 34 34 35 31 33 33 33 33 33 33 36 35 34 31 31 34 32 34 31 32 34 36 36 35 37 37 35 35 31 29 40 43 41 47 
24 25 22 24 21 23 21 23 31 31 23 20 19 22 28 29 27 29 31 26 29 26 30 32 32 30 28 31 31 28 30 30 33 35 34 31 31 33 30 29 31 29 32 31 34 32 35 31 31 32 30 34 32 32 34 35 32 34 30 30 29 34 30 32 30 32 38 35 35 34 32 38 36 31 30 37 54 47 39 43 
26 28 24 23 25 25 22 28 29 31 25 22 22 23 27 29 30 31 33 30 33 30 34 32 32 35 34 30 32 32 30 30 31 33 33 33 33 32 34 29 32 36 32 33 38 33 32 32 32 33 34 31 32 32 32 33 32 33 33 32 33 33 32 34 34 33 34 35 35 33 34 38 36 32 32 34 39 41 39 43 
24 23 23 22 23 22 24 26 28 32 24 23 23 25 29 28 29 31 33 32 33 31 31 36 36 33 29 31 32 29 30 26 32 32 33 32 32 31 34 30 35 34 33 34 33 33 35 32 32 31 31 32 32 34 33 34 33 31 32 29 29 32 29 34 32 35 35 37 34 36 35 37 33 35 33 37 44 36 37 38 
22 24 25 20 26 28 25 27 29 30 25 22 21 28 29 28 29 31 33 35 33 32 35 34 34 35 33 33 31 30 31 29 33 33 31 30 33 32 33 31 34 31 34 31 30 32 32 30 31 30 30 31 27 32 31 29 29 33 29 32 29 31 30 33 32 35 33 35 32 32 35 39 38 37 34 39 42 38 34 41 
20 19 24 20 23 25 27 34 29 32 22 25 24 23 26 30 30 34 34 33 35 36 37 39 32 36 33 34 36 30 32 31 33 36 33 31 34 34 36 31 34 35 33 33 31 28 30 30 32 30 31 33 32 33 32 29 27 29 33 31 31 33 29 34 29 32 33 38 33 37 38 41 42 46 53 60 71 82 94 110 
24 24 24 21 23 27 27 33 30 33 26 25 26 30 27 33 31 33 37 35 38 37 37 36 38 37 33 32 29 29 30 27 33 35 34 31 35 32 35 30 31 31 33 32 33 32 32 27 32 29 30 29 30 28 31 30 30 32 34 31 32 33 33 33 33 30 37 37 36 45 68 82 91 103 114 124 139 151 165 194 
24 24 24 23 27 28 27 35 29 34 29 27 29 30 32 30 31 38 38 38 40 41 40 39 40 37 38 33 33 34 31 28 33 33 32 34 34 39 34 32 33 34 32 32 35 33 34 31 33 32 32 32 31 31 29 27 29 34 32 30 33 34 34 34 34 33 38 40 37 66 108 126 135 137 147 161 172 185 202 228 
24 25 25 23 25 28 28 34 28 33 28 28 28 31 34 33 34 37 40 38 42 43 40 39 41 36 34 33 32 33 36 27 29 36 32 34 36 33 37 33 37 34 32 35 33 31 31 30 29 31 30 31 32 33 32 28 33 30 31 33 35 37 32 35 33 36 40 40 42 71 118 153 158 166 176 186 201 216 232 249 
28 26 27 22 28 27 28 33 26 39 30 28 29 29 31 33 35 35 38 39 39 39 40 40 43 39 41 43 38 39 43 33 30 32 35 36 36 33 37 35 32 37 32 32 33 33 31 32 31 32 33 31 31 32 31 30 30 32 33 31 34 35 31 34 32 34 38 41 38 67 121 153 165 173 181 197 208 225 241 254 
26 23 25 24 23 27 31 32 31 37 27 27 30 33 32 35 35 36 39 37 39 39 40 40 42 46 46 46 43 41 44 36 32 32 36 39 37 35 39 35 34 33 35 34 34 30 33 33 32 32 32 33 33 29 32 31 31 33 32 29 33 37 32 33 30 36 39 36 39 66 117 158 167 177 183 193 210 222 239 254 
28 22 22 28 26 29 25 29 31 36 30 29 28 31 30 37 34 36 38 38 40 42 42 41 41 44 50 48 44 43 44 36 32 33 38 35 34 33 34 35 34 38 35 35 32 35 33 29 29 32 30 28 30 31 32 31 31 30 34 34 34 37 34 36 32 34 36 36 38 59 113 151 166 173 180 191 206 220 235 251 
30 28 27 28 27 30 28 33 33 36 30 32 29 33 34 36 38 38 43 42 46 43 42 44 46 45 49 52 45 45 44 38 34 31 36 38 38 36 40 37 34 35 38 35 35 33 33 30 29 32 32 30 32 33 33 32 30 33 32 35 31 36 34 31 34 39 37 39 40 59 112 148 160 170 175 192 206 217 234 253 
33 31 30 30 26 31 30 33 34 40 37 32 32 34 37 39 40 43 44 45 47 46 45 46 47 49 50 48 45 47 48 40 35 34 40 38 40 38 40 39 37 35 37 35 37 38 34 31 35 33 31 32 33 31 37 37 35 33 37 34 33 36 34 36 35 41 41 39 40 56 105 140 156 167 175 188 204 217 232 252 
30 33 34 28 32 32 32 40 36 43 35 31 32 34 40 40 40 43 41 46 48 48 49 48 50 51 56 49 50 46 50 43 34 35 42 41 38 38 38 39 39 37 37 35 38 34 36 32 34 37 36 36 37 35 39 43 41 37 39 37 33 33 36 36 38 40 38 40 40 53 103 140 155 168 174 184 201 212 226 243 
31 32 34 30 35 35 34 40 39 44 38 35 39 35 39 42 42 45 47 50 52 51 52 50 50 52 55 53 49 47 50 41 36 38 42 45 44 41 39 42 37 39 36 38 39 37 35 34 35 34 37 39 37 39 48 49 44 46 39 37 35 37 39 36 35 38 39 41 39 52 96 136 153 165 167 178 181 187 209 242 
38 36 33 34 37 40 38 41 44 47 41 38 39 42 45 44 46 49 49 52 53 54 54 58 56 59 57 59 52 52 53 47 43 41 41 43 43 43 43 44 39 43 40 40 41 37 38 35 39 39 39 35 40 44 51 69 81 68 50 41 36 36 39 42 40 39 42 44 41 51 95 133 153 162 166 170 175 168 210 242 
38 42 41 38 40 39 43 46 42 48 41 41 40 46 46 48 50 52 54 57 59 62 60 62 59 63 62 61 58 61 59 49 41 45 46 50 46 46 44 42 43 43 42 40 40 41 41 38 40 40 41 40 45 49 82 198 170 105 62 46 40 42 38 40 39 39 44 41 45 51 94 131 154 164 170 180 184 196 222 238 
46 46 44 43 39 42 45 48 43 51 44 43 44 46 49 53 52 54 58 59 68 65 65 67 65 67 69 64 62 59 60 48 42 47 50 51 49 47 47 42 42 45 46 40 41 44 43 41 43 42 41 43 46 52 96 243 182 105 59 47 40 42 39 37 38 40 44 43 48 54 93 132 151 164 173 175 200 205 224 236 
50 47 47 46 50 49 47 56 49 53 50 48 45 49 53 52 60 56 61 67 71 67 71 70 73 70 72 69 66 61 59 51 44 48 50 56 50 50 45 43 41 45 43 44 47 43 40 42 43 42 41 43 45 47 63 97 94 73 53 44 39 41 38 41 39 43 42 44 46 49 91 126 152 166 170 178 195 209 220 234 
56 51 55 53 51 54 56 56 53 58 52 52 50 58 57 55 55 64 64 66 72 75 76 82 82 81 80 77 70 66 65 51 48 49 50 53 49 44 44 46 45 48 47 44 47 47 44 46 43 43 44 45 45 46 49 56 57 54 47 46 43 42 39 41 38 41 43 43 44 48 83 129 150 164 173 183 196 209 220 237 
74 72 68 54 56 57 57 54 53 57 51 53 55 58 59 60 60 64 68 71 78 73 78 83 84 84 86 81 69 67 63 55 48 52 53 54 53 51 62 73 50 51 51 47 46 48 47 47 43 46 47 46 43 47 46 51 51 47 46 43 42 38 38 42 38 40 43 41 42 44 77 134 151 166 172 183 195 211 216 231 


