P2
80 60
34
20 23 16 19 18 20 20 19 18 19 21 16 20 19 19 18 18 22 19 20 19 20 16 14 14 15 14 17 15 16 15 18 16 14 20 12 16 14 13 14 15 13 15 15 13 16 14 16 16 17 12 14 12 16 13 14 15 14 14 14 16 16 12 5 6 6 6 7 8 21 17 18 18 16 13 18 17 23 22 22 
17 22 17 20 22 17 22 18 23 18 19 17 16 17 18 20 19 16 18 17 19 17 16 14 14 13 14 18 17 12 14 12 16 16 18 15 14 15 16 17 15 14 14 13 13 12 18 17 15 16 10 11 13 17 16 15 16 14 14 12 16 17 13 4 4 5 7 5 8 17 18 18 20 18 15 17 20 20 17 19 
18 16 23 19 23 22 20 21 23 24 20 20 19 20 21 18 20 19 18 17 17 15 17 15 18 15 15 18 19 17 13 16 16 16 18 21 17 16 15 15 17 11 16 14 16 14 14 14 14 16 14 12 13 15 15 14 14 15 16 15 18 13 14 7 6 5 6 6 8 13 17 16 19 17 16 19 22 20 22 20 
18 16 20 20 21 21 18 22 21 19 17 17 20 19 18 19 17 19 16 17 15 16 17 14 15 15 16 18 17 16 15 17 20 17 17 17 15 15 17 17 15 14 14 16 19 14 15 13 12 15 13 13 13 15 17 14 13 13 13 14 12 13 9 7 7 7 8 7 9 15 18 19 17 18 17 17 18 20 17 14 
19 17 18 19 18 21 21 19 20 18 19 13 17 21 18 21 18 21 18 17 18 13 16 14 16 14 12 17 16 18 16 19 18 16 15 14 16 16 16 20 16 14 12 17 15 14 15 18 14 19 17 15 12 14 16 12 16 15 14 15 11 12 13 3 2 6 6 3 6 16 15 17 18 17 15 18 23 21 20 17 
17 20 17 20 23 19 21 19 19 17 20 15 17 17 17 17 17 20 19 17 18 15 19 14 13 19 16 17 19 18 20 17 15 16 13 12 15 16 19 16 17 14 16 18 14 13 13 13 13 15 14 13 13 14 16 15 16 14 13 16 14 14 12 7 3 4 5 5 7 13 15 19 21 19 16 16 18 17 15 15 
23 19 19 22 19 20 20 21 18 21 21 17 18 19 19 21 16 18 20 17 13 11 14 14 14 17 14 15 15 17 21 17 16 18 16 15 16 14 17 17 13 13 13 17 14 12 13 14 15 15 13 10 16 14 17 15 14 14 18 15 16 13 13 7 4 1 6 5 7 13 15 17 21 17 19 18 20 19 17 17 
23 18 19 17 19 20 17 18 20 18 19 18 13 19 17 16 16 18 20 13 16 12 11 16 12 17 14 17 17 14 18 18 18 17 14 15 16 16 18 16 15 12 15 19 14 14 15 12 12 15 15 9 12 13 16 15 13 14 10 12 13 16 12 7 2 3 4 6 9 14 16 16 21 18 15 16 21 20 20 18 
21 17 17 18 15 20 19 16 22 18 18 14 20 17 14 16 18 20 15 14 19 10 12 14 16 13 14 15 17 19 18 17 14 16 17 16 17 14 16 15 13 13 12 15 13 13 14 14 14 16 14 12 13 18 15 16 16 13 14 13 15 13 11 6 6 6 2 3 10 16 20 17 19 17 17 15 18 17 14 14 
21 18 17 18 19 17 17 18 20 16 19 17 18 18 18 16 17 16 17 15 16 12 15 15 17 14 12 15 18 15 17 16 18 18 16 16 14 18 17 11 15 15 12 14 15 14 14 13 17 14 14 15 11 13 13 14 17 14 14 14 13 17 9 3 3 5 3 5 10 19 16 14 22 17 18 16 17 18 16 15 
19 20 18 20 16 18 16 20 19 19 20 15 16 18 17 17 16 14 17 18 18 15 16 13 16 14 17 15 15 17 15 17 15 18 15 15 14 18 16 13 12 13 13 15 14 13 16 14 14 16 17 13 11 13 13 13 15 14 13 13 13 15 9 4 1 4 2 5 13 19 14 15 18 18 15 17 20 18 16 18 
18 19 16 20 20 20 19 19 18 16 19 19 16 19 18 17 16 15 17 17 15 15 16 17 16 15 14 14 17 16 15 15 14 17 14 16 14 13 17 17 12 15 13 16 14 14 13 14 14 13 12 12 14 14 14 14 16 11 17 14 12 13 7 1 2 1 6 8 10 16 16 17 19 19 19 17 19 18 18 16 
17 18 19 18 18 19 19 17 20 18 17 15 11 19 15 14 15 16 17 13 13 15 17 16 16 17 16 13 17 14 18 16 15 14 16 15 16 14 14 13 14 13 15 15 15 14 15 16 14 18 17 13 14 15 16 16 17 15 16 15 15 14 5 1 3 4 4 7 13 20 18 16 18 14 15 16 16 19 18 17 
18 17 17 20 18 16 18 15 17 19 18 13 18 19 14 15 15 17 18 18 14 16 16 17 18 18 13 15 13 13 18 14 14 14 15 13 15 13 12 14 13 17 15 14 14 12 14 13 14 15 15 13 12 12 15 13 14 15 16 14 12 12 5 2 1 7 4 7 12 16 15 17 17 17 14 14 20 20 22 16 
15 13 17 16 12 16 16 18 15 14 19 14 17 16 14 10 15 16 16 15 16 17 19 18 16 15 15 14 17 16 16 16 12 17 14 17 14 11 11 14 13 11 12 14 15 15 12 13 15 17 11 13 13 14 13 13 16 13 14 13 12 9 3 3 1 3 4 10 14 16 16 16 18 18 14 15 19 22 16 16 
17 15 20 15 14 14 17 16 14 12 17 12 14 13 13 14 16 16 14 15 17 16 16 18 17 17 13 14 16 15 14 13 16 16 11 14 13 12 15 15 14 13 15 13 12 14 12 13 15 15 13 14 11 16 12 15 17 11 12 14 11 10 4 4 3 3 3 12 14 13 14 18 18 14 14 18 16 20 15 19 
16 13 15 18 15 18 18 17 15 13 17 16 16 15 14 16 17 18 19 18 17 17 18 20 17 17 13 14 16 17 18 16 15 12 13 15 13 13 16 14 11 15 13 16 14 13 12 13 14 15 15 11 12 18 16 13 14 14 12 13 11 6 2 6 2 4 5 13 17 17 15 18 18 16 15 17 18 19 18 16 
16 13 13 17 19 16 17 21 17 15 17 13 13 16 13 14 19 21 19 14 15 17 18 16 17 19 17 17 15 18 14 14 15 16 14 14 13 14 12 15 14 16 13 14 16 15 15 13 15 14 16 12 13 14 16 13 15 15 13 12 11 6 2 1 7 5 5 14 16 17 16 17 17 15 14 19 20 21 16 19 
14 14 10 15 17 16 15 16 17 16 19 14 13 15 15 16 18 20 21 21 17 19 14 17 16 17 14 16 14 17 13 15 17 14 15 16 13 14 14 14 16 13 14 13 14 14 17 14 17 16 14 13 12 14 16 14 14 15 11 13 7 4 3 5 3 5 8 16 17 17 14 15 17 17 15 19 20 23 16 21 
17 14 14 14 16 12 14 16 14 16 18 14 13 14 14 15 18 18 18 17 15 17 18 20 17 15 14 15 14 16 14 15 13 15 15 14 13 11 16 16 15 13 17 16 16 15 13 14 13 16 15 14 12 13 14 15 12 13 13 11 8 4 4 5 4 6 11 14 18 19 13 18 20 16 18 19 16 19 16 17 
15 14 14 18 16 14 15 17 16 15 17 17 15 16 16 15 17 19 22 18 15 16 18 16 17 16 15 16 15 12 17 15 13 14 14 15 14 16 16 17 16 15 14 14 16 13 17 15 16 15 14 10 12 14 14 14 16 14 11 9 4 4 3 2 6 8 12 15 15 17 14 16 21 15 15 14 18 22 16 14 
15 18 12 17 16 16 17 15 14 17 18 13 16 17 15 17 19 17 19 18 17 16 18 19 14 15 15 17 15 14 15 13 15 14 16 13 15 13 16 16 17 14 12 16 17 15 13 14 16 14 14 14 16 13 18 12 15 15 8 8 3 1 2 5 5 12 17 18 17 17 15 18 22 17 20 18 19 18 15 17 
19 16 12 19 15 17 16 13 13 16 18 15 13 14 17 15 17 19 19 17 15 15 15 17 18 18 14 15 18 14 16 17 14 13 14 13 14 14 14 12 18 14 17 15 17 15 15 14 18 17 13 14 14 14 12 15 16 14 10 2 2 4 6 5 8 14 14 16 17 19 16 17 21 17 15 17 21 19 16 16 
18 16 14 14 15 15 16 14 15 19 19 16 16 15 16 17 16 18 18 19 15 16 15 15 17 15 15 13 17 15 17 14 15 16 15 16 17 15 16 14 14 13 12 17 17 16 17 13 14 13 13 15 14 15 14 14 14 11 8 5 0 1 6 5 9 15 17 16 17 16 15 13 19 13 19 15 20 17 16 14 
14 16 17 17 18 17 15 18 17 17 17 15 16 13 17 13 15 20 16 18 19 20 18 17 17 16 15 15 14 15 16 17 14 14 17 14 14 13 14 13 16 15 17 15 15 14 14 14 14 18 19 15 16 14 15 15 14 8 4 2 2 4 5 4 11 16 16 17 15 14 18 19 18 16 17 19 23 20 13 22 
20 19 18 18 18 20 19 19 17 16 18 15 15 18 15 15 19 21 16 16 18 17 18 16 17 14 13 17 16 16 17 15 15 14 15 13 15 14 17 15 17 14 15 16 14 14 15 19 16 18 14 13 13 15 16 14 16 5 4 3 7 7 5 8 15 16 18 14 15 16 17 19 18 17 18 19 19 19 16 15 
19 16 18 19 16 15 20 17 20 17 15 14 14 17 16 17 18 18 17 16 16 17 19 20 16 13 14 19 12 15 16 18 17 14 15 15 16 16 17 16 15 14 15 16 16 18 18 17 16 17 16 16 13 15 14 13 7 3 1 6 4 4 5 12 21 21 19 17 18 16 17 19 20 17 17 17 23 18 15 15 
16 17 15 15 16 19 19 17 15 16 16 13 16 15 15 14 16 20 18 14 12 16 18 17 17 17 16 13 18 16 13 16 17 14 14 15 17 16 16 17 13 15 15 15 18 19 17 16 18 14 14 17 16 17 15 10 7 4 3 5 6 5 11 15 24 24 16 15 19 16 17 18 19 18 15 17 18 19 17 18 
20 17 17 15 19 17 16 16 16 17 16 15 15 18 16 11 15 16 15 14 12 15 14 17 17 14 15 16 15 15 15 15 20 16 13 13 17 14 15 16 16 12 15 15 17 17 16 16 20 16 17 15 15 17 14 6 2 4 4 1 2 5 10 16 22 27 20 18 18 20 18 17 20 17 16 19 21 23 19 18 
24 15 17 14 17 17 19 18 15 13 14 15 15 14 16 16 15 19 16 14 15 14 15 14 18 15 14 17 20 15 17 17 17 16 17 15 18 16 15 15 17 13 17 14 17 17 19 16 17 19 15 16 14 14 8 8 6 1 4 5 4 8 13 18 22 20 22 19 17 17 17 20 19 16 16 18 23 20 19 20 
25 20 16 17 18 20 17 16 18 18 17 15 17 16 15 17 16 17 17 18 16 17 20 20 18 17 19 17 17 19 15 17 19 17 17 15 17 15 17 19 19 16 18 21 19 20 19 15 17 16 16 19 15 11 7 7 5 3 6 4 5 14 18 20 23 22 24 17 16 20 18 20 18 19 16 17 20 23 15 15 
23 19 16 20 17 19 18 18 15 18 22 15 16 18 17 13 18 18 17 18 17 14 18 20 19 16 12 17 18 19 17 19 17 14 17 14 18 16 17 19 18 17 23 17 19 16 19 16 15 17 14 15 10 6 2 4 5 3 3 5 10 18 20 18 20 23 23 21 20 22 18 17 18 18 20 20 20 22 16 18 
21 17 17 20 19 22 16 17 18 18 20 15 15 17 17 17 18 17 19 20 19 17 19 18 18 18 15 16 17 17 17 18 14 12 14 17 19 16 18 18 22 19 19 18 18 16 18 16 18 15 15 13 8 3 3 5 6 2 3 8 16 22 21 21 20 22 19 19 18 19 17 17 17 20 17 20 20 21 20 18 
22 19 18 20 19 19 16 17 21 19 18 15 17 16 17 17 18 18 18 18 22 16 19 20 20 19 17 16 17 16 19 18 16 15 15 16 19 19 21 20 16 18 19 18 18 17 18 15 16 19 12 8 3 5 8 7 3 1 9 12 17 22 20 22 19 20 22 20 19 20 19 20 22 17 19 17 21 20 14 19 
21 22 17 21 18 16 18 17 18 17 18 15 17 16 15 14 19 21 18 19 17 17 17 17 18 18 16 18 15 18 17 19 15 13 17 18 18 16 18 22 17 20 23 20 19 16 19 19 15 13 9 4 3 3 5 2 6 3 12 16 19 20 25 25 24 24 22 23 21 18 18 22 24 20 19 18 23 21 14 12 
22 20 17 20 21 18 16 18 18 19 20 17 16 14 16 19 17 18 20 19 17 19 22 20 21 18 16 17 20 17 16 15 17 16 16 17 18 19 19 20 20 20 21 20 21 19 19 18 15 12 6 3 4 6 3 3 6 9 13 16 19 23 24 23 25 22 25 21 21 21 21 23 22 22 21 20 23 21 15 14 
21 23 21 21 19 20 18 19 20 20 20 14 17 18 18 17 17 20 19 20 20 19 17 19 17 18 19 20 21 19 17 17 17 20 15 15 18 16 20 19 20 20 20 18 21 19 17 16 10 7 4 7 4 5 4 4 10 13 18 18 19 21 22 24 23 22 25 21 21 21 22 22 25 21 20 20 25 23 18 17 
19 17 22 18 20 21 19 18 19 20 21 16 20 18 16 16 20 22 22 22 24 19 20 21 18 20 19 19 17 17 19 17 18 16 17 18 18 16 17 17 22 21 21 20 17 18 17 17 10 5 7 5 4 5 4 6 14 16 16 19 25 26 23 22 23 25 25 24 22 23 20 22 24 22 19 22 20 22 15 20 
22 20 19 20 21 22 19 18 16 18 19 16 17 17 19 18 18 19 20 24 21 19 19 18 20 19 18 19 20 17 18 17 18 15 14 15 17 17 18 17 16 16 18 20 21 17 16 8 5 4 8 3 5 4 9 12 18 18 21 21 20 24 24 23 26 24 26 25 20 23 20 20 26 21 21 20 23 24 17 17 
19 18 21 18 18 18 16 16 20 18 17 16 18 19 18 14 19 19 20 22 18 19 21 19 21 18 17 18 19 18 18 18 19 16 16 16 19 16 17 16 17 19 20 21 20 15 10 6 6 5 3 3 7 8 12 17 18 22 21 21 26 25 20 22 22 25 24 25 20 20 18 20 23 21 21 22 22 19 18 19 
20 20 21 21 19 17 21 19 20 20 18 20 21 19 21 19 18 20 24 18 22 22 21 20 18 19 19 19 21 20 19 18 20 18 19 18 20 19 18 20 20 20 22 19 15 10 7 7 6 6 4 7 6 16 18 17 20 22 22 23 23 24 23 26 25 26 25 25 23 21 20 22 25 24 19 20 25 23 19 22 
23 20 22 21 23 24 20 20 23 20 25 20 20 19 18 17 21 21 20 21 26 20 19 23 22 22 19 21 23 20 23 19 20 18 20 15 19 17 19 21 20 20 20 16 11 8 9 8 7 10 9 8 17 18 19 19 25 21 26 27 26 24 26 24 25 26 25 25 24 23 21 24 26 22 21 22 24 23 20 23 
22 23 20 22 21 20 22 21 20 20 22 19 19 21 21 21 19 18 22 25 23 19 20 20 21 22 22 20 21 21 21 21 19 19 16 18 18 17 18 21 18 16 19 9 7 5 9 5 5 9 12 12 17 20 20 22 23 23 24 25 25 25 27 25 25 26 23 24 26 20 20 23 24 26 21 24 24 22 17 17 
21 21 24 21 21 21 26 19 21 19 21 18 19 21 22 17 17 20 20 22 20 21 19 22 18 17 18 20 22 20 20 21 18 16 17 17 19 15 17 21 16 13 8 7 5 7 8 8 9 14 18 18 17 19 19 23 21 22 22 24 23 23 23 24 25 26 23 24 24 23 19 22 22 22 21 22 23 22 17 23 
24 20 22 21 20 23 22 20 21 19 17 18 19 23 24 20 20 24 22 22 21 21 21 21 19 19 19 19 21 18 23 21 17 17 21 18 18 18 16 15 13 10 7 8 7 5 10 7 11 19 19 20 22 20 22 21 20 23 24 26 23 23 24 26 25 27 24 24 24 26 23 21 25 24 21 22 24 24 21 23 
25 25 24 25 23 24 23 21 23 22 23 21 20 23 22 20 22 23 24 23 21 22 23 22 20 22 21 23 19 19 20 19 19 21 18 18 18 19 16 11 9 7 9 7 8 10 10 14 21 21 23 22 22 23 24 21 25 23 24 23 21 29 24 27 23 28 29 26 27 26 26 25 24 26 22 25 24 26 19 24 
25 21 23 22 26 25 23 23 24 22 23 18 23 21 22 23 21 21 23 22 21 19 21 21 20 18 19 22 21 19 22 21 21 17 20 18 18 13 11 8 5 5 7 7 10 10 17 17 22 23 22 21 22 20 22 20 23 21 22 22 22 25 26 25 25 28 25 24 25 25 23 24 24 26 22 23 26 24 19 24 
24 25 25 24 22 26 22 21 22 23 22 20 20 18 23 18 17 22 25 23 22 20 20 23 22 18 18 22 23 19 19 19 17 19 17 14 8 8 8 6 7 10 13 11 14 17 19 22 23 24 22 20 19 23 23 23 23 22 22 22 22 25 23 25 25 27 26 24 27 24 25 24 29 27 27 23 30 24 20 26 
26 20 24 26 24 23 18 21 23 22 25 19 21 20 23 22 20 22 22 21 20 21 20 20 20 21 20 19 22 20 20 20 19 14 14 11 5 5 7 7 13 13 12 13 20 20 22 22 23 23 22 21 18 21 22 22 23 24 25 22 20 26 22 26 25 31 27 26 25 27 24 22 25 23 22 26 25 25 22 22 
28 25 22 22 23 25 21 24 24 24 24 22 26 23 22 19 21 23 23 22 21 22 19 18 21 20 18 20 21 19 20 16 17 10 11 6 7 11 9 8 14 16 18 20 20 21 22 25 23 22 20 20 22 23 23 20 22 24 21 22 23 24 24 25 27 29 27 24 27 26 23 30 30 26 28 28 26 23 19 22 
27 21 25 24 22 23 24 22 23 22 22 20 24 24 24 21 22 25 23 21 20 23 19 18 21 20 20 19 17 17 18 13 8 9 5 7 6 11 14 14 15 19 21 23 21 21 24 21 24 24 21 20 21 21 22 24 24 25 25 21 23 24 25 27 28 32 26 29 27 29 25 25 29 29 27 25 25 26 21 24 
23 24 23 19 25 24 26 25 27 25 26 24 21 22 21 20 23 25 22 24 21 21 22 19 21 21 19 16 14 11 14 9 6 7 7 8 8 12 15 19 21 21 24 23 24 21 21 23 24 26 22 23 22 23 22 23 24 23 24 22 24 25 26 27 27 28 30 26 28 27 29 25 28 29 28 26 27 26 21 20 
26 24 23 26 24 27 26 28 23 20 25 23 23 25 23 20 20 24 25 21 21 24 23 19 18 16 13 12 10 11 11 9 10 9 8 10 15 17 20 21 23 23 20 22 22 21 22 23 23 26 22 21 21 24 24 27 22 24 25 26 25 26 25 27 30 28 31 29 25 30 26 26 28 28 30 30 27 27 22 24 
25 23 23 26 26 32 24 26 27 23 24 24 23 24 23 22 23 27 23 24 21 19 19 15 12 8 8 9 10 10 10 9 11 12 12 17 22 25 22 27 25 25 23 21 24 19 21 24 23 23 26 23 21 24 25 26 27 25 27 23 26 24 27 28 28 32 29 30 28 27 28 26 31 28 27 28 27 27 23 25 
21 20 20 20 25 25 26 23 24 25 25 21 20 23 23 20 21 20 22 19 17 14 12 11 9 13 8 10 8 12 12 11 12 18 18 22 26 24 24 24 22 24 25 23 24 23 21 23 23 21 24 21 21 26 25 23 29 25 26 26 25 30 27 29 27 31 28 29 28 29 30 29 31 28 27 25 29 30 22 26 
21 19 16 20 20 20 21 22 20 16 23 17 20 17 15 17 18 19 15 18 15 15 10 11 10 8 12 12 15 13 15 17 21 23 22 21 27 24 26 26 25 21 24 22 26 21 25 21 26 26 24 26 23 26 21 25 26 25 25 25 25 28 29 28 29 31 27 31 31 32 28 28 32 26 23 26 25 28 26 25 
23 22 18 18 17 24 21 21 20 17 19 13 14 16 16 14 12 19 15 16 13 16 11 13 12 11 10 15 14 16 19 24 24 25 27 26 28 23 23 26 25 23 25 23 26 25 24 24 25 23 24 23 23 23 24 26 28 25 25 24 27 26 26 26 30 32 27 30 30 29 28 30 29 28 25 28 27 29 25 25 
24 22 21 20 21 20 19 18 19 16 21 12 15 17 15 15 14 18 14 16 14 13 12 13 13 16 15 16 20 26 25 27 28 27 27 29 26 26 27 24 26 26 27 26 25 26 27 25 23 25 21 22 25 24 26 26 26 26 27 27 24 24 26 27 32 31 30 31 29 30 25 29 28 28 23 27 24 30 24 24 
27 28 23 22 20 23 20 18 16 17 19 12 13 16 16 14 14 15 16 15 16 18 15 16 20 20 24 23 26 24 26 26 30 27 28 27 27 25 24 26 26 26 25 26 25 22 27 24 24 24 22 22 21 24 26 24 22 24 25 29 22 26 32 28 32 30 30 28 28 26 24 32 31 28 24 25 27 28 22 21 
34 30 30 28 27 25 21 22 19 18 19 11 16 18 14 16 16 21 21 19 19 18 23 25 24 22 25 21 23 29 29 27 28 30 29 28 25 29 26 27 26 25 26 24 28 24 26 27 26 23 26 23 22 23 25 25 28 23 29 25 24 25 28 30 30 29 30 31 28 28 28 32 29 28 26 31 30 29 21 26 


