P2
80 60
252
19 16 18 23 30 44 82 92 66 40 51 87 83 41 36 31 29 27 23 24 19 23 19 19 18 24 21 22 26 29 31 28 25 24 26 23 25 22 22 22 22 24 26 21 25 25 23 22 24 19 12 17 13 14 13 12 14 13 12 14 13 17 17 16 16 20 21 23 25 22 18 22 17 16 19 17 12 11 10 11 
19 16 18 24 30 46 89 91 65 35 59 91 78 39 33 33 29 28 24 22 24 21 21 19 19 20 19 23 24 26 30 29 25 31 28 21 22 23 22 23 22 26 21 21 21 20 23 24 24 16 14 13 10 10 13 16 15 15 13 14 16 17 16 20 21 21 19 24 22 22 23 21 19 13 17 18 15 11 9 9 
18 17 16 24 35 45 91 90 61 38 61 93 71 37 35 29 26 21 26 23 22 21 19 20 19 26 28 24 25 29 28 31 24 23 25 24 24 23 22 23 21 23 22 19 22 26 25 23 23 21 16 17 17 15 13 17 18 15 18 17 21 22 25 25 23 18 22 20 20 22 21 23 15 16 19 19 12 10 6 8 
17 18 20 27 31 50 94 91 51 38 69 88 68 33 28 28 25 24 21 21 24 21 19 20 21 26 26 23 27 27 27 30 26 22 25 19 22 22 18 22 19 23 23 23 24 27 25 25 24 21 19 21 23 18 23 24 24 23 29 25 22 24 24 26 25 22 22 20 23 18 21 23 18 19 21 16 16 11 6 6 
16 18 18 29 34 57 106 88 50 38 71 91 60 31 30 27 23 21 23 20 20 15 20 23 21 26 22 23 26 27 27 29 25 20 23 21 23 19 20 20 19 24 23 21 21 25 25 25 24 25 26 23 22 21 25 27 26 28 26 26 23 24 28 23 25 24 23 21 23 24 20 22 13 19 19 18 15 8 5 12 
14 15 20 31 34 65 101 78 47 42 81 85 56 30 25 23 21 21 23 19 20 23 25 23 19 24 25 26 24 28 25 26 25 24 24 22 23 21 21 23 16 18 22 23 24 22 25 24 23 25 23 26 24 22 22 24 26 26 27 26 23 25 23 25 19 22 22 20 25 19 23 21 16 21 20 18 17 9 8 6 
14 18 18 31 34 65 102 76 42 42 84 84 50 26 27 25 21 22 23 20 19 22 23 19 22 24 21 21 24 28 27 26 27 24 23 22 22 23 23 21 22 20 21 21 21 23 25 29 26 26 25 25 24 22 25 24 26 20 25 21 23 23 26 23 22 24 20 21 23 24 22 23 20 22 24 21 17 9 9 7 
9 12 19 26 31 63 95 72 41 42 83 82 40 24 20 21 21 18 21 19 18 20 20 15 15 18 20 20 20 27 26 27 27 21 23 19 19 21 21 21 21 21 22 20 23 20 20 20 22 23 26 21 22 24 20 19 23 22 24 20 22 20 23 28 22 22 19 21 23 21 20 22 17 19 20 17 12 12 9 8 
4 8 10 28 24 62 100 69 35 44 87 80 39 20 20 19 16 19 19 15 19 20 18 16 19 19 19 19 23 25 26 26 22 22 22 23 23 21 21 21 24 22 20 23 21 22 23 22 22 23 21 23 18 22 21 23 23 20 22 24 23 26 25 28 23 26 23 23 23 22 22 26 18 18 21 19 14 17 10 14 
4 2 1 0 6 71 97 64 26 46 94 78 37 20 19 18 14 15 16 17 19 18 20 19 18 20 23 22 21 27 23 26 24 24 21 18 24 22 19 22 21 22 22 20 24 26 25 24 24 23 19 22 20 20 22 24 25 22 24 25 25 26 28 26 26 24 24 23 23 24 24 23 19 23 20 21 14 14 12 9 
9 10 7 0 9 73 98 59 24 46 100 80 23 10 8 12 11 14 13 15 17 14 17 14 16 19 21 18 16 20 23 27 20 24 18 18 20 22 21 20 21 21 23 23 22 26 24 20 22 20 20 17 21 21 22 22 24 26 27 29 27 28 27 26 26 23 27 22 24 25 23 25 21 20 19 19 17 17 12 8 
16 15 14 12 18 81 98 54 23 53 95 74 17 7 6 6 4 5 8 10 11 14 15 14 16 17 16 19 18 20 24 24 23 22 20 18 18 21 18 21 19 24 21 23 23 22 22 24 23 19 20 24 24 22 22 22 25 30 28 31 24 28 24 26 24 25 24 24 20 22 26 23 21 20 21 22 15 17 10 4 
11 12 12 14 12 80 93 53 22 55 97 67 13 5 6 4 7 3 6 3 0 1 4 3 6 11 12 15 14 17 23 18 20 19 18 17 18 21 21 21 17 21 20 22 21 22 21 19 19 20 20 24 24 22 25 25 27 26 27 24 27 29 25 27 23 27 27 20 24 23 25 25 19 20 18 21 19 12 11 14 
14 12 15 14 19 85 85 44 26 63 97 65 18 7 8 5 5 5 6 2 3 4 5 1 2 2 4 5 7 7 8 7 13 18 21 15 19 21 19 21 21 20 20 21 23 18 22 25 25 22 25 27 22 25 24 29 28 24 25 28 26 26 26 24 22 28 22 23 21 24 26 25 21 20 21 22 17 13 10 10 
10 12 11 13 31 85 82 41 25 71 93 54 16 11 9 10 9 6 5 4 1 3 4 1 3 5 3 3 5 8 6 6 1 2 2 7 16 22 20 21 21 19 23 19 24 23 24 25 25 23 24 24 23 26 27 26 28 24 27 26 26 28 23 26 27 25 26 22 22 22 21 30 21 19 22 21 18 14 14 14 
12 12 13 15 33 89 81 35 25 74 90 52 16 8 9 10 9 5 8 2 3 7 3 4 1 6 5 2 3 8 4 6 4 1 4 15 14 21 16 22 19 18 20 23 22 24 24 24 26 24 25 22 25 25 28 24 28 30 31 26 29 26 25 24 27 26 26 26 19 23 22 24 23 21 23 21 18 17 10 12 
8 12 13 13 41 90 79 31 22 80 81 49 13 10 11 11 8 6 6 5 4 6 4 4 2 2 7 2 6 9 6 4 6 13 18 16 23 23 19 17 17 21 19 19 22 20 26 21 24 24 24 23 25 25 27 27 27 26 25 26 29 27 28 23 23 25 29 24 23 20 23 26 21 22 25 21 18 16 11 9 
12 13 13 17 44 96 78 32 28 84 86 46 15 14 14 13 10 8 8 7 9 7 6 8 3 4 6 3 8 8 9 14 23 23 21 19 22 21 23 24 19 24 24 21 24 21 26 25 24 26 26 24 28 25 25 27 31 28 29 28 28 26 28 25 23 25 27 23 22 24 25 25 22 20 24 22 22 17 12 10 
13 11 14 17 44 89 70 29 25 82 80 40 13 9 11 11 7 11 10 10 8 5 8 7 4 7 4 4 5 7 16 19 20 19 19 18 22 20 22 21 20 18 21 23 23 24 23 24 22 24 25 25 26 25 25 26 24 27 27 26 27 27 25 29 25 27 25 25 22 23 21 22 22 21 23 21 21 17 15 13 
14 12 15 17 53 92 75 26 26 81 79 37 14 10 11 12 10 11 9 8 6 5 7 7 7 6 8 4 6 12 18 24 22 20 18 17 21 20 20 20 18 21 19 20 22 22 22 23 24 24 27 25 26 23 24 26 25 26 28 26 28 27 27 25 25 23 26 24 19 20 22 23 21 22 24 19 20 16 13 10 
18 17 16 19 66 96 74 27 31 91 80 38 13 12 11 11 11 8 11 8 7 7 5 6 4 10 6 6 4 11 17 20 22 19 18 15 19 22 17 18 19 20 22 23 21 24 22 25 23 22 26 24 26 23 25 25 26 24 27 26 25 27 26 25 28 27 26 26 23 20 22 23 23 19 23 21 17 19 13 12 
41 35 33 33 79 106 77 28 36 96 81 34 13 12 11 9 11 11 12 7 9 11 7 5 6 5 7 5 6 10 12 19 20 18 20 18 17 20 19 20 21 21 22 22 21 21 23 24 26 24 26 26 24 26 29 24 25 26 27 24 27 29 28 30 26 26 25 27 25 20 20 24 22 21 22 22 19 18 15 13 
101 96 89 89 104 107 64 23 43 93 79 34 16 12 9 12 10 9 10 8 11 9 9 6 9 6 9 6 12 9 8 17 20 18 21 15 19 19 18 18 21 20 23 22 21 23 25 23 21 24 26 27 26 23 23 27 27 24 24 25 27 28 29 27 27 29 29 27 22 20 19 25 22 20 22 23 20 16 14 15 
104 101 104 101 97 90 53 30 52 95 81 28 13 10 10 11 9 9 12 10 12 9 12 8 6 7 10 8 8 10 9 17 18 19 17 15 19 20 22 19 21 21 24 25 23 24 24 22 25 23 27 27 25 25 25 24 24 25 25 27 27 26 28 26 30 28 27 30 25 23 22 22 20 20 20 24 19 16 14 19 
58 63 73 80 76 66 35 28 56 101 79 30 18 15 14 15 13 13 12 11 11 13 13 15 13 11 10 8 11 11 14 17 21 20 21 19 22 20 23 24 25 22 25 25 23 23 25 28 24 30 27 28 26 25 25 27 26 26 28 27 31 30 32 29 29 32 29 28 29 27 27 24 22 23 25 20 20 21 19 16 
25 24 26 28 29 28 26 28 59 106 80 31 15 17 14 16 13 14 14 9 11 11 12 13 14 13 12 12 11 14 12 20 23 24 21 20 22 21 24 23 24 23 23 27 25 24 23 23 24 27 27 26 27 26 30 28 28 28 30 30 28 26 30 33 29 28 30 32 27 30 27 32 17 18 20 22 20 21 16 15 
42 38 34 26 20 24 25 33 68 113 80 29 14 14 17 15 12 14 15 14 9 11 13 12 13 11 9 10 12 13 13 21 24 19 22 19 22 22 25 26 23 25 26 25 22 25 25 27 24 27 28 30 24 26 27 27 27 29 28 32 28 30 31 31 30 31 30 30 25 29 30 30 25 24 21 21 18 15 16 11 
106 102 96 87 71 70 64 61 91 113 82 32 17 16 16 14 17 14 16 9 9 13 10 10 11 13 13 11 8 11 12 20 22 19 19 19 23 24 22 25 23 25 24 25 21 25 24 25 25 26 27 23 28 25 29 27 24 27 26 28 28 28 28 29 30 25 30 29 26 26 25 31 26 22 25 24 20 21 18 13 
106 109 109 102 99 99 99 93 102 102 73 22 19 15 15 16 15 11 15 15 14 16 14 11 14 14 13 10 13 14 15 18 25 22 24 22 24 22 26 28 25 26 25 25 23 22 24 29 26 24 29 28 26 27 27 25 25 29 28 29 26 28 27 28 28 29 29 28 28 27 30 27 25 23 28 23 25 21 16 20 
59 65 73 79 83 94 96 92 94 84 51 17 15 13 13 14 14 15 15 16 15 14 12 14 15 12 15 12 13 12 16 17 22 21 22 23 22 22 28 25 26 27 25 27 24 23 26 25 25 26 26 27 27 26 26 24 28 25 27 29 25 28 26 30 29 30 30 30 27 25 30 32 28 26 28 25 20 22 19 26 
23 26 28 26 25 35 41 43 47 37 22 18 17 15 16 17 17 15 16 18 13 18 15 16 12 17 14 15 13 13 12 19 22 22 24 21 21 24 25 26 24 26 26 25 22 25 26 26 26 27 27 28 25 27 24 26 28 28 28 29 29 30 29 31 28 27 31 30 26 29 31 31 23 26 27 25 23 22 20 20 
22 19 19 20 18 21 24 21 25 20 19 16 18 16 15 19 14 18 16 17 16 17 14 16 15 18 13 15 16 17 14 20 23 23 23 19 23 26 25 24 25 27 26 26 26 23 25 24 26 29 26 28 28 27 29 27 27 26 31 29 29 28 32 31 29 30 33 31 30 28 30 33 29 29 27 24 22 23 18 21 
18 19 19 18 16 16 22 23 22 23 17 17 15 16 19 18 19 16 17 17 15 18 18 15 17 17 17 17 17 16 13 20 23 24 23 21 21 25 26 25 25 27 25 23 25 22 27 24 25 27 27 29 28 24 28 27 25 25 30 31 30 29 30 30 30 31 28 31 29 29 26 28 28 29 29 26 23 23 20 21 
18 19 20 22 17 20 24 20 24 24 20 18 19 19 19 19 15 19 20 16 18 20 20 18 18 16 17 16 18 18 15 23 26 24 23 21 25 26 24 28 27 25 27 25 26 27 25 25 26 29 31 31 26 26 30 28 31 26 28 31 29 34 31 33 30 31 32 32 31 30 32 33 33 33 33 26 26 27 20 22 
21 22 18 14 15 20 19 20 23 21 20 19 19 19 21 19 20 18 18 21 16 17 20 18 20 21 21 17 19 15 17 22 24 22 22 23 28 24 24 26 28 27 24 27 25 26 24 26 28 30 31 30 27 27 28 26 32 28 28 32 34 32 32 31 32 32 32 31 29 32 31 33 28 33 33 28 24 24 27 25 
21 24 20 21 17 22 21 19 21 21 17 22 19 22 21 20 20 17 18 18 18 18 18 19 18 20 17 18 22 17 15 20 24 24 25 26 26 24 25 24 24 27 27 27 28 25 27 24 27 29 29 30 28 27 27 29 27 28 27 32 32 31 30 32 34 32 33 28 30 32 29 36 30 30 33 30 29 27 26 28 
23 22 23 22 18 20 21 22 25 23 23 18 21 18 21 21 20 20 19 23 16 19 20 20 21 20 24 20 22 21 16 23 24 27 26 24 26 26 26 27 26 28 26 24 23 28 28 28 29 27 31 29 30 25 30 27 30 32 31 34 32 31 31 34 33 29 32 32 28 31 34 32 27 33 34 31 27 30 28 29 
18 20 23 22 19 23 23 21 26 21 17 19 21 21 22 21 20 22 23 21 22 25 20 22 22 22 24 19 24 20 21 21 27 26 22 24 28 27 26 26 28 31 30 26 29 27 29 29 29 29 29 30 28 30 29 30 32 31 29 30 30 31 32 32 32 31 31 32 30 31 30 32 28 29 32 29 30 31 30 35 
20 16 21 21 20 26 23 22 28 20 15 19 19 18 24 21 24 21 24 21 18 24 20 19 24 25 24 23 24 20 19 20 25 28 25 25 27 25 25 27 26 31 28 25 27 28 27 28 29 27 29 30 27 28 30 28 31 29 28 30 29 30 29 31 31 31 31 31 31 33 29 33 29 30 32 31 32 35 39 43 
22 16 23 20 16 23 24 20 30 21 18 22 19 19 24 22 23 20 24 21 21 22 22 24 24 23 22 23 24 23 23 23 27 28 24 27 25 29 24 27 27 26 29 28 29 30 32 27 27 29 31 28 29 26 29 29 31 28 28 30 29 33 29 30 32 31 32 32 32 32 31 33 33 29 30 35 45 44 38 41 
20 20 22 20 21 24 24 22 26 22 20 21 21 20 21 25 25 22 26 24 24 23 25 24 25 27 26 24 25 23 22 23 29 26 27 26 27 29 28 26 30 29 28 27 28 28 27 29 26 28 32 28 30 27 28 28 29 29 26 30 34 30 33 30 33 32 32 30 31 31 34 35 32 31 31 33 35 32 35 32 
20 20 21 22 20 23 26 23 26 25 20 20 21 22 26 23 26 26 25 26 25 27 25 25 29 29 26 26 25 24 21 22 29 27 26 29 28 25 30 30 29 30 29 30 29 31 32 27 28 26 30 31 30 29 28 32 32 27 31 27 29 31 27 32 31 33 35 31 31 34 33 35 35 32 35 34 36 30 36 36 
20 19 19 20 21 26 26 23 26 24 20 21 23 25 23 24 24 25 26 27 22 26 26 26 27 30 27 27 23 27 23 25 31 29 27 26 25 28 28 26 29 27 29 28 24 28 25 26 26 25 29 31 28 28 28 28 26 29 30 30 28 29 30 30 31 31 32 32 32 35 34 37 37 33 36 36 34 34 30 33 
18 20 20 21 17 24 28 28 27 24 19 22 22 24 23 26 23 28 27 28 25 28 27 29 28 28 27 26 26 28 25 25 28 33 29 28 28 29 31 27 30 29 27 28 25 26 28 28 27 28 30 28 27 26 28 25 26 28 30 30 30 31 29 36 28 30 34 33 30 36 37 39 40 44 49 54 65 74 85 106 
19 20 18 21 17 23 27 28 27 26 21 24 24 25 24 30 26 28 31 27 32 31 34 30 32 28 28 26 24 27 25 22 28 30 27 27 30 29 29 23 29 28 28 26 27 27 24 26 28 27 29 26 24 23 23 26 27 29 30 29 30 29 29 33 29 29 36 35 31 43 64 79 87 101 112 116 130 141 158 187 
21 21 22 21 19 25 29 26 24 25 23 23 26 24 27 26 27 30 31 30 30 33 30 32 34 33 31 28 24 28 24 21 29 30 28 29 29 33 28 30 29 31 26 28 28 27 29 27 28 30 30 28 27 25 28 26 24 31 30 26 30 33 34 33 32 31 37 36 34 58 103 121 131 134 144 151 162 178 193 225 
19 23 23 24 20 26 31 28 27 27 23 24 26 27 28 31 27 28 32 34 32 38 33 32 34 30 28 27 26 27 24 21 25 31 26 29 29 31 30 31 32 32 28 28 28 25 26 27 25 29 30 28 28 26 27 28 29 29 30 32 32 34 33 33 32 32 37 36 41 71 115 144 153 161 175 181 193 209 226 241 
20 22 22 19 24 28 31 29 23 27 26 23 30 25 24 28 31 29 34 32 34 35 36 34 38 35 35 36 32 32 33 29 25 27 29 31 30 30 28 33 30 31 29 29 29 27 26 28 26 28 31 28 26 25 28 27 26 29 30 27 34 30 32 34 28 30 35 35 36 66 116 152 160 170 179 191 200 216 234 248 
22 22 23 24 20 23 30 27 29 30 26 25 26 29 28 32 30 32 31 33 34 32 30 36 35 38 41 42 39 38 36 31 30 30 31 33 31 31 34 31 30 29 29 28 27 24 26 29 27 29 27 30 26 25 27 28 28 29 29 28 31 34 32 31 30 30 34 35 34 64 113 150 158 173 179 188 203 214 236 251 
22 19 22 23 19 25 33 26 27 29 26 25 28 27 29 31 30 30 32 33 34 37 34 36 35 38 42 41 37 37 33 31 28 28 32 30 28 30 30 31 30 32 30 31 27 26 26 28 25 26 29 28 27 24 28 27 29 29 28 30 28 31 33 32 33 32 36 34 38 61 110 144 159 167 177 185 195 213 234 248 
22 25 28 27 26 30 31 27 30 33 28 27 29 31 28 31 32 32 34 35 37 38 36 38 38 39 47 43 38 41 37 32 30 30 31 32 32 33 35 35 31 33 33 33 31 30 27 28 26 30 26 30 28 27 29 29 26 32 32 29 32 34 33 32 33 34 35 38 37 63 110 141 155 166 172 188 196 212 230 250 
27 25 27 27 26 32 31 31 29 30 30 29 30 29 32 34 34 34 39 36 38 40 37 38 38 44 44 43 38 42 39 33 29 30 36 34 33 34 31 36 34 35 35 32 31 28 26 26 30 28 28 29 31 28 33 33 32 31 35 31 30 32 34 32 33 40 35 35 40 54 105 136 153 160 172 185 193 209 227 244 
29 29 28 28 25 33 34 37 33 34 31 30 31 30 33 34 34 38 39 39 42 44 42 41 43 44 48 45 41 40 39 37 27 29 36 33 36 37 32 38 34 35 30 33 31 29 28 29 31 32 32 30 31 31 37 38 36 34 35 32 33 31 32 34 39 39 35 33 37 54 98 135 152 162 170 180 193 205 221 240 
27 30 31 34 30 33 37 33 34 36 34 31 35 30 34 36 36 36 41 42 44 47 45 42 45 45 49 45 42 41 43 38 33 33 38 36 37 36 35 37 32 35 34 35 32 31 34 30 30 31 33 35 34 34 45 43 41 39 35 32 33 35 38 34 37 34 34 36 38 50 95 132 147 162 166 177 177 181 207 242 
35 32 33 33 32 37 41 37 39 36 36 37 39 38 40 39 38 42 43 45 46 49 49 50 49 50 53 51 46 51 44 42 35 35 40 39 37 40 39 38 36 35 33 35 32 35 33 31 33 33 33 34 36 37 47 64 77 61 48 38 35 36 37 38 35 37 36 41 38 48 94 133 150 158 165 171 169 159 203 252 
34 38 37 40 35 36 45 40 38 38 40 35 39 41 39 42 44 45 48 49 51 54 56 52 53 55 57 56 53 52 49 44 38 38 42 42 44 42 40 42 39 40 38 37 37 38 34 31 35 33 38 37 39 41 75 191 168 103 61 45 40 39 36 35 40 38 40 40 43 48 88 132 150 161 168 176 176 189 218 240 
42 41 38 45 39 45 47 43 44 41 44 40 39 41 43 47 48 49 49 53 56 60 61 56 60 62 59 58 54 53 52 43 42 41 44 46 44 42 40 40 37 39 40 36 39 37 36 37 37 38 42 40 41 43 92 235 179 99 57 40 38 38 37 37 37 41 41 41 46 50 89 125 145 158 172 174 185 197 217 236 
46 43 44 45 41 43 49 47 46 46 46 43 43 45 46 48 53 54 54 58 59 62 61 60 65 65 65 61 59 58 52 45 40 42 43 46 44 43 37 36 36 40 39 36 40 39 35 35 37 36 38 39 40 41 58 92 92 67 49 41 36 40 36 36 37 38 38 42 41 44 83 120 144 161 166 176 187 201 215 234 
53 51 51 53 45 52 54 52 49 50 49 49 48 50 54 53 50 59 58 59 64 67 68 73 75 72 77 71 63 57 51 50 44 45 47 46 42 38 36 40 38 42 42 40 41 40 37 41 41 39 38 41 38 39 47 50 56 51 46 41 39 44 39 38 34 40 39 40 41 47 80 124 145 160 170 178 192 204 213 228 
70 68 62 57 51 54 60 54 53 52 49 50 51 55 54 54 53 60 66 67 73 73 75 77 77 81 79 73 62 61 53 50 44 46 47 48 47 45 55 67 45 44 49 46 43 41 43 42 41 40 42 40 39 41 42 47 50 44 46 38 41 39 40 41 39 41 39 39 41 41 72 129 145 165 174 178 191 204 214 224 


