P2
80 60
300
39 33 44 59 103 113 73 48 81 102 85 55 48 44 41 35 37 33 27 31 27 24 25 23 27 25 29 31 32 31 33 33 32 32 29 27 28 28 29 29 29 28 29 30 27 30 29 22 16 18 17 21 19 19 20 21 23 25 23 24 25 28 31 27 29 25 29 31 30 27 28 29 23 28 29 28 31 31 27 25 
37 37 44 65 105 109 67 45 84 105 79 53 48 45 41 36 34 33 30 27 28 28 27 26 29 30 32 33 30 31 30 31 30 28 26 25 27 26 27 27 30 28 30 28 28 29 29 25 18 22 17 21 21 21 22 22 25 26 29 30 29 29 32 32 27 24 26 27 26 23 26 29 25 32 28 25 30 29 29 30 
32 35 47 67 108 106 60 52 90 103 77 46 48 42 35 35 35 37 28 28 27 26 26 25 30 34 30 35 32 32 30 28 27 23 27 25 28 25 28 26 25 31 27 30 27 31 30 24 26 23 22 25 27 29 27 29 30 33 32 33 37 31 30 31 30 25 26 29 28 34 30 29 29 24 29 26 30 35 34 29 
33 35 43 73 110 102 56 50 95 96 68 43 41 39 36 32 34 31 29 31 31 27 33 30 33 27 29 32 31 32 29 28 27 26 24 24 27 26 28 27 28 28 30 27 29 33 30 33 30 28 32 31 29 30 29 33 30 32 34 32 30 31 26 25 28 23 25 26 32 31 29 29 26 26 29 28 32 30 27 26 
34 36 49 80 116 100 57 53 96 99 64 45 43 36 31 30 31 30 28 25 27 28 32 28 30 31 27 31 32 32 31 29 30 23 27 23 26 24 24 24 25 27 29 27 26 29 31 31 29 32 28 30 27 31 29 30 29 30 30 29 27 28 30 24 26 28 25 27 26 29 29 32 31 26 31 29 29 27 26 26 
33 38 49 87 110 95 56 57 98 97 62 40 37 36 32 32 32 29 29 31 34 31 29 24 27 32 27 31 29 32 32 32 29 30 26 24 23 28 25 26 27 31 26 28 30 30 30 28 29 28 29 30 29 28 28 27 32 28 27 27 27 28 29 27 30 27 22 26 29 31 30 34 27 27 30 29 29 27 26 29 
40 45 47 86 110 93 53 57 104 92 54 34 36 35 32 28 31 30 29 29 31 29 28 26 25 25 28 31 33 31 30 30 29 26 28 27 25 27 31 25 26 27 24 27 27 28 28 28 27 27 27 27 26 29 25 33 32 28 29 27 28 30 31 29 31 28 23 24 27 28 30 32 28 28 28 28 28 31 26 29 
30 35 44 86 109 88 48 53 101 88 52 32 31 32 27 25 29 31 28 26 25 25 23 23 23 24 23 25 27 27 25 26 26 26 23 27 23 25 23 25 24 26 25 25 25 24 24 23 23 27 26 23 22 23 25 25 25 28 27 28 29 33 32 26 28 24 22 20 26 26 29 27 28 26 23 25 26 31 27 30 
24 28 38 92 115 89 42 58 102 87 47 31 33 30 28 27 28 25 26 24 27 25 22 22 26 25 28 26 25 28 28 26 29 26 23 27 27 25 26 26 26 25 24 25 24 26 27 24 25 22 23 23 27 23 26 30 30 32 30 29 30 30 29 30 31 29 26 24 27 28 34 29 26 25 26 26 26 30 29 30 
11 0 19 91 111 82 37 54 109 93 41 27 25 27 24 24 26 26 23 25 24 25 22 24 21 24 23 26 26 30 29 25 24 26 23 24 24 23 24 23 26 26 27 29 24 27 26 26 25 25 21 21 25 21 26 33 32 32 30 31 30 30 31 27 32 27 24 23 25 28 32 31 29 27 29 25 26 29 30 28 
17 8 26 91 114 79 32 59 119 95 31 19 16 19 20 20 22 20 18 20 20 21 21 22 20 23 22 22 24 23 28 25 26 26 21 20 24 23 24 25 27 26 23 25 23 22 25 24 25 23 26 27 28 26 26 29 29 33 31 28 30 30 28 29 28 28 24 21 26 25 27 27 31 27 28 26 26 31 27 27 
29 25 33 101 119 79 34 64 120 95 29 19 17 16 10 16 14 13 13 16 17 19 20 20 22 20 24 23 25 26 24 24 25 23 21 24 22 24 24 26 28 26 26 28 24 25 24 24 27 29 30 26 30 28 27 34 30 31 33 33 29 33 30 29 31 27 25 22 25 27 30 29 30 28 27 25 24 29 34 27 
23 25 28 97 120 79 35 69 119 91 32 17 15 14 14 12 13 13 10 7 6 7 6 9 10 15 12 9 14 17 17 19 21 21 19 23 23 23 23 21 26 26 23 24 22 23 25 25 27 26 28 28 30 27 29 31 28 30 30 32 27 33 25 29 30 28 26 24 25 26 30 28 31 29 29 26 28 31 29 29 
23 18 33 104 105 70 38 75 120 86 29 20 16 17 17 17 13 11 10 8 8 6 9 7 6 7 6 6 8 10 7 8 12 16 16 19 21 22 21 22 26 23 27 26 25 28 29 28 25 28 29 29 29 28 27 30 30 32 32 31 29 35 28 27 30 29 25 23 23 27 28 31 30 31 32 31 27 31 28 29 
27 22 43 102 100 59 34 80 114 79 27 24 21 22 20 16 14 14 13 12 12 8 11 9 9 8 10 10 11 9 9 4 5 13 18 24 22 24 23 21 26 25 27 26 28 30 29 30 29 29 31 30 31 32 31 30 33 33 30 30 32 32 30 32 32 32 27 24 23 29 32 36 31 29 29 33 32 28 30 29 
27 21 42 107 98 55 35 79 110 74 26 21 18 21 18 14 14 13 13 10 10 9 8 9 9 9 8 7 6 10 9 6 16 18 21 23 24 20 20 20 27 28 26 28 25 27 26 30 28 30 27 29 30 28 32 32 31 31 29 32 32 29 29 29 30 31 27 23 23 26 31 30 30 27 27 29 30 24 27 33 
25 19 46 112 96 54 34 80 107 68 25 21 21 21 17 14 13 15 10 12 11 12 12 9 7 9 9 11 10 13 20 21 24 23 24 21 22 22 25 26 26 30 29 29 27 26 29 31 28 27 27 29 29 30 32 31 31 35 33 32 29 31 29 26 32 33 28 25 22 24 29 30 29 28 27 29 31 29 27 28 
22 21 49 108 98 53 32 84 105 66 25 21 21 21 17 18 15 15 13 14 13 11 12 10 12 11 12 11 16 22 25 26 24 23 24 22 25 25 24 23 26 27 26 28 27 28 30 30 29 30 28 31 31 30 27 33 33 32 31 28 32 32 29 33 31 33 31 26 22 24 29 28 31 27 28 29 31 34 29 28 
24 23 50 103 92 53 32 81 102 67 26 21 19 20 20 16 17 16 12 13 15 12 12 8 9 8 8 9 17 20 22 24 22 23 19 22 20 24 23 21 23 24 26 25 27 29 26 29 25 26 27 30 29 28 27 27 30 32 33 28 30 29 27 29 29 33 30 26 16 21 26 28 27 27 28 29 30 33 30 30 
26 24 55 107 94 53 31 90 104 64 26 25 22 21 17 17 20 16 18 14 12 13 13 11 12 13 11 10 15 23 28 22 25 22 22 22 20 23 24 28 25 26 26 29 25 27 29 28 28 27 30 27 29 30 31 31 32 34 31 32 29 31 33 30 32 30 33 29 20 20 27 30 30 31 29 32 30 33 30 30 
33 29 64 113 92 50 36 94 106 59 24 22 27 22 20 22 21 17 17 15 14 13 13 16 14 13 14 14 15 21 28 23 25 22 23 22 24 23 23 24 24 27 24 28 28 29 29 29 30 29 30 31 28 29 27 32 31 33 30 32 31 33 33 30 34 35 32 31 24 23 29 29 34 31 35 33 34 33 30 33 
36 38 77 123 94 49 40 98 106 58 24 27 24 24 19 16 22 18 16 17 16 18 13 14 10 13 14 17 11 17 24 24 22 19 19 22 22 23 26 23 28 27 26 27 28 28 30 26 30 31 27 30 27 31 28 31 32 32 31 29 32 32 34 30 33 31 36 29 23 23 24 32 30 31 33 28 32 33 33 33 
88 78 109 128 89 42 45 99 104 56 26 24 23 21 20 19 18 18 18 17 15 15 12 12 13 14 14 13 12 18 21 22 23 23 22 20 23 24 21 21 24 30 25 27 27 26 27 30 30 29 28 27 28 28 29 27 31 32 32 29 30 32 31 30 29 32 33 32 26 19 24 26 29 30 31 30 29 33 34 31 
111 109 113 108 78 41 47 98 103 57 26 25 26 20 19 19 18 20 18 18 15 17 17 15 11 13 13 15 13 18 25 22 21 21 20 15 23 25 24 25 25 26 25 28 26 27 27 26 27 32 31 32 29 30 31 30 30 30 30 32 31 32 32 29 30 33 31 34 31 29 24 24 29 29 28 33 31 35 33 28 
104 100 96 87 57 39 48 103 104 57 30 26 26 23 23 20 21 18 18 17 16 16 16 16 16 15 16 16 19 19 24 24 23 25 22 21 24 24 28 26 29 28 30 29 26 29 33 30 31 30 30 31 32 32 28 30 31 33 31 30 34 31 31 30 33 32 36 36 34 29 28 23 24 24 29 32 33 30 29 32 
46 50 50 49 34 35 52 114 105 55 28 27 26 26 20 26 21 24 18 17 18 22 18 20 15 15 12 13 16 16 26 25 23 26 24 24 28 26 26 28 30 28 31 30 27 31 29 30 31 33 32 28 32 33 29 30 34 35 33 33 34 32 33 35 33 34 34 35 33 33 34 30 24 21 24 30 30 31 29 29 
38 30 29 29 30 35 56 118 108 54 30 28 25 25 21 23 22 18 20 19 18 17 18 16 19 15 12 17 16 16 27 27 24 26 23 26 23 27 28 25 29 26 30 28 26 27 27 29 32 30 32 29 31 31 30 32 32 32 32 32 32 32 31 30 34 34 35 34 33 33 33 36 29 29 25 28 29 30 29 32 
79 69 60 57 53 58 72 130 106 51 28 26 25 24 22 23 22 20 20 19 19 18 18 15 16 17 16 16 15 16 25 24 23 24 26 27 23 27 26 25 29 28 29 28 28 30 27 28 29 30 32 30 28 30 33 31 30 32 32 33 33 31 34 32 32 34 37 34 31 31 35 33 30 32 32 34 37 32 28 30 
123 114 104 107 103 107 115 118 96 49 26 25 26 24 22 24 22 21 22 20 20 18 18 16 15 18 15 17 19 18 24 29 24 27 25 27 27 28 28 26 28 30 30 26 24 28 27 27 30 32 30 29 28 32 32 31 30 33 35 31 29 32 31 33 34 34 34 33 33 34 35 34 33 30 34 34 32 28 25 30 
102 101 101 102 98 103 100 98 82 34 25 26 25 25 21 20 23 24 20 22 22 17 20 16 16 20 18 14 19 18 25 26 24 25 28 28 25 28 27 30 32 27 28 30 27 32 27 29 29 29 31 33 31 31 31 29 32 33 31 34 33 33 34 34 32 32 32 35 34 32 33 32 33 31 37 35 34 31 31 37 
47 47 48 55 56 65 65 64 46 27 27 28 25 26 25 25 25 24 22 20 23 20 18 19 18 19 20 16 19 18 25 28 26 27 26 25 27 29 29 28 29 30 27 29 29 27 31 30 31 31 31 30 32 31 30 34 34 35 29 33 32 32 31 34 35 32 33 33 33 29 29 34 33 32 34 32 35 36 32 36 
30 26 27 31 32 34 32 32 29 22 28 29 28 29 26 23 26 25 23 23 24 24 21 23 20 21 19 21 16 18 25 28 27 25 26 28 25 31 30 27 29 28 30 27 32 29 32 31 31 28 33 28 31 29 30 32 32 33 33 32 32 34 36 32 35 35 32 35 32 31 32 34 35 32 33 33 36 36 37 39 
29 26 24 30 29 32 28 30 27 25 28 28 26 28 28 25 26 24 23 23 21 26 25 21 18 22 23 22 19 19 25 30 28 28 25 27 27 28 30 30 31 32 28 30 28 30 31 30 33 33 32 31 31 31 33 35 31 32 34 32 33 31 37 34 32 37 38 35 33 34 33 35 35 36 34 32 36 36 37 40 
29 25 27 25 28 32 27 30 27 26 29 30 32 31 29 28 27 28 25 24 25 27 23 26 25 24 26 23 20 20 26 28 29 29 27 27 29 29 30 28 28 31 30 31 31 30 30 32 35 33 33 34 33 31 32 32 33 36 31 34 35 35 34 34 35 34 35 37 33 36 36 37 36 38 39 32 35 36 35 39 
31 29 26 27 28 29 25 30 29 26 28 30 31 29 28 29 28 28 25 26 26 27 25 25 24 23 24 23 21 21 27 28 28 28 26 27 30 29 31 30 32 30 32 30 31 29 31 32 33 30 30 31 33 29 33 35 32 34 36 34 33 36 34 33 33 34 34 38 35 35 34 37 38 36 34 34 37 37 38 38 
32 28 27 26 28 32 26 27 28 22 26 31 29 29 28 29 30 27 26 25 25 26 25 28 22 26 25 25 18 24 26 30 31 31 26 27 27 28 31 30 30 29 30 30 32 30 32 31 31 30 32 32 32 32 32 35 33 39 37 35 32 34 34 32 34 32 34 39 35 35 34 38 37 34 35 33 37 39 33 36 
36 28 27 29 30 29 28 30 31 26 28 31 30 29 28 30 30 31 27 29 27 26 28 27 26 27 26 28 24 24 28 31 29 30 27 30 27 29 35 32 32 33 31 30 30 32 32 33 33 35 33 33 33 34 33 32 33 32 35 34 33 36 34 33 34 34 35 37 33 35 39 39 39 35 35 39 39 42 41 38 
35 34 29 30 28 30 28 31 31 25 30 30 31 28 29 28 30 29 28 28 27 27 29 28 26 28 28 28 23 25 27 29 33 31 32 27 29 26 32 30 31 31 30 34 28 32 32 34 33 33 35 34 33 32 32 33 30 32 31 33 34 36 32 32 37 35 36 40 35 33 40 40 38 36 36 35 37 40 41 45 
33 35 28 34 27 30 31 32 33 26 29 31 31 33 31 31 31 30 30 30 27 28 28 28 28 28 28 30 26 26 25 30 31 32 31 27 30 31 31 31 31 33 29 31 33 36 33 34 35 33 33 33 32 33 31 34 33 33 34 38 35 33 34 34 36 34 35 38 36 33 36 39 41 39 39 35 40 38 45 58 
34 34 29 28 26 33 29 33 31 26 32 34 33 33 30 33 31 29 31 30 31 28 25 29 31 28 30 32 28 25 27 30 32 31 32 32 32 31 31 29 33 32 32 31 31 32 32 32 31 34 34 32 31 33 34 31 33 38 33 33 33 32 32 33 35 39 39 36 34 36 38 39 37 38 37 40 52 58 68 97 
36 29 32 33 33 36 31 33 33 29 31 32 32 33 34 30 33 33 33 31 33 31 32 33 34 33 32 31 29 25 28 31 32 37 36 30 33 31 31 32 35 33 32 32 33 31 34 34 33 34 33 34 34 33 32 32 33 38 36 32 37 32 37 34 38 36 40 42 35 38 40 39 40 40 43 55 69 65 75 160 
35 29 28 39 34 37 32 35 31 26 33 34 33 38 35 38 36 33 32 33 34 33 34 32 35 32 30 33 35 27 29 33 35 37 34 31 33 32 36 36 37 33 34 32 33 31 34 34 34 35 31 31 33 36 34 33 34 38 34 32 36 36 35 35 36 41 41 38 35 37 40 41 42 43 47 47 56 77 151 235 
36 28 35 35 37 35 28 33 35 30 28 32 35 37 32 39 36 34 32 34 34 32 34 34 33 34 32 34 33 26 29 34 34 37 36 31 35 34 31 35 36 33 30 31 35 32 33 30 33 31 33 31 35 35 30 30 33 32 34 34 34 31 36 35 34 37 38 39 38 39 40 43 43 46 54 61 101 189 254 272 
38 29 27 37 36 38 41 36 30 27 28 37 38 36 34 38 34 38 34 36 37 34 39 38 37 35 30 33 32 28 30 34 32 37 31 32 33 32 34 34 34 31 32 30 31 31 34 31 30 32 35 31 32 30 32 30 31 34 34 35 34 33 34 35 36 38 40 41 40 40 46 58 70 96 136 162 225 269 288 283 
34 29 31 34 35 40 36 33 34 27 33 36 37 38 36 36 38 35 40 39 41 36 38 37 37 36 31 30 34 30 28 31 35 35 35 34 35 35 35 35 35 36 33 33 32 30 32 36 35 32 30 35 34 33 30 35 34 35 33 33 35 35 35 38 36 39 39 43 41 54 97 138 173 218 249 261 287 300 289 281 
36 35 31 36 34 40 33 36 33 29 30 38 40 40 39 40 43 40 43 41 43 38 41 40 36 34 30 30 30 31 27 31 37 36 40 36 32 35 36 36 37 35 34 38 32 32 36 35 32 36 33 36 31 34 30 32 33 37 34 36 36 38 35 37 40 39 42 43 49 91 139 215 255 273 282 287 297 287 262 257 
38 34 29 40 34 43 37 35 35 32 36 37 41 42 39 36 40 43 43 41 45 39 43 41 38 38 38 37 37 38 32 34 38 40 39 34 37 33 35 35 40 35 34 34 31 35 36 32 35 37 35 35 34 34 33 34 33 34 35 32 37 36 39 34 41 43 43 48 58 102 146 230 239 235 224 216 211 204 204 214 
38 32 33 38 36 42 38 34 35 30 31 37 38 39 38 40 41 42 40 44 42 43 43 40 43 48 44 44 42 41 36 30 35 37 39 37 37 34 36 36 41 37 34 33 33 34 36 35 33 33 34 34 32 36 32 35 34 35 37 40 39 38 38 38 40 39 44 47 73 106 126 153 150 156 159 162 169 182 194 227 
37 34 31 41 38 43 37 34 35 32 30 36 43 39 38 40 43 40 43 39 43 42 46 44 48 51 48 45 43 43 36 35 40 39 35 39 37 37 36 35 40 38 34 32 34 33 33 35 30 36 36 36 33 31 35 33 38 36 34 36 38 39 38 39 39 39 42 53 85 111 127 133 137 143 155 171 184 206 224 244 
34 34 29 34 35 38 35 38 37 34 38 40 42 46 40 41 44 39 41 43 43 43 42 47 44 49 49 45 45 44 38 33 37 41 39 40 38 38 38 40 38 38 37 35 36 35 32 33 32 35 34 36 35 37 33 33 36 37 41 35 36 37 39 35 39 40 43 56 85 118 142 153 155 166 173 187 203 216 238 250 
37 34 35 36 38 38 38 38 40 33 37 42 45 45 45 42 46 44 43 43 43 45 46 46 47 50 50 46 47 44 41 35 37 39 39 42 38 36 38 40 39 39 36 37 37 34 36 33 34 32 36 38 34 37 39 34 37 39 40 36 36 38 39 39 38 40 45 52 84 117 142 155 162 166 180 193 205 220 240 247 
38 36 36 36 36 39 41 43 42 36 41 43 41 41 43 43 46 46 46 49 49 49 50 46 52 50 50 51 47 45 40 35 38 40 42 37 39 37 40 41 40 38 38 37 34 37 35 36 34 37 36 35 36 42 44 41 40 41 40 36 39 39 35 40 40 42 42 48 76 114 143 155 160 166 172 191 204 218 235 252 
40 39 37 43 39 41 39 43 43 40 40 46 45 44 47 43 47 48 47 49 49 50 51 51 52 53 55 50 50 48 42 39 37 44 46 43 42 43 42 41 44 41 38 37 36 37 37 37 36 37 36 37 39 40 51 50 49 46 42 42 38 40 43 38 42 43 48 47 68 107 134 154 156 165 172 185 200 217 233 245 
43 37 39 42 44 46 44 43 43 41 42 47 50 47 45 49 50 49 50 56 53 53 51 54 53 55 56 53 48 50 43 40 39 42 42 43 44 40 40 40 44 41 40 38 38 36 37 39 35 37 39 40 43 44 62 81 74 57 44 40 41 40 45 44 44 43 47 48 66 107 134 148 155 162 171 182 200 215 233 251 
47 40 45 45 44 48 48 48 48 42 48 49 50 48 49 47 52 52 54 57 56 54 57 58 56 62 61 61 54 54 49 43 40 47 48 47 44 42 42 41 46 44 41 42 40 36 41 39 39 39 39 41 45 63 177 195 127 74 48 43 41 42 46 42 44 43 42 52 63 101 129 145 153 161 172 179 200 211 232 247 
52 52 47 53 50 53 49 52 48 49 51 53 55 58 54 56 58 60 55 60 63 63 65 64 67 63 64 59 56 59 50 45 46 51 52 50 50 45 47 47 47 46 43 45 42 43 44 42 42 44 47 46 52 76 204 205 125 74 54 45 42 43 44 44 47 46 47 51 60 100 131 149 154 161 164 174 188 202 230 243 
52 50 50 47 52 53 54 52 55 48 50 55 54 55 55 56 62 61 61 65 65 70 69 73 66 69 69 64 62 58 54 46 43 48 50 51 48 45 43 47 48 46 42 44 42 43 44 43 43 45 42 41 49 52 85 94 76 56 49 44 45 42 43 43 45 43 46 49 57 90 121 144 151 155 163 166 157 181 222 241 
59 52 48 56 55 60 54 59 55 53 58 57 58 61 61 61 63 65 68 68 69 75 75 76 76 78 74 71 62 62 57 47 46 52 54 50 49 42 41 49 46 45 44 49 48 46 46 43 45 46 44 48 43 47 53 58 55 54 48 47 44 45 44 43 47 44 51 48 54 89 117 141 149 156 160 158 157 198 225 242 
68 63 60 63 62 66 63 61 61 57 61 57 63 64 63 62 69 66 69 71 76 84 85 85 82 86 81 74 67 64 58 54 50 52 53 52 48 48 64 59 50 50 52 46 48 47 51 50 47 45 47 44 47 48 48 51 48 48 49 44 45 49 42 45 49 44 50 51 56 79 114 142 154 155 161 171 184 206 225 234 
85 77 73 75 70 70 65 68 65 61 62 68 64 66 66 71 69 73 75 81 81 87 84 80 90 94 90 78 67 66 61 56 52 56 57 56 57 71 124 89 59 57 53 52 50 47 52 48 47 48 47 46 46 46 49 48 47 49 45 50 50 44 46 42 50 45 49 54 56 76 111 140 150 153 165 173 190 203 220 227 


