P2
80 60
300
35 32 41 57 99 103 67 46 79 98 78 50 37 36 40 33 32 33 25 28 29 24 25 20 26 26 26 28 32 29 29 32 29 29 27 27 27 26 27 28 24 25 28 28 27 30 27 24 16 14 15 18 14 14 16 16 18 15 18 22 24 24 25 25 25 22 25 28 25 26 26 23 25 25 24 28 27 31 23 23 
33 34 46 62 101 101 62 43 79 100 72 49 39 36 37 34 31 30 29 27 26 26 26 26 28 30 32 32 30 30 28 30 29 26 25 23 26 26 27 25 27 24 30 26 25 28 29 24 18 19 18 18 20 16 18 19 21 19 25 26 26 25 28 32 26 20 24 26 22 24 25 23 26 26 27 26 26 29 20 24 
30 32 45 59 105 98 58 48 83 99 69 42 37 33 32 34 30 30 23 27 25 24 25 26 26 30 29 31 31 30 26 30 26 25 26 25 27 24 23 26 23 28 26 27 28 31 31 27 27 23 20 20 24 23 23 24 27 29 28 28 30 30 26 29 27 21 21 24 26 27 26 23 27 21 25 22 27 33 27 28 
33 33 42 71 106 95 54 49 89 94 64 41 32 33 33 32 30 30 27 29 27 27 31 30 32 26 28 29 33 33 27 28 29 27 25 22 22 23 24 29 27 26 29 25 29 30 28 29 29 28 28 27 30 27 25 27 26 28 30 29 25 26 26 24 23 20 22 23 32 26 27 23 26 23 26 25 26 30 23 19 
33 37 44 78 114 95 53 51 93 94 59 37 38 32 29 30 27 28 26 24 28 27 27 27 28 28 25 30 29 33 29 27 30 20 24 20 23 25 21 26 26 23 26 28 25 28 28 30 30 29 24 27 26 27 25 27 25 26 26 24 26 21 25 21 24 25 22 26 25 25 26 27 24 24 28 24 26 24 20 17 
31 39 45 88 107 92 51 55 96 95 57 34 32 31 30 29 31 26 29 29 32 32 30 26 27 29 25 27 30 30 32 30 28 24 24 23 24 24 22 23 24 28 24 26 25 28 28 28 30 28 25 30 26 24 26 25 26 24 23 23 26 22 26 25 28 26 23 26 28 28 24 27 26 27 26 25 24 27 19 21 
37 40 46 84 109 88 50 51 100 92 52 32 34 30 31 29 28 26 29 27 29 27 28 26 26 25 26 30 33 31 28 28 28 26 25 25 25 23 24 20 24 23 22 27 23 29 23 27 27 26 25 23 25 25 22 25 26 24 27 24 28 27 25 25 27 25 23 24 28 28 24 28 27 26 25 26 22 26 23 21 
26 36 41 86 107 81 47 51 98 85 45 27 24 26 25 23 23 27 28 27 25 24 23 24 22 24 23 26 29 28 24 25 29 26 22 25 21 22 22 23 22 25 24 23 26 22 24 22 22 27 22 21 22 21 25 21 20 22 25 25 29 28 25 25 24 21 20 20 26 26 26 21 27 22 23 22 22 29 21 23 
22 29 34 87 109 81 41 54 99 86 45 27 26 24 28 27 26 28 26 22 25 25 22 22 24 23 25 26 27 30 25 25 26 26 23 25 25 23 23 25 24 23 27 24 25 25 25 25 22 23 22 21 24 22 23 26 25 27 26 25 30 28 26 26 27 23 25 22 25 28 29 28 27 25 24 26 21 28 21 22 
9 0 18 90 112 74 34 56 106 88 37 22 18 19 20 20 24 26 20 26 25 24 21 24 24 25 24 26 25 28 29 26 25 23 25 23 24 22 25 24 25 22 28 28 24 28 24 28 25 22 16 20 24 19 23 26 28 30 27 28 29 28 29 26 25 21 23 23 24 27 28 25 27 26 25 26 27 29 22 23 
17 7 21 94 114 72 30 58 115 94 27 15 14 14 17 18 21 19 16 20 18 21 23 21 19 21 23 24 27 27 28 22 25 24 21 22 26 22 22 23 24 26 24 27 25 22 23 24 23 22 24 28 25 24 24 25 26 28 26 27 28 28 29 28 26 30 21 21 26 26 28 24 30 27 25 24 26 30 23 23 
27 23 33 100 119 72 31 61 115 90 25 13 9 9 10 14 11 11 13 14 18 16 19 19 20 22 21 23 27 25 21 24 26 25 24 23 24 23 27 25 26 22 25 26 23 26 21 23 28 27 25 27 27 26 27 29 27 28 31 30 28 31 26 28 26 25 23 20 25 26 30 28 28 28 26 26 21 29 21 22 
25 23 27 99 117 72 37 66 117 88 26 14 12 12 11 11 11 12 7 7 8 6 5 9 10 12 11 11 13 13 17 19 22 19 20 22 24 22 21 21 25 24 21 23 23 23 26 25 26 25 25 29 26 26 28 24 27 25 26 28 27 28 25 26 25 28 25 23 26 26 27 25 28 25 24 25 26 30 19 21 
23 19 31 102 104 63 34 70 117 82 24 14 12 12 13 15 13 8 9 8 6 7 6 8 3 5 4 7 6 8 4 7 11 12 17 21 22 22 23 21 24 24 25 24 25 27 28 26 25 27 27 26 26 25 26 28 27 26 29 29 26 30 27 26 27 26 24 23 23 29 27 29 29 29 29 27 24 27 20 20 
22 23 39 101 98 56 33 74 112 75 24 15 14 19 18 13 11 12 12 11 11 8 12 9 7 10 8 10 12 9 8 3 3 9 18 22 22 25 22 20 23 23 28 29 26 28 28 28 30 27 31 27 28 28 28 27 28 31 29 28 31 31 29 32 28 27 29 25 23 28 30 30 29 28 26 30 29 28 18 24 
26 24 38 101 95 47 30 75 108 72 25 16 13 12 14 11 11 11 8 10 7 6 6 9 4 7 6 6 7 9 7 5 18 17 24 23 22 21 17 21 24 26 25 26 25 25 27 27 29 25 22 25 25 26 29 24 25 26 25 25 31 27 26 24 23 26 27 22 21 25 29 27 29 27 25 27 25 25 19 19 
19 21 45 105 93 49 33 74 103 67 23 19 15 11 14 15 13 11 12 12 11 10 9 10 7 8 9 9 9 13 17 20 23 22 22 21 22 23 26 25 24 24 26 25 26 25 28 28 28 27 26 27 26 25 29 26 27 29 26 27 27 25 26 24 28 29 27 24 21 27 28 28 27 26 26 30 28 29 24 20 
23 22 48 103 96 48 29 81 104 67 21 18 18 17 15 15 13 11 13 12 13 11 10 12 11 11 11 14 17 23 21 27 25 26 21 22 24 24 23 24 27 24 26 27 28 26 31 26 28 29 28 26 28 26 26 28 27 28 29 27 30 28 27 29 27 28 33 24 21 27 29 26 29 26 29 26 30 32 22 18 
24 22 49 100 91 46 30 83 101 63 22 16 16 15 13 15 15 13 10 12 14 11 10 12 9 7 9 9 19 18 23 24 23 20 18 23 19 21 20 20 23 22 26 23 25 25 27 26 27 23 27 26 26 25 23 25 26 27 29 28 30 25 22 27 26 28 28 25 16 21 25 26 26 25 25 29 30 31 23 26 
25 22 54 104 92 45 32 84 104 60 23 15 19 15 16 16 16 15 15 14 13 14 14 10 12 10 11 11 15 25 28 24 25 23 20 20 23 22 21 23 24 24 26 26 26 25 28 26 29 26 29 26 27 26 26 28 27 29 28 29 29 27 30 32 29 30 31 30 19 21 27 27 29 28 28 28 26 30 24 26 
28 27 63 111 90 43 35 91 106 59 22 18 21 19 18 20 18 18 17 14 14 12 14 12 10 13 12 14 15 19 25 21 26 20 24 23 22 23 23 21 24 24 24 27 31 28 27 28 27 26 30 29 27 26 25 27 29 30 30 29 30 32 27 30 28 32 27 31 25 22 26 26 32 29 28 32 27 32 29 27 
34 32 73 117 92 43 36 93 104 57 23 19 18 15 17 16 18 16 14 16 16 16 13 15 10 11 14 15 12 16 23 20 22 18 18 23 22 22 24 22 23 22 23 24 27 27 28 25 31 29 30 25 27 25 27 28 26 28 29 29 30 30 33 30 28 28 29 30 25 22 22 29 27 29 28 27 27 32 29 27 
85 80 106 125 86 37 42 94 103 56 21 21 16 14 16 20 14 18 17 15 17 16 14 12 11 13 11 10 14 15 20 21 23 22 26 21 23 25 20 21 23 24 24 25 27 25 28 27 26 28 28 26 26 23 27 24 27 28 29 28 31 30 29 31 26 29 30 28 27 20 20 25 28 28 27 29 25 33 23 25 
113 111 110 106 75 34 43 94 100 56 23 20 17 15 18 15 15 14 17 16 13 14 14 14 9 12 12 15 12 17 26 20 21 20 22 18 23 25 24 24 23 24 25 27 26 27 27 23 28 26 29 29 27 24 28 26 28 28 27 25 27 28 29 31 26 30 29 31 30 29 18 21 26 26 24 31 28 31 26 26 
103 101 92 86 51 30 45 100 102 54 25 24 22 17 17 21 18 20 13 18 15 15 17 14 17 15 14 15 18 17 21 24 20 22 21 23 23 26 26 24 27 26 26 28 27 25 30 28 30 28 29 28 30 26 25 28 25 32 28 27 28 28 30 30 31 29 33 34 32 31 25 19 17 23 26 31 30 28 22 23 
46 49 50 47 31 29 47 105 103 55 23 23 21 18 19 23 20 19 15 16 16 19 19 20 15 14 15 14 17 17 23 26 25 25 24 26 26 25 27 28 28 25 29 28 29 27 27 27 30 32 30 27 29 27 25 23 29 30 28 32 30 28 33 34 31 32 33 35 31 30 34 27 23 21 21 26 25 29 23 26 
40 28 29 29 29 31 52 116 105 57 24 22 20 20 22 23 20 21 18 19 18 15 15 16 20 15 14 15 15 17 25 26 24 24 22 25 26 27 29 26 29 25 27 28 29 27 26 28 28 28 32 27 26 26 28 27 27 28 28 29 27 29 29 28 29 33 31 34 35 31 31 28 27 26 25 23 27 26 22 24 
82 70 64 57 53 52 72 127 105 51 23 21 23 19 20 18 19 18 17 19 21 19 15 18 16 17 15 15 15 15 22 24 25 24 24 27 24 26 28 26 29 26 28 27 30 28 29 26 27 30 30 28 29 27 28 28 25 29 28 30 29 30 29 32 32 34 32 37 31 32 31 31 33 29 32 30 35 32 27 26 
124 115 106 105 101 102 113 114 94 48 21 22 20 23 21 22 20 21 20 19 20 19 16 19 17 18 15 17 18 16 24 29 27 25 25 29 27 30 29 26 27 30 29 28 28 29 29 30 27 31 27 29 27 27 28 27 24 28 29 28 27 30 28 31 30 36 34 36 35 35 35 32 30 33 34 31 32 30 28 27 
104 103 100 102 98 101 98 97 81 35 20 21 18 19 20 21 19 22 19 23 21 17 17 17 16 17 19 14 19 20 23 27 28 24 25 27 24 29 28 28 32 27 27 27 28 30 26 32 29 30 28 31 28 27 29 28 28 29 30 30 30 29 31 32 32 31 31 34 32 31 33 30 32 32 30 32 31 31 26 29 
47 49 48 51 55 60 63 60 44 25 22 23 24 23 24 23 23 23 20 18 22 22 21 20 19 20 20 17 19 18 25 28 30 27 26 27 26 29 29 28 27 28 28 31 28 28 30 29 28 31 28 30 26 26 27 30 29 30 27 32 31 29 30 31 30 31 33 35 35 33 28 31 29 30 33 34 33 32 25 28 
28 26 26 27 29 29 31 27 25 19 22 26 23 23 22 24 23 24 23 21 22 23 18 23 19 18 21 21 18 17 26 26 27 27 25 26 26 30 29 30 28 29 26 26 29 29 28 28 29 30 29 29 30 27 27 27 27 28 31 31 31 31 34 32 31 36 32 35 32 33 31 31 33 30 29 33 34 35 28 27 
27 25 22 26 24 24 25 25 23 22 21 24 25 23 25 23 25 22 22 21 21 27 24 23 17 21 21 22 19 21 25 29 30 27 24 27 27 28 28 29 29 27 29 29 30 29 29 25 29 34 29 29 29 25 29 29 25 27 31 28 31 31 33 31 28 32 33 35 34 33 29 31 32 34 29 31 33 39 30 32 
28 26 24 27 28 26 28 27 26 25 23 26 25 26 25 26 23 25 24 23 24 22 22 25 24 23 23 21 19 19 26 29 30 31 26 26 30 30 29 29 29 30 30 31 30 28 27 29 31 31 31 32 28 27 29 29 30 28 30 31 30 35 32 36 33 34 34 37 33 36 35 33 32 36 32 32 33 36 32 33 
27 26 24 27 24 23 23 28 26 25 24 26 25 24 25 25 23 27 24 25 27 25 23 23 24 23 23 21 23 20 27 27 31 27 29 25 28 26 29 31 29 30 29 28 28 30 30 33 30 30 28 27 30 26 30 28 26 27 29 32 30 33 34 32 30 30 32 36 34 36 32 32 37 34 32 33 33 37 32 31 
33 24 23 24 26 27 23 27 26 20 25 26 25 26 27 28 30 25 25 23 25 25 24 27 22 23 25 25 22 21 26 29 33 28 27 30 26 28 30 30 27 30 28 30 29 30 33 32 30 30 29 29 31 26 26 28 30 32 29 30 30 31 31 32 32 31 38 36 34 35 29 33 35 34 30 31 32 36 30 32 
33 28 28 27 25 24 23 28 26 21 26 26 27 27 27 26 26 29 24 28 27 28 27 26 27 26 25 25 24 23 28 31 29 28 26 28 27 28 30 32 28 31 30 29 29 34 32 31 30 34 29 31 29 29 30 28 29 29 29 31 31 31 34 35 31 35 33 38 34 35 34 36 36 32 33 36 36 39 33 39 
36 30 25 24 25 27 26 30 30 23 27 28 27 27 27 28 28 27 28 28 26 24 25 26 27 26 27 27 26 22 28 33 32 31 29 27 29 28 29 29 29 31 31 32 30 32 30 32 31 32 29 30 32 31 29 30 28 31 30 30 29 34 31 31 34 34 37 38 36 35 37 34 36 34 36 32 35 40 37 44 
34 32 27 28 25 27 27 27 28 26 23 28 27 30 28 30 29 28 30 29 28 30 27 27 29 26 27 32 25 25 25 31 31 32 29 29 30 31 32 30 31 31 31 29 31 32 32 31 33 32 33 32 27 30 29 30 31 26 31 34 31 30 30 34 35 35 34 37 38 38 36 37 38 39 33 34 34 37 43 51 
33 29 29 23 23 29 27 31 28 25 27 28 31 26 28 32 28 27 30 29 29 29 24 30 30 28 29 30 29 25 27 33 32 30 29 31 33 31 30 29 32 30 30 31 32 33 33 32 31 32 31 31 30 26 31 27 28 32 30 30 29 33 28 31 32 36 37 34 34 38 36 35 34 35 34 38 48 58 67 95 
34 29 31 30 28 29 30 30 27 25 25 26 28 29 31 29 31 31 32 32 31 29 31 33 32 29 30 31 28 26 27 32 33 33 33 30 31 29 32 31 34 35 29 32 31 32 31 34 32 29 29 32 30 28 31 30 30 31 32 30 34 32 32 31 33 35 36 40 36 37 41 35 38 38 42 55 61 63 77 164 
33 28 29 34 30 29 30 33 26 26 30 28 29 27 31 33 33 33 32 32 32 32 33 32 33 33 31 33 34 29 29 35 35 33 32 31 29 30 34 33 35 33 34 32 31 33 33 32 35 29 30 28 33 32 30 29 29 31 32 31 32 33 30 33 30 34 40 39 34 35 38 38 37 41 41 49 54 89 169 240 
32 27 30 32 34 28 25 27 30 25 26 27 29 26 31 33 32 31 36 34 34 29 33 34 33 33 29 34 32 26 27 34 33 35 33 31 35 33 31 33 32 32 30 31 32 33 32 30 31 29 31 30 32 30 28 26 31 28 32 29 34 30 31 33 32 36 37 38 36 36 38 40 43 45 50 64 116 212 255 267 
35 28 29 32 30 32 39 33 29 25 28 29 29 29 32 36 33 36 32 36 36 34 36 36 35 33 31 31 32 28 28 35 35 33 30 32 33 33 30 31 32 32 33 30 32 31 33 30 30 32 32 30 31 28 28 28 27 30 30 31 31 31 31 33 33 35 37 40 40 37 44 60 73 103 138 177 238 272 281 281 
32 29 28 33 32 30 32 30 30 26 31 30 30 32 34 33 34 36 39 40 38 36 37 37 36 34 28 32 33 31 28 32 32 33 32 33 34 34 32 31 32 31 33 30 33 31 30 32 34 31 29 35 30 27 26 29 29 29 30 30 35 32 31 35 34 38 36 41 41 54 102 146 182 221 249 267 287 300 278 275 
34 31 28 32 33 33 31 29 30 28 30 31 32 32 37 36 37 37 39 40 41 37 41 39 33 32 30 31 32 28 26 32 35 37 35 35 34 32 34 37 33 32 31 35 33 32 33 31 31 33 30 34 28 30 28 26 27 33 33 32 32 32 34 37 36 36 39 42 48 95 140 219 259 275 281 286 296 288 255 246 
33 31 28 32 33 33 36 31 31 29 33 32 32 36 36 36 36 41 39 40 44 38 43 40 39 38 37 37 35 35 29 32 38 39 34 34 34 33 36 35 34 32 32 32 32 35 35 31 34 33 32 35 31 29 31 28 29 31 31 31 34 34 34 31 38 38 40 44 62 109 154 232 238 234 223 211 210 200 196 210 
34 35 30 34 33 34 37 32 32 28 32 31 36 37 39 38 38 42 39 45 41 42 43 43 42 48 42 45 42 41 36 30 35 37 38 37 35 33 35 36 40 36 32 34 34 34 36 33 33 32 32 30 31 32 30 34 28 32 34 38 38 35 34 33 36 39 42 50 78 112 128 152 152 154 153 161 168 180 190 224 
35 29 31 37 33 33 35 35 31 29 30 31 37 35 38 41 39 42 39 39 43 42 43 42 48 49 48 45 43 41 36 33 37 36 36 39 38 39 36 33 39 35 35 37 33 34 34 35 31 37 31 33 32 28 31 29 31 33 33 34 36 37 38 37 36 37 40 52 87 109 126 133 136 144 156 174 182 203 223 240 
31 30 29 33 34 33 35 35 34 30 35 34 35 38 36 40 42 41 42 40 44 44 41 45 46 50 47 46 46 41 36 33 38 41 41 39 39 40 34 38 37 36 36 38 37 35 35 35 35 36 32 32 34 29 34 29 32 32 36 33 35 38 36 39 37 40 41 53 84 120 139 148 153 163 171 188 199 218 233 244 
33 32 34 31 34 31 36 33 38 34 37 37 38 38 42 40 42 44 43 43 45 46 44 46 46 49 47 46 48 43 40 35 39 37 38 42 37 38 38 38 36 37 38 36 34 33 35 33 35 31 36 34 31 34 37 32 33 33 35 36 34 37 39 37 35 39 42 50 84 118 138 151 161 165 176 193 199 220 235 246 
36 34 35 33 33 35 39 38 36 33 35 36 35 36 38 39 43 43 43 48 47 51 49 46 51 49 47 50 48 41 40 38 38 41 42 37 39 39 37 41 36 34 37 36 33 35 35 33 39 34 34 33 34 39 41 38 34 35 35 35 35 36 37 37 37 41 42 49 76 114 136 146 157 165 170 189 199 217 231 248 
41 39 36 41 36 37 39 38 39 38 37 41 39 41 43 43 46 47 46 47 48 49 49 53 51 52 50 50 51 45 44 37 36 44 44 42 41 41 42 39 40 38 36 37 37 35 36 36 34 37 33 36 36 41 49 47 45 41 39 38 37 38 38 37 39 40 45 48 70 109 134 149 157 165 170 185 196 216 229 247 
43 36 35 40 42 38 43 40 39 39 39 38 45 41 45 48 45 48 48 52 54 51 52 53 53 54 57 51 48 48 40 38 39 41 42 42 46 37 39 38 37 37 37 37 37 38 37 38 35 39 35 38 39 44 61 80 70 51 41 39 40 39 38 39 40 39 43 44 66 105 130 143 153 159 168 180 199 216 226 241 
42 39 40 42 42 43 45 44 42 41 40 42 44 44 47 46 50 48 52 54 54 54 56 57 57 60 57 60 55 53 47 42 41 45 48 45 44 41 43 42 42 41 39 40 39 38 39 38 36 40 40 38 42 62 178 194 123 67 45 38 38 41 40 40 40 44 42 48 64 99 127 140 152 159 167 176 196 210 222 247 
49 46 41 50 48 46 48 48 49 44 45 47 49 50 49 56 55 58 54 59 61 62 64 64 64 62 65 59 56 55 48 46 45 49 49 48 46 45 49 45 46 46 45 44 42 43 42 43 42 41 43 43 48 70 204 203 121 69 45 42 41 42 41 39 42 44 42 50 60 98 124 147 149 158 164 172 183 203 228 240 
50 48 49 50 50 49 52 51 52 47 47 48 50 49 52 54 58 57 60 64 64 68 68 71 66 70 65 64 65 60 53 46 44 47 48 48 48 43 44 45 45 44 42 43 45 41 42 42 42 42 41 41 47 50 81 87 72 52 46 43 41 39 40 41 44 40 44 48 54 90 121 138 151 156 159 162 153 182 224 234 
58 51 51 54 49 54 52 56 53 52 54 50 54 57 57 61 62 64 65 70 68 72 74 72 77 79 75 71 65 61 55 46 45 52 51 50 49 41 41 51 43 46 46 45 46 44 44 42 42 46 45 43 42 44 50 51 52 49 45 42 41 42 38 40 44 43 50 49 52 90 115 140 146 155 155 157 153 194 225 230 
63 61 60 57 55 60 60 56 58 52 57 52 55 59 56 60 65 67 71 67 75 81 84 84 81 86 78 75 68 62 56 49 49 50 52 54 48 50 64 57 45 49 51 47 50 46 47 49 46 46 46 42 41 44 46 44 44 42 43 41 44 45 40 43 44 42 50 51 54 81 111 137 151 155 157 167 180 203 221 227 
80 74 73 67 66 62 65 61 59 58 58 62 60 60 61 67 67 70 75 79 79 85 82 80 90 93 87 77 69 64 59 56 52 55 55 55 56 70 123 88 55 57 53 52 51 49 49 48 46 49 44 41 42 42 45 45 42 41 42 45 45 41 42 42 44 44 49 51 54 78 110 135 148 153 160 172 184 203 222 226 


