P2
80 60
385
119 126 126 127 126 122 117 116 114 104 100 105 112 106 108 104 101 93 91 91 94 89 82 84 83 93 106 115 120 150 173 172 126 122 168 185 159 122 121 123 115 108 101 94 98 102 98 100 103 101 105 107 106 103 102 102 103 98 99 98 101 101 99 99 98 98 98 99 104 97 95 101 99 96 99 99 99 106 101 102 
123 125 125 123 126 126 130 123 116 104 99 99 111 114 106 97 99 91 92 89 95 93 89 82 86 98 113 121 133 172 180 141 117 147 182 177 128 120 124 125 115 108 103 100 99 99 100 104 103 103 106 107 108 103 105 105 104 100 101 104 101 98 99 102 99 100 99 99 100 99 100 98 97 97 100 98 102 102 101 98 
125 124 126 129 127 130 129 133 102 93 96 95 99 101 97 100 97 94 94 94 96 94 92 96 93 105 114 124 161 184 166 120 127 172 181 148 121 119 124 117 110 108 103 104 103 107 106 104 108 106 107 105 102 106 102 103 107 102 100 99 100 98 100 102 100 99 97 100 99 100 101 101 95 96 97 99 101 103 97 98 
127 129 128 127 130 110 115 82 34 59 86 92 101 97 97 99 94 93 92 92 92 99 94 97 99 109 117 144 180 181 133 117 150 181 169 126 120 123 123 118 112 110 112 110 110 110 107 106 107 108 107 106 105 104 104 104 107 99 106 101 99 94 100 104 98 97 96 99 98 97 99 100 97 98 100 100 103 104 100 99 
131 132 129 133 118 110 114 43 13 13 59 87 96 96 92 96 94 93 92 92 93 97 96 97 108 113 126 170 183 156 118 135 181 178 139 123 120 125 123 117 114 116 112 113 111 110 109 107 109 107 104 107 105 104 104 102 105 103 101 100 98 99 100 96 100 97 100 98 100 96 98 98 98 96 99 97 97 105 99 98 
128 128 130 134 119 138 107 41 8 0 20 71 95 91 93 93 91 92 91 93 92 96 93 103 110 117 152 180 175 128 119 161 183 163 124 122 120 126 119 116 116 117 113 110 114 108 108 105 107 104 107 102 105 104 105 105 103 102 99 100 101 97 99 97 97 98 100 99 99 98 100 99 96 98 99 101 98 106 102 100 
125 124 131 120 142 123 97 57 29 1 2 48 91 90 93 92 93 90 91 90 95 96 97 110 111 133 176 181 145 120 139 181 180 136 121 123 122 120 116 115 115 115 114 110 112 111 109 104 107 107 106 105 105 108 104 108 108 103 104 100 100 98 98 98 100 95 99 98 99 98 97 99 98 99 99 97 100 103 100 102 
131 132 123 140 141 119 93 64 58 28 12 39 84 90 91 89 90 89 90 88 94 96 107 112 118 158 183 163 119 126 171 180 157 121 120 120 121 120 114 115 112 113 112 109 109 110 108 105 108 107 109 104 101 105 106 104 103 103 101 99 102 98 97 102 98 99 97 99 100 100 96 100 100 97 103 97 100 101 97 100 
131 129 133 145 123 106 94 83 83 74 57 56 77 85 87 88 89 92 91 94 95 101 114 118 138 180 177 131 120 147 184 175 135 125 120 122 116 115 115 115 113 112 113 111 110 111 109 112 108 106 106 106 106 106 106 104 104 102 100 100 101 98 103 102 101 102 101 96 100 100 101 99 98 99 103 99 102 105 99 98 
139 134 158 127 108 100 99 93 93 94 93 91 90 80 78 82 92 90 94 97 101 114 114 125 168 178 155 121 131 180 188 154 129 125 121 120 116 116 113 115 113 113 112 111 112 110 107 110 110 110 108 109 107 107 107 104 104 102 104 105 100 99 103 100 101 101 100 99 99 102 96 100 101 99 102 102 104 105 98 100 
136 148 145 123 105 93 95 93 93 94 95 96 97 91 78 74 85 89 93 95 107 116 119 159 181 173 126 115 154 184 171 126 122 119 118 119 115 114 112 112 109 113 110 111 109 110 110 110 108 107 109 110 105 106 107 103 105 100 101 103 101 99 101 104 104 97 99 97 100 99 102 98 102 100 101 101 102 104 102 104 
138 142 132 119 104 93 98 98 96 98 96 97 95 96 92 84 80 82 90 99 111 116 130 182 174 146 120 136 181 185 147 122 119 118 119 116 114 116 113 111 111 112 111 110 110 112 110 106 108 105 110 108 108 106 106 104 108 106 106 105 104 100 105 104 101 98 103 100 103 100 98 100 102 103 100 100 101 105 102 110 
138 134 118 110 102 96 95 96 96 97 95 95 95 92 97 92 87 76 77 92 105 116 155 181 158 119 121 162 184 165 123 115 115 117 112 115 112 110 111 111 107 109 109 112 108 108 110 106 109 109 108 104 107 107 104 105 103 102 102 104 103 101 101 103 101 100 101 98 101 100 98 101 98 100 103 99 103 108 107 114 
139 119 111 106 101 98 98 99 100 96 100 99 92 93 95 94 99 91 78 63 89 122 181 173 133 116 136 180 175 140 115 114 116 116 115 115 112 110 111 110 108 112 107 111 111 110 110 107 107 106 107 105 108 105 107 104 106 102 104 104 104 100 103 103 101 104 102 100 104 100 104 99 101 102 102 101 103 106 125 160 
135 119 110 108 103 101 99 101 99 101 99 91 93 93 95 91 94 93 88 84 93 158 180 156 112 116 168 180 153 120 115 114 116 113 112 115 112 113 111 111 108 108 106 108 109 110 110 107 111 108 109 108 107 107 106 105 104 101 105 105 102 101 100 104 102 99 101 101 103 98 101 99 103 102 104 100 104 115 159 173 
171 143 119 110 102 101 104 102 100 103 96 92 94 90 94 94 97 92 93 89 117 187 169 123 98 134 178 166 124 113 110 116 115 112 111 113 110 114 109 110 109 110 108 109 110 109 107 108 109 109 106 110 109 106 108 105 109 103 106 103 102 100 102 106 103 106 103 105 105 102 104 100 104 104 104 108 112 136 162 174 
179 180 160 130 111 101 103 104 102 98 96 95 95 92 90 92 90 92 86 89 168 187 156 100 106 183 189 146 111 114 114 111 113 113 113 110 113 114 111 113 108 113 112 114 112 110 109 104 110 107 106 109 108 109 110 107 107 105 105 101 105 101 104 105 108 108 111 109 114 112 108 105 107 105 108 107 112 131 164 176 
177 184 184 171 142 116 106 107 104 100 97 97 95 92 93 89 92 93 93 131 182 172 122 102 141 192 176 121 109 110 110 108 110 114 111 111 114 116 110 114 111 113 112 113 115 115 109 110 110 110 107 107 109 111 109 108 109 105 108 108 106 104 107 110 126 148 168 179 169 136 117 111 113 114 116 120 125 145 201 222 
140 168 186 187 180 156 123 110 102 98 95 96 96 93 93 91 95 93 109 172 168 142 102 115 179 187 139 97 95 101 105 106 104 109 110 113 113 114 112 112 111 109 111 109 109 111 110 107 108 106 109 107 107 108 108 105 108 107 108 106 108 111 119 149 220 235 243 262 249 199 153 137 137 145 158 179 211 251 286 285 
130 132 153 180 185 181 171 138 115 100 99 97 94 94 93 92 95 100 147 178 155 114 107 155 186 165 108 92 92 96 99 102 109 111 110 107 109 111 110 110 109 111 111 107 107 109 110 108 105 107 109 107 105 110 113 107 109 108 114 123 140 159 179 235 294 302 297 308 292 282 276 257 262 273 287 301 309 311 317 309 
141 133 125 138 167 184 185 180 163 128 117 112 104 99 95 96 99 115 171 164 134 102 122 186 173 131 93 98 95 92 95 97 104 107 107 110 106 107 110 109 107 109 110 111 110 112 110 109 108 106 110 108 108 109 109 111 114 124 153 181 197 213 243 287 329 323 313 306 307 323 336 334 335 335 341 341 346 337 333 321 
180 153 133 128 129 151 179 186 191 180 137 119 102 97 97 95 107 149 176 154 110 104 157 188 153 105 93 93 93 94 96 93 99 106 104 109 108 108 109 108 108 109 107 107 111 111 108 106 107 109 108 108 106 109 108 113 133 164 187 204 225 247 263 288 298 303 308 315 326 340 348 348 356 358 361 354 356 359 351 341 
178 182 168 152 143 126 130 167 187 172 155 151 121 103 98 100 124 177 164 133 97 125 185 169 123 92 97 94 95 98 96 92 99 93 99 101 106 108 106 106 105 106 106 108 109 108 108 107 108 110 106 106 107 107 109 132 166 189 213 242 267 274 284 321 327 337 351 361 363 359 350 351 361 368 367 360 363 367 364 351 
168 182 185 183 163 121 123 125 139 142 153 192 182 139 108 111 165 177 153 107 104 166 177 150 101 92 93 99 96 96 95 93 92 92 90 94 100 106 106 106 104 107 105 105 108 107 106 108 107 108 107 104 108 108 117 158 196 232 272 297 315 284 296 330 338 348 357 361 364 359 351 354 355 368 368 369 365 371 369 362 
132 159 180 185 185 168 138 119 124 127 157 184 190 181 164 162 198 172 132 100 134 188 170 123 98 95 94 96 99 94 90 93 93 94 91 92 97 105 103 104 105 107 107 105 108 108 110 108 108 110 106 108 109 112 130 185 242 296 319 333 321 258 313 336 339 346 354 360 362 364 361 366 365 371 374 373 367 369 368 367 
136 136 152 172 184 190 182 156 130 120 115 137 173 186 186 194 190 154 108 110 169 181 151 104 93 94 95 93 97 95 93 93 94 94 94 96 93 97 98 101 102 106 108 105 106 108 109 105 110 110 108 108 109 115 142 215 290 321 331 336 291 257 332 344 340 338 349 357 360 364 371 370 371 376 377 376 374 375 370 366 
131 130 119 123 153 178 193 174 132 129 111 109 122 153 173 179 165 120 107 141 185 165 124 97 94 91 96 96 98 92 94 92 97 95 94 90 94 94 93 93 99 100 102 102 105 107 106 103 106 107 110 108 110 113 142 231 305 332 343 322 248 252 288 328 334 337 342 346 354 365 378 372 373 383 380 373 372 374 366 365 
126 131 112 105 113 132 166 156 162 187 156 119 105 110 131 143 123 107 114 172 178 145 102 99 93 92 97 98 96 92 96 94 93 95 94 90 90 93 90 90 88 88 96 98 102 103 107 104 107 108 109 111 108 116 160 261 315 346 336 309 237 188 192 262 330 336 337 335 353 366 373 374 376 380 377 371 365 366 357 361 
130 117 107 108 105 108 127 128 163 198 198 176 135 109 106 108 106 111 150 185 164 122 96 95 96 91 97 96 99 100 95 97 97 93 95 95 96 94 91 89 89 86 87 92 102 107 107 106 108 105 111 108 112 124 196 286 327 345 333 315 242 189 188 216 314 338 339 341 352 363 371 380 385 379 376 372 365 361 352 355 
121 104 105 104 102 111 120 117 132 163 186 188 182 151 118 110 111 124 179 182 147 108 98 93 93 95 96 100 98 99 97 97 95 97 96 97 96 94 93 89 89 85 86 83 93 102 106 105 107 107 111 110 114 137 223 299 333 341 338 327 277 207 193 200 281 333 343 349 355 363 365 381 380 371 372 362 353 353 350 351 
111 101 107 99 101 113 114 107 105 116 144 173 182 177 167 142 121 154 194 167 120 99 97 96 93 94 96 97 98 99 98 95 95 96 95 96 95 95 93 93 87 91 89 82 84 88 102 101 105 108 111 112 113 155 242 304 334 343 345 340 312 227 209 210 259 328 350 349 361 358 361 375 375 366 369 359 351 352 349 353 
110 108 107 104 109 119 112 110 106 109 116 126 157 177 178 178 175 196 188 150 104 102 99 99 96 97 99 97 99 104 99 100 97 100 96 96 94 96 95 91 87 88 92 88 94 92 95 104 106 108 113 109 119 173 253 302 330 341 351 349 335 279 235 232 266 333 345 329 348 349 357 369 364 362 370 368 352 352 353 355 
109 107 110 116 115 115 109 106 105 108 108 108 116 135 166 175 188 187 171 120 95 100 98 98 93 95 99 100 96 98 101 98 98 98 97 93 94 94 95 94 98 101 102 101 102 102 105 102 103 105 107 111 126 185 252 312 330 344 351 357 347 330 278 278 312 341 333 317 333 335 340 355 362 360 367 368 359 355 352 347 
108 108 108 108 108 104 107 107 106 105 110 107 109 111 124 149 170 169 141 102 98 98 96 99 96 95 99 99 101 101 101 98 97 98 98 98 98 95 94 99 100 106 105 104 108 108 106 109 104 106 106 108 131 188 243 310 339 350 350 356 355 348 341 327 340 345 338 326 328 326 333 345 363 357 360 360 359 355 349 339 
104 105 105 100 98 97 103 109 107 109 108 106 106 106 108 119 122 121 106 97 101 100 96 100 94 97 100 95 99 96 99 100 99 97 96 97 94 95 93 100 104 105 105 106 106 109 105 108 107 108 107 105 123 174 225 288 326 337 339 349 351 345 346 338 334 335 334 327 322 326 335 339 351 359 353 358 359 354 338 305 
106 99 103 103 97 98 103 107 106 108 108 107 106 103 106 104 105 102 99 96 99 100 102 96 96 95 101 97 100 102 98 101 98 98 96 97 97 96 94 104 104 105 105 108 107 104 106 109 105 107 107 111 118 154 200 245 302 323 331 337 346 343 342 324 280 277 290 313 310 328 336 340 334 344 350 347 341 324 270 192 
104 101 102 103 98 99 103 107 107 106 108 107 109 106 106 105 103 101 101 98 98 101 100 99 95 94 101 98 102 101 101 98 98 98 96 94 96 94 94 100 106 104 105 107 107 109 108 105 109 107 109 108 111 131 170 210 256 302 324 335 339 346 341 298 234 210 225 302 326 333 331 333 333 333 326 313 270 211 155 135 
105 101 99 100 100 99 103 108 106 106 108 109 105 105 104 105 107 100 102 101 98 102 100 100 96 95 103 102 102 101 102 98 99 98 97 98 96 95 96 101 105 105 105 105 109 107 108 109 108 108 108 108 110 116 137 172 202 243 287 318 332 334 326 297 219 188 184 248 311 315 310 307 292 280 260 211 155 136 121 118 
100 102 104 102 102 100 103 107 108 109 111 107 106 107 105 103 107 100 103 101 100 105 100 100 98 99 100 99 103 102 104 101 99 98 95 97 99 97 100 103 104 104 103 106 107 109 112 109 108 107 109 110 111 110 115 133 160 183 213 253 284 293 296 280 214 172 162 191 246 227 204 176 168 154 148 134 121 119 113 114 
100 101 103 102 102 101 103 104 104 108 112 109 110 107 106 105 103 102 105 98 103 103 99 100 99 98 99 100 102 104 100 103 100 99 96 97 96 101 103 106 103 107 107 110 111 113 111 109 107 110 110 110 110 107 108 112 123 131 146 163 179 181 186 192 180 154 146 145 147 132 124 122 120 120 118 120 112 115 110 111 
103 101 102 105 103 104 104 108 106 110 111 109 112 104 105 106 106 104 102 102 100 103 101 100 98 97 103 101 102 105 103 101 102 100 98 97 95 104 107 108 106 108 109 110 109 111 111 110 108 110 110 108 109 110 109 111 115 112 115 117 121 119 120 124 126 131 134 125 118 118 111 116 114 113 114 112 111 112 110 105 
104 102 107 105 102 101 106 115 111 107 110 113 109 107 107 105 108 106 102 105 102 103 101 101 101 98 102 104 106 107 104 103 102 102 96 96 99 106 110 109 108 110 108 109 111 115 110 110 111 113 109 108 108 112 106 106 109 111 112 111 116 112 113 115 114 114 118 113 109 109 112 111 112 112 111 115 112 111 107 110 
101 105 106 104 102 100 107 111 107 108 109 111 109 108 104 104 107 106 103 104 102 104 100 102 99 98 103 102 102 104 105 101 102 102 99 98 100 111 108 109 106 113 109 110 113 111 111 109 111 110 110 110 109 108 107 109 109 106 108 112 109 110 108 112 109 109 110 109 110 107 109 109 107 107 114 109 108 111 111 111 
105 101 101 104 101 102 107 108 106 107 110 106 104 104 105 107 108 105 100 100 102 105 101 101 98 97 102 102 103 106 104 104 105 102 94 99 104 105 106 106 111 109 108 113 110 112 111 110 109 108 108 106 104 106 103 105 109 107 107 107 106 107 107 108 109 108 113 110 109 108 108 108 108 107 111 109 106 109 103 101 
107 103 104 103 104 106 103 111 107 106 109 109 109 109 104 107 109 108 107 102 105 103 105 102 101 101 104 102 107 108 105 103 107 99 95 104 108 110 110 109 105 107 109 111 112 114 112 109 111 108 110 107 107 106 108 108 111 109 108 108 107 108 109 108 108 110 111 109 109 109 107 109 107 107 105 107 107 113 105 107 
104 104 106 106 108 106 109 113 117 120 112 111 111 111 112 111 110 107 106 104 105 109 105 103 102 103 102 105 106 108 109 106 104 101 98 105 109 112 110 109 108 112 111 111 116 111 116 111 111 109 110 111 110 105 108 108 109 107 111 106 108 106 111 111 109 110 110 108 110 108 107 107 112 106 107 106 106 111 104 106 
103 107 108 107 106 104 109 113 114 114 115 111 112 116 111 111 110 109 109 104 108 110 105 103 101 101 105 105 108 108 109 107 101 99 104 109 109 111 111 108 111 112 112 110 116 111 114 112 109 110 111 108 111 110 109 107 109 106 109 109 108 109 108 110 108 107 109 108 108 108 106 107 110 108 108 109 110 109 106 105 
108 108 106 108 108 110 112 114 111 112 114 109 113 115 111 111 112 108 109 110 106 108 106 103 100 105 106 105 110 109 107 107 100 100 105 110 112 113 112 113 111 111 113 112 115 115 113 114 112 111 111 108 108 109 110 109 107 108 108 109 108 106 106 110 105 110 109 109 107 110 106 107 109 108 111 107 107 108 106 104 
109 109 106 107 108 109 112 116 115 113 111 111 110 113 111 111 113 109 110 107 108 110 106 106 101 104 105 106 108 107 109 106 100 99 110 112 109 111 111 111 110 113 111 114 115 112 110 115 111 113 111 108 109 112 108 109 111 108 109 107 106 107 107 111 108 109 107 108 107 107 107 107 108 103 108 106 107 108 102 100 
110 109 110 109 105 111 112 118 114 112 112 112 111 109 112 112 112 107 112 109 104 106 106 105 104 107 106 103 107 108 109 104 103 105 112 112 112 112 112 113 114 110 111 113 113 115 111 110 111 108 108 109 108 108 106 108 110 110 109 109 109 105 109 113 107 108 109 107 107 108 107 103 104 106 105 106 108 111 103 102 
111 111 110 108 110 110 112 115 114 113 114 113 115 113 115 110 116 112 112 110 108 110 109 108 105 107 111 107 108 110 107 104 104 107 114 115 113 116 114 112 112 114 116 112 114 111 111 112 109 110 109 110 110 108 111 107 109 110 107 106 108 112 109 110 113 109 110 110 110 108 110 107 109 105 109 107 108 111 104 103 
112 114 112 111 109 110 114 114 115 116 117 113 114 112 112 117 115 113 112 113 112 113 109 109 106 110 112 107 110 110 109 103 105 109 114 114 114 114 114 112 113 116 115 111 114 112 112 110 111 112 112 113 111 110 106 108 110 111 111 111 109 106 109 112 113 107 109 108 107 109 106 109 104 103 109 108 105 110 104 100 
115 118 112 112 108 111 113 117 118 119 117 113 116 115 113 113 116 113 115 112 112 114 112 109 106 109 111 108 109 110 106 106 109 113 115 117 112 117 111 116 116 117 117 113 115 115 111 113 112 113 114 110 112 112 112 111 112 113 111 112 110 111 109 115 115 108 111 109 109 109 109 109 109 108 105 108 108 110 104 105 
116 117 115 112 113 117 117 119 116 117 119 117 117 117 113 115 116 116 117 114 116 118 114 109 109 111 109 106 108 110 109 106 111 114 114 114 114 114 113 116 116 114 115 116 113 115 112 111 113 114 113 111 113 113 114 110 111 112 111 108 110 108 112 110 115 109 109 109 104 106 108 108 109 106 109 110 110 111 105 102 
120 119 121 117 116 119 117 120 119 122 120 119 119 120 115 117 121 117 116 115 115 115 116 112 109 111 110 108 109 110 109 111 113 115 117 114 118 118 112 117 117 113 114 113 113 113 115 115 108 112 114 112 113 114 114 111 114 114 115 111 110 110 111 117 115 112 112 106 107 107 109 108 111 108 108 107 107 109 101 102 
124 119 124 123 119 123 123 126 123 119 125 122 120 120 119 120 121 119 119 115 120 122 115 117 109 107 109 110 109 109 110 113 116 118 119 117 115 120 118 117 118 116 115 115 115 113 115 115 118 114 116 115 114 115 116 115 114 115 117 111 116 112 112 114 116 111 111 108 111 111 111 110 111 108 110 108 107 111 105 107 
126 126 126 126 128 125 124 127 123 125 124 122 122 125 122 123 123 120 121 117 118 121 117 115 111 108 108 106 108 109 111 115 115 121 119 117 116 123 121 117 119 116 116 113 115 116 114 114 116 113 113 115 115 113 113 116 118 117 115 113 114 109 111 110 112 109 111 111 114 111 110 111 110 108 109 110 112 114 107 105 
132 130 136 130 125 125 129 127 127 124 128 123 123 125 122 127 126 120 122 121 118 122 120 120 119 119 114 108 111 106 113 116 120 121 119 119 120 120 117 119 118 121 115 119 114 115 117 114 116 118 117 116 114 110 117 117 114 114 114 114 112 110 113 115 113 112 113 111 111 110 112 111 110 112 109 109 110 112 112 108 
138 137 135 133 131 129 132 129 129 127 131 128 129 126 125 128 128 125 123 125 124 123 129 125 119 118 120 115 110 114 115 120 120 119 126 121 121 120 120 122 118 120 117 115 119 117 118 117 118 118 114 116 118 119 115 116 117 112 114 115 115 112 114 118 114 111 114 111 113 111 115 115 111 112 112 111 112 116 111 109 
141 144 137 136 129 129 129 130 128 126 134 129 130 128 128 128 131 125 126 124 123 123 127 125 121 118 122 117 116 114 116 121 122 123 121 125 119 121 115 122 114 120 116 114 115 123 119 115 117 119 118 117 117 119 116 118 113 115 117 113 117 115 112 114 113 113 117 110 117 110 120 113 113 113 113 112 114 116 109 110 


